%TF.GenerationSoftware,KiCad,Pcbnew,7.0.11+dfsg-1build4*%
%TF.CreationDate,2026-09-26T20:24:41+00:00*%
%TF.ProjectId,shotpuck,73686f74-7075-4636-9b2e-6b696361645f,rev?*%
%TF.SameCoordinates,Original*%
%TF.FileFunction,Legend,Top*%
%TF.FilePolarity,Positive*%
%FSLAX46Y46*%
G04 Gerber Fmt 4.6, Leading zero omitted, Abs format (unit mm)*
G04 Created by KiCad (PCBNEW 7.0.11+dfsg-1build4) date 2026-09-26 20:24:41*
%MOMM*%
%LPD*%
G01*
G04 APERTURE LIST*
%ADD10C,0.120000*%
%ADD11C,0.100000*%
G04 APERTURE END LIST*
D10*
%TO.C,C2*%
X1890000Y-10340580D02*
X1890000Y-10059420D01*
X2910000Y-10340580D02*
X2910000Y-10059420D01*
%TO.C,R4*%
X-7053641Y7780000D02*
X-6746359Y7780000D01*
X-7053641Y7020000D02*
X-6746359Y7020000D01*
%TO.C,C1*%
X10059420Y13710000D02*
X10340580Y13710000D01*
X10059420Y12690000D02*
X10340580Y12690000D01*
%TO.C,R2*%
X8646359Y-14220000D02*
X8953641Y-14220000D01*
X8646359Y-14980000D02*
X8953641Y-14980000D01*
%TO.C,Q1*%
X8490000Y-11440000D02*
X9900000Y-11440000D01*
X8500000Y-13760000D02*
X9900000Y-13760000D01*
X8120000Y-11490000D02*
X7880000Y-11160000D01*
X8360000Y-11160000D01*
X8120000Y-11490000D01*
G36*
X8120000Y-11490000D02*
G01*
X7880000Y-11160000D01*
X8360000Y-11160000D01*
X8120000Y-11490000D01*
G37*
%TO.C,J2*%
X-10905000Y9730000D02*
X-10905000Y10365000D01*
X-10270000Y9730000D02*
X-10905000Y9730000D01*
%TO.C,BT1*%
X7900000Y-7400000D02*
X9100000Y-7400000D01*
X8500000Y-6800000D02*
X8500000Y-8000000D01*
X16600000Y0D02*
G75*
G03*
X400000Y0I-8100000J0D01*
G01*
X400000Y0D02*
G75*
G03*
X16600000Y0I8100000J0D01*
G01*
%TO.C,C4*%
X-1407836Y7260000D02*
X-1192164Y7260000D01*
X-1407836Y6540000D02*
X-1192164Y6540000D01*
%TO.C,U3*%
X3900000Y-11840000D02*
X3100000Y-11840000D01*
X3900000Y-11840000D02*
X4700000Y-11840000D01*
X3900000Y-14960000D02*
X3100000Y-14960000D01*
X3900000Y-14960000D02*
X4700000Y-14960000D01*
X2600000Y-11890000D02*
X2360000Y-11560000D01*
X2840000Y-11560000D01*
X2600000Y-11890000D01*
G36*
X2600000Y-11890000D02*
G01*
X2360000Y-11560000D01*
X2840000Y-11560000D01*
X2600000Y-11890000D01*
G37*
%TO.C,D1*%
X8510000Y12050000D02*
X8510000Y13750000D01*
X8510000Y12050000D02*
X5850000Y12050000D01*
X8510000Y13750000D02*
X5850000Y13750000D01*
%TO.C,JP1*%
X3900000Y-9000000D02*
X6700000Y-9000000D01*
X3900000Y-11000000D02*
X3900000Y-9000000D01*
X6700000Y-9000000D02*
X6700000Y-11000000D01*
X6700000Y-11000000D02*
X3900000Y-11000000D01*
%TO.C,U1*%
X-17100000Y-5350000D02*
X-16000000Y-5350000D01*
X-2500000Y-5350000D02*
X-1400000Y-5350000D01*
X-1400000Y-5350000D02*
X-1400000Y-4250000D01*
X-17100000Y-4250000D02*
X-17100000Y-5350000D01*
X-17100000Y4250000D02*
X-17100000Y5350000D01*
X-17100000Y5350000D02*
X-16000000Y5350000D01*
X-2500000Y5350000D02*
X-1400000Y5350000D01*
X-1400000Y5350000D02*
X-1400000Y4250000D01*
X-12760000Y-5711000D02*
X-13240000Y-5711000D01*
X-13000000Y-5375000D01*
X-12760000Y-5711000D01*
G36*
X-12760000Y-5711000D02*
G01*
X-13240000Y-5711000D01*
X-13000000Y-5375000D01*
X-12760000Y-5711000D01*
G37*
%TO.C,J1*%
X-4500000Y14100000D02*
X4500000Y14100000D01*
X-4500000Y9900000D02*
X-4500000Y14100000D01*
X4500000Y14100000D02*
X4500000Y9900000D01*
X4500000Y9900000D02*
X-4500000Y9900000D01*
%TO.C,U2*%
X-2500000Y-9299999D02*
X-2500000Y-9299999D01*
X-2500000Y-8799999D02*
X-2500000Y-9099999D01*
X-2500000Y-7599999D02*
X-2500000Y-7599999D01*
X-2500000Y-7099999D02*
X-2500000Y-7599999D01*
X-3000000Y-9299999D02*
X-2700000Y-9299999D01*
X-3000000Y-7099999D02*
X-2500000Y-7099999D01*
X-4200000Y-9299999D02*
X-4700000Y-9299999D01*
X-4200000Y-7099999D02*
X-4200000Y-7099999D01*
X-4700000Y-9299999D02*
X-4700000Y-8799999D01*
X-4700000Y-8799999D02*
X-4700000Y-8799999D01*
X-4700000Y-7599999D02*
X-4700000Y-7099999D01*
X-4700000Y-7099999D02*
X-4200000Y-7099999D01*
X-2500000Y-9659999D02*
X-2500000Y-9299999D01*
X-2140000Y-9299999D01*
X-2500000Y-9659999D01*
G36*
X-2500000Y-9659999D02*
G01*
X-2500000Y-9299999D01*
X-2140000Y-9299999D01*
X-2500000Y-9659999D01*
G37*
%TO.C,R5*%
X-1380000Y-9453641D02*
X-1380000Y-9146359D01*
X-620000Y-9453641D02*
X-620000Y-9146359D01*
%TO.C,R1*%
X6520000Y-13753641D02*
X6520000Y-13446359D01*
X7280000Y-13753641D02*
X7280000Y-13446359D01*
%TO.C,D2*%
X12150000Y-11610000D02*
X13850000Y-11610000D01*
X12150000Y-11610000D02*
X12150000Y-8950000D01*
X13850000Y-11610000D02*
X13850000Y-8950000D01*
%TO.C,D3*%
X-3760000Y16100000D02*
X-3760000Y14900000D01*
X-1800000Y16100000D02*
X-3760000Y16100000D01*
X-1800000Y14900000D02*
X-3760000Y14900000D01*
%TO.C,C5*%
X-1407836Y8460000D02*
X-1192164Y8460000D01*
X-1407836Y7740000D02*
X-1192164Y7740000D01*
D11*
%TO.C,D4*%
X-3760000Y7400000D02*
G75*
G03*
X-3860000Y7400000I-50000J0D01*
G01*
X-3860000Y7400000D02*
G75*
G03*
X-3760000Y7400000I50000J0D01*
G01*
D10*
%TO.C,R6*%
X-280000Y-10953641D02*
X-280000Y-10646359D01*
X480000Y-10953641D02*
X480000Y-10646359D01*
%TO.C,R3*%
X11120000Y-12753641D02*
X11120000Y-12446359D01*
X11880000Y-12753641D02*
X11880000Y-12446359D01*
%TO.C,C6*%
X-3707836Y-9940000D02*
X-3492164Y-9940000D01*
X-3707836Y-10660000D02*
X-3492164Y-10660000D01*
%TO.C,C3*%
X992164Y7260000D02*
X1207836Y7260000D01*
X992164Y6540000D02*
X1207836Y6540000D01*
%TD*%
M02*
