%TF.GenerationSoftware,KiCad,Pcbnew,10.0.6*%
%TF.CreationDate,2026-09-29T01:28:05+02:00*%
%TF.ProjectId,shotpuck,73686f74-7075-4636-9b2e-6b696361645f,rev?*%
%TF.SameCoordinates,Original*%
%TF.FileFunction,Copper,L1,Top*%
%TF.FilePolarity,Positive*%
%FSLAX46Y46*%
G04 Gerber Fmt 4.6, Leading zero omitted, Abs format (unit mm)*
G04 Created by KiCad (PCBNEW 10.0.6) date 2026-09-29 01:28:05*
%MOMM*%
%LPD*%
G01*
G04 APERTURE LIST*
G04 Aperture macros list*
%AMRoundRect*
0 Rectangle with rounded corners*
0 $1 Rounding radius*
0 $2 $3 $4 $5 $6 $7 $8 $9 X,Y pos of 4 corners*
0 Add a 4 corners polygon primitive as box body*
4,1,4,$2,$3,$4,$5,$6,$7,$8,$9,$2,$3,0*
0 Add four circle primitives for the rounded corners*
1,1,$1+$1,$2,$3*
1,1,$1+$1,$4,$5*
1,1,$1+$1,$6,$7*
1,1,$1+$1,$8,$9*
0 Add four rect primitives between the rounded corners*
20,1,$1+$1,$2,$3,$4,$5,0*
20,1,$1+$1,$4,$5,$6,$7,0*
20,1,$1+$1,$6,$7,$8,$9,0*
20,1,$1+$1,$8,$9,$2,$3,0*%
%AMRotRect*
0 Rectangle, with rotation*
0 The origin of the aperture is its center*
0 $1 length*
0 $2 width*
0 $3 Rotation angle, in degrees counterclockwise*
0 Add horizontal line*
21,1,$1,$2,0,0,$3*%
G04 Aperture macros list end*
%TA.AperFunction,SMDPad,CuDef*%
%ADD10RoundRect,0.140000X0.140000X0.170000X-0.140000X0.170000X-0.140000X-0.170000X0.140000X-0.170000X0*%
%TD*%
%TA.AperFunction,SMDPad,CuDef*%
%ADD11RoundRect,0.070000X0.355000X-0.070000X0.355000X0.070000X-0.355000X0.070000X-0.355000X-0.070000X0*%
%TD*%
%TA.AperFunction,SMDPad,CuDef*%
%ADD12RoundRect,0.070000X0.305000X-0.070000X0.305000X0.070000X-0.305000X0.070000X-0.305000X-0.070000X0*%
%TD*%
%TA.AperFunction,SMDPad,CuDef*%
%ADD13RoundRect,0.225000X-0.225000X-0.250000X0.225000X-0.250000X0.225000X0.250000X-0.225000X0.250000X0*%
%TD*%
%TA.AperFunction,SMDPad,CuDef*%
%ADD14RoundRect,0.140000X-0.140000X-0.170000X0.140000X-0.170000X0.140000X0.170000X-0.140000X0.170000X0*%
%TD*%
%TA.AperFunction,SMDPad,CuDef*%
%ADD15R,0.400000X0.600000*%
%TD*%
%TA.AperFunction,SMDPad,CuDef*%
%ADD16R,0.600000X0.400000*%
%TD*%
%TA.AperFunction,SMDPad,CuDef*%
%ADD17RoundRect,0.140000X0.170000X-0.140000X0.170000X0.140000X-0.170000X0.140000X-0.170000X-0.140000X0*%
%TD*%
%TA.AperFunction,SMDPad,CuDef*%
%ADD18RoundRect,0.135000X-0.185000X0.135000X-0.185000X-0.135000X0.185000X-0.135000X0.185000X0.135000X0*%
%TD*%
%TA.AperFunction,SMDPad,CuDef*%
%ADD19RoundRect,0.147500X-0.147500X-0.172500X0.147500X-0.172500X0.147500X0.172500X-0.147500X0.172500X0*%
%TD*%
%TA.AperFunction,SMDPad,CuDef*%
%ADD20RotRect,2.500000X2.000000X239.984259*%
%TD*%
%TA.AperFunction,SMDPad,CuDef*%
%ADD21RotRect,2.500000X2.000000X279.944731*%
%TD*%
%TA.AperFunction,SMDPad,CuDef*%
%ADD22RoundRect,0.135000X0.185000X-0.135000X0.185000X0.135000X-0.185000X0.135000X-0.185000X-0.135000X0*%
%TD*%
%TA.AperFunction,SMDPad,CuDef*%
%ADD23RoundRect,0.087500X-0.087500X0.225000X-0.087500X-0.225000X0.087500X-0.225000X0.087500X0.225000X0*%
%TD*%
%TA.AperFunction,SMDPad,CuDef*%
%ADD24RoundRect,0.087500X-0.225000X0.087500X-0.225000X-0.087500X0.225000X-0.087500X0.225000X0.087500X0*%
%TD*%
%TA.AperFunction,SMDPad,CuDef*%
%ADD25RoundRect,0.125000X0.125000X-0.125000X0.125000X0.125000X-0.125000X0.125000X-0.125000X-0.125000X0*%
%TD*%
%TA.AperFunction,SMDPad,CuDef*%
%ADD26RoundRect,0.135000X0.135000X0.185000X-0.135000X0.185000X-0.135000X-0.185000X0.135000X-0.185000X0*%
%TD*%
%TA.AperFunction,SMDPad,CuDef*%
%ADD27RoundRect,0.150000X-0.512500X-0.150000X0.512500X-0.150000X0.512500X0.150000X-0.512500X0.150000X0*%
%TD*%
%TA.AperFunction,SMDPad,CuDef*%
%ADD28RoundRect,0.087500X-0.425000X-0.087500X0.425000X-0.087500X0.425000X0.087500X-0.425000X0.087500X0*%
%TD*%
%TA.AperFunction,SMDPad,CuDef*%
%ADD29RoundRect,0.125000X-0.125000X-0.125000X0.125000X-0.125000X0.125000X0.125000X-0.125000X0.125000X0*%
%TD*%
%TA.AperFunction,ComponentPad*%
%ADD30RotRect,1.300000X1.300000X75.000000*%
%TD*%
%TA.AperFunction,ComponentPad*%
%ADD31C,1.300000*%
%TD*%
%TA.AperFunction,SMDPad,CuDef*%
%ADD32RoundRect,0.135000X-0.135000X-0.185000X0.135000X-0.185000X0.135000X0.185000X-0.135000X0.185000X0*%
%TD*%
%TA.AperFunction,SMDPad,CuDef*%
%ADD33RoundRect,0.250000X-0.300000X-0.300000X0.300000X-0.300000X0.300000X0.300000X-0.300000X0.300000X0*%
%TD*%
%TA.AperFunction,ViaPad*%
%ADD34C,0.550000*%
%TD*%
%TA.AperFunction,Conductor*%
%ADD35C,0.150000*%
%TD*%
%TA.AperFunction,Conductor*%
%ADD36C,0.300000*%
%TD*%
%TA.AperFunction,Conductor*%
%ADD37C,0.200000*%
%TD*%
%TA.AperFunction,Conductor*%
%ADD38C,0.400000*%
%TD*%
G04 APERTURE END LIST*
D10*
%TO.P,C4,1*%
%TO.N,VDD*%
X-10220000Y9100000D03*
%TO.P,C4,2*%
%TO.N,GND*%
X-11180000Y9100000D03*
%TD*%
D11*
%TO.P,U4,1*%
%TO.N,N/C*%
X-12875000Y-9500000D03*
D12*
%TO.P,U4,2*%
%TO.N,PCM_COUT*%
X-12825000Y-9000000D03*
%TO.P,U4,3*%
%TO.N,PCM_DOUT*%
X-12825000Y-8500000D03*
%TO.P,U4,4*%
%TO.N,BAT_N*%
X-13975000Y-8500000D03*
%TO.P,U4,5*%
%TO.N,PCM_BAT*%
X-13975000Y-9000000D03*
%TO.P,U4,6*%
%TO.N,PCM_VM*%
X-13975000Y-9500000D03*
%TD*%
D13*
%TO.P,C1,1*%
%TO.N,VIN*%
X5825000Y2900000D03*
%TO.P,C1,2*%
%TO.N,GND*%
X7375000Y2900000D03*
%TD*%
D14*
%TO.P,C8,1*%
%TO.N,PCM_BAT*%
X-14080000Y-6900000D03*
%TO.P,C8,2*%
%TO.N,BAT_N*%
X-13120000Y-6900000D03*
%TD*%
D15*
%TO.P,U1,1*%
%TO.N,GND*%
X3800000Y15400000D03*
%TO.P,U1,2*%
X2700000Y15400000D03*
%TO.P,U1,3*%
%TO.N,N/C*%
X1900000Y15400000D03*
%TO.P,U1,4*%
X300000Y15400000D03*
%TO.P,U1,5*%
X-100000Y14500000D03*
%TO.P,U1,6*%
X-500000Y15400000D03*
%TO.P,U1,7*%
X-900000Y14500000D03*
%TO.P,U1,8*%
X-1300000Y15400000D03*
%TO.P,U1,9*%
X-1700000Y14500000D03*
%TO.P,U1,10*%
X-2100000Y15400000D03*
%TO.P,U1,11*%
X-2500000Y14500000D03*
%TO.P,U1,12*%
X-2900000Y15400000D03*
%TO.P,U1,13*%
X-3300000Y14500000D03*
%TO.P,U1,14*%
X-3700000Y15400000D03*
D16*
%TO.P,U1,15*%
%TO.N,GND*%
X-7100000Y15550000D03*
%TO.P,U1,16*%
%TO.N,ACC_INT1*%
X-7100000Y14750000D03*
%TO.P,U1,17*%
%TO.N,N/C*%
X-7100000Y13950000D03*
%TO.P,U1,18*%
X-7100000Y13150000D03*
%TO.P,U1,19*%
X-6200000Y12750000D03*
%TO.P,U1,20*%
%TO.N,SDA*%
X-7100000Y12350000D03*
%TO.P,U1,21*%
%TO.N,N/C*%
X-6200000Y11950000D03*
%TO.P,U1,22*%
%TO.N,SCL*%
X-7100000Y11550000D03*
%TO.P,U1,23*%
%TO.N,N/C*%
X-6200000Y11150000D03*
%TO.P,U1,24*%
%TO.N,CHG_INH*%
X-7100000Y10750000D03*
%TO.P,U1,25*%
%TO.N,N/C*%
X-6200000Y10350000D03*
%TO.P,U1,26*%
%TO.N,CHG_STAT*%
X-7100000Y9950000D03*
%TO.P,U1,27*%
%TO.N,N/C*%
X-6200000Y9550000D03*
%TO.P,U1,28*%
%TO.N,VDD*%
X-7100000Y9150000D03*
%TO.P,U1,29*%
%TO.N,N/C*%
X-6200000Y8750000D03*
%TO.P,U1,30*%
%TO.N,VBAT*%
X-7100000Y8350000D03*
%TO.P,U1,31*%
%TO.N,N/C*%
X-7100000Y7550000D03*
%TO.P,U1,32*%
%TO.N,VBUS_SNS*%
X-7100000Y6750000D03*
%TO.P,U1,33*%
%TO.N,GND*%
X-7100000Y5950000D03*
D15*
%TO.P,U1,34*%
%TO.N,N/C*%
X-6100000Y6100000D03*
%TO.P,U1,35*%
X-5300000Y6100000D03*
%TO.P,U1,36*%
X-4900000Y7000000D03*
%TO.P,U1,37*%
%TO.N,LED_IO*%
X-4500000Y6100000D03*
%TO.P,U1,38*%
%TO.N,N/C*%
X-4100000Y7000000D03*
%TO.P,U1,39*%
X-3700000Y6100000D03*
%TO.P,U1,40*%
X-3300000Y7000000D03*
%TO.P,U1,41*%
X-2900000Y6100000D03*
%TO.P,U1,42*%
X-2500000Y7000000D03*
%TO.P,U1,43*%
X-1700000Y7000000D03*
%TO.P,U1,44*%
X-1300000Y6100000D03*
%TO.P,U1,45*%
X-900000Y7000000D03*
%TO.P,U1,46*%
X-500000Y6100000D03*
%TO.P,U1,47*%
X-100000Y7000000D03*
%TO.P,U1,48*%
X300000Y6100000D03*
%TO.P,U1,49*%
X700000Y7000000D03*
%TO.P,U1,50*%
X1500000Y7000000D03*
%TO.P,U1,51*%
%TO.N,SWDIO*%
X1900000Y6100000D03*
%TO.P,U1,52*%
%TO.N,N/C*%
X2300000Y7000000D03*
%TO.P,U1,53*%
%TO.N,SWDCLK*%
X2700000Y6100000D03*
%TO.P,U1,54*%
%TO.N,N/C*%
X3100000Y7000000D03*
%TO.P,U1,55*%
%TO.N,GND*%
X3800000Y6100000D03*
D16*
%TO.P,U1,56*%
%TO.N,N/C*%
X-500000Y12750000D03*
%TO.P,U1,57*%
X-500000Y11950000D03*
%TO.P,U1,58*%
X-500000Y11150000D03*
%TO.P,U1,59*%
X-500000Y10350000D03*
%TO.P,U1,60*%
X-500000Y9550000D03*
%TO.P,U1,61*%
X-500000Y8750000D03*
%TD*%
D17*
%TO.P,C7,1*%
%TO.N,VDD*%
X-12600000Y8720000D03*
%TO.P,C7,2*%
%TO.N,GND*%
X-12600000Y9680000D03*
%TD*%
D18*
%TO.P,R9,1*%
%TO.N,VIN*%
X-8800000Y2910000D03*
%TO.P,R9,2*%
%TO.N,VBUS_SNS*%
X-8800000Y1890000D03*
%TD*%
D19*
%TO.P,D4,1*%
%TO.N,GND*%
X-7085000Y4440000D03*
%TO.P,D4,2*%
%TO.N,LED_A*%
X-6115000Y4440000D03*
%TD*%
D20*
%TO.P,BT1,1*%
%TO.N,BAT_P*%
X-7270000Y-7550000D03*
D21*
%TO.P,BT1,2*%
%TO.N,BAT_N*%
X-8270000Y-13199999D03*
%TD*%
D10*
%TO.P,C5,1*%
%TO.N,VDD*%
X-10220000Y6900000D03*
%TO.P,C5,2*%
%TO.N,GND*%
X-11180000Y6900000D03*
%TD*%
D17*
%TO.P,C6,1*%
%TO.N,VDD*%
X-12400000Y10720000D03*
%TO.P,C6,2*%
%TO.N,GND*%
X-12400000Y11680000D03*
%TD*%
D22*
%TO.P,R1,1*%
%TO.N,PROG*%
X-15200000Y-2010000D03*
%TO.P,R1,2*%
%TO.N,PROG_SW*%
X-15200000Y-990000D03*
%TD*%
D23*
%TO.P,U2,1*%
%TO.N,GND*%
X-9450000Y12662500D03*
%TO.P,U2,2*%
X-9950000Y12662500D03*
%TO.P,U2,3*%
X-10450000Y12662500D03*
%TO.P,U2,4*%
%TO.N,ACC_INT1*%
X-10950000Y12662500D03*
D24*
%TO.P,U2,5*%
%TO.N,VDD*%
X-11112500Y12000000D03*
%TO.P,U2,6*%
%TO.N,GND*%
X-11112500Y11500000D03*
%TO.P,U2,7*%
X-11112500Y11000000D03*
D23*
%TO.P,U2,8*%
%TO.N,VDD*%
X-10950000Y10337500D03*
%TO.P,U2,9*%
%TO.N,N/C*%
X-10450000Y10337500D03*
%TO.P,U2,10*%
X-9950000Y10337500D03*
%TO.P,U2,11*%
X-9450000Y10337500D03*
D24*
%TO.P,U2,12*%
%TO.N,VDD*%
X-9287500Y11000000D03*
%TO.P,U2,13*%
%TO.N,SCL*%
X-9287500Y11500000D03*
%TO.P,U2,14*%
%TO.N,SDA*%
X-9287500Y12000000D03*
%TD*%
D13*
%TO.P,C2,1*%
%TO.N,VBAT*%
X-14175000Y-4099999D03*
%TO.P,C2,2*%
%TO.N,GND*%
X-12625000Y-4099999D03*
%TD*%
D17*
%TO.P,C9,1*%
%TO.N,VBUS_SNS*%
X-7800000Y1320000D03*
%TO.P,C9,2*%
%TO.N,GND*%
X-7800000Y2280000D03*
%TD*%
D10*
%TO.P,C3,1*%
%TO.N,VBAT*%
X-10220000Y8000000D03*
%TO.P,C3,2*%
%TO.N,GND*%
X-11180000Y8000000D03*
%TD*%
D25*
%TO.P,D2,1*%
%TO.N,STAT*%
X-9000000Y-2400000D03*
%TO.P,D2,2*%
%TO.N,CHG_STAT*%
X-9000000Y-200000D03*
%TD*%
D26*
%TO.P,R4,1*%
%TO.N,LED_IO*%
X-4090000Y4440000D03*
%TO.P,R4,2*%
%TO.N,LED_A*%
X-5110000Y4440000D03*
%TD*%
D27*
%TO.P,U3,1*%
%TO.N,STAT*%
X-13537500Y-550000D03*
%TO.P,U3,2*%
%TO.N,GND*%
X-13537500Y-1500000D03*
%TO.P,U3,3*%
%TO.N,VBAT*%
X-13537500Y-2450000D03*
%TO.P,U3,4*%
%TO.N,VIN*%
X-11262500Y-2450000D03*
%TO.P,U3,5*%
%TO.N,PROG*%
X-11262500Y-550000D03*
%TD*%
D28*
%TO.P,Q2,1*%
%TO.N,BAT_N*%
X-11437500Y-8350000D03*
%TO.P,Q2,2*%
%TO.N,PCM_DOUT*%
X-11437500Y-9000000D03*
%TO.P,Q2,3*%
%TO.N,PCM_D*%
X-11437500Y-9650000D03*
%TO.P,Q2,4*%
%TO.N,GND*%
X-9762500Y-9650000D03*
%TO.P,Q2,5*%
%TO.N,PCM_COUT*%
X-9762500Y-9000000D03*
%TO.P,Q2,6*%
%TO.N,PCM_D*%
X-9762500Y-8350000D03*
%TD*%
D29*
%TO.P,D1,1*%
%TO.N,VIN*%
X8850000Y2600000D03*
%TO.P,D1,2*%
%TO.N,VIN_RAW*%
X11050000Y2600000D03*
%TD*%
D22*
%TO.P,R2,1*%
%TO.N,VIN*%
X-15600000Y1090000D03*
%TO.P,R2,2*%
%TO.N,Q1_GATE*%
X-15600000Y2110000D03*
%TD*%
D30*
%TO.P,J1,1*%
%TO.N,VIN_RAW*%
X13196476Y-4827407D03*
D31*
%TO.P,J1,2*%
%TO.N,GND*%
X13843524Y-2412593D03*
%TD*%
D32*
%TO.P,R8,1*%
%TO.N,PCM_VM*%
X-13110000Y-10900000D03*
%TO.P,R8,2*%
%TO.N,GND*%
X-12090000Y-10900000D03*
%TD*%
D33*
%TO.P,D3,1*%
%TO.N,GND*%
X7200000Y400000D03*
%TO.P,D3,2*%
%TO.N,VIN_RAW*%
X10000000Y400000D03*
%TD*%
D22*
%TO.P,R7,1*%
%TO.N,VBAT*%
X-15400000Y-5810000D03*
%TO.P,R7,2*%
%TO.N,PCM_BAT*%
X-15400000Y-4790000D03*
%TD*%
%TO.P,R3,1*%
%TO.N,CHG_INH*%
X-10300000Y1690000D03*
%TO.P,R3,2*%
%TO.N,GND*%
X-10300000Y2710000D03*
%TD*%
D28*
%TO.P,Q1,1*%
%TO.N,GND*%
X-14037500Y2850000D03*
%TO.P,Q1,2*%
%TO.N,Q1_GATE*%
X-14037500Y2200000D03*
%TO.P,Q1,3*%
X-14037500Y1550000D03*
%TO.P,Q1,4*%
%TO.N,GND*%
X-12362500Y1550000D03*
%TO.P,Q1,5*%
%TO.N,CHG_INH*%
X-12362500Y2200000D03*
%TO.P,Q1,6*%
%TO.N,PROG_SW*%
X-12362500Y2850000D03*
%TD*%
D34*
%TO.N,VDD*%
X-4039900Y11137400D03*
X-4335500Y14312500D03*
X-10103400Y11079000D03*
%TO.N,GND*%
X-11818557Y832973D03*
X8000000Y-4800000D03*
X-12337500Y-1500000D03*
X-9218557Y-10367026D03*
X-6899999Y2280000D03*
X6000000Y400000D03*
X-12800000Y4800000D03*
X-6216913Y15723661D03*
X8414230Y3500000D03*
X-11585769Y-3499999D03*
X8000000Y-6400000D03*
X-7951606Y5658851D03*
X8000000Y-8000000D03*
X-13379422Y10130000D03*
X6400000Y-1600000D03*
X-8782974Y13266716D03*
X8000000Y-1600000D03*
X808450Y12824500D03*
X-11190000Y-10900000D03*
X6400000Y-3200000D03*
X-12049333Y7767062D03*
X-7985000Y4440000D03*
X8000000Y-9600000D03*
X-13301751Y3797984D03*
X2462188Y16268012D03*
X3367700Y16519427D03*
X-6400000Y-1600000D03*
X8000000Y-3200000D03*
X-10139222Y11782616D03*
X-12080000Y6900000D03*
X-11630000Y9879422D03*
X-16000000Y-3200000D03*
X-10300000Y3610000D03*
X-6400000Y-3200000D03*
X-6400000Y0D03*
%TO.N,VIN*%
X4700000Y3650000D03*
X-14090500Y901800D03*
X-7750000Y3250000D03*
%TO.N,CHG_INH*%
X-10015800Y6161700D03*
X-8467000Y9961500D03*
%TO.N,CHG_STAT*%
X-7817000Y10296700D03*
X-11345400Y2040500D03*
%TO.N,VBAT*%
X-12670400Y-3179600D03*
X-14076100Y-5346100D03*
%TO.N,SWDIO*%
X2350000Y5350000D03*
%TO.N,SWDCLK*%
X3150000Y5350000D03*
%TO.N,BAT_P*%
X-8403400Y-4771000D03*
%TO.N,PROG_SW*%
X-11385400Y3158600D03*
X-15067900Y143100D03*
%TD*%
%TO.N,VDD*%
D35*
X-10950000Y9830000D02*
X-10220000Y9100000D01*
X-12600000Y8550000D02*
X-12600000Y8720000D01*
X-9366500Y11079000D02*
X-9287500Y11000000D01*
X-12600000Y6659000D02*
X-12600000Y8550000D01*
X-11634200Y10720000D02*
X-12400000Y10720000D01*
X-10011300Y11079000D02*
X-10103400Y11079000D01*
X-10770000Y8550000D02*
X-10220000Y9100000D01*
X-9031700Y9582900D02*
X-9503100Y9111500D01*
X-11634200Y11761600D02*
X-11634200Y10720000D01*
X-10818500Y6301500D02*
X-12242500Y6301500D01*
X-10950000Y10337500D02*
X-11251700Y10337500D01*
X-4039900Y11329900D02*
X-4039900Y11137400D01*
X-9377100Y9237500D02*
X-9377100Y9224800D01*
X-4039900Y11137400D02*
X-4335500Y11433000D01*
X-10950000Y10337500D02*
X-10950000Y9830000D01*
X-11395800Y12000000D02*
X-11634200Y11761600D01*
X-12600000Y8550000D02*
X-10770000Y8550000D01*
X-10103400Y11079000D02*
X-9366500Y11079000D01*
X-9031700Y10744200D02*
X-9031700Y9582900D01*
X-11112500Y12000000D02*
X-11395800Y12000000D01*
X-9287500Y11000000D02*
X-9031700Y10744200D01*
X-11251700Y10337500D02*
X-11634200Y10720000D01*
X-9375300Y9223000D02*
X-9375300Y9113500D01*
D36*
X-7100000Y9150000D02*
X-10220000Y9100000D01*
D35*
X-10220000Y6900000D02*
X-10818500Y6301500D01*
X-12242500Y6301500D02*
X-12600000Y6659000D01*
X-9377100Y9237500D02*
X-9503100Y9111500D01*
X-9031700Y9582900D02*
X-9377100Y9237500D01*
X-4335500Y11433000D02*
X-4335500Y14312500D01*
X-9377100Y9224800D02*
X-9375300Y9223000D01*
%TO.N,GND*%
D37*
X-7724200Y4440000D02*
X-7985000Y4440000D01*
X-13200000Y1550000D02*
X-13200000Y2850000D01*
D35*
X-7714200Y4239200D02*
X-6900000Y3425000D01*
X-7724200Y4440000D02*
X-7951600Y4667400D01*
D37*
X-7100000Y15550000D02*
X-6216913Y15723661D01*
X-7714200Y4440000D02*
X-7724200Y4440000D01*
D35*
X-12080000Y7736400D02*
X-12080000Y6900000D01*
X-12191700Y-2874300D02*
X-12337500Y-2728500D01*
D37*
X-12090000Y-10900000D02*
X-11190000Y-10900000D01*
X-12362500Y1550000D02*
X-11818557Y832973D01*
D35*
X-12049300Y7767100D02*
X-12080000Y7736400D01*
D37*
X-7100000Y5950000D02*
X-7951606Y5658851D01*
X7375000Y2900000D02*
X8414230Y3500000D01*
X-14037500Y2850000D02*
X-13301751Y3797984D01*
X-9950000Y12662500D02*
X-10139222Y11782616D01*
X-12362500Y1550000D02*
X-13200000Y1550000D01*
X-11825100Y-3638200D02*
X-11585800Y-3500000D01*
D35*
X-7951600Y4667400D02*
X-7951600Y5658900D01*
D37*
X-9450000Y12662500D02*
X-8782974Y13266716D01*
X-7800000Y2280000D02*
X-6899999Y2280000D01*
D35*
X-6900000Y3425000D02*
X-6900000Y2280000D01*
X-12337500Y-2728500D02*
X-12337500Y-1500000D01*
D37*
X-10300000Y2710000D02*
X-10300000Y3610000D01*
X-13537500Y-1500000D02*
X-12337500Y-1500000D01*
X-9762500Y-9650000D02*
X-9218557Y-10367026D01*
X-7085000Y4440000D02*
X-7985000Y4440000D01*
X-11180000Y6900000D02*
X-12080000Y6900000D01*
X-12625000Y-4100000D02*
X-11825100Y-3638200D01*
D35*
X-7714200Y4440000D02*
X-7714200Y4239200D01*
D37*
X-13200000Y2850000D02*
X-14037500Y2850000D01*
D35*
X-11825100Y-3638200D02*
X-12191700Y-3271600D01*
D37*
X-11180000Y9100000D02*
X-11630000Y9879422D01*
X-11180000Y8000000D02*
X-12049333Y7767062D01*
X-12625000Y-4099999D02*
X-11585769Y-3499999D01*
X-7085000Y4440000D02*
X-7714200Y4440000D01*
X7200000Y400000D02*
X6000000Y400000D01*
X3800000Y15400000D02*
X3367700Y16519427D01*
X2700000Y15400000D02*
X2462188Y16268012D01*
X-12600000Y9680000D02*
X-13379422Y10130000D01*
D35*
X-12191700Y-3271600D02*
X-12191700Y-2874300D01*
%TO.N,PCM_COUT*%
X-12422500Y-11424200D02*
X-9556500Y-11424200D01*
X-12246000Y-9297700D02*
X-12246000Y-10256400D01*
X-12825000Y-9000000D02*
X-12543700Y-9000000D01*
X-9456800Y-9000000D02*
X-9762500Y-9000000D01*
X-8686000Y-9770800D02*
X-9456800Y-9000000D01*
X-12543700Y-9000000D02*
X-12246000Y-9297700D01*
X-9556500Y-11424200D02*
X-8686000Y-10553700D01*
X-12564200Y-10574600D02*
X-12564200Y-11282500D01*
X-8686000Y-10553700D02*
X-8686000Y-9770800D01*
X-12564200Y-11282500D02*
X-12422500Y-11424200D01*
X-12246000Y-10256400D02*
X-12564200Y-10574600D01*
%TO.N,PCM_DOUT*%
X-11859700Y-9000000D02*
X-12359700Y-8500000D01*
X-11437500Y-9000000D02*
X-11859700Y-9000000D01*
X-12359700Y-8500000D02*
X-12825000Y-8500000D01*
%TO.N,BAT_N*%
X-11044600Y-7957100D02*
X-11437500Y-8350000D01*
X-13120000Y-7878100D02*
X-11909400Y-7878100D01*
X-8557500Y-11560200D02*
X-8395800Y-11398500D01*
X-13975000Y-8500000D02*
X-13353100Y-7878100D01*
X-8270000Y-13200000D02*
X-8557500Y-11560200D01*
X-13353100Y-7878100D02*
X-13120000Y-7878100D01*
X-8395800Y-11398500D02*
X-8395800Y-8788700D01*
X-13120000Y-7878100D02*
X-13120000Y-6900000D01*
X-11909400Y-7878100D02*
X-11437500Y-8350000D01*
X-9227400Y-7957100D02*
X-11044600Y-7957100D01*
X-8395800Y-8788700D02*
X-9227400Y-7957100D01*
%TO.N,PCM_BAT*%
X-15400000Y-4790000D02*
X-14080000Y-6110000D01*
X-14080000Y-6110000D02*
X-14080000Y-6900000D01*
X-14310200Y-9000000D02*
X-14593800Y-8716400D01*
X-14593800Y-8716400D02*
X-14593800Y-7413800D01*
X-13975000Y-9000000D02*
X-14310200Y-9000000D01*
X-14593800Y-7413800D02*
X-14080000Y-6900000D01*
%TO.N,PCM_VM*%
X-13110000Y-10900000D02*
X-13110000Y-10365000D01*
X-13110000Y-10365000D02*
X-13975000Y-9500000D01*
%TO.N,VIN*%
X6508300Y2216700D02*
X5825000Y2900000D01*
X-14090500Y901800D02*
X-15411800Y901800D01*
X-7750000Y3250000D02*
X-8800000Y2910000D01*
X-12206500Y-4826000D02*
X-11101400Y-3720900D01*
X-13400000Y-3768200D02*
X-13400000Y-4408100D01*
X5825000Y2900000D02*
X4700000Y3650000D01*
X-14764100Y-3312900D02*
X-13855300Y-3312900D01*
X-11101400Y-3720900D02*
X-11101400Y-2611100D01*
X-11101400Y-2611100D02*
X-11262500Y-2450000D01*
X-15782500Y-2294500D02*
X-14764100Y-3312900D01*
X8850000Y2600000D02*
X8466700Y2216700D01*
X8466700Y2216700D02*
X6508300Y2216700D01*
X-15411800Y901800D02*
X-15600000Y1090000D01*
X-13855300Y-3312900D02*
X-13400000Y-3768200D01*
X-13400000Y-4408100D02*
X-12982100Y-4826000D01*
X-15782500Y907500D02*
X-15782500Y-2294500D01*
X-12982100Y-4826000D02*
X-12206500Y-4826000D01*
X-15600000Y1090000D02*
X-15782500Y907500D01*
%TO.N,ACC_INT1*%
X-10950000Y13400000D02*
X-10950000Y12662500D01*
X-7100000Y14750000D02*
X-10950000Y13400000D01*
%TO.N,SDA*%
X-7100000Y12350000D02*
X-9287500Y12000000D01*
%TO.N,SCL*%
X-7100000Y11550000D02*
X-9287500Y11500000D01*
%TO.N,CHG_INH*%
X-10846100Y2519200D02*
X-10846100Y2236100D01*
X-8467000Y10323600D02*
X-8467000Y9961500D01*
X-10015800Y6161700D02*
X-10846100Y5331400D01*
X-7100000Y10750000D02*
X-7174900Y10824900D01*
X-7174900Y10824900D02*
X-7965700Y10824900D01*
X-10846100Y5331400D02*
X-10846100Y2519200D01*
X-11862800Y2200000D02*
X-12362500Y2200000D01*
X-10846100Y2519200D02*
X-11543600Y2519200D01*
X-10846100Y2236100D02*
X-10300000Y1690000D01*
X-7965700Y10824900D02*
X-8467000Y10323600D01*
X-11543600Y2519200D02*
X-11862800Y2200000D01*
%TO.N,CHG_STAT*%
X-9000000Y-200000D02*
X-9282500Y-200000D01*
X-11345400Y1862900D02*
X-11345400Y2040500D01*
X-7100000Y9950000D02*
X-7603700Y9950000D01*
X-7603700Y9950000D02*
X-7603700Y10083400D01*
X-9282500Y-200000D02*
X-11345400Y1862900D01*
X-7603700Y10083400D02*
X-7817000Y10296700D01*
%TO.N,VBAT*%
X-11158800Y-5104700D02*
X-9286900Y-3232800D01*
X-8503700Y-2639200D02*
X-8503700Y793700D01*
X-13537500Y-2450000D02*
X-13400000Y-2450000D01*
X-14076100Y-4334000D02*
X-14076100Y-5104700D01*
X-15400000Y-5810000D02*
X-15934500Y-5275500D01*
X-14076100Y-5104700D02*
X-11158800Y-5104700D01*
X-9431100Y7994400D02*
X-9325100Y8100400D01*
X-14076100Y-5104700D02*
X-14076100Y-5346100D01*
X-9537100Y7888400D02*
X-9325100Y8100400D01*
X-9329800Y2027700D02*
X-9614100Y2312000D01*
X-14175000Y-4235100D02*
X-14076100Y-4334000D01*
X-9614100Y2312000D02*
X-9614100Y5886300D01*
X-9329800Y1619800D02*
X-9329800Y2027700D01*
X-9614100Y5886300D02*
X-9537100Y5963300D01*
D38*
X-7100000Y8350000D02*
X-10220000Y8000000D01*
D35*
X-9537100Y5963300D02*
X-9537100Y7888400D01*
X-15663900Y-4235100D02*
X-14175000Y-4235100D01*
X-15934500Y-4505700D02*
X-15663900Y-4235100D01*
X-9431100Y7994400D02*
X-9441500Y8004800D01*
X-9097300Y-3232800D02*
X-8503700Y-2639200D01*
X-8503700Y793700D02*
X-9329800Y1619800D01*
X-14175000Y-4235100D02*
X-14175000Y-4100000D01*
X-9441500Y8004800D02*
X-9441500Y8087300D01*
X-15934500Y-5275500D02*
X-15934500Y-4505700D01*
X-13400000Y-2450000D02*
X-12670400Y-3179600D01*
X-9537100Y7888400D02*
X-9431100Y7994400D01*
X-9286900Y-3232800D02*
X-9097300Y-3232800D01*
%TO.N,VBUS_SNS*%
X-9334600Y2426700D02*
X-9334600Y5019100D01*
X-8800000Y1890000D02*
X-8800000Y1892100D01*
X-7800000Y1320000D02*
X-8230000Y1320000D01*
X-7100000Y6750000D02*
X-7603700Y6750000D01*
X-8800000Y1892100D02*
X-9334600Y2426700D01*
X-9334600Y5019100D02*
X-7603700Y6750000D01*
X-8230000Y1320000D02*
X-8800000Y1890000D01*
%TO.N,LED_IO*%
X-4500000Y6100000D02*
X-4500000Y4850000D01*
X-4500000Y4850000D02*
X-4090000Y4440000D01*
%TO.N,SWDIO*%
X1900000Y6100000D02*
X2350000Y5350000D01*
%TO.N,SWDCLK*%
X2700000Y6100000D02*
X3150000Y5350000D01*
%TO.N,LED_A*%
X-6115000Y4440000D02*
X-5110000Y4440000D01*
%TO.N,BAT_P*%
X-7485400Y-5689000D02*
X-6704800Y-5689000D01*
X-6704800Y-5689000D02*
X-6381600Y-6012200D01*
X-8403400Y-4771000D02*
X-7485400Y-5689000D01*
X-7270000Y-7550000D02*
X-6381600Y-6012200D01*
%TO.N,PROG*%
X-14176000Y-1100D02*
X-11811400Y-1100D01*
X-14652700Y-1462700D02*
X-14652700Y-477800D01*
X-14652700Y-477800D02*
X-14176000Y-1100D01*
X-11811400Y-1100D02*
X-11262500Y-550000D01*
X-15200000Y-2010000D02*
X-14652700Y-1462700D01*
%TO.N,PROG_SW*%
X-15200000Y-990000D02*
X-15200000Y11000D01*
X-15200000Y11000D02*
X-15067900Y143100D01*
X-12053900Y3158600D02*
X-12362500Y2850000D01*
X-11385400Y3158600D02*
X-12053900Y3158600D01*
%TO.N,STAT*%
X-13537500Y-550000D02*
X-12430200Y-550000D01*
X-9900000Y-1500000D02*
X-9000000Y-2400000D01*
X-12430200Y-550000D02*
X-11480200Y-1500000D01*
X-11480200Y-1500000D02*
X-9900000Y-1500000D01*
%TO.N,PCM_D*%
D37*
X-10600000Y-9650000D02*
X-10600000Y-8350000D01*
X-10600000Y-8350000D02*
X-9762500Y-8350000D01*
X-11437500Y-9650000D02*
X-10600000Y-9650000D01*
%TO.N,VIN_RAW*%
D35*
X12150900Y-3781800D02*
X11050000Y-2680900D01*
X12150900Y-4547200D02*
X12150900Y-3781800D01*
X11050000Y400000D02*
X11050000Y2600000D01*
X11050000Y400000D02*
X10000000Y400000D01*
X11050000Y-2680900D02*
X11050000Y400000D01*
X13196500Y-4827400D02*
X12150900Y-4547200D01*
%TO.N,Q1_GATE*%
X-14037500Y2110000D02*
X-15600000Y2110000D01*
X-14037500Y2110000D02*
X-14037500Y1550000D01*
X-14037500Y2200000D02*
X-14037500Y2110000D01*
X-14037500Y2200000D02*
X-14037500Y1550000D01*
%TD*%
%TA.AperFunction,Conductor*%
%TO.N,GND*%
G36*
X866031Y17678148D02*
G01*
X870884Y17677910D01*
X1732436Y17614358D01*
X1737272Y17613881D01*
X2594638Y17508136D01*
X2599444Y17507423D01*
X3450599Y17359732D01*
X3455365Y17358784D01*
X4298231Y17169511D01*
X4302943Y17168331D01*
X4389372Y17144414D01*
X4440413Y17110672D01*
X4461872Y17053373D01*
X4445554Y16994404D01*
X4397691Y16956289D01*
X4362969Y16950000D01*
X4050000Y16950000D01*
X4050000Y16949999D01*
X4050000Y16049000D01*
X4031093Y15990809D01*
X3981593Y15954845D01*
X3951000Y15950000D01*
X3950001Y15950000D01*
X3950000Y15949999D01*
X3950000Y14850001D01*
X3950001Y14850000D01*
X3951000Y14850000D01*
X4009191Y14831093D01*
X4045155Y14781593D01*
X4050000Y14751000D01*
X4050000Y13149000D01*
X4031093Y13090809D01*
X3981593Y13054845D01*
X3951000Y13050000D01*
X2800000Y13050000D01*
X2800000Y11450000D01*
X2800001Y11450000D01*
X3951000Y11450000D01*
X4009191Y11431093D01*
X4045155Y11381593D01*
X4050000Y11351000D01*
X4050000Y6749000D01*
X4031093Y6690809D01*
X3981593Y6654845D01*
X3951000Y6650000D01*
X3950001Y6650000D01*
X3950000Y6649999D01*
X3950000Y5550001D01*
X3950001Y5550000D01*
X3951000Y5550000D01*
X4009191Y5531093D01*
X4045155Y5481593D01*
X4050000Y5451000D01*
X4050000Y4550000D01*
X7800000Y4550000D01*
X17024639Y4550000D01*
X17082830Y4531093D01*
X17118794Y4481593D01*
X17120053Y4477404D01*
X17168331Y4302944D01*
X17169511Y4298231D01*
X17358784Y3455365D01*
X17359732Y3450599D01*
X17507423Y2599444D01*
X17508136Y2594638D01*
X17613881Y1737272D01*
X17614358Y1732436D01*
X17677910Y870884D01*
X17678148Y866031D01*
X17699349Y2430D01*
X17699349Y-2430D01*
X17678148Y-866031D01*
X17677910Y-870884D01*
X17614358Y-1732436D01*
X17613881Y-1737272D01*
X17508136Y-2594638D01*
X17507423Y-2599444D01*
X17359732Y-3450599D01*
X17358784Y-3455365D01*
X17169511Y-4298231D01*
X17168331Y-4302944D01*
X16937927Y-5135521D01*
X16936516Y-5140171D01*
X16665536Y-5960439D01*
X16663899Y-5965015D01*
X16353001Y-6770988D01*
X16351142Y-6775477D01*
X16001057Y-7565256D01*
X15998979Y-7569649D01*
X15610579Y-8341267D01*
X15608289Y-8345552D01*
X15182487Y-9097196D01*
X15179989Y-9101364D01*
X14717821Y-9831210D01*
X14715121Y-9835250D01*
X14217699Y-10541535D01*
X14214804Y-10545438D01*
X13683334Y-11226455D01*
X13680252Y-11230211D01*
X13115978Y-11884362D01*
X13112714Y-11887963D01*
X12517047Y-12513611D01*
X12513612Y-12517046D01*
X11887953Y-13112723D01*
X11884352Y-13115987D01*
X11778066Y-13207669D01*
X11721653Y-13231361D01*
X11662089Y-13217369D01*
X11622125Y-13171039D01*
X11615250Y-13145630D01*
X11589048Y-12946606D01*
X11369267Y-12416008D01*
X11019646Y-11960373D01*
X11019641Y-11960369D01*
X11019640Y-11960368D01*
X10769732Y-11768607D01*
X10564011Y-11610752D01*
X10561647Y-11609773D01*
X10205068Y-11462073D01*
X10033413Y-11390971D01*
X10033411Y-11390970D01*
X10033409Y-11390970D01*
X9464012Y-11316008D01*
X9464010Y-11316008D01*
X8894612Y-11390970D01*
X8894606Y-11390972D01*
X8364012Y-11610751D01*
X7908381Y-11960368D01*
X7908371Y-11960378D01*
X7558754Y-12416009D01*
X7338975Y-12946603D01*
X7338973Y-12946609D01*
X7264011Y-13516007D01*
X7264011Y-13516008D01*
X7335356Y-14057935D01*
X7338974Y-14085410D01*
X7558755Y-14616008D01*
X7908376Y-15071643D01*
X8364011Y-15421264D01*
X8364016Y-15421266D01*
X8368463Y-15423834D01*
X8409403Y-15469304D01*
X8415798Y-15530154D01*
X8385205Y-15583142D01*
X8367758Y-15595709D01*
X8345558Y-15608285D01*
X8341274Y-15610575D01*
X7569649Y-15998979D01*
X7565256Y-16001057D01*
X6989119Y-16256441D01*
X6928258Y-16262737D01*
X6875320Y-16232057D01*
X6850526Y-16176121D01*
X6850000Y-16165934D01*
X6850000Y-11749962D01*
X6849894Y-11741433D01*
X6849894Y-11741410D01*
X6842065Y-11422470D01*
X6841222Y-11405312D01*
X6817752Y-11087140D01*
X6816068Y-11070044D01*
X6777015Y-10753408D01*
X6774494Y-10736415D01*
X6741358Y-10545449D01*
X6719954Y-10422091D01*
X6716597Y-10405212D01*
X6670976Y-10202056D01*
X6646698Y-10093943D01*
X6642524Y-10077279D01*
X6575916Y-9836588D01*
X6557439Y-9769821D01*
X6555019Y-9761842D01*
X6552447Y-9753360D01*
X6452371Y-9450427D01*
X6446583Y-9434252D01*
X6446577Y-9434237D01*
X6446569Y-9434214D01*
X6331772Y-9136615D01*
X6331764Y-9136594D01*
X6325190Y-9120723D01*
X6195903Y-8829057D01*
X6195893Y-8829034D01*
X6188565Y-8813540D01*
X6094590Y-8626845D01*
X6045116Y-8528557D01*
X6037018Y-8513406D01*
X5879766Y-8235817D01*
X5870934Y-8221082D01*
X5700251Y-7951544D01*
X5690707Y-7937260D01*
X5636123Y-7859756D01*
X5568059Y-7763112D01*
X5550000Y-7706107D01*
X5550000Y37D01*
X5549894Y8565D01*
X5549894Y8589D01*
X5548824Y52175D01*
X6399999Y52175D01*
X6406401Y-7370D01*
X6406403Y-7381D01*
X6456646Y-142088D01*
X6456647Y-142090D01*
X6542807Y-257184D01*
X6542815Y-257192D01*
X6657909Y-343352D01*
X6657911Y-343353D01*
X6792618Y-393596D01*
X6792629Y-393598D01*
X6852176Y-400000D01*
X7049999Y-400000D01*
X7050000Y-399999D01*
X7050000Y249999D01*
X7350000Y249999D01*
X7350000Y-399999D01*
X7350001Y-400000D01*
X7547824Y-400000D01*
X7607370Y-393598D01*
X7607381Y-393596D01*
X7742088Y-343353D01*
X7742090Y-343352D01*
X7857184Y-257192D01*
X7857192Y-257184D01*
X7943352Y-142090D01*
X7943353Y-142088D01*
X7993596Y-7381D01*
X7993598Y-7370D01*
X8000000Y52175D01*
X8000000Y249999D01*
X7999999Y250000D01*
X7350001Y250000D01*
X7350000Y249999D01*
X7050000Y249999D01*
X7049999Y250000D01*
X6400001Y250000D01*
X6400000Y249999D01*
X6400000Y52175D01*
X6399999Y52175D01*
X5548824Y52175D01*
X5543630Y263741D01*
X5542788Y280899D01*
X5524012Y535436D01*
X5522328Y552532D01*
X5498241Y747824D01*
X6400000Y747824D01*
X6400000Y550001D01*
X6400001Y550000D01*
X7049999Y550000D01*
X7050000Y550001D01*
X7050000Y1199999D01*
X7350000Y1199999D01*
X7350000Y550001D01*
X7350001Y550000D01*
X7999999Y550000D01*
X8000000Y550001D01*
X8000000Y747824D01*
X7999995Y747870D01*
X9199500Y747870D01*
X9199500Y52133D01*
X9199501Y52129D01*
X9205908Y-7480D01*
X9205909Y-7485D01*
X9256202Y-142329D01*
X9342183Y-257184D01*
X9342454Y-257546D01*
X9342457Y-257548D01*
X9342458Y-257549D01*
X9457670Y-343797D01*
X9592511Y-394089D01*
X9592512Y-394089D01*
X9592517Y-394091D01*
X9652127Y-400500D01*
X10347872Y-400499D01*
X10407483Y-394091D01*
X10542331Y-343796D01*
X10566172Y-325948D01*
X10624085Y-306212D01*
X10682540Y-324286D01*
X10719208Y-373266D01*
X10724500Y-405202D01*
X10724500Y-2638047D01*
X10724500Y-2723753D01*
X10730795Y-2747245D01*
X10746683Y-2806543D01*
X10789531Y-2880757D01*
X10789533Y-2880759D01*
X10789535Y-2880762D01*
X11313316Y-3404542D01*
X11796404Y-3887630D01*
X11824181Y-3942147D01*
X11825400Y-3957634D01*
X11825400Y-4529535D01*
X11825399Y-4590043D01*
X11825400Y-4590046D01*
X11825400Y-4590053D01*
X11833812Y-4621447D01*
X11847578Y-4672830D01*
X11847581Y-4672836D01*
X11847582Y-4672838D01*
X11849125Y-4675510D01*
X11857533Y-4690075D01*
X11857534Y-4690076D01*
X11890430Y-4747056D01*
X11890433Y-4747059D01*
X11890435Y-4747062D01*
X11922573Y-4779200D01*
X11951031Y-4807659D01*
X11951033Y-4807660D01*
X11951140Y-4807767D01*
X11951395Y-4807956D01*
X11953566Y-4809124D01*
X11956212Y-4810652D01*
X11991796Y-4831197D01*
X11991799Y-4831198D01*
X11991802Y-4831200D01*
X12025253Y-4850514D01*
X12025254Y-4850514D01*
X12025257Y-4850516D01*
X12025259Y-4850516D01*
X12025262Y-4850518D01*
X12073022Y-4863314D01*
X12073023Y-4863315D01*
X12073024Y-4863315D01*
X12146800Y-4883085D01*
X12198112Y-4916410D01*
X12220037Y-4973532D01*
X12216800Y-5004333D01*
X12152041Y-5246022D01*
X12147168Y-5320360D01*
X12147169Y-5320365D01*
X12179201Y-5414731D01*
X12232375Y-5475362D01*
X12244910Y-5489655D01*
X12311724Y-5522605D01*
X13615094Y-5871842D01*
X13652263Y-5874278D01*
X13689429Y-5876714D01*
X13689429Y-5876713D01*
X13689433Y-5876714D01*
X13783800Y-5844681D01*
X13858724Y-5778973D01*
X13891674Y-5712159D01*
X14240911Y-4408789D01*
X14243956Y-4362327D01*
X14245783Y-4334453D01*
X14245782Y-4334452D01*
X14245783Y-4334450D01*
X14213750Y-4240083D01*
X14213750Y-4240082D01*
X14148044Y-4165161D01*
X14148043Y-4165160D01*
X14148042Y-4165159D01*
X14081228Y-4132209D01*
X14081225Y-4132208D01*
X13371907Y-3942147D01*
X12777858Y-3782972D01*
X12777856Y-3782971D01*
X12777853Y-3782971D01*
X12703522Y-3778099D01*
X12703517Y-3778100D01*
X12605044Y-3811527D01*
X12543864Y-3812328D01*
X12493897Y-3777015D01*
X12477595Y-3743405D01*
X12476401Y-3738949D01*
X12476401Y-3738947D01*
X12454218Y-3656161D01*
X12431156Y-3616218D01*
X12411365Y-3581938D01*
X12350762Y-3521335D01*
X12350759Y-3521333D01*
X11404496Y-2575069D01*
X11400869Y-2567951D01*
X11394407Y-2563256D01*
X11387243Y-2541207D01*
X11376719Y-2520552D01*
X11375500Y-2505065D01*
X11375500Y-2323948D01*
X12943524Y-2323948D01*
X12943524Y-2501237D01*
X12978110Y-2675112D01*
X12978110Y-2675114D01*
X12999476Y-2726697D01*
X12999477Y-2726698D01*
X13422286Y-2482588D01*
X13447487Y-2576637D01*
X13503440Y-2673549D01*
X13572287Y-2742396D01*
X13146412Y-2988275D01*
X13269805Y-3111667D01*
X13417215Y-3210163D01*
X13581003Y-3278006D01*
X13754879Y-3312592D01*
X13754883Y-3312593D01*
X13932165Y-3312593D01*
X13932168Y-3312592D01*
X14106041Y-3278007D01*
X14106052Y-3278004D01*
X14157628Y-3256639D01*
X13913519Y-2833830D01*
X14007568Y-2808630D01*
X14104480Y-2752677D01*
X14173327Y-2683829D01*
X14419206Y-3109702D01*
X14542594Y-2986315D01*
X14542601Y-2986306D01*
X14641094Y-2838901D01*
X14708937Y-2675114D01*
X14708937Y-2675112D01*
X14743523Y-2501237D01*
X14743524Y-2501234D01*
X14743524Y-2323951D01*
X14743523Y-2323948D01*
X14708938Y-2150075D01*
X14708936Y-2150069D01*
X14687569Y-2098486D01*
X14264760Y-2342595D01*
X14239561Y-2248549D01*
X14183608Y-2151637D01*
X14114758Y-2082787D01*
X14540634Y-1836909D01*
X14417242Y-1713518D01*
X14269832Y-1615022D01*
X14106044Y-1547179D01*
X13932168Y-1512593D01*
X13754879Y-1512593D01*
X13581002Y-1547179D01*
X13580995Y-1547181D01*
X13529418Y-1568545D01*
X13529417Y-1568546D01*
X13773527Y-1991356D01*
X13679480Y-2016556D01*
X13582568Y-2072509D01*
X13513719Y-2141357D01*
X13267841Y-1715482D01*
X13144447Y-1838876D01*
X13045952Y-1986285D01*
X12978110Y-2150071D01*
X12978110Y-2150073D01*
X12943524Y-2323948D01*
X11375500Y-2323948D01*
X11375500Y2103455D01*
X11394407Y2161646D01*
X11404496Y2173458D01*
X11484824Y2253787D01*
X11484825Y2253788D01*
X11484826Y2253789D01*
X11539866Y2366375D01*
X11550500Y2439364D01*
X11550500Y2760636D01*
X11539866Y2833625D01*
X11484826Y2946211D01*
X11396211Y3034826D01*
X11283625Y3089866D01*
X11210636Y3100500D01*
X10889364Y3100500D01*
X10816375Y3089866D01*
X10703789Y3034826D01*
X10615174Y2946211D01*
X10615173Y2946209D01*
X10566116Y2845861D01*
X10560134Y2833625D01*
X10549500Y2760636D01*
X10549500Y2760632D01*
X10549500Y2439367D01*
X10549499Y2439367D01*
X10560134Y2366373D01*
X10615174Y2253788D01*
X10695504Y2173458D01*
X10723281Y2118941D01*
X10724500Y2103455D01*
X10724500Y1205202D01*
X10705593Y1147011D01*
X10656093Y1111047D01*
X10594907Y1111047D01*
X10566174Y1125946D01*
X10542331Y1143796D01*
X10407483Y1194091D01*
X10347873Y1200500D01*
X9652128Y1200499D01*
X9592517Y1194091D01*
X9592514Y1194090D01*
X9457670Y1143797D01*
X9432562Y1125001D01*
X9342454Y1057546D01*
X9342451Y1057542D01*
X9342450Y1057541D01*
X9256202Y942329D01*
X9205910Y807488D01*
X9205908Y807477D01*
X9202550Y776249D01*
X9200648Y758545D01*
X9199500Y747870D01*
X7999995Y747870D01*
X7993598Y807370D01*
X7993596Y807381D01*
X7943353Y942088D01*
X7943352Y942090D01*
X7857192Y1057184D01*
X7857184Y1057192D01*
X7742090Y1143352D01*
X7742088Y1143353D01*
X7607381Y1193596D01*
X7607370Y1193598D01*
X7547824Y1200000D01*
X7350001Y1200000D01*
X7350000Y1199999D01*
X7050000Y1199999D01*
X7049999Y1200000D01*
X6852176Y1200000D01*
X6792629Y1193598D01*
X6792618Y1193596D01*
X6657911Y1143353D01*
X6657909Y1143352D01*
X6542815Y1057192D01*
X6542807Y1057184D01*
X6456647Y942090D01*
X6456646Y942088D01*
X6406403Y807381D01*
X6406401Y807370D01*
X6400000Y747824D01*
X5498241Y747824D01*
X5496919Y758545D01*
X5491086Y805836D01*
X5488565Y822838D01*
X5469945Y930143D01*
X5444930Y1074306D01*
X5441579Y1091155D01*
X5385658Y1340182D01*
X5381484Y1356846D01*
X5313411Y1602829D01*
X5308424Y1619268D01*
X5228364Y1861615D01*
X5222576Y1877790D01*
X5210959Y1907905D01*
X5151680Y2061582D01*
X5130721Y2115917D01*
X5124146Y2131788D01*
X5086973Y2215647D01*
X5080678Y2276505D01*
X5111357Y2329443D01*
X5167293Y2354238D01*
X5227121Y2341420D01*
X5256732Y2315096D01*
X5260309Y2310317D01*
X5260315Y2310311D01*
X5369771Y2228373D01*
X5497888Y2180587D01*
X5497886Y2180587D01*
X5540707Y2175984D01*
X5554515Y2174500D01*
X6049165Y2174500D01*
X6107356Y2155593D01*
X6119168Y2145504D01*
X6308437Y1956235D01*
X6308442Y1956231D01*
X6382657Y1913383D01*
X6382655Y1913383D01*
X6426650Y1901595D01*
X6465447Y1891200D01*
X6465449Y1891200D01*
X8509551Y1891200D01*
X8509553Y1891200D01*
X8592339Y1913382D01*
X8592343Y1913383D01*
X8666557Y1956231D01*
X8666562Y1956235D01*
X8780832Y2070504D01*
X8835348Y2098281D01*
X8850835Y2099500D01*
X9010633Y2099500D01*
X9010636Y2099500D01*
X9077949Y2109307D01*
X9083626Y2110134D01*
X9196209Y2165173D01*
X9196211Y2165174D01*
X9284826Y2253789D01*
X9339866Y2366375D01*
X9350500Y2439364D01*
X9350500Y2760636D01*
X9339866Y2833625D01*
X9284826Y2946211D01*
X9196211Y3034826D01*
X9083625Y3089866D01*
X9010636Y3100500D01*
X8689364Y3100500D01*
X8616375Y3089866D01*
X8503789Y3034826D01*
X8415174Y2946211D01*
X8415173Y2946209D01*
X8366116Y2845861D01*
X8360134Y2833625D01*
X8349500Y2760636D01*
X8349500Y2760632D01*
X8349500Y2641200D01*
X8330593Y2583009D01*
X8281093Y2547045D01*
X8250500Y2542200D01*
X8174000Y2542200D01*
X8115809Y2561107D01*
X8079845Y2610607D01*
X8075000Y2641200D01*
X8075000Y2749999D01*
X8074999Y2750000D01*
X7474000Y2750000D01*
X7415809Y2768907D01*
X7379845Y2818407D01*
X7375000Y2849000D01*
X7375000Y2899999D01*
X7374999Y2900000D01*
X7324000Y2900000D01*
X7265809Y2918907D01*
X7229845Y2968407D01*
X7225000Y2999000D01*
X7225000Y3050001D01*
X7525000Y3050001D01*
X7525001Y3050000D01*
X8074998Y3050000D01*
X8074999Y3050001D01*
X8074999Y3195431D01*
X8074998Y3195436D01*
X8068918Y3252004D01*
X8068917Y3252006D01*
X8021185Y3379983D01*
X7939331Y3489327D01*
X7939327Y3489331D01*
X7829983Y3571185D01*
X7702009Y3618916D01*
X7702001Y3618918D01*
X7645433Y3624999D01*
X7525000Y3624999D01*
X7525000Y3050001D01*
X7225000Y3050001D01*
X7225000Y3624998D01*
X7224999Y3624999D01*
X7104569Y3624999D01*
X7104563Y3624998D01*
X7047995Y3618918D01*
X7047993Y3618917D01*
X6920016Y3571185D01*
X6810672Y3489331D01*
X6810668Y3489327D01*
X6728814Y3379983D01*
X6693024Y3284026D01*
X6654973Y3236112D01*
X6596026Y3219714D01*
X6538698Y3241096D01*
X6507510Y3284022D01*
X6471628Y3380226D01*
X6389687Y3489687D01*
X6280226Y3571628D01*
X6152114Y3619412D01*
X6095485Y3625500D01*
X5554516Y3625499D01*
X5497886Y3619412D01*
X5451148Y3601979D01*
X5439362Y3597583D01*
X5378233Y3594963D01*
X5349855Y3607964D01*
X5265785Y3664011D01*
X5227859Y3712020D01*
X5225081Y3720744D01*
X5189688Y3852836D01*
X5120505Y3972665D01*
X5022665Y4070505D01*
X4902836Y4139688D01*
X4769183Y4175500D01*
X4630817Y4175500D01*
X4497164Y4139688D01*
X4377335Y4070505D01*
X4279495Y3972665D01*
X4219933Y3869500D01*
X4210311Y3852834D01*
X4208197Y3844943D01*
X4174870Y3793630D01*
X4117748Y3771705D01*
X4058648Y3787544D01*
X4040873Y3802302D01*
X3930441Y3918294D01*
X3918294Y3930441D01*
X3733445Y4106432D01*
X3720717Y4117968D01*
X3527455Y4284677D01*
X3514176Y4295575D01*
X3312967Y4452600D01*
X3299169Y4462833D01*
X3090498Y4609796D01*
X3076214Y4619340D01*
X3040651Y4641859D01*
X3001605Y4688965D01*
X2997703Y4750026D01*
X3030437Y4801719D01*
X3087304Y4824298D01*
X3093617Y4824500D01*
X3219181Y4824500D01*
X3219183Y4824500D01*
X3352836Y4860312D01*
X3472665Y4929495D01*
X3570505Y5027335D01*
X3639688Y5147164D01*
X3675500Y5280817D01*
X3675500Y5419183D01*
X3653372Y5501763D01*
X3650000Y5527385D01*
X3650000Y5949999D01*
X3649999Y5950000D01*
X3350001Y5950000D01*
X3326906Y5926905D01*
X3272389Y5899128D01*
X3211957Y5908699D01*
X3172010Y5945975D01*
X3164608Y5958312D01*
X3150500Y6009246D01*
X3150500Y6350500D01*
X3169407Y6408691D01*
X3218907Y6444655D01*
X3249500Y6449500D01*
X3251000Y6449500D01*
X3309191Y6430593D01*
X3345155Y6381093D01*
X3350000Y6350500D01*
X3350000Y6250001D01*
X3350001Y6250000D01*
X3649999Y6250000D01*
X3650000Y6250001D01*
X3650000Y6649999D01*
X3649999Y6650000D01*
X3649500Y6650000D01*
X3591309Y6668907D01*
X3555345Y6718407D01*
X3550500Y6749000D01*
X3550500Y7324672D01*
X3550498Y7324684D01*
X3550370Y7325327D01*
X3535966Y7397740D01*
X3480601Y7480601D01*
X3397740Y7535966D01*
X3324674Y7550500D01*
X2875326Y7550500D01*
X2875320Y7550498D01*
X2875315Y7550498D01*
X2857808Y7547015D01*
X2802260Y7535966D01*
X2802257Y7535964D01*
X2802256Y7535964D01*
X2780004Y7521095D01*
X2755000Y7504388D01*
X2696114Y7487780D01*
X2645000Y7504388D01*
X2597740Y7535966D01*
X2524674Y7550500D01*
X2075326Y7550500D01*
X2075320Y7550498D01*
X2075315Y7550498D01*
X2057808Y7547015D01*
X2002260Y7535966D01*
X2002257Y7535964D01*
X2002256Y7535964D01*
X1980004Y7521095D01*
X1955000Y7504388D01*
X1896114Y7487780D01*
X1845000Y7504388D01*
X1797740Y7535966D01*
X1724674Y7550500D01*
X1275326Y7550500D01*
X1275320Y7550498D01*
X1275315Y7550498D01*
X1257808Y7547015D01*
X1202260Y7535966D01*
X1202257Y7535964D01*
X1202256Y7535964D01*
X1180004Y7521095D01*
X1155000Y7504388D01*
X1096114Y7487780D01*
X1045000Y7504388D01*
X997740Y7535966D01*
X924674Y7550500D01*
X475326Y7550500D01*
X475320Y7550498D01*
X475315Y7550498D01*
X457808Y7547015D01*
X402260Y7535966D01*
X402257Y7535964D01*
X402256Y7535964D01*
X380004Y7521095D01*
X355000Y7504388D01*
X296114Y7487780D01*
X245000Y7504388D01*
X197740Y7535966D01*
X124674Y7550500D01*
X-324674Y7550500D01*
X-397740Y7535966D01*
X-444999Y7504388D01*
X-503886Y7487780D01*
X-554999Y7504388D01*
X-580004Y7521095D01*
X-602256Y7535964D01*
X-602257Y7535964D01*
X-602260Y7535966D01*
X-657808Y7547015D01*
X-675315Y7550498D01*
X-675320Y7550498D01*
X-675326Y7550500D01*
X-1124674Y7550500D01*
X-1197740Y7535966D01*
X-1244999Y7504388D01*
X-1303886Y7487780D01*
X-1354999Y7504388D01*
X-1380004Y7521095D01*
X-1402256Y7535964D01*
X-1402257Y7535964D01*
X-1402260Y7535966D01*
X-1457808Y7547015D01*
X-1475315Y7550498D01*
X-1475320Y7550498D01*
X-1475326Y7550500D01*
X-1924674Y7550500D01*
X-1997740Y7535966D01*
X-2044999Y7504388D01*
X-2103886Y7487780D01*
X-2154999Y7504388D01*
X-2180004Y7521095D01*
X-2202256Y7535964D01*
X-2202257Y7535964D01*
X-2202260Y7535966D01*
X-2257808Y7547015D01*
X-2275315Y7550498D01*
X-2275320Y7550498D01*
X-2275326Y7550500D01*
X-2724674Y7550500D01*
X-2797740Y7535966D01*
X-2844999Y7504388D01*
X-2903886Y7487780D01*
X-2954999Y7504388D01*
X-2980004Y7521095D01*
X-3002256Y7535964D01*
X-3002257Y7535964D01*
X-3002260Y7535966D01*
X-3057808Y7547015D01*
X-3075315Y7550498D01*
X-3075320Y7550498D01*
X-3075326Y7550500D01*
X-3524674Y7550500D01*
X-3597740Y7535966D01*
X-3644999Y7504388D01*
X-3703886Y7487780D01*
X-3754999Y7504388D01*
X-3780004Y7521095D01*
X-3802256Y7535964D01*
X-3802257Y7535964D01*
X-3802260Y7535966D01*
X-3857808Y7547015D01*
X-3875315Y7550498D01*
X-3875320Y7550498D01*
X-3875326Y7550500D01*
X-4324674Y7550500D01*
X-4397740Y7535966D01*
X-4444999Y7504388D01*
X-4503886Y7487780D01*
X-4554999Y7504388D01*
X-4580004Y7521095D01*
X-4602256Y7535964D01*
X-4602257Y7535964D01*
X-4602260Y7535966D01*
X-4657808Y7547015D01*
X-4675315Y7550498D01*
X-4675320Y7550498D01*
X-4675326Y7550500D01*
X-5124674Y7550500D01*
X-5197740Y7535966D01*
X-5280601Y7480601D01*
X-5335966Y7397740D01*
X-5350370Y7325327D01*
X-5350498Y7324684D01*
X-5350500Y7324672D01*
X-5350500Y6749500D01*
X-5369407Y6691309D01*
X-5418907Y6655345D01*
X-5449500Y6650500D01*
X-5524674Y6650500D01*
X-5597740Y6635966D01*
X-5644999Y6604388D01*
X-5703886Y6587780D01*
X-5754999Y6604388D01*
X-5796092Y6631845D01*
X-5802256Y6635964D01*
X-5802257Y6635964D01*
X-5802260Y6635966D01*
X-5872812Y6650000D01*
X-5875315Y6650498D01*
X-5875320Y6650498D01*
X-5875326Y6650500D01*
X-6324674Y6650500D01*
X-6397740Y6635966D01*
X-6397746Y6635961D01*
X-6406752Y6632233D01*
X-6407515Y6634075D01*
X-6454381Y6620855D01*
X-6511786Y6642029D01*
X-6545782Y6692901D01*
X-6549500Y6719779D01*
X-6549500Y6974672D01*
X-6549501Y6974684D01*
X-6564033Y7047736D01*
X-6564036Y7047745D01*
X-6595610Y7095000D01*
X-6612218Y7153888D01*
X-6595610Y7205000D01*
X-6564036Y7252254D01*
X-6564033Y7252263D01*
X-6549501Y7325315D01*
X-6549500Y7325327D01*
X-6549500Y7774672D01*
X-6549501Y7774684D01*
X-6564033Y7847736D01*
X-6564036Y7847745D01*
X-6595610Y7895000D01*
X-6612218Y7953888D01*
X-6595610Y8005000D01*
X-6564036Y8052254D01*
X-6564033Y8052263D01*
X-6549501Y8125315D01*
X-6549500Y8125327D01*
X-6549500Y8200500D01*
X-6530593Y8258691D01*
X-6481093Y8294655D01*
X-6450500Y8299500D01*
X-5875327Y8299500D01*
X-5875326Y8299500D01*
X-5875325Y8299500D01*
X-5875315Y8299501D01*
X-5802263Y8314033D01*
X-5802257Y8314035D01*
X-5719400Y8369397D01*
X-5719397Y8369400D01*
X-5664035Y8452257D01*
X-5664033Y8452263D01*
X-5649501Y8525315D01*
X-5649500Y8525327D01*
X-5649500Y8974672D01*
X-5649501Y8974684D01*
X-5664033Y9047736D01*
X-5664036Y9047745D01*
X-5695610Y9095000D01*
X-5712218Y9153888D01*
X-5695610Y9205000D01*
X-5664036Y9252254D01*
X-5664033Y9252263D01*
X-5649501Y9325315D01*
X-5649500Y9325327D01*
X-5649500Y9774672D01*
X-5649501Y9774684D01*
X-5664033Y9847736D01*
X-5664036Y9847745D01*
X-5695610Y9895000D01*
X-5712218Y9953888D01*
X-5695610Y10005000D01*
X-5664036Y10052254D01*
X-5664033Y10052263D01*
X-5649501Y10125315D01*
X-5649500Y10125327D01*
X-5649500Y10574672D01*
X-5649501Y10574684D01*
X-5664033Y10647736D01*
X-5664036Y10647745D01*
X-5695610Y10695000D01*
X-5712218Y10753888D01*
X-5695610Y10805000D01*
X-5664036Y10852254D01*
X-5664033Y10852263D01*
X-5649501Y10925315D01*
X-5649500Y10925327D01*
X-5649500Y11374672D01*
X-5649501Y11374684D01*
X-5664033Y11447736D01*
X-5664036Y11447745D01*
X-5695610Y11495000D01*
X-5712218Y11553888D01*
X-5695610Y11605000D01*
X-5664036Y11652254D01*
X-5664033Y11652263D01*
X-5649501Y11725315D01*
X-5649500Y11725327D01*
X-5649500Y12174672D01*
X-5649501Y12174684D01*
X-5664033Y12247736D01*
X-5664036Y12247745D01*
X-5695610Y12295000D01*
X-5712218Y12353888D01*
X-5695610Y12405000D01*
X-5664036Y12452254D01*
X-5664033Y12452263D01*
X-5649501Y12525315D01*
X-5649500Y12525327D01*
X-5649500Y12974672D01*
X-5649501Y12974684D01*
X-5664033Y13047736D01*
X-5664035Y13047742D01*
X-5719397Y13130599D01*
X-5719400Y13130602D01*
X-5802257Y13185964D01*
X-5802260Y13185966D01*
X-5857808Y13197015D01*
X-5875315Y13200498D01*
X-5875320Y13200498D01*
X-5875326Y13200500D01*
X-6450500Y13200500D01*
X-6508691Y13219407D01*
X-6544655Y13268907D01*
X-6549500Y13299500D01*
X-6549500Y13374672D01*
X-6549501Y13374684D01*
X-6564033Y13447736D01*
X-6564036Y13447745D01*
X-6595610Y13495000D01*
X-6612218Y13553888D01*
X-6595610Y13605000D01*
X-6564036Y13652254D01*
X-6564033Y13652263D01*
X-6549501Y13725315D01*
X-6549500Y13725327D01*
X-6549500Y14174672D01*
X-6549501Y14174684D01*
X-6564033Y14247736D01*
X-6564036Y14247745D01*
X-6595610Y14295000D01*
X-6602908Y14320878D01*
X-6612218Y14346112D01*
X-6611121Y14350000D01*
X-6612218Y14353888D01*
X-6603186Y14381683D01*
X-4861000Y14381683D01*
X-4861000Y14243317D01*
X-4825188Y14109664D01*
X-4756005Y13989835D01*
X-4756003Y13989833D01*
X-4756002Y13989832D01*
X-4689996Y13923825D01*
X-4662219Y13869308D01*
X-4661000Y13853822D01*
X-4661000Y11475853D01*
X-4661000Y11390147D01*
X-4638818Y11307361D01*
X-4638816Y11307358D01*
X-4638816Y11307356D01*
X-4595968Y11233142D01*
X-4595961Y11233134D01*
X-4594391Y11231563D01*
X-4593669Y11230146D01*
X-4592016Y11227992D01*
X-4592415Y11227685D01*
X-4566618Y11177044D01*
X-4565400Y11161565D01*
X-4565400Y11068217D01*
X-4529588Y10934564D01*
X-4460405Y10814735D01*
X-4362565Y10716895D01*
X-4242736Y10647712D01*
X-4109083Y10611900D01*
X-4109081Y10611900D01*
X-3970719Y10611900D01*
X-3970717Y10611900D01*
X-3837064Y10647712D01*
X-3717235Y10716895D01*
X-3619395Y10814735D01*
X-3550212Y10934564D01*
X-3514400Y11068217D01*
X-3514400Y11206583D01*
X-3550212Y11340236D01*
X-3619395Y11460065D01*
X-3717235Y11557905D01*
X-3837064Y11627088D01*
X-3936624Y11653765D01*
X-3987937Y11687088D01*
X-4009864Y11744210D01*
X-4010000Y11749391D01*
X-4010000Y12974674D01*
X-1050500Y12974674D01*
X-1050500Y12525326D01*
X-1035966Y12452260D01*
X-1035964Y12452257D01*
X-1035964Y12452256D01*
X-1021095Y12430004D01*
X-1004389Y12405001D01*
X-987780Y12346114D01*
X-1004388Y12295000D01*
X-1035966Y12247740D01*
X-1046351Y12195533D01*
X-1050498Y12174684D01*
X-1050500Y12174672D01*
X-1050500Y11725327D01*
X-1050498Y11725315D01*
X-1047085Y11708158D01*
X-1035966Y11652260D01*
X-1035964Y11652257D01*
X-1035964Y11652256D01*
X-1027540Y11639649D01*
X-1004389Y11605001D01*
X-987780Y11546114D01*
X-1004388Y11495000D01*
X-1035966Y11447740D01*
X-1050500Y11374674D01*
X-1050500Y10925326D01*
X-1035966Y10852260D01*
X-1035964Y10852257D01*
X-1035964Y10852256D01*
X-1030209Y10843644D01*
X-1004389Y10805001D01*
X-987780Y10746114D01*
X-1004388Y10695000D01*
X-1035966Y10647740D01*
X-1050500Y10574674D01*
X-1050500Y10125326D01*
X-1035966Y10052260D01*
X-1035964Y10052257D01*
X-1035964Y10052256D01*
X-1023887Y10034182D01*
X-1004389Y10005001D01*
X-987780Y9946114D01*
X-1004388Y9895000D01*
X-1035966Y9847740D01*
X-1050500Y9774674D01*
X-1050500Y9325326D01*
X-1035966Y9252260D01*
X-1035964Y9252257D01*
X-1035964Y9252256D01*
X-1025113Y9236017D01*
X-1004389Y9205001D01*
X-987780Y9146114D01*
X-1004388Y9095000D01*
X-1035966Y9047740D01*
X-1050500Y8974674D01*
X-1050500Y8525326D01*
X-1035966Y8452260D01*
X-1035964Y8452257D01*
X-980602Y8369400D01*
X-980599Y8369397D01*
X-897742Y8314035D01*
X-897740Y8314034D01*
X-897737Y8314033D01*
X-897736Y8314033D01*
X-824684Y8299501D01*
X-824674Y8299500D01*
X-824673Y8299500D01*
X-175327Y8299500D01*
X-175326Y8299500D01*
X-175325Y8299500D01*
X-175315Y8299501D01*
X-102263Y8314033D01*
X-102257Y8314035D01*
X-19400Y8369397D01*
X-19397Y8369400D01*
X35964Y8452257D01*
X35966Y8452260D01*
X50500Y8525326D01*
X50500Y8974674D01*
X35966Y9047740D01*
X4388Y9094999D01*
X-12219Y9153887D01*
X4389Y9205001D01*
X35964Y9252257D01*
X35966Y9252260D01*
X50500Y9325326D01*
X50500Y9774674D01*
X35966Y9847740D01*
X4388Y9894999D01*
X-12219Y9953887D01*
X4389Y10005001D01*
X35964Y10052257D01*
X35966Y10052260D01*
X50500Y10125326D01*
X50500Y10574674D01*
X35966Y10647740D01*
X4388Y10694999D01*
X-12219Y10753887D01*
X4389Y10805001D01*
X35964Y10852257D01*
X35966Y10852260D01*
X50500Y10925326D01*
X50500Y11374674D01*
X35966Y11447740D01*
X4388Y11494999D01*
X-12219Y11553887D01*
X4389Y11605001D01*
X35964Y11652257D01*
X35966Y11652260D01*
X47085Y11708158D01*
X50498Y11725315D01*
X50500Y11725327D01*
X50500Y12174672D01*
X50498Y12174684D01*
X46351Y12195533D01*
X35966Y12247740D01*
X4388Y12294999D01*
X-12219Y12353887D01*
X4389Y12405001D01*
X18085Y12425498D01*
X35966Y12452260D01*
X50500Y12525326D01*
X50500Y12974674D01*
X35966Y13047740D01*
X-9628Y13115978D01*
X-19397Y13130599D01*
X-19400Y13130602D01*
X-102257Y13185964D01*
X-102260Y13185966D01*
X-157808Y13197015D01*
X-175315Y13200498D01*
X-175320Y13200498D01*
X-175326Y13200500D01*
X-824674Y13200500D01*
X-897740Y13185966D01*
X-980601Y13130601D01*
X-1035966Y13047740D01*
X-1050500Y12974674D01*
X-4010000Y12974674D01*
X-4010000Y13853822D01*
X-3991093Y13912013D01*
X-3981004Y13923825D01*
X-3914995Y13989833D01*
X-3876789Y14056009D01*
X-3831319Y14096949D01*
X-3770469Y14103344D01*
X-3717481Y14072751D01*
X-3708742Y14061515D01*
X-3680602Y14019400D01*
X-3680601Y14019399D01*
X-3680599Y14019397D01*
X-3597742Y13964035D01*
X-3597740Y13964034D01*
X-3597737Y13964033D01*
X-3597736Y13964033D01*
X-3524684Y13949501D01*
X-3524674Y13949500D01*
X-3524673Y13949500D01*
X-3075327Y13949500D01*
X-3075326Y13949500D01*
X-3075325Y13949500D01*
X-3075315Y13949501D01*
X-3002263Y13964033D01*
X-3002254Y13964036D01*
X-2955000Y13995610D01*
X-2896112Y14012218D01*
X-2845000Y13995610D01*
X-2797745Y13964036D01*
X-2797740Y13964034D01*
X-2797737Y13964033D01*
X-2797736Y13964033D01*
X-2724684Y13949501D01*
X-2724674Y13949500D01*
X-2724673Y13949500D01*
X-2275327Y13949500D01*
X-2275326Y13949500D01*
X-2275325Y13949500D01*
X-2275315Y13949501D01*
X-2202263Y13964033D01*
X-2202254Y13964036D01*
X-2155000Y13995610D01*
X-2096112Y14012218D01*
X-2045000Y13995610D01*
X-1997745Y13964036D01*
X-1997740Y13964034D01*
X-1997737Y13964033D01*
X-1997736Y13964033D01*
X-1924684Y13949501D01*
X-1924674Y13949500D01*
X-1924673Y13949500D01*
X-1475327Y13949500D01*
X-1475326Y13949500D01*
X-1475325Y13949500D01*
X-1475315Y13949501D01*
X-1402263Y13964033D01*
X-1402254Y13964036D01*
X-1355000Y13995610D01*
X-1296112Y14012218D01*
X-1245000Y13995610D01*
X-1197745Y13964036D01*
X-1197740Y13964034D01*
X-1197737Y13964033D01*
X-1197736Y13964033D01*
X-1124684Y13949501D01*
X-1124674Y13949500D01*
X-1124673Y13949500D01*
X-675327Y13949500D01*
X-675326Y13949500D01*
X-675325Y13949500D01*
X-675315Y13949501D01*
X-602263Y13964033D01*
X-602254Y13964036D01*
X-555000Y13995610D01*
X-496112Y14012218D01*
X-445000Y13995610D01*
X-397745Y13964036D01*
X-397740Y13964034D01*
X-397737Y13964033D01*
X-397736Y13964033D01*
X-324684Y13949501D01*
X-324674Y13949500D01*
X-324673Y13949500D01*
X124673Y13949500D01*
X124674Y13949500D01*
X124684Y13949501D01*
X197736Y13964033D01*
X197737Y13964033D01*
X197740Y13964034D01*
X197742Y13964035D01*
X280599Y14019397D01*
X280602Y14019400D01*
X335964Y14102257D01*
X335966Y14102260D01*
X350500Y14175326D01*
X350500Y14750500D01*
X369407Y14808691D01*
X418907Y14844655D01*
X449500Y14849500D01*
X524673Y14849500D01*
X524674Y14849500D01*
X524684Y14849501D01*
X597736Y14864033D01*
X597737Y14864033D01*
X597740Y14864034D01*
X597742Y14864035D01*
X680599Y14919397D01*
X680602Y14919400D01*
X735964Y15002257D01*
X735966Y15002260D01*
X750500Y15075326D01*
X750500Y15724672D01*
X1449500Y15724672D01*
X1449500Y15075327D01*
X1449501Y15075315D01*
X1464033Y15002263D01*
X1464035Y15002257D01*
X1519397Y14919400D01*
X1519400Y14919397D01*
X1602257Y14864035D01*
X1602263Y14864033D01*
X1675315Y14849501D01*
X1675325Y14849500D01*
X1675326Y14849500D01*
X1675327Y14849500D01*
X2124673Y14849500D01*
X2124674Y14849500D01*
X2124684Y14849501D01*
X2197736Y14864033D01*
X2197737Y14864033D01*
X2197740Y14864034D01*
X2197745Y14864036D01*
X2245450Y14895911D01*
X2304338Y14912519D01*
X2355450Y14895911D01*
X2402449Y14864507D01*
X2402453Y14864506D01*
X2475375Y14850000D01*
X2549999Y14850000D01*
X2550000Y14850001D01*
X2550000Y15249999D01*
X2850000Y15249999D01*
X2850000Y14850001D01*
X2850001Y14850000D01*
X2924624Y14850000D01*
X2997546Y14864506D01*
X2997548Y14864507D01*
X3080237Y14919758D01*
X3080241Y14919762D01*
X3135492Y15002451D01*
X3135493Y15002453D01*
X3149999Y15075375D01*
X3150000Y15075377D01*
X3150000Y15249999D01*
X3350000Y15249999D01*
X3350000Y15075375D01*
X3364506Y15002453D01*
X3364507Y15002451D01*
X3419758Y14919762D01*
X3419762Y14919758D01*
X3502451Y14864507D01*
X3502453Y14864506D01*
X3575375Y14850000D01*
X3649999Y14850000D01*
X3650000Y14850001D01*
X3650000Y15249999D01*
X3649999Y15250000D01*
X3350001Y15250000D01*
X3350000Y15249999D01*
X3150000Y15249999D01*
X3149999Y15250000D01*
X2850001Y15250000D01*
X2850000Y15249999D01*
X2550000Y15249999D01*
X2550000Y15949999D01*
X2850000Y15949999D01*
X2850000Y15550001D01*
X2850001Y15550000D01*
X3149999Y15550000D01*
X3150000Y15550001D01*
X3150000Y15724622D01*
X3149999Y15724624D01*
X3350000Y15724624D01*
X3350000Y15550001D01*
X3350001Y15550000D01*
X3649999Y15550000D01*
X3650000Y15550001D01*
X3650000Y15949999D01*
X3649999Y15950000D01*
X3575377Y15950000D01*
X3575375Y15949999D01*
X3502453Y15935493D01*
X3502451Y15935492D01*
X3419762Y15880241D01*
X3419758Y15880237D01*
X3364507Y15797548D01*
X3364506Y15797546D01*
X3350000Y15724624D01*
X3149999Y15724624D01*
X3135493Y15797546D01*
X3135492Y15797548D01*
X3080241Y15880237D01*
X3080237Y15880241D01*
X2997548Y15935492D01*
X2997546Y15935493D01*
X2924624Y15949999D01*
X2924623Y15950000D01*
X2850001Y15950000D01*
X2850000Y15949999D01*
X2550000Y15949999D01*
X2549999Y15950000D01*
X2475377Y15950000D01*
X2475375Y15949999D01*
X2402453Y15935493D01*
X2402448Y15935491D01*
X2355451Y15904089D01*
X2296563Y15887480D01*
X2245450Y15904087D01*
X2197740Y15935966D01*
X2124674Y15950500D01*
X1675326Y15950500D01*
X1675320Y15950498D01*
X1675315Y15950498D01*
X1672812Y15950000D01*
X1602260Y15935966D01*
X1602257Y15935964D01*
X1519400Y15880602D01*
X1519397Y15880599D01*
X1464035Y15797742D01*
X1464033Y15797736D01*
X1449501Y15724684D01*
X1449500Y15724672D01*
X750500Y15724672D01*
X750500Y15724674D01*
X735966Y15797740D01*
X680601Y15880601D01*
X597740Y15935966D01*
X524674Y15950500D01*
X75326Y15950500D01*
X75320Y15950498D01*
X75315Y15950498D01*
X72812Y15950000D01*
X2260Y15935966D01*
X2257Y15935964D01*
X2256Y15935964D01*
X-19995Y15921095D01*
X-44999Y15904388D01*
X-103886Y15887780D01*
X-154999Y15904388D01*
X-180004Y15921095D01*
X-202256Y15935964D01*
X-202257Y15935964D01*
X-202260Y15935966D01*
X-272812Y15950000D01*
X-275315Y15950498D01*
X-275320Y15950498D01*
X-275326Y15950500D01*
X-724674Y15950500D01*
X-797740Y15935966D01*
X-844999Y15904388D01*
X-903886Y15887780D01*
X-954999Y15904388D01*
X-980004Y15921095D01*
X-1002256Y15935964D01*
X-1002257Y15935964D01*
X-1002260Y15935966D01*
X-1072812Y15950000D01*
X-1075315Y15950498D01*
X-1075320Y15950498D01*
X-1075326Y15950500D01*
X-1524674Y15950500D01*
X-1597740Y15935966D01*
X-1644999Y15904388D01*
X-1703886Y15887780D01*
X-1754999Y15904388D01*
X-1780004Y15921095D01*
X-1802256Y15935964D01*
X-1802257Y15935964D01*
X-1802260Y15935966D01*
X-1872812Y15950000D01*
X-1875315Y15950498D01*
X-1875320Y15950498D01*
X-1875326Y15950500D01*
X-2324674Y15950500D01*
X-2397740Y15935966D01*
X-2444999Y15904388D01*
X-2503886Y15887780D01*
X-2554999Y15904388D01*
X-2580004Y15921095D01*
X-2602256Y15935964D01*
X-2602257Y15935964D01*
X-2602260Y15935966D01*
X-2672812Y15950000D01*
X-2675315Y15950498D01*
X-2675320Y15950498D01*
X-2675326Y15950500D01*
X-3124674Y15950500D01*
X-3197740Y15935966D01*
X-3244999Y15904388D01*
X-3303886Y15887780D01*
X-3354999Y15904388D01*
X-3380004Y15921095D01*
X-3402256Y15935964D01*
X-3402257Y15935964D01*
X-3402260Y15935966D01*
X-3472812Y15950000D01*
X-3475315Y15950498D01*
X-3475320Y15950498D01*
X-3475326Y15950500D01*
X-3924674Y15950500D01*
X-3997740Y15935966D01*
X-4080601Y15880601D01*
X-4135966Y15797740D01*
X-4150500Y15724674D01*
X-4150500Y15075326D01*
X-4135966Y15002260D01*
X-4135964Y15002257D01*
X-4119983Y14978339D01*
X-4103375Y14919450D01*
X-4124553Y14862047D01*
X-4175427Y14828055D01*
X-4227921Y14827712D01*
X-4266317Y14838000D01*
X-4404683Y14838000D01*
X-4538336Y14802188D01*
X-4658165Y14733005D01*
X-4756005Y14635165D01*
X-4825188Y14515336D01*
X-4861000Y14381683D01*
X-6603186Y14381683D01*
X-6595610Y14405000D01*
X-6570105Y14443172D01*
X-6564036Y14452254D01*
X-6564033Y14452263D01*
X-6549501Y14525315D01*
X-6549500Y14525327D01*
X-6549500Y14974672D01*
X-6549501Y14974684D01*
X-6564033Y15047736D01*
X-6564036Y15047745D01*
X-6595911Y15095450D01*
X-6612519Y15154338D01*
X-6595911Y15205450D01*
X-6564507Y15252449D01*
X-6564506Y15252453D01*
X-6550000Y15325375D01*
X-6550000Y15399999D01*
X-6550001Y15400000D01*
X-7649999Y15400000D01*
X-7650000Y15399999D01*
X-7650000Y15325377D01*
X-7649999Y15325375D01*
X-7635493Y15252453D01*
X-7635491Y15252448D01*
X-7604089Y15205451D01*
X-7587480Y15146563D01*
X-7604087Y15095450D01*
X-7635966Y15047740D01*
X-7645013Y15002257D01*
X-7650498Y14974684D01*
X-7650500Y14974672D01*
X-7650500Y14972093D01*
X-7650864Y14970971D01*
X-7650976Y14969838D01*
X-7651224Y14969862D01*
X-7669407Y14913902D01*
X-7716739Y14878671D01*
X-10739612Y13818702D01*
X-10800780Y13817290D01*
X-10851098Y13852101D01*
X-10871344Y13909840D01*
X-10853785Y13968452D01*
X-10833278Y13990172D01*
X-10545438Y14214804D01*
X-10541535Y14217699D01*
X-9835250Y14715121D01*
X-9831210Y14717821D01*
X-9101364Y15179989D01*
X-9097196Y15182487D01*
X-8345552Y15608289D01*
X-8341267Y15610579D01*
X-7790529Y15887798D01*
X-7730050Y15897073D01*
X-7675671Y15869028D01*
X-7648161Y15814376D01*
X-7648921Y15780047D01*
X-7649999Y15774626D01*
X-7650000Y15774622D01*
X-7650000Y15700001D01*
X-7649999Y15700000D01*
X-7250001Y15700000D01*
X-7250000Y15700001D01*
X-7250000Y15999999D01*
X-6950000Y15999999D01*
X-6950000Y15700001D01*
X-6949999Y15700000D01*
X-6550001Y15700000D01*
X-6550000Y15700001D01*
X-6550000Y15774624D01*
X-6564506Y15847546D01*
X-6564507Y15847548D01*
X-6619758Y15930237D01*
X-6619762Y15930241D01*
X-6702451Y15985492D01*
X-6702453Y15985493D01*
X-6775375Y15999999D01*
X-6775377Y16000000D01*
X-6949999Y16000000D01*
X-6950000Y15999999D01*
X-7250000Y15999999D01*
X-7250000Y16004309D01*
X-7273299Y16050038D01*
X-7263728Y16110470D01*
X-7220463Y16153735D01*
X-7215637Y16156032D01*
X-6775477Y16351142D01*
X-6770988Y16353001D01*
X-5965015Y16663899D01*
X-5960439Y16665536D01*
X-5140171Y16936516D01*
X-5135521Y16937927D01*
X-4302944Y17168331D01*
X-4298231Y17169511D01*
X-3455365Y17358784D01*
X-3450599Y17359732D01*
X-2599444Y17507423D01*
X-2594638Y17508136D01*
X-1737272Y17613881D01*
X-1732436Y17614358D01*
X-870884Y17677910D01*
X-866031Y17678148D01*
X-2430Y17699349D01*
X2430Y17699349D01*
X866031Y17678148D01*
G37*
%TD.AperFunction*%
%TA.AperFunction,Conductor*%
G36*
X-9653309Y-9668907D02*
G01*
X-9617345Y-9718407D01*
X-9612500Y-9749000D01*
X-9612500Y-10074998D01*
X-9612499Y-10074999D01*
X-9297959Y-10074999D01*
X-9297948Y-10074998D01*
X-9248803Y-10068529D01*
X-9248801Y-10068529D01*
X-9152341Y-10023547D01*
X-9091612Y-10016090D01*
X-9038097Y-10045752D01*
X-9012238Y-10101204D01*
X-9011500Y-10113271D01*
X-9011500Y-10377865D01*
X-9030407Y-10436056D01*
X-9040496Y-10447869D01*
X-9662331Y-11069704D01*
X-9716848Y-11097481D01*
X-9732335Y-11098700D01*
X-11480293Y-11098700D01*
X-11538484Y-11079793D01*
X-11550297Y-11069704D01*
X-11570001Y-11050000D01*
X-11991000Y-11050000D01*
X-12049191Y-11031093D01*
X-12085155Y-10981593D01*
X-12090000Y-10951000D01*
X-12090000Y-10849000D01*
X-12071093Y-10790809D01*
X-12021593Y-10754845D01*
X-11991000Y-10750000D01*
X-11570002Y-10750000D01*
X-11570001Y-10749999D01*
X-11570001Y-10678461D01*
X-11580903Y-10603624D01*
X-11637335Y-10488192D01*
X-11728192Y-10397335D01*
X-11843628Y-10340901D01*
X-11850728Y-10338708D01*
X-11900742Y-10303463D01*
X-11920489Y-10245552D01*
X-11920499Y-10244121D01*
X-11920499Y-10207485D01*
X-11920500Y-10207467D01*
X-11920500Y-10174499D01*
X-11901593Y-10116308D01*
X-11852093Y-10080344D01*
X-11821505Y-10075499D01*
X-10972898Y-10075499D01*
X-10969099Y-10074999D01*
X-10923670Y-10069019D01*
X-10815641Y-10018644D01*
X-10815297Y-10018403D01*
X-10814762Y-10018234D01*
X-10807792Y-10014984D01*
X-10807364Y-10015901D01*
X-10758514Y-10000500D01*
X-10553858Y-10000500D01*
X-10553856Y-10000500D01*
X-10489138Y-9983159D01*
X-10428038Y-9986362D01*
X-10393511Y-10008785D01*
X-10384067Y-10018228D01*
X-10384066Y-10018229D01*
X-10276201Y-10068528D01*
X-10227044Y-10074999D01*
X-9912501Y-10074999D01*
X-9912500Y-10074998D01*
X-9912500Y-9749000D01*
X-9893593Y-9690809D01*
X-9844093Y-9654845D01*
X-9813500Y-9650000D01*
X-9711500Y-9650000D01*
X-9653309Y-9668907D01*
G37*
%TD.AperFunction*%
%TA.AperFunction,Conductor*%
G36*
X-11325368Y13507828D02*
G01*
X-11285403Y13461498D01*
X-11279029Y13424608D01*
X-11278293Y13424664D01*
X-11275782Y13391443D01*
X-11275500Y13383981D01*
X-11275500Y13168510D01*
X-11294407Y13110319D01*
X-11304490Y13098512D01*
X-11318644Y13084359D01*
X-11369019Y12976330D01*
X-11375500Y12927103D01*
X-11375499Y12647743D01*
X-11375499Y12505791D01*
X-11394406Y12447600D01*
X-11432656Y12416068D01*
X-11534359Y12368644D01*
X-11618644Y12284359D01*
X-11652225Y12212341D01*
X-11671945Y12184179D01*
X-11787289Y12068837D01*
X-11841805Y12041060D01*
X-11902237Y12050632D01*
X-11927296Y12068837D01*
X-11997909Y12139450D01*
X-11997911Y12139451D01*
X-12107977Y12195533D01*
X-12107978Y12195534D01*
X-12199306Y12209999D01*
X-12250000Y12209998D01*
X-12250000Y11779000D01*
X-12268907Y11720809D01*
X-12318407Y11684845D01*
X-12349000Y11680000D01*
X-12399999Y11680000D01*
X-12400000Y11679999D01*
X-12400000Y11629000D01*
X-12418907Y11570809D01*
X-12468407Y11534845D01*
X-12499000Y11530000D01*
X-12959998Y11530000D01*
X-12959999Y11529999D01*
X-12959999Y11509306D01*
X-12945536Y11417984D01*
X-12945534Y11417977D01*
X-12889451Y11307911D01*
X-12889450Y11307909D01*
X-12851899Y11270358D01*
X-12824122Y11215841D01*
X-12833693Y11155409D01*
X-12851896Y11130353D01*
X-12889859Y11092391D01*
X-12946017Y10982175D01*
X-12960500Y10890735D01*
X-12960499Y10716895D01*
X-12960499Y10549262D01*
X-12954882Y10513801D01*
X-12946017Y10457825D01*
X-12889859Y10347609D01*
X-12886194Y10343944D01*
X-12858419Y10289430D01*
X-12867990Y10228998D01*
X-12911255Y10185733D01*
X-13002091Y10139449D01*
X-13089450Y10052090D01*
X-13089451Y10052088D01*
X-13145533Y9942022D01*
X-13145534Y9942021D01*
X-13160000Y9850692D01*
X-13160000Y9830001D01*
X-13159999Y9830000D01*
X-12040002Y9830000D01*
X-12040001Y9830001D01*
X-12040001Y9850693D01*
X-12040000Y9850693D01*
X-12054463Y9942015D01*
X-12054465Y9942022D01*
X-12110548Y10052088D01*
X-12110549Y10052090D01*
X-12113900Y10055441D01*
X-12141677Y10109958D01*
X-12132106Y10170390D01*
X-12088842Y10213654D01*
X-11997610Y10260140D01*
X-11910136Y10347614D01*
X-11905719Y10353694D01*
X-11856218Y10389656D01*
X-11825629Y10394500D01*
X-11810034Y10394500D01*
X-11751843Y10375593D01*
X-11740031Y10365504D01*
X-11517811Y10143285D01*
X-11517808Y10143281D01*
X-11517808Y10143282D01*
X-11512166Y10137640D01*
X-11512165Y10137638D01*
X-11451562Y10077035D01*
X-11427486Y10063135D01*
X-11427485Y10063134D01*
X-11408352Y10052088D01*
X-11399692Y10047088D01*
X-11359470Y10003191D01*
X-11318645Y9915643D01*
X-11318643Y9915639D01*
X-11304495Y9901491D01*
X-11276718Y9846974D01*
X-11275500Y9831489D01*
X-11275500Y9787148D01*
X-11275499Y9787145D01*
X-11274337Y9782807D01*
X-11277536Y9721706D01*
X-11316039Y9674154D01*
X-11354477Y9659398D01*
X-11442020Y9645534D01*
X-11442022Y9645534D01*
X-11552088Y9589451D01*
X-11552090Y9589450D01*
X-11639450Y9502090D01*
X-11639451Y9502088D01*
X-11695533Y9392022D01*
X-11695534Y9392021D01*
X-11710000Y9300692D01*
X-11710000Y9250001D01*
X-11709999Y9250000D01*
X-11279000Y9250000D01*
X-11220809Y9231093D01*
X-11184845Y9181593D01*
X-11183470Y9176980D01*
X-11162535Y9100000D01*
X-11129000Y9100000D01*
X-11070809Y9081093D01*
X-11034845Y9031593D01*
X-11030000Y9001000D01*
X-11030000Y8974500D01*
X-11048907Y8916309D01*
X-11098407Y8880345D01*
X-11129000Y8875500D01*
X-11231000Y8875500D01*
X-11233388Y8876276D01*
X-11235812Y8875617D01*
X-11262272Y8885660D01*
X-11289191Y8894407D01*
X-11290667Y8896438D01*
X-11293015Y8897330D01*
X-11308514Y8921003D01*
X-11325155Y8943907D01*
X-11325389Y8945388D01*
X-11330001Y8950000D01*
X-11709998Y8950000D01*
X-11721791Y8938206D01*
X-11728906Y8916309D01*
X-11778406Y8880345D01*
X-11808999Y8875500D01*
X-11952534Y8875500D01*
X-12010725Y8894407D01*
X-12046689Y8943907D01*
X-12050315Y8959014D01*
X-12053982Y8982173D01*
X-12053984Y8982178D01*
X-12110140Y9092389D01*
X-12110141Y9092391D01*
X-12148101Y9130351D01*
X-12175877Y9184866D01*
X-12166306Y9245298D01*
X-12148101Y9270355D01*
X-12110552Y9307905D01*
X-12110548Y9307911D01*
X-12054466Y9417977D01*
X-12054465Y9417978D01*
X-12040000Y9509307D01*
X-12040000Y9529999D01*
X-12040001Y9530000D01*
X-13159998Y9530000D01*
X-13159999Y9529999D01*
X-13159999Y9509306D01*
X-13145536Y9417984D01*
X-13145534Y9417977D01*
X-13089451Y9307911D01*
X-13089450Y9307909D01*
X-13051899Y9270358D01*
X-13024122Y9215841D01*
X-13033693Y9155409D01*
X-13051896Y9130353D01*
X-13089859Y9092391D01*
X-13146017Y8982175D01*
X-13160500Y8890735D01*
X-13160499Y8706894D01*
X-13160499Y8549262D01*
X-13156706Y8525315D01*
X-13146017Y8457825D01*
X-13089859Y8347609D01*
X-13002391Y8260141D01*
X-13002389Y8260140D01*
X-12979553Y8248504D01*
X-12936289Y8205238D01*
X-12925500Y8160295D01*
X-12925500Y6701853D01*
X-12925500Y6616147D01*
X-12903318Y6533361D01*
X-12903316Y6533358D01*
X-12903316Y6533356D01*
X-12860468Y6459142D01*
X-12860464Y6459137D01*
X-12502966Y6101638D01*
X-12502966Y6101639D01*
X-12502965Y6101638D01*
X-12502965Y6101637D01*
X-12442364Y6041037D01*
X-12442362Y6041035D01*
X-12368138Y5998182D01*
X-12285353Y5976000D01*
X-12285351Y5976000D01*
X-10900834Y5976000D01*
X-10842643Y5957093D01*
X-10806679Y5907593D01*
X-10806679Y5846407D01*
X-10830829Y5806997D01*
X-11106565Y5531262D01*
X-11106567Y5531258D01*
X-11106568Y5531257D01*
X-11135530Y5481093D01*
X-11149418Y5457039D01*
X-11164179Y5401950D01*
X-11171600Y5374253D01*
X-11171600Y5374251D01*
X-11171600Y3774369D01*
X-11190507Y3716178D01*
X-11240007Y3680214D01*
X-11296220Y3678742D01*
X-11316217Y3684100D01*
X-11454583Y3684100D01*
X-11588236Y3648288D01*
X-11708065Y3579105D01*
X-11741071Y3546099D01*
X-11774075Y3513096D01*
X-11828592Y3485319D01*
X-11844078Y3484100D01*
X-12096753Y3484100D01*
X-12179538Y3461918D01*
X-12208529Y3445180D01*
X-12253762Y3419065D01*
X-12343827Y3328999D01*
X-12368330Y3304496D01*
X-12422847Y3276718D01*
X-12438334Y3275499D01*
X-12827102Y3275499D01*
X-12876330Y3269019D01*
X-12984359Y3218644D01*
X-13068644Y3134359D01*
X-13110552Y3044486D01*
X-13152278Y2999741D01*
X-13212340Y2988066D01*
X-13267792Y3013924D01*
X-13289999Y3044488D01*
X-13331770Y3134065D01*
X-13415934Y3218229D01*
X-13523801Y3268528D01*
X-13523799Y3268528D01*
X-13572955Y3274999D01*
X-13887498Y3274999D01*
X-13887500Y3274998D01*
X-13887500Y2949000D01*
X-13906407Y2890809D01*
X-13955907Y2854845D01*
X-13986500Y2850000D01*
X-14037499Y2850000D01*
X-14037500Y2849999D01*
X-14037500Y2799000D01*
X-14056407Y2740809D01*
X-14105907Y2704845D01*
X-14136500Y2700000D01*
X-14796976Y2700000D01*
X-14793528Y2673798D01*
X-14748082Y2576340D01*
X-14740625Y2515610D01*
X-14770288Y2462096D01*
X-14825741Y2436238D01*
X-14837806Y2435500D01*
X-15019831Y2435500D01*
X-15078022Y2454407D01*
X-15090468Y2466956D01*
X-15091124Y2466301D01*
X-15096923Y2472100D01*
X-15096924Y2472102D01*
X-15187898Y2563076D01*
X-15303482Y2619582D01*
X-15378418Y2630500D01*
X-15821582Y2630500D01*
X-15896518Y2619582D01*
X-16012102Y2563076D01*
X-16103076Y2472102D01*
X-16159582Y2356518D01*
X-16170500Y2281582D01*
X-16170500Y1938418D01*
X-16159582Y1863482D01*
X-16103076Y1747898D01*
X-16025179Y1670001D01*
X-15997404Y1615487D01*
X-16006975Y1555055D01*
X-16025178Y1529999D01*
X-16103076Y1452102D01*
X-16159582Y1336518D01*
X-16170500Y1261582D01*
X-16170500Y918418D01*
X-16159582Y843482D01*
X-16136295Y795848D01*
X-16118059Y758545D01*
X-16108000Y715065D01*
X-16108000Y-2251647D01*
X-16108000Y-2337353D01*
X-16085818Y-2420139D01*
X-16042965Y-2494362D01*
X-14963962Y-3573365D01*
X-14905128Y-3607333D01*
X-14864187Y-3652802D01*
X-14857791Y-3713652D01*
X-14861866Y-3727654D01*
X-14869412Y-3747885D01*
X-14875500Y-3804514D01*
X-14875500Y-3804517D01*
X-14875500Y-3810600D01*
X-14894407Y-3868791D01*
X-14943907Y-3904755D01*
X-14974500Y-3909600D01*
X-15621047Y-3909600D01*
X-15706753Y-3909600D01*
X-15779763Y-3929162D01*
X-15789543Y-3931783D01*
X-15863757Y-3974631D01*
X-15863759Y-3974633D01*
X-15863762Y-3974635D01*
X-16194965Y-4305838D01*
X-16194966Y-4305840D01*
X-16194968Y-4305842D01*
X-16237816Y-4380057D01*
X-16237818Y-4380061D01*
X-16249984Y-4425462D01*
X-16256112Y-4448335D01*
X-16260000Y-4462847D01*
X-16260000Y-5232647D01*
X-16260000Y-5318353D01*
X-16237818Y-5401139D01*
X-16237816Y-5401141D01*
X-16237816Y-5401143D01*
X-16220961Y-5430336D01*
X-16194965Y-5475362D01*
X-15999494Y-5670832D01*
X-15971719Y-5725347D01*
X-15970500Y-5740834D01*
X-15970500Y-5981582D01*
X-15959582Y-6056518D01*
X-15903076Y-6172102D01*
X-15812102Y-6263076D01*
X-15696518Y-6319582D01*
X-15621582Y-6330500D01*
X-15621578Y-6330500D01*
X-15178421Y-6330500D01*
X-15178418Y-6330500D01*
X-15103482Y-6319582D01*
X-14987898Y-6263076D01*
X-14896924Y-6172102D01*
X-14840418Y-6056518D01*
X-14837504Y-6036520D01*
X-14810405Y-5981665D01*
X-14756237Y-5953213D01*
X-14695691Y-5962035D01*
X-14669535Y-5980792D01*
X-14434496Y-6215832D01*
X-14406719Y-6270348D01*
X-14405500Y-6285835D01*
X-14405500Y-6325629D01*
X-14424407Y-6383820D01*
X-14446306Y-6405719D01*
X-14452385Y-6410136D01*
X-14452388Y-6410139D01*
X-14452391Y-6410141D01*
X-14539859Y-6497609D01*
X-14596017Y-6607825D01*
X-14610500Y-6699265D01*
X-14610499Y-6865501D01*
X-14610499Y-6929164D01*
X-14629406Y-6987354D01*
X-14639495Y-6999167D01*
X-14854264Y-7213937D01*
X-14854268Y-7213942D01*
X-14880849Y-7259982D01*
X-14882511Y-7262862D01*
X-14897117Y-7288160D01*
X-14897118Y-7288160D01*
X-14897118Y-7288161D01*
X-14897118Y-7288162D01*
X-14919300Y-7370947D01*
X-14919300Y-8673547D01*
X-14919300Y-8759253D01*
X-14897118Y-8842039D01*
X-14897116Y-8842041D01*
X-14897116Y-8842043D01*
X-14864850Y-8897928D01*
X-14854265Y-8916262D01*
X-14589435Y-9181090D01*
X-14561659Y-9235605D01*
X-14569715Y-9292931D01*
X-14594355Y-9345769D01*
X-14600500Y-9392446D01*
X-14600500Y-9607554D01*
X-14594355Y-9654231D01*
X-14588383Y-9667037D01*
X-14580926Y-9727766D01*
X-14610588Y-9781280D01*
X-14666041Y-9807139D01*
X-14726102Y-9795465D01*
X-14761748Y-9761842D01*
X-15179989Y-9101364D01*
X-15182487Y-9097196D01*
X-15608293Y-8345544D01*
X-15610583Y-8341259D01*
X-15998979Y-7569649D01*
X-16001057Y-7565256D01*
X-16351142Y-6775477D01*
X-16353001Y-6770988D01*
X-16663899Y-5965015D01*
X-16665536Y-5960439D01*
X-16936516Y-5140171D01*
X-16937927Y-5135521D01*
X-17168331Y-4302944D01*
X-17169511Y-4298231D01*
X-17358784Y-3455365D01*
X-17359732Y-3450599D01*
X-17507423Y-2599444D01*
X-17508136Y-2594638D01*
X-17613881Y-1737272D01*
X-17614358Y-1732436D01*
X-17677910Y-870884D01*
X-17678148Y-866031D01*
X-17699349Y-2430D01*
X-17699349Y2430D01*
X-17678148Y866031D01*
X-17677910Y870884D01*
X-17614358Y1732436D01*
X-17613881Y1737272D01*
X-17508136Y2594638D01*
X-17507423Y2599444D01*
X-17440457Y2985374D01*
X-17437919Y3000000D01*
X-14796977Y3000000D01*
X-14187501Y3000000D01*
X-14187500Y3000001D01*
X-14187500Y3274998D01*
X-14187501Y3274999D01*
X-14502040Y3274999D01*
X-14502051Y3274998D01*
X-14551196Y3268529D01*
X-14551201Y3268528D01*
X-14659065Y3218229D01*
X-14743229Y3134065D01*
X-14793528Y3026199D01*
X-14796977Y3000000D01*
X-17437919Y3000000D01*
X-17359732Y3450599D01*
X-17358784Y3455365D01*
X-17227550Y4039774D01*
X-17196353Y4092408D01*
X-17140176Y4116653D01*
X-17080477Y4103247D01*
X-17060952Y4088087D01*
X-17060567Y4087702D01*
X-17060563Y4087697D01*
X-17060558Y4087693D01*
X-17060557Y4087692D01*
X-16910650Y3972665D01*
X-16604928Y3738076D01*
X-16604926Y3738075D01*
X-16388161Y3648288D01*
X-16074330Y3518295D01*
X-16074328Y3518294D01*
X-16074326Y3518294D01*
X-15504929Y3443332D01*
X-15504928Y3443332D01*
X-15504927Y3443332D01*
X-14935529Y3518294D01*
X-14935523Y3518296D01*
X-14404929Y3738075D01*
X-13949298Y4087692D01*
X-13949288Y4087702D01*
X-13599671Y4543333D01*
X-13379892Y5073927D01*
X-13379890Y5073933D01*
X-13304928Y5643331D01*
X-13304928Y5643332D01*
X-13379890Y6212730D01*
X-13379892Y6212736D01*
X-13467680Y6424674D01*
X-13551486Y6627000D01*
X-13599671Y6743330D01*
X-13599672Y6743332D01*
X-13911719Y7150000D01*
X-13949288Y7198961D01*
X-13949289Y7198962D01*
X-13949293Y7198967D01*
X-13976205Y7219617D01*
X-14185215Y7379996D01*
X-14404928Y7548588D01*
X-14935526Y7768369D01*
X-15393490Y7828661D01*
X-15504927Y7843332D01*
X-15504928Y7843332D01*
X-15701054Y7817511D01*
X-15761213Y7828661D01*
X-15803331Y7873043D01*
X-15811317Y7933705D01*
X-15802404Y7960176D01*
X-15610583Y8341259D01*
X-15608293Y8345544D01*
X-15182487Y9097196D01*
X-15179989Y9101364D01*
X-14717821Y9831210D01*
X-14715121Y9835250D01*
X-14217691Y10541546D01*
X-14214796Y10545449D01*
X-13683317Y11226476D01*
X-13680235Y11230232D01*
X-13133964Y11863512D01*
X-13081638Y11895225D01*
X-13020666Y11890125D01*
X-12974336Y11850160D01*
X-12972078Y11842079D01*
X-12959999Y11830000D01*
X-12550001Y11830000D01*
X-12550000Y11830001D01*
X-12550000Y12209998D01*
X-12550001Y12209999D01*
X-12575161Y12209999D01*
X-12633352Y12228906D01*
X-12669316Y12278406D01*
X-12669316Y12339592D01*
X-12646861Y12377264D01*
X-12627216Y12397897D01*
X-12575461Y12452257D01*
X-12517046Y12513612D01*
X-12513611Y12517047D01*
X-11887963Y13112714D01*
X-11884362Y13115978D01*
X-11441344Y13498128D01*
X-11384932Y13521819D01*
X-11325368Y13507828D01*
G37*
%TD.AperFunction*%
%TA.AperFunction,Conductor*%
G36*
X-7676740Y6119888D02*
G01*
X-7651681Y6101682D01*
X-7649999Y6100000D01*
X-7199000Y6100000D01*
X-7140809Y6081093D01*
X-7104845Y6031593D01*
X-7100000Y6001000D01*
X-7100000Y5950001D01*
X-7099999Y5950000D01*
X-7049000Y5950000D01*
X-6990809Y5931093D01*
X-6954845Y5881593D01*
X-6950000Y5851000D01*
X-6950000Y5500001D01*
X-6949999Y5500000D01*
X-6775375Y5500000D01*
X-6702453Y5514506D01*
X-6702451Y5514507D01*
X-6619762Y5569758D01*
X-6619756Y5569764D01*
X-6608877Y5586046D01*
X-6560827Y5623925D01*
X-6499688Y5626325D01*
X-6471562Y5613359D01*
X-6397742Y5564035D01*
X-6397740Y5564034D01*
X-6397737Y5564033D01*
X-6397736Y5564033D01*
X-6324684Y5549501D01*
X-6324674Y5549500D01*
X-6324673Y5549500D01*
X-5875327Y5549500D01*
X-5875326Y5549500D01*
X-5875325Y5549500D01*
X-5875315Y5549501D01*
X-5802263Y5564033D01*
X-5802254Y5564036D01*
X-5755000Y5595610D01*
X-5696112Y5612218D01*
X-5645000Y5595610D01*
X-5597745Y5564036D01*
X-5597740Y5564034D01*
X-5597737Y5564033D01*
X-5597736Y5564033D01*
X-5524684Y5549501D01*
X-5524674Y5549500D01*
X-5524673Y5549500D01*
X-5075327Y5549500D01*
X-5075326Y5549500D01*
X-5075325Y5549500D01*
X-5075315Y5549501D01*
X-5002263Y5564033D01*
X-5002257Y5564035D01*
X-4979500Y5579241D01*
X-4920611Y5595848D01*
X-4863208Y5574669D01*
X-4829216Y5523794D01*
X-4825500Y5496924D01*
X-4825500Y5108517D01*
X-4844407Y5050326D01*
X-4893907Y5014362D01*
X-4934800Y5010889D01*
X-4934848Y5010241D01*
X-4938415Y5010499D01*
X-4938418Y5010500D01*
X-5281582Y5010500D01*
X-5356518Y4999582D01*
X-5472102Y4943076D01*
X-5533658Y4881520D01*
X-5588172Y4853743D01*
X-5648604Y4863314D01*
X-5673660Y4881517D01*
X-5730645Y4938502D01*
X-5739622Y4943076D01*
X-5842971Y4995736D01*
X-5842973Y4995736D01*
X-5842978Y4995739D01*
X-5936177Y5010500D01*
X-6293822Y5010499D01*
X-6293824Y5010499D01*
X-6293825Y5010498D01*
X-6316989Y5006830D01*
X-6387017Y4995740D01*
X-6387019Y4995739D01*
X-6387022Y4995739D01*
X-6387022Y4995738D01*
X-6387025Y4995738D01*
X-6442192Y4967627D01*
X-6499355Y4938502D01*
X-6530352Y4907504D01*
X-6584865Y4879729D01*
X-6645297Y4889300D01*
X-6670357Y4907506D01*
X-6700945Y4938094D01*
X-6813134Y4995256D01*
X-6906213Y5010000D01*
X-6934999Y5010000D01*
X-6935000Y5009999D01*
X-6935000Y3870001D01*
X-6934999Y3870000D01*
X-6906213Y3870000D01*
X-6813134Y3884743D01*
X-6700944Y3941905D01*
X-6670356Y3972494D01*
X-6615839Y4000270D01*
X-6555407Y3990698D01*
X-6530352Y3972495D01*
X-6499355Y3941498D01*
X-6499352Y3941496D01*
X-6499350Y3941495D01*
X-6387028Y3884263D01*
X-6387023Y3884261D01*
X-6387022Y3884261D01*
X-6363722Y3880570D01*
X-6293826Y3869500D01*
X-6293823Y3869500D01*
X-5936175Y3869500D01*
X-5936172Y3869501D01*
X-5842982Y3884259D01*
X-5842974Y3884261D01*
X-5730649Y3941495D01*
X-5730643Y3941499D01*
X-5673663Y3998479D01*
X-5619146Y4026256D01*
X-5558714Y4016684D01*
X-5533659Y3998481D01*
X-5472102Y3936924D01*
X-5356518Y3880418D01*
X-5281582Y3869500D01*
X-5281579Y3869500D01*
X-4938421Y3869500D01*
X-4938418Y3869500D01*
X-4863482Y3880418D01*
X-4854635Y3884743D01*
X-4747899Y3936923D01*
X-4712157Y3972665D01*
X-4670001Y4014820D01*
X-4615487Y4042596D01*
X-4555055Y4033025D01*
X-4529999Y4014821D01*
X-4452102Y3936924D01*
X-4336518Y3880418D01*
X-4261582Y3869500D01*
X-4205768Y3869500D01*
X-4147577Y3850593D01*
X-4111613Y3801093D01*
X-4111613Y3739907D01*
X-4130803Y3705837D01*
X-4284677Y3527455D01*
X-4295575Y3514176D01*
X-4452600Y3312967D01*
X-4462833Y3299169D01*
X-4609796Y3090498D01*
X-4619340Y3076214D01*
X-4755887Y2860583D01*
X-4764719Y2845848D01*
X-4890521Y2623777D01*
X-4898619Y2608626D01*
X-4974979Y2456924D01*
X-5013379Y2380636D01*
X-5020124Y2366373D01*
X-5020717Y2365120D01*
X-5124146Y2131788D01*
X-5130721Y2115917D01*
X-5151680Y2061582D01*
X-5210959Y1907905D01*
X-5222576Y1877790D01*
X-5228364Y1861615D01*
X-5308424Y1619268D01*
X-5313411Y1602829D01*
X-5381484Y1356846D01*
X-5385658Y1340182D01*
X-5441579Y1091155D01*
X-5444930Y1074306D01*
X-5469945Y930143D01*
X-5488565Y822838D01*
X-5491086Y805836D01*
X-5496919Y758545D01*
X-5522328Y552532D01*
X-5524012Y535436D01*
X-5542788Y280899D01*
X-5543630Y263741D01*
X-5549894Y8589D01*
X-5549894Y8565D01*
X-5550000Y37D01*
X-5550000Y-6639241D01*
X-5568907Y-6697432D01*
X-5618407Y-6733396D01*
X-5679593Y-6733396D01*
X-5698524Y-6724964D01*
X-6151832Y-6463080D01*
X-6192760Y-6417599D01*
X-6199139Y-6356747D01*
X-6188031Y-6327834D01*
X-6124428Y-6217740D01*
X-6124313Y-6217567D01*
X-6099163Y-6174007D01*
X-6099157Y-6174009D01*
X-6099151Y-6173986D01*
X-6078316Y-6137920D01*
X-6078315Y-6137919D01*
X-6078293Y-6137880D01*
X-6078292Y-6137877D01*
X-6067338Y-6096998D01*
X-6067335Y-6096998D01*
X-6067332Y-6096975D01*
X-6056100Y-6055100D01*
X-6056100Y-6014150D01*
X-6056087Y-5969431D01*
X-6056097Y-5969356D01*
X-6066827Y-5929310D01*
X-6066833Y-5929287D01*
X-6078252Y-5886624D01*
X-6078273Y-5886573D01*
X-6099810Y-5849272D01*
X-6099823Y-5849251D01*
X-6121102Y-5812371D01*
X-6135866Y-5797607D01*
X-6150597Y-5782875D01*
X-6166859Y-5766605D01*
X-6185675Y-5747779D01*
X-6185830Y-5747641D01*
X-6504937Y-5428535D01*
X-6504942Y-5428531D01*
X-6579157Y-5385683D01*
X-6579155Y-5385683D01*
X-6623150Y-5373895D01*
X-6661947Y-5363500D01*
X-6661949Y-5363500D01*
X-7309565Y-5363500D01*
X-7367756Y-5344593D01*
X-7379569Y-5334504D01*
X-7848904Y-4865169D01*
X-7876681Y-4810652D01*
X-7877900Y-4795165D01*
X-7877900Y-4701818D01*
X-7881151Y-4689686D01*
X-7913712Y-4568164D01*
X-7982895Y-4448335D01*
X-8080735Y-4350495D01*
X-8200564Y-4281312D01*
X-8334217Y-4245500D01*
X-8472583Y-4245500D01*
X-8606236Y-4281312D01*
X-8726065Y-4350495D01*
X-8823905Y-4448335D01*
X-8893088Y-4568164D01*
X-8928900Y-4701817D01*
X-8928900Y-4840183D01*
X-8893088Y-4973836D01*
X-8823905Y-5093665D01*
X-8726065Y-5191505D01*
X-8606236Y-5260688D01*
X-8472583Y-5296500D01*
X-8379235Y-5296500D01*
X-8321044Y-5315407D01*
X-8309231Y-5325496D01*
X-7805078Y-5829648D01*
X-7777301Y-5884165D01*
X-7786872Y-5944597D01*
X-7789358Y-5949174D01*
X-8798893Y-7696631D01*
X-8818096Y-7729870D01*
X-8863577Y-7770798D01*
X-8924429Y-7777177D01*
X-8973822Y-7750350D01*
X-9027537Y-7696635D01*
X-9027542Y-7696631D01*
X-9101757Y-7653783D01*
X-9101755Y-7653783D01*
X-9145750Y-7641995D01*
X-9184547Y-7631600D01*
X-9184549Y-7631600D01*
X-10995668Y-7631600D01*
X-10995684Y-7631599D01*
X-11001747Y-7631599D01*
X-11087452Y-7631599D01*
X-11087454Y-7631599D01*
X-11170234Y-7653780D01*
X-11170236Y-7653781D01*
X-11170238Y-7653782D01*
X-11244462Y-7696635D01*
X-11305065Y-7757238D01*
X-11305066Y-7757240D01*
X-11367495Y-7819669D01*
X-11422012Y-7847446D01*
X-11482444Y-7837875D01*
X-11507502Y-7819669D01*
X-11709537Y-7617635D01*
X-11709542Y-7617631D01*
X-11783757Y-7574783D01*
X-11783755Y-7574783D01*
X-11827750Y-7562995D01*
X-11866547Y-7552600D01*
X-11866549Y-7552600D01*
X-12671343Y-7552600D01*
X-12729534Y-7533693D01*
X-12765498Y-7484193D01*
X-12765498Y-7423007D01*
X-12741348Y-7383598D01*
X-12660141Y-7302391D01*
X-12640000Y-7262862D01*
X-12603983Y-7192176D01*
X-12589500Y-7100736D01*
X-12589500Y-6699262D01*
X-12603983Y-6607825D01*
X-12603984Y-6607821D01*
X-12660140Y-6497610D01*
X-12747610Y-6410140D01*
X-12857824Y-6353983D01*
X-12857823Y-6353983D01*
X-12949263Y-6339500D01*
X-13290737Y-6339500D01*
X-13373308Y-6352578D01*
X-13382175Y-6353983D01*
X-13382178Y-6353984D01*
X-13483712Y-6405719D01*
X-13492391Y-6410141D01*
X-13529998Y-6447748D01*
X-13584513Y-6475524D01*
X-13644945Y-6465953D01*
X-13670000Y-6447749D01*
X-13707609Y-6410141D01*
X-13707609Y-6410140D01*
X-13707614Y-6410136D01*
X-13713694Y-6405719D01*
X-13749656Y-6356218D01*
X-13754500Y-6325629D01*
X-13754500Y-6067144D01*
X-13757740Y-6055055D01*
X-13757742Y-6055050D01*
X-13768607Y-6014500D01*
X-13776682Y-5984361D01*
X-13776682Y-5984359D01*
X-13776684Y-5984355D01*
X-13815661Y-5916846D01*
X-13828383Y-5856998D01*
X-13803496Y-5801102D01*
X-13779426Y-5781611D01*
X-13753435Y-5766605D01*
X-13655595Y-5668765D01*
X-13586412Y-5548936D01*
X-13586411Y-5548935D01*
X-13586410Y-5548932D01*
X-13574257Y-5503576D01*
X-13540933Y-5452262D01*
X-13483811Y-5430336D01*
X-13478631Y-5430200D01*
X-11115949Y-5430200D01*
X-11115947Y-5430200D01*
X-11033161Y-5408018D01*
X-11033158Y-5408016D01*
X-11033156Y-5408016D01*
X-10958942Y-5365168D01*
X-10958941Y-5365167D01*
X-10958940Y-5365166D01*
X-10958938Y-5365165D01*
X-9181069Y-3587296D01*
X-9126552Y-3559519D01*
X-9111065Y-3558300D01*
X-9054449Y-3558300D01*
X-9054447Y-3558300D01*
X-8971661Y-3536118D01*
X-8971658Y-3536116D01*
X-8971656Y-3536116D01*
X-8897442Y-3493268D01*
X-8897440Y-3493266D01*
X-8897438Y-3493265D01*
X-8243235Y-2839062D01*
X-8243233Y-2839059D01*
X-8243231Y-2839057D01*
X-8200383Y-2764843D01*
X-8195391Y-2746211D01*
X-8178200Y-2682053D01*
X-8178200Y-2596347D01*
X-8178200Y701693D01*
X-8159293Y759884D01*
X-8109793Y795848D01*
X-8063713Y799474D01*
X-8000738Y789500D01*
X-8000735Y789500D01*
X-7599262Y789500D01*
X-7507825Y803983D01*
X-7507821Y803984D01*
X-7397610Y860140D01*
X-7310140Y947610D01*
X-7253983Y1057823D01*
X-7239500Y1149263D01*
X-7239500Y1490737D01*
X-7253983Y1582174D01*
X-7253984Y1582178D01*
X-7310140Y1692389D01*
X-7310141Y1692391D01*
X-7348101Y1730351D01*
X-7375877Y1784866D01*
X-7366306Y1845298D01*
X-7348101Y1870355D01*
X-7310552Y1907905D01*
X-7310548Y1907911D01*
X-7254466Y2017977D01*
X-7254465Y2017978D01*
X-7240000Y2109307D01*
X-7240000Y2129999D01*
X-7240001Y2130000D01*
X-7701000Y2130000D01*
X-7759191Y2148907D01*
X-7795155Y2198407D01*
X-7800000Y2229000D01*
X-7800000Y2331000D01*
X-7781093Y2389191D01*
X-7731593Y2425155D01*
X-7701000Y2430000D01*
X-7240002Y2430000D01*
X-7240001Y2430001D01*
X-7240001Y2450693D01*
X-7240000Y2450693D01*
X-7254463Y2542015D01*
X-7254465Y2542022D01*
X-7310548Y2652088D01*
X-7310549Y2652090D01*
X-7387641Y2729182D01*
X-7415418Y2783699D01*
X-7405847Y2844131D01*
X-7387643Y2869186D01*
X-7329495Y2927335D01*
X-7260312Y3047164D01*
X-7224500Y3180817D01*
X-7224500Y3319183D01*
X-7260312Y3452836D01*
X-7329495Y3572665D01*
X-7427335Y3670505D01*
X-7547164Y3739688D01*
X-7680817Y3775500D01*
X-7819183Y3775500D01*
X-7952836Y3739688D01*
X-8072665Y3670505D01*
X-8170505Y3572665D01*
X-8234338Y3462101D01*
X-8279805Y3421162D01*
X-8289557Y3417424D01*
X-8377543Y3388934D01*
X-8438728Y3388995D01*
X-8451511Y3394174D01*
X-8503482Y3419582D01*
X-8578418Y3430500D01*
X-8578421Y3430500D01*
X-8910100Y3430500D01*
X-8968291Y3449407D01*
X-9004255Y3498907D01*
X-9009100Y3529500D01*
X-9009100Y4289999D01*
X-7630000Y4289999D01*
X-7630000Y4236213D01*
X-7615256Y4143134D01*
X-7558094Y4030945D01*
X-7469054Y3941905D01*
X-7356865Y3884743D01*
X-7263787Y3870000D01*
X-7235001Y3870000D01*
X-7235000Y3870001D01*
X-7235000Y4289999D01*
X-7235001Y4290000D01*
X-7629999Y4290000D01*
X-7630000Y4289999D01*
X-9009100Y4289999D01*
X-9009100Y4643786D01*
X-7630000Y4643786D01*
X-7630000Y4590001D01*
X-7629999Y4590000D01*
X-7235001Y4590000D01*
X-7235000Y4590001D01*
X-7235000Y5009999D01*
X-7235001Y5010000D01*
X-7263787Y5010000D01*
X-7356865Y4995256D01*
X-7469054Y4938094D01*
X-7558094Y4849054D01*
X-7615256Y4736865D01*
X-7630000Y4643786D01*
X-9009100Y4643786D01*
X-9009100Y4843264D01*
X-8990193Y4901455D01*
X-8980104Y4913268D01*
X-8093372Y5799999D01*
X-7650000Y5799999D01*
X-7650000Y5725377D01*
X-7649999Y5725375D01*
X-7635493Y5652453D01*
X-7635492Y5652451D01*
X-7580241Y5569762D01*
X-7580237Y5569758D01*
X-7497548Y5514507D01*
X-7497546Y5514506D01*
X-7424624Y5500000D01*
X-7250001Y5500000D01*
X-7250000Y5500001D01*
X-7250000Y5799999D01*
X-7250001Y5800000D01*
X-7649999Y5800000D01*
X-7650000Y5799999D01*
X-8093372Y5799999D01*
X-7982360Y5911011D01*
X-7791689Y6101682D01*
X-7737172Y6129459D01*
X-7676740Y6119888D01*
G37*
%TD.AperFunction*%
%TA.AperFunction,Conductor*%
G36*
X-12021092Y-2926102D02*
G01*
X-12020283Y-2924513D01*
X-12013342Y-2928049D01*
X-12013342Y-2928050D01*
X-11900304Y-2985646D01*
X-11806519Y-3000500D01*
X-11525899Y-3000499D01*
X-11467710Y-3019406D01*
X-11431746Y-3068906D01*
X-11426900Y-3099499D01*
X-11426900Y-3545065D01*
X-11445807Y-3603256D01*
X-11455896Y-3615069D01*
X-11755996Y-3915169D01*
X-11810513Y-3942946D01*
X-11870945Y-3933375D01*
X-11914210Y-3890110D01*
X-11925000Y-3845167D01*
X-11925000Y-3804569D01*
X-11925001Y-3804562D01*
X-11931081Y-3747994D01*
X-11931082Y-3747992D01*
X-11978814Y-3620015D01*
X-12060668Y-3510671D01*
X-12060670Y-3510669D01*
X-12135636Y-3454551D01*
X-12170889Y-3404542D01*
X-12171934Y-3349674D01*
X-12161998Y-3312593D01*
X-12144900Y-3248783D01*
X-12144900Y-3110417D01*
X-12165022Y-3035316D01*
X-12161820Y-2974215D01*
X-12123315Y-2926665D01*
X-12064214Y-2910830D01*
X-12021092Y-2926102D01*
G37*
%TD.AperFunction*%
%TA.AperFunction,Conductor*%
G36*
X-12534858Y-905669D02*
G01*
X-11710026Y-1730500D01*
X-11682252Y-1785013D01*
X-11691823Y-1845445D01*
X-11735088Y-1888710D01*
X-11780030Y-1899500D01*
X-11806519Y-1899500D01*
X-11806523Y-1899501D01*
X-11900299Y-1914352D01*
X-11900304Y-1914354D01*
X-12013342Y-1971950D01*
X-12103050Y-2061658D01*
X-12160646Y-2174696D01*
X-12175500Y-2268481D01*
X-12175499Y-2631518D01*
X-12168595Y-2675112D01*
X-12166742Y-2686813D01*
X-12176314Y-2747245D01*
X-12219578Y-2790509D01*
X-12280011Y-2800080D01*
X-12334525Y-2772305D01*
X-12347734Y-2759096D01*
X-12347735Y-2759095D01*
X-12467564Y-2689912D01*
X-12551124Y-2667522D01*
X-12602437Y-2634199D01*
X-12624364Y-2577077D01*
X-12624500Y-2571896D01*
X-12624500Y-2268479D01*
X-12624501Y-2268476D01*
X-12639352Y-2174700D01*
X-12639354Y-2174695D01*
X-12696950Y-2061658D01*
X-12696952Y-2061654D01*
X-12713960Y-2044646D01*
X-12741735Y-1990129D01*
X-12732161Y-1929697D01*
X-12713957Y-1904642D01*
X-12697358Y-1888043D01*
X-12639836Y-1775151D01*
X-12639835Y-1775147D01*
X-12625000Y-1681484D01*
X-12625000Y-1650001D01*
X-12625001Y-1650000D01*
X-13438500Y-1650000D01*
X-13496691Y-1631093D01*
X-13532655Y-1581593D01*
X-13537500Y-1551000D01*
X-13537500Y-1449000D01*
X-13518593Y-1390809D01*
X-13469093Y-1354845D01*
X-13438500Y-1350000D01*
X-12625002Y-1350000D01*
X-12625001Y-1349999D01*
X-12625001Y-1318514D01*
X-12639833Y-1224858D01*
X-12639836Y-1224848D01*
X-12697359Y-1111955D01*
X-12697361Y-1111952D01*
X-12713958Y-1095355D01*
X-12741734Y-1040838D01*
X-12732162Y-980406D01*
X-12713958Y-955351D01*
X-12696951Y-938343D01*
X-12696949Y-938340D01*
X-12693071Y-930729D01*
X-12649807Y-887464D01*
X-12589375Y-877892D01*
X-12534858Y-905669D01*
G37*
%TD.AperFunction*%
%TA.AperFunction,Conductor*%
G36*
X-12253309Y1531093D02*
G01*
X-12217345Y1481593D01*
X-12212500Y1451000D01*
X-12212500Y1125001D01*
X-12212499Y1125000D01*
X-11897959Y1125000D01*
X-11897948Y1125001D01*
X-11848803Y1131470D01*
X-11848798Y1131471D01*
X-11740934Y1181770D01*
X-11656770Y1265934D01*
X-11606471Y1373800D01*
X-11600000Y1422951D01*
X-11599883Y1424742D01*
X-11599706Y1425184D01*
X-11599577Y1426168D01*
X-11599327Y1426135D01*
X-11577206Y1481570D01*
X-11525457Y1514216D01*
X-11464403Y1510209D01*
X-11431091Y1488264D01*
X-9483046Y-459780D01*
X-9464117Y-486292D01*
X-9434826Y-546211D01*
X-9346211Y-634826D01*
X-9233625Y-689866D01*
X-9160636Y-700500D01*
X-9160632Y-700500D01*
X-8928200Y-700500D01*
X-8870009Y-719407D01*
X-8834045Y-768907D01*
X-8829200Y-799500D01*
X-8829200Y-1800500D01*
X-8848107Y-1858691D01*
X-8897607Y-1894655D01*
X-8928200Y-1899500D01*
X-8999165Y-1899500D01*
X-9057356Y-1880593D01*
X-9069169Y-1870504D01*
X-9700142Y-1239531D01*
X-9774357Y-1196683D01*
X-9774355Y-1196683D01*
X-9818350Y-1184895D01*
X-9857147Y-1174500D01*
X-9857149Y-1174500D01*
X-10419101Y-1174500D01*
X-10477292Y-1155593D01*
X-10513256Y-1106093D01*
X-10513256Y-1044907D01*
X-10489106Y-1005498D01*
X-10421950Y-938342D01*
X-10364354Y-825304D01*
X-10360267Y-799500D01*
X-10349500Y-731522D01*
X-10349500Y-368479D01*
X-10349501Y-368476D01*
X-10364352Y-274700D01*
X-10364354Y-274695D01*
X-10421949Y-161659D01*
X-10511659Y-71949D01*
X-10624695Y-14354D01*
X-10624694Y-14354D01*
X-10668722Y-7381D01*
X-10718481Y500D01*
X-11311664Y499D01*
X-11369855Y19406D01*
X-11381667Y29495D01*
X-11611537Y259364D01*
X-11611542Y259368D01*
X-11685757Y302216D01*
X-11685755Y302216D01*
X-11685759Y302217D01*
X-11685761Y302218D01*
X-11768547Y324400D01*
X-11768549Y324400D01*
X-13685723Y324400D01*
X-13743914Y343307D01*
X-13779878Y392807D01*
X-13779878Y453993D01*
X-13755728Y493401D01*
X-13669995Y579135D01*
X-13600812Y698964D01*
X-13565000Y832617D01*
X-13565000Y970983D01*
X-13577018Y1015838D01*
X-13573816Y1076939D01*
X-13535311Y1124488D01*
X-13523232Y1131184D01*
X-13415643Y1181354D01*
X-13331354Y1265643D01*
X-13289448Y1355511D01*
X-13247720Y1400259D01*
X-13187658Y1411933D01*
X-13132206Y1386075D01*
X-13110000Y1355511D01*
X-13068229Y1265934D01*
X-12984065Y1181770D01*
X-12876198Y1131471D01*
X-12876200Y1131471D01*
X-12827045Y1125000D01*
X-12512501Y1125000D01*
X-12512500Y1125001D01*
X-12512500Y1451000D01*
X-12493593Y1509191D01*
X-12444093Y1545155D01*
X-12413500Y1550000D01*
X-12311500Y1550000D01*
X-12253309Y1531093D01*
G37*
%TD.AperFunction*%
%TA.AperFunction,Conductor*%
G36*
X-9980409Y5617293D02*
G01*
X-9944445Y5567793D01*
X-9939600Y5537200D01*
X-9939600Y3324237D01*
X-9958507Y3266046D01*
X-10008007Y3230082D01*
X-10052876Y3226272D01*
X-10078458Y3229999D01*
X-10149999Y3229998D01*
X-10150000Y3229998D01*
X-10150000Y2809000D01*
X-10168907Y2750809D01*
X-10218407Y2714845D01*
X-10249000Y2710000D01*
X-10351000Y2710000D01*
X-10409191Y2728907D01*
X-10445155Y2778407D01*
X-10450000Y2809000D01*
X-10450000Y3229998D01*
X-10463670Y3243668D01*
X-10479791Y3248906D01*
X-10515755Y3298406D01*
X-10520600Y3328999D01*
X-10520600Y5155566D01*
X-10501693Y5213757D01*
X-10491604Y5225569D01*
X-10109971Y5607203D01*
X-10055454Y5634981D01*
X-10039967Y5636200D01*
X-10038600Y5636200D01*
X-9980409Y5617293D01*
G37*
%TD.AperFunction*%
%TA.AperFunction,Conductor*%
G36*
X-11750809Y8205593D02*
G01*
X-11714845Y8156093D01*
X-11714610Y8154611D01*
X-11709999Y8150000D01*
X-11330001Y8150000D01*
X-11318207Y8161793D01*
X-11311093Y8183691D01*
X-11261593Y8219655D01*
X-11231000Y8224500D01*
X-11129000Y8224500D01*
X-11070809Y8205593D01*
X-11034845Y8156093D01*
X-11030000Y8125500D01*
X-11030000Y6999000D01*
X-11048907Y6940809D01*
X-11098407Y6904845D01*
X-11129000Y6900000D01*
X-11179999Y6900000D01*
X-11180000Y6899999D01*
X-11180000Y6849000D01*
X-11198907Y6790809D01*
X-11248407Y6754845D01*
X-11279000Y6750000D01*
X-11709998Y6750000D01*
X-11709999Y6749999D01*
X-11709999Y6726000D01*
X-11728906Y6667809D01*
X-11778406Y6631845D01*
X-11808999Y6627000D01*
X-12066665Y6627000D01*
X-12124856Y6645907D01*
X-12136669Y6655996D01*
X-12245504Y6764831D01*
X-12273281Y6819348D01*
X-12274500Y6834835D01*
X-12274500Y7100692D01*
X-11710000Y7100692D01*
X-11710000Y7050001D01*
X-11709999Y7050000D01*
X-11330001Y7050000D01*
X-11330000Y7050001D01*
X-11330000Y7849999D01*
X-11330001Y7850000D01*
X-11709998Y7850000D01*
X-11709999Y7849999D01*
X-11709999Y7799306D01*
X-11695536Y7707984D01*
X-11695534Y7707977D01*
X-11639451Y7597911D01*
X-11639450Y7597909D01*
X-11561545Y7520004D01*
X-11533768Y7465487D01*
X-11543339Y7405055D01*
X-11561545Y7379996D01*
X-11639450Y7302090D01*
X-11639451Y7302088D01*
X-11695533Y7192022D01*
X-11695534Y7192021D01*
X-11710000Y7100692D01*
X-12274500Y7100692D01*
X-12274500Y8125500D01*
X-12255593Y8183691D01*
X-12206093Y8219655D01*
X-12175500Y8224500D01*
X-11809000Y8224500D01*
X-11750809Y8205593D01*
G37*
%TD.AperFunction*%
%TA.AperFunction,Conductor*%
G36*
X-7670772Y14132436D02*
G01*
X-7650526Y14074697D01*
X-7650500Y14072411D01*
X-7650500Y13725326D01*
X-7635966Y13652260D01*
X-7635964Y13652257D01*
X-7635964Y13652256D01*
X-7630887Y13644658D01*
X-7604388Y13605000D01*
X-7587780Y13546114D01*
X-7604388Y13495000D01*
X-7635966Y13447740D01*
X-7650500Y13374674D01*
X-7650500Y12925326D01*
X-7635966Y12852260D01*
X-7635964Y12852257D01*
X-7604389Y12805001D01*
X-7587781Y12746113D01*
X-7604389Y12695000D01*
X-7616019Y12677592D01*
X-7635966Y12647740D01*
X-7635967Y12647731D01*
X-7638676Y12641195D01*
X-7678410Y12594667D01*
X-7714498Y12581320D01*
X-8881165Y12394653D01*
X-8938644Y12402685D01*
X-8973670Y12419019D01*
X-9022897Y12425500D01*
X-9552102Y12425499D01*
X-9601330Y12419019D01*
X-9709359Y12368644D01*
X-9793644Y12284359D01*
X-9844019Y12176330D01*
X-9850500Y12127103D01*
X-9850499Y11872898D01*
X-9844019Y11823670D01*
X-9829175Y11791839D01*
X-9821717Y11731112D01*
X-9829173Y11708164D01*
X-9844019Y11676330D01*
X-9844899Y11669643D01*
X-9871239Y11614418D01*
X-9925009Y11585222D01*
X-9968674Y11586937D01*
X-10034217Y11604500D01*
X-10172583Y11604500D01*
X-10306236Y11568688D01*
X-10426065Y11499505D01*
X-10523905Y11401665D01*
X-10593088Y11281836D01*
X-10628900Y11148183D01*
X-10628900Y11148181D01*
X-10628900Y11009816D01*
X-10627720Y11005414D01*
X-10630919Y10944313D01*
X-10669421Y10896761D01*
X-10728521Y10880921D01*
X-10765187Y10890063D01*
X-10773668Y10894018D01*
X-10773670Y10894019D01*
X-10822897Y10900500D01*
X-11077102Y10900499D01*
X-11126330Y10894019D01*
X-11164382Y10876275D01*
X-11167860Y10874653D01*
X-11228589Y10867196D01*
X-11282103Y10896858D01*
X-11307962Y10952311D01*
X-11308700Y10964377D01*
X-11308700Y11475500D01*
X-11289793Y11533691D01*
X-11240293Y11569655D01*
X-11209700Y11574500D01*
X-10847902Y11574500D01*
X-10847890Y11574501D01*
X-10798670Y11580980D01*
X-10690643Y11631354D01*
X-10606354Y11715643D01*
X-10555983Y11823664D01*
X-10555981Y11823671D01*
X-10555147Y11830001D01*
X-10549500Y11872897D01*
X-10549500Y11961462D01*
X-10549500Y12127099D01*
X-10549501Y12127107D01*
X-10555980Y12176329D01*
X-10564152Y12193853D01*
X-10571609Y12254582D01*
X-10564153Y12277531D01*
X-10530982Y12348667D01*
X-10530981Y12348671D01*
X-10528351Y12368643D01*
X-10524500Y12397897D01*
X-10524500Y12647743D01*
X-10524500Y12927097D01*
X-10524501Y12927109D01*
X-10530980Y12976328D01*
X-10575218Y13071196D01*
X-10582675Y13131926D01*
X-10553012Y13185440D01*
X-10518253Y13206459D01*
X-7782259Y14165834D01*
X-7721090Y14167247D01*
X-7670772Y14132436D01*
G37*
%TD.AperFunction*%
%TD*%
M02*
