M48
; DRILL file KiCad 10.0.6 date 2026-09-29T13:47:50
; FORMAT={-:-/ absolute / metric / decimal}
; #@! TF.CreationDate,2026-09-29T13:47:50+02:00
; #@! TF.GenerationSoftware,Kicad,Pcbnew,10.0.6
; #@! TF.FileFunction,MixedPlating,1,2
FMAT,2
METRIC
; #@! TA.AperFunction,Plated,PTH,ViaDrill
T1C0.300
; #@! TA.AperFunction,Plated,PTH,ComponentDrill
T2C0.850
; #@! TA.AperFunction,NonPlated,NPTH,ComponentDrill
T3C2.400
%
G90
G05
T1
X-16.95Y1.215
X-16.136Y2.981
X-15.991Y-3.541
X-14.351Y-6.041
X-13.579Y8.23
X-13.379Y10.13
X-13.302Y3.798
X-12.67Y-3.073
X-12.337Y-1.5
X-12.174Y-6.23
X-12.037Y12.429
X-11.959Y7.55
X-11.819Y0.833
X-11.63Y9.879
X-11.586Y-3.5
X-11.235Y2.905
X-11.2Y6.4
X-11.2Y4.8
X-10.887Y-7.14
X-10.3Y3.61
X-10.195Y0.898
X-10.139Y11.783
X-9.796Y-0.236
X-9.777Y4.205
X-8.825Y10.427
X-8.421Y-9.059
X-8.403Y-4.771
X-8.0Y12.8
X-8.0Y9.6
X-8.0Y6.4
X-8.0Y4.8
X-7.75Y3.25
X-7.316Y14.275
X-6.9Y2.28
X-6.4Y0.0
X-6.4Y-1.6
X-6.4Y-3.2
X-5.674Y5.565
X-5.429Y16.0
X-4.4Y14.35
X-4.085Y6.952
X-3.223Y7.781
X-3.152Y8.5
X-2.9Y13.0
X-2.75Y5.35
X1.208Y16.016
X2.275Y16.002
X2.5Y5.35
X2.95Y8.851
X2.981Y11.916
X3.122Y16.325
X3.35Y5.45
X4.95Y3.95
X6.45Y-3.475
X8.0Y-9.6
X10.339Y-1.4
T2
X13.196Y-4.827
X13.844Y-2.413
T3
X-15.505Y5.643
X-11.462Y-11.869
X9.2Y1.2
X9.464Y-13.516
M30
