M48
; DRILL file KiCad 10.0.6 date 2026-09-27T19:28:39
; FORMAT={-:-/ absolute / metric / decimal}
; #@! TF.CreationDate,2026-09-27T19:28:39+02:00
; #@! TF.GenerationSoftware,Kicad,Pcbnew,10.0.6
; #@! TF.FileFunction,MixedPlating,1,2
FMAT,2
METRIC
; #@! TA.AperFunction,Plated,PTH,ViaDrill
T1C0.300
; #@! TA.AperFunction,Plated,PTH,ComponentDrill
T2C0.850
; #@! TA.AperFunction,NonPlated,NPTH,ComponentDrill
T3C2.400
%
G90
G05
T1
X-16.0Y-3.2
X-15.015Y2.962
X-14.078Y-5.346
X-13.486Y3.561
X-13.379Y10.13
X-12.8Y4.8
X-12.337Y-1.5
X-12.08Y6.9
X-12.053Y12.483
X-12.049Y7.767
X-11.819Y0.833
X-11.63Y9.879
X-11.586Y-3.5
X-11.235Y2.905
X-11.2Y4.8
X-11.19Y-10.9
X-11.082Y1.69
X-10.3Y3.61
X-10.261Y11.783
X-10.092Y0.909
X-9.761Y13.542
X-9.219Y-10.367
X-8.794Y9.743
X-8.783Y13.267
X-8.486Y11.043
X-8.47Y12.356
X-8.403Y-4.771
X-7.978Y9.397
X-7.952Y5.559
X-7.908Y15.054
X-7.785Y3.3
X-6.4Y0.0
X-6.4Y-1.6
X-6.4Y-3.2
X-5.974Y4.458
X-5.91Y13.639
X-5.597Y15.054
X-4.376Y12.597
X-1.289Y9.736
X1.9Y5.25
X1.971Y16.11
X2.7Y5.25
X3.146Y16.082
X6.265Y0.921
X6.4Y-1.6
X6.4Y-3.2
X8.0Y-1.6
X8.0Y-3.2
X8.0Y-4.8
X8.0Y-6.4
X8.0Y-8.0
X8.0Y-9.6
X8.414Y3.5
X8.7Y0.4
T2
X13.196Y-4.827
X13.844Y-2.413
T3
X-15.505Y5.643
X9.464Y-13.516
X12.64Y10.606
M30
