%TF.GenerationSoftware,KiCad,Pcbnew,10.0.6*%
%TF.CreationDate,2026-09-29T13:47:49+02:00*%
%TF.ProjectId,shotpuck,73686f74-7075-4636-9b2e-6b696361645f,rev?*%
%TF.SameCoordinates,Original*%
%TF.FileFunction,Profile,NP*%
%FSLAX46Y46*%
G04 Gerber Fmt 4.6, Leading zero omitted, Abs format (unit mm)*
G04 Created by KiCad (PCBNEW 10.0.6) date 2026-09-29 13:47:49*
%MOMM*%
%LPD*%
G01*
G04 APERTURE LIST*
%TA.AperFunction,Profile*%
%ADD10C,0.100000*%
%TD*%
G04 APERTURE END LIST*
D10*
X-18000000Y0D02*
X-17978318Y883218D01*
X-17978318Y883218D02*
X-17913325Y1764308D01*
X-17978318Y-883218D02*
X-18000000Y0D01*
X-17913325Y1764308D02*
X-17805177Y2641148D01*
X-17913325Y-1764308D02*
X-17978318Y-883218D01*
X-17805177Y2641148D02*
X-17654135Y3511625D01*
X-17805177Y-2641148D02*
X-17913325Y-1764308D01*
X-17654135Y3511625D02*
X-17460562Y4373643D01*
X-17654135Y-3511625D02*
X-17805177Y-2641148D01*
X-17460562Y4373643D02*
X-17224926Y5225124D01*
X-17460562Y-4373643D02*
X-17654135Y-3511625D01*
X-17224926Y5225124D02*
X-16947793Y6064017D01*
X-17224926Y-5225124D02*
X-17460562Y-4373643D01*
X-16947793Y6064017D02*
X-16629831Y6888301D01*
X-16947793Y-6064017D02*
X-17224926Y-5225124D01*
X-16629831Y6888301D02*
X-16271807Y7695991D01*
X-16629831Y-6888301D02*
X-16947793Y-6064017D01*
X-16271807Y7695991D02*
X-15874582Y8485141D01*
X-16271807Y-7695991D02*
X-16629831Y-6888301D01*
X-15874582Y8485141D02*
X-15439114Y9253849D01*
X-15874582Y-8485141D02*
X-16271807Y-7695991D01*
X-15439114Y9253849D02*
X-14966453Y10000264D01*
X-15439114Y-9253849D02*
X-15874582Y-8485141D01*
X-14966453Y10000264D02*
X-14457735Y10722587D01*
X-14966453Y-10000264D02*
X-15439114Y-9253849D01*
X-14457735Y10722587D02*
X-13914188Y11419079D01*
X-14457735Y-10722587D02*
X-14966453Y-10000264D01*
X-13914188Y11419079D02*
X-13337120Y12088061D01*
X-13914188Y-11419079D02*
X-14457735Y-10722587D01*
X-13337120Y12088061D02*
X-12727922Y12727922D01*
X-13337120Y-12088061D02*
X-13914188Y-11419079D01*
X-12727922Y12727922D02*
X-12088061Y13337120D01*
X-12727922Y-12727922D02*
X-13337120Y-12088061D01*
X-12088061Y13337120D02*
X-11419079Y13914188D01*
X-12088061Y-13337120D02*
X-12727922Y-12727922D01*
X-11419079Y13914188D02*
X-10722587Y14457735D01*
X-11419079Y-13914188D02*
X-12088061Y-13337120D01*
X-10722587Y14457735D02*
X-10000264Y14966453D01*
X-10722587Y-14457735D02*
X-11419079Y-13914188D01*
X-10000264Y14966453D02*
X-9253849Y15439114D01*
X-10000264Y-14966453D02*
X-10722587Y-14457735D01*
X-9253849Y15439114D02*
X-8485141Y15874582D01*
X-9253849Y-15439114D02*
X-10000264Y-14966453D01*
X-8485141Y15874582D02*
X-7695991Y16271807D01*
X-8485141Y-15874582D02*
X-9253849Y-15439114D01*
X-7695991Y16271807D02*
X-6888301Y16629831D01*
X-7695991Y-16271807D02*
X-8485141Y-15874582D01*
X-6888301Y16629831D02*
X-6064017Y16947793D01*
X-6888301Y-16629831D02*
X-7695991Y-16271807D01*
X-6500000Y-11750000D02*
X-6500000Y-16779616D01*
X-6500000Y-16779616D02*
X-6888301Y-16629831D01*
X-6492170Y-11431060D02*
X-6500000Y-11750000D01*
X-6468700Y-11112888D02*
X-6492170Y-11431060D01*
X-6429647Y-10796251D02*
X-6468700Y-11112888D01*
X-6375104Y-10481912D02*
X-6429647Y-10796251D01*
X-6305203Y-10170628D02*
X-6375104Y-10481912D01*
X-6220112Y-9863149D02*
X-6305203Y-10170628D01*
X-6120036Y-9560215D02*
X-6220112Y-9863149D01*
X-6064017Y16947793D02*
X-5225124Y17224926D01*
X-6005216Y-9262557D02*
X-6120036Y-9560215D01*
X-5875930Y-8970891D02*
X-6005216Y-9262557D01*
X-5732488Y-8685921D02*
X-5875930Y-8970891D01*
X-5575235Y-8408332D02*
X-5732488Y-8685921D01*
X-5404552Y-8138793D02*
X-5575235Y-8408332D01*
X-5225124Y17224926D02*
X-4373643Y17460562D01*
X-5220848Y-7877954D02*
X-5404552Y-8138793D01*
X-5200000Y0D02*
X-5200000Y-7851239D01*
X-5200000Y-7851239D02*
X-5220848Y-7877954D01*
X-5193736Y255151D02*
X-5200000Y0D01*
X-5174960Y509689D02*
X-5193736Y255151D01*
X-5143717Y762998D02*
X-5174960Y509689D01*
X-5100083Y1014469D02*
X-5143717Y762998D01*
X-5044162Y1263496D02*
X-5100083Y1014469D01*
X-4976089Y1509480D02*
X-5044162Y1263496D01*
X-4896029Y1751827D02*
X-4976089Y1509480D01*
X-4804173Y1989953D02*
X-4896029Y1751827D01*
X-4700744Y2223286D02*
X-4804173Y1989953D01*
X-4585990Y2451263D02*
X-4700744Y2223286D01*
X-4460188Y2673334D02*
X-4585990Y2451263D01*
X-4373643Y17460562D02*
X-3511625Y17654135D01*
X-4323641Y2888965D02*
X-4460188Y2673334D01*
X-4176679Y3097636D02*
X-4323641Y2888965D01*
X-4019654Y3298845D02*
X-4176679Y3097636D01*
X-3852945Y3492106D02*
X-4019654Y3298845D01*
X-3676955Y3676955D02*
X-3852945Y3492106D01*
X-3511625Y17654135D02*
X-2641148Y17805177D01*
X-3492106Y3852945D02*
X-3676955Y3676955D01*
X-3298845Y4019654D02*
X-3492106Y3852945D01*
X-3097636Y4176679D02*
X-3298845Y4019654D01*
X-2888965Y4323641D02*
X-3097636Y4176679D01*
X-2673334Y4460188D02*
X-2888965Y4323641D01*
X-2641148Y17805177D02*
X-1764308Y17913325D01*
X-2451263Y4585990D02*
X-2673334Y4460188D01*
X-2223286Y4700744D02*
X-2451263Y4585990D01*
X-1989953Y4804173D02*
X-2223286Y4700744D01*
X-1764308Y17913325D02*
X-883218Y17978318D01*
X-1751827Y4896029D02*
X-1989953Y4804173D01*
X-1509480Y4976089D02*
X-1751827Y4896029D01*
X-1263496Y5044162D02*
X-1509480Y4976089D01*
X-1014469Y5100083D02*
X-1263496Y5044162D01*
X-883218Y17978318D02*
X0Y18000000D01*
X-762998Y5143717D02*
X-1014469Y5100083D01*
X-509689Y5174960D02*
X-762998Y5143717D01*
X-255151Y5193736D02*
X-509689Y5174960D01*
X0Y18000000D02*
X883218Y17978318D01*
X0Y5200000D02*
X-255151Y5193736D01*
X255151Y5193736D02*
X0Y5200000D01*
X509689Y5174960D02*
X255151Y5193736D01*
X762998Y5143717D02*
X509689Y5174960D01*
X883218Y17978318D02*
X1764308Y17913325D01*
X1014469Y5100083D02*
X762998Y5143717D01*
X1263496Y5044162D02*
X1014469Y5100083D01*
X1509480Y4976089D02*
X1263496Y5044162D01*
X1751827Y4896029D02*
X1509480Y4976089D01*
X1764308Y17913325D02*
X2641148Y17805177D01*
X1989953Y4804173D02*
X1751827Y4896029D01*
X2223286Y4700744D02*
X1989953Y4804173D01*
X2451263Y4585990D02*
X2223286Y4700744D01*
X2641148Y17805177D02*
X3511625Y17654135D01*
X2673334Y4460188D02*
X2451263Y4585990D01*
X2888965Y4323641D02*
X2673334Y4460188D01*
X3097636Y4176679D02*
X2888965Y4323641D01*
X3298845Y4019654D02*
X3097636Y4176679D01*
X3492106Y3852945D02*
X3298845Y4019654D01*
X3511625Y17654135D02*
X4373643Y17460562D01*
X3676955Y3676955D02*
X3492106Y3852945D01*
X3852945Y3492106D02*
X3676955Y3676955D01*
X4019654Y3298845D02*
X3852945Y3492106D01*
X4176679Y3097636D02*
X4019654Y3298845D01*
X4323641Y2888965D02*
X4176679Y3097636D01*
X4373643Y17460562D02*
X5225124Y17224926D01*
X4460188Y2673334D02*
X4323641Y2888965D01*
X4585990Y2451263D02*
X4460188Y2673334D01*
X4700744Y2223286D02*
X4585990Y2451263D01*
X4804173Y1989953D02*
X4700744Y2223286D01*
X4896029Y1751827D02*
X4804173Y1989953D01*
X4976089Y1509480D02*
X4896029Y1751827D01*
X5044162Y1263496D02*
X4976089Y1509480D01*
X5100083Y1014469D02*
X5044162Y1263496D01*
X5143717Y762998D02*
X5100083Y1014469D01*
X5174960Y509689D02*
X5143717Y762998D01*
X5193736Y255151D02*
X5174960Y509689D01*
X5200000Y0D02*
X5193736Y255151D01*
X5200000Y-7851239D02*
X5200000Y0D01*
X5220848Y-7877954D02*
X5200000Y-7851239D01*
X5225124Y17224926D02*
X6064017Y16947793D01*
X5404552Y-8138793D02*
X5220848Y-7877954D01*
X5575235Y-8408332D02*
X5404552Y-8138793D01*
X5732488Y-8685921D02*
X5575235Y-8408332D01*
X5875930Y-8970891D02*
X5732488Y-8685921D01*
X6005216Y-9262557D02*
X5875930Y-8970891D01*
X6064017Y16947793D02*
X6888301Y16629831D01*
X6120036Y-9560215D02*
X6005216Y-9262557D01*
X6220112Y-9863149D02*
X6120036Y-9560215D01*
X6305203Y-10170628D02*
X6220112Y-9863149D01*
X6375104Y-10481912D02*
X6305203Y-10170628D01*
X6429647Y-10796251D02*
X6375104Y-10481912D01*
X6468700Y-11112888D02*
X6429647Y-10796251D01*
X6492170Y-11431060D02*
X6468700Y-11112888D01*
X6500000Y-11750000D02*
X6492170Y-11431060D01*
X6500000Y-16779616D02*
X6500000Y-11750000D01*
X6888301Y16629831D02*
X7695991Y16271807D01*
X6888301Y-16629831D02*
X6500000Y-16779616D01*
X7695991Y16271807D02*
X8485141Y15874582D01*
X7695991Y-16271807D02*
X6888301Y-16629831D01*
X8485141Y15874582D02*
X9253849Y15439114D01*
X8485141Y-15874582D02*
X7695991Y-16271807D01*
X9253849Y15439114D02*
X10000264Y14966453D01*
X9253849Y-15439114D02*
X8485141Y-15874582D01*
X10000264Y14966453D02*
X10722587Y14457735D01*
X10000264Y-14966453D02*
X9253849Y-15439114D01*
X10722587Y14457735D02*
X11419079Y13914188D01*
X10722587Y-14457735D02*
X10000264Y-14966453D01*
X11419079Y13914188D02*
X12088061Y13337120D01*
X11419079Y-13914188D02*
X10722587Y-14457735D01*
X12088061Y13337120D02*
X12727922Y12727922D01*
X12088061Y-13337120D02*
X11419079Y-13914188D01*
X12727922Y12727922D02*
X13337120Y12088061D01*
X12727922Y-12727922D02*
X12088061Y-13337120D01*
X13337120Y12088061D02*
X13914188Y11419079D01*
X13337120Y-12088061D02*
X12727922Y-12727922D01*
X13914188Y11419079D02*
X14457735Y10722587D01*
X13914188Y-11419079D02*
X13337120Y-12088061D01*
X14457735Y10722587D02*
X14966453Y10000264D01*
X14457735Y-10722587D02*
X13914188Y-11419079D01*
X14966453Y10000264D02*
X15439114Y9253849D01*
X14966453Y-10000264D02*
X14457735Y-10722587D01*
X15439114Y9253849D02*
X15874582Y8485141D01*
X15439114Y-9253849D02*
X14966453Y-10000264D01*
X15874582Y8485141D02*
X16271807Y7695991D01*
X15874582Y-8485141D02*
X15439114Y-9253849D01*
X16271807Y7695991D02*
X16629831Y6888301D01*
X16271807Y-7695991D02*
X15874582Y-8485141D01*
X16629831Y6888301D02*
X16947793Y6064017D01*
X16629831Y-6888301D02*
X16271807Y-7695991D01*
X16947793Y6064017D02*
X17224926Y5225124D01*
X16947793Y-6064017D02*
X16629831Y-6888301D01*
X17224926Y5225124D02*
X17460562Y4373643D01*
X17224926Y-5225124D02*
X16947793Y-6064017D01*
X17460562Y4373643D02*
X17654135Y3511625D01*
X17460562Y-4373643D02*
X17224926Y-5225124D01*
X17654135Y3511625D02*
X17805177Y2641148D01*
X17654135Y-3511625D02*
X17460562Y-4373643D01*
X17805177Y2641148D02*
X17913325Y1764308D01*
X17805177Y-2641148D02*
X17654135Y-3511625D01*
X17913325Y1764308D02*
X17978318Y883218D01*
X17913325Y-1764308D02*
X17805177Y-2641148D01*
X17978318Y883218D02*
X18000000Y0D01*
X17978318Y-883218D02*
X17913325Y-1764308D01*
X18000000Y0D02*
X17978318Y-883218D01*
M02*
