%TF.GenerationSoftware,KiCad,Pcbnew,10.0.6*%
%TF.CreationDate,2026-09-27T19:28:38+02:00*%
%TF.ProjectId,shotpuck,73686f74-7075-4636-9b2e-6b696361645f,rev?*%
%TF.SameCoordinates,Original*%
%TF.FileFunction,Copper,L2,Bot*%
%TF.FilePolarity,Positive*%
%FSLAX46Y46*%
G04 Gerber Fmt 4.6, Leading zero omitted, Abs format (unit mm)*
G04 Created by KiCad (PCBNEW 10.0.6) date 2026-09-27 19:28:38*
%MOMM*%
%LPD*%
G01*
G04 APERTURE LIST*
G04 Aperture macros list*
%AMRotRect*
0 Rectangle, with rotation*
0 The origin of the aperture is its center*
0 $1 length*
0 $2 width*
0 $3 Rotation angle, in degrees counterclockwise*
0 Add horizontal line*
21,1,$1,$2,0,0,$3*%
G04 Aperture macros list end*
%TA.AperFunction,EtchedComponent*%
%ADD10C,0.000000*%
%TD*%
%TA.AperFunction,ComponentPad*%
%ADD11RotRect,1.300000X1.300000X75.000000*%
%TD*%
%TA.AperFunction,ComponentPad*%
%ADD12C,1.300000*%
%TD*%
%TA.AperFunction,SMDPad,CuDef*%
%ADD13C,1.000000*%
%TD*%
%TA.AperFunction,SMDPad,CuDef*%
%ADD14R,1.000000X1.500000*%
%TD*%
%TA.AperFunction,ViaPad*%
%ADD15C,0.550000*%
%TD*%
%TA.AperFunction,Conductor*%
%ADD16C,0.150000*%
%TD*%
G04 APERTURE END LIST*
D10*
%TA.AperFunction,EtchedComponent*%
%TO.C,JP1*%
G36*
X-9950000Y-5300000D02*
G01*
X-10450000Y-5300000D01*
X-10450000Y-4700000D01*
X-9950000Y-4700000D01*
X-9950000Y-5300000D01*
G37*
%TD.AperFunction*%
%TD*%
D11*
%TO.P,J1,1*%
%TO.N,VIN_RAW*%
X13196476Y-4827407D03*
D12*
%TO.P,J1,2*%
%TO.N,GND*%
X13843524Y-2412593D03*
%TD*%
D13*
%TO.P,J2,1*%
%TO.N,VDD*%
X2310000Y12600000D03*
%TO.P,J2,2*%
%TO.N,SWDIO*%
X-230000Y12600000D03*
%TO.P,J2,3*%
%TO.N,SWDCLK*%
X-2770000Y12600000D03*
%TO.P,J2,4*%
%TO.N,GND*%
X-5310000Y12600000D03*
%TD*%
D14*
%TO.P,JP1,1*%
%TO.N,BAT_P*%
X-9550000Y-5000000D03*
%TO.P,JP1,2*%
%TO.N,VBAT*%
X-10850000Y-5000000D03*
%TD*%
D15*
%TO.N,GND*%
X-6400000Y0D03*
X-11585769Y-3499999D03*
X-6400000Y-3200000D03*
X-9760777Y13542383D03*
X-13485688Y3560988D03*
X8414230Y3500000D03*
X6400000Y-3200000D03*
X-11818557Y832973D03*
X-5910000Y13639230D03*
X-11630000Y9879422D03*
X-8782974Y13266716D03*
X8000000Y-3200000D03*
X-12049333Y7767062D03*
X1971272Y16109788D03*
X-10300000Y3610000D03*
X-12800000Y4800000D03*
X-7785000Y3300000D03*
X-9218557Y-10367026D03*
X-13379422Y10130000D03*
X-7908049Y15053696D03*
X-11190000Y-10900000D03*
X-10260777Y11782616D03*
X8000000Y-4800000D03*
X-7951606Y5558851D03*
X-5597400Y15053700D03*
X8700000Y400000D03*
X-12337500Y-1500000D03*
X6400000Y-1600000D03*
X-12080000Y6900000D03*
X3145619Y16081935D03*
X-12052719Y12482794D03*
X-6400000Y-1600000D03*
X8000000Y-6400000D03*
X8000000Y-1600000D03*
X-16000000Y-3200000D03*
X8000000Y-8000000D03*
X8000000Y-9600000D03*
X-11200000Y4800000D03*
%TO.N,CHG_INH*%
X-4375600Y12596800D03*
X-11082000Y1690000D03*
%TO.N,PROG_SW*%
X-11235100Y2905000D03*
X-15014600Y2962000D03*
%TO.N,VIN*%
X6265100Y920800D03*
X-1288800Y9736500D03*
%TO.N,VDD*%
X-8794200Y9742600D03*
%TO.N,VBAT*%
X-14077700Y-5346100D03*
X-10091700Y909500D03*
%TO.N,ACC_INT1*%
X-8470500Y12356300D03*
X-8485900Y11042700D03*
%TO.N,CHG_STAT*%
X-5974400Y4457900D03*
X-7977700Y9397400D03*
%TO.N,SWDIO*%
X1900000Y5250000D03*
%TO.N,SWDCLK*%
X2700000Y5250000D03*
%TO.N,BAT_P*%
X-8403400Y-4771000D03*
%TD*%
%TO.N,GND*%
D16*
X-9485100Y12558300D02*
X-9485100Y13266700D01*
X-7951600Y3610000D02*
X-7951600Y3466600D01*
X3685100Y4239500D02*
X3685100Y12283800D01*
X-7921900Y-9070300D02*
X-9218600Y-10367000D01*
X-10260800Y11749800D02*
X-11880600Y10130000D01*
X-5910000Y13639200D02*
X-8410500Y13639200D01*
X-7951600Y3610000D02*
X-10300000Y3610000D01*
X4424600Y3500000D02*
X3685100Y4239500D01*
X-8410500Y13639200D02*
X-8783000Y13266700D01*
X915200Y15053700D02*
X-5597400Y15053700D01*
X-7951600Y3610000D02*
X-7951600Y5558900D01*
X-11880600Y10130000D02*
X-13379400Y10130000D01*
X-7921900Y-4509300D02*
X-7921900Y-9070300D01*
X-11630000Y9879400D02*
X-11880600Y10130000D01*
X-10260800Y11782600D02*
X-10260800Y11749800D01*
X-8931200Y-3500000D02*
X-7921900Y-4509300D01*
X-5597400Y15053700D02*
X-7908000Y15053700D01*
X-12337500Y-1500000D02*
X-11818600Y-981100D01*
X-11190000Y-10900000D02*
X-9751600Y-10900000D01*
X1971300Y16109800D02*
X915200Y15053700D01*
X-10260800Y11782600D02*
X-9485100Y12558300D01*
X-9760800Y13542400D02*
X-9485100Y13266700D01*
X-10738900Y5558900D02*
X-7951600Y5558900D01*
X-9751600Y-10900000D02*
X-9218600Y-10367000D01*
X-9485100Y13266700D02*
X-8783000Y13266700D01*
X-7951600Y3466600D02*
X-7785000Y3300000D01*
X-10300000Y3610000D02*
X-13436700Y3610000D01*
X-11585800Y-3500000D02*
X-8931200Y-3500000D01*
X3685100Y12283800D02*
X915200Y15053700D01*
X-12080000Y6900000D02*
X-10738900Y5558900D01*
X8414200Y3500000D02*
X4424600Y3500000D01*
X-13436700Y3610000D02*
X-13485700Y3561000D01*
X-11818600Y-981100D02*
X-11818600Y833000D01*
%TO.N,CHG_INH*%
X-9319600Y9916900D02*
X-9319600Y8689900D01*
X-9319600Y8689900D02*
X-7277700Y6648000D01*
X-4375600Y12461400D02*
X-6386000Y10451000D01*
X-4375600Y12596800D02*
X-4375600Y12461400D01*
X-6386000Y10451000D02*
X-8785500Y10451000D01*
X-8785500Y10451000D02*
X-9319600Y9916900D01*
X-7277700Y6648000D02*
X-7277700Y3063800D01*
X-7277700Y3063800D02*
X-8651500Y1690000D01*
X-8651500Y1690000D02*
X-11082000Y1690000D01*
%TO.N,PROG_SW*%
X-14957600Y2905000D02*
X-11235100Y2905000D01*
X-15014600Y2962000D02*
X-14957600Y2905000D01*
%TO.N,VIN*%
X3199000Y5450000D02*
X-1087500Y9736500D01*
X-1087500Y9736500D02*
X-1288800Y9736500D01*
X3199000Y3986900D02*
X3199000Y5450000D01*
X6265100Y920800D02*
X3199000Y3986900D01*
%TO.N,VDD*%
X-8660700Y9876100D02*
X-8794200Y9742600D01*
X1262500Y13647500D02*
X-3111800Y13647500D01*
X-3815200Y12944100D02*
X-3815200Y12426300D01*
X-6365400Y9876100D02*
X-8660700Y9876100D01*
X-3815200Y12426300D02*
X-6365400Y9876100D01*
X-3111800Y13647500D02*
X-3815200Y12944100D01*
X2310000Y12600000D02*
X1262500Y13647500D01*
%TO.N,VBAT*%
X-11899800Y-5346100D02*
X-14077700Y-5346100D01*
X-12068400Y-4485300D02*
X-12068400Y-2728200D01*
X-11553700Y-5000000D02*
X-11899800Y-5346100D01*
X-10850000Y-5000000D02*
X-11553700Y-5000000D01*
X-10091700Y-751500D02*
X-10091700Y909500D01*
X-12068400Y-2728200D02*
X-10091700Y-751500D01*
X-11553700Y-5000000D02*
X-12068400Y-4485300D01*
%TO.N,ACC_INT1*%
X-8470500Y11058100D02*
X-8470500Y12356300D01*
X-8485900Y11042700D02*
X-8470500Y11058100D01*
%TO.N,CHG_STAT*%
X-5974400Y7394100D02*
X-7977700Y9397400D01*
X-5974400Y4457900D02*
X-5974400Y7394100D01*
%TO.N,SWDIO*%
X-3520100Y12845000D02*
X-2996300Y13368800D01*
X-998800Y13368800D02*
X-230000Y12600000D01*
X1900000Y5250000D02*
X-3520100Y10670100D01*
X-2996300Y13368800D02*
X-998800Y13368800D01*
X-3520100Y10670100D02*
X-3520100Y12845000D01*
%TO.N,SWDCLK*%
X-1307800Y9257800D02*
X2700000Y5250000D01*
X-2770000Y10540700D02*
X-1487100Y9257800D01*
X-1487100Y9257800D02*
X-1307800Y9257800D01*
X-2770000Y12600000D02*
X-2770000Y10540700D01*
%TO.N,BAT_P*%
X-8403400Y-4771000D02*
X-8617300Y-4771000D01*
X-9550000Y-5000000D02*
X-8846300Y-5000000D01*
X-8617300Y-4771000D02*
X-8846300Y-5000000D01*
%TD*%
%TA.AperFunction,Conductor*%
%TO.N,GND*%
G36*
X866031Y17678148D02*
G01*
X870884Y17677910D01*
X1732436Y17614358D01*
X1737272Y17613881D01*
X2594638Y17508136D01*
X2599444Y17507423D01*
X3450599Y17359732D01*
X3455365Y17358784D01*
X4298231Y17169511D01*
X4302943Y17168331D01*
X4389372Y17144414D01*
X4440413Y17110672D01*
X4461872Y17053373D01*
X4445554Y16994404D01*
X4397691Y16956289D01*
X4362969Y16950000D01*
X3900000Y16950000D01*
X3900000Y4350000D01*
X17078653Y4350000D01*
X17136844Y4331093D01*
X17172808Y4281593D01*
X17175243Y4272708D01*
X17358785Y3455365D01*
X17359732Y3450599D01*
X17507423Y2599444D01*
X17508136Y2594638D01*
X17613881Y1737272D01*
X17614358Y1732436D01*
X17677910Y870884D01*
X17678148Y866031D01*
X17699349Y2430D01*
X17699349Y-2430D01*
X17678148Y-866031D01*
X17677910Y-870884D01*
X17614358Y-1732436D01*
X17613881Y-1737272D01*
X17508136Y-2594638D01*
X17507423Y-2599444D01*
X17359732Y-3450599D01*
X17358784Y-3455365D01*
X17169511Y-4298231D01*
X17168331Y-4302944D01*
X16937927Y-5135521D01*
X16936516Y-5140171D01*
X16665536Y-5960439D01*
X16663899Y-5965015D01*
X16353001Y-6770988D01*
X16351142Y-6775477D01*
X16001057Y-7565256D01*
X15998979Y-7569649D01*
X15610579Y-8341267D01*
X15608289Y-8345552D01*
X15182487Y-9097196D01*
X15179989Y-9101364D01*
X14717821Y-9831210D01*
X14715121Y-9835250D01*
X14217699Y-10541535D01*
X14214804Y-10545438D01*
X13683334Y-11226455D01*
X13680252Y-11230211D01*
X13115978Y-11884362D01*
X13112714Y-11887963D01*
X12517047Y-12513611D01*
X12513612Y-12517046D01*
X11887953Y-13112723D01*
X11884352Y-13115987D01*
X11778066Y-13207669D01*
X11721653Y-13231361D01*
X11662089Y-13217369D01*
X11622125Y-13171039D01*
X11615250Y-13145630D01*
X11589048Y-12946606D01*
X11369267Y-12416008D01*
X11019646Y-11960373D01*
X11019641Y-11960369D01*
X11019640Y-11960368D01*
X10825754Y-11811595D01*
X10564011Y-11610752D01*
X10561647Y-11609773D01*
X10109458Y-11422470D01*
X10033413Y-11390971D01*
X10033411Y-11390970D01*
X10033409Y-11390970D01*
X9464012Y-11316008D01*
X9464010Y-11316008D01*
X8894612Y-11390970D01*
X8894606Y-11390972D01*
X8364012Y-11610751D01*
X7908381Y-11960368D01*
X7908371Y-11960378D01*
X7558754Y-12416009D01*
X7338975Y-12946603D01*
X7338973Y-12946609D01*
X7304604Y-13207669D01*
X7264011Y-13516008D01*
X7338974Y-14085410D01*
X7558755Y-14616008D01*
X7908376Y-15071643D01*
X8364011Y-15421264D01*
X8364016Y-15421266D01*
X8368463Y-15423834D01*
X8409403Y-15469304D01*
X8415798Y-15530154D01*
X8385205Y-15583142D01*
X8367758Y-15595709D01*
X8345558Y-15608285D01*
X8341274Y-15610575D01*
X7569649Y-15998979D01*
X7565256Y-16001057D01*
X6989119Y-16256441D01*
X6928258Y-16262737D01*
X6875320Y-16232057D01*
X6850526Y-16176121D01*
X6850000Y-16165934D01*
X6850000Y-11749962D01*
X6849894Y-11741433D01*
X6849894Y-11741410D01*
X6842065Y-11422470D01*
X6841222Y-11405312D01*
X6817752Y-11087140D01*
X6816068Y-11070044D01*
X6777015Y-10753408D01*
X6774494Y-10736415D01*
X6741358Y-10545449D01*
X6719954Y-10422091D01*
X6716597Y-10405212D01*
X6690937Y-10290946D01*
X6646698Y-10093943D01*
X6642524Y-10077279D01*
X6578522Y-9846007D01*
X6557439Y-9769821D01*
X6557433Y-9769800D01*
X6552447Y-9753360D01*
X6452371Y-9450427D01*
X6446583Y-9434252D01*
X6446577Y-9434237D01*
X6446569Y-9434214D01*
X6331772Y-9136615D01*
X6331764Y-9136594D01*
X6325190Y-9120723D01*
X6195903Y-8829057D01*
X6195893Y-8829034D01*
X6188565Y-8813540D01*
X6094590Y-8626845D01*
X6045116Y-8528557D01*
X6037018Y-8513406D01*
X5879766Y-8235817D01*
X5870934Y-8221082D01*
X5700251Y-7951544D01*
X5690707Y-7937260D01*
X5585895Y-7788439D01*
X5507007Y-7676426D01*
X5503716Y-7671989D01*
X5496770Y-7662623D01*
X5300489Y-7411112D01*
X5289591Y-7397833D01*
X5081205Y-7156256D01*
X5069668Y-7143527D01*
X4964781Y-7033361D01*
X4849697Y-6912484D01*
X4849680Y-6912466D01*
X4837533Y-6900319D01*
X4606472Y-6680331D01*
X4593743Y-6668794D01*
X4352166Y-6460408D01*
X4338887Y-6449510D01*
X4338876Y-6449501D01*
X4338867Y-6449494D01*
X4087389Y-6253239D01*
X4073572Y-6242991D01*
X3812732Y-6059287D01*
X3798476Y-6049762D01*
X3798475Y-6049761D01*
X3798455Y-6049748D01*
X3528917Y-5879065D01*
X3528908Y-5879059D01*
X3528896Y-5879052D01*
X3514195Y-5870240D01*
X3236581Y-5712974D01*
X3221442Y-5704883D01*
X2936458Y-5561433D01*
X2920964Y-5554105D01*
X2751994Y-5479206D01*
X2629276Y-5424809D01*
X2613405Y-5418235D01*
X2607571Y-5415984D01*
X2359675Y-5320360D01*
X12147168Y-5320360D01*
X12147169Y-5320365D01*
X12179201Y-5414731D01*
X12244907Y-5489652D01*
X12244910Y-5489655D01*
X12311724Y-5522605D01*
X13615094Y-5871842D01*
X13652263Y-5874278D01*
X13689429Y-5876714D01*
X13689429Y-5876713D01*
X13689433Y-5876714D01*
X13783800Y-5844681D01*
X13858724Y-5778973D01*
X13891674Y-5712159D01*
X14240911Y-4408789D01*
X14244667Y-4351484D01*
X14245783Y-4334453D01*
X14245782Y-4334452D01*
X14245783Y-4334450D01*
X14213750Y-4240083D01*
X14213750Y-4240082D01*
X14148044Y-4165161D01*
X14148043Y-4165160D01*
X14148042Y-4165159D01*
X14081228Y-4132209D01*
X14081225Y-4132208D01*
X13240684Y-3906986D01*
X12777858Y-3782972D01*
X12777856Y-3782971D01*
X12777853Y-3782971D01*
X12703522Y-3778099D01*
X12703517Y-3778100D01*
X12609151Y-3810132D01*
X12534230Y-3875838D01*
X12534229Y-3875839D01*
X12501277Y-3942657D01*
X12244730Y-4900105D01*
X12180405Y-5140171D01*
X12152040Y-5246029D01*
X12147168Y-5320360D01*
X2359675Y-5320360D01*
X2315770Y-5303424D01*
X2307820Y-5300579D01*
X2299572Y-5297628D01*
X2299563Y-5297625D01*
X2299535Y-5297615D01*
X1996673Y-5197563D01*
X1996664Y-5197560D01*
X1996639Y-5197552D01*
X1985497Y-5194173D01*
X1980177Y-5192559D01*
X1672735Y-5107479D01*
X1672729Y-5107477D01*
X1672720Y-5107475D01*
X1656056Y-5103301D01*
X1656026Y-5103294D01*
X1656021Y-5103293D01*
X1344786Y-5033401D01*
X1327907Y-5030044D01*
X1013606Y-4975508D01*
X996604Y-4972985D01*
X834695Y-4953016D01*
X679955Y-4933931D01*
X679931Y-4933928D01*
X679926Y-4933928D01*
X662879Y-4932249D01*
X662880Y-4932249D01*
X662859Y-4932247D01*
X344687Y-4908777D01*
X339279Y-4908511D01*
X327513Y-4907933D01*
X8596Y-4900105D01*
X8589Y-4900105D01*
X-8589Y-4900105D01*
X-8596Y-4900105D01*
X-327513Y-4907933D01*
X-339279Y-4908511D01*
X-344687Y-4908777D01*
X-662859Y-4932247D01*
X-662879Y-4932249D01*
X-679926Y-4933928D01*
X-679931Y-4933928D01*
X-679955Y-4933931D01*
X-834695Y-4953016D01*
X-996604Y-4972985D01*
X-1013606Y-4975508D01*
X-1327907Y-5030044D01*
X-1344786Y-5033401D01*
X-1656021Y-5103293D01*
X-1656026Y-5103294D01*
X-1656056Y-5103301D01*
X-1672720Y-5107475D01*
X-1672729Y-5107477D01*
X-1672735Y-5107479D01*
X-1980177Y-5192559D01*
X-1985497Y-5194173D01*
X-1996639Y-5197552D01*
X-1996664Y-5197560D01*
X-1996673Y-5197563D01*
X-2299535Y-5297615D01*
X-2299563Y-5297625D01*
X-2299572Y-5297628D01*
X-2307659Y-5300522D01*
X-2315784Y-5303429D01*
X-2613383Y-5418226D01*
X-2613401Y-5418233D01*
X-2613405Y-5418235D01*
X-2629276Y-5424809D01*
X-2751994Y-5479206D01*
X-2920964Y-5554105D01*
X-2936458Y-5561433D01*
X-3221442Y-5704883D01*
X-3236581Y-5712974D01*
X-3514195Y-5870240D01*
X-3528896Y-5879052D01*
X-3528908Y-5879059D01*
X-3528917Y-5879065D01*
X-3798455Y-6049748D01*
X-3798475Y-6049761D01*
X-3798476Y-6049762D01*
X-3812732Y-6059287D01*
X-4073572Y-6242991D01*
X-4087389Y-6253239D01*
X-4338867Y-6449494D01*
X-4338876Y-6449501D01*
X-4338887Y-6449510D01*
X-4352166Y-6460408D01*
X-4593743Y-6668794D01*
X-4606472Y-6680331D01*
X-4837533Y-6900319D01*
X-4849680Y-6912466D01*
X-4849697Y-6912484D01*
X-4964781Y-7033361D01*
X-5069668Y-7143527D01*
X-5081205Y-7156256D01*
X-5289591Y-7397833D01*
X-5300489Y-7411112D01*
X-5496770Y-7662623D01*
X-5503716Y-7671989D01*
X-5507007Y-7676426D01*
X-5585895Y-7788439D01*
X-5690707Y-7937260D01*
X-5700251Y-7951544D01*
X-5870934Y-8221082D01*
X-5879766Y-8235817D01*
X-6037018Y-8513406D01*
X-6045116Y-8528557D01*
X-6094590Y-8626845D01*
X-6188565Y-8813540D01*
X-6195893Y-8829034D01*
X-6195903Y-8829057D01*
X-6325190Y-9120723D01*
X-6331764Y-9136594D01*
X-6331772Y-9136615D01*
X-6446569Y-9434214D01*
X-6446577Y-9434237D01*
X-6446583Y-9434252D01*
X-6452371Y-9450427D01*
X-6552447Y-9753360D01*
X-6557433Y-9769800D01*
X-6557439Y-9769821D01*
X-6578522Y-9846007D01*
X-6642524Y-10077279D01*
X-6646698Y-10093943D01*
X-6690937Y-10290946D01*
X-6716597Y-10405212D01*
X-6719954Y-10422091D01*
X-6741358Y-10545449D01*
X-6774494Y-10736415D01*
X-6777015Y-10753408D01*
X-6816068Y-11070044D01*
X-6817752Y-11087140D01*
X-6841222Y-11405312D01*
X-6842065Y-11422470D01*
X-6849894Y-11741410D01*
X-6849894Y-11741433D01*
X-6850000Y-11749962D01*
X-6850000Y-16165934D01*
X-6868907Y-16224125D01*
X-6918407Y-16260089D01*
X-6979593Y-16260089D01*
X-6989119Y-16256441D01*
X-7565256Y-16001057D01*
X-7569649Y-15998979D01*
X-8341267Y-15610579D01*
X-8345552Y-15608289D01*
X-9097196Y-15182487D01*
X-9101364Y-15179989D01*
X-9831210Y-14717821D01*
X-9835250Y-14715121D01*
X-10541535Y-14217699D01*
X-10545438Y-14214804D01*
X-11226455Y-13683334D01*
X-11230211Y-13680252D01*
X-11884362Y-13115978D01*
X-11887963Y-13112714D01*
X-12513611Y-12517047D01*
X-12517046Y-12513612D01*
X-13112723Y-11887953D01*
X-13115987Y-11884352D01*
X-13680235Y-11230232D01*
X-13683317Y-11226476D01*
X-14214796Y-10545449D01*
X-14217691Y-10541546D01*
X-14715121Y-9835250D01*
X-14717821Y-9831210D01*
X-15179989Y-9101364D01*
X-15182487Y-9097196D01*
X-15608293Y-8345544D01*
X-15610583Y-8341259D01*
X-15998979Y-7569649D01*
X-16001057Y-7565256D01*
X-16351142Y-6775477D01*
X-16353001Y-6770988D01*
X-16663899Y-5965015D01*
X-16665536Y-5960439D01*
X-16936516Y-5140171D01*
X-16937927Y-5135521D01*
X-17168331Y-4302944D01*
X-17169511Y-4298231D01*
X-17358784Y-3455365D01*
X-17359732Y-3450599D01*
X-17507423Y-2599444D01*
X-17508136Y-2594638D01*
X-17613881Y-1737272D01*
X-17614358Y-1732436D01*
X-17677910Y-870884D01*
X-17678148Y-866031D01*
X-17699349Y-2430D01*
X-17699349Y2430D01*
X-17678148Y866031D01*
X-17677910Y870884D01*
X-17614358Y1732436D01*
X-17613881Y1737272D01*
X-17508136Y2594638D01*
X-17507423Y2599444D01*
X-17359732Y3450599D01*
X-17358784Y3455365D01*
X-17227550Y4039774D01*
X-17196353Y4092408D01*
X-17140176Y4116653D01*
X-17080477Y4103247D01*
X-17060952Y4088087D01*
X-17060567Y4087702D01*
X-17060563Y4087697D01*
X-17060558Y4087693D01*
X-17060557Y4087692D01*
X-16904847Y3968212D01*
X-16604928Y3738076D01*
X-16074330Y3518295D01*
X-16074328Y3518294D01*
X-16074326Y3518294D01*
X-15500938Y3442806D01*
X-15445713Y3416465D01*
X-15416518Y3362694D01*
X-15424504Y3302032D01*
X-15434384Y3285912D01*
X-15435102Y3284667D01*
X-15435105Y3284665D01*
X-15504288Y3164836D01*
X-15540100Y3031183D01*
X-15540100Y2892817D01*
X-15504288Y2759164D01*
X-15435105Y2639335D01*
X-15337265Y2541495D01*
X-15217436Y2472312D01*
X-15083783Y2436500D01*
X-15083781Y2436500D01*
X-14945419Y2436500D01*
X-14945417Y2436500D01*
X-14811764Y2472312D01*
X-14691935Y2541495D01*
X-14682924Y2550505D01*
X-14628410Y2578281D01*
X-14612923Y2579500D01*
X-11693778Y2579500D01*
X-11635587Y2560593D01*
X-11623775Y2550504D01*
X-11557767Y2484497D01*
X-11557765Y2484495D01*
X-11437936Y2415312D01*
X-11304283Y2379500D01*
X-11304281Y2379500D01*
X-11291106Y2379500D01*
X-11232915Y2360593D01*
X-11196951Y2311093D01*
X-11196951Y2249907D01*
X-11232915Y2200407D01*
X-11265480Y2184874D01*
X-11284836Y2179688D01*
X-11404665Y2110505D01*
X-11502505Y2012665D01*
X-11571688Y1892836D01*
X-11607500Y1759183D01*
X-11607500Y1620817D01*
X-11571688Y1487164D01*
X-11502505Y1367335D01*
X-11404665Y1269495D01*
X-11284836Y1200312D01*
X-11151183Y1164500D01*
X-11151181Y1164500D01*
X-11012819Y1164500D01*
X-11012817Y1164500D01*
X-10879164Y1200312D01*
X-10759335Y1269495D01*
X-10759334Y1269495D01*
X-10759332Y1269497D01*
X-10693325Y1335504D01*
X-10638808Y1363281D01*
X-10623322Y1364500D01*
X-10607274Y1364500D01*
X-10549083Y1345593D01*
X-10513119Y1296093D01*
X-10513119Y1234907D01*
X-10521534Y1216006D01*
X-10581388Y1112336D01*
X-10617200Y978683D01*
X-10617200Y840317D01*
X-10581388Y706664D01*
X-10512205Y586835D01*
X-10512202Y586832D01*
X-10446196Y520825D01*
X-10418419Y466308D01*
X-10417200Y450822D01*
X-10417200Y-575665D01*
X-10436107Y-633856D01*
X-10446196Y-645669D01*
X-12328865Y-2528338D01*
X-12328866Y-2528340D01*
X-12328867Y-2528341D01*
X-12328868Y-2528342D01*
X-12371716Y-2602557D01*
X-12371718Y-2602561D01*
X-12375720Y-2617497D01*
X-12379121Y-2630188D01*
X-12379121Y-2630189D01*
X-12379121Y-2630190D01*
X-12393900Y-2685347D01*
X-12393900Y-4442447D01*
X-12393900Y-4528153D01*
X-12371718Y-4610939D01*
X-12371716Y-4610941D01*
X-12371716Y-4610943D01*
X-12328865Y-4685162D01*
X-12162430Y-4851596D01*
X-12134652Y-4906112D01*
X-12144223Y-4966545D01*
X-12187487Y-5009809D01*
X-12232433Y-5020600D01*
X-13619022Y-5020600D01*
X-13677213Y-5001693D01*
X-13689025Y-4991604D01*
X-13755032Y-4925597D01*
X-13874864Y-4856412D01*
X-13892838Y-4851596D01*
X-14008517Y-4820600D01*
X-14146883Y-4820600D01*
X-14280536Y-4856412D01*
X-14400365Y-4925595D01*
X-14498205Y-5023435D01*
X-14567388Y-5143264D01*
X-14603200Y-5276917D01*
X-14603200Y-5415283D01*
X-14567388Y-5548936D01*
X-14498205Y-5668765D01*
X-14400365Y-5766605D01*
X-14280536Y-5835788D01*
X-14146883Y-5871600D01*
X-14146881Y-5871600D01*
X-14008519Y-5871600D01*
X-14008517Y-5871600D01*
X-13874864Y-5835788D01*
X-13755035Y-5766605D01*
X-13755032Y-5766602D01*
X-13689025Y-5700596D01*
X-13634508Y-5672819D01*
X-13619022Y-5671600D01*
X-11856949Y-5671600D01*
X-11856947Y-5671600D01*
X-11774161Y-5649418D01*
X-11774158Y-5649416D01*
X-11774157Y-5649416D01*
X-11762029Y-5642413D01*
X-11749001Y-5634891D01*
X-11689154Y-5622169D01*
X-11633258Y-5647054D01*
X-11602664Y-5700041D01*
X-11600500Y-5720627D01*
X-11600500Y-5774674D01*
X-11585966Y-5847740D01*
X-11530601Y-5930601D01*
X-11447740Y-5985966D01*
X-11374674Y-6000500D01*
X-11374673Y-6000500D01*
X-10325327Y-6000500D01*
X-10325326Y-6000500D01*
X-10325320Y-6000498D01*
X-10325315Y-6000498D01*
X-10307808Y-5997015D01*
X-10252260Y-5985966D01*
X-10252255Y-5985962D01*
X-10243248Y-5982233D01*
X-10242413Y-5984248D01*
X-10196120Y-5971189D01*
X-10157389Y-5983773D01*
X-10156752Y-5982233D01*
X-10147746Y-5985961D01*
X-10147740Y-5985966D01*
X-10074674Y-6000500D01*
X-10074673Y-6000500D01*
X-9025327Y-6000500D01*
X-9025326Y-6000500D01*
X-9025320Y-6000498D01*
X-9025315Y-6000498D01*
X-9007808Y-5997015D01*
X-8952260Y-5985966D01*
X-8869399Y-5930601D01*
X-8869397Y-5930599D01*
X-8814035Y-5847742D01*
X-8814033Y-5847736D01*
X-8799501Y-5774684D01*
X-8799500Y-5774672D01*
X-8799500Y-5400407D01*
X-8780593Y-5342216D01*
X-8731093Y-5306252D01*
X-8726148Y-5304788D01*
X-8720661Y-5303318D01*
X-8669470Y-5273762D01*
X-8609623Y-5261041D01*
X-8594356Y-5263870D01*
X-8472583Y-5296500D01*
X-8472582Y-5296500D01*
X-8334219Y-5296500D01*
X-8334217Y-5296500D01*
X-8200564Y-5260688D01*
X-8080735Y-5191505D01*
X-7982895Y-5093665D01*
X-7913712Y-4973836D01*
X-7877900Y-4840183D01*
X-7877900Y-4701817D01*
X-7913712Y-4568164D01*
X-7982895Y-4448335D01*
X-8080735Y-4350495D01*
X-8200564Y-4281312D01*
X-8334217Y-4245500D01*
X-8472583Y-4245500D01*
X-8606236Y-4281312D01*
X-8651001Y-4307157D01*
X-8710849Y-4319878D01*
X-8766744Y-4294991D01*
X-8797337Y-4242003D01*
X-8798585Y-4230118D01*
X-8799024Y-4230162D01*
X-8799501Y-4225315D01*
X-8814033Y-4152263D01*
X-8814035Y-4152257D01*
X-8869397Y-4069400D01*
X-8869400Y-4069397D01*
X-8952257Y-4014035D01*
X-8952263Y-4014033D01*
X-9025315Y-3999501D01*
X-9025325Y-3999500D01*
X-9025326Y-3999500D01*
X-10074674Y-3999500D01*
X-10074684Y-3999501D01*
X-10147736Y-4014033D01*
X-10147740Y-4014034D01*
X-10147742Y-4014035D01*
X-10156749Y-4017766D01*
X-10157583Y-4015751D01*
X-10203888Y-4028811D01*
X-10242613Y-4016227D01*
X-10243251Y-4017766D01*
X-10252259Y-4014034D01*
X-10252260Y-4014034D01*
X-10252261Y-4014033D01*
X-10252263Y-4014033D01*
X-10325315Y-3999501D01*
X-10325325Y-3999500D01*
X-10325326Y-3999500D01*
X-11374674Y-3999500D01*
X-11374684Y-3999501D01*
X-11447736Y-4014033D01*
X-11447737Y-4014033D01*
X-11447740Y-4014034D01*
X-11447742Y-4014035D01*
X-11530599Y-4069397D01*
X-11530602Y-4069400D01*
X-11561584Y-4115768D01*
X-11609634Y-4153648D01*
X-11670772Y-4156050D01*
X-11721646Y-4122058D01*
X-11742824Y-4064654D01*
X-11742900Y-4060767D01*
X-11742900Y-2904034D01*
X-11723993Y-2845843D01*
X-11713909Y-2834036D01*
X-9831235Y-951362D01*
X-9831233Y-951359D01*
X-9831231Y-951357D01*
X-9788383Y-877143D01*
X-9783394Y-858522D01*
X-9766200Y-794353D01*
X-9766200Y-708647D01*
X-9766200Y8589D01*
X-4549894Y8589D01*
X-4549894Y-8589D01*
X-4544835Y-214673D01*
X-4543992Y-231831D01*
X-4528827Y-437419D01*
X-4527143Y-454515D01*
X-4501909Y-659111D01*
X-4499388Y-676104D01*
X-4464145Y-879216D01*
X-4460793Y-896064D01*
X-4415627Y-1097202D01*
X-4411452Y-1113866D01*
X-4356471Y-1312545D01*
X-4351484Y-1328984D01*
X-4290827Y-1512593D01*
X-4286818Y-1524728D01*
X-4281034Y-1540895D01*
X-4278610Y-1547179D01*
X-4206841Y-1733233D01*
X-4200267Y-1749104D01*
X-4116728Y-1937565D01*
X-4109383Y-1953095D01*
X-4016697Y-2137230D01*
X-4008599Y-2152380D01*
X-3906990Y-2331745D01*
X-3898158Y-2346480D01*
X-3787871Y-2520644D01*
X-3778327Y-2534927D01*
X-3659626Y-2703469D01*
X-3649392Y-2717268D01*
X-3522565Y-2879782D01*
X-3511667Y-2893062D01*
X-3377017Y-3049158D01*
X-3365481Y-3061886D01*
X-3223334Y-3211187D01*
X-3211187Y-3223334D01*
X-3061886Y-3365481D01*
X-3049158Y-3377017D01*
X-2893062Y-3511667D01*
X-2879782Y-3522565D01*
X-2717268Y-3649392D01*
X-2703469Y-3659626D01*
X-2534927Y-3778327D01*
X-2520644Y-3787871D01*
X-2346480Y-3898158D01*
X-2331745Y-3906990D01*
X-2152380Y-4008599D01*
X-2137230Y-4016697D01*
X-2032533Y-4069397D01*
X-1953081Y-4109390D01*
X-1947055Y-4112239D01*
X-1937565Y-4116728D01*
X-1749104Y-4200267D01*
X-1733233Y-4206841D01*
X-1552742Y-4276463D01*
X-1540895Y-4281034D01*
X-1524728Y-4286818D01*
X-1524725Y-4286819D01*
X-1328984Y-4351484D01*
X-1312545Y-4356471D01*
X-1113866Y-4411452D01*
X-1097202Y-4415627D01*
X-896064Y-4460793D01*
X-879216Y-4464145D01*
X-676104Y-4499388D01*
X-659111Y-4501909D01*
X-454515Y-4527143D01*
X-437419Y-4528827D01*
X-231831Y-4543992D01*
X-214673Y-4544835D01*
X-71310Y-4548354D01*
X-8596Y-4549894D01*
X-8589Y-4549894D01*
X8596Y-4549894D01*
X71310Y-4548354D01*
X214673Y-4544835D01*
X231831Y-4543992D01*
X437419Y-4528827D01*
X454515Y-4527143D01*
X659111Y-4501909D01*
X676104Y-4499388D01*
X879216Y-4464145D01*
X896064Y-4460793D01*
X1097202Y-4415627D01*
X1113866Y-4411452D01*
X1312545Y-4356471D01*
X1328984Y-4351484D01*
X1524725Y-4286819D01*
X1524728Y-4286818D01*
X1540895Y-4281034D01*
X1552742Y-4276463D01*
X1733233Y-4206841D01*
X1749104Y-4200267D01*
X1937565Y-4116728D01*
X1947055Y-4112239D01*
X1953081Y-4109390D01*
X2032533Y-4069397D01*
X2137230Y-4016697D01*
X2152380Y-4008599D01*
X2331745Y-3906990D01*
X2346480Y-3898158D01*
X2520644Y-3787871D01*
X2534927Y-3778327D01*
X2703469Y-3659626D01*
X2717268Y-3649392D01*
X2879782Y-3522565D01*
X2893062Y-3511667D01*
X3049158Y-3377017D01*
X3061886Y-3365481D01*
X3211187Y-3223334D01*
X3223334Y-3211187D01*
X3365481Y-3061886D01*
X3377017Y-3049158D01*
X3377025Y-3049149D01*
X3454706Y-2959096D01*
X3454708Y-2959093D01*
X3455079Y-2958662D01*
X3511667Y-2893062D01*
X3522565Y-2879782D01*
X3649392Y-2717268D01*
X3659626Y-2703469D01*
X3778327Y-2534927D01*
X3787871Y-2520644D01*
X3898158Y-2346480D01*
X3906990Y-2331745D01*
X3911407Y-2323948D01*
X12943524Y-2323948D01*
X12943524Y-2501237D01*
X12978110Y-2675112D01*
X12978110Y-2675114D01*
X12999476Y-2726697D01*
X12999477Y-2726698D01*
X13422286Y-2482588D01*
X13447487Y-2576637D01*
X13503440Y-2673549D01*
X13572287Y-2742396D01*
X13146412Y-2988275D01*
X13269805Y-3111667D01*
X13417215Y-3210163D01*
X13581003Y-3278006D01*
X13754879Y-3312592D01*
X13754883Y-3312593D01*
X13932165Y-3312593D01*
X13932168Y-3312592D01*
X14106041Y-3278007D01*
X14106052Y-3278004D01*
X14157628Y-3256639D01*
X13913519Y-2833830D01*
X14007568Y-2808630D01*
X14104480Y-2752677D01*
X14173327Y-2683829D01*
X14419206Y-3109702D01*
X14542594Y-2986315D01*
X14542601Y-2986306D01*
X14641094Y-2838901D01*
X14708937Y-2675114D01*
X14708937Y-2675112D01*
X14743523Y-2501237D01*
X14743524Y-2501234D01*
X14743524Y-2323951D01*
X14743523Y-2323948D01*
X14708938Y-2150075D01*
X14708936Y-2150069D01*
X14687569Y-2098486D01*
X14264760Y-2342595D01*
X14239561Y-2248549D01*
X14183608Y-2151637D01*
X14114758Y-2082787D01*
X14540634Y-1836909D01*
X14417242Y-1713518D01*
X14269832Y-1615022D01*
X14106044Y-1547179D01*
X13932168Y-1512593D01*
X13754879Y-1512593D01*
X13581002Y-1547179D01*
X13580995Y-1547181D01*
X13529418Y-1568545D01*
X13529417Y-1568546D01*
X13773527Y-1991356D01*
X13679480Y-2016556D01*
X13582568Y-2072509D01*
X13513719Y-2141357D01*
X13267841Y-1715482D01*
X13144447Y-1838876D01*
X13045952Y-1986285D01*
X12978110Y-2150071D01*
X12978110Y-2150073D01*
X12943524Y-2323948D01*
X3911407Y-2323948D01*
X4008599Y-2152380D01*
X4016697Y-2137230D01*
X4109383Y-1953095D01*
X4116728Y-1937565D01*
X4200267Y-1749104D01*
X4206841Y-1733233D01*
X4270368Y-1568545D01*
X4280003Y-1543569D01*
X4280003Y-1543568D01*
X4281031Y-1540902D01*
X4286818Y-1524728D01*
X4290827Y-1512593D01*
X4351484Y-1328984D01*
X4356471Y-1312545D01*
X4411452Y-1113866D01*
X4415627Y-1097202D01*
X4460793Y-896064D01*
X4464145Y-879216D01*
X4499388Y-676104D01*
X4501909Y-659111D01*
X4527143Y-454515D01*
X4528827Y-437419D01*
X4543992Y-231831D01*
X4544835Y-214673D01*
X4549894Y-8589D01*
X4549894Y8589D01*
X4544835Y214673D01*
X4543992Y231831D01*
X4528827Y437419D01*
X4527143Y454515D01*
X4501909Y659111D01*
X4499388Y676104D01*
X4464145Y879216D01*
X4460793Y896064D01*
X4415627Y1097202D01*
X4411452Y1113866D01*
X4356471Y1312545D01*
X4351484Y1328984D01*
X4286819Y1524725D01*
X4281032Y1540900D01*
X4206841Y1733233D01*
X4200267Y1749104D01*
X4116728Y1937565D01*
X4109383Y1953095D01*
X4016697Y2137230D01*
X4008599Y2152380D01*
X3906990Y2331745D01*
X3898158Y2346480D01*
X3787871Y2520644D01*
X3778327Y2534927D01*
X3659626Y2703469D01*
X3649392Y2717268D01*
X3522565Y2879782D01*
X3511667Y2893062D01*
X3377017Y3049158D01*
X3365481Y3061886D01*
X3223334Y3211187D01*
X3211187Y3223334D01*
X3061886Y3365481D01*
X3049158Y3377017D01*
X2893062Y3511667D01*
X2879782Y3522565D01*
X2717268Y3649392D01*
X2703469Y3659626D01*
X2534927Y3778327D01*
X2520644Y3787871D01*
X2346480Y3898158D01*
X2331745Y3906990D01*
X2152380Y4008599D01*
X2137230Y4016697D01*
X1953095Y4109383D01*
X1953093Y4109383D01*
X1953081Y4109390D01*
X1947055Y4112239D01*
X1937565Y4116728D01*
X1749104Y4200267D01*
X1733233Y4206841D01*
X1540900Y4281032D01*
X1540895Y4281034D01*
X1524728Y4286818D01*
X1524725Y4286819D01*
X1328984Y4351484D01*
X1312545Y4356471D01*
X1113866Y4411452D01*
X1097202Y4415627D01*
X896064Y4460793D01*
X879216Y4464145D01*
X676104Y4499388D01*
X659111Y4501909D01*
X454515Y4527143D01*
X437419Y4528827D01*
X231831Y4543992D01*
X214673Y4544835D01*
X71310Y4548354D01*
X8596Y4549894D01*
X8589Y4549894D01*
X-8589Y4549894D01*
X-8596Y4549894D01*
X-71310Y4548354D01*
X-214673Y4544835D01*
X-231831Y4543992D01*
X-437419Y4528827D01*
X-454515Y4527143D01*
X-659111Y4501909D01*
X-676104Y4499388D01*
X-879216Y4464145D01*
X-896064Y4460793D01*
X-1097202Y4415627D01*
X-1113866Y4411452D01*
X-1312545Y4356471D01*
X-1328984Y4351484D01*
X-1524725Y4286819D01*
X-1524728Y4286818D01*
X-1540895Y4281034D01*
X-1540900Y4281032D01*
X-1733233Y4206841D01*
X-1749104Y4200267D01*
X-1937565Y4116728D01*
X-1947055Y4112239D01*
X-1953081Y4109390D01*
X-1953093Y4109383D01*
X-1953095Y4109383D01*
X-2137230Y4016697D01*
X-2152380Y4008599D01*
X-2331745Y3906990D01*
X-2346480Y3898158D01*
X-2520644Y3787871D01*
X-2534927Y3778327D01*
X-2703469Y3659626D01*
X-2717268Y3649392D01*
X-2879782Y3522565D01*
X-2893062Y3511667D01*
X-3049158Y3377017D01*
X-3061886Y3365481D01*
X-3211187Y3223334D01*
X-3223334Y3211187D01*
X-3365481Y3061886D01*
X-3377017Y3049158D01*
X-3511667Y2893062D01*
X-3522565Y2879782D01*
X-3649392Y2717268D01*
X-3659626Y2703469D01*
X-3778327Y2534927D01*
X-3787871Y2520644D01*
X-3898158Y2346480D01*
X-3906990Y2331745D01*
X-4008599Y2152380D01*
X-4016697Y2137230D01*
X-4109383Y1953095D01*
X-4116728Y1937565D01*
X-4200267Y1749104D01*
X-4206841Y1733233D01*
X-4281032Y1540900D01*
X-4286819Y1524725D01*
X-4351484Y1328984D01*
X-4356471Y1312545D01*
X-4411452Y1113866D01*
X-4415627Y1097202D01*
X-4460793Y896064D01*
X-4464145Y879216D01*
X-4499388Y676104D01*
X-4501909Y659111D01*
X-4527143Y454515D01*
X-4528827Y437419D01*
X-4543992Y231831D01*
X-4544835Y214673D01*
X-4549894Y8589D01*
X-9766200Y8589D01*
X-9766200Y450822D01*
X-9747293Y509013D01*
X-9737204Y520825D01*
X-9671197Y586832D01*
X-9602012Y706664D01*
X-9566200Y840318D01*
X-9566200Y978681D01*
X-9566200Y978683D01*
X-9602012Y1112336D01*
X-9661863Y1216002D01*
X-9674584Y1275848D01*
X-9649697Y1331744D01*
X-9596709Y1362337D01*
X-9576126Y1364500D01*
X-8608649Y1364500D01*
X-8608647Y1364500D01*
X-8557978Y1378076D01*
X-8525856Y1386683D01*
X-8451642Y1429531D01*
X-7077838Y2803335D01*
X-7077837Y2803334D01*
X-7017234Y2863938D01*
X-6974383Y2938158D01*
X-6974382Y2938160D01*
X-6969383Y2956819D01*
X-6969382Y2956821D01*
X-6952199Y3020944D01*
X-6952199Y3114627D01*
X-6952200Y3114640D01*
X-6952200Y6599067D01*
X-6952199Y6599085D01*
X-6952199Y6690855D01*
X-6974381Y6773638D01*
X-6999454Y6817064D01*
X-6999454Y6817065D01*
X-7017233Y6847859D01*
X-7017235Y6847862D01*
X-7077838Y6908465D01*
X-7077840Y6908466D01*
X-8965104Y8795730D01*
X-8992881Y8850247D01*
X-8994100Y8865734D01*
X-8994100Y9123106D01*
X-8975193Y9181297D01*
X-8925693Y9217261D01*
X-8869480Y9218733D01*
X-8863387Y9217100D01*
X-8863383Y9217100D01*
X-8725019Y9217100D01*
X-8725017Y9217100D01*
X-8591364Y9252912D01*
X-8591363Y9252912D01*
X-8585389Y9254513D01*
X-8524287Y9251310D01*
X-8476737Y9212805D01*
X-8468300Y9196768D01*
X-8467390Y9194574D01*
X-8467388Y9194564D01*
X-8398205Y9074735D01*
X-8300365Y8976895D01*
X-8180536Y8907712D01*
X-8046883Y8871900D01*
X-7953535Y8871900D01*
X-7895344Y8852993D01*
X-7883531Y8842904D01*
X-6328896Y7288269D01*
X-6301119Y7233752D01*
X-6299900Y7218265D01*
X-6299900Y4916577D01*
X-6318807Y4858386D01*
X-6328890Y4846579D01*
X-6394905Y4780565D01*
X-6464088Y4660736D01*
X-6499900Y4527083D01*
X-6499900Y4388717D01*
X-6464088Y4255064D01*
X-6394905Y4135235D01*
X-6297065Y4037395D01*
X-6177236Y3968212D01*
X-6043583Y3932400D01*
X-6043581Y3932400D01*
X-5905219Y3932400D01*
X-5905217Y3932400D01*
X-5771564Y3968212D01*
X-5651735Y4037395D01*
X-5553895Y4135235D01*
X-5484712Y4255064D01*
X-5448900Y4388717D01*
X-5448900Y4527083D01*
X-5484712Y4660736D01*
X-5553895Y4780565D01*
X-5619905Y4846575D01*
X-5647681Y4901090D01*
X-5648900Y4916577D01*
X-5648900Y7436952D01*
X-5671082Y7519739D01*
X-5671081Y7519739D01*
X-5713931Y7593957D01*
X-5713933Y7593959D01*
X-5713935Y7593962D01*
X-7423205Y9303232D01*
X-7450981Y9357747D01*
X-7452200Y9373234D01*
X-7452200Y9451600D01*
X-7433293Y9509791D01*
X-7383793Y9545755D01*
X-7353200Y9550600D01*
X-6322549Y9550600D01*
X-6322547Y9550600D01*
X-6271878Y9564176D01*
X-6239756Y9572783D01*
X-6165542Y9615631D01*
X-4014604Y11766569D01*
X-3960087Y11794346D01*
X-3899655Y11784775D01*
X-3856390Y11741510D01*
X-3845600Y11696565D01*
X-3845600Y10712953D01*
X-3845600Y10627247D01*
X-3823418Y10544461D01*
X-3823416Y10544458D01*
X-3823416Y10544456D01*
X-3780568Y10470242D01*
X-3780567Y10470241D01*
X-3780565Y10470238D01*
X-1183370Y7873043D01*
X1345504Y5344169D01*
X1373281Y5289652D01*
X1374500Y5274165D01*
X1374500Y5180817D01*
X1410312Y5047164D01*
X1479495Y4927335D01*
X1577335Y4829495D01*
X1697164Y4760312D01*
X1830817Y4724500D01*
X1830819Y4724500D01*
X1969181Y4724500D01*
X1969183Y4724500D01*
X2102836Y4760312D01*
X2222665Y4829495D01*
X2229999Y4836829D01*
X2284517Y4864604D01*
X2344949Y4855030D01*
X2370001Y4836829D01*
X2377335Y4829495D01*
X2497164Y4760312D01*
X2630817Y4724500D01*
X2630819Y4724500D01*
X2774500Y4724500D01*
X2832691Y4705593D01*
X2868655Y4656093D01*
X2873500Y4625500D01*
X2873500Y3944048D01*
X2895683Y3861256D01*
X2938531Y3787042D01*
X5710604Y1014969D01*
X5738381Y960452D01*
X5739600Y944965D01*
X5739600Y851617D01*
X5775412Y717964D01*
X5844595Y598135D01*
X5942435Y500295D01*
X6062264Y431112D01*
X6195917Y395300D01*
X6195919Y395300D01*
X6334281Y395300D01*
X6334283Y395300D01*
X6467936Y431112D01*
X6587765Y500295D01*
X6685605Y598135D01*
X6754788Y717964D01*
X6790600Y851617D01*
X6790600Y989983D01*
X6754788Y1123636D01*
X6685605Y1243465D01*
X6587765Y1341305D01*
X6467936Y1410488D01*
X6334283Y1446300D01*
X6334281Y1446300D01*
X6240935Y1446300D01*
X6182744Y1465207D01*
X6170931Y1475296D01*
X3553496Y4092731D01*
X3525719Y4147248D01*
X3524500Y4162735D01*
X3524500Y5492851D01*
X3524500Y5492853D01*
X3502318Y5575638D01*
X3459465Y5649862D01*
X3398862Y5710465D01*
X-769046Y9878373D01*
X-794668Y9922753D01*
X-799110Y9939332D01*
X-824799Y9983827D01*
X-868295Y10059165D01*
X-966135Y10157005D01*
X-1085964Y10226188D01*
X-1219617Y10262000D01*
X-1357983Y10262000D01*
X-1491636Y10226188D01*
X-1611465Y10157005D01*
X-1698719Y10069751D01*
X-1753233Y10041974D01*
X-1813666Y10051545D01*
X-1838721Y10069748D01*
X-2415504Y10646530D01*
X-2443281Y10701047D01*
X-2444500Y10716534D01*
X-2444500Y11861957D01*
X-2425593Y11920148D01*
X-2400502Y11944272D01*
X-2291585Y12017048D01*
X-2187048Y12121585D01*
X-2104915Y12244506D01*
X-2048342Y12381085D01*
X-2019500Y12526081D01*
X-2019500Y12673918D01*
X-2048342Y12818914D01*
X-2084586Y12906415D01*
X-2089386Y12967412D01*
X-2057417Y13019581D01*
X-2000889Y13042995D01*
X-1993122Y13043300D01*
X-1174635Y13043300D01*
X-1116444Y13024393D01*
X-1104631Y13014304D01*
X-982037Y12891710D01*
X-954260Y12837193D01*
X-954943Y12802393D01*
X-980500Y12673918D01*
X-980500Y12526082D01*
X-951658Y12381087D01*
X-895084Y12244505D01*
X-812951Y12121584D01*
X-708416Y12017049D01*
X-585495Y11934916D01*
X-585493Y11934915D01*
X-448914Y11878342D01*
X-303918Y11849500D01*
X-156081Y11849500D01*
X-11085Y11878342D01*
X125493Y11934915D01*
X125495Y11934916D01*
X248416Y12017049D01*
X352951Y12121584D01*
X435084Y12244505D01*
X491658Y12381087D01*
X520500Y12526082D01*
X520500Y12673918D01*
X491658Y12818913D01*
X435084Y12955495D01*
X352951Y13078416D01*
X278368Y13152998D01*
X250593Y13207513D01*
X260164Y13267945D01*
X303429Y13311210D01*
X348374Y13322000D01*
X1086665Y13322000D01*
X1144856Y13303093D01*
X1156669Y13293003D01*
X1557962Y12891709D01*
X1585739Y12837193D01*
X1585056Y12802393D01*
X1579966Y12776805D01*
X1559500Y12673918D01*
X1559500Y12526081D01*
X1588342Y12381085D01*
X1644915Y12244506D01*
X1727048Y12121585D01*
X1831585Y12017048D01*
X1954506Y11934915D01*
X2091085Y11878342D01*
X2236081Y11849500D01*
X2236082Y11849500D01*
X2383918Y11849500D01*
X2528914Y11878342D01*
X2665493Y11934915D01*
X2665495Y11934916D01*
X2788416Y12017049D01*
X2892951Y12121584D01*
X2975084Y12244505D01*
X3031658Y12381087D01*
X3060500Y12526082D01*
X3060500Y12673918D01*
X3031658Y12818913D01*
X2975084Y12955495D01*
X2892951Y13078416D01*
X2788416Y13182951D01*
X2665495Y13265084D01*
X2528913Y13321658D01*
X2383918Y13350500D01*
X2236082Y13350500D01*
X2107602Y13324943D01*
X2046844Y13332134D01*
X2018289Y13352035D01*
X1462362Y13907965D01*
X1388142Y13950816D01*
X1388141Y13950816D01*
X1388139Y13950818D01*
X1305353Y13973000D01*
X-3068947Y13973000D01*
X-3154653Y13973000D01*
X-3237439Y13950818D01*
X-3270834Y13931537D01*
X-3311662Y13907965D01*
X-3372265Y13847362D01*
X-3372265Y13847360D01*
X-3380415Y13839211D01*
X-3380416Y13839208D01*
X-4075665Y13143962D01*
X-4079425Y13137448D01*
X-4124889Y13096506D01*
X-4185739Y13090105D01*
X-4190743Y13091305D01*
X-4306417Y13122300D01*
X-4444783Y13122300D01*
X-4578436Y13086488D01*
X-4698265Y13017305D01*
X-4796105Y12919465D01*
X-4813771Y12888864D01*
X-4829503Y12868363D01*
X-5203935Y12493934D01*
X-5723555Y11974312D01*
X-5665257Y11935359D01*
X-5587684Y11903226D01*
X-5541159Y11863488D01*
X-5526876Y11803993D01*
X-5550292Y11747466D01*
X-5555562Y11741763D01*
X-5811350Y11485977D01*
X-6491832Y10805496D01*
X-6546348Y10777719D01*
X-6561835Y10776500D01*
X-7884171Y10776500D01*
X-7942362Y10795407D01*
X-7978326Y10844907D01*
X-7979798Y10901123D01*
X-7960400Y10973517D01*
X-7960400Y11111883D01*
X-7996212Y11245536D01*
X-8065395Y11365365D01*
X-8116005Y11415975D01*
X-8143781Y11470490D01*
X-8145000Y11485977D01*
X-8145000Y11897622D01*
X-8126093Y11955813D01*
X-8116004Y11967625D01*
X-8049997Y12033632D01*
X-7980812Y12153464D01*
X-7952253Y12260048D01*
X-7945000Y12287117D01*
X-7945000Y12425483D01*
X-7980812Y12559136D01*
X-8047052Y12673867D01*
X-6060000Y12673867D01*
X-6060000Y12526132D01*
X-6059999Y12526128D01*
X-6031178Y12381235D01*
X-6031176Y12381229D01*
X-5974641Y12244742D01*
X-5935686Y12186443D01*
X-5522132Y12599999D01*
X-5935687Y13013554D01*
X-5974642Y12955255D01*
X-6031176Y12818770D01*
X-6031178Y12818764D01*
X-6059999Y12673871D01*
X-6060000Y12673867D01*
X-8047052Y12673867D01*
X-8049993Y12678962D01*
X-8049995Y12678965D01*
X-8147835Y12776805D01*
X-8267664Y12845988D01*
X-8401317Y12881800D01*
X-8539683Y12881800D01*
X-8673336Y12845988D01*
X-8793165Y12776805D01*
X-8891005Y12678965D01*
X-8960188Y12559136D01*
X-8996000Y12425483D01*
X-8996000Y12287117D01*
X-8960188Y12153464D01*
X-8891005Y12033635D01*
X-8891002Y12033632D01*
X-8824996Y11967625D01*
X-8797219Y11913108D01*
X-8796000Y11897622D01*
X-8796000Y11516777D01*
X-8814907Y11458586D01*
X-8824990Y11446779D01*
X-8906405Y11365365D01*
X-8975588Y11245536D01*
X-9011400Y11111883D01*
X-9011400Y10973517D01*
X-8983499Y10869388D01*
X-8975587Y10839862D01*
X-8970150Y10830445D01*
X-8957429Y10770597D01*
X-8982316Y10714701D01*
X-8985845Y10710981D01*
X-9580065Y10116762D01*
X-9622918Y10042539D01*
X-9633850Y10001739D01*
X-9645100Y9959753D01*
X-9645100Y8732753D01*
X-9645100Y8647047D01*
X-9622918Y8564261D01*
X-9622916Y8564258D01*
X-9622916Y8564256D01*
X-9580068Y8490042D01*
X-9580067Y8490041D01*
X-9580065Y8490038D01*
X-8567777Y7477750D01*
X-7632196Y6542169D01*
X-7604419Y6487652D01*
X-7603200Y6472165D01*
X-7603200Y3239634D01*
X-7622107Y3181443D01*
X-7632196Y3169630D01*
X-8757331Y2044496D01*
X-8811848Y2016719D01*
X-8827335Y2015500D01*
X-10623322Y2015500D01*
X-10681513Y2034407D01*
X-10693325Y2044496D01*
X-10759332Y2110502D01*
X-10759335Y2110505D01*
X-10879164Y2179688D01*
X-11012817Y2215500D01*
X-11025994Y2215500D01*
X-11084185Y2234407D01*
X-11120149Y2283907D01*
X-11120149Y2345093D01*
X-11084185Y2394593D01*
X-11051619Y2410125D01*
X-11032264Y2415312D01*
X-10912435Y2484495D01*
X-10814595Y2582335D01*
X-10745412Y2702164D01*
X-10709600Y2835817D01*
X-10709600Y2974183D01*
X-10745412Y3107836D01*
X-10814595Y3227665D01*
X-10912435Y3325505D01*
X-11032264Y3394688D01*
X-11165917Y3430500D01*
X-11304283Y3430500D01*
X-11437936Y3394688D01*
X-11557765Y3325505D01*
X-11581238Y3302032D01*
X-11623775Y3259496D01*
X-11678292Y3231719D01*
X-11693778Y3230500D01*
X-14505665Y3230500D01*
X-14563856Y3249407D01*
X-14591400Y3279997D01*
X-14594094Y3284663D01*
X-14594095Y3284665D01*
X-14691935Y3382505D01*
X-14756782Y3419944D01*
X-14797722Y3465413D01*
X-14804118Y3526263D01*
X-14773525Y3579251D01*
X-14745167Y3597144D01*
X-14404929Y3738075D01*
X-13949298Y4087692D01*
X-13949288Y4087702D01*
X-13599671Y4543333D01*
X-13379892Y5073927D01*
X-13379890Y5073933D01*
X-13304928Y5643331D01*
X-13304928Y5643332D01*
X-13379890Y6212730D01*
X-13379892Y6212736D01*
X-13599671Y6743330D01*
X-13599672Y6743332D01*
X-13949293Y7198967D01*
X-13974443Y7218265D01*
X-14065674Y7288269D01*
X-14404928Y7548588D01*
X-14935526Y7768369D01*
X-15393490Y7828661D01*
X-15504927Y7843332D01*
X-15504928Y7843332D01*
X-15701054Y7817511D01*
X-15761213Y7828661D01*
X-15803331Y7873043D01*
X-15811317Y7933705D01*
X-15802404Y7960176D01*
X-15610583Y8341259D01*
X-15608293Y8345544D01*
X-15182487Y9097196D01*
X-15179989Y9101364D01*
X-14717821Y9831210D01*
X-14715121Y9835250D01*
X-14217691Y10541546D01*
X-14214796Y10545449D01*
X-13683317Y11226476D01*
X-13680235Y11230232D01*
X-13115987Y11884352D01*
X-13112723Y11887953D01*
X-12517046Y12513612D01*
X-12513611Y12517047D01*
X-11887963Y13112714D01*
X-11884362Y13115978D01*
X-11757179Y13225687D01*
X-5723554Y13225687D01*
X-5309999Y12812132D01*
X-4896443Y13225686D01*
X-4954742Y13264641D01*
X-5091229Y13321176D01*
X-5091235Y13321178D01*
X-5236128Y13349999D01*
X-5236132Y13350000D01*
X-5383868Y13350000D01*
X-5383871Y13349999D01*
X-5528764Y13321178D01*
X-5528770Y13321176D01*
X-5665255Y13264642D01*
X-5723554Y13225687D01*
X-11757179Y13225687D01*
X-11713046Y13263756D01*
X-11230211Y13680252D01*
X-11226455Y13683334D01*
X-10545438Y14214804D01*
X-10541535Y14217699D01*
X-9835250Y14715121D01*
X-9831210Y14717821D01*
X-9101364Y15179989D01*
X-9097196Y15182487D01*
X-8345552Y15608289D01*
X-8341267Y15610579D01*
X-7569649Y15998979D01*
X-7565256Y16001057D01*
X-6775477Y16351142D01*
X-6770988Y16353001D01*
X-5965015Y16663899D01*
X-5960439Y16665536D01*
X-5140171Y16936516D01*
X-5135521Y16937927D01*
X-4302944Y17168331D01*
X-4298231Y17169511D01*
X-3455365Y17358784D01*
X-3450599Y17359732D01*
X-2599444Y17507423D01*
X-2594638Y17508136D01*
X-1737272Y17613881D01*
X-1732436Y17614358D01*
X-870884Y17677910D01*
X-866031Y17678148D01*
X-2430Y17699349D01*
X2430Y17699349D01*
X866031Y17678148D01*
G37*
%TD.AperFunction*%
%TD*%
M02*
