%TF.GenerationSoftware,KiCad,Pcbnew,10.0.6*%
%TF.CreationDate,2026-09-29T13:47:49+02:00*%
%TF.ProjectId,shotpuck,73686f74-7075-4636-9b2e-6b696361645f,rev?*%
%TF.SameCoordinates,Original*%
%TF.FileFunction,Copper,L2,Bot*%
%TF.FilePolarity,Positive*%
%FSLAX46Y46*%
G04 Gerber Fmt 4.6, Leading zero omitted, Abs format (unit mm)*
G04 Created by KiCad (PCBNEW 10.0.6) date 2026-09-29 13:47:49*
%MOMM*%
%LPD*%
G01*
G04 APERTURE LIST*
G04 Aperture macros list*
%AMRotRect*
0 Rectangle, with rotation*
0 The origin of the aperture is its center*
0 $1 length*
0 $2 width*
0 $3 Rotation angle, in degrees counterclockwise*
0 Add horizontal line*
21,1,$1,$2,0,0,$3*%
G04 Aperture macros list end*
%TA.AperFunction,EtchedComponent*%
%ADD10C,0.000000*%
%TD*%
%TA.AperFunction,ComponentPad*%
%ADD11RotRect,1.300000X1.300000X75.000000*%
%TD*%
%TA.AperFunction,ComponentPad*%
%ADD12C,1.300000*%
%TD*%
%TA.AperFunction,SMDPad,CuDef*%
%ADD13C,1.000000*%
%TD*%
%TA.AperFunction,SMDPad,CuDef*%
%ADD14R,1.000000X1.500000*%
%TD*%
%TA.AperFunction,ViaPad*%
%ADD15C,0.550000*%
%TD*%
%TA.AperFunction,Conductor*%
%ADD16C,0.150000*%
%TD*%
G04 APERTURE END LIST*
D10*
%TA.AperFunction,EtchedComponent*%
%TO.C,JP1*%
G36*
X-9950000Y-5300000D02*
G01*
X-10450000Y-5300000D01*
X-10450000Y-4700000D01*
X-9950000Y-4700000D01*
X-9950000Y-5300000D01*
G37*
%TD.AperFunction*%
%TD*%
D11*
%TO.P,J1,1*%
%TO.N,VIN_RAW*%
X13196476Y-4827407D03*
D12*
%TO.P,J1,2*%
%TO.N,GND*%
X13843524Y-2412593D03*
%TD*%
D13*
%TO.P,J2,1*%
%TO.N,VDD*%
X-4510000Y13000000D03*
%TO.P,J2,2*%
%TO.N,SWDIO*%
X-1970000Y13000000D03*
%TO.P,J2,3*%
%TO.N,SWDCLK*%
X570000Y13000000D03*
%TO.P,J2,4*%
%TO.N,GND*%
X3110000Y13000000D03*
%TD*%
D14*
%TO.P,JP1,1*%
%TO.N,BAT_P*%
X-9550000Y-5000000D03*
%TO.P,JP1,2*%
%TO.N,VBAT*%
X-10850000Y-5000000D03*
%TD*%
D15*
%TO.N,GND*%
X-8000000Y12800000D03*
X-5428829Y16000328D03*
X2980946Y11916022D03*
X-2900000Y13000000D03*
X-10300000Y3610000D03*
X-8000000Y9600000D03*
X-8000000Y4800000D03*
X-14351471Y-6041471D03*
X-12037426Y12429459D03*
X-5673632Y5564877D03*
X3121929Y16324750D03*
X8000000Y-9600000D03*
X-10887500Y-7140000D03*
X-12337500Y-1500000D03*
X-13579422Y8230000D03*
X-8000000Y6400000D03*
X-11959422Y7550000D03*
X-6400000Y0D03*
X-6400000Y-3200000D03*
X-11818557Y832973D03*
X-11200000Y6400000D03*
X-11585769Y-3499999D03*
X2275135Y16002045D03*
X-4084805Y6952133D03*
X-16950000Y1215000D03*
X10339230Y-1400000D03*
X-6899999Y2280000D03*
X-3152427Y8500003D03*
X-11200000Y4800000D03*
X1208316Y16015757D03*
X-13301751Y3797984D03*
X6450000Y-3474999D03*
X2950000Y8851077D03*
X-6400000Y-1600000D03*
X-10139222Y11782616D03*
X-13379422Y10130000D03*
X-11630000Y9879422D03*
%TO.N,VBAT*%
X-15991300Y-3540900D03*
X-12670400Y-3072700D03*
%TO.N,VIN*%
X-7750000Y3250000D03*
X4950000Y3950000D03*
X-9776700Y4205500D03*
%TO.N,VDD*%
X-4400000Y14350000D03*
X-8824800Y10426600D03*
X-7315900Y14275000D03*
%TO.N,PROG_SW*%
X-16136400Y2980600D03*
X-11235100Y2905000D03*
%TO.N,CHG_INH*%
X-10194700Y898000D03*
X-3222600Y7781300D03*
%TO.N,BAT_N*%
X-8421400Y-9059000D03*
X-12174300Y-6230200D03*
%TO.N,BAT_P*%
X-8403400Y-4771000D03*
%TO.N,CHG_STAT*%
X-9796500Y-236500D03*
X-2750000Y5350000D03*
%TO.N,SWDCLK*%
X2500000Y5350000D03*
%TO.N,SWDIO*%
X3350000Y5450000D03*
%TD*%
%TO.N,GND*%
D16*
X-3152400Y8500000D02*
X-3180900Y8500000D01*
X-12009600Y833000D02*
X-12009600Y-1172100D01*
X-5428800Y16000300D02*
X-6445500Y16000300D01*
X-8970000Y2280000D02*
X-10300000Y3610000D01*
X-6445500Y16000300D02*
X-10139200Y12306600D01*
X-10887500Y-7140000D02*
X-10887500Y-6700000D01*
X998400Y13996400D02*
X2981000Y12013800D01*
X1192800Y16000300D02*
X-5428800Y16000300D01*
X10339200Y-1400000D02*
X8525000Y-1400000D01*
X-16950000Y1215000D02*
X-12391600Y1215000D01*
X-11880600Y10130000D02*
X-11836200Y10085600D01*
X-4286400Y6952100D02*
X-4084800Y6952100D01*
X-10300000Y3610000D02*
X-13113800Y3610000D01*
X-2900000Y13087800D02*
X-1991400Y13996400D01*
X8525000Y-1400000D02*
X6450000Y-3475000D01*
X1208300Y16015800D02*
X1192800Y16000300D01*
X-2900000Y13000000D02*
X-2900000Y13087800D01*
X-5673600Y5564900D02*
X-5673600Y3506400D01*
X2981000Y12013800D02*
X2981000Y11916000D01*
X-5673600Y5564900D02*
X-4286400Y6952100D01*
X-12391600Y1215000D02*
X-12009600Y833000D01*
X-11930200Y-5657300D02*
X-11930200Y-3844400D01*
X-11836200Y10085600D02*
X-11630000Y9879400D01*
X-10139200Y12306600D02*
X-10139200Y11782600D01*
X-13579400Y8230000D02*
X-12639400Y8230000D01*
X-10139200Y11782600D02*
X-11836200Y10085600D01*
X-12639400Y8230000D02*
X-11959400Y7550000D01*
X3121900Y16324800D02*
X2597900Y16324800D01*
X-12009600Y833000D02*
X-11818600Y833000D01*
X-11930200Y-3844400D02*
X-11585800Y-3500000D01*
X-13113800Y3610000D02*
X-13301800Y3798000D01*
X-6900000Y2280000D02*
X-8970000Y2280000D01*
X-13967300Y-5657300D02*
X-14351500Y-6041500D01*
X-11930200Y-5657300D02*
X-13967300Y-5657300D01*
X-12009600Y-1172100D02*
X-12337500Y-1500000D01*
X2597900Y16324800D02*
X2275100Y16002000D01*
X-4084800Y7596100D02*
X-4084800Y6952100D01*
X2275100Y16002000D02*
X1222100Y16002000D01*
X-5673600Y3506400D02*
X-6900000Y2280000D01*
X1222100Y16002000D02*
X1208300Y16015800D01*
X-10887500Y-6700000D02*
X-11930200Y-5657300D01*
X-1991400Y13996400D02*
X998400Y13996400D01*
X-3180900Y8500000D02*
X-4084800Y7596100D01*
X-13379400Y10130000D02*
X-11880600Y10130000D01*
%TO.N,VBAT*%
X-12605700Y-3008000D02*
X-12670400Y-3072700D01*
X-11400700Y-3008000D02*
X-12605700Y-3008000D01*
X-10850000Y-3558700D02*
X-11400700Y-3008000D01*
X-12670400Y-3072700D02*
X-15523100Y-3072700D01*
X-10850000Y-5000000D02*
X-10850000Y-3558700D01*
X-15523100Y-3072700D02*
X-15991300Y-3540900D01*
%TO.N,VIN*%
X-8821200Y3250000D02*
X-9776700Y4205500D01*
X-6800000Y3250000D02*
X-7750000Y3250000D01*
X4950000Y3950000D02*
X3960000Y4160000D01*
X3960000Y4160000D02*
X3960000Y15200000D01*
X-7750000Y3250000D02*
X-8821200Y3250000D01*
X-6800000Y15200000D02*
X-6800000Y3250000D01*
X3960000Y15200000D02*
X-6800000Y15200000D01*
%TO.N,VDD*%
X-4400000Y14350000D02*
X-4510000Y14240000D01*
X-8824800Y12766100D02*
X-8824800Y10426600D01*
X-7315900Y14275000D02*
X-8824800Y12766100D01*
X-4510000Y14240000D02*
X-4510000Y13000000D01*
%TO.N,PROG_SW*%
X-11310700Y2980600D02*
X-11235100Y2905000D01*
X-16136400Y2980600D02*
X-11310700Y2980600D01*
%TO.N,CHG_INH*%
X-10194700Y898000D02*
X-7523700Y898000D01*
X-7523700Y898000D02*
X-6151900Y2269800D01*
X-3607600Y5167300D02*
X-3607600Y6380000D01*
X-3222600Y6765000D02*
X-3222600Y7781300D01*
X-3607600Y6380000D02*
X-3222600Y6765000D01*
X-6151900Y2269800D02*
X-6151900Y2623000D01*
X-6151900Y2623000D02*
X-3607600Y5167300D01*
%TO.N,BAT_N*%
X-12174300Y-6530100D02*
X-9645400Y-9059000D01*
X-12174300Y-6230200D02*
X-12174300Y-6530100D01*
X-9645400Y-9059000D02*
X-8421400Y-9059000D01*
%TO.N,BAT_P*%
X-9550000Y-5000000D02*
X-8632400Y-5000000D01*
X-8632400Y-5000000D02*
X-8403400Y-4771000D01*
%TO.N,CHG_STAT*%
X-5117700Y3108100D02*
X-2875800Y5350000D01*
X-5117700Y2886400D02*
X-5117700Y3108100D01*
X-2875800Y5350000D02*
X-2750000Y5350000D01*
X-8240600Y-236500D02*
X-5117700Y2886400D01*
X-9796500Y-236500D02*
X-8240600Y-236500D01*
%TO.N,SWDCLK*%
X570000Y7280000D02*
X570000Y13000000D01*
X2500000Y5350000D02*
X570000Y7280000D01*
%TO.N,SWDIO*%
X-1970000Y13000000D02*
X-1252800Y13717200D01*
X1661700Y7138200D02*
X1661800Y7138200D01*
X1661800Y7138200D02*
X3350000Y5450000D01*
X883400Y13717200D02*
X1661700Y12938900D01*
X-1252800Y13717200D02*
X883400Y13717200D01*
X1661700Y12938900D02*
X1661700Y7138200D01*
%TD*%
%TA.AperFunction,Conductor*%
%TO.N,GND*%
G36*
X17148072Y4281093D02*
G01*
X17184036Y4231593D01*
X17186472Y4222703D01*
X17357674Y3460312D01*
X17358785Y3455365D01*
X17359732Y3450599D01*
X17507423Y2599444D01*
X17508136Y2594638D01*
X17613881Y1737272D01*
X17614358Y1732436D01*
X17677910Y870884D01*
X17678148Y866031D01*
X17699349Y2430D01*
X17699349Y-2430D01*
X17678148Y-866031D01*
X17677910Y-870884D01*
X17614358Y-1732436D01*
X17613881Y-1737272D01*
X17508136Y-2594638D01*
X17507423Y-2599444D01*
X17359732Y-3450599D01*
X17358784Y-3455365D01*
X17169511Y-4298231D01*
X17168331Y-4302944D01*
X16937927Y-5135521D01*
X16936516Y-5140171D01*
X16665536Y-5960439D01*
X16663899Y-5965015D01*
X16353001Y-6770988D01*
X16351142Y-6775477D01*
X16001057Y-7565256D01*
X15998979Y-7569649D01*
X15610579Y-8341267D01*
X15608289Y-8345552D01*
X15182487Y-9097196D01*
X15179989Y-9101364D01*
X14717821Y-9831210D01*
X14715121Y-9835250D01*
X14217699Y-10541535D01*
X14214804Y-10545438D01*
X13683334Y-11226455D01*
X13680252Y-11230211D01*
X13115978Y-11884362D01*
X13112714Y-11887963D01*
X12517047Y-12513611D01*
X12513612Y-12517046D01*
X11887953Y-13112723D01*
X11884351Y-13115987D01*
X11778055Y-13207677D01*
X11721643Y-13231369D01*
X11662079Y-13217377D01*
X11622115Y-13171046D01*
X11615240Y-13145639D01*
X11589036Y-12946598D01*
X11369255Y-12416000D01*
X11019634Y-11960365D01*
X11019629Y-11960361D01*
X11019628Y-11960360D01*
X10564001Y-11610744D01*
X10564000Y-11610743D01*
X10068045Y-11405313D01*
X10033401Y-11390963D01*
X10033399Y-11390962D01*
X10033397Y-11390962D01*
X9464001Y-11316000D01*
X9463999Y-11316000D01*
X8894601Y-11390962D01*
X8894595Y-11390964D01*
X8364001Y-11610743D01*
X7908370Y-11960360D01*
X7908360Y-11960370D01*
X7558743Y-12416001D01*
X7338964Y-12946595D01*
X7338962Y-12946601D01*
X7264000Y-13515999D01*
X7264000Y-13516000D01*
X7331727Y-14030444D01*
X7338963Y-14085401D01*
X7371150Y-14163107D01*
X7558743Y-14616000D01*
X7558744Y-14616001D01*
X7908360Y-15071628D01*
X7908365Y-15071634D01*
X7908369Y-15071637D01*
X7908370Y-15071638D01*
X8364000Y-15421256D01*
X8368467Y-15423835D01*
X8409406Y-15469306D01*
X8415799Y-15530156D01*
X8385204Y-15583143D01*
X8367759Y-15595708D01*
X8345543Y-15608293D01*
X8341259Y-15610583D01*
X7569649Y-15998979D01*
X7565256Y-16001057D01*
X6989119Y-16256441D01*
X6928258Y-16262737D01*
X6875320Y-16232057D01*
X6850526Y-16176121D01*
X6850000Y-16165934D01*
X6850000Y-11749962D01*
X6849894Y-11741433D01*
X6849894Y-11741410D01*
X6842065Y-11422470D01*
X6841222Y-11405312D01*
X6817752Y-11087140D01*
X6816068Y-11070044D01*
X6777015Y-10753408D01*
X6774494Y-10736415D01*
X6741358Y-10545449D01*
X6719954Y-10422091D01*
X6716597Y-10405212D01*
X6690937Y-10290946D01*
X6646698Y-10093943D01*
X6642524Y-10077279D01*
X6578522Y-9846007D01*
X6557439Y-9769821D01*
X6557433Y-9769800D01*
X6552447Y-9753360D01*
X6452371Y-9450427D01*
X6446583Y-9434252D01*
X6446577Y-9434237D01*
X6446569Y-9434214D01*
X6331772Y-9136615D01*
X6331764Y-9136594D01*
X6325190Y-9120723D01*
X6195903Y-8829057D01*
X6195893Y-8829034D01*
X6188565Y-8813540D01*
X6094590Y-8626845D01*
X6045116Y-8528557D01*
X6037018Y-8513406D01*
X5879766Y-8235817D01*
X5870934Y-8221082D01*
X5700251Y-7951544D01*
X5690707Y-7937260D01*
X5636123Y-7859756D01*
X5568059Y-7763112D01*
X5550000Y-7706107D01*
X5550000Y-5320360D01*
X12147168Y-5320360D01*
X12147169Y-5320365D01*
X12179201Y-5414731D01*
X12244907Y-5489652D01*
X12244910Y-5489655D01*
X12311724Y-5522605D01*
X13615094Y-5871842D01*
X13652263Y-5874278D01*
X13689429Y-5876714D01*
X13689429Y-5876713D01*
X13689433Y-5876714D01*
X13783800Y-5844681D01*
X13858724Y-5778973D01*
X13891674Y-5712159D01*
X14240911Y-4408789D01*
X14243956Y-4362327D01*
X14245783Y-4334453D01*
X14245782Y-4334452D01*
X14245783Y-4334450D01*
X14213750Y-4240083D01*
X14213750Y-4240082D01*
X14148044Y-4165161D01*
X14148043Y-4165160D01*
X14148042Y-4165159D01*
X14081228Y-4132209D01*
X14081225Y-4132208D01*
X13216478Y-3900500D01*
X12777858Y-3782972D01*
X12777856Y-3782971D01*
X12777853Y-3782971D01*
X12703522Y-3778099D01*
X12703517Y-3778100D01*
X12609151Y-3810132D01*
X12534230Y-3875838D01*
X12534229Y-3875839D01*
X12501277Y-3942657D01*
X12260786Y-4840183D01*
X12180405Y-5140171D01*
X12152040Y-5246029D01*
X12147168Y-5320360D01*
X5550000Y-5320360D01*
X5550000Y-2323948D01*
X12943524Y-2323948D01*
X12943524Y-2501237D01*
X12978110Y-2675112D01*
X12978110Y-2675114D01*
X12999476Y-2726697D01*
X12999477Y-2726698D01*
X13422286Y-2482588D01*
X13447487Y-2576637D01*
X13503440Y-2673549D01*
X13572287Y-2742396D01*
X13146412Y-2988275D01*
X13269805Y-3111667D01*
X13417215Y-3210163D01*
X13581003Y-3278006D01*
X13754879Y-3312592D01*
X13754883Y-3312593D01*
X13932165Y-3312593D01*
X13932168Y-3312592D01*
X14106041Y-3278007D01*
X14106052Y-3278004D01*
X14157628Y-3256639D01*
X13913519Y-2833830D01*
X14007568Y-2808630D01*
X14104480Y-2752677D01*
X14173327Y-2683829D01*
X14419206Y-3109702D01*
X14542594Y-2986315D01*
X14542601Y-2986306D01*
X14641094Y-2838901D01*
X14708937Y-2675114D01*
X14708937Y-2675112D01*
X14743523Y-2501237D01*
X14743524Y-2501234D01*
X14743524Y-2323951D01*
X14743523Y-2323948D01*
X14708938Y-2150075D01*
X14708936Y-2150069D01*
X14687569Y-2098486D01*
X14264760Y-2342595D01*
X14239561Y-2248549D01*
X14183608Y-2151637D01*
X14114758Y-2082787D01*
X14540634Y-1836909D01*
X14417242Y-1713518D01*
X14269832Y-1615022D01*
X14106044Y-1547179D01*
X13932168Y-1512593D01*
X13754879Y-1512593D01*
X13581002Y-1547179D01*
X13580995Y-1547181D01*
X13529418Y-1568545D01*
X13529417Y-1568546D01*
X13773527Y-1991356D01*
X13679480Y-2016556D01*
X13582568Y-2072509D01*
X13513719Y-2141357D01*
X13267841Y-1715482D01*
X13144447Y-1838876D01*
X13045952Y-1986285D01*
X12978110Y-2150071D01*
X12978110Y-2150073D01*
X12943524Y-2323948D01*
X5550000Y-2323948D01*
X5550000Y37D01*
X5549894Y8565D01*
X5549894Y8589D01*
X5543630Y263741D01*
X5542788Y280899D01*
X5524012Y535436D01*
X5522328Y552532D01*
X5491085Y805842D01*
X5488565Y822835D01*
X5488565Y822838D01*
X5469945Y930143D01*
X5444930Y1074306D01*
X5441579Y1091155D01*
X5417137Y1200000D01*
X7000000Y1200000D01*
X7000000Y1199999D01*
X7074962Y630601D01*
X7074964Y630595D01*
X7294743Y99999D01*
X7294744Y99998D01*
X7606036Y-305683D01*
X7644365Y-355634D01*
X7644369Y-355637D01*
X7644370Y-355638D01*
X8099997Y-705254D01*
X8099998Y-705255D01*
X8287591Y-782958D01*
X8630598Y-925036D01*
X9057649Y-981258D01*
X9199999Y-999999D01*
X9200000Y-999999D01*
X9200001Y-999999D01*
X9313880Y-985006D01*
X9769401Y-925036D01*
X10299999Y-705255D01*
X10755634Y-355634D01*
X11105255Y99999D01*
X11325036Y630598D01*
X11399999Y1200000D01*
X11325036Y1769401D01*
X11105255Y2300000D01*
X10755634Y2755634D01*
X10299999Y3105255D01*
X9769401Y3325036D01*
X9240349Y3394687D01*
X9200001Y3399999D01*
X9199999Y3399999D01*
X9159651Y3394687D01*
X8630598Y3325036D01*
X8100000Y3105255D01*
X7644365Y2755634D01*
X7644361Y2755629D01*
X7644360Y2755628D01*
X7294744Y2300001D01*
X7294743Y2300000D01*
X7074964Y1769403D01*
X7074962Y1769397D01*
X7000000Y1200000D01*
X5417137Y1200000D01*
X5412496Y1220665D01*
X5407614Y1242407D01*
X5385658Y1340182D01*
X5381484Y1356846D01*
X5313411Y1602829D01*
X5308424Y1619268D01*
X5228364Y1861615D01*
X5222576Y1877790D01*
X5130721Y2115917D01*
X5124146Y2131788D01*
X5020717Y2365120D01*
X5013372Y2380650D01*
X4898619Y2608626D01*
X4890521Y2623777D01*
X4764719Y2845848D01*
X4755887Y2860583D01*
X4619340Y3076214D01*
X4609796Y3090498D01*
X4462833Y3299169D01*
X4452600Y3312967D01*
X4295575Y3514176D01*
X4284677Y3527455D01*
X4232769Y3587629D01*
X4209079Y3644039D01*
X4223069Y3703604D01*
X4269399Y3743569D01*
X4328277Y3749137D01*
X4434296Y3726648D01*
X4487297Y3696077D01*
X4499489Y3679305D01*
X4529494Y3627336D01*
X4529495Y3627335D01*
X4627335Y3529495D01*
X4747164Y3460312D01*
X4880817Y3424500D01*
X4880819Y3424500D01*
X5019181Y3424500D01*
X5019183Y3424500D01*
X5152836Y3460312D01*
X5272665Y3529495D01*
X5370505Y3627335D01*
X5439688Y3747164D01*
X5475500Y3880817D01*
X5475500Y4019183D01*
X5439688Y4152836D01*
X5439683Y4152843D01*
X5437205Y4158830D01*
X5438762Y4159475D01*
X5427739Y4211355D01*
X5452629Y4267249D01*
X5505619Y4297838D01*
X5526196Y4300000D01*
X17089881Y4300000D01*
X17148072Y4281093D01*
G37*
%TD.AperFunction*%
%TA.AperFunction,Conductor*%
G36*
X866031Y17678148D02*
G01*
X870884Y17677910D01*
X1732436Y17614358D01*
X1737272Y17613881D01*
X2594638Y17508136D01*
X2599444Y17507423D01*
X3450599Y17359732D01*
X3455365Y17358784D01*
X4298231Y17169511D01*
X4302944Y17168331D01*
X5135521Y16937927D01*
X5140171Y16936516D01*
X5271889Y16893003D01*
X5321212Y16856797D01*
X5339834Y16798515D01*
X5320641Y16740417D01*
X5270966Y16704697D01*
X5240835Y16700000D01*
X4099999Y16700000D01*
X4099999Y16699999D01*
X4099999Y15624500D01*
X4081092Y15566309D01*
X4031592Y15530345D01*
X4000999Y15525500D01*
X-6757147Y15525500D01*
X-6842853Y15525500D01*
X-6925638Y15503318D01*
X-6999862Y15460465D01*
X-7060465Y15399862D01*
X-7103318Y15325638D01*
X-7125500Y15242853D01*
X-7125500Y15242851D01*
X-7125500Y14897039D01*
X-7144407Y14838848D01*
X-7193907Y14802884D01*
X-7240018Y14801677D01*
X-7240285Y14799653D01*
X-7246716Y14800499D01*
X-7246717Y14800500D01*
X-7385083Y14800500D01*
X-7518736Y14764688D01*
X-7638565Y14695505D01*
X-7736405Y14597665D01*
X-7805588Y14477836D01*
X-7841400Y14344183D01*
X-7841400Y14344181D01*
X-7841400Y14250834D01*
X-7860307Y14192643D01*
X-7870390Y14180836D01*
X-9085265Y12965962D01*
X-9085267Y12965958D01*
X-9085268Y12965957D01*
X-9108290Y12926081D01*
X-9128118Y12891739D01*
X-9149145Y12813262D01*
X-9150300Y12808953D01*
X-9150300Y12808949D01*
X-9150300Y10885277D01*
X-9169207Y10827086D01*
X-9179290Y10815279D01*
X-9245305Y10749265D01*
X-9314488Y10629436D01*
X-9350300Y10495783D01*
X-9350300Y10357417D01*
X-9314488Y10223764D01*
X-9245305Y10103935D01*
X-9147465Y10006095D01*
X-9027636Y9936912D01*
X-8893983Y9901100D01*
X-8893981Y9901100D01*
X-8755619Y9901100D01*
X-8755617Y9901100D01*
X-8621964Y9936912D01*
X-8502135Y10006095D01*
X-8404295Y10103935D01*
X-8335112Y10223764D01*
X-8299300Y10357417D01*
X-8299300Y10495783D01*
X-8335112Y10629436D01*
X-8404295Y10749265D01*
X-8470305Y10815275D01*
X-8498081Y10869790D01*
X-8499300Y10885277D01*
X-8499300Y12590265D01*
X-8480393Y12648456D01*
X-8470304Y12660269D01*
X-7410069Y13720504D01*
X-7355552Y13748281D01*
X-7340065Y13749500D01*
X-7246718Y13749500D01*
X-7246717Y13749500D01*
X-7246716Y13749500D01*
X-7240285Y13750347D01*
X-7239984Y13748061D01*
X-7188995Y13745374D01*
X-7141456Y13706856D01*
X-7125500Y13652960D01*
X-7125500Y3674500D01*
X-7144407Y3616309D01*
X-7193907Y3580345D01*
X-7224500Y3575500D01*
X-7291322Y3575500D01*
X-7349513Y3594407D01*
X-7361325Y3604496D01*
X-7427332Y3670502D01*
X-7427335Y3670505D01*
X-7547164Y3739688D01*
X-7680817Y3775500D01*
X-7819183Y3775500D01*
X-7952836Y3739688D01*
X-8072665Y3670505D01*
X-8092166Y3651004D01*
X-8138675Y3604496D01*
X-8193192Y3576719D01*
X-8208678Y3575500D01*
X-8645365Y3575500D01*
X-8703556Y3594407D01*
X-8715369Y3604496D01*
X-9222204Y4111331D01*
X-9249981Y4165848D01*
X-9251200Y4181335D01*
X-9251200Y4274681D01*
X-9251200Y4274683D01*
X-9287012Y4408336D01*
X-9356195Y4528165D01*
X-9454035Y4626005D01*
X-9573864Y4695188D01*
X-9707517Y4731000D01*
X-9845883Y4731000D01*
X-9979536Y4695188D01*
X-10099365Y4626005D01*
X-10197205Y4528165D01*
X-10266388Y4408336D01*
X-10302200Y4274683D01*
X-10302200Y4136317D01*
X-10266388Y4002664D01*
X-10197205Y3882835D01*
X-10099365Y3784995D01*
X-9979536Y3715812D01*
X-9845883Y3680000D01*
X-9752535Y3680000D01*
X-9694344Y3661093D01*
X-9682531Y3651004D01*
X-9021062Y2989535D01*
X-9021059Y2989533D01*
X-9021058Y2989532D01*
X-9021057Y2989531D01*
X-8946842Y2946683D01*
X-8946844Y2946683D01*
X-8914721Y2938076D01*
X-8864053Y2924500D01*
X-8208678Y2924500D01*
X-8150487Y2905593D01*
X-8138675Y2895504D01*
X-8103753Y2860583D01*
X-8072665Y2829495D01*
X-7952836Y2760312D01*
X-7819183Y2724500D01*
X-7819181Y2724500D01*
X-7680819Y2724500D01*
X-7680817Y2724500D01*
X-7547164Y2760312D01*
X-7427335Y2829495D01*
X-7427334Y2829495D01*
X-7427332Y2829497D01*
X-7361325Y2895504D01*
X-7306808Y2923281D01*
X-7291322Y2924500D01*
X-6757149Y2924500D01*
X-6757147Y2924500D01*
X-6674362Y2946682D01*
X-6600138Y2989535D01*
X-6539535Y3050138D01*
X-6496682Y3124362D01*
X-6474500Y3207147D01*
X-6474500Y14775500D01*
X-6455593Y14833691D01*
X-6406093Y14869655D01*
X-6375500Y14874500D01*
X-4857677Y14874500D01*
X-4799486Y14855593D01*
X-4763522Y14806093D01*
X-4763522Y14744907D01*
X-4787671Y14705498D01*
X-4820505Y14672665D01*
X-4889688Y14552836D01*
X-4925500Y14419183D01*
X-4925500Y14280817D01*
X-4895156Y14167570D01*
X-4889687Y14147162D01*
X-4848763Y14076278D01*
X-4835500Y14026779D01*
X-4835500Y13738042D01*
X-4854407Y13679851D01*
X-4879496Y13655728D01*
X-4988416Y13582951D01*
X-5092951Y13478416D01*
X-5175084Y13355495D01*
X-5231658Y13218913D01*
X-5260500Y13073918D01*
X-5260500Y12926082D01*
X-5231658Y12781087D01*
X-5175084Y12644505D01*
X-5092951Y12521584D01*
X-4988416Y12417049D01*
X-4865495Y12334916D01*
X-4865493Y12334915D01*
X-4728914Y12278342D01*
X-4583918Y12249500D01*
X-4436081Y12249500D01*
X-4291085Y12278342D01*
X-4154506Y12334915D01*
X-4031585Y12417048D01*
X-3927048Y12521585D01*
X-3844915Y12644506D01*
X-3788342Y12781085D01*
X-3759500Y12926081D01*
X-3759500Y13073918D01*
X-3788342Y13218914D01*
X-3844915Y13355493D01*
X-3849732Y13362703D01*
X-3927049Y13478416D01*
X-4031584Y13582951D01*
X-4140502Y13655727D01*
X-4178381Y13703776D01*
X-4184500Y13738042D01*
X-4184500Y13810465D01*
X-4165593Y13868656D01*
X-4135000Y13896201D01*
X-4077339Y13929491D01*
X-3979495Y14027335D01*
X-3910312Y14147164D01*
X-3892188Y14214804D01*
X-3874500Y14280817D01*
X-3874500Y14419183D01*
X-3910312Y14552836D01*
X-3979495Y14672665D01*
X-4012328Y14705498D01*
X-4040104Y14760013D01*
X-4030533Y14820445D01*
X-3987268Y14863710D01*
X-3942323Y14874500D01*
X3535500Y14874500D01*
X3593691Y14855593D01*
X3629655Y14806093D01*
X3634500Y14775500D01*
X3634500Y6046825D01*
X3615593Y5988634D01*
X3566093Y5952670D01*
X3509879Y5951198D01*
X3419183Y5975500D01*
X3419181Y5975500D01*
X3325835Y5975500D01*
X3267644Y5994407D01*
X3255831Y6004496D01*
X2016196Y7244131D01*
X1988419Y7298648D01*
X1987200Y7314135D01*
X1987200Y12981751D01*
X1987200Y12981753D01*
X1965018Y13064538D01*
X1922165Y13138762D01*
X1861562Y13199365D01*
X1083262Y13977665D01*
X1009042Y14020516D01*
X1009041Y14020516D01*
X1009039Y14020518D01*
X926253Y14042700D01*
X-1209947Y14042700D01*
X-1295653Y14042700D01*
X-1378439Y14020518D01*
X-1378441Y14020516D01*
X-1378443Y14020516D01*
X-1452657Y13977668D01*
X-1452662Y13977665D01*
X-1678289Y13752036D01*
X-1732804Y13724260D01*
X-1767600Y13724942D01*
X-1896082Y13750500D01*
X-2043918Y13750500D01*
X-2188913Y13721658D01*
X-2325495Y13665084D01*
X-2448416Y13582951D01*
X-2552951Y13478416D01*
X-2635084Y13355495D01*
X-2691658Y13218913D01*
X-2720500Y13073918D01*
X-2720500Y12926082D01*
X-2691658Y12781087D01*
X-2635084Y12644505D01*
X-2552951Y12521584D01*
X-2448416Y12417049D01*
X-2325495Y12334916D01*
X-2325493Y12334915D01*
X-2188914Y12278342D01*
X-2043918Y12249500D01*
X-1896081Y12249500D01*
X-1751085Y12278342D01*
X-1614506Y12334915D01*
X-1491585Y12417048D01*
X-1387048Y12521585D01*
X-1304915Y12644506D01*
X-1248342Y12781085D01*
X-1219500Y12926081D01*
X-1219500Y13073918D01*
X-1227551Y13114393D01*
X-1245055Y13202392D01*
X-1237864Y13263154D01*
X-1217962Y13291710D01*
X-1146970Y13362703D01*
X-1092454Y13390481D01*
X-1076966Y13391700D01*
X-228251Y13391700D01*
X-170060Y13372793D01*
X-134096Y13323293D01*
X-134096Y13262107D01*
X-136787Y13254815D01*
X-151658Y13218913D01*
X-180500Y13073918D01*
X-180500Y12926082D01*
X-151658Y12781087D01*
X-95084Y12644505D01*
X-12951Y12521584D01*
X91584Y12417049D01*
X91585Y12417048D01*
X200502Y12344272D01*
X238381Y12296222D01*
X244500Y12261957D01*
X244500Y7237148D01*
X266683Y7154356D01*
X309531Y7080142D01*
X1945504Y5444169D01*
X1973281Y5389652D01*
X1974500Y5374165D01*
X1974500Y5328039D01*
X1955593Y5269848D01*
X1906093Y5233884D01*
X1844907Y5233884D01*
X1844446Y5234036D01*
X1802154Y5248006D01*
X1619268Y5308424D01*
X1602829Y5313411D01*
X1356846Y5381484D01*
X1340182Y5385658D01*
X1126855Y5433562D01*
X1091169Y5441576D01*
X1091163Y5441577D01*
X1091155Y5441579D01*
X1074306Y5444930D01*
X927077Y5470476D01*
X822838Y5488565D01*
X805836Y5491086D01*
X639800Y5511564D01*
X552532Y5522328D01*
X535436Y5524012D01*
X280899Y5542788D01*
X263741Y5543630D01*
X41833Y5549077D01*
X8596Y5549894D01*
X8589Y5549894D01*
X-8589Y5549894D01*
X-8596Y5549894D01*
X-41833Y5549077D01*
X-263741Y5543630D01*
X-280899Y5542788D01*
X-535436Y5524012D01*
X-552532Y5522328D01*
X-639800Y5511564D01*
X-805836Y5491086D01*
X-822838Y5488565D01*
X-927077Y5470476D01*
X-1074306Y5444930D01*
X-1091155Y5441579D01*
X-1091163Y5441577D01*
X-1091169Y5441576D01*
X-1126855Y5433562D01*
X-1340182Y5385658D01*
X-1356846Y5381484D01*
X-1602829Y5313411D01*
X-1619268Y5308424D01*
X-1861615Y5228364D01*
X-1877790Y5222576D01*
X-1877817Y5222565D01*
X-1877827Y5222562D01*
X-2100225Y5136774D01*
X-2161321Y5133472D01*
X-2212689Y5166712D01*
X-2234710Y5223797D01*
X-2231481Y5254761D01*
X-2224500Y5280814D01*
X-2224500Y5419181D01*
X-2224500Y5419183D01*
X-2260312Y5552836D01*
X-2329495Y5672665D01*
X-2427335Y5770505D01*
X-2547164Y5839688D01*
X-2680817Y5875500D01*
X-2819183Y5875500D01*
X-2952836Y5839688D01*
X-3072665Y5770505D01*
X-3113098Y5730071D01*
X-3167613Y5702296D01*
X-3228045Y5711867D01*
X-3271310Y5755132D01*
X-3282100Y5800077D01*
X-3282100Y6204165D01*
X-3263193Y6262356D01*
X-3253104Y6274168D01*
X-2962135Y6565137D01*
X-2962131Y6565142D01*
X-2919283Y6639356D01*
X-2897100Y6722148D01*
X-2897100Y7322622D01*
X-2878193Y7380813D01*
X-2868104Y7392625D01*
X-2802097Y7458632D01*
X-2732912Y7578464D01*
X-2697100Y7712118D01*
X-2697100Y7850481D01*
X-2697100Y7850483D01*
X-2732912Y7984136D01*
X-2802095Y8103965D01*
X-2899935Y8201805D01*
X-3019764Y8270988D01*
X-3153417Y8306800D01*
X-3291783Y8306800D01*
X-3425436Y8270988D01*
X-3545265Y8201805D01*
X-3643105Y8103965D01*
X-3712288Y7984136D01*
X-3748100Y7850483D01*
X-3748100Y7712117D01*
X-3712288Y7578464D01*
X-3643105Y7458635D01*
X-3643102Y7458632D01*
X-3577096Y7392625D01*
X-3549319Y7338108D01*
X-3548100Y7322622D01*
X-3548100Y6940834D01*
X-3567007Y6882643D01*
X-3577090Y6870836D01*
X-3868065Y6579862D01*
X-3910918Y6505639D01*
X-3933100Y6422853D01*
X-3933100Y6422851D01*
X-3933100Y5343134D01*
X-3952007Y5284943D01*
X-3962095Y5273130D01*
X-6412365Y2822862D01*
X-6455218Y2748639D01*
X-6461511Y2725151D01*
X-6477400Y2665852D01*
X-6477400Y2445635D01*
X-6496307Y2387444D01*
X-6506396Y2375631D01*
X-7629531Y1252496D01*
X-7684048Y1224719D01*
X-7699535Y1223500D01*
X-9736022Y1223500D01*
X-9794213Y1242407D01*
X-9806025Y1252496D01*
X-9872032Y1318502D01*
X-9872035Y1318505D01*
X-9991864Y1387688D01*
X-10125517Y1423500D01*
X-10263883Y1423500D01*
X-10397536Y1387688D01*
X-10517365Y1318505D01*
X-10615205Y1220665D01*
X-10684388Y1100836D01*
X-10720200Y967183D01*
X-10720200Y828817D01*
X-10684388Y695164D01*
X-10615205Y575335D01*
X-10517365Y477495D01*
X-10397536Y408312D01*
X-10263883Y372500D01*
X-10263881Y372500D01*
X-10162154Y372500D01*
X-10103963Y353593D01*
X-10067999Y304093D01*
X-10067999Y242907D01*
X-10103963Y193407D01*
X-10112647Y187767D01*
X-10119165Y184005D01*
X-10217005Y86165D01*
X-10286188Y-33664D01*
X-10322000Y-167317D01*
X-10322000Y-305683D01*
X-10286188Y-439336D01*
X-10217005Y-559165D01*
X-10119165Y-657005D01*
X-9999336Y-726188D01*
X-9865683Y-762000D01*
X-9865681Y-762000D01*
X-9727319Y-762000D01*
X-9727317Y-762000D01*
X-9593664Y-726188D01*
X-9473835Y-657005D01*
X-9473832Y-657002D01*
X-9407825Y-590996D01*
X-9353308Y-563219D01*
X-9337822Y-562000D01*
X-8197749Y-562000D01*
X-8197747Y-562000D01*
X-8114961Y-539818D01*
X-8114958Y-539816D01*
X-8114956Y-539816D01*
X-8040742Y-496968D01*
X-8040741Y-496967D01*
X-8040740Y-496966D01*
X-8040738Y-496965D01*
X-5270958Y2272815D01*
X-5216441Y2300592D01*
X-5156009Y2291021D01*
X-5112744Y2247756D01*
X-5103173Y2187324D01*
X-5110446Y2162693D01*
X-5124146Y2131788D01*
X-5130721Y2115917D01*
X-5222576Y1877790D01*
X-5228364Y1861615D01*
X-5308424Y1619268D01*
X-5313411Y1602829D01*
X-5381484Y1356846D01*
X-5385658Y1340182D01*
X-5441579Y1091155D01*
X-5444930Y1074306D01*
X-5469945Y930143D01*
X-5488565Y822838D01*
X-5488565Y822835D01*
X-5491085Y805842D01*
X-5522328Y552532D01*
X-5524012Y535436D01*
X-5542788Y280899D01*
X-5543630Y263741D01*
X-5549894Y8589D01*
X-5549894Y8565D01*
X-5550000Y37D01*
X-5550000Y-7706107D01*
X-5568059Y-7763112D01*
X-5636123Y-7859756D01*
X-5690707Y-7937260D01*
X-5700251Y-7951544D01*
X-5870934Y-8221082D01*
X-5879766Y-8235817D01*
X-6037018Y-8513406D01*
X-6045116Y-8528557D01*
X-6094590Y-8626845D01*
X-6188565Y-8813540D01*
X-6195893Y-8829034D01*
X-6195903Y-8829057D01*
X-6325190Y-9120723D01*
X-6331764Y-9136594D01*
X-6331772Y-9136615D01*
X-6446569Y-9434214D01*
X-6446577Y-9434237D01*
X-6446583Y-9434252D01*
X-6452371Y-9450427D01*
X-6552447Y-9753360D01*
X-6557433Y-9769800D01*
X-6557439Y-9769821D01*
X-6578522Y-9846007D01*
X-6642524Y-10077279D01*
X-6646698Y-10093943D01*
X-6690937Y-10290946D01*
X-6716597Y-10405212D01*
X-6719954Y-10422091D01*
X-6741358Y-10545449D01*
X-6774494Y-10736415D01*
X-6777015Y-10753408D01*
X-6816068Y-11070044D01*
X-6817752Y-11087140D01*
X-6841222Y-11405312D01*
X-6842065Y-11422470D01*
X-6849894Y-11741410D01*
X-6849894Y-11741433D01*
X-6850000Y-11749962D01*
X-6850000Y-16165934D01*
X-6868907Y-16224125D01*
X-6918407Y-16260089D01*
X-6979593Y-16260089D01*
X-6989119Y-16256441D01*
X-7565256Y-16001057D01*
X-7569649Y-15998979D01*
X-8341267Y-15610579D01*
X-8345552Y-15608289D01*
X-9097196Y-15182487D01*
X-9101364Y-15179989D01*
X-9831210Y-14717821D01*
X-9835250Y-14715121D01*
X-10541535Y-14217699D01*
X-10545438Y-14214804D01*
X-10716700Y-14081150D01*
X-10750942Y-14030444D01*
X-10748840Y-13969295D01*
X-10711197Y-13921060D01*
X-10693678Y-13911640D01*
X-10362000Y-13774255D01*
X-10361999Y-13774254D01*
X-9906370Y-13424638D01*
X-9906369Y-13424637D01*
X-9906365Y-13424634D01*
X-9758067Y-13231369D01*
X-9556744Y-12969001D01*
X-9556743Y-12969000D01*
X-9336964Y-12438403D01*
X-9336962Y-12438397D01*
X-9262000Y-11869000D01*
X-9262000Y-11868999D01*
X-9336962Y-11299601D01*
X-9336964Y-11299595D01*
X-9556743Y-10769001D01*
X-9906360Y-10313370D01*
X-9906370Y-10313360D01*
X-10362001Y-9963743D01*
X-10892595Y-9743964D01*
X-10892601Y-9743962D01*
X-11461999Y-9669000D01*
X-11462001Y-9669000D01*
X-12031397Y-9743962D01*
X-12031399Y-9743962D01*
X-12031401Y-9743963D01*
X-12031403Y-9743964D01*
X-12562000Y-9963743D01*
X-12562001Y-9963744D01*
X-13017628Y-10313360D01*
X-13017629Y-10313361D01*
X-13017634Y-10313365D01*
X-13367255Y-10769000D01*
X-13535630Y-11175493D01*
X-13575366Y-11222017D01*
X-13634860Y-11236301D01*
X-13691388Y-11212886D01*
X-13705139Y-11198514D01*
X-14214796Y-10545449D01*
X-14217691Y-10541546D01*
X-14715121Y-9835250D01*
X-14717821Y-9831210D01*
X-15179989Y-9101364D01*
X-15182487Y-9097196D01*
X-15608293Y-8345544D01*
X-15610583Y-8341259D01*
X-15998979Y-7569649D01*
X-16001057Y-7565256D01*
X-16351142Y-6775477D01*
X-16353001Y-6770988D01*
X-16663899Y-5965015D01*
X-16665536Y-5960439D01*
X-16936516Y-5140171D01*
X-16937927Y-5135521D01*
X-17168331Y-4302944D01*
X-17169511Y-4298231D01*
X-17351698Y-3486920D01*
X-17355112Y-3471717D01*
X-16516800Y-3471717D01*
X-16516800Y-3610083D01*
X-16480988Y-3743736D01*
X-16411805Y-3863565D01*
X-16313965Y-3961405D01*
X-16194136Y-4030588D01*
X-16060483Y-4066400D01*
X-16060481Y-4066400D01*
X-15922119Y-4066400D01*
X-15922117Y-4066400D01*
X-15788464Y-4030588D01*
X-15668635Y-3961405D01*
X-15570795Y-3863565D01*
X-15501612Y-3743736D01*
X-15465800Y-3610083D01*
X-15465800Y-3516734D01*
X-15446893Y-3458543D01*
X-15436804Y-3446730D01*
X-15417270Y-3427196D01*
X-15362753Y-3399419D01*
X-15347266Y-3398200D01*
X-13129078Y-3398200D01*
X-13070887Y-3417107D01*
X-13059075Y-3427196D01*
X-13039540Y-3446730D01*
X-12993065Y-3493205D01*
X-12873236Y-3562388D01*
X-12739583Y-3598200D01*
X-12739581Y-3598200D01*
X-12601219Y-3598200D01*
X-12601217Y-3598200D01*
X-12467564Y-3562388D01*
X-12347735Y-3493205D01*
X-12249895Y-3395365D01*
X-12242755Y-3382999D01*
X-12197285Y-3342058D01*
X-12157019Y-3333500D01*
X-11576535Y-3333500D01*
X-11518344Y-3352407D01*
X-11506531Y-3362496D01*
X-11204496Y-3664531D01*
X-11176719Y-3719048D01*
X-11175500Y-3734535D01*
X-11175500Y-3900500D01*
X-11194407Y-3958691D01*
X-11243907Y-3994655D01*
X-11274500Y-3999500D01*
X-11374674Y-3999500D01*
X-11374684Y-3999501D01*
X-11447736Y-4014033D01*
X-11447737Y-4014033D01*
X-11447740Y-4014034D01*
X-11447742Y-4014035D01*
X-11530599Y-4069397D01*
X-11530601Y-4069399D01*
X-11585966Y-4152260D01*
X-11600500Y-4225326D01*
X-11600500Y-5774674D01*
X-11593116Y-5811793D01*
X-11600306Y-5872554D01*
X-11641837Y-5917485D01*
X-11701846Y-5929423D01*
X-11757412Y-5903809D01*
X-11760216Y-5901113D01*
X-11851632Y-5809697D01*
X-11904848Y-5778973D01*
X-11971464Y-5740512D01*
X-12105117Y-5704700D01*
X-12243483Y-5704700D01*
X-12377136Y-5740512D01*
X-12496965Y-5809695D01*
X-12594805Y-5907535D01*
X-12663988Y-6027364D01*
X-12699800Y-6161017D01*
X-12699800Y-6299383D01*
X-12663988Y-6433036D01*
X-12594805Y-6552865D01*
X-12496965Y-6650705D01*
X-12495287Y-6651673D01*
X-12493920Y-6653039D01*
X-12491816Y-6654655D01*
X-12492028Y-6654931D01*
X-12459041Y-6687913D01*
X-12434765Y-6729962D01*
X-9905866Y-9258859D01*
X-9905865Y-9258862D01*
X-9845262Y-9319465D01*
X-9808150Y-9340891D01*
X-9771039Y-9362318D01*
X-9688253Y-9384501D01*
X-9688251Y-9384501D01*
X-9596484Y-9384501D01*
X-9596468Y-9384500D01*
X-8880078Y-9384500D01*
X-8821887Y-9403407D01*
X-8810075Y-9413496D01*
X-8789356Y-9434214D01*
X-8744065Y-9479505D01*
X-8624236Y-9548688D01*
X-8490583Y-9584500D01*
X-8490581Y-9584500D01*
X-8352219Y-9584500D01*
X-8352217Y-9584500D01*
X-8218564Y-9548688D01*
X-8098735Y-9479505D01*
X-8000895Y-9381665D01*
X-7931712Y-9261836D01*
X-7895900Y-9128183D01*
X-7895900Y-8989817D01*
X-7931712Y-8856164D01*
X-8000895Y-8736335D01*
X-8098735Y-8638495D01*
X-8218564Y-8569312D01*
X-8352217Y-8533500D01*
X-8490583Y-8533500D01*
X-8624236Y-8569312D01*
X-8744065Y-8638495D01*
X-8744067Y-8638497D01*
X-8810075Y-8704504D01*
X-8864592Y-8732281D01*
X-8880078Y-8733500D01*
X-9469566Y-8733500D01*
X-9527757Y-8714593D01*
X-9539570Y-8704504D01*
X-11677170Y-6566901D01*
X-11704947Y-6512384D01*
X-11695376Y-6451952D01*
X-11692904Y-6447400D01*
X-11684613Y-6433039D01*
X-11684613Y-6433038D01*
X-11684612Y-6433035D01*
X-11648800Y-6299383D01*
X-11648800Y-6161017D01*
X-11681702Y-6038224D01*
X-11678499Y-5977122D01*
X-11639994Y-5929572D01*
X-11580893Y-5913737D01*
X-11531074Y-5930285D01*
X-11530601Y-5930601D01*
X-11447740Y-5985966D01*
X-11374674Y-6000500D01*
X-11374673Y-6000500D01*
X-10325327Y-6000500D01*
X-10325326Y-6000500D01*
X-10325320Y-6000498D01*
X-10325315Y-6000498D01*
X-10307808Y-5997015D01*
X-10252260Y-5985966D01*
X-10252255Y-5985962D01*
X-10243248Y-5982233D01*
X-10242413Y-5984248D01*
X-10196120Y-5971189D01*
X-10157389Y-5983773D01*
X-10156752Y-5982233D01*
X-10147746Y-5985961D01*
X-10147740Y-5985966D01*
X-10074674Y-6000500D01*
X-10074673Y-6000500D01*
X-9025327Y-6000500D01*
X-9025326Y-6000500D01*
X-9025320Y-6000498D01*
X-9025315Y-6000498D01*
X-9007808Y-5997015D01*
X-8952260Y-5985966D01*
X-8869399Y-5930601D01*
X-8869397Y-5930599D01*
X-8814035Y-5847742D01*
X-8814033Y-5847736D01*
X-8799501Y-5774684D01*
X-8799500Y-5774672D01*
X-8799500Y-5424500D01*
X-8780593Y-5366309D01*
X-8731093Y-5330345D01*
X-8700500Y-5325500D01*
X-8589549Y-5325500D01*
X-8589547Y-5325500D01*
X-8506761Y-5303318D01*
X-8506759Y-5303317D01*
X-8500493Y-5301638D01*
X-8500287Y-5302403D01*
X-8470609Y-5296500D01*
X-8334219Y-5296500D01*
X-8334217Y-5296500D01*
X-8200564Y-5260688D01*
X-8080735Y-5191505D01*
X-7982895Y-5093665D01*
X-7913712Y-4973836D01*
X-7877900Y-4840183D01*
X-7877900Y-4701817D01*
X-7913712Y-4568164D01*
X-7982895Y-4448335D01*
X-8080735Y-4350495D01*
X-8200564Y-4281312D01*
X-8334217Y-4245500D01*
X-8472583Y-4245500D01*
X-8606236Y-4281312D01*
X-8651001Y-4307157D01*
X-8710849Y-4319878D01*
X-8766744Y-4294991D01*
X-8797337Y-4242003D01*
X-8798585Y-4230118D01*
X-8799024Y-4230162D01*
X-8799501Y-4225315D01*
X-8814033Y-4152263D01*
X-8814035Y-4152257D01*
X-8869397Y-4069400D01*
X-8869400Y-4069397D01*
X-8952257Y-4014035D01*
X-8952263Y-4014033D01*
X-9025315Y-3999501D01*
X-9025325Y-3999500D01*
X-9025326Y-3999500D01*
X-10074674Y-3999500D01*
X-10074684Y-3999501D01*
X-10147736Y-4014033D01*
X-10147740Y-4014034D01*
X-10147742Y-4014035D01*
X-10156749Y-4017766D01*
X-10157583Y-4015751D01*
X-10203888Y-4028811D01*
X-10242613Y-4016227D01*
X-10243251Y-4017766D01*
X-10252259Y-4014034D01*
X-10252260Y-4014034D01*
X-10252261Y-4014033D01*
X-10252263Y-4014033D01*
X-10325315Y-3999501D01*
X-10325325Y-3999500D01*
X-10325326Y-3999500D01*
X-10325327Y-3999500D01*
X-10425500Y-3999500D01*
X-10483691Y-3980593D01*
X-10519655Y-3931093D01*
X-10524500Y-3900500D01*
X-10524500Y-3515848D01*
X-10539855Y-3458543D01*
X-10546682Y-3433062D01*
X-10589535Y-3358838D01*
X-10589535Y-3358837D01*
X-10589537Y-3358835D01*
X-10650137Y-3298234D01*
X-10650138Y-3298235D01*
X-11200842Y-2747531D01*
X-11275057Y-2704683D01*
X-11275055Y-2704683D01*
X-11319050Y-2692895D01*
X-11357847Y-2682500D01*
X-11357849Y-2682500D01*
X-12276423Y-2682500D01*
X-12334614Y-2663593D01*
X-12346420Y-2653509D01*
X-12347735Y-2652195D01*
X-12467564Y-2583012D01*
X-12601217Y-2547200D01*
X-12739583Y-2547200D01*
X-12873236Y-2583012D01*
X-12993065Y-2652195D01*
X-12993067Y-2652197D01*
X-13059075Y-2718204D01*
X-13113592Y-2745981D01*
X-13129078Y-2747200D01*
X-15480247Y-2747200D01*
X-15565953Y-2747200D01*
X-15648739Y-2769382D01*
X-15685388Y-2790542D01*
X-15722962Y-2812235D01*
X-15783565Y-2872838D01*
X-15783566Y-2872840D01*
X-15897130Y-2986404D01*
X-15951647Y-3014181D01*
X-15967134Y-3015400D01*
X-16060483Y-3015400D01*
X-16194136Y-3051212D01*
X-16313965Y-3120395D01*
X-16411805Y-3218235D01*
X-16480988Y-3338064D01*
X-16516800Y-3471717D01*
X-17355112Y-3471717D01*
X-17358784Y-3455366D01*
X-17358784Y-3455365D01*
X-17359732Y-3450599D01*
X-17507423Y-2599444D01*
X-17508136Y-2594638D01*
X-17613881Y-1737272D01*
X-17614358Y-1732436D01*
X-17677910Y-870884D01*
X-17678148Y-866031D01*
X-17699349Y-2430D01*
X-17699349Y2430D01*
X-17678148Y866031D01*
X-17677910Y870884D01*
X-17614358Y1732436D01*
X-17613881Y1737272D01*
X-17508136Y2594638D01*
X-17507423Y2599444D01*
X-17359732Y3450599D01*
X-17358784Y3455365D01*
X-17227623Y4039444D01*
X-17196426Y4092078D01*
X-17140249Y4116323D01*
X-17080550Y4102917D01*
X-17061025Y4087757D01*
X-17060638Y4087370D01*
X-17060634Y4087365D01*
X-17060629Y4087361D01*
X-17060628Y4087360D01*
X-16605001Y3737744D01*
X-16604999Y3737743D01*
X-16365994Y3638744D01*
X-16319469Y3599007D01*
X-16305185Y3539512D01*
X-16328600Y3482985D01*
X-16354376Y3461546D01*
X-16459065Y3401105D01*
X-16556905Y3303265D01*
X-16626088Y3183436D01*
X-16661900Y3049783D01*
X-16661900Y2911417D01*
X-16626088Y2777764D01*
X-16556905Y2657935D01*
X-16459065Y2560095D01*
X-16339236Y2490912D01*
X-16205583Y2455100D01*
X-16205581Y2455100D01*
X-16067219Y2455100D01*
X-16067217Y2455100D01*
X-15933564Y2490912D01*
X-15813735Y2560095D01*
X-15813734Y2560095D01*
X-15813732Y2560097D01*
X-15747725Y2626104D01*
X-15693208Y2653881D01*
X-15677722Y2655100D01*
X-11754774Y2655100D01*
X-11696583Y2636193D01*
X-11669038Y2605601D01*
X-11655605Y2582335D01*
X-11557765Y2484495D01*
X-11437936Y2415312D01*
X-11304283Y2379500D01*
X-11304281Y2379500D01*
X-11165919Y2379500D01*
X-11165917Y2379500D01*
X-11032264Y2415312D01*
X-10912435Y2484495D01*
X-10814595Y2582335D01*
X-10745412Y2702164D01*
X-10709600Y2835817D01*
X-10709600Y2974183D01*
X-10745412Y3107836D01*
X-10814595Y3227665D01*
X-10912435Y3325505D01*
X-11032264Y3394688D01*
X-11165917Y3430500D01*
X-11304283Y3430500D01*
X-11437936Y3394688D01*
X-11557765Y3325505D01*
X-11557767Y3325502D01*
X-11563384Y3322260D01*
X-11564256Y3323771D01*
X-11614076Y3306134D01*
X-11616660Y3306100D01*
X-15034410Y3306100D01*
X-15092601Y3325007D01*
X-15128565Y3374507D01*
X-15128565Y3435693D01*
X-15092601Y3485193D01*
X-15047332Y3503253D01*
X-14935601Y3517962D01*
X-14935595Y3517964D01*
X-14405001Y3737743D01*
X-13949370Y4087360D01*
X-13949360Y4087370D01*
X-13599744Y4542997D01*
X-13599743Y4542998D01*
X-13379964Y5073595D01*
X-13379962Y5073601D01*
X-13305000Y5642999D01*
X-13305000Y5643000D01*
X-13379962Y6212397D01*
X-13379964Y6212403D01*
X-13599743Y6742997D01*
X-13599744Y6742999D01*
X-13949365Y7198634D01*
X-14405000Y7548255D01*
X-14935598Y7768036D01*
X-15364518Y7824505D01*
X-15504999Y7843000D01*
X-15504999Y7842999D01*
X-15505000Y7843000D01*
X-15701228Y7817165D01*
X-15761387Y7828315D01*
X-15803505Y7872697D01*
X-15811491Y7933359D01*
X-15802578Y7959829D01*
X-15610583Y8341258D01*
X-15608293Y8345544D01*
X-15182487Y9097196D01*
X-15179989Y9101364D01*
X-14717821Y9831210D01*
X-14715121Y9835250D01*
X-14217691Y10541546D01*
X-14214796Y10545449D01*
X-13683317Y11226476D01*
X-13680235Y11230232D01*
X-13115987Y11884352D01*
X-13112723Y11887953D01*
X-12517046Y12513612D01*
X-12513611Y12517047D01*
X-11887963Y13112714D01*
X-11884362Y13115978D01*
X-11230211Y13680252D01*
X-11226455Y13683334D01*
X-10545438Y14214804D01*
X-10541535Y14217699D01*
X-9835250Y14715121D01*
X-9831210Y14717821D01*
X-9101364Y15179989D01*
X-9097196Y15182487D01*
X-8345552Y15608289D01*
X-8341267Y15610579D01*
X-7569649Y15998979D01*
X-7565256Y16001057D01*
X-6775477Y16351142D01*
X-6770988Y16353001D01*
X-5965015Y16663899D01*
X-5960439Y16665536D01*
X-5140171Y16936516D01*
X-5135521Y16937927D01*
X-4302944Y17168331D01*
X-4298231Y17169511D01*
X-3455365Y17358784D01*
X-3450599Y17359732D01*
X-2599444Y17507423D01*
X-2594638Y17508136D01*
X-1737272Y17613881D01*
X-1732436Y17614358D01*
X-870884Y17677910D01*
X-866031Y17678148D01*
X-2430Y17699349D01*
X2430Y17699349D01*
X866031Y17678148D01*
G37*
%TD.AperFunction*%
%TD*%
M02*
