%TF.GenerationSoftware,KiCad,Pcbnew,10.0.6*%
%TF.CreationDate,2026-09-29T01:28:05+02:00*%
%TF.ProjectId,shotpuck,73686f74-7075-4636-9b2e-6b696361645f,rev?*%
%TF.SameCoordinates,Original*%
%TF.FileFunction,Soldermask,Top*%
%TF.FilePolarity,Negative*%
%FSLAX46Y46*%
G04 Gerber Fmt 4.6, Leading zero omitted, Abs format (unit mm)*
G04 Created by KiCad (PCBNEW 10.0.6) date 2026-09-29 01:28:05*
%MOMM*%
%LPD*%
G01*
G04 APERTURE LIST*
G04 Aperture macros list*
%AMRoundRect*
0 Rectangle with rounded corners*
0 $1 Rounding radius*
0 $2 $3 $4 $5 $6 $7 $8 $9 X,Y pos of 4 corners*
0 Add a 4 corners polygon primitive as box body*
4,1,4,$2,$3,$4,$5,$6,$7,$8,$9,$2,$3,0*
0 Add four circle primitives for the rounded corners*
1,1,$1+$1,$2,$3*
1,1,$1+$1,$4,$5*
1,1,$1+$1,$6,$7*
1,1,$1+$1,$8,$9*
0 Add four rect primitives between the rounded corners*
20,1,$1+$1,$2,$3,$4,$5,0*
20,1,$1+$1,$4,$5,$6,$7,0*
20,1,$1+$1,$6,$7,$8,$9,0*
20,1,$1+$1,$8,$9,$2,$3,0*%
%AMRotRect*
0 Rectangle, with rotation*
0 The origin of the aperture is its center*
0 $1 length*
0 $2 width*
0 $3 Rotation angle, in degrees counterclockwise*
0 Add horizontal line*
21,1,$1,$2,0,0,$3*%
G04 Aperture macros list end*
%ADD10RoundRect,0.140000X0.140000X0.170000X-0.140000X0.170000X-0.140000X-0.170000X0.140000X-0.170000X0*%
%ADD11RoundRect,0.070000X0.355000X-0.070000X0.355000X0.070000X-0.355000X0.070000X-0.355000X-0.070000X0*%
%ADD12RoundRect,0.070000X0.305000X-0.070000X0.305000X0.070000X-0.305000X0.070000X-0.305000X-0.070000X0*%
%ADD13RoundRect,0.225000X-0.225000X-0.250000X0.225000X-0.250000X0.225000X0.250000X-0.225000X0.250000X0*%
%ADD14RoundRect,0.140000X-0.140000X-0.170000X0.140000X-0.170000X0.140000X0.170000X-0.140000X0.170000X0*%
%ADD15R,0.400000X0.600000*%
%ADD16R,0.600000X0.400000*%
%ADD17RoundRect,0.140000X0.170000X-0.140000X0.170000X0.140000X-0.170000X0.140000X-0.170000X-0.140000X0*%
%ADD18RoundRect,0.135000X-0.185000X0.135000X-0.185000X-0.135000X0.185000X-0.135000X0.185000X0.135000X0*%
%ADD19RoundRect,0.147500X-0.147500X-0.172500X0.147500X-0.172500X0.147500X0.172500X-0.147500X0.172500X0*%
%ADD20RotRect,2.500000X2.000000X239.984259*%
%ADD21RotRect,2.500000X2.000000X279.944731*%
%ADD22C,2.400000*%
%ADD23RoundRect,0.135000X0.185000X-0.135000X0.185000X0.135000X-0.185000X0.135000X-0.185000X-0.135000X0*%
%ADD24RoundRect,0.087500X-0.087500X0.225000X-0.087500X-0.225000X0.087500X-0.225000X0.087500X0.225000X0*%
%ADD25RoundRect,0.087500X-0.225000X0.087500X-0.225000X-0.087500X0.225000X-0.087500X0.225000X0.087500X0*%
%ADD26RoundRect,0.125000X0.125000X-0.125000X0.125000X0.125000X-0.125000X0.125000X-0.125000X-0.125000X0*%
%ADD27RoundRect,0.135000X0.135000X0.185000X-0.135000X0.185000X-0.135000X-0.185000X0.135000X-0.185000X0*%
%ADD28RoundRect,0.150000X-0.512500X-0.150000X0.512500X-0.150000X0.512500X0.150000X-0.512500X0.150000X0*%
%ADD29RoundRect,0.087500X-0.425000X-0.087500X0.425000X-0.087500X0.425000X0.087500X-0.425000X0.087500X0*%
%ADD30RoundRect,0.125000X-0.125000X-0.125000X0.125000X-0.125000X0.125000X0.125000X-0.125000X0.125000X0*%
%ADD31RotRect,1.300000X1.300000X75.000000*%
%ADD32C,1.300000*%
%ADD33RoundRect,0.135000X-0.135000X-0.185000X0.135000X-0.185000X0.135000X0.185000X-0.135000X0.185000X0*%
%ADD34RoundRect,0.250000X-0.300000X-0.300000X0.300000X-0.300000X0.300000X0.300000X-0.300000X0.300000X0*%
G04 APERTURE END LIST*
D10*
%TO.C,C4*%
X-10220000Y9100000D03*
X-11180000Y9100000D03*
%TD*%
D11*
%TO.C,U4*%
X-12875000Y-9500000D03*
D12*
X-12825000Y-9000000D03*
X-12825000Y-8500000D03*
X-13975000Y-8500000D03*
X-13975000Y-9000000D03*
X-13975000Y-9500000D03*
%TD*%
D13*
%TO.C,C1*%
X5825000Y2900000D03*
X7375000Y2900000D03*
%TD*%
D14*
%TO.C,C8*%
X-14080000Y-6900000D03*
X-13120000Y-6900000D03*
%TD*%
D15*
%TO.C,U1*%
X3800000Y15400000D03*
X2700000Y15400000D03*
X1900000Y15400000D03*
X300000Y15400000D03*
X-100000Y14500000D03*
X-500000Y15400000D03*
X-900000Y14500000D03*
X-1300000Y15400000D03*
X-1700000Y14500000D03*
X-2100000Y15400000D03*
X-2500000Y14500000D03*
X-2900000Y15400000D03*
X-3300000Y14500000D03*
X-3700000Y15400000D03*
D16*
X-7100000Y15550000D03*
X-7100000Y14750000D03*
X-7100000Y13950000D03*
X-7100000Y13150000D03*
X-6200000Y12750000D03*
X-7100000Y12350000D03*
X-6200000Y11950000D03*
X-7100000Y11550000D03*
X-6200000Y11150000D03*
X-7100000Y10750000D03*
X-6200000Y10350000D03*
X-7100000Y9950000D03*
X-6200000Y9550000D03*
X-7100000Y9150000D03*
X-6200000Y8750000D03*
X-7100000Y8350000D03*
X-7100000Y7550000D03*
X-7100000Y6750000D03*
X-7100000Y5950000D03*
D15*
X-6100000Y6100000D03*
X-5300000Y6100000D03*
X-4900000Y7000000D03*
X-4500000Y6100000D03*
X-4100000Y7000000D03*
X-3700000Y6100000D03*
X-3300000Y7000000D03*
X-2900000Y6100000D03*
X-2500000Y7000000D03*
X-1700000Y7000000D03*
X-1300000Y6100000D03*
X-900000Y7000000D03*
X-500000Y6100000D03*
X-100000Y7000000D03*
X300000Y6100000D03*
X700000Y7000000D03*
X1500000Y7000000D03*
X1900000Y6100000D03*
X2300000Y7000000D03*
X2700000Y6100000D03*
X3100000Y7000000D03*
X3800000Y6100000D03*
D16*
X-500000Y12750000D03*
X-500000Y11950000D03*
X-500000Y11150000D03*
X-500000Y10350000D03*
X-500000Y9550000D03*
X-500000Y8750000D03*
%TD*%
D17*
%TO.C,C7*%
X-12600000Y8720000D03*
X-12600000Y9680000D03*
%TD*%
D18*
%TO.C,R9*%
X-8800000Y2910000D03*
X-8800000Y1890000D03*
%TD*%
D19*
%TO.C,D4*%
X-7085000Y4440000D03*
X-6115000Y4440000D03*
%TD*%
D20*
%TO.C,BT1*%
X-7270000Y-7550000D03*
D21*
X-8270000Y-13199999D03*
%TD*%
D22*
%TO.C,H3*%
X9464011Y-13516008D03*
%TD*%
D10*
%TO.C,C5*%
X-10220000Y6900000D03*
X-11180000Y6900000D03*
%TD*%
D17*
%TO.C,C6*%
X-12400000Y10720000D03*
X-12400000Y11680000D03*
%TD*%
D23*
%TO.C,R1*%
X-15200000Y-2010000D03*
X-15200000Y-990000D03*
%TD*%
D22*
%TO.C,H2*%
X-15504928Y5643332D03*
%TD*%
D24*
%TO.C,U2*%
X-9450000Y12662500D03*
X-9950000Y12662500D03*
X-10450000Y12662500D03*
X-10950000Y12662500D03*
D25*
X-11112500Y12000000D03*
X-11112500Y11500000D03*
X-11112500Y11000000D03*
D24*
X-10950000Y10337500D03*
X-10450000Y10337500D03*
X-9950000Y10337500D03*
X-9450000Y10337500D03*
D25*
X-9287500Y11000000D03*
X-9287500Y11500000D03*
X-9287500Y12000000D03*
%TD*%
D13*
%TO.C,C2*%
X-14175000Y-4099999D03*
X-12625000Y-4099999D03*
%TD*%
D17*
%TO.C,C9*%
X-7800000Y1320000D03*
X-7800000Y2280000D03*
%TD*%
D10*
%TO.C,C3*%
X-10220000Y8000000D03*
X-11180000Y8000000D03*
%TD*%
D26*
%TO.C,D2*%
X-9000000Y-2400000D03*
X-9000000Y-200000D03*
%TD*%
D27*
%TO.C,R4*%
X-4090000Y4440000D03*
X-5110000Y4440000D03*
%TD*%
D28*
%TO.C,U3*%
X-13537500Y-550000D03*
X-13537500Y-1500000D03*
X-13537500Y-2450000D03*
X-11262500Y-2450000D03*
X-11262500Y-550000D03*
%TD*%
D29*
%TO.C,Q2*%
X-11437500Y-8350000D03*
X-11437500Y-9000000D03*
X-11437500Y-9650000D03*
X-9762500Y-9650000D03*
X-9762500Y-9000000D03*
X-9762500Y-8350000D03*
%TD*%
D30*
%TO.C,D1*%
X8850000Y2600000D03*
X11050000Y2600000D03*
%TD*%
D23*
%TO.C,R2*%
X-15600000Y1090000D03*
X-15600000Y2110000D03*
%TD*%
D31*
%TO.C,J1*%
X13196476Y-4827407D03*
D32*
X13843524Y-2412593D03*
%TD*%
D33*
%TO.C,R8*%
X-13110000Y-10900000D03*
X-12090000Y-10900000D03*
%TD*%
D34*
%TO.C,D3*%
X7200000Y400000D03*
X10000000Y400000D03*
%TD*%
D23*
%TO.C,R7*%
X-15400000Y-5810000D03*
X-15400000Y-4790000D03*
%TD*%
%TO.C,R3*%
X-10300000Y1690000D03*
X-10300000Y2710000D03*
%TD*%
D29*
%TO.C,Q1*%
X-14037500Y2850000D03*
X-14037500Y2200000D03*
X-14037500Y1550000D03*
X-12362500Y1550000D03*
X-12362500Y2200000D03*
X-12362500Y2850000D03*
%TD*%
D22*
%TO.C,H1*%
X12639733Y10605995D03*
%TD*%
M02*
