%TF.GenerationSoftware,KiCad,Pcbnew,10.0.6*%
%TF.CreationDate,2026-09-26T23:25:40+02:00*%
%TF.ProjectId,shotpuck,73686f74-7075-4636-9b2e-6b696361645f,rev?*%
%TF.SameCoordinates,Original*%
%TF.FileFunction,Soldermask,Top*%
%TF.FilePolarity,Negative*%
%FSLAX46Y46*%
G04 Gerber Fmt 4.6, Leading zero omitted, Abs format (unit mm)*
G04 Created by KiCad (PCBNEW 10.0.6) date 2026-09-26 23:25:40*
%MOMM*%
%LPD*%
G01*
G04 APERTURE LIST*
G04 Aperture macros list*
%AMRoundRect*
0 Rectangle with rounded corners*
0 $1 Rounding radius*
0 $2 $3 $4 $5 $6 $7 $8 $9 X,Y pos of 4 corners*
0 Add a 4 corners polygon primitive as box body*
4,1,4,$2,$3,$4,$5,$6,$7,$8,$9,$2,$3,0*
0 Add four circle primitives for the rounded corners*
1,1,$1+$1,$2,$3*
1,1,$1+$1,$4,$5*
1,1,$1+$1,$6,$7*
1,1,$1+$1,$8,$9*
0 Add four rect primitives between the rounded corners*
20,1,$1+$1,$2,$3,$4,$5,0*
20,1,$1+$1,$4,$5,$6,$7,0*
20,1,$1+$1,$6,$7,$8,$9,0*
20,1,$1+$1,$8,$9,$2,$3,0*%
G04 Aperture macros list end*
%ADD10RoundRect,0.135000X0.185000X-0.135000X0.185000X0.135000X-0.185000X0.135000X-0.185000X-0.135000X0*%
%ADD11RoundRect,0.140000X-0.140000X-0.170000X0.140000X-0.170000X0.140000X0.170000X-0.140000X0.170000X0*%
%ADD12RoundRect,0.125000X0.125000X-0.125000X0.125000X0.125000X-0.125000X0.125000X-0.125000X-0.125000X0*%
%ADD13RoundRect,0.150000X0.150000X0.200000X-0.150000X0.200000X-0.150000X-0.200000X0.150000X-0.200000X0*%
%ADD14RoundRect,0.087500X-0.425000X-0.087500X0.425000X-0.087500X0.425000X0.087500X-0.425000X0.087500X0*%
%ADD15RoundRect,0.225000X-0.225000X-0.250000X0.225000X-0.250000X0.225000X0.250000X-0.225000X0.250000X0*%
%ADD16C,1.800000*%
%ADD17R,0.400000X0.600000*%
%ADD18R,0.600000X0.400000*%
%ADD19RoundRect,0.135000X-0.135000X-0.185000X0.135000X-0.185000X0.135000X0.185000X-0.135000X0.185000X0*%
%ADD20RoundRect,0.087500X-0.087500X0.225000X-0.087500X-0.225000X0.087500X-0.225000X0.087500X0.225000X0*%
%ADD21RoundRect,0.087500X-0.225000X0.087500X-0.225000X-0.087500X0.225000X-0.087500X0.225000X0.087500X0*%
%ADD22RoundRect,0.225000X0.250000X-0.225000X0.250000X0.225000X-0.250000X0.225000X-0.250000X-0.225000X0*%
%ADD23RoundRect,0.140000X0.140000X0.170000X-0.140000X0.170000X-0.140000X-0.170000X0.140000X-0.170000X0*%
%ADD24RoundRect,0.150000X-0.512500X-0.150000X0.512500X-0.150000X0.512500X0.150000X-0.512500X0.150000X0*%
%ADD25RoundRect,0.125000X0.125000X0.125000X-0.125000X0.125000X-0.125000X-0.125000X0.125000X-0.125000X0*%
%ADD26RoundRect,0.147500X0.147500X0.172500X-0.147500X0.172500X-0.147500X-0.172500X0.147500X-0.172500X0*%
%ADD27R,1.000000X1.500000*%
%ADD28C,0.990600*%
%ADD29C,0.787400*%
%ADD30R,1.500000X1.500000*%
%ADD31C,1.500000*%
%ADD32R,3.000000X2.200000*%
G04 APERTURE END LIST*
%TO.C,JP1*%
G36*
X5150000Y-9250000D02*
G01*
X5450000Y-9250000D01*
X5450000Y-10750000D01*
X5150000Y-10750000D01*
X5150000Y-9250000D01*
G37*
%TD*%
D10*
%TO.C,R6*%
X100000Y-11310000D03*
X100000Y-10290000D03*
%TD*%
D11*
%TO.C,C7*%
X-4830000Y-10500000D03*
X-3870000Y-10500000D03*
%TD*%
D12*
%TO.C,D2*%
X13000000Y-11100000D03*
X13000000Y-8900000D03*
%TD*%
D13*
%TO.C,D3*%
X-3200000Y15500000D03*
X-1800000Y15500000D03*
%TD*%
D14*
%TO.C,Q1*%
X8362500Y-11950000D03*
X8362500Y-12600000D03*
X8362500Y-13250000D03*
X10037500Y-13250000D03*
X10037500Y-12600000D03*
X10037500Y-11950000D03*
%TD*%
D15*
%TO.C,C1*%
X9425000Y13200000D03*
X10975000Y13200000D03*
%TD*%
D11*
%TO.C,C3*%
X620000Y6900000D03*
X1580000Y6900000D03*
%TD*%
D10*
%TO.C,R5*%
X-1000000Y-9810000D03*
X-1000000Y-8790000D03*
%TD*%
D16*
%TO.C,H1*%
X14722431Y8499999D03*
%TD*%
D10*
%TO.C,R3*%
X11500000Y-13110000D03*
X11500000Y-12090000D03*
%TD*%
D17*
%TO.C,U1*%
X-13000000Y-4650000D03*
X-11900000Y-4650000D03*
X-11100000Y-4650000D03*
X-9500000Y-4650000D03*
X-9100000Y-3750000D03*
X-8700000Y-4650000D03*
X-8300000Y-3750000D03*
X-7900000Y-4650000D03*
X-7500000Y-3750000D03*
X-7100000Y-4650000D03*
X-6700000Y-3750000D03*
X-6300000Y-4650000D03*
X-5900000Y-3750000D03*
X-5500000Y-4650000D03*
D18*
X-2100000Y-4800000D03*
X-2100000Y-4000000D03*
X-2100000Y-3200000D03*
X-2100000Y-2400000D03*
X-3000000Y-2000000D03*
X-2100000Y-1600000D03*
X-3000000Y-1200000D03*
X-2100000Y-800000D03*
X-3000000Y-400000D03*
X-2100000Y0D03*
X-3000000Y400000D03*
X-2100000Y800000D03*
X-3000000Y1200000D03*
X-2100000Y1600000D03*
X-3000000Y2000000D03*
X-2100000Y2400000D03*
X-2100000Y3200000D03*
X-2100000Y4000000D03*
X-2100000Y4800000D03*
D17*
X-3100000Y4650000D03*
X-3900000Y4650000D03*
X-4300000Y3750000D03*
X-4700000Y4650000D03*
X-5100000Y3750000D03*
X-5500000Y4650000D03*
X-5900000Y3750000D03*
X-6300000Y4650000D03*
X-6700000Y3750000D03*
X-7500000Y3750000D03*
X-7900000Y4650000D03*
X-8300000Y3750000D03*
X-8700000Y4650000D03*
X-9100000Y3750000D03*
X-9500000Y4650000D03*
X-9900000Y3750000D03*
X-10700000Y3750000D03*
X-11100000Y4650000D03*
X-11500000Y3750000D03*
X-11900000Y4650000D03*
X-12300000Y3750000D03*
X-13000000Y4650000D03*
D18*
X-8700000Y-2000000D03*
X-8700000Y-1200000D03*
X-8700000Y-400000D03*
X-8700000Y400000D03*
X-8700000Y1200000D03*
X-8700000Y2000000D03*
%TD*%
D10*
%TO.C,R1*%
X6900000Y-14110000D03*
X6900000Y-13090000D03*
%TD*%
D19*
%TO.C,R4*%
X-7410000Y7400000D03*
X-6390000Y7400000D03*
%TD*%
D20*
%TO.C,U2*%
X-2850000Y-7037499D03*
X-3350000Y-7037499D03*
X-3850000Y-7037499D03*
X-4350000Y-7037499D03*
D21*
X-4512500Y-7699999D03*
X-4512500Y-8199999D03*
X-4512500Y-8699999D03*
D20*
X-4350000Y-9362499D03*
X-3850000Y-9362499D03*
X-3350000Y-9362499D03*
X-2850000Y-9362499D03*
D21*
X-2687500Y-8699999D03*
X-2687500Y-8199999D03*
X-2687500Y-7699999D03*
%TD*%
D22*
%TO.C,C2*%
X2400000Y-10975000D03*
X2400000Y-9425000D03*
%TD*%
D23*
%TO.C,C6*%
X-5620000Y-7200000D03*
X-6580000Y-7200000D03*
%TD*%
D24*
%TO.C,U3*%
X2762500Y-12450000D03*
X2762500Y-13400000D03*
X2762500Y-14350000D03*
X5037500Y-14350000D03*
X5037500Y-12450000D03*
%TD*%
D25*
%TO.C,D1*%
X8000000Y12900000D03*
X5800000Y12900000D03*
%TD*%
D16*
%TO.C,H3*%
X0Y-17000000D03*
%TD*%
D26*
%TO.C,D4*%
X-4415000Y7400000D03*
X-5385000Y7400000D03*
%TD*%
D27*
%TO.C,JP1*%
X4650000Y-10000000D03*
X5950000Y-10000000D03*
%TD*%
D28*
%TO.C,J2*%
X-11540000Y11000000D03*
X-6460000Y12016000D03*
X-6460000Y9984000D03*
D29*
X-10270000Y10365000D03*
X-10270000Y11635000D03*
X-9000000Y10365000D03*
X-9000000Y11635000D03*
X-7730000Y10365000D03*
X-7730000Y11635000D03*
%TD*%
D19*
%TO.C,R2*%
X8290000Y-14600000D03*
X9310000Y-14600000D03*
%TD*%
D30*
%TO.C,J1*%
X-1250000Y12000000D03*
D31*
X1250000Y12000000D03*
%TD*%
D11*
%TO.C,C5*%
X-1780000Y8100000D03*
X-820000Y8100000D03*
%TD*%
D32*
%TO.C,BT1*%
X8500000Y-9400000D03*
X8500000Y9400000D03*
%TD*%
D11*
%TO.C,C4*%
X-1780000Y6900000D03*
X-820000Y6900000D03*
%TD*%
D16*
%TO.C,H2*%
X-14722431Y8499999D03*
%TD*%
M02*
