%TF.GenerationSoftware,KiCad,Pcbnew,10.0.6*%
%TF.CreationDate,2026-10-01T09:06:45+02:00*%
%TF.ProjectId,shotpuck,73686f74-7075-4636-9b2e-6b696361645f,rev?*%
%TF.SameCoordinates,Original*%
%TF.FileFunction,Copper,L1,Top*%
%TF.FilePolarity,Positive*%
%FSLAX46Y46*%
G04 Gerber Fmt 4.6, Leading zero omitted, Abs format (unit mm)*
G04 Created by KiCad (PCBNEW 10.0.6) date 2026-10-01 09:06:45*
%MOMM*%
%LPD*%
G01*
G04 APERTURE LIST*
G04 Aperture macros list*
%AMRoundRect*
0 Rectangle with rounded corners*
0 $1 Rounding radius*
0 $2 $3 $4 $5 $6 $7 $8 $9 X,Y pos of 4 corners*
0 Add a 4 corners polygon primitive as box body*
4,1,4,$2,$3,$4,$5,$6,$7,$8,$9,$2,$3,0*
0 Add four circle primitives for the rounded corners*
1,1,$1+$1,$2,$3*
1,1,$1+$1,$4,$5*
1,1,$1+$1,$6,$7*
1,1,$1+$1,$8,$9*
0 Add four rect primitives between the rounded corners*
20,1,$1+$1,$2,$3,$4,$5,0*
20,1,$1+$1,$4,$5,$6,$7,0*
20,1,$1+$1,$6,$7,$8,$9,0*
20,1,$1+$1,$8,$9,$2,$3,0*%
%AMRotRect*
0 Rectangle, with rotation*
0 The origin of the aperture is its center*
0 $1 length*
0 $2 width*
0 $3 Rotation angle, in degrees counterclockwise*
0 Add horizontal line*
21,1,$1,$2,0,0,$3*%
%AMFreePoly0*
4,1,30,0.497501,0.387700,0.456400,0.363000,0.408700,0.327701,0.364700,0.287800,0.324799,0.243800,0.289500,0.196100,0.258900,0.145200,0.233600,0.091500,0.213600,0.035600,0.199100,-0.022001,0.190400,-0.080700,0.187500,-0.140000,0.190400,-0.199300,0.199100,-0.257999,0.213600,-0.315600,0.233600,-0.371501,0.258900,-0.425200,0.289500,-0.476100,0.324801,-0.523800,0.364700,-0.567800,
0.408700,-0.607700,0.456400,-0.643000,0.497501,-0.667700,0.497500,-1.005000,-0.452500,-1.005000,-0.452500,1.164300,-0.449000,1.188000,-0.441300,1.344999,0.497500,1.345000,0.497501,0.387700,0.497501,0.387700,$1*%
%AMFreePoly1*
4,1,30,0.442800,1.197900,0.452500,1.132300,0.452500,-1.005000,-0.497500,-1.005000,-0.497500,-0.667700,-0.456400,-0.643001,-0.408700,-0.607700,-0.364700,-0.567800,-0.324800,-0.523800,-0.289500,-0.476100,-0.258900,-0.425200,-0.233600,-0.371500,-0.213600,-0.315600,-0.199100,-0.258000,-0.190400,-0.199300,-0.187500,-0.140000,-0.190400,-0.080700,-0.199100,-0.022000,-0.213600,0.035600,-0.233600,0.091500,
-0.258900,0.145200,-0.289500,0.196100,-0.324800,0.243800,-0.364700,0.287800,-0.408700,0.327700,-0.456400,0.363000,-0.497500,0.387700,-0.497500,1.345000,0.435500,1.344999,0.442800,1.197900,0.442800,1.197900,$1*%
G04 Aperture macros list end*
%TA.AperFunction,SMDPad,CuDef*%
%ADD10RoundRect,0.070000X0.355000X-0.070000X0.355000X0.070000X-0.355000X0.070000X-0.355000X-0.070000X0*%
%TD*%
%TA.AperFunction,SMDPad,CuDef*%
%ADD11RoundRect,0.070000X0.305000X-0.070000X0.305000X0.070000X-0.305000X0.070000X-0.305000X-0.070000X0*%
%TD*%
%TA.AperFunction,SMDPad,CuDef*%
%ADD12C,0.800000*%
%TD*%
%TA.AperFunction,SMDPad,CuDef*%
%ADD13RoundRect,0.250000X0.000000X-0.424264X0.424264X0.000000X0.000000X0.424264X-0.424264X0.000000X0*%
%TD*%
%TA.AperFunction,SMDPad,CuDef*%
%ADD14RoundRect,0.140000X-0.140000X-0.170000X0.140000X-0.170000X0.140000X0.170000X-0.140000X0.170000X0*%
%TD*%
%TA.AperFunction,SMDPad,CuDef*%
%ADD15RotRect,0.500000X0.500000X135.000000*%
%TD*%
%TA.AperFunction,SMDPad,CuDef*%
%ADD16RoundRect,0.135000X-0.135000X-0.185000X0.135000X-0.185000X0.135000X0.185000X-0.135000X0.185000X0*%
%TD*%
%TA.AperFunction,SMDPad,CuDef*%
%ADD17RoundRect,0.140000X-0.021213X0.219203X-0.219203X0.021213X0.021213X-0.219203X0.219203X-0.021213X0*%
%TD*%
%TA.AperFunction,SMDPad,CuDef*%
%ADD18RoundRect,0.147500X0.158988X-0.161973X0.184699X0.131904X-0.158988X0.161973X-0.184699X-0.131904X0*%
%TD*%
%TA.AperFunction,SMDPad,CuDef*%
%ADD19RoundRect,0.135000X-0.035355X0.226274X-0.226274X0.035355X0.035355X-0.226274X0.226274X-0.035355X0*%
%TD*%
%TA.AperFunction,SMDPad,CuDef*%
%ADD20RoundRect,0.135000X-0.185000X0.135000X-0.185000X-0.135000X0.185000X-0.135000X0.185000X0.135000X0*%
%TD*%
%TA.AperFunction,SMDPad,CuDef*%
%ADD21RoundRect,0.140000X0.021213X-0.219203X0.219203X-0.021213X-0.021213X0.219203X-0.219203X0.021213X0*%
%TD*%
%TA.AperFunction,SMDPad,CuDef*%
%ADD22RoundRect,0.225000X0.250000X-0.225000X0.250000X0.225000X-0.250000X0.225000X-0.250000X-0.225000X0*%
%TD*%
%TA.AperFunction,SMDPad,CuDef*%
%ADD23RoundRect,0.087500X0.097227X0.220971X-0.220971X-0.097227X-0.097227X-0.220971X0.220971X0.097227X0*%
%TD*%
%TA.AperFunction,SMDPad,CuDef*%
%ADD24RoundRect,0.087500X-0.097227X0.220971X-0.220971X0.097227X0.097227X-0.220971X0.220971X-0.097227X0*%
%TD*%
%TA.AperFunction,SMDPad,CuDef*%
%ADD25RoundRect,0.087500X-0.425000X-0.087500X0.425000X-0.087500X0.425000X0.087500X-0.425000X0.087500X0*%
%TD*%
%TA.AperFunction,SMDPad,CuDef*%
%ADD26RoundRect,0.140000X0.219203X0.021213X0.021213X0.219203X-0.219203X-0.021213X-0.021213X-0.219203X0*%
%TD*%
%TA.AperFunction,SMDPad,CuDef*%
%ADD27RoundRect,0.135000X0.185000X-0.135000X0.185000X0.135000X-0.185000X0.135000X-0.185000X-0.135000X0*%
%TD*%
%TA.AperFunction,SMDPad,CuDef*%
%ADD28RoundRect,0.135000X-0.226274X-0.035355X-0.035355X-0.226274X0.226274X0.035355X0.035355X0.226274X0*%
%TD*%
%TA.AperFunction,SMDPad,CuDef*%
%ADD29RoundRect,0.135000X0.035355X-0.226274X0.226274X-0.035355X-0.035355X0.226274X-0.226274X0.035355X0*%
%TD*%
%TA.AperFunction,SMDPad,CuDef*%
%ADD30RotRect,2.500000X2.000000X239.984259*%
%TD*%
%TA.AperFunction,SMDPad,CuDef*%
%ADD31R,2.000000X2.500000*%
%TD*%
%TA.AperFunction,SMDPad,CuDef*%
%ADD32RotRect,0.900000X1.100000X222.575681*%
%TD*%
%TA.AperFunction,SMDPad,CuDef*%
%ADD33FreePoly0,222.575681*%
%TD*%
%TA.AperFunction,SMDPad,CuDef*%
%ADD34FreePoly1,222.575681*%
%TD*%
%TA.AperFunction,SMDPad,CuDef*%
%ADD35RoundRect,0.125000X0.000000X-0.176777X0.176777X0.000000X0.000000X0.176777X-0.176777X0.000000X0*%
%TD*%
%TA.AperFunction,SMDPad,CuDef*%
%ADD36RoundRect,0.225000X-0.225000X-0.250000X0.225000X-0.250000X0.225000X0.250000X-0.225000X0.250000X0*%
%TD*%
%TA.AperFunction,SMDPad,CuDef*%
%ADD37RoundRect,0.125000X0.125000X-0.125000X0.125000X0.125000X-0.125000X0.125000X-0.125000X-0.125000X0*%
%TD*%
%TA.AperFunction,SMDPad,CuDef*%
%ADD38RoundRect,0.150000X-0.512500X-0.150000X0.512500X-0.150000X0.512500X0.150000X-0.512500X0.150000X0*%
%TD*%
%TA.AperFunction,ViaPad*%
%ADD39C,0.550000*%
%TD*%
%TA.AperFunction,Conductor*%
%ADD40C,0.150000*%
%TD*%
%TA.AperFunction,Conductor*%
%ADD41C,0.300000*%
%TD*%
%TA.AperFunction,Conductor*%
%ADD42C,0.200000*%
%TD*%
G04 APERTURE END LIST*
D10*
%TO.P,U4,1,NC_1*%
%TO.N,unconnected-(U4-NC-Pad1)*%
X119188700Y-100395476D03*
D11*
%TO.P,U4,2,Cout_2*%
%TO.N,/PCM_COUT*%
X119238700Y-99895476D03*
%TO.P,U4,3,Dout_3*%
%TO.N,/PCM_DOUT*%
X119238700Y-99395476D03*
%TO.P,U4,4,VSS_4*%
%TO.N,/BAT_N*%
X118088700Y-99395476D03*
%TO.P,U4,5,BAT_5*%
%TO.N,/PCM_BAT*%
X118088700Y-99895476D03*
%TO.P,U4,6,V-_6*%
%TO.N,/PCM_VM*%
X118088700Y-100395476D03*
%TD*%
D12*
%TO.P,JP2,1,A_1*%
%TO.N,/BTN*%
X144257108Y-79473925D03*
%TO.P,JP2,2,B_2*%
%TO.N,/GND*%
X143408580Y-78625397D03*
%TD*%
D13*
%TO.P,D3,1,A1_1*%
%TO.N,/GND*%
X125663751Y-87145425D03*
%TO.P,D3,2,A2_2*%
%TO.N,/VIN_RAW*%
X127643649Y-85165527D03*
%TD*%
D14*
%TO.P,C8,1*%
%TO.N,/PCM_BAT*%
X117983700Y-98295476D03*
%TO.P,C8,2*%
%TO.N,/BAT_N*%
X118943700Y-98295476D03*
%TD*%
D15*
%TO.P,U1,1,GND_1*%
%TO.N,/GND*%
X144968424Y-82521260D03*
%TO.P,U1,2,GND_2*%
X143943119Y-82768748D03*
%TO.P,U1,3,GND_3*%
X144190607Y-81743443D03*
%TO.P,U1,4,GND_4*%
X143165302Y-81990930D03*
%TO.P,U1,5,GND_5*%
X143412789Y-80965626D03*
%TO.P,U1,6,P0.25_6*%
%TO.N,unconnected-(U1-P0.25-Pad6)*%
X142387484Y-81213113D03*
%TO.P,U1,7,P0.26_7*%
%TO.N,/BTN*%
X142634972Y-80187808D03*
%TO.P,U1,8,P0.27_8*%
%TO.N,unconnected-(U1-P0.27-Pad8)*%
X141609667Y-80435295D03*
%TO.P,U1,9,P0.28_9*%
%TO.N,unconnected-(U1-P0.28-Pad9)*%
X141857154Y-79409991D03*
%TO.P,U1,10,P0.29_10*%
%TO.N,unconnected-(U1-P0.29-Pad10)*%
X140831849Y-79657478D03*
%TO.P,U1,11,P0.30_11*%
%TO.N,unconnected-(U1-P0.30-Pad11)*%
X141079337Y-78632173D03*
%TO.P,U1,12,P0.31_12*%
%TO.N,unconnected-(U1-P0.31-Pad12)*%
X140054032Y-78879661D03*
%TO.P,U1,13,P0.00_13*%
%TO.N,unconnected-(U1-P0.00-Pad13)*%
X140301519Y-77854356D03*
%TO.P,U1,14,P0.01_14*%
%TO.N,unconnected-(U1-P0.01-Pad14)*%
X139276215Y-78101843D03*
%TO.P,U1,15,P0.02_15*%
%TO.N,unconnected-(U1-P0.02-Pad15)*%
X139523702Y-77076538D03*
%TO.P,U1,16,GND_16*%
%TO.N,/GND*%
X138745884Y-76298721D03*
%TO.P,U1,17,VCC_17*%
%TO.N,/VDD*%
X137968067Y-77076538D03*
%TO.P,U1,18,GND_18*%
%TO.N,/GND*%
X138215554Y-78101843D03*
%TO.P,U1,19,P0.03_19*%
%TO.N,/ACC_INT1*%
X137190250Y-77854356D03*
%TO.P,U1,20,P0.04_20*%
%TO.N,unconnected-(U1-P0.04-Pad20)*%
X137437737Y-78879661D03*
%TO.P,U1,21,P0.05_21*%
%TO.N,/SDA*%
X136412432Y-78632173D03*
%TO.P,U1,22,P0.06_22*%
%TO.N,unconnected-(U1-P0.06-Pad22)*%
X136659919Y-79657478D03*
%TO.P,U1,23,P0.07_23*%
%TO.N,/SCL*%
X135634615Y-79409991D03*
%TO.P,U1,24,P0.08_24*%
%TO.N,unconnected-(U1-P0.08-Pad24)*%
X135882102Y-80435295D03*
%TO.P,U1,25,P0.09_25*%
%TO.N,unconnected-(U1-P0.09-Pad25)*%
X134856797Y-80187808D03*
%TO.P,U1,26,P0.10_26*%
%TO.N,unconnected-(U1-P0.10-Pad26)*%
X135104285Y-81213113D03*
%TO.P,U1,27,P0.11_27*%
%TO.N,/CHG_INH*%
X134078980Y-80965626D03*
%TO.P,U1,28,P0.12_28*%
%TO.N,unconnected-(U1-P0.12-Pad28)*%
X134326467Y-81990930D03*
%TO.P,U1,29,GND_29*%
%TO.N,/GND*%
X133301162Y-81743443D03*
%TO.P,U1,30,GND_30*%
X132523345Y-82521260D03*
%TO.P,U1,31,P0.13_31*%
%TO.N,/LED_IO*%
X133301162Y-83299078D03*
%TO.P,U1,32,P0.14_32*%
%TO.N,unconnected-(U1-P0.14-Pad32)*%
X134326467Y-83051591D03*
%TO.P,U1,33,P0.15_33*%
%TO.N,/CHG_STAT*%
X134078980Y-84076895D03*
%TO.P,U1,34,P0.16_34*%
%TO.N,unconnected-(U1-P0.16-Pad34)*%
X135104285Y-83829408D03*
%TO.P,U1,35,P0.17_35*%
%TO.N,unconnected-(U1-P0.17-Pad35)*%
X134856797Y-84854713D03*
%TO.P,U1,36,P0.21_36*%
%TO.N,unconnected-(U1-P0.21-Pad36)*%
X135882102Y-84607225D03*
%TO.P,U1,37,P0.19_37*%
%TO.N,unconnected-(U1-P0.19-Pad37)*%
X135634615Y-85632530D03*
%TO.P,U1,38,P0.20_38*%
%TO.N,unconnected-(U1-P0.20-Pad38)*%
X136659919Y-85385043D03*
%TO.P,U1,39,P0.18_39*%
%TO.N,unconnected-(U1-P0.18-Pad39)*%
X136412432Y-86410348D03*
%TO.P,U1,40,P0.22_40*%
%TO.N,unconnected-(U1-P0.22-Pad40)*%
X137437737Y-86162860D03*
%TO.P,U1,41,P0.23_41*%
%TO.N,unconnected-(U1-P0.23-Pad41)*%
X137190250Y-87188165D03*
%TO.P,U1,42,P0.24_42*%
%TO.N,unconnected-(U1-P0.24-Pad42)*%
X138215554Y-86940678D03*
%TO.P,U1,43,SWCLK_43*%
%TO.N,/SWDCLK*%
X137968067Y-87965983D03*
%TO.P,U1,44,SWDIO_44*%
%TO.N,/SWDIO*%
X138993372Y-87718495D03*
%TO.P,U1,45,GND_45*%
%TO.N,/GND*%
X138745884Y-88743800D03*
%TO.P,U1,46,GND_46*%
X140690428Y-86799257D03*
%TO.P,U1,47,GND_47*%
X143023881Y-84465804D03*
%TO.P,U1,48,P1.05_48*%
%TO.N,unconnected-(U1-P1.05-Pad48)*%
X142917814Y-83016235D03*
%TO.P,U1,49,P1.06_49*%
%TO.N,unconnected-(U1-P1.06-Pad49)*%
X142139997Y-82238418D03*
%TO.P,U1,50,P1.07_50*%
%TO.N,unconnected-(U1-P1.07-Pad50)*%
X141362180Y-81460600D03*
%TO.P,U1,51,P1.08_51*%
%TO.N,unconnected-(U1-P1.08-Pad51)*%
X140584362Y-80682783D03*
%TO.P,U1,52,P1.09_52*%
%TO.N,unconnected-(U1-P1.09-Pad52)*%
X139806545Y-79904965D03*
%TO.P,U1,53,P1.10_53*%
%TO.N,unconnected-(U1-P1.10-Pad53)*%
X137685224Y-79904965D03*
%TO.P,U1,54,P1.11_54*%
%TO.N,unconnected-(U1-P1.11-Pad54)*%
X136907407Y-80682783D03*
%TO.P,U1,55,GND_55*%
%TO.N,/GND*%
X136129589Y-81460600D03*
%TO.P,U1,56,P1.00_56*%
%TO.N,unconnected-(U1-P1.00-Pad56)*%
X136129589Y-83581921D03*
%TO.P,U1,57,P1.01_57*%
%TO.N,unconnected-(U1-P1.01-Pad57)*%
X136907407Y-84359738D03*
%TO.P,U1,58,P1.02_58*%
%TO.N,unconnected-(U1-P1.02-Pad58)*%
X137685224Y-85137556D03*
%TO.P,U1,59,P1.03_59*%
%TO.N,unconnected-(U1-P1.03-Pad59)*%
X138463042Y-85915373D03*
%TO.P,U1,60,P1.04_60*%
%TO.N,unconnected-(U1-P1.04-Pad60)*%
X139240859Y-86693190D03*
%TO.P,U1,61,P1.12_61*%
%TO.N,unconnected-(U1-P1.12-Pad61)*%
X137720580Y-76051233D03*
%TO.P,U1,62,P1.13_62*%
%TO.N,unconnected-(U1-P1.13-Pad62)*%
X136942762Y-76829051D03*
%TO.P,U1,63,P1.14_63*%
%TO.N,unconnected-(U1-P1.14-Pad63)*%
X136164945Y-77606868D03*
%TO.P,U1,64,P1.15_64*%
%TO.N,unconnected-(U1-P1.15-Pad64)*%
X135387127Y-78384686D03*
%TO.P,U1,65,VCCH_65*%
%TO.N,/VBAT*%
X134609310Y-79162503D03*
%TO.P,U1,66,VBUS_66*%
%TO.N,/VBUS_SNS*%
X133831492Y-79940321D03*
%TO.P,U1,67,USB-D-_67*%
%TO.N,unconnected-(U1-USB-D--Pad67)*%
X133053675Y-80718138D03*
%TO.P,U1,68,USB-D+_68*%
%TO.N,unconnected-(U1-USB-D+-Pad68)*%
X132275857Y-81495956D03*
%TD*%
D16*
%TO.P,R2,1*%
%TO.N,/VIN*%
X116241919Y-89655681D03*
%TO.P,R2,2*%
%TO.N,/Q1_GATE*%
X117261919Y-89655681D03*
%TD*%
D17*
%TO.P,C9,1*%
%TO.N,/VBUS_SNS*%
X130003111Y-83256065D03*
%TO.P,C9,2*%
%TO.N,/GND*%
X129324289Y-83934887D03*
%TD*%
D18*
%TO.P,D4,1,K_1*%
%TO.N,/GND*%
X114938452Y-90430181D03*
%TO.P,D4,2,A_2*%
%TO.N,/LED_A*%
X115022996Y-89463873D03*
%TD*%
D19*
%TO.P,R4,1*%
%TO.N,/LED_IO*%
X131824324Y-84134852D03*
%TO.P,R4,2*%
%TO.N,/LED_A*%
X131103076Y-84856100D03*
%TD*%
D20*
%TO.P,R3,1*%
%TO.N,/CHG_INH*%
X121763700Y-89240000D03*
%TO.P,R3,2*%
%TO.N,/GND*%
X121763700Y-90260000D03*
%TD*%
D21*
%TO.P,C4,1*%
%TO.N,/VDD*%
X135910589Y-75534887D03*
%TO.P,C4,2*%
%TO.N,/GND*%
X136589411Y-74856065D03*
%TD*%
D22*
%TO.P,C1,1*%
%TO.N,/VIN*%
X125000000Y-94525000D03*
%TO.P,C1,2*%
%TO.N,/GND*%
X125000000Y-92975000D03*
%TD*%
D23*
%TO.P,U2,1,SDO/SA0_1*%
%TO.N,/GND*%
X133757687Y-76952757D03*
%TO.P,U2,2,SDX_2*%
X133404133Y-76599204D03*
%TO.P,U2,3,SCX_3*%
X133050580Y-76245651D03*
%TO.P,U2,4,INT1_4*%
%TO.N,/ACC_INT1*%
X132697027Y-75892097D03*
D24*
%TO.P,U2,5,VDDIO_5*%
%TO.N,/VDD*%
X132113663Y-76245651D03*
%TO.P,U2,6,GND_6*%
%TO.N,/GND*%
X131760110Y-76599204D03*
%TO.P,U2,7,GND_7*%
X131406557Y-76952757D03*
D23*
%TO.P,U2,8,VDD_8*%
%TO.N,/VDD*%
X131053003Y-77536121D03*
%TO.P,U2,9,INT2_9*%
%TO.N,unconnected-(U2-INT2-Pad9)*%
X131406557Y-77889674D03*
%TO.P,U2,10,NC_10*%
%TO.N,unconnected-(U2-NC-Pad10)*%
X131760110Y-78243227D03*
%TO.P,U2,11,NC_11*%
%TO.N,unconnected-(U2-NC-Pad11)*%
X132113663Y-78596781D03*
D24*
%TO.P,U2,12,CS_12*%
%TO.N,/VDD*%
X132697027Y-78243227D03*
%TO.P,U2,13,SCL_13*%
%TO.N,/SCL*%
X133050580Y-77889674D03*
%TO.P,U2,14,SDA_14*%
%TO.N,/SDA*%
X133404133Y-77536121D03*
%TD*%
D25*
%TO.P,Q1,1,S_1*%
%TO.N,/GND*%
X118662500Y-88545476D03*
%TO.P,Q1,2,G_2*%
%TO.N,/Q1_GATE*%
X118662500Y-89195476D03*
%TO.P,Q1,3,D_3*%
X118662500Y-89845476D03*
%TO.P,Q1,4,S_4*%
%TO.N,/GND*%
X120337500Y-89845476D03*
%TO.P,Q1,5,G_5*%
%TO.N,/CHG_INH*%
X120337500Y-89195476D03*
%TO.P,Q1,6,D_6*%
%TO.N,/PROG_SW*%
X120337500Y-88545476D03*
%TD*%
D26*
%TO.P,C6,1*%
%TO.N,/VDD*%
X131445506Y-79698892D03*
%TO.P,C6,2*%
%TO.N,/GND*%
X130766684Y-79020070D03*
%TD*%
D27*
%TO.P,R7,1*%
%TO.N,/VBAT*%
X116663700Y-97205476D03*
%TO.P,R7,2*%
%TO.N,/PCM_BAT*%
X116663700Y-96185476D03*
%TD*%
D26*
%TO.P,C3,1*%
%TO.N,/VBAT*%
X130695506Y-80448892D03*
%TO.P,C3,2*%
%TO.N,/GND*%
X130016684Y-79770070D03*
%TD*%
D27*
%TO.P,R8,1*%
%TO.N,/PCM_VM*%
X116863700Y-99305476D03*
%TO.P,R8,2*%
%TO.N,/GND*%
X116863700Y-98285476D03*
%TD*%
D28*
%TO.P,R10,1*%
%TO.N,/CC1*%
X125639376Y-83389376D03*
%TO.P,R10,2*%
%TO.N,/GND*%
X126360624Y-84110624D03*
%TD*%
D17*
%TO.P,C7,1*%
%TO.N,/VDD*%
X129945506Y-78270070D03*
%TO.P,C7,2*%
%TO.N,/GND*%
X129266684Y-78948892D03*
%TD*%
D27*
%TO.P,R1,1*%
%TO.N,/PROG*%
X117000000Y-92760000D03*
%TO.P,R1,2*%
%TO.N,/PROG_SW*%
X117000000Y-91740000D03*
%TD*%
D29*
%TO.P,R9,1*%
%TO.N,/VIN*%
X128403076Y-83110624D03*
%TO.P,R9,2*%
%TO.N,/VBUS_SNS*%
X129124324Y-82389376D03*
%TD*%
D30*
%TO.P,BT1,1,+_1*%
%TO.N,/BAT_P*%
X124863700Y-98945476D03*
D31*
%TO.P,BT1,2,-_2*%
%TO.N,/BAT_N*%
X123863700Y-104595475D03*
%TD*%
D28*
%TO.P,R11,1*%
%TO.N,/CC2*%
X124889376Y-84139376D03*
%TO.P,R11,2*%
%TO.N,/GND*%
X125610624Y-84860624D03*
%TD*%
D32*
%TO.P,J1,A5,CC1_A5*%
%TO.N,/CC1*%
X124440893Y-82211836D03*
%TO.P,J1,A9,VBUS_A9*%
%TO.N,/VIN_RAW*%
X122673571Y-83835588D03*
%TO.P,J1,A12,GND_A12*%
%TO.N,/GND*%
X121789910Y-84647465D03*
%TO.P,J1,B5,CC2_B5*%
%TO.N,/CC2*%
X123557232Y-83023712D03*
%TO.P,J1,B9,VBUS_B9*%
%TO.N,/VIN_RAW*%
X125324554Y-81399960D03*
%TO.P,J1,B12,GND_B12*%
%TO.N,/GND*%
X126208216Y-80588084D03*
D33*
%TO.P,J1,SH,SHIELD_SH*%
X126014119Y-76020250D03*
D34*
X117254828Y-84067972D03*
%TD*%
D25*
%TO.P,Q2,1,S_1*%
%TO.N,/GND*%
X120626200Y-99245476D03*
%TO.P,Q2,2,G_2*%
%TO.N,/PCM_COUT*%
X120626200Y-99895476D03*
%TO.P,Q2,3,D_3*%
%TO.N,/PCM_D*%
X120626200Y-100545476D03*
%TO.P,Q2,4,S_4*%
%TO.N,/BAT_N*%
X122301200Y-100545476D03*
%TO.P,Q2,5,G_5*%
%TO.N,/PCM_DOUT*%
X122301200Y-99895476D03*
%TO.P,Q2,6,D_6*%
%TO.N,/PCM_D*%
X122301200Y-99245476D03*
%TD*%
D35*
%TO.P,D1,1,K_1*%
%TO.N,/VIN*%
X123472183Y-90073293D03*
%TO.P,D1,2,A_2*%
%TO.N,/VIN_RAW*%
X125027817Y-88517659D03*
%TD*%
D36*
%TO.P,C2,1*%
%TO.N,/VBAT*%
X117888700Y-95750000D03*
%TO.P,C2,2*%
%TO.N,/GND*%
X119438700Y-95750000D03*
%TD*%
D37*
%TO.P,D2,1,K_1*%
%TO.N,/STAT*%
X123063700Y-93795476D03*
%TO.P,D2,2,A_2*%
%TO.N,/CHG_STAT*%
X123063700Y-91595476D03*
%TD*%
D38*
%TO.P,U3,1,STAT_1*%
%TO.N,/STAT*%
X118526200Y-91945476D03*
%TO.P,U3,2,V_{SS}_2*%
%TO.N,/GND*%
X118526200Y-92895476D03*
%TO.P,U3,3,V_{BAT}_3*%
%TO.N,/VBAT*%
X118526200Y-93845476D03*
%TO.P,U3,4,V_{DD}_4*%
%TO.N,/VIN*%
X120801200Y-93845476D03*
%TO.P,U3,5,PROG_5*%
%TO.N,/PROG*%
X120801200Y-91945476D03*
%TD*%
D39*
%TO.N,/BAT_N*%
X123642300Y-100454476D03*
X123664100Y-97619176D03*
%TO.N,/PCM_BAT*%
X116563700Y-95395476D03*
X117504200Y-98774976D03*
%TO.N,/GND*%
X128500000Y-80000000D03*
X126250000Y-85750000D03*
X140963850Y-76556895D03*
X138063700Y-80895476D03*
X120477931Y-94895475D03*
X126000000Y-97250000D03*
X121176200Y-98535476D03*
X136129009Y-82495101D03*
X126000000Y-90500000D03*
X119500000Y-87500000D03*
X126000000Y-95750000D03*
X131649700Y-75308500D03*
X127000000Y-81750000D03*
X119726200Y-92895476D03*
X120563700Y-90562503D03*
X115500000Y-95250000D03*
X124063700Y-87395476D03*
X135124780Y-76826222D03*
X140563700Y-82895476D03*
X145000000Y-80500000D03*
X133693470Y-82505835D03*
X123000000Y-85500000D03*
X139063700Y-84895476D03*
X114861971Y-92000000D03*
X135000000Y-74500000D03*
X131820303Y-82292924D03*
X118063700Y-96895476D03*
X130763525Y-83904305D03*
X141242631Y-85924019D03*
X138424799Y-79163723D03*
X142231445Y-84970520D03*
%TO.N,/VIN_RAW*%
X123750000Y-84500000D03*
X126250000Y-82500000D03*
%TO.N,/VDD*%
X133639366Y-78639366D03*
X138745884Y-77076538D03*
%TO.N,/CHG_INH*%
X135148600Y-82084376D03*
X121750000Y-88250000D03*
%TO.N,/SWDCLK*%
X137260961Y-88319536D03*
%TO.N,/SWDIO*%
X137932712Y-88849865D03*
%TO.N,/VBAT*%
X118443701Y-94875475D03*
X117312890Y-93750000D03*
X121196800Y-95239676D03*
X131580300Y-83294276D03*
%TO.N,/VBUS_SNS*%
X129750000Y-81750000D03*
X132998820Y-79891949D03*
%TO.N,/VIN*%
X128000000Y-82000000D03*
X123750000Y-94750000D03*
X117040700Y-90500000D03*
X121705724Y-94750000D03*
X123750000Y-86500000D03*
X120301700Y-95717176D03*
X122803700Y-90163976D03*
%TO.N,/PROG*%
X116145700Y-91315676D03*
X116580900Y-93750000D03*
%TO.N,/BAT_P*%
X123660300Y-96166476D03*
%TO.N,/STAT*%
X120213701Y-96445476D03*
X118913701Y-91254000D03*
%TD*%
%TO.N,/PCM_COUT*%
D40*
X119238700Y-99895476D02*
X120626200Y-99895476D01*
%TO.N,/PCM_DOUT*%
X122575540Y-99895476D02*
X122301200Y-99895476D01*
X123063700Y-97895476D02*
X123063700Y-99407316D01*
X119238700Y-98920476D02*
X120263700Y-97895476D01*
X123063700Y-99407316D02*
X122575540Y-99895476D01*
X119238700Y-99395476D02*
X119238700Y-98920476D01*
X120263700Y-97895476D02*
X123063700Y-97895476D01*
%TO.N,/BAT_N*%
D41*
X118943700Y-98295476D02*
X119895700Y-97343476D01*
X123642300Y-100454476D02*
X122926300Y-101170476D01*
D42*
X118238700Y-99395476D02*
X118943700Y-98690476D01*
D40*
X118088700Y-99395476D02*
X118238700Y-99395476D01*
D41*
X122301200Y-100545476D02*
X122926300Y-101170476D01*
X119895700Y-97343476D02*
X123388400Y-97343476D01*
X122926300Y-101170476D02*
X123506200Y-101750476D01*
X123388400Y-97343476D02*
X123664100Y-97619176D01*
D42*
X118943700Y-98690476D02*
X118943700Y-98295476D01*
D41*
X123506200Y-101750476D02*
X123506200Y-102955676D01*
X123793700Y-104595476D02*
X123506200Y-102955676D01*
%TO.N,/PCM_BAT*%
D40*
X117504200Y-99572582D02*
X117504200Y-98774976D01*
X117504200Y-98774976D02*
X117983700Y-98295476D01*
X117827094Y-99895476D02*
X117504200Y-99572582D01*
X116663700Y-95495476D02*
X116563700Y-95395476D01*
X118088700Y-99895476D02*
X117827094Y-99895476D01*
X116663700Y-96185476D02*
X116663700Y-95495476D01*
%TO.N,/PCM_VM*%
X117608100Y-100395476D02*
X116863700Y-99651076D01*
X116863700Y-99651076D02*
X116863700Y-99305476D01*
X118088700Y-100395476D02*
X117608100Y-100395476D01*
%TO.N,/BTN*%
X143543226Y-80187808D02*
X144257108Y-79473926D01*
X142634972Y-80187808D02*
X143543226Y-80187808D01*
%TO.N,/GND*%
D41*
X114861971Y-92000000D02*
X114938454Y-91923517D01*
D40*
X143165302Y-81990930D02*
X143943119Y-82768748D01*
X131500000Y-75846134D02*
X131500000Y-75458200D01*
X120563700Y-90562503D02*
X121461197Y-90562503D01*
X143943120Y-81990930D02*
X144190607Y-81743443D01*
X143943119Y-82768748D02*
X144268748Y-82768748D01*
X144500000Y-82989684D02*
X144968424Y-82521260D01*
X131406557Y-76952757D02*
X130994956Y-76541156D01*
X130731767Y-79089411D02*
X130660589Y-79160589D01*
D42*
X116863700Y-98285476D02*
X118063700Y-97085476D01*
X118526200Y-92895476D02*
X119726200Y-92895476D01*
D40*
X138750000Y-78838522D02*
X138424799Y-79163723D01*
D42*
X119438700Y-95495475D02*
X120477931Y-94895475D01*
D40*
X121461197Y-90562503D02*
X121763700Y-90260000D01*
X143943119Y-81990931D02*
X144190607Y-81743443D01*
X120626200Y-99245476D02*
X120626200Y-98626200D01*
X144500000Y-83000000D02*
X144500000Y-82989684D01*
X131500000Y-75458200D02*
X131649700Y-75308500D01*
X143412789Y-81743443D02*
X143165302Y-81990930D01*
X138750000Y-78636289D02*
X138750000Y-78838522D01*
X120716924Y-98535476D02*
X121176200Y-98535476D01*
X131760110Y-76599204D02*
X131500000Y-76339094D01*
X144268748Y-82768748D02*
X144500000Y-83000000D01*
X143412789Y-80965626D02*
X144534374Y-80965626D01*
X130994956Y-76351178D02*
X131500000Y-75846134D01*
X130766684Y-79020070D02*
X129337862Y-79020070D01*
X120087500Y-89845476D02*
X120087500Y-90086303D01*
D42*
X118063700Y-97085476D02*
X118063700Y-96895476D01*
D40*
X120626200Y-98626200D02*
X120716924Y-98535476D01*
X120087500Y-90086303D02*
X120563700Y-90562503D01*
X144534374Y-80965626D02*
X145000000Y-80500000D01*
X133631151Y-76826222D02*
X135124780Y-76826222D01*
D41*
X114938454Y-91923517D02*
X114938454Y-90430181D01*
D40*
X131406557Y-76952757D02*
X131760110Y-76599204D01*
X143412789Y-80965626D02*
X143412789Y-81743443D01*
X143943119Y-82768748D02*
X143943119Y-81990931D01*
X131500000Y-76000000D02*
X131500000Y-75846134D01*
X131500000Y-76339094D02*
X131500000Y-76000000D01*
X121349176Y-89845476D02*
X121763700Y-90260000D01*
X120337500Y-89845476D02*
X121349176Y-89845476D01*
X130994956Y-76541156D02*
X130994956Y-76351178D01*
X143165302Y-81990930D02*
X143943120Y-81990930D01*
X133050580Y-76245651D02*
X133631151Y-76826222D01*
X138215554Y-78101843D02*
X138750000Y-78636289D01*
%TO.N,/VIN_RAW*%
X126250000Y-82500000D02*
X127643650Y-83893650D01*
X125846078Y-88026588D02*
X125820988Y-88026588D01*
X127643650Y-86229016D02*
X125846078Y-88026588D01*
X125141517Y-88517658D02*
X125141517Y-88519793D01*
X125327997Y-81742512D02*
X126250000Y-82500000D01*
X125324555Y-81399960D02*
X125327997Y-81742512D01*
X125820988Y-88026588D02*
X125329918Y-88517658D01*
X127694100Y-85115076D02*
X127643650Y-85165526D01*
X122673571Y-83835588D02*
X122673571Y-83835588D01*
X127643650Y-85165526D02*
X127643650Y-86229016D01*
X125141517Y-88519793D02*
X125181200Y-88559476D01*
X127643650Y-83893650D02*
X127643650Y-85165526D01*
X125329918Y-88517658D02*
X125027817Y-88517658D01*
X122673571Y-83835588D02*
X123508378Y-84500000D01*
X123508378Y-84500000D02*
X123750000Y-84500000D01*
%TO.N,/VDD*%
X132272295Y-77818495D02*
X132697027Y-78243227D01*
X136357199Y-75981497D02*
X135910589Y-75534887D01*
X130990213Y-77536121D02*
X130416853Y-78109481D01*
X129981767Y-78410589D02*
X129910589Y-78339411D01*
X132976900Y-78523100D02*
X133093166Y-78639366D01*
X130580173Y-78109481D02*
X131445506Y-78974814D01*
X133093166Y-78639366D02*
X133639366Y-78639366D01*
X137968100Y-77076576D02*
X136873021Y-75981497D01*
X130416853Y-78109481D02*
X130106095Y-78109481D01*
X131445506Y-79698892D02*
X131801108Y-79698892D01*
X136873021Y-75981497D02*
X136357199Y-75981497D01*
X131801108Y-79698892D02*
X132976900Y-78523100D01*
X132697027Y-78243227D02*
X132976900Y-78523100D01*
X130106095Y-78109481D02*
X130580173Y-78109481D01*
X136124289Y-75534887D02*
X135807930Y-75534887D01*
X131445506Y-78974814D02*
X131445506Y-79698892D01*
X132272295Y-76404283D02*
X132272295Y-77818495D01*
X137968067Y-77076538D02*
X138745884Y-77076538D01*
X130106095Y-78109481D02*
X129945506Y-78270070D01*
%TO.N,/ACC_INT1*%
X132855658Y-75733466D02*
X132697027Y-75892097D01*
X135069360Y-75733466D02*
X132855658Y-75733466D01*
X137190250Y-77854356D02*
X135069360Y-75733466D01*
%TO.N,/SDA*%
X135280259Y-77500000D02*
X133440254Y-77500000D01*
X133440254Y-77500000D02*
X133404133Y-77536121D01*
X136412432Y-78632173D02*
X135280259Y-77500000D01*
%TO.N,/SCL*%
X134272930Y-78048306D02*
X133209212Y-78048306D01*
X133209212Y-78048306D02*
X133050580Y-77889674D01*
X135634615Y-79409991D02*
X134272930Y-78048306D01*
%TO.N,/CHG_INH*%
X120735000Y-89195476D02*
X120087500Y-89195476D01*
X134079000Y-80965576D02*
X135148600Y-82035176D01*
X121680476Y-88250000D02*
X120735000Y-89195476D01*
X121750000Y-89226300D02*
X121763700Y-89240000D01*
X121750000Y-88250000D02*
X121750000Y-89226300D01*
X135148600Y-82035176D02*
X135148600Y-82084376D01*
X121750000Y-88250000D02*
X121680476Y-88250000D01*
%TO.N,/LED_IO*%
X133301162Y-83299078D02*
X131824324Y-84134852D01*
%TO.N,/CHG_STAT*%
X123457900Y-91595476D02*
X129474400Y-85578976D01*
X132613700Y-85545477D02*
X133913700Y-84245477D01*
X123063700Y-91595476D02*
X123457900Y-91595476D01*
X129474400Y-85578976D02*
X132576900Y-85578976D01*
%TO.N,/SWDCLK*%
X137968067Y-87965983D02*
X137260961Y-88319536D01*
%TO.N,/SWDIO*%
X138993372Y-87718495D02*
X137932712Y-88849865D01*
%TO.N,/VBAT*%
X131193403Y-80943403D02*
X132068403Y-80068403D01*
X118343614Y-93662890D02*
X118526200Y-93845476D01*
X132974303Y-79162503D02*
X132068403Y-80068403D01*
X118443701Y-93825475D02*
X118443701Y-93825475D01*
X117312890Y-93750000D02*
X118430724Y-93750000D01*
X117888700Y-95980476D02*
X117888700Y-95495476D01*
X120242400Y-94409776D02*
X120766600Y-94409776D01*
X131190017Y-80943403D02*
X131193403Y-80943403D01*
X117888700Y-95495476D02*
X118728700Y-94655476D01*
X131580300Y-83294276D02*
X131580300Y-83054376D01*
X130695506Y-80448892D02*
X131190017Y-80943403D01*
X131111600Y-82585676D02*
X131111600Y-81025206D01*
X118443701Y-94875475D02*
X118443701Y-94875475D01*
X119996700Y-94655476D02*
X120242400Y-94409776D01*
X131580300Y-83054376D02*
X131111600Y-82585676D01*
X121196800Y-94839976D02*
X121196800Y-95239676D01*
X116663700Y-97205476D02*
X117888700Y-95980476D01*
X118430724Y-93750000D02*
X118526200Y-93845476D01*
X120766600Y-94409776D02*
X121196800Y-94839976D01*
X131111600Y-81025206D02*
X131193403Y-80943403D01*
X134609310Y-79162503D02*
X132974303Y-79162503D01*
X118728700Y-94655476D02*
X119996700Y-94655476D01*
%TO.N,/VBUS_SNS*%
X129200336Y-82454219D02*
X129498058Y-82751942D01*
X133783120Y-79891949D02*
X133831492Y-79940321D01*
X129142704Y-82454219D02*
X129200336Y-82454219D01*
X132998820Y-79891949D02*
X133783120Y-79891949D01*
X129750000Y-81750000D02*
X129750000Y-81763700D01*
X129142700Y-82454176D02*
X129307000Y-82618476D01*
X133795583Y-79976230D02*
X133831492Y-79940321D01*
X129750000Y-81763700D02*
X129124325Y-82389375D01*
X129498058Y-82751942D02*
X130020410Y-83274293D01*
%TO.N,/VIN*%
X121717700Y-95462376D02*
X121461700Y-95718376D01*
X123750000Y-86500000D02*
X123546200Y-86703800D01*
X116500000Y-90500000D02*
X117040700Y-90500000D01*
X123546200Y-86703800D02*
X123546200Y-89999277D01*
X123546200Y-89999277D02*
X123381501Y-90163976D01*
X123381501Y-90163976D02*
X122803700Y-90163976D01*
X121461700Y-95718376D02*
X120302900Y-95718376D01*
X116241919Y-89655681D02*
X116241919Y-90241919D01*
X123750000Y-94750000D02*
X124775000Y-94750000D01*
X116241919Y-90241919D02*
X116500000Y-90500000D01*
X121717700Y-94761976D02*
X121717700Y-95462376D01*
X120302900Y-95718376D02*
X120301700Y-95717176D01*
X120801200Y-93845476D02*
X121705724Y-94750000D01*
X121705724Y-94750000D02*
X121717700Y-94761976D01*
X128000000Y-82752037D02*
X128384696Y-83136733D01*
X128000000Y-82000000D02*
X128000000Y-82752037D01*
X124775000Y-94750000D02*
X125000000Y-94525000D01*
%TO.N,/Q1_GATE*%
X118322500Y-89285476D02*
X118412500Y-89195476D01*
X118412500Y-89195476D02*
X118412500Y-89845476D01*
X118412500Y-89195476D02*
X117722124Y-89195476D01*
X117722124Y-89195476D02*
X117261919Y-89655681D01*
X118412500Y-89845476D02*
X117451714Y-89845476D01*
X117451714Y-89845476D02*
X117261919Y-89655681D01*
%TO.N,/LED_A*%
X122565100Y-91852076D02*
X122565100Y-91311776D01*
X122913300Y-90963576D02*
X123695600Y-90963576D01*
X123695600Y-90963576D02*
X129803100Y-84856076D01*
X120388400Y-93063776D02*
X121353400Y-93063776D01*
X119750000Y-94250000D02*
X119750000Y-93702176D01*
X121353400Y-93063776D02*
X122565100Y-91852076D01*
X116104876Y-94354876D02*
X119645124Y-94354876D01*
X129803100Y-84856076D02*
X131103100Y-84856076D01*
X119750000Y-93702176D02*
X120388400Y-93063776D01*
X119645124Y-94354876D02*
X119750000Y-94250000D01*
X115022994Y-89463873D02*
X115668700Y-90109579D01*
X115668700Y-90109579D02*
X115668700Y-93918700D01*
X122565100Y-91311776D02*
X122913300Y-90963576D01*
X115668700Y-93918700D02*
X116104876Y-94354876D01*
%TO.N,/PROG_SW*%
X121480500Y-92465276D02*
X120156540Y-92465276D01*
X122287900Y-87787900D02*
X122287900Y-90895676D01*
X122286400Y-90897176D02*
X122286400Y-91659376D01*
X122287900Y-90895676D02*
X122286400Y-90897176D01*
X119750000Y-91500000D02*
X119473000Y-91223000D01*
X121382976Y-87500000D02*
X122000000Y-87500000D01*
X120156540Y-92465276D02*
X119750000Y-92058736D01*
X119750000Y-92058736D02*
X119750000Y-91500000D01*
X122000000Y-87500000D02*
X122287900Y-87787900D01*
X120337500Y-88545476D02*
X121382976Y-87500000D01*
X119473000Y-91223000D02*
X119473000Y-90777000D01*
X117151737Y-91740000D02*
X117000000Y-91740000D01*
X118114738Y-90777000D02*
X117151737Y-91740000D01*
X119473000Y-90777000D02*
X118114738Y-90777000D01*
X122286400Y-91659376D02*
X121480500Y-92465276D01*
%TO.N,/CC1*%
X125639375Y-83361351D02*
X125639375Y-83489501D01*
X124440893Y-82211836D02*
X125639375Y-83361351D01*
X125639375Y-83489501D02*
X125622400Y-83506476D01*
%TO.N,/PROG*%
X117372824Y-91127176D02*
X116334200Y-91127176D01*
X119750000Y-90500000D02*
X118000000Y-90500000D01*
X116334200Y-91127176D02*
X116145700Y-91315676D01*
X118000000Y-90500000D02*
X117372824Y-91127176D01*
X117000000Y-93181664D02*
X116580900Y-93600764D01*
X120801200Y-91945476D02*
X119750000Y-90894276D01*
X119750000Y-90894276D02*
X119750000Y-90500000D01*
X117000000Y-92760000D02*
X117000000Y-93181664D01*
%TO.N,/BAT_P*%
D41*
X125063700Y-98745476D02*
X124863700Y-98945476D01*
X123660300Y-96166476D02*
X123889300Y-96395476D01*
X123889300Y-96395476D02*
X125063700Y-96395476D01*
X125063700Y-96395476D02*
X125063700Y-98745476D01*
%TO.N,/CC2*%
D40*
X124889375Y-84139375D02*
X124865299Y-84139375D01*
X123557232Y-83023712D02*
X123557232Y-83023712D01*
X124865299Y-84139375D02*
X123557232Y-83023712D01*
%TO.N,/PCM_D*%
D42*
X120626200Y-100545476D02*
X121463700Y-100545476D01*
X121463700Y-100545476D02*
X121463700Y-99245476D01*
X121463700Y-99245476D02*
X122301200Y-99245476D01*
%TO.N,/STAT*%
D40*
X120763701Y-96045476D02*
X121663701Y-96045476D01*
X118913701Y-91995476D02*
X118913701Y-91995476D01*
X118913701Y-91254000D02*
X118913701Y-91557975D01*
X118913701Y-91557975D02*
X118526200Y-91945476D01*
X120213701Y-96445476D02*
X120363701Y-96445476D01*
X120363701Y-96445476D02*
X120763701Y-96045476D01*
X121663701Y-96045476D02*
X123063700Y-94645477D01*
X123063700Y-94645477D02*
X123063700Y-93795476D01*
%TD*%
%TA.AperFunction,Conductor*%
%TO.N,/GND*%
G36*
X122697391Y-98239883D02*
G01*
X122733355Y-98289383D01*
X122738200Y-98319976D01*
X122738200Y-98720976D01*
X122719293Y-98779167D01*
X122669793Y-98815131D01*
X122639200Y-98819976D01*
X121836602Y-98819976D01*
X121836590Y-98819977D01*
X121787370Y-98826456D01*
X121679341Y-98876831D01*
X121678997Y-98877073D01*
X121678462Y-98877241D01*
X121671492Y-98880492D01*
X121671064Y-98879574D01*
X121622214Y-98894976D01*
X121509844Y-98894976D01*
X121417556Y-98894976D01*
X121401651Y-98899237D01*
X121352839Y-98912316D01*
X121291737Y-98909113D01*
X121257216Y-98886695D01*
X121247769Y-98877248D01*
X121247767Y-98877247D01*
X121139898Y-98826947D01*
X121139900Y-98826947D01*
X121090745Y-98820476D01*
X120776201Y-98820476D01*
X120776200Y-98820477D01*
X120776200Y-99146476D01*
X120757293Y-99204667D01*
X120707793Y-99240631D01*
X120677200Y-99245476D01*
X120575200Y-99245476D01*
X120517009Y-99226569D01*
X120481045Y-99177069D01*
X120476200Y-99146476D01*
X120476200Y-98820477D01*
X120476199Y-98820476D01*
X120161659Y-98820476D01*
X120161648Y-98820477D01*
X120112503Y-98826946D01*
X120112495Y-98826948D01*
X120021859Y-98869213D01*
X119961130Y-98876670D01*
X119907616Y-98847007D01*
X119881758Y-98791554D01*
X119893433Y-98731493D01*
X119910017Y-98709485D01*
X120369532Y-98249972D01*
X120424048Y-98222195D01*
X120439535Y-98220976D01*
X122639200Y-98220976D01*
X122697391Y-98239883D01*
G37*
%TD.AperFunction*%
%TA.AperFunction,Conductor*%
G36*
X114506595Y-90879176D02*
G01*
X114526163Y-90888594D01*
X114596499Y-90932545D01*
X114596505Y-90932547D01*
X114687943Y-90955346D01*
X115093958Y-90990866D01*
X115187972Y-90984293D01*
X115207113Y-90976560D01*
X115268149Y-90972291D01*
X115320037Y-91004714D01*
X115342959Y-91061444D01*
X115343200Y-91068351D01*
X115343200Y-93875847D01*
X115343200Y-93961553D01*
X115360735Y-94026995D01*
X115365383Y-94044343D01*
X115408231Y-94118557D01*
X115408233Y-94118559D01*
X115408235Y-94118562D01*
X115905014Y-94615341D01*
X115905016Y-94615342D01*
X115905018Y-94615344D01*
X115979233Y-94658192D01*
X115979231Y-94658192D01*
X115979235Y-94658193D01*
X115979237Y-94658194D01*
X116062023Y-94680376D01*
X116147729Y-94680376D01*
X116450135Y-94680376D01*
X116508326Y-94699283D01*
X116544290Y-94748783D01*
X116544290Y-94809969D01*
X116508326Y-94859469D01*
X116475760Y-94875001D01*
X116360864Y-94905788D01*
X116241035Y-94974971D01*
X116143195Y-95072811D01*
X116074012Y-95192640D01*
X116038200Y-95326293D01*
X116038200Y-95464659D01*
X116074012Y-95598312D01*
X116143195Y-95718141D01*
X116143197Y-95718143D01*
X116143200Y-95718148D01*
X116147146Y-95723291D01*
X116144879Y-95725029D01*
X116167250Y-95768935D01*
X116158410Y-95827902D01*
X116136089Y-95873560D01*
X116104118Y-95938958D01*
X116093200Y-96013894D01*
X116093200Y-96357058D01*
X116104118Y-96431994D01*
X116160624Y-96547578D01*
X116238520Y-96625474D01*
X116266296Y-96679989D01*
X116256725Y-96740421D01*
X116238521Y-96765476D01*
X116190615Y-96813383D01*
X116160623Y-96843375D01*
X116135397Y-96894976D01*
X116104118Y-96958958D01*
X116093200Y-97033894D01*
X116093200Y-97377058D01*
X116104118Y-97451994D01*
X116160624Y-97567578D01*
X116251598Y-97658552D01*
X116367182Y-97715058D01*
X116367183Y-97715058D01*
X116374089Y-97718434D01*
X116373227Y-97720196D01*
X116414976Y-97749612D01*
X116434726Y-97807523D01*
X116416665Y-97865982D01*
X116405740Y-97878962D01*
X116361035Y-97923667D01*
X116304603Y-98039101D01*
X116293700Y-98113938D01*
X116293700Y-98135475D01*
X116293701Y-98135476D01*
X116764700Y-98135476D01*
X116822891Y-98154383D01*
X116858855Y-98203883D01*
X116863700Y-98234476D01*
X116863700Y-98336476D01*
X116844793Y-98394667D01*
X116795293Y-98430631D01*
X116764700Y-98435476D01*
X116293702Y-98435476D01*
X116293701Y-98435477D01*
X116293701Y-98457014D01*
X116304603Y-98531851D01*
X116361035Y-98647283D01*
X116438871Y-98725119D01*
X116466648Y-98779636D01*
X116457077Y-98840068D01*
X116438871Y-98865126D01*
X116360625Y-98943372D01*
X116360623Y-98943375D01*
X116350048Y-98965007D01*
X116304153Y-99058888D01*
X116304116Y-99058963D01*
X116303561Y-99060759D01*
X116302507Y-99062254D01*
X116300742Y-99065865D01*
X116300162Y-99065581D01*
X116268313Y-99110772D01*
X116210401Y-99130515D01*
X116151944Y-99112447D01*
X116120547Y-99076036D01*
X116064719Y-98965124D01*
X116062641Y-98960732D01*
X115839358Y-98457014D01*
X115712550Y-98170939D01*
X115710697Y-98166464D01*
X115706037Y-98154383D01*
X115399787Y-97360460D01*
X115398169Y-97355934D01*
X115174866Y-96679989D01*
X115127182Y-96535647D01*
X115125771Y-96530997D01*
X115110412Y-96475498D01*
X114895366Y-95698417D01*
X114894187Y-95693707D01*
X114798954Y-95269618D01*
X114704912Y-94850833D01*
X114703966Y-94846075D01*
X114703203Y-94841679D01*
X114556270Y-93994890D01*
X114555566Y-93990144D01*
X114449816Y-93132739D01*
X114449340Y-93127912D01*
X114448911Y-93122102D01*
X114385787Y-92266354D01*
X114385550Y-92261507D01*
X114383870Y-92193076D01*
X114364349Y-91397879D01*
X114364349Y-91393072D01*
X114374732Y-90970117D01*
X114395060Y-90912412D01*
X114445428Y-90877674D01*
X114506595Y-90879176D01*
G37*
%TD.AperFunction*%
%TA.AperFunction,Conductor*%
G36*
X127359574Y-88250871D02*
G01*
X127402839Y-88294136D01*
X127412410Y-88354568D01*
X127398270Y-88392046D01*
X127307800Y-88534913D01*
X127298988Y-88549614D01*
X127173172Y-88771710D01*
X127165081Y-88786849D01*
X127050320Y-89014839D01*
X127042992Y-89030333D01*
X126939545Y-89263706D01*
X126932975Y-89279567D01*
X126841137Y-89517648D01*
X126835323Y-89533897D01*
X126755285Y-89776179D01*
X126750287Y-89792651D01*
X126682224Y-90038600D01*
X126682216Y-90038630D01*
X126678042Y-90055294D01*
X126678037Y-90055313D01*
X126678034Y-90055328D01*
X126622123Y-90304306D01*
X126618768Y-90321179D01*
X126575134Y-90572637D01*
X126572613Y-90589639D01*
X126541372Y-90842936D01*
X126540251Y-90854323D01*
X126539688Y-90860040D01*
X126530038Y-90990866D01*
X126520911Y-91114587D01*
X126520070Y-91131740D01*
X126513805Y-91386910D01*
X126513700Y-91395438D01*
X126513700Y-97994278D01*
X126494793Y-98052469D01*
X126445293Y-98088433D01*
X126384107Y-98088433D01*
X126365179Y-98080002D01*
X125578503Y-97625526D01*
X125513676Y-97588074D01*
X125472748Y-97542593D01*
X125464200Y-97502351D01*
X125464200Y-96342750D01*
X125463380Y-96339688D01*
X125436907Y-96240889D01*
X125433887Y-96235659D01*
X125384181Y-96149565D01*
X125384180Y-96149563D01*
X125309613Y-96074996D01*
X125300464Y-96069714D01*
X125218289Y-96022270D01*
X125218288Y-96022269D01*
X125218287Y-96022269D01*
X125116427Y-95994976D01*
X125116425Y-95994976D01*
X124225237Y-95994976D01*
X124167046Y-95976069D01*
X124139502Y-95945479D01*
X124080805Y-95843811D01*
X123982965Y-95745971D01*
X123863136Y-95676788D01*
X123729483Y-95640976D01*
X123591117Y-95640976D01*
X123457464Y-95676788D01*
X123337635Y-95745971D01*
X123239795Y-95843811D01*
X123170612Y-95963640D01*
X123134800Y-96097293D01*
X123134800Y-96235659D01*
X123170612Y-96369312D01*
X123239795Y-96489141D01*
X123337635Y-96586981D01*
X123457464Y-96656164D01*
X123591117Y-96691976D01*
X123591119Y-96691976D01*
X123597385Y-96693655D01*
X123597012Y-96695045D01*
X123636724Y-96713982D01*
X123638241Y-96712007D01*
X123643391Y-96715959D01*
X123734708Y-96768681D01*
X123734706Y-96768681D01*
X123734710Y-96768682D01*
X123734712Y-96768683D01*
X123836573Y-96795976D01*
X124564200Y-96795976D01*
X124622391Y-96814883D01*
X124658355Y-96864383D01*
X124663200Y-96894976D01*
X124663200Y-97016478D01*
X124644293Y-97074669D01*
X124594793Y-97110633D01*
X124570648Y-97115268D01*
X124557072Y-97116154D01*
X124467683Y-97160206D01*
X124418548Y-97216202D01*
X124418546Y-97216205D01*
X124314082Y-97397026D01*
X124268601Y-97437954D01*
X124207749Y-97444333D01*
X124154769Y-97413725D01*
X124142628Y-97397010D01*
X124084605Y-97296511D01*
X123986765Y-97198671D01*
X123866936Y-97129488D01*
X123733283Y-97093676D01*
X123733281Y-97093676D01*
X123727015Y-97091997D01*
X123727386Y-97090610D01*
X123678792Y-97067426D01*
X123676942Y-97065624D01*
X123634314Y-97022996D01*
X123634308Y-97022992D01*
X123542991Y-96970270D01*
X123542993Y-96970270D01*
X123500774Y-96958958D01*
X123441127Y-96942976D01*
X123441125Y-96942976D01*
X120698378Y-96942976D01*
X120640187Y-96924069D01*
X120604223Y-96874569D01*
X120604223Y-96813383D01*
X120628372Y-96773974D01*
X120634206Y-96768141D01*
X120703389Y-96648312D01*
X120726609Y-96561650D01*
X120752230Y-96517272D01*
X120869532Y-96399972D01*
X120924049Y-96372195D01*
X120939535Y-96370976D01*
X121706552Y-96370976D01*
X121706554Y-96370976D01*
X121789340Y-96348794D01*
X121789342Y-96348792D01*
X121789344Y-96348792D01*
X121863558Y-96305944D01*
X121863558Y-96305943D01*
X121863563Y-96305941D01*
X123153107Y-95016394D01*
X123207622Y-94988619D01*
X123268054Y-94998190D01*
X123308845Y-95036899D01*
X123325154Y-95065147D01*
X123329495Y-95072665D01*
X123427335Y-95170505D01*
X123547164Y-95239688D01*
X123680817Y-95275500D01*
X123680819Y-95275500D01*
X123819181Y-95275500D01*
X123819183Y-95275500D01*
X123952836Y-95239688D01*
X124072665Y-95170505D01*
X124105671Y-95137499D01*
X124138675Y-95104496D01*
X124193192Y-95076719D01*
X124208678Y-95075500D01*
X124358411Y-95075500D01*
X124416602Y-95094407D01*
X124417739Y-95095246D01*
X124518272Y-95170504D01*
X124519774Y-95171628D01*
X124647886Y-95219412D01*
X124704515Y-95225500D01*
X125295484Y-95225499D01*
X125352114Y-95219412D01*
X125480226Y-95171628D01*
X125589687Y-95089687D01*
X125671628Y-94980226D01*
X125719412Y-94852114D01*
X125725500Y-94795485D01*
X125725499Y-94254516D01*
X125719412Y-94197886D01*
X125671628Y-94069774D01*
X125589687Y-93960313D01*
X125553476Y-93933206D01*
X125480228Y-93878373D01*
X125480226Y-93878372D01*
X125384023Y-93842489D01*
X125336111Y-93804440D01*
X125319714Y-93745492D01*
X125341096Y-93688165D01*
X125384027Y-93656975D01*
X125479982Y-93621186D01*
X125589327Y-93539331D01*
X125589331Y-93539327D01*
X125671185Y-93429983D01*
X125718916Y-93302009D01*
X125718918Y-93302001D01*
X125725000Y-93245434D01*
X125725000Y-93125001D01*
X125724999Y-93125000D01*
X124275002Y-93125000D01*
X124275001Y-93125001D01*
X124275001Y-93245436D01*
X124281081Y-93302004D01*
X124281082Y-93302006D01*
X124328814Y-93429983D01*
X124410668Y-93539327D01*
X124410672Y-93539331D01*
X124520016Y-93621185D01*
X124615973Y-93656975D01*
X124663887Y-93695025D01*
X124680285Y-93753972D01*
X124658903Y-93811300D01*
X124615974Y-93842490D01*
X124583645Y-93854549D01*
X124519771Y-93878373D01*
X124410315Y-93960311D01*
X124410311Y-93960315D01*
X124328373Y-94069771D01*
X124280587Y-94197887D01*
X124274500Y-94254518D01*
X124274500Y-94292322D01*
X124255593Y-94350513D01*
X124206093Y-94386477D01*
X124144907Y-94386477D01*
X124105497Y-94362327D01*
X124093683Y-94350513D01*
X124072665Y-94329495D01*
X123952836Y-94260312D01*
X123819183Y-94224500D01*
X123680817Y-94224500D01*
X123680814Y-94224500D01*
X123634547Y-94236897D01*
X123573446Y-94233694D01*
X123525897Y-94195188D01*
X123510062Y-94136087D01*
X123519984Y-94097792D01*
X123553566Y-94029101D01*
X123564200Y-93956112D01*
X123564200Y-93634840D01*
X123553566Y-93561851D01*
X123498526Y-93449265D01*
X123409911Y-93360650D01*
X123346182Y-93329495D01*
X123297325Y-93305610D01*
X123297326Y-93305610D01*
X123279077Y-93302951D01*
X123224336Y-93294976D01*
X122903064Y-93294976D01*
X122867778Y-93300117D01*
X122830073Y-93305610D01*
X122717490Y-93360649D01*
X122628873Y-93449266D01*
X122573834Y-93561849D01*
X122572621Y-93570176D01*
X122563200Y-93634840D01*
X122563200Y-93956112D01*
X122563993Y-93961553D01*
X122573834Y-94029102D01*
X122607413Y-94097788D01*
X122628874Y-94141687D01*
X122709205Y-94222018D01*
X122736981Y-94276533D01*
X122738200Y-94292020D01*
X122738200Y-94469642D01*
X122719293Y-94527833D01*
X122709204Y-94539646D01*
X122400228Y-94848622D01*
X122345711Y-94876399D01*
X122285279Y-94866828D01*
X122242014Y-94823563D01*
X122231224Y-94778618D01*
X122231224Y-94680818D01*
X122225162Y-94658194D01*
X122195412Y-94547164D01*
X122126229Y-94427335D01*
X122028389Y-94329495D01*
X121908560Y-94260312D01*
X121774907Y-94224500D01*
X121772765Y-94223926D01*
X121721450Y-94190602D01*
X121699524Y-94133480D01*
X121700606Y-94112822D01*
X121714200Y-94026995D01*
X121714199Y-93663958D01*
X121699346Y-93570172D01*
X121641750Y-93457134D01*
X121601060Y-93416444D01*
X121573285Y-93361930D01*
X121582856Y-93301498D01*
X121601056Y-93276446D01*
X122172936Y-92704565D01*
X124275000Y-92704565D01*
X124275000Y-92824999D01*
X124275001Y-92825000D01*
X124849999Y-92825000D01*
X124850000Y-92824999D01*
X124850000Y-92275001D01*
X125150000Y-92275001D01*
X125150000Y-92824999D01*
X125150001Y-92825000D01*
X125724998Y-92825000D01*
X125724999Y-92824999D01*
X125724999Y-92704569D01*
X125724998Y-92704563D01*
X125718918Y-92647995D01*
X125718917Y-92647993D01*
X125671185Y-92520016D01*
X125589331Y-92410672D01*
X125589327Y-92410668D01*
X125479983Y-92328814D01*
X125352009Y-92281083D01*
X125352001Y-92281081D01*
X125295434Y-92275000D01*
X125150001Y-92275000D01*
X125150000Y-92275001D01*
X124850000Y-92275001D01*
X124849999Y-92275000D01*
X124704569Y-92275000D01*
X124704563Y-92275001D01*
X124647995Y-92281081D01*
X124647993Y-92281082D01*
X124520016Y-92328814D01*
X124410672Y-92410668D01*
X124410668Y-92410672D01*
X124328814Y-92520016D01*
X124281083Y-92647990D01*
X124281081Y-92647998D01*
X124275000Y-92704565D01*
X122172936Y-92704565D01*
X122756811Y-92120689D01*
X122756816Y-92120686D01*
X122761852Y-92115650D01*
X122768519Y-92112251D01*
X122782536Y-92102150D01*
X122782542Y-92102147D01*
X122783720Y-92104504D01*
X122816366Y-92087867D01*
X122846129Y-92087681D01*
X122903064Y-92095976D01*
X122903069Y-92095976D01*
X123224332Y-92095976D01*
X123224336Y-92095976D01*
X123297325Y-92085342D01*
X123409911Y-92030302D01*
X123498526Y-91941687D01*
X123498527Y-91941684D01*
X123504327Y-91935885D01*
X123506295Y-91937853D01*
X123544814Y-91909359D01*
X123550569Y-91907627D01*
X123583539Y-91898794D01*
X123657762Y-91855941D01*
X127244627Y-88269075D01*
X127299142Y-88241300D01*
X127359574Y-88250871D01*
G37*
%TD.AperFunction*%
%TA.AperFunction,Conductor*%
G36*
X119547891Y-95768907D02*
G01*
X119583855Y-95818407D01*
X119588700Y-95849000D01*
X119588700Y-96474998D01*
X119588701Y-96474999D01*
X119601609Y-96474999D01*
X119659800Y-96493906D01*
X119695764Y-96543406D01*
X119697229Y-96548354D01*
X119724013Y-96648312D01*
X119793196Y-96768141D01*
X119820354Y-96795299D01*
X119848130Y-96849814D01*
X119838559Y-96910246D01*
X119795294Y-96953511D01*
X119775974Y-96960927D01*
X119741112Y-96970268D01*
X119685363Y-97002456D01*
X119679894Y-97005614D01*
X119661077Y-97016478D01*
X119649784Y-97022998D01*
X118966800Y-97705980D01*
X118912284Y-97733757D01*
X118896798Y-97734976D01*
X118772963Y-97734976D01*
X118681525Y-97749459D01*
X118681521Y-97749460D01*
X118571310Y-97805616D01*
X118571309Y-97805616D01*
X118571309Y-97805617D01*
X118533701Y-97843224D01*
X118479187Y-97871000D01*
X118418755Y-97861429D01*
X118393699Y-97843225D01*
X118356091Y-97805617D01*
X118245875Y-97749459D01*
X118245876Y-97749459D01*
X118154436Y-97734976D01*
X117812962Y-97734976D01*
X117721525Y-97749459D01*
X117721521Y-97749460D01*
X117611310Y-97805616D01*
X117523840Y-97893086D01*
X117522221Y-97896264D01*
X117519702Y-97898782D01*
X117519263Y-97899387D01*
X117519167Y-97899317D01*
X117478952Y-97939525D01*
X117418519Y-97949091D01*
X117364011Y-97921315D01*
X117275507Y-97832811D01*
X117153166Y-97773002D01*
X117154066Y-97771159D01*
X117112548Y-97741895D01*
X117092808Y-97683982D01*
X117110879Y-97625526D01*
X117121789Y-97612564D01*
X117166776Y-97567578D01*
X117223282Y-97451994D01*
X117234200Y-97377058D01*
X117234200Y-97136309D01*
X117253107Y-97078118D01*
X117263190Y-97066311D01*
X117825006Y-96504494D01*
X117879523Y-96476718D01*
X117895010Y-96475499D01*
X118159179Y-96475499D01*
X118159184Y-96475499D01*
X118215814Y-96469412D01*
X118343926Y-96421628D01*
X118453387Y-96339687D01*
X118535328Y-96230226D01*
X118571210Y-96134022D01*
X118609259Y-96086112D01*
X118668206Y-96069714D01*
X118725533Y-96091096D01*
X118756724Y-96134026D01*
X118792514Y-96229983D01*
X118874368Y-96339327D01*
X118874372Y-96339331D01*
X118983716Y-96421185D01*
X119111690Y-96468916D01*
X119111698Y-96468918D01*
X119168266Y-96474999D01*
X119288700Y-96474999D01*
X119288700Y-95849000D01*
X119307607Y-95790809D01*
X119357107Y-95754845D01*
X119387700Y-95750000D01*
X119489700Y-95750000D01*
X119547891Y-95768907D01*
G37*
%TD.AperFunction*%
%TA.AperFunction,Conductor*%
G36*
X120648956Y-94754183D02*
G01*
X120660769Y-94764272D01*
X120736200Y-94839703D01*
X120763977Y-94894220D01*
X120754406Y-94954652D01*
X120751933Y-94959206D01*
X120707112Y-95036838D01*
X120691687Y-95094407D01*
X120673933Y-95160669D01*
X120669621Y-95176761D01*
X120667103Y-95176086D01*
X120645521Y-95221294D01*
X120591741Y-95250471D01*
X120531082Y-95242465D01*
X120524233Y-95238860D01*
X120504537Y-95227488D01*
X120459985Y-95215550D01*
X120370883Y-95191676D01*
X120232517Y-95191676D01*
X120125425Y-95220371D01*
X120064323Y-95217168D01*
X120020548Y-95184072D01*
X120003031Y-95160672D01*
X120003028Y-95160669D01*
X119998951Y-95157617D01*
X119963699Y-95107608D01*
X119964573Y-95046429D01*
X120001241Y-94997448D01*
X120033840Y-94984727D01*
X120033285Y-94982655D01*
X120039551Y-94980976D01*
X120039553Y-94980976D01*
X120122339Y-94958794D01*
X120122341Y-94958792D01*
X120122343Y-94958792D01*
X120196557Y-94915944D01*
X120196557Y-94915943D01*
X120196562Y-94915941D01*
X120308623Y-94803880D01*
X120348232Y-94764272D01*
X120402748Y-94736495D01*
X120418235Y-94735276D01*
X120590765Y-94735276D01*
X120648956Y-94754183D01*
G37*
%TD.AperFunction*%
%TA.AperFunction,Conductor*%
G36*
X119529931Y-92298994D02*
G01*
X119529936Y-92298999D01*
X119896073Y-92665137D01*
X119896074Y-92665137D01*
X119896075Y-92665138D01*
X119896074Y-92665138D01*
X119935500Y-92704563D01*
X119956678Y-92725741D01*
X120030902Y-92768594D01*
X120030904Y-92768594D01*
X120036522Y-92771838D01*
X120035772Y-92773135D01*
X120076559Y-92807975D01*
X120090838Y-92867471D01*
X120067420Y-92923997D01*
X120062148Y-92929701D01*
X119519394Y-93472455D01*
X119464877Y-93500232D01*
X119404445Y-93490661D01*
X119369293Y-93460636D01*
X119366753Y-93457140D01*
X119366750Y-93457134D01*
X119358881Y-93449265D01*
X119349741Y-93440124D01*
X119321965Y-93385607D01*
X119331537Y-93325175D01*
X119349744Y-93300117D01*
X119366340Y-93283521D01*
X119366340Y-93283520D01*
X119423863Y-93170627D01*
X119423864Y-93170623D01*
X119438699Y-93076960D01*
X119438699Y-92713993D01*
X119438698Y-92713990D01*
X119423866Y-92620334D01*
X119423863Y-92620324D01*
X119366341Y-92507432D01*
X119349742Y-92490833D01*
X119321965Y-92436316D01*
X119331536Y-92375884D01*
X119349739Y-92350828D01*
X119366750Y-92333818D01*
X119371724Y-92324055D01*
X119414984Y-92280794D01*
X119475416Y-92271220D01*
X119529931Y-92298994D01*
G37*
%TD.AperFunction*%
%TA.AperFunction,Conductor*%
G36*
X121264230Y-89605708D02*
G01*
X121338872Y-89680350D01*
X121366648Y-89734865D01*
X121357077Y-89795297D01*
X121338871Y-89820355D01*
X121261036Y-89898190D01*
X121261033Y-89898194D01*
X121237093Y-89947164D01*
X121194549Y-89991137D01*
X121134283Y-90001706D01*
X121121540Y-89995476D01*
X120487501Y-89995476D01*
X120487500Y-89995477D01*
X120487500Y-90270474D01*
X120487501Y-90270475D01*
X120802041Y-90270475D01*
X120802051Y-90270474D01*
X120851196Y-90264005D01*
X120851201Y-90264004D01*
X120959067Y-90213704D01*
X121024696Y-90148075D01*
X121079212Y-90120297D01*
X121139644Y-90129868D01*
X121182909Y-90173132D01*
X121193700Y-90218078D01*
X121193700Y-90431535D01*
X121193701Y-90431538D01*
X121204603Y-90506375D01*
X121261035Y-90621807D01*
X121351892Y-90712664D01*
X121467325Y-90769096D01*
X121542162Y-90779999D01*
X121861900Y-90779999D01*
X121920090Y-90798906D01*
X121956055Y-90848406D01*
X121960900Y-90878999D01*
X121960900Y-91483541D01*
X121941993Y-91541732D01*
X121931903Y-91553545D01*
X121834828Y-91650619D01*
X121780312Y-91678396D01*
X121719879Y-91668824D01*
X121676616Y-91625561D01*
X121658623Y-91590249D01*
X121641750Y-91557134D01*
X121552042Y-91467426D01*
X121439004Y-91409830D01*
X121439005Y-91409830D01*
X121345222Y-91394976D01*
X121345219Y-91394976D01*
X120752035Y-91394976D01*
X120693844Y-91376069D01*
X120682031Y-91365980D01*
X120104496Y-90788445D01*
X120076719Y-90733928D01*
X120075500Y-90718441D01*
X120075500Y-90457148D01*
X120075500Y-90457147D01*
X120058874Y-90395097D01*
X120062077Y-90333996D01*
X120100582Y-90286446D01*
X120154501Y-90270475D01*
X120187499Y-90270475D01*
X120187500Y-90270474D01*
X120187500Y-89944476D01*
X120206407Y-89886285D01*
X120255907Y-89850321D01*
X120286500Y-89845476D01*
X120337499Y-89845476D01*
X120337500Y-89845475D01*
X120337500Y-89794476D01*
X120356407Y-89736285D01*
X120405907Y-89700321D01*
X120436500Y-89695476D01*
X121096976Y-89695476D01*
X121096075Y-89688633D01*
X121107228Y-89628472D01*
X121151612Y-89586357D01*
X121212274Y-89578372D01*
X121264230Y-89605708D01*
G37*
%TD.AperFunction*%
%TA.AperFunction,Conductor*%
G36*
X127089452Y-83801884D02*
G01*
X127102597Y-83812925D01*
X127289153Y-83999480D01*
X127316931Y-84053997D01*
X127318150Y-84069484D01*
X127318150Y-84317941D01*
X127299243Y-84376132D01*
X127289154Y-84387944D01*
X126831626Y-84845472D01*
X126794009Y-84892151D01*
X126794007Y-84892155D01*
X126734218Y-85023073D01*
X126713739Y-85165523D01*
X126713739Y-85165530D01*
X126734218Y-85307980D01*
X126778860Y-85405731D01*
X126794008Y-85438900D01*
X126831627Y-85485583D01*
X127073119Y-85727075D01*
X127289153Y-85943108D01*
X127316931Y-85997625D01*
X127318150Y-86013112D01*
X127318150Y-86053180D01*
X127299243Y-86111371D01*
X127289154Y-86123184D01*
X126601021Y-86811317D01*
X126546504Y-86839094D01*
X126486072Y-86829523D01*
X126461013Y-86811317D01*
X126335502Y-86685806D01*
X125204131Y-87817177D01*
X125204131Y-87834008D01*
X125214422Y-87854206D01*
X125204851Y-87914638D01*
X125161586Y-87957903D01*
X125101154Y-87967474D01*
X125097366Y-87966531D01*
X125090478Y-87965382D01*
X125090477Y-87965382D01*
X124965157Y-87965382D01*
X124912120Y-87983590D01*
X124846623Y-88006075D01*
X124787503Y-88050159D01*
X124560317Y-88277345D01*
X124516233Y-88336465D01*
X124505014Y-88369146D01*
X124475540Y-88454999D01*
X124475540Y-88580319D01*
X124507213Y-88672578D01*
X124516233Y-88698852D01*
X124560317Y-88757972D01*
X124560320Y-88757975D01*
X124560323Y-88757979D01*
X124787497Y-88985153D01*
X124787500Y-88985155D01*
X124787503Y-88985158D01*
X124846624Y-89029242D01*
X124846627Y-89029244D01*
X124937060Y-89060290D01*
X124985958Y-89097067D01*
X125003900Y-89155562D01*
X124984034Y-89213432D01*
X124974918Y-89223929D01*
X124178453Y-90020394D01*
X124123936Y-90048171D01*
X124063504Y-90038600D01*
X124020239Y-89995335D01*
X124014817Y-89982544D01*
X123983768Y-89892103D01*
X123979430Y-89886285D01*
X123939678Y-89832974D01*
X123900696Y-89793991D01*
X123872919Y-89739474D01*
X123871700Y-89723988D01*
X123871700Y-87145421D01*
X124734345Y-87145421D01*
X124734345Y-87145428D01*
X124754804Y-87287736D01*
X124814533Y-87418523D01*
X124852109Y-87465153D01*
X124991999Y-87605043D01*
X125451617Y-87145424D01*
X124991999Y-86685806D01*
X124852113Y-86825691D01*
X124814533Y-86872326D01*
X124754804Y-87003113D01*
X124734345Y-87145421D01*
X123871700Y-87145421D01*
X123871700Y-87087393D01*
X123890607Y-87029202D01*
X123940107Y-86993238D01*
X123945062Y-86991770D01*
X123952836Y-86989688D01*
X124072665Y-86920505D01*
X124170505Y-86822665D01*
X124239688Y-86702836D01*
X124275500Y-86569183D01*
X124275500Y-86473673D01*
X125204132Y-86473673D01*
X125663750Y-86933291D01*
X126123369Y-86473673D01*
X125983479Y-86333783D01*
X125936849Y-86296207D01*
X125806062Y-86236478D01*
X125663754Y-86216019D01*
X125663748Y-86216019D01*
X125521439Y-86236478D01*
X125390652Y-86296207D01*
X125344017Y-86333787D01*
X125204132Y-86473673D01*
X124275500Y-86473673D01*
X124275500Y-86430817D01*
X124239688Y-86297164D01*
X124170505Y-86177335D01*
X124072665Y-86079495D01*
X123952836Y-86010312D01*
X123819183Y-85974500D01*
X123680817Y-85974500D01*
X123547164Y-86010312D01*
X123427335Y-86079495D01*
X123329495Y-86177335D01*
X123260312Y-86297164D01*
X123224500Y-86430817D01*
X123224500Y-86569183D01*
X123226434Y-86576400D01*
X123228029Y-86582354D01*
X123228029Y-86633592D01*
X123221891Y-86656504D01*
X123220700Y-86660948D01*
X123220700Y-89575954D01*
X123201793Y-89634145D01*
X123191705Y-89645956D01*
X123159681Y-89677979D01*
X123105166Y-89705756D01*
X123044734Y-89696185D01*
X123040180Y-89693712D01*
X123006537Y-89674288D01*
X122961985Y-89662350D01*
X122872883Y-89638476D01*
X122734517Y-89638476D01*
X122734516Y-89638476D01*
X122728085Y-89639323D01*
X122727779Y-89637000D01*
X122676919Y-89634334D01*
X122629370Y-89595827D01*
X122613400Y-89541910D01*
X122613400Y-87745046D01*
X122607988Y-87724849D01*
X122607978Y-87724814D01*
X122605204Y-87714461D01*
X122591218Y-87662261D01*
X122591216Y-87662258D01*
X122591216Y-87662256D01*
X122548368Y-87588042D01*
X122548366Y-87588040D01*
X122548365Y-87588038D01*
X122199862Y-87239535D01*
X122199859Y-87239533D01*
X122199857Y-87239531D01*
X122125642Y-87196683D01*
X122125644Y-87196683D01*
X122093521Y-87188076D01*
X122042853Y-87174500D01*
X121340123Y-87174500D01*
X121298730Y-87185591D01*
X121257336Y-87196682D01*
X121192719Y-87233989D01*
X121183114Y-87239534D01*
X120331666Y-88090980D01*
X120277150Y-88118757D01*
X120261663Y-88119976D01*
X119872902Y-88119976D01*
X119872890Y-88119977D01*
X119823670Y-88126456D01*
X119715643Y-88176830D01*
X119631354Y-88261119D01*
X119589448Y-88350987D01*
X119547720Y-88395735D01*
X119487658Y-88407409D01*
X119432206Y-88381551D01*
X119410000Y-88350987D01*
X119368229Y-88261410D01*
X119284065Y-88177246D01*
X119176198Y-88126947D01*
X119176200Y-88126947D01*
X119127045Y-88120476D01*
X118812501Y-88120476D01*
X118812500Y-88120477D01*
X118812500Y-88446476D01*
X118793593Y-88504667D01*
X118744093Y-88540631D01*
X118713500Y-88545476D01*
X118662501Y-88545476D01*
X118662500Y-88545477D01*
X118662500Y-88596476D01*
X118643593Y-88654667D01*
X118594093Y-88690631D01*
X118563500Y-88695476D01*
X117903024Y-88695476D01*
X117906471Y-88721677D01*
X117909950Y-88729136D01*
X117917407Y-88789865D01*
X117887745Y-88843379D01*
X117832292Y-88869238D01*
X117820226Y-88869976D01*
X117764977Y-88869976D01*
X117679271Y-88869976D01*
X117609417Y-88888693D01*
X117548316Y-88885490D01*
X117500766Y-88846985D01*
X117484931Y-88787884D01*
X117506858Y-88730763D01*
X117523528Y-88714524D01*
X117728570Y-88557190D01*
X117822937Y-88434209D01*
X117873362Y-88399553D01*
X117901479Y-88395476D01*
X118512499Y-88395476D01*
X118512500Y-88395475D01*
X118512500Y-88120477D01*
X118512499Y-88120476D01*
X118218517Y-88120476D01*
X118160326Y-88101569D01*
X118124362Y-88052069D01*
X118124362Y-87990883D01*
X118127044Y-87983613D01*
X118297972Y-87570957D01*
X118372935Y-87001555D01*
X118297972Y-86432154D01*
X118152960Y-86082065D01*
X118078191Y-85901555D01*
X118078190Y-85901554D01*
X117937054Y-85717622D01*
X117916630Y-85659947D01*
X117934007Y-85601281D01*
X117964127Y-85572786D01*
X118016632Y-85540831D01*
X118016633Y-85540830D01*
X118280259Y-85298619D01*
X117407496Y-84348688D01*
X117350969Y-84346295D01*
X116916507Y-84745464D01*
X116916435Y-84747155D01*
X116940271Y-84799274D01*
X116928152Y-84859247D01*
X116883096Y-84900643D01*
X116822313Y-84907650D01*
X116804037Y-84902075D01*
X116742342Y-84876520D01*
X116742333Y-84876518D01*
X116172936Y-84801555D01*
X116172934Y-84801555D01*
X115779298Y-84853378D01*
X115719137Y-84842228D01*
X115677020Y-84797846D01*
X115669034Y-84737184D01*
X115674010Y-84719595D01*
X115710709Y-84624456D01*
X115712545Y-84620024D01*
X116005650Y-83958783D01*
X116046514Y-83913250D01*
X116106342Y-83900430D01*
X116162278Y-83925225D01*
X116169057Y-83931925D01*
X116781195Y-84598186D01*
X117245853Y-84171275D01*
X117257075Y-84166142D01*
X117259435Y-84163168D01*
X117270050Y-84160209D01*
X117301496Y-84145828D01*
X117313174Y-84148187D01*
X117318373Y-84146739D01*
X117442384Y-84151988D01*
X117442769Y-84151813D01*
X117443974Y-84152056D01*
X117456842Y-84152601D01*
X117456755Y-84154636D01*
X117502745Y-84163919D01*
X117527029Y-84183179D01*
X118427535Y-85163306D01*
X118637774Y-84970148D01*
X118693417Y-84944701D01*
X118753390Y-84956821D01*
X118777653Y-84976068D01*
X118870818Y-85077470D01*
X119041990Y-85263777D01*
X119042025Y-85263821D01*
X119047216Y-85269470D01*
X119047217Y-85269472D01*
X119079420Y-85304517D01*
X119085985Y-85311661D01*
X119093824Y-85320193D01*
X119109634Y-85337401D01*
X119109656Y-85337423D01*
X119132757Y-85362561D01*
X119132759Y-85362563D01*
X119132764Y-85362568D01*
X119260050Y-85455627D01*
X119316266Y-85481747D01*
X119403036Y-85522066D01*
X119403041Y-85522067D01*
X119403044Y-85522069D01*
X119556251Y-85559341D01*
X119713786Y-85566011D01*
X119869596Y-85541822D01*
X120017694Y-85487705D01*
X120152390Y-85405737D01*
X120170833Y-85388794D01*
X120176221Y-85383846D01*
X120176260Y-85383814D01*
X120181333Y-85379152D01*
X120181335Y-85379152D01*
X120205413Y-85357029D01*
X120210450Y-85352403D01*
X120245500Y-85320205D01*
X120245500Y-85320204D01*
X120252126Y-85314118D01*
X120252161Y-85314078D01*
X120342023Y-85231516D01*
X121375925Y-85231516D01*
X121663211Y-85544203D01*
X121663213Y-85544205D01*
X121723228Y-85588088D01*
X121819864Y-85611599D01*
X121918143Y-85596340D01*
X121981651Y-85557687D01*
X121981652Y-85557687D01*
X122186217Y-85369739D01*
X125313638Y-85369739D01*
X125328869Y-85384970D01*
X125389495Y-85430178D01*
X125511024Y-85471899D01*
X125639512Y-85471899D01*
X125761045Y-85430175D01*
X125821658Y-85384978D01*
X125821673Y-85384965D01*
X125872252Y-85334385D01*
X125610623Y-85072756D01*
X125313638Y-85369739D01*
X122186217Y-85369739D01*
X122220702Y-85338055D01*
X121780935Y-84859406D01*
X121375925Y-85231516D01*
X120342023Y-85231516D01*
X120829771Y-84783390D01*
X120885408Y-84757947D01*
X120945381Y-84770066D01*
X120969647Y-84789316D01*
X121172956Y-85010600D01*
X121615522Y-84603986D01*
X121671165Y-84578539D01*
X121731138Y-84590658D01*
X121755404Y-84609908D01*
X121789909Y-84647464D01*
X121827465Y-84612960D01*
X121883107Y-84587513D01*
X121943080Y-84599632D01*
X121967347Y-84618882D01*
X122441617Y-85135086D01*
X122680662Y-84915462D01*
X122724552Y-84855438D01*
X122728662Y-84846596D01*
X122730725Y-84847555D01*
X122755821Y-84806875D01*
X122793343Y-84789717D01*
X122792821Y-84788289D01*
X122801976Y-84784942D01*
X122801980Y-84784942D01*
X122865618Y-84746211D01*
X123002576Y-84620377D01*
X123058216Y-84594932D01*
X123118189Y-84607051D01*
X123131200Y-84615817D01*
X123262430Y-84720261D01*
X123286513Y-84748217D01*
X123329495Y-84822665D01*
X123427335Y-84920505D01*
X123547164Y-84989688D01*
X123680817Y-85025500D01*
X123680819Y-85025500D01*
X123819181Y-85025500D01*
X123819183Y-85025500D01*
X123952836Y-84989688D01*
X124072665Y-84920505D01*
X124170505Y-84822665D01*
X124239688Y-84702836D01*
X124275500Y-84569183D01*
X124275500Y-84569180D01*
X124276347Y-84562749D01*
X124278204Y-84562993D01*
X124294407Y-84513126D01*
X124343907Y-84477162D01*
X124405093Y-84477162D01*
X124444504Y-84501313D01*
X124607298Y-84664107D01*
X124647770Y-84694285D01*
X124668007Y-84709376D01*
X124789691Y-84751149D01*
X124900349Y-84751149D01*
X124958540Y-84770056D01*
X124994504Y-84819556D01*
X124999349Y-84850149D01*
X124999349Y-84960222D01*
X125041071Y-85081754D01*
X125086276Y-85142378D01*
X125101506Y-85157607D01*
X125101507Y-85157607D01*
X125398492Y-84860623D01*
X125822756Y-84860623D01*
X126084384Y-85122251D01*
X126134969Y-85071667D01*
X126180178Y-85011041D01*
X126221899Y-84889513D01*
X126221899Y-84820899D01*
X126240806Y-84762708D01*
X126290306Y-84726744D01*
X126320899Y-84721899D01*
X126389512Y-84721899D01*
X126511045Y-84680175D01*
X126571658Y-84634978D01*
X126571673Y-84634965D01*
X126622252Y-84584385D01*
X126360623Y-84322756D01*
X125822756Y-84860623D01*
X125398492Y-84860623D01*
X125504558Y-84754558D01*
X126184554Y-84074562D01*
X126239071Y-84046784D01*
X126299503Y-84056355D01*
X126324562Y-84074561D01*
X126360624Y-84110623D01*
X126396685Y-84074562D01*
X126451201Y-84046784D01*
X126511633Y-84056355D01*
X126536692Y-84074561D01*
X126834383Y-84372251D01*
X126884969Y-84321667D01*
X126930178Y-84261041D01*
X126971899Y-84139513D01*
X126971899Y-84011025D01*
X126938958Y-83915075D01*
X126937946Y-83853898D01*
X126973086Y-83803810D01*
X127030956Y-83783943D01*
X127089452Y-83801884D01*
G37*
%TD.AperFunction*%
%TA.AperFunction,Conductor*%
G36*
X138384241Y-77464918D02*
G01*
X138409297Y-77483121D01*
X138423219Y-77497043D01*
X138543048Y-77566226D01*
X138676701Y-77602038D01*
X138676703Y-77602038D01*
X138815062Y-77602038D01*
X138815067Y-77602038D01*
X138815071Y-77602036D01*
X138817431Y-77601726D01*
X138819115Y-77602038D01*
X138821556Y-77602038D01*
X138821556Y-77602490D01*
X138877593Y-77612874D01*
X138919711Y-77657255D01*
X138927700Y-77717917D01*
X138900361Y-77769882D01*
X138728083Y-77942160D01*
X138686697Y-78004100D01*
X138686696Y-78004102D01*
X138667253Y-78101843D01*
X138686696Y-78199584D01*
X138728084Y-78261526D01*
X139116532Y-78649974D01*
X139178474Y-78691362D01*
X139276215Y-78710805D01*
X139341681Y-78697782D01*
X139402440Y-78704972D01*
X139447371Y-78746503D01*
X139459309Y-78806513D01*
X139458093Y-78814193D01*
X139448612Y-78861857D01*
X139445070Y-78879661D01*
X139464513Y-78977402D01*
X139464514Y-78977403D01*
X139505900Y-79039343D01*
X139667383Y-79200827D01*
X139695160Y-79255343D01*
X139685589Y-79315775D01*
X139652386Y-79353142D01*
X139646866Y-79356830D01*
X139258411Y-79745285D01*
X139231406Y-79785702D01*
X139217026Y-79807224D01*
X139197583Y-79904965D01*
X139217026Y-80002706D01*
X139234010Y-80028125D01*
X139248884Y-80050386D01*
X139258414Y-80064648D01*
X139646862Y-80453096D01*
X139708804Y-80494484D01*
X139806545Y-80513927D01*
X139872011Y-80500904D01*
X139932770Y-80508094D01*
X139977701Y-80549625D01*
X139989639Y-80609635D01*
X139988423Y-80617315D01*
X139979490Y-80662224D01*
X139975400Y-80682783D01*
X139994843Y-80780524D01*
X140036231Y-80842466D01*
X140424679Y-81230914D01*
X140486621Y-81272302D01*
X140584362Y-81291745D01*
X140649828Y-81278722D01*
X140710588Y-81285912D01*
X140755519Y-81327444D01*
X140767457Y-81387453D01*
X140766242Y-81395127D01*
X140753218Y-81460600D01*
X140772661Y-81558341D01*
X140814049Y-81620283D01*
X141202497Y-82008731D01*
X141264439Y-82050119D01*
X141362180Y-82069562D01*
X141427646Y-82056539D01*
X141488405Y-82063729D01*
X141533336Y-82105260D01*
X141545274Y-82165270D01*
X141544058Y-82172950D01*
X141531035Y-82238418D01*
X141550478Y-82336159D01*
X141591866Y-82398101D01*
X141980314Y-82786549D01*
X142042256Y-82827937D01*
X142139997Y-82847380D01*
X142205463Y-82834357D01*
X142266222Y-82841547D01*
X142311153Y-82883078D01*
X142323091Y-82943088D01*
X142321876Y-82950762D01*
X142308852Y-83016235D01*
X142328295Y-83113976D01*
X142333963Y-83122459D01*
X142362078Y-83164537D01*
X142369683Y-83175918D01*
X142758131Y-83564366D01*
X142820073Y-83605754D01*
X142917814Y-83625197D01*
X143015555Y-83605754D01*
X143077497Y-83564366D01*
X143465945Y-83175918D01*
X143507333Y-83113976D01*
X143526776Y-83016235D01*
X143507333Y-82918494D01*
X143465945Y-82856552D01*
X143077497Y-82468104D01*
X143070223Y-82463244D01*
X143021694Y-82430818D01*
X143015555Y-82426716D01*
X142917814Y-82407273D01*
X142917813Y-82407273D01*
X142898153Y-82411184D01*
X142852347Y-82420295D01*
X142791586Y-82413104D01*
X142746656Y-82371572D01*
X142734719Y-82311563D01*
X142735933Y-82303898D01*
X142748959Y-82238418D01*
X142729516Y-82140677D01*
X142688128Y-82078735D01*
X142526642Y-81917249D01*
X142498867Y-81862735D01*
X142508438Y-81802303D01*
X142541649Y-81764931D01*
X142541799Y-81764830D01*
X142547167Y-81761244D01*
X142935615Y-81372796D01*
X142977003Y-81310854D01*
X142996446Y-81213113D01*
X142977003Y-81115372D01*
X142935615Y-81053430D01*
X142865606Y-80983421D01*
X142774132Y-80891946D01*
X142746355Y-80837430D01*
X142755926Y-80776998D01*
X142789137Y-80739626D01*
X142793568Y-80736665D01*
X142794655Y-80735939D01*
X142935616Y-80594978D01*
X142988291Y-80542304D01*
X143042807Y-80514527D01*
X143058294Y-80513308D01*
X143586077Y-80513308D01*
X143586079Y-80513308D01*
X143668865Y-80491126D01*
X143668867Y-80491124D01*
X143668869Y-80491124D01*
X143743088Y-80448273D01*
X143793182Y-80398179D01*
X144050440Y-80140918D01*
X144104954Y-80113142D01*
X144139751Y-80113824D01*
X144193039Y-80124425D01*
X144193044Y-80124425D01*
X144321176Y-80124425D01*
X144321177Y-80124425D01*
X144446852Y-80099426D01*
X144565235Y-80050390D01*
X144671777Y-79979201D01*
X144762384Y-79888594D01*
X144833573Y-79782052D01*
X144882609Y-79663669D01*
X144907608Y-79537994D01*
X144907608Y-79472732D01*
X144926515Y-79414541D01*
X144976015Y-79378577D01*
X145037201Y-79378577D01*
X145078308Y-79404467D01*
X145118494Y-79446676D01*
X145176415Y-79507513D01*
X145179678Y-79511113D01*
X145743952Y-80165263D01*
X145747034Y-80169019D01*
X145968731Y-80453098D01*
X146244093Y-80805943D01*
X146278504Y-80850036D01*
X146281396Y-80853935D01*
X146485165Y-81143265D01*
X146500597Y-81165176D01*
X146518645Y-81223639D01*
X146498883Y-81281545D01*
X146493600Y-81288009D01*
X145995640Y-81847362D01*
X145991687Y-81851550D01*
X138747684Y-89092957D01*
X138746329Y-89094286D01*
X138588158Y-89246451D01*
X138543674Y-89271115D01*
X138481109Y-89286854D01*
X138420064Y-89282714D01*
X138373111Y-89243483D01*
X138358184Y-89184147D01*
X138371220Y-89141347D01*
X138422400Y-89052701D01*
X138458212Y-88919048D01*
X138458212Y-88804398D01*
X138477119Y-88746207D01*
X138484983Y-88736692D01*
X138850641Y-88346658D01*
X138904231Y-88317139D01*
X138942176Y-88317272D01*
X138993372Y-88327457D01*
X139091113Y-88308014D01*
X139153055Y-88266626D01*
X139541503Y-87878178D01*
X139582891Y-87816236D01*
X139602334Y-87718495D01*
X139582891Y-87620754D01*
X139541503Y-87558812D01*
X139380017Y-87397326D01*
X139352242Y-87342812D01*
X139361813Y-87282380D01*
X139395024Y-87245008D01*
X139395174Y-87244907D01*
X139400542Y-87241321D01*
X139788990Y-86852873D01*
X139830378Y-86790931D01*
X139849821Y-86693190D01*
X139830378Y-86595449D01*
X139788990Y-86533507D01*
X139400542Y-86145059D01*
X139338600Y-86103671D01*
X139240859Y-86084228D01*
X139240858Y-86084228D01*
X139226617Y-86087061D01*
X139175392Y-86097250D01*
X139114631Y-86090059D01*
X139069701Y-86048527D01*
X139057764Y-85988518D01*
X139058978Y-85980853D01*
X139072004Y-85915373D01*
X139052561Y-85817632D01*
X139011173Y-85755690D01*
X138622725Y-85367242D01*
X138615728Y-85362567D01*
X138578064Y-85337401D01*
X138560783Y-85325854D01*
X138463042Y-85306411D01*
X138463041Y-85306411D01*
X138397574Y-85319434D01*
X138336813Y-85312242D01*
X138291883Y-85270710D01*
X138279946Y-85210700D01*
X138281160Y-85203036D01*
X138294186Y-85137556D01*
X138274743Y-85039815D01*
X138233355Y-84977873D01*
X137844907Y-84589425D01*
X137842045Y-84587513D01*
X137792988Y-84554734D01*
X137782965Y-84548037D01*
X137685224Y-84528594D01*
X137685223Y-84528594D01*
X137675260Y-84530576D01*
X137619757Y-84541616D01*
X137558996Y-84534425D01*
X137514066Y-84492893D01*
X137502129Y-84432884D01*
X137503346Y-84425203D01*
X137516369Y-84359738D01*
X137496926Y-84261997D01*
X137455538Y-84200055D01*
X137067090Y-83811607D01*
X137052538Y-83801884D01*
X137036329Y-83791053D01*
X137005148Y-83770219D01*
X136907407Y-83750776D01*
X136907406Y-83750776D01*
X136841939Y-83763799D01*
X136781178Y-83756607D01*
X136736248Y-83715075D01*
X136724311Y-83655065D01*
X136725525Y-83647401D01*
X136738551Y-83581921D01*
X136719108Y-83484180D01*
X136677720Y-83422238D01*
X136289272Y-83033790D01*
X136276338Y-83025148D01*
X136227331Y-82992403D01*
X136227330Y-82992402D01*
X136129589Y-82972959D01*
X136031848Y-82992402D01*
X136031846Y-82992402D01*
X136031846Y-82992403D01*
X135969909Y-83033787D01*
X135581454Y-83422242D01*
X135577766Y-83427762D01*
X135529714Y-83465638D01*
X135468575Y-83468036D01*
X135425451Y-83442759D01*
X135263967Y-83281276D01*
X135202027Y-83239890D01*
X135202026Y-83239889D01*
X135104285Y-83220446D01*
X135104284Y-83220446D01*
X135038817Y-83233469D01*
X134978056Y-83226277D01*
X134933126Y-83184745D01*
X134921189Y-83124735D01*
X134922403Y-83117071D01*
X134935429Y-83051591D01*
X134915986Y-82953850D01*
X134874598Y-82891908D01*
X134573951Y-82591261D01*
X134546176Y-82536747D01*
X134555747Y-82476315D01*
X134573950Y-82451259D01*
X134603130Y-82422079D01*
X134657645Y-82394304D01*
X134718077Y-82403875D01*
X134743132Y-82422078D01*
X134825935Y-82504881D01*
X134945764Y-82574064D01*
X135079417Y-82609876D01*
X135079419Y-82609876D01*
X135217781Y-82609876D01*
X135217783Y-82609876D01*
X135351436Y-82574064D01*
X135471265Y-82504881D01*
X135569105Y-82407041D01*
X135638288Y-82287212D01*
X135674100Y-82153559D01*
X135674100Y-82015193D01*
X135638288Y-81881540D01*
X135569105Y-81761711D01*
X135486303Y-81678909D01*
X135458528Y-81624395D01*
X135468099Y-81563963D01*
X135486302Y-81538908D01*
X135652416Y-81372796D01*
X135693804Y-81310854D01*
X135713247Y-81213113D01*
X135700224Y-81147646D01*
X135707414Y-81086885D01*
X135748946Y-81041955D01*
X135808955Y-81030017D01*
X135816625Y-81031232D01*
X135882102Y-81044257D01*
X135979843Y-81024814D01*
X136041785Y-80983426D01*
X136203267Y-80821942D01*
X136257783Y-80794165D01*
X136318216Y-80803736D01*
X136355587Y-80836945D01*
X136359276Y-80842466D01*
X136747724Y-81230914D01*
X136809666Y-81272302D01*
X136907407Y-81291745D01*
X137005148Y-81272302D01*
X137067090Y-81230914D01*
X137455538Y-80842466D01*
X137496926Y-80780524D01*
X137516369Y-80682783D01*
X137503346Y-80617315D01*
X137510536Y-80556555D01*
X137552068Y-80511625D01*
X137612077Y-80499687D01*
X137619747Y-80500902D01*
X137685224Y-80513927D01*
X137782965Y-80494484D01*
X137844907Y-80453096D01*
X138233355Y-80064648D01*
X138274743Y-80002706D01*
X138294186Y-79904965D01*
X138274743Y-79807224D01*
X138233355Y-79745282D01*
X137844907Y-79356834D01*
X137844901Y-79356830D01*
X137839389Y-79353147D01*
X137801508Y-79305099D01*
X137799104Y-79243961D01*
X137824385Y-79200826D01*
X137854131Y-79171081D01*
X137985868Y-79039344D01*
X138027256Y-78977402D01*
X138046699Y-78879661D01*
X138027256Y-78781920D01*
X137985868Y-78719978D01*
X137597420Y-78331530D01*
X137597416Y-78331527D01*
X137597414Y-78331525D01*
X137591896Y-78327838D01*
X137554019Y-78279787D01*
X137551619Y-78218649D01*
X137576898Y-78175521D01*
X137613890Y-78138530D01*
X137738381Y-78014039D01*
X137779769Y-77952097D01*
X137799212Y-77854356D01*
X137786189Y-77788889D01*
X137793379Y-77728128D01*
X137834911Y-77683198D01*
X137894920Y-77671260D01*
X137902590Y-77672475D01*
X137968067Y-77685500D01*
X138065808Y-77666057D01*
X138127750Y-77624669D01*
X138269293Y-77483124D01*
X138323809Y-77455347D01*
X138384241Y-77464918D01*
G37*
%TD.AperFunction*%
%TA.AperFunction,Conductor*%
G36*
X132929737Y-73717326D02*
G01*
X132934578Y-73717563D01*
X133796145Y-73781116D01*
X133800963Y-73781592D01*
X134658368Y-73887342D01*
X134663114Y-73888046D01*
X135514308Y-74035743D01*
X135519018Y-74036679D01*
X136240023Y-74198587D01*
X136292653Y-74229783D01*
X136316898Y-74285960D01*
X136303492Y-74345659D01*
X136299497Y-74350804D01*
X136299497Y-74354019D01*
X136695476Y-74749999D01*
X137091455Y-75145977D01*
X137106087Y-75131345D01*
X137160438Y-75056539D01*
X137189642Y-74966657D01*
X137217160Y-74928778D01*
X137216925Y-74928543D01*
X137218414Y-74927053D01*
X137225605Y-74917156D01*
X137229614Y-74915853D01*
X137263700Y-74881766D01*
X137263700Y-74881768D01*
X137523526Y-74621940D01*
X137578041Y-74594164D01*
X137624581Y-74597941D01*
X138024171Y-74729949D01*
X138028684Y-74731563D01*
X138834703Y-75042479D01*
X138839163Y-75044326D01*
X139261581Y-75231571D01*
X139628956Y-75394417D01*
X139633349Y-75396495D01*
X139726905Y-75443587D01*
X140363779Y-75764163D01*
X140404959Y-75784891D01*
X140409238Y-75787178D01*
X141152133Y-76208023D01*
X141160896Y-76212987D01*
X141165059Y-76215482D01*
X141894921Y-76677660D01*
X141898940Y-76680346D01*
X142605257Y-77177791D01*
X142609139Y-77180670D01*
X143253068Y-77683198D01*
X143290176Y-77712157D01*
X143293931Y-77715238D01*
X143948064Y-78279497D01*
X143951641Y-78282740D01*
X144116281Y-78439490D01*
X144340248Y-78652725D01*
X144369355Y-78706543D01*
X144361269Y-78767192D01*
X144319079Y-78811505D01*
X144271983Y-78823425D01*
X144193038Y-78823425D01*
X144130201Y-78835924D01*
X144067364Y-78848424D01*
X144067363Y-78848424D01*
X144067360Y-78848425D01*
X143948982Y-78897459D01*
X143948974Y-78897463D01*
X143842439Y-78968649D01*
X143842435Y-78968652D01*
X143751835Y-79059252D01*
X143751832Y-79059256D01*
X143680646Y-79165791D01*
X143680642Y-79165799D01*
X143631608Y-79284177D01*
X143631607Y-79284180D01*
X143631607Y-79284181D01*
X143624786Y-79318470D01*
X143606608Y-79409855D01*
X143606608Y-79537997D01*
X143617206Y-79591276D01*
X143610014Y-79652038D01*
X143590112Y-79680593D01*
X143437396Y-79833311D01*
X143382880Y-79861089D01*
X143367392Y-79862308D01*
X143058294Y-79862308D01*
X143000103Y-79843401D01*
X142988291Y-79833312D01*
X142794654Y-79639676D01*
X142732714Y-79598290D01*
X142732713Y-79598289D01*
X142634972Y-79578846D01*
X142634971Y-79578846D01*
X142569504Y-79591869D01*
X142508743Y-79584677D01*
X142463813Y-79543145D01*
X142451876Y-79483135D01*
X142453090Y-79475471D01*
X142466116Y-79409991D01*
X142446673Y-79312250D01*
X142405285Y-79250308D01*
X142016837Y-78861860D01*
X141996728Y-78848424D01*
X141986076Y-78841306D01*
X141954895Y-78820472D01*
X141857154Y-78801029D01*
X141857153Y-78801029D01*
X141829586Y-78806513D01*
X141791687Y-78814051D01*
X141730926Y-78806860D01*
X141685996Y-78765328D01*
X141674059Y-78705319D01*
X141675276Y-78697638D01*
X141688299Y-78632173D01*
X141668856Y-78534432D01*
X141627468Y-78472490D01*
X141239020Y-78084042D01*
X141177078Y-78042654D01*
X141079337Y-78023211D01*
X141079336Y-78023211D01*
X141013869Y-78036234D01*
X140953108Y-78029042D01*
X140908178Y-77987510D01*
X140896241Y-77927500D01*
X140897455Y-77919836D01*
X140910481Y-77854356D01*
X140891038Y-77756615D01*
X140849650Y-77694673D01*
X140461202Y-77306225D01*
X140457372Y-77303666D01*
X140414021Y-77274700D01*
X140399260Y-77264837D01*
X140301519Y-77245394D01*
X140301518Y-77245394D01*
X140283753Y-77248928D01*
X140236052Y-77258416D01*
X140175291Y-77251225D01*
X140130361Y-77209693D01*
X140118424Y-77149684D01*
X140119641Y-77142003D01*
X140132664Y-77076538D01*
X140113221Y-76978797D01*
X140071833Y-76916855D01*
X139683385Y-76528407D01*
X139677859Y-76524715D01*
X139621444Y-76487020D01*
X139621443Y-76487019D01*
X139523702Y-76467576D01*
X139425961Y-76487019D01*
X139425959Y-76487019D01*
X139425959Y-76487020D01*
X139364019Y-76528406D01*
X139222473Y-76669951D01*
X139167956Y-76697728D01*
X139107524Y-76688156D01*
X139082469Y-76669953D01*
X139068549Y-76656033D01*
X138948720Y-76586850D01*
X138815067Y-76551038D01*
X138676701Y-76551038D01*
X138543048Y-76586850D01*
X138423216Y-76656035D01*
X138409299Y-76669952D01*
X138354781Y-76697729D01*
X138294350Y-76688155D01*
X138269296Y-76669953D01*
X138127750Y-76528407D01*
X138127746Y-76528404D01*
X138127744Y-76528402D01*
X138122226Y-76524715D01*
X138084349Y-76476664D01*
X138081949Y-76415526D01*
X138107228Y-76372398D01*
X138149002Y-76330625D01*
X138268711Y-76210916D01*
X138310099Y-76148974D01*
X138329542Y-76051233D01*
X138310099Y-75953492D01*
X138268711Y-75891550D01*
X137880263Y-75503102D01*
X137867016Y-75494251D01*
X137849502Y-75482548D01*
X137818321Y-75461714D01*
X137720580Y-75442271D01*
X137622839Y-75461714D01*
X137622837Y-75461714D01*
X137622837Y-75461715D01*
X137560897Y-75503101D01*
X137277927Y-75786070D01*
X137223411Y-75813847D01*
X137162979Y-75804275D01*
X137137920Y-75786069D01*
X137072883Y-75721031D01*
X136998663Y-75678180D01*
X136998665Y-75678180D01*
X136966542Y-75669573D01*
X136915874Y-75655997D01*
X136915872Y-75655997D01*
X136710448Y-75655997D01*
X136652257Y-75637090D01*
X136616293Y-75587590D01*
X136616293Y-75526404D01*
X136652257Y-75476904D01*
X136679856Y-75462842D01*
X136789888Y-75427091D01*
X136789891Y-75427089D01*
X136864692Y-75372744D01*
X136864693Y-75372743D01*
X136879324Y-75358110D01*
X136483345Y-74962131D01*
X136483345Y-74962130D01*
X136087364Y-74566150D01*
X136072736Y-74580780D01*
X136018383Y-74655589D01*
X135980209Y-74773083D01*
X135980209Y-74826184D01*
X135961302Y-74884375D01*
X135911802Y-74920339D01*
X135881209Y-74925184D01*
X135827527Y-74925184D01*
X135788312Y-74937925D01*
X135709880Y-74963409D01*
X135634985Y-75017824D01*
X135393529Y-75259281D01*
X135339109Y-75334181D01*
X135327627Y-75369521D01*
X135291663Y-75419021D01*
X135233472Y-75437927D01*
X135201344Y-75431538D01*
X135201267Y-75431828D01*
X135196848Y-75430644D01*
X135195596Y-75430395D01*
X135195004Y-75430149D01*
X135162881Y-75421542D01*
X135112213Y-75407966D01*
X135112211Y-75407966D01*
X133043869Y-75407966D01*
X132985678Y-75389059D01*
X132983600Y-75387507D01*
X132969395Y-75376607D01*
X132965861Y-75373895D01*
X132965858Y-75373894D01*
X132965855Y-75373892D01*
X132853855Y-75333127D01*
X132853853Y-75333127D01*
X132734656Y-75333127D01*
X132734653Y-75333127D01*
X132622653Y-75373892D01*
X132622643Y-75373897D01*
X132583258Y-75404117D01*
X132583257Y-75404118D01*
X132285341Y-75702033D01*
X132230825Y-75729810D01*
X132181479Y-75725059D01*
X132076034Y-75686681D01*
X131956837Y-75686681D01*
X131956834Y-75686681D01*
X131844833Y-75727446D01*
X131844825Y-75727451D01*
X131805436Y-75757674D01*
X131805435Y-75757675D01*
X131625685Y-75937427D01*
X131595462Y-75976815D01*
X131595460Y-75976818D01*
X131583224Y-76010435D01*
X131545553Y-76058648D01*
X131524058Y-76069600D01*
X131491535Y-76081438D01*
X131491527Y-76081442D01*
X131470565Y-76097526D01*
X131526977Y-76153938D01*
X131551026Y-76200139D01*
X131551730Y-76199883D01*
X131553676Y-76205229D01*
X131554469Y-76206753D01*
X131554693Y-76208023D01*
X131595458Y-76320024D01*
X131595463Y-76320034D01*
X131625683Y-76359419D01*
X131625685Y-76359421D01*
X131625686Y-76359422D01*
X131701259Y-76434995D01*
X131742785Y-76476520D01*
X131770563Y-76531037D01*
X131760992Y-76591469D01*
X131742786Y-76616528D01*
X131724048Y-76635266D01*
X131669531Y-76663043D01*
X131609099Y-76653472D01*
X131584041Y-76635266D01*
X131258433Y-76309659D01*
X131258432Y-76309659D01*
X131242348Y-76330621D01*
X131242348Y-76330622D01*
X131230286Y-76363763D01*
X131192616Y-76411978D01*
X131171116Y-76422933D01*
X131137975Y-76434995D01*
X131137974Y-76434995D01*
X131117012Y-76451079D01*
X131117012Y-76451080D01*
X131442619Y-76776688D01*
X131470396Y-76831204D01*
X131460825Y-76891636D01*
X131442618Y-76916695D01*
X131380772Y-76978540D01*
X131326255Y-77006317D01*
X131276909Y-77001565D01*
X131244588Y-76989801D01*
X131208445Y-76966776D01*
X130904880Y-76663212D01*
X130888796Y-76684175D01*
X130888795Y-76684176D01*
X130848087Y-76796020D01*
X130848087Y-76915040D01*
X130886355Y-77020183D01*
X130888490Y-77081331D01*
X130863329Y-77124045D01*
X130565028Y-77422349D01*
X130534800Y-77461742D01*
X130502555Y-77550333D01*
X130479530Y-77586475D01*
X130315837Y-77750169D01*
X130261320Y-77777947D01*
X130200888Y-77768376D01*
X130181539Y-77755448D01*
X130178677Y-77753003D01*
X130103788Y-77698593D01*
X130103786Y-77698592D01*
X129986142Y-77660367D01*
X129862444Y-77660367D01*
X129844932Y-77666057D01*
X129744797Y-77698592D01*
X129669902Y-77753007D01*
X129428446Y-77994464D01*
X129374027Y-78069363D01*
X129351554Y-78138530D01*
X129339536Y-78175521D01*
X129335803Y-78187009D01*
X129335803Y-78240690D01*
X129316896Y-78298881D01*
X129267396Y-78334845D01*
X129236803Y-78339690D01*
X129183702Y-78339690D01*
X129066207Y-78377865D01*
X128991403Y-78432213D01*
X128976770Y-78446846D01*
X129372749Y-78842826D01*
X129778390Y-79248466D01*
X129786416Y-79264218D01*
X129798388Y-79277229D01*
X129802389Y-79295567D01*
X129806168Y-79302983D01*
X129805259Y-79308719D01*
X129807387Y-79318470D01*
X129807387Y-79348640D01*
X130016684Y-79557937D01*
X130380844Y-79193778D01*
X130590614Y-78984008D01*
X130645131Y-78956231D01*
X130705563Y-78965802D01*
X130730622Y-78984008D01*
X130802746Y-79056132D01*
X130830523Y-79110649D01*
X130820952Y-79171081D01*
X130802746Y-79196140D01*
X130122750Y-79876136D01*
X130122749Y-79876136D01*
X129726770Y-80272113D01*
X129741406Y-80286748D01*
X129816208Y-80341097D01*
X129933702Y-80379271D01*
X129933703Y-80379272D01*
X129986803Y-80379272D01*
X130044994Y-80398179D01*
X130080958Y-80447679D01*
X130085803Y-80478272D01*
X130085803Y-80531954D01*
X130106281Y-80594978D01*
X130124028Y-80649600D01*
X130178443Y-80724495D01*
X130178444Y-80724496D01*
X130178445Y-80724497D01*
X130419901Y-80965952D01*
X130494799Y-81020370D01*
X130612444Y-81058595D01*
X130612446Y-81058595D01*
X130687100Y-81058595D01*
X130745291Y-81077502D01*
X130781255Y-81127002D01*
X130786100Y-81157595D01*
X130786100Y-82542823D01*
X130786100Y-82628529D01*
X130801121Y-82684588D01*
X130808283Y-82711319D01*
X130851131Y-82785533D01*
X130851133Y-82785535D01*
X130851135Y-82785538D01*
X131064234Y-82998637D01*
X131092010Y-83053152D01*
X131089856Y-83094261D01*
X131054800Y-83225093D01*
X131054800Y-83363459D01*
X131090612Y-83497112D01*
X131159795Y-83616941D01*
X131257635Y-83714781D01*
X131262480Y-83717578D01*
X131303420Y-83763045D01*
X131309817Y-83823895D01*
X131292345Y-83862493D01*
X131254324Y-83913481D01*
X131212551Y-84035166D01*
X131212551Y-84145327D01*
X131193644Y-84203518D01*
X131144144Y-84239482D01*
X131113551Y-84244327D01*
X131003391Y-84244327D01*
X130881707Y-84286099D01*
X130820996Y-84331370D01*
X130650787Y-84501580D01*
X130596270Y-84529357D01*
X130580783Y-84530576D01*
X129760244Y-84530576D01*
X129738823Y-84536316D01*
X129677722Y-84533113D01*
X129630173Y-84494607D01*
X129614202Y-84440691D01*
X129614201Y-84436930D01*
X129324289Y-84147019D01*
X129055588Y-84415718D01*
X129091434Y-84451563D01*
X129166239Y-84505914D01*
X129283733Y-84544088D01*
X129283734Y-84544089D01*
X129415063Y-84544089D01*
X129415063Y-84547506D01*
X129460797Y-84554734D01*
X129504076Y-84597984D01*
X129513668Y-84658413D01*
X129485909Y-84712939D01*
X129485886Y-84712963D01*
X128657154Y-85541694D01*
X128602637Y-85569471D01*
X128542205Y-85559900D01*
X128498940Y-85516635D01*
X128489369Y-85456203D01*
X128497097Y-85430563D01*
X128497273Y-85430178D01*
X128553078Y-85307984D01*
X128565083Y-85224480D01*
X128573559Y-85165530D01*
X128573559Y-85165523D01*
X128553079Y-85023073D01*
X128549116Y-85014396D01*
X128493290Y-84892154D01*
X128493289Y-84892153D01*
X128493289Y-84892152D01*
X128457350Y-84847555D01*
X128455671Y-84845471D01*
X128229082Y-84618882D01*
X127998146Y-84387945D01*
X127970369Y-84333429D01*
X127969150Y-84317942D01*
X127969150Y-83944490D01*
X127969151Y-83944477D01*
X127969151Y-83850796D01*
X127969150Y-83850794D01*
X127968189Y-83847209D01*
X127946968Y-83768011D01*
X127911697Y-83706921D01*
X127911697Y-83706920D01*
X127911694Y-83706917D01*
X127904115Y-83693788D01*
X127843512Y-83633185D01*
X127843509Y-83633183D01*
X127324302Y-83113976D01*
X126804496Y-82594169D01*
X126776719Y-82539652D01*
X126775500Y-82524165D01*
X126775500Y-82430818D01*
X126771977Y-82417670D01*
X126739688Y-82297164D01*
X126670505Y-82177335D01*
X126572665Y-82079495D01*
X126452836Y-82010312D01*
X126319183Y-81974500D01*
X126180817Y-81974500D01*
X126180815Y-81974500D01*
X126174386Y-81975347D01*
X126173990Y-81972343D01*
X126125309Y-81969763D01*
X126097995Y-81953853D01*
X126084065Y-81942408D01*
X126076654Y-81930817D01*
X127474500Y-81930817D01*
X127474500Y-82069183D01*
X127510312Y-82202836D01*
X127579495Y-82322665D01*
X127645505Y-82388675D01*
X127673281Y-82443190D01*
X127674500Y-82458677D01*
X127674500Y-82709184D01*
X127674500Y-82794890D01*
X127691022Y-82856552D01*
X127696683Y-82877680D01*
X127739531Y-82951894D01*
X127739533Y-82951896D01*
X127739535Y-82951899D01*
X127762308Y-82974672D01*
X127790084Y-83029187D01*
X127791303Y-83044674D01*
X127791303Y-83139598D01*
X127833075Y-83261281D01*
X127843193Y-83274850D01*
X127878345Y-83321991D01*
X128191709Y-83635355D01*
X128218142Y-83655065D01*
X128252418Y-83680624D01*
X128374102Y-83722397D01*
X128374103Y-83722397D01*
X128502761Y-83722397D01*
X128601518Y-83688494D01*
X128662695Y-83687483D01*
X128712783Y-83722623D01*
X128732649Y-83780493D01*
X128727818Y-83812721D01*
X128715087Y-83851902D01*
X128715087Y-83975442D01*
X128753262Y-84092937D01*
X128807611Y-84167742D01*
X128843456Y-84203585D01*
X129148218Y-83898824D01*
X129202735Y-83871047D01*
X129263167Y-83880618D01*
X129288225Y-83898824D01*
X129324288Y-83934886D01*
X129360350Y-83898825D01*
X129414866Y-83871047D01*
X129475298Y-83880618D01*
X129500357Y-83898824D01*
X129826333Y-84224799D01*
X129840965Y-84210167D01*
X129895316Y-84135362D01*
X129933490Y-84017868D01*
X129933491Y-84017867D01*
X129933491Y-83964768D01*
X129952398Y-83906577D01*
X130001898Y-83870613D01*
X130032491Y-83865768D01*
X130086171Y-83865768D01*
X130086173Y-83865768D01*
X130203818Y-83827543D01*
X130278716Y-83773126D01*
X130520171Y-83531670D01*
X130574589Y-83456772D01*
X130612814Y-83339127D01*
X130612814Y-83215429D01*
X130574589Y-83097785D01*
X130520172Y-83022886D01*
X130236290Y-82739005D01*
X130236288Y-82739003D01*
X130161393Y-82684588D01*
X130161391Y-82684587D01*
X130043747Y-82646362D01*
X129920049Y-82646362D01*
X129920048Y-82646362D01*
X129912352Y-82647581D01*
X129911825Y-82644258D01*
X129898360Y-82648931D01*
X129882346Y-82644076D01*
X129865614Y-82644042D01*
X129853800Y-82635421D01*
X129839806Y-82631179D01*
X129826400Y-82619957D01*
X129765092Y-82558650D01*
X129737316Y-82504134D01*
X129736097Y-82488647D01*
X129736097Y-82373259D01*
X129740646Y-82359257D01*
X129740355Y-82344536D01*
X129749863Y-82330888D01*
X129755004Y-82315068D01*
X129766915Y-82306413D01*
X129775332Y-82294334D01*
X129791045Y-82288881D01*
X129804504Y-82279104D01*
X129812920Y-82277199D01*
X129812915Y-82277179D01*
X129819181Y-82275500D01*
X129819183Y-82275500D01*
X129952836Y-82239688D01*
X130072665Y-82170505D01*
X130170505Y-82072665D01*
X130239688Y-81952836D01*
X130275500Y-81819183D01*
X130275500Y-81680817D01*
X130239688Y-81547164D01*
X130170505Y-81427335D01*
X130072665Y-81329495D01*
X129952836Y-81260312D01*
X129819183Y-81224500D01*
X129680817Y-81224500D01*
X129568758Y-81254526D01*
X129547164Y-81260312D01*
X129427335Y-81329495D01*
X129329495Y-81427335D01*
X129260312Y-81547164D01*
X129224499Y-81680819D01*
X129223653Y-81687251D01*
X129221770Y-81687003D01*
X129205593Y-81736794D01*
X129156093Y-81772758D01*
X129125500Y-81777603D01*
X129024639Y-81777603D01*
X128902955Y-81819375D01*
X128842244Y-81864646D01*
X128694504Y-82012387D01*
X128639987Y-82040164D01*
X128579555Y-82030593D01*
X128536290Y-81987328D01*
X128525500Y-81942383D01*
X128525500Y-81930818D01*
X128524711Y-81927872D01*
X128489688Y-81797164D01*
X128420505Y-81677335D01*
X128322665Y-81579495D01*
X128202836Y-81510312D01*
X128069183Y-81474500D01*
X127930817Y-81474500D01*
X127797164Y-81510312D01*
X127677335Y-81579495D01*
X127579495Y-81677335D01*
X127510312Y-81797164D01*
X127474500Y-81930817D01*
X126076654Y-81930817D01*
X126051106Y-81890858D01*
X126054742Y-81829781D01*
X126079929Y-81793016D01*
X126215686Y-81668289D01*
X126259657Y-81608152D01*
X126259657Y-81608149D01*
X126263767Y-81599308D01*
X126265592Y-81600156D01*
X126291128Y-81558763D01*
X126327892Y-81541949D01*
X126327292Y-81540306D01*
X126336448Y-81536959D01*
X126399957Y-81498306D01*
X126399958Y-81498306D01*
X126639008Y-81278674D01*
X126164738Y-80762471D01*
X126158216Y-80748211D01*
X126147608Y-80736665D01*
X126145812Y-80721087D01*
X126139291Y-80706828D01*
X126142396Y-80691458D01*
X126140601Y-80675882D01*
X126148304Y-80662224D01*
X126151410Y-80646855D01*
X126170660Y-80622589D01*
X126198448Y-80597057D01*
X126420157Y-80597057D01*
X126859923Y-81075705D01*
X127098968Y-80856080D01*
X127142857Y-80796060D01*
X127166368Y-80699424D01*
X127151109Y-80601145D01*
X127112454Y-80537633D01*
X126825168Y-80224946D01*
X126420157Y-80597057D01*
X126198448Y-80597057D01*
X126208215Y-80588083D01*
X126173711Y-80550528D01*
X126148264Y-80494885D01*
X126160383Y-80434912D01*
X126179633Y-80410646D01*
X126622200Y-80004031D01*
X126418892Y-79782747D01*
X126393445Y-79727104D01*
X126405565Y-79667131D01*
X126424809Y-79642870D01*
X126656803Y-79429723D01*
X128997983Y-79429723D01*
X129033829Y-79465568D01*
X129108634Y-79519919D01*
X129226128Y-79558093D01*
X129226129Y-79558094D01*
X129326918Y-79558094D01*
X129385109Y-79577001D01*
X129421073Y-79626501D01*
X129421073Y-79687687D01*
X129407482Y-79729515D01*
X129407482Y-79853051D01*
X129445657Y-79970546D01*
X129500008Y-80045354D01*
X129514638Y-80059982D01*
X129804552Y-79770069D01*
X129526190Y-79491707D01*
X129518163Y-79475954D01*
X129506193Y-79462945D01*
X129504617Y-79449368D01*
X129498413Y-79437191D01*
X129497194Y-79421704D01*
X129497194Y-79391535D01*
X129266683Y-79161024D01*
X128997983Y-79429723D01*
X126656803Y-79429723D01*
X127025533Y-79090948D01*
X127044114Y-79073877D01*
X127102172Y-79020535D01*
X127195245Y-78893248D01*
X127207949Y-78865910D01*
X128657482Y-78865910D01*
X128657482Y-78989447D01*
X128695657Y-79106942D01*
X128750006Y-79181747D01*
X128785851Y-79217591D01*
X129054551Y-78948892D01*
X128764637Y-78658978D01*
X128750009Y-78673607D01*
X128695656Y-78748416D01*
X128657482Y-78865910D01*
X127207949Y-78865910D01*
X127261696Y-78750249D01*
X127298974Y-78597034D01*
X127305644Y-78439490D01*
X127281451Y-78283673D01*
X127227324Y-78135569D01*
X127227319Y-78135560D01*
X127145346Y-78000874D01*
X127145339Y-78000865D01*
X127092002Y-77942811D01*
X127092002Y-77942812D01*
X127059801Y-77907764D01*
X127059800Y-77907763D01*
X126790252Y-77614382D01*
X126764806Y-77558741D01*
X126776925Y-77498768D01*
X126796175Y-77474502D01*
X127006412Y-77281342D01*
X126105907Y-76301216D01*
X126080460Y-76245573D01*
X126079945Y-76229050D01*
X126086483Y-76104384D01*
X126086444Y-76104297D01*
X126086504Y-76103998D01*
X126087279Y-76089227D01*
X126091935Y-76077097D01*
X126098553Y-76044322D01*
X126117811Y-76020040D01*
X126582470Y-75593127D01*
X125969780Y-74926264D01*
X125944333Y-74870621D01*
X125956452Y-74810648D01*
X126001508Y-74769252D01*
X126007004Y-74766938D01*
X126098724Y-74731557D01*
X126103211Y-74729952D01*
X126771331Y-74509235D01*
X126832514Y-74508935D01*
X126882190Y-74544656D01*
X126901383Y-74602753D01*
X126900537Y-74616161D01*
X126826486Y-75178628D01*
X126826486Y-75178629D01*
X126890108Y-75661885D01*
X126878958Y-75722046D01*
X126834576Y-75764163D01*
X126773914Y-75772149D01*
X126720143Y-75742954D01*
X126719052Y-75741786D01*
X126717782Y-75740404D01*
X126282889Y-76139966D01*
X126279998Y-76195088D01*
X127153689Y-77146030D01*
X127421580Y-76899902D01*
X127421586Y-76899896D01*
X127459720Y-76850340D01*
X127510191Y-76815753D01*
X127571354Y-76817437D01*
X127598447Y-76832172D01*
X127926484Y-77083884D01*
X127926485Y-77083885D01*
X128085339Y-77149684D01*
X128457085Y-77303666D01*
X128880875Y-77359459D01*
X129026485Y-77378629D01*
X129026486Y-77378629D01*
X129026487Y-77378629D01*
X129172097Y-77359459D01*
X129595888Y-77303666D01*
X130126486Y-77083885D01*
X130582121Y-76734264D01*
X130931742Y-76278629D01*
X131151523Y-75748031D01*
X131226486Y-75178629D01*
X131224387Y-75162689D01*
X131198579Y-74966657D01*
X131151523Y-74609228D01*
X130971560Y-74174758D01*
X130931742Y-74078628D01*
X130931741Y-74078627D01*
X130795165Y-73900638D01*
X130774741Y-73842963D01*
X130792118Y-73784297D01*
X130840660Y-73747050D01*
X130866417Y-73741640D01*
X131192822Y-73717563D01*
X131197659Y-73717326D01*
X132061297Y-73696125D01*
X132066103Y-73696125D01*
X132929737Y-73717326D01*
G37*
%TD.AperFunction*%
%TA.AperFunction,Conductor*%
G36*
X132530365Y-80163507D02*
G01*
X132571155Y-80202213D01*
X132578315Y-80214614D01*
X132643847Y-80280146D01*
X132671623Y-80334661D01*
X132662052Y-80395093D01*
X132643846Y-80420151D01*
X132505543Y-80558455D01*
X132470135Y-80611448D01*
X132464156Y-80620397D01*
X132444713Y-80718138D01*
X132457123Y-80780525D01*
X132457736Y-80783604D01*
X132450544Y-80844366D01*
X132409012Y-80889296D01*
X132349003Y-80901233D01*
X132341329Y-80900018D01*
X132275857Y-80886994D01*
X132178116Y-80906437D01*
X132178114Y-80906437D01*
X132178114Y-80906438D01*
X132116177Y-80947822D01*
X131727723Y-81336276D01*
X131686339Y-81398213D01*
X131686338Y-81398215D01*
X131666895Y-81495956D01*
X131686338Y-81593697D01*
X131704099Y-81620279D01*
X131723222Y-81648899D01*
X131727726Y-81655639D01*
X132116174Y-82044087D01*
X132178116Y-82085475D01*
X132275857Y-82104918D01*
X132373598Y-82085475D01*
X132435540Y-82044087D01*
X132823988Y-81655639D01*
X132865376Y-81593697D01*
X132884819Y-81495956D01*
X132871796Y-81430489D01*
X132878986Y-81369728D01*
X132920518Y-81324798D01*
X132980527Y-81312860D01*
X132988202Y-81314075D01*
X133053675Y-81327100D01*
X133151416Y-81307657D01*
X133213358Y-81266269D01*
X133374840Y-81104785D01*
X133429356Y-81077008D01*
X133489789Y-81086579D01*
X133527160Y-81119788D01*
X133530849Y-81125309D01*
X133919297Y-81513757D01*
X133919300Y-81513759D01*
X133924815Y-81517444D01*
X133962695Y-81565494D01*
X133965097Y-81626632D01*
X133939818Y-81669763D01*
X133778335Y-81831247D01*
X133736949Y-81893187D01*
X133736948Y-81893189D01*
X133717505Y-81990930D01*
X133736948Y-82088671D01*
X133736949Y-82088672D01*
X133778335Y-82150612D01*
X134078979Y-82451257D01*
X134106756Y-82505773D01*
X134097185Y-82566205D01*
X134078979Y-82591263D01*
X133778336Y-82891907D01*
X133774647Y-82897429D01*
X133726596Y-82935307D01*
X133665458Y-82937709D01*
X133622329Y-82912430D01*
X133460844Y-82750946D01*
X133429874Y-82730253D01*
X133398903Y-82709559D01*
X133301162Y-82690116D01*
X133203421Y-82709559D01*
X133203419Y-82709559D01*
X133203419Y-82709560D01*
X133141482Y-82750944D01*
X132753026Y-83139400D01*
X132711642Y-83201337D01*
X132711642Y-83201338D01*
X132707638Y-83221467D01*
X132677740Y-83274850D01*
X132659301Y-83288310D01*
X132236101Y-83527808D01*
X132176145Y-83540013D01*
X132120466Y-83514646D01*
X132090331Y-83461396D01*
X132091715Y-83416024D01*
X132098417Y-83391013D01*
X132105800Y-83363459D01*
X132105800Y-83225093D01*
X132069988Y-83091440D01*
X132000805Y-82971611D01*
X131902965Y-82873771D01*
X131873141Y-82856552D01*
X131812648Y-82821626D01*
X131792145Y-82805894D01*
X131466096Y-82479845D01*
X131438319Y-82425328D01*
X131437100Y-82409841D01*
X131437100Y-81201040D01*
X131456007Y-81142849D01*
X131466090Y-81131042D01*
X132328868Y-80268265D01*
X132415420Y-80181712D01*
X132469933Y-80153936D01*
X132530365Y-80163507D01*
G37*
%TD.AperFunction*%
%TA.AperFunction,Conductor*%
G36*
X134951716Y-76077873D02*
G01*
X134963529Y-76087962D01*
X135899779Y-77024212D01*
X135927556Y-77078729D01*
X135917985Y-77139161D01*
X135899778Y-77164220D01*
X135722295Y-77341702D01*
X135667779Y-77369479D01*
X135607347Y-77359908D01*
X135582289Y-77341702D01*
X135480121Y-77239535D01*
X135480116Y-77239531D01*
X135405901Y-77196683D01*
X135405903Y-77196683D01*
X135373780Y-77188076D01*
X135323112Y-77174500D01*
X135323110Y-77174500D01*
X134361697Y-77174500D01*
X134303506Y-77155593D01*
X134267542Y-77106093D01*
X134267542Y-77044907D01*
X134274904Y-77027877D01*
X134275449Y-77026883D01*
X134316157Y-76915039D01*
X134316157Y-76796020D01*
X134275449Y-76684177D01*
X134275449Y-76684176D01*
X134259362Y-76663212D01*
X133933757Y-76988819D01*
X133879240Y-77016596D01*
X133818808Y-77007025D01*
X133793750Y-76988819D01*
X133757687Y-76952757D01*
X133721624Y-76988819D01*
X133667107Y-77016596D01*
X133606675Y-77007024D01*
X133581618Y-76988819D01*
X133404133Y-76811335D01*
X133248690Y-76966777D01*
X133212548Y-76989802D01*
X133135301Y-77017918D01*
X133135295Y-77017921D01*
X133095906Y-77048144D01*
X133095905Y-77048145D01*
X132916155Y-77227897D01*
X132885932Y-77267285D01*
X132885929Y-77267290D01*
X132873917Y-77300292D01*
X132836246Y-77348506D01*
X132814750Y-77359459D01*
X132781747Y-77371471D01*
X132781743Y-77371473D01*
X132757060Y-77390413D01*
X132699384Y-77410835D01*
X132640719Y-77393456D01*
X132603473Y-77344913D01*
X132597795Y-77311869D01*
X132597795Y-76822819D01*
X132616702Y-76764628D01*
X132666202Y-76728664D01*
X132727388Y-76728664D01*
X132757066Y-76744280D01*
X132781998Y-76763412D01*
X132815137Y-76775474D01*
X132863352Y-76813143D01*
X132874307Y-76834643D01*
X132886368Y-76867779D01*
X132886370Y-76867783D01*
X132902456Y-76888747D01*
X133192000Y-76599204D01*
X133191999Y-76599203D01*
X133616266Y-76599203D01*
X133757687Y-76740624D01*
X134047231Y-76451080D01*
X134026266Y-76434994D01*
X134026262Y-76434992D01*
X133993125Y-76422931D01*
X133944911Y-76385262D01*
X133933956Y-76363761D01*
X133921896Y-76330625D01*
X133921895Y-76330623D01*
X133905808Y-76309659D01*
X133616266Y-76599203D01*
X133191999Y-76599203D01*
X133014517Y-76421721D01*
X132986740Y-76367204D01*
X132996311Y-76306772D01*
X133014517Y-76281713D01*
X133086642Y-76209588D01*
X133141159Y-76181811D01*
X133201591Y-76191382D01*
X133226650Y-76209588D01*
X133404133Y-76387071D01*
X133703241Y-76087963D01*
X133757758Y-76060185D01*
X133773245Y-76058966D01*
X134893525Y-76058966D01*
X134951716Y-76077873D01*
G37*
%TD.AperFunction*%
%TD*%
M02*
