M48
; DRILL file KiCad 10.0.6 date 2026-10-01T08:28:55
; FORMAT={-:-/ absolute / metric / decimal}
; #@! TF.CreationDate,2026-10-01T08:28:55+02:00
; #@! TF.GenerationSoftware,Kicad,Pcbnew,10.0.6
; #@! TF.FileFunction,Plated,1,2,PTH
FMAT,2
METRIC
; #@! TA.AperFunction,Plated,PTH,ViaDrill
T1C0.300
%
G90
G05
T1
X114.862Y-92.0
X115.5Y-95.25
X116.146Y-91.316
X116.564Y-95.395
X116.581Y-93.75
X117.041Y-90.5
X117.313Y-93.75
X117.504Y-98.775
X118.064Y-96.895
X118.444Y-94.875
X118.914Y-91.254
X119.5Y-87.5
X119.726Y-92.895
X120.214Y-96.445
X120.302Y-95.717
X120.478Y-94.895
X120.564Y-90.563
X121.176Y-98.535
X121.197Y-95.24
X121.706Y-94.75
X121.75Y-88.25
X122.804Y-90.164
X123.0Y-85.5
X123.642Y-100.454
X123.66Y-96.166
X123.664Y-97.619
X123.75Y-84.5
X123.75Y-86.5
X123.75Y-94.75
X124.064Y-87.395
X126.0Y-90.5
X126.0Y-95.75
X126.0Y-97.25
X126.25Y-82.5
X126.25Y-85.75
X127.0Y-81.75
X128.0Y-82.0
X128.5Y-80.0
X129.75Y-81.75
X130.764Y-83.904
X131.58Y-83.294
X131.65Y-75.308
X131.82Y-82.293
X132.999Y-79.892
X133.693Y-82.506
X133.729Y-78.273
X135.0Y-74.5
X135.125Y-76.826
X135.149Y-82.084
X136.129Y-82.495
X137.261Y-88.32
X137.933Y-88.85
X138.064Y-80.895
X138.425Y-79.164
X138.746Y-77.077
X139.064Y-84.895
X140.564Y-82.895
X140.964Y-76.557
X141.243Y-85.924
X142.231Y-84.971
X145.0Y-80.5
M30
