%TF.GenerationSoftware,KiCad,Pcbnew,10.0.6*%
%TF.CreationDate,2026-09-27T13:07:57+02:00*%
%TF.ProjectId,shotpuck,73686f74-7075-4636-9b2e-6b696361645f,rev?*%
%TF.SameCoordinates,Original*%
%TF.FileFunction,Copper,L2,Bot*%
%TF.FilePolarity,Positive*%
%FSLAX46Y46*%
G04 Gerber Fmt 4.6, Leading zero omitted, Abs format (unit mm)*
G04 Created by KiCad (PCBNEW 10.0.6) date 2026-09-27 13:07:57*
%MOMM*%
%LPD*%
G01*
G04 APERTURE LIST*
%TA.AperFunction,ComponentPad*%
%ADD10R,1.300000X1.300000*%
%TD*%
%TA.AperFunction,ComponentPad*%
%ADD11C,1.300000*%
%TD*%
%TA.AperFunction,ComponentPad*%
%ADD12R,3.000000X2.000000*%
%TD*%
%TA.AperFunction,ViaPad*%
%ADD13C,0.500000*%
%TD*%
%TA.AperFunction,Conductor*%
%ADD14C,0.200000*%
%TD*%
G04 APERTURE END LIST*
D10*
%TO.P,J1,1*%
%TO.N,VIN_RAW*%
X-1250000Y13500000D03*
D11*
%TO.P,J1,2*%
%TO.N,GND*%
X1250000Y13500000D03*
%TD*%
D12*
%TO.P,BT1,1*%
%TO.N,BAT_P*%
X8500000Y10200000D03*
%TO.P,BT1,2*%
%TO.N,BAT_N*%
X8500000Y-10200000D03*
%TD*%
D13*
%TO.N,VDD*%
X-2695800Y6011500D03*
X-1178900Y6122900D03*
X284500Y3855800D03*
%TO.N,GND*%
X-6400000Y-11200000D03*
X80000Y8100000D03*
X-12345619Y-5431935D03*
X-8000000Y-11200000D03*
X-7030000Y-6420577D03*
X-3200000Y8000000D03*
X-1600000Y-11200000D03*
X9945882Y-13950000D03*
X-2970000Y-10500000D03*
X-1248393Y5091148D03*
X4965000Y10979422D03*
X206000Y-3249558D03*
X-4569333Y10532937D03*
X-9600000Y12800000D03*
X-3660777Y-7917382D03*
X4800000Y-16000000D03*
X3200000Y-16000000D03*
X-4800000Y-14400000D03*
X-11200000Y11200000D03*
X-8000000Y11200000D03*
X-6400000Y-14400000D03*
X-2182974Y-6433282D03*
X-3135294Y-3062100D03*
X-8000000Y-14400000D03*
X-9600000Y-11200000D03*
X-9600000Y11200000D03*
X-8000000Y12800000D03*
X-7214515Y-9385748D03*
X7173647Y-11786814D03*
X2480000Y6900000D03*
X-369999Y6120577D03*
X-1508061Y-5477944D03*
X-7789999Y-10000000D03*
X-3200000Y-16000000D03*
X-6066844Y-9079491D03*
X5400000Y-8889999D03*
X-11171272Y-5459788D03*
X-4800000Y-16000000D03*
X-3200000Y-14400000D03*
X-8000000Y14400000D03*
X-14400000Y-8000000D03*
X1562500Y-13400000D03*
X-3160777Y-6157615D03*
X4575000Y9160769D03*
X2400000Y-8525000D03*
X-5412500Y-8199999D03*
%TO.N,VBAT*%
X694300Y-9351900D03*
X-5046700Y-6579900D03*
%TO.N,SWDCLK*%
X-12300100Y6762900D03*
X-7615500Y10144600D03*
%TO.N,LED_IO*%
X4021200Y7917700D03*
X-4377900Y5491900D03*
%TO.N,CHG_INH*%
X-1380800Y-2982700D03*
X-29000Y-4173200D03*
X12411300Y-9755000D03*
%TO.N,CHG_STAT*%
X-1253500Y490600D03*
X-4676400Y-12773900D03*
%TO.N,VIN*%
X-5292200Y-3534900D03*
X3302300Y-9506800D03*
%TO.N,BAT_N*%
X-11859900Y-9364900D03*
X-9555200Y-6746700D03*
%TO.N,SDA*%
X104400Y-5799900D03*
X-2927900Y-4159900D03*
X-1325900Y-800600D03*
%TO.N,PCM_COUT*%
X-8821600Y-6441800D03*
X-7206600Y-8295800D03*
%TO.N,PCM_DOUT*%
X-12315500Y-6106000D03*
X-10571600Y-6671200D03*
%TO.N,ACC_INT1*%
X-1046600Y-1588700D03*
X-3865300Y-2411600D03*
%TD*%
%TO.N,VDD*%
D14*
X-1454700Y6011500D02*
X-1372500Y5929300D01*
X-1178900Y6122900D02*
X-1372500Y5929300D01*
X284500Y4272300D02*
X284500Y3855800D01*
X-2695800Y6011500D02*
X-1454700Y6011500D01*
X-1372500Y5929300D02*
X284500Y4272300D01*
%TO.N,VBAT*%
X-3514100Y-6579900D02*
X-742100Y-9351900D01*
X-5046700Y-6579900D02*
X-3514100Y-6579900D01*
X-742100Y-9351900D02*
X694300Y-9351900D01*
%TO.N,SWDCLK*%
X-7615500Y10144600D02*
X-7615500Y9859400D01*
X-7615500Y9859400D02*
X-10712000Y6762900D01*
X-10712000Y6762900D02*
X-12300100Y6762900D01*
%TO.N,LED_IO*%
X-4377900Y5491900D02*
X-2759200Y7110600D01*
X2292500Y7917700D02*
X4021200Y7917700D01*
X-2759200Y7110600D02*
X1485400Y7110600D01*
X1485400Y7110600D02*
X2292500Y7917700D01*
%TO.N,CHG_INH*%
X-29000Y-4173200D02*
X5229700Y-9431900D01*
X-1380800Y-2982700D02*
X-1219500Y-2982700D01*
X6412100Y-9431900D02*
X6895700Y-8948300D01*
X5229700Y-9431900D02*
X6412100Y-9431900D01*
X11604600Y-8948300D02*
X12411300Y-9755000D01*
X6895700Y-8948300D02*
X11604600Y-8948300D01*
X-1219500Y-2982700D02*
X-29000Y-4173200D01*
%TO.N,CHG_STAT*%
X-3095900Y490600D02*
X-1253500Y490600D01*
X-12397800Y-9582000D02*
X-12397800Y-9107900D01*
X-10069900Y-6483400D02*
X-3095900Y490600D01*
X-10069900Y-6879000D02*
X-10069900Y-6483400D01*
X-9205900Y-12773900D02*
X-12397800Y-9582000D01*
X-12101200Y-8811300D02*
X-12002200Y-8811300D01*
X-4676400Y-12773900D02*
X-9205900Y-12773900D01*
X-12002200Y-8811300D02*
X-10069900Y-6879000D01*
X-12397800Y-9107900D02*
X-12101200Y-8811300D01*
%TO.N,VIN*%
X-4294700Y-3534900D02*
X1677200Y-9506800D01*
X1677200Y-9506800D02*
X3302300Y-9506800D01*
X-5290600Y-3534900D02*
X-4294700Y-3534900D01*
%TO.N,BAT_N*%
X-5069800Y-9309400D02*
X-8439100Y-5940100D01*
X-9029300Y-5940100D02*
X-9555100Y-6465900D01*
X8500000Y-10200000D02*
X-1970400Y-10200000D01*
X-9555100Y-6465900D02*
X-9555100Y-6746700D01*
X-8439100Y-5940100D02*
X-9029300Y-5940100D01*
X-9555200Y-7060200D02*
X-11859900Y-9364900D01*
X-1970400Y-10200000D02*
X-2861000Y-9309400D01*
X-9555200Y-6746700D02*
X-9555200Y-7060200D01*
X-9555100Y-6746700D02*
X-9555200Y-6746700D01*
X-2861000Y-9309400D02*
X-5069800Y-9309400D01*
%TO.N,SDA*%
X104400Y-5799900D02*
X-1535600Y-4159900D01*
X-3013600Y-800600D02*
X-4367100Y-2154100D01*
X-4367100Y-2154100D02*
X-4367100Y-2720700D01*
X-4367100Y-2720700D02*
X-2927900Y-4159900D01*
X-1325900Y-800600D02*
X-3013600Y-800600D01*
X-1535600Y-4159900D02*
X-2927900Y-4159900D01*
%TO.N,PCM_COUT*%
X-8821600Y-6680800D02*
X-8821600Y-6441800D01*
X-7206600Y-8295800D02*
X-8821600Y-6680800D01*
%TO.N,PCM_DOUT*%
X-11136800Y-6106000D02*
X-10571600Y-6671200D01*
X-12315500Y-6106000D02*
X-11136800Y-6106000D01*
%TO.N,ACC_INT1*%
X-1046600Y-1588700D02*
X-1869500Y-2411600D01*
X-1869500Y-2411600D02*
X-3865300Y-2411600D01*
%TD*%
%TA.AperFunction,Conductor*%
%TO.N,GND*%
G36*
X139741Y17698893D02*
G01*
X968578Y17672922D01*
X973235Y17672667D01*
X1799982Y17607680D01*
X1804622Y17607205D01*
X2627369Y17503350D01*
X2631982Y17502657D01*
X3448937Y17360161D01*
X3453512Y17359251D01*
X4262827Y17178435D01*
X4267354Y17177311D01*
X5067263Y16958572D01*
X5071732Y16957236D01*
X5860444Y16701063D01*
X5864846Y16699518D01*
X6640639Y16406470D01*
X6644962Y16404719D01*
X7406051Y16075470D01*
X7410288Y16073518D01*
X8155066Y15708763D01*
X8159205Y15706613D01*
X8885938Y15307201D01*
X8889972Y15304859D01*
X9597113Y14871643D01*
X9601032Y14869113D01*
X10286966Y14403078D01*
X10290761Y14400366D01*
X10953986Y13902535D01*
X10957650Y13899648D01*
X11596698Y13371124D01*
X11600214Y13368073D01*
X11829038Y13159916D01*
X12114071Y12900625D01*
X12144392Y12847482D01*
X12137686Y12786665D01*
X12096514Y12741405D01*
X12073068Y12731764D01*
X12070339Y12731033D01*
X12070331Y12731032D01*
X11539733Y12511251D01*
X11084098Y12161630D01*
X10734477Y11705995D01*
X10535107Y11224672D01*
X10514697Y11175399D01*
X10514695Y11175393D01*
X10482808Y10933185D01*
X10439733Y10605995D01*
X10448500Y10539402D01*
X10448500Y10539401D01*
X10514695Y10036596D01*
X10514697Y10036590D01*
X10734476Y9505996D01*
X11084093Y9050365D01*
X11084103Y9050355D01*
X11374480Y8827542D01*
X11409136Y8777118D01*
X11407535Y8715953D01*
X11370287Y8667412D01*
X11314213Y8650000D01*
X10099095Y8650000D01*
X10055310Y8660209D01*
X9886074Y8743667D01*
X9849487Y8761710D01*
X9805660Y8804404D01*
X9795299Y8864706D01*
X9822360Y8919581D01*
X9876509Y8948070D01*
X9893274Y8949500D01*
X10024673Y8949500D01*
X10024674Y8949500D01*
X10024684Y8949501D01*
X10097736Y8964033D01*
X10097737Y8964033D01*
X10097740Y8964034D01*
X10097742Y8964035D01*
X10180599Y9019397D01*
X10180602Y9019400D01*
X10235964Y9102257D01*
X10235966Y9102260D01*
X10250500Y9175326D01*
X10250500Y11224674D01*
X10235966Y11297740D01*
X10180601Y11380601D01*
X10097740Y11435966D01*
X10024674Y11450500D01*
X6975326Y11450500D01*
X6975320Y11450498D01*
X6975315Y11450498D01*
X6957808Y11447015D01*
X6902260Y11435966D01*
X6902257Y11435964D01*
X6819400Y11380602D01*
X6819397Y11380599D01*
X6764035Y11297742D01*
X6764033Y11297736D01*
X6749501Y11224684D01*
X6749500Y11224672D01*
X6749500Y9175327D01*
X6749501Y9175315D01*
X6764033Y9102263D01*
X6764035Y9102257D01*
X6819397Y9019400D01*
X6819400Y9019397D01*
X6902257Y8964035D01*
X6902263Y8964033D01*
X6975315Y8949501D01*
X6975325Y8949500D01*
X6975326Y8949500D01*
X7106725Y8949500D01*
X7164916Y8930593D01*
X7200880Y8881093D01*
X7200880Y8819907D01*
X7164916Y8770407D01*
X7150512Y8761710D01*
X7026876Y8700739D01*
X6825000Y8601185D01*
X6556281Y8421633D01*
X6520600Y8406853D01*
X6261215Y8355258D01*
X6261210Y8355256D01*
X6261208Y8355256D01*
X5934385Y8244314D01*
X5189788Y7991557D01*
X5189783Y7991554D01*
X5189781Y7991554D01*
X4659090Y7729846D01*
X4598537Y7721066D01*
X4544389Y7749555D01*
X4517328Y7804430D01*
X4519677Y7844261D01*
X4521700Y7851808D01*
X4521700Y7983592D01*
X4487592Y8110886D01*
X4437198Y8198170D01*
X4421703Y8225009D01*
X4421702Y8225009D01*
X4421700Y8225014D01*
X4328514Y8318200D01*
X4214389Y8384090D01*
X4214388Y8384090D01*
X4214386Y8384092D01*
X4087092Y8418200D01*
X3955308Y8418200D01*
X3828014Y8384092D01*
X3828011Y8384090D01*
X3828009Y8384090D01*
X3713890Y8318203D01*
X3713888Y8318201D01*
X3713886Y8318200D01*
X3692880Y8297194D01*
X3638366Y8269419D01*
X3622879Y8268200D01*
X2338644Y8268200D01*
X2246356Y8268200D01*
X2157212Y8244314D01*
X2077288Y8198170D01*
X1699820Y7820702D01*
X1369214Y7490096D01*
X1314697Y7462319D01*
X1299210Y7461100D01*
X-2805344Y7461100D01*
X-2894488Y7437214D01*
X-2894490Y7437212D01*
X-2894492Y7437212D01*
X-2925360Y7419390D01*
X-2974413Y7391069D01*
X-4003082Y6362400D01*
X-4344086Y6021396D01*
X-4398603Y5993619D01*
X-4414090Y5992400D01*
X-4443792Y5992400D01*
X-4571086Y5958292D01*
X-4571088Y5958290D01*
X-4571090Y5958290D01*
X-4685209Y5892403D01*
X-4685214Y5892400D01*
X-4778400Y5799214D01*
X-4778402Y5799209D01*
X-4778403Y5799209D01*
X-4833262Y5704190D01*
X-4844292Y5685086D01*
X-4878400Y5557792D01*
X-4878400Y5426008D01*
X-4844292Y5298714D01*
X-4844290Y5298711D01*
X-4844290Y5298709D01*
X-4778403Y5184590D01*
X-4778401Y5184588D01*
X-4778400Y5184586D01*
X-4685214Y5091400D01*
X-4685211Y5091398D01*
X-4685209Y5091396D01*
X-4571089Y5025509D01*
X-4571091Y5025509D01*
X-4521699Y5012275D01*
X-4443792Y4991400D01*
X-4443790Y4991400D01*
X-4312010Y4991400D01*
X-4312008Y4991400D01*
X-4234100Y5012275D01*
X-4184709Y5025509D01*
X-4070590Y5091396D01*
X-3977396Y5184590D01*
X-3911509Y5298709D01*
X-3877400Y5426009D01*
X-3877400Y5455709D01*
X-3858493Y5513900D01*
X-3848403Y5525713D01*
X-3365266Y6008849D01*
X-3310750Y6036626D01*
X-3250318Y6027055D01*
X-3207053Y5983790D01*
X-3197109Y5951761D01*
X-3196300Y5945613D01*
X-3196300Y5945608D01*
X-3162192Y5818314D01*
X-3162190Y5818311D01*
X-3162190Y5818309D01*
X-3096303Y5704190D01*
X-3096301Y5704188D01*
X-3096300Y5704186D01*
X-3003114Y5611000D01*
X-3003111Y5610998D01*
X-3003109Y5610996D01*
X-2888989Y5545109D01*
X-2888991Y5545109D01*
X-2839599Y5531875D01*
X-2761692Y5511000D01*
X-2761690Y5511000D01*
X-2629910Y5511000D01*
X-2629908Y5511000D01*
X-2552000Y5531875D01*
X-2502609Y5545109D01*
X-2388490Y5610996D01*
X-2388489Y5610997D01*
X-2388486Y5611000D01*
X-2367480Y5632005D01*
X-2312966Y5659781D01*
X-2297479Y5661000D01*
X-1640890Y5661000D01*
X-1582699Y5642093D01*
X-1570886Y5632004D01*
X-164589Y4225707D01*
X-136812Y4171190D01*
X-146383Y4110758D01*
X-148828Y4106253D01*
X-181892Y4048986D01*
X-216000Y3921692D01*
X-216000Y3789908D01*
X-181892Y3662614D01*
X-181890Y3662611D01*
X-181890Y3662609D01*
X-116003Y3548490D01*
X-116001Y3548488D01*
X-116000Y3548486D01*
X-22814Y3455300D01*
X-22811Y3455298D01*
X-22809Y3455296D01*
X91310Y3389409D01*
X91308Y3389409D01*
X158954Y3371283D01*
X218608Y3355300D01*
X218610Y3355300D01*
X350391Y3355300D01*
X350392Y3355300D01*
X362189Y3358461D01*
X423291Y3355258D01*
X470840Y3316752D01*
X486675Y3257652D01*
X481557Y3231011D01*
X144742Y2238790D01*
X144741Y2238784D01*
X-75998Y1129051D01*
X-150000Y0D01*
X-75998Y-1129051D01*
X68896Y-1857486D01*
X144742Y-2238790D01*
X508444Y-3310217D01*
X1008879Y-4324998D01*
X1236573Y-4665767D01*
X1253181Y-4724655D01*
X1232003Y-4782058D01*
X1181129Y-4816051D01*
X1119991Y-4813649D01*
X1084255Y-4790773D01*
X500496Y-4207014D01*
X472719Y-4152497D01*
X471500Y-4137010D01*
X471500Y-4107309D01*
X443093Y-4001292D01*
X437392Y-3980014D01*
X437390Y-3980011D01*
X437390Y-3980009D01*
X371503Y-3865890D01*
X371501Y-3865888D01*
X371500Y-3865886D01*
X278314Y-3772700D01*
X278311Y-3772698D01*
X278309Y-3772696D01*
X164189Y-3706809D01*
X164191Y-3706809D01*
X114549Y-3693508D01*
X36892Y-3672700D01*
X36890Y-3672700D01*
X7188Y-3672700D01*
X-51003Y-3653793D01*
X-62816Y-3643703D01*
X-901647Y-2804869D01*
X-917379Y-2784366D01*
X-980296Y-2675390D01*
X-1073490Y-2582196D01*
X-1187610Y-2516309D01*
X-1187608Y-2516309D01*
X-1228717Y-2505294D01*
X-1251419Y-2499211D01*
X-1302733Y-2465888D01*
X-1324660Y-2408766D01*
X-1308824Y-2349666D01*
X-1295800Y-2333582D01*
X-1080416Y-2118197D01*
X-1025899Y-2090419D01*
X-1010412Y-2089200D01*
X-980710Y-2089200D01*
X-980708Y-2089200D01*
X-853414Y-2055092D01*
X-853411Y-2055090D01*
X-853409Y-2055090D01*
X-739290Y-1989203D01*
X-739288Y-1989201D01*
X-739286Y-1989200D01*
X-646100Y-1896014D01*
X-646098Y-1896011D01*
X-646096Y-1896009D01*
X-580209Y-1781890D01*
X-576179Y-1766851D01*
X-546100Y-1654592D01*
X-546100Y-1522808D01*
X-580208Y-1395514D01*
X-580209Y-1395509D01*
X-646096Y-1281390D01*
X-739288Y-1188198D01*
X-827900Y-1137037D01*
X-868840Y-1091567D01*
X-875235Y-1030717D01*
X-864136Y-1001802D01*
X-859508Y-993787D01*
X-848138Y-951354D01*
X-825400Y-866492D01*
X-825400Y-734708D01*
X-859508Y-607414D01*
X-859509Y-607409D01*
X-925396Y-493290D01*
X-1018590Y-400096D01*
X-1132710Y-334209D01*
X-1132708Y-334209D01*
X-1200354Y-316083D01*
X-1260008Y-300100D01*
X-1391792Y-300100D01*
X-1504051Y-330179D01*
X-1519090Y-334209D01*
X-1633209Y-400096D01*
X-1633211Y-400098D01*
X-1633214Y-400100D01*
X-1654219Y-421105D01*
X-1708734Y-448881D01*
X-1724221Y-450100D01*
X-3059744Y-450100D01*
X-3148888Y-473986D01*
X-3228812Y-520130D01*
X-4647570Y-1938888D01*
X-4689261Y-2011100D01*
X-4693714Y-2018812D01*
X-4712574Y-2089200D01*
X-4717600Y-2107957D01*
X-4717600Y-2766843D01*
X-4701184Y-2828112D01*
X-4700542Y-2830507D01*
X-4693714Y-2855988D01*
X-4647570Y-2935912D01*
X-4568083Y-3015398D01*
X-4540308Y-3069913D01*
X-4549879Y-3130345D01*
X-4593144Y-3173610D01*
X-4638089Y-3184400D01*
X-4893879Y-3184400D01*
X-4952070Y-3165493D01*
X-4963876Y-3155409D01*
X-4984886Y-3134400D01*
X-4984886Y-3134399D01*
X-4984889Y-3134397D01*
X-4984890Y-3134396D01*
X-5099010Y-3068509D01*
X-5099008Y-3068509D01*
X-5173350Y-3048590D01*
X-5226308Y-3034400D01*
X-5358092Y-3034400D01*
X-5470351Y-3064479D01*
X-5485390Y-3068509D01*
X-5599509Y-3134396D01*
X-5599511Y-3134398D01*
X-5599514Y-3134400D01*
X-5692700Y-3227586D01*
X-5692701Y-3227588D01*
X-5692703Y-3227590D01*
X-5758590Y-3341709D01*
X-5758590Y-3341711D01*
X-5758592Y-3341714D01*
X-5792700Y-3469008D01*
X-5792700Y-3600792D01*
X-5758592Y-3728086D01*
X-5758590Y-3728088D01*
X-5758590Y-3728090D01*
X-5732834Y-3772700D01*
X-5692700Y-3842214D01*
X-5599514Y-3935400D01*
X-5599509Y-3935402D01*
X-5599509Y-3935403D01*
X-5485389Y-4001290D01*
X-5485388Y-4001290D01*
X-5485386Y-4001292D01*
X-5358092Y-4035400D01*
X-5358090Y-4035400D01*
X-5226310Y-4035400D01*
X-5226308Y-4035400D01*
X-5099014Y-4001292D01*
X-5099011Y-4001290D01*
X-5099009Y-4001290D01*
X-4984890Y-3935403D01*
X-4984888Y-3935401D01*
X-4984886Y-3935400D01*
X-4963880Y-3914394D01*
X-4909366Y-3886619D01*
X-4893879Y-3885400D01*
X-4480890Y-3885400D01*
X-4422699Y-3904307D01*
X-4410886Y-3914396D01*
X447358Y-8772640D01*
X475135Y-8827157D01*
X465564Y-8887589D01*
X426856Y-8928379D01*
X386990Y-8951396D01*
X386989Y-8951397D01*
X386986Y-8951399D01*
X386986Y-8951400D01*
X365980Y-8972405D01*
X311466Y-9000181D01*
X295979Y-9001400D01*
X-555910Y-9001400D01*
X-614101Y-8982493D01*
X-625914Y-8972404D01*
X-3298888Y-6299430D01*
X-3378813Y-6253285D01*
X-3388507Y-6250687D01*
X-3388508Y-6250688D01*
X-3467956Y-6229400D01*
X-3467958Y-6229400D01*
X-4648379Y-6229400D01*
X-4706570Y-6210493D01*
X-4718376Y-6200409D01*
X-4739386Y-6179400D01*
X-4739386Y-6179399D01*
X-4739389Y-6179397D01*
X-4739390Y-6179396D01*
X-4853510Y-6113509D01*
X-4853508Y-6113509D01*
X-4921154Y-6095383D01*
X-4980808Y-6079400D01*
X-5112592Y-6079400D01*
X-5216396Y-6107214D01*
X-5239890Y-6113509D01*
X-5354009Y-6179396D01*
X-5354011Y-6179398D01*
X-5354014Y-6179400D01*
X-5447200Y-6272586D01*
X-5447201Y-6272588D01*
X-5447203Y-6272590D01*
X-5513090Y-6386709D01*
X-5513090Y-6386711D01*
X-5513092Y-6386714D01*
X-5547200Y-6514008D01*
X-5547200Y-6645792D01*
X-5513092Y-6773086D01*
X-5513090Y-6773088D01*
X-5513090Y-6773090D01*
X-5447203Y-6887209D01*
X-5447200Y-6887214D01*
X-5354014Y-6980400D01*
X-5354009Y-6980402D01*
X-5354009Y-6980403D01*
X-5239889Y-7046290D01*
X-5239888Y-7046290D01*
X-5239886Y-7046292D01*
X-5112592Y-7080400D01*
X-5112590Y-7080400D01*
X-4980810Y-7080400D01*
X-4980808Y-7080400D01*
X-4853514Y-7046292D01*
X-4853511Y-7046290D01*
X-4853509Y-7046290D01*
X-4739390Y-6980403D01*
X-4739388Y-6980401D01*
X-4739386Y-6980400D01*
X-4718380Y-6959394D01*
X-4663866Y-6931619D01*
X-4648379Y-6930400D01*
X-3700290Y-6930400D01*
X-3642099Y-6949307D01*
X-3630286Y-6959396D01*
X-957312Y-9632370D01*
X-928369Y-9649080D01*
X-901205Y-9664764D01*
X-860264Y-9710234D01*
X-853869Y-9771084D01*
X-884461Y-9824072D01*
X-940357Y-9848958D01*
X-950705Y-9849500D01*
X-1784210Y-9849500D01*
X-1842401Y-9830593D01*
X-1854214Y-9820504D01*
X-2645788Y-9028930D01*
X-2725712Y-8982786D01*
X-2814856Y-8958900D01*
X-2814858Y-8958900D01*
X-4883610Y-8958900D01*
X-4941801Y-8939993D01*
X-4953614Y-8929904D01*
X-8223888Y-5659630D01*
X-8303812Y-5613486D01*
X-8329086Y-5606714D01*
X-8392956Y-5589600D01*
X-8392958Y-5589600D01*
X-8441410Y-5589600D01*
X-8499601Y-5570693D01*
X-8535565Y-5521193D01*
X-8535565Y-5460007D01*
X-8511414Y-5420596D01*
X-2979715Y111104D01*
X-2925198Y138881D01*
X-2909711Y140100D01*
X-1651821Y140100D01*
X-1593630Y121193D01*
X-1581823Y111109D01*
X-1560814Y90100D01*
X-1560811Y90098D01*
X-1560809Y90096D01*
X-1446689Y24209D01*
X-1446691Y24209D01*
X-1397299Y10975D01*
X-1319392Y-9900D01*
X-1319390Y-9900D01*
X-1187610Y-9900D01*
X-1187608Y-9900D01*
X-1109700Y10975D01*
X-1060309Y24209D01*
X-946190Y90096D01*
X-852996Y183290D01*
X-787109Y297409D01*
X-753000Y424709D01*
X-753000Y556490D01*
X-753000Y556492D01*
X-787108Y683786D01*
X-787109Y683790D01*
X-852996Y797909D01*
X-852998Y797911D01*
X-853000Y797914D01*
X-946186Y891100D01*
X-946189Y891102D01*
X-946190Y891103D01*
X-1060310Y956990D01*
X-1060308Y956990D01*
X-1060312Y956991D01*
X-1060314Y956992D01*
X-1187608Y991100D01*
X-1319392Y991100D01*
X-1446686Y956992D01*
X-1446688Y956990D01*
X-1446690Y956990D01*
X-1560809Y891103D01*
X-1560814Y891100D01*
X-1581819Y870094D01*
X-1636334Y842319D01*
X-1651821Y841100D01*
X-3142044Y841100D01*
X-3231188Y817214D01*
X-3311112Y771069D01*
X-9347968Y-5265786D01*
X-10266992Y-6184810D01*
X-10321509Y-6212587D01*
X-10374868Y-6206276D01*
X-10378407Y-6204810D01*
X-10378414Y-6204808D01*
X-10505708Y-6170700D01*
X-10505710Y-6170700D01*
X-10535410Y-6170700D01*
X-10593601Y-6151793D01*
X-10605413Y-6141704D01*
X-10921585Y-5825532D01*
X-10968077Y-5798690D01*
X-11001512Y-5779386D01*
X-11090656Y-5755500D01*
X-11090658Y-5755500D01*
X-11917179Y-5755500D01*
X-11975370Y-5736593D01*
X-11987176Y-5726509D01*
X-12008186Y-5705500D01*
X-12008186Y-5705499D01*
X-12008189Y-5705497D01*
X-12008190Y-5705496D01*
X-12122310Y-5639609D01*
X-12122308Y-5639609D01*
X-12189954Y-5621483D01*
X-12249608Y-5605500D01*
X-12381392Y-5605500D01*
X-12493651Y-5635579D01*
X-12508690Y-5639609D01*
X-12622809Y-5705496D01*
X-12622811Y-5705498D01*
X-12622814Y-5705500D01*
X-12716000Y-5798686D01*
X-12716001Y-5798688D01*
X-12716003Y-5798690D01*
X-12781890Y-5912809D01*
X-12781890Y-5912811D01*
X-12781892Y-5912814D01*
X-12816000Y-6040108D01*
X-12816000Y-6171892D01*
X-12781892Y-6299186D01*
X-12781890Y-6299188D01*
X-12781890Y-6299190D01*
X-12731358Y-6386714D01*
X-12716000Y-6413314D01*
X-12622814Y-6506500D01*
X-12557790Y-6544042D01*
X-12508689Y-6572390D01*
X-12508688Y-6572390D01*
X-12508686Y-6572392D01*
X-12381392Y-6606500D01*
X-12381390Y-6606500D01*
X-12249610Y-6606500D01*
X-12249608Y-6606500D01*
X-12122314Y-6572392D01*
X-12122311Y-6572390D01*
X-12122309Y-6572390D01*
X-12008190Y-6506503D01*
X-12008188Y-6506501D01*
X-12008186Y-6506500D01*
X-11987180Y-6485494D01*
X-11932666Y-6457719D01*
X-11917179Y-6456500D01*
X-11322990Y-6456500D01*
X-11264799Y-6475407D01*
X-11252986Y-6485496D01*
X-11101096Y-6637386D01*
X-11073319Y-6691903D01*
X-11072100Y-6707390D01*
X-11072100Y-6737092D01*
X-11037992Y-6864386D01*
X-10972100Y-6978514D01*
X-10888600Y-7062013D01*
X-10860824Y-7116527D01*
X-10870395Y-7176960D01*
X-10888601Y-7202019D01*
X-12128638Y-8442056D01*
X-12173018Y-8467678D01*
X-12235834Y-8484510D01*
X-12235835Y-8484511D01*
X-12236209Y-8484611D01*
X-12236485Y-8484685D01*
X-12236488Y-8484686D01*
X-12316412Y-8530830D01*
X-12678270Y-8892688D01*
X-12719673Y-8964400D01*
X-12724414Y-8972612D01*
X-12748300Y-9061756D01*
X-12748300Y-9628144D01*
X-12746191Y-9636014D01*
X-12731321Y-9691512D01*
X-12728779Y-9700996D01*
X-12724414Y-9717288D01*
X-12678270Y-9797212D01*
X-9486369Y-12989112D01*
X-9421112Y-13054369D01*
X-9341188Y-13100514D01*
X-9252044Y-13124400D01*
X-5074721Y-13124400D01*
X-5016530Y-13143307D01*
X-5004723Y-13153390D01*
X-4983714Y-13174400D01*
X-4983709Y-13174402D01*
X-4983709Y-13174403D01*
X-4869589Y-13240290D01*
X-4869588Y-13240290D01*
X-4869586Y-13240292D01*
X-4742292Y-13274400D01*
X-4742290Y-13274400D01*
X-4610510Y-13274400D01*
X-4610508Y-13274400D01*
X-4483214Y-13240292D01*
X-4483211Y-13240290D01*
X-4483209Y-13240290D01*
X-4369090Y-13174403D01*
X-4369088Y-13174401D01*
X-4369086Y-13174400D01*
X-4275900Y-13081214D01*
X-4275898Y-13081211D01*
X-4275896Y-13081209D01*
X-4210009Y-12967090D01*
X-4185737Y-12876504D01*
X-4175900Y-12839792D01*
X-4175900Y-12708008D01*
X-4210008Y-12580714D01*
X-4210009Y-12580709D01*
X-4275896Y-12466590D01*
X-4369090Y-12373396D01*
X-4483210Y-12307509D01*
X-4483208Y-12307509D01*
X-4550854Y-12289383D01*
X-4610508Y-12273400D01*
X-4742292Y-12273400D01*
X-4854551Y-12303479D01*
X-4869590Y-12307509D01*
X-4983709Y-12373396D01*
X-4983711Y-12373398D01*
X-4983714Y-12373400D01*
X-5004719Y-12394405D01*
X-5059234Y-12422181D01*
X-5074721Y-12423400D01*
X-9019711Y-12423400D01*
X-9077902Y-12404493D01*
X-9089715Y-12394404D01*
X-11566763Y-9917353D01*
X-11594540Y-9862836D01*
X-11584969Y-9802404D01*
X-11557026Y-9768807D01*
X-11552590Y-9765403D01*
X-11552588Y-9765401D01*
X-11552586Y-9765400D01*
X-11459400Y-9672214D01*
X-11459398Y-9672211D01*
X-11459396Y-9672209D01*
X-11393509Y-9558090D01*
X-11362111Y-9440908D01*
X-11359400Y-9430792D01*
X-11359400Y-9401089D01*
X-11340493Y-9342898D01*
X-11330409Y-9331091D01*
X-9274730Y-7275412D01*
X-9228586Y-7195488D01*
X-9228585Y-7195485D01*
X-9218934Y-7159469D01*
X-9218935Y-7159469D01*
X-9210713Y-7128784D01*
X-9185091Y-7084405D01*
X-9154700Y-7054014D01*
X-9142112Y-7032211D01*
X-9096643Y-6991271D01*
X-9035793Y-6984875D01*
X-8986374Y-7011706D01*
X-7736094Y-8261986D01*
X-7708319Y-8316502D01*
X-7707100Y-8331989D01*
X-7707100Y-8361692D01*
X-7672992Y-8488986D01*
X-7672990Y-8488988D01*
X-7672990Y-8488990D01*
X-7613785Y-8591535D01*
X-7607100Y-8603114D01*
X-7513914Y-8696300D01*
X-7513909Y-8696302D01*
X-7513909Y-8696303D01*
X-7399789Y-8762190D01*
X-7399788Y-8762190D01*
X-7399786Y-8762192D01*
X-7272492Y-8796300D01*
X-7272490Y-8796300D01*
X-7140710Y-8796300D01*
X-7140708Y-8796300D01*
X-7013414Y-8762192D01*
X-7013411Y-8762190D01*
X-7013409Y-8762190D01*
X-6899290Y-8696303D01*
X-6899288Y-8696301D01*
X-6899286Y-8696300D01*
X-6806100Y-8603114D01*
X-6806098Y-8603111D01*
X-6806096Y-8603109D01*
X-6740209Y-8488990D01*
X-6709714Y-8375178D01*
X-6676390Y-8323864D01*
X-6619268Y-8301937D01*
X-6560168Y-8317773D01*
X-6544088Y-8330792D01*
X-5285012Y-9589870D01*
X-5205088Y-9636014D01*
X-5115944Y-9659900D01*
X-5115943Y-9659900D01*
X-5023656Y-9659900D01*
X-3047190Y-9659900D01*
X-2988999Y-9678807D01*
X-2977186Y-9688896D01*
X-2185612Y-10480470D01*
X-2105688Y-10526614D01*
X-2016544Y-10550500D01*
X-2016543Y-10550500D01*
X-1924256Y-10550500D01*
X6650500Y-10550500D01*
X6708691Y-10569407D01*
X6744655Y-10618907D01*
X6749500Y-10649500D01*
X6749500Y-11224672D01*
X6749501Y-11224684D01*
X6764033Y-11297736D01*
X6764035Y-11297742D01*
X6819397Y-11380599D01*
X6819399Y-11380601D01*
X6902260Y-11435966D01*
X6957808Y-11447015D01*
X6975315Y-11450498D01*
X6975320Y-11450498D01*
X6975326Y-11450500D01*
X6975327Y-11450500D01*
X10024673Y-11450500D01*
X10024674Y-11450500D01*
X10097740Y-11435966D01*
X10180601Y-11380601D01*
X10235966Y-11297740D01*
X10250500Y-11224674D01*
X10250500Y-9397800D01*
X10269407Y-9339609D01*
X10318907Y-9303645D01*
X10349500Y-9298800D01*
X11418410Y-9298800D01*
X11476601Y-9317707D01*
X11488414Y-9327796D01*
X11881804Y-9721186D01*
X11909581Y-9775703D01*
X11910800Y-9791190D01*
X11910800Y-9820892D01*
X11922039Y-9862836D01*
X11944909Y-9948190D01*
X12010796Y-10062309D01*
X12010798Y-10062311D01*
X12010800Y-10062314D01*
X12103986Y-10155500D01*
X12103988Y-10155501D01*
X12103990Y-10155503D01*
X12218110Y-10221390D01*
X12218108Y-10221390D01*
X12218112Y-10221391D01*
X12218114Y-10221392D01*
X12345408Y-10255500D01*
X12345410Y-10255500D01*
X12477190Y-10255500D01*
X12477192Y-10255500D01*
X12604486Y-10221392D01*
X12604488Y-10221390D01*
X12604490Y-10221390D01*
X12718609Y-10155503D01*
X12718609Y-10155502D01*
X12718614Y-10155500D01*
X12811800Y-10062314D01*
X12877692Y-9948186D01*
X12911800Y-9820892D01*
X12911800Y-9689108D01*
X12877692Y-9561814D01*
X12877690Y-9561811D01*
X12877690Y-9561809D01*
X12811803Y-9447690D01*
X12811801Y-9447688D01*
X12811800Y-9447686D01*
X12718614Y-9354500D01*
X12718611Y-9354498D01*
X12718609Y-9354496D01*
X12604489Y-9288609D01*
X12604491Y-9288609D01*
X12555099Y-9275375D01*
X12477192Y-9254500D01*
X12477190Y-9254500D01*
X12447490Y-9254500D01*
X12389299Y-9235593D01*
X12377487Y-9225504D01*
X11970986Y-8819004D01*
X11943208Y-8764487D01*
X11952779Y-8704055D01*
X11996044Y-8660790D01*
X12040989Y-8650000D01*
X15269400Y-8650000D01*
X15327591Y-8668907D01*
X15363555Y-8718407D01*
X15363555Y-8779593D01*
X15356146Y-8796708D01*
X15304775Y-8890115D01*
X15302433Y-8894147D01*
X14869023Y-9601170D01*
X14866492Y-9605088D01*
X14400270Y-10290897D01*
X14397557Y-10294692D01*
X13899554Y-10957770D01*
X13896666Y-10961433D01*
X13367959Y-11600346D01*
X13364901Y-11603868D01*
X12806715Y-12217135D01*
X12803495Y-12220510D01*
X12217015Y-12806829D01*
X12213640Y-12810048D01*
X11600222Y-13368067D01*
X11596698Y-13371124D01*
X10957650Y-13899648D01*
X10953986Y-13902535D01*
X10290761Y-14400366D01*
X10286966Y-14403078D01*
X9601032Y-14869113D01*
X9597113Y-14871643D01*
X8889972Y-15304859D01*
X8885938Y-15307201D01*
X8159205Y-15706613D01*
X8155066Y-15708763D01*
X7410288Y-16073518D01*
X7406051Y-16075470D01*
X6644962Y-16404719D01*
X6640639Y-16406470D01*
X5864846Y-16699518D01*
X5860444Y-16701063D01*
X5071732Y-16957236D01*
X5067263Y-16958572D01*
X4267354Y-17177311D01*
X4262827Y-17178435D01*
X3453512Y-17359251D01*
X3448937Y-17360161D01*
X2631982Y-17502657D01*
X2627369Y-17503350D01*
X2076736Y-17572856D01*
X2016636Y-17561385D01*
X1974756Y-17516778D01*
X1967093Y-17456075D01*
X1972871Y-17436758D01*
X2125036Y-17069401D01*
X2199999Y-16500000D01*
X2125036Y-15930598D01*
X1905255Y-15400000D01*
X1555634Y-14944365D01*
X1555629Y-14944361D01*
X1555628Y-14944360D01*
X1146512Y-14630435D01*
X1099999Y-14594744D01*
X1015547Y-14559763D01*
X834700Y-14484853D01*
X569401Y-14374963D01*
X569399Y-14374962D01*
X569397Y-14374962D01*
X1Y-14300000D01*
X-1Y-14300000D01*
X-569397Y-14374962D01*
X-569399Y-14374962D01*
X-569401Y-14374963D01*
X-569403Y-14374964D01*
X-1100000Y-14594743D01*
X-1100001Y-14594744D01*
X-1555628Y-14944360D01*
X-1555629Y-14944361D01*
X-1555634Y-14944365D01*
X-1905255Y-15400000D01*
X-2125036Y-15930598D01*
X-2200000Y-16500000D01*
X-2125036Y-17069401D01*
X-1972898Y-17436690D01*
X-1968098Y-17497685D01*
X-2000067Y-17549854D01*
X-2056595Y-17573269D01*
X-2075235Y-17572975D01*
X-2355314Y-17542030D01*
X-2359937Y-17541409D01*
X-3179012Y-17411612D01*
X-3183601Y-17410773D01*
X-3995613Y-17242546D01*
X-4000157Y-17241493D01*
X-4803390Y-17035193D01*
X-4807879Y-17033926D01*
X-5600455Y-16790033D01*
X-5604880Y-16788557D01*
X-6385138Y-16507585D01*
X-6389488Y-16505901D01*
X-7155600Y-16188506D01*
X-7159866Y-16186620D01*
X-7910194Y-15833483D01*
X-7914367Y-15831398D01*
X-8647252Y-15443295D01*
X-8651321Y-15441015D01*
X-9365064Y-15018851D01*
X-9369022Y-15016383D01*
X-10062136Y-14561036D01*
X-10065973Y-14558384D01*
X-10279709Y-14403078D01*
X-10736851Y-14070905D01*
X-10740541Y-14068089D01*
X-11387697Y-13549564D01*
X-11391268Y-13546563D01*
X-12013311Y-12998104D01*
X-12016736Y-12994937D01*
X-12612227Y-12417812D01*
X-12615499Y-12414488D01*
X-13183157Y-11809942D01*
X-13186269Y-11806467D01*
X-13724808Y-11175866D01*
X-13727753Y-11172249D01*
X-14236004Y-10516963D01*
X-14238775Y-10513211D01*
X-14715597Y-9834713D01*
X-14718188Y-9830834D01*
X-15162504Y-9130652D01*
X-15164910Y-9126656D01*
X-15575763Y-8406304D01*
X-15577978Y-8402199D01*
X-15954444Y-7663292D01*
X-15956463Y-7659087D01*
X-16297704Y-6903273D01*
X-16299523Y-6898978D01*
X-16483039Y-6435443D01*
X-16486879Y-6374378D01*
X-16454093Y-6322718D01*
X-16397204Y-6300195D01*
X-16390990Y-6300000D01*
X-13100001Y-6300000D01*
X-13100000Y-6300000D01*
X-13100000Y6300000D01*
X-13100001Y6300000D01*
X-16390990Y6300000D01*
X-16449181Y6318907D01*
X-16485145Y6368407D01*
X-16485145Y6429593D01*
X-16483039Y6435443D01*
X-16479896Y6443380D01*
X-16410514Y6618631D01*
X-16299523Y6898978D01*
X-16297704Y6903273D01*
X-16007277Y7546539D01*
X-15966099Y7591794D01*
X-15906186Y7604203D01*
X-15850421Y7579026D01*
X-15838506Y7566069D01*
X-15725955Y7419390D01*
X-15602809Y7258902D01*
X-15548428Y7188032D01*
X-15548423Y7188028D01*
X-15548422Y7188027D01*
X-15092793Y6838411D01*
X-15092792Y6838410D01*
X-14751417Y6697009D01*
X-14562195Y6618631D01*
X-14562193Y6618630D01*
X-14562191Y6618630D01*
X-13992794Y6543667D01*
X-13992793Y6543667D01*
X-13992792Y6543667D01*
X-13423394Y6618630D01*
X-13423386Y6618632D01*
X-12937485Y6819898D01*
X-12876489Y6824699D01*
X-12824320Y6792729D01*
X-12800905Y6736201D01*
X-12800600Y6728434D01*
X-12800600Y6697008D01*
X-12766492Y6569714D01*
X-12766490Y6569711D01*
X-12766490Y6569709D01*
X-12700603Y6455590D01*
X-12700601Y6455588D01*
X-12700600Y6455586D01*
X-12607414Y6362400D01*
X-12607411Y6362398D01*
X-12607409Y6362396D01*
X-12493289Y6296509D01*
X-12493291Y6296509D01*
X-12443899Y6283275D01*
X-12365992Y6262400D01*
X-12365990Y6262400D01*
X-12234210Y6262400D01*
X-12234208Y6262400D01*
X-12156300Y6283275D01*
X-12106909Y6296509D01*
X-11992790Y6362396D01*
X-11992789Y6362397D01*
X-11984627Y6370559D01*
X-11971780Y6383405D01*
X-11917266Y6411181D01*
X-11901779Y6412400D01*
X-10665858Y6412400D01*
X-10665856Y6412400D01*
X-10621284Y6424343D01*
X-10576710Y6436286D01*
X-10564425Y6443380D01*
X-10564424Y6443379D01*
X-10496789Y6482429D01*
X-10049267Y6929951D01*
X-9521763Y7457455D01*
X-6205800Y7457455D01*
X-6205800Y7310545D01*
X-6177140Y7166458D01*
X-6175873Y7163400D01*
X-6120921Y7030733D01*
X-6120921Y7030732D01*
X-6120920Y7030731D01*
X-6039301Y6908580D01*
X-5935420Y6804699D01*
X-5840377Y6741193D01*
X-5813266Y6723078D01*
X-5677542Y6666860D01*
X-5533457Y6638200D01*
X-5533455Y6638200D01*
X-5386542Y6638200D01*
X-5242458Y6666860D01*
X-5242456Y6666860D01*
X-5106733Y6723078D01*
X-5106732Y6723078D01*
X-4984580Y6804699D01*
X-4984576Y6804702D01*
X-4880702Y6908576D01*
X-4880699Y6908580D01*
X-4799078Y7030732D01*
X-4799078Y7030733D01*
X-4742860Y7166456D01*
X-4742860Y7166458D01*
X-4714200Y7310542D01*
X-4714200Y7457457D01*
X-4736029Y7567200D01*
X-4742860Y7601542D01*
X-4756840Y7635293D01*
X-4799078Y7737266D01*
X-4799078Y7737267D01*
X-4843956Y7804430D01*
X-4880699Y7859420D01*
X-4984580Y7963301D01*
X-5106731Y8044920D01*
X-5111106Y8046732D01*
X-5137479Y8057656D01*
X-5242458Y8101140D01*
X-5386545Y8129800D01*
X-5533455Y8129800D01*
X-5677542Y8101140D01*
X-5813269Y8044920D01*
X-5935420Y7963301D01*
X-6039301Y7859420D01*
X-6120920Y7737269D01*
X-6177140Y7601542D01*
X-6205800Y7457455D01*
X-9521763Y7457455D01*
X-7489764Y9489455D01*
X-6205800Y9489455D01*
X-6205800Y9342545D01*
X-6177140Y9198458D01*
X-6177139Y9198456D01*
X-6120921Y9062733D01*
X-6120921Y9062732D01*
X-6120920Y9062731D01*
X-6039301Y8940580D01*
X-5935420Y8836699D01*
X-5902291Y8814563D01*
X-5813266Y8755078D01*
X-5677542Y8698860D01*
X-5533457Y8670200D01*
X-5533455Y8670200D01*
X-5386542Y8670200D01*
X-5242458Y8698860D01*
X-5242456Y8698860D01*
X-5106733Y8755078D01*
X-5106732Y8755078D01*
X-4984580Y8836699D01*
X-4984576Y8836702D01*
X-4880702Y8940576D01*
X-4880699Y8940580D01*
X-4799078Y9062732D01*
X-4799078Y9062733D01*
X-4742860Y9198456D01*
X-4742860Y9198458D01*
X-4714200Y9342542D01*
X-4714200Y9489457D01*
X-4742860Y9633541D01*
X-4742860Y9633543D01*
X-4799078Y9769266D01*
X-4799078Y9769267D01*
X-4848791Y9843667D01*
X-4880699Y9891420D01*
X-4984580Y9995301D01*
X-5106731Y10076920D01*
X-5111048Y10078708D01*
X-5137479Y10089656D01*
X-5242458Y10133140D01*
X-5386545Y10161800D01*
X-5533455Y10161800D01*
X-5677542Y10133140D01*
X-5813269Y10076920D01*
X-5935420Y9995301D01*
X-6039301Y9891420D01*
X-6120920Y9769269D01*
X-6177140Y9633542D01*
X-6205800Y9489455D01*
X-7489764Y9489455D01*
X-7335031Y9644188D01*
X-7335030Y9644188D01*
X-7335029Y9644190D01*
X-7288886Y9724111D01*
X-7283531Y9744098D01*
X-7283527Y9744112D01*
X-7281367Y9752169D01*
X-7255749Y9796535D01*
X-7214999Y9837285D01*
X-7149109Y9951409D01*
X-7115000Y10078709D01*
X-7115000Y10210490D01*
X-7115000Y10210492D01*
X-7149108Y10337786D01*
X-7149109Y10337790D01*
X-7214996Y10451909D01*
X-7214998Y10451911D01*
X-7215000Y10451914D01*
X-7308186Y10545100D01*
X-7308188Y10545101D01*
X-7308190Y10545103D01*
X-7422310Y10610990D01*
X-7422308Y10610990D01*
X-7422312Y10610991D01*
X-7422314Y10610992D01*
X-7549608Y10645100D01*
X-7681392Y10645100D01*
X-7808686Y10610992D01*
X-7808688Y10610990D01*
X-7808690Y10610990D01*
X-7922809Y10545103D01*
X-7922814Y10545100D01*
X-8016000Y10451914D01*
X-8081892Y10337786D01*
X-8116000Y10210492D01*
X-8116000Y10078708D01*
X-8083429Y9957150D01*
X-8086631Y9896054D01*
X-8109050Y9861530D01*
X-8868318Y9102263D01*
X-9625196Y8345385D01*
X-9679713Y8317608D01*
X-9740145Y8327179D01*
X-9783410Y8370444D01*
X-9794200Y8415389D01*
X-9794200Y8473457D01*
X-9819606Y8601184D01*
X-9822860Y8617542D01*
X-9822860Y8617543D01*
X-9879078Y8753266D01*
X-9879078Y8753267D01*
X-9919749Y8814134D01*
X-9960699Y8875420D01*
X-10064580Y8979301D01*
X-10186731Y9060920D01*
X-10191106Y9062732D01*
X-10217479Y9073656D01*
X-10322458Y9117140D01*
X-10466545Y9145800D01*
X-10613455Y9145800D01*
X-10757542Y9117140D01*
X-10893269Y9060920D01*
X-11015420Y8979301D01*
X-11119301Y8875420D01*
X-11200920Y8753269D01*
X-11257140Y8617542D01*
X-11285800Y8473455D01*
X-11285800Y8326545D01*
X-11257140Y8182458D01*
X-11253746Y8174265D01*
X-11200921Y8046733D01*
X-11200921Y8046732D01*
X-11200920Y8046731D01*
X-11119301Y7924580D01*
X-11015420Y7820699D01*
X-10908946Y7749555D01*
X-10893266Y7739078D01*
X-10757542Y7682860D01*
X-10613457Y7654200D01*
X-10555389Y7654200D01*
X-10497198Y7635293D01*
X-10461234Y7585793D01*
X-10461234Y7524607D01*
X-10485386Y7485196D01*
X-10828187Y7142396D01*
X-10882703Y7114619D01*
X-10898190Y7113400D01*
X-11901779Y7113400D01*
X-11959970Y7132307D01*
X-11971776Y7142390D01*
X-11992786Y7163400D01*
X-11992788Y7163401D01*
X-11992790Y7163403D01*
X-12106910Y7229290D01*
X-12106911Y7229290D01*
X-12106914Y7229292D01*
X-12211463Y7257305D01*
X-12262776Y7290628D01*
X-12284703Y7347749D01*
X-12268868Y7406850D01*
X-12264381Y7413198D01*
X-12087536Y7643668D01*
X-11867757Y8174262D01*
X-11867755Y8174268D01*
X-11792793Y8743666D01*
X-11792793Y8743667D01*
X-11867755Y9313065D01*
X-11867757Y9313071D01*
X-11879966Y9342545D01*
X-12038016Y9724112D01*
X-12087536Y9843665D01*
X-12087537Y9843667D01*
X-12369010Y10210490D01*
X-12437153Y10299296D01*
X-12437154Y10299297D01*
X-12437158Y10299302D01*
X-12487317Y10337790D01*
X-12517140Y10360674D01*
X-12892793Y10648923D01*
X-13423391Y10868704D01*
X-13742145Y10910668D01*
X-13797369Y10937009D01*
X-13826564Y10990780D01*
X-13818578Y11051441D01*
X-13807450Y11069496D01*
X-13727753Y11172249D01*
X-13724808Y11175866D01*
X-13186269Y11806467D01*
X-13183157Y11809942D01*
X-12615499Y12414488D01*
X-12612227Y12417812D01*
X-12016736Y12994937D01*
X-12013311Y12998104D01*
X-11391268Y13546563D01*
X-11387697Y13549564D01*
X-10740541Y14068089D01*
X-10736851Y14070905D01*
X-10594046Y14174672D01*
X-2150500Y14174672D01*
X-2150500Y12825327D01*
X-2150498Y12825315D01*
X-2149913Y12822376D01*
X-2135966Y12752260D01*
X-2135964Y12752257D01*
X-2080602Y12669400D01*
X-2080599Y12669397D01*
X-1997742Y12614035D01*
X-1997740Y12614034D01*
X-1997737Y12614033D01*
X-1997736Y12614033D01*
X-1924684Y12599501D01*
X-1924674Y12599500D01*
X-1924673Y12599500D01*
X-575327Y12599500D01*
X-575326Y12599500D01*
X-575325Y12599500D01*
X-575315Y12599501D01*
X-502263Y12614033D01*
X-502257Y12614035D01*
X-419400Y12669397D01*
X-419397Y12669400D01*
X-364035Y12752257D01*
X-364033Y12752263D01*
X-350086Y12822376D01*
X-350085Y12822376D01*
X-350086Y12822377D01*
X-349500Y12825318D01*
X-349500Y13588644D01*
X350000Y13588644D01*
X350000Y13411355D01*
X384586Y13237480D01*
X384586Y13237478D01*
X452428Y13073692D01*
X516166Y12978299D01*
X861232Y13323365D01*
X909916Y13239044D01*
X989044Y13159916D01*
X1073365Y13111232D01*
X728299Y12766166D01*
X823692Y12702428D01*
X987479Y12634586D01*
X1161355Y12600000D01*
X1338644Y12600000D01*
X1512519Y12634586D01*
X1512521Y12634586D01*
X1676307Y12702428D01*
X1771699Y12766166D01*
X1426633Y13111231D01*
X1510956Y13159916D01*
X1590084Y13239044D01*
X1638766Y13323364D01*
X1983832Y12978299D01*
X2047571Y13073692D01*
X2115413Y13237478D01*
X2115413Y13237480D01*
X2149999Y13411355D01*
X2150000Y13411358D01*
X2150000Y13588641D01*
X2149999Y13588644D01*
X2115413Y13762519D01*
X2115413Y13762521D01*
X2047571Y13926307D01*
X2047571Y13926308D01*
X1983832Y14021699D01*
X1638767Y13676634D01*
X1590084Y13760956D01*
X1510956Y13840084D01*
X1426634Y13888767D01*
X1771699Y14233832D01*
X1676307Y14297571D01*
X1512520Y14365413D01*
X1338644Y14399999D01*
X1338641Y14400000D01*
X1161359Y14400000D01*
X1161355Y14399999D01*
X987480Y14365413D01*
X987478Y14365413D01*
X823692Y14297571D01*
X728299Y14233832D01*
X1073364Y13888766D01*
X989044Y13840084D01*
X909916Y13760956D01*
X861231Y13676633D01*
X516166Y14021699D01*
X452428Y13926307D01*
X384586Y13762521D01*
X384586Y13762519D01*
X350000Y13588644D01*
X-349500Y13588644D01*
X-349500Y14174674D01*
X-350086Y14177619D01*
X-350085Y14177619D01*
X-350087Y14177623D01*
X-364034Y14247740D01*
X-397329Y14297571D01*
X-419397Y14330599D01*
X-419400Y14330602D01*
X-502257Y14385964D01*
X-502260Y14385966D01*
X-572812Y14400000D01*
X-575315Y14400498D01*
X-575320Y14400498D01*
X-575326Y14400500D01*
X-1924674Y14400500D01*
X-1997740Y14385966D01*
X-2080601Y14330601D01*
X-2135966Y14247740D01*
X-2149913Y14177623D01*
X-2150498Y14174684D01*
X-2150500Y14174672D01*
X-10594046Y14174672D01*
X-10477128Y14259628D01*
X-10477125Y14259628D01*
X-10065973Y14558383D01*
X-10062136Y14561036D01*
X-9369022Y15016383D01*
X-9365064Y15018851D01*
X-8651321Y15441015D01*
X-8647252Y15443295D01*
X-7914367Y15831398D01*
X-7910194Y15833483D01*
X-7159866Y16186620D01*
X-7155600Y16188506D01*
X-6389488Y16505901D01*
X-6385138Y16507585D01*
X-5604880Y16788557D01*
X-5600455Y16790033D01*
X-4807879Y17033926D01*
X-4803390Y17035193D01*
X-4000157Y17241493D01*
X-3995613Y17242546D01*
X-3183601Y17410773D01*
X-3179012Y17411612D01*
X-2359937Y17541409D01*
X-2355314Y17542030D01*
X-1531062Y17633099D01*
X-1526415Y17633502D01*
X-698784Y17685645D01*
X-694123Y17685829D01*
X135076Y17698930D01*
X139741Y17698893D01*
G37*
%TD.AperFunction*%
%TA.AperFunction,Conductor*%
G36*
X-1910674Y-2781007D02*
G01*
X-1874710Y-2830507D01*
X-1873239Y-2886723D01*
X-1881300Y-2916808D01*
X-1881300Y-3048592D01*
X-1847192Y-3175886D01*
X-1847190Y-3175888D01*
X-1847190Y-3175890D01*
X-1817343Y-3227586D01*
X-1781300Y-3290014D01*
X-1688114Y-3383200D01*
X-1688109Y-3383202D01*
X-1688109Y-3383203D01*
X-1573989Y-3449090D01*
X-1573988Y-3449090D01*
X-1573986Y-3449092D01*
X-1446692Y-3483200D01*
X-1446690Y-3483200D01*
X-1314908Y-3483200D01*
X-1291072Y-3476813D01*
X-1229971Y-3480014D01*
X-1195447Y-3502433D01*
X-558495Y-4139385D01*
X-530719Y-4193901D01*
X-529500Y-4209388D01*
X-529500Y-4239092D01*
X-495392Y-4366386D01*
X-429500Y-4480514D01*
X-336314Y-4573700D01*
X-336309Y-4573702D01*
X-336309Y-4573703D01*
X-222189Y-4639590D01*
X-222188Y-4639590D01*
X-222186Y-4639592D01*
X-94892Y-4673700D01*
X-65190Y-4673700D01*
X-6999Y-4692607D01*
X4814Y-4702696D01*
X4982616Y-9680498D01*
X5010392Y-9735013D01*
X5000821Y-9795445D01*
X4957556Y-9838710D01*
X4912611Y-9849500D01*
X3853843Y-9849500D01*
X3795652Y-9830593D01*
X3759688Y-9781093D01*
X3759688Y-9719907D01*
X3768109Y-9700996D01*
X3768183Y-9700865D01*
X3768692Y-9699986D01*
X3802800Y-9572692D01*
X3802800Y-9440908D01*
X3768692Y-9313614D01*
X3768690Y-9313611D01*
X3768690Y-9313609D01*
X3702803Y-9199490D01*
X3702801Y-9199488D01*
X3702800Y-9199486D01*
X3609614Y-9106300D01*
X3609611Y-9106298D01*
X3609609Y-9106296D01*
X3495489Y-9040409D01*
X3495491Y-9040409D01*
X3446099Y-9027175D01*
X3368192Y-9006300D01*
X3236408Y-9006300D01*
X3158500Y-9027175D01*
X3109109Y-9040409D01*
X2994990Y-9106296D01*
X2994989Y-9106297D01*
X2994986Y-9106299D01*
X2994986Y-9106300D01*
X2973980Y-9127305D01*
X2919466Y-9155081D01*
X2903979Y-9156300D01*
X1863390Y-9156300D01*
X1805199Y-9137393D01*
X1793386Y-9127304D01*
X-2627294Y-4706622D01*
X-2655071Y-4652105D01*
X-2645500Y-4591673D01*
X-2624154Y-4566008D01*
X-2625175Y-4564988D01*
X-2620588Y-4560401D01*
X-2620586Y-4560400D01*
X-2599580Y-4539394D01*
X-2545066Y-4511619D01*
X-2529579Y-4510400D01*
X-1721790Y-4510400D01*
X-1663599Y-4529307D01*
X-1651786Y-4539396D01*
X-425096Y-5766085D01*
X-397319Y-5820602D01*
X-396100Y-5836089D01*
X-396100Y-5865792D01*
X-361992Y-5993086D01*
X-361990Y-5993088D01*
X-361990Y-5993090D01*
X-296103Y-6107209D01*
X-296100Y-6107214D01*
X-202914Y-6200400D01*
X-202909Y-6200402D01*
X-202909Y-6200403D01*
X-181806Y-6212587D01*
X-111315Y-6253285D01*
X-88789Y-6266290D01*
X-88788Y-6266290D01*
X-88786Y-6266292D01*
X38508Y-6300400D01*
X38510Y-6300400D01*
X170290Y-6300400D01*
X170292Y-6300400D01*
X297586Y-6266292D01*
X297588Y-6266290D01*
X297590Y-6266290D01*
X411709Y-6200403D01*
X411709Y-6200402D01*
X411714Y-6200400D01*
X504900Y-6107214D01*
X504903Y-6107209D01*
X570790Y-5993090D01*
X570790Y-5993088D01*
X570792Y-5993086D01*
X604900Y-5865792D01*
X604900Y-5734008D01*
X570792Y-5606714D01*
X570790Y-5606711D01*
X570790Y-5606709D01*
X504903Y-5492590D01*
X504901Y-5492588D01*
X504900Y-5492586D01*
X411714Y-5399400D01*
X411711Y-5399398D01*
X411709Y-5399396D01*
X297589Y-5333509D01*
X297591Y-5333509D01*
X248199Y-5320275D01*
X170292Y-5299400D01*
X170290Y-5299400D01*
X140589Y-5299400D01*
X82398Y-5280493D01*
X70585Y-5270404D01*
X-1320388Y-3879430D01*
X-1400312Y-3833286D01*
X-1489456Y-3809400D01*
X-1489458Y-3809400D01*
X-2529579Y-3809400D01*
X-2587770Y-3790493D01*
X-2599576Y-3780409D01*
X-2620586Y-3759400D01*
X-2620586Y-3759399D01*
X-2620589Y-3759397D01*
X-2620590Y-3759396D01*
X-2734710Y-3693509D01*
X-2734708Y-3693509D01*
X-2802354Y-3675383D01*
X-2862008Y-3659400D01*
X-2862010Y-3659400D01*
X-2891710Y-3659400D01*
X-2949901Y-3640493D01*
X-2961714Y-3630403D01*
X-3607517Y-2984598D01*
X-3635294Y-2930082D01*
X-3625723Y-2869650D01*
X-3587012Y-2828858D01*
X-3585721Y-2828113D01*
X-3557986Y-2812100D01*
X-3536980Y-2791094D01*
X-3482466Y-2763319D01*
X-3466979Y-2762100D01*
X-1968865Y-2762100D01*
X-1910674Y-2781007D01*
G37*
%TD.AperFunction*%
%TA.AperFunction,Conductor*%
G36*
X3834231Y-7263425D02*
G01*
X4174999Y-7491119D01*
X4515605Y-7659087D01*
X5189781Y-7991554D01*
X5189783Y-7991554D01*
X5189788Y-7991557D01*
X5858155Y-8218437D01*
X6261208Y-8355256D01*
X6261210Y-8355256D01*
X6261215Y-8355258D01*
X6717734Y-8446065D01*
X6771116Y-8475961D01*
X6796732Y-8531526D01*
X6784795Y-8591535D01*
X6747919Y-8628898D01*
X6680487Y-8667830D01*
X6295913Y-9052404D01*
X6241397Y-9080181D01*
X6225910Y-9081400D01*
X5415890Y-9081400D01*
X5357699Y-9062493D01*
X5345886Y-9052404D01*
X3709227Y-7415745D01*
X3681450Y-7361228D01*
X3691021Y-7300796D01*
X3734286Y-7257531D01*
X3794718Y-7247960D01*
X3834231Y-7263425D01*
G37*
%TD.AperFunction*%
%TA.AperFunction,Conductor*%
G36*
X3681070Y7548293D02*
G01*
X3692876Y7538209D01*
X3706479Y7524607D01*
X3713889Y7517197D01*
X3713890Y7517196D01*
X3828010Y7451309D01*
X3834006Y7448826D01*
X3832825Y7445976D01*
X3873559Y7419390D01*
X3895354Y7362218D01*
X3879382Y7303154D01*
X3851480Y7274950D01*
X3485980Y7030731D01*
X3234213Y6862506D01*
X3234203Y6862498D01*
X2383535Y6116481D01*
X2383526Y6116473D01*
X2383518Y6116464D01*
X2383517Y6116463D01*
X1637500Y5265795D01*
X1637492Y5265785D01*
X1008879Y4324998D01*
X898540Y4101253D01*
X855846Y4057426D01*
X795544Y4047065D01*
X740669Y4074126D01*
X724013Y4095541D01*
X685000Y4163114D01*
X663994Y4184119D01*
X636219Y4238634D01*
X635000Y4254121D01*
X635000Y4318442D01*
X635000Y4318444D01*
X611114Y4407588D01*
X564970Y4487512D01*
X-719085Y5771567D01*
X-746862Y5826084D01*
X-737291Y5886516D01*
X-734819Y5891069D01*
X-712508Y5929713D01*
X-678400Y6057009D01*
X-678400Y6188790D01*
X-678400Y6188792D01*
X-712508Y6316086D01*
X-712509Y6316090D01*
X-778396Y6430209D01*
X-778399Y6430212D01*
X-778400Y6430214D01*
X-871586Y6523400D01*
X-961589Y6575363D01*
X-1002530Y6620833D01*
X-1008926Y6681683D01*
X-978333Y6734671D01*
X-922437Y6759558D01*
X-912089Y6760100D01*
X1531542Y6760100D01*
X1531544Y6760100D01*
X1620688Y6783986D01*
X1700612Y6830130D01*
X2408686Y7538204D01*
X2463203Y7565981D01*
X2478690Y7567200D01*
X3622879Y7567200D01*
X3681070Y7548293D01*
G37*
%TD.AperFunction*%
%TD*%
M02*
