%TF.GenerationSoftware,KiCad,Pcbnew,10.0.6*%
%TF.CreationDate,2026-09-29T13:47:49+02:00*%
%TF.ProjectId,shotpuck,73686f74-7075-4636-9b2e-6b696361645f,rev?*%
%TF.SameCoordinates,Original*%
%TF.FileFunction,Copper,L1,Top*%
%TF.FilePolarity,Positive*%
%FSLAX46Y46*%
G04 Gerber Fmt 4.6, Leading zero omitted, Abs format (unit mm)*
G04 Created by KiCad (PCBNEW 10.0.6) date 2026-09-29 13:47:49*
%MOMM*%
%LPD*%
G01*
G04 APERTURE LIST*
G04 Aperture macros list*
%AMRoundRect*
0 Rectangle with rounded corners*
0 $1 Rounding radius*
0 $2 $3 $4 $5 $6 $7 $8 $9 X,Y pos of 4 corners*
0 Add a 4 corners polygon primitive as box body*
4,1,4,$2,$3,$4,$5,$6,$7,$8,$9,$2,$3,0*
0 Add four circle primitives for the rounded corners*
1,1,$1+$1,$2,$3*
1,1,$1+$1,$4,$5*
1,1,$1+$1,$6,$7*
1,1,$1+$1,$8,$9*
0 Add four rect primitives between the rounded corners*
20,1,$1+$1,$2,$3,$4,$5,0*
20,1,$1+$1,$4,$5,$6,$7,0*
20,1,$1+$1,$6,$7,$8,$9,0*
20,1,$1+$1,$8,$9,$2,$3,0*%
%AMRotRect*
0 Rectangle, with rotation*
0 The origin of the aperture is its center*
0 $1 length*
0 $2 width*
0 $3 Rotation angle, in degrees counterclockwise*
0 Add horizontal line*
21,1,$1,$2,0,0,$3*%
G04 Aperture macros list end*
%TA.AperFunction,SMDPad,CuDef*%
%ADD10RoundRect,0.150000X-0.512500X-0.150000X0.512500X-0.150000X0.512500X0.150000X-0.512500X0.150000X0*%
%TD*%
%TA.AperFunction,SMDPad,CuDef*%
%ADD11RoundRect,0.087500X-0.087500X0.225000X-0.087500X-0.225000X0.087500X-0.225000X0.087500X0.225000X0*%
%TD*%
%TA.AperFunction,SMDPad,CuDef*%
%ADD12RoundRect,0.087500X-0.225000X0.087500X-0.225000X-0.087500X0.225000X-0.087500X0.225000X0.087500X0*%
%TD*%
%TA.AperFunction,SMDPad,CuDef*%
%ADD13RoundRect,0.135000X0.185000X-0.135000X0.185000X0.135000X-0.185000X0.135000X-0.185000X-0.135000X0*%
%TD*%
%TA.AperFunction,SMDPad,CuDef*%
%ADD14RoundRect,0.125000X-0.125000X-0.125000X0.125000X-0.125000X0.125000X0.125000X-0.125000X0.125000X0*%
%TD*%
%TA.AperFunction,SMDPad,CuDef*%
%ADD15RoundRect,0.140000X0.170000X-0.140000X0.170000X0.140000X-0.170000X0.140000X-0.170000X-0.140000X0*%
%TD*%
%TA.AperFunction,SMDPad,CuDef*%
%ADD16RoundRect,0.087500X-0.425000X-0.087500X0.425000X-0.087500X0.425000X0.087500X-0.425000X0.087500X0*%
%TD*%
%TA.AperFunction,SMDPad,CuDef*%
%ADD17RoundRect,0.140000X-0.140000X-0.170000X0.140000X-0.170000X0.140000X0.170000X-0.140000X0.170000X0*%
%TD*%
%TA.AperFunction,SMDPad,CuDef*%
%ADD18RoundRect,0.225000X-0.225000X-0.250000X0.225000X-0.250000X0.225000X0.250000X-0.225000X0.250000X0*%
%TD*%
%TA.AperFunction,SMDPad,CuDef*%
%ADD19RoundRect,0.250000X-0.300000X0.300000X-0.300000X-0.300000X0.300000X-0.300000X0.300000X0.300000X0*%
%TD*%
%TA.AperFunction,SMDPad,CuDef*%
%ADD20RoundRect,0.135000X0.135000X0.185000X-0.135000X0.185000X-0.135000X-0.185000X0.135000X-0.185000X0*%
%TD*%
%TA.AperFunction,SMDPad,CuDef*%
%ADD21RoundRect,0.140000X0.140000X0.170000X-0.140000X0.170000X-0.140000X-0.170000X0.140000X-0.170000X0*%
%TD*%
%TA.AperFunction,SMDPad,CuDef*%
%ADD22RoundRect,0.135000X-0.185000X0.135000X-0.185000X-0.135000X0.185000X-0.135000X0.185000X0.135000X0*%
%TD*%
%TA.AperFunction,SMDPad,CuDef*%
%ADD23RotRect,2.500000X2.000000X239.984259*%
%TD*%
%TA.AperFunction,SMDPad,CuDef*%
%ADD24RotRect,2.500000X2.000000X279.944731*%
%TD*%
%TA.AperFunction,SMDPad,CuDef*%
%ADD25RoundRect,0.070000X0.355000X-0.070000X0.355000X0.070000X-0.355000X0.070000X-0.355000X-0.070000X0*%
%TD*%
%TA.AperFunction,SMDPad,CuDef*%
%ADD26RoundRect,0.070000X0.305000X-0.070000X0.305000X0.070000X-0.305000X0.070000X-0.305000X-0.070000X0*%
%TD*%
%TA.AperFunction,ComponentPad*%
%ADD27RotRect,1.300000X1.300000X75.000000*%
%TD*%
%TA.AperFunction,ComponentPad*%
%ADD28C,1.300000*%
%TD*%
%TA.AperFunction,SMDPad,CuDef*%
%ADD29RoundRect,0.225000X-0.250000X0.225000X-0.250000X-0.225000X0.250000X-0.225000X0.250000X0.225000X0*%
%TD*%
%TA.AperFunction,SMDPad,CuDef*%
%ADD30R,0.500000X0.500000*%
%TD*%
%TA.AperFunction,SMDPad,CuDef*%
%ADD31RoundRect,0.147500X0.172500X-0.147500X0.172500X0.147500X-0.172500X0.147500X-0.172500X-0.147500X0*%
%TD*%
%TA.AperFunction,SMDPad,CuDef*%
%ADD32RoundRect,0.125000X0.125000X-0.125000X0.125000X0.125000X-0.125000X0.125000X-0.125000X-0.125000X0*%
%TD*%
%TA.AperFunction,ViaPad*%
%ADD33C,0.550000*%
%TD*%
%TA.AperFunction,Conductor*%
%ADD34C,0.150000*%
%TD*%
%TA.AperFunction,Conductor*%
%ADD35C,0.200000*%
%TD*%
G04 APERTURE END LIST*
D10*
%TO.P,U3,1*%
%TO.N,STAT*%
X-13537500Y-550000D03*
%TO.P,U3,2*%
%TO.N,GND*%
X-13537500Y-1500000D03*
%TO.P,U3,3*%
%TO.N,VBAT*%
X-13537500Y-2450000D03*
%TO.P,U3,4*%
%TO.N,VIN*%
X-11262500Y-2450000D03*
%TO.P,U3,5*%
%TO.N,PROG*%
X-11262500Y-550000D03*
%TD*%
D11*
%TO.P,U2,1*%
%TO.N,GND*%
X-9450000Y12662500D03*
%TO.P,U2,2*%
X-9950000Y12662500D03*
%TO.P,U2,3*%
X-10450000Y12662500D03*
%TO.P,U2,4*%
%TO.N,ACC_INT1*%
X-10950000Y12662500D03*
D12*
%TO.P,U2,5*%
%TO.N,VDD*%
X-11112500Y12000000D03*
%TO.P,U2,6*%
%TO.N,GND*%
X-11112500Y11500000D03*
%TO.P,U2,7*%
X-11112500Y11000000D03*
D11*
%TO.P,U2,8*%
%TO.N,VDD*%
X-10950000Y10337500D03*
%TO.P,U2,9*%
%TO.N,N/C*%
X-10450000Y10337500D03*
%TO.P,U2,10*%
X-9950000Y10337500D03*
%TO.P,U2,11*%
X-9450000Y10337500D03*
D12*
%TO.P,U2,12*%
%TO.N,VDD*%
X-9287500Y11000000D03*
%TO.P,U2,13*%
%TO.N,SCL*%
X-9287500Y11500000D03*
%TO.P,U2,14*%
%TO.N,SDA*%
X-9287500Y12000000D03*
%TD*%
D13*
%TO.P,R1,1*%
%TO.N,PROG*%
X-15200000Y-2010000D03*
%TO.P,R1,2*%
%TO.N,PROG_SW*%
X-15200000Y-990000D03*
%TD*%
D14*
%TO.P,D1,1*%
%TO.N,VIN*%
X7099999Y-6800000D03*
%TO.P,D1,2*%
%TO.N,VIN_RAW*%
X9299999Y-6800000D03*
%TD*%
D13*
%TO.P,R2,1*%
%TO.N,VIN*%
X-15600000Y1090000D03*
%TO.P,R2,2*%
%TO.N,Q1_GATE*%
X-15600000Y2110000D03*
%TD*%
D15*
%TO.P,C6,1*%
%TO.N,VDD*%
X-12400000Y10720000D03*
%TO.P,C6,2*%
%TO.N,GND*%
X-12400000Y11680000D03*
%TD*%
D16*
%TO.P,Q1,1*%
%TO.N,GND*%
X-14037500Y2850000D03*
%TO.P,Q1,2*%
%TO.N,Q1_GATE*%
X-14037500Y2200000D03*
%TO.P,Q1,3*%
X-14037500Y1550000D03*
%TO.P,Q1,4*%
%TO.N,GND*%
X-12362500Y1550000D03*
%TO.P,Q1,5*%
%TO.N,CHG_INH*%
X-12362500Y2200000D03*
%TO.P,Q1,6*%
%TO.N,PROG_SW*%
X-12362500Y2850000D03*
%TD*%
D15*
%TO.P,C7,1*%
%TO.N,VDD*%
X-12600000Y8720000D03*
%TO.P,C7,2*%
%TO.N,GND*%
X-12600000Y9680000D03*
%TD*%
D17*
%TO.P,C8,1*%
%TO.N,PCM_BAT*%
X-14080000Y-6900000D03*
%TO.P,C8,2*%
%TO.N,BAT_N*%
X-13120000Y-6900000D03*
%TD*%
D18*
%TO.P,C2,1*%
%TO.N,VBAT*%
X-14175000Y-4099999D03*
%TO.P,C2,2*%
%TO.N,GND*%
X-12625000Y-4099999D03*
%TD*%
D19*
%TO.P,D3,1*%
%TO.N,GND*%
X9300000Y-2000000D03*
%TO.P,D3,2*%
%TO.N,VIN_RAW*%
X9300000Y-4800000D03*
%TD*%
D15*
%TO.P,C4,1*%
%TO.N,VDD*%
X-12800000Y6820000D03*
%TO.P,C4,2*%
%TO.N,GND*%
X-12800000Y7780000D03*
%TD*%
D20*
%TO.P,R4,1*%
%TO.N,LED_IO*%
X-4090000Y4440000D03*
%TO.P,R4,2*%
%TO.N,LED_A*%
X-5110000Y4440000D03*
%TD*%
D21*
%TO.P,C3,1*%
%TO.N,VBAT*%
X-10220000Y8000000D03*
%TO.P,C3,2*%
%TO.N,GND*%
X-11180000Y8000000D03*
%TD*%
D22*
%TO.P,R9,1*%
%TO.N,VIN*%
X-8800000Y2910000D03*
%TO.P,R9,2*%
%TO.N,VBUS_SNS*%
X-8800000Y1890000D03*
%TD*%
D13*
%TO.P,R3,1*%
%TO.N,CHG_INH*%
X-10300000Y1690000D03*
%TO.P,R3,2*%
%TO.N,GND*%
X-10300000Y2710000D03*
%TD*%
D23*
%TO.P,BT1,1*%
%TO.N,BAT_P*%
X-7270000Y-7550000D03*
D24*
%TO.P,BT1,2*%
%TO.N,BAT_N*%
X-8270000Y-13199999D03*
%TD*%
D25*
%TO.P,U4,1*%
%TO.N,N/C*%
X-12875000Y-9150000D03*
D26*
%TO.P,U4,2*%
%TO.N,PCM_COUT*%
X-12825000Y-8650000D03*
%TO.P,U4,3*%
%TO.N,PCM_DOUT*%
X-12825000Y-8150000D03*
%TO.P,U4,4*%
%TO.N,BAT_N*%
X-13975000Y-8150000D03*
%TO.P,U4,5*%
%TO.N,PCM_BAT*%
X-13975000Y-8650000D03*
%TO.P,U4,6*%
%TO.N,PCM_VM*%
X-13975000Y-9150000D03*
%TD*%
D15*
%TO.P,C9,1*%
%TO.N,VBUS_SNS*%
X-7800000Y1320000D03*
%TO.P,C9,2*%
%TO.N,GND*%
X-7800000Y2280000D03*
%TD*%
D27*
%TO.P,J1,1*%
%TO.N,VIN_RAW*%
X13196476Y-4827407D03*
D28*
%TO.P,J1,2*%
%TO.N,GND*%
X13843524Y-2412593D03*
%TD*%
D29*
%TO.P,C1,1*%
%TO.N,VIN*%
X6450000Y-725000D03*
%TO.P,C1,2*%
%TO.N,GND*%
X6450000Y-2275000D03*
%TD*%
D30*
%TO.P,U1,1*%
%TO.N,GND*%
X3850000Y14900000D03*
%TO.P,U1,2*%
X3300000Y14000000D03*
%TO.P,U1,3*%
X2750000Y14900000D03*
%TO.P,U1,4*%
X2200000Y14000000D03*
%TO.P,U1,5*%
X1650000Y14900000D03*
%TO.P,U1,6*%
%TO.N,N/C*%
X1100000Y14000000D03*
%TO.P,U1,7*%
X550000Y14900000D03*
%TO.P,U1,8*%
X0Y14000000D03*
%TO.P,U1,9*%
X-550000Y14900000D03*
%TO.P,U1,10*%
X-1100000Y14000000D03*
%TO.P,U1,11*%
X-1650000Y14900000D03*
%TO.P,U1,12*%
X-2200000Y14000000D03*
%TO.P,U1,13*%
X-2750000Y14900000D03*
%TO.P,U1,14*%
X-3300000Y14000000D03*
%TO.P,U1,15*%
X-3850000Y14900000D03*
%TO.P,U1,16*%
%TO.N,GND*%
X-4950000Y14900000D03*
%TO.P,U1,17*%
%TO.N,VDD*%
X-4950000Y13800000D03*
%TO.P,U1,18*%
%TO.N,GND*%
X-4050000Y13250000D03*
%TO.P,U1,19*%
%TO.N,ACC_INT1*%
X-4950000Y12700000D03*
%TO.P,U1,20*%
%TO.N,N/C*%
X-4050000Y12150000D03*
%TO.P,U1,21*%
%TO.N,SDA*%
X-4950000Y11600000D03*
%TO.P,U1,22*%
%TO.N,N/C*%
X-4050000Y11050000D03*
%TO.P,U1,23*%
%TO.N,SCL*%
X-4950000Y10500000D03*
%TO.P,U1,24*%
%TO.N,N/C*%
X-4050000Y9950000D03*
%TO.P,U1,25*%
X-4950000Y9400000D03*
%TO.P,U1,26*%
X-4050000Y8850000D03*
%TO.P,U1,27*%
%TO.N,CHG_INH*%
X-4950000Y8300000D03*
%TO.P,U1,28*%
%TO.N,N/C*%
X-4050000Y7750000D03*
%TO.P,U1,29*%
%TO.N,GND*%
X-4950000Y7200000D03*
%TO.P,U1,30*%
X-4950000Y6100000D03*
%TO.P,U1,31*%
%TO.N,LED_IO*%
X-3850000Y6100000D03*
%TO.P,U1,32*%
%TO.N,N/C*%
X-3300000Y7000000D03*
%TO.P,U1,33*%
%TO.N,CHG_STAT*%
X-2750000Y6100000D03*
%TO.P,U1,34*%
%TO.N,N/C*%
X-2200000Y7000000D03*
%TO.P,U1,35*%
X-1650000Y6100000D03*
%TO.P,U1,36*%
X-1100000Y7000000D03*
%TO.P,U1,37*%
X-550000Y6100000D03*
%TO.P,U1,38*%
X0Y7000000D03*
%TO.P,U1,39*%
X550000Y6100000D03*
%TO.P,U1,40*%
X1100000Y7000000D03*
%TO.P,U1,41*%
X1650000Y6100000D03*
%TO.P,U1,42*%
X2200000Y7000000D03*
%TO.P,U1,43*%
%TO.N,SWDCLK*%
X2750000Y6100000D03*
%TO.P,U1,44*%
%TO.N,SWDIO*%
X3300000Y7000000D03*
%TO.P,U1,45*%
%TO.N,GND*%
X3850000Y6100000D03*
%TO.P,U1,46*%
X3850000Y8850000D03*
%TO.P,U1,47*%
X3850000Y12150000D03*
%TO.P,U1,48*%
%TO.N,N/C*%
X2750000Y13100000D03*
%TO.P,U1,49*%
X1650000Y13100000D03*
%TO.P,U1,50*%
X550000Y13100000D03*
%TO.P,U1,51*%
X-550000Y13100000D03*
%TO.P,U1,52*%
X-1650000Y13100000D03*
%TO.P,U1,53*%
X-3150000Y11600000D03*
%TO.P,U1,54*%
X-3150000Y10500000D03*
%TO.P,U1,55*%
%TO.N,GND*%
X-3150000Y9400000D03*
%TO.P,U1,56*%
%TO.N,N/C*%
X-1650000Y7900000D03*
%TO.P,U1,57*%
X-550000Y7900000D03*
%TO.P,U1,58*%
X550000Y7900000D03*
%TO.P,U1,59*%
X1650000Y7900000D03*
%TO.P,U1,60*%
X2750000Y7900000D03*
%TO.P,U1,61*%
X-5850000Y14350000D03*
%TO.P,U1,62*%
X-5850000Y13250000D03*
%TO.P,U1,63*%
X-5850000Y12150000D03*
%TO.P,U1,64*%
X-5850000Y11050000D03*
%TO.P,U1,65*%
%TO.N,VBAT*%
X-5850000Y9950000D03*
%TO.P,U1,66*%
%TO.N,VBUS_SNS*%
X-5850000Y8850000D03*
%TO.P,U1,67*%
%TO.N,N/C*%
X-5850000Y7750000D03*
%TO.P,U1,68*%
X-5850000Y6650000D03*
%TD*%
D21*
%TO.P,C5,1*%
%TO.N,VDD*%
X-10220000Y9100000D03*
%TO.P,C5,2*%
%TO.N,GND*%
X-11180000Y9100000D03*
%TD*%
D13*
%TO.P,R8,1*%
%TO.N,PCM_VM*%
X-15200000Y-7910000D03*
%TO.P,R8,2*%
%TO.N,GND*%
X-15200000Y-6890000D03*
%TD*%
D16*
%TO.P,Q2,1*%
%TO.N,GND*%
X-11437500Y-7850000D03*
%TO.P,Q2,2*%
%TO.N,PCM_COUT*%
X-11437500Y-8500000D03*
%TO.P,Q2,3*%
%TO.N,PCM_D*%
X-11437500Y-9150000D03*
%TO.P,Q2,4*%
%TO.N,BAT_N*%
X-9762500Y-9150000D03*
%TO.P,Q2,5*%
%TO.N,PCM_DOUT*%
X-9762500Y-8500000D03*
%TO.P,Q2,6*%
%TO.N,PCM_D*%
X-9762500Y-7850000D03*
%TD*%
D13*
%TO.P,R7,1*%
%TO.N,VBAT*%
X-15400000Y-5810000D03*
%TO.P,R7,2*%
%TO.N,PCM_BAT*%
X-15400000Y-4790000D03*
%TD*%
D31*
%TO.P,D4,1*%
%TO.N,GND*%
X-16950000Y2115000D03*
%TO.P,D4,2*%
%TO.N,LED_A*%
X-16950000Y3085000D03*
%TD*%
D32*
%TO.P,D2,1*%
%TO.N,STAT*%
X-9000000Y-2400000D03*
%TO.P,D2,2*%
%TO.N,CHG_STAT*%
X-9000000Y-200000D03*
%TD*%
D33*
%TO.N,GND*%
X-8000000Y12800000D03*
X-5428829Y16000328D03*
X2980946Y11916022D03*
X-2900000Y13000000D03*
X-10300000Y3610000D03*
X-8000000Y9600000D03*
X-8000000Y4800000D03*
X-14351471Y-6041471D03*
X-12037426Y12429459D03*
X-5673632Y5564877D03*
X3121929Y16324750D03*
X8000000Y-9600000D03*
X-10887500Y-7140000D03*
X-12337500Y-1500000D03*
X-13579422Y8230000D03*
X-8000000Y6400000D03*
X-11959422Y7550000D03*
X-6400000Y0D03*
X-6400000Y-3200000D03*
X-11818557Y832973D03*
X-11200000Y6400000D03*
X-11585769Y-3499999D03*
X2275135Y16002045D03*
X-4084805Y6952133D03*
X-16950000Y1215000D03*
X10339230Y-1400000D03*
X-6899999Y2280000D03*
X-3152427Y8500003D03*
X-11200000Y4800000D03*
X1208316Y16015757D03*
X-13301751Y3797984D03*
X6450000Y-3474999D03*
X2950000Y8851077D03*
X-6400000Y-1600000D03*
X-10139222Y11782616D03*
X-13379422Y10130000D03*
X-11630000Y9879422D03*
%TO.N,VBAT*%
X-15991300Y-3540900D03*
X-12670400Y-3072700D03*
%TO.N,VIN*%
X-7750000Y3250000D03*
X4950000Y3950000D03*
X-9776700Y4205500D03*
%TO.N,VDD*%
X-4400000Y14350000D03*
X-8824800Y10426600D03*
X-7315900Y14275000D03*
%TO.N,PROG_SW*%
X-16136400Y2980600D03*
X-11235100Y2905000D03*
%TO.N,CHG_INH*%
X-10194700Y898000D03*
X-3222600Y7781300D03*
%TO.N,BAT_N*%
X-8421400Y-9059000D03*
X-12174300Y-6230200D03*
%TO.N,BAT_P*%
X-8403400Y-4771000D03*
%TO.N,CHG_STAT*%
X-9796500Y-236500D03*
X-2750000Y5350000D03*
%TO.N,SWDCLK*%
X2500000Y5350000D03*
%TO.N,SWDIO*%
X3350000Y5450000D03*
%TD*%
%TO.N,STAT*%
D34*
X-9900000Y-1500000D02*
X-9000000Y-2400000D01*
X-11480200Y-1500000D02*
X-9900000Y-1500000D01*
X-12430200Y-550000D02*
X-11480200Y-1500000D01*
X-13537500Y-550000D02*
X-12430200Y-550000D01*
%TO.N,GND*%
D35*
X-4950000Y14900000D02*
X-5428829Y16000328D01*
X9300000Y-2000000D02*
X10339230Y-1400000D01*
X-12362500Y1550000D02*
X-13200000Y1550000D01*
D34*
X-2648900Y12528500D02*
X-2648900Y9003700D01*
D35*
X3850000Y8850000D02*
X2950000Y8851077D01*
D34*
X-11959400Y7550000D02*
X-11959400Y9550000D01*
D35*
X3289800Y11999200D02*
X2981000Y11916000D01*
X-12625000Y-4100000D02*
X-11825100Y-3638200D01*
D34*
X3850000Y6100000D02*
X3850000Y8850000D01*
D35*
X-10300000Y2710000D02*
X-10300000Y3610000D01*
D34*
X-13301800Y3798000D02*
X-11959400Y5140400D01*
X-3181600Y13061200D02*
X-2648900Y12528500D01*
D35*
X3850000Y14900000D02*
X3121929Y16324750D01*
X3243300Y8850700D02*
X2950000Y8851100D01*
D34*
X-2648900Y9003700D02*
X-3152400Y8500200D01*
X-9450000Y12662500D02*
X-9950000Y12662500D01*
X-12191700Y-2874300D02*
X-12337500Y-2728500D01*
X-11825100Y-3638200D02*
X-12191700Y-3271600D01*
D35*
X1650000Y14900000D02*
X1208316Y16015757D01*
X-3152400Y8500200D02*
X-3152400Y8500000D01*
X-4950000Y6100000D02*
X-5673632Y5564877D01*
D34*
X3880000Y5200000D02*
X3850000Y6100000D01*
X2981000Y9113000D02*
X2981000Y11916000D01*
D35*
X-12625000Y-4099999D02*
X-11585769Y-3499999D01*
X-9950000Y12662500D02*
X-10139222Y11782616D01*
X-11180000Y9100000D02*
X-11630000Y9879422D01*
X-13537500Y-1500000D02*
X-12337500Y-1500000D01*
X2750000Y14900000D02*
X2275135Y16002045D01*
X3850000Y8850000D02*
X3243300Y8850700D01*
D34*
X-3181600Y13061200D02*
X-3044300Y12923900D01*
D35*
X-11180000Y8000000D02*
X-11959422Y7550000D01*
X-3150000Y9400000D02*
X-3152400Y8500200D01*
X-3150000Y9400000D02*
X-3152427Y8500003D01*
D34*
X-4050000Y13250000D02*
X-2900000Y13000000D01*
D35*
X3850000Y12150000D02*
X2980946Y11916022D01*
X-12800000Y7780000D02*
X-13579422Y8230000D01*
D34*
X5750000Y1900000D02*
X4900000Y3000000D01*
X-11437500Y-7850000D02*
X-10887500Y-7140000D01*
X4900000Y3000000D02*
X4400000Y3650000D01*
X6450000Y-2275000D02*
X5750000Y-2275000D01*
D35*
X-16950000Y2115000D02*
X-16950000Y1215000D01*
D34*
X-12191700Y-3271600D02*
X-12191700Y-2874300D01*
X4400000Y3650000D02*
X3960000Y4160000D01*
D35*
X-11825100Y-3638200D02*
X-11585800Y-3500000D01*
D34*
X-11959400Y9550000D02*
X-11630000Y9879400D01*
X-12337500Y-2728500D02*
X-12337500Y-1500000D01*
X-11959400Y5140400D02*
X-11959400Y7550000D01*
D35*
X3850000Y12150000D02*
X3289800Y11999200D01*
X-4950000Y7200000D02*
X-4084805Y6952133D01*
X-12362500Y1550000D02*
X-11818557Y832973D01*
X2981000Y11916000D02*
X3850000Y12150000D01*
X-13200000Y2850000D02*
X-14037500Y2850000D01*
X6450000Y-2275000D02*
X6450000Y-3474999D01*
X-12600000Y9680000D02*
X-13379422Y10130000D01*
D34*
X5750000Y-2275000D02*
X5750000Y1900000D01*
D35*
X-7800000Y2280000D02*
X-6899999Y2280000D01*
D34*
X-3044300Y12923900D02*
X-2648900Y12528500D01*
X3960000Y4160000D02*
X3880000Y5200000D01*
D35*
X-14037500Y2850000D02*
X-13301751Y3797984D01*
X-13200000Y1550000D02*
X-13200000Y2850000D01*
D34*
X3300000Y14000000D02*
X3850000Y14900000D01*
X3243300Y8850700D02*
X2981000Y9113000D01*
X2200000Y14000000D02*
X2750000Y14900000D01*
X-10450000Y12662500D02*
X-9950000Y12662500D01*
D35*
X-15200000Y-6890000D02*
X-14351471Y-6041471D01*
%TO.N,VBAT*%
D34*
X-9298000Y7078000D02*
X-10220000Y8000000D01*
X-13586500Y-3699300D02*
X-13815300Y-3928100D01*
X-6303700Y9950000D02*
X-7811300Y8442400D01*
X-13418600Y-4486900D02*
X-13118800Y-4786700D01*
X-9332700Y3972400D02*
X-9298000Y4007100D01*
X-8253700Y8000000D02*
X-10220000Y8000000D01*
X-13418600Y-4386800D02*
X-13418600Y-4486900D01*
X-13586500Y-3511500D02*
X-14175000Y-4100000D01*
X-8170300Y-2801700D02*
X-8170300Y112000D01*
X-13537500Y-3072700D02*
X-13537500Y-3462500D01*
X-11751200Y-4509500D02*
X-9878100Y-4509500D01*
X-12670400Y-3072700D02*
X-13537500Y-3072700D01*
X-13815300Y-3990100D02*
X-13418600Y-4386800D01*
X-6303700Y9950000D02*
X-8253700Y8000000D01*
X-9332700Y1274400D02*
X-9332700Y3972400D01*
X-13537500Y-2450000D02*
X-13537500Y-3072700D01*
X-15991300Y-5218700D02*
X-15400000Y-5810000D01*
X-15991300Y-3540900D02*
X-15991300Y-5218700D01*
X-13586500Y-3511500D02*
X-13586500Y-3699300D01*
X-13118800Y-4786700D02*
X-12028400Y-4786700D01*
X-13815300Y-3928100D02*
X-13815300Y-3990100D01*
X-13537500Y-3462500D02*
X-13586500Y-3511500D01*
X-7811300Y8442400D02*
X-8253700Y8000000D01*
X-8170300Y112000D02*
X-9332700Y1274400D01*
X-12028400Y-4786700D02*
X-11751200Y-4509500D01*
X-9878100Y-4509500D02*
X-8170300Y-2801700D01*
X-5850000Y9950000D02*
X-6303700Y9950000D01*
X-9298000Y4007100D02*
X-9298000Y7078000D01*
%TO.N,VIN*%
X-9662500Y4091300D02*
X-9662500Y335200D01*
X5600000Y3750000D02*
X4950000Y3950000D01*
X-8806000Y335200D02*
X-8497300Y26500D01*
X7195700Y-6704300D02*
X7100000Y-6800000D01*
X7195700Y-1470700D02*
X7195700Y-6704300D01*
X6450000Y-725000D02*
X6450000Y2900000D01*
X-10813300Y-2899200D02*
X-11262500Y-2450000D01*
X-9662500Y335200D02*
X-8806000Y335200D01*
X-8497300Y26500D02*
X-8497300Y-2700000D01*
X-14845200Y335200D02*
X-9662500Y335200D01*
X-8696500Y-2899200D02*
X-10813300Y-2899200D01*
X-15600000Y1090000D02*
X-14845200Y335200D01*
X-9776700Y4205500D02*
X-9662500Y4091300D01*
X-8497300Y-2700000D02*
X-8696500Y-2899200D01*
X6450000Y2900000D02*
X5600000Y3750000D01*
X6450000Y-725000D02*
X7195700Y-1470700D01*
X-7750000Y3250000D02*
X-8800000Y2910000D01*
%TO.N,PROG*%
X-14561300Y-386400D02*
X-14176000Y-1100D01*
X-14561300Y-1371300D02*
X-14561300Y-386400D01*
X-15200000Y-2010000D02*
X-14561300Y-1371300D01*
X-14176000Y-1100D02*
X-11811400Y-1100D01*
X-11811400Y-1100D02*
X-11262500Y-550000D01*
%TO.N,ACC_INT1*%
X-7100000Y13350000D02*
X-10950000Y13350000D01*
X-6400000Y12700000D02*
X-7100000Y13350000D01*
X-4950000Y12700000D02*
X-6400000Y12700000D01*
X-10950000Y13350000D02*
X-10950000Y12662500D01*
%TO.N,VDD*%
X-10950000Y10337500D02*
X-11264700Y10337500D01*
X-8824800Y10426600D02*
X-9031100Y10426600D01*
X-12191700Y10928300D02*
X-11855500Y10928300D01*
X-13771900Y8720000D02*
X-14063000Y8428900D01*
X-9031100Y10426600D02*
X-9031100Y9991600D01*
X-6840900Y13800000D02*
X-7315900Y14275000D01*
X-14063000Y7991900D02*
X-12891100Y6820000D01*
X-11264700Y10337500D02*
X-11855500Y10928300D01*
X-13867500Y8815600D02*
X-13867500Y10354600D01*
X-14063000Y8428900D02*
X-14063000Y7991900D01*
X-13867500Y10354600D02*
X-13502100Y10720000D01*
X-11349900Y12000000D02*
X-11112500Y12000000D01*
X-9031100Y9991600D02*
X-9922700Y9100000D01*
X-4950000Y13800000D02*
X-4400000Y14350000D01*
X-9031100Y10743600D02*
X-9031100Y10426600D01*
X-9922700Y9100000D02*
X-10220000Y9100000D01*
X-12600000Y8720000D02*
X-13771900Y8720000D01*
X-12891100Y6820000D02*
X-12800000Y6820000D01*
X-10950000Y10337500D02*
X-10950000Y9830000D01*
X-10950000Y9830000D02*
X-10220000Y9100000D01*
X-13502100Y10720000D02*
X-12400000Y10720000D01*
X-12400000Y10720000D02*
X-12191700Y10928300D01*
X-4950000Y13800000D02*
X-6840900Y13800000D01*
X-9287500Y11000000D02*
X-9031100Y10743600D01*
X-13771900Y8720000D02*
X-13867500Y8815600D01*
X-11855500Y10928300D02*
X-11855500Y11494400D01*
X-11855500Y11494400D02*
X-11349900Y12000000D01*
%TO.N,SCL*%
X-4950000Y10500000D02*
X-7300000Y10500000D01*
X-7300000Y10500000D02*
X-8300000Y11500000D01*
X-8300000Y11500000D02*
X-9287500Y11500000D01*
%TO.N,SDA*%
X-4950000Y11600000D02*
X-6300000Y11600000D01*
X-6300000Y11600000D02*
X-9287500Y12000000D01*
%TO.N,PROG_SW*%
X-12362500Y2850000D02*
X-12307500Y2905000D01*
X-12307500Y2905000D02*
X-11436200Y2905000D01*
X-11436200Y2905000D02*
X-11235100Y2905000D01*
X-15200000Y-990000D02*
X-16136400Y-53600D01*
X-16136400Y-53600D02*
X-16136400Y2980600D01*
X-12307500Y2905000D02*
X-11235100Y2905000D01*
%TO.N,VIN_RAW*%
X12150900Y-4547200D02*
X12150900Y-4547300D01*
X12150900Y-4547300D02*
X11898200Y-4800000D01*
X9300000Y-4800000D02*
X9300000Y-6800000D01*
X13196500Y-4827400D02*
X12150900Y-4547200D01*
X11898200Y-4800000D02*
X9300000Y-4800000D01*
%TO.N,Q1_GATE*%
X-14127500Y2110000D02*
X-14037500Y2200000D01*
X-14037500Y2200000D02*
X-14037500Y1550000D01*
X-15600000Y2110000D02*
X-14127500Y2110000D01*
%TO.N,CHG_INH*%
X-12362500Y2200000D02*
X-10810000Y2200000D01*
X-10300000Y1690000D02*
X-10300000Y1003300D01*
X-4950000Y8300000D02*
X-3741300Y8300000D01*
X-3741300Y8300000D02*
X-3222600Y7781300D01*
X-10810000Y2200000D02*
X-10300000Y1690000D01*
X-10300000Y1003300D02*
X-10194700Y898000D01*
%TO.N,PCM_BAT*%
X-14601800Y-8300300D02*
X-14601800Y-7421800D01*
X-13975000Y-8650000D02*
X-14252100Y-8650000D01*
X-14234700Y-5405200D02*
X-13872100Y-5767800D01*
X-13872100Y-6692100D02*
X-14080000Y-6900000D01*
X-15400000Y-4790000D02*
X-14784800Y-5405200D01*
X-13872100Y-5767800D02*
X-13872100Y-6692100D01*
X-14252100Y-8650000D02*
X-14601800Y-8300300D01*
X-14601800Y-7421800D02*
X-14080000Y-6900000D01*
X-14784800Y-5405200D02*
X-14234700Y-5405200D01*
%TO.N,BAT_N*%
X-13120000Y-7295000D02*
X-13975000Y-8150000D01*
X-12844100Y-6900000D02*
X-12174300Y-6230200D01*
X-9137400Y-9775000D02*
X-8421400Y-9059000D01*
X-8270000Y-13200000D02*
X-8557500Y-11560200D01*
X-8557500Y-10355000D02*
X-8557500Y-11560200D01*
X-13120000Y-6900000D02*
X-12844100Y-6900000D01*
X-9762500Y-9150000D02*
X-9137400Y-9775000D01*
X-13120000Y-6900000D02*
X-13120000Y-7295000D01*
X-9137400Y-9775000D02*
X-8557500Y-10355000D01*
%TO.N,LED_IO*%
X-3850000Y6100000D02*
X-4090000Y4440000D01*
%TO.N,LED_A*%
X-14605700Y-4786700D02*
X-13697300Y-4786700D01*
X-7447200Y590200D02*
X-5110000Y2927400D01*
X-11224100Y-5065400D02*
X-10039800Y-5065400D01*
X-16425700Y2560700D02*
X-16425700Y-2429500D01*
X-11497000Y-4788200D02*
X-11387300Y-4788200D01*
X-5110000Y2927400D02*
X-5110000Y4440000D01*
X-10039800Y-5065400D02*
X-7693500Y-2719100D01*
X-11387300Y-4788200D02*
X-11387300Y-4902200D01*
X-13534100Y-5065400D02*
X-11774200Y-5065400D01*
X-16425700Y-2429500D02*
X-14829600Y-4025600D01*
X-7693500Y-2488100D02*
X-7693500Y-2324900D01*
X-7447200Y-2078600D02*
X-7447200Y590200D01*
X-14829600Y-4025600D02*
X-14829600Y-4562800D01*
X-13697300Y-4786700D02*
X-13697300Y-4902200D01*
X-7693500Y-2324900D02*
X-7447200Y-2078600D01*
X-14829600Y-4562800D02*
X-14605700Y-4786700D01*
X-13697300Y-4902200D02*
X-13534100Y-5065400D01*
X-7693500Y-2719100D02*
X-7693500Y-2488100D01*
X-16950000Y3085000D02*
X-16425700Y2560700D01*
X-11387300Y-4902200D02*
X-11224100Y-5065400D01*
X-11774200Y-5065400D02*
X-11497000Y-4788200D01*
%TO.N,VBUS_SNS*%
X-8800000Y1890000D02*
X-8230000Y1320000D01*
X-5850000Y8396300D02*
X-6076900Y8396300D01*
X-6076900Y8396300D02*
X-6303700Y8169500D01*
X-8230000Y1320000D02*
X-7800000Y1320000D01*
X-5850000Y8850000D02*
X-5850000Y8396300D01*
X-6303700Y2187900D02*
X-7171600Y1320000D01*
X-6303700Y8169500D02*
X-6303700Y2187900D01*
X-7171600Y1320000D02*
X-7800000Y1320000D01*
%TO.N,BAT_P*%
X-7485400Y-5689000D02*
X-6704800Y-5689000D01*
X-8403400Y-4771000D02*
X-7485400Y-5689000D01*
X-7270000Y-7550000D02*
X-6381600Y-6012200D01*
X-6704800Y-5689000D02*
X-6381600Y-6012200D01*
%TO.N,PCM_COUT*%
X-12825000Y-8650000D02*
X-11437500Y-8500000D01*
%TO.N,PCM_DOUT*%
X-12100000Y-7000000D02*
X-11600000Y-6300000D01*
X-9000000Y-6300000D02*
X-9000000Y-8199999D01*
X-9000000Y-8199999D02*
X-9762500Y-8500000D01*
X-12825000Y-8150000D02*
X-12700000Y-7600000D01*
X-11600000Y-6300000D02*
X-9000000Y-6300000D01*
X-12700000Y-7600000D02*
X-12100000Y-7000000D01*
%TO.N,PCM_VM*%
X-15200000Y-8251800D02*
X-14301800Y-9150000D01*
X-15200000Y-7910000D02*
X-15200000Y-8251800D01*
X-14301800Y-9150000D02*
X-13975000Y-9150000D01*
%TO.N,CHG_STAT*%
X-2750000Y6100000D02*
X-2750000Y5350000D01*
X-9796500Y-236500D02*
X-9036500Y-236500D01*
X-9036500Y-236500D02*
X-9000000Y-200000D01*
X-9677700Y-236500D02*
X-9796500Y-236500D01*
X-9677700Y-236500D02*
X-9036500Y-236500D01*
%TO.N,SWDCLK*%
X2750000Y6100000D02*
X2500000Y5350000D01*
%TO.N,SWDIO*%
X3300000Y7000000D02*
X3350000Y5450000D01*
%TO.N,PCM_D*%
D35*
X-11437500Y-9150000D02*
X-10600000Y-9150000D01*
X-10600000Y-9150000D02*
X-10600000Y-7850000D01*
X-10600000Y-7850000D02*
X-9762500Y-7850000D01*
%TD*%
%TA.AperFunction,Conductor*%
%TO.N,GND*%
G36*
X17148072Y4281093D02*
G01*
X17184036Y4231593D01*
X17186472Y4222703D01*
X17357674Y3460312D01*
X17358785Y3455365D01*
X17359732Y3450599D01*
X17507423Y2599444D01*
X17508136Y2594638D01*
X17613881Y1737272D01*
X17614358Y1732436D01*
X17677910Y870884D01*
X17678148Y866031D01*
X17699349Y2430D01*
X17699349Y-2430D01*
X17678148Y-866031D01*
X17677910Y-870884D01*
X17614358Y-1732436D01*
X17613881Y-1737272D01*
X17508136Y-2594638D01*
X17507423Y-2599444D01*
X17359732Y-3450599D01*
X17358784Y-3455365D01*
X17169511Y-4298231D01*
X17168331Y-4302944D01*
X16937927Y-5135521D01*
X16936516Y-5140171D01*
X16665536Y-5960439D01*
X16663899Y-5965015D01*
X16353001Y-6770988D01*
X16351142Y-6775477D01*
X16001057Y-7565256D01*
X15998979Y-7569649D01*
X15610579Y-8341267D01*
X15608289Y-8345552D01*
X15182487Y-9097196D01*
X15179989Y-9101364D01*
X14717821Y-9831210D01*
X14715121Y-9835250D01*
X14217699Y-10541535D01*
X14214804Y-10545438D01*
X13683334Y-11226455D01*
X13680252Y-11230211D01*
X13115978Y-11884362D01*
X13112714Y-11887963D01*
X12517047Y-12513611D01*
X12513612Y-12517046D01*
X11887953Y-13112723D01*
X11884351Y-13115987D01*
X11778055Y-13207677D01*
X11721643Y-13231369D01*
X11662079Y-13217377D01*
X11622115Y-13171046D01*
X11615240Y-13145639D01*
X11589036Y-12946598D01*
X11369255Y-12416000D01*
X11019634Y-11960365D01*
X11019629Y-11960361D01*
X11019628Y-11960360D01*
X10564001Y-11610744D01*
X10564000Y-11610743D01*
X10068045Y-11405313D01*
X10033401Y-11390963D01*
X10033399Y-11390962D01*
X10033397Y-11390962D01*
X9464001Y-11316000D01*
X9463999Y-11316000D01*
X8894601Y-11390962D01*
X8894595Y-11390964D01*
X8364001Y-11610743D01*
X7908370Y-11960360D01*
X7908360Y-11960370D01*
X7558743Y-12416001D01*
X7338964Y-12946595D01*
X7338962Y-12946601D01*
X7264000Y-13515999D01*
X7264000Y-13516000D01*
X7331727Y-14030444D01*
X7338963Y-14085401D01*
X7371150Y-14163107D01*
X7558743Y-14616000D01*
X7558744Y-14616001D01*
X7908360Y-15071628D01*
X7908365Y-15071634D01*
X7908369Y-15071637D01*
X7908370Y-15071638D01*
X8364000Y-15421256D01*
X8368467Y-15423835D01*
X8409406Y-15469306D01*
X8415799Y-15530156D01*
X8385204Y-15583143D01*
X8367759Y-15595708D01*
X8345543Y-15608293D01*
X8341259Y-15610583D01*
X7569649Y-15998979D01*
X7565256Y-16001057D01*
X6989119Y-16256441D01*
X6928258Y-16262737D01*
X6875320Y-16232057D01*
X6850526Y-16176121D01*
X6850000Y-16165934D01*
X6850000Y-11749962D01*
X6849894Y-11741433D01*
X6849894Y-11741410D01*
X6842065Y-11422470D01*
X6841222Y-11405312D01*
X6817752Y-11087140D01*
X6816068Y-11070044D01*
X6777015Y-10753408D01*
X6774494Y-10736415D01*
X6741358Y-10545449D01*
X6719954Y-10422091D01*
X6716597Y-10405212D01*
X6677108Y-10229362D01*
X6646698Y-10093943D01*
X6642524Y-10077279D01*
X6578250Y-9845023D01*
X6557439Y-9769821D01*
X6557433Y-9769800D01*
X6552447Y-9753360D01*
X6464291Y-9486510D01*
X6452383Y-9450463D01*
X6452381Y-9450459D01*
X6452371Y-9450427D01*
X6446583Y-9434252D01*
X6446577Y-9434237D01*
X6446569Y-9434214D01*
X6331772Y-9136615D01*
X6331764Y-9136594D01*
X6325190Y-9120723D01*
X6195903Y-8829057D01*
X6195893Y-8829034D01*
X6188565Y-8813540D01*
X6094590Y-8626845D01*
X6045116Y-8528557D01*
X6037018Y-8513406D01*
X5879766Y-8235817D01*
X5870934Y-8221082D01*
X5700251Y-7951544D01*
X5690707Y-7937260D01*
X5636123Y-7859756D01*
X5568059Y-7763112D01*
X5550000Y-7706107D01*
X5550000Y-2665226D01*
X5568907Y-2607035D01*
X5618407Y-2571071D01*
X5679593Y-2571071D01*
X5729093Y-2607035D01*
X5741758Y-2630630D01*
X5778813Y-2729982D01*
X5860668Y-2839327D01*
X5860672Y-2839331D01*
X5970016Y-2921185D01*
X6097990Y-2968916D01*
X6097998Y-2968918D01*
X6154566Y-2974999D01*
X6300000Y-2974999D01*
X6300000Y-2374000D01*
X6318907Y-2315809D01*
X6368407Y-2279845D01*
X6399000Y-2275000D01*
X6501000Y-2275000D01*
X6559191Y-2293907D01*
X6595155Y-2343407D01*
X6600000Y-2374000D01*
X6600000Y-2974998D01*
X6600001Y-2974999D01*
X6745429Y-2974999D01*
X6760616Y-2973366D01*
X6820495Y-2985944D01*
X6861544Y-3031316D01*
X6870200Y-3071799D01*
X6870200Y-6246464D01*
X6851293Y-6304655D01*
X6814681Y-6335404D01*
X6753792Y-6365171D01*
X6753790Y-6365172D01*
X6665172Y-6453790D01*
X6610133Y-6566373D01*
X6610133Y-6566375D01*
X6599499Y-6639364D01*
X6599499Y-6960636D01*
X6601433Y-6973908D01*
X6610133Y-7033626D01*
X6629173Y-7072572D01*
X6665173Y-7146211D01*
X6753788Y-7234826D01*
X6866374Y-7289866D01*
X6939363Y-7300500D01*
X6939366Y-7300500D01*
X7260631Y-7300500D01*
X7260635Y-7300500D01*
X7333624Y-7289866D01*
X7446210Y-7234826D01*
X7534825Y-7146211D01*
X7589865Y-7033625D01*
X7600499Y-6960636D01*
X7600499Y-6639364D01*
X7589865Y-6566375D01*
X7534825Y-6453789D01*
X7534824Y-6453788D01*
X7531259Y-6446495D01*
X7521200Y-6403014D01*
X7521200Y-4452129D01*
X8499500Y-4452129D01*
X8499500Y-5147866D01*
X8499501Y-5147870D01*
X8505908Y-5207480D01*
X8505909Y-5207485D01*
X8556202Y-5342329D01*
X8620733Y-5428531D01*
X8642454Y-5457546D01*
X8642457Y-5457548D01*
X8642458Y-5457549D01*
X8757670Y-5543797D01*
X8822397Y-5567938D01*
X8892517Y-5594091D01*
X8892518Y-5594091D01*
X8898267Y-5595450D01*
X8950550Y-5627232D01*
X8974166Y-5683676D01*
X8974500Y-5691796D01*
X8974500Y-6303455D01*
X8955593Y-6361646D01*
X8945509Y-6373452D01*
X8901363Y-6417599D01*
X8865172Y-6453790D01*
X8810133Y-6566373D01*
X8810133Y-6566375D01*
X8799499Y-6639364D01*
X8799499Y-6960636D01*
X8801433Y-6973908D01*
X8810133Y-7033626D01*
X8829173Y-7072572D01*
X8865173Y-7146211D01*
X8953788Y-7234826D01*
X9066374Y-7289866D01*
X9139363Y-7300500D01*
X9139366Y-7300500D01*
X9460631Y-7300500D01*
X9460635Y-7300500D01*
X9533624Y-7289866D01*
X9646210Y-7234826D01*
X9734825Y-7146211D01*
X9789865Y-7033625D01*
X9800499Y-6960636D01*
X9800499Y-6639364D01*
X9789865Y-6566375D01*
X9734825Y-6453789D01*
X9654494Y-6373458D01*
X9626719Y-6318944D01*
X9625500Y-6303457D01*
X9625500Y-5691796D01*
X9644407Y-5633605D01*
X9693907Y-5597641D01*
X9701733Y-5595450D01*
X9707479Y-5594091D01*
X9707483Y-5594091D01*
X9808071Y-5556574D01*
X9842329Y-5543797D01*
X9842329Y-5543796D01*
X9842331Y-5543796D01*
X9957546Y-5457546D01*
X10043796Y-5342331D01*
X10049938Y-5325865D01*
X10066365Y-5281820D01*
X10094091Y-5207483D01*
X10094091Y-5207477D01*
X10095452Y-5201725D01*
X10127239Y-5149445D01*
X10183685Y-5125833D01*
X10191797Y-5125500D01*
X11941051Y-5125500D01*
X11941053Y-5125500D01*
X12023839Y-5103318D01*
X12023850Y-5103311D01*
X12025580Y-5102596D01*
X12026928Y-5102489D01*
X12030107Y-5101638D01*
X12030264Y-5102226D01*
X12086576Y-5097790D01*
X12138748Y-5129755D01*
X12162167Y-5186281D01*
X12159100Y-5219677D01*
X12152042Y-5246019D01*
X12152040Y-5246029D01*
X12147168Y-5320360D01*
X12147169Y-5320365D01*
X12179201Y-5414731D01*
X12216753Y-5457549D01*
X12244910Y-5489655D01*
X12311724Y-5522605D01*
X13615094Y-5871842D01*
X13652263Y-5874278D01*
X13689429Y-5876714D01*
X13689429Y-5876713D01*
X13689433Y-5876714D01*
X13783800Y-5844681D01*
X13858724Y-5778973D01*
X13891674Y-5712159D01*
X14240911Y-4408789D01*
X14244628Y-4352074D01*
X14245783Y-4334453D01*
X14245782Y-4334452D01*
X14245783Y-4334450D01*
X14218786Y-4254919D01*
X14213750Y-4240082D01*
X14148044Y-4165161D01*
X14148043Y-4165160D01*
X14148042Y-4165159D01*
X14081228Y-4132209D01*
X14081225Y-4132208D01*
X13528440Y-3984090D01*
X12777858Y-3782972D01*
X12777856Y-3782971D01*
X12777853Y-3782971D01*
X12703522Y-3778099D01*
X12703517Y-3778100D01*
X12609151Y-3810132D01*
X12534230Y-3875838D01*
X12534229Y-3875839D01*
X12534228Y-3875840D01*
X12534228Y-3875841D01*
X12501278Y-3942655D01*
X12488375Y-3990808D01*
X12436538Y-4184264D01*
X12403213Y-4235578D01*
X12346092Y-4257504D01*
X12315285Y-4254266D01*
X12281369Y-4245177D01*
X12281369Y-4245176D01*
X12281367Y-4245176D01*
X12236211Y-4233076D01*
X12236210Y-4233075D01*
X12224835Y-4230027D01*
X12193761Y-4221700D01*
X12193756Y-4221700D01*
X12193753Y-4221700D01*
X12150910Y-4221700D01*
X12108057Y-4221699D01*
X12108056Y-4221699D01*
X12108050Y-4221699D01*
X12071782Y-4231417D01*
X12071779Y-4231418D01*
X12025275Y-4243876D01*
X12024500Y-4244208D01*
X12022183Y-4245659D01*
X11951052Y-4286724D01*
X11951046Y-4286729D01*
X11951042Y-4286732D01*
X11951038Y-4286735D01*
X11910642Y-4327130D01*
X11910641Y-4327131D01*
X11890458Y-4347312D01*
X11890459Y-4347313D01*
X11889393Y-4348378D01*
X11887648Y-4350223D01*
X11792369Y-4445503D01*
X11737853Y-4473281D01*
X11722365Y-4474500D01*
X10191796Y-4474500D01*
X10133605Y-4455593D01*
X10097641Y-4406093D01*
X10095450Y-4398267D01*
X10094091Y-4392518D01*
X10094088Y-4392511D01*
X10069703Y-4327130D01*
X10043797Y-4257670D01*
X9957549Y-4142458D01*
X9957548Y-4142457D01*
X9957546Y-4142454D01*
X9957541Y-4142450D01*
X9842329Y-4056202D01*
X9707488Y-4005910D01*
X9707483Y-4005909D01*
X9707481Y-4005908D01*
X9707477Y-4005908D01*
X9676249Y-4002550D01*
X9647873Y-3999500D01*
X9647870Y-3999500D01*
X8952133Y-3999500D01*
X8952129Y-3999500D01*
X8952128Y-3999501D01*
X8944949Y-4000272D01*
X8892519Y-4005908D01*
X8892514Y-4005909D01*
X8757670Y-4056202D01*
X8642458Y-4142450D01*
X8642450Y-4142458D01*
X8556202Y-4257670D01*
X8505910Y-4392511D01*
X8505908Y-4392522D01*
X8499500Y-4452129D01*
X7521200Y-4452129D01*
X7521200Y-2347824D01*
X8499999Y-2347824D01*
X8506401Y-2407370D01*
X8506403Y-2407381D01*
X8556646Y-2542088D01*
X8556647Y-2542090D01*
X8642807Y-2657184D01*
X8642815Y-2657192D01*
X8757909Y-2743352D01*
X8757911Y-2743353D01*
X8892618Y-2793596D01*
X8892629Y-2793598D01*
X8952176Y-2800000D01*
X9149999Y-2800000D01*
X9150000Y-2799999D01*
X9150000Y-2150001D01*
X9450000Y-2150001D01*
X9450000Y-2799999D01*
X9450001Y-2800000D01*
X9647824Y-2800000D01*
X9707370Y-2793598D01*
X9707381Y-2793596D01*
X9842088Y-2743353D01*
X9842090Y-2743352D01*
X9957184Y-2657192D01*
X9957192Y-2657184D01*
X10043352Y-2542090D01*
X10043353Y-2542088D01*
X10093596Y-2407381D01*
X10093598Y-2407370D01*
X10100000Y-2347824D01*
X10100000Y-2323948D01*
X12943524Y-2323948D01*
X12943524Y-2501237D01*
X12978110Y-2675112D01*
X12978110Y-2675114D01*
X12999476Y-2726697D01*
X12999477Y-2726698D01*
X13422286Y-2482588D01*
X13447487Y-2576637D01*
X13503440Y-2673549D01*
X13572287Y-2742396D01*
X13146412Y-2988275D01*
X13269805Y-3111667D01*
X13417215Y-3210163D01*
X13581003Y-3278006D01*
X13754879Y-3312592D01*
X13754883Y-3312593D01*
X13932165Y-3312593D01*
X13932168Y-3312592D01*
X14106041Y-3278007D01*
X14106052Y-3278004D01*
X14157628Y-3256639D01*
X13913519Y-2833830D01*
X14007568Y-2808630D01*
X14104480Y-2752677D01*
X14173327Y-2683829D01*
X14419206Y-3109702D01*
X14542594Y-2986315D01*
X14542601Y-2986306D01*
X14641094Y-2838901D01*
X14708937Y-2675114D01*
X14708937Y-2675112D01*
X14743523Y-2501237D01*
X14743524Y-2501234D01*
X14743524Y-2323951D01*
X14743523Y-2323948D01*
X14708938Y-2150075D01*
X14708936Y-2150069D01*
X14687569Y-2098486D01*
X14264760Y-2342595D01*
X14239561Y-2248549D01*
X14183608Y-2151637D01*
X14114758Y-2082787D01*
X14540634Y-1836909D01*
X14417242Y-1713518D01*
X14269832Y-1615022D01*
X14106044Y-1547179D01*
X13932168Y-1512593D01*
X13754879Y-1512593D01*
X13581002Y-1547179D01*
X13580995Y-1547181D01*
X13529418Y-1568545D01*
X13529417Y-1568546D01*
X13773527Y-1991356D01*
X13679480Y-2016556D01*
X13582568Y-2072509D01*
X13513719Y-2141357D01*
X13267841Y-1715482D01*
X13144447Y-1838876D01*
X13045952Y-1986285D01*
X12978110Y-2150071D01*
X12978110Y-2150073D01*
X12943524Y-2323948D01*
X10100000Y-2323948D01*
X10100000Y-2150001D01*
X10099999Y-2150000D01*
X9450001Y-2150000D01*
X9450000Y-2150001D01*
X9150000Y-2150001D01*
X9149999Y-2150000D01*
X8500001Y-2150000D01*
X8500000Y-2150001D01*
X8500000Y-2347824D01*
X8499999Y-2347824D01*
X7521200Y-2347824D01*
X7521200Y-1652175D01*
X8500000Y-1652175D01*
X8500000Y-1849999D01*
X8500001Y-1850000D01*
X9149999Y-1850000D01*
X9150000Y-1849999D01*
X9150000Y-1200001D01*
X9450000Y-1200001D01*
X9450000Y-1849999D01*
X9450001Y-1850000D01*
X10099999Y-1850000D01*
X10100000Y-1849999D01*
X10100000Y-1652175D01*
X10093597Y-1592626D01*
X10093596Y-1592618D01*
X10043353Y-1457911D01*
X10043352Y-1457909D01*
X9957192Y-1342815D01*
X9957184Y-1342807D01*
X9842090Y-1256647D01*
X9842088Y-1256646D01*
X9707381Y-1206403D01*
X9707370Y-1206401D01*
X9647824Y-1200000D01*
X9450001Y-1200000D01*
X9450000Y-1200001D01*
X9150000Y-1200001D01*
X9149999Y-1200000D01*
X8952176Y-1200000D01*
X8892629Y-1206401D01*
X8892618Y-1206403D01*
X8757911Y-1256646D01*
X8757909Y-1256647D01*
X8642815Y-1342807D01*
X8642807Y-1342815D01*
X8556647Y-1457909D01*
X8556646Y-1457911D01*
X8506403Y-1592618D01*
X8506401Y-1592629D01*
X8500000Y-1652175D01*
X7521200Y-1652175D01*
X7521200Y-1427847D01*
X7515750Y-1407508D01*
X7506136Y-1371628D01*
X7499018Y-1345061D01*
X7456165Y-1270838D01*
X7340920Y-1155593D01*
X7204495Y-1019167D01*
X7176718Y-964651D01*
X7175499Y-949164D01*
X7175499Y-454521D01*
X7175499Y-454516D01*
X7169412Y-397886D01*
X7121628Y-269774D01*
X7039687Y-160313D01*
X6930226Y-78372D01*
X6839900Y-44681D01*
X6791989Y-6633D01*
X6775500Y48074D01*
X6775500Y1200000D01*
X7000000Y1200000D01*
X7000000Y1199999D01*
X7074962Y630601D01*
X7074964Y630595D01*
X7294743Y99999D01*
X7294744Y99998D01*
X7635090Y-343547D01*
X7644365Y-355634D01*
X7644369Y-355637D01*
X7644370Y-355638D01*
X8099997Y-705254D01*
X8099998Y-705255D01*
X8253669Y-768907D01*
X8630598Y-925036D01*
X8931505Y-964651D01*
X9199999Y-999999D01*
X9200000Y-999999D01*
X9200001Y-999999D01*
X9313880Y-985006D01*
X9769401Y-925036D01*
X10299999Y-705255D01*
X10755634Y-355634D01*
X11105255Y99999D01*
X11325036Y630598D01*
X11390912Y1130980D01*
X11399999Y1199999D01*
X11399999Y1200000D01*
X11381544Y1340182D01*
X11325036Y1769401D01*
X11105255Y2300000D01*
X10755634Y2755634D01*
X10299999Y3105255D01*
X9769401Y3325036D01*
X9283584Y3388995D01*
X9200001Y3399999D01*
X9199999Y3399999D01*
X9057649Y3381258D01*
X8630598Y3325036D01*
X8100000Y3105255D01*
X7820529Y2890809D01*
X7648146Y2758535D01*
X7644365Y2755634D01*
X7644361Y2755629D01*
X7644360Y2755628D01*
X7294744Y2300001D01*
X7294743Y2300000D01*
X7125732Y1891968D01*
X7077076Y1774501D01*
X7074964Y1769403D01*
X7074962Y1769397D01*
X7000000Y1200000D01*
X6775500Y1200000D01*
X6775500Y2851067D01*
X6775501Y2851085D01*
X6775501Y2942852D01*
X6775500Y2942854D01*
X6773853Y2949000D01*
X6753318Y3025638D01*
X6752376Y3027268D01*
X6748880Y3033326D01*
X6732761Y3061244D01*
X6710465Y3099862D01*
X6649862Y3160465D01*
X6649859Y3160466D01*
X5835629Y3974696D01*
X5833161Y3977257D01*
X5809284Y4002956D01*
X5809276Y4002960D01*
X5804638Y4006799D01*
X5799866Y4010460D01*
X5799862Y4010465D01*
X5769459Y4028017D01*
X5766387Y4029867D01*
X5736683Y4048503D01*
X5736679Y4048503D01*
X5731198Y4051014D01*
X5725645Y4053314D01*
X5725639Y4053318D01*
X5691674Y4062418D01*
X5688324Y4063382D01*
X5548585Y4106378D01*
X5498529Y4141563D01*
X5478713Y4199450D01*
X5496707Y4257930D01*
X5545638Y4294664D01*
X5577701Y4300000D01*
X17089881Y4300000D01*
X17148072Y4281093D01*
G37*
%TD.AperFunction*%
%TA.AperFunction,Conductor*%
G36*
X-9366309Y-6644407D02*
G01*
X-9330345Y-6693907D01*
X-9325500Y-6724500D01*
X-9325500Y-7325500D01*
X-9344407Y-7383691D01*
X-9393907Y-7419655D01*
X-9424500Y-7424500D01*
X-10227097Y-7424500D01*
X-10227109Y-7424501D01*
X-10276329Y-7430980D01*
X-10384358Y-7481355D01*
X-10384703Y-7481597D01*
X-10385237Y-7481765D01*
X-10392208Y-7485016D01*
X-10392635Y-7484098D01*
X-10441486Y-7499500D01*
X-10553856Y-7499500D01*
X-10646144Y-7499500D01*
X-10735288Y-7523386D01*
X-10735289Y-7523386D01*
X-10735290Y-7523387D01*
X-10811649Y-7567474D01*
X-10815212Y-7569531D01*
X-10880469Y-7634788D01*
X-10926614Y-7714712D01*
X-10946369Y-7788439D01*
X-10950500Y-7803857D01*
X-10950500Y-7975500D01*
X-10969407Y-8033691D01*
X-11018907Y-8069655D01*
X-11049500Y-8074500D01*
X-11902097Y-8074500D01*
X-11902109Y-8074501D01*
X-11951327Y-8080980D01*
X-11951328Y-8080980D01*
X-11951330Y-8080981D01*
X-11998145Y-8102811D01*
X-12058661Y-8131030D01*
X-12119390Y-8138486D01*
X-12172904Y-8108823D01*
X-12198762Y-8053370D01*
X-12199232Y-8045677D01*
X-12199288Y-8045681D01*
X-12199499Y-8042447D01*
X-12205645Y-7995767D01*
X-12205645Y-7995766D01*
X-12253410Y-7893335D01*
X-12253412Y-7893332D01*
X-12323205Y-7823539D01*
X-12350982Y-7769022D01*
X-12341410Y-7708590D01*
X-12323205Y-7683532D01*
X-11884345Y-7244672D01*
X-11877263Y-7238244D01*
X-11860037Y-7224063D01*
X-11855553Y-7217785D01*
X-11845001Y-7205329D01*
X-11839537Y-7199864D01*
X-11839533Y-7199860D01*
X-11828371Y-7180526D01*
X-11823195Y-7172484D01*
X-11462104Y-6666957D01*
X-11412895Y-6630595D01*
X-11381544Y-6625500D01*
X-9424500Y-6625500D01*
X-9366309Y-6644407D01*
G37*
%TD.AperFunction*%
%TA.AperFunction,Conductor*%
G36*
X-16840809Y2096093D02*
G01*
X-16804845Y2046593D01*
X-16800000Y2016000D01*
X-16800000Y1570001D01*
X-16780196Y1550197D01*
X-16752419Y1495680D01*
X-16751200Y1480193D01*
X-16751200Y-2386647D01*
X-16751200Y-2472353D01*
X-16729018Y-2555139D01*
X-16729016Y-2555141D01*
X-16729016Y-2555143D01*
X-16706213Y-2594638D01*
X-16686165Y-2629362D01*
X-16445662Y-2869864D01*
X-16324552Y-2990974D01*
X-16296774Y-3045491D01*
X-16306345Y-3105923D01*
X-16324548Y-3130978D01*
X-16411805Y-3218235D01*
X-16480988Y-3338064D01*
X-16516800Y-3471717D01*
X-16516800Y-3610083D01*
X-16480988Y-3743736D01*
X-16411805Y-3863565D01*
X-16345794Y-3929575D01*
X-16318019Y-3984090D01*
X-16316800Y-3999577D01*
X-16316800Y-5175847D01*
X-16316800Y-5261553D01*
X-16294618Y-5344339D01*
X-16294616Y-5344341D01*
X-16294616Y-5344343D01*
X-16270748Y-5385683D01*
X-16251765Y-5418562D01*
X-15999494Y-5670832D01*
X-15971719Y-5725347D01*
X-15970500Y-5740834D01*
X-15970500Y-5981582D01*
X-15959582Y-6056518D01*
X-15903076Y-6172102D01*
X-15812102Y-6263076D01*
X-15696518Y-6319582D01*
X-15696516Y-6319582D01*
X-15689611Y-6322958D01*
X-15690472Y-6324720D01*
X-15648726Y-6354132D01*
X-15628973Y-6412041D01*
X-15647031Y-6470501D01*
X-15657959Y-6483487D01*
X-15702664Y-6528192D01*
X-15759096Y-6643625D01*
X-15770000Y-6718462D01*
X-15770000Y-6739999D01*
X-15769999Y-6740000D01*
X-15299000Y-6740000D01*
X-15240809Y-6758907D01*
X-15204845Y-6808407D01*
X-15200000Y-6839000D01*
X-15200000Y-6941000D01*
X-15218907Y-6999191D01*
X-15268407Y-7035155D01*
X-15299000Y-7040000D01*
X-15769998Y-7040000D01*
X-15769999Y-7040001D01*
X-15769999Y-7061535D01*
X-15769998Y-7061538D01*
X-15759096Y-7136375D01*
X-15702664Y-7251808D01*
X-15624829Y-7329643D01*
X-15597051Y-7384159D01*
X-15606622Y-7444592D01*
X-15624825Y-7469647D01*
X-15703076Y-7547898D01*
X-15713651Y-7569531D01*
X-15759582Y-7663483D01*
X-15760136Y-7665276D01*
X-15761188Y-7666770D01*
X-15762958Y-7670389D01*
X-15763538Y-7670105D01*
X-15795380Y-7715291D01*
X-15853291Y-7735038D01*
X-15911749Y-7716974D01*
X-15943152Y-7680560D01*
X-15998976Y-7569657D01*
X-16001054Y-7565264D01*
X-16351142Y-6775477D01*
X-16353001Y-6770988D01*
X-16663899Y-5965015D01*
X-16665536Y-5960439D01*
X-16936516Y-5140171D01*
X-16937927Y-5135521D01*
X-17168331Y-4302944D01*
X-17169511Y-4298231D01*
X-17358784Y-3455365D01*
X-17359732Y-3450599D01*
X-17507423Y-2599444D01*
X-17508136Y-2594638D01*
X-17613881Y-1737272D01*
X-17614358Y-1732436D01*
X-17677910Y-870884D01*
X-17678148Y-866031D01*
X-17699349Y-2430D01*
X-17699349Y2430D01*
X-17678148Y866031D01*
X-17677910Y870884D01*
X-17618939Y1670333D01*
X-17595802Y1726975D01*
X-17543790Y1759200D01*
X-17482771Y1754699D01*
X-17450203Y1733054D01*
X-17359054Y1641905D01*
X-17246865Y1584743D01*
X-17153787Y1570000D01*
X-17100001Y1570000D01*
X-17100000Y1570001D01*
X-17100000Y2016000D01*
X-17081093Y2074191D01*
X-17031593Y2110155D01*
X-17001000Y2115000D01*
X-16899000Y2115000D01*
X-16840809Y2096093D01*
G37*
%TD.AperFunction*%
%TA.AperFunction,Conductor*%
G36*
X-5129495Y2350835D02*
G01*
X-5086230Y2307570D01*
X-5076659Y2247138D01*
X-5083932Y2222509D01*
X-5124146Y2131788D01*
X-5130721Y2115917D01*
X-5151680Y2061582D01*
X-5207975Y1915641D01*
X-5222576Y1877790D01*
X-5228364Y1861615D01*
X-5308424Y1619268D01*
X-5313411Y1602829D01*
X-5381484Y1356846D01*
X-5385658Y1340182D01*
X-5441579Y1091155D01*
X-5444930Y1074306D01*
X-5469945Y930143D01*
X-5488565Y822838D01*
X-5491086Y805836D01*
X-5493101Y789500D01*
X-5522328Y552532D01*
X-5524012Y535436D01*
X-5542788Y280899D01*
X-5543630Y263741D01*
X-5549894Y8589D01*
X-5549894Y8565D01*
X-5550000Y37D01*
X-5550000Y-6639241D01*
X-5568907Y-6697432D01*
X-5618407Y-6733396D01*
X-5679593Y-6733396D01*
X-5698524Y-6724964D01*
X-6151832Y-6463080D01*
X-6192760Y-6417599D01*
X-6199139Y-6356747D01*
X-6188031Y-6327834D01*
X-6124428Y-6217740D01*
X-6124313Y-6217567D01*
X-6099163Y-6174007D01*
X-6099157Y-6174009D01*
X-6099151Y-6173986D01*
X-6078316Y-6137920D01*
X-6078315Y-6137919D01*
X-6078293Y-6137880D01*
X-6078292Y-6137877D01*
X-6067338Y-6096998D01*
X-6067335Y-6096998D01*
X-6067332Y-6096975D01*
X-6056100Y-6055100D01*
X-6056100Y-6014150D01*
X-6056087Y-5969431D01*
X-6056097Y-5969356D01*
X-6067478Y-5926882D01*
X-6067485Y-5926856D01*
X-6078254Y-5886619D01*
X-6078271Y-5886577D01*
X-6099810Y-5849272D01*
X-6099823Y-5849251D01*
X-6121102Y-5812371D01*
X-6135866Y-5797607D01*
X-6150597Y-5782875D01*
X-6154497Y-5778973D01*
X-6185675Y-5747779D01*
X-6185830Y-5747641D01*
X-6504937Y-5428535D01*
X-6504942Y-5428531D01*
X-6579157Y-5385683D01*
X-6579155Y-5385683D01*
X-6623150Y-5373895D01*
X-6661947Y-5363500D01*
X-6661949Y-5363500D01*
X-7309565Y-5363500D01*
X-7367756Y-5344593D01*
X-7379569Y-5334504D01*
X-7848904Y-4865169D01*
X-7876681Y-4810652D01*
X-7877900Y-4795165D01*
X-7877900Y-4701818D01*
X-7913712Y-4568164D01*
X-7982895Y-4448335D01*
X-8080735Y-4350495D01*
X-8200564Y-4281312D01*
X-8205860Y-4279893D01*
X-8334217Y-4245500D01*
X-8472583Y-4245500D01*
X-8491486Y-4250565D01*
X-8507736Y-4254919D01*
X-8568837Y-4251716D01*
X-8616387Y-4213210D01*
X-8632222Y-4154110D01*
X-8610295Y-4096988D01*
X-8603371Y-4089298D01*
X-7433035Y-2918962D01*
X-7416238Y-2889867D01*
X-7416237Y-2889867D01*
X-7416236Y-2889865D01*
X-7390182Y-2844738D01*
X-7368000Y-2761953D01*
X-7368000Y-2500733D01*
X-7349093Y-2442542D01*
X-7339003Y-2430729D01*
X-7304028Y-2395755D01*
X-7247339Y-2339066D01*
X-7247338Y-2339065D01*
X-7247335Y-2339063D01*
X-7186735Y-2278463D01*
X-7164161Y-2239364D01*
X-7164161Y-2239362D01*
X-7143882Y-2204239D01*
X-7121700Y-2121453D01*
X-7121700Y-2035747D01*
X-7121700Y414365D01*
X-7102793Y472556D01*
X-7092704Y484369D01*
X-5244444Y2332629D01*
X-5189927Y2360406D01*
X-5129495Y2350835D01*
G37*
%TD.AperFunction*%
%TA.AperFunction,Conductor*%
G36*
X-14352343Y-5749607D02*
G01*
X-14340531Y-5759696D01*
X-14226597Y-5873629D01*
X-14198819Y-5928146D01*
X-14197600Y-5943633D01*
X-14197600Y-6246531D01*
X-14216507Y-6304722D01*
X-14266007Y-6340686D01*
X-14281113Y-6344312D01*
X-14320344Y-6350525D01*
X-14342175Y-6353983D01*
X-14342178Y-6353984D01*
X-14438404Y-6403014D01*
X-14452391Y-6410141D01*
X-14539859Y-6497609D01*
X-14541475Y-6500781D01*
X-14543990Y-6503296D01*
X-14544437Y-6503911D01*
X-14544534Y-6503840D01*
X-14584740Y-6544045D01*
X-14645172Y-6553616D01*
X-14699687Y-6525839D01*
X-14788191Y-6437335D01*
X-14910534Y-6377526D01*
X-14909633Y-6375684D01*
X-14951154Y-6346415D01*
X-14970891Y-6288500D01*
X-14952817Y-6230045D01*
X-14941910Y-6217088D01*
X-14896924Y-6172102D01*
X-14840418Y-6056518D01*
X-14829500Y-5981582D01*
X-14829500Y-5829700D01*
X-14810593Y-5771509D01*
X-14761093Y-5735545D01*
X-14730500Y-5730700D01*
X-14410534Y-5730700D01*
X-14352343Y-5749607D01*
G37*
%TD.AperFunction*%
%TA.AperFunction,Conductor*%
G36*
X-12000964Y-2934356D02*
G01*
X-11900304Y-2985646D01*
X-11806519Y-3000500D01*
X-11213332Y-3000499D01*
X-11155142Y-3019406D01*
X-11143335Y-3029489D01*
X-11073766Y-3099059D01*
X-11073765Y-3099062D01*
X-11013162Y-3159665D01*
X-10976050Y-3181091D01*
X-10938939Y-3202518D01*
X-10856153Y-3224701D01*
X-10856151Y-3224701D01*
X-10764384Y-3224701D01*
X-10764368Y-3224700D01*
X-9292635Y-3224700D01*
X-9234444Y-3243607D01*
X-9198480Y-3293107D01*
X-9198480Y-3354293D01*
X-9222631Y-3393704D01*
X-9983931Y-4155004D01*
X-10038448Y-4182781D01*
X-10053935Y-4184000D01*
X-11708347Y-4184000D01*
X-11794053Y-4184000D01*
X-11876839Y-4206182D01*
X-11876840Y-4206182D01*
X-11876841Y-4206183D01*
X-11929758Y-4236735D01*
X-11979259Y-4249999D01*
X-12526000Y-4249999D01*
X-12584191Y-4231092D01*
X-12620155Y-4181592D01*
X-12625000Y-4150999D01*
X-12625000Y-4048999D01*
X-12606093Y-3990808D01*
X-12556593Y-3954844D01*
X-12526000Y-3949999D01*
X-11925002Y-3949999D01*
X-11925001Y-3949998D01*
X-11925001Y-3804562D01*
X-11931081Y-3747994D01*
X-11931082Y-3747992D01*
X-11978814Y-3620015D01*
X-12060668Y-3510671D01*
X-12060674Y-3510665D01*
X-12168932Y-3429624D01*
X-12204185Y-3379616D01*
X-12203311Y-3318436D01*
X-12195339Y-3300871D01*
X-12180713Y-3275538D01*
X-12180712Y-3275536D01*
X-12144900Y-3141883D01*
X-12144900Y-3022570D01*
X-12125993Y-2964379D01*
X-12076493Y-2928415D01*
X-12015307Y-2928415D01*
X-12000964Y-2934356D01*
G37*
%TD.AperFunction*%
%TA.AperFunction,Conductor*%
G36*
X-12534858Y-905669D02*
G01*
X-11710026Y-1730500D01*
X-11682252Y-1785013D01*
X-11691823Y-1845445D01*
X-11735088Y-1888710D01*
X-11780030Y-1899500D01*
X-11806519Y-1899500D01*
X-11806523Y-1899501D01*
X-11900299Y-1914352D01*
X-11900304Y-1914354D01*
X-12013342Y-1971950D01*
X-12103050Y-2061658D01*
X-12160646Y-2174696D01*
X-12175500Y-2268481D01*
X-12175499Y-2459726D01*
X-12175499Y-2585423D01*
X-12194406Y-2643613D01*
X-12243906Y-2679577D01*
X-12305091Y-2679578D01*
X-12344498Y-2655431D01*
X-12347731Y-2652197D01*
X-12467567Y-2583010D01*
X-12551124Y-2560621D01*
X-12602438Y-2527297D01*
X-12624364Y-2470175D01*
X-12624500Y-2464995D01*
X-12624500Y-2268479D01*
X-12624501Y-2268476D01*
X-12639352Y-2174700D01*
X-12639354Y-2174695D01*
X-12696950Y-2061658D01*
X-12696952Y-2061654D01*
X-12713960Y-2044646D01*
X-12741735Y-1990129D01*
X-12732161Y-1929697D01*
X-12713957Y-1904642D01*
X-12697358Y-1888043D01*
X-12639836Y-1775151D01*
X-12639835Y-1775147D01*
X-12625000Y-1681484D01*
X-12625000Y-1650001D01*
X-12625001Y-1650000D01*
X-13438500Y-1650000D01*
X-13496691Y-1631093D01*
X-13532655Y-1581593D01*
X-13537500Y-1551000D01*
X-13537500Y-1449000D01*
X-13518593Y-1390809D01*
X-13469093Y-1354845D01*
X-13438500Y-1350000D01*
X-12625002Y-1350000D01*
X-12625001Y-1349999D01*
X-12625001Y-1318514D01*
X-12639833Y-1224858D01*
X-12639836Y-1224848D01*
X-12697359Y-1111955D01*
X-12697361Y-1111952D01*
X-12713958Y-1095355D01*
X-12741734Y-1040838D01*
X-12732162Y-980406D01*
X-12713958Y-955351D01*
X-12696951Y-938343D01*
X-12696949Y-938340D01*
X-12693071Y-930729D01*
X-12649807Y-887464D01*
X-12589375Y-877892D01*
X-12534858Y-905669D01*
G37*
%TD.AperFunction*%
%TA.AperFunction,Conductor*%
G36*
X5729093Y-1058466D02*
G01*
X5741756Y-1082056D01*
X5778372Y-1180226D01*
X5860313Y-1289687D01*
X5969774Y-1371628D01*
X6065975Y-1407509D01*
X6113887Y-1445559D01*
X6130285Y-1504506D01*
X6108903Y-1561834D01*
X6065973Y-1593024D01*
X5970017Y-1628814D01*
X5860672Y-1710668D01*
X5860668Y-1710672D01*
X5778814Y-1820016D01*
X5741758Y-1919370D01*
X5703708Y-1967284D01*
X5644761Y-1983682D01*
X5587433Y-1962300D01*
X5553622Y-1911306D01*
X5550000Y-1884773D01*
X5550000Y-1116657D01*
X5568907Y-1058466D01*
X5618407Y-1022502D01*
X5679593Y-1022502D01*
X5729093Y-1058466D01*
G37*
%TD.AperFunction*%
%TA.AperFunction,Conductor*%
G36*
X4059190Y5581093D02*
G01*
X4095154Y5531593D01*
X4099999Y5501000D01*
X4099999Y4300000D01*
X4373804Y4300000D01*
X4431995Y4281093D01*
X4467959Y4231593D01*
X4467959Y4170407D01*
X4462664Y4158515D01*
X4460313Y4152838D01*
X4460312Y4152836D01*
X4424500Y4019183D01*
X4424500Y3880817D01*
X4460312Y3747164D01*
X4529495Y3627335D01*
X4627335Y3529495D01*
X4747164Y3460312D01*
X4880817Y3424500D01*
X4880819Y3424500D01*
X5019181Y3424500D01*
X5019183Y3424500D01*
X5112138Y3449407D01*
X5152837Y3460312D01*
X5213446Y3495304D01*
X5273295Y3508025D01*
X5292059Y3504189D01*
X5403499Y3469900D01*
X5444389Y3445282D01*
X6095504Y2794168D01*
X6123281Y2739651D01*
X6124500Y2724164D01*
X6124500Y48074D01*
X6105593Y-10117D01*
X6060100Y-44681D01*
X5969774Y-78372D01*
X5969773Y-78372D01*
X5969772Y-78373D01*
X5860315Y-160311D01*
X5860311Y-160315D01*
X5778373Y-269771D01*
X5778373Y-269772D01*
X5778372Y-269774D01*
X5741756Y-367941D01*
X5703707Y-415854D01*
X5644759Y-432251D01*
X5587432Y-410869D01*
X5553621Y-359873D01*
X5550000Y-333342D01*
X5550000Y37D01*
X5549894Y8565D01*
X5549894Y8589D01*
X5543630Y263741D01*
X5542788Y280899D01*
X5524012Y535436D01*
X5522328Y552532D01*
X5493101Y789500D01*
X5491086Y805836D01*
X5488565Y822838D01*
X5469945Y930143D01*
X5444930Y1074306D01*
X5441579Y1091155D01*
X5385658Y1340182D01*
X5381484Y1356846D01*
X5313411Y1602829D01*
X5308424Y1619268D01*
X5228364Y1861615D01*
X5222576Y1877790D01*
X5207975Y1915641D01*
X5151680Y2061582D01*
X5130721Y2115917D01*
X5124146Y2131788D01*
X5020717Y2365120D01*
X5015415Y2376330D01*
X5013379Y2380636D01*
X4974979Y2456924D01*
X4898619Y2608626D01*
X4890521Y2623777D01*
X4764719Y2845848D01*
X4755887Y2860583D01*
X4619340Y3076214D01*
X4609796Y3090498D01*
X4462833Y3299169D01*
X4452600Y3312967D01*
X4295575Y3514176D01*
X4284677Y3527455D01*
X4117968Y3720717D01*
X4106432Y3733445D01*
X3930441Y3918294D01*
X3918294Y3930441D01*
X3733445Y4106432D01*
X3720717Y4117968D01*
X3527455Y4284677D01*
X3514176Y4295575D01*
X3312967Y4452600D01*
X3299169Y4462833D01*
X3090498Y4609796D01*
X3076214Y4619340D01*
X2860583Y4755887D01*
X2845848Y4764719D01*
X2839043Y4768574D01*
X2797729Y4813704D01*
X2790832Y4874500D01*
X2818910Y4924072D01*
X2818076Y4924907D01*
X2822662Y4929493D01*
X2822665Y4929495D01*
X2907262Y5014092D01*
X2961777Y5041868D01*
X3022209Y5032297D01*
X3026763Y5029824D01*
X3147162Y4960312D01*
X3211490Y4943076D01*
X3280817Y4924500D01*
X3280819Y4924500D01*
X3419181Y4924500D01*
X3419183Y4924500D01*
X3552836Y4960312D01*
X3672665Y5029495D01*
X3770505Y5127335D01*
X3839688Y5247164D01*
X3875500Y5380817D01*
X3875500Y5501000D01*
X3894407Y5559191D01*
X3943907Y5595155D01*
X3974500Y5600000D01*
X4000999Y5600000D01*
X4059190Y5581093D01*
G37*
%TD.AperFunction*%
%TA.AperFunction,Conductor*%
G36*
X-10927644Y1855593D02*
G01*
X-10915831Y1845504D01*
X-10899496Y1829169D01*
X-10871719Y1774652D01*
X-10870500Y1759165D01*
X-10870500Y1518418D01*
X-10859582Y1443482D01*
X-10803076Y1327898D01*
X-10712102Y1236924D01*
X-10712100Y1236923D01*
X-10712097Y1236920D01*
X-10709993Y1235418D01*
X-10708286Y1233109D01*
X-10706301Y1231124D01*
X-10706598Y1230826D01*
X-10673621Y1186218D01*
X-10673115Y1125034D01*
X-10681785Y1105343D01*
X-10684388Y1100836D01*
X-10720200Y967183D01*
X-10720200Y828817D01*
X-10708545Y785320D01*
X-10711747Y724222D01*
X-10750252Y676672D01*
X-10804172Y660700D01*
X-14669365Y660700D01*
X-14727556Y679607D01*
X-14739369Y689696D01*
X-15000504Y950831D01*
X-15028281Y1005348D01*
X-15029500Y1020835D01*
X-15029500Y1261578D01*
X-15029500Y1261582D01*
X-15040418Y1336518D01*
X-15096924Y1452102D01*
X-15174820Y1529998D01*
X-15202596Y1584513D01*
X-15193025Y1644945D01*
X-15174821Y1670000D01*
X-15096924Y1747898D01*
X-15096923Y1747899D01*
X-15091124Y1753699D01*
X-15088932Y1751507D01*
X-15051192Y1779401D01*
X-15019831Y1784500D01*
X-14899162Y1784500D01*
X-14840971Y1765593D01*
X-14805007Y1716093D01*
X-14800539Y1680344D01*
X-14800500Y1680344D01*
X-14800499Y1680032D01*
X-14800374Y1679024D01*
X-14800497Y1677118D01*
X-14800500Y1677103D01*
X-14800499Y1422898D01*
X-14794019Y1373670D01*
X-14743644Y1265641D01*
X-14659359Y1181356D01*
X-14659357Y1181355D01*
X-14659356Y1181354D01*
X-14551335Y1130983D01*
X-14551333Y1130982D01*
X-14551330Y1130981D01*
X-14502103Y1124500D01*
X-14502101Y1124500D01*
X-13572902Y1124500D01*
X-13572890Y1124501D01*
X-13523670Y1130980D01*
X-13415643Y1181354D01*
X-13331354Y1265643D01*
X-13289448Y1355511D01*
X-13247720Y1400259D01*
X-13187658Y1411933D01*
X-13132206Y1386075D01*
X-13110000Y1355511D01*
X-13068229Y1265934D01*
X-12984065Y1181770D01*
X-12876198Y1131471D01*
X-12876200Y1131471D01*
X-12827045Y1125000D01*
X-12512501Y1125000D01*
X-12512500Y1125001D01*
X-12512500Y1399999D01*
X-12212500Y1399999D01*
X-12212500Y1125001D01*
X-12212499Y1125000D01*
X-11897959Y1125000D01*
X-11897948Y1125001D01*
X-11848803Y1131470D01*
X-11848798Y1131471D01*
X-11740934Y1181770D01*
X-11656770Y1265934D01*
X-11606471Y1373800D01*
X-11603022Y1400000D01*
X-12212499Y1400000D01*
X-12212500Y1399999D01*
X-12512500Y1399999D01*
X-12512500Y1451000D01*
X-12493593Y1509191D01*
X-12444093Y1545155D01*
X-12413500Y1550000D01*
X-12362501Y1550000D01*
X-12362500Y1550001D01*
X-12362500Y1601000D01*
X-12343593Y1659191D01*
X-12294093Y1695155D01*
X-12263500Y1700000D01*
X-11603024Y1700000D01*
X-11606471Y1726201D01*
X-11609950Y1733660D01*
X-11617407Y1794389D01*
X-11587745Y1847903D01*
X-11532292Y1873762D01*
X-11520226Y1874500D01*
X-10985835Y1874500D01*
X-10927644Y1855593D01*
G37*
%TD.AperFunction*%
%TA.AperFunction,Conductor*%
G36*
X-6387312Y9309317D02*
G01*
X-6344047Y9266052D01*
X-6334476Y9205620D01*
X-6335160Y9201792D01*
X-6350498Y9124684D01*
X-6350500Y9124672D01*
X-6350500Y8624033D01*
X-6369407Y8565842D01*
X-6379496Y8554029D01*
X-6564165Y8369362D01*
X-6607018Y8295139D01*
X-6607812Y8292175D01*
X-6629200Y8212353D01*
X-6629200Y8212352D01*
X-6629200Y2363734D01*
X-6648107Y2305543D01*
X-6658196Y2293731D01*
X-6935926Y2016000D01*
X-7145448Y1806478D01*
X-7199965Y1778700D01*
X-7260397Y1788271D01*
X-7303662Y1831536D01*
X-7313233Y1891968D01*
X-7303662Y1921426D01*
X-7254465Y2017980D01*
X-7240000Y2109307D01*
X-7240000Y2129999D01*
X-7240001Y2130000D01*
X-7701000Y2130000D01*
X-7759191Y2148907D01*
X-7795155Y2198407D01*
X-7800000Y2229000D01*
X-7800000Y2331000D01*
X-7781093Y2389191D01*
X-7731593Y2425155D01*
X-7701000Y2430000D01*
X-7240002Y2430000D01*
X-7240001Y2430001D01*
X-7240001Y2450693D01*
X-7240000Y2450693D01*
X-7254463Y2542015D01*
X-7254465Y2542022D01*
X-7310548Y2652088D01*
X-7310549Y2652090D01*
X-7387641Y2729182D01*
X-7415418Y2783699D01*
X-7405847Y2844131D01*
X-7387643Y2869186D01*
X-7329495Y2927335D01*
X-7260312Y3047164D01*
X-7224500Y3180817D01*
X-7224500Y3319183D01*
X-7260312Y3452836D01*
X-7329495Y3572665D01*
X-7427335Y3670505D01*
X-7547164Y3739688D01*
X-7680817Y3775500D01*
X-7819183Y3775500D01*
X-7952836Y3739688D01*
X-8072665Y3670505D01*
X-8170505Y3572665D01*
X-8234338Y3462101D01*
X-8279805Y3421162D01*
X-8289557Y3417424D01*
X-8377543Y3388934D01*
X-8438728Y3388995D01*
X-8451511Y3394174D01*
X-8503482Y3419582D01*
X-8578418Y3430500D01*
X-8578421Y3430500D01*
X-8908200Y3430500D01*
X-8966391Y3449407D01*
X-9002355Y3498907D01*
X-9007200Y3529500D01*
X-9007200Y3833252D01*
X-8996018Y3874988D01*
X-8997166Y3875464D01*
X-8994683Y3881456D01*
X-8972500Y3964248D01*
X-8972500Y7120852D01*
X-8981496Y7154428D01*
X-8981495Y7154428D01*
X-8994682Y7203640D01*
X-8994683Y7203642D01*
X-9037531Y7277857D01*
X-9037535Y7277862D01*
X-9265169Y7505497D01*
X-9292946Y7560013D01*
X-9283375Y7620445D01*
X-9240110Y7663710D01*
X-9195165Y7674500D01*
X-8210849Y7674500D01*
X-8210847Y7674500D01*
X-8160178Y7688076D01*
X-8128056Y7696683D01*
X-8053842Y7739531D01*
X-7550835Y8242538D01*
X-6502261Y9291111D01*
X-6447744Y9318888D01*
X-6387312Y9309317D01*
G37*
%TD.AperFunction*%
%TA.AperFunction,Conductor*%
G36*
X-11754718Y10367191D02*
G01*
X-11525165Y10137638D01*
X-11525165Y10137637D01*
X-11493620Y10106093D01*
X-11464562Y10077035D01*
X-11394902Y10036817D01*
X-11354681Y9992924D01*
X-11318644Y9915641D01*
X-11318642Y9915639D01*
X-11304495Y9901491D01*
X-11276718Y9846974D01*
X-11275500Y9831489D01*
X-11275500Y9787148D01*
X-11275499Y9787145D01*
X-11274337Y9782807D01*
X-11277536Y9721706D01*
X-11316039Y9674154D01*
X-11354477Y9659398D01*
X-11442020Y9645534D01*
X-11442022Y9645534D01*
X-11552088Y9589451D01*
X-11552090Y9589450D01*
X-11639450Y9502090D01*
X-11639451Y9502088D01*
X-11695533Y9392022D01*
X-11695534Y9392021D01*
X-11710000Y9300692D01*
X-11710000Y9250001D01*
X-11709999Y9250000D01*
X-11279000Y9250000D01*
X-11220809Y9231093D01*
X-11184845Y9181593D01*
X-11180000Y9151000D01*
X-11180000Y9100001D01*
X-11179999Y9100000D01*
X-11129000Y9100000D01*
X-11070809Y9081093D01*
X-11034845Y9031593D01*
X-11030000Y9001000D01*
X-11030000Y7439999D01*
X-11009307Y7440000D01*
X-11009303Y7440001D01*
X-10917984Y7454463D01*
X-10917977Y7454465D01*
X-10807911Y7510548D01*
X-10807905Y7510552D01*
X-10770355Y7548101D01*
X-10715838Y7575878D01*
X-10655406Y7566305D01*
X-10630352Y7548102D01*
X-10592391Y7510141D01*
X-10573466Y7500498D01*
X-10482175Y7453983D01*
X-10482176Y7453983D01*
X-10390737Y7439500D01*
X-10390735Y7439500D01*
X-10160835Y7439500D01*
X-10102644Y7420593D01*
X-10090831Y7410504D01*
X-9652496Y6972169D01*
X-9624719Y6917652D01*
X-9623500Y6902165D01*
X-9623500Y4830000D01*
X-9642407Y4771809D01*
X-9691907Y4735845D01*
X-9722500Y4731000D01*
X-9845883Y4731000D01*
X-9979536Y4695188D01*
X-10099365Y4626005D01*
X-10197205Y4528165D01*
X-10266388Y4408336D01*
X-10302200Y4274683D01*
X-10302200Y4136317D01*
X-10266388Y4002664D01*
X-10197205Y3882835D01*
X-10099365Y3784995D01*
X-10099362Y3784993D01*
X-10099360Y3784991D01*
X-10037500Y3749276D01*
X-9996559Y3703806D01*
X-9988000Y3663540D01*
X-9988000Y3328999D01*
X-10006907Y3270808D01*
X-10056407Y3234844D01*
X-10086999Y3229999D01*
X-10149999Y3229998D01*
X-10150000Y3229998D01*
X-10150000Y2809000D01*
X-10168907Y2750809D01*
X-10218407Y2714845D01*
X-10249000Y2710000D01*
X-10351000Y2710000D01*
X-10409191Y2728907D01*
X-10445155Y2778407D01*
X-10450000Y2809000D01*
X-10450000Y3229998D01*
X-10450001Y3229999D01*
X-10521536Y3229999D01*
X-10521538Y3229998D01*
X-10596378Y3219095D01*
X-10679686Y3178368D01*
X-10740268Y3169796D01*
X-10794318Y3198471D01*
X-10808903Y3217807D01*
X-10814593Y3227662D01*
X-10814595Y3227665D01*
X-10912435Y3325505D01*
X-11032264Y3394688D01*
X-11165917Y3430500D01*
X-11304283Y3430500D01*
X-11437936Y3394688D01*
X-11557765Y3325505D01*
X-11574386Y3308884D01*
X-11623775Y3259496D01*
X-11678292Y3231719D01*
X-11693778Y3230500D01*
X-11744119Y3230500D01*
X-11785958Y3239776D01*
X-11847617Y3268528D01*
X-11848670Y3269019D01*
X-11897897Y3275500D01*
X-12827102Y3275499D01*
X-12876330Y3269019D01*
X-12984359Y3218644D01*
X-13068644Y3134359D01*
X-13110552Y3044486D01*
X-13152278Y2999741D01*
X-13212340Y2988066D01*
X-13267792Y3013924D01*
X-13289999Y3044488D01*
X-13331770Y3134065D01*
X-13415934Y3218229D01*
X-13523801Y3268528D01*
X-13523799Y3268528D01*
X-13572955Y3274999D01*
X-13887498Y3274999D01*
X-13887500Y3274998D01*
X-13887500Y2949000D01*
X-13906407Y2890809D01*
X-13955907Y2854845D01*
X-13986500Y2850000D01*
X-14037499Y2850000D01*
X-14037500Y2849999D01*
X-14037500Y2799000D01*
X-14056407Y2740809D01*
X-14105907Y2704845D01*
X-14136500Y2700000D01*
X-14796976Y2700000D01*
X-14793528Y2673798D01*
X-14748082Y2576340D01*
X-14740625Y2515610D01*
X-14770288Y2462096D01*
X-14825741Y2436238D01*
X-14837806Y2435500D01*
X-15019831Y2435500D01*
X-15078022Y2454407D01*
X-15090468Y2466956D01*
X-15091124Y2466301D01*
X-15096923Y2472100D01*
X-15096924Y2472102D01*
X-15187898Y2563076D01*
X-15303482Y2619582D01*
X-15378418Y2630500D01*
X-15378421Y2630500D01*
X-15560262Y2630500D01*
X-15618453Y2649407D01*
X-15654417Y2698907D01*
X-15654417Y2760093D01*
X-15648895Y2772493D01*
X-15646713Y2777761D01*
X-15640282Y2801761D01*
X-15610900Y2911417D01*
X-15610900Y3000000D01*
X-14796977Y3000000D01*
X-14187501Y3000000D01*
X-14187500Y3000001D01*
X-14187500Y3274998D01*
X-14187501Y3274999D01*
X-14502040Y3274999D01*
X-14502051Y3274998D01*
X-14551196Y3268529D01*
X-14551201Y3268528D01*
X-14659065Y3218229D01*
X-14743229Y3134065D01*
X-14793528Y3026199D01*
X-14796977Y3000000D01*
X-15610900Y3000000D01*
X-15610900Y3049783D01*
X-15646712Y3183436D01*
X-15715895Y3303265D01*
X-15715897Y3303267D01*
X-15719140Y3308884D01*
X-15716966Y3310138D01*
X-15733791Y3357641D01*
X-15716416Y3416307D01*
X-15667876Y3453557D01*
X-15621903Y3458390D01*
X-15505001Y3443000D01*
X-15505000Y3443000D01*
X-15504999Y3443000D01*
X-14935601Y3517962D01*
X-14935595Y3517964D01*
X-14405001Y3737743D01*
X-13949370Y4087360D01*
X-13949360Y4087370D01*
X-13599744Y4542997D01*
X-13599743Y4542998D01*
X-13379964Y5073595D01*
X-13379962Y5073601D01*
X-13305000Y5642999D01*
X-13305000Y5643000D01*
X-13379962Y6212397D01*
X-13379964Y6212405D01*
X-13419529Y6307923D01*
X-13424330Y6368919D01*
X-13392360Y6421088D01*
X-13335832Y6444503D01*
X-13276337Y6430219D01*
X-13258065Y6415815D01*
X-13202391Y6360141D01*
X-13202389Y6360140D01*
X-13092175Y6303983D01*
X-13092176Y6303983D01*
X-13000736Y6289500D01*
X-13000735Y6289500D01*
X-12599262Y6289500D01*
X-12507825Y6303983D01*
X-12507821Y6303984D01*
X-12397610Y6360140D01*
X-12310140Y6447610D01*
X-12253983Y6557823D01*
X-12239500Y6649263D01*
X-12239500Y6990737D01*
X-12253983Y7082174D01*
X-12253984Y7082178D01*
X-12310140Y7192389D01*
X-12310141Y7192391D01*
X-12348101Y7230351D01*
X-12375877Y7284866D01*
X-12366306Y7345298D01*
X-12348101Y7370355D01*
X-12310552Y7407905D01*
X-12310548Y7407911D01*
X-12254466Y7517977D01*
X-12254465Y7517978D01*
X-12240000Y7609307D01*
X-12240000Y7629999D01*
X-12240001Y7630000D01*
X-12701000Y7630000D01*
X-12759191Y7648907D01*
X-12795155Y7698407D01*
X-12800000Y7729000D01*
X-12800000Y7831000D01*
X-12793827Y7849999D01*
X-11709999Y7849999D01*
X-11709999Y7799306D01*
X-11695536Y7707984D01*
X-11695534Y7707977D01*
X-11639451Y7597911D01*
X-11639450Y7597909D01*
X-11552090Y7510549D01*
X-11552088Y7510548D01*
X-11442022Y7454466D01*
X-11442021Y7454465D01*
X-11350693Y7440000D01*
X-11330001Y7440000D01*
X-11330000Y7440001D01*
X-11330000Y7849999D01*
X-11330001Y7850000D01*
X-11709998Y7850000D01*
X-11709999Y7849999D01*
X-12793827Y7849999D01*
X-12781093Y7889191D01*
X-12731593Y7925155D01*
X-12701000Y7930000D01*
X-12240002Y7930000D01*
X-12240001Y7930001D01*
X-12240001Y7950693D01*
X-12240000Y7950693D01*
X-12254463Y8042015D01*
X-12254464Y8042017D01*
X-12286034Y8103976D01*
X-12287645Y8114151D01*
X-12293305Y8122760D01*
X-12292325Y8143702D01*
X-12295605Y8164408D01*
X-12290928Y8173586D01*
X-12290447Y8183879D01*
X-12279393Y8196224D01*
X-12277117Y8200692D01*
X-11710000Y8200692D01*
X-11710000Y8150001D01*
X-11709999Y8150000D01*
X-11330001Y8150000D01*
X-11330000Y8150001D01*
X-11330000Y8949999D01*
X-11330001Y8950000D01*
X-11709998Y8950000D01*
X-11709999Y8949999D01*
X-11709999Y8899306D01*
X-11695536Y8807984D01*
X-11695534Y8807977D01*
X-11639451Y8697911D01*
X-11639450Y8697909D01*
X-11561545Y8620004D01*
X-11533768Y8565487D01*
X-11543339Y8505055D01*
X-11561545Y8479996D01*
X-11639450Y8402090D01*
X-11639451Y8402088D01*
X-11695533Y8292022D01*
X-11695534Y8292021D01*
X-11710000Y8200692D01*
X-12277117Y8200692D01*
X-12267828Y8218924D01*
X-12252210Y8231645D01*
X-12247643Y8234646D01*
X-12197609Y8260141D01*
X-12110141Y8347609D01*
X-12110140Y8347610D01*
X-12053983Y8457823D01*
X-12039500Y8549263D01*
X-12039500Y8890737D01*
X-12053983Y8982174D01*
X-12053984Y8982178D01*
X-12110140Y9092389D01*
X-12110141Y9092391D01*
X-12148101Y9130351D01*
X-12175877Y9184866D01*
X-12166306Y9245298D01*
X-12148101Y9270355D01*
X-12110552Y9307905D01*
X-12110548Y9307911D01*
X-12054466Y9417977D01*
X-12054465Y9417978D01*
X-12040000Y9509307D01*
X-12040000Y9529999D01*
X-12040001Y9530000D01*
X-13159998Y9530000D01*
X-13159999Y9529999D01*
X-13159999Y9509306D01*
X-13145536Y9417984D01*
X-13145534Y9417977D01*
X-13089451Y9307911D01*
X-13089450Y9307909D01*
X-13051899Y9270358D01*
X-13024122Y9215841D01*
X-13033693Y9155409D01*
X-13051896Y9130353D01*
X-13089859Y9092391D01*
X-13089861Y9092386D01*
X-13089863Y9092385D01*
X-13094281Y9086306D01*
X-13143782Y9050344D01*
X-13174371Y9045500D01*
X-13443000Y9045500D01*
X-13501191Y9064407D01*
X-13537155Y9113907D01*
X-13542000Y9144500D01*
X-13542000Y10178766D01*
X-13523093Y10236957D01*
X-13513004Y10248769D01*
X-13396271Y10365503D01*
X-13341754Y10393281D01*
X-13326267Y10394500D01*
X-12974371Y10394500D01*
X-12916180Y10375593D01*
X-12894281Y10353694D01*
X-12889863Y10347614D01*
X-12889860Y10347611D01*
X-12889859Y10347609D01*
X-12886194Y10343944D01*
X-12858419Y10289430D01*
X-12867990Y10228998D01*
X-12911255Y10185733D01*
X-13002091Y10139449D01*
X-13089450Y10052090D01*
X-13089451Y10052088D01*
X-13145533Y9942022D01*
X-13145534Y9942021D01*
X-13160000Y9850692D01*
X-13160000Y9830001D01*
X-13159999Y9830000D01*
X-12040002Y9830000D01*
X-12040001Y9830001D01*
X-12040001Y9850693D01*
X-12040000Y9850693D01*
X-12054463Y9942015D01*
X-12054465Y9942022D01*
X-12110548Y10052088D01*
X-12110549Y10052090D01*
X-12113900Y10055441D01*
X-12141677Y10109958D01*
X-12132106Y10170390D01*
X-12088842Y10213654D01*
X-11997610Y10260140D01*
X-11910139Y10347611D01*
X-11905563Y10353911D01*
X-11903012Y10352057D01*
X-11869641Y10385410D01*
X-11809206Y10394964D01*
X-11754718Y10367191D01*
G37*
%TD.AperFunction*%
%TA.AperFunction,Conductor*%
G36*
X-4324679Y7249500D02*
G01*
X-4324674Y7249500D01*
X-3899500Y7249500D01*
X-3841309Y7230593D01*
X-3805345Y7181093D01*
X-3800500Y7150500D01*
X-3800500Y6725327D01*
X-3800499Y6725320D01*
X-3799205Y6718813D01*
X-3806397Y6658052D01*
X-3847930Y6613122D01*
X-3896303Y6600500D01*
X-4124674Y6600500D01*
X-4197740Y6585966D01*
X-4280601Y6530601D01*
X-4335966Y6447740D01*
X-4335968Y6447728D01*
X-4337437Y6444184D01*
X-4377169Y6397654D01*
X-4436662Y6383363D01*
X-4451672Y6386195D01*
X-4737867Y6100000D01*
X-4450400Y5812533D01*
X-4396472Y5811475D01*
X-4347687Y5774547D01*
X-4337440Y5755819D01*
X-4335966Y5752262D01*
X-4335966Y5752260D01*
X-4335965Y5752259D01*
X-4275184Y5661291D01*
X-4276362Y5660503D01*
X-4253422Y5615480D01*
X-4253222Y5585829D01*
X-4327280Y5073595D01*
X-4330604Y5050603D01*
X-4357643Y4995717D01*
X-4385101Y4975830D01*
X-4452102Y4943076D01*
X-4529998Y4865179D01*
X-4584513Y4837404D01*
X-4644945Y4846975D01*
X-4670000Y4865178D01*
X-4747898Y4943076D01*
X-4863482Y4999582D01*
X-4938418Y5010500D01*
X-5281582Y5010500D01*
X-5356518Y4999582D01*
X-5472102Y4943076D01*
X-5563076Y4852102D01*
X-5619582Y4736518D01*
X-5630500Y4661582D01*
X-5630500Y4218418D01*
X-5619582Y4143482D01*
X-5563076Y4027898D01*
X-5472102Y3936924D01*
X-5472100Y3936923D01*
X-5466301Y3931124D01*
X-5468492Y3928932D01*
X-5440599Y3891192D01*
X-5435500Y3859831D01*
X-5435500Y3103235D01*
X-5454407Y3045044D01*
X-5464496Y3033231D01*
X-5809196Y2688531D01*
X-5863713Y2660754D01*
X-5924145Y2670325D01*
X-5967410Y2713590D01*
X-5978200Y2758535D01*
X-5978200Y5602197D01*
X-5235669Y5602197D01*
X-5235669Y5602196D01*
X-5224630Y5600000D01*
X-4675374Y5600000D01*
X-4664329Y5602196D01*
X-4950000Y5887867D01*
X-5235669Y5602197D01*
X-5978200Y5602197D01*
X-5978200Y6050500D01*
X-5959293Y6108691D01*
X-5909793Y6144655D01*
X-5879200Y6149500D01*
X-5575320Y6149500D01*
X-5568309Y6150895D01*
X-5507548Y6143700D01*
X-5462621Y6102165D01*
X-5450000Y6053796D01*
X-5450000Y5825377D01*
X-5447801Y5814329D01*
X-5162132Y6099999D01*
X-5162132Y6100000D01*
X-5326675Y6264544D01*
X-5354452Y6319060D01*
X-5353769Y6353859D01*
X-5349500Y6375318D01*
X-5349500Y6472625D01*
X-5330593Y6530816D01*
X-5281093Y6566780D01*
X-5219907Y6566780D01*
X-5180496Y6542629D01*
X-4949999Y6312132D01*
X-4664329Y6597801D01*
X-4671446Y6621265D01*
X-4671445Y6678741D01*
X-4664329Y6702196D01*
X-4950000Y6987867D01*
X-5180496Y6757371D01*
X-5235013Y6729593D01*
X-5295445Y6739164D01*
X-5338710Y6782429D01*
X-5349500Y6827374D01*
X-5349500Y6924679D01*
X-5353769Y6946139D01*
X-5346577Y7006900D01*
X-5326675Y7035455D01*
X-5191129Y7171003D01*
X-5136613Y7198781D01*
X-5121125Y7200000D01*
X-4778876Y7200000D01*
X-4720685Y7181093D01*
X-4708873Y7171004D01*
X-4452197Y6914329D01*
X-4452196Y6914329D01*
X-4450000Y6925374D01*
X-4450000Y7153796D01*
X-4431093Y7211987D01*
X-4381593Y7247951D01*
X-4331691Y7250895D01*
X-4324679Y7249500D01*
G37*
%TD.AperFunction*%
%TA.AperFunction,Conductor*%
G36*
X4059190Y14381093D02*
G01*
X4095154Y14331593D01*
X4099999Y14301000D01*
X4099999Y12749000D01*
X4081092Y12690809D01*
X4031592Y12654845D01*
X4000999Y12650000D01*
X3575377Y12650000D01*
X3564329Y12647802D01*
X3992128Y12220004D01*
X4019905Y12165487D01*
X4010334Y12105055D01*
X3992128Y12079997D01*
X3564329Y11652197D01*
X3564329Y11652196D01*
X3575374Y11650000D01*
X4000999Y11650000D01*
X4059190Y11631093D01*
X4095154Y11581593D01*
X4099999Y11551000D01*
X4099999Y9449000D01*
X4081092Y9390809D01*
X4031592Y9354845D01*
X4000999Y9350000D01*
X3575377Y9350000D01*
X3564329Y9347802D01*
X3992128Y8920004D01*
X4019905Y8865487D01*
X4010334Y8805055D01*
X3992128Y8779997D01*
X3564329Y8352197D01*
X3564329Y8352196D01*
X3575374Y8350000D01*
X4000999Y8350000D01*
X4059190Y8331093D01*
X4095154Y8281593D01*
X4099999Y8251000D01*
X4099999Y6699000D01*
X4081092Y6640809D01*
X4031592Y6604845D01*
X4000999Y6600000D01*
X3896203Y6600000D01*
X3838012Y6618907D01*
X3802048Y6668407D01*
X3799106Y6718317D01*
X3800499Y6725320D01*
X3800500Y6725327D01*
X3800500Y7274672D01*
X3800498Y7274684D01*
X3791603Y7319399D01*
X3785966Y7347740D01*
X3730601Y7430601D01*
X3647740Y7485966D01*
X3574674Y7500500D01*
X3574673Y7500500D01*
X3346303Y7500500D01*
X3288112Y7519407D01*
X3252148Y7568907D01*
X3249205Y7618813D01*
X3250499Y7625320D01*
X3250500Y7625327D01*
X3250500Y8174672D01*
X3250498Y8174684D01*
X3246213Y8196224D01*
X3235966Y8247740D01*
X3180601Y8330601D01*
X3097740Y8385966D01*
X3024674Y8400500D01*
X2475326Y8400500D01*
X2475320Y8400498D01*
X2475315Y8400498D01*
X2457808Y8397015D01*
X2402260Y8385966D01*
X2402257Y8385964D01*
X2319400Y8330602D01*
X2319395Y8330597D01*
X2282316Y8275102D01*
X2234267Y8237222D01*
X2173129Y8234818D01*
X2122255Y8268810D01*
X2117684Y8275102D01*
X2080604Y8330597D01*
X2080602Y8330599D01*
X2080601Y8330601D01*
X1997740Y8385966D01*
X1924674Y8400500D01*
X1375326Y8400500D01*
X1375320Y8400498D01*
X1375315Y8400498D01*
X1357808Y8397015D01*
X1302260Y8385966D01*
X1302257Y8385964D01*
X1219400Y8330602D01*
X1219395Y8330597D01*
X1182316Y8275102D01*
X1134267Y8237222D01*
X1073129Y8234818D01*
X1022255Y8268810D01*
X1017684Y8275102D01*
X980604Y8330597D01*
X980602Y8330599D01*
X980601Y8330601D01*
X897740Y8385966D01*
X824674Y8400500D01*
X275326Y8400500D01*
X275320Y8400498D01*
X275315Y8400498D01*
X257808Y8397015D01*
X202260Y8385966D01*
X202257Y8385964D01*
X119400Y8330602D01*
X119395Y8330597D01*
X82316Y8275102D01*
X34267Y8237222D01*
X-26871Y8234818D01*
X-77745Y8268810D01*
X-82316Y8275102D01*
X-119395Y8330597D01*
X-119400Y8330602D01*
X-202257Y8385964D01*
X-202260Y8385966D01*
X-257808Y8397015D01*
X-275315Y8400498D01*
X-275320Y8400498D01*
X-275326Y8400500D01*
X-824674Y8400500D01*
X-897740Y8385966D01*
X-980601Y8330601D01*
X-980602Y8330599D01*
X-980604Y8330597D01*
X-1017684Y8275102D01*
X-1065733Y8237222D01*
X-1126871Y8234818D01*
X-1177745Y8268810D01*
X-1182316Y8275102D01*
X-1219395Y8330597D01*
X-1219400Y8330602D01*
X-1302257Y8385964D01*
X-1302260Y8385966D01*
X-1357808Y8397015D01*
X-1375315Y8400498D01*
X-1375320Y8400498D01*
X-1375326Y8400500D01*
X-1924674Y8400500D01*
X-1997740Y8385966D01*
X-2080601Y8330601D01*
X-2135966Y8247740D01*
X-2146213Y8196224D01*
X-2150498Y8174684D01*
X-2150500Y8174672D01*
X-2150500Y7625327D01*
X-2150499Y7625320D01*
X-2149205Y7618813D01*
X-2156397Y7558052D01*
X-2197930Y7513122D01*
X-2246303Y7500500D01*
X-2474674Y7500500D01*
X-2547740Y7485966D01*
X-2585392Y7460808D01*
X-2644280Y7444200D01*
X-2701684Y7465378D01*
X-2735676Y7516252D01*
X-2733489Y7571900D01*
X-2734592Y7572196D01*
X-2733286Y7577067D01*
X-2733274Y7577390D01*
X-2733040Y7577987D01*
X-2722101Y7618813D01*
X-2697100Y7712117D01*
X-2697100Y7850483D01*
X-2732912Y7984136D01*
X-2802095Y8103965D01*
X-2899935Y8201805D01*
X-3019764Y8270988D01*
X-3153417Y8306800D01*
X-3153419Y8306800D01*
X-3246765Y8306800D01*
X-3304956Y8325707D01*
X-3316768Y8335796D01*
X-3520503Y8539530D01*
X-3548281Y8594047D01*
X-3549500Y8609534D01*
X-3549500Y8804207D01*
X-3530593Y8862398D01*
X-3481093Y8898362D01*
X-3431187Y8901305D01*
X-3424629Y8900000D01*
X-2875374Y8900000D01*
X-2864329Y8902196D01*
X-2864329Y8902197D01*
X-3292128Y9329997D01*
X-3299245Y9343966D01*
X-3310334Y9355055D01*
X-3312786Y9370542D01*
X-3319905Y9384513D01*
X-3317452Y9400000D01*
X-2937867Y9400000D01*
X-2652196Y9114329D01*
X-2650148Y9124630D01*
X3350000Y9124630D01*
X3350000Y8575374D01*
X3352196Y8564329D01*
X3637867Y8850000D01*
X3352197Y9135669D01*
X3352196Y9135669D01*
X3350000Y9124630D01*
X-2650148Y9124630D01*
X-2650000Y9125374D01*
X-2650000Y9674630D01*
X-2652196Y9685669D01*
X-2652197Y9685669D01*
X-2937867Y9400000D01*
X-3317452Y9400000D01*
X-3319905Y9415487D01*
X-3312786Y9429457D01*
X-3310334Y9444945D01*
X-3292128Y9470004D01*
X-3251121Y9511011D01*
X-2862534Y9899597D01*
X-2861474Y9953532D01*
X-2824543Y10002315D01*
X-2805825Y10012557D01*
X-2802260Y10014033D01*
X-2719400Y10069397D01*
X-2719397Y10069400D01*
X-2664035Y10152257D01*
X-2664033Y10152263D01*
X-2649501Y10225315D01*
X-2649500Y10225327D01*
X-2649500Y10774672D01*
X-2649501Y10774684D01*
X-2664033Y10847736D01*
X-2664035Y10847742D01*
X-2719397Y10930599D01*
X-2719400Y10930602D01*
X-2774898Y10967684D01*
X-2812778Y11015734D01*
X-2815180Y11076872D01*
X-2781188Y11127746D01*
X-2774898Y11132316D01*
X-2719400Y11169397D01*
X-2719397Y11169400D01*
X-2664035Y11252257D01*
X-2664033Y11252263D01*
X-2649501Y11325315D01*
X-2649500Y11325327D01*
X-2649500Y11874672D01*
X-2649501Y11874684D01*
X-2664033Y11947736D01*
X-2664035Y11947742D01*
X-2719397Y12030599D01*
X-2719400Y12030602D01*
X-2802257Y12085964D01*
X-2802260Y12085966D01*
X-2857808Y12097015D01*
X-2875315Y12100498D01*
X-2875321Y12100499D01*
X-2875326Y12100500D01*
X-3424674Y12100500D01*
X-3431179Y12099206D01*
X-3491941Y12106393D01*
X-3536874Y12147922D01*
X-3549500Y12196302D01*
X-3549500Y12424630D01*
X3350000Y12424630D01*
X3350000Y11875374D01*
X3352196Y11864329D01*
X3637867Y12150000D01*
X3352197Y12435669D01*
X3352196Y12435669D01*
X3350000Y12424630D01*
X-3549500Y12424630D01*
X-3549500Y12424672D01*
X-3549501Y12424684D01*
X-3564033Y12497736D01*
X-3564035Y12497742D01*
X-3619397Y12580599D01*
X-3619400Y12580602D01*
X-3702259Y12635965D01*
X-3702260Y12635966D01*
X-3702262Y12635966D01*
X-3705819Y12637440D01*
X-3752347Y12677173D01*
X-3766634Y12736667D01*
X-3763803Y12751671D01*
X-4093128Y13080997D01*
X-4120905Y13135513D01*
X-4111334Y13195945D01*
X-4068069Y13239210D01*
X-4023124Y13250000D01*
X-3878876Y13250000D01*
X-3820685Y13231093D01*
X-3808873Y13221004D01*
X-3552197Y12964329D01*
X-3552196Y12964329D01*
X-3550000Y12975374D01*
X-3550000Y13400500D01*
X-3531093Y13458691D01*
X-3481593Y13494655D01*
X-3451000Y13499500D01*
X-3025327Y13499500D01*
X-3025326Y13499500D01*
X-3025325Y13499500D01*
X-3025315Y13499501D01*
X-2952263Y13514033D01*
X-2952257Y13514035D01*
X-2869400Y13569397D01*
X-2869397Y13569400D01*
X-2832316Y13624898D01*
X-2784266Y13662778D01*
X-2723128Y13665180D01*
X-2672254Y13631188D01*
X-2667684Y13624898D01*
X-2630602Y13569400D01*
X-2630599Y13569397D01*
X-2547742Y13514035D01*
X-2547740Y13514034D01*
X-2547737Y13514033D01*
X-2547736Y13514033D01*
X-2474684Y13499501D01*
X-2474674Y13499500D01*
X-2246303Y13499500D01*
X-2188112Y13480593D01*
X-2152148Y13431093D01*
X-2149205Y13381187D01*
X-2150486Y13374743D01*
X-2150500Y13374674D01*
X-2150500Y12825326D01*
X-2135966Y12752260D01*
X-2135964Y12752257D01*
X-2080602Y12669400D01*
X-2080599Y12669397D01*
X-1997742Y12614035D01*
X-1997740Y12614034D01*
X-1997737Y12614033D01*
X-1997736Y12614033D01*
X-1924684Y12599501D01*
X-1924674Y12599500D01*
X-1924673Y12599500D01*
X-1375327Y12599500D01*
X-1375326Y12599500D01*
X-1375325Y12599500D01*
X-1375315Y12599501D01*
X-1302263Y12614033D01*
X-1302257Y12614035D01*
X-1219400Y12669397D01*
X-1219397Y12669400D01*
X-1182316Y12724898D01*
X-1134266Y12762778D01*
X-1073128Y12765180D01*
X-1022254Y12731188D01*
X-1017684Y12724898D01*
X-980602Y12669400D01*
X-980599Y12669397D01*
X-897742Y12614035D01*
X-897740Y12614034D01*
X-897737Y12614033D01*
X-897736Y12614033D01*
X-824684Y12599501D01*
X-824674Y12599500D01*
X-824673Y12599500D01*
X-275327Y12599500D01*
X-275326Y12599500D01*
X-275325Y12599500D01*
X-275315Y12599501D01*
X-202263Y12614033D01*
X-202257Y12614035D01*
X-119400Y12669397D01*
X-119397Y12669400D01*
X-82316Y12724898D01*
X-34266Y12762778D01*
X26872Y12765180D01*
X77746Y12731188D01*
X82316Y12724898D01*
X119397Y12669400D01*
X119400Y12669397D01*
X202257Y12614035D01*
X202263Y12614033D01*
X275315Y12599501D01*
X275325Y12599500D01*
X275326Y12599500D01*
X275327Y12599500D01*
X824673Y12599500D01*
X824674Y12599500D01*
X824684Y12599501D01*
X897736Y12614033D01*
X897737Y12614033D01*
X897740Y12614034D01*
X897742Y12614035D01*
X980599Y12669397D01*
X980602Y12669400D01*
X1017684Y12724898D01*
X1065734Y12762778D01*
X1126872Y12765180D01*
X1177746Y12731188D01*
X1182316Y12724898D01*
X1219397Y12669400D01*
X1219400Y12669397D01*
X1302257Y12614035D01*
X1302263Y12614033D01*
X1375315Y12599501D01*
X1375325Y12599500D01*
X1375326Y12599500D01*
X1375327Y12599500D01*
X1924673Y12599500D01*
X1924674Y12599500D01*
X1924684Y12599501D01*
X1997736Y12614033D01*
X1997737Y12614033D01*
X1997740Y12614034D01*
X1997742Y12614035D01*
X2080599Y12669397D01*
X2080602Y12669400D01*
X2117684Y12724898D01*
X2165734Y12762778D01*
X2226872Y12765180D01*
X2277746Y12731188D01*
X2282316Y12724898D01*
X2319397Y12669400D01*
X2319400Y12669397D01*
X2402257Y12614035D01*
X2402263Y12614033D01*
X2475315Y12599501D01*
X2475325Y12599500D01*
X2475326Y12599500D01*
X2475327Y12599500D01*
X3024673Y12599500D01*
X3024674Y12599500D01*
X3024684Y12599501D01*
X3097736Y12614033D01*
X3097737Y12614033D01*
X3097740Y12614034D01*
X3097742Y12614035D01*
X3180599Y12669397D01*
X3180602Y12669400D01*
X3235964Y12752257D01*
X3235966Y12752260D01*
X3250500Y12825326D01*
X3250500Y13374674D01*
X3250462Y13374861D01*
X3249106Y13381683D01*
X3256295Y13442444D01*
X3297827Y13487375D01*
X3346203Y13500000D01*
X3574630Y13500000D01*
X3585669Y13502196D01*
X3585669Y13502197D01*
X3300000Y13787868D01*
X3135455Y13623324D01*
X3080939Y13595547D01*
X3046135Y13596231D01*
X3024679Y13600499D01*
X3024674Y13600500D01*
X2927375Y13600500D01*
X2869184Y13619407D01*
X2833220Y13668907D01*
X2833220Y13730093D01*
X2857372Y13769504D01*
X3058873Y13971004D01*
X3113389Y13998781D01*
X3128876Y14000000D01*
X3471125Y14000000D01*
X3529316Y13981093D01*
X3541129Y13971003D01*
X3797801Y13714329D01*
X3800000Y13725377D01*
X3800000Y14274622D01*
X3799999Y14274627D01*
X3798596Y14281682D01*
X3805785Y14342444D01*
X3847316Y14387375D01*
X3895693Y14400000D01*
X4000999Y14400000D01*
X4059190Y14381093D01*
G37*
%TD.AperFunction*%
%TA.AperFunction,Conductor*%
G36*
X-13227858Y8375593D02*
G01*
X-13191894Y8326093D01*
X-13191894Y8264907D01*
X-13216045Y8225496D01*
X-13289450Y8152090D01*
X-13289451Y8152088D01*
X-13345533Y8042022D01*
X-13345534Y8042020D01*
X-13357151Y7968680D01*
X-13384929Y7914163D01*
X-13439445Y7886386D01*
X-13499877Y7895958D01*
X-13524936Y7914163D01*
X-13708504Y8097731D01*
X-13736281Y8152248D01*
X-13737500Y8167735D01*
X-13737500Y8253066D01*
X-13718593Y8311257D01*
X-13708504Y8323069D01*
X-13666071Y8365503D01*
X-13611555Y8393281D01*
X-13596067Y8394500D01*
X-13286049Y8394500D01*
X-13227858Y8375593D01*
G37*
%TD.AperFunction*%
%TA.AperFunction,Conductor*%
G36*
X-8417644Y11155593D02*
G01*
X-8405831Y11145504D01*
X-7560466Y10300140D01*
X-7560465Y10300138D01*
X-7499862Y10239535D01*
X-7499860Y10239534D01*
X-7449513Y10210466D01*
X-7425636Y10196681D01*
X-7425634Y10196680D01*
X-7342854Y10174499D01*
X-7342852Y10174499D01*
X-7251084Y10174499D01*
X-7251068Y10174500D01*
X-6778535Y10174500D01*
X-6720344Y10155593D01*
X-6684380Y10106093D01*
X-6684380Y10044907D01*
X-6708531Y10005496D01*
X-8359531Y8354496D01*
X-8414048Y8326719D01*
X-8429535Y8325500D01*
X-9660296Y8325500D01*
X-9718487Y8344407D01*
X-9748505Y8379554D01*
X-9759178Y8400500D01*
X-9760141Y8402391D01*
X-9837748Y8479998D01*
X-9865524Y8534513D01*
X-9855953Y8594945D01*
X-9837749Y8620000D01*
X-9760141Y8697609D01*
X-9759987Y8697911D01*
X-9703984Y8807821D01*
X-9703983Y8807825D01*
X-9699498Y8836137D01*
X-9671721Y8890649D01*
X-8831240Y9731132D01*
X-8831240Y9731133D01*
X-8831238Y9731135D01*
X-8831237Y9731134D01*
X-8770637Y9791735D01*
X-8770635Y9791738D01*
X-8743862Y9838111D01*
X-8727782Y9865961D01*
X-8727781Y9865961D01*
X-8727777Y9865970D01*
X-8726612Y9868783D01*
X-8725197Y9870438D01*
X-8724538Y9871581D01*
X-8724326Y9871458D01*
X-8686869Y9915304D01*
X-8660778Y9926511D01*
X-8621966Y9936911D01*
X-8613125Y9942015D01*
X-8502135Y10006095D01*
X-8404295Y10103935D01*
X-8335112Y10223764D01*
X-8299300Y10357417D01*
X-8299300Y10495783D01*
X-8335112Y10629436D01*
X-8404295Y10749265D01*
X-8502135Y10847105D01*
X-8621964Y10916288D01*
X-8651123Y10924101D01*
X-8702437Y10957424D01*
X-8724364Y11014545D01*
X-8724500Y11019725D01*
X-8724501Y11075498D01*
X-8705595Y11133689D01*
X-8656095Y11169654D01*
X-8625501Y11174500D01*
X-8475835Y11174500D01*
X-8417644Y11155593D01*
G37*
%TD.AperFunction*%
%TA.AperFunction,Conductor*%
G36*
X-7208507Y13005593D02*
G01*
X-7199334Y12998047D01*
X-6917847Y12736667D01*
X-6627253Y12466830D01*
X-6624616Y12464288D01*
X-6607927Y12447600D01*
X-6599862Y12439535D01*
X-6599859Y12439533D01*
X-6595037Y12435833D01*
X-6590086Y12432318D01*
X-6590084Y12432316D01*
X-6564943Y12419016D01*
X-6559153Y12415953D01*
X-6555951Y12414182D01*
X-6525640Y12396683D01*
X-6520011Y12394352D01*
X-6514324Y12392239D01*
X-6480204Y12384437D01*
X-6476651Y12383555D01*
X-6442850Y12374499D01*
X-6436571Y12373672D01*
X-6381348Y12347327D01*
X-6352156Y12293554D01*
X-6350500Y12275520D01*
X-6350500Y12048303D01*
X-6369407Y11990112D01*
X-6418907Y11954148D01*
X-6462636Y11950179D01*
X-8720777Y12252524D01*
X-8775943Y12278986D01*
X-8777642Y12280644D01*
X-8781355Y12284357D01*
X-8781356Y12284359D01*
X-8865641Y12368644D01*
X-8876424Y12373672D01*
X-8899509Y12384437D01*
X-8973670Y12419019D01*
X-9022897Y12425500D01*
X-9552102Y12425499D01*
X-9601330Y12419019D01*
X-9709359Y12368644D01*
X-9793644Y12284359D01*
X-9844019Y12176330D01*
X-9850500Y12127103D01*
X-9850499Y11872898D01*
X-9844019Y11823670D01*
X-9829175Y11791839D01*
X-9821717Y11731112D01*
X-9829173Y11708164D01*
X-9844019Y11676330D01*
X-9850500Y11627103D01*
X-9850499Y11372898D01*
X-9844019Y11323670D01*
X-9829175Y11291839D01*
X-9821717Y11231112D01*
X-9829173Y11208164D01*
X-9844019Y11176330D01*
X-9850500Y11127103D01*
X-9850499Y11000500D01*
X-9850499Y10999500D01*
X-9869406Y10941309D01*
X-9918906Y10905345D01*
X-9949499Y10900499D01*
X-10077102Y10900499D01*
X-10095848Y10898031D01*
X-10126325Y10894020D01*
X-10126325Y10894019D01*
X-10126330Y10894019D01*
X-10158160Y10879175D01*
X-10218886Y10871717D01*
X-10241838Y10879175D01*
X-10273670Y10894019D01*
X-10322897Y10900500D01*
X-10577102Y10900499D01*
X-10626330Y10894019D01*
X-10658160Y10879175D01*
X-10718886Y10871717D01*
X-10741838Y10879175D01*
X-10773670Y10894019D01*
X-10822897Y10900500D01*
X-11077102Y10900499D01*
X-11126330Y10894019D01*
X-11223471Y10848720D01*
X-11284199Y10841264D01*
X-11335314Y10868441D01*
X-11501004Y11034131D01*
X-11528781Y11088648D01*
X-11530000Y11104135D01*
X-11530000Y11318565D01*
X-11511093Y11376756D01*
X-11501004Y11388569D01*
X-11454114Y11435459D01*
X-11344067Y11545504D01*
X-11289552Y11573281D01*
X-11274065Y11574500D01*
X-10847902Y11574500D01*
X-10847890Y11574501D01*
X-10798670Y11580980D01*
X-10690643Y11631354D01*
X-10606354Y11715643D01*
X-10555983Y11823664D01*
X-10555981Y11823671D01*
X-10555147Y11830001D01*
X-10549500Y11872897D01*
X-10549500Y11990112D01*
X-10549500Y12127099D01*
X-10549501Y12127107D01*
X-10555980Y12176329D01*
X-10564152Y12193853D01*
X-10571609Y12254582D01*
X-10564153Y12277531D01*
X-10530982Y12348667D01*
X-10530981Y12348671D01*
X-10528351Y12368643D01*
X-10524500Y12397897D01*
X-10524500Y12925500D01*
X-10505594Y12983691D01*
X-10456094Y13019655D01*
X-10425501Y13024500D01*
X-7266698Y13024500D01*
X-7208507Y13005593D01*
G37*
%TD.AperFunction*%
%TA.AperFunction,Conductor*%
G36*
X-11316511Y13515468D02*
G01*
X-11276546Y13469138D01*
X-11271446Y13408166D01*
X-11272197Y13405180D01*
X-11275499Y13392855D01*
X-11275500Y13392852D01*
X-11275500Y13168510D01*
X-11294407Y13110319D01*
X-11304490Y13098512D01*
X-11318644Y13084359D01*
X-11369019Y12976330D01*
X-11375500Y12927103D01*
X-11375499Y12669400D01*
X-11375499Y12505791D01*
X-11394406Y12447600D01*
X-11432656Y12416068D01*
X-11534359Y12368644D01*
X-11618644Y12284359D01*
X-11669019Y12176330D01*
X-11669957Y12169202D01*
X-11696297Y12113976D01*
X-11698030Y12112195D01*
X-11764452Y12045773D01*
X-11818965Y12017999D01*
X-11879397Y12027570D01*
X-11903480Y12048144D01*
X-11905042Y12046583D01*
X-11997909Y12139450D01*
X-11997911Y12139451D01*
X-12107977Y12195533D01*
X-12107978Y12195534D01*
X-12199306Y12209999D01*
X-12250000Y12209998D01*
X-12250000Y11779000D01*
X-12268907Y11720809D01*
X-12318407Y11684845D01*
X-12349000Y11680000D01*
X-12399999Y11680000D01*
X-12400000Y11679999D01*
X-12400000Y11629000D01*
X-12418907Y11570809D01*
X-12468407Y11534845D01*
X-12499000Y11530000D01*
X-12959998Y11530000D01*
X-12959999Y11529999D01*
X-12959999Y11509306D01*
X-12945536Y11417984D01*
X-12945534Y11417977D01*
X-12889451Y11307911D01*
X-12889450Y11307909D01*
X-12851899Y11270358D01*
X-12824122Y11215841D01*
X-12833693Y11155409D01*
X-12851896Y11130353D01*
X-12889859Y11092391D01*
X-12889861Y11092386D01*
X-12889863Y11092385D01*
X-12894281Y11086306D01*
X-12943782Y11050344D01*
X-12974371Y11045500D01*
X-13453168Y11045500D01*
X-13453183Y11045501D01*
X-13459247Y11045501D01*
X-13544953Y11045501D01*
X-13612940Y11027283D01*
X-13674038Y11030484D01*
X-13721589Y11068988D01*
X-13737426Y11128088D01*
X-13716609Y11183816D01*
X-13683318Y11226475D01*
X-13680235Y11230232D01*
X-13133964Y11863512D01*
X-13081638Y11895225D01*
X-13020666Y11890125D01*
X-12974336Y11850160D01*
X-12972078Y11842079D01*
X-12959999Y11830000D01*
X-12550001Y11830000D01*
X-12550000Y11830001D01*
X-12550000Y12209998D01*
X-12550001Y12209999D01*
X-12575161Y12209999D01*
X-12633352Y12228906D01*
X-12669316Y12278406D01*
X-12669316Y12339592D01*
X-12646861Y12377264D01*
X-12640031Y12384437D01*
X-12594445Y12432318D01*
X-12517046Y12513612D01*
X-12513611Y12517047D01*
X-11887963Y13112714D01*
X-11884362Y13115978D01*
X-11432487Y13505768D01*
X-11376075Y13529459D01*
X-11316511Y13515468D01*
G37*
%TD.AperFunction*%
%TA.AperFunction,Conductor*%
G36*
X2429316Y13981093D02*
G01*
X2441129Y13971003D01*
X2642628Y13769503D01*
X2670405Y13714987D01*
X2660834Y13654555D01*
X2617569Y13611290D01*
X2572624Y13600500D01*
X2475326Y13600500D01*
X2453860Y13596230D01*
X2393100Y13603421D01*
X2364542Y13623325D01*
X2156871Y13830997D01*
X2129094Y13885513D01*
X2138665Y13945945D01*
X2181930Y13989210D01*
X2226875Y14000000D01*
X2371125Y14000000D01*
X2429316Y13981093D01*
G37*
%TD.AperFunction*%
%TA.AperFunction,Conductor*%
G36*
X866031Y17678148D02*
G01*
X870884Y17677910D01*
X1732436Y17614358D01*
X1737272Y17613881D01*
X2594638Y17508136D01*
X2599444Y17507423D01*
X3450599Y17359732D01*
X3455365Y17358784D01*
X4298231Y17169511D01*
X4302944Y17168331D01*
X5135521Y16937927D01*
X5140171Y16936516D01*
X5271889Y16893003D01*
X5321212Y16856797D01*
X5339834Y16798515D01*
X5320641Y16740417D01*
X5270966Y16704697D01*
X5240835Y16700000D01*
X4099999Y16700000D01*
X4099999Y16699999D01*
X4099999Y15499000D01*
X4081092Y15440809D01*
X4031592Y15404845D01*
X4000999Y15400000D01*
X3575377Y15400000D01*
X3564329Y15397802D01*
X3992128Y14970004D01*
X4019905Y14915487D01*
X4010334Y14855055D01*
X3992128Y14829996D01*
X3486129Y14323996D01*
X3431612Y14296219D01*
X3416125Y14295000D01*
X3183875Y14295000D01*
X3125684Y14313907D01*
X3113871Y14323996D01*
X2750000Y14687867D01*
X2386129Y14323996D01*
X2331612Y14296219D01*
X2316125Y14295000D01*
X2083875Y14295000D01*
X2025684Y14313907D01*
X2013871Y14323996D01*
X1466865Y14871003D01*
X1437869Y14899999D01*
X1862132Y14899999D01*
X2147801Y14614329D01*
X2171265Y14621446D01*
X2228741Y14621445D01*
X2252196Y14614329D01*
X2537866Y14899999D01*
X2962132Y14899999D01*
X3247801Y14614329D01*
X3271265Y14621446D01*
X3328741Y14621445D01*
X3352196Y14614329D01*
X3637867Y14900000D01*
X3352197Y15185669D01*
X3328740Y15178553D01*
X3271265Y15178552D01*
X3247801Y15185668D01*
X2962132Y14899999D01*
X2537866Y14899999D01*
X2537867Y14900000D01*
X2252197Y15185669D01*
X2228740Y15178553D01*
X2210933Y15178902D01*
X2193679Y15174492D01*
X2171265Y15178552D01*
X2147801Y15185668D01*
X1862132Y14899999D01*
X1437869Y14899999D01*
X1437868Y14900000D01*
X1150403Y15187464D01*
X1096471Y15188523D01*
X1047687Y15225451D01*
X1045208Y15229185D01*
X1037105Y15242010D01*
X1035966Y15247740D01*
X980601Y15330601D01*
X897740Y15385966D01*
X838243Y15397801D01*
X1364329Y15397801D01*
X1649999Y15112132D01*
X1935668Y15397801D01*
X2464329Y15397801D01*
X2749999Y15112132D01*
X3035669Y15397802D01*
X3035670Y15397802D01*
X3024627Y15399999D01*
X3024625Y15400000D01*
X2475377Y15400000D01*
X2464329Y15397801D01*
X1935668Y15397801D01*
X1935669Y15397802D01*
X1924627Y15399999D01*
X1924625Y15400000D01*
X1375377Y15400000D01*
X1364329Y15397801D01*
X838243Y15397801D01*
X824674Y15400500D01*
X275326Y15400500D01*
X275320Y15400498D01*
X275315Y15400498D01*
X272812Y15400000D01*
X202260Y15385966D01*
X202257Y15385964D01*
X119400Y15330602D01*
X119395Y15330597D01*
X82316Y15275102D01*
X34267Y15237222D01*
X-26871Y15234818D01*
X-77745Y15268810D01*
X-82316Y15275102D01*
X-119395Y15330597D01*
X-119400Y15330602D01*
X-202257Y15385964D01*
X-202260Y15385966D01*
X-272812Y15400000D01*
X-275315Y15400498D01*
X-275320Y15400498D01*
X-275326Y15400500D01*
X-824674Y15400500D01*
X-897740Y15385966D01*
X-980601Y15330601D01*
X-980602Y15330599D01*
X-980604Y15330597D01*
X-1017684Y15275102D01*
X-1065733Y15237222D01*
X-1126871Y15234818D01*
X-1177745Y15268810D01*
X-1182316Y15275102D01*
X-1219395Y15330597D01*
X-1219400Y15330602D01*
X-1302257Y15385964D01*
X-1302260Y15385966D01*
X-1372812Y15400000D01*
X-1375315Y15400498D01*
X-1375320Y15400498D01*
X-1375326Y15400500D01*
X-1924674Y15400500D01*
X-1997740Y15385966D01*
X-2080601Y15330601D01*
X-2080602Y15330599D01*
X-2080604Y15330597D01*
X-2117684Y15275102D01*
X-2165733Y15237222D01*
X-2226871Y15234818D01*
X-2277745Y15268810D01*
X-2282316Y15275102D01*
X-2319395Y15330597D01*
X-2319400Y15330602D01*
X-2402257Y15385964D01*
X-2402260Y15385966D01*
X-2472812Y15400000D01*
X-2475315Y15400498D01*
X-2475320Y15400498D01*
X-2475326Y15400500D01*
X-3024674Y15400500D01*
X-3097740Y15385966D01*
X-3180601Y15330601D01*
X-3180602Y15330599D01*
X-3180604Y15330597D01*
X-3217684Y15275102D01*
X-3265733Y15237222D01*
X-3326871Y15234818D01*
X-3377745Y15268810D01*
X-3382316Y15275102D01*
X-3419395Y15330597D01*
X-3419400Y15330602D01*
X-3502257Y15385964D01*
X-3502260Y15385966D01*
X-3572812Y15400000D01*
X-3575315Y15400498D01*
X-3575320Y15400498D01*
X-3575326Y15400500D01*
X-4124674Y15400500D01*
X-4197740Y15385966D01*
X-4280601Y15330601D01*
X-4335966Y15247740D01*
X-4335968Y15247728D01*
X-4337437Y15244184D01*
X-4377169Y15197654D01*
X-4436662Y15183363D01*
X-4451672Y15186195D01*
X-4708872Y14928996D01*
X-4763388Y14901219D01*
X-4778875Y14900000D01*
X-5121124Y14900000D01*
X-5179315Y14918907D01*
X-5191127Y14928996D01*
X-5447802Y15185670D01*
X-5449999Y15174627D01*
X-5450000Y15174625D01*
X-5450000Y14946203D01*
X-5468907Y14888012D01*
X-5518407Y14852048D01*
X-5568317Y14849106D01*
X-5575320Y14850499D01*
X-5575323Y14850499D01*
X-5575326Y14850500D01*
X-6124674Y14850500D01*
X-6197740Y14835966D01*
X-6280601Y14780601D01*
X-6335966Y14697740D01*
X-6350370Y14625326D01*
X-6350498Y14624684D01*
X-6350500Y14624672D01*
X-6350500Y14224500D01*
X-6369407Y14166309D01*
X-6418907Y14130345D01*
X-6449500Y14125500D01*
X-6665065Y14125500D01*
X-6723256Y14144407D01*
X-6735069Y14154496D01*
X-6761404Y14180831D01*
X-6789181Y14235348D01*
X-6790400Y14250835D01*
X-6790400Y14344181D01*
X-6790400Y14344183D01*
X-6826212Y14477836D01*
X-6895395Y14597665D01*
X-6993235Y14695505D01*
X-7113064Y14764688D01*
X-7246717Y14800500D01*
X-7385083Y14800500D01*
X-7518736Y14764688D01*
X-7638565Y14695505D01*
X-7736405Y14597665D01*
X-7805588Y14477836D01*
X-7841400Y14344183D01*
X-7841400Y14205817D01*
X-7805588Y14072164D01*
X-7736405Y13952335D01*
X-7638565Y13854495D01*
X-7638560Y13854492D01*
X-7636674Y13853045D01*
X-7635706Y13851637D01*
X-7633976Y13849907D01*
X-7634296Y13849586D01*
X-7602016Y13802622D01*
X-7603615Y13741457D01*
X-7640860Y13692914D01*
X-7696938Y13675500D01*
X-10948723Y13675500D01*
X-11006914Y13694407D01*
X-11042878Y13743907D01*
X-11042878Y13805093D01*
X-11009631Y13852546D01*
X-11008991Y13853045D01*
X-10820685Y14000000D01*
X-10545438Y14214804D01*
X-10541535Y14217699D01*
X-9835250Y14715121D01*
X-9831210Y14717821D01*
X-9101364Y15179989D01*
X-9097196Y15182487D01*
X-8717113Y15397802D01*
X-5235669Y15397802D01*
X-4949999Y15112132D01*
X-4664329Y15397801D01*
X-4675377Y15400000D01*
X-5224625Y15400000D01*
X-5224627Y15399999D01*
X-5235669Y15397802D01*
X-8717113Y15397802D01*
X-8614566Y15455894D01*
X-8345552Y15608289D01*
X-8341267Y15610579D01*
X-7569649Y15998979D01*
X-7565256Y16001057D01*
X-6775477Y16351142D01*
X-6770988Y16353001D01*
X-5965015Y16663899D01*
X-5960439Y16665536D01*
X-5140171Y16936516D01*
X-5135521Y16937927D01*
X-4302944Y17168331D01*
X-4298231Y17169511D01*
X-3455365Y17358784D01*
X-3450599Y17359732D01*
X-2599444Y17507423D01*
X-2594638Y17508136D01*
X-1737272Y17613881D01*
X-1732436Y17614358D01*
X-870884Y17677910D01*
X-866031Y17678148D01*
X-2430Y17699349D01*
X2430Y17699349D01*
X866031Y17678148D01*
G37*
%TD.AperFunction*%
%TD*%
M02*
