M48
; DRILL file KiCad 10.0.6 date 2026-09-26T23:25:40
; FORMAT={-:-/ absolute / metric / decimal}
; #@! TF.CreationDate,2026-09-26T23:25:40+02:00
; #@! TF.GenerationSoftware,Kicad,Pcbnew,10.0.6
; #@! TF.FileFunction,MixedPlating,1,2
FMAT,2
METRIC
; #@! TA.AperFunction,Plated,PTH,ViaDrill
T1C0.250
; #@! TA.AperFunction,Plated,PTH,ComponentDrill
T2C0.900
; #@! TA.AperFunction,NonPlated,NPTH,ComponentDrill
T3C0.991
; #@! TA.AperFunction,NonPlated,NPTH,ComponentDrill
T4C1.800
%
G90
G05
T1
X-14.4Y-8.0
X-14.4Y-9.6
X-12.8Y-8.0
X-12.8Y-9.6
X-12.346Y-5.432
X-11.2Y-8.0
X-11.171Y-5.46
X-9.6Y14.4
X-8.0Y14.4
X-7.48Y-7.2
X-6.4Y16.0
X-6.4Y14.4
X-6.4Y-14.4
X-6.4Y-16.0
X-6.067Y-9.079
X-5.412Y-8.2
X-5.326Y-6.313
X-5.158Y-9.65
X-4.932Y-7.044
X-4.8Y-12.8
X-4.8Y-14.4
X-4.8Y-16.0
X-4.1Y15.5
X-4.038Y-6.014
X-3.661Y-7.917
X-3.515Y7.4
X-3.2Y-12.8
X-3.2Y-14.4
X-3.2Y-16.0
X-3.183Y-4.12
X-3.161Y-6.158
X-3.049Y-3.225
X-2.97Y-10.5
X-2.183Y-6.433
X-1.6Y-11.2
X-1.6Y-12.8
X-1.508Y-5.478
X-1.368Y2.71
X-1.296Y4.281
X-1.248Y5.091
X-1.148Y-4.194
X-0.443Y0.648
X-0.37Y6.121
X-0.348Y-0.713
X-0.34Y-9.345
X-0.243Y-2.414
X0.0Y16.0
X0.0Y-12.8
X0.08Y8.1
X0.292Y2.983
X0.373Y-4.769
X1.562Y-13.4
X1.6Y16.0
X2.4Y-8.525
X2.48Y6.9
X3.193Y-11.738
X3.2Y16.0
X3.2Y-16.0
X4.8Y16.0
X4.8Y-16.0
X4.833Y-13.307
X5.284Y8.133
X6.4Y16.0
X6.4Y14.4
X6.4Y-16.0
X6.884Y-11.145
X7.819Y-11.233
X8.0Y14.4
X8.5Y11.0
X9.6Y11.2
X10.508Y-10.666
X10.58Y-9.921
X10.581Y-13.967
X11.2Y11.2
X11.5Y-11.19
X12.014Y12.6
X12.252Y-12.599
X12.657Y-7.869
X12.8Y11.2
T2
X-1.25Y12.0
X1.25Y12.0
T3
X-11.54Y11.0
X-6.46Y12.016
X-6.46Y9.984
T4
X-14.722Y8.5
X0.0Y-17.0
X14.722Y8.5
M30
