%TF.GenerationSoftware,KiCad,Pcbnew,10.0.6*%
%TF.CreationDate,2026-09-27T19:28:38+02:00*%
%TF.ProjectId,shotpuck,73686f74-7075-4636-9b2e-6b696361645f,rev?*%
%TF.SameCoordinates,Original*%
%TF.FileFunction,Profile,NP*%
%FSLAX46Y46*%
G04 Gerber Fmt 4.6, Leading zero omitted, Abs format (unit mm)*
G04 Created by KiCad (PCBNEW 10.0.6) date 2026-09-27 19:28:38*
%MOMM*%
%LPD*%
G01*
G04 APERTURE LIST*
%TA.AperFunction,Profile*%
%ADD10C,0.100000*%
%TD*%
G04 APERTURE END LIST*
D10*
X-18000000Y0D02*
X-17978318Y883218D01*
X-17978318Y883218D02*
X-17913325Y1764308D01*
X-17978318Y-883218D02*
X-18000000Y0D01*
X-17913325Y1764308D02*
X-17805177Y2641148D01*
X-17913325Y-1764308D02*
X-17978318Y-883218D01*
X-17805177Y2641148D02*
X-17654135Y3511625D01*
X-17805177Y-2641148D02*
X-17913325Y-1764308D01*
X-17654135Y3511625D02*
X-17460562Y4373643D01*
X-17654135Y-3511625D02*
X-17805177Y-2641148D01*
X-17460562Y4373643D02*
X-17224926Y5225124D01*
X-17460562Y-4373643D02*
X-17654135Y-3511625D01*
X-17224926Y5225124D02*
X-16947793Y6064017D01*
X-17224926Y-5225124D02*
X-17460562Y-4373643D01*
X-16947793Y6064017D02*
X-16629831Y6888301D01*
X-16947793Y-6064017D02*
X-17224926Y-5225124D01*
X-16629831Y6888301D02*
X-16271807Y7695991D01*
X-16629831Y-6888301D02*
X-16947793Y-6064017D01*
X-16271807Y7695991D02*
X-15874582Y8485141D01*
X-16271807Y-7695991D02*
X-16629831Y-6888301D01*
X-15874582Y8485141D02*
X-15439114Y9253849D01*
X-15874582Y-8485141D02*
X-16271807Y-7695991D01*
X-15439114Y9253849D02*
X-14966453Y10000264D01*
X-15439114Y-9253849D02*
X-15874582Y-8485141D01*
X-14966453Y10000264D02*
X-14457735Y10722587D01*
X-14966453Y-10000264D02*
X-15439114Y-9253849D01*
X-14457735Y10722587D02*
X-13914188Y11419079D01*
X-14457735Y-10722587D02*
X-14966453Y-10000264D01*
X-13914188Y11419079D02*
X-13337120Y12088061D01*
X-13914188Y-11419079D02*
X-14457735Y-10722587D01*
X-13337120Y12088061D02*
X-12727922Y12727922D01*
X-13337120Y-12088061D02*
X-13914188Y-11419079D01*
X-12727922Y12727922D02*
X-12088061Y13337120D01*
X-12727922Y-12727922D02*
X-13337120Y-12088061D01*
X-12088061Y13337120D02*
X-11419079Y13914188D01*
X-12088061Y-13337120D02*
X-12727922Y-12727922D01*
X-11419079Y13914188D02*
X-10722587Y14457735D01*
X-11419079Y-13914188D02*
X-12088061Y-13337120D01*
X-10722587Y14457735D02*
X-10000264Y14966453D01*
X-10722587Y-14457735D02*
X-11419079Y-13914188D01*
X-10000264Y14966453D02*
X-9253849Y15439114D01*
X-10000264Y-14966453D02*
X-10722587Y-14457735D01*
X-9253849Y15439114D02*
X-8485141Y15874582D01*
X-9253849Y-15439114D02*
X-10000264Y-14966453D01*
X-8485141Y15874582D02*
X-7695991Y16271807D01*
X-8485141Y-15874582D02*
X-9253849Y-15439114D01*
X-7695991Y16271807D02*
X-6888301Y16629831D01*
X-7695991Y-16271807D02*
X-8485141Y-15874582D01*
X-6888301Y16629831D02*
X-6064017Y16947793D01*
X-6888301Y-16629831D02*
X-7695991Y-16271807D01*
X-6500000Y-11750000D02*
X-6500000Y-16779616D01*
X-6500000Y-16779616D02*
X-6888301Y-16629831D01*
X-6492170Y-11431060D02*
X-6500000Y-11750000D01*
X-6468700Y-11112888D02*
X-6492170Y-11431060D01*
X-6429647Y-10796251D02*
X-6468700Y-11112888D01*
X-6375104Y-10481912D02*
X-6429647Y-10796251D01*
X-6305203Y-10170628D02*
X-6375104Y-10481912D01*
X-6220112Y-9863149D02*
X-6305203Y-10170628D01*
X-6120036Y-9560215D02*
X-6220112Y-9863149D01*
X-6064017Y16947793D02*
X-5225124Y17224926D01*
X-6005216Y-9262557D02*
X-6120036Y-9560215D01*
X-5875930Y-8970891D02*
X-6005216Y-9262557D01*
X-5732488Y-8685921D02*
X-5875930Y-8970891D01*
X-5575235Y-8408332D02*
X-5732488Y-8685921D01*
X-5404552Y-8138793D02*
X-5575235Y-8408332D01*
X-5225124Y17224926D02*
X-4373643Y17460562D01*
X-5220848Y-7877954D02*
X-5404552Y-8138793D01*
X-5024567Y-7626443D02*
X-5220848Y-7877954D01*
X-4816182Y-7384866D02*
X-5024567Y-7626443D01*
X-4596194Y-7153805D02*
X-4816182Y-7384866D01*
X-4373643Y17460562D02*
X-3511625Y17654135D01*
X-4365133Y-6933817D02*
X-4596194Y-7153805D01*
X-4200000Y0D02*
X-4194940Y-206084D01*
X-4194940Y206084D02*
X-4200000Y0D01*
X-4194940Y-206084D02*
X-4179775Y-411671D01*
X-4179775Y411671D02*
X-4194940Y206084D01*
X-4179775Y-411671D02*
X-4154541Y-616267D01*
X-4154541Y616267D02*
X-4179775Y411671D01*
X-4154541Y-616267D02*
X-4119298Y-819379D01*
X-4123556Y-6725432D02*
X-4365133Y-6933817D01*
X-4119298Y819379D02*
X-4154541Y616267D01*
X-4119298Y-819379D02*
X-4074131Y-1020516D01*
X-4074131Y1020516D02*
X-4119298Y819379D01*
X-4074131Y-1020516D02*
X-4019149Y-1219195D01*
X-4019149Y1219195D02*
X-4074131Y1020516D01*
X-4019149Y-1219195D02*
X-3954485Y-1414937D01*
X-3954485Y1414937D02*
X-4019149Y1219195D01*
X-3954485Y-1414937D02*
X-3880294Y-1607270D01*
X-3880294Y1607270D02*
X-3954485Y1414937D01*
X-3880294Y-1607270D02*
X-3796755Y-1795731D01*
X-3872045Y-6529151D02*
X-4123556Y-6725432D01*
X-3796755Y1795731D02*
X-3880294Y1607270D01*
X-3796755Y-1795731D02*
X-3704069Y-1979866D01*
X-3704069Y1979866D02*
X-3796755Y1795731D01*
X-3704069Y-1979866D02*
X-3602460Y-2159231D01*
X-3611206Y-6345447D02*
X-3872045Y-6529151D01*
X-3602460Y2159231D02*
X-3704069Y1979866D01*
X-3602460Y-2159231D02*
X-3492172Y-2333394D01*
X-3511625Y17654135D02*
X-2641148Y17805177D01*
X-3492172Y2333394D02*
X-3602460Y2159231D01*
X-3492172Y-2333394D02*
X-3373471Y-2501937D01*
X-3373471Y2501937D02*
X-3492172Y2333394D01*
X-3373471Y-2501937D02*
X-3246643Y-2664451D01*
X-3341667Y-6174764D02*
X-3611206Y-6345447D01*
X-3246643Y2664451D02*
X-3373471Y2501937D01*
X-3246643Y-2664451D02*
X-3111994Y-2820547D01*
X-3111994Y2820547D02*
X-3246643Y2664451D01*
X-3111994Y-2820547D02*
X-2969848Y-2969848D01*
X-3064078Y-6017511D02*
X-3341667Y-6174764D01*
X-2969848Y2969848D02*
X-3111994Y2820547D01*
X-2969848Y-2969848D02*
X-2820547Y-3111994D01*
X-2820547Y3111994D02*
X-2969848Y2969848D01*
X-2820547Y-3111994D02*
X-2664451Y-3246643D01*
X-2779108Y-5874069D02*
X-3064078Y-6017511D01*
X-2664451Y3246643D02*
X-2820547Y3111994D01*
X-2664451Y-3246643D02*
X-2501937Y-3373471D01*
X-2641148Y17805177D02*
X-1764308Y17913325D01*
X-2501937Y3373471D02*
X-2664451Y3246643D01*
X-2501937Y-3373471D02*
X-2333394Y-3492172D01*
X-2487442Y-5744783D02*
X-2779108Y-5874069D01*
X-2333394Y3492172D02*
X-2501937Y3373471D01*
X-2333394Y-3492172D02*
X-2159231Y-3602460D01*
X-2189784Y-5629963D02*
X-2487442Y-5744783D01*
X-2159231Y3602460D02*
X-2333394Y3492172D01*
X-2159231Y-3602460D02*
X-1979866Y-3704069D01*
X-1979866Y3704069D02*
X-2159231Y3602460D01*
X-1979866Y-3704069D02*
X-1795731Y-3796755D01*
X-1886850Y-5529887D02*
X-2189784Y-5629963D01*
X-1795731Y3796755D02*
X-1979866Y3704069D01*
X-1795731Y-3796755D02*
X-1607270Y-3880294D01*
X-1764308Y17913325D02*
X-883218Y17978318D01*
X-1607270Y3880294D02*
X-1795731Y3796755D01*
X-1607270Y-3880294D02*
X-1414937Y-3954485D01*
X-1579371Y-5444796D02*
X-1886850Y-5529887D01*
X-1414937Y3954485D02*
X-1607270Y3880294D01*
X-1414937Y-3954485D02*
X-1219195Y-4019149D01*
X-1268087Y-5374895D02*
X-1579371Y-5444796D01*
X-1219195Y4019149D02*
X-1414937Y3954485D01*
X-1219195Y-4019149D02*
X-1020516Y-4074131D01*
X-1020516Y4074131D02*
X-1219195Y4019149D01*
X-1020516Y-4074131D02*
X-819379Y-4119298D01*
X-953748Y-5320352D02*
X-1268087Y-5374895D01*
X-883218Y17978318D02*
X0Y18000000D01*
X-819379Y4119298D02*
X-1020516Y4074131D01*
X-819379Y-4119298D02*
X-616267Y-4154541D01*
X-637111Y-5281299D02*
X-953748Y-5320352D01*
X-616267Y4154541D02*
X-819379Y4119298D01*
X-616267Y-4154541D02*
X-411671Y-4179775D01*
X-411671Y4179775D02*
X-616267Y4154541D01*
X-411671Y-4179775D02*
X-206084Y-4194940D01*
X-318939Y-5257829D02*
X-637111Y-5281299D01*
X-206084Y4194940D02*
X-411671Y4179775D01*
X-206084Y-4194940D02*
X0Y-4200000D01*
X0Y18000000D02*
X883218Y17978318D01*
X0Y4200000D02*
X-206084Y4194940D01*
X0Y-4200000D02*
X206084Y-4194940D01*
X0Y-5250000D02*
X-318939Y-5257829D01*
X206084Y4194940D02*
X0Y4200000D01*
X206084Y-4194940D02*
X411671Y-4179775D01*
X318939Y-5257829D02*
X0Y-5250000D01*
X411671Y4179775D02*
X206084Y4194940D01*
X411671Y-4179775D02*
X616267Y-4154541D01*
X616267Y4154541D02*
X411671Y4179775D01*
X616267Y-4154541D02*
X819379Y-4119298D01*
X637111Y-5281299D02*
X318939Y-5257829D01*
X819379Y4119298D02*
X616267Y4154541D01*
X819379Y-4119298D02*
X1020516Y-4074131D01*
X883218Y17978318D02*
X1764308Y17913325D01*
X953748Y-5320352D02*
X637111Y-5281299D01*
X1020516Y4074131D02*
X819379Y4119298D01*
X1020516Y-4074131D02*
X1219195Y-4019149D01*
X1219195Y4019149D02*
X1020516Y4074131D01*
X1219195Y-4019149D02*
X1414937Y-3954485D01*
X1268087Y-5374895D02*
X953748Y-5320352D01*
X1414937Y3954485D02*
X1219195Y4019149D01*
X1414937Y-3954485D02*
X1607270Y-3880294D01*
X1579371Y-5444796D02*
X1268087Y-5374895D01*
X1607270Y3880294D02*
X1414937Y3954485D01*
X1607270Y-3880294D02*
X1795731Y-3796755D01*
X1764308Y17913325D02*
X2641148Y17805177D01*
X1795731Y3796755D02*
X1607270Y3880294D01*
X1795731Y-3796755D02*
X1979866Y-3704069D01*
X1886850Y-5529887D02*
X1579371Y-5444796D01*
X1979866Y3704069D02*
X1795731Y3796755D01*
X1979866Y-3704069D02*
X2159231Y-3602460D01*
X2159231Y3602460D02*
X1979866Y3704069D01*
X2159231Y-3602460D02*
X2333394Y-3492172D01*
X2189784Y-5629963D02*
X1886850Y-5529887D01*
X2333394Y3492172D02*
X2159231Y3602460D01*
X2333394Y-3492172D02*
X2501937Y-3373471D01*
X2487442Y-5744783D02*
X2189784Y-5629963D01*
X2501937Y3373471D02*
X2333394Y3492172D01*
X2501937Y-3373471D02*
X2664451Y-3246643D01*
X2641148Y17805177D02*
X3511625Y17654135D01*
X2664451Y3246643D02*
X2501937Y3373471D01*
X2664451Y-3246643D02*
X2820547Y-3111994D01*
X2779108Y-5874069D02*
X2487442Y-5744783D01*
X2820547Y3111994D02*
X2664451Y3246643D01*
X2820547Y-3111994D02*
X2969848Y-2969848D01*
X2969848Y2969848D02*
X2820547Y3111994D01*
X2969848Y-2969848D02*
X3111994Y-2820547D01*
X3064078Y-6017511D02*
X2779108Y-5874069D01*
X3111994Y2820547D02*
X2969848Y2969848D01*
X3111994Y-2820547D02*
X3246643Y-2664451D01*
X3246643Y2664451D02*
X3111994Y2820547D01*
X3246643Y-2664451D02*
X3373471Y-2501937D01*
X3341667Y-6174764D02*
X3064078Y-6017511D01*
X3373471Y2501937D02*
X3246643Y2664451D01*
X3373471Y-2501937D02*
X3492172Y-2333394D01*
X3492172Y2333394D02*
X3373471Y2501937D01*
X3492172Y-2333394D02*
X3602460Y-2159231D01*
X3511625Y17654135D02*
X4373643Y17460562D01*
X3602460Y2159231D02*
X3492172Y2333394D01*
X3602460Y-2159231D02*
X3704069Y-1979866D01*
X3611206Y-6345447D02*
X3341667Y-6174764D01*
X3704069Y1979866D02*
X3602460Y2159231D01*
X3704069Y-1979866D02*
X3796755Y-1795731D01*
X3796755Y1795731D02*
X3704069Y1979866D01*
X3796755Y-1795731D02*
X3880294Y-1607270D01*
X3872045Y-6529151D02*
X3611206Y-6345447D01*
X3880294Y1607270D02*
X3796755Y1795731D01*
X3880294Y-1607270D02*
X3954485Y-1414937D01*
X3954485Y1414937D02*
X3880294Y1607270D01*
X3954485Y-1414937D02*
X4019149Y-1219195D01*
X4019149Y1219195D02*
X3954485Y1414937D01*
X4019149Y-1219195D02*
X4074131Y-1020516D01*
X4074131Y1020516D02*
X4019149Y1219195D01*
X4074131Y-1020516D02*
X4119298Y-819379D01*
X4119298Y819379D02*
X4074131Y1020516D01*
X4119298Y-819379D02*
X4154541Y-616267D01*
X4123556Y-6725432D02*
X3872045Y-6529151D01*
X4154541Y616267D02*
X4119298Y819379D01*
X4154541Y-616267D02*
X4179775Y-411671D01*
X4179775Y411671D02*
X4154541Y616267D01*
X4179775Y-411671D02*
X4194940Y-206084D01*
X4194940Y206084D02*
X4179775Y411671D01*
X4194940Y-206084D02*
X4200000Y0D01*
X4200000Y0D02*
X4194940Y206084D01*
X4365133Y-6933817D02*
X4123556Y-6725432D01*
X4373643Y17460562D02*
X5225124Y17224926D01*
X4596194Y-7153805D02*
X4365133Y-6933817D01*
X4816182Y-7384866D02*
X4596194Y-7153805D01*
X5024567Y-7626443D02*
X4816182Y-7384866D01*
X5220848Y-7877954D02*
X5024567Y-7626443D01*
X5225124Y17224926D02*
X6064017Y16947793D01*
X5404552Y-8138793D02*
X5220848Y-7877954D01*
X5575235Y-8408332D02*
X5404552Y-8138793D01*
X5732488Y-8685921D02*
X5575235Y-8408332D01*
X5875930Y-8970891D02*
X5732488Y-8685921D01*
X6005216Y-9262557D02*
X5875930Y-8970891D01*
X6064017Y16947793D02*
X6888301Y16629831D01*
X6120036Y-9560215D02*
X6005216Y-9262557D01*
X6220112Y-9863149D02*
X6120036Y-9560215D01*
X6305203Y-10170628D02*
X6220112Y-9863149D01*
X6375104Y-10481912D02*
X6305203Y-10170628D01*
X6429647Y-10796251D02*
X6375104Y-10481912D01*
X6468700Y-11112888D02*
X6429647Y-10796251D01*
X6492170Y-11431060D02*
X6468700Y-11112888D01*
X6500000Y-11750000D02*
X6492170Y-11431060D01*
X6500000Y-16779616D02*
X6500000Y-11750000D01*
X6888301Y16629831D02*
X7695991Y16271807D01*
X6888301Y-16629831D02*
X6500000Y-16779616D01*
X7695991Y16271807D02*
X8485141Y15874582D01*
X7695991Y-16271807D02*
X6888301Y-16629831D01*
X8485141Y15874582D02*
X9253849Y15439114D01*
X8485141Y-15874582D02*
X7695991Y-16271807D01*
X9253849Y15439114D02*
X10000264Y14966453D01*
X9253849Y-15439114D02*
X8485141Y-15874582D01*
X10000264Y14966453D02*
X10722587Y14457735D01*
X10000264Y-14966453D02*
X9253849Y-15439114D01*
X10722587Y14457735D02*
X11419079Y13914188D01*
X10722587Y-14457735D02*
X10000264Y-14966453D01*
X11419079Y13914188D02*
X12088061Y13337120D01*
X11419079Y-13914188D02*
X10722587Y-14457735D01*
X12088061Y13337120D02*
X12727922Y12727922D01*
X12088061Y-13337120D02*
X11419079Y-13914188D01*
X12727922Y12727922D02*
X13337120Y12088061D01*
X12727922Y-12727922D02*
X12088061Y-13337120D01*
X13337120Y12088061D02*
X13914188Y11419079D01*
X13337120Y-12088061D02*
X12727922Y-12727922D01*
X13914188Y11419079D02*
X14457735Y10722587D01*
X13914188Y-11419079D02*
X13337120Y-12088061D01*
X14457735Y10722587D02*
X14966453Y10000264D01*
X14457735Y-10722587D02*
X13914188Y-11419079D01*
X14966453Y10000264D02*
X15439114Y9253849D01*
X14966453Y-10000264D02*
X14457735Y-10722587D01*
X15439114Y9253849D02*
X15874582Y8485141D01*
X15439114Y-9253849D02*
X14966453Y-10000264D01*
X15874582Y8485141D02*
X16271807Y7695991D01*
X15874582Y-8485141D02*
X15439114Y-9253849D01*
X16271807Y7695991D02*
X16629831Y6888301D01*
X16271807Y-7695991D02*
X15874582Y-8485141D01*
X16629831Y6888301D02*
X16947793Y6064017D01*
X16629831Y-6888301D02*
X16271807Y-7695991D01*
X16947793Y6064017D02*
X17224926Y5225124D01*
X16947793Y-6064017D02*
X16629831Y-6888301D01*
X17224926Y5225124D02*
X17460562Y4373643D01*
X17224926Y-5225124D02*
X16947793Y-6064017D01*
X17460562Y4373643D02*
X17654135Y3511625D01*
X17460562Y-4373643D02*
X17224926Y-5225124D01*
X17654135Y3511625D02*
X17805177Y2641148D01*
X17654135Y-3511625D02*
X17460562Y-4373643D01*
X17805177Y2641148D02*
X17913325Y1764308D01*
X17805177Y-2641148D02*
X17654135Y-3511625D01*
X17913325Y1764308D02*
X17978318Y883218D01*
X17913325Y-1764308D02*
X17805177Y-2641148D01*
X17978318Y883218D02*
X18000000Y0D01*
X17978318Y-883218D02*
X17913325Y-1764308D01*
X18000000Y0D02*
X17978318Y-883218D01*
M02*
