%TF.GenerationSoftware,KiCad,Pcbnew,10.0.6*%
%TF.CreationDate,2026-09-27T13:07:57+02:00*%
%TF.ProjectId,shotpuck,73686f74-7075-4636-9b2e-6b696361645f,rev?*%
%TF.SameCoordinates,Original*%
%TF.FileFunction,Copper,L1,Top*%
%TF.FilePolarity,Positive*%
%FSLAX46Y46*%
G04 Gerber Fmt 4.6, Leading zero omitted, Abs format (unit mm)*
G04 Created by KiCad (PCBNEW 10.0.6) date 2026-09-27 13:07:57*
%MOMM*%
%LPD*%
G01*
G04 APERTURE LIST*
G04 Aperture macros list*
%AMRoundRect*
0 Rectangle with rounded corners*
0 $1 Rounding radius*
0 $2 $3 $4 $5 $6 $7 $8 $9 X,Y pos of 4 corners*
0 Add a 4 corners polygon primitive as box body*
4,1,4,$2,$3,$4,$5,$6,$7,$8,$9,$2,$3,0*
0 Add four circle primitives for the rounded corners*
1,1,$1+$1,$2,$3*
1,1,$1+$1,$4,$5*
1,1,$1+$1,$6,$7*
1,1,$1+$1,$8,$9*
0 Add four rect primitives between the rounded corners*
20,1,$1+$1,$2,$3,$4,$5,0*
20,1,$1+$1,$4,$5,$6,$7,0*
20,1,$1+$1,$6,$7,$8,$9,0*
20,1,$1+$1,$8,$9,$2,$3,0*%
G04 Aperture macros list end*
%TA.AperFunction,EtchedComponent*%
%ADD10C,0.000000*%
%TD*%
%TA.AperFunction,SMDPad,CuDef*%
%ADD11RoundRect,0.140000X0.140000X0.170000X-0.140000X0.170000X-0.140000X-0.170000X0.140000X-0.170000X0*%
%TD*%
%TA.AperFunction,SMDPad,CuDef*%
%ADD12RoundRect,0.225000X0.250000X-0.225000X0.250000X0.225000X-0.250000X0.225000X-0.250000X-0.225000X0*%
%TD*%
%TA.AperFunction,ConnectorPad*%
%ADD13C,0.787400*%
%TD*%
%TA.AperFunction,SMDPad,CuDef*%
%ADD14RoundRect,0.150000X0.150000X0.200000X-0.150000X0.200000X-0.150000X-0.200000X0.150000X-0.200000X0*%
%TD*%
%TA.AperFunction,SMDPad,CuDef*%
%ADD15RoundRect,0.147500X-0.147500X-0.172500X0.147500X-0.172500X0.147500X0.172500X-0.147500X0.172500X0*%
%TD*%
%TA.AperFunction,SMDPad,CuDef*%
%ADD16RoundRect,0.135000X-0.135000X-0.185000X0.135000X-0.185000X0.135000X0.185000X-0.135000X0.185000X0*%
%TD*%
%TA.AperFunction,SMDPad,CuDef*%
%ADD17RoundRect,0.087500X-0.425000X-0.087500X0.425000X-0.087500X0.425000X0.087500X-0.425000X0.087500X0*%
%TD*%
%TA.AperFunction,SMDPad,CuDef*%
%ADD18RoundRect,0.125000X0.125000X0.125000X-0.125000X0.125000X-0.125000X-0.125000X0.125000X-0.125000X0*%
%TD*%
%TA.AperFunction,SMDPad,CuDef*%
%ADD19R,1.500000X1.000000*%
%TD*%
%TA.AperFunction,SMDPad,CuDef*%
%ADD20RoundRect,0.140000X-0.140000X-0.170000X0.140000X-0.170000X0.140000X0.170000X-0.140000X0.170000X0*%
%TD*%
%TA.AperFunction,SMDPad,CuDef*%
%ADD21RoundRect,0.150000X-0.512500X-0.150000X0.512500X-0.150000X0.512500X0.150000X-0.512500X0.150000X0*%
%TD*%
%TA.AperFunction,SMDPad,CuDef*%
%ADD22RoundRect,0.135000X0.185000X-0.135000X0.185000X0.135000X-0.185000X0.135000X-0.185000X-0.135000X0*%
%TD*%
%TA.AperFunction,SMDPad,CuDef*%
%ADD23RoundRect,0.225000X-0.225000X-0.250000X0.225000X-0.250000X0.225000X0.250000X-0.225000X0.250000X0*%
%TD*%
%TA.AperFunction,ComponentPad*%
%ADD24R,1.300000X1.300000*%
%TD*%
%TA.AperFunction,ComponentPad*%
%ADD25C,1.300000*%
%TD*%
%TA.AperFunction,SMDPad,CuDef*%
%ADD26RoundRect,0.070000X-0.355000X0.070000X-0.355000X-0.070000X0.355000X-0.070000X0.355000X0.070000X0*%
%TD*%
%TA.AperFunction,SMDPad,CuDef*%
%ADD27RoundRect,0.070000X-0.305000X0.070000X-0.305000X-0.070000X0.305000X-0.070000X0.305000X0.070000X0*%
%TD*%
%TA.AperFunction,SMDPad,CuDef*%
%ADD28R,0.400000X0.600000*%
%TD*%
%TA.AperFunction,SMDPad,CuDef*%
%ADD29R,0.600000X0.400000*%
%TD*%
%TA.AperFunction,SMDPad,CuDef*%
%ADD30RoundRect,0.087500X-0.087500X0.225000X-0.087500X-0.225000X0.087500X-0.225000X0.087500X0.225000X0*%
%TD*%
%TA.AperFunction,SMDPad,CuDef*%
%ADD31RoundRect,0.087500X-0.225000X0.087500X-0.225000X-0.087500X0.225000X-0.087500X0.225000X0.087500X0*%
%TD*%
%TA.AperFunction,ComponentPad*%
%ADD32R,3.000000X2.000000*%
%TD*%
%TA.AperFunction,ViaPad*%
%ADD33C,0.500000*%
%TD*%
%TA.AperFunction,Conductor*%
%ADD34C,0.200000*%
%TD*%
G04 APERTURE END LIST*
D10*
%TA.AperFunction,EtchedComponent*%
%TO.C,JP1*%
G36*
X9500000Y12750000D02*
G01*
X8900000Y12750000D01*
X8900000Y13250000D01*
X9500000Y13250000D01*
X9500000Y12750000D01*
G37*
%TD.AperFunction*%
%TD*%
D11*
%TO.P,C6,1*%
%TO.N,VDD*%
X-5620000Y-7200000D03*
%TO.P,C6,2*%
%TO.N,GND*%
X-6580000Y-7200000D03*
%TD*%
D12*
%TO.P,C2,1*%
%TO.N,VBAT*%
X2400000Y-10975000D03*
%TO.P,C2,2*%
%TO.N,GND*%
X2400000Y-9425000D03*
%TD*%
D13*
%TO.P,J2,1*%
%TO.N,VDD*%
X-9270000Y7765000D03*
%TO.P,J2,2*%
%TO.N,SWDIO*%
X-9270000Y9035000D03*
%TO.P,J2,3*%
%TO.N,N/C*%
X-8000000Y7765000D03*
%TO.P,J2,4*%
%TO.N,SWDCLK*%
X-8000000Y9035000D03*
%TO.P,J2,5*%
%TO.N,GND*%
X-6730000Y7765000D03*
%TO.P,J2,6*%
%TO.N,N/C*%
X-6730000Y9035000D03*
%TD*%
D14*
%TO.P,D3,1*%
%TO.N,GND*%
X-3700000Y10300000D03*
%TO.P,D3,2*%
%TO.N,VIN_RAW*%
X-2300000Y10300000D03*
%TD*%
D15*
%TO.P,D4,1*%
%TO.N,GND*%
X5415000Y10200000D03*
%TO.P,D4,2*%
%TO.N,LED_A*%
X6385000Y10200000D03*
%TD*%
D16*
%TO.P,R4,1*%
%TO.N,LED_IO*%
X5390000Y8900000D03*
%TO.P,R4,2*%
%TO.N,LED_A*%
X6410000Y8900000D03*
%TD*%
D17*
%TO.P,Q1,1*%
%TO.N,GND*%
X8362500Y-11950000D03*
%TO.P,Q1,2*%
%TO.N,Q1_GATE*%
X8362500Y-12600000D03*
%TO.P,Q1,3*%
X8362500Y-13250000D03*
%TO.P,Q1,4*%
%TO.N,GND*%
X10037500Y-13250000D03*
%TO.P,Q1,5*%
%TO.N,CHG_INH*%
X10037500Y-12600000D03*
%TO.P,Q1,6*%
%TO.N,PROG_SW*%
X10037500Y-11950000D03*
%TD*%
D16*
%TO.P,R8,1*%
%TO.N,PCM_VM*%
X-9710000Y-10000000D03*
%TO.P,R8,2*%
%TO.N,GND*%
X-8690000Y-10000000D03*
%TD*%
D18*
%TO.P,D2,1*%
%TO.N,STAT*%
X800000Y-12900000D03*
%TO.P,D2,2*%
%TO.N,CHG_STAT*%
X-1400000Y-12900000D03*
%TD*%
D19*
%TO.P,JP1,1*%
%TO.N,BAT_P*%
X9200000Y12350000D03*
%TO.P,JP1,2*%
%TO.N,VBAT*%
X9200000Y13650000D03*
%TD*%
D20*
%TO.P,C5,1*%
%TO.N,VDD*%
X-1780000Y8100000D03*
%TO.P,C5,2*%
%TO.N,GND*%
X-820000Y8100000D03*
%TD*%
D21*
%TO.P,U3,1*%
%TO.N,STAT*%
X2762500Y-12450000D03*
%TO.P,U3,2*%
%TO.N,GND*%
X2762500Y-13400000D03*
%TO.P,U3,3*%
%TO.N,VBAT*%
X2762500Y-14350000D03*
%TO.P,U3,4*%
%TO.N,VIN*%
X5037500Y-14350000D03*
%TO.P,U3,5*%
%TO.N,PROG*%
X5037500Y-12450000D03*
%TD*%
D22*
%TO.P,R3,1*%
%TO.N,CHG_INH*%
X5400000Y-10810000D03*
%TO.P,R3,2*%
%TO.N,GND*%
X5400000Y-9790000D03*
%TD*%
D20*
%TO.P,C8,1*%
%TO.N,PCM_BAT*%
X-12680000Y-10200000D03*
%TO.P,C8,2*%
%TO.N,BAT_N*%
X-11720000Y-10200000D03*
%TD*%
D22*
%TO.P,R6,1*%
%TO.N,VDD*%
X100000Y-11310000D03*
%TO.P,R6,2*%
%TO.N,SDA*%
X100000Y-10290000D03*
%TD*%
%TO.P,R1,1*%
%TO.N,PROG*%
X6900000Y-14110000D03*
%TO.P,R1,2*%
%TO.N,PROG_SW*%
X6900000Y-13090000D03*
%TD*%
D20*
%TO.P,C3,1*%
%TO.N,VBAT*%
X620000Y6900000D03*
%TO.P,C3,2*%
%TO.N,GND*%
X1580000Y6900000D03*
%TD*%
D18*
%TO.P,D1,1*%
%TO.N,VIN*%
X1100000Y10300000D03*
%TO.P,D1,2*%
%TO.N,VIN_RAW*%
X-1100000Y10300000D03*
%TD*%
D16*
%TO.P,R7,1*%
%TO.N,VBAT*%
X-12710000Y-11600000D03*
%TO.P,R7,2*%
%TO.N,PCM_BAT*%
X-11690000Y-11600000D03*
%TD*%
D23*
%TO.P,C1,1*%
%TO.N,VIN*%
X2425000Y10200000D03*
%TO.P,C1,2*%
%TO.N,GND*%
X3975000Y10200000D03*
%TD*%
D20*
%TO.P,C4,1*%
%TO.N,VDD*%
X-1780000Y6900000D03*
%TO.P,C4,2*%
%TO.N,GND*%
X-820000Y6900000D03*
%TD*%
D24*
%TO.P,J1,1*%
%TO.N,VIN_RAW*%
X-1250000Y13500000D03*
D25*
%TO.P,J1,2*%
%TO.N,GND*%
X1250000Y13500000D03*
%TD*%
D20*
%TO.P,C7,1*%
%TO.N,VDD*%
X-4830000Y-10500000D03*
%TO.P,C7,2*%
%TO.N,GND*%
X-3870000Y-10500000D03*
%TD*%
D26*
%TO.P,U4,1*%
%TO.N,N/C*%
X-12725000Y-7699999D03*
D27*
%TO.P,U4,2*%
%TO.N,PCM_COUT*%
X-12775000Y-8199999D03*
%TO.P,U4,3*%
%TO.N,PCM_DOUT*%
X-12775000Y-8699999D03*
%TO.P,U4,4*%
%TO.N,BAT_N*%
X-11625000Y-8699999D03*
%TO.P,U4,5*%
%TO.N,PCM_BAT*%
X-11625000Y-8199999D03*
%TO.P,U4,6*%
%TO.N,PCM_VM*%
X-11625000Y-7699999D03*
%TD*%
D17*
%TO.P,Q2,1*%
%TO.N,BAT_N*%
X-9837500Y-7350000D03*
%TO.P,Q2,2*%
%TO.N,PCM_DOUT*%
X-9837500Y-8000000D03*
%TO.P,Q2,3*%
%TO.N,PCM_D*%
X-9837500Y-8650000D03*
%TO.P,Q2,4*%
%TO.N,GND*%
X-8162500Y-8650000D03*
%TO.P,Q2,5*%
%TO.N,PCM_COUT*%
X-8162500Y-8000000D03*
%TO.P,Q2,6*%
%TO.N,PCM_D*%
X-8162500Y-7350000D03*
%TD*%
D28*
%TO.P,U1,1*%
%TO.N,GND*%
X-13000000Y-4650000D03*
%TO.P,U1,2*%
X-11900000Y-4650000D03*
%TO.P,U1,3*%
%TO.N,N/C*%
X-11100000Y-4650000D03*
%TO.P,U1,4*%
X-9500000Y-4650000D03*
%TO.P,U1,5*%
X-9100000Y-3750000D03*
%TO.P,U1,6*%
X-8700000Y-4650000D03*
%TO.P,U1,7*%
X-8300000Y-3750000D03*
%TO.P,U1,8*%
X-7900000Y-4650000D03*
%TO.P,U1,9*%
X-7500000Y-3750000D03*
%TO.P,U1,10*%
X-7100000Y-4650000D03*
%TO.P,U1,11*%
X-6700000Y-3750000D03*
%TO.P,U1,12*%
X-6300000Y-4650000D03*
%TO.P,U1,13*%
X-5900000Y-3750000D03*
%TO.P,U1,14*%
X-5500000Y-4650000D03*
D29*
%TO.P,U1,15*%
%TO.N,GND*%
X-2100000Y-4800000D03*
%TO.P,U1,16*%
%TO.N,CHG_INH*%
X-2100000Y-4000000D03*
%TO.P,U1,17*%
%TO.N,N/C*%
X-2100000Y-3200000D03*
%TO.P,U1,18*%
X-2100000Y-2400000D03*
%TO.P,U1,19*%
X-3000000Y-2000000D03*
%TO.P,U1,20*%
%TO.N,SCL*%
X-2100000Y-1600000D03*
%TO.P,U1,21*%
%TO.N,N/C*%
X-3000000Y-1200000D03*
%TO.P,U1,22*%
%TO.N,SDA*%
X-2100000Y-800000D03*
%TO.P,U1,23*%
%TO.N,N/C*%
X-3000000Y-400000D03*
%TO.P,U1,24*%
%TO.N,ACC_INT1*%
X-2100000Y0D03*
%TO.P,U1,25*%
%TO.N,N/C*%
X-3000000Y400000D03*
%TO.P,U1,26*%
%TO.N,CHG_STAT*%
X-2100000Y800000D03*
%TO.P,U1,27*%
%TO.N,N/C*%
X-3000000Y1200000D03*
%TO.P,U1,28*%
%TO.N,VDD*%
X-2100000Y1600000D03*
%TO.P,U1,29*%
%TO.N,N/C*%
X-3000000Y2000000D03*
%TO.P,U1,30*%
%TO.N,VBAT*%
X-2100000Y2400000D03*
%TO.P,U1,31*%
%TO.N,N/C*%
X-2100000Y3200000D03*
%TO.P,U1,32*%
%TO.N,VIN*%
X-2100000Y4000000D03*
%TO.P,U1,33*%
%TO.N,GND*%
X-2100000Y4800000D03*
D28*
%TO.P,U1,34*%
%TO.N,N/C*%
X-3100000Y4650000D03*
%TO.P,U1,35*%
X-3900000Y4650000D03*
%TO.P,U1,36*%
X-4300000Y3750000D03*
%TO.P,U1,37*%
%TO.N,LED_IO*%
X-4700000Y4650000D03*
%TO.P,U1,38*%
%TO.N,N/C*%
X-5100000Y3750000D03*
%TO.P,U1,39*%
X-5500000Y4650000D03*
%TO.P,U1,40*%
X-5900000Y3750000D03*
%TO.P,U1,41*%
X-6300000Y4650000D03*
%TO.P,U1,42*%
X-6700000Y3750000D03*
%TO.P,U1,43*%
X-7500000Y3750000D03*
%TO.P,U1,44*%
X-7900000Y4650000D03*
%TO.P,U1,45*%
X-8300000Y3750000D03*
%TO.P,U1,46*%
X-8700000Y4650000D03*
%TO.P,U1,47*%
X-9100000Y3750000D03*
%TO.P,U1,48*%
X-9500000Y4650000D03*
%TO.P,U1,49*%
X-9900000Y3750000D03*
%TO.P,U1,50*%
X-10700000Y3750000D03*
%TO.P,U1,51*%
%TO.N,SWDIO*%
X-11100000Y4650000D03*
%TO.P,U1,52*%
%TO.N,N/C*%
X-11500000Y3750000D03*
%TO.P,U1,53*%
%TO.N,SWDCLK*%
X-11900000Y4650000D03*
%TO.P,U1,54*%
%TO.N,N/C*%
X-12300000Y3750000D03*
%TO.P,U1,55*%
%TO.N,GND*%
X-13000000Y4650000D03*
D29*
%TO.P,U1,56*%
%TO.N,N/C*%
X-8700000Y-2000000D03*
%TO.P,U1,57*%
X-8700000Y-1200000D03*
%TO.P,U1,58*%
X-8700000Y-400000D03*
%TO.P,U1,59*%
X-8700000Y400000D03*
%TO.P,U1,60*%
X-8700000Y1200000D03*
%TO.P,U1,61*%
X-8700000Y2000000D03*
%TD*%
D30*
%TO.P,U2,1*%
%TO.N,GND*%
X-2850000Y-7037499D03*
%TO.P,U2,2*%
X-3350000Y-7037499D03*
%TO.P,U2,3*%
X-3850000Y-7037499D03*
%TO.P,U2,4*%
%TO.N,ACC_INT1*%
X-4350000Y-7037499D03*
D31*
%TO.P,U2,5*%
%TO.N,VDD*%
X-4512500Y-7699999D03*
%TO.P,U2,6*%
%TO.N,GND*%
X-4512500Y-8199999D03*
%TO.P,U2,7*%
X-4512500Y-8699999D03*
D30*
%TO.P,U2,8*%
%TO.N,VDD*%
X-4350000Y-9362499D03*
%TO.P,U2,9*%
%TO.N,N/C*%
X-3850000Y-9362499D03*
%TO.P,U2,10*%
X-3350000Y-9362499D03*
%TO.P,U2,11*%
X-2850000Y-9362499D03*
D31*
%TO.P,U2,12*%
%TO.N,VDD*%
X-2687500Y-8699999D03*
%TO.P,U2,13*%
%TO.N,SCL*%
X-2687500Y-8199999D03*
%TO.P,U2,14*%
%TO.N,SDA*%
X-2687500Y-7699999D03*
%TD*%
D22*
%TO.P,R5,1*%
%TO.N,VDD*%
X-1000000Y-9810000D03*
%TO.P,R5,2*%
%TO.N,SCL*%
X-1000000Y-8790000D03*
%TD*%
D16*
%TO.P,R2,1*%
%TO.N,VIN*%
X8290000Y-14600000D03*
%TO.P,R2,2*%
%TO.N,Q1_GATE*%
X9310000Y-14600000D03*
%TD*%
D32*
%TO.P,BT1,1*%
%TO.N,BAT_P*%
X8500000Y10200000D03*
%TO.P,BT1,2*%
%TO.N,BAT_N*%
X8500000Y-10200000D03*
%TD*%
D33*
%TO.N,VDD*%
X-2695800Y6011500D03*
X-1178900Y6122900D03*
X284500Y3855800D03*
%TO.N,GND*%
X-6400000Y-11200000D03*
X80000Y8100000D03*
X-12345619Y-5431935D03*
X-8000000Y-11200000D03*
X-7030000Y-6420577D03*
X-3200000Y8000000D03*
X-1600000Y-11200000D03*
X9945882Y-13950000D03*
X-2970000Y-10500000D03*
X-1248393Y5091148D03*
X4965000Y10979422D03*
X206000Y-3249558D03*
X-4569333Y10532937D03*
X-9600000Y12800000D03*
X-3660777Y-7917382D03*
X4800000Y-16000000D03*
X3200000Y-16000000D03*
X-4800000Y-14400000D03*
X-11200000Y11200000D03*
X-8000000Y11200000D03*
X-6400000Y-14400000D03*
X-2182974Y-6433282D03*
X-3135294Y-3062100D03*
X-8000000Y-14400000D03*
X-9600000Y-11200000D03*
X-9600000Y11200000D03*
X-8000000Y12800000D03*
X-7214515Y-9385748D03*
X7173647Y-11786814D03*
X2480000Y6900000D03*
X-369999Y6120577D03*
X-1508061Y-5477944D03*
X-7789999Y-10000000D03*
X-3200000Y-16000000D03*
X-6066844Y-9079491D03*
X5400000Y-8889999D03*
X-11171272Y-5459788D03*
X-4800000Y-16000000D03*
X-3200000Y-14400000D03*
X-8000000Y14400000D03*
X-14400000Y-8000000D03*
X1562500Y-13400000D03*
X-3160777Y-6157615D03*
X4575000Y9160769D03*
X2400000Y-8525000D03*
X-5412500Y-8199999D03*
%TO.N,VBAT*%
X694300Y-9351900D03*
X-5046700Y-6579900D03*
%TO.N,SWDCLK*%
X-12300100Y6762900D03*
X-7615500Y10144600D03*
%TO.N,LED_IO*%
X4021200Y7917700D03*
X-4377900Y5491900D03*
%TO.N,CHG_INH*%
X-1380800Y-2982700D03*
X-29000Y-4173200D03*
X12411300Y-9755000D03*
%TO.N,CHG_STAT*%
X-1253500Y490600D03*
X-4676400Y-12773900D03*
%TO.N,VIN*%
X-5292200Y-3534900D03*
X3302300Y-9506800D03*
%TO.N,BAT_N*%
X-11859900Y-9364900D03*
X-9555200Y-6746700D03*
%TO.N,SDA*%
X104400Y-5799900D03*
X-2927900Y-4159900D03*
X-1325900Y-800600D03*
%TO.N,PCM_COUT*%
X-8821600Y-6441800D03*
X-7206600Y-8295800D03*
%TO.N,PCM_DOUT*%
X-12315500Y-6106000D03*
X-10571600Y-6671200D03*
%TO.N,ACC_INT1*%
X-1046600Y-1588700D03*
X-3865300Y-2411600D03*
%TD*%
%TO.N,VDD*%
D34*
X-5620000Y-7200000D02*
X-5120000Y-7700000D01*
X-5620000Y-7200000D02*
X-6624400Y-8204400D01*
X-1178900Y6298900D02*
X-1178900Y6122900D01*
X-444500Y-3879300D02*
X-444500Y1076100D01*
X-968400Y1600000D02*
X-968400Y2602900D01*
X-2110000Y-8700000D02*
X-1000000Y-9810000D01*
X-444500Y1076100D02*
X-968400Y1600000D01*
X-7516500Y6011500D02*
X-2695800Y6011500D01*
X-6328800Y-9584200D02*
X-4830000Y-9584200D01*
X-347100Y-9157100D02*
X-347100Y-8418000D01*
X-4350000Y-9362500D02*
X-4460800Y-9473300D01*
X-530700Y-8234400D02*
X-530700Y-3965500D01*
X-530700Y-3965500D02*
X-444500Y-3879300D01*
X-1000000Y-9932400D02*
X-4089100Y-9932400D01*
X-6624400Y-9288600D02*
X-6328800Y-9584200D01*
X-1780000Y8100000D02*
X-1780000Y6900000D01*
X-2100000Y1600000D02*
X-1548300Y1600000D01*
X-4806500Y-9560700D02*
X-4830000Y-9584200D01*
X-9270000Y7765000D02*
X-7516500Y6011500D01*
X-4089100Y-9932400D02*
X-4460800Y-9560700D01*
X100000Y-11310000D02*
X-1000000Y-10210000D01*
X-1000000Y-9932400D02*
X-1000000Y-9810000D01*
X-4460800Y-9473300D02*
X-4460800Y-9560700D01*
X-5120000Y-7700000D02*
X-4512500Y-7700000D01*
X-4460800Y-9560700D02*
X-4806500Y-9560700D01*
X-6624400Y-8204400D02*
X-6624400Y-9288600D01*
X-1780000Y6900000D02*
X-1178900Y6298900D01*
X-1000000Y-10210000D02*
X-1000000Y-9932400D01*
X-2687500Y-8700000D02*
X-2110000Y-8700000D01*
X-347100Y-8418000D02*
X-530700Y-8234400D01*
X-4830000Y-9584200D02*
X-4830000Y-10500000D01*
X-1548300Y1600000D02*
X-968400Y1600000D01*
X-1000000Y-9810000D02*
X-347100Y-9157100D01*
X-968400Y2602900D02*
X284500Y3855800D01*
%TO.N,GND*%
X-8162500Y-8650000D02*
X-7214515Y-9385748D01*
X-2850000Y-7037499D02*
X-2182974Y-6433282D01*
X2762500Y-13400000D02*
X1562500Y-13400000D01*
X-820000Y8100000D02*
X80000Y8100000D01*
X10037500Y-13250000D02*
X9200000Y-13250000D01*
X-3850000Y-7037499D02*
X-3660777Y-7917382D01*
X-2100000Y-4800000D02*
X-1508061Y-5477944D01*
X-11900000Y-4650000D02*
X-12121700Y-5039000D01*
X5400000Y-9790000D02*
X5400000Y-8889999D01*
X8362500Y-11950000D02*
X7173647Y-11786814D01*
X8362500Y-11950000D02*
X7173700Y-11786800D01*
X-11900000Y-4650000D02*
X-12345619Y-5431935D01*
X-2100000Y4800000D02*
X-1248400Y5091200D01*
X-3350000Y-7037499D02*
X-3160777Y-6157615D01*
X-820000Y6900000D02*
X-369999Y6120577D01*
X-8690000Y-10000000D02*
X-7789999Y-10000000D01*
X2400000Y-9425000D02*
X2400000Y-8525000D01*
X1580000Y6900000D02*
X2480000Y6900000D01*
X9200000Y-11950000D02*
X8362500Y-11950000D01*
X-3700000Y10300000D02*
X-4569333Y10532937D01*
X-12121700Y-5039000D02*
X-12345600Y-5431900D01*
X-4512500Y-8199999D02*
X-5412500Y-8199999D01*
X-4512500Y-8699999D02*
X-6066844Y-9079491D01*
X-13000000Y-4650000D02*
X-11171272Y-5459788D01*
X9200000Y-13250000D02*
X9200000Y-11950000D01*
X-3870000Y-10500000D02*
X-2970000Y-10500000D01*
X3975000Y10200000D02*
X4575000Y9160769D01*
X-13000000Y-4650000D02*
X-12121700Y-5039000D01*
X-2100000Y4800000D02*
X-1248393Y5091148D01*
X-12121700Y-5039000D02*
X-11171300Y-5459800D01*
X5415000Y10200000D02*
X4965000Y10979422D01*
X-6580000Y-7200000D02*
X-7030000Y-6420577D01*
%TO.N,VBAT*%
X620000Y5734200D02*
X620000Y6819500D01*
X694300Y-9351900D02*
X1411100Y-10068700D01*
X3701200Y-12111300D02*
X2564900Y-10975000D01*
X620000Y4900700D02*
X-1548300Y2732400D01*
X620000Y6819500D02*
X3200000Y9399500D01*
X-2181400Y2481400D02*
X-3438500Y2481400D01*
X-3438500Y2481400D02*
X-4790400Y1129500D01*
X-1824100Y2400000D02*
X-1548300Y2400000D01*
X2400000Y-10975000D02*
X1411100Y-10975000D01*
X620000Y5734200D02*
X620000Y4900700D01*
X211800Y-12174300D02*
X-12135700Y-12174300D01*
X3105000Y-14350000D02*
X3701200Y-13753800D01*
X6232900Y13650000D02*
X9200000Y13650000D01*
X1411100Y-10975000D02*
X211800Y-12174300D01*
X3200000Y9399500D02*
X3200000Y10617100D01*
X-4790400Y-6323600D02*
X-5046700Y-6579900D01*
X3200000Y10617100D02*
X6232900Y13650000D01*
X-1824100Y2400000D02*
X-2100000Y2400000D01*
X2564900Y-10975000D02*
X2400000Y-10975000D01*
X1411100Y-10068700D02*
X1411100Y-10975000D01*
X3701200Y-13753800D02*
X3701200Y-12111300D01*
X-12135700Y-12174300D02*
X-12710000Y-11600000D01*
X620000Y6900000D02*
X620000Y5734200D01*
X-2100000Y2400000D02*
X-2181400Y2481400D01*
X-1548300Y2732400D02*
X-1548300Y2400000D01*
X2762500Y-14350000D02*
X3105000Y-14350000D01*
X-4790400Y1129500D02*
X-4790400Y-6323600D01*
%TO.N,SWDIO*%
X-11538900Y8811800D02*
X-11538900Y6697600D01*
X-11538900Y6697600D02*
X-11100000Y6258700D01*
X-10908100Y9442600D02*
X-11538900Y8811800D01*
X-11100000Y6258700D02*
X-11100000Y4650000D01*
X-9270000Y9035000D02*
X-9677600Y9442600D01*
X-9677600Y9442600D02*
X-10908100Y9442600D01*
%TO.N,SWDCLK*%
X-8000000Y9035000D02*
X-7615500Y9419500D01*
X-11900000Y6362800D02*
X-11900000Y4650000D01*
X-12300100Y6762900D02*
X-11900000Y6362800D01*
X-7615500Y9419500D02*
X-7615500Y10144600D01*
%TO.N,VIN_RAW*%
X-1100000Y12448300D02*
X-1100000Y10300000D01*
X-2300000Y10300000D02*
X-1100000Y10300000D01*
X-1250000Y13500000D02*
X-1250000Y12598300D01*
X-1250000Y12598300D02*
X-1100000Y12448300D01*
%TO.N,LED_A*%
X6410000Y10175000D02*
X6385000Y10200000D01*
X6410000Y8900000D02*
X6410000Y10175000D01*
%TO.N,LED_IO*%
X-4700000Y5201700D02*
X-4668100Y5201700D01*
X-4668100Y5201700D02*
X-4377900Y5491900D01*
X4021200Y7917700D02*
X4407700Y7917700D01*
X4407700Y7917700D02*
X5390000Y8900000D01*
X-4700000Y4650000D02*
X-4700000Y5201700D01*
%TO.N,Q1_GATE*%
X9310000Y-14600000D02*
X8362500Y-13652500D01*
X8362500Y-12600000D02*
X8362500Y-13250000D01*
X8362500Y-13652500D02*
X8362500Y-13250000D01*
%TO.N,CHG_INH*%
X-1380800Y-3832500D02*
X-1548300Y-4000000D01*
X12411300Y-9755000D02*
X12411300Y-10639000D01*
X606100Y-6016100D02*
X606100Y-4808300D01*
X-1380800Y-2982700D02*
X-1380800Y-3832500D01*
X12411300Y-10639000D02*
X10450300Y-12600000D01*
X5400000Y-10810000D02*
X606100Y-6016100D01*
X606100Y-4808300D02*
X-29000Y-4173200D01*
X10450300Y-12600000D02*
X10037500Y-12600000D01*
X-2100000Y-4000000D02*
X-1548300Y-4000000D01*
%TO.N,PROG_SW*%
X6664700Y-12854700D02*
X6900000Y-13090000D01*
X10037500Y-11950000D02*
X10273700Y-11713800D01*
X10273700Y-11713800D02*
X10273700Y-9057800D01*
X6664700Y-9137500D02*
X6664700Y-12854700D01*
X6877200Y-8925000D02*
X6664700Y-9137500D01*
X10273700Y-9057800D02*
X10140900Y-8925000D01*
X10140900Y-8925000D02*
X6877200Y-8925000D01*
%TO.N,PCM_VM*%
X-11625000Y-7700000D02*
X-11235100Y-7700000D01*
X-10615700Y-9094300D02*
X-9710000Y-10000000D01*
X-11235100Y-7700000D02*
X-10615700Y-8319400D01*
X-10615700Y-8319400D02*
X-10615700Y-9094300D01*
%TO.N,STAT*%
X2762500Y-12450000D02*
X1250000Y-12450000D01*
X1250000Y-12450000D02*
X800000Y-12900000D01*
%TO.N,CHG_STAT*%
X-1548300Y785400D02*
X-1548300Y800000D01*
X-1400000Y-12900000D02*
X-4550300Y-12900000D01*
X-1253500Y490600D02*
X-1548300Y785400D01*
X-2100000Y800000D02*
X-1548300Y800000D01*
X-4550300Y-12900000D02*
X-4676400Y-12773900D01*
%TO.N,BAT_P*%
X9053400Y11451700D02*
X8500000Y11451700D01*
X9200000Y11598300D02*
X9053400Y11451700D01*
X8500000Y10200000D02*
X8500000Y11451700D01*
X9200000Y12350000D02*
X9200000Y11598300D01*
%TO.N,VIN*%
X4087800Y-13400300D02*
X5037500Y-14350000D01*
X8290000Y-14600000D02*
X8218500Y-14671500D01*
X-5290600Y1361100D02*
X-5290600Y-3534900D01*
X-2387500Y6622100D02*
X-1386600Y5621200D01*
X8218500Y-14671500D02*
X5359000Y-14671500D01*
X-2651700Y4000000D02*
X-5290600Y1361100D01*
X-2100000Y4000000D02*
X-1548300Y4000000D01*
X-990500Y5621200D02*
X-706400Y5337100D01*
X-2387500Y8366700D02*
X-2387500Y6622100D01*
X-2044800Y8709400D02*
X-2387500Y8366700D01*
X1100000Y10300000D02*
X1200000Y10200000D01*
X3302300Y-9506800D02*
X4087800Y-10292300D01*
X5359000Y-14671500D02*
X5037500Y-14350000D01*
X-1386600Y5621200D02*
X-990500Y5621200D01*
X-5290600Y-3534900D02*
X-5292200Y-3534900D01*
X-2100000Y4000000D02*
X-2651700Y4000000D01*
X-706400Y4841900D02*
X-1548300Y4000000D01*
X-706400Y5337100D02*
X-706400Y4841900D01*
X1100000Y10300000D02*
X-490600Y8709400D01*
X-490600Y8709400D02*
X-2044800Y8709400D01*
X1200000Y10200000D02*
X2425000Y10200000D01*
X4087800Y-10292300D02*
X4087800Y-13400300D01*
%TO.N,PROG*%
X6697500Y-14110000D02*
X6900000Y-14110000D01*
X5037500Y-12450000D02*
X6697500Y-14110000D01*
%TO.N,PCM_BAT*%
X-11763000Y-11527000D02*
X-11690000Y-11600000D01*
X-11763000Y-11116900D02*
X-11763000Y-11117000D01*
X-10981200Y-10335100D02*
X-11763000Y-11116900D01*
X-10981200Y-8489500D02*
X-10981200Y-10335100D01*
X-11763000Y-11117000D02*
X-11763000Y-11527000D01*
X-12680000Y-10200000D02*
X-11763000Y-11116900D01*
X-11625000Y-8200000D02*
X-11270700Y-8200000D01*
X-11270700Y-8200000D02*
X-10981200Y-8489500D01*
%TO.N,BAT_N*%
X-11625000Y-9269900D02*
X-11625000Y-8700000D01*
X-9837500Y-7029000D02*
X-9837500Y-7350000D01*
X-11720000Y-9364900D02*
X-11859900Y-9364900D01*
X-11720000Y-10200000D02*
X-11720000Y-9364900D01*
X-9555200Y-6746700D02*
X-9837500Y-7029000D01*
X-11720000Y-9364900D02*
X-11625000Y-9269900D01*
%TO.N,SDA*%
X100000Y-5804300D02*
X104400Y-5799900D01*
X-2927900Y-4869400D02*
X-1654200Y-6143100D01*
X-2100000Y-800000D02*
X-1548300Y-800000D01*
X-1654200Y-6143100D02*
X-1654200Y-6666700D01*
X-1547700Y-800600D02*
X-1325900Y-800600D01*
X-1548300Y-800000D02*
X-1547700Y-800600D01*
X-1654200Y-6666700D02*
X-2687500Y-7700000D01*
X-2927900Y-4159900D02*
X-2927900Y-4869400D01*
X100000Y-10290000D02*
X100000Y-5804300D01*
%TO.N,PCM_COUT*%
X-11669500Y-6169500D02*
X-12632700Y-7132700D01*
X-9093900Y-6169500D02*
X-11669500Y-6169500D01*
X-7502400Y-8000000D02*
X-7206600Y-8295800D01*
X-12632700Y-7132700D02*
X-13057300Y-7132700D01*
X-13407700Y-7483100D02*
X-13407700Y-7917000D01*
X-13407700Y-7917000D02*
X-13124700Y-8200000D01*
X-13057300Y-7132700D02*
X-13407700Y-7483100D01*
X-8162500Y-8000000D02*
X-7502400Y-8000000D01*
X-8821600Y-6441800D02*
X-9093900Y-6169500D01*
X-13124700Y-8200000D02*
X-12775000Y-8200000D01*
%TO.N,PCM_DOUT*%
X-10615900Y-6715500D02*
X-10615900Y-7595500D01*
X-13177500Y-8700000D02*
X-13759400Y-8118100D01*
X-10211400Y-8000000D02*
X-9837500Y-8000000D01*
X-10571600Y-6671200D02*
X-10615900Y-6715500D01*
X-12539000Y-6106000D02*
X-12315500Y-6106000D01*
X-10615900Y-7595500D02*
X-10211400Y-8000000D01*
X-12775000Y-8700000D02*
X-13177500Y-8700000D01*
X-13759400Y-7326400D02*
X-12539000Y-6106000D01*
X-13759400Y-8118100D02*
X-13759400Y-7326400D01*
%TO.N,PCM_D*%
X-9000000Y-8650000D02*
X-9000000Y-7350000D01*
X-9000000Y-7350000D02*
X-8162500Y-7350000D01*
X-9837500Y-8650000D02*
X-9000000Y-8650000D01*
%TO.N,SCL*%
X-2100000Y-1600000D02*
X-1548300Y-1600000D01*
X-1590000Y-8200000D02*
X-999600Y-7609600D01*
X-1548300Y-1796400D02*
X-1548300Y-1600000D01*
X-879100Y-3190500D02*
X-879100Y-2465600D01*
X-1590000Y-8200000D02*
X-1000000Y-8790000D01*
X-999600Y-3311000D02*
X-879100Y-3190500D01*
X-999600Y-7609600D02*
X-999600Y-3311000D01*
X-2687500Y-8200000D02*
X-1590000Y-8200000D01*
X-879100Y-2465600D02*
X-1548300Y-1796400D01*
%TO.N,ACC_INT1*%
X-4350000Y-2896300D02*
X-3865300Y-2411600D01*
X-824200Y-1366300D02*
X-824200Y-592800D01*
X-1118100Y-298900D02*
X-1249400Y-298900D01*
X-1249400Y-298900D02*
X-1548300Y0D01*
X-1046600Y-1588700D02*
X-824200Y-1366300D01*
X-824200Y-592800D02*
X-1118100Y-298900D01*
X-2100000Y0D02*
X-1548300Y0D01*
X-4350000Y-7037500D02*
X-4350000Y-2896300D01*
%TD*%
%TA.AperFunction,Conductor*%
%TO.N,GND*%
G36*
X-12255727Y-12505003D02*
G01*
X-12181844Y-12524800D01*
X-5256829Y-12524800D01*
X-5198638Y-12543707D01*
X-5162674Y-12593207D01*
X-5161202Y-12649421D01*
X-5176900Y-12708008D01*
X-5176900Y-12839792D01*
X-5142792Y-12967086D01*
X-5142790Y-12967088D01*
X-5142790Y-12967090D01*
X-5112585Y-13019406D01*
X-5076900Y-13081214D01*
X-4983714Y-13174400D01*
X-4983709Y-13174402D01*
X-4983709Y-13174403D01*
X-4869589Y-13240290D01*
X-4869588Y-13240290D01*
X-4869586Y-13240292D01*
X-4742292Y-13274400D01*
X-4742290Y-13274400D01*
X-4610509Y-13274400D01*
X-4610508Y-13274400D01*
X-4533899Y-13253873D01*
X-4508277Y-13250500D01*
X-1871545Y-13250500D01*
X-1813354Y-13269407D01*
X-1801542Y-13279496D01*
X-1773877Y-13307160D01*
X-1746211Y-13334826D01*
X-1633625Y-13389866D01*
X-1560636Y-13400500D01*
X-1560632Y-13400500D01*
X-1239367Y-13400500D01*
X-1239364Y-13400500D01*
X-1166375Y-13389866D01*
X-1053789Y-13334826D01*
X-965174Y-13246211D01*
X-930069Y-13174403D01*
X-910134Y-13133626D01*
X-902498Y-13081214D01*
X-899500Y-13060636D01*
X-899500Y-12739367D01*
X-899499Y-12739367D01*
X-910134Y-12666373D01*
X-912405Y-12659025D01*
X-910924Y-12658567D01*
X-918261Y-12606696D01*
X-889585Y-12552647D01*
X-834616Y-12525776D01*
X-820750Y-12524800D01*
X220750Y-12524800D01*
X278941Y-12543707D01*
X314905Y-12593207D01*
X314905Y-12654393D01*
X310382Y-12665570D01*
X310134Y-12666373D01*
X305880Y-12695570D01*
X299500Y-12739364D01*
X299500Y-13060636D01*
X302498Y-13081214D01*
X310134Y-13133626D01*
X330069Y-13174403D01*
X365174Y-13246211D01*
X453789Y-13334826D01*
X566375Y-13389866D01*
X639364Y-13400500D01*
X639367Y-13400500D01*
X960632Y-13400500D01*
X960636Y-13400500D01*
X1033625Y-13389866D01*
X1146211Y-13334826D01*
X1234826Y-13246211D01*
X1289866Y-13133625D01*
X1300500Y-13060636D01*
X1300500Y-12936190D01*
X1319407Y-12877999D01*
X1329496Y-12866186D01*
X1366186Y-12829496D01*
X1420703Y-12801719D01*
X1436190Y-12800500D01*
X1844013Y-12800500D01*
X1902204Y-12819407D01*
X1916036Y-12833239D01*
X1916442Y-12832834D01*
X1938958Y-12855351D01*
X1966734Y-12909868D01*
X1957162Y-12970300D01*
X1938958Y-12995355D01*
X1922361Y-13011952D01*
X1922359Y-13011955D01*
X1864836Y-13124848D01*
X1864835Y-13124852D01*
X1850000Y-13218515D01*
X1850000Y-13249999D01*
X1850001Y-13250000D01*
X2663500Y-13250000D01*
X2721691Y-13268907D01*
X2757655Y-13318407D01*
X2762500Y-13349000D01*
X2762500Y-13451000D01*
X2743593Y-13509191D01*
X2694093Y-13545155D01*
X2663500Y-13550000D01*
X1850002Y-13550000D01*
X1850001Y-13550001D01*
X1850001Y-13581485D01*
X1864833Y-13675141D01*
X1864836Y-13675151D01*
X1922358Y-13788043D01*
X1938957Y-13804642D01*
X1966734Y-13859159D01*
X1957163Y-13919591D01*
X1938960Y-13944646D01*
X1921952Y-13961654D01*
X1921950Y-13961658D01*
X1864354Y-14074695D01*
X1849500Y-14168477D01*
X1849500Y-14531520D01*
X1849501Y-14531523D01*
X1864352Y-14625299D01*
X1864354Y-14625304D01*
X1921950Y-14738342D01*
X2011658Y-14828050D01*
X2124696Y-14885646D01*
X2218481Y-14900500D01*
X3306518Y-14900499D01*
X3306521Y-14900499D01*
X3306522Y-14900498D01*
X3353411Y-14893072D01*
X3400299Y-14885647D01*
X3400299Y-14885646D01*
X3400304Y-14885646D01*
X3513342Y-14828050D01*
X3603050Y-14738342D01*
X3660646Y-14625304D01*
X3675500Y-14531519D01*
X3675499Y-14316187D01*
X3694406Y-14257998D01*
X3704489Y-14246191D01*
X3974530Y-13976150D01*
X4029045Y-13948375D01*
X4089477Y-13957946D01*
X4132742Y-14001211D01*
X4142313Y-14061643D01*
X4139692Y-14072561D01*
X4124500Y-14168479D01*
X4124500Y-14531520D01*
X4124501Y-14531523D01*
X4139352Y-14625299D01*
X4139354Y-14625304D01*
X4196950Y-14738342D01*
X4286658Y-14828050D01*
X4399696Y-14885646D01*
X4493481Y-14900500D01*
X5051309Y-14900499D01*
X5109500Y-14919406D01*
X5121311Y-14929494D01*
X5136178Y-14944360D01*
X5143788Y-14951970D01*
X5223712Y-14998114D01*
X5312856Y-15022000D01*
X5312857Y-15022000D01*
X5405144Y-15022000D01*
X7805814Y-15022000D01*
X7864005Y-15040907D01*
X7875817Y-15050996D01*
X7927896Y-15103074D01*
X7927898Y-15103076D01*
X8043482Y-15159582D01*
X8118418Y-15170500D01*
X8118421Y-15170500D01*
X8461578Y-15170500D01*
X8461582Y-15170500D01*
X8536518Y-15159582D01*
X8652102Y-15103076D01*
X8729998Y-15025179D01*
X8784513Y-14997404D01*
X8844945Y-15006975D01*
X8870000Y-15025178D01*
X8947898Y-15103076D01*
X8947902Y-15103078D01*
X8951566Y-15105694D01*
X8987938Y-15154895D01*
X8988445Y-15216078D01*
X8952892Y-15265874D01*
X8945756Y-15270684D01*
X8889971Y-15304859D01*
X8885938Y-15307201D01*
X8159205Y-15706613D01*
X8155066Y-15708763D01*
X7410288Y-16073518D01*
X7406051Y-16075470D01*
X6644962Y-16404719D01*
X6640639Y-16406470D01*
X5864846Y-16699518D01*
X5860444Y-16701063D01*
X5071732Y-16957236D01*
X5067263Y-16958572D01*
X4267354Y-17177311D01*
X4262827Y-17178435D01*
X3453512Y-17359251D01*
X3448937Y-17360161D01*
X2631982Y-17502657D01*
X2627369Y-17503350D01*
X2076736Y-17572856D01*
X2016636Y-17561385D01*
X1974756Y-17516778D01*
X1967093Y-17456075D01*
X1972871Y-17436758D01*
X2125036Y-17069401D01*
X2199999Y-16500000D01*
X2125036Y-15930598D01*
X1905255Y-15400000D01*
X1555634Y-14944365D01*
X1555629Y-14944361D01*
X1555628Y-14944360D01*
X1361742Y-14795587D01*
X1099999Y-14594744D01*
X1015547Y-14559763D01*
X834700Y-14484853D01*
X569401Y-14374963D01*
X569399Y-14374962D01*
X569397Y-14374962D01*
X1Y-14300000D01*
X-1Y-14300000D01*
X-569397Y-14374962D01*
X-569399Y-14374962D01*
X-569401Y-14374963D01*
X-569403Y-14374964D01*
X-1100000Y-14594743D01*
X-1100001Y-14594744D01*
X-1555628Y-14944360D01*
X-1555629Y-14944361D01*
X-1555634Y-14944365D01*
X-1905255Y-15400000D01*
X-2125036Y-15930598D01*
X-2200000Y-16500000D01*
X-2125036Y-17069401D01*
X-1972898Y-17436690D01*
X-1968098Y-17497685D01*
X-2000067Y-17549854D01*
X-2056595Y-17573269D01*
X-2075235Y-17572975D01*
X-2355314Y-17542030D01*
X-2359937Y-17541409D01*
X-3179012Y-17411612D01*
X-3183601Y-17410773D01*
X-3995613Y-17242546D01*
X-4000157Y-17241493D01*
X-4803390Y-17035193D01*
X-4807879Y-17033926D01*
X-5600455Y-16790033D01*
X-5604880Y-16788557D01*
X-6385138Y-16507585D01*
X-6389488Y-16505901D01*
X-7155600Y-16188506D01*
X-7159866Y-16186620D01*
X-7910194Y-15833483D01*
X-7914367Y-15831398D01*
X-8647252Y-15443295D01*
X-8651321Y-15441015D01*
X-9365064Y-15018851D01*
X-9369022Y-15016383D01*
X-10062136Y-14561036D01*
X-10065973Y-14558384D01*
X-10102945Y-14531519D01*
X-10736851Y-14070905D01*
X-10740541Y-14068089D01*
X-11387697Y-13549564D01*
X-11391268Y-13546563D01*
X-12013311Y-12998104D01*
X-12016736Y-12994937D01*
X-12350235Y-12671724D01*
X-12378863Y-12617649D01*
X-12370239Y-12557075D01*
X-12327657Y-12513138D01*
X-12267382Y-12502621D01*
X-12255727Y-12505003D01*
G37*
%TD.AperFunction*%
%TA.AperFunction,Conductor*%
G36*
X15327591Y-8668907D02*
G01*
X15363555Y-8718407D01*
X15363555Y-8779593D01*
X15356146Y-8796708D01*
X15304775Y-8890115D01*
X15302433Y-8894147D01*
X14869023Y-9601170D01*
X14866492Y-9605088D01*
X14400270Y-10290897D01*
X14397557Y-10294692D01*
X13899554Y-10957770D01*
X13896666Y-10961433D01*
X13367959Y-11600346D01*
X13364901Y-11603868D01*
X12806715Y-12217135D01*
X12803495Y-12220510D01*
X12217015Y-12806829D01*
X12213640Y-12810048D01*
X11919840Y-13077314D01*
X11692510Y-13284114D01*
X11600222Y-13368067D01*
X11596698Y-13371124D01*
X10957650Y-13899648D01*
X10953986Y-13902535D01*
X10290761Y-14400366D01*
X10286966Y-14403078D01*
X9985136Y-14608147D01*
X9926378Y-14625210D01*
X9868813Y-14604477D01*
X9834428Y-14553867D01*
X9830500Y-14526259D01*
X9830500Y-14378421D01*
X9830500Y-14378418D01*
X9819582Y-14303482D01*
X9763076Y-14187898D01*
X9672102Y-14096924D01*
X9556518Y-14040418D01*
X9481582Y-14029500D01*
X9481579Y-14029500D01*
X9276188Y-14029500D01*
X9217997Y-14010593D01*
X9206184Y-14000503D01*
X8973659Y-13767977D01*
X8945882Y-13713461D01*
X8955453Y-13653029D01*
X8979192Y-13625726D01*
X8978234Y-13624768D01*
X8984356Y-13618644D01*
X8984359Y-13618644D01*
X9068644Y-13534359D01*
X9110552Y-13444486D01*
X9152278Y-13399741D01*
X9212340Y-13388066D01*
X9267792Y-13413924D01*
X9289999Y-13444488D01*
X9331770Y-13534065D01*
X9415934Y-13618229D01*
X9523801Y-13668528D01*
X9523799Y-13668528D01*
X9572955Y-13674999D01*
X9887498Y-13674999D01*
X9887500Y-13674998D01*
X9887500Y-13400001D01*
X10187500Y-13400001D01*
X10187500Y-13674998D01*
X10187501Y-13674999D01*
X10502041Y-13674999D01*
X10502051Y-13674998D01*
X10551196Y-13668529D01*
X10551201Y-13668528D01*
X10659065Y-13618229D01*
X10743229Y-13534065D01*
X10793528Y-13426199D01*
X10796978Y-13400000D01*
X10187501Y-13400000D01*
X10187500Y-13400001D01*
X9887500Y-13400001D01*
X9887500Y-13349000D01*
X9906407Y-13290809D01*
X9955907Y-13254845D01*
X9986500Y-13250000D01*
X10037499Y-13250000D01*
X10037500Y-13249999D01*
X10037500Y-13199000D01*
X10056407Y-13140809D01*
X10105907Y-13104845D01*
X10136500Y-13100000D01*
X10796976Y-13100000D01*
X10793528Y-13073798D01*
X10743927Y-12967431D01*
X10736470Y-12906702D01*
X10743925Y-12883754D01*
X10794019Y-12776330D01*
X10794019Y-12776326D01*
X10796139Y-12769058D01*
X10798920Y-12769868D01*
X10819654Y-12726376D01*
X10821439Y-12724541D01*
X12691770Y-10854212D01*
X12737914Y-10774288D01*
X12761800Y-10685144D01*
X12761800Y-10592856D01*
X12761800Y-10153321D01*
X12780707Y-10095130D01*
X12790790Y-10083323D01*
X12811800Y-10062314D01*
X12826822Y-10036296D01*
X12877690Y-9948190D01*
X12877690Y-9948188D01*
X12877692Y-9948186D01*
X12911800Y-9820892D01*
X12911800Y-9689108D01*
X12877692Y-9561814D01*
X12877690Y-9561811D01*
X12877690Y-9561809D01*
X12811803Y-9447690D01*
X12811801Y-9447688D01*
X12811800Y-9447686D01*
X12718614Y-9354500D01*
X12718611Y-9354498D01*
X12718609Y-9354496D01*
X12604489Y-9288609D01*
X12604491Y-9288609D01*
X12535039Y-9270000D01*
X12477192Y-9254500D01*
X12345408Y-9254500D01*
X12287561Y-9270000D01*
X12218109Y-9288609D01*
X12103990Y-9354496D01*
X12010796Y-9447690D01*
X11944909Y-9561809D01*
X11935105Y-9598399D01*
X11910800Y-9689108D01*
X11910800Y-9820892D01*
X11934894Y-9910812D01*
X11944909Y-9948190D01*
X12010796Y-10062309D01*
X12010798Y-10062311D01*
X12010800Y-10062314D01*
X12031805Y-10083319D01*
X12059581Y-10137834D01*
X12060800Y-10153321D01*
X12060800Y-10452809D01*
X12041893Y-10511000D01*
X12031804Y-10522813D01*
X10886313Y-11668303D01*
X10831796Y-11696080D01*
X10771364Y-11686509D01*
X10746305Y-11668303D01*
X10743644Y-11665642D01*
X10743644Y-11665641D01*
X10659359Y-11581356D01*
X10659357Y-11581355D01*
X10653234Y-11575232D01*
X10655929Y-11572536D01*
X10629374Y-11536786D01*
X10624200Y-11505201D01*
X10624200Y-9011657D01*
X10624200Y-9011656D01*
X10600314Y-8922512D01*
X10582793Y-8892165D01*
X10581609Y-8890115D01*
X10567232Y-8865212D01*
X10554170Y-8842588D01*
X10530583Y-8819001D01*
X10502808Y-8764487D01*
X10512379Y-8704055D01*
X10555644Y-8660790D01*
X10600589Y-8650000D01*
X15269400Y-8650000D01*
X15327591Y-8668907D01*
G37*
%TD.AperFunction*%
%TA.AperFunction,Conductor*%
G36*
X85093Y-1985522D02*
G01*
X102096Y-2024396D01*
X123989Y-2134457D01*
X144742Y-2238790D01*
X508444Y-3310217D01*
X1008879Y-4324998D01*
X1637492Y-5265785D01*
X1637500Y-5265795D01*
X2383517Y-6116463D01*
X2383526Y-6116473D01*
X2383534Y-6116480D01*
X2383535Y-6116481D01*
X3234203Y-6862498D01*
X3234209Y-6862502D01*
X3234213Y-6862506D01*
X3234219Y-6862510D01*
X3234223Y-6862513D01*
X4174991Y-7491114D01*
X4174997Y-7491118D01*
X5189781Y-7991554D01*
X5189783Y-7991554D01*
X5189788Y-7991557D01*
X5848653Y-8215212D01*
X6261208Y-8355256D01*
X6261210Y-8355256D01*
X6261215Y-8355258D01*
X6673958Y-8437357D01*
X6727341Y-8467254D01*
X6752957Y-8522819D01*
X6741020Y-8582829D01*
X6704144Y-8620191D01*
X6661990Y-8644529D01*
X6661987Y-8644531D01*
X6384229Y-8922288D01*
X6350639Y-8980469D01*
X6350639Y-8980470D01*
X6338087Y-9002209D01*
X6338086Y-9002211D01*
X6338086Y-9002212D01*
X6314874Y-9088843D01*
X6314200Y-9091357D01*
X6314200Y-12900843D01*
X6326127Y-12945355D01*
X6329500Y-12970978D01*
X6329500Y-13007310D01*
X6310593Y-13065501D01*
X6261093Y-13101465D01*
X6199907Y-13101465D01*
X6160496Y-13077314D01*
X5943584Y-12860402D01*
X5915807Y-12805885D01*
X5925377Y-12745457D01*
X5935646Y-12725304D01*
X5950500Y-12631519D01*
X5950499Y-12268482D01*
X5942367Y-12217135D01*
X5935647Y-12174700D01*
X5935646Y-12174698D01*
X5935646Y-12174696D01*
X5878050Y-12061658D01*
X5788342Y-11971950D01*
X5675304Y-11914354D01*
X5675305Y-11914354D01*
X5581522Y-11899500D01*
X4537300Y-11899500D01*
X4479109Y-11880593D01*
X4443145Y-11831093D01*
X4438300Y-11800500D01*
X4438300Y-10582989D01*
X4457207Y-10524798D01*
X4506707Y-10488834D01*
X4567893Y-10488834D01*
X4607304Y-10512985D01*
X4800504Y-10706185D01*
X4828281Y-10760702D01*
X4829500Y-10776189D01*
X4829500Y-10981582D01*
X4840418Y-11056518D01*
X4896924Y-11172102D01*
X4987898Y-11263076D01*
X5103482Y-11319582D01*
X5178418Y-11330500D01*
X5178421Y-11330500D01*
X5621578Y-11330500D01*
X5621582Y-11330500D01*
X5696518Y-11319582D01*
X5812102Y-11263076D01*
X5903076Y-11172102D01*
X5959582Y-11056518D01*
X5970500Y-10981582D01*
X5970500Y-10638418D01*
X5959582Y-10563482D01*
X5903076Y-10447898D01*
X5824826Y-10369648D01*
X5797051Y-10315134D01*
X5806622Y-10254702D01*
X5824829Y-10229643D01*
X5902664Y-10151808D01*
X5959096Y-10036374D01*
X5970000Y-9961537D01*
X5970000Y-9940001D01*
X5969999Y-9940000D01*
X5499000Y-9940000D01*
X5440809Y-9921093D01*
X5404845Y-9871593D01*
X5400000Y-9841000D01*
X5400000Y-9790001D01*
X5399999Y-9790000D01*
X5349000Y-9790000D01*
X5290809Y-9771093D01*
X5254845Y-9721593D01*
X5250000Y-9691000D01*
X5250000Y-9270001D01*
X5550000Y-9270001D01*
X5550000Y-9639999D01*
X5550001Y-9640000D01*
X5969998Y-9640000D01*
X5969999Y-9639999D01*
X5969999Y-9618464D01*
X5969998Y-9618461D01*
X5959096Y-9543624D01*
X5902664Y-9428192D01*
X5811807Y-9337335D01*
X5696374Y-9280903D01*
X5621538Y-9270000D01*
X5550001Y-9270000D01*
X5550000Y-9270001D01*
X5250000Y-9270001D01*
X5250000Y-9269999D01*
X5178464Y-9270000D01*
X5178460Y-9270001D01*
X5103624Y-9280903D01*
X4988192Y-9337335D01*
X4897335Y-9428192D01*
X4840901Y-9543628D01*
X4839432Y-9548385D01*
X4804187Y-9598399D01*
X4746276Y-9618146D01*
X4687818Y-9600081D01*
X4674841Y-9589160D01*
X3158578Y-8072897D01*
X985596Y-5899914D01*
X957819Y-5845397D01*
X956600Y-5829910D01*
X956600Y-4762157D01*
X956600Y-4762156D01*
X932714Y-4673012D01*
X905740Y-4626292D01*
X886570Y-4593088D01*
X723845Y-4430363D01*
X500496Y-4207013D01*
X472719Y-4152497D01*
X471500Y-4137010D01*
X471500Y-4107309D01*
X469408Y-4099500D01*
X437392Y-3980014D01*
X437390Y-3980011D01*
X437390Y-3980009D01*
X371503Y-3865890D01*
X371501Y-3865888D01*
X371500Y-3865886D01*
X278314Y-3772700D01*
X278311Y-3772698D01*
X278309Y-3772696D01*
X164189Y-3706809D01*
X164191Y-3706809D01*
X114549Y-3693508D01*
X36892Y-3672700D01*
X36890Y-3672700D01*
X5000Y-3672700D01*
X-53191Y-3653793D01*
X-89155Y-3604293D01*
X-94000Y-3573700D01*
X-94000Y-2043713D01*
X-75093Y-1985522D01*
X-25593Y-1949558D01*
X35593Y-1949558D01*
X85093Y-1985522D01*
G37*
%TD.AperFunction*%
%TA.AperFunction,Conductor*%
G36*
X7691388Y-11469407D02*
G01*
X7727352Y-11518907D01*
X7727352Y-11580093D01*
X7703201Y-11619504D01*
X7656770Y-11665934D01*
X7606471Y-11773800D01*
X7603022Y-11799999D01*
X7603022Y-11800000D01*
X8263500Y-11800000D01*
X8321691Y-11818907D01*
X8357655Y-11868407D01*
X8362500Y-11899000D01*
X8362500Y-12001000D01*
X8343593Y-12059191D01*
X8294093Y-12095155D01*
X8263500Y-12100000D01*
X7603024Y-12100000D01*
X7606471Y-12126201D01*
X7656072Y-12232568D01*
X7663529Y-12293298D01*
X7656073Y-12316247D01*
X7605981Y-12423670D01*
X7605981Y-12423671D01*
X7599500Y-12472898D01*
X7599500Y-12701772D01*
X7580593Y-12759963D01*
X7531093Y-12795927D01*
X7469907Y-12795927D01*
X7420407Y-12759963D01*
X7411563Y-12745258D01*
X7403076Y-12727898D01*
X7312102Y-12636924D01*
X7196518Y-12580418D01*
X7121582Y-12569500D01*
X7121579Y-12569500D01*
X7114200Y-12569500D01*
X7056009Y-12550593D01*
X7020045Y-12501093D01*
X7015200Y-12470500D01*
X7015200Y-11549500D01*
X7034107Y-11491309D01*
X7083607Y-11455345D01*
X7114200Y-11450500D01*
X7633197Y-11450500D01*
X7691388Y-11469407D01*
G37*
%TD.AperFunction*%
%TA.AperFunction,Conductor*%
G36*
X-8053309Y-8668907D02*
G01*
X-8017345Y-8718407D01*
X-8012500Y-8749000D01*
X-8012500Y-9074998D01*
X-8012499Y-9074999D01*
X-7697959Y-9074999D01*
X-7697948Y-9074998D01*
X-7648803Y-9068529D01*
X-7648798Y-9068528D01*
X-7540934Y-9018229D01*
X-7456770Y-8934065D01*
X-7414303Y-8842995D01*
X-7372574Y-8798247D01*
X-7312513Y-8786573D01*
X-7298959Y-8789208D01*
X-7272492Y-8796300D01*
X-7272491Y-8796300D01*
X-7140710Y-8796300D01*
X-7140708Y-8796300D01*
X-7099521Y-8785264D01*
X-7038422Y-8788467D01*
X-6990872Y-8826972D01*
X-6974900Y-8880891D01*
X-6974900Y-9334744D01*
X-6952692Y-9417627D01*
X-6951014Y-9423888D01*
X-6904870Y-9503812D01*
X-6544012Y-9864670D01*
X-6512803Y-9882688D01*
X-6470174Y-9907301D01*
X-6470173Y-9907301D01*
X-6469265Y-9907825D01*
X-6464088Y-9910814D01*
X-6374944Y-9934700D01*
X-6374943Y-9934700D01*
X-6282656Y-9934700D01*
X-5365797Y-9934700D01*
X-5307606Y-9953607D01*
X-5271642Y-10003107D01*
X-5271642Y-10064293D01*
X-5285703Y-10091889D01*
X-5289855Y-10097605D01*
X-5289859Y-10097609D01*
X-5346017Y-10207825D01*
X-5360500Y-10299265D01*
X-5360499Y-10500000D01*
X-5360499Y-10700737D01*
X-5359636Y-10706185D01*
X-5346017Y-10792175D01*
X-5289859Y-10902391D01*
X-5202391Y-10989859D01*
X-5092175Y-11046017D01*
X-5000735Y-11060500D01*
X-4659266Y-11060499D01*
X-4659262Y-11060499D01*
X-4623801Y-11054882D01*
X-4567825Y-11046017D01*
X-4457609Y-10989859D01*
X-4419647Y-10951897D01*
X-4365133Y-10924122D01*
X-4304701Y-10933693D01*
X-4279642Y-10951899D01*
X-4242090Y-10989450D01*
X-4242088Y-10989451D01*
X-4132022Y-11045533D01*
X-4132020Y-11045534D01*
X-4040694Y-11059999D01*
X-4020000Y-11059998D01*
X-4020000Y-10650001D01*
X-3720000Y-10650001D01*
X-3720000Y-11059998D01*
X-3719999Y-11059999D01*
X-3699306Y-11059999D01*
X-3607984Y-11045536D01*
X-3607977Y-11045534D01*
X-3497911Y-10989451D01*
X-3497909Y-10989450D01*
X-3410549Y-10902090D01*
X-3410548Y-10902088D01*
X-3354466Y-10792022D01*
X-3354465Y-10792021D01*
X-3340000Y-10700692D01*
X-3340000Y-10650001D01*
X-3340001Y-10650000D01*
X-3719999Y-10650000D01*
X-3720000Y-10650001D01*
X-4020000Y-10650001D01*
X-4020000Y-10599000D01*
X-4001093Y-10540809D01*
X-3951593Y-10504845D01*
X-3921000Y-10500000D01*
X-3870001Y-10500000D01*
X-3870000Y-10499999D01*
X-3870000Y-10449000D01*
X-3851093Y-10390809D01*
X-3801593Y-10354845D01*
X-3771000Y-10350000D01*
X-3340002Y-10350000D01*
X-3324647Y-10334645D01*
X-3321094Y-10323709D01*
X-3271594Y-10287745D01*
X-3241001Y-10282900D01*
X-1418606Y-10282900D01*
X-1360415Y-10301807D01*
X-1330344Y-10339949D01*
X-1329858Y-10339668D01*
X-1327920Y-10343024D01*
X-1327144Y-10344009D01*
X-1326616Y-10345282D01*
X-1326614Y-10345288D01*
X-1280470Y-10425212D01*
X-499494Y-11206187D01*
X-471719Y-11260702D01*
X-470500Y-11276189D01*
X-470500Y-11481582D01*
X-459582Y-11556518D01*
X-406091Y-11665934D01*
X-399473Y-11679472D01*
X-402241Y-11680825D01*
X-388099Y-11725634D01*
X-407496Y-11783664D01*
X-457297Y-11819209D01*
X-487095Y-11823800D01*
X-11070500Y-11823800D01*
X-11128691Y-11804893D01*
X-11164655Y-11755393D01*
X-11169500Y-11724800D01*
X-11169500Y-11378421D01*
X-11169499Y-11378421D01*
X-11180418Y-11303482D01*
X-11239171Y-11183300D01*
X-11247742Y-11122718D01*
X-11220234Y-11069816D01*
X-10965905Y-10815487D01*
X-10700730Y-10550312D01*
X-10654586Y-10470388D01*
X-10630700Y-10381244D01*
X-10630700Y-9813990D01*
X-10611793Y-9755799D01*
X-10562293Y-9719835D01*
X-10501107Y-9719835D01*
X-10461696Y-9743986D01*
X-10259496Y-9946186D01*
X-10231719Y-10000703D01*
X-10230500Y-10016190D01*
X-10230500Y-10221582D01*
X-10219582Y-10296518D01*
X-10163076Y-10412102D01*
X-10072102Y-10503076D01*
X-9956518Y-10559582D01*
X-9881582Y-10570500D01*
X-9881578Y-10570500D01*
X-9538421Y-10570500D01*
X-9538418Y-10570500D01*
X-9463482Y-10559582D01*
X-9347898Y-10503076D01*
X-9269648Y-10424826D01*
X-9215134Y-10397051D01*
X-9154702Y-10406622D01*
X-9129643Y-10424829D01*
X-9051808Y-10502664D01*
X-8936374Y-10559096D01*
X-8861537Y-10569999D01*
X-8840000Y-10569998D01*
X-8840000Y-10150001D01*
X-8540000Y-10150001D01*
X-8540000Y-10569998D01*
X-8539999Y-10569999D01*
X-8518465Y-10569999D01*
X-8518461Y-10569998D01*
X-8443624Y-10559096D01*
X-8328192Y-10502664D01*
X-8237335Y-10411807D01*
X-8180903Y-10296374D01*
X-8170000Y-10221537D01*
X-8170000Y-10150001D01*
X-8170001Y-10150000D01*
X-8539999Y-10150000D01*
X-8540000Y-10150001D01*
X-8840000Y-10150001D01*
X-8840000Y-9430001D01*
X-8540000Y-9430001D01*
X-8540000Y-9849999D01*
X-8539999Y-9850000D01*
X-8170002Y-9850000D01*
X-8170001Y-9849999D01*
X-8170001Y-9778461D01*
X-8180903Y-9703624D01*
X-8237335Y-9588192D01*
X-8328192Y-9497335D01*
X-8443625Y-9440903D01*
X-8518462Y-9430000D01*
X-8539999Y-9430000D01*
X-8540000Y-9430001D01*
X-8840000Y-9430001D01*
X-8840000Y-9429999D01*
X-8861533Y-9430000D01*
X-8861540Y-9430001D01*
X-8936375Y-9440903D01*
X-9051807Y-9497335D01*
X-9129643Y-9575171D01*
X-9184160Y-9602948D01*
X-9244592Y-9593377D01*
X-9269650Y-9575171D01*
X-9347896Y-9496925D01*
X-9347899Y-9496923D01*
X-9463482Y-9440418D01*
X-9538418Y-9429500D01*
X-9538421Y-9429500D01*
X-9743811Y-9429500D01*
X-9802002Y-9410593D01*
X-9813815Y-9400503D01*
X-9969815Y-9244502D01*
X-9997592Y-9189986D01*
X-9988021Y-9129554D01*
X-9944756Y-9086289D01*
X-9899811Y-9075499D01*
X-9372901Y-9075499D01*
X-9372898Y-9075499D01*
X-9323670Y-9069019D01*
X-9215641Y-9018644D01*
X-9215297Y-9018403D01*
X-9214762Y-9018234D01*
X-9207792Y-9014984D01*
X-9207364Y-9015901D01*
X-9158514Y-9000500D01*
X-8953858Y-9000500D01*
X-8953856Y-9000500D01*
X-8889138Y-8983159D01*
X-8828038Y-8986362D01*
X-8793511Y-9008785D01*
X-8784067Y-9018228D01*
X-8784066Y-9018229D01*
X-8676201Y-9068528D01*
X-8627044Y-9074999D01*
X-8312501Y-9074999D01*
X-8312500Y-9074998D01*
X-8312500Y-8749000D01*
X-8293593Y-8690809D01*
X-8244093Y-8654845D01*
X-8213500Y-8650000D01*
X-8111500Y-8650000D01*
X-8053309Y-8668907D01*
G37*
%TD.AperFunction*%
%TA.AperFunction,Conductor*%
G36*
X-13409498Y-6318907D02*
G01*
X-13373534Y-6368407D01*
X-13373534Y-6429593D01*
X-13397684Y-6469003D01*
X-14039870Y-7111188D01*
X-14055775Y-7138737D01*
X-14075943Y-7173667D01*
X-14075943Y-7173668D01*
X-14075944Y-7173670D01*
X-14086014Y-7191112D01*
X-14109900Y-7280256D01*
X-14109900Y-8164244D01*
X-14096243Y-8215212D01*
X-14086014Y-8253388D01*
X-14039870Y-8333312D01*
X-13392712Y-8980470D01*
X-13333943Y-9014400D01*
X-13312788Y-9026614D01*
X-13312782Y-9026615D01*
X-13312781Y-9026616D01*
X-13263011Y-9039951D01*
X-13246796Y-9045852D01*
X-13164231Y-9084354D01*
X-13117554Y-9090499D01*
X-13117553Y-9090499D01*
X-12433550Y-9090499D01*
X-12375359Y-9109406D01*
X-12339395Y-9158906D01*
X-12337922Y-9215121D01*
X-12360400Y-9299008D01*
X-12360400Y-9430792D01*
X-12334856Y-9526123D01*
X-12338058Y-9587221D01*
X-12376563Y-9634771D01*
X-12435664Y-9650607D01*
X-12445969Y-9649524D01*
X-12509260Y-9639500D01*
X-12850737Y-9639500D01*
X-12933308Y-9652578D01*
X-12942175Y-9653983D01*
X-12942178Y-9653984D01*
X-13014825Y-9691000D01*
X-13052391Y-9710141D01*
X-13139859Y-9797609D01*
X-13167776Y-9852400D01*
X-13195749Y-9907300D01*
X-13196017Y-9907825D01*
X-13210500Y-9999265D01*
X-13210499Y-10207823D01*
X-13210499Y-10400737D01*
X-13208699Y-10412100D01*
X-13196017Y-10492175D01*
X-13139859Y-10602391D01*
X-13052391Y-10689859D01*
X-12942175Y-10746017D01*
X-12850735Y-10760500D01*
X-12656150Y-10760499D01*
X-12597961Y-10779406D01*
X-12586156Y-10789487D01*
X-12521426Y-10854211D01*
X-12515143Y-10860493D01*
X-12487363Y-10915008D01*
X-12496931Y-10975441D01*
X-12540194Y-11018707D01*
X-12585143Y-11029500D01*
X-12881582Y-11029500D01*
X-12956518Y-11040418D01*
X-13072102Y-11096924D01*
X-13163076Y-11187898D01*
X-13219582Y-11303482D01*
X-13230500Y-11378418D01*
X-13230500Y-11378421D01*
X-13230500Y-11486307D01*
X-13249407Y-11544498D01*
X-13298907Y-11580462D01*
X-13360093Y-11580462D01*
X-13404783Y-11550599D01*
X-13724808Y-11175866D01*
X-13727753Y-11172249D01*
X-14236004Y-10516963D01*
X-14238775Y-10513211D01*
X-14715597Y-9834713D01*
X-14718188Y-9830834D01*
X-15162504Y-9130652D01*
X-15164910Y-9126656D01*
X-15575763Y-8406304D01*
X-15577978Y-8402199D01*
X-15954444Y-7663292D01*
X-15956463Y-7659087D01*
X-16297704Y-6903273D01*
X-16299523Y-6898978D01*
X-16458916Y-6496373D01*
X-16483039Y-6435442D01*
X-16486879Y-6374378D01*
X-16454093Y-6322718D01*
X-16397204Y-6300195D01*
X-16390990Y-6300000D01*
X-13467689Y-6300000D01*
X-13409498Y-6318907D01*
G37*
%TD.AperFunction*%
%TA.AperFunction,Conductor*%
G36*
X619504Y-6525185D02*
G01*
X2650315Y-8555996D01*
X2678092Y-8610513D01*
X2668521Y-8670945D01*
X2625256Y-8714210D01*
X2580311Y-8725000D01*
X2550001Y-8725000D01*
X2550000Y-8725001D01*
X2550000Y-9326000D01*
X2531093Y-9384191D01*
X2481593Y-9420155D01*
X2451000Y-9425000D01*
X2400001Y-9425000D01*
X2400000Y-9425001D01*
X2400000Y-9476000D01*
X2381093Y-9534191D01*
X2331593Y-9570155D01*
X2301000Y-9575000D01*
X1675002Y-9575000D01*
X1675001Y-9575001D01*
X1675001Y-9597912D01*
X1656094Y-9656103D01*
X1606594Y-9692067D01*
X1545408Y-9692067D01*
X1505997Y-9667916D01*
X1410773Y-9572692D01*
X1223794Y-9385712D01*
X1196686Y-9334943D01*
X1194800Y-9325419D01*
X1194800Y-9286008D01*
X1160692Y-9158714D01*
X1158297Y-9154565D01*
X1675000Y-9154565D01*
X1675000Y-9274999D01*
X1675001Y-9275000D01*
X2249999Y-9275000D01*
X2250000Y-9274999D01*
X2250000Y-8725001D01*
X2249999Y-8725000D01*
X2104569Y-8725000D01*
X2104563Y-8725001D01*
X2047995Y-8731081D01*
X2047993Y-8731082D01*
X1920016Y-8778814D01*
X1810672Y-8860668D01*
X1810668Y-8860672D01*
X1728814Y-8970016D01*
X1681083Y-9097990D01*
X1681081Y-9097998D01*
X1675000Y-9154565D01*
X1158297Y-9154565D01*
X1151861Y-9143418D01*
X1094803Y-9044590D01*
X1094801Y-9044588D01*
X1094800Y-9044586D01*
X1001614Y-8951400D01*
X1001611Y-8951398D01*
X1001609Y-8951396D01*
X887489Y-8885509D01*
X887491Y-8885509D01*
X838099Y-8872275D01*
X760192Y-8851400D01*
X628408Y-8851400D01*
X575121Y-8865677D01*
X514021Y-8862475D01*
X466471Y-8823970D01*
X450500Y-8770051D01*
X450500Y-6595189D01*
X469407Y-6536998D01*
X518907Y-6501034D01*
X580093Y-6501034D01*
X619504Y-6525185D01*
G37*
%TD.AperFunction*%
%TA.AperFunction,Conductor*%
G36*
X-2691309Y-2469407D02*
G01*
X-2655345Y-2518907D01*
X-2650500Y-2549500D01*
X-2650500Y-2624674D01*
X-2635966Y-2697740D01*
X-2604388Y-2744999D01*
X-2587780Y-2803886D01*
X-2604388Y-2854999D01*
X-2619750Y-2877990D01*
X-2635964Y-2902256D01*
X-2635964Y-2902257D01*
X-2635966Y-2902260D01*
X-2650500Y-2975326D01*
X-2650500Y-3424674D01*
X-2635966Y-3497740D01*
X-2604388Y-3544999D01*
X-2587780Y-3603886D01*
X-2604386Y-3654996D01*
X-2607720Y-3659987D01*
X-2655768Y-3697867D01*
X-2716906Y-3700271D01*
X-2728470Y-3695396D01*
X-2728717Y-3695992D01*
X-2734709Y-3693509D01*
X-2784100Y-3680275D01*
X-2862008Y-3659400D01*
X-2993792Y-3659400D01*
X-3106051Y-3689479D01*
X-3121090Y-3693509D01*
X-3235209Y-3759396D01*
X-3235211Y-3759398D01*
X-3235214Y-3759400D01*
X-3328400Y-3852586D01*
X-3328401Y-3852588D01*
X-3328403Y-3852590D01*
X-3394290Y-3966709D01*
X-3394290Y-3966711D01*
X-3394292Y-3966714D01*
X-3428400Y-4094008D01*
X-3428400Y-4225792D01*
X-3394292Y-4353086D01*
X-3394290Y-4353088D01*
X-3394290Y-4353090D01*
X-3349676Y-4430363D01*
X-3328400Y-4467214D01*
X-3307394Y-4488219D01*
X-3279619Y-4542734D01*
X-3278400Y-4558221D01*
X-3278400Y-4915544D01*
X-3262556Y-4974674D01*
X-3254514Y-5004688D01*
X-3208370Y-5084612D01*
X-2033694Y-6259287D01*
X-2005919Y-6313802D01*
X-2004700Y-6329289D01*
X-2004700Y-6480510D01*
X-2023607Y-6538701D01*
X-2033696Y-6550514D01*
X-2263401Y-6780219D01*
X-2317918Y-6807996D01*
X-2378350Y-6798425D01*
X-2421615Y-6755160D01*
X-2429115Y-6731001D01*
X-2429352Y-6731070D01*
X-2431471Y-6723797D01*
X-2481770Y-6615933D01*
X-2565934Y-6531769D01*
X-2673799Y-6481470D01*
X-2700000Y-6478020D01*
X-2700000Y-6938499D01*
X-2718907Y-6996690D01*
X-2768407Y-7032654D01*
X-2799000Y-7037499D01*
X-2849999Y-7037499D01*
X-2850000Y-7037500D01*
X-2850000Y-7088499D01*
X-2868907Y-7146690D01*
X-2918407Y-7182654D01*
X-2949000Y-7187499D01*
X-3199999Y-7187499D01*
X-3200000Y-7187500D01*
X-3200000Y-7407323D01*
X-3209276Y-7449162D01*
X-3244019Y-7523669D01*
X-3250500Y-7572896D01*
X-3250499Y-7827101D01*
X-3244019Y-7876329D01*
X-3229175Y-7908159D01*
X-3221717Y-7968885D01*
X-3229175Y-7991837D01*
X-3244019Y-8023669D01*
X-3250500Y-8072896D01*
X-3250499Y-8327101D01*
X-3244019Y-8376329D01*
X-3229175Y-8408159D01*
X-3221717Y-8468885D01*
X-3229175Y-8491837D01*
X-3244019Y-8523669D01*
X-3250500Y-8572896D01*
X-3250499Y-8690809D01*
X-3250499Y-8700498D01*
X-3269406Y-8758689D01*
X-3318906Y-8794653D01*
X-3349498Y-8799499D01*
X-3477099Y-8799499D01*
X-3477107Y-8799500D01*
X-3526327Y-8805979D01*
X-3526328Y-8805979D01*
X-3526330Y-8805980D01*
X-3544736Y-8814563D01*
X-3558161Y-8820823D01*
X-3618891Y-8828279D01*
X-3641838Y-8820823D01*
X-3673667Y-8805981D01*
X-3673668Y-8805980D01*
X-3673670Y-8805980D01*
X-3722897Y-8799499D01*
X-3722898Y-8799499D01*
X-3977099Y-8799499D01*
X-3977107Y-8799500D01*
X-4026327Y-8805979D01*
X-4026328Y-8805979D01*
X-4026330Y-8805980D01*
X-4044736Y-8814563D01*
X-4058161Y-8820823D01*
X-4118891Y-8828279D01*
X-4141838Y-8820823D01*
X-4173667Y-8805981D01*
X-4173668Y-8805980D01*
X-4173670Y-8805980D01*
X-4222897Y-8799499D01*
X-4222898Y-8799499D01*
X-4477096Y-8799499D01*
X-4502632Y-8802860D01*
X-4512503Y-8804159D01*
X-4526331Y-8805980D01*
X-4600837Y-8840723D01*
X-4642676Y-8849999D01*
X-5071976Y-8849999D01*
X-5068528Y-8876200D01*
X-5018229Y-8984064D01*
X-4937598Y-9064696D01*
X-4909821Y-9119213D01*
X-4919392Y-9179645D01*
X-4962657Y-9222910D01*
X-5007602Y-9233700D01*
X-6142610Y-9233700D01*
X-6200801Y-9214793D01*
X-6212614Y-9204704D01*
X-6244904Y-9172414D01*
X-6272681Y-9117897D01*
X-6273900Y-9102410D01*
X-6273900Y-8549999D01*
X-5071978Y-8549999D01*
X-3953024Y-8549999D01*
X-3956471Y-8523798D01*
X-3971375Y-8491838D01*
X-3978831Y-8431108D01*
X-3971374Y-8408160D01*
X-3956470Y-8376200D01*
X-3956470Y-8376198D01*
X-3953021Y-8349999D01*
X-5071976Y-8349999D01*
X-5068528Y-8376199D01*
X-5053625Y-8408157D01*
X-5046166Y-8468886D01*
X-5053625Y-8491840D01*
X-5068528Y-8523798D01*
X-5071977Y-8549998D01*
X-5071978Y-8549999D01*
X-6273900Y-8549999D01*
X-6273900Y-8390590D01*
X-6254993Y-8332399D01*
X-6244904Y-8320586D01*
X-5713813Y-7789495D01*
X-5659296Y-7761718D01*
X-5643809Y-7760499D01*
X-5596189Y-7760499D01*
X-5537998Y-7779406D01*
X-5526185Y-7789495D01*
X-5335212Y-7980470D01*
X-5255288Y-8026614D01*
X-5166144Y-8050500D01*
X-5073856Y-8050500D01*
X-4991484Y-8050500D01*
X-4942637Y-8065901D01*
X-4942209Y-8064983D01*
X-4935230Y-8068237D01*
X-4934698Y-8068405D01*
X-4934363Y-8068638D01*
X-4934359Y-8068643D01*
X-4826330Y-8119018D01*
X-4777103Y-8125499D01*
X-4247898Y-8125498D01*
X-4198670Y-8119018D01*
X-4090641Y-8068643D01*
X-4090640Y-8068642D01*
X-4090637Y-8068641D01*
X-4089583Y-8067903D01*
X-4087949Y-8067387D01*
X-4082792Y-8064983D01*
X-4082475Y-8065661D01*
X-4032800Y-8049999D01*
X-3953024Y-8049999D01*
X-3956471Y-8023800D01*
X-3971100Y-7992427D01*
X-3978555Y-7931697D01*
X-3971099Y-7908752D01*
X-3955981Y-7876331D01*
X-3949500Y-7827100D01*
X-3949500Y-7572899D01*
X-3949501Y-7572891D01*
X-3955980Y-7523669D01*
X-3955981Y-7523666D01*
X-3964153Y-7506141D01*
X-3971609Y-7445412D01*
X-3964152Y-7422465D01*
X-3930983Y-7351334D01*
X-3930982Y-7351332D01*
X-3930981Y-7351329D01*
X-3924500Y-7302102D01*
X-3924500Y-7187500D01*
X-3700000Y-7187500D01*
X-3700000Y-7596975D01*
X-3673798Y-7593527D01*
X-3673796Y-7593526D01*
X-3641840Y-7578624D01*
X-3581111Y-7571165D01*
X-3558157Y-7578624D01*
X-3526198Y-7593527D01*
X-3500000Y-7596976D01*
X-3500000Y-7187500D01*
X-3500001Y-7187499D01*
X-3699999Y-7187499D01*
X-3700000Y-7187500D01*
X-3924500Y-7187500D01*
X-3924501Y-6772897D01*
X-3924501Y-6772890D01*
X-3930980Y-6723669D01*
X-3981355Y-6615640D01*
X-3981597Y-6615296D01*
X-3981765Y-6614761D01*
X-3985016Y-6607791D01*
X-3984098Y-6607363D01*
X-3999500Y-6558513D01*
X-3999500Y-6478020D01*
X-3700000Y-6478020D01*
X-3700000Y-6887498D01*
X-3699999Y-6887499D01*
X-3500001Y-6887499D01*
X-3500000Y-6887498D01*
X-3500000Y-6478020D01*
X-3200000Y-6478020D01*
X-3200000Y-6887498D01*
X-3199999Y-6887499D01*
X-3000001Y-6887499D01*
X-3000000Y-6887498D01*
X-3000000Y-6478020D01*
X-3026199Y-6481469D01*
X-3026201Y-6481469D01*
X-3058161Y-6496373D01*
X-3118890Y-6503830D01*
X-3141838Y-6496374D01*
X-3173800Y-6481470D01*
X-3200000Y-6478020D01*
X-3500000Y-6478020D01*
X-3526199Y-6481469D01*
X-3526201Y-6481469D01*
X-3558161Y-6496373D01*
X-3618890Y-6503830D01*
X-3641838Y-6496374D01*
X-3673800Y-6481470D01*
X-3700000Y-6478020D01*
X-3999500Y-6478020D01*
X-3999500Y-3082488D01*
X-3980593Y-3024297D01*
X-3970503Y-3012484D01*
X-3899114Y-2941096D01*
X-3844597Y-2913319D01*
X-3829111Y-2912100D01*
X-3799410Y-2912100D01*
X-3799408Y-2912100D01*
X-3672114Y-2877992D01*
X-3672111Y-2877990D01*
X-3672109Y-2877990D01*
X-3557990Y-2812103D01*
X-3557988Y-2812101D01*
X-3557986Y-2812100D01*
X-3464800Y-2718914D01*
X-3464798Y-2718911D01*
X-3464796Y-2718909D01*
X-3398909Y-2604790D01*
X-3377229Y-2523877D01*
X-3343905Y-2472563D01*
X-3286783Y-2450636D01*
X-3281602Y-2450500D01*
X-2749500Y-2450500D01*
X-2691309Y-2469407D01*
G37*
%TD.AperFunction*%
%TA.AperFunction,Conductor*%
G36*
X-15850421Y7579026D02*
G01*
X-15838506Y7566069D01*
X-15737088Y7433899D01*
X-15569850Y7215949D01*
X-15548428Y7188032D01*
X-15548423Y7188028D01*
X-15548422Y7188027D01*
X-15092793Y6838411D01*
X-15092792Y6838410D01*
X-14756856Y6699262D01*
X-14562195Y6618631D01*
X-14562193Y6618630D01*
X-14562191Y6618630D01*
X-13992794Y6543667D01*
X-13992793Y6543667D01*
X-13992792Y6543667D01*
X-13423394Y6618630D01*
X-13423386Y6618632D01*
X-12937485Y6819898D01*
X-12876489Y6824699D01*
X-12824320Y6792729D01*
X-12800905Y6736201D01*
X-12800600Y6728434D01*
X-12800600Y6697008D01*
X-12766492Y6569714D01*
X-12766490Y6569711D01*
X-12766490Y6569709D01*
X-12700603Y6455590D01*
X-12700601Y6455588D01*
X-12700600Y6455586D01*
X-12607414Y6362400D01*
X-12607411Y6362398D01*
X-12607409Y6362396D01*
X-12493289Y6296509D01*
X-12493291Y6296509D01*
X-12447807Y6284322D01*
X-12365992Y6262400D01*
X-12349500Y6262400D01*
X-12291309Y6243493D01*
X-12255345Y6193993D01*
X-12250500Y6163400D01*
X-12250500Y5201709D01*
X-12269407Y5143518D01*
X-12279496Y5131705D01*
X-12280594Y5130605D01*
X-12280601Y5130601D01*
X-12335966Y5047740D01*
X-12348032Y4987081D01*
X-12350498Y4974684D01*
X-12350500Y4974672D01*
X-12350500Y4399500D01*
X-12369407Y4341309D01*
X-12418907Y4305345D01*
X-12449500Y4300500D01*
X-12451000Y4300500D01*
X-12509191Y4319407D01*
X-12545155Y4368907D01*
X-12550000Y4399500D01*
X-12550000Y4499999D01*
X-12550001Y4500000D01*
X-12849999Y4500000D01*
X-12850000Y4499999D01*
X-12850000Y4100001D01*
X-12849999Y4100000D01*
X-12849500Y4100000D01*
X-12791309Y4081093D01*
X-12755345Y4031593D01*
X-12750500Y4001000D01*
X-12750500Y3425326D01*
X-12735966Y3352260D01*
X-12735964Y3352257D01*
X-12680602Y3269400D01*
X-12680599Y3269397D01*
X-12597742Y3214035D01*
X-12597740Y3214034D01*
X-12597737Y3214033D01*
X-12597736Y3214033D01*
X-12524684Y3199501D01*
X-12524674Y3199500D01*
X-12524673Y3199500D01*
X-12075327Y3199500D01*
X-12075326Y3199500D01*
X-12075325Y3199500D01*
X-12075315Y3199501D01*
X-12002263Y3214033D01*
X-12002254Y3214036D01*
X-11955000Y3245610D01*
X-11896112Y3262218D01*
X-11845000Y3245610D01*
X-11797745Y3214036D01*
X-11797740Y3214034D01*
X-11797737Y3214033D01*
X-11797736Y3214033D01*
X-11724684Y3199501D01*
X-11724674Y3199500D01*
X-11724673Y3199500D01*
X-11275327Y3199500D01*
X-11275326Y3199500D01*
X-11275325Y3199500D01*
X-11275315Y3199501D01*
X-11202263Y3214033D01*
X-11202254Y3214036D01*
X-11155000Y3245610D01*
X-11096112Y3262218D01*
X-11045000Y3245610D01*
X-10997745Y3214036D01*
X-10997740Y3214034D01*
X-10997737Y3214033D01*
X-10997736Y3214033D01*
X-10924684Y3199501D01*
X-10924674Y3199500D01*
X-10924673Y3199500D01*
X-10475327Y3199500D01*
X-10475326Y3199500D01*
X-10475325Y3199500D01*
X-10475315Y3199501D01*
X-10402263Y3214033D01*
X-10402254Y3214036D01*
X-10355000Y3245610D01*
X-10296112Y3262218D01*
X-10245000Y3245610D01*
X-10197745Y3214036D01*
X-10197740Y3214034D01*
X-10197737Y3214033D01*
X-10197736Y3214033D01*
X-10124684Y3199501D01*
X-10124674Y3199500D01*
X-10124673Y3199500D01*
X-9675327Y3199500D01*
X-9675326Y3199500D01*
X-9675325Y3199500D01*
X-9675315Y3199501D01*
X-9602263Y3214033D01*
X-9602254Y3214036D01*
X-9555000Y3245610D01*
X-9496112Y3262218D01*
X-9445000Y3245610D01*
X-9397745Y3214036D01*
X-9397740Y3214034D01*
X-9397737Y3214033D01*
X-9397736Y3214033D01*
X-9324684Y3199501D01*
X-9324674Y3199500D01*
X-9324673Y3199500D01*
X-8875327Y3199500D01*
X-8875326Y3199500D01*
X-8875325Y3199500D01*
X-8875315Y3199501D01*
X-8802263Y3214033D01*
X-8802254Y3214036D01*
X-8755000Y3245610D01*
X-8696112Y3262218D01*
X-8645000Y3245610D01*
X-8597745Y3214036D01*
X-8597740Y3214034D01*
X-8597737Y3214033D01*
X-8597736Y3214033D01*
X-8524684Y3199501D01*
X-8524674Y3199500D01*
X-8524673Y3199500D01*
X-8075327Y3199500D01*
X-8075326Y3199500D01*
X-8075325Y3199500D01*
X-8075315Y3199501D01*
X-8002263Y3214033D01*
X-8002254Y3214036D01*
X-7955000Y3245610D01*
X-7896112Y3262218D01*
X-7845000Y3245610D01*
X-7797745Y3214036D01*
X-7797740Y3214034D01*
X-7797737Y3214033D01*
X-7797736Y3214033D01*
X-7724684Y3199501D01*
X-7724674Y3199500D01*
X-7724673Y3199500D01*
X-7275327Y3199500D01*
X-7275326Y3199500D01*
X-7275325Y3199500D01*
X-7275315Y3199501D01*
X-7202263Y3214033D01*
X-7202254Y3214036D01*
X-7155000Y3245610D01*
X-7096112Y3262218D01*
X-7045000Y3245610D01*
X-6997745Y3214036D01*
X-6997740Y3214034D01*
X-6997737Y3214033D01*
X-6997736Y3214033D01*
X-6924684Y3199501D01*
X-6924674Y3199500D01*
X-6924673Y3199500D01*
X-6475327Y3199500D01*
X-6475326Y3199500D01*
X-6475325Y3199500D01*
X-6475315Y3199501D01*
X-6402263Y3214033D01*
X-6402254Y3214036D01*
X-6355000Y3245610D01*
X-6296112Y3262218D01*
X-6245000Y3245610D01*
X-6197745Y3214036D01*
X-6197740Y3214034D01*
X-6197737Y3214033D01*
X-6197736Y3214033D01*
X-6124684Y3199501D01*
X-6124674Y3199500D01*
X-6124673Y3199500D01*
X-5675327Y3199500D01*
X-5675326Y3199500D01*
X-5675325Y3199500D01*
X-5675315Y3199501D01*
X-5602263Y3214033D01*
X-5602254Y3214036D01*
X-5555000Y3245610D01*
X-5496112Y3262218D01*
X-5445000Y3245610D01*
X-5397745Y3214036D01*
X-5397740Y3214034D01*
X-5397737Y3214033D01*
X-5397736Y3214033D01*
X-5324684Y3199501D01*
X-5324674Y3199500D01*
X-5324673Y3199500D01*
X-4875327Y3199500D01*
X-4875326Y3199500D01*
X-4875325Y3199500D01*
X-4875315Y3199501D01*
X-4802263Y3214033D01*
X-4802254Y3214036D01*
X-4755000Y3245610D01*
X-4696112Y3262218D01*
X-4645000Y3245610D01*
X-4597745Y3214036D01*
X-4597740Y3214034D01*
X-4597737Y3214033D01*
X-4597736Y3214033D01*
X-4524684Y3199501D01*
X-4524674Y3199500D01*
X-4524673Y3199500D01*
X-4186890Y3199500D01*
X-4128699Y3180593D01*
X-4092735Y3131093D01*
X-4092735Y3069907D01*
X-4116886Y3030496D01*
X-5571070Y1576312D01*
X-5616433Y1497740D01*
X-5617214Y1496388D01*
X-5641100Y1407244D01*
X-5641100Y1407242D01*
X-5641100Y-3100500D01*
X-5660007Y-3158691D01*
X-5709507Y-3194655D01*
X-5740100Y-3199500D01*
X-6124674Y-3199500D01*
X-6124684Y-3199501D01*
X-6197736Y-3214033D01*
X-6197737Y-3214033D01*
X-6197740Y-3214034D01*
X-6197745Y-3214036D01*
X-6245000Y-3245610D01*
X-6303888Y-3262218D01*
X-6355000Y-3245610D01*
X-6402254Y-3214036D01*
X-6402263Y-3214033D01*
X-6475315Y-3199501D01*
X-6475325Y-3199500D01*
X-6475326Y-3199500D01*
X-6924674Y-3199500D01*
X-6924684Y-3199501D01*
X-6997736Y-3214033D01*
X-6997737Y-3214033D01*
X-6997740Y-3214034D01*
X-6997745Y-3214036D01*
X-7045000Y-3245610D01*
X-7103888Y-3262218D01*
X-7155000Y-3245610D01*
X-7202254Y-3214036D01*
X-7202263Y-3214033D01*
X-7275315Y-3199501D01*
X-7275325Y-3199500D01*
X-7275326Y-3199500D01*
X-7724674Y-3199500D01*
X-7724684Y-3199501D01*
X-7797736Y-3214033D01*
X-7797737Y-3214033D01*
X-7797740Y-3214034D01*
X-7797745Y-3214036D01*
X-7845000Y-3245610D01*
X-7903888Y-3262218D01*
X-7955000Y-3245610D01*
X-8002254Y-3214036D01*
X-8002263Y-3214033D01*
X-8075315Y-3199501D01*
X-8075325Y-3199500D01*
X-8075326Y-3199500D01*
X-8524674Y-3199500D01*
X-8524684Y-3199501D01*
X-8597736Y-3214033D01*
X-8597737Y-3214033D01*
X-8597740Y-3214034D01*
X-8597745Y-3214036D01*
X-8645000Y-3245610D01*
X-8703888Y-3262218D01*
X-8755000Y-3245610D01*
X-8802254Y-3214036D01*
X-8802263Y-3214033D01*
X-8875315Y-3199501D01*
X-8875325Y-3199500D01*
X-8875326Y-3199500D01*
X-9324674Y-3199500D01*
X-9324684Y-3199501D01*
X-9397736Y-3214033D01*
X-9397737Y-3214033D01*
X-9397740Y-3214034D01*
X-9397742Y-3214035D01*
X-9480599Y-3269397D01*
X-9480601Y-3269399D01*
X-9535966Y-3352260D01*
X-9547015Y-3407808D01*
X-9550498Y-3425315D01*
X-9550500Y-3425327D01*
X-9550500Y-4000500D01*
X-9569407Y-4058691D01*
X-9618907Y-4094655D01*
X-9649500Y-4099500D01*
X-9724674Y-4099500D01*
X-9724684Y-4099501D01*
X-9797736Y-4114033D01*
X-9797737Y-4114033D01*
X-9797740Y-4114034D01*
X-9797742Y-4114035D01*
X-9880599Y-4169397D01*
X-9880602Y-4169400D01*
X-9918280Y-4225790D01*
X-9935966Y-4252260D01*
X-9950500Y-4325326D01*
X-9950500Y-4974674D01*
X-9935966Y-5047740D01*
X-9880601Y-5130601D01*
X-9797740Y-5185966D01*
X-9724674Y-5200500D01*
X-9724673Y-5200500D01*
X-9275327Y-5200500D01*
X-9275326Y-5200500D01*
X-9275320Y-5200498D01*
X-9275315Y-5200498D01*
X-9257808Y-5197015D01*
X-9202260Y-5185966D01*
X-9202257Y-5185964D01*
X-9202256Y-5185964D01*
X-9180004Y-5171095D01*
X-9155000Y-5154388D01*
X-9096114Y-5137780D01*
X-9045000Y-5154388D01*
X-8997740Y-5185966D01*
X-8924674Y-5200500D01*
X-8924673Y-5200500D01*
X-8475327Y-5200500D01*
X-8475326Y-5200500D01*
X-8475320Y-5200498D01*
X-8475315Y-5200498D01*
X-8457808Y-5197015D01*
X-8402260Y-5185966D01*
X-8402257Y-5185964D01*
X-8402256Y-5185964D01*
X-8380004Y-5171095D01*
X-8355000Y-5154388D01*
X-8296114Y-5137780D01*
X-8245000Y-5154388D01*
X-8197740Y-5185966D01*
X-8124674Y-5200500D01*
X-8124673Y-5200500D01*
X-7675327Y-5200500D01*
X-7675326Y-5200500D01*
X-7675320Y-5200498D01*
X-7675315Y-5200498D01*
X-7657808Y-5197015D01*
X-7602260Y-5185966D01*
X-7602257Y-5185964D01*
X-7602256Y-5185964D01*
X-7580004Y-5171095D01*
X-7555000Y-5154388D01*
X-7496114Y-5137780D01*
X-7445000Y-5154388D01*
X-7397740Y-5185966D01*
X-7324674Y-5200500D01*
X-7324673Y-5200500D01*
X-6875327Y-5200500D01*
X-6875326Y-5200500D01*
X-6875320Y-5200498D01*
X-6875315Y-5200498D01*
X-6857808Y-5197015D01*
X-6802260Y-5185966D01*
X-6802257Y-5185964D01*
X-6802256Y-5185964D01*
X-6780004Y-5171095D01*
X-6755000Y-5154388D01*
X-6696114Y-5137780D01*
X-6645000Y-5154388D01*
X-6597740Y-5185966D01*
X-6524674Y-5200500D01*
X-6524673Y-5200500D01*
X-6075327Y-5200500D01*
X-6075326Y-5200500D01*
X-6075320Y-5200498D01*
X-6075315Y-5200498D01*
X-6057808Y-5197015D01*
X-6002260Y-5185966D01*
X-6002257Y-5185964D01*
X-6002256Y-5185964D01*
X-5980004Y-5171095D01*
X-5955000Y-5154388D01*
X-5896114Y-5137780D01*
X-5845000Y-5154388D01*
X-5797740Y-5185966D01*
X-5724674Y-5200500D01*
X-5724673Y-5200500D01*
X-5275327Y-5200500D01*
X-5275326Y-5200500D01*
X-5275320Y-5200498D01*
X-5275315Y-5200498D01*
X-5259215Y-5197296D01*
X-5198454Y-5204486D01*
X-5153524Y-5246018D01*
X-5140900Y-5294393D01*
X-5140900Y-6011019D01*
X-5159807Y-6069210D01*
X-5209307Y-6105174D01*
X-5214275Y-6106645D01*
X-5239887Y-6113508D01*
X-5239889Y-6113509D01*
X-5354009Y-6179396D01*
X-5354011Y-6179398D01*
X-5354014Y-6179400D01*
X-5447200Y-6272586D01*
X-5447201Y-6272588D01*
X-5447203Y-6272590D01*
X-5513090Y-6386709D01*
X-5513090Y-6386711D01*
X-5513092Y-6386714D01*
X-5547200Y-6514008D01*
X-5547200Y-6514009D01*
X-5547200Y-6540500D01*
X-5566107Y-6598691D01*
X-5615607Y-6634655D01*
X-5646199Y-6639500D01*
X-5790736Y-6639500D01*
X-5872356Y-6652428D01*
X-5882175Y-6653983D01*
X-5882178Y-6653984D01*
X-5934822Y-6680808D01*
X-5992391Y-6710141D01*
X-6030351Y-6748101D01*
X-6084866Y-6775877D01*
X-6145298Y-6766306D01*
X-6170355Y-6748101D01*
X-6207905Y-6710552D01*
X-6207911Y-6710548D01*
X-6317977Y-6654466D01*
X-6317978Y-6654465D01*
X-6409307Y-6640000D01*
X-6429999Y-6640000D01*
X-6430000Y-6640001D01*
X-6430000Y-7101000D01*
X-6448907Y-7159191D01*
X-6498407Y-7195155D01*
X-6529000Y-7200000D01*
X-6579999Y-7200000D01*
X-6580000Y-7200001D01*
X-6580000Y-7251000D01*
X-6598907Y-7309191D01*
X-6648407Y-7345155D01*
X-6679000Y-7350000D01*
X-7109998Y-7350000D01*
X-7109999Y-7350001D01*
X-7109999Y-7400693D01*
X-7095536Y-7492015D01*
X-7095534Y-7492022D01*
X-7039451Y-7602088D01*
X-7039448Y-7602093D01*
X-6999717Y-7641824D01*
X-6971939Y-7696340D01*
X-6981510Y-7756772D01*
X-7024774Y-7800037D01*
X-7085206Y-7809609D01*
X-7095341Y-7807455D01*
X-7140705Y-7795300D01*
X-7140708Y-7795300D01*
X-7170410Y-7795300D01*
X-7228601Y-7776393D01*
X-7240413Y-7766304D01*
X-7287185Y-7719532D01*
X-7287188Y-7719530D01*
X-7367112Y-7673386D01*
X-7367114Y-7673385D01*
X-7372732Y-7670142D01*
X-7371200Y-7667489D01*
X-7408170Y-7635881D01*
X-7422422Y-7576379D01*
X-7413456Y-7542361D01*
X-7405981Y-7526330D01*
X-7399500Y-7477103D01*
X-7399500Y-7350001D01*
X-7399500Y-7222900D01*
X-7399501Y-7222892D01*
X-7405980Y-7173670D01*
X-7456354Y-7065643D01*
X-7456356Y-7065641D01*
X-7522690Y-6999307D01*
X-7110000Y-6999307D01*
X-7110000Y-7049999D01*
X-7109999Y-7050000D01*
X-6730001Y-7050000D01*
X-6730000Y-7049999D01*
X-6730000Y-6639999D01*
X-6750692Y-6640000D01*
X-6750696Y-6640001D01*
X-6842015Y-6654463D01*
X-6842022Y-6654465D01*
X-6952088Y-6710548D01*
X-6952090Y-6710549D01*
X-7039450Y-6797909D01*
X-7039451Y-6797911D01*
X-7095533Y-6907977D01*
X-7095534Y-6907978D01*
X-7110000Y-6999307D01*
X-7522690Y-6999307D01*
X-7540641Y-6981356D01*
X-7540641Y-6981355D01*
X-7540643Y-6981354D01*
X-7648664Y-6930983D01*
X-7648668Y-6930981D01*
X-7648670Y-6930981D01*
X-7697897Y-6924500D01*
X-7697898Y-6924500D01*
X-8357479Y-6924500D01*
X-8415670Y-6905593D01*
X-8451634Y-6856093D01*
X-8451634Y-6794907D01*
X-8427484Y-6755498D01*
X-8421100Y-6749114D01*
X-8421098Y-6749111D01*
X-8421096Y-6749109D01*
X-8355209Y-6634990D01*
X-8342727Y-6588407D01*
X-8321100Y-6507692D01*
X-8321100Y-6375908D01*
X-8344579Y-6288282D01*
X-8355209Y-6248609D01*
X-8421096Y-6134490D01*
X-8514290Y-6041296D01*
X-8628410Y-5975409D01*
X-8628408Y-5975409D01*
X-8696054Y-5957283D01*
X-8755708Y-5941300D01*
X-8755710Y-5941300D01*
X-8785411Y-5941300D01*
X-8843602Y-5922393D01*
X-8855408Y-5912309D01*
X-8878688Y-5889030D01*
X-8958612Y-5842886D01*
X-9047756Y-5819000D01*
X-11715644Y-5819000D01*
X-11804757Y-5842877D01*
X-11865859Y-5839675D01*
X-11910570Y-5803468D01*
X-11911049Y-5803835D01*
X-11912577Y-5801843D01*
X-11913409Y-5801170D01*
X-11914657Y-5799132D01*
X-11914997Y-5798689D01*
X-12008190Y-5705496D01*
X-12122310Y-5639609D01*
X-12122308Y-5639609D01*
X-12189954Y-5621483D01*
X-12249608Y-5605500D01*
X-12381392Y-5605500D01*
X-12493651Y-5635579D01*
X-12508690Y-5639609D01*
X-12622809Y-5705496D01*
X-12622811Y-5705498D01*
X-12622814Y-5705500D01*
X-12716000Y-5798686D01*
X-12716001Y-5798688D01*
X-12718100Y-5800787D01*
X-12738599Y-5816516D01*
X-12754212Y-5825531D01*
X-12754213Y-5825532D01*
X-12930997Y-6002315D01*
X-12985513Y-6030092D01*
X-13045945Y-6020521D01*
X-13089210Y-5977256D01*
X-13100000Y-5932311D01*
X-13100000Y-4800001D01*
X-12850000Y-4800001D01*
X-12850000Y-5199999D01*
X-12849999Y-5200000D01*
X-12775377Y-5200000D01*
X-12775375Y-5199999D01*
X-12702453Y-5185493D01*
X-12702451Y-5185492D01*
X-12619762Y-5130241D01*
X-12619758Y-5130237D01*
X-12564507Y-5047548D01*
X-12564506Y-5047546D01*
X-12550000Y-4974624D01*
X-12550000Y-4800001D01*
X-12350000Y-4800001D01*
X-12350000Y-4974622D01*
X-12349999Y-4974624D01*
X-12335493Y-5047546D01*
X-12335492Y-5047548D01*
X-12280241Y-5130237D01*
X-12280237Y-5130241D01*
X-12197548Y-5185492D01*
X-12197546Y-5185493D01*
X-12124624Y-5199999D01*
X-12124623Y-5200000D01*
X-12050001Y-5200000D01*
X-12050000Y-5199999D01*
X-12050000Y-4800001D01*
X-12050001Y-4800000D01*
X-12349999Y-4800000D01*
X-12350000Y-4800001D01*
X-12550000Y-4800001D01*
X-12550001Y-4800000D01*
X-12849999Y-4800000D01*
X-12850000Y-4800001D01*
X-13100000Y-4800001D01*
X-13100000Y-4100001D01*
X-12850000Y-4100001D01*
X-12850000Y-4499999D01*
X-12849999Y-4500000D01*
X-12550001Y-4500000D01*
X-12550000Y-4499999D01*
X-12550000Y-4325377D01*
X-12350000Y-4325377D01*
X-12350000Y-4499999D01*
X-12349999Y-4500000D01*
X-12050001Y-4500000D01*
X-12050000Y-4499999D01*
X-12050000Y-4100001D01*
X-11750000Y-4100001D01*
X-11750000Y-5199999D01*
X-11749999Y-5200000D01*
X-11675377Y-5200000D01*
X-11675375Y-5199999D01*
X-11602453Y-5185493D01*
X-11602448Y-5185491D01*
X-11555451Y-5154089D01*
X-11496563Y-5137480D01*
X-11445450Y-5154087D01*
X-11397740Y-5185966D01*
X-11324674Y-5200500D01*
X-11324673Y-5200500D01*
X-10875327Y-5200500D01*
X-10875326Y-5200500D01*
X-10875320Y-5200498D01*
X-10875315Y-5200498D01*
X-10857808Y-5197015D01*
X-10802260Y-5185966D01*
X-10754550Y-5154088D01*
X-10719400Y-5130602D01*
X-10719397Y-5130599D01*
X-10664035Y-5047742D01*
X-10664033Y-5047736D01*
X-10649501Y-4974684D01*
X-10649500Y-4974672D01*
X-10649500Y-4325327D01*
X-10649501Y-4325315D01*
X-10664033Y-4252263D01*
X-10664035Y-4252257D01*
X-10719397Y-4169400D01*
X-10719400Y-4169397D01*
X-10802257Y-4114035D01*
X-10802263Y-4114033D01*
X-10875315Y-4099501D01*
X-10875325Y-4099500D01*
X-10875326Y-4099500D01*
X-11324674Y-4099500D01*
X-11324684Y-4099501D01*
X-11397736Y-4114033D01*
X-11397737Y-4114033D01*
X-11397740Y-4114034D01*
X-11397745Y-4114036D01*
X-11445450Y-4145911D01*
X-11504338Y-4162519D01*
X-11555450Y-4145911D01*
X-11602449Y-4114507D01*
X-11602453Y-4114506D01*
X-11675375Y-4100000D01*
X-11749999Y-4100000D01*
X-11750000Y-4100001D01*
X-12050000Y-4100001D01*
X-12050001Y-4100000D01*
X-12124624Y-4100000D01*
X-12197546Y-4114506D01*
X-12197548Y-4114507D01*
X-12280237Y-4169758D01*
X-12280241Y-4169762D01*
X-12335492Y-4252451D01*
X-12335493Y-4252453D01*
X-12349999Y-4325375D01*
X-12350000Y-4325377D01*
X-12550000Y-4325377D01*
X-12550000Y-4325375D01*
X-12564506Y-4252453D01*
X-12564507Y-4252451D01*
X-12619758Y-4169762D01*
X-12619762Y-4169758D01*
X-12702451Y-4114507D01*
X-12702453Y-4114506D01*
X-12775375Y-4100000D01*
X-12849999Y-4100000D01*
X-12850000Y-4100001D01*
X-13100000Y-4100001D01*
X-13100000Y-2399000D01*
X-13081093Y-2340809D01*
X-13031593Y-2304845D01*
X-13001000Y-2300000D01*
X-12000001Y-2300000D01*
X-12000000Y-2300000D01*
X-12000000Y-700000D01*
X-12000001Y-700000D01*
X-13001000Y-700000D01*
X-13059191Y-681093D01*
X-13095155Y-631593D01*
X-13100000Y-601000D01*
X-13100000Y2224674D01*
X-9250500Y2224674D01*
X-9250500Y1775326D01*
X-9235966Y1702260D01*
X-9235964Y1702257D01*
X-9235964Y1702256D01*
X-9221095Y1680004D01*
X-9204388Y1655000D01*
X-9187780Y1596114D01*
X-9204388Y1545000D01*
X-9235966Y1497740D01*
X-9250500Y1424674D01*
X-9250500Y975326D01*
X-9235966Y902260D01*
X-9235964Y902257D01*
X-9235964Y902256D01*
X-9221095Y880004D01*
X-9204388Y855000D01*
X-9187780Y796114D01*
X-9204388Y745000D01*
X-9235966Y697740D01*
X-9250500Y624674D01*
X-9250500Y175326D01*
X-9235966Y102260D01*
X-9235964Y102257D01*
X-9235964Y102256D01*
X-9227841Y90100D01*
X-9204388Y55000D01*
X-9187780Y-3886D01*
X-9204388Y-54999D01*
X-9221095Y-80004D01*
X-9235964Y-102256D01*
X-9235964Y-102257D01*
X-9235966Y-102260D01*
X-9250500Y-175326D01*
X-9250500Y-624674D01*
X-9235966Y-697740D01*
X-9204388Y-744999D01*
X-9187780Y-803886D01*
X-9204388Y-854999D01*
X-9221095Y-880004D01*
X-9235964Y-902256D01*
X-9235964Y-902257D01*
X-9235966Y-902260D01*
X-9250500Y-975326D01*
X-9250500Y-1424674D01*
X-9235966Y-1497740D01*
X-9204388Y-1544999D01*
X-9187780Y-1603886D01*
X-9204388Y-1654999D01*
X-9221095Y-1680004D01*
X-9235964Y-1702256D01*
X-9235964Y-1702257D01*
X-9235966Y-1702260D01*
X-9250500Y-1775326D01*
X-9250500Y-2224674D01*
X-9235966Y-2297740D01*
X-9180601Y-2380601D01*
X-9097740Y-2435966D01*
X-9024674Y-2450500D01*
X-9024673Y-2450500D01*
X-8375327Y-2450500D01*
X-8375326Y-2450500D01*
X-8375320Y-2450498D01*
X-8375315Y-2450498D01*
X-8357808Y-2447015D01*
X-8302260Y-2435966D01*
X-8273004Y-2416418D01*
X-8219400Y-2380602D01*
X-8219397Y-2380599D01*
X-8164035Y-2297742D01*
X-8164033Y-2297736D01*
X-8149501Y-2224684D01*
X-8149500Y-2224672D01*
X-8149500Y-1775327D01*
X-8149501Y-1775315D01*
X-8164033Y-1702263D01*
X-8164036Y-1702254D01*
X-8195610Y-1655000D01*
X-8212218Y-1596112D01*
X-8195610Y-1545000D01*
X-8164036Y-1497745D01*
X-8164033Y-1497736D01*
X-8149501Y-1424684D01*
X-8149500Y-1424672D01*
X-8149500Y-975327D01*
X-8149501Y-975315D01*
X-8164033Y-902263D01*
X-8164036Y-902254D01*
X-8195610Y-855000D01*
X-8212218Y-796112D01*
X-8195610Y-745000D01*
X-8164036Y-697745D01*
X-8164033Y-697736D01*
X-8149501Y-624684D01*
X-8149500Y-624672D01*
X-8149500Y-175327D01*
X-8149501Y-175315D01*
X-8164033Y-102263D01*
X-8164036Y-102254D01*
X-8195610Y-55000D01*
X-8212218Y3888D01*
X-8195610Y55000D01*
X-8164036Y102254D01*
X-8164033Y102263D01*
X-8149501Y175315D01*
X-8149500Y175327D01*
X-8149500Y624672D01*
X-8149501Y624684D01*
X-8164033Y697736D01*
X-8164036Y697745D01*
X-8195610Y745000D01*
X-8212218Y803888D01*
X-8195610Y855000D01*
X-8164036Y902254D01*
X-8164033Y902263D01*
X-8149501Y975315D01*
X-8149500Y975327D01*
X-8149500Y1424672D01*
X-8149501Y1424684D01*
X-8164033Y1497736D01*
X-8164036Y1497745D01*
X-8195610Y1545000D01*
X-8212218Y1603888D01*
X-8195610Y1655000D01*
X-8164036Y1702254D01*
X-8164033Y1702263D01*
X-8149501Y1775315D01*
X-8149500Y1775327D01*
X-8149500Y2224672D01*
X-8149501Y2224684D01*
X-8164033Y2297736D01*
X-8164035Y2297742D01*
X-8219397Y2380599D01*
X-8219400Y2380602D01*
X-8302257Y2435964D01*
X-8302260Y2435966D01*
X-8357808Y2447015D01*
X-8375315Y2450498D01*
X-8375320Y2450498D01*
X-8375326Y2450500D01*
X-9024674Y2450500D01*
X-9097740Y2435966D01*
X-9180601Y2380601D01*
X-9235966Y2297740D01*
X-9250500Y2224674D01*
X-13100000Y2224674D01*
X-13100000Y5199999D01*
X-12850000Y5199999D01*
X-12850000Y4800001D01*
X-12849999Y4800000D01*
X-12550001Y4800000D01*
X-12550000Y4800001D01*
X-12550000Y4974624D01*
X-12564506Y5047546D01*
X-12564507Y5047548D01*
X-12619758Y5130237D01*
X-12619762Y5130241D01*
X-12702451Y5185492D01*
X-12702453Y5185493D01*
X-12775375Y5199999D01*
X-12775377Y5200000D01*
X-12849999Y5200000D01*
X-12850000Y5199999D01*
X-13100000Y5199999D01*
X-13100000Y6299999D01*
X-13100000Y6300000D01*
X-13100001Y6300000D01*
X-16390990Y6300000D01*
X-16449181Y6318907D01*
X-16485145Y6368407D01*
X-16485145Y6429593D01*
X-16483039Y6435443D01*
X-16478027Y6448101D01*
X-16414732Y6607977D01*
X-16299523Y6898978D01*
X-16297704Y6903273D01*
X-16007277Y7546539D01*
X-15966099Y7591794D01*
X-15906186Y7604203D01*
X-15850421Y7579026D01*
G37*
%TD.AperFunction*%
%TA.AperFunction,Conductor*%
G36*
X-1413623Y-4346350D02*
G01*
X-1366072Y-4384855D01*
X-1350100Y-4438775D01*
X-1350100Y-5712510D01*
X-1369007Y-5770701D01*
X-1418507Y-5806665D01*
X-1479693Y-5806665D01*
X-1519104Y-5782514D01*
X-1882614Y-5419004D01*
X-1910391Y-5364487D01*
X-1900820Y-5304055D01*
X-1857555Y-5260790D01*
X-1812610Y-5250000D01*
X-1775377Y-5250000D01*
X-1775375Y-5249999D01*
X-1702453Y-5235493D01*
X-1702451Y-5235492D01*
X-1619762Y-5180241D01*
X-1619758Y-5180237D01*
X-1564507Y-5097548D01*
X-1564506Y-5097546D01*
X-1550000Y-5024624D01*
X-1550000Y-4950001D01*
X-1550001Y-4950000D01*
X-2001000Y-4950000D01*
X-2059191Y-4931093D01*
X-2095155Y-4881593D01*
X-2100000Y-4851000D01*
X-2100000Y-4749000D01*
X-2081093Y-4690809D01*
X-2031593Y-4654845D01*
X-2001000Y-4650000D01*
X-1550001Y-4650000D01*
X-1550000Y-4649999D01*
X-1550000Y-4575375D01*
X-1564506Y-4502453D01*
X-1568238Y-4493443D01*
X-1567116Y-4492978D01*
X-1581005Y-4443720D01*
X-1559825Y-4386318D01*
X-1508949Y-4352328D01*
X-1507706Y-4351987D01*
X-1502157Y-4350500D01*
X-1502156Y-4350500D01*
X-1474722Y-4343149D01*
X-1413623Y-4346350D01*
G37*
%TD.AperFunction*%
%TA.AperFunction,Conductor*%
G36*
X8158691Y13280593D02*
G01*
X8194655Y13231093D01*
X8199500Y13200500D01*
X8199500Y13125327D01*
X8199501Y13125315D01*
X8214033Y13052263D01*
X8217766Y13043251D01*
X8215751Y13042416D01*
X8228811Y12996112D01*
X8216227Y12957386D01*
X8217766Y12956749D01*
X8214035Y12947742D01*
X8214034Y12947740D01*
X8214033Y12947736D01*
X8199501Y12874684D01*
X8199500Y12874672D01*
X8199500Y11825327D01*
X8199501Y11825315D01*
X8214033Y11752263D01*
X8217767Y11743248D01*
X8214212Y11741775D01*
X8225821Y11700531D01*
X8212635Y11654970D01*
X8173387Y11586992D01*
X8156476Y11523877D01*
X8123152Y11472563D01*
X8066030Y11450636D01*
X8060849Y11450500D01*
X6975326Y11450500D01*
X6975320Y11450498D01*
X6975315Y11450498D01*
X6957808Y11447015D01*
X6902260Y11435966D01*
X6902257Y11435964D01*
X6819400Y11380602D01*
X6819397Y11380599D01*
X6764035Y11297742D01*
X6764033Y11297736D01*
X6749501Y11224684D01*
X6749500Y11224672D01*
X6749500Y10857005D01*
X6730593Y10798814D01*
X6681093Y10762850D01*
X6635016Y10759224D01*
X6563823Y10770500D01*
X6206178Y10770499D01*
X6206175Y10770499D01*
X6206172Y10770498D01*
X6112982Y10755740D01*
X6112974Y10755738D01*
X6006609Y10701541D01*
X6000645Y10698502D01*
X5969647Y10667504D01*
X5915133Y10639729D01*
X5854701Y10649300D01*
X5829641Y10667507D01*
X5799054Y10698094D01*
X5686865Y10755256D01*
X5593787Y10770000D01*
X5565001Y10770000D01*
X5565000Y10769999D01*
X5565000Y10299000D01*
X5546093Y10240809D01*
X5496593Y10204845D01*
X5466000Y10200000D01*
X5415001Y10200000D01*
X5415000Y10199999D01*
X5415000Y10149000D01*
X5396093Y10090809D01*
X5346593Y10054845D01*
X5316000Y10050000D01*
X4872026Y10050000D01*
X4872905Y9977870D01*
X4884743Y9903134D01*
X4941905Y9790945D01*
X5030945Y9701905D01*
X5150077Y9641206D01*
X5148798Y9638697D01*
X5187831Y9610329D01*
X5206728Y9552134D01*
X5187810Y9493947D01*
X5149014Y9465770D01*
X5150389Y9462958D01*
X5143483Y9459582D01*
X5143482Y9459582D01*
X5027898Y9403076D01*
X4936924Y9312102D01*
X4880418Y9196518D01*
X4869500Y9121582D01*
X4869500Y9121578D01*
X4869500Y8916190D01*
X4850593Y8857999D01*
X4840504Y8846186D01*
X4372088Y8377770D01*
X4317571Y8349993D01*
X4257139Y8359564D01*
X4252582Y8362039D01*
X4243904Y8367048D01*
X4214386Y8384092D01*
X4087092Y8418200D01*
X3955308Y8418200D01*
X3828014Y8384092D01*
X3828011Y8384090D01*
X3828009Y8384090D01*
X3713890Y8318203D01*
X3713888Y8318201D01*
X3713886Y8318200D01*
X3620700Y8225014D01*
X3620698Y8225011D01*
X3620696Y8225009D01*
X3554809Y8110890D01*
X3554808Y8110886D01*
X3520700Y7983592D01*
X3520700Y7851808D01*
X3532444Y7807978D01*
X3554809Y7724509D01*
X3620696Y7610390D01*
X3713890Y7517196D01*
X3828010Y7451309D01*
X3834006Y7448826D01*
X3832825Y7445976D01*
X3873559Y7419390D01*
X3895354Y7362218D01*
X3879382Y7303154D01*
X3851480Y7274950D01*
X3366654Y6951000D01*
X3234213Y6862506D01*
X3234203Y6862498D01*
X2465990Y6188792D01*
X2383526Y6116473D01*
X2383518Y6116464D01*
X2383517Y6116463D01*
X1637500Y5265795D01*
X1637492Y5265785D01*
X1008879Y4324998D01*
X898540Y4101253D01*
X855846Y4057426D01*
X795544Y4047065D01*
X740669Y4074126D01*
X724013Y4095541D01*
X685000Y4163114D01*
X601549Y4246564D01*
X573773Y4301078D01*
X583344Y4361511D01*
X601547Y4386566D01*
X900469Y4685488D01*
X946614Y4765412D01*
X970500Y4854556D01*
X970500Y5780344D01*
X970500Y6347243D01*
X989407Y6405434D01*
X999490Y6417240D01*
X1030351Y6448101D01*
X1084866Y6475877D01*
X1145298Y6466306D01*
X1170355Y6448101D01*
X1207905Y6410552D01*
X1207911Y6410548D01*
X1317977Y6354466D01*
X1317978Y6354465D01*
X1409307Y6340000D01*
X1429999Y6340000D01*
X1430000Y6340001D01*
X1430000Y6749999D01*
X1730000Y6749999D01*
X1730000Y6339999D01*
X1750692Y6340000D01*
X1750696Y6340001D01*
X1842015Y6354463D01*
X1842022Y6354465D01*
X1952088Y6410548D01*
X1952090Y6410549D01*
X2039450Y6497909D01*
X2039451Y6497911D01*
X2095533Y6607977D01*
X2095534Y6607978D01*
X2110000Y6699307D01*
X2110000Y6749999D01*
X2109999Y6750000D01*
X1730001Y6750000D01*
X1730000Y6749999D01*
X1430000Y6749999D01*
X1430000Y6801000D01*
X1448907Y6859191D01*
X1498407Y6895155D01*
X1529000Y6900000D01*
X1579999Y6900000D01*
X1580000Y6900001D01*
X1580000Y6951000D01*
X1598907Y7009191D01*
X1648407Y7045155D01*
X1679000Y7050000D01*
X2109998Y7050000D01*
X2109999Y7050001D01*
X2109999Y7100693D01*
X2095536Y7192015D01*
X2095534Y7192022D01*
X2039451Y7302088D01*
X2039450Y7302090D01*
X1952090Y7389450D01*
X1896984Y7417528D01*
X1853719Y7460792D01*
X1844147Y7521224D01*
X1871924Y7575741D01*
X1871924Y7575742D01*
X2673952Y8377770D01*
X3480470Y9184288D01*
X3526614Y9264212D01*
X3531973Y9284212D01*
X3550500Y9353356D01*
X3550500Y9381349D01*
X3569407Y9439540D01*
X3618907Y9475504D01*
X3660082Y9479782D01*
X3704565Y9475000D01*
X3824999Y9475000D01*
X3825000Y9475001D01*
X3825000Y10049999D01*
X4125000Y10049999D01*
X4125000Y9475000D01*
X4245430Y9475000D01*
X4245437Y9475001D01*
X4302004Y9481081D01*
X4302006Y9481082D01*
X4429983Y9528814D01*
X4539327Y9610668D01*
X4539331Y9610672D01*
X4621185Y9720016D01*
X4668916Y9847990D01*
X4668918Y9847998D01*
X4675000Y9904565D01*
X4675000Y9968848D01*
X4674011Y10050000D01*
X4125001Y10050000D01*
X4125000Y10049999D01*
X3825000Y10049999D01*
X3825000Y10101000D01*
X3843907Y10159191D01*
X3893407Y10195155D01*
X3924000Y10200000D01*
X3974999Y10200000D01*
X3975000Y10200001D01*
X3975000Y10251000D01*
X3993907Y10309191D01*
X4043407Y10345155D01*
X4074000Y10350000D01*
X4674010Y10350000D01*
X4872025Y10350000D01*
X5264999Y10350000D01*
X5265000Y10350001D01*
X5265000Y10769999D01*
X5264999Y10770000D01*
X5236213Y10770000D01*
X5143134Y10755256D01*
X5030945Y10698094D01*
X4941905Y10609054D01*
X4884743Y10496865D01*
X4872904Y10422122D01*
X4872025Y10350000D01*
X4674010Y10350000D01*
X4674999Y10431144D01*
X4674999Y10495431D01*
X4674998Y10495436D01*
X4668918Y10552004D01*
X4668917Y10552006D01*
X4621185Y10679983D01*
X4539331Y10789327D01*
X4539327Y10789331D01*
X4429983Y10871185D01*
X4302009Y10918916D01*
X4302001Y10918918D01*
X4245437Y10924999D01*
X4242607Y10924999D01*
X4184413Y10943896D01*
X4148440Y10993389D01*
X4148429Y11054575D01*
X4172585Y11094003D01*
X6349085Y13270504D01*
X6403602Y13298281D01*
X6419089Y13299500D01*
X8100500Y13299500D01*
X8158691Y13280593D01*
G37*
%TD.AperFunction*%
%TA.AperFunction,Conductor*%
G36*
X1719441Y9830593D02*
G01*
X1754006Y9785098D01*
X1773628Y9732494D01*
X1778373Y9719772D01*
X1860311Y9610315D01*
X1860315Y9610311D01*
X1969771Y9528373D01*
X2097888Y9480587D01*
X2097886Y9480587D01*
X2140707Y9475984D01*
X2154515Y9474500D01*
X2154517Y9474500D01*
X2154518Y9474500D01*
X2540310Y9474500D01*
X2598501Y9455593D01*
X2634465Y9406093D01*
X2634465Y9344907D01*
X2610314Y9305496D01*
X794313Y7489495D01*
X739796Y7461718D01*
X724309Y7460499D01*
X449263Y7460499D01*
X419811Y7455834D01*
X357825Y7446017D01*
X357821Y7446015D01*
X350151Y7442107D01*
X247609Y7389859D01*
X160141Y7302391D01*
X160140Y7302389D01*
X103983Y7192176D01*
X89500Y7100736D01*
X89500Y6699262D01*
X103983Y6607825D01*
X103984Y6607821D01*
X152808Y6512000D01*
X160141Y6497609D01*
X240505Y6417244D01*
X268281Y6362730D01*
X269500Y6347243D01*
X269500Y5086889D01*
X250593Y5028698D01*
X240504Y5016885D01*
X-271549Y4504831D01*
X-326064Y4477056D01*
X-386496Y4486627D01*
X-429761Y4529892D01*
X-439332Y4590324D01*
X-427287Y4624337D01*
X-379787Y4706607D01*
X-355900Y4795757D01*
X-355900Y5383242D01*
X-355900Y5383244D01*
X-379786Y5472388D01*
X-402079Y5511000D01*
X-425930Y5552312D01*
X-558505Y5684887D01*
X-692334Y5818717D01*
X-720111Y5873233D01*
X-714173Y5923442D01*
X-714188Y5923447D01*
X-714160Y5923550D01*
X-713801Y5926589D01*
X-712511Y5929703D01*
X-678400Y6057009D01*
X-678400Y6188791D01*
X-687625Y6223221D01*
X-684422Y6284322D01*
X-645916Y6331872D01*
X-607484Y6346624D01*
X-557985Y6354463D01*
X-557977Y6354465D01*
X-447911Y6410548D01*
X-447909Y6410549D01*
X-360549Y6497909D01*
X-360548Y6497911D01*
X-304466Y6607977D01*
X-304465Y6607978D01*
X-290000Y6699307D01*
X-290000Y6749999D01*
X-290001Y6750000D01*
X-721000Y6750000D01*
X-779191Y6768907D01*
X-815155Y6818407D01*
X-820000Y6849000D01*
X-820000Y6899999D01*
X-820001Y6900000D01*
X-871000Y6900000D01*
X-929191Y6918907D01*
X-965155Y6968407D01*
X-970000Y6999000D01*
X-970000Y7949999D01*
X-670000Y7949999D01*
X-670000Y7050001D01*
X-669999Y7050000D01*
X-290002Y7050000D01*
X-290001Y7050001D01*
X-290001Y7100693D01*
X-290000Y7100693D01*
X-304463Y7192015D01*
X-304465Y7192022D01*
X-360548Y7302088D01*
X-360549Y7302090D01*
X-447909Y7389450D01*
X-491754Y7411791D01*
X-535018Y7455056D01*
X-544589Y7515488D01*
X-516811Y7570004D01*
X-491754Y7588209D01*
X-447909Y7610549D01*
X-360549Y7697909D01*
X-360548Y7697911D01*
X-304466Y7807977D01*
X-304465Y7807978D01*
X-290000Y7899307D01*
X-290000Y7949999D01*
X-290001Y7950000D01*
X-669999Y7950000D01*
X-670000Y7949999D01*
X-970000Y7949999D01*
X-970000Y8001000D01*
X-951093Y8059191D01*
X-901593Y8095155D01*
X-871000Y8100000D01*
X-820001Y8100000D01*
X-820000Y8100001D01*
X-820000Y8151000D01*
X-801093Y8209191D01*
X-751593Y8245155D01*
X-721000Y8250000D01*
X-290002Y8250000D01*
X-290001Y8250001D01*
X-290001Y8300693D01*
X-290000Y8300693D01*
X-297645Y8348959D01*
X-288073Y8409391D01*
X-269868Y8434449D01*
X1066186Y9770504D01*
X1120703Y9798281D01*
X1136190Y9799500D01*
X1260633Y9799500D01*
X1260636Y9799500D01*
X1315377Y9807475D01*
X1333626Y9810134D01*
X1393575Y9839441D01*
X1437054Y9849500D01*
X1661250Y9849500D01*
X1719441Y9830593D01*
G37*
%TD.AperFunction*%
%TA.AperFunction,Conductor*%
G36*
X-2083268Y5822187D02*
G01*
X-1676227Y5415146D01*
X-1648450Y5360629D01*
X-1658021Y5300197D01*
X-1701286Y5256932D01*
X-1761718Y5247361D01*
X-1765549Y5248045D01*
X-1775373Y5249999D01*
X-1775377Y5250000D01*
X-1949999Y5250000D01*
X-1950000Y5249999D01*
X-1950000Y4950001D01*
X-1949999Y4950000D01*
X-1550001Y4950000D01*
X-1550000Y4950001D01*
X-1550000Y5024624D01*
X-1564506Y5097546D01*
X-1564507Y5097548D01*
X-1588034Y5132759D01*
X-1604643Y5191647D01*
X-1583466Y5249051D01*
X-1532592Y5283044D01*
X-1480097Y5283388D01*
X-1478813Y5283044D01*
X-1432744Y5270700D01*
X-1176690Y5270700D01*
X-1118499Y5251793D01*
X-1106686Y5241704D01*
X-1085896Y5220914D01*
X-1058119Y5166397D01*
X-1056900Y5150910D01*
X-1056900Y5028088D01*
X-1075807Y4969897D01*
X-1085896Y4958085D01*
X-1401988Y4641993D01*
X-1456503Y4614216D01*
X-1516935Y4623787D01*
X-1541994Y4641993D01*
X-1550001Y4650000D01*
X-2001000Y4650000D01*
X-2059191Y4668907D01*
X-2095155Y4718407D01*
X-2100000Y4749000D01*
X-2100000Y4799999D01*
X-2100001Y4800000D01*
X-2151000Y4800000D01*
X-2209191Y4818907D01*
X-2245155Y4868407D01*
X-2250000Y4899000D01*
X-2250000Y5249999D01*
X-2250001Y5250000D01*
X-2424623Y5250000D01*
X-2424624Y5249999D01*
X-2497546Y5235493D01*
X-2497548Y5235492D01*
X-2580237Y5180241D01*
X-2580240Y5180238D01*
X-2591119Y5163957D01*
X-2639168Y5126076D01*
X-2700306Y5123672D01*
X-2728437Y5136640D01*
X-2802257Y5185964D01*
X-2802260Y5185966D01*
X-2872812Y5200000D01*
X-2875315Y5200498D01*
X-2875320Y5200498D01*
X-2875326Y5200500D01*
X-3324674Y5200500D01*
X-3397740Y5185966D01*
X-3444999Y5154388D01*
X-3503886Y5137780D01*
X-3554999Y5154388D01*
X-3593687Y5180238D01*
X-3602256Y5185964D01*
X-3602257Y5185964D01*
X-3602260Y5185966D01*
X-3672812Y5200000D01*
X-3675315Y5200498D01*
X-3675320Y5200498D01*
X-3675326Y5200500D01*
X-3675327Y5200500D01*
X-3808805Y5200500D01*
X-3866996Y5219407D01*
X-3902960Y5268907D01*
X-3904432Y5325123D01*
X-3901253Y5336988D01*
X-3877400Y5426008D01*
X-3877400Y5557792D01*
X-3877400Y5562000D01*
X-3858493Y5620191D01*
X-3808993Y5656155D01*
X-3778400Y5661000D01*
X-3094121Y5661000D01*
X-3035930Y5642093D01*
X-3024123Y5632009D01*
X-3003114Y5611000D01*
X-3003111Y5610998D01*
X-3003109Y5610996D01*
X-2888989Y5545109D01*
X-2888991Y5545109D01*
X-2839599Y5531875D01*
X-2761692Y5511000D01*
X-2761690Y5511000D01*
X-2629910Y5511000D01*
X-2629908Y5511000D01*
X-2552000Y5531875D01*
X-2502609Y5545109D01*
X-2388490Y5610996D01*
X-2295298Y5704188D01*
X-2239008Y5801684D01*
X-2193538Y5842624D01*
X-2132688Y5849019D01*
X-2083268Y5822187D01*
G37*
%TD.AperFunction*%
%TA.AperFunction,Conductor*%
G36*
X139741Y17698893D02*
G01*
X968578Y17672922D01*
X973235Y17672667D01*
X1799982Y17607680D01*
X1804622Y17607205D01*
X2627369Y17503350D01*
X2631982Y17502657D01*
X3448937Y17360161D01*
X3453512Y17359251D01*
X4262827Y17178435D01*
X4267354Y17177311D01*
X5067263Y16958572D01*
X5071732Y16957236D01*
X5860444Y16701063D01*
X5864846Y16699518D01*
X6640639Y16406470D01*
X6644962Y16404719D01*
X7406051Y16075470D01*
X7410288Y16073518D01*
X8155066Y15708763D01*
X8159205Y15706613D01*
X8885938Y15307201D01*
X8889972Y15304859D01*
X9597113Y14871643D01*
X9601032Y14869113D01*
X10024522Y14581388D01*
X10062029Y14533047D01*
X10063959Y14471892D01*
X10029574Y14421282D01*
X9972008Y14400549D01*
X9968886Y14400500D01*
X8425326Y14400500D01*
X8425320Y14400498D01*
X8425315Y14400498D01*
X8422812Y14400000D01*
X8352260Y14385966D01*
X8352257Y14385964D01*
X8269400Y14330602D01*
X8269397Y14330599D01*
X8214035Y14247742D01*
X8214033Y14247736D01*
X8199501Y14174684D01*
X8199500Y14174672D01*
X8199500Y14099500D01*
X8180593Y14041309D01*
X8131093Y14005345D01*
X8100500Y14000500D01*
X6186756Y14000500D01*
X6097612Y13976614D01*
X6017688Y13930469D01*
X3704482Y11617264D01*
X2982476Y10895258D01*
X2927959Y10867481D01*
X2877878Y10872503D01*
X2752114Y10919412D01*
X2695485Y10925500D01*
X2154516Y10925499D01*
X2097886Y10919412D01*
X1969774Y10871628D01*
X1860313Y10789687D01*
X1821877Y10738342D01*
X1778372Y10680226D01*
X1754006Y10614901D01*
X1715955Y10566988D01*
X1661249Y10550500D01*
X1643415Y10550500D01*
X1585224Y10569407D01*
X1554474Y10606020D01*
X1545126Y10625141D01*
X1534826Y10646211D01*
X1446211Y10734826D01*
X1333625Y10789866D01*
X1260636Y10800500D01*
X939364Y10800500D01*
X866375Y10789866D01*
X753789Y10734826D01*
X665174Y10646211D01*
X665173Y10646209D01*
X610134Y10533626D01*
X609827Y10531519D01*
X599500Y10460636D01*
X599500Y10460632D01*
X599500Y10336190D01*
X580593Y10277999D01*
X570504Y10266186D01*
X-606786Y9088896D01*
X-661303Y9061119D01*
X-676790Y9059900D01*
X-2090944Y9059900D01*
X-2180088Y9036014D01*
X-2260012Y8989870D01*
X-2667970Y8581912D01*
X-2697173Y8531330D01*
X-2714114Y8501988D01*
X-2738000Y8412844D01*
X-2738000Y8412842D01*
X-2738000Y6594313D01*
X-2756907Y6536122D01*
X-2806407Y6500158D01*
X-2811349Y6498694D01*
X-2888986Y6477892D01*
X-3003114Y6412000D01*
X-3024119Y6390994D01*
X-3078634Y6363219D01*
X-3094121Y6362000D01*
X-7330310Y6362000D01*
X-7388501Y6380907D01*
X-7400314Y6390996D01*
X-7967035Y6957717D01*
X-7994812Y7012234D01*
X-7985241Y7072666D01*
X-7941976Y7115931D01*
X-7916345Y7124819D01*
X-7812094Y7145556D01*
X-7812092Y7145556D01*
X-7694859Y7194115D01*
X-7662182Y7215949D01*
X-7066918Y7215949D01*
X-7034901Y7194558D01*
X-6917760Y7146037D01*
X-6793401Y7121300D01*
X-6666598Y7121300D01*
X-6542240Y7146037D01*
X-6542238Y7146037D01*
X-6425096Y7194558D01*
X-6425086Y7194564D01*
X-6393081Y7215948D01*
X-6730000Y7552867D01*
X-7066917Y7215949D01*
X-7066918Y7215949D01*
X-7662182Y7215949D01*
X-7589349Y7264614D01*
X-7535645Y7318318D01*
X-7499617Y7354346D01*
X-7445173Y7435826D01*
X-7443143Y7438464D01*
X-7420506Y7453967D01*
X-7398964Y7470950D01*
X-7395512Y7471085D01*
X-7392662Y7473038D01*
X-7365234Y7472275D01*
X-7337826Y7473352D01*
X-7334954Y7471433D01*
X-7331500Y7471337D01*
X-7309757Y7454597D01*
X-7286953Y7439359D01*
X-7283127Y7434093D01*
X-7283019Y7434010D01*
X-7282986Y7433899D01*
X-7282383Y7433069D01*
X-7279049Y7428080D01*
X-6971129Y7736003D01*
X-6916612Y7763781D01*
X-6901125Y7765000D01*
X-6730001Y7765000D01*
X-6730000Y7765000D01*
X-6517868Y7765000D01*
X-6234796Y7481927D01*
X-6207019Y7427411D01*
X-6205800Y7411924D01*
X-6205800Y7310545D01*
X-6177140Y7166458D01*
X-6159798Y7124590D01*
X-6120921Y7030733D01*
X-6120921Y7030732D01*
X-6120920Y7030731D01*
X-6039301Y6908580D01*
X-5935420Y6804699D01*
X-5853557Y6750000D01*
X-5813266Y6723078D01*
X-5677542Y6666860D01*
X-5533457Y6638200D01*
X-5533455Y6638200D01*
X-5386542Y6638200D01*
X-5242458Y6666860D01*
X-5242456Y6666860D01*
X-5106733Y6723078D01*
X-5106732Y6723078D01*
X-4984580Y6804699D01*
X-4984576Y6804702D01*
X-4880702Y6908576D01*
X-4880699Y6908580D01*
X-4799078Y7030732D01*
X-4799078Y7030733D01*
X-4742860Y7166456D01*
X-4742860Y7166458D01*
X-4714200Y7310542D01*
X-4714200Y7457457D01*
X-4737997Y7577094D01*
X-4742860Y7601542D01*
X-4743962Y7604203D01*
X-4799078Y7737266D01*
X-4799078Y7737267D01*
X-4846326Y7807977D01*
X-4880699Y7859420D01*
X-4984580Y7963301D01*
X-5106731Y8044920D01*
X-5242458Y8101140D01*
X-5386545Y8129800D01*
X-5533455Y8129800D01*
X-5677542Y8101140D01*
X-5813269Y8044920D01*
X-5935420Y7963301D01*
X-5935428Y7963293D01*
X-5957918Y7940803D01*
X-6012434Y7913024D01*
X-6072866Y7922594D01*
X-6116132Y7965858D01*
X-6119387Y7972919D01*
X-6159559Y8069903D01*
X-6180949Y8101917D01*
X-6517868Y7765000D01*
X-6730000Y7765000D01*
X-6730000Y7936124D01*
X-6711093Y7994315D01*
X-6701004Y8006128D01*
X-6393081Y8314050D01*
X-6398069Y8317383D01*
X-6435950Y8365432D01*
X-6438352Y8426570D01*
X-6404360Y8477445D01*
X-6398071Y8482014D01*
X-6319350Y8534613D01*
X-6229614Y8624349D01*
X-6159116Y8729857D01*
X-6119004Y8826697D01*
X-6079267Y8873223D01*
X-6019772Y8887506D01*
X-5963244Y8864091D01*
X-5957536Y8858815D01*
X-5935420Y8836699D01*
X-5902291Y8814563D01*
X-5813266Y8755078D01*
X-5677542Y8698860D01*
X-5533457Y8670200D01*
X-5533455Y8670200D01*
X-5386542Y8670200D01*
X-5242458Y8698860D01*
X-5242456Y8698860D01*
X-5106733Y8755078D01*
X-5106732Y8755078D01*
X-4984580Y8836699D01*
X-4984576Y8836702D01*
X-4880702Y8940576D01*
X-4880699Y8940580D01*
X-4799078Y9062732D01*
X-4799078Y9062733D01*
X-4742860Y9198456D01*
X-4742860Y9198458D01*
X-4714200Y9342542D01*
X-4714200Y9489457D01*
X-4738345Y9610842D01*
X-4742860Y9633542D01*
X-4742860Y9633543D01*
X-4799078Y9769266D01*
X-4799078Y9769267D01*
X-4848791Y9843667D01*
X-4880699Y9891420D01*
X-4984580Y9995301D01*
X-5106731Y10076920D01*
X-5106733Y10076921D01*
X-5161347Y10099543D01*
X-5188675Y10110862D01*
X-5242458Y10133140D01*
X-5327216Y10149999D01*
X-4249999Y10149999D01*
X-4249999Y10068516D01*
X-4249998Y10068514D01*
X-4235166Y9974858D01*
X-4235163Y9974848D01*
X-4177641Y9861956D01*
X-4088043Y9772358D01*
X-3975151Y9714836D01*
X-3975147Y9714835D01*
X-3881484Y9700000D01*
X-3850001Y9700000D01*
X-3850000Y9700001D01*
X-3850000Y10149999D01*
X-3550000Y10149999D01*
X-3550000Y9700000D01*
X-3518517Y9700000D01*
X-3518512Y9700001D01*
X-3424858Y9714833D01*
X-3424848Y9714836D01*
X-3311956Y9772358D01*
X-3222358Y9861956D01*
X-3164836Y9974848D01*
X-3164835Y9974852D01*
X-3150000Y10068515D01*
X-3150000Y10149999D01*
X-3150001Y10150000D01*
X-3549999Y10150000D01*
X-3550000Y10149999D01*
X-3850000Y10149999D01*
X-3850001Y10150000D01*
X-4249998Y10150000D01*
X-4249999Y10149999D01*
X-5327216Y10149999D01*
X-5386545Y10161800D01*
X-5533455Y10161800D01*
X-5677542Y10133140D01*
X-5813269Y10076920D01*
X-5935420Y9995301D01*
X-6039301Y9891420D01*
X-6120920Y9769269D01*
X-6177140Y9633542D01*
X-6181760Y9610311D01*
X-6182151Y9608347D01*
X-6212045Y9554962D01*
X-6267610Y9529345D01*
X-6327620Y9541279D01*
X-6334250Y9545342D01*
X-6388124Y9581339D01*
X-6424857Y9605883D01*
X-6430806Y9608347D01*
X-6451417Y9616884D01*
X-6542094Y9654444D01*
X-6666552Y9679200D01*
X-6793448Y9679200D01*
X-6917906Y9654444D01*
X-7035143Y9605883D01*
X-7110999Y9555197D01*
X-7169886Y9538589D01*
X-7227290Y9559766D01*
X-7261283Y9610640D01*
X-7265000Y9637513D01*
X-7265000Y9746278D01*
X-7246093Y9804469D01*
X-7236005Y9816280D01*
X-7215001Y9837284D01*
X-7214996Y9837290D01*
X-7149109Y9951409D01*
X-7126284Y10036596D01*
X-7115000Y10078708D01*
X-7115000Y10210492D01*
X-7149108Y10337786D01*
X-7149109Y10337790D01*
X-7214996Y10451909D01*
X-7214998Y10451911D01*
X-7215000Y10451914D01*
X-7294570Y10531484D01*
X-4250000Y10531484D01*
X-4250000Y10450001D01*
X-4249999Y10450000D01*
X-3850001Y10450000D01*
X-3850000Y10450001D01*
X-3550000Y10450001D01*
X-3549999Y10450000D01*
X-3150002Y10450000D01*
X-3150001Y10450001D01*
X-3150001Y10531486D01*
X-3150006Y10531519D01*
X-2850500Y10531519D01*
X-2850499Y10299306D01*
X-2850499Y10068479D01*
X-2850498Y10068476D01*
X-2838910Y9995301D01*
X-2835646Y9974696D01*
X-2778050Y9861658D01*
X-2688342Y9771950D01*
X-2688340Y9771949D01*
X-2575304Y9714354D01*
X-2575305Y9714354D01*
X-2481522Y9699500D01*
X-2481519Y9699500D01*
X-2118479Y9699500D01*
X-2118476Y9699501D01*
X-2024700Y9714352D01*
X-2024695Y9714354D01*
X-1911659Y9771949D01*
X-1821949Y9861659D01*
X-1804734Y9895446D01*
X-1761469Y9938710D01*
X-1716525Y9949500D01*
X-1571545Y9949500D01*
X-1513354Y9930593D01*
X-1501542Y9920504D01*
X-1446212Y9865175D01*
X-1446211Y9865174D01*
X-1333625Y9810134D01*
X-1333626Y9810134D01*
X-1315377Y9807475D01*
X-1260636Y9799500D01*
X-1260633Y9799500D01*
X-939367Y9799500D01*
X-939364Y9799500D01*
X-895570Y9805880D01*
X-866373Y9810134D01*
X-753790Y9865173D01*
X-665173Y9953790D01*
X-610134Y10066373D01*
X-599500Y10139367D01*
X-599500Y10460632D01*
X-599500Y10460636D01*
X-609827Y10531519D01*
X-610134Y10533626D01*
X-665173Y10646209D01*
X-665174Y10646211D01*
X-720505Y10701542D01*
X-748281Y10756057D01*
X-749500Y10771544D01*
X-749500Y12500500D01*
X-730593Y12558691D01*
X-681093Y12594655D01*
X-650500Y12599500D01*
X-575327Y12599500D01*
X-575326Y12599500D01*
X-575325Y12599500D01*
X-575315Y12599501D01*
X-502263Y12614033D01*
X-502257Y12614035D01*
X-419400Y12669397D01*
X-419397Y12669400D01*
X-364035Y12752257D01*
X-364033Y12752263D01*
X-350086Y12822376D01*
X-350085Y12822376D01*
X-350086Y12822377D01*
X-349500Y12825318D01*
X-349500Y13588644D01*
X350000Y13588644D01*
X350000Y13411355D01*
X384586Y13237480D01*
X384586Y13237478D01*
X452428Y13073692D01*
X516166Y12978299D01*
X861232Y13323365D01*
X909916Y13239044D01*
X989044Y13159916D01*
X1073365Y13111232D01*
X728299Y12766166D01*
X823692Y12702428D01*
X987479Y12634586D01*
X1161355Y12600000D01*
X1338644Y12600000D01*
X1512519Y12634586D01*
X1512521Y12634586D01*
X1676307Y12702428D01*
X1771699Y12766166D01*
X1426633Y13111231D01*
X1510956Y13159916D01*
X1590084Y13239044D01*
X1638766Y13323364D01*
X1983832Y12978299D01*
X2047571Y13073692D01*
X2115413Y13237478D01*
X2115413Y13237480D01*
X2149999Y13411355D01*
X2150000Y13411358D01*
X2150000Y13588641D01*
X2149999Y13588644D01*
X2115413Y13762519D01*
X2115413Y13762521D01*
X2047571Y13926307D01*
X2047571Y13926308D01*
X1983832Y14021699D01*
X1638767Y13676634D01*
X1590084Y13760956D01*
X1510956Y13840084D01*
X1426634Y13888767D01*
X1771699Y14233832D01*
X1676307Y14297571D01*
X1512520Y14365413D01*
X1338644Y14399999D01*
X1338641Y14400000D01*
X1161359Y14400000D01*
X1161355Y14399999D01*
X987480Y14365413D01*
X987478Y14365413D01*
X823692Y14297571D01*
X728299Y14233832D01*
X1073364Y13888766D01*
X989044Y13840084D01*
X909916Y13760956D01*
X861231Y13676633D01*
X516166Y14021699D01*
X452428Y13926307D01*
X384586Y13762521D01*
X384586Y13762519D01*
X350000Y13588644D01*
X-349500Y13588644D01*
X-349500Y14174674D01*
X-350086Y14177619D01*
X-350085Y14177619D01*
X-350087Y14177623D01*
X-364034Y14247740D01*
X-364963Y14249131D01*
X-419397Y14330599D01*
X-419400Y14330602D01*
X-502257Y14385964D01*
X-502260Y14385966D01*
X-572812Y14400000D01*
X-575315Y14400498D01*
X-575320Y14400498D01*
X-575326Y14400500D01*
X-1924674Y14400500D01*
X-1997740Y14385966D01*
X-2080601Y14330601D01*
X-2135966Y14247740D01*
X-2149913Y14177623D01*
X-2150498Y14174684D01*
X-2150500Y14174672D01*
X-2150500Y12825327D01*
X-2150498Y12825315D01*
X-2149913Y12822376D01*
X-2135966Y12752260D01*
X-2135964Y12752257D01*
X-2080602Y12669400D01*
X-2080599Y12669397D01*
X-1997742Y12614035D01*
X-1997740Y12614034D01*
X-1997737Y12614033D01*
X-1997736Y12614033D01*
X-1924684Y12599501D01*
X-1924674Y12599500D01*
X-1689151Y12599500D01*
X-1630960Y12580593D01*
X-1594996Y12531093D01*
X-1593527Y12526132D01*
X-1590264Y12513956D01*
X-1590264Y12513949D01*
X-1590262Y12513950D01*
X-1590262Y12513949D01*
X-1576614Y12463012D01*
X-1530470Y12383088D01*
X-1530467Y12383085D01*
X-1479496Y12332113D01*
X-1451719Y12277596D01*
X-1450500Y12262110D01*
X-1450500Y10771545D01*
X-1469407Y10713354D01*
X-1479496Y10701541D01*
X-1501541Y10679496D01*
X-1556058Y10651719D01*
X-1571545Y10650500D01*
X-1716525Y10650500D01*
X-1774716Y10669407D01*
X-1804734Y10704554D01*
X-1819611Y10733752D01*
X-1821950Y10738342D01*
X-1911658Y10828050D01*
X-2024696Y10885646D01*
X-2118481Y10900500D01*
X-2481518Y10900499D01*
X-2481520Y10900499D01*
X-2481521Y10900498D01*
X-2514611Y10895258D01*
X-2575299Y10885647D01*
X-2575299Y10885646D01*
X-2575304Y10885646D01*
X-2688342Y10828050D01*
X-2778050Y10738342D01*
X-2835646Y10625304D01*
X-2850500Y10531519D01*
X-3150006Y10531519D01*
X-3164833Y10625141D01*
X-3164836Y10625151D01*
X-3222358Y10738043D01*
X-3311956Y10827641D01*
X-3424848Y10885163D01*
X-3424852Y10885164D01*
X-3518516Y10899999D01*
X-3550000Y10899999D01*
X-3550000Y10450001D01*
X-3850000Y10450001D01*
X-3850000Y10899998D01*
X-3850001Y10899999D01*
X-3881484Y10899999D01*
X-3975141Y10885166D01*
X-3975151Y10885163D01*
X-4088043Y10827641D01*
X-4177641Y10738043D01*
X-4235163Y10625151D01*
X-4235164Y10625147D01*
X-4250000Y10531484D01*
X-7294570Y10531484D01*
X-7308186Y10545100D01*
X-7308188Y10545101D01*
X-7308190Y10545103D01*
X-7422310Y10610990D01*
X-7422308Y10610990D01*
X-7422312Y10610991D01*
X-7422314Y10610992D01*
X-7549608Y10645100D01*
X-7681392Y10645100D01*
X-7808686Y10610992D01*
X-7808688Y10610990D01*
X-7808690Y10610990D01*
X-7910856Y10552004D01*
X-7922814Y10545100D01*
X-8016000Y10451914D01*
X-8016002Y10451909D01*
X-8016003Y10451909D01*
X-8077637Y10345155D01*
X-8081892Y10337786D01*
X-8116000Y10210492D01*
X-8116000Y10078708D01*
X-8081892Y9951414D01*
X-8081890Y9951411D01*
X-8081890Y9951409D01*
X-8016003Y9837290D01*
X-8013961Y9834629D01*
X-8013158Y9832363D01*
X-8012756Y9831666D01*
X-8012885Y9831591D01*
X-7993536Y9776953D01*
X-8010912Y9718287D01*
X-8059453Y9681039D01*
X-8073183Y9677263D01*
X-8187906Y9654444D01*
X-8305143Y9605883D01*
X-8410654Y9535383D01*
X-8500383Y9445654D01*
X-8552685Y9367378D01*
X-8600734Y9329499D01*
X-8661872Y9327097D01*
X-8712746Y9361089D01*
X-8717309Y9367369D01*
X-8769617Y9445654D01*
X-8859346Y9535383D01*
X-8964857Y9605883D01*
X-8970806Y9608347D01*
X-8991417Y9616884D01*
X-9082094Y9654444D01*
X-9206552Y9679200D01*
X-9333448Y9679200D01*
X-9352501Y9675410D01*
X-9413263Y9682600D01*
X-9441818Y9702500D01*
X-9462388Y9723070D01*
X-9542312Y9769214D01*
X-9545233Y9769996D01*
X-9545241Y9770001D01*
X-9545242Y9769999D01*
X-9631456Y9793100D01*
X-10954244Y9793100D01*
X-11040458Y9769999D01*
X-11043388Y9769214D01*
X-11123312Y9723070D01*
X-11686898Y9159483D01*
X-11741411Y9131709D01*
X-11801843Y9141280D01*
X-11845108Y9184545D01*
X-11855051Y9216567D01*
X-11867755Y9313066D01*
X-11867757Y9313071D01*
X-11878971Y9340143D01*
X-12019412Y9679199D01*
X-12087536Y9843665D01*
X-12087537Y9843667D01*
X-12322594Y10149999D01*
X-12437153Y10299296D01*
X-12437154Y10299297D01*
X-12437158Y10299302D01*
X-12450046Y10309191D01*
X-12517140Y10360674D01*
X-12892793Y10648923D01*
X-13423391Y10868704D01*
X-13742145Y10910668D01*
X-13797369Y10937009D01*
X-13826564Y10990780D01*
X-13818578Y11051441D01*
X-13807450Y11069496D01*
X-13727753Y11172249D01*
X-13724808Y11175866D01*
X-13186269Y11806467D01*
X-13183157Y11809942D01*
X-12615499Y12414488D01*
X-12612227Y12417812D01*
X-12016736Y12994937D01*
X-12013311Y12998104D01*
X-11391268Y13546563D01*
X-11387697Y13549564D01*
X-10740541Y14068089D01*
X-10736851Y14070905D01*
X-10065969Y14558386D01*
X-10062136Y14561036D01*
X-9369022Y15016383D01*
X-9365064Y15018851D01*
X-8651321Y15441015D01*
X-8647252Y15443295D01*
X-7914367Y15831398D01*
X-7910194Y15833483D01*
X-7159866Y16186620D01*
X-7155600Y16188506D01*
X-6389488Y16505901D01*
X-6385138Y16507585D01*
X-5604880Y16788557D01*
X-5600455Y16790033D01*
X-4807879Y17033926D01*
X-4803390Y17035193D01*
X-4000157Y17241493D01*
X-3995613Y17242546D01*
X-3183601Y17410773D01*
X-3179012Y17411612D01*
X-2359937Y17541409D01*
X-2355314Y17542030D01*
X-1531062Y17633099D01*
X-1526415Y17633502D01*
X-698784Y17685645D01*
X-694123Y17685829D01*
X135076Y17698930D01*
X139741Y17698893D01*
G37*
%TD.AperFunction*%
%TD*%
M02*
