%TF.GenerationSoftware,KiCad,Pcbnew,10.0.6*%
%TF.CreationDate,2026-09-26T23:25:40+02:00*%
%TF.ProjectId,shotpuck,73686f74-7075-4636-9b2e-6b696361645f,rev?*%
%TF.SameCoordinates,Original*%
%TF.FileFunction,Copper,L1,Top*%
%TF.FilePolarity,Positive*%
%FSLAX46Y46*%
G04 Gerber Fmt 4.6, Leading zero omitted, Abs format (unit mm)*
G04 Created by KiCad (PCBNEW 10.0.6) date 2026-09-26 23:25:40*
%MOMM*%
%LPD*%
G01*
G04 APERTURE LIST*
G04 Aperture macros list*
%AMRoundRect*
0 Rectangle with rounded corners*
0 $1 Rounding radius*
0 $2 $3 $4 $5 $6 $7 $8 $9 X,Y pos of 4 corners*
0 Add a 4 corners polygon primitive as box body*
4,1,4,$2,$3,$4,$5,$6,$7,$8,$9,$2,$3,0*
0 Add four circle primitives for the rounded corners*
1,1,$1+$1,$2,$3*
1,1,$1+$1,$4,$5*
1,1,$1+$1,$6,$7*
1,1,$1+$1,$8,$9*
0 Add four rect primitives between the rounded corners*
20,1,$1+$1,$2,$3,$4,$5,0*
20,1,$1+$1,$4,$5,$6,$7,0*
20,1,$1+$1,$6,$7,$8,$9,0*
20,1,$1+$1,$8,$9,$2,$3,0*%
G04 Aperture macros list end*
%TA.AperFunction,EtchedComponent*%
%ADD10C,0.000000*%
%TD*%
%TA.AperFunction,SMDPad,CuDef*%
%ADD11RoundRect,0.135000X0.185000X-0.135000X0.185000X0.135000X-0.185000X0.135000X-0.185000X-0.135000X0*%
%TD*%
%TA.AperFunction,SMDPad,CuDef*%
%ADD12RoundRect,0.140000X-0.140000X-0.170000X0.140000X-0.170000X0.140000X0.170000X-0.140000X0.170000X0*%
%TD*%
%TA.AperFunction,SMDPad,CuDef*%
%ADD13RoundRect,0.125000X0.125000X-0.125000X0.125000X0.125000X-0.125000X0.125000X-0.125000X-0.125000X0*%
%TD*%
%TA.AperFunction,SMDPad,CuDef*%
%ADD14RoundRect,0.150000X0.150000X0.200000X-0.150000X0.200000X-0.150000X-0.200000X0.150000X-0.200000X0*%
%TD*%
%TA.AperFunction,SMDPad,CuDef*%
%ADD15RoundRect,0.087500X-0.425000X-0.087500X0.425000X-0.087500X0.425000X0.087500X-0.425000X0.087500X0*%
%TD*%
%TA.AperFunction,SMDPad,CuDef*%
%ADD16RoundRect,0.225000X-0.225000X-0.250000X0.225000X-0.250000X0.225000X0.250000X-0.225000X0.250000X0*%
%TD*%
%TA.AperFunction,SMDPad,CuDef*%
%ADD17R,0.400000X0.600000*%
%TD*%
%TA.AperFunction,SMDPad,CuDef*%
%ADD18R,0.600000X0.400000*%
%TD*%
%TA.AperFunction,SMDPad,CuDef*%
%ADD19RoundRect,0.135000X-0.135000X-0.185000X0.135000X-0.185000X0.135000X0.185000X-0.135000X0.185000X0*%
%TD*%
%TA.AperFunction,SMDPad,CuDef*%
%ADD20RoundRect,0.087500X-0.087500X0.225000X-0.087500X-0.225000X0.087500X-0.225000X0.087500X0.225000X0*%
%TD*%
%TA.AperFunction,SMDPad,CuDef*%
%ADD21RoundRect,0.087500X-0.225000X0.087500X-0.225000X-0.087500X0.225000X-0.087500X0.225000X0.087500X0*%
%TD*%
%TA.AperFunction,SMDPad,CuDef*%
%ADD22RoundRect,0.225000X0.250000X-0.225000X0.250000X0.225000X-0.250000X0.225000X-0.250000X-0.225000X0*%
%TD*%
%TA.AperFunction,SMDPad,CuDef*%
%ADD23RoundRect,0.140000X0.140000X0.170000X-0.140000X0.170000X-0.140000X-0.170000X0.140000X-0.170000X0*%
%TD*%
%TA.AperFunction,SMDPad,CuDef*%
%ADD24RoundRect,0.150000X-0.512500X-0.150000X0.512500X-0.150000X0.512500X0.150000X-0.512500X0.150000X0*%
%TD*%
%TA.AperFunction,SMDPad,CuDef*%
%ADD25RoundRect,0.125000X0.125000X0.125000X-0.125000X0.125000X-0.125000X-0.125000X0.125000X-0.125000X0*%
%TD*%
%TA.AperFunction,SMDPad,CuDef*%
%ADD26RoundRect,0.147500X0.147500X0.172500X-0.147500X0.172500X-0.147500X-0.172500X0.147500X-0.172500X0*%
%TD*%
%TA.AperFunction,SMDPad,CuDef*%
%ADD27R,1.000000X1.500000*%
%TD*%
%TA.AperFunction,ConnectorPad*%
%ADD28C,0.787400*%
%TD*%
%TA.AperFunction,ComponentPad*%
%ADD29R,1.500000X1.500000*%
%TD*%
%TA.AperFunction,ComponentPad*%
%ADD30C,1.500000*%
%TD*%
%TA.AperFunction,SMDPad,CuDef*%
%ADD31R,3.000000X2.200000*%
%TD*%
%TA.AperFunction,ViaPad*%
%ADD32C,0.500000*%
%TD*%
%TA.AperFunction,Conductor*%
%ADD33C,0.200000*%
%TD*%
G04 APERTURE END LIST*
D10*
%TA.AperFunction,EtchedComponent*%
%TO.C,JP1*%
G36*
X5550000Y-10300000D02*
G01*
X5050000Y-10300000D01*
X5050000Y-9700000D01*
X5550000Y-9700000D01*
X5550000Y-10300000D01*
G37*
%TD.AperFunction*%
%TD*%
D11*
%TO.P,R6,1*%
%TO.N,VDD*%
X100000Y-11310000D03*
%TO.P,R6,2*%
%TO.N,SDA*%
X100000Y-10290000D03*
%TD*%
D12*
%TO.P,C7,1*%
%TO.N,VDD*%
X-4830000Y-10500000D03*
%TO.P,C7,2*%
%TO.N,GND*%
X-3870000Y-10500000D03*
%TD*%
D13*
%TO.P,D2,1*%
%TO.N,STAT*%
X13000000Y-11100000D03*
%TO.P,D2,2*%
%TO.N,CHG_STAT*%
X13000000Y-8900000D03*
%TD*%
D14*
%TO.P,D3,1*%
%TO.N,GND*%
X-3200000Y15500000D03*
%TO.P,D3,2*%
%TO.N,VIN_RAW*%
X-1800000Y15500000D03*
%TD*%
D15*
%TO.P,Q1,1*%
%TO.N,GND*%
X8362500Y-11950000D03*
%TO.P,Q1,2*%
%TO.N,Q1_GATE*%
X8362500Y-12600000D03*
%TO.P,Q1,3*%
X8362500Y-13250000D03*
%TO.P,Q1,4*%
%TO.N,GND*%
X10037500Y-13250000D03*
%TO.P,Q1,5*%
%TO.N,CHG_INH*%
X10037500Y-12600000D03*
%TO.P,Q1,6*%
%TO.N,PROG_SW*%
X10037500Y-11950000D03*
%TD*%
D16*
%TO.P,C1,1*%
%TO.N,VIN*%
X9425000Y13200000D03*
%TO.P,C1,2*%
%TO.N,GND*%
X10975000Y13200000D03*
%TD*%
D12*
%TO.P,C3,1*%
%TO.N,VBAT*%
X620000Y6900000D03*
%TO.P,C3,2*%
%TO.N,GND*%
X1580000Y6900000D03*
%TD*%
D11*
%TO.P,R5,1*%
%TO.N,VDD*%
X-1000000Y-9810000D03*
%TO.P,R5,2*%
%TO.N,SCL*%
X-1000000Y-8790000D03*
%TD*%
%TO.P,R3,1*%
%TO.N,CHG_INH*%
X11500000Y-13110000D03*
%TO.P,R3,2*%
%TO.N,GND*%
X11500000Y-12090000D03*
%TD*%
D17*
%TO.P,U1,1*%
%TO.N,GND*%
X-13000000Y-4650000D03*
%TO.P,U1,2*%
X-11900000Y-4650000D03*
%TO.P,U1,3*%
%TO.N,N/C*%
X-11100000Y-4650000D03*
%TO.P,U1,4*%
X-9500000Y-4650000D03*
%TO.P,U1,5*%
X-9100000Y-3750000D03*
%TO.P,U1,6*%
X-8700000Y-4650000D03*
%TO.P,U1,7*%
X-8300000Y-3750000D03*
%TO.P,U1,8*%
X-7900000Y-4650000D03*
%TO.P,U1,9*%
X-7500000Y-3750000D03*
%TO.P,U1,10*%
X-7100000Y-4650000D03*
%TO.P,U1,11*%
X-6700000Y-3750000D03*
%TO.P,U1,12*%
X-6300000Y-4650000D03*
%TO.P,U1,13*%
X-5900000Y-3750000D03*
%TO.P,U1,14*%
X-5500000Y-4650000D03*
D18*
%TO.P,U1,15*%
%TO.N,GND*%
X-2100000Y-4800000D03*
%TO.P,U1,16*%
%TO.N,CHG_INH*%
X-2100000Y-4000000D03*
%TO.P,U1,17*%
%TO.N,N/C*%
X-2100000Y-3200000D03*
%TO.P,U1,18*%
X-2100000Y-2400000D03*
%TO.P,U1,19*%
X-3000000Y-2000000D03*
%TO.P,U1,20*%
%TO.N,SCL*%
X-2100000Y-1600000D03*
%TO.P,U1,21*%
%TO.N,N/C*%
X-3000000Y-1200000D03*
%TO.P,U1,22*%
%TO.N,SDA*%
X-2100000Y-800000D03*
%TO.P,U1,23*%
%TO.N,N/C*%
X-3000000Y-400000D03*
%TO.P,U1,24*%
%TO.N,ACC_INT1*%
X-2100000Y0D03*
%TO.P,U1,25*%
%TO.N,N/C*%
X-3000000Y400000D03*
%TO.P,U1,26*%
%TO.N,CHG_STAT*%
X-2100000Y800000D03*
%TO.P,U1,27*%
%TO.N,N/C*%
X-3000000Y1200000D03*
%TO.P,U1,28*%
%TO.N,VDD*%
X-2100000Y1600000D03*
%TO.P,U1,29*%
%TO.N,N/C*%
X-3000000Y2000000D03*
%TO.P,U1,30*%
%TO.N,VBAT*%
X-2100000Y2400000D03*
%TO.P,U1,31*%
%TO.N,N/C*%
X-2100000Y3200000D03*
%TO.P,U1,32*%
%TO.N,VIN*%
X-2100000Y4000000D03*
%TO.P,U1,33*%
%TO.N,GND*%
X-2100000Y4800000D03*
D17*
%TO.P,U1,34*%
%TO.N,N/C*%
X-3100000Y4650000D03*
%TO.P,U1,35*%
X-3900000Y4650000D03*
%TO.P,U1,36*%
X-4300000Y3750000D03*
%TO.P,U1,37*%
%TO.N,LED_IO*%
X-4700000Y4650000D03*
%TO.P,U1,38*%
%TO.N,N/C*%
X-5100000Y3750000D03*
%TO.P,U1,39*%
X-5500000Y4650000D03*
%TO.P,U1,40*%
X-5900000Y3750000D03*
%TO.P,U1,41*%
X-6300000Y4650000D03*
%TO.P,U1,42*%
X-6700000Y3750000D03*
%TO.P,U1,43*%
X-7500000Y3750000D03*
%TO.P,U1,44*%
X-7900000Y4650000D03*
%TO.P,U1,45*%
X-8300000Y3750000D03*
%TO.P,U1,46*%
X-8700000Y4650000D03*
%TO.P,U1,47*%
X-9100000Y3750000D03*
%TO.P,U1,48*%
X-9500000Y4650000D03*
%TO.P,U1,49*%
X-9900000Y3750000D03*
%TO.P,U1,50*%
X-10700000Y3750000D03*
%TO.P,U1,51*%
%TO.N,SWDIO*%
X-11100000Y4650000D03*
%TO.P,U1,52*%
%TO.N,N/C*%
X-11500000Y3750000D03*
%TO.P,U1,53*%
%TO.N,SWDCLK*%
X-11900000Y4650000D03*
%TO.P,U1,54*%
%TO.N,N/C*%
X-12300000Y3750000D03*
%TO.P,U1,55*%
%TO.N,GND*%
X-13000000Y4650000D03*
D18*
%TO.P,U1,56*%
%TO.N,N/C*%
X-8700000Y-2000000D03*
%TO.P,U1,57*%
X-8700000Y-1200000D03*
%TO.P,U1,58*%
X-8700000Y-400000D03*
%TO.P,U1,59*%
X-8700000Y400000D03*
%TO.P,U1,60*%
X-8700000Y1200000D03*
%TO.P,U1,61*%
X-8700000Y2000000D03*
%TD*%
D11*
%TO.P,R1,1*%
%TO.N,PROG*%
X6900000Y-14110000D03*
%TO.P,R1,2*%
%TO.N,PROG_SW*%
X6900000Y-13090000D03*
%TD*%
D19*
%TO.P,R4,1*%
%TO.N,LED_IO*%
X-7410000Y7400000D03*
%TO.P,R4,2*%
%TO.N,LED_A*%
X-6390000Y7400000D03*
%TD*%
D20*
%TO.P,U2,1*%
%TO.N,GND*%
X-2850000Y-7037499D03*
%TO.P,U2,2*%
X-3350000Y-7037499D03*
%TO.P,U2,3*%
X-3850000Y-7037499D03*
%TO.P,U2,4*%
%TO.N,ACC_INT1*%
X-4350000Y-7037499D03*
D21*
%TO.P,U2,5*%
%TO.N,VDD*%
X-4512500Y-7699999D03*
%TO.P,U2,6*%
%TO.N,GND*%
X-4512500Y-8199999D03*
%TO.P,U2,7*%
X-4512500Y-8699999D03*
D20*
%TO.P,U2,8*%
%TO.N,VDD*%
X-4350000Y-9362499D03*
%TO.P,U2,9*%
%TO.N,N/C*%
X-3850000Y-9362499D03*
%TO.P,U2,10*%
X-3350000Y-9362499D03*
%TO.P,U2,11*%
X-2850000Y-9362499D03*
D21*
%TO.P,U2,12*%
%TO.N,VDD*%
X-2687500Y-8699999D03*
%TO.P,U2,13*%
%TO.N,SCL*%
X-2687500Y-8199999D03*
%TO.P,U2,14*%
%TO.N,SDA*%
X-2687500Y-7699999D03*
%TD*%
D22*
%TO.P,C2,1*%
%TO.N,VBAT*%
X2400000Y-10975000D03*
%TO.P,C2,2*%
%TO.N,GND*%
X2400000Y-9425000D03*
%TD*%
D23*
%TO.P,C6,1*%
%TO.N,VDD*%
X-5620000Y-7200000D03*
%TO.P,C6,2*%
%TO.N,GND*%
X-6580000Y-7200000D03*
%TD*%
D24*
%TO.P,U3,1*%
%TO.N,STAT*%
X2762500Y-12450000D03*
%TO.P,U3,2*%
%TO.N,GND*%
X2762500Y-13400000D03*
%TO.P,U3,3*%
%TO.N,VBAT*%
X2762500Y-14350000D03*
%TO.P,U3,4*%
%TO.N,VIN*%
X5037500Y-14350000D03*
%TO.P,U3,5*%
%TO.N,PROG*%
X5037500Y-12450000D03*
%TD*%
D25*
%TO.P,D1,1*%
%TO.N,VIN*%
X8000000Y12900000D03*
%TO.P,D1,2*%
%TO.N,VIN_RAW*%
X5800000Y12900000D03*
%TD*%
D26*
%TO.P,D4,1*%
%TO.N,GND*%
X-4415000Y7400000D03*
%TO.P,D4,2*%
%TO.N,LED_A*%
X-5385000Y7400000D03*
%TD*%
D27*
%TO.P,JP1,1*%
%TO.N,BAT_P*%
X4650000Y-10000000D03*
%TO.P,JP1,2*%
%TO.N,VBAT*%
X5950000Y-10000000D03*
%TD*%
D28*
%TO.P,J2,1*%
%TO.N,VDD*%
X-10270000Y10365000D03*
%TO.P,J2,2*%
%TO.N,SWDIO*%
X-10270000Y11635000D03*
%TO.P,J2,3*%
%TO.N,N/C*%
X-9000000Y10365000D03*
%TO.P,J2,4*%
%TO.N,SWDCLK*%
X-9000000Y11635000D03*
%TO.P,J2,5*%
%TO.N,GND*%
X-7730000Y10365000D03*
%TO.P,J2,6*%
%TO.N,N/C*%
X-7730000Y11635000D03*
%TD*%
D19*
%TO.P,R2,1*%
%TO.N,VIN*%
X8290000Y-14600000D03*
%TO.P,R2,2*%
%TO.N,Q1_GATE*%
X9310000Y-14600000D03*
%TD*%
D29*
%TO.P,J1,1*%
%TO.N,VIN_RAW*%
X-1250000Y12000000D03*
D30*
%TO.P,J1,2*%
%TO.N,GND*%
X1250000Y12000000D03*
%TD*%
D12*
%TO.P,C5,1*%
%TO.N,VDD*%
X-1780000Y8100000D03*
%TO.P,C5,2*%
%TO.N,GND*%
X-820000Y8100000D03*
%TD*%
D31*
%TO.P,BT1,1*%
%TO.N,BAT_P*%
X8500000Y-9400000D03*
%TO.P,BT1,2*%
%TO.N,GND*%
X8500000Y9400000D03*
%TD*%
D12*
%TO.P,C4,1*%
%TO.N,VDD*%
X-1780000Y6900000D03*
%TO.P,C4,2*%
%TO.N,GND*%
X-820000Y6900000D03*
%TD*%
D32*
%TO.N,VDD*%
X-5158200Y-9649600D03*
X-443200Y647700D03*
X-4932400Y-7043900D03*
%TO.N,GND*%
X-2970000Y-10500000D03*
X6400000Y-16000000D03*
X-4800000Y-14400000D03*
X1600000Y16000000D03*
X-369999Y6120577D03*
X12014230Y12600000D03*
X4800000Y-16000000D03*
X-12345619Y-5431935D03*
X6400000Y14400000D03*
X6400000Y16000000D03*
X-6400000Y16000000D03*
X-8000000Y14400000D03*
X-14400000Y-8000000D03*
X-2182974Y-6433282D03*
X0Y16000000D03*
X-1600000Y-12800000D03*
X11200000Y11200000D03*
X-12800000Y-9600000D03*
X-6400000Y-16000000D03*
X11500000Y-11190000D03*
X-14400000Y-9600000D03*
X1562500Y-13400000D03*
X-1508061Y-5477944D03*
X12800000Y11200000D03*
X-4800000Y-16000000D03*
X-6400000Y14400000D03*
X2400000Y-8525000D03*
X80000Y8100000D03*
X-1248393Y5091148D03*
X0Y-12800000D03*
X4800000Y16000000D03*
X7818557Y-11232973D03*
X-11200000Y-8000000D03*
X-11171272Y-5459788D03*
X-3200000Y-14400000D03*
X-3660777Y-7917382D03*
X2480000Y6900000D03*
X3200000Y16000000D03*
X-3160777Y-6157615D03*
X-7480000Y-7200000D03*
X-5412500Y-8199999D03*
X-6400000Y-14400000D03*
X-3200000Y-12800000D03*
X-9600000Y14400000D03*
X-3200000Y-16000000D03*
X9600000Y11200000D03*
X-3515000Y7400000D03*
X-12800000Y-8000000D03*
X3200000Y-16000000D03*
X8500000Y11000000D03*
X-4100000Y15500000D03*
X-6066844Y-9079491D03*
X-1600000Y-11200000D03*
X8000000Y14400000D03*
X-4800000Y-12800000D03*
X10581442Y-13967026D03*
%TO.N,STAT*%
X3192800Y-11738000D03*
X12252500Y-12599200D03*
%TO.N,CHG_STAT*%
X-348000Y-712600D03*
X12656600Y-7868600D03*
%TO.N,CHG_INH*%
X-3182800Y-4120500D03*
X10580000Y-9920600D03*
%TO.N,PROG_SW*%
X10507600Y-10665600D03*
X6884100Y-11145100D03*
%TO.N,VIN*%
X5284500Y8132700D03*
X-5325700Y-6313200D03*
X4832900Y-13307000D03*
X-1296500Y4280900D03*
%TO.N,VBAT*%
X373400Y-4768600D03*
X-1368300Y2710300D03*
X-3048700Y-3224800D03*
X292000Y2982700D03*
%TO.N,SCL*%
X-1148400Y-4194300D03*
X-339700Y-9345500D03*
%TO.N,ACC_INT1*%
X-242900Y-2413600D03*
X-4038000Y-6014100D03*
%TD*%
%TO.N,VDD*%
D33*
X-5158200Y-9649600D02*
X-4830000Y-9977800D01*
X-1000000Y-10210000D02*
X100000Y-11310000D01*
X-1577500Y-9810000D02*
X-2012400Y-9375100D01*
X-4350000Y-10020000D02*
X-4350000Y-9932400D01*
X-2569700Y-9932400D02*
X-4350000Y-9932400D01*
X-2012400Y-9375100D02*
X-2569700Y-9932400D01*
X-443200Y5368700D02*
X-443200Y647700D01*
X-4830000Y-10500000D02*
X-4350000Y-10020000D01*
X-8005000Y8100000D02*
X-10270000Y10365000D01*
X-1780000Y6900000D02*
X-1780000Y8100000D01*
X-4350000Y-9932400D02*
X-4350000Y-9362500D01*
X-1780000Y8100000D02*
X-8005000Y8100000D01*
X-4932400Y-7200000D02*
X-4932400Y-7043900D01*
X-2012400Y-9375100D02*
X-2687500Y-8700000D01*
X-1780000Y6900000D02*
X-1780000Y6705500D01*
X-4932400Y-7280100D02*
X-4932400Y-7200000D01*
X-1395500Y1600000D02*
X-2100000Y1600000D01*
X-4932400Y-7200000D02*
X-5620000Y-7200000D01*
X-1000000Y-9810000D02*
X-1000000Y-10210000D01*
X-4512500Y-7700000D02*
X-4932400Y-7280100D01*
X-1000000Y-9810000D02*
X-1577500Y-9810000D01*
X-1780000Y6705500D02*
X-443200Y5368700D01*
X-4830000Y-9977800D02*
X-4830000Y-10500000D01*
X-443200Y647700D02*
X-1395500Y1600000D01*
%TO.N,SDA*%
X-955700Y-7585100D02*
X-646700Y-7276100D01*
X162000Y-8702800D02*
X-955700Y-7585100D01*
X-954200Y-3679100D02*
X-954200Y-1848100D01*
X-954100Y-3679100D02*
X-954200Y-3679100D01*
X-646700Y-3986500D02*
X-954100Y-3679100D01*
X-2687500Y-7700000D02*
X-2572600Y-7585100D01*
X-646700Y-7276100D02*
X-646700Y-3986500D01*
X162000Y-10228000D02*
X162000Y-8702800D01*
X-954200Y-1848100D02*
X-2002300Y-800000D01*
X-2572600Y-7585100D02*
X-955700Y-7585100D01*
X-2002300Y-800000D02*
X-2100000Y-800000D01*
X100000Y-10290000D02*
X162000Y-10228000D01*
%TO.N,GND*%
X-12121700Y-5039000D02*
X-11171300Y-5459800D01*
X-2100000Y4800000D02*
X-1248400Y5091200D01*
X-3850000Y-7037499D02*
X-3660777Y-7917382D01*
X-6580000Y-7200000D02*
X-7480000Y-7200000D01*
X-820000Y6900000D02*
X-369999Y6120577D01*
X8500000Y9400000D02*
X8500000Y11000000D01*
X2400000Y-9425000D02*
X2400000Y-8525000D01*
X-2100000Y4800000D02*
X-1248393Y5091148D01*
X-2100000Y-4800000D02*
X-1508061Y-5477944D01*
X-4512500Y-8199999D02*
X-5412500Y-8199999D01*
X1580000Y6900000D02*
X2480000Y6900000D01*
X-2850000Y-7037499D02*
X-2182974Y-6433282D01*
X-13000000Y-4650000D02*
X-11171272Y-5459788D01*
X10037500Y-13250000D02*
X10581442Y-13967026D01*
X10975000Y13200000D02*
X12014230Y12600000D01*
X2762500Y-13400000D02*
X1562500Y-13400000D01*
X-4415000Y7400000D02*
X-3515000Y7400000D01*
X-11900000Y-4650000D02*
X-12345619Y-5431935D01*
X-4512500Y-8699999D02*
X-6066844Y-9079491D01*
X-3870000Y-10500000D02*
X-2970000Y-10500000D01*
X-12121700Y-5039000D02*
X-12345600Y-5431900D01*
X11500000Y-12090000D02*
X11500000Y-11190000D01*
X-3200000Y15500000D02*
X-4100000Y15500000D01*
X-11900000Y-4650000D02*
X-12121700Y-5039000D01*
X-820000Y8100000D02*
X80000Y8100000D01*
X-3350000Y-7037499D02*
X-3160777Y-6157615D01*
X8362500Y-11950000D02*
X7818557Y-11232973D01*
X-13000000Y-4650000D02*
X-12121700Y-5039000D01*
%TO.N,STAT*%
X2762500Y-12450000D02*
X2762500Y-12168300D01*
X13000000Y-11851700D02*
X13000000Y-11100000D01*
X12252500Y-12599200D02*
X13000000Y-11851700D01*
X2762500Y-12168300D02*
X3192800Y-11738000D01*
%TO.N,CHG_STAT*%
X-1548300Y487700D02*
X-1548300Y800000D01*
X-348000Y-712600D02*
X-1548300Y487700D01*
X13000000Y-8900000D02*
X12656600Y-8556600D01*
X12656600Y-8556600D02*
X12656600Y-7868600D01*
X-2100000Y800000D02*
X-1548300Y800000D01*
%TO.N,VIN_RAW*%
X5698300Y13001700D02*
X698300Y13001700D01*
X-1800000Y15500000D02*
X698300Y13001700D01*
X5800000Y12900000D02*
X5698300Y13001700D01*
X698300Y13001700D02*
X698300Y12946600D01*
X-1250000Y12000000D02*
X-248300Y12000000D01*
X698300Y12946600D02*
X-248300Y12000000D01*
%TO.N,Q1_GATE*%
X9310000Y-14197500D02*
X8362500Y-13250000D01*
X8362500Y-13250000D02*
X8362500Y-12600000D01*
X9310000Y-14600000D02*
X9310000Y-14197500D01*
%TO.N,CHG_INH*%
X11009300Y-10873400D02*
X11009300Y-10349900D01*
X10800200Y-12600000D02*
X10895100Y-12505100D01*
X-3062300Y-4000000D02*
X-3182800Y-4120500D01*
X10895100Y-12505100D02*
X11500000Y-13110000D01*
X10037500Y-12600000D02*
X10800200Y-12600000D01*
X-2100000Y-4000000D02*
X-3062300Y-4000000D01*
X10895100Y-10987600D02*
X11009300Y-10873400D01*
X11009300Y-10349900D02*
X10580000Y-9920600D01*
X10895100Y-12505100D02*
X10895100Y-10987600D01*
%TO.N,PROG_SW*%
X6900000Y-11161000D02*
X6884100Y-11145100D01*
X6900000Y-13090000D02*
X6900000Y-11161000D01*
X10507600Y-11479900D02*
X10037500Y-11950000D01*
X10507600Y-10665600D02*
X10507600Y-11479900D01*
%TO.N,VIN*%
X-2100000Y4000000D02*
X-1548300Y4000000D01*
X8300000Y13200000D02*
X8000000Y12900000D01*
X5037500Y-14350000D02*
X4832900Y-14145400D01*
X-5325700Y-6313200D02*
X-5000300Y-5987800D01*
X-5000300Y1651400D02*
X-2651700Y4000000D01*
X-2375800Y4000000D02*
X-2651700Y4000000D01*
X5284500Y10184500D02*
X8000000Y12900000D01*
X5284500Y8132700D02*
X5284500Y10184500D01*
X8290000Y-14600000D02*
X8234200Y-14655800D01*
X8234200Y-14655800D02*
X5343300Y-14655800D01*
X5343300Y-14655800D02*
X5037500Y-14350000D01*
X-1548300Y4029100D02*
X-1296500Y4280900D01*
X-2375800Y4000000D02*
X-2100000Y4000000D01*
X4832900Y-14145400D02*
X4832900Y-13307000D01*
X9425000Y13200000D02*
X8300000Y13200000D01*
X-1548300Y4000000D02*
X-1548300Y4029100D01*
X-5000300Y-5987800D02*
X-5000300Y1651400D01*
%TO.N,VBAT*%
X-3048700Y-3224800D02*
X-3551700Y-2721800D01*
X3147000Y-10975000D02*
X2400000Y-10975000D01*
X3701400Y-13725300D02*
X3701400Y-11529400D01*
X5950000Y-10000000D02*
X5950000Y-11001700D01*
X-3551700Y-2721800D02*
X-3551700Y2347100D01*
X-2154700Y2454700D02*
X-2100000Y2400000D01*
X1071600Y-9646600D02*
X1071600Y-5466800D01*
X2762500Y-14350000D02*
X3076700Y-14350000D01*
X3701400Y-11529400D02*
X3147000Y-10975000D01*
X292000Y6572000D02*
X292000Y2982700D01*
X620000Y6900000D02*
X292000Y6572000D01*
X-2100000Y2400000D02*
X-1548300Y2400000D01*
X2400000Y-10975000D02*
X1071600Y-9646600D01*
X1071600Y-5466800D02*
X373400Y-4768600D01*
X5422300Y-11529400D02*
X5950000Y-11001700D01*
X-1548300Y2530300D02*
X-1548300Y2400000D01*
X-1368300Y2710300D02*
X-1548300Y2530300D01*
X3076700Y-14350000D02*
X3701400Y-13725300D01*
X-3444100Y2454700D02*
X-2154700Y2454700D01*
X-3551700Y2347100D02*
X-3444100Y2454700D01*
X3701400Y-11529400D02*
X5422300Y-11529400D01*
%TO.N,SCL*%
X-339700Y-9345500D02*
X-895200Y-8790000D01*
X-895200Y-8790000D02*
X-1000000Y-8790000D01*
X-1349800Y-3992900D02*
X-1349800Y-2294200D01*
X-2044000Y-1600000D02*
X-2100000Y-1600000D01*
X-2687500Y-8200000D02*
X-1590000Y-8200000D01*
X-1148400Y-4194300D02*
X-1349800Y-3992900D01*
X-1349800Y-2294200D02*
X-2044000Y-1600000D01*
X-1590000Y-8200000D02*
X-1000000Y-8790000D01*
%TO.N,ACC_INT1*%
X-242900Y-2413600D02*
X-242900Y-1777000D01*
X-4038000Y-6014100D02*
X-4350000Y-6326100D01*
X-242900Y-1777000D02*
X-2019900Y0D01*
X-4350000Y-6326100D02*
X-4350000Y-7037500D01*
X-2019900Y0D02*
X-2100000Y0D01*
%TO.N,LED_IO*%
X-4700000Y4650000D02*
X-4700000Y5201700D01*
X-5211700Y5201700D02*
X-7410000Y7400000D01*
X-4700000Y5201700D02*
X-5211700Y5201700D01*
%TO.N,SWDIO*%
X-11963900Y12004300D02*
X-10639300Y12004300D01*
X-11100000Y9127900D02*
X-12583600Y10611500D01*
X-10639300Y12004300D02*
X-10270000Y11635000D01*
X-12583600Y10611500D02*
X-12583600Y11384600D01*
X-11100000Y4650000D02*
X-11100000Y9127900D01*
X-12583600Y11384600D02*
X-11963900Y12004300D01*
%TO.N,SWDCLK*%
X-12975100Y11549100D02*
X-12975100Y10434000D01*
X-9773400Y12408400D02*
X-12115800Y12408400D01*
X-12975100Y10434000D02*
X-11900000Y9358900D01*
X-9000000Y11635000D02*
X-9773400Y12408400D01*
X-12115800Y12408400D02*
X-12975100Y11549100D01*
X-11900000Y9358900D02*
X-11900000Y4650000D01*
%TO.N,PROG*%
X6697500Y-14110000D02*
X6900000Y-14110000D01*
X5037500Y-12450000D02*
X6697500Y-14110000D01*
%TO.N,LED_A*%
X-5385000Y7400000D02*
X-6390000Y7400000D01*
%TO.N,BAT_P*%
X8500000Y-9400000D02*
X6748300Y-9400000D01*
X6748300Y-9180700D02*
X6565900Y-8998300D01*
X6565900Y-8998300D02*
X4650000Y-8998300D01*
X6748300Y-9400000D02*
X6748300Y-9180700D01*
X4650000Y-10000000D02*
X4650000Y-8998300D01*
%TD*%
%TA.AperFunction,Conductor*%
%TO.N,GND*%
G36*
X-12611076Y9570426D02*
G01*
X-12592800Y9556018D01*
X-12279496Y9242713D01*
X-12251719Y9188197D01*
X-12250500Y9172710D01*
X-12250500Y5201709D01*
X-12269407Y5143518D01*
X-12279496Y5131705D01*
X-12280594Y5130605D01*
X-12280601Y5130601D01*
X-12335966Y5047740D01*
X-12340564Y5024624D01*
X-12350498Y4974684D01*
X-12350500Y4974672D01*
X-12350500Y4399500D01*
X-12369407Y4341309D01*
X-12418907Y4305345D01*
X-12449500Y4300500D01*
X-12451000Y4300500D01*
X-12509191Y4319407D01*
X-12545155Y4368907D01*
X-12550000Y4399500D01*
X-12550000Y4499999D01*
X-12550001Y4500000D01*
X-12849999Y4500000D01*
X-12850000Y4499999D01*
X-12850000Y4100001D01*
X-12849999Y4100000D01*
X-12849500Y4100000D01*
X-12791309Y4081093D01*
X-12755345Y4031593D01*
X-12750500Y4001000D01*
X-12750500Y3425326D01*
X-12735966Y3352260D01*
X-12735964Y3352257D01*
X-12680602Y3269400D01*
X-12680599Y3269397D01*
X-12597742Y3214035D01*
X-12597740Y3214034D01*
X-12597737Y3214033D01*
X-12597736Y3214033D01*
X-12524684Y3199501D01*
X-12524674Y3199500D01*
X-12524673Y3199500D01*
X-12075327Y3199500D01*
X-12075326Y3199500D01*
X-12075325Y3199500D01*
X-12075315Y3199501D01*
X-12002263Y3214033D01*
X-12002254Y3214036D01*
X-11955000Y3245610D01*
X-11896112Y3262218D01*
X-11845000Y3245610D01*
X-11797745Y3214036D01*
X-11797740Y3214034D01*
X-11797737Y3214033D01*
X-11797736Y3214033D01*
X-11724684Y3199501D01*
X-11724674Y3199500D01*
X-11724673Y3199500D01*
X-11275327Y3199500D01*
X-11275326Y3199500D01*
X-11275325Y3199500D01*
X-11275315Y3199501D01*
X-11202263Y3214033D01*
X-11202254Y3214036D01*
X-11155000Y3245610D01*
X-11096112Y3262218D01*
X-11045000Y3245610D01*
X-10997745Y3214036D01*
X-10997740Y3214034D01*
X-10997737Y3214033D01*
X-10997736Y3214033D01*
X-10924684Y3199501D01*
X-10924674Y3199500D01*
X-10924673Y3199500D01*
X-10475327Y3199500D01*
X-10475326Y3199500D01*
X-10475325Y3199500D01*
X-10475315Y3199501D01*
X-10402263Y3214033D01*
X-10402254Y3214036D01*
X-10355000Y3245610D01*
X-10296112Y3262218D01*
X-10245000Y3245610D01*
X-10197745Y3214036D01*
X-10197740Y3214034D01*
X-10197737Y3214033D01*
X-10197736Y3214033D01*
X-10124684Y3199501D01*
X-10124674Y3199500D01*
X-10124673Y3199500D01*
X-9675327Y3199500D01*
X-9675326Y3199500D01*
X-9675325Y3199500D01*
X-9675315Y3199501D01*
X-9602263Y3214033D01*
X-9602254Y3214036D01*
X-9555000Y3245610D01*
X-9496112Y3262218D01*
X-9445000Y3245610D01*
X-9397745Y3214036D01*
X-9397740Y3214034D01*
X-9397737Y3214033D01*
X-9397736Y3214033D01*
X-9324684Y3199501D01*
X-9324674Y3199500D01*
X-9324673Y3199500D01*
X-8875327Y3199500D01*
X-8875326Y3199500D01*
X-8875325Y3199500D01*
X-8875315Y3199501D01*
X-8802263Y3214033D01*
X-8802254Y3214036D01*
X-8755000Y3245610D01*
X-8696112Y3262218D01*
X-8645000Y3245610D01*
X-8597745Y3214036D01*
X-8597740Y3214034D01*
X-8597737Y3214033D01*
X-8597736Y3214033D01*
X-8524684Y3199501D01*
X-8524674Y3199500D01*
X-8524673Y3199500D01*
X-8075327Y3199500D01*
X-8075326Y3199500D01*
X-8075325Y3199500D01*
X-8075315Y3199501D01*
X-8002263Y3214033D01*
X-8002254Y3214036D01*
X-7955000Y3245610D01*
X-7896112Y3262218D01*
X-7845000Y3245610D01*
X-7797745Y3214036D01*
X-7797740Y3214034D01*
X-7797737Y3214033D01*
X-7797736Y3214033D01*
X-7724684Y3199501D01*
X-7724674Y3199500D01*
X-7724673Y3199500D01*
X-7275327Y3199500D01*
X-7275326Y3199500D01*
X-7275325Y3199500D01*
X-7275315Y3199501D01*
X-7202263Y3214033D01*
X-7202254Y3214036D01*
X-7155000Y3245610D01*
X-7096112Y3262218D01*
X-7045000Y3245610D01*
X-6997745Y3214036D01*
X-6997740Y3214034D01*
X-6997737Y3214033D01*
X-6997736Y3214033D01*
X-6924684Y3199501D01*
X-6924674Y3199500D01*
X-6924673Y3199500D01*
X-6475327Y3199500D01*
X-6475326Y3199500D01*
X-6475325Y3199500D01*
X-6475315Y3199501D01*
X-6402263Y3214033D01*
X-6402254Y3214036D01*
X-6355000Y3245610D01*
X-6296112Y3262218D01*
X-6245000Y3245610D01*
X-6197745Y3214036D01*
X-6197740Y3214034D01*
X-6197737Y3214033D01*
X-6197736Y3214033D01*
X-6124684Y3199501D01*
X-6124674Y3199500D01*
X-6124673Y3199500D01*
X-5675327Y3199500D01*
X-5675326Y3199500D01*
X-5675325Y3199500D01*
X-5675315Y3199501D01*
X-5602263Y3214033D01*
X-5602254Y3214036D01*
X-5555000Y3245610D01*
X-5496112Y3262218D01*
X-5445000Y3245610D01*
X-5397745Y3214036D01*
X-5397740Y3214034D01*
X-5397737Y3214033D01*
X-5397736Y3214033D01*
X-5324684Y3199501D01*
X-5324674Y3199500D01*
X-5324673Y3199500D01*
X-4875327Y3199500D01*
X-4875326Y3199500D01*
X-4875325Y3199500D01*
X-4875315Y3199501D01*
X-4802263Y3214033D01*
X-4802254Y3214036D01*
X-4755000Y3245610D01*
X-4696112Y3262218D01*
X-4645000Y3245610D01*
X-4597745Y3214036D01*
X-4597740Y3214034D01*
X-4597737Y3214033D01*
X-4597736Y3214033D01*
X-4524684Y3199501D01*
X-4524674Y3199500D01*
X-4524673Y3199500D01*
X-4186890Y3199500D01*
X-4128699Y3180593D01*
X-4092735Y3131093D01*
X-4092735Y3069907D01*
X-4116886Y3030496D01*
X-5280770Y1866612D01*
X-5326914Y1786688D01*
X-5350800Y1697544D01*
X-5350800Y1697542D01*
X-5350800Y-3198990D01*
X-5369707Y-3257181D01*
X-5419207Y-3293145D01*
X-5480393Y-3293145D01*
X-5511004Y-3274386D01*
X-5511291Y-3274816D01*
X-5602257Y-3214035D01*
X-5602263Y-3214033D01*
X-5675315Y-3199501D01*
X-5675325Y-3199500D01*
X-5675326Y-3199500D01*
X-6124674Y-3199500D01*
X-6124684Y-3199501D01*
X-6197736Y-3214033D01*
X-6197737Y-3214033D01*
X-6197740Y-3214034D01*
X-6197745Y-3214036D01*
X-6245000Y-3245610D01*
X-6303888Y-3262218D01*
X-6355000Y-3245610D01*
X-6402254Y-3214036D01*
X-6402263Y-3214033D01*
X-6475315Y-3199501D01*
X-6475325Y-3199500D01*
X-6475326Y-3199500D01*
X-6924674Y-3199500D01*
X-6924684Y-3199501D01*
X-6997736Y-3214033D01*
X-6997737Y-3214033D01*
X-6997740Y-3214034D01*
X-6997745Y-3214036D01*
X-7045000Y-3245610D01*
X-7103888Y-3262218D01*
X-7155000Y-3245610D01*
X-7202254Y-3214036D01*
X-7202263Y-3214033D01*
X-7275315Y-3199501D01*
X-7275325Y-3199500D01*
X-7275326Y-3199500D01*
X-7724674Y-3199500D01*
X-7724684Y-3199501D01*
X-7797736Y-3214033D01*
X-7797737Y-3214033D01*
X-7797740Y-3214034D01*
X-7797745Y-3214036D01*
X-7845000Y-3245610D01*
X-7903888Y-3262218D01*
X-7955000Y-3245610D01*
X-8002254Y-3214036D01*
X-8002263Y-3214033D01*
X-8075315Y-3199501D01*
X-8075325Y-3199500D01*
X-8075326Y-3199500D01*
X-8524674Y-3199500D01*
X-8524684Y-3199501D01*
X-8597736Y-3214033D01*
X-8597737Y-3214033D01*
X-8597740Y-3214034D01*
X-8597745Y-3214036D01*
X-8645000Y-3245610D01*
X-8703888Y-3262218D01*
X-8755000Y-3245610D01*
X-8802254Y-3214036D01*
X-8802263Y-3214033D01*
X-8875315Y-3199501D01*
X-8875325Y-3199500D01*
X-8875326Y-3199500D01*
X-9324674Y-3199500D01*
X-9324684Y-3199501D01*
X-9397736Y-3214033D01*
X-9397737Y-3214033D01*
X-9397740Y-3214034D01*
X-9397742Y-3214035D01*
X-9480599Y-3269397D01*
X-9480602Y-3269400D01*
X-9500000Y-3298432D01*
X-9535966Y-3352260D01*
X-9547015Y-3407808D01*
X-9550498Y-3425315D01*
X-9550500Y-3425327D01*
X-9550500Y-4000500D01*
X-9569407Y-4058691D01*
X-9618907Y-4094655D01*
X-9649500Y-4099500D01*
X-9724674Y-4099500D01*
X-9724684Y-4099501D01*
X-9797736Y-4114033D01*
X-9797737Y-4114033D01*
X-9797740Y-4114034D01*
X-9797742Y-4114035D01*
X-9880599Y-4169397D01*
X-9880601Y-4169399D01*
X-9935966Y-4252260D01*
X-9950500Y-4325326D01*
X-9950500Y-4974674D01*
X-9935966Y-5047740D01*
X-9880601Y-5130601D01*
X-9797740Y-5185966D01*
X-9724674Y-5200500D01*
X-9724673Y-5200500D01*
X-9275327Y-5200500D01*
X-9275326Y-5200500D01*
X-9275320Y-5200498D01*
X-9275315Y-5200498D01*
X-9257808Y-5197015D01*
X-9202260Y-5185966D01*
X-9202257Y-5185964D01*
X-9202256Y-5185964D01*
X-9177018Y-5169100D01*
X-9155000Y-5154388D01*
X-9096114Y-5137780D01*
X-9045000Y-5154388D01*
X-8997740Y-5185966D01*
X-8924674Y-5200500D01*
X-8924673Y-5200500D01*
X-8475327Y-5200500D01*
X-8475326Y-5200500D01*
X-8475320Y-5200498D01*
X-8475315Y-5200498D01*
X-8457808Y-5197015D01*
X-8402260Y-5185966D01*
X-8402257Y-5185964D01*
X-8402256Y-5185964D01*
X-8377018Y-5169100D01*
X-8355000Y-5154388D01*
X-8296114Y-5137780D01*
X-8245000Y-5154388D01*
X-8197740Y-5185966D01*
X-8124674Y-5200500D01*
X-8124673Y-5200500D01*
X-7675327Y-5200500D01*
X-7675326Y-5200500D01*
X-7675320Y-5200498D01*
X-7675315Y-5200498D01*
X-7657808Y-5197015D01*
X-7602260Y-5185966D01*
X-7602257Y-5185964D01*
X-7602256Y-5185964D01*
X-7577018Y-5169100D01*
X-7555000Y-5154388D01*
X-7496114Y-5137780D01*
X-7445000Y-5154388D01*
X-7397740Y-5185966D01*
X-7324674Y-5200500D01*
X-7324673Y-5200500D01*
X-6875327Y-5200500D01*
X-6875326Y-5200500D01*
X-6875320Y-5200498D01*
X-6875315Y-5200498D01*
X-6857808Y-5197015D01*
X-6802260Y-5185966D01*
X-6802257Y-5185964D01*
X-6802256Y-5185964D01*
X-6777018Y-5169100D01*
X-6755000Y-5154388D01*
X-6696114Y-5137780D01*
X-6645000Y-5154388D01*
X-6597740Y-5185966D01*
X-6524674Y-5200500D01*
X-6524673Y-5200500D01*
X-6075327Y-5200500D01*
X-6075326Y-5200500D01*
X-6075320Y-5200498D01*
X-6075315Y-5200498D01*
X-6057808Y-5197015D01*
X-6002260Y-5185966D01*
X-6002257Y-5185964D01*
X-6002256Y-5185964D01*
X-5977018Y-5169100D01*
X-5955000Y-5154388D01*
X-5896114Y-5137780D01*
X-5845000Y-5154388D01*
X-5797740Y-5185966D01*
X-5724674Y-5200500D01*
X-5449800Y-5200500D01*
X-5391609Y-5219407D01*
X-5355645Y-5268907D01*
X-5350800Y-5299500D01*
X-5350800Y-5725804D01*
X-5369707Y-5783995D01*
X-5419207Y-5819959D01*
X-5424177Y-5821431D01*
X-5518890Y-5846809D01*
X-5633009Y-5912696D01*
X-5633011Y-5912698D01*
X-5633014Y-5912700D01*
X-5726200Y-6005886D01*
X-5726201Y-6005888D01*
X-5726203Y-6005890D01*
X-5792090Y-6120009D01*
X-5792090Y-6120011D01*
X-5792092Y-6120014D01*
X-5826200Y-6247308D01*
X-5826200Y-6379092D01*
X-5792092Y-6506386D01*
X-5792090Y-6506388D01*
X-5792090Y-6506391D01*
X-5789608Y-6512384D01*
X-5791590Y-6513204D01*
X-5780864Y-6563630D01*
X-5805741Y-6619529D01*
X-5858725Y-6650130D01*
X-5863834Y-6651078D01*
X-5882175Y-6653983D01*
X-5882178Y-6653984D01*
X-5988554Y-6708186D01*
X-5992391Y-6710141D01*
X-6030351Y-6748101D01*
X-6084866Y-6775877D01*
X-6145298Y-6766306D01*
X-6170355Y-6748101D01*
X-6207905Y-6710552D01*
X-6207911Y-6710548D01*
X-6317977Y-6654466D01*
X-6317978Y-6654465D01*
X-6409307Y-6640000D01*
X-6429999Y-6640000D01*
X-6430000Y-6640001D01*
X-6430000Y-7759998D01*
X-6429999Y-7759999D01*
X-6409306Y-7759999D01*
X-6317984Y-7745536D01*
X-6317977Y-7745534D01*
X-6207911Y-7689451D01*
X-6207909Y-7689450D01*
X-6170358Y-7651899D01*
X-6115841Y-7624122D01*
X-6055409Y-7633693D01*
X-6030353Y-7651896D01*
X-5992391Y-7689859D01*
X-5882175Y-7746017D01*
X-5790735Y-7760500D01*
X-5449266Y-7760499D01*
X-5449262Y-7760499D01*
X-5413801Y-7754882D01*
X-5357825Y-7746017D01*
X-5247609Y-7689859D01*
X-5244500Y-7686750D01*
X-5189986Y-7658975D01*
X-5129554Y-7668546D01*
X-5086289Y-7711811D01*
X-5075499Y-7756756D01*
X-5075499Y-7827101D01*
X-5069019Y-7876329D01*
X-5053900Y-7908750D01*
X-5046442Y-7969477D01*
X-5053900Y-7992431D01*
X-5068528Y-8023801D01*
X-5071977Y-8049998D01*
X-5071978Y-8049999D01*
X-4992200Y-8049999D01*
X-4942525Y-8065661D01*
X-4942209Y-8064983D01*
X-4937053Y-8067386D01*
X-4935417Y-8067903D01*
X-4934361Y-8068641D01*
X-4934359Y-8068643D01*
X-4826330Y-8119018D01*
X-4777103Y-8125499D01*
X-4247898Y-8125498D01*
X-4198670Y-8119018D01*
X-4090641Y-8068643D01*
X-4090640Y-8068642D01*
X-4090637Y-8068641D01*
X-4089583Y-8067903D01*
X-4087949Y-8067387D01*
X-4082792Y-8064983D01*
X-4082475Y-8065661D01*
X-4032800Y-8049999D01*
X-3953024Y-8049999D01*
X-3956471Y-8023800D01*
X-3971100Y-7992427D01*
X-3978555Y-7931697D01*
X-3971099Y-7908752D01*
X-3955981Y-7876331D01*
X-3949500Y-7827100D01*
X-3949500Y-7572899D01*
X-3949501Y-7572891D01*
X-3955980Y-7523669D01*
X-3955981Y-7523666D01*
X-3964153Y-7506141D01*
X-3971609Y-7445412D01*
X-3964152Y-7422465D01*
X-3930983Y-7351334D01*
X-3930982Y-7351332D01*
X-3930981Y-7351329D01*
X-3924500Y-7302102D01*
X-3924500Y-7187500D01*
X-3700000Y-7187500D01*
X-3700000Y-7596975D01*
X-3673798Y-7593527D01*
X-3673796Y-7593526D01*
X-3641840Y-7578624D01*
X-3581111Y-7571165D01*
X-3558157Y-7578624D01*
X-3526198Y-7593527D01*
X-3500000Y-7596976D01*
X-3500000Y-7187500D01*
X-3500001Y-7187499D01*
X-3699999Y-7187499D01*
X-3700000Y-7187500D01*
X-3924500Y-7187500D01*
X-3924500Y-7136496D01*
X-3905594Y-7078308D01*
X-3856094Y-7042344D01*
X-3854611Y-7042109D01*
X-3850000Y-7037498D01*
X-3850000Y-6986499D01*
X-3831093Y-6928308D01*
X-3781593Y-6892344D01*
X-3751000Y-6887499D01*
X-3500001Y-6887499D01*
X-3500000Y-6887498D01*
X-3500000Y-6478020D01*
X-3200000Y-6478020D01*
X-3200000Y-6887498D01*
X-3199999Y-6887499D01*
X-3000001Y-6887499D01*
X-3000000Y-6887498D01*
X-2700000Y-6887498D01*
X-2699999Y-6887499D01*
X-2425002Y-6887499D01*
X-2425001Y-6887498D01*
X-2425001Y-6772947D01*
X-2431470Y-6723802D01*
X-2431471Y-6723797D01*
X-2481770Y-6615933D01*
X-2565934Y-6531769D01*
X-2673799Y-6481470D01*
X-2700000Y-6478020D01*
X-2700000Y-6887498D01*
X-3000000Y-6887498D01*
X-3000000Y-6478020D01*
X-3026199Y-6481469D01*
X-3026201Y-6481469D01*
X-3058161Y-6496373D01*
X-3118890Y-6503830D01*
X-3141838Y-6496374D01*
X-3173800Y-6481470D01*
X-3200000Y-6478020D01*
X-3500000Y-6478020D01*
X-3526199Y-6481469D01*
X-3533472Y-6483589D01*
X-3533855Y-6482271D01*
X-3586530Y-6488737D01*
X-3640042Y-6459072D01*
X-3665898Y-6403619D01*
X-3654222Y-6343558D01*
X-3641426Y-6326577D01*
X-3641449Y-6326560D01*
X-3639451Y-6323956D01*
X-3637643Y-6321557D01*
X-3637500Y-6321414D01*
X-3637498Y-6321411D01*
X-3637496Y-6321409D01*
X-3571609Y-6207290D01*
X-3558680Y-6159038D01*
X-3537500Y-6079992D01*
X-3537500Y-5948208D01*
X-3558730Y-5868976D01*
X-3571609Y-5820909D01*
X-3637496Y-5706790D01*
X-3730690Y-5613596D01*
X-3844810Y-5547709D01*
X-3844808Y-5547709D01*
X-3912454Y-5529583D01*
X-3972108Y-5513600D01*
X-4103892Y-5513600D01*
X-4216151Y-5543679D01*
X-4231190Y-5547709D01*
X-4345309Y-5613596D01*
X-4345311Y-5613598D01*
X-4345314Y-5613600D01*
X-4438500Y-5706786D01*
X-4438501Y-5706788D01*
X-4465064Y-5752795D01*
X-4510534Y-5793735D01*
X-4571384Y-5800130D01*
X-4624372Y-5769537D01*
X-4649258Y-5713642D01*
X-4649800Y-5703294D01*
X-4649800Y-4950001D01*
X-2650000Y-4950001D01*
X-2650000Y-5024622D01*
X-2649999Y-5024624D01*
X-2635493Y-5097546D01*
X-2635492Y-5097548D01*
X-2580241Y-5180237D01*
X-2580237Y-5180241D01*
X-2497548Y-5235492D01*
X-2497546Y-5235493D01*
X-2424624Y-5249999D01*
X-2424623Y-5250000D01*
X-2250001Y-5250000D01*
X-2250000Y-5249999D01*
X-2250000Y-4950001D01*
X-1950000Y-4950001D01*
X-1950000Y-5249999D01*
X-1949999Y-5250000D01*
X-1775377Y-5250000D01*
X-1775375Y-5249999D01*
X-1702453Y-5235493D01*
X-1702451Y-5235492D01*
X-1619762Y-5180241D01*
X-1619758Y-5180237D01*
X-1564507Y-5097548D01*
X-1564506Y-5097546D01*
X-1550000Y-5024624D01*
X-1550000Y-4950001D01*
X-1550001Y-4950000D01*
X-1949999Y-4950000D01*
X-1950000Y-4950001D01*
X-2250000Y-4950001D01*
X-2250001Y-4950000D01*
X-2649999Y-4950000D01*
X-2650000Y-4950001D01*
X-4649800Y-4950001D01*
X-4649800Y1465210D01*
X-4630893Y1523401D01*
X-4620804Y1535214D01*
X-4071204Y2084814D01*
X-4016687Y2112591D01*
X-3956255Y2103020D01*
X-3912990Y2059755D01*
X-3902200Y2014810D01*
X-3902200Y-2767944D01*
X-3880401Y-2849300D01*
X-3878314Y-2857088D01*
X-3832170Y-2937012D01*
X-3592909Y-3176272D01*
X-3578197Y-3190984D01*
X-3550419Y-3245501D01*
X-3549200Y-3260988D01*
X-3549200Y-3290692D01*
X-3515092Y-3417986D01*
X-3515090Y-3417988D01*
X-3515090Y-3417990D01*
X-3510854Y-3425327D01*
X-3449200Y-3532114D01*
X-3436289Y-3545024D01*
X-3408513Y-3599536D01*
X-3418083Y-3659969D01*
X-3456793Y-3700762D01*
X-3490114Y-3720000D01*
X-3583300Y-3813186D01*
X-3583301Y-3813188D01*
X-3583303Y-3813190D01*
X-3649190Y-3927309D01*
X-3649190Y-3927311D01*
X-3649192Y-3927314D01*
X-3683300Y-4054608D01*
X-3683300Y-4186392D01*
X-3649192Y-4313686D01*
X-3649190Y-4313688D01*
X-3649190Y-4313690D01*
X-3583303Y-4427809D01*
X-3583300Y-4427814D01*
X-3490114Y-4521000D01*
X-3395931Y-4575377D01*
X-3375989Y-4586890D01*
X-3375988Y-4586890D01*
X-3375986Y-4586892D01*
X-3248692Y-4621000D01*
X-3248690Y-4621000D01*
X-3116910Y-4621000D01*
X-3116908Y-4621000D01*
X-2989614Y-4586892D01*
X-2989611Y-4586890D01*
X-2989609Y-4586890D01*
X-2875490Y-4521003D01*
X-2875488Y-4521001D01*
X-2875486Y-4521000D01*
X-2811277Y-4456791D01*
X-2756763Y-4429016D01*
X-2696331Y-4438587D01*
X-2653066Y-4481852D01*
X-2643495Y-4542284D01*
X-2644179Y-4546114D01*
X-2649999Y-4575370D01*
X-2650000Y-4575377D01*
X-2650000Y-4649999D01*
X-2649999Y-4650000D01*
X-1550001Y-4650000D01*
X-1534209Y-4634208D01*
X-1479692Y-4606431D01*
X-1419260Y-4616002D01*
X-1414738Y-4618457D01*
X-1341586Y-4660692D01*
X-1214292Y-4694800D01*
X-1214290Y-4694800D01*
X-1096200Y-4694800D01*
X-1038009Y-4713707D01*
X-1002045Y-4763207D01*
X-997200Y-4793800D01*
X-997200Y-7089910D01*
X-1016107Y-7148101D01*
X-1026196Y-7159914D01*
X-1071886Y-7205604D01*
X-1126403Y-7233381D01*
X-1141890Y-7234600D01*
X-2336892Y-7234600D01*
X-2395083Y-7215693D01*
X-2406896Y-7205604D01*
X-2425001Y-7187499D01*
X-3199999Y-7187499D01*
X-3200000Y-7187500D01*
X-3200000Y-7407323D01*
X-3209276Y-7449162D01*
X-3214030Y-7459358D01*
X-3244019Y-7523669D01*
X-3250500Y-7572896D01*
X-3250499Y-7827101D01*
X-3244019Y-7876329D01*
X-3229175Y-7908159D01*
X-3221717Y-7968885D01*
X-3229175Y-7991837D01*
X-3244019Y-8023669D01*
X-3250500Y-8072896D01*
X-3250499Y-8327101D01*
X-3244019Y-8376329D01*
X-3229175Y-8408159D01*
X-3221717Y-8468885D01*
X-3229175Y-8491837D01*
X-3244019Y-8523669D01*
X-3250500Y-8572896D01*
X-3250499Y-8691885D01*
X-3250499Y-8700498D01*
X-3269406Y-8758689D01*
X-3318906Y-8794653D01*
X-3349498Y-8799499D01*
X-3477099Y-8799499D01*
X-3477107Y-8799500D01*
X-3526327Y-8805979D01*
X-3526328Y-8805979D01*
X-3526330Y-8805980D01*
X-3552371Y-8818123D01*
X-3558161Y-8820823D01*
X-3618891Y-8828279D01*
X-3641838Y-8820823D01*
X-3673667Y-8805981D01*
X-3673668Y-8805980D01*
X-3673670Y-8805980D01*
X-3722897Y-8799499D01*
X-3722898Y-8799499D01*
X-3977099Y-8799499D01*
X-3977107Y-8799500D01*
X-4026327Y-8805979D01*
X-4026328Y-8805979D01*
X-4026330Y-8805980D01*
X-4052371Y-8818123D01*
X-4058161Y-8820823D01*
X-4118891Y-8828279D01*
X-4141838Y-8820823D01*
X-4173667Y-8805981D01*
X-4173668Y-8805980D01*
X-4173670Y-8805980D01*
X-4222897Y-8799499D01*
X-4222898Y-8799499D01*
X-4477096Y-8799499D01*
X-4502632Y-8802860D01*
X-4512503Y-8804159D01*
X-4526331Y-8805980D01*
X-4600837Y-8840723D01*
X-4642676Y-8849999D01*
X-5071976Y-8849999D01*
X-5068528Y-8876200D01*
X-5018228Y-8984066D01*
X-5013260Y-8991162D01*
X-5015692Y-8992864D01*
X-4994421Y-9034613D01*
X-5003992Y-9095045D01*
X-5047257Y-9138310D01*
X-5092202Y-9149100D01*
X-5092308Y-9149100D01*
X-5224092Y-9149100D01*
X-5336351Y-9179179D01*
X-5351390Y-9183209D01*
X-5465509Y-9249096D01*
X-5465511Y-9249098D01*
X-5465514Y-9249100D01*
X-5558700Y-9342286D01*
X-5558701Y-9342288D01*
X-5558703Y-9342290D01*
X-5624590Y-9456409D01*
X-5624590Y-9456411D01*
X-5624592Y-9456414D01*
X-5658700Y-9583708D01*
X-5658700Y-9715492D01*
X-5624592Y-9842786D01*
X-5624590Y-9842788D01*
X-5624590Y-9842790D01*
X-5572107Y-9933693D01*
X-5558700Y-9956914D01*
X-5465514Y-10050100D01*
X-5391166Y-10093024D01*
X-5350227Y-10138493D01*
X-5343831Y-10199343D01*
X-5345890Y-10207027D01*
X-5346016Y-10207823D01*
X-5346017Y-10207825D01*
X-5360500Y-10299265D01*
X-5360499Y-10700734D01*
X-5346017Y-10792175D01*
X-5289859Y-10902391D01*
X-5202391Y-10989859D01*
X-5092175Y-11046017D01*
X-5000735Y-11060500D01*
X-4659266Y-11060499D01*
X-4659262Y-11060499D01*
X-4623801Y-11054882D01*
X-4567825Y-11046017D01*
X-4457609Y-10989859D01*
X-4419647Y-10951897D01*
X-4365133Y-10924122D01*
X-4304701Y-10933693D01*
X-4279642Y-10951899D01*
X-4242090Y-10989450D01*
X-4242088Y-10989451D01*
X-4132022Y-11045533D01*
X-4132020Y-11045534D01*
X-4040694Y-11059999D01*
X-4020000Y-11059998D01*
X-4020000Y-10650001D01*
X-3720000Y-10650001D01*
X-3720000Y-11059998D01*
X-3719999Y-11059999D01*
X-3699306Y-11059999D01*
X-3607984Y-11045536D01*
X-3607977Y-11045534D01*
X-3497911Y-10989451D01*
X-3497909Y-10989450D01*
X-3410549Y-10902090D01*
X-3410548Y-10902088D01*
X-3354466Y-10792022D01*
X-3354465Y-10792021D01*
X-3340000Y-10700692D01*
X-3340000Y-10650001D01*
X-3340001Y-10650000D01*
X-3719999Y-10650000D01*
X-3720000Y-10650001D01*
X-4020000Y-10650001D01*
X-4020000Y-10599000D01*
X-4001093Y-10540809D01*
X-3951593Y-10504845D01*
X-3921000Y-10500000D01*
X-3870001Y-10500000D01*
X-3870000Y-10499999D01*
X-3870000Y-10449000D01*
X-3851093Y-10390809D01*
X-3801593Y-10354845D01*
X-3771000Y-10350000D01*
X-3340002Y-10350000D01*
X-3324647Y-10334645D01*
X-3321094Y-10323709D01*
X-3271594Y-10287745D01*
X-3241001Y-10282900D01*
X-2523558Y-10282900D01*
X-2523556Y-10282900D01*
X-2434412Y-10259014D01*
X-2434410Y-10259013D01*
X-2429437Y-10256142D01*
X-2357509Y-10214614D01*
X-2354488Y-10212870D01*
X-2232087Y-10090469D01*
X-2082402Y-9940785D01*
X-2027886Y-9913008D01*
X-1967454Y-9922579D01*
X-1942398Y-9940783D01*
X-1792713Y-10090469D01*
X-1752327Y-10113786D01*
X-1712788Y-10136614D01*
X-1623644Y-10160500D01*
X-1555685Y-10160500D01*
X-1497494Y-10179407D01*
X-1485687Y-10189490D01*
X-1412102Y-10263076D01*
X-1379561Y-10278984D01*
X-1335586Y-10321526D01*
X-1327412Y-10342309D01*
X-1326614Y-10345288D01*
X-1280470Y-10425212D01*
X-499494Y-11206187D01*
X-471719Y-11260702D01*
X-470500Y-11276189D01*
X-470500Y-11481582D01*
X-459582Y-11556518D01*
X-403076Y-11672102D01*
X-312102Y-11763076D01*
X-196518Y-11819582D01*
X-121582Y-11830500D01*
X-121578Y-11830500D01*
X321578Y-11830500D01*
X321582Y-11830500D01*
X396518Y-11819582D01*
X512102Y-11763076D01*
X603076Y-11672102D01*
X659582Y-11556518D01*
X670500Y-11481582D01*
X670500Y-11138418D01*
X659582Y-11063482D01*
X603076Y-10947898D01*
X525179Y-10870001D01*
X497404Y-10815487D01*
X506975Y-10755055D01*
X525178Y-10729999D01*
X603076Y-10652102D01*
X659582Y-10536518D01*
X670500Y-10461582D01*
X670500Y-10118418D01*
X659582Y-10043482D01*
X603076Y-9927898D01*
X575075Y-9899897D01*
X541496Y-9866317D01*
X513719Y-9811800D01*
X512500Y-9796314D01*
X512500Y-8656657D01*
X511979Y-8654712D01*
X488614Y-8567512D01*
X463301Y-8523669D01*
X452885Y-8505628D01*
X442470Y-8487588D01*
X442468Y-8487586D01*
X-390014Y-7655102D01*
X-417791Y-7600586D01*
X-408220Y-7540154D01*
X-390016Y-7515098D01*
X-366230Y-7491312D01*
X-356843Y-7475053D01*
X-320087Y-7411391D01*
X-320086Y-7411388D01*
X-313818Y-7387998D01*
X-296200Y-7322243D01*
X-296200Y-4955382D01*
X-277293Y-4897191D01*
X-227793Y-4861227D01*
X-166607Y-4861227D01*
X-117107Y-4897191D01*
X-101574Y-4929756D01*
X-92992Y-4961786D01*
X-92990Y-4961788D01*
X-92990Y-4961790D01*
X-27103Y-5075909D01*
X-27100Y-5075914D01*
X66086Y-5169100D01*
X66088Y-5169101D01*
X66089Y-5169102D01*
X66090Y-5169103D01*
X180210Y-5234990D01*
X180208Y-5234990D01*
X180212Y-5234991D01*
X180214Y-5234992D01*
X307508Y-5269100D01*
X337210Y-5269100D01*
X395401Y-5288007D01*
X407214Y-5298096D01*
X692104Y-5582986D01*
X719881Y-5637503D01*
X721100Y-5652990D01*
X721100Y-9692744D01*
X730389Y-9727409D01*
X741667Y-9769500D01*
X741666Y-9769500D01*
X741667Y-9769502D01*
X744983Y-9781880D01*
X744985Y-9781885D01*
X744986Y-9781888D01*
X791130Y-9861812D01*
X1233075Y-10303756D01*
X1645504Y-10716185D01*
X1673281Y-10770702D01*
X1674500Y-10786189D01*
X1674500Y-11245478D01*
X1674501Y-11245484D01*
X1680587Y-11302111D01*
X1680587Y-11302112D01*
X1680588Y-11302114D01*
X1728372Y-11430226D01*
X1810313Y-11539687D01*
X1919774Y-11621628D01*
X2047886Y-11669412D01*
X2104515Y-11675500D01*
X2520611Y-11675499D01*
X2578802Y-11694406D01*
X2614766Y-11743906D01*
X2614766Y-11805091D01*
X2590616Y-11844501D01*
X2564612Y-11870504D01*
X2510097Y-11898281D01*
X2494610Y-11899500D01*
X2218479Y-11899500D01*
X2218476Y-11899501D01*
X2124700Y-11914352D01*
X2124695Y-11914354D01*
X2011659Y-11971949D01*
X1921949Y-12061659D01*
X1864354Y-12174695D01*
X1849500Y-12268477D01*
X1849500Y-12631520D01*
X1849501Y-12631523D01*
X1864352Y-12725299D01*
X1864354Y-12725304D01*
X1921950Y-12838342D01*
X1921952Y-12838344D01*
X1938958Y-12855351D01*
X1966734Y-12909868D01*
X1957162Y-12970300D01*
X1938958Y-12995355D01*
X1922361Y-13011952D01*
X1922359Y-13011955D01*
X1864836Y-13124848D01*
X1864835Y-13124852D01*
X1850000Y-13218515D01*
X1850000Y-13249999D01*
X1850001Y-13250000D01*
X2663500Y-13250000D01*
X2721691Y-13268907D01*
X2757655Y-13318407D01*
X2762500Y-13349000D01*
X2762500Y-13451000D01*
X2743593Y-13509191D01*
X2694093Y-13545155D01*
X2663500Y-13550000D01*
X1850002Y-13550000D01*
X1850001Y-13550001D01*
X1850001Y-13581485D01*
X1864833Y-13675141D01*
X1864836Y-13675151D01*
X1922358Y-13788043D01*
X1938957Y-13804642D01*
X1966734Y-13859159D01*
X1957163Y-13919591D01*
X1938960Y-13944646D01*
X1921952Y-13961654D01*
X1921950Y-13961658D01*
X1864354Y-14074695D01*
X1849500Y-14168477D01*
X1849500Y-14531520D01*
X1849501Y-14531523D01*
X1864352Y-14625299D01*
X1864354Y-14625304D01*
X1921950Y-14738342D01*
X2011658Y-14828050D01*
X2124696Y-14885646D01*
X2218481Y-14900500D01*
X3306518Y-14900499D01*
X3306521Y-14900499D01*
X3306522Y-14900498D01*
X3353411Y-14893072D01*
X3400299Y-14885647D01*
X3400299Y-14885646D01*
X3400304Y-14885646D01*
X3513342Y-14828050D01*
X3603050Y-14738342D01*
X3660646Y-14625304D01*
X3675500Y-14531519D01*
X3675499Y-14287887D01*
X3694406Y-14229698D01*
X3704489Y-14217891D01*
X3981870Y-13940512D01*
X4028014Y-13860588D01*
X4031655Y-13847000D01*
X4051900Y-13771444D01*
X4051900Y-12932299D01*
X4070807Y-12874108D01*
X4120307Y-12838144D01*
X4181493Y-12838144D01*
X4220901Y-12862293D01*
X4286658Y-12928050D01*
X4323957Y-12947055D01*
X4338276Y-12954351D01*
X4381540Y-12997616D01*
X4391111Y-13058048D01*
X4379068Y-13092058D01*
X4366509Y-13113811D01*
X4366508Y-13113813D01*
X4366508Y-13113814D01*
X4332400Y-13241108D01*
X4332400Y-13372892D01*
X4358983Y-13472102D01*
X4366509Y-13500190D01*
X4432396Y-13614309D01*
X4432398Y-13614311D01*
X4432400Y-13614314D01*
X4453405Y-13635319D01*
X4481181Y-13689834D01*
X4482400Y-13705321D01*
X4482400Y-13716700D01*
X4463493Y-13774891D01*
X4413993Y-13810855D01*
X4400483Y-13814098D01*
X4399695Y-13814354D01*
X4286659Y-13871949D01*
X4286658Y-13871950D01*
X4196950Y-13961658D01*
X4187112Y-13980964D01*
X4187099Y-13980989D01*
X4139355Y-14074692D01*
X4139354Y-14074694D01*
X4124500Y-14168477D01*
X4124500Y-14531520D01*
X4124501Y-14531523D01*
X4139352Y-14625299D01*
X4139354Y-14625304D01*
X4196950Y-14738342D01*
X4286658Y-14828050D01*
X4399696Y-14885646D01*
X4493481Y-14900500D01*
X5051309Y-14900499D01*
X5109500Y-14919406D01*
X5121309Y-14929492D01*
X5128084Y-14936267D01*
X5128086Y-14936268D01*
X5128088Y-14936270D01*
X5208012Y-14982414D01*
X5297156Y-15006300D01*
X5297157Y-15006300D01*
X5389444Y-15006300D01*
X7790115Y-15006300D01*
X7848306Y-15025207D01*
X7860112Y-15035290D01*
X7927898Y-15103076D01*
X8043482Y-15159582D01*
X8118418Y-15170500D01*
X8118421Y-15170500D01*
X8461578Y-15170500D01*
X8461582Y-15170500D01*
X8536518Y-15159582D01*
X8652102Y-15103076D01*
X8729998Y-15025179D01*
X8784513Y-14997404D01*
X8844945Y-15006975D01*
X8870000Y-15025178D01*
X8947898Y-15103076D01*
X9063482Y-15159582D01*
X9138418Y-15170500D01*
X9138421Y-15170500D01*
X9481578Y-15170500D01*
X9481582Y-15170500D01*
X9556518Y-15159582D01*
X9672102Y-15103076D01*
X9763076Y-15012102D01*
X9819582Y-14896518D01*
X9830500Y-14821582D01*
X9830500Y-14378418D01*
X9819582Y-14303482D01*
X9763076Y-14187898D01*
X9672102Y-14096924D01*
X9672100Y-14096923D01*
X9672099Y-14096922D01*
X9665425Y-14092157D01*
X9667124Y-14089776D01*
X9635473Y-14060235D01*
X9590469Y-13982288D01*
X9567455Y-13959274D01*
X9525224Y-13917042D01*
X9525217Y-13917036D01*
X9525212Y-13917031D01*
X9445468Y-13837287D01*
X9417693Y-13782773D01*
X9427264Y-13722341D01*
X9470529Y-13679076D01*
X9528397Y-13669133D01*
X9572957Y-13674999D01*
X9887498Y-13674999D01*
X9887500Y-13674998D01*
X9887500Y-13349000D01*
X9906407Y-13290809D01*
X9955907Y-13254845D01*
X9986500Y-13250000D01*
X10088500Y-13250000D01*
X10146691Y-13268907D01*
X10182655Y-13318407D01*
X10187500Y-13349000D01*
X10187500Y-13674998D01*
X10187501Y-13674999D01*
X10502041Y-13674999D01*
X10502051Y-13674998D01*
X10551196Y-13668529D01*
X10551201Y-13668528D01*
X10659065Y-13618229D01*
X10743229Y-13534065D01*
X10794255Y-13424642D01*
X10835983Y-13379894D01*
X10896044Y-13368219D01*
X10951497Y-13394077D01*
X10972919Y-13423000D01*
X10996924Y-13472102D01*
X11087898Y-13563076D01*
X11203482Y-13619582D01*
X11278418Y-13630500D01*
X11278421Y-13630500D01*
X11721578Y-13630500D01*
X11721582Y-13630500D01*
X11790791Y-13620416D01*
X11851098Y-13630736D01*
X11893823Y-13674534D01*
X11902645Y-13735080D01*
X11874193Y-13789248D01*
X11868309Y-13794546D01*
X11301950Y-14264844D01*
X11298365Y-14267684D01*
X10631087Y-14771588D01*
X10627375Y-14774259D01*
X9937525Y-15246818D01*
X9933693Y-15249314D01*
X9222798Y-15689482D01*
X9218855Y-15691800D01*
X8488337Y-16098696D01*
X8484291Y-16100828D01*
X7735808Y-16473528D01*
X7731668Y-16475472D01*
X6966738Y-16813222D01*
X6962513Y-16814972D01*
X6182807Y-17117031D01*
X6178505Y-17118584D01*
X5385700Y-17384306D01*
X5381332Y-17385659D01*
X4577063Y-17614493D01*
X4572636Y-17615642D01*
X3758696Y-17807079D01*
X3754221Y-17808023D01*
X2932310Y-17961665D01*
X2927797Y-17962402D01*
X2099629Y-18077927D01*
X2095086Y-18078454D01*
X2070353Y-18080746D01*
X2010666Y-18067288D01*
X1970288Y-18021318D01*
X1964642Y-17960394D01*
X1969751Y-17944288D01*
X2125036Y-17569401D01*
X2199999Y-17000000D01*
X2125036Y-16430598D01*
X1905255Y-15900000D01*
X1555634Y-15444365D01*
X1555629Y-15444361D01*
X1555628Y-15444360D01*
X1321735Y-15264888D01*
X1099999Y-15094744D01*
X569401Y-14874963D01*
X569399Y-14874962D01*
X569397Y-14874962D01*
X1Y-14800000D01*
X-1Y-14800000D01*
X-569397Y-14874962D01*
X-569399Y-14874962D01*
X-569401Y-14874963D01*
X-595192Y-14885646D01*
X-1100000Y-15094743D01*
X-1100001Y-15094744D01*
X-1555628Y-15444360D01*
X-1555629Y-15444361D01*
X-1555634Y-15444365D01*
X-1905255Y-15900000D01*
X-2125036Y-16430598D01*
X-2200000Y-17000000D01*
X-2125036Y-17569401D01*
X-1969753Y-17944283D01*
X-1964953Y-18005279D01*
X-1996922Y-18057448D01*
X-2053450Y-18080863D01*
X-2070353Y-18080746D01*
X-2095086Y-18078454D01*
X-2099629Y-18077927D01*
X-2927797Y-17962402D01*
X-2932310Y-17961665D01*
X-3754221Y-17808023D01*
X-3758696Y-17807079D01*
X-4572636Y-17615642D01*
X-4577063Y-17614493D01*
X-5381332Y-17385659D01*
X-5385700Y-17384306D01*
X-6178505Y-17118584D01*
X-6182807Y-17117031D01*
X-6962513Y-16814972D01*
X-6966738Y-16813222D01*
X-7731668Y-16475472D01*
X-7735808Y-16473528D01*
X-8484291Y-16100828D01*
X-8488337Y-16098696D01*
X-9218855Y-15691800D01*
X-9222798Y-15689482D01*
X-9933693Y-15249314D01*
X-9937525Y-15246818D01*
X-10627375Y-14774259D01*
X-10631087Y-14771588D01*
X-11298365Y-14267684D01*
X-11301950Y-14264844D01*
X-11945234Y-13730668D01*
X-11948684Y-13727666D01*
X-12566612Y-13164350D01*
X-12569920Y-13161192D01*
X-13161192Y-12569920D01*
X-13164350Y-12566612D01*
X-13727666Y-11948684D01*
X-13730668Y-11945234D01*
X-14264844Y-11301950D01*
X-14267684Y-11298365D01*
X-14771588Y-10631087D01*
X-14774259Y-10627375D01*
X-15246818Y-9937525D01*
X-15249314Y-9933693D01*
X-15689482Y-9222798D01*
X-15691800Y-9218855D01*
X-16019944Y-8629724D01*
X-16064351Y-8549999D01*
X-5071978Y-8549999D01*
X-3953024Y-8549999D01*
X-3956471Y-8523798D01*
X-3971375Y-8491838D01*
X-3978831Y-8431108D01*
X-3971374Y-8408160D01*
X-3956470Y-8376200D01*
X-3956470Y-8376198D01*
X-3953021Y-8349999D01*
X-5071976Y-8349999D01*
X-5068528Y-8376199D01*
X-5053625Y-8408157D01*
X-5046166Y-8468886D01*
X-5053625Y-8491840D01*
X-5068528Y-8523798D01*
X-5071977Y-8549998D01*
X-5071978Y-8549999D01*
X-16064351Y-8549999D01*
X-16098696Y-8488337D01*
X-16100828Y-8484291D01*
X-16473528Y-7735808D01*
X-16475472Y-7731668D01*
X-16643995Y-7350001D01*
X-7109999Y-7350001D01*
X-7109999Y-7400693D01*
X-7095536Y-7492015D01*
X-7095534Y-7492022D01*
X-7039451Y-7602088D01*
X-7039450Y-7602090D01*
X-6952090Y-7689450D01*
X-6952088Y-7689451D01*
X-6842022Y-7745533D01*
X-6842020Y-7745534D01*
X-6750694Y-7759999D01*
X-6730000Y-7759998D01*
X-6730000Y-7350001D01*
X-6730001Y-7350000D01*
X-7109998Y-7350000D01*
X-7109999Y-7350001D01*
X-16643995Y-7350001D01*
X-16644445Y-7348981D01*
X-16782902Y-7035407D01*
X-16798842Y-6999307D01*
X-7110000Y-6999307D01*
X-7110000Y-7049999D01*
X-7109999Y-7050000D01*
X-6730001Y-7050000D01*
X-6730000Y-7049999D01*
X-6730000Y-6639999D01*
X-6750692Y-6640000D01*
X-6750696Y-6640001D01*
X-6842015Y-6654463D01*
X-6842022Y-6654465D01*
X-6952088Y-6710548D01*
X-6952090Y-6710549D01*
X-7039450Y-6797909D01*
X-7039451Y-6797911D01*
X-7095533Y-6907977D01*
X-7095534Y-6907978D01*
X-7110000Y-6999307D01*
X-16798842Y-6999307D01*
X-16813222Y-6966738D01*
X-16814972Y-6962513D01*
X-16964124Y-6577508D01*
X-17019424Y-6434761D01*
X-17022814Y-6373672D01*
X-16989648Y-6322255D01*
X-16932595Y-6300152D01*
X-16927109Y-6300000D01*
X-13100001Y-6300000D01*
X-13100000Y-6300000D01*
X-13100000Y-4800001D01*
X-12850000Y-4800001D01*
X-12850000Y-5199999D01*
X-12849999Y-5200000D01*
X-12775377Y-5200000D01*
X-12775375Y-5199999D01*
X-12702453Y-5185493D01*
X-12702451Y-5185492D01*
X-12619762Y-5130241D01*
X-12619758Y-5130237D01*
X-12564507Y-5047548D01*
X-12564506Y-5047546D01*
X-12550000Y-4974624D01*
X-12550000Y-4800001D01*
X-12350000Y-4800001D01*
X-12350000Y-4974622D01*
X-12349999Y-4974624D01*
X-12335493Y-5047546D01*
X-12335492Y-5047548D01*
X-12280241Y-5130237D01*
X-12280237Y-5130241D01*
X-12197548Y-5185492D01*
X-12197546Y-5185493D01*
X-12124624Y-5199999D01*
X-12124623Y-5200000D01*
X-12050001Y-5200000D01*
X-12050000Y-5199999D01*
X-12050000Y-4800001D01*
X-12050001Y-4800000D01*
X-12349999Y-4800000D01*
X-12350000Y-4800001D01*
X-12550000Y-4800001D01*
X-12550001Y-4800000D01*
X-12849999Y-4800000D01*
X-12850000Y-4800001D01*
X-13100000Y-4800001D01*
X-13100000Y-4100001D01*
X-12850000Y-4100001D01*
X-12850000Y-4499999D01*
X-12849999Y-4500000D01*
X-12550001Y-4500000D01*
X-12550000Y-4499999D01*
X-12550000Y-4325377D01*
X-12350000Y-4325377D01*
X-12350000Y-4499999D01*
X-12349999Y-4500000D01*
X-12050001Y-4500000D01*
X-12050000Y-4499999D01*
X-12050000Y-4100001D01*
X-11750000Y-4100001D01*
X-11750000Y-5199999D01*
X-11749999Y-5200000D01*
X-11675377Y-5200000D01*
X-11675375Y-5199999D01*
X-11602453Y-5185493D01*
X-11602448Y-5185491D01*
X-11555451Y-5154089D01*
X-11496563Y-5137480D01*
X-11445450Y-5154087D01*
X-11397740Y-5185966D01*
X-11324674Y-5200500D01*
X-11324673Y-5200500D01*
X-10875327Y-5200500D01*
X-10875326Y-5200500D01*
X-10875320Y-5200498D01*
X-10875315Y-5200498D01*
X-10857808Y-5197015D01*
X-10802260Y-5185966D01*
X-10719399Y-5130601D01*
X-10719397Y-5130599D01*
X-10664035Y-5047742D01*
X-10664033Y-5047736D01*
X-10649501Y-4974684D01*
X-10649500Y-4974672D01*
X-10649500Y-4325327D01*
X-10649501Y-4325315D01*
X-10664033Y-4252263D01*
X-10664035Y-4252257D01*
X-10719397Y-4169400D01*
X-10719400Y-4169397D01*
X-10802257Y-4114035D01*
X-10802263Y-4114033D01*
X-10875315Y-4099501D01*
X-10875325Y-4099500D01*
X-10875326Y-4099500D01*
X-11324674Y-4099500D01*
X-11324684Y-4099501D01*
X-11397736Y-4114033D01*
X-11397737Y-4114033D01*
X-11397740Y-4114034D01*
X-11397745Y-4114036D01*
X-11445450Y-4145911D01*
X-11504338Y-4162519D01*
X-11555450Y-4145911D01*
X-11602449Y-4114507D01*
X-11602453Y-4114506D01*
X-11675375Y-4100000D01*
X-11749999Y-4100000D01*
X-11750000Y-4100001D01*
X-12050000Y-4100001D01*
X-12050001Y-4100000D01*
X-12124624Y-4100000D01*
X-12197546Y-4114506D01*
X-12197548Y-4114507D01*
X-12280237Y-4169758D01*
X-12280241Y-4169762D01*
X-12335492Y-4252451D01*
X-12335493Y-4252453D01*
X-12349999Y-4325375D01*
X-12350000Y-4325377D01*
X-12550000Y-4325377D01*
X-12550000Y-4325375D01*
X-12564506Y-4252453D01*
X-12564507Y-4252451D01*
X-12619758Y-4169762D01*
X-12619762Y-4169758D01*
X-12702451Y-4114507D01*
X-12702453Y-4114506D01*
X-12775375Y-4100000D01*
X-12849999Y-4100000D01*
X-12850000Y-4100001D01*
X-13100000Y-4100001D01*
X-13100000Y-2399000D01*
X-13081093Y-2340809D01*
X-13031593Y-2304845D01*
X-13001000Y-2300000D01*
X-12000001Y-2300000D01*
X-12000000Y-2300000D01*
X-12000000Y-700000D01*
X-12000001Y-700000D01*
X-13001000Y-700000D01*
X-13059191Y-681093D01*
X-13095155Y-631593D01*
X-13100000Y-601000D01*
X-13100000Y2224674D01*
X-9250500Y2224674D01*
X-9250500Y1775326D01*
X-9235966Y1702260D01*
X-9235964Y1702257D01*
X-9235964Y1702256D01*
X-9232815Y1697544D01*
X-9204388Y1655000D01*
X-9187780Y1596114D01*
X-9204388Y1545000D01*
X-9235966Y1497740D01*
X-9250500Y1424674D01*
X-9250500Y975326D01*
X-9235966Y902260D01*
X-9235964Y902257D01*
X-9235964Y902256D01*
X-9221095Y880004D01*
X-9204388Y855000D01*
X-9187780Y796114D01*
X-9204388Y745000D01*
X-9235966Y697740D01*
X-9250500Y624674D01*
X-9250500Y175326D01*
X-9235966Y102260D01*
X-9235964Y102257D01*
X-9235964Y102256D01*
X-9229876Y93145D01*
X-9204388Y55000D01*
X-9187780Y-3886D01*
X-9204388Y-54999D01*
X-9221095Y-80004D01*
X-9235964Y-102256D01*
X-9235964Y-102257D01*
X-9235966Y-102260D01*
X-9250500Y-175326D01*
X-9250500Y-624674D01*
X-9235966Y-697740D01*
X-9204388Y-744999D01*
X-9187780Y-803886D01*
X-9204388Y-854999D01*
X-9221095Y-880004D01*
X-9235964Y-902256D01*
X-9235964Y-902257D01*
X-9235966Y-902260D01*
X-9250500Y-975326D01*
X-9250500Y-1424674D01*
X-9235966Y-1497740D01*
X-9204388Y-1544999D01*
X-9187780Y-1603886D01*
X-9204388Y-1654999D01*
X-9221095Y-1680004D01*
X-9235964Y-1702256D01*
X-9235964Y-1702257D01*
X-9235966Y-1702260D01*
X-9250500Y-1775326D01*
X-9250500Y-2224674D01*
X-9235966Y-2297740D01*
X-9180601Y-2380601D01*
X-9097740Y-2435966D01*
X-9024674Y-2450500D01*
X-9024673Y-2450500D01*
X-8375327Y-2450500D01*
X-8375326Y-2450500D01*
X-8375320Y-2450498D01*
X-8375315Y-2450498D01*
X-8357808Y-2447015D01*
X-8302260Y-2435966D01*
X-8302257Y-2435964D01*
X-8219400Y-2380602D01*
X-8219397Y-2380599D01*
X-8164035Y-2297742D01*
X-8164033Y-2297736D01*
X-8149501Y-2224684D01*
X-8149500Y-2224672D01*
X-8149500Y-1775327D01*
X-8149501Y-1775315D01*
X-8164033Y-1702263D01*
X-8164036Y-1702254D01*
X-8195610Y-1655000D01*
X-8212218Y-1596112D01*
X-8195610Y-1545000D01*
X-8164036Y-1497745D01*
X-8164033Y-1497736D01*
X-8149501Y-1424684D01*
X-8149500Y-1424672D01*
X-8149500Y-975327D01*
X-8149501Y-975315D01*
X-8164033Y-902263D01*
X-8164036Y-902254D01*
X-8195610Y-855000D01*
X-8212218Y-796112D01*
X-8195610Y-745000D01*
X-8164036Y-697745D01*
X-8164033Y-697736D01*
X-8149501Y-624684D01*
X-8149500Y-624672D01*
X-8149500Y-175327D01*
X-8149501Y-175315D01*
X-8164033Y-102263D01*
X-8164036Y-102254D01*
X-8195610Y-55000D01*
X-8212218Y3888D01*
X-8195610Y55000D01*
X-8164036Y102254D01*
X-8164033Y102263D01*
X-8149501Y175315D01*
X-8149500Y175327D01*
X-8149500Y624672D01*
X-8149501Y624684D01*
X-8164033Y697736D01*
X-8164036Y697745D01*
X-8195610Y745000D01*
X-8212218Y803888D01*
X-8195610Y855000D01*
X-8164036Y902254D01*
X-8164033Y902263D01*
X-8149501Y975315D01*
X-8149500Y975327D01*
X-8149500Y1424672D01*
X-8149501Y1424684D01*
X-8164033Y1497736D01*
X-8164036Y1497745D01*
X-8195610Y1545000D01*
X-8212218Y1603888D01*
X-8195610Y1655000D01*
X-8164036Y1702254D01*
X-8164033Y1702263D01*
X-8149501Y1775315D01*
X-8149500Y1775327D01*
X-8149500Y2224672D01*
X-8149501Y2224684D01*
X-8164033Y2297736D01*
X-8164035Y2297742D01*
X-8219397Y2380599D01*
X-8219400Y2380602D01*
X-8302257Y2435964D01*
X-8302260Y2435966D01*
X-8357808Y2447015D01*
X-8375315Y2450498D01*
X-8375320Y2450498D01*
X-8375326Y2450500D01*
X-9024674Y2450500D01*
X-9097740Y2435966D01*
X-9180601Y2380601D01*
X-9235966Y2297740D01*
X-9250500Y2224674D01*
X-13100000Y2224674D01*
X-13100000Y5199999D01*
X-12850000Y5199999D01*
X-12850000Y4800001D01*
X-12849999Y4800000D01*
X-12550001Y4800000D01*
X-12550000Y4800001D01*
X-12550000Y4974624D01*
X-12564506Y5047546D01*
X-12564507Y5047548D01*
X-12619758Y5130237D01*
X-12619762Y5130241D01*
X-12702451Y5185492D01*
X-12702453Y5185493D01*
X-12775375Y5199999D01*
X-12775377Y5200000D01*
X-12849999Y5200000D01*
X-12850000Y5199999D01*
X-13100000Y5199999D01*
X-13100000Y6299999D01*
X-13100000Y6300000D01*
X-13100001Y6300000D01*
X-13836299Y6300000D01*
X-13894490Y6318907D01*
X-13930454Y6368407D01*
X-13930454Y6429593D01*
X-13894490Y6479093D01*
X-13874185Y6490464D01*
X-13622432Y6594743D01*
X-13166801Y6944360D01*
X-13166791Y6944370D01*
X-12817175Y7399998D01*
X-12817173Y7400002D01*
X-12597396Y7930593D01*
X-12597394Y7930601D01*
X-12522431Y8499998D01*
X-12522431Y8499999D01*
X-12597394Y9069397D01*
X-12597396Y9069405D01*
X-12754268Y9448130D01*
X-12759069Y9509126D01*
X-12727099Y9561295D01*
X-12670571Y9584710D01*
X-12611076Y9570426D01*
G37*
%TD.AperFunction*%
%TA.AperFunction,Conductor*%
G36*
X16633958Y7295800D02*
G01*
X16682500Y7258553D01*
X16691474Y7242470D01*
X16798978Y6999000D01*
X16813215Y6966756D01*
X16814965Y6962531D01*
X17117031Y6182807D01*
X17118584Y6178505D01*
X17384306Y5385700D01*
X17385659Y5381332D01*
X17614493Y4577063D01*
X17615642Y4572636D01*
X17807079Y3758696D01*
X17808023Y3754221D01*
X17961665Y2932310D01*
X17962402Y2927797D01*
X18077927Y2099629D01*
X18078454Y2095085D01*
X18155606Y1262476D01*
X18155922Y1257914D01*
X18194539Y422662D01*
X18194645Y418090D01*
X18194645Y-418090D01*
X18194539Y-422662D01*
X18155922Y-1257914D01*
X18155606Y-1262476D01*
X18078454Y-2095085D01*
X18077927Y-2099629D01*
X17962402Y-2927797D01*
X17961665Y-2932310D01*
X17808023Y-3754221D01*
X17807079Y-3758696D01*
X17615642Y-4572636D01*
X17614493Y-4577063D01*
X17385659Y-5381332D01*
X17384306Y-5385700D01*
X17118584Y-6178505D01*
X17117031Y-6182807D01*
X16814972Y-6962513D01*
X16813222Y-6966738D01*
X16475472Y-7731668D01*
X16473528Y-7735808D01*
X16100828Y-8484291D01*
X16098696Y-8488337D01*
X15691800Y-9218855D01*
X15689482Y-9222798D01*
X15249314Y-9933693D01*
X15246818Y-9937525D01*
X14774259Y-10627375D01*
X14771588Y-10631087D01*
X14267684Y-11298365D01*
X14264844Y-11301950D01*
X13730668Y-11945234D01*
X13727666Y-11948684D01*
X13164350Y-12566612D01*
X13161192Y-12569920D01*
X12899683Y-12831429D01*
X12845166Y-12859206D01*
X12784734Y-12849635D01*
X12741469Y-12806370D01*
X12731898Y-12745938D01*
X12734050Y-12735814D01*
X12753000Y-12665092D01*
X12753000Y-12635389D01*
X12771907Y-12577198D01*
X12781990Y-12565391D01*
X13280470Y-12066912D01*
X13326614Y-11986988D01*
X13350500Y-11897843D01*
X13350500Y-11805556D01*
X13350500Y-11571544D01*
X13369407Y-11513353D01*
X13379490Y-11501546D01*
X13434826Y-11446211D01*
X13489866Y-11333625D01*
X13500500Y-11260636D01*
X13500500Y-10939364D01*
X13489866Y-10866375D01*
X13434826Y-10753789D01*
X13346211Y-10665174D01*
X13233625Y-10610134D01*
X13233626Y-10610134D01*
X13215377Y-10607475D01*
X13160636Y-10599500D01*
X12839364Y-10599500D01*
X12797543Y-10605593D01*
X12766373Y-10610134D01*
X12653790Y-10665173D01*
X12565173Y-10753790D01*
X12510134Y-10866373D01*
X12510134Y-10866375D01*
X12499500Y-10939364D01*
X12499500Y-11260636D01*
X12499510Y-11260702D01*
X12510134Y-11333626D01*
X12557359Y-11430226D01*
X12565174Y-11446211D01*
X12620505Y-11501542D01*
X12648281Y-11556057D01*
X12649500Y-11571544D01*
X12649500Y-11665510D01*
X12630593Y-11723701D01*
X12620504Y-11735514D01*
X12286314Y-12069704D01*
X12236442Y-12096631D01*
X12226480Y-12098700D01*
X12186608Y-12098700D01*
X12059314Y-12132808D01*
X12057663Y-12133760D01*
X12057658Y-12133762D01*
X11945190Y-12198696D01*
X11945189Y-12198697D01*
X11945186Y-12198699D01*
X11945186Y-12198700D01*
X11932880Y-12211005D01*
X11878366Y-12238781D01*
X11862879Y-12240000D01*
X11599000Y-12240000D01*
X11540809Y-12221093D01*
X11504845Y-12171593D01*
X11500000Y-12141000D01*
X11500000Y-12090001D01*
X11499999Y-12090000D01*
X11449000Y-12090000D01*
X11390809Y-12071093D01*
X11354845Y-12021593D01*
X11350000Y-11991000D01*
X11350000Y-11570001D01*
X11650000Y-11570001D01*
X11650000Y-11939999D01*
X11650001Y-11940000D01*
X12016917Y-11940000D01*
X12069999Y-11928975D01*
X12069999Y-11918464D01*
X12069998Y-11918461D01*
X12059096Y-11843624D01*
X12002664Y-11728192D01*
X11911807Y-11637335D01*
X11796374Y-11580903D01*
X11721538Y-11570000D01*
X11650001Y-11570000D01*
X11650000Y-11570001D01*
X11350000Y-11570001D01*
X11350000Y-11569999D01*
X11344600Y-11569999D01*
X11286409Y-11551092D01*
X11250445Y-11501592D01*
X11245600Y-11470999D01*
X11245600Y-11173789D01*
X11264507Y-11115598D01*
X11274590Y-11103791D01*
X11289770Y-11088612D01*
X11335914Y-11008688D01*
X11338108Y-11000500D01*
X11359800Y-10919544D01*
X11359800Y-10303756D01*
X11335914Y-10214612D01*
X11335910Y-10214605D01*
X11334911Y-10212874D01*
X11334911Y-10212875D01*
X11334908Y-10212869D01*
X11289770Y-10134688D01*
X11205182Y-10050100D01*
X11109496Y-9954413D01*
X11081719Y-9899897D01*
X11080500Y-9884410D01*
X11080500Y-9854709D01*
X11080500Y-9854708D01*
X11046392Y-9727414D01*
X11046390Y-9727411D01*
X11046390Y-9727409D01*
X10980503Y-9613290D01*
X10980501Y-9613288D01*
X10980500Y-9613286D01*
X10887314Y-9520100D01*
X10887311Y-9520098D01*
X10887309Y-9520096D01*
X10773189Y-9454209D01*
X10773191Y-9454209D01*
X10723799Y-9440975D01*
X10645892Y-9420100D01*
X10514108Y-9420100D01*
X10386814Y-9454208D01*
X10386812Y-9454208D01*
X10380546Y-9455888D01*
X10380184Y-9454539D01*
X10326385Y-9458771D01*
X10274217Y-9426799D01*
X10250805Y-9370270D01*
X10250500Y-9362507D01*
X10250500Y-8275327D01*
X10250498Y-8275315D01*
X10235557Y-8200203D01*
X10242747Y-8139442D01*
X10284279Y-8094512D01*
X10313333Y-8083792D01*
X10648198Y-8017184D01*
X11676272Y-7668200D01*
X12107901Y-7455343D01*
X12168451Y-7446564D01*
X12222600Y-7475053D01*
X12249661Y-7529928D01*
X12239300Y-7590230D01*
X12237423Y-7593633D01*
X12190209Y-7675410D01*
X12183001Y-7702308D01*
X12156100Y-7802708D01*
X12156100Y-7934492D01*
X12171625Y-7992431D01*
X12190209Y-8061790D01*
X12256096Y-8175909D01*
X12256098Y-8175911D01*
X12256100Y-8175914D01*
X12277105Y-8196919D01*
X12304881Y-8251434D01*
X12306100Y-8266921D01*
X12306100Y-8602744D01*
X12318173Y-8647800D01*
X12320025Y-8654712D01*
X12320024Y-8654712D01*
X12324573Y-8671687D01*
X12329986Y-8691888D01*
X12376130Y-8771812D01*
X12470505Y-8866187D01*
X12498281Y-8920702D01*
X12499500Y-8936189D01*
X12499500Y-9060636D01*
X12508007Y-9119027D01*
X12510134Y-9133626D01*
X12554964Y-9225326D01*
X12565174Y-9246211D01*
X12653789Y-9334826D01*
X12766375Y-9389866D01*
X12839364Y-9400500D01*
X12839367Y-9400500D01*
X13160632Y-9400500D01*
X13160636Y-9400500D01*
X13233625Y-9389866D01*
X13346211Y-9334826D01*
X13434826Y-9246211D01*
X13489866Y-9133625D01*
X13500500Y-9060636D01*
X13500500Y-8739364D01*
X13489866Y-8666375D01*
X13434826Y-8553789D01*
X13346211Y-8465174D01*
X13233625Y-8410134D01*
X13233626Y-8410134D01*
X13215377Y-8407475D01*
X13160636Y-8399500D01*
X13160633Y-8399500D01*
X13106100Y-8399500D01*
X13047909Y-8380593D01*
X13011945Y-8331093D01*
X13007100Y-8300500D01*
X13007100Y-8266921D01*
X13026007Y-8208730D01*
X13036090Y-8196923D01*
X13057100Y-8175914D01*
X13086208Y-8125498D01*
X13122990Y-8061790D01*
X13122990Y-8061788D01*
X13122992Y-8061786D01*
X13157100Y-7934492D01*
X13157100Y-7802708D01*
X13122992Y-7675414D01*
X13122990Y-7675410D01*
X13122990Y-7675409D01*
X13057103Y-7561290D01*
X13057101Y-7561288D01*
X13057100Y-7561286D01*
X12963914Y-7468100D01*
X12963911Y-7468098D01*
X12963909Y-7468096D01*
X12849789Y-7402209D01*
X12849791Y-7402209D01*
X12800399Y-7388975D01*
X12722492Y-7368100D01*
X12706836Y-7368100D01*
X12648645Y-7349193D01*
X12612681Y-7299693D01*
X12612681Y-7238507D01*
X12648645Y-7189007D01*
X12651834Y-7186785D01*
X13099746Y-6887499D01*
X13552719Y-6584832D01*
X14368986Y-5868986D01*
X15084832Y-5052719D01*
X15688010Y-4150000D01*
X16168200Y-3176272D01*
X16517184Y-2148198D01*
X16728992Y-1083367D01*
X16800000Y0D01*
X16728992Y1083367D01*
X16517184Y2148198D01*
X16168200Y3176272D01*
X15688010Y4149999D01*
X15084832Y5052719D01*
X14368986Y5868986D01*
X13919730Y6262972D01*
X13888447Y6315554D01*
X13894046Y6376482D01*
X13934388Y6422484D01*
X13994065Y6435988D01*
X14022891Y6428867D01*
X14153023Y6374964D01*
X14153032Y6374962D01*
X14722430Y6299999D01*
X14722431Y6299999D01*
X14722432Y6299999D01*
X15291829Y6374962D01*
X15291831Y6374962D01*
X15291833Y6374963D01*
X15570677Y6490464D01*
X15822429Y6594743D01*
X15822431Y6594744D01*
X16129024Y6830001D01*
X16278060Y6944360D01*
X16278061Y6944361D01*
X16278066Y6944365D01*
X16278070Y6944370D01*
X16522369Y7262746D01*
X16572794Y7297402D01*
X16633958Y7295800D01*
G37*
%TD.AperFunction*%
%TA.AperFunction,Conductor*%
G36*
X9994419Y-10769407D02*
G01*
X10030383Y-10818907D01*
X10031849Y-10823859D01*
X10038249Y-10847742D01*
X10041209Y-10858789D01*
X10107096Y-10972909D01*
X10107098Y-10972911D01*
X10107100Y-10972914D01*
X10128105Y-10993919D01*
X10155881Y-11048434D01*
X10157100Y-11063921D01*
X10157100Y-11293710D01*
X10138193Y-11351901D01*
X10128104Y-11363712D01*
X9996312Y-11495504D01*
X9941797Y-11523281D01*
X9926310Y-11524500D01*
X9572902Y-11524500D01*
X9572890Y-11524501D01*
X9523670Y-11530980D01*
X9415643Y-11581354D01*
X9331354Y-11665643D01*
X9289448Y-11755511D01*
X9247720Y-11800259D01*
X9187658Y-11811933D01*
X9132206Y-11786075D01*
X9110000Y-11755511D01*
X9068229Y-11665934D01*
X8984065Y-11581770D01*
X8876198Y-11531471D01*
X8876200Y-11531471D01*
X8827045Y-11525000D01*
X8512501Y-11525000D01*
X8512500Y-11525001D01*
X8512500Y-11851000D01*
X8493593Y-11909191D01*
X8444093Y-11945155D01*
X8413500Y-11950000D01*
X8362501Y-11950000D01*
X8362500Y-11950001D01*
X8362500Y-12001000D01*
X8343593Y-12059191D01*
X8294093Y-12095155D01*
X8263500Y-12100000D01*
X7603024Y-12100000D01*
X7606471Y-12126201D01*
X7656072Y-12232568D01*
X7663529Y-12293298D01*
X7656073Y-12316247D01*
X7605981Y-12423670D01*
X7605981Y-12423671D01*
X7599500Y-12472898D01*
X7599500Y-12701772D01*
X7580593Y-12759963D01*
X7531093Y-12795927D01*
X7469907Y-12795927D01*
X7420407Y-12759963D01*
X7411563Y-12745258D01*
X7403076Y-12727898D01*
X7312102Y-12636924D01*
X7306017Y-12633949D01*
X7262045Y-12591406D01*
X7250500Y-12545010D01*
X7250500Y-11799999D01*
X7603022Y-11799999D01*
X7603022Y-11800000D01*
X8212499Y-11800000D01*
X8212500Y-11799999D01*
X8212500Y-11525001D01*
X8212499Y-11525000D01*
X7897959Y-11525000D01*
X7897948Y-11525001D01*
X7848803Y-11531470D01*
X7848798Y-11531471D01*
X7740934Y-11581770D01*
X7656770Y-11665934D01*
X7606471Y-11773800D01*
X7603022Y-11799999D01*
X7250500Y-11799999D01*
X7250500Y-11527521D01*
X7269407Y-11469330D01*
X7279490Y-11457523D01*
X7284600Y-11452414D01*
X7288181Y-11446211D01*
X7350490Y-11338290D01*
X7350490Y-11338288D01*
X7350492Y-11338286D01*
X7384600Y-11210992D01*
X7384600Y-11079208D01*
X7350492Y-10951914D01*
X7349991Y-10951047D01*
X7319942Y-10899000D01*
X7307221Y-10839152D01*
X7332108Y-10783256D01*
X7385096Y-10752663D01*
X7405679Y-10750500D01*
X9936228Y-10750500D01*
X9994419Y-10769407D01*
G37*
%TD.AperFunction*%
%TA.AperFunction,Conductor*%
G36*
X241123Y-952394D02*
G01*
X266010Y-1008289D01*
X266340Y-1012163D01*
X271006Y-1083364D01*
X482816Y-2148204D01*
X831801Y-3176278D01*
X1311989Y-4150000D01*
X1311993Y-4150006D01*
X1915159Y-5052708D01*
X1915174Y-5052728D01*
X2588855Y-5820914D01*
X2631013Y-5868986D01*
X2631021Y-5868993D01*
X2631022Y-5868994D01*
X3447270Y-6584824D01*
X3447276Y-6584828D01*
X3447280Y-6584832D01*
X3447283Y-6584834D01*
X3447290Y-6584839D01*
X4349991Y-7188005D01*
X4349997Y-7188009D01*
X5323720Y-7668197D01*
X5323722Y-7668197D01*
X5323727Y-7668200D01*
X5936861Y-7876331D01*
X6351794Y-8017182D01*
X6351796Y-8017182D01*
X6351801Y-8017184D01*
X6686659Y-8083791D01*
X6740043Y-8113688D01*
X6765659Y-8169253D01*
X6764443Y-8200203D01*
X6749500Y-8275323D01*
X6749500Y-8555612D01*
X6730593Y-8613803D01*
X6681093Y-8649767D01*
X6624878Y-8651238D01*
X6612044Y-8647800D01*
X4696144Y-8647800D01*
X4603856Y-8647800D01*
X4514712Y-8671686D01*
X4514711Y-8671686D01*
X4514709Y-8671687D01*
X4434790Y-8717829D01*
X4369529Y-8783090D01*
X4323387Y-8863009D01*
X4323386Y-8863011D01*
X4323386Y-8863012D01*
X4307929Y-8920702D01*
X4306476Y-8926123D01*
X4273152Y-8977437D01*
X4216030Y-8999364D01*
X4210849Y-8999500D01*
X4125326Y-8999500D01*
X4125325Y-8999500D01*
X4125315Y-8999501D01*
X4052263Y-9014033D01*
X4052257Y-9014035D01*
X3969400Y-9069397D01*
X3969397Y-9069400D01*
X3914035Y-9152257D01*
X3914033Y-9152263D01*
X3899501Y-9225315D01*
X3899500Y-9225327D01*
X3899500Y-10774672D01*
X3899501Y-10774684D01*
X3914033Y-10847736D01*
X3914035Y-10847742D01*
X3969397Y-10930599D01*
X3969400Y-10930602D01*
X3982514Y-10939364D01*
X4052260Y-10985966D01*
X4052262Y-10985966D01*
X4058221Y-10988435D01*
X4104748Y-11028170D01*
X4119033Y-11087664D01*
X4095620Y-11144193D01*
X4043452Y-11176164D01*
X4020338Y-11178900D01*
X3887590Y-11178900D01*
X3829399Y-11159993D01*
X3817587Y-11149904D01*
X3362214Y-10694532D01*
X3362212Y-10694530D01*
X3282288Y-10648386D01*
X3282287Y-10648385D01*
X3282286Y-10648385D01*
X3268158Y-10644599D01*
X3268158Y-10644600D01*
X3193144Y-10624500D01*
X3193142Y-10624500D01*
X3179426Y-10624500D01*
X3121235Y-10605593D01*
X3086668Y-10560097D01*
X3071628Y-10519774D01*
X3028063Y-10461578D01*
X2989687Y-10410313D01*
X2909118Y-10350000D01*
X2880228Y-10328373D01*
X2880226Y-10328372D01*
X2784023Y-10292489D01*
X2736111Y-10254440D01*
X2719714Y-10195492D01*
X2741096Y-10138165D01*
X2784027Y-10106975D01*
X2879982Y-10071186D01*
X2989327Y-9989331D01*
X2989331Y-9989327D01*
X3071185Y-9879983D01*
X3118916Y-9752009D01*
X3118918Y-9752001D01*
X3125000Y-9695434D01*
X3125000Y-9575001D01*
X3124999Y-9575000D01*
X1675002Y-9575000D01*
X1655346Y-9594656D01*
X1600829Y-9622433D01*
X1540397Y-9612862D01*
X1515338Y-9594656D01*
X1451096Y-9530414D01*
X1423319Y-9475897D01*
X1422100Y-9460410D01*
X1422100Y-9154565D01*
X1675000Y-9154565D01*
X1675000Y-9274999D01*
X1675001Y-9275000D01*
X2249999Y-9275000D01*
X2250000Y-9274999D01*
X2250000Y-8725001D01*
X2550000Y-8725001D01*
X2550000Y-9274999D01*
X2550001Y-9275000D01*
X3124998Y-9275000D01*
X3124999Y-9274999D01*
X3124999Y-9154569D01*
X3124998Y-9154563D01*
X3118918Y-9097995D01*
X3118917Y-9097993D01*
X3071185Y-8970016D01*
X2989331Y-8860672D01*
X2989327Y-8860668D01*
X2879983Y-8778814D01*
X2752009Y-8731083D01*
X2752001Y-8731081D01*
X2695434Y-8725000D01*
X2550001Y-8725000D01*
X2550000Y-8725001D01*
X2250000Y-8725001D01*
X2249999Y-8725000D01*
X2104569Y-8725000D01*
X2104563Y-8725001D01*
X2047995Y-8731081D01*
X2047993Y-8731082D01*
X1920016Y-8778814D01*
X1810672Y-8860668D01*
X1810668Y-8860672D01*
X1728814Y-8970016D01*
X1681083Y-9097990D01*
X1681081Y-9097998D01*
X1675000Y-9154565D01*
X1422100Y-9154565D01*
X1422100Y-5420657D01*
X1422100Y-5420656D01*
X1398214Y-5331512D01*
X1352070Y-5251588D01*
X1148028Y-5047546D01*
X902896Y-4802413D01*
X875119Y-4747897D01*
X873900Y-4732410D01*
X873900Y-4702709D01*
X865656Y-4671942D01*
X839792Y-4575414D01*
X839790Y-4575411D01*
X839790Y-4575409D01*
X773903Y-4461290D01*
X773901Y-4461288D01*
X773900Y-4461286D01*
X680714Y-4368100D01*
X680711Y-4368098D01*
X680709Y-4368096D01*
X566589Y-4302209D01*
X566591Y-4302209D01*
X517199Y-4288975D01*
X439292Y-4268100D01*
X307508Y-4268100D01*
X229600Y-4288975D01*
X180209Y-4302209D01*
X66090Y-4368096D01*
X66089Y-4368097D01*
X66086Y-4368099D01*
X66086Y-4368100D01*
X-27100Y-4461286D01*
X-27101Y-4461288D01*
X-27102Y-4461289D01*
X-27103Y-4461290D01*
X-92990Y-4575409D01*
X-92990Y-4575411D01*
X-92992Y-4575414D01*
X-96067Y-4586892D01*
X-101573Y-4607440D01*
X-134898Y-4658755D01*
X-192019Y-4680681D01*
X-251120Y-4664845D01*
X-289625Y-4617295D01*
X-296200Y-4581817D01*
X-296200Y-3940357D01*
X-320087Y-3851209D01*
X-366229Y-3771289D01*
X-384714Y-3752804D01*
X-384713Y-3752803D01*
X-574704Y-3562813D01*
X-602481Y-3508297D01*
X-603700Y-3492810D01*
X-603700Y-2954693D01*
X-584793Y-2896502D01*
X-535293Y-2860538D01*
X-474107Y-2860538D01*
X-455199Y-2868956D01*
X-436086Y-2879992D01*
X-308792Y-2914100D01*
X-308790Y-2914100D01*
X-177010Y-2914100D01*
X-177008Y-2914100D01*
X-49714Y-2879992D01*
X-49711Y-2879990D01*
X-49709Y-2879990D01*
X64409Y-2814103D01*
X64409Y-2814102D01*
X64414Y-2814100D01*
X157600Y-2720914D01*
X172458Y-2695179D01*
X223490Y-2606790D01*
X223490Y-2606788D01*
X223492Y-2606786D01*
X257600Y-2479492D01*
X257600Y-2347708D01*
X223492Y-2220414D01*
X223490Y-2220411D01*
X223490Y-2220409D01*
X157603Y-2106290D01*
X157598Y-2106284D01*
X136595Y-2085280D01*
X108819Y-2030763D01*
X107600Y-2015278D01*
X107600Y-1730857D01*
X107600Y-1730856D01*
X83714Y-1641712D01*
X37570Y-1561788D01*
X20780Y-1544998D01*
X-184687Y-1339529D01*
X-212464Y-1285013D01*
X-202892Y-1224581D01*
X-159628Y-1181316D01*
X-155708Y-1179509D01*
X-40690Y-1113103D01*
X-40689Y-1113102D01*
X-40688Y-1113101D01*
X-40686Y-1113100D01*
X52500Y-1019914D01*
X81816Y-969136D01*
X127285Y-928197D01*
X188135Y-921801D01*
X241123Y-952394D01*
G37*
%TD.AperFunction*%
%TA.AperFunction,Conductor*%
G36*
X422663Y18194539D02*
G01*
X1257914Y18155922D01*
X1262476Y18155606D01*
X2095085Y18078454D01*
X2099629Y18077927D01*
X2927797Y17962402D01*
X2932310Y17961665D01*
X3754221Y17808023D01*
X3758696Y17807079D01*
X4572636Y17615642D01*
X4577063Y17614493D01*
X5381332Y17385659D01*
X5385700Y17384306D01*
X6178505Y17118584D01*
X6182807Y17117031D01*
X6962513Y16814972D01*
X6966738Y16813222D01*
X7731668Y16475472D01*
X7735808Y16473528D01*
X8484291Y16100828D01*
X8488337Y16098696D01*
X9218855Y15691800D01*
X9222798Y15689482D01*
X9933693Y15249314D01*
X9937525Y15246818D01*
X10627375Y14774259D01*
X10631087Y14771588D01*
X11298365Y14267684D01*
X11301950Y14264844D01*
X11945234Y13730668D01*
X11948684Y13727666D01*
X12566612Y13164350D01*
X12569920Y13161192D01*
X13161192Y12569920D01*
X13164350Y12566612D01*
X13727666Y11948684D01*
X13730668Y11945234D01*
X14264844Y11301950D01*
X14267684Y11298365D01*
X14617387Y10835283D01*
X14637366Y10777451D01*
X14619537Y10718921D01*
X14570710Y10682049D01*
X14551307Y10677469D01*
X14153029Y10625036D01*
X13622431Y10405255D01*
X13325086Y10177094D01*
X13172300Y10059857D01*
X13166796Y10055634D01*
X13166792Y10055629D01*
X13166791Y10055628D01*
X12817175Y9599999D01*
X12817174Y9599998D01*
X12597396Y9069403D01*
X12597394Y9069397D01*
X12522431Y8499999D01*
X12522431Y8499998D01*
X12597394Y7930601D01*
X12597396Y7930593D01*
X12817173Y7400002D01*
X12817175Y7399998D01*
X12961855Y7211448D01*
X12982279Y7153772D01*
X12964901Y7095107D01*
X12916360Y7057859D01*
X12855195Y7056258D01*
X12828311Y7068866D01*
X12650000Y7188010D01*
X11676272Y7668200D01*
X10648198Y8017184D01*
X10312846Y8083889D01*
X10259465Y8113785D01*
X10233849Y8169350D01*
X10235066Y8200302D01*
X10249999Y8275368D01*
X10250000Y8275377D01*
X10250000Y10524622D01*
X10249999Y10524624D01*
X10235493Y10597546D01*
X10235492Y10597548D01*
X10180241Y10680237D01*
X10180237Y10680241D01*
X10097545Y10735494D01*
X10097545Y10735495D01*
X10055908Y10743775D01*
X8741128Y9428996D01*
X8686611Y9401219D01*
X8671124Y9400000D01*
X8328876Y9400000D01*
X8270685Y9418907D01*
X8258872Y9428996D01*
X7031099Y10656767D01*
X6944090Y10743775D01*
X6902456Y10735495D01*
X6902453Y10735494D01*
X6819762Y10680241D01*
X6819758Y10680237D01*
X6764507Y10597548D01*
X6764506Y10597546D01*
X6750000Y10524624D01*
X6750000Y8275375D01*
X6764934Y8200301D01*
X6757742Y8139539D01*
X6716210Y8094609D01*
X6687156Y8083890D01*
X6351801Y8017184D01*
X6351796Y8017182D01*
X6351794Y8017182D01*
X5889047Y7860100D01*
X5827866Y7859299D01*
X5777900Y7894612D01*
X5758232Y7952550D01*
X5761596Y7979463D01*
X5785000Y8066808D01*
X5785000Y8198592D01*
X5750892Y8325886D01*
X5712712Y8392015D01*
X5685003Y8440009D01*
X5685002Y8440010D01*
X5685000Y8440014D01*
X5663994Y8461019D01*
X5636219Y8515534D01*
X5635000Y8531021D01*
X5635000Y9998310D01*
X5653907Y10056501D01*
X5663996Y10068314D01*
X6345682Y10750000D01*
X7362133Y10750000D01*
X8500000Y9612133D01*
X9637867Y10750000D01*
X7362133Y10750000D01*
X6345682Y10750000D01*
X7966186Y12370504D01*
X8020703Y12398281D01*
X8036190Y12399500D01*
X8160633Y12399500D01*
X8160636Y12399500D01*
X8215377Y12407475D01*
X8233626Y12410134D01*
X8346209Y12465173D01*
X8346211Y12465174D01*
X8434826Y12553789D01*
X8489866Y12666375D01*
X8500500Y12739364D01*
X8500500Y12750500D01*
X8519407Y12808691D01*
X8568907Y12844655D01*
X8599500Y12849500D01*
X8661250Y12849500D01*
X8719441Y12830593D01*
X8754006Y12785098D01*
X8778282Y12720016D01*
X8778373Y12719772D01*
X8860311Y12610315D01*
X8860315Y12610311D01*
X8969771Y12528373D01*
X9097888Y12480587D01*
X9097886Y12480587D01*
X9140707Y12475984D01*
X9154515Y12474500D01*
X9154517Y12474500D01*
X9154518Y12474500D01*
X9695478Y12474500D01*
X9695484Y12474501D01*
X9752111Y12480587D01*
X9752112Y12480587D01*
X9752114Y12480588D01*
X9880226Y12528372D01*
X9989687Y12610313D01*
X10071628Y12719774D01*
X10107509Y12815975D01*
X10145559Y12863887D01*
X10204506Y12880285D01*
X10261834Y12858903D01*
X10293024Y12815973D01*
X10328814Y12720017D01*
X10410668Y12610672D01*
X10410672Y12610668D01*
X10520016Y12528814D01*
X10647990Y12481083D01*
X10647998Y12481081D01*
X10704566Y12475000D01*
X10824999Y12475000D01*
X10825000Y12475001D01*
X10825000Y13049999D01*
X11125000Y13049999D01*
X11125000Y12475000D01*
X11245430Y12475000D01*
X11245437Y12475001D01*
X11302004Y12481081D01*
X11302006Y12481082D01*
X11429983Y12528814D01*
X11539327Y12610668D01*
X11539331Y12610672D01*
X11621185Y12720016D01*
X11668916Y12847990D01*
X11668918Y12847998D01*
X11675000Y12904565D01*
X11675000Y13049999D01*
X11674999Y13050000D01*
X11125001Y13050000D01*
X11125000Y13049999D01*
X10825000Y13049999D01*
X10825000Y13350001D01*
X11125000Y13350001D01*
X11125001Y13350000D01*
X11674998Y13350000D01*
X11674999Y13350001D01*
X11674999Y13495431D01*
X11674998Y13495436D01*
X11668918Y13552004D01*
X11668917Y13552006D01*
X11621185Y13679983D01*
X11539331Y13789327D01*
X11539327Y13789331D01*
X11429983Y13871185D01*
X11302009Y13918916D01*
X11302001Y13918918D01*
X11245433Y13924999D01*
X11125000Y13924999D01*
X11125000Y13350001D01*
X10825000Y13350001D01*
X10825000Y13924998D01*
X10824999Y13924999D01*
X10704569Y13924999D01*
X10704563Y13924998D01*
X10647995Y13918918D01*
X10647993Y13918917D01*
X10520016Y13871185D01*
X10410672Y13789331D01*
X10410668Y13789327D01*
X10328814Y13679983D01*
X10293024Y13584026D01*
X10254973Y13536112D01*
X10196026Y13519714D01*
X10138698Y13541096D01*
X10107510Y13584022D01*
X10071628Y13680226D01*
X9989687Y13789687D01*
X9880226Y13871628D01*
X9752114Y13919412D01*
X9695485Y13925500D01*
X9154516Y13925499D01*
X9097886Y13919412D01*
X8969774Y13871628D01*
X8860313Y13789687D01*
X8860311Y13789684D01*
X8778372Y13680226D01*
X8754006Y13614901D01*
X8715955Y13566988D01*
X8661249Y13550500D01*
X8253856Y13550500D01*
X8164712Y13526614D01*
X8084788Y13480470D01*
X8084785Y13480467D01*
X8033813Y13429496D01*
X7979296Y13401719D01*
X7963810Y13400500D01*
X7839364Y13400500D01*
X7766375Y13389866D01*
X7653789Y13334826D01*
X7565174Y13246211D01*
X7565173Y13246209D01*
X7523611Y13161192D01*
X7510134Y13133625D01*
X7499500Y13060636D01*
X7499500Y13060632D01*
X7499500Y12936189D01*
X7480593Y12877998D01*
X7470509Y12866191D01*
X5004030Y10399712D01*
X5004028Y10399709D01*
X5004026Y10399707D01*
X4969024Y10339082D01*
X4969025Y10339082D01*
X4967225Y10335964D01*
X4957886Y10319788D01*
X4934000Y10230644D01*
X4934000Y10230642D01*
X4934000Y8531021D01*
X4915093Y8472830D01*
X4905009Y8461023D01*
X4884000Y8440014D01*
X4883998Y8440011D01*
X4883996Y8440009D01*
X4818109Y8325890D01*
X4818108Y8325886D01*
X4784000Y8198592D01*
X4784000Y8198590D01*
X4784000Y8066809D01*
X4818109Y7939509D01*
X4883996Y7825390D01*
X4977188Y7732198D01*
X5036211Y7698121D01*
X5077151Y7652651D01*
X5083546Y7591801D01*
X5052953Y7538813D01*
X5030497Y7523595D01*
X4349998Y7188009D01*
X4349992Y7188005D01*
X3447290Y6584839D01*
X3447280Y6584832D01*
X3447276Y6584828D01*
X3447270Y6584824D01*
X2631022Y5868994D01*
X2631013Y5868986D01*
X2631005Y5868977D01*
X2631004Y5868976D01*
X1915174Y5052728D01*
X1915159Y5052708D01*
X1311993Y4150006D01*
X1311989Y4150000D01*
X879798Y3273605D01*
X837104Y3229778D01*
X776802Y3219417D01*
X721927Y3246478D01*
X705273Y3267888D01*
X692500Y3290014D01*
X671494Y3311019D01*
X643719Y3365534D01*
X642500Y3381021D01*
X642500Y6240500D01*
X661407Y6298691D01*
X710907Y6334655D01*
X741498Y6339500D01*
X790736Y6339500D01*
X872356Y6352428D01*
X882175Y6353983D01*
X882178Y6353984D01*
X992389Y6410140D01*
X992391Y6410141D01*
X1030351Y6448101D01*
X1084866Y6475877D01*
X1145298Y6466306D01*
X1170355Y6448101D01*
X1207905Y6410552D01*
X1207911Y6410548D01*
X1317977Y6354466D01*
X1317978Y6354465D01*
X1409307Y6340000D01*
X1429999Y6340000D01*
X1430000Y6340001D01*
X1430000Y6749999D01*
X1730000Y6749999D01*
X1730000Y6339999D01*
X1750692Y6340000D01*
X1750696Y6340001D01*
X1842015Y6354463D01*
X1842022Y6354465D01*
X1952088Y6410548D01*
X1952090Y6410549D01*
X2039450Y6497909D01*
X2039451Y6497911D01*
X2095533Y6607977D01*
X2095534Y6607978D01*
X2110000Y6699307D01*
X2110000Y6749999D01*
X2109999Y6750000D01*
X1730001Y6750000D01*
X1730000Y6749999D01*
X1430000Y6749999D01*
X1430000Y7459998D01*
X1730000Y7459998D01*
X1730000Y7050001D01*
X1730001Y7050000D01*
X2109998Y7050000D01*
X2109999Y7050001D01*
X2109999Y7100693D01*
X2095536Y7192015D01*
X2095534Y7192022D01*
X2039451Y7302088D01*
X2039450Y7302090D01*
X1952090Y7389450D01*
X1952088Y7389451D01*
X1842022Y7445533D01*
X1842020Y7445534D01*
X1750694Y7459999D01*
X1730000Y7459998D01*
X1430000Y7459998D01*
X1429999Y7459999D01*
X1409307Y7459999D01*
X1317984Y7445536D01*
X1317977Y7445534D01*
X1207911Y7389451D01*
X1207909Y7389450D01*
X1170358Y7351899D01*
X1115841Y7324122D01*
X1055409Y7333693D01*
X1030353Y7351896D01*
X992391Y7389859D01*
X882175Y7446017D01*
X790735Y7460500D01*
X449266Y7460499D01*
X449262Y7460499D01*
X414898Y7455056D01*
X357825Y7446017D01*
X247609Y7389859D01*
X160141Y7302391D01*
X160140Y7302389D01*
X103983Y7192176D01*
X89500Y7100736D01*
X89500Y6906189D01*
X70593Y6847998D01*
X60509Y6836191D01*
X11530Y6787212D01*
X-1460Y6764712D01*
X-34614Y6707288D01*
X-58500Y6618144D01*
X-58500Y6618142D01*
X-58500Y5718689D01*
X-77407Y5660498D01*
X-126907Y5624534D01*
X-188093Y5624534D01*
X-227501Y5648683D01*
X-749816Y6170998D01*
X-777592Y6225513D01*
X-768021Y6285945D01*
X-724756Y6329210D01*
X-679814Y6340000D01*
X-649308Y6340000D01*
X-649306Y6340001D01*
X-557984Y6354463D01*
X-557977Y6354465D01*
X-447911Y6410548D01*
X-447909Y6410549D01*
X-360549Y6497909D01*
X-360548Y6497911D01*
X-304466Y6607977D01*
X-304465Y6607978D01*
X-290000Y6699307D01*
X-290000Y6749999D01*
X-290001Y6750000D01*
X-721000Y6750000D01*
X-779191Y6768907D01*
X-815155Y6818407D01*
X-820000Y6849000D01*
X-820000Y6899999D01*
X-820001Y6900000D01*
X-871000Y6900000D01*
X-929191Y6918907D01*
X-965155Y6968407D01*
X-970000Y6999000D01*
X-970000Y7949999D01*
X-670000Y7949999D01*
X-670000Y7050001D01*
X-669999Y7050000D01*
X-290002Y7050000D01*
X-290001Y7050001D01*
X-290001Y7100693D01*
X-290000Y7100693D01*
X-304463Y7192015D01*
X-304465Y7192022D01*
X-360548Y7302088D01*
X-360549Y7302090D01*
X-447909Y7389450D01*
X-491754Y7411791D01*
X-535018Y7455056D01*
X-544589Y7515488D01*
X-516811Y7570004D01*
X-491754Y7588209D01*
X-447909Y7610549D01*
X-360549Y7697909D01*
X-360548Y7697911D01*
X-304466Y7807977D01*
X-304465Y7807978D01*
X-290000Y7899307D01*
X-290000Y7949999D01*
X-290001Y7950000D01*
X-669999Y7950000D01*
X-670000Y7949999D01*
X-970000Y7949999D01*
X-970000Y8659998D01*
X-670000Y8659998D01*
X-670000Y8250001D01*
X-669999Y8250000D01*
X-290002Y8250000D01*
X-290001Y8250001D01*
X-290001Y8300693D01*
X-290000Y8300693D01*
X-304463Y8392015D01*
X-304465Y8392022D01*
X-360548Y8502088D01*
X-360549Y8502090D01*
X-447909Y8589450D01*
X-447911Y8589451D01*
X-557977Y8645533D01*
X-557979Y8645534D01*
X-649305Y8659999D01*
X-670000Y8659998D01*
X-970000Y8659998D01*
X-970001Y8659999D01*
X-990693Y8659999D01*
X-1082015Y8645536D01*
X-1082022Y8645534D01*
X-1192088Y8589451D01*
X-1192090Y8589450D01*
X-1229642Y8551899D01*
X-1284159Y8524122D01*
X-1344591Y8533693D01*
X-1369646Y8551896D01*
X-1407609Y8589859D01*
X-1517825Y8646017D01*
X-1609265Y8660500D01*
X-1950734Y8660499D01*
X-1950737Y8660499D01*
X-1977332Y8656286D01*
X-2042175Y8646017D01*
X-2152391Y8589859D01*
X-2239859Y8502391D01*
X-2239861Y8502385D01*
X-2244439Y8496087D01*
X-2246052Y8497259D01*
X-2282021Y8461291D01*
X-2326966Y8450500D01*
X-7818810Y8450500D01*
X-7877001Y8469407D01*
X-7888814Y8479496D01*
X-8967035Y9557717D01*
X-8994812Y9612234D01*
X-8985241Y9672666D01*
X-8941976Y9715931D01*
X-8916345Y9724819D01*
X-8812094Y9745556D01*
X-8812092Y9745556D01*
X-8694859Y9794115D01*
X-8662182Y9815949D01*
X-8066918Y9815949D01*
X-8034901Y9794558D01*
X-7917760Y9746037D01*
X-7793401Y9721300D01*
X-7666598Y9721300D01*
X-7542240Y9746037D01*
X-7542238Y9746037D01*
X-7425096Y9794558D01*
X-7425086Y9794564D01*
X-7393081Y9815948D01*
X-7730000Y10152867D01*
X-8066917Y9815949D01*
X-8066918Y9815949D01*
X-8662182Y9815949D01*
X-8589349Y9864614D01*
X-8535645Y9918318D01*
X-8499617Y9954346D01*
X-8445173Y10035826D01*
X-8443143Y10038464D01*
X-8420506Y10053967D01*
X-8398964Y10070950D01*
X-8395512Y10071085D01*
X-8392662Y10073038D01*
X-8365234Y10072275D01*
X-8337826Y10073352D01*
X-8334954Y10071433D01*
X-8331500Y10071337D01*
X-8309757Y10054597D01*
X-8286953Y10039359D01*
X-8283127Y10034093D01*
X-8283019Y10034010D01*
X-8282986Y10033899D01*
X-8282383Y10033069D01*
X-8279049Y10028080D01*
X-7971129Y10336003D01*
X-7916612Y10363781D01*
X-7901125Y10365000D01*
X-7730001Y10365000D01*
X-7730000Y10365000D01*
X-7517868Y10365000D01*
X-7234796Y10081927D01*
X-7207019Y10027411D01*
X-7205800Y10011924D01*
X-7205800Y9910545D01*
X-7177140Y9766458D01*
X-7159798Y9724590D01*
X-7120921Y9630733D01*
X-7120921Y9630732D01*
X-7120920Y9630731D01*
X-7039301Y9508580D01*
X-6935420Y9404699D01*
X-6928387Y9400000D01*
X-6813266Y9323078D01*
X-6677542Y9266860D01*
X-6533457Y9238200D01*
X-6533455Y9238200D01*
X-6386542Y9238200D01*
X-6242458Y9266860D01*
X-6242456Y9266860D01*
X-6106733Y9323078D01*
X-6106732Y9323078D01*
X-5984580Y9404699D01*
X-5984576Y9404702D01*
X-5880702Y9508576D01*
X-5880699Y9508580D01*
X-5799078Y9630732D01*
X-5799078Y9630733D01*
X-5742860Y9766456D01*
X-5742860Y9766458D01*
X-5714200Y9910542D01*
X-5714200Y10057457D01*
X-5742860Y10201541D01*
X-5742860Y10201543D01*
X-5799078Y10337266D01*
X-5799078Y10337267D01*
X-5844508Y10405256D01*
X-5880699Y10459420D01*
X-5984580Y10563301D01*
X-6106731Y10644920D01*
X-6242458Y10701140D01*
X-6386545Y10729800D01*
X-6533455Y10729800D01*
X-6677542Y10701140D01*
X-6813269Y10644920D01*
X-6935420Y10563301D01*
X-6935428Y10563293D01*
X-6957918Y10540803D01*
X-7012434Y10513024D01*
X-7072866Y10522594D01*
X-7116132Y10565858D01*
X-7119387Y10572919D01*
X-7159559Y10669903D01*
X-7180949Y10701917D01*
X-7517868Y10365000D01*
X-7730000Y10365000D01*
X-7730000Y10536124D01*
X-7711093Y10594315D01*
X-7701004Y10606128D01*
X-7393081Y10914050D01*
X-7398069Y10917383D01*
X-7435950Y10965432D01*
X-7438352Y11026570D01*
X-7404360Y11077445D01*
X-7398071Y11082014D01*
X-7319350Y11134613D01*
X-7229614Y11224349D01*
X-7159116Y11329857D01*
X-7119004Y11426697D01*
X-7079267Y11473223D01*
X-7019772Y11487506D01*
X-6963244Y11464091D01*
X-6957536Y11458815D01*
X-6935420Y11436699D01*
X-6813269Y11355080D01*
X-6813266Y11355078D01*
X-6677542Y11298860D01*
X-6533457Y11270200D01*
X-6533455Y11270200D01*
X-6386542Y11270200D01*
X-6242458Y11298860D01*
X-6242456Y11298860D01*
X-6106733Y11355078D01*
X-6106732Y11355078D01*
X-5984580Y11436699D01*
X-5984576Y11436702D01*
X-5880702Y11540576D01*
X-5880699Y11540580D01*
X-5799078Y11662732D01*
X-5799078Y11662733D01*
X-5742860Y11798456D01*
X-5742860Y11798458D01*
X-5714200Y11942542D01*
X-5714200Y12089457D01*
X-5742860Y12233541D01*
X-5742860Y12233543D01*
X-5799078Y12369266D01*
X-5799078Y12369267D01*
X-5853023Y12450000D01*
X-5880699Y12491420D01*
X-5984580Y12595301D01*
X-6106731Y12676920D01*
X-6242458Y12733140D01*
X-6386545Y12761800D01*
X-6533455Y12761800D01*
X-6677542Y12733140D01*
X-6813269Y12676920D01*
X-6935420Y12595301D01*
X-7039301Y12491420D01*
X-7120920Y12369269D01*
X-7177140Y12233542D01*
X-7177140Y12233541D01*
X-7177141Y12233537D01*
X-7182151Y12208347D01*
X-7212045Y12154962D01*
X-7267610Y12129345D01*
X-7327620Y12141279D01*
X-7334250Y12145342D01*
X-7388124Y12181339D01*
X-7424857Y12205883D01*
X-7430806Y12208347D01*
X-7451417Y12216884D01*
X-7542094Y12254444D01*
X-7666552Y12279200D01*
X-7793448Y12279200D01*
X-7917906Y12254444D01*
X-8035143Y12205883D01*
X-8140654Y12135383D01*
X-8230383Y12045654D01*
X-8282685Y11967378D01*
X-8330734Y11929499D01*
X-8391872Y11927097D01*
X-8442746Y11961089D01*
X-8447309Y11967369D01*
X-8499617Y12045654D01*
X-8589346Y12135383D01*
X-8694857Y12205883D01*
X-8700806Y12208347D01*
X-8721417Y12216884D01*
X-8812094Y12254444D01*
X-8936552Y12279200D01*
X-9063448Y12279200D01*
X-9082500Y12275410D01*
X-9143261Y12282599D01*
X-9171820Y12302503D01*
X-9558185Y12688867D01*
X-9558188Y12688870D01*
X-9638112Y12735014D01*
X-9727256Y12758900D01*
X-12161944Y12758900D01*
X-12251088Y12735014D01*
X-12331012Y12688870D01*
X-13255570Y11764312D01*
X-13286226Y11711214D01*
X-13301714Y11684388D01*
X-13325600Y11595244D01*
X-13325600Y11595242D01*
X-13325600Y10381367D01*
X-13327739Y10381367D01*
X-13337139Y10330649D01*
X-13381522Y10288532D01*
X-13442184Y10280546D01*
X-13484404Y10299343D01*
X-13622431Y10405255D01*
X-14153029Y10625036D01*
X-14551305Y10677469D01*
X-14606530Y10703810D01*
X-14635725Y10757580D01*
X-14627739Y10818242D01*
X-14617387Y10835283D01*
X-14267684Y11298365D01*
X-14264844Y11301950D01*
X-13730668Y11945234D01*
X-13727666Y11948684D01*
X-13164350Y12566612D01*
X-13161192Y12569920D01*
X-12569920Y13161192D01*
X-12566612Y13164350D01*
X-11948684Y13727666D01*
X-11945234Y13730668D01*
X-11301950Y14264844D01*
X-11298365Y14267684D01*
X-10631087Y14771588D01*
X-10627375Y14774259D01*
X-9937525Y15246818D01*
X-9933693Y15249315D01*
X-9902685Y15268514D01*
X-9771082Y15349999D01*
X-3749999Y15349999D01*
X-3749999Y15268516D01*
X-3749998Y15268514D01*
X-3735166Y15174858D01*
X-3735163Y15174848D01*
X-3677641Y15061956D01*
X-3588043Y14972358D01*
X-3475151Y14914836D01*
X-3475147Y14914835D01*
X-3381484Y14900000D01*
X-3350001Y14900000D01*
X-3350000Y14900001D01*
X-3350000Y15349999D01*
X-3050000Y15349999D01*
X-3050000Y14900000D01*
X-3018517Y14900000D01*
X-3018512Y14900001D01*
X-2924858Y14914833D01*
X-2924848Y14914836D01*
X-2811956Y14972358D01*
X-2722358Y15061956D01*
X-2664836Y15174848D01*
X-2664835Y15174852D01*
X-2650000Y15268515D01*
X-2650000Y15349999D01*
X-2650001Y15350000D01*
X-3049999Y15350000D01*
X-3050000Y15349999D01*
X-3350000Y15349999D01*
X-3350001Y15350000D01*
X-3749998Y15350000D01*
X-3749999Y15349999D01*
X-9771082Y15349999D01*
X-9568910Y15475179D01*
X-9568907Y15475179D01*
X-9222798Y15689482D01*
X-9218855Y15691800D01*
X-9147609Y15731484D01*
X-3750000Y15731484D01*
X-3750000Y15650001D01*
X-3749999Y15650000D01*
X-3350001Y15650000D01*
X-3350000Y15650001D01*
X-3050000Y15650001D01*
X-3049999Y15650000D01*
X-2650002Y15650000D01*
X-2650001Y15650001D01*
X-2650001Y15731486D01*
X-2650006Y15731519D01*
X-2350500Y15731519D01*
X-2350499Y15486190D01*
X-2350499Y15268479D01*
X-2350498Y15268476D01*
X-2347464Y15249315D01*
X-2335646Y15174696D01*
X-2278050Y15061658D01*
X-2188342Y14971950D01*
X-2188340Y14971949D01*
X-2075304Y14914354D01*
X-2075305Y14914354D01*
X-1981522Y14899500D01*
X-1981519Y14899500D01*
X-1736190Y14899500D01*
X-1677999Y14880593D01*
X-1666186Y14870504D01*
X160164Y13044154D01*
X187941Y12989637D01*
X178370Y12929205D01*
X160164Y12904146D01*
X-80496Y12663486D01*
X-135013Y12635709D01*
X-195445Y12645280D01*
X-238710Y12688545D01*
X-249500Y12733490D01*
X-249500Y12774672D01*
X-249501Y12774684D01*
X-264033Y12847736D01*
X-264035Y12847742D01*
X-319397Y12930599D01*
X-319400Y12930602D01*
X-402257Y12985964D01*
X-402260Y12985966D01*
X-457808Y12997015D01*
X-475315Y13000498D01*
X-475320Y13000498D01*
X-475326Y13000500D01*
X-2024674Y13000500D01*
X-2097740Y12985966D01*
X-2180601Y12930601D01*
X-2235966Y12847740D01*
X-2250500Y12774674D01*
X-2250500Y11225326D01*
X-2235966Y11152260D01*
X-2235964Y11152257D01*
X-2180602Y11069400D01*
X-2180599Y11069397D01*
X-2097742Y11014035D01*
X-2097740Y11014034D01*
X-2097737Y11014033D01*
X-2097736Y11014033D01*
X-2024684Y10999501D01*
X-2024674Y10999500D01*
X-2024673Y10999500D01*
X-475327Y10999500D01*
X-475326Y10999500D01*
X-475325Y10999500D01*
X-475315Y10999501D01*
X-402263Y11014033D01*
X-402257Y11014035D01*
X-319400Y11069397D01*
X-319397Y11069400D01*
X-264035Y11152257D01*
X-264033Y11152263D01*
X-249501Y11225315D01*
X-249500Y11225327D01*
X-249500Y11560849D01*
X-230593Y11619040D01*
X-181093Y11655004D01*
X-176140Y11656470D01*
X-145754Y11664612D01*
X-113010Y11673386D01*
X-93956Y11684388D01*
X-93955Y11684387D01*
X-33089Y11719529D01*
X29054Y11781672D01*
X102258Y11854876D01*
X156773Y11882652D01*
X217205Y11873081D01*
X260470Y11829816D01*
X269358Y11804186D01*
X288429Y11708309D01*
X363809Y11526324D01*
X444070Y11406203D01*
X842931Y11805063D01*
X889910Y11723694D01*
X973694Y11639910D01*
X1055064Y11592931D01*
X656203Y11194070D01*
X776324Y11113809D01*
X958310Y11038429D01*
X1151506Y11000000D01*
X1348493Y11000000D01*
X1541688Y11038429D01*
X1541690Y11038429D01*
X1723675Y11113809D01*
X1843795Y11194070D01*
X1444934Y11592930D01*
X1526306Y11639910D01*
X1610090Y11723694D01*
X1657068Y11805062D01*
X2055928Y11406203D01*
X2136185Y11526314D01*
X2136191Y11526326D01*
X2211570Y11708309D01*
X2211570Y11708311D01*
X2249999Y11901506D01*
X2250000Y11901509D01*
X2250000Y12098490D01*
X2249999Y12098493D01*
X2211570Y12291688D01*
X2211570Y12291690D01*
X2136191Y12473673D01*
X2136185Y12473684D01*
X2120474Y12497198D01*
X2103865Y12556086D01*
X2125042Y12613490D01*
X2175916Y12647483D01*
X2202789Y12651200D01*
X5255754Y12651200D01*
X5313945Y12632293D01*
X5344695Y12595680D01*
X5365173Y12553790D01*
X5453790Y12465173D01*
X5566374Y12410134D01*
X5566373Y12410134D01*
X5595570Y12405880D01*
X5639364Y12399500D01*
X5639367Y12399500D01*
X5960633Y12399500D01*
X5960636Y12399500D01*
X6015377Y12407475D01*
X6033626Y12410134D01*
X6146209Y12465173D01*
X6146211Y12465174D01*
X6234826Y12553789D01*
X6289866Y12666375D01*
X6300500Y12739364D01*
X6300500Y13060636D01*
X6289866Y13133625D01*
X6234826Y13246211D01*
X6146211Y13334826D01*
X6033625Y13389866D01*
X5960636Y13400500D01*
X5639364Y13400500D01*
X5566375Y13389866D01*
X5566373Y13389865D01*
X5566368Y13389863D01*
X5509905Y13362260D01*
X5466424Y13352200D01*
X884490Y13352200D01*
X826299Y13371107D01*
X814486Y13381196D01*
X-1220504Y15416186D01*
X-1248281Y15470703D01*
X-1249500Y15486190D01*
X-1249500Y15731520D01*
X-1249501Y15731523D01*
X-1264352Y15825299D01*
X-1264354Y15825304D01*
X-1321949Y15938340D01*
X-1321950Y15938342D01*
X-1411658Y16028050D01*
X-1524696Y16085646D01*
X-1618481Y16100500D01*
X-1981518Y16100499D01*
X-1981520Y16100499D01*
X-1981521Y16100498D01*
X-2028411Y16093072D01*
X-2075299Y16085647D01*
X-2075299Y16085646D01*
X-2075304Y16085646D01*
X-2188342Y16028050D01*
X-2278050Y15938342D01*
X-2335646Y15825304D01*
X-2350500Y15731519D01*
X-2650006Y15731519D01*
X-2664833Y15825141D01*
X-2664836Y15825151D01*
X-2722358Y15938043D01*
X-2811956Y16027641D01*
X-2924848Y16085163D01*
X-2924852Y16085164D01*
X-3018516Y16099999D01*
X-3050000Y16099999D01*
X-3050000Y15650001D01*
X-3350000Y15650001D01*
X-3350000Y16099998D01*
X-3350001Y16099999D01*
X-3381484Y16099999D01*
X-3475141Y16085166D01*
X-3475151Y16085163D01*
X-3588043Y16027641D01*
X-3677641Y15938043D01*
X-3735163Y15825151D01*
X-3735164Y15825147D01*
X-3750000Y15731484D01*
X-9147609Y15731484D01*
X-8985353Y15821860D01*
X-8488337Y16098696D01*
X-8484291Y16100828D01*
X-7735808Y16473528D01*
X-7731668Y16475472D01*
X-6966738Y16813222D01*
X-6962513Y16814972D01*
X-6182807Y17117031D01*
X-6178505Y17118584D01*
X-5385700Y17384306D01*
X-5381332Y17385659D01*
X-4577063Y17614493D01*
X-4572636Y17615642D01*
X-3758696Y17807079D01*
X-3754221Y17808023D01*
X-2932310Y17961665D01*
X-2927797Y17962402D01*
X-2099629Y18077927D01*
X-2095085Y18078454D01*
X-1262476Y18155606D01*
X-1257914Y18155922D01*
X-422663Y18194539D01*
X-418091Y18194645D01*
X418091Y18194645D01*
X422663Y18194539D01*
G37*
%TD.AperFunction*%
%TA.AperFunction,Conductor*%
G36*
X-2268775Y7730593D02*
G01*
X-2245395Y7703218D01*
X-2244439Y7703913D01*
X-2239860Y7697611D01*
X-2239859Y7697609D01*
X-2159494Y7617244D01*
X-2131719Y7562730D01*
X-2130500Y7547243D01*
X-2130500Y7452757D01*
X-2149407Y7394566D01*
X-2159490Y7382759D01*
X-2239859Y7302391D01*
X-2296017Y7192175D01*
X-2310500Y7100735D01*
X-2310499Y6900000D01*
X-2310499Y6699262D01*
X-2306591Y6674590D01*
X-2296017Y6607825D01*
X-2239859Y6497609D01*
X-2152391Y6410141D01*
X-2070484Y6368407D01*
X-2042175Y6353983D01*
X-2042176Y6353983D01*
X-1950737Y6339500D01*
X-1950735Y6339500D01*
X-1950690Y6339500D01*
X-1950674Y6339494D01*
X-1946862Y6339195D01*
X-1946933Y6338279D01*
X-1892499Y6320593D01*
X-1880686Y6310504D01*
X-822696Y5252514D01*
X-794919Y5197997D01*
X-793700Y5182510D01*
X-793700Y4724921D01*
X-812607Y4666730D01*
X-862107Y4630766D01*
X-923293Y4630766D01*
X-962701Y4654915D01*
X-989186Y4681400D01*
X-989189Y4681402D01*
X-989190Y4681403D01*
X-1103310Y4747290D01*
X-1103308Y4747290D01*
X-1103312Y4747291D01*
X-1103314Y4747292D01*
X-1230608Y4781400D01*
X-1362392Y4781400D01*
X-1489686Y4747292D01*
X-1489688Y4747290D01*
X-1489690Y4747290D01*
X-1603809Y4681403D01*
X-1603814Y4681400D01*
X-1606219Y4678994D01*
X-1608388Y4677889D01*
X-1608960Y4677451D01*
X-1609041Y4677556D01*
X-1660734Y4651219D01*
X-1676221Y4650000D01*
X-2001000Y4650000D01*
X-2059191Y4668907D01*
X-2095155Y4718407D01*
X-2100000Y4749000D01*
X-2100000Y4799999D01*
X-2100001Y4800000D01*
X-2151000Y4800000D01*
X-2209191Y4818907D01*
X-2245155Y4868407D01*
X-2250000Y4899000D01*
X-2250000Y5249999D01*
X-1950000Y5249999D01*
X-1950000Y4950001D01*
X-1949999Y4950000D01*
X-1550001Y4950000D01*
X-1550000Y4950001D01*
X-1550000Y5024624D01*
X-1564506Y5097546D01*
X-1564507Y5097548D01*
X-1619758Y5180237D01*
X-1619762Y5180241D01*
X-1702451Y5235492D01*
X-1702453Y5235493D01*
X-1775375Y5249999D01*
X-1775377Y5250000D01*
X-1949999Y5250000D01*
X-1950000Y5249999D01*
X-2250000Y5249999D01*
X-2250001Y5250000D01*
X-2424623Y5250000D01*
X-2424624Y5249999D01*
X-2497546Y5235493D01*
X-2497548Y5235492D01*
X-2580237Y5180241D01*
X-2580240Y5180238D01*
X-2591119Y5163957D01*
X-2639168Y5126076D01*
X-2700306Y5123672D01*
X-2728437Y5136640D01*
X-2802257Y5185964D01*
X-2802260Y5185966D01*
X-2862743Y5197997D01*
X-2875315Y5200498D01*
X-2875320Y5200498D01*
X-2875326Y5200500D01*
X-3324674Y5200500D01*
X-3397740Y5185966D01*
X-3444999Y5154388D01*
X-3503886Y5137780D01*
X-3554999Y5154388D01*
X-3580004Y5171095D01*
X-3602256Y5185964D01*
X-3602257Y5185964D01*
X-3602260Y5185966D01*
X-3662743Y5197997D01*
X-3675315Y5200498D01*
X-3675320Y5200498D01*
X-3675326Y5200500D01*
X-4124674Y5200500D01*
X-4197740Y5185966D01*
X-4197746Y5185961D01*
X-4206752Y5182233D01*
X-4207225Y5183375D01*
X-4256403Y5169503D01*
X-4313808Y5190677D01*
X-4347804Y5241548D01*
X-4348150Y5242804D01*
X-4349500Y5247844D01*
X-4373386Y5336988D01*
X-4419531Y5416912D01*
X-4484788Y5482169D01*
X-4564712Y5528314D01*
X-4653856Y5552200D01*
X-4653858Y5552200D01*
X-5025510Y5552200D01*
X-5083701Y5571107D01*
X-5095514Y5581196D01*
X-6188755Y6674437D01*
X-6216532Y6728954D01*
X-6206961Y6789386D01*
X-6163696Y6832651D01*
X-6147984Y6839026D01*
X-6143488Y6840415D01*
X-6027899Y6896923D01*
X-6027896Y6896925D01*
X-5966342Y6958479D01*
X-5911825Y6986256D01*
X-5851393Y6976684D01*
X-5826338Y6958481D01*
X-5769355Y6901498D01*
X-5769352Y6901496D01*
X-5769350Y6901495D01*
X-5657028Y6844263D01*
X-5657023Y6844261D01*
X-5657022Y6844261D01*
X-5633722Y6840570D01*
X-5563826Y6829500D01*
X-5563823Y6829500D01*
X-5206175Y6829500D01*
X-5206172Y6829501D01*
X-5112982Y6844259D01*
X-5112974Y6844261D01*
X-5000649Y6901495D01*
X-5000647Y6901496D01*
X-4969649Y6932494D01*
X-4915132Y6960270D01*
X-4854700Y6950698D01*
X-4829642Y6932493D01*
X-4799054Y6901905D01*
X-4686865Y6844743D01*
X-4593787Y6830000D01*
X-4565001Y6830000D01*
X-4565000Y6830001D01*
X-4565000Y7249999D01*
X-4265000Y7249999D01*
X-4265000Y6830001D01*
X-4264999Y6830000D01*
X-4236213Y6830000D01*
X-4143134Y6844743D01*
X-4030945Y6901905D01*
X-3941905Y6990945D01*
X-3884743Y7103134D01*
X-3870000Y7196213D01*
X-3870000Y7249999D01*
X-3870001Y7250000D01*
X-4264999Y7250000D01*
X-4265000Y7249999D01*
X-4565000Y7249999D01*
X-4565000Y7301000D01*
X-4546093Y7359191D01*
X-4496593Y7395155D01*
X-4466000Y7400000D01*
X-4415001Y7400000D01*
X-4415000Y7400001D01*
X-4415000Y7451000D01*
X-4396093Y7509191D01*
X-4346593Y7545155D01*
X-4316000Y7550000D01*
X-3870001Y7550000D01*
X-3870000Y7550001D01*
X-3870000Y7603786D01*
X-3874946Y7635012D01*
X-3865375Y7695444D01*
X-3822111Y7738709D01*
X-3777165Y7749500D01*
X-2326966Y7749500D01*
X-2268775Y7730593D01*
G37*
%TD.AperFunction*%
%TD*%
M02*
