M48
; DRILL file KiCad 10.0.6 date 2026-09-29T01:28:05
; FORMAT={-:-/ absolute / metric / decimal}
; #@! TF.CreationDate,2026-09-29T01:28:05+02:00
; #@! TF.GenerationSoftware,Kicad,Pcbnew,10.0.6
; #@! TF.FileFunction,MixedPlating,1,2
FMAT,2
METRIC
; #@! TA.AperFunction,Plated,PTH,ViaDrill
T1C0.300
; #@! TA.AperFunction,Plated,PTH,ComponentDrill
T2C0.850
; #@! TA.AperFunction,NonPlated,NPTH,ComponentDrill
T3C2.400
%
G90
G05
T1
X-16.0Y-3.2
X-15.068Y0.143
X-14.09Y0.902
X-14.076Y-5.346
X-13.379Y10.13
X-13.302Y3.798
X-12.8Y4.8
X-12.67Y-3.18
X-12.337Y-1.5
X-12.08Y6.9
X-12.049Y7.767
X-11.819Y0.833
X-11.63Y9.879
X-11.586Y-3.5
X-11.385Y3.159
X-11.345Y2.04
X-11.19Y-10.9
X-10.3Y3.61
X-10.139Y11.783
X-10.103Y11.079
X-10.016Y6.162
X-9.219Y-10.367
X-8.783Y13.267
X-8.467Y9.961
X-8.403Y-4.771
X-7.985Y4.44
X-7.952Y5.659
X-7.817Y10.297
X-7.75Y3.25
X-6.9Y2.28
X-6.4Y0.0
X-6.4Y-1.6
X-6.4Y-3.2
X-6.217Y15.724
X-4.335Y14.312
X-4.04Y11.137
X0.808Y12.824
X2.35Y5.35
X2.462Y16.268
X3.15Y5.35
X3.368Y16.519
X4.7Y3.65
X6.0Y0.4
X6.4Y-1.6
X6.4Y-3.2
X8.0Y-1.6
X8.0Y-3.2
X8.0Y-4.8
X8.0Y-6.4
X8.0Y-8.0
X8.0Y-9.6
X8.414Y3.5
T2
X13.196Y-4.827
X13.844Y-2.413
T3
X-15.505Y5.643
X9.464Y-13.516
X12.64Y10.606
M30
