%TF.GenerationSoftware,KiCad,Pcbnew,10.0.6*%
%TF.CreationDate,2026-10-01T00:16:45+02:00*%
%TF.ProjectId,shotpuck,73686f74-7075-4636-9b2e-6b696361645f,rev?*%
%TF.SameCoordinates,Original*%
%TF.FileFunction,Profile,NP*%
%FSLAX46Y46*%
G04 Gerber Fmt 4.6, Leading zero omitted, Abs format (unit mm)*
G04 Created by KiCad (PCBNEW 10.0.6) date 2026-10-01 00:16:45*
%MOMM*%
%LPD*%
G01*
G04 APERTURE LIST*
%TA.AperFunction,Profile*%
%ADD10C,0.100000*%
%TD*%
G04 APERTURE END LIST*
D10*
X114063700Y-91395476D02*
X114085382Y-90512258D01*
X114085382Y-90512258D02*
X114150375Y-89631168D01*
X114085382Y-92278694D02*
X114063700Y-91395476D01*
X114150375Y-89631168D02*
X114258523Y-88754328D01*
X114150375Y-93159784D02*
X114085382Y-92278694D01*
X114258523Y-88754328D02*
X114409565Y-87883851D01*
X114258523Y-94036624D02*
X114150375Y-93159784D01*
X114409565Y-87883851D02*
X114603138Y-87021833D01*
X114409565Y-94907101D02*
X114258523Y-94036624D01*
X114603138Y-87021833D02*
X114838774Y-86170352D01*
X114603138Y-95769119D02*
X114409565Y-94907101D01*
X114838774Y-86170352D02*
X115115907Y-85331459D01*
X114838774Y-96620600D02*
X114603138Y-95769119D01*
X115115907Y-85331459D02*
X115433869Y-84507175D01*
X115115907Y-97459493D02*
X114838774Y-96620600D01*
X115433869Y-98283777D02*
X115115907Y-97459493D01*
X115791892Y-83699484D02*
X115433869Y-84507175D01*
X115791893Y-99091467D02*
X115433869Y-98283777D01*
X116189117Y-82910334D02*
X115791892Y-83699484D01*
X116189118Y-99880617D02*
X115791893Y-99091467D01*
X116607613Y-82170000D02*
X116189117Y-82910334D01*
X116607613Y-82170000D02*
X119300687Y-85101191D01*
X116624586Y-100649325D02*
X116189118Y-99880617D01*
X117097247Y-101395740D02*
X116624586Y-100649325D01*
X117605965Y-102118063D02*
X117097247Y-101395740D01*
X118149512Y-102814555D02*
X117605965Y-102118063D01*
X118726580Y-103483537D02*
X118149512Y-102814555D01*
X119335778Y-104123398D02*
X118726580Y-103483537D01*
X119975639Y-104732596D02*
X119335778Y-104123398D01*
X120007161Y-85131102D02*
G75*
G02*
X119300708Y-85101172I-338261J368202D01*
G01*
X120007161Y-85131102D02*
X126840807Y-78852593D01*
X120644621Y-105309664D02*
X119975639Y-104732596D01*
X121341113Y-105853211D02*
X120644621Y-105309664D01*
X122063436Y-106361929D02*
X121341113Y-105853211D01*
X122809851Y-106834590D02*
X122063436Y-106361929D01*
X123578559Y-107270058D02*
X122809851Y-106834590D01*
X124177644Y-75214927D02*
X126870718Y-78146119D01*
X124367708Y-75123668D02*
X124177644Y-75214927D01*
X124367709Y-107667283D02*
X123578559Y-107270058D01*
X125175398Y-74765644D02*
X124367708Y-75123668D01*
X125175399Y-108025307D02*
X124367709Y-107667283D01*
X125563700Y-103145476D02*
X125563700Y-108175092D01*
X125563700Y-108175092D02*
X125175399Y-108025307D01*
X125571530Y-102826536D02*
X125563700Y-103145476D01*
X125595000Y-102508364D02*
X125571530Y-102826536D01*
X125634053Y-102191727D02*
X125595000Y-102508364D01*
X125688596Y-101877388D02*
X125634053Y-102191727D01*
X125758497Y-101566104D02*
X125688596Y-101877388D01*
X125843588Y-101258625D02*
X125758497Y-101566104D01*
X125943664Y-100955691D02*
X125843588Y-101258625D01*
X125999682Y-74447682D02*
X125175398Y-74765644D01*
X126058484Y-100658033D02*
X125943664Y-100955691D01*
X126187770Y-100366367D02*
X126058484Y-100658033D01*
X126331212Y-100081397D02*
X126187770Y-100366367D01*
X126488465Y-99803808D02*
X126331212Y-100081397D01*
X126659148Y-99534269D02*
X126488465Y-99803808D01*
X126838576Y-74170550D02*
X125999682Y-74447682D01*
X126838576Y-74170550D02*
X127690057Y-73934914D01*
X126842852Y-99273430D02*
X126659148Y-99534269D01*
X126863700Y-91395476D02*
X126863700Y-99246715D01*
X126863700Y-99246715D02*
X126842852Y-99273430D01*
X126869964Y-91140325D02*
X126863700Y-91395476D01*
X126870718Y-78146119D02*
G75*
G02*
X126840808Y-78852594I-368218J-338281D01*
G01*
X126888740Y-90885787D02*
X126869964Y-91140325D01*
X126919983Y-90632478D02*
X126888740Y-90885787D01*
X126963617Y-90381007D02*
X126919983Y-90632478D01*
X127019538Y-90131980D02*
X126963617Y-90381007D01*
X127087611Y-89885996D02*
X127019538Y-90131980D01*
X127167671Y-89643649D02*
X127087611Y-89885996D01*
X127259527Y-89405523D02*
X127167671Y-89643649D01*
X127362956Y-89172190D02*
X127259527Y-89405523D01*
X127477710Y-88944213D02*
X127362956Y-89172190D01*
X127603512Y-88722142D02*
X127477710Y-88944213D01*
X127690057Y-73934914D02*
X128552075Y-73741341D01*
X127740059Y-88506511D02*
X127603512Y-88722142D01*
X127887021Y-88297840D02*
X127740059Y-88506511D01*
X128044046Y-88096631D02*
X127887021Y-88297840D01*
X128210755Y-87903370D02*
X128044046Y-88096631D01*
X128386745Y-87718521D02*
X128210755Y-87903370D01*
X128552075Y-73741341D02*
X129422552Y-73590299D01*
X128571594Y-87542531D02*
X128386745Y-87718521D01*
X128764855Y-87375822D02*
X128571594Y-87542531D01*
X128966064Y-87218797D02*
X128764855Y-87375822D01*
X129174735Y-87071835D02*
X128966064Y-87218797D01*
X129390366Y-86935288D02*
X129174735Y-87071835D01*
X129422552Y-73590299D02*
X130299392Y-73482151D01*
X129612437Y-86809486D02*
X129390366Y-86935288D01*
X129840414Y-86694732D02*
X129612437Y-86809486D01*
X130073747Y-86591303D02*
X129840414Y-86694732D01*
X130299392Y-73482151D02*
X131180482Y-73417158D01*
X130311873Y-86499447D02*
X130073747Y-86591303D01*
X130554220Y-86419387D02*
X130311873Y-86499447D01*
X130800204Y-86351314D02*
X130554220Y-86419387D01*
X131049231Y-86295393D02*
X130800204Y-86351314D01*
X131180482Y-73417158D02*
X132063700Y-73395476D01*
X131300702Y-86251759D02*
X131049231Y-86295393D01*
X131554011Y-86220516D02*
X131300702Y-86251759D01*
X131808549Y-86201740D02*
X131554011Y-86220516D01*
X132063700Y-73395476D02*
X132946918Y-73417158D01*
X132063700Y-86195476D02*
X131808549Y-86201740D01*
X132318851Y-86201740D02*
X132063700Y-86195476D01*
X132573389Y-86220516D02*
X132318851Y-86201740D01*
X132826698Y-86251759D02*
X132573389Y-86220516D01*
X132946918Y-73417158D02*
X133828008Y-73482151D01*
X133078169Y-86295393D02*
X132826698Y-86251759D01*
X133327196Y-86351314D02*
X133078169Y-86295393D01*
X133573180Y-86419387D02*
X133327196Y-86351314D01*
X133815527Y-86499447D02*
X133573180Y-86419387D01*
X133828008Y-73482151D02*
X134704848Y-73590299D01*
X134053653Y-86591303D02*
X133815527Y-86499447D01*
X134286986Y-86694732D02*
X134053653Y-86591303D01*
X134514963Y-86809486D02*
X134286986Y-86694732D01*
X134704848Y-73590299D02*
X135575325Y-73741341D01*
X134737034Y-86935288D02*
X134514963Y-86809486D01*
X134952665Y-87071835D02*
X134737034Y-86935288D01*
X135161336Y-87218797D02*
X134952665Y-87071835D01*
X135362545Y-87375822D02*
X135161336Y-87218797D01*
X135555806Y-87542531D02*
X135362545Y-87375822D01*
X135575325Y-73741341D02*
X136437343Y-73934914D01*
X135740655Y-87718521D02*
X135555806Y-87542531D01*
X135916645Y-87903370D02*
X135740655Y-87718521D01*
X136083354Y-88096631D02*
X135916645Y-87903370D01*
X136240379Y-88297840D02*
X136083354Y-88096631D01*
X136387341Y-88506511D02*
X136240379Y-88297840D01*
X136437343Y-73934914D02*
X137288824Y-74170550D01*
X136523888Y-88722142D02*
X136387341Y-88506511D01*
X136649690Y-88944213D02*
X136523888Y-88722142D01*
X136764444Y-89172190D02*
X136649690Y-88944213D01*
X136867873Y-89405523D02*
X136764444Y-89172190D01*
X136959729Y-89643649D02*
X136867873Y-89405523D01*
X137039789Y-89885996D02*
X136959729Y-89643649D01*
X137107862Y-90131980D02*
X137039789Y-89885996D01*
X137163783Y-90381007D02*
X137107862Y-90131980D01*
X137207417Y-90632478D02*
X137163783Y-90381007D01*
X137238660Y-90885787D02*
X137207417Y-90632478D01*
X137257436Y-91140325D02*
X137238660Y-90885787D01*
X137263700Y-91395476D02*
X137257436Y-91140325D01*
X137263700Y-99246715D02*
X137263700Y-91395476D01*
X137284548Y-99273430D02*
X137263700Y-99246715D01*
X137288824Y-74170550D02*
X138127717Y-74447683D01*
X137468252Y-99534269D02*
X137284548Y-99273430D01*
X137638935Y-99803808D02*
X137468252Y-99534269D01*
X137796188Y-100081397D02*
X137638935Y-99803808D01*
X137939630Y-100366367D02*
X137796188Y-100081397D01*
X138068916Y-100658033D02*
X137939630Y-100366367D01*
X138127717Y-74447683D02*
X138952001Y-74765645D01*
X138183736Y-100955691D02*
X138068916Y-100658033D01*
X138283812Y-101258625D02*
X138183736Y-100955691D01*
X138368903Y-101566104D02*
X138283812Y-101258625D01*
X138438804Y-101877388D02*
X138368903Y-101566104D01*
X138493347Y-102191727D02*
X138438804Y-101877388D01*
X138532400Y-102508364D02*
X138493347Y-102191727D01*
X138555870Y-102826536D02*
X138532400Y-102508364D01*
X138563700Y-103145476D02*
X138555870Y-102826536D01*
X138563700Y-108175092D02*
X138563700Y-103145476D01*
X138952001Y-74765645D02*
X139759691Y-75123669D01*
X138952001Y-108025307D02*
X138563700Y-108175092D01*
X139759691Y-75123669D02*
X140548841Y-75520894D01*
X139759691Y-107667283D02*
X138952001Y-108025307D01*
X140548841Y-75520894D02*
X141317549Y-75956362D01*
X140548841Y-107270058D02*
X139759691Y-107667283D01*
X141317549Y-75956362D02*
X142063964Y-76429023D01*
X141317549Y-106834590D02*
X140548841Y-107270058D01*
X142063964Y-76429023D02*
X142786287Y-76937741D01*
X142063964Y-106361929D02*
X141317549Y-106834590D01*
X142786287Y-76937741D02*
X143482779Y-77481288D01*
X142786287Y-105853211D02*
X142063964Y-106361929D01*
X143482779Y-77481288D02*
X144151761Y-78058356D01*
X143482779Y-105309664D02*
X142786287Y-105853211D01*
X144151761Y-78058356D02*
X144791622Y-78667554D01*
X144151761Y-104732596D02*
X143482779Y-105309664D01*
X144791622Y-78667554D02*
X145400820Y-79307415D01*
X144791622Y-104123398D02*
X144151761Y-104732596D01*
X145400820Y-79307415D02*
X145977888Y-79976397D01*
X145400820Y-103483537D02*
X144791622Y-104123398D01*
X145977888Y-79976397D02*
X146521435Y-80672889D01*
X145977888Y-102814555D02*
X145400820Y-103483537D01*
X146521435Y-80672889D02*
X147030153Y-81395212D01*
X146521435Y-102118063D02*
X145977888Y-102814555D01*
X147030153Y-81395212D02*
X147502814Y-82141627D01*
X147030153Y-101395740D02*
X146521435Y-102118063D01*
X147502814Y-82141627D02*
X147938282Y-82910335D01*
X147502814Y-100649325D02*
X147030153Y-101395740D01*
X147938282Y-82910335D02*
X148335507Y-83699485D01*
X147938282Y-99880617D02*
X147502814Y-100649325D01*
X148335507Y-83699485D02*
X148693531Y-84507175D01*
X148335507Y-99091467D02*
X147938282Y-99880617D01*
X148693531Y-84507175D02*
X149011493Y-85331459D01*
X148693531Y-98283777D02*
X148335507Y-99091467D01*
X149011493Y-85331459D02*
X149288626Y-86170352D01*
X149011493Y-97459493D02*
X148693531Y-98283777D01*
X149288626Y-86170352D02*
X149524262Y-87021833D01*
X149288626Y-96620600D02*
X149011493Y-97459493D01*
X149524262Y-87021833D02*
X149717835Y-87883851D01*
X149524262Y-95769119D02*
X149288626Y-96620600D01*
X149717835Y-87883851D02*
X149868877Y-88754328D01*
X149717835Y-94907101D02*
X149524262Y-95769119D01*
X149868877Y-88754328D02*
X149977025Y-89631168D01*
X149868877Y-94036624D02*
X149717835Y-94907101D01*
X149977025Y-89631168D02*
X150042018Y-90512258D01*
X149977025Y-93159784D02*
X149868877Y-94036624D01*
X150042018Y-90512258D02*
X150063700Y-91395476D01*
X150042018Y-92278694D02*
X149977025Y-93159784D01*
X150063700Y-91395476D02*
X150042018Y-92278694D01*
M02*
