%TF.GenerationSoftware,KiCad,Pcbnew,10.0.6*%
%TF.CreationDate,2026-09-27T19:28:38+02:00*%
%TF.ProjectId,shotpuck,73686f74-7075-4636-9b2e-6b696361645f,rev?*%
%TF.SameCoordinates,Original*%
%TF.FileFunction,Legend,Top*%
%TF.FilePolarity,Positive*%
%FSLAX46Y46*%
G04 Gerber Fmt 4.6, Leading zero omitted, Abs format (unit mm)*
G04 Created by KiCad (PCBNEW 10.0.6) date 2026-09-27 19:28:38*
%MOMM*%
%LPD*%
G01*
G04 APERTURE LIST*
%ADD10C,0.120000*%
%ADD11C,0.100000*%
G04 APERTURE END LIST*
%TO.C,C8*%
D10*
X-13707836Y-6540000D02*
X-13492164Y-6540000D01*
X-13707836Y-7260000D02*
X-13492164Y-7260000D01*
%TO.C,D3*%
X9040000Y1000000D02*
X9040000Y-200000D01*
X11000000Y1000000D02*
X9040000Y1000000D01*
X11000000Y-200000D02*
X9040000Y-200000D01*
%TO.C,Q1*%
X-13935000Y3310000D02*
X-12465000Y3310000D01*
X-13935000Y3285000D02*
X-13935000Y3310000D01*
X-13935000Y1090000D02*
X-13935000Y1115000D01*
X-12465000Y3310000D02*
X-12465000Y3285000D01*
X-12465000Y1115000D02*
X-12465000Y1090000D01*
X-12465000Y1090000D02*
X-13935000Y1090000D01*
X-14380000Y3290000D02*
X-14520000Y3480000D01*
X-14240000Y3480000D01*
X-14380000Y3290000D01*
G36*
X-14380000Y3290000D02*
G01*
X-14520000Y3480000D01*
X-14240000Y3480000D01*
X-14380000Y3290000D01*
G37*
%TO.C,R2*%
X-15980000Y1446359D02*
X-15980000Y1753641D01*
X-15220000Y1446359D02*
X-15220000Y1753641D01*
%TO.C,U4*%
X-12820000Y-9900000D02*
X-14180000Y-9900000D01*
X-12615000Y-8100000D02*
X-14185000Y-8100000D01*
X-12500000Y-9900000D02*
X-12220000Y-9900000D01*
X-12500000Y-10180000D01*
X-12500000Y-9900000D01*
G36*
X-12500000Y-10180000D02*
G01*
X-12500000Y-9900000D01*
X-12220000Y-9900000D01*
X-12500000Y-10180000D01*
G37*
%TO.C,R8*%
X-12753641Y-10520000D02*
X-12446359Y-10520000D01*
X-12753641Y-11280000D02*
X-12446359Y-11280000D01*
%TO.C,D4*%
D11*
X-7440000Y3300000D02*
G75*
G02*
X-7540000Y3300000I-50000J0D01*
G01*
X-7540000Y3300000D02*
G75*
G02*
X-7440000Y3300000I50000J0D01*
G01*
%TO.C,R4*%
D10*
X-8453641Y4680000D02*
X-8146359Y4680000D01*
X-8453641Y3920000D02*
X-8146359Y3920000D01*
%TO.C,R1*%
X-15580000Y-1653641D02*
X-15580000Y-1346359D01*
X-14820000Y-1653641D02*
X-14820000Y-1346359D01*
%TO.C,C5*%
X-10592164Y7260000D02*
X-10807836Y7260000D01*
X-10592164Y6540000D02*
X-10807836Y6540000D01*
%TO.C,C6*%
X-12760000Y11092164D02*
X-12760000Y11307836D01*
X-12040000Y11092164D02*
X-12040000Y11307836D01*
%TO.C,U3*%
X-13310000Y60000D02*
X-11490000Y60000D01*
X-13310000Y10000D02*
X-13310000Y60000D01*
X-13310000Y-3060000D02*
X-13310000Y-3010000D01*
X-11490000Y60000D02*
X-11490000Y10000D01*
X-11490000Y-1110000D02*
X-11490000Y-1890000D01*
X-11490000Y-3010000D02*
X-11490000Y-3060000D01*
X-11490000Y-3060000D02*
X-13310000Y-3060000D01*
X-13850000Y10000D02*
X-14090000Y340000D01*
X-13610000Y340000D01*
X-13850000Y10000D01*
G36*
X-13850000Y10000D02*
G01*
X-14090000Y340000D01*
X-13610000Y340000D01*
X-13850000Y10000D01*
G37*
%TO.C,R7*%
X-15780000Y-5453641D02*
X-15780000Y-5146359D01*
X-15020000Y-5453641D02*
X-15020000Y-5146359D01*
%TO.C,U1*%
X-7800000Y16000000D02*
X-7800000Y14900000D01*
X-7800000Y5300000D02*
X-7800000Y6400000D01*
X-6700000Y16000000D02*
X-7800000Y16000000D01*
X-6700000Y5300000D02*
X-7800000Y5300000D01*
X7900000Y16000000D02*
X6800000Y16000000D01*
X7900000Y14900000D02*
X7900000Y16000000D01*
X7900000Y6400000D02*
X7900000Y5300000D01*
X7900000Y5300000D02*
X6800000Y5300000D01*
X3800000Y16025000D02*
X3560000Y16361000D01*
X4040000Y16361000D01*
X3800000Y16025000D01*
G36*
X3800000Y16025000D02*
G01*
X3560000Y16361000D01*
X4040000Y16361000D01*
X3800000Y16025000D01*
G37*
%TO.C,C7*%
X-12960000Y9092164D02*
X-12960000Y9307836D01*
X-12240000Y9092164D02*
X-12240000Y9307836D01*
%TO.C,J1*%
X9711710Y-10105324D02*
X13464586Y3900600D01*
X13464586Y3900600D02*
X17328290Y2865324D01*
X13575414Y-11140600D02*
X9711710Y-10105324D01*
X17328290Y2865324D02*
X13575414Y-11140600D01*
%TO.C,C3*%
X-10592164Y8360000D02*
X-10807836Y8360000D01*
X-10592164Y7640000D02*
X-10807836Y7640000D01*
%TO.C,D2*%
X-9850000Y-2910000D02*
X-9850000Y-250000D01*
X-9850000Y-2910000D02*
X-8150000Y-2910000D01*
X-8150000Y-2910000D02*
X-8150000Y-250000D01*
%TO.C,U2*%
X-11560000Y13110000D02*
X-11385000Y13110000D01*
X-11560000Y12435000D02*
X-11560000Y13110000D01*
X-11560000Y9890000D02*
X-11560000Y10565000D01*
X-11385000Y9890000D02*
X-11560000Y9890000D01*
X-9015000Y13110000D02*
X-8840000Y13110000D01*
X-8840000Y13110000D02*
X-8840000Y12435000D01*
X-8840000Y10565000D02*
X-8840000Y9890000D01*
X-8840000Y9890000D02*
X-9015000Y9890000D01*
X-9450000Y13240000D02*
X-9690000Y13570000D01*
X-9210000Y13570000D01*
X-9450000Y13240000D01*
G36*
X-9450000Y13240000D02*
G01*
X-9690000Y13570000D01*
X-9210000Y13570000D01*
X-9450000Y13240000D01*
G37*
%TO.C,Q2*%
X-11335000Y-7890000D02*
X-9865000Y-7890000D01*
X-11335000Y-7915000D02*
X-11335000Y-7890000D01*
X-11335000Y-10110000D02*
X-11335000Y-10085000D01*
X-9865000Y-7890000D02*
X-9865000Y-7915000D01*
X-9865000Y-10085000D02*
X-9865000Y-10110000D01*
X-9865000Y-10110000D02*
X-11335000Y-10110000D01*
X-11780000Y-7910000D02*
X-11920000Y-7720000D01*
X-11640000Y-7720000D01*
X-11780000Y-7910000D01*
G36*
X-11780000Y-7910000D02*
G01*
X-11920000Y-7720000D01*
X-11640000Y-7720000D01*
X-11780000Y-7910000D01*
G37*
%TO.C,C2*%
X-13540580Y-3589999D02*
X-13259420Y-3589999D01*
X-13540580Y-4609999D02*
X-13259420Y-4609999D01*
%TO.C,R3*%
X-10680000Y2046359D02*
X-10680000Y2353641D01*
X-9920000Y2046359D02*
X-9920000Y2353641D01*
%TO.C,BT1*%
X-8945511Y-9411660D02*
X-7745511Y-9411660D01*
X-8345511Y-8811660D02*
X-8345511Y-10011660D01*
%TO.C,D1*%
X8340000Y3450000D02*
X8340000Y1750000D01*
X8340000Y3450000D02*
X11000000Y3450000D01*
X8340000Y1750000D02*
X11000000Y1750000D01*
%TO.C,C1*%
X6459420Y3410000D02*
X6740580Y3410000D01*
X6459420Y2390000D02*
X6740580Y2390000D01*
%TO.C,C4*%
X-10592164Y9460000D02*
X-10807836Y9460000D01*
X-10592164Y8740000D02*
X-10807836Y8740000D01*
%TD*%
M02*
