%TF.GenerationSoftware,KiCad,Pcbnew,10.0.6*%
%TF.CreationDate,2026-10-01T09:06:45+02:00*%
%TF.ProjectId,shotpuck,73686f74-7075-4636-9b2e-6b696361645f,rev?*%
%TF.SameCoordinates,Original*%
%TF.FileFunction,Copper,L2,Bot*%
%TF.FilePolarity,Positive*%
%FSLAX46Y46*%
G04 Gerber Fmt 4.6, Leading zero omitted, Abs format (unit mm)*
G04 Created by KiCad (PCBNEW 10.0.6) date 2026-10-01 09:06:45*
%MOMM*%
%LPD*%
G01*
G04 APERTURE LIST*
%TA.AperFunction,EtchedComponent*%
%ADD10C,0.000000*%
%TD*%
%TA.AperFunction,SMDPad,CuDef*%
%ADD11R,1.000000X1.500000*%
%TD*%
%TA.AperFunction,SMDPad,CuDef*%
%ADD12C,1.000000*%
%TD*%
%TA.AperFunction,ViaPad*%
%ADD13C,0.550000*%
%TD*%
%TA.AperFunction,Conductor*%
%ADD14C,0.150000*%
%TD*%
%TA.AperFunction,Conductor*%
%ADD15C,0.300000*%
%TD*%
G04 APERTURE END LIST*
D10*
%TA.AperFunction,EtchedComponent*%
%TO.C,JP1*%
G36*
X122113700Y-96695476D02*
G01*
X121613700Y-96695476D01*
X121613700Y-96095476D01*
X122113700Y-96095476D01*
X122113700Y-96695476D01*
G37*
%TD.AperFunction*%
%TD*%
D11*
%TO.P,JP1,1,A_1*%
%TO.N,/BAT_P*%
X122513700Y-96395476D03*
%TO.P,JP1,2,B_2*%
%TO.N,/VBAT*%
X121213700Y-96395476D03*
%TD*%
D12*
%TO.P,J2,1,Pin_1_1*%
%TO.N,/VDD*%
X137713622Y-77953399D03*
%TO.P,J2,2,Pin_2_2*%
%TO.N,/SWDIO*%
X139509673Y-79749450D03*
%TO.P,J2,3,Pin_3_3*%
%TO.N,/SWDCLK*%
X141305725Y-81545502D03*
%TO.P,J2,4,Pin_4_4*%
%TO.N,/GND*%
X143101776Y-83341553D03*
%TD*%
D13*
%TO.N,/BAT_N*%
X123642300Y-100454476D03*
X123664100Y-97619176D03*
%TO.N,/PCM_BAT*%
X116563700Y-95395476D03*
X117504200Y-98774976D03*
%TO.N,/GND*%
X128500000Y-80000000D03*
X126250000Y-85750000D03*
X140963850Y-76556895D03*
X138063700Y-80895476D03*
X120477931Y-94895475D03*
X126000000Y-97250000D03*
X121176200Y-98535476D03*
X136129009Y-82495101D03*
X126000000Y-90500000D03*
X119500000Y-87500000D03*
X126000000Y-95750000D03*
X131649700Y-75308500D03*
X127000000Y-81750000D03*
X119726200Y-92895476D03*
X120563700Y-90562503D03*
X115500000Y-95250000D03*
X124063700Y-87395476D03*
X135124780Y-76826222D03*
X140563700Y-82895476D03*
X145000000Y-80500000D03*
X133693470Y-82505835D03*
X123000000Y-85500000D03*
X139063700Y-84895476D03*
X114861971Y-92000000D03*
X135000000Y-74500000D03*
X131820303Y-82292924D03*
X118063700Y-96895476D03*
X130763525Y-83904305D03*
X141242631Y-85924019D03*
X138424799Y-79163723D03*
X142231445Y-84970520D03*
%TO.N,/VIN_RAW*%
X123750000Y-84500000D03*
X126250000Y-82500000D03*
%TO.N,/VDD*%
X133639366Y-78639366D03*
X138745884Y-77076538D03*
%TO.N,/CHG_INH*%
X135148600Y-82084376D03*
X121750000Y-88250000D03*
%TO.N,/SWDCLK*%
X137260961Y-88319536D03*
%TO.N,/SWDIO*%
X137932712Y-88849865D03*
%TO.N,/VBAT*%
X118443701Y-94875475D03*
X117312890Y-93750000D03*
X121196800Y-95239676D03*
X131580300Y-83294276D03*
%TO.N,/VBUS_SNS*%
X129750000Y-81750000D03*
X132998820Y-79891949D03*
%TO.N,/VIN*%
X128000000Y-82000000D03*
X123750000Y-94750000D03*
X117040700Y-90500000D03*
X121705724Y-94750000D03*
X123750000Y-86500000D03*
X120301700Y-95717176D03*
X122803700Y-90163976D03*
%TO.N,/PROG*%
X116145700Y-91315676D03*
X116580900Y-93750000D03*
%TO.N,/BAT_P*%
X123660300Y-96166476D03*
%TO.N,/STAT*%
X120213701Y-96445476D03*
X118913701Y-91254000D03*
%TD*%
%TO.N,/BAT_N*%
D14*
X123664100Y-100432676D02*
X123642300Y-100454476D01*
D15*
X123664100Y-97619176D02*
X123664100Y-100432676D01*
%TO.N,/PCM_BAT*%
D14*
X117504200Y-97945974D02*
X116563700Y-97005474D01*
X117504200Y-98774976D02*
X117504200Y-97945974D01*
X116563700Y-97005474D02*
X116563700Y-95395476D01*
%TO.N,/VIN_RAW*%
X125750000Y-82500000D02*
X126250000Y-82500000D01*
X123750000Y-84500000D02*
X125750000Y-82500000D01*
%TO.N,/VDD*%
X137433100Y-78233876D02*
X138590400Y-77076576D01*
X138590400Y-77076576D02*
X138745900Y-77076576D01*
X133639366Y-78639366D02*
X134044857Y-78233876D01*
X134044857Y-78233876D02*
X137433100Y-78233876D01*
%TO.N,/CHG_INH*%
X121750000Y-88250000D02*
X122430476Y-88930476D01*
X131387601Y-81616075D02*
X134680299Y-81616075D01*
X124073200Y-88930476D02*
X131387601Y-81616075D01*
X134680299Y-81616075D02*
X135148600Y-82084376D01*
X122430476Y-88930476D02*
X124073200Y-88930476D01*
%TO.N,/SWDCLK*%
X141305700Y-81545476D02*
X141305700Y-84274876D01*
X141305700Y-84274876D02*
X137261000Y-88319576D01*
%TO.N,/SWDIO*%
X142089400Y-81314876D02*
X142089400Y-83986676D01*
X139509700Y-79749476D02*
X140524000Y-79749476D01*
X142089400Y-83986676D02*
X137932700Y-88143376D01*
X137932700Y-88143376D02*
X137932700Y-88849876D01*
X140524000Y-79749476D02*
X142089400Y-81314876D01*
%TO.N,/VBAT*%
X131580300Y-83294276D02*
X131580300Y-84669044D01*
X121196800Y-95424876D02*
X121213700Y-95441776D01*
X118443701Y-94875475D02*
X118438365Y-94875475D01*
X118438365Y-94875475D02*
X117312890Y-93750000D01*
X131580300Y-84669044D02*
X131563700Y-84685644D01*
X121196800Y-95239676D02*
X121196800Y-95424876D01*
X131563700Y-84685644D02*
X129814356Y-84685644D01*
X129814356Y-84685644D02*
X121196800Y-93303200D01*
X121196800Y-93303200D02*
X121196800Y-95239676D01*
X121213700Y-96395476D02*
X121213700Y-95441776D01*
%TO.N,/VBUS_SNS*%
X131664288Y-81226481D02*
X130273519Y-81226481D01*
X132998820Y-79967342D02*
X132998637Y-79967525D01*
X132998820Y-79891949D02*
X131664288Y-81226481D01*
X132998820Y-79891949D02*
X132998820Y-79967342D01*
X130273519Y-81226481D02*
X129750000Y-81750000D01*
X132998820Y-79891949D02*
X132998820Y-79966187D01*
%TO.N,/VIN*%
X119935300Y-93383076D02*
X122803600Y-90514776D01*
X121705724Y-94750000D02*
X123750000Y-94750000D01*
X122803600Y-90163976D02*
X122803700Y-90163976D01*
X123750000Y-86250000D02*
X128000000Y-82000000D01*
X119536900Y-93383076D02*
X119935300Y-93383076D01*
X123750000Y-86500000D02*
X123750000Y-86250000D01*
X122803600Y-90514776D02*
X122803600Y-90163976D01*
X119735100Y-95150576D02*
X119735100Y-93383076D01*
X120301700Y-95717176D02*
X119735100Y-95150576D01*
X117268500Y-90727800D02*
X117268500Y-91114676D01*
X117268500Y-91114676D02*
X119536900Y-93383076D01*
X117040700Y-90500000D02*
X117268500Y-90727800D01*
%TO.N,/PROG*%
X116580900Y-91750876D02*
X116145700Y-91315676D01*
X116580900Y-93600764D02*
X116580900Y-91750876D01*
%TO.N,/BAT_P*%
D15*
X123431300Y-96395476D02*
X123660300Y-96166476D01*
X122513700Y-96395476D02*
X123431300Y-96395476D01*
%TO.N,/STAT*%
D14*
X116579059Y-89895477D02*
X116563700Y-89910836D01*
X117563701Y-89895477D02*
X116579059Y-89895477D01*
X118913701Y-91245477D02*
X117563701Y-89895477D01*
X118913701Y-91254000D02*
X118913701Y-91245477D01*
X119413701Y-93795476D02*
X119413701Y-95645476D01*
X116563700Y-89910836D02*
X116563700Y-90945475D01*
X119413701Y-95645476D02*
X120213701Y-96445476D01*
X116563700Y-90945475D02*
X119413701Y-93795476D01*
%TD*%
%TA.AperFunction,Conductor*%
%TO.N,/GND*%
G36*
X120876044Y-92999399D02*
G01*
X120919309Y-93042664D01*
X120928880Y-93103096D01*
X120916836Y-93137107D01*
X120893484Y-93177555D01*
X120893481Y-93177561D01*
X120881749Y-93221346D01*
X120871300Y-93260343D01*
X120871300Y-94780998D01*
X120852393Y-94839189D01*
X120842304Y-94851001D01*
X120776297Y-94917008D01*
X120776295Y-94917010D01*
X120776295Y-94917011D01*
X120707112Y-95036840D01*
X120673394Y-95162680D01*
X120669621Y-95176761D01*
X120667103Y-95176086D01*
X120645521Y-95221294D01*
X120591741Y-95250471D01*
X120531082Y-95242465D01*
X120524233Y-95238860D01*
X120504537Y-95227488D01*
X120440161Y-95210239D01*
X120370883Y-95191676D01*
X120370881Y-95191676D01*
X120277535Y-95191676D01*
X120219344Y-95172769D01*
X120207531Y-95162680D01*
X120089596Y-95044745D01*
X120061819Y-94990228D01*
X120060600Y-94974741D01*
X120060600Y-93743747D01*
X120079507Y-93685556D01*
X120110101Y-93658010D01*
X120135162Y-93643541D01*
X120761098Y-93017604D01*
X120815612Y-92989828D01*
X120876044Y-92999399D01*
G37*
%TD.AperFunction*%
%TA.AperFunction,Conductor*%
G36*
X132929737Y-73717326D02*
G01*
X132934578Y-73717563D01*
X133796145Y-73781116D01*
X133800963Y-73781592D01*
X134658368Y-73887342D01*
X134663114Y-73888046D01*
X135514308Y-74035743D01*
X135519057Y-74036688D01*
X136152195Y-74178865D01*
X136361931Y-74225963D01*
X136366641Y-74227142D01*
X137191106Y-74455301D01*
X137242144Y-74489043D01*
X137263603Y-74546342D01*
X137263700Y-74550714D01*
X137263700Y-74881767D01*
X137263700Y-74881768D01*
X137523526Y-74621940D01*
X137578041Y-74594164D01*
X137624581Y-74597941D01*
X138024171Y-74729949D01*
X138028684Y-74731563D01*
X138834703Y-75042479D01*
X138839163Y-75044326D01*
X139261581Y-75231571D01*
X139628956Y-75394417D01*
X139633349Y-75396495D01*
X139726905Y-75443587D01*
X140331734Y-75748033D01*
X140404959Y-75784891D01*
X140409238Y-75787178D01*
X141101052Y-76179086D01*
X141160896Y-76212987D01*
X141165059Y-76215482D01*
X141894921Y-76677660D01*
X141898940Y-76680346D01*
X142605257Y-77177791D01*
X142609139Y-77180670D01*
X143159852Y-77610451D01*
X143290176Y-77712157D01*
X143293931Y-77715238D01*
X143948064Y-78279497D01*
X143951641Y-78282740D01*
X144577312Y-78878428D01*
X144580740Y-78881856D01*
X145158800Y-79489011D01*
X145176414Y-79507511D01*
X145179669Y-79511103D01*
X145567866Y-79961130D01*
X145743952Y-80165263D01*
X145747034Y-80169019D01*
X145940910Y-80417449D01*
X146258063Y-80823844D01*
X146278504Y-80850036D01*
X146281396Y-80853935D01*
X146360332Y-80966016D01*
X146500597Y-81165176D01*
X146518645Y-81223639D01*
X146498883Y-81281545D01*
X146493600Y-81288009D01*
X145995640Y-81847362D01*
X145991687Y-81851550D01*
X138747684Y-89092957D01*
X138746329Y-89094286D01*
X138588158Y-89246451D01*
X138543674Y-89271115D01*
X138481109Y-89286854D01*
X138420064Y-89282714D01*
X138373111Y-89243483D01*
X138358184Y-89184147D01*
X138371220Y-89141347D01*
X138422400Y-89052701D01*
X138458212Y-88919048D01*
X138458212Y-88780682D01*
X138422400Y-88647029D01*
X138353217Y-88527200D01*
X138353214Y-88527197D01*
X138287196Y-88461178D01*
X138259419Y-88406661D01*
X138258200Y-88391175D01*
X138258200Y-88319209D01*
X138277107Y-88261018D01*
X138287190Y-88249211D01*
X142289259Y-84247142D01*
X142289262Y-84247141D01*
X142349865Y-84186538D01*
X142392718Y-84112314D01*
X142414901Y-84029528D01*
X142414901Y-83954345D01*
X142433808Y-83896154D01*
X142483308Y-83860190D01*
X142544494Y-83860190D01*
X142583905Y-83884341D01*
X142623682Y-83924118D01*
X142746518Y-84006194D01*
X142883011Y-84062731D01*
X142883010Y-84062731D01*
X142951776Y-84076408D01*
X142951776Y-83491554D01*
X143251776Y-83491554D01*
X143251776Y-84076407D01*
X143320541Y-84062731D01*
X143457033Y-84006194D01*
X143579869Y-83924118D01*
X143684341Y-83819646D01*
X143766417Y-83696810D01*
X143822953Y-83560320D01*
X143836633Y-83491553D01*
X143251777Y-83491553D01*
X143251776Y-83491554D01*
X142951776Y-83491554D01*
X142951776Y-83191552D01*
X143251776Y-83191552D01*
X143251777Y-83191553D01*
X143836633Y-83191553D01*
X143822953Y-83122785D01*
X143766417Y-82986295D01*
X143684341Y-82863459D01*
X143579869Y-82758987D01*
X143457033Y-82676911D01*
X143320543Y-82620375D01*
X143251776Y-82606696D01*
X143251776Y-83191552D01*
X142951776Y-83191552D01*
X142951776Y-82606696D01*
X142883008Y-82620375D01*
X142746518Y-82676911D01*
X142623682Y-82758987D01*
X142583904Y-82798766D01*
X142529387Y-82826543D01*
X142468955Y-82816972D01*
X142425690Y-82773707D01*
X142414900Y-82728762D01*
X142414900Y-81272024D01*
X142414899Y-81272020D01*
X142412093Y-81261549D01*
X142406898Y-81242158D01*
X142392718Y-81189237D01*
X142392715Y-81189231D01*
X142349868Y-81115018D01*
X142349866Y-81115016D01*
X142349865Y-81115014D01*
X140723862Y-79489011D01*
X140723859Y-79489009D01*
X140723857Y-79489007D01*
X140649642Y-79446159D01*
X140649644Y-79446159D01*
X140617521Y-79437552D01*
X140566853Y-79423976D01*
X140566851Y-79423976D01*
X140247733Y-79423976D01*
X140189542Y-79405069D01*
X140165418Y-79379978D01*
X140154997Y-79364382D01*
X140092624Y-79271034D01*
X139988089Y-79166499D01*
X139865168Y-79084366D01*
X139857479Y-79081181D01*
X139728587Y-79027792D01*
X139583591Y-78998950D01*
X139435755Y-78998950D01*
X139435754Y-78998950D01*
X139290758Y-79027792D01*
X139154179Y-79084365D01*
X139031258Y-79166498D01*
X138926721Y-79271035D01*
X138844588Y-79393956D01*
X138788015Y-79530535D01*
X138759173Y-79675531D01*
X138759173Y-79823368D01*
X138788015Y-79968364D01*
X138844186Y-80103972D01*
X138844589Y-80104945D01*
X138926722Y-80227866D01*
X139031257Y-80332401D01*
X139154178Y-80414534D01*
X139290760Y-80471108D01*
X139435755Y-80499950D01*
X139435756Y-80499950D01*
X139583590Y-80499950D01*
X139583591Y-80499950D01*
X139728586Y-80471108D01*
X139865168Y-80414534D01*
X139988089Y-80332401D01*
X140092624Y-80227866D01*
X140165383Y-80118973D01*
X140213433Y-80081095D01*
X140247698Y-80074976D01*
X140348165Y-80074976D01*
X140406356Y-80093883D01*
X140418169Y-80103972D01*
X141018268Y-80704071D01*
X141046045Y-80758588D01*
X141036474Y-80819020D01*
X140993209Y-80862285D01*
X140986150Y-80865539D01*
X140950229Y-80880418D01*
X140827310Y-80962550D01*
X140722773Y-81067087D01*
X140640640Y-81190008D01*
X140584067Y-81326587D01*
X140555225Y-81471583D01*
X140555225Y-81619420D01*
X140584067Y-81764416D01*
X140638213Y-81895136D01*
X140640641Y-81900997D01*
X140722774Y-82023918D01*
X140827309Y-82128453D01*
X140936202Y-82201213D01*
X140974081Y-82249261D01*
X140980200Y-82283527D01*
X140980200Y-84099041D01*
X140961293Y-84157232D01*
X140951204Y-84169045D01*
X137355209Y-87765040D01*
X137300692Y-87792817D01*
X137285205Y-87794036D01*
X137191778Y-87794036D01*
X137058125Y-87829848D01*
X136938296Y-87899031D01*
X136840456Y-87996871D01*
X136772796Y-88114063D01*
X136771272Y-88116702D01*
X136762533Y-88149315D01*
X136729208Y-88200629D01*
X136672086Y-88222554D01*
X136612986Y-88206717D01*
X136585966Y-88180695D01*
X136526537Y-88096312D01*
X136523246Y-88091875D01*
X136516300Y-88082509D01*
X136395201Y-87927335D01*
X136359290Y-87881319D01*
X136359286Y-87881314D01*
X136359275Y-87881300D01*
X136348377Y-87868021D01*
X136181668Y-87674759D01*
X136181666Y-87674757D01*
X136181655Y-87674744D01*
X136170139Y-87662038D01*
X135994158Y-87477200D01*
X135994141Y-87477182D01*
X135981994Y-87465035D01*
X135797145Y-87289044D01*
X135797137Y-87289036D01*
X135784431Y-87277520D01*
X135760818Y-87257151D01*
X135591155Y-87110799D01*
X135577876Y-87099901D01*
X135577865Y-87099892D01*
X135577856Y-87099885D01*
X135376680Y-86942886D01*
X135362863Y-86932638D01*
X135154191Y-86785675D01*
X135139935Y-86776150D01*
X135139934Y-86776149D01*
X135139914Y-86776136D01*
X134924283Y-86639589D01*
X134924274Y-86639583D01*
X134924262Y-86639576D01*
X134909561Y-86630764D01*
X134687465Y-86504948D01*
X134672326Y-86496857D01*
X134444336Y-86382096D01*
X134428842Y-86374768D01*
X134195469Y-86271321D01*
X134179608Y-86264751D01*
X133941527Y-86172913D01*
X133933402Y-86170006D01*
X133925315Y-86167112D01*
X133925306Y-86167109D01*
X133925278Y-86167099D01*
X133682996Y-86087061D01*
X133682986Y-86087058D01*
X133682968Y-86087052D01*
X133674571Y-86084504D01*
X133666524Y-86082063D01*
X133420550Y-86013993D01*
X133420508Y-86013982D01*
X133403882Y-86009818D01*
X133403852Y-86009811D01*
X133403847Y-86009810D01*
X133154869Y-85953899D01*
X133137996Y-85950544D01*
X132886538Y-85906910D01*
X132869536Y-85904389D01*
X132616239Y-85873148D01*
X132599156Y-85871466D01*
X132599157Y-85871466D01*
X132599136Y-85871464D01*
X132411892Y-85857651D01*
X132344588Y-85852687D01*
X132334127Y-85852174D01*
X132327441Y-85851846D01*
X132209678Y-85848954D01*
X132072296Y-85845582D01*
X132072289Y-85845582D01*
X132055111Y-85845582D01*
X132055104Y-85845582D01*
X131906272Y-85849236D01*
X131799959Y-85851846D01*
X131794386Y-85852119D01*
X131782811Y-85852687D01*
X131689179Y-85859594D01*
X131528264Y-85871464D01*
X131528245Y-85871465D01*
X131528243Y-85871466D01*
X131511160Y-85873148D01*
X131257863Y-85904389D01*
X131240861Y-85906910D01*
X130989403Y-85950544D01*
X130972530Y-85953899D01*
X130723552Y-86009810D01*
X130723537Y-86009813D01*
X130723518Y-86009818D01*
X130712333Y-86012619D01*
X130706849Y-86013993D01*
X130460875Y-86082063D01*
X130447774Y-86086037D01*
X130444432Y-86087052D01*
X130444424Y-86087054D01*
X130444403Y-86087061D01*
X130202121Y-86167099D01*
X130185872Y-86172913D01*
X129947791Y-86264751D01*
X129931930Y-86271321D01*
X129698557Y-86374768D01*
X129683063Y-86382096D01*
X129455073Y-86496857D01*
X129439934Y-86504948D01*
X129217838Y-86630764D01*
X129203137Y-86639576D01*
X128987464Y-86776150D01*
X128973208Y-86785675D01*
X128764536Y-86932638D01*
X128750719Y-86942886D01*
X128549543Y-87099885D01*
X128536240Y-87110803D01*
X128342968Y-87277520D01*
X128330262Y-87289036D01*
X128145424Y-87465017D01*
X128133241Y-87477200D01*
X127957260Y-87662038D01*
X127945744Y-87674744D01*
X127779027Y-87868016D01*
X127768109Y-87881319D01*
X127611110Y-88082495D01*
X127600862Y-88096312D01*
X127453899Y-88304984D01*
X127444374Y-88319240D01*
X127307800Y-88534913D01*
X127298988Y-88549614D01*
X127173172Y-88771710D01*
X127165081Y-88786849D01*
X127050320Y-89014839D01*
X127042992Y-89030333D01*
X126939545Y-89263706D01*
X126932975Y-89279567D01*
X126841137Y-89517648D01*
X126835323Y-89533897D01*
X126755285Y-89776179D01*
X126750287Y-89792651D01*
X126703660Y-89961140D01*
X126682216Y-90038630D01*
X126678042Y-90055294D01*
X126678037Y-90055313D01*
X126678034Y-90055328D01*
X126622123Y-90304306D01*
X126618768Y-90321179D01*
X126575134Y-90572637D01*
X126572613Y-90589639D01*
X126541372Y-90842936D01*
X126539690Y-90860019D01*
X126520911Y-91114587D01*
X126520343Y-91126162D01*
X126520070Y-91131735D01*
X126518854Y-91181257D01*
X126513805Y-91386910D01*
X126513700Y-91395438D01*
X126513700Y-99101583D01*
X126495641Y-99158588D01*
X126372988Y-99332742D01*
X126363463Y-99346998D01*
X126192753Y-99616578D01*
X126183941Y-99631279D01*
X126026675Y-99908893D01*
X126018584Y-99924032D01*
X125875134Y-100209016D01*
X125867806Y-100224510D01*
X125738507Y-100516206D01*
X125731927Y-100532091D01*
X125617130Y-100829690D01*
X125611316Y-100845939D01*
X125511264Y-101148801D01*
X125506260Y-101165297D01*
X125452595Y-101359220D01*
X125421176Y-101472755D01*
X125417002Y-101489419D01*
X125416997Y-101489438D01*
X125416994Y-101489453D01*
X125347102Y-101800688D01*
X125343745Y-101817567D01*
X125289209Y-102131868D01*
X125286686Y-102148870D01*
X125272380Y-102264863D01*
X125247632Y-102465520D01*
X125245948Y-102482616D01*
X125235999Y-102617494D01*
X125222478Y-102800789D01*
X125221634Y-102817961D01*
X125213805Y-103136909D01*
X125213700Y-103145438D01*
X125213700Y-107561410D01*
X125194793Y-107619601D01*
X125145293Y-107655565D01*
X125084107Y-107655565D01*
X125074581Y-107651917D01*
X124498442Y-107396533D01*
X124494049Y-107394455D01*
X123722431Y-107006055D01*
X123718146Y-107003765D01*
X122966502Y-106577963D01*
X122962334Y-106575465D01*
X122232488Y-106113297D01*
X122228448Y-106110597D01*
X121522159Y-105613172D01*
X121518260Y-105610280D01*
X121346999Y-105476626D01*
X121312757Y-105425920D01*
X121314859Y-105364771D01*
X121352502Y-105316535D01*
X121370018Y-105307117D01*
X121701700Y-105169731D01*
X122157335Y-104820110D01*
X122506956Y-104364476D01*
X122726737Y-103833877D01*
X122801700Y-103264476D01*
X122726737Y-102695074D01*
X122506956Y-102164476D01*
X122157335Y-101708841D01*
X122157330Y-101708837D01*
X122157329Y-101708836D01*
X121923488Y-101529404D01*
X121701700Y-101359220D01*
X121171102Y-101139439D01*
X121171100Y-101139438D01*
X121171098Y-101139438D01*
X120601701Y-101064476D01*
X120601699Y-101064476D01*
X120032302Y-101139438D01*
X120032296Y-101139440D01*
X119501699Y-101359219D01*
X119501698Y-101359220D01*
X119046071Y-101708836D01*
X119046061Y-101708846D01*
X118696444Y-102164477D01*
X118528070Y-102570969D01*
X118488333Y-102617494D01*
X118428839Y-102631778D01*
X118372311Y-102608363D01*
X118358560Y-102593991D01*
X117848894Y-101940915D01*
X117846007Y-101937022D01*
X117761877Y-101817567D01*
X117348570Y-101230716D01*
X117345877Y-101226686D01*
X117296579Y-101148836D01*
X116883706Y-100496835D01*
X116881211Y-100492672D01*
X116820382Y-100385294D01*
X116455402Y-99741014D01*
X116453115Y-99736735D01*
X116064719Y-98965125D01*
X116062641Y-98960732D01*
X115890390Y-98572140D01*
X115712550Y-98170939D01*
X115710697Y-98166464D01*
X115399787Y-97360460D01*
X115398169Y-97355934D01*
X115178826Y-96691976D01*
X115127182Y-96535647D01*
X115125771Y-96530997D01*
X114936024Y-95845338D01*
X114895366Y-95698417D01*
X114894196Y-95693749D01*
X114811681Y-95326293D01*
X116038200Y-95326293D01*
X116038200Y-95464659D01*
X116074012Y-95598312D01*
X116143195Y-95718141D01*
X116209205Y-95784151D01*
X116236981Y-95838666D01*
X116238200Y-95854153D01*
X116238200Y-96962621D01*
X116238200Y-97048327D01*
X116244487Y-97071790D01*
X116260383Y-97131117D01*
X116303231Y-97205331D01*
X116303233Y-97205333D01*
X116303235Y-97205336D01*
X117149705Y-98051806D01*
X117177481Y-98106321D01*
X117178700Y-98121808D01*
X117178700Y-98316298D01*
X117159793Y-98374489D01*
X117149704Y-98386301D01*
X117083697Y-98452308D01*
X117083695Y-98452310D01*
X117083695Y-98452311D01*
X117014512Y-98572140D01*
X116978700Y-98705793D01*
X116978700Y-98844159D01*
X117014512Y-98977812D01*
X117083695Y-99097641D01*
X117181535Y-99195481D01*
X117301364Y-99264664D01*
X117435017Y-99300476D01*
X117435019Y-99300476D01*
X117573381Y-99300476D01*
X117573383Y-99300476D01*
X117707036Y-99264664D01*
X117826865Y-99195481D01*
X117924705Y-99097641D01*
X117993888Y-98977812D01*
X118029700Y-98844159D01*
X118029700Y-98705793D01*
X117993888Y-98572140D01*
X117924705Y-98452311D01*
X117901231Y-98428837D01*
X117858696Y-98386301D01*
X117830919Y-98331784D01*
X117829700Y-98316298D01*
X117829700Y-97903122D01*
X117807967Y-97822012D01*
X117807518Y-97820335D01*
X117807516Y-97820332D01*
X117807516Y-97820330D01*
X117764668Y-97746116D01*
X117764667Y-97746115D01*
X117764666Y-97746114D01*
X117764665Y-97746112D01*
X116918196Y-96899643D01*
X116890419Y-96845126D01*
X116889200Y-96829639D01*
X116889200Y-95854153D01*
X116908107Y-95795962D01*
X116918190Y-95784155D01*
X116984205Y-95718141D01*
X117053388Y-95598312D01*
X117089200Y-95464659D01*
X117089200Y-95326293D01*
X117053388Y-95192640D01*
X116984205Y-95072811D01*
X116886365Y-94974971D01*
X116766536Y-94905788D01*
X116632883Y-94869976D01*
X116494517Y-94869976D01*
X116360864Y-94905788D01*
X116241035Y-94974971D01*
X116143195Y-95072811D01*
X116074012Y-95192640D01*
X116038200Y-95326293D01*
X114811681Y-95326293D01*
X114704912Y-94850833D01*
X114703966Y-94846075D01*
X114699300Y-94819183D01*
X114556270Y-93994890D01*
X114555566Y-93990144D01*
X114449816Y-93132739D01*
X114449340Y-93127912D01*
X114447527Y-93103338D01*
X114385787Y-92266354D01*
X114385550Y-92261507D01*
X114378824Y-91987510D01*
X114364349Y-91397879D01*
X114364349Y-91393072D01*
X114367947Y-91246493D01*
X115620200Y-91246493D01*
X115620200Y-91384859D01*
X115656012Y-91518512D01*
X115725195Y-91638341D01*
X115823035Y-91736181D01*
X115942864Y-91805364D01*
X116076517Y-91841176D01*
X116156400Y-91841176D01*
X116214591Y-91860083D01*
X116250555Y-91909583D01*
X116255400Y-91940176D01*
X116255400Y-93291322D01*
X116236493Y-93349513D01*
X116226404Y-93361325D01*
X116160397Y-93427332D01*
X116160395Y-93427334D01*
X116160395Y-93427335D01*
X116091212Y-93547164D01*
X116055400Y-93680817D01*
X116055400Y-93819183D01*
X116091212Y-93952836D01*
X116160395Y-94072665D01*
X116258235Y-94170505D01*
X116378064Y-94239688D01*
X116511717Y-94275500D01*
X116511719Y-94275500D01*
X116650081Y-94275500D01*
X116650083Y-94275500D01*
X116783736Y-94239688D01*
X116897395Y-94174066D01*
X116957243Y-94161345D01*
X116996394Y-94174066D01*
X117110054Y-94239688D01*
X117243707Y-94275500D01*
X117337055Y-94275500D01*
X117395246Y-94294407D01*
X117407059Y-94304496D01*
X117889205Y-94786642D01*
X117916982Y-94841159D01*
X117918201Y-94856646D01*
X117918201Y-94944658D01*
X117954013Y-95078311D01*
X118023196Y-95198140D01*
X118121036Y-95295980D01*
X118240865Y-95365163D01*
X118374518Y-95400975D01*
X118374520Y-95400975D01*
X118512882Y-95400975D01*
X118512884Y-95400975D01*
X118646537Y-95365163D01*
X118766366Y-95295980D01*
X118864206Y-95198140D01*
X118903466Y-95130138D01*
X118948934Y-95089200D01*
X119009784Y-95082804D01*
X119062772Y-95113397D01*
X119087659Y-95169292D01*
X119088201Y-95179641D01*
X119088201Y-95602623D01*
X119088201Y-95688329D01*
X119096189Y-95718140D01*
X119110384Y-95771119D01*
X119153232Y-95845333D01*
X119153234Y-95845335D01*
X119153236Y-95845338D01*
X119659206Y-96351308D01*
X119686982Y-96405823D01*
X119688201Y-96421310D01*
X119688201Y-96514659D01*
X119724013Y-96648312D01*
X119793196Y-96768141D01*
X119891036Y-96865981D01*
X120010865Y-96935164D01*
X120144518Y-96970976D01*
X120144520Y-96970976D01*
X120282883Y-96970976D01*
X120282884Y-96970976D01*
X120338577Y-96956053D01*
X120399678Y-96959254D01*
X120447228Y-96997759D01*
X120463200Y-97051679D01*
X120463200Y-97170148D01*
X120463201Y-97170160D01*
X120477733Y-97243212D01*
X120477735Y-97243218D01*
X120533097Y-97326075D01*
X120533099Y-97326077D01*
X120615960Y-97381442D01*
X120671508Y-97392491D01*
X120689015Y-97395974D01*
X120689020Y-97395974D01*
X120689026Y-97395976D01*
X120689027Y-97395976D01*
X121738373Y-97395976D01*
X121738374Y-97395976D01*
X121811440Y-97381442D01*
X121811446Y-97381437D01*
X121820452Y-97377709D01*
X121821286Y-97379724D01*
X121867580Y-97366665D01*
X121906310Y-97379249D01*
X121906948Y-97377709D01*
X121915955Y-97381438D01*
X121915960Y-97381442D01*
X121971508Y-97392491D01*
X121989015Y-97395974D01*
X121989020Y-97395974D01*
X121989026Y-97395976D01*
X121989027Y-97395976D01*
X123038375Y-97395976D01*
X123041350Y-97395683D01*
X123042685Y-97395976D01*
X123043238Y-97395976D01*
X123043238Y-97396097D01*
X123101114Y-97408795D01*
X123141757Y-97454531D01*
X123147755Y-97515421D01*
X123146682Y-97519827D01*
X123138600Y-97549990D01*
X123138600Y-97549993D01*
X123138600Y-97688359D01*
X123174412Y-97822012D01*
X123243595Y-97941841D01*
X123243597Y-97941843D01*
X123246840Y-97947460D01*
X123245595Y-97948178D01*
X123263566Y-97998922D01*
X123263600Y-98001517D01*
X123263600Y-100048998D01*
X123244693Y-100107189D01*
X123234606Y-100119000D01*
X123221795Y-100131811D01*
X123152612Y-100251640D01*
X123116800Y-100385293D01*
X123116800Y-100523659D01*
X123152612Y-100657312D01*
X123221795Y-100777141D01*
X123319635Y-100874981D01*
X123439464Y-100944164D01*
X123573117Y-100979976D01*
X123573119Y-100979976D01*
X123711481Y-100979976D01*
X123711483Y-100979976D01*
X123845136Y-100944164D01*
X123964965Y-100874981D01*
X124062805Y-100777141D01*
X124131988Y-100657312D01*
X124167800Y-100523659D01*
X124167800Y-100385293D01*
X124131988Y-100251640D01*
X124116325Y-100224510D01*
X124077863Y-100157891D01*
X124064600Y-100108392D01*
X124064600Y-98001517D01*
X124082036Y-97947850D01*
X124081360Y-97947460D01*
X124083198Y-97944275D01*
X124083507Y-97943326D01*
X124084564Y-97941909D01*
X124084600Y-97941845D01*
X124084605Y-97941841D01*
X124153788Y-97822012D01*
X124189600Y-97688359D01*
X124189600Y-97549993D01*
X124153788Y-97416340D01*
X124084605Y-97296511D01*
X123986765Y-97198671D01*
X123866936Y-97129488D01*
X123733283Y-97093676D01*
X123594917Y-97093676D01*
X123461264Y-97129488D01*
X123412698Y-97157527D01*
X123352851Y-97170248D01*
X123296956Y-97145361D01*
X123266363Y-97092373D01*
X123264200Y-97071790D01*
X123264200Y-96894976D01*
X123283107Y-96836785D01*
X123332607Y-96800821D01*
X123363200Y-96795976D01*
X123484025Y-96795976D01*
X123484027Y-96795976D01*
X123585888Y-96768683D01*
X123585890Y-96768681D01*
X123585892Y-96768681D01*
X123677208Y-96715959D01*
X123677208Y-96715958D01*
X123677213Y-96715956D01*
X123677216Y-96715952D01*
X123682359Y-96712007D01*
X123684203Y-96714410D01*
X123723410Y-96694385D01*
X123723215Y-96693655D01*
X123726634Y-96692738D01*
X123727562Y-96692265D01*
X123729397Y-96691998D01*
X123729479Y-96691976D01*
X123729483Y-96691976D01*
X123863136Y-96656164D01*
X123982965Y-96586981D01*
X124080805Y-96489141D01*
X124149988Y-96369312D01*
X124185800Y-96235659D01*
X124185800Y-96097293D01*
X124149988Y-95963640D01*
X124080805Y-95843811D01*
X123982965Y-95745971D01*
X123863136Y-95676788D01*
X123729483Y-95640976D01*
X123591117Y-95640976D01*
X123457464Y-95676788D01*
X123412698Y-95702633D01*
X123352851Y-95715354D01*
X123296956Y-95690467D01*
X123266363Y-95637479D01*
X123265114Y-95625594D01*
X123264676Y-95625638D01*
X123264200Y-95620811D01*
X123264200Y-95620802D01*
X123249666Y-95547736D01*
X123194301Y-95464875D01*
X123194299Y-95464873D01*
X123111442Y-95409511D01*
X123111440Y-95409510D01*
X123111437Y-95409509D01*
X123111436Y-95409509D01*
X123038384Y-95394977D01*
X123038374Y-95394976D01*
X122009066Y-95394976D01*
X121950875Y-95376069D01*
X121914911Y-95326569D01*
X121914911Y-95265383D01*
X121950875Y-95215883D01*
X121959554Y-95210246D01*
X122028389Y-95170505D01*
X122068753Y-95130141D01*
X122094399Y-95104496D01*
X122148916Y-95076719D01*
X122164402Y-95075500D01*
X123291322Y-95075500D01*
X123349513Y-95094407D01*
X123361325Y-95104496D01*
X123419510Y-95162680D01*
X123427335Y-95170505D01*
X123547164Y-95239688D01*
X123680817Y-95275500D01*
X123680819Y-95275500D01*
X123819181Y-95275500D01*
X123819183Y-95275500D01*
X123952836Y-95239688D01*
X124072665Y-95170505D01*
X124170505Y-95072665D01*
X124239688Y-94952836D01*
X124275500Y-94819183D01*
X124275500Y-94680817D01*
X124239688Y-94547164D01*
X124170505Y-94427335D01*
X124072665Y-94329495D01*
X123952836Y-94260312D01*
X123819183Y-94224500D01*
X123680817Y-94224500D01*
X123547164Y-94260312D01*
X123442086Y-94320979D01*
X123427332Y-94329497D01*
X123361325Y-94395504D01*
X123306808Y-94423281D01*
X123291322Y-94424500D01*
X122164402Y-94424500D01*
X122106211Y-94405593D01*
X122094399Y-94395504D01*
X122028391Y-94329497D01*
X122028389Y-94329495D01*
X121908560Y-94260312D01*
X121774907Y-94224500D01*
X121636541Y-94224500D01*
X121636537Y-94224500D01*
X121634220Y-94224805D01*
X121632574Y-94224500D01*
X121630052Y-94224500D01*
X121630052Y-94224032D01*
X121574059Y-94213654D01*
X121531943Y-94169270D01*
X121522300Y-94126652D01*
X121522300Y-93479034D01*
X121541207Y-93420843D01*
X121551296Y-93409030D01*
X129920186Y-85040140D01*
X129974703Y-85012363D01*
X129990190Y-85011144D01*
X131606551Y-85011144D01*
X131606553Y-85011144D01*
X131689339Y-84988962D01*
X131689341Y-84988960D01*
X131689343Y-84988960D01*
X131763557Y-84946112D01*
X131763557Y-84946111D01*
X131763562Y-84946109D01*
X131840765Y-84868906D01*
X131856168Y-84842228D01*
X131883616Y-84794687D01*
X131883616Y-84794685D01*
X131883618Y-84794683D01*
X131905800Y-84711897D01*
X131905800Y-84626191D01*
X131905800Y-83752953D01*
X131924707Y-83694762D01*
X131934790Y-83682955D01*
X132000805Y-83616941D01*
X132069988Y-83497112D01*
X132105800Y-83363459D01*
X132105800Y-83225093D01*
X132069988Y-83091440D01*
X132000805Y-82971611D01*
X131902965Y-82873771D01*
X131783136Y-82804588D01*
X131649483Y-82768776D01*
X131511117Y-82768776D01*
X131377464Y-82804588D01*
X131257635Y-82873771D01*
X131159795Y-82971611D01*
X131090612Y-83091440D01*
X131054800Y-83225093D01*
X131054800Y-83363459D01*
X131090612Y-83497112D01*
X131159795Y-83616941D01*
X131225805Y-83682951D01*
X131253581Y-83737466D01*
X131254800Y-83752953D01*
X131254800Y-84261144D01*
X131235893Y-84319335D01*
X131186393Y-84355299D01*
X131155800Y-84360144D01*
X129863288Y-84360144D01*
X129863272Y-84360143D01*
X129857209Y-84360143D01*
X129771504Y-84360143D01*
X129771501Y-84360143D01*
X129688721Y-84382324D01*
X129688718Y-84382326D01*
X129620749Y-84421568D01*
X129614491Y-84425181D01*
X129553890Y-84485781D01*
X129553891Y-84485782D01*
X129553889Y-84485784D01*
X123239303Y-90800369D01*
X123184786Y-90828146D01*
X123124354Y-90818575D01*
X123081089Y-90775310D01*
X123071518Y-90714878D01*
X123083563Y-90680865D01*
X123097890Y-90656051D01*
X123106918Y-90640415D01*
X123113406Y-90616197D01*
X123139027Y-90571818D01*
X123224205Y-90486641D01*
X123293388Y-90366812D01*
X123329200Y-90233159D01*
X123329200Y-90094793D01*
X123293388Y-89961140D01*
X123224205Y-89841311D01*
X123126365Y-89743471D01*
X123006536Y-89674288D01*
X122872883Y-89638476D01*
X122734517Y-89638476D01*
X122600864Y-89674288D01*
X122481035Y-89743471D01*
X122383195Y-89841311D01*
X122314012Y-89961140D01*
X122278200Y-90094793D01*
X122278200Y-90233159D01*
X122293715Y-90291061D01*
X122314013Y-90366816D01*
X122340897Y-90413379D01*
X122353619Y-90473227D01*
X122328733Y-90529123D01*
X122325165Y-90532883D01*
X119829469Y-93028580D01*
X119774952Y-93056357D01*
X119759465Y-93057576D01*
X119712735Y-93057576D01*
X119654544Y-93038669D01*
X119642731Y-93028580D01*
X117622996Y-91008845D01*
X117595219Y-90954328D01*
X117594000Y-90938841D01*
X117594000Y-90684946D01*
X117588808Y-90665570D01*
X117588798Y-90665535D01*
X117586255Y-90656045D01*
X117580242Y-90633601D01*
X117583445Y-90572500D01*
X117621951Y-90524951D01*
X117681051Y-90509116D01*
X117738173Y-90531043D01*
X117745873Y-90537976D01*
X118359205Y-91151308D01*
X118386982Y-91205825D01*
X118388201Y-91221312D01*
X118388201Y-91323183D01*
X118424013Y-91456836D01*
X118493196Y-91576665D01*
X118591036Y-91674505D01*
X118710865Y-91743688D01*
X118844518Y-91779500D01*
X118844520Y-91779500D01*
X118982882Y-91779500D01*
X118982884Y-91779500D01*
X119116537Y-91743688D01*
X119236366Y-91674505D01*
X119334206Y-91576665D01*
X119403389Y-91456836D01*
X119439201Y-91323183D01*
X119439201Y-91184817D01*
X119403389Y-91051164D01*
X119334206Y-90931335D01*
X119236366Y-90833495D01*
X119116537Y-90764312D01*
X118982884Y-90728500D01*
X118982882Y-90728500D01*
X118898059Y-90728500D01*
X118839868Y-90709593D01*
X118828055Y-90699504D01*
X118361708Y-90233157D01*
X117763563Y-89635012D01*
X117763560Y-89635010D01*
X117763559Y-89635009D01*
X117763558Y-89635008D01*
X117689343Y-89592160D01*
X117689345Y-89592160D01*
X117657222Y-89583553D01*
X117606554Y-89569977D01*
X116621912Y-89569977D01*
X116536206Y-89569977D01*
X116485537Y-89583553D01*
X116453415Y-89592160D01*
X116379201Y-89635008D01*
X116303234Y-89710975D01*
X116260380Y-89785200D01*
X116260380Y-89785201D01*
X116248565Y-89829299D01*
X116238200Y-89867982D01*
X116238200Y-90691176D01*
X116219293Y-90749367D01*
X116169793Y-90785331D01*
X116139200Y-90790176D01*
X116076517Y-90790176D01*
X115942864Y-90825988D01*
X115823035Y-90895171D01*
X115725195Y-90993011D01*
X115656012Y-91112840D01*
X115620200Y-91246493D01*
X114367947Y-91246493D01*
X114385550Y-90529435D01*
X114385788Y-90524590D01*
X114449341Y-89663025D01*
X114449817Y-89658202D01*
X114555567Y-88800800D01*
X114556269Y-88796066D01*
X114572042Y-88705166D01*
X114600618Y-88651067D01*
X114655538Y-88624095D01*
X114715822Y-88634556D01*
X114729844Y-88643547D01*
X115072935Y-88906811D01*
X115603534Y-89126592D01*
X116030584Y-89182814D01*
X116172934Y-89201555D01*
X116172935Y-89201555D01*
X116172936Y-89201555D01*
X116305162Y-89184147D01*
X116742337Y-89126592D01*
X117272935Y-88906811D01*
X117728570Y-88557190D01*
X118017372Y-88180817D01*
X121224500Y-88180817D01*
X121224500Y-88319183D01*
X121260312Y-88452836D01*
X121329495Y-88572665D01*
X121427335Y-88670505D01*
X121547164Y-88739688D01*
X121680817Y-88775500D01*
X121774165Y-88775500D01*
X121832356Y-88794407D01*
X121844169Y-88804496D01*
X122170011Y-89130338D01*
X122170010Y-89130338D01*
X122212202Y-89172529D01*
X122230614Y-89190941D01*
X122304838Y-89233794D01*
X122387623Y-89255976D01*
X122387625Y-89255976D01*
X124116051Y-89255976D01*
X124116053Y-89255976D01*
X124198839Y-89233794D01*
X124198841Y-89233792D01*
X124198843Y-89233792D01*
X124273057Y-89190944D01*
X124273057Y-89190943D01*
X124273062Y-89190941D01*
X131493432Y-81970571D01*
X131547949Y-81942794D01*
X131563436Y-81941575D01*
X134504465Y-81941575D01*
X134562656Y-81960482D01*
X134574467Y-81970570D01*
X134594102Y-81990204D01*
X134621881Y-82044719D01*
X134623100Y-82060209D01*
X134623100Y-82153559D01*
X134658912Y-82287212D01*
X134728095Y-82407041D01*
X134825935Y-82504881D01*
X134945764Y-82574064D01*
X135079417Y-82609876D01*
X135079419Y-82609876D01*
X135217781Y-82609876D01*
X135217783Y-82609876D01*
X135351436Y-82574064D01*
X135471265Y-82504881D01*
X135569105Y-82407041D01*
X135638288Y-82287212D01*
X135674100Y-82153559D01*
X135674100Y-82015193D01*
X135638288Y-81881540D01*
X135569105Y-81761711D01*
X135471265Y-81663871D01*
X135351436Y-81594688D01*
X135217783Y-81558876D01*
X135217781Y-81558876D01*
X135124435Y-81558876D01*
X135066244Y-81539969D01*
X135054432Y-81529880D01*
X134880161Y-81355610D01*
X134880156Y-81355606D01*
X134805941Y-81312758D01*
X134805943Y-81312758D01*
X134773820Y-81304151D01*
X134723152Y-81290575D01*
X134723150Y-81290575D01*
X132299529Y-81290575D01*
X132241338Y-81271668D01*
X132205374Y-81222168D01*
X132205374Y-81160982D01*
X132229525Y-81121571D01*
X132904651Y-80446445D01*
X132959168Y-80418668D01*
X132974655Y-80417449D01*
X133068001Y-80417449D01*
X133068003Y-80417449D01*
X133201656Y-80381637D01*
X133321485Y-80312454D01*
X133419325Y-80214614D01*
X133488508Y-80094785D01*
X133524320Y-79961132D01*
X133524320Y-79822766D01*
X133488508Y-79689113D01*
X133419325Y-79569284D01*
X133321485Y-79471444D01*
X133201656Y-79402261D01*
X133068003Y-79366449D01*
X132929637Y-79366449D01*
X132795984Y-79402261D01*
X132676155Y-79471444D01*
X132578315Y-79569284D01*
X132509132Y-79689113D01*
X132491257Y-79755826D01*
X132473320Y-79822767D01*
X132473320Y-79916114D01*
X132454413Y-79974305D01*
X132444324Y-79986118D01*
X131558457Y-80871985D01*
X131503940Y-80899762D01*
X131488453Y-80900981D01*
X130322451Y-80900981D01*
X130322435Y-80900980D01*
X130316372Y-80900980D01*
X130230666Y-80900980D01*
X130230663Y-80900980D01*
X130147881Y-80923162D01*
X130147877Y-80923164D01*
X130073657Y-80966015D01*
X130013056Y-81026615D01*
X130013052Y-81026621D01*
X129918103Y-81121571D01*
X129844171Y-81195503D01*
X129789654Y-81223281D01*
X129774167Y-81224500D01*
X129680817Y-81224500D01*
X129547164Y-81260312D01*
X129427335Y-81329495D01*
X129329495Y-81427335D01*
X129260312Y-81547164D01*
X129224500Y-81680817D01*
X129224500Y-81819183D01*
X129260312Y-81952836D01*
X129329495Y-82072665D01*
X129427335Y-82170505D01*
X129547164Y-82239688D01*
X129680817Y-82275500D01*
X129680819Y-82275500D01*
X129819181Y-82275500D01*
X129819183Y-82275500D01*
X129952836Y-82239688D01*
X130072665Y-82170505D01*
X130170505Y-82072665D01*
X130239688Y-81952836D01*
X130275500Y-81819183D01*
X130275500Y-81725834D01*
X130294407Y-81667643D01*
X130304496Y-81655830D01*
X130379349Y-81580977D01*
X130433866Y-81553200D01*
X130449353Y-81551981D01*
X130752360Y-81551981D01*
X130810551Y-81570888D01*
X130846515Y-81620388D01*
X130846515Y-81681574D01*
X130822364Y-81720985D01*
X123967369Y-88575980D01*
X123912852Y-88603757D01*
X123897365Y-88604976D01*
X122606311Y-88604976D01*
X122548120Y-88586069D01*
X122536307Y-88575980D01*
X122304496Y-88344169D01*
X122276719Y-88289652D01*
X122275500Y-88274165D01*
X122275500Y-88180818D01*
X122267059Y-88149315D01*
X122239688Y-88047164D01*
X122170505Y-87927335D01*
X122072665Y-87829495D01*
X121952836Y-87760312D01*
X121819183Y-87724500D01*
X121680817Y-87724500D01*
X121547164Y-87760312D01*
X121427335Y-87829495D01*
X121329495Y-87927335D01*
X121260312Y-88047164D01*
X121224500Y-88180817D01*
X118017372Y-88180817D01*
X118078191Y-88101556D01*
X118297972Y-87570957D01*
X118372935Y-87001555D01*
X118297972Y-86432154D01*
X118078191Y-85901556D01*
X117760632Y-85487705D01*
X117728574Y-85445926D01*
X117728573Y-85445925D01*
X117728570Y-85445921D01*
X117728565Y-85445917D01*
X117728564Y-85445916D01*
X117407600Y-85199632D01*
X117272935Y-85096300D01*
X116742337Y-84876519D01*
X116742335Y-84876518D01*
X116742333Y-84876518D01*
X116172936Y-84801555D01*
X116172934Y-84801555D01*
X115779298Y-84853378D01*
X115719137Y-84842228D01*
X115677020Y-84797846D01*
X115669034Y-84737184D01*
X115674010Y-84719595D01*
X115710709Y-84624456D01*
X115712545Y-84620024D01*
X116062641Y-83830212D01*
X116064715Y-83825830D01*
X116337409Y-83284079D01*
X116453203Y-83054036D01*
X116455427Y-83049870D01*
X116598893Y-82796075D01*
X116643986Y-82754724D01*
X116704775Y-82747775D01*
X116757976Y-82777815D01*
X117138035Y-83191478D01*
X117163482Y-83247121D01*
X117160760Y-83284079D01*
X117143193Y-83349642D01*
X117143193Y-83349645D01*
X117143193Y-83507759D01*
X117184116Y-83660486D01*
X117263173Y-83797418D01*
X117374977Y-83909222D01*
X117511909Y-83988279D01*
X117664636Y-84029202D01*
X117664638Y-84029202D01*
X117822747Y-84029202D01*
X117822750Y-84029202D01*
X117832982Y-84026460D01*
X117894082Y-84029662D01*
X117931506Y-84055107D01*
X119041990Y-85263777D01*
X119042025Y-85263821D01*
X119047216Y-85269470D01*
X119047217Y-85269472D01*
X119079420Y-85304517D01*
X119085985Y-85311661D01*
X119093824Y-85320193D01*
X119109634Y-85337401D01*
X119109656Y-85337423D01*
X119132757Y-85362561D01*
X119132759Y-85362563D01*
X119132764Y-85362568D01*
X119260050Y-85455627D01*
X119316266Y-85481747D01*
X119403036Y-85522066D01*
X119403041Y-85522067D01*
X119403044Y-85522069D01*
X119556251Y-85559341D01*
X119713786Y-85566011D01*
X119869596Y-85541822D01*
X120017694Y-85487705D01*
X120152390Y-85405737D01*
X120176221Y-85383846D01*
X120176260Y-85383814D01*
X120181333Y-85379152D01*
X120181335Y-85379152D01*
X120205413Y-85357029D01*
X120210450Y-85352403D01*
X120245500Y-85320205D01*
X120245500Y-85320204D01*
X120252126Y-85314118D01*
X120252161Y-85314078D01*
X121213519Y-84430817D01*
X123224500Y-84430817D01*
X123224500Y-84569183D01*
X123260312Y-84702836D01*
X123329495Y-84822665D01*
X123427335Y-84920505D01*
X123547164Y-84989688D01*
X123680817Y-85025500D01*
X123680819Y-85025500D01*
X123819181Y-85025500D01*
X123819183Y-85025500D01*
X123952836Y-84989688D01*
X124072665Y-84920505D01*
X124170505Y-84822665D01*
X124239688Y-84702836D01*
X124275500Y-84569183D01*
X124275500Y-84475834D01*
X124294407Y-84417643D01*
X124304490Y-84405836D01*
X125788576Y-82921749D01*
X125843091Y-82893974D01*
X125903523Y-82903545D01*
X125921914Y-82916906D01*
X125922185Y-82916554D01*
X125927327Y-82920499D01*
X125927331Y-82920501D01*
X125927335Y-82920505D01*
X126047164Y-82989688D01*
X126180817Y-83025500D01*
X126180819Y-83025500D01*
X126275165Y-83025500D01*
X126333356Y-83044407D01*
X126369320Y-83093907D01*
X126369320Y-83155093D01*
X126345169Y-83194504D01*
X123514254Y-86025417D01*
X123493751Y-86041149D01*
X123427337Y-86079493D01*
X123427335Y-86079495D01*
X123329495Y-86177335D01*
X123260312Y-86297164D01*
X123224500Y-86430817D01*
X123224500Y-86569183D01*
X123260312Y-86702836D01*
X123329495Y-86822665D01*
X123427335Y-86920505D01*
X123547164Y-86989688D01*
X123680817Y-87025500D01*
X123680819Y-87025500D01*
X123819181Y-87025500D01*
X123819183Y-87025500D01*
X123952836Y-86989688D01*
X124072665Y-86920505D01*
X124170505Y-86822665D01*
X124239688Y-86702836D01*
X124275500Y-86569183D01*
X124275500Y-86430817D01*
X124239688Y-86297164D01*
X124239687Y-86297162D01*
X124238309Y-86292019D01*
X124241512Y-86230917D01*
X124263930Y-86196394D01*
X127905830Y-82554496D01*
X127960347Y-82526719D01*
X127975834Y-82525500D01*
X128069181Y-82525500D01*
X128069183Y-82525500D01*
X128202836Y-82489688D01*
X128322665Y-82420505D01*
X128420505Y-82322665D01*
X128489688Y-82202836D01*
X128525500Y-82069183D01*
X128525500Y-81930817D01*
X128489688Y-81797164D01*
X128420505Y-81677335D01*
X128322665Y-81579495D01*
X128202836Y-81510312D01*
X128069183Y-81474500D01*
X127930817Y-81474500D01*
X127797164Y-81510312D01*
X127677335Y-81579495D01*
X127579495Y-81677335D01*
X127510312Y-81797164D01*
X127495740Y-81851550D01*
X127474500Y-81930818D01*
X127474500Y-82024164D01*
X127455593Y-82082355D01*
X127445504Y-82094168D01*
X126944504Y-82595168D01*
X126889987Y-82622945D01*
X126829555Y-82613374D01*
X126786290Y-82570109D01*
X126775500Y-82525164D01*
X126775500Y-82430818D01*
X126772737Y-82420505D01*
X126739688Y-82297164D01*
X126670505Y-82177335D01*
X126572665Y-82079495D01*
X126452836Y-82010312D01*
X126319183Y-81974500D01*
X126180817Y-81974500D01*
X126047164Y-82010312D01*
X125945200Y-82069181D01*
X125927332Y-82079497D01*
X125861325Y-82145504D01*
X125806808Y-82173281D01*
X125791322Y-82174500D01*
X125707147Y-82174500D01*
X125656478Y-82188076D01*
X125624356Y-82196683D01*
X125550142Y-82239531D01*
X123844169Y-83945504D01*
X123789652Y-83973281D01*
X123774165Y-83974500D01*
X123680817Y-83974500D01*
X123547164Y-84010312D01*
X123427335Y-84079495D01*
X123329495Y-84177335D01*
X123260312Y-84297164D01*
X123224500Y-84430817D01*
X121213519Y-84430817D01*
X127036165Y-79081180D01*
X127044114Y-79073877D01*
X127102172Y-79020535D01*
X127195245Y-78893248D01*
X127261696Y-78750249D01*
X127298974Y-78597034D01*
X127300111Y-78570183D01*
X133113866Y-78570183D01*
X133113866Y-78708549D01*
X133149678Y-78842202D01*
X133218861Y-78962031D01*
X133316701Y-79059871D01*
X133436530Y-79129054D01*
X133570183Y-79164866D01*
X133570185Y-79164866D01*
X133708547Y-79164866D01*
X133708549Y-79164866D01*
X133842202Y-79129054D01*
X133962031Y-79059871D01*
X134059871Y-78962031D01*
X134129054Y-78842202D01*
X134164866Y-78708549D01*
X134164866Y-78658376D01*
X134183773Y-78600185D01*
X134233273Y-78564221D01*
X134263866Y-78559376D01*
X137239635Y-78559376D01*
X137294636Y-78576060D01*
X137358127Y-78618483D01*
X137494709Y-78675057D01*
X137639704Y-78703899D01*
X137639705Y-78703899D01*
X137787539Y-78703899D01*
X137787540Y-78703899D01*
X137932535Y-78675057D01*
X138069117Y-78618483D01*
X138192038Y-78536350D01*
X138296573Y-78431815D01*
X138378706Y-78308894D01*
X138435280Y-78172312D01*
X138464122Y-78027317D01*
X138464122Y-77879481D01*
X138438558Y-77750966D01*
X138445749Y-77690206D01*
X138465649Y-77661652D01*
X138516852Y-77610449D01*
X138571367Y-77582674D01*
X138612477Y-77584828D01*
X138676698Y-77602037D01*
X138676700Y-77602038D01*
X138676701Y-77602038D01*
X138815065Y-77602038D01*
X138815067Y-77602038D01*
X138948720Y-77566226D01*
X139068549Y-77497043D01*
X139166389Y-77399203D01*
X139235572Y-77279374D01*
X139271384Y-77145721D01*
X139271384Y-77007355D01*
X139235572Y-76873702D01*
X139166389Y-76753873D01*
X139068549Y-76656033D01*
X138948720Y-76586850D01*
X138815067Y-76551038D01*
X138676701Y-76551038D01*
X138543048Y-76586850D01*
X138423219Y-76656033D01*
X138325379Y-76753873D01*
X138256194Y-76873705D01*
X138234968Y-76952921D01*
X138209346Y-76997301D01*
X138005294Y-77201353D01*
X137950777Y-77229130D01*
X137915976Y-77228447D01*
X137787542Y-77202899D01*
X137787540Y-77202899D01*
X137639704Y-77202899D01*
X137639703Y-77202899D01*
X137494707Y-77231741D01*
X137358128Y-77288314D01*
X137235207Y-77370447D01*
X137130670Y-77474984D01*
X137048537Y-77597905D01*
X136991964Y-77734484D01*
X136973225Y-77828691D01*
X136943328Y-77882074D01*
X136887762Y-77907690D01*
X136876127Y-77908376D01*
X134002004Y-77908376D01*
X133919219Y-77930558D01*
X133844992Y-77973413D01*
X133790038Y-78028365D01*
X133790033Y-78028372D01*
X133733537Y-78084869D01*
X133679021Y-78112647D01*
X133663533Y-78113866D01*
X133570183Y-78113866D01*
X133436530Y-78149678D01*
X133316701Y-78218861D01*
X133218861Y-78316701D01*
X133149678Y-78436530D01*
X133113866Y-78570183D01*
X127300111Y-78570183D01*
X127300569Y-78559376D01*
X127303777Y-78483578D01*
X127305644Y-78439490D01*
X127281451Y-78283673D01*
X127227324Y-78135569D01*
X127227319Y-78135560D01*
X127145346Y-78000874D01*
X127145339Y-78000865D01*
X127092002Y-77942811D01*
X127092002Y-77942812D01*
X127059801Y-77907764D01*
X127059800Y-77907763D01*
X126302850Y-77083885D01*
X125941473Y-76690555D01*
X125916026Y-76634912D01*
X125918749Y-76597951D01*
X125936315Y-76532392D01*
X125936316Y-76532390D01*
X125936316Y-76374277D01*
X125936316Y-76374276D01*
X125895393Y-76221549D01*
X125816336Y-76084617D01*
X125704532Y-75972813D01*
X125567600Y-75893756D01*
X125414873Y-75852833D01*
X125256759Y-75852833D01*
X125256755Y-75852833D01*
X125246522Y-75855575D01*
X125185421Y-75852369D01*
X125148003Y-75826927D01*
X124967857Y-75630853D01*
X124770975Y-75416563D01*
X124745529Y-75360922D01*
X124757648Y-75300949D01*
X124802704Y-75259553D01*
X124803682Y-75259112D01*
X125288248Y-75044319D01*
X125292680Y-75042483D01*
X126098719Y-74731560D01*
X126103229Y-74729946D01*
X126771331Y-74509235D01*
X126832514Y-74508935D01*
X126882190Y-74544656D01*
X126901383Y-74602753D01*
X126900537Y-74616161D01*
X126826486Y-75178628D01*
X126826486Y-75178629D01*
X126894933Y-75698535D01*
X126901450Y-75748031D01*
X127121231Y-76278629D01*
X127315949Y-76532390D01*
X127460352Y-76720581D01*
X127470852Y-76734264D01*
X127470856Y-76734267D01*
X127470857Y-76734268D01*
X127926484Y-77083884D01*
X127926485Y-77083885D01*
X128114078Y-77161588D01*
X128457085Y-77303666D01*
X128884135Y-77359888D01*
X129026485Y-77378629D01*
X129026486Y-77378629D01*
X129026487Y-77378629D01*
X129140366Y-77363636D01*
X129595888Y-77303666D01*
X130126486Y-77083885D01*
X130582121Y-76734264D01*
X130931742Y-76278629D01*
X131151523Y-75748031D01*
X131226486Y-75178629D01*
X131224387Y-75162689D01*
X131198608Y-74966877D01*
X131151523Y-74609228D01*
X131009445Y-74266221D01*
X130931742Y-74078628D01*
X130931741Y-74078627D01*
X130795165Y-73900638D01*
X130774741Y-73842963D01*
X130792118Y-73784297D01*
X130840660Y-73747050D01*
X130866417Y-73741640D01*
X131192822Y-73717563D01*
X131197659Y-73717326D01*
X132061297Y-73696125D01*
X132066103Y-73696125D01*
X132929737Y-73717326D01*
G37*
%TD.AperFunction*%
%TD*%
M02*
