%TF.GenerationSoftware,KiCad,Pcbnew,10.0.6*%
%TF.CreationDate,2026-09-27T13:07:57+02:00*%
%TF.ProjectId,shotpuck,73686f74-7075-4636-9b2e-6b696361645f,rev?*%
%TF.SameCoordinates,Original*%
%TF.FileFunction,Soldermask,Top*%
%TF.FilePolarity,Negative*%
%FSLAX46Y46*%
G04 Gerber Fmt 4.6, Leading zero omitted, Abs format (unit mm)*
G04 Created by KiCad (PCBNEW 10.0.6) date 2026-09-27 13:07:57*
%MOMM*%
%LPD*%
G01*
G04 APERTURE LIST*
G04 Aperture macros list*
%AMRoundRect*
0 Rectangle with rounded corners*
0 $1 Rounding radius*
0 $2 $3 $4 $5 $6 $7 $8 $9 X,Y pos of 4 corners*
0 Add a 4 corners polygon primitive as box body*
4,1,4,$2,$3,$4,$5,$6,$7,$8,$9,$2,$3,0*
0 Add four circle primitives for the rounded corners*
1,1,$1+$1,$2,$3*
1,1,$1+$1,$4,$5*
1,1,$1+$1,$6,$7*
1,1,$1+$1,$8,$9*
0 Add four rect primitives between the rounded corners*
20,1,$1+$1,$2,$3,$4,$5,0*
20,1,$1+$1,$4,$5,$6,$7,0*
20,1,$1+$1,$6,$7,$8,$9,0*
20,1,$1+$1,$8,$9,$2,$3,0*%
G04 Aperture macros list end*
%ADD10RoundRect,0.140000X0.140000X0.170000X-0.140000X0.170000X-0.140000X-0.170000X0.140000X-0.170000X0*%
%ADD11RoundRect,0.225000X0.250000X-0.225000X0.250000X0.225000X-0.250000X0.225000X-0.250000X-0.225000X0*%
%ADD12C,0.990600*%
%ADD13C,0.787400*%
%ADD14RoundRect,0.150000X0.150000X0.200000X-0.150000X0.200000X-0.150000X-0.200000X0.150000X-0.200000X0*%
%ADD15RoundRect,0.147500X-0.147500X-0.172500X0.147500X-0.172500X0.147500X0.172500X-0.147500X0.172500X0*%
%ADD16RoundRect,0.135000X-0.135000X-0.185000X0.135000X-0.185000X0.135000X0.185000X-0.135000X0.185000X0*%
%ADD17RoundRect,0.087500X-0.425000X-0.087500X0.425000X-0.087500X0.425000X0.087500X-0.425000X0.087500X0*%
%ADD18RoundRect,0.125000X0.125000X0.125000X-0.125000X0.125000X-0.125000X-0.125000X0.125000X-0.125000X0*%
%ADD19R,1.500000X1.000000*%
%ADD20RoundRect,0.140000X-0.140000X-0.170000X0.140000X-0.170000X0.140000X0.170000X-0.140000X0.170000X0*%
%ADD21RoundRect,0.150000X-0.512500X-0.150000X0.512500X-0.150000X0.512500X0.150000X-0.512500X0.150000X0*%
%ADD22RoundRect,0.135000X0.185000X-0.135000X0.185000X0.135000X-0.185000X0.135000X-0.185000X-0.135000X0*%
%ADD23C,1.800000*%
%ADD24RoundRect,0.225000X-0.225000X-0.250000X0.225000X-0.250000X0.225000X0.250000X-0.225000X0.250000X0*%
%ADD25R,1.300000X1.300000*%
%ADD26C,1.300000*%
%ADD27RoundRect,0.070000X-0.355000X0.070000X-0.355000X-0.070000X0.355000X-0.070000X0.355000X0.070000X0*%
%ADD28RoundRect,0.070000X-0.305000X0.070000X-0.305000X-0.070000X0.305000X-0.070000X0.305000X0.070000X0*%
%ADD29R,0.400000X0.600000*%
%ADD30R,0.600000X0.400000*%
%ADD31RoundRect,0.087500X-0.087500X0.225000X-0.087500X-0.225000X0.087500X-0.225000X0.087500X0.225000X0*%
%ADD32RoundRect,0.087500X-0.225000X0.087500X-0.225000X-0.087500X0.225000X-0.087500X0.225000X0.087500X0*%
%ADD33R,3.000000X2.000000*%
G04 APERTURE END LIST*
%TO.C,JP1*%
G36*
X8450000Y13150000D02*
G01*
X9950000Y13150000D01*
X9950000Y12850000D01*
X8450000Y12850000D01*
X8450000Y13150000D01*
G37*
%TD*%
D10*
%TO.C,C6*%
X-5620000Y-7200000D03*
X-6580000Y-7200000D03*
%TD*%
D11*
%TO.C,C2*%
X2400000Y-10975000D03*
X2400000Y-9425000D03*
%TD*%
D12*
%TO.C,J2*%
X-10540000Y8400000D03*
X-5460000Y9416000D03*
X-5460000Y7384000D03*
D13*
X-9270000Y7765000D03*
X-9270000Y9035000D03*
X-8000000Y7765000D03*
X-8000000Y9035000D03*
X-6730000Y7765000D03*
X-6730000Y9035000D03*
%TD*%
D14*
%TO.C,D3*%
X-3700000Y10300000D03*
X-2300000Y10300000D03*
%TD*%
D15*
%TO.C,D4*%
X5415000Y10200000D03*
X6385000Y10200000D03*
%TD*%
D16*
%TO.C,R4*%
X5390000Y8900000D03*
X6410000Y8900000D03*
%TD*%
D17*
%TO.C,Q1*%
X8362500Y-11950000D03*
X8362500Y-12600000D03*
X8362500Y-13250000D03*
X10037500Y-13250000D03*
X10037500Y-12600000D03*
X10037500Y-11950000D03*
%TD*%
D16*
%TO.C,R8*%
X-9710000Y-10000000D03*
X-8690000Y-10000000D03*
%TD*%
D18*
%TO.C,D2*%
X800000Y-12900000D03*
X-1400000Y-12900000D03*
%TD*%
D19*
%TO.C,JP1*%
X9200000Y12350000D03*
X9200000Y13650000D03*
%TD*%
D20*
%TO.C,C5*%
X-1780000Y8100000D03*
X-820000Y8100000D03*
%TD*%
D21*
%TO.C,U3*%
X2762500Y-12450000D03*
X2762500Y-13400000D03*
X2762500Y-14350000D03*
X5037500Y-14350000D03*
X5037500Y-12450000D03*
%TD*%
D22*
%TO.C,R3*%
X5400000Y-10810000D03*
X5400000Y-9790000D03*
%TD*%
D20*
%TO.C,C8*%
X-12680000Y-10200000D03*
X-11720000Y-10200000D03*
%TD*%
D22*
%TO.C,R6*%
X100000Y-11310000D03*
X100000Y-10290000D03*
%TD*%
%TO.C,R1*%
X6900000Y-14110000D03*
X6900000Y-13090000D03*
%TD*%
D23*
%TO.C,H1*%
X12639733Y10605995D03*
%TD*%
D20*
%TO.C,C3*%
X620000Y6900000D03*
X1580000Y6900000D03*
%TD*%
D18*
%TO.C,D1*%
X1100000Y10300000D03*
X-1100000Y10300000D03*
%TD*%
D23*
%TO.C,H2*%
X-13992793Y8743667D03*
%TD*%
D16*
%TO.C,R7*%
X-12710000Y-11600000D03*
X-11690000Y-11600000D03*
%TD*%
D24*
%TO.C,C1*%
X2425000Y10200000D03*
X3975000Y10200000D03*
%TD*%
D20*
%TO.C,C4*%
X-1780000Y6900000D03*
X-820000Y6900000D03*
%TD*%
D25*
%TO.C,J1*%
X-1250000Y13500000D03*
D26*
X1250000Y13500000D03*
%TD*%
D20*
%TO.C,C7*%
X-4830000Y-10500000D03*
X-3870000Y-10500000D03*
%TD*%
D27*
%TO.C,U4*%
X-12725000Y-7699999D03*
D28*
X-12775000Y-8199999D03*
X-12775000Y-8699999D03*
X-11625000Y-8699999D03*
X-11625000Y-8199999D03*
X-11625000Y-7699999D03*
%TD*%
D17*
%TO.C,Q2*%
X-9837500Y-7350000D03*
X-9837500Y-8000000D03*
X-9837500Y-8650000D03*
X-8162500Y-8650000D03*
X-8162500Y-8000000D03*
X-8162500Y-7350000D03*
%TD*%
D29*
%TO.C,U1*%
X-13000000Y-4650000D03*
X-11900000Y-4650000D03*
X-11100000Y-4650000D03*
X-9500000Y-4650000D03*
X-9100000Y-3750000D03*
X-8700000Y-4650000D03*
X-8300000Y-3750000D03*
X-7900000Y-4650000D03*
X-7500000Y-3750000D03*
X-7100000Y-4650000D03*
X-6700000Y-3750000D03*
X-6300000Y-4650000D03*
X-5900000Y-3750000D03*
X-5500000Y-4650000D03*
D30*
X-2100000Y-4800000D03*
X-2100000Y-4000000D03*
X-2100000Y-3200000D03*
X-2100000Y-2400000D03*
X-3000000Y-2000000D03*
X-2100000Y-1600000D03*
X-3000000Y-1200000D03*
X-2100000Y-800000D03*
X-3000000Y-400000D03*
X-2100000Y0D03*
X-3000000Y400000D03*
X-2100000Y800000D03*
X-3000000Y1200000D03*
X-2100000Y1600000D03*
X-3000000Y2000000D03*
X-2100000Y2400000D03*
X-2100000Y3200000D03*
X-2100000Y4000000D03*
X-2100000Y4800000D03*
D29*
X-3100000Y4650000D03*
X-3900000Y4650000D03*
X-4300000Y3750000D03*
X-4700000Y4650000D03*
X-5100000Y3750000D03*
X-5500000Y4650000D03*
X-5900000Y3750000D03*
X-6300000Y4650000D03*
X-6700000Y3750000D03*
X-7500000Y3750000D03*
X-7900000Y4650000D03*
X-8300000Y3750000D03*
X-8700000Y4650000D03*
X-9100000Y3750000D03*
X-9500000Y4650000D03*
X-9900000Y3750000D03*
X-10700000Y3750000D03*
X-11100000Y4650000D03*
X-11500000Y3750000D03*
X-11900000Y4650000D03*
X-12300000Y3750000D03*
X-13000000Y4650000D03*
D30*
X-8700000Y-2000000D03*
X-8700000Y-1200000D03*
X-8700000Y-400000D03*
X-8700000Y400000D03*
X-8700000Y1200000D03*
X-8700000Y2000000D03*
%TD*%
D31*
%TO.C,U2*%
X-2850000Y-7037499D03*
X-3350000Y-7037499D03*
X-3850000Y-7037499D03*
X-4350000Y-7037499D03*
D32*
X-4512500Y-7699999D03*
X-4512500Y-8199999D03*
X-4512500Y-8699999D03*
D31*
X-4350000Y-9362499D03*
X-3850000Y-9362499D03*
X-3350000Y-9362499D03*
X-2850000Y-9362499D03*
D32*
X-2687500Y-8699999D03*
X-2687500Y-8199999D03*
X-2687500Y-7699999D03*
%TD*%
D22*
%TO.C,R5*%
X-1000000Y-9810000D03*
X-1000000Y-8790000D03*
%TD*%
D16*
%TO.C,R2*%
X8290000Y-14600000D03*
X9310000Y-14600000D03*
%TD*%
D33*
%TO.C,BT1*%
X8500000Y10200000D03*
X8500000Y-10200000D03*
%TD*%
D23*
%TO.C,H3*%
X0Y-16500000D03*
%TD*%
M02*
