M48
; DRILL file KiCad 10.0.6 date 2026-09-27T13:07:57
; FORMAT={-:-/ absolute / metric / decimal}
; #@! TF.CreationDate,2026-09-27T13:07:57+02:00
; #@! TF.GenerationSoftware,Kicad,Pcbnew,10.0.6
; #@! TF.FileFunction,MixedPlating,1,2
FMAT,2
METRIC
; #@! TA.AperFunction,Plated,PTH,ViaDrill
T1C0.300
; #@! TA.AperFunction,Plated,PTH,ComponentDrill
T2C0.850
; #@! TA.AperFunction,Plated,PTH,ComponentDrill
T3C1.000
; #@! TA.AperFunction,NonPlated,NPTH,ComponentDrill
T4C0.991
; #@! TA.AperFunction,NonPlated,NPTH,ComponentDrill
T5C1.800
%
G90
G05
T1
X-14.4Y-8.0
X-12.346Y-5.432
X-12.316Y-6.106
X-12.3Y6.763
X-11.86Y-9.365
X-11.2Y11.2
X-11.171Y-5.46
X-10.572Y-6.671
X-9.6Y12.8
X-9.6Y11.2
X-9.6Y-11.2
X-9.555Y-6.747
X-8.822Y-6.442
X-8.0Y14.4
X-8.0Y12.8
X-8.0Y11.2
X-8.0Y-11.2
X-8.0Y-14.4
X-7.79Y-10.0
X-7.615Y10.145
X-7.215Y-9.386
X-7.207Y-8.296
X-7.03Y-6.421
X-6.4Y-11.2
X-6.4Y-14.4
X-6.067Y-9.079
X-5.412Y-8.2
X-5.292Y-3.535
X-5.047Y-6.58
X-4.8Y-14.4
X-4.8Y-16.0
X-4.676Y-12.774
X-4.569Y10.533
X-4.378Y5.492
X-3.865Y-2.412
X-3.661Y-7.917
X-3.2Y8.0
X-3.2Y-14.4
X-3.2Y-16.0
X-3.161Y-6.158
X-3.135Y-3.062
X-2.97Y-10.5
X-2.928Y-4.16
X-2.696Y6.011
X-2.183Y-6.433
X-1.6Y-11.2
X-1.508Y-5.478
X-1.381Y-2.983
X-1.326Y-0.801
X-1.253Y0.491
X-1.248Y5.091
X-1.179Y6.123
X-1.047Y-1.589
X-0.37Y6.121
X-0.029Y-4.173
X0.08Y8.1
X0.104Y-5.8
X0.206Y-3.25
X0.284Y3.856
X0.694Y-9.352
X1.562Y-13.4
X2.4Y-8.525
X2.48Y6.9
X3.2Y-16.0
X3.302Y-9.507
X4.021Y7.918
X4.575Y9.161
X4.8Y-16.0
X4.965Y10.979
X5.4Y-8.89
X7.174Y-11.787
X9.946Y-13.95
X12.411Y-9.755
T2
X-1.25Y13.5
X1.25Y13.5
T3
X8.5Y10.2
X8.5Y-10.2
T4
X-10.54Y8.4
X-5.46Y9.416
X-5.46Y7.384
T5
X-13.993Y8.744
X0.0Y-16.5
X12.64Y10.606
M30
