%TF.GenerationSoftware,KiCad,Pcbnew,10.0.6*%
%TF.CreationDate,2026-10-01T09:06:45+02:00*%
%TF.ProjectId,shotpuck,73686f74-7075-4636-9b2e-6b696361645f,rev?*%
%TF.SameCoordinates,Original*%
%TF.FileFunction,Soldermask,Top*%
%TF.FilePolarity,Negative*%
%FSLAX46Y46*%
G04 Gerber Fmt 4.6, Leading zero omitted, Abs format (unit mm)*
G04 Created by KiCad (PCBNEW 10.0.6) date 2026-10-01 09:06:45*
%MOMM*%
%LPD*%
G01*
G04 APERTURE LIST*
G04 Aperture macros list*
%AMRoundRect*
0 Rectangle with rounded corners*
0 $1 Rounding radius*
0 $2 $3 $4 $5 $6 $7 $8 $9 X,Y pos of 4 corners*
0 Add a 4 corners polygon primitive as box body*
4,1,4,$2,$3,$4,$5,$6,$7,$8,$9,$2,$3,0*
0 Add four circle primitives for the rounded corners*
1,1,$1+$1,$2,$3*
1,1,$1+$1,$4,$5*
1,1,$1+$1,$6,$7*
1,1,$1+$1,$8,$9*
0 Add four rect primitives between the rounded corners*
20,1,$1+$1,$2,$3,$4,$5,0*
20,1,$1+$1,$4,$5,$6,$7,0*
20,1,$1+$1,$6,$7,$8,$9,0*
20,1,$1+$1,$8,$9,$2,$3,0*%
%AMRotRect*
0 Rectangle, with rotation*
0 The origin of the aperture is its center*
0 $1 length*
0 $2 width*
0 $3 Rotation angle, in degrees counterclockwise*
0 Add horizontal line*
21,1,$1,$2,0,0,$3*%
%AMFreePoly0*
4,1,30,0.497501,0.387700,0.456400,0.363000,0.408700,0.327701,0.364700,0.287800,0.324799,0.243800,0.289500,0.196100,0.258900,0.145200,0.233600,0.091500,0.213600,0.035600,0.199100,-0.022001,0.190400,-0.080700,0.187500,-0.140000,0.190400,-0.199300,0.199100,-0.257999,0.213600,-0.315600,0.233600,-0.371501,0.258900,-0.425200,0.289500,-0.476100,0.324801,-0.523800,0.364700,-0.567800,
0.408700,-0.607700,0.456400,-0.643000,0.497501,-0.667700,0.497500,-1.005000,-0.452500,-1.005000,-0.452500,1.164300,-0.449000,1.188000,-0.441300,1.344999,0.497500,1.345000,0.497501,0.387700,0.497501,0.387700,$1*%
%AMFreePoly1*
4,1,30,0.442800,1.197900,0.452500,1.132300,0.452500,-1.005000,-0.497500,-1.005000,-0.497500,-0.667700,-0.456400,-0.643001,-0.408700,-0.607700,-0.364700,-0.567800,-0.324800,-0.523800,-0.289500,-0.476100,-0.258900,-0.425200,-0.233600,-0.371500,-0.213600,-0.315600,-0.199100,-0.258000,-0.190400,-0.199300,-0.187500,-0.140000,-0.190400,-0.080700,-0.199100,-0.022000,-0.213600,0.035600,-0.233600,0.091500,
-0.258900,0.145200,-0.289500,0.196100,-0.324800,0.243800,-0.364700,0.287800,-0.408700,0.327700,-0.456400,0.363000,-0.497500,0.387700,-0.497500,1.345000,0.435500,1.344999,0.442800,1.197900,0.442800,1.197900,$1*%
G04 Aperture macros list end*
%ADD10RoundRect,0.070000X0.355000X-0.070000X0.355000X0.070000X-0.355000X0.070000X-0.355000X-0.070000X0*%
%ADD11RoundRect,0.070000X0.305000X-0.070000X0.305000X0.070000X-0.305000X0.070000X-0.305000X-0.070000X0*%
%ADD12C,2.400000*%
%ADD13C,0.800000*%
%ADD14RoundRect,0.250000X0.000000X-0.424264X0.424264X0.000000X0.000000X0.424264X-0.424264X0.000000X0*%
%ADD15RoundRect,0.140000X-0.140000X-0.170000X0.140000X-0.170000X0.140000X0.170000X-0.140000X0.170000X0*%
%ADD16RotRect,0.500000X0.500000X135.000000*%
%ADD17RoundRect,0.135000X-0.135000X-0.185000X0.135000X-0.185000X0.135000X0.185000X-0.135000X0.185000X0*%
%ADD18RoundRect,0.140000X-0.021213X0.219203X-0.219203X0.021213X0.021213X-0.219203X0.219203X-0.021213X0*%
%ADD19RoundRect,0.147500X0.158988X-0.161973X0.184699X0.131904X-0.158988X0.161973X-0.184699X-0.131904X0*%
%ADD20RoundRect,0.135000X-0.035355X0.226274X-0.226274X0.035355X0.035355X-0.226274X0.226274X-0.035355X0*%
%ADD21RoundRect,0.135000X-0.185000X0.135000X-0.185000X-0.135000X0.185000X-0.135000X0.185000X0.135000X0*%
%ADD22RoundRect,0.140000X0.021213X-0.219203X0.219203X-0.021213X-0.021213X0.219203X-0.219203X0.021213X0*%
%ADD23RoundRect,0.225000X0.250000X-0.225000X0.250000X0.225000X-0.250000X0.225000X-0.250000X-0.225000X0*%
%ADD24RoundRect,0.087500X0.097227X0.220971X-0.220971X-0.097227X-0.097227X-0.220971X0.220971X0.097227X0*%
%ADD25RoundRect,0.087500X-0.097227X0.220971X-0.220971X0.097227X0.097227X-0.220971X0.220971X-0.097227X0*%
%ADD26RoundRect,0.087500X-0.425000X-0.087500X0.425000X-0.087500X0.425000X0.087500X-0.425000X0.087500X0*%
%ADD27RoundRect,0.140000X0.219203X0.021213X0.021213X0.219203X-0.219203X-0.021213X-0.021213X-0.219203X0*%
%ADD28RoundRect,0.135000X0.185000X-0.135000X0.185000X0.135000X-0.185000X0.135000X-0.185000X-0.135000X0*%
%ADD29RoundRect,0.135000X-0.226274X-0.035355X-0.035355X-0.226274X0.226274X0.035355X0.035355X0.226274X0*%
%ADD30RoundRect,0.135000X0.035355X-0.226274X0.226274X-0.035355X-0.035355X0.226274X-0.226274X0.035355X0*%
%ADD31RotRect,2.500000X2.000000X239.984259*%
%ADD32R,2.000000X2.500000*%
%ADD33C,0.700000*%
%ADD34RotRect,0.900000X1.100000X222.575681*%
%ADD35FreePoly0,222.575681*%
%ADD36FreePoly1,222.575681*%
%ADD37RoundRect,0.125000X0.000000X-0.176777X0.176777X0.000000X0.000000X0.176777X-0.176777X0.000000X0*%
%ADD38RoundRect,0.225000X-0.225000X-0.250000X0.225000X-0.250000X0.225000X0.250000X-0.225000X0.250000X0*%
%ADD39RoundRect,0.125000X0.125000X-0.125000X0.125000X0.125000X-0.125000X0.125000X-0.125000X-0.125000X0*%
%ADD40RoundRect,0.150000X-0.512500X-0.150000X0.512500X-0.150000X0.512500X0.150000X-0.512500X0.150000X0*%
G04 APERTURE END LIST*
D10*
%TO.C,U4*%
X119188700Y-100395476D03*
D11*
X119238700Y-99895476D03*
X119238700Y-99395476D03*
X118088700Y-99395476D03*
X118088700Y-99895476D03*
X118088700Y-100395476D03*
%TD*%
D12*
%TO.C,H1*%
X129026486Y-75178629D03*
%TD*%
D13*
%TO.C,JP2*%
X144257108Y-79473925D03*
X143408580Y-78625397D03*
%TD*%
D14*
%TO.C,D3*%
X125663751Y-87145425D03*
X127643649Y-85165527D03*
%TD*%
D15*
%TO.C,C8*%
X117983700Y-98295476D03*
X118943700Y-98295476D03*
%TD*%
D16*
%TO.C,U1*%
X144968424Y-82521260D03*
X143943119Y-82768748D03*
X144190607Y-81743443D03*
X143165302Y-81990930D03*
X143412789Y-80965626D03*
X142387484Y-81213113D03*
X142634972Y-80187808D03*
X141609667Y-80435295D03*
X141857154Y-79409991D03*
X140831849Y-79657478D03*
X141079337Y-78632173D03*
X140054032Y-78879661D03*
X140301519Y-77854356D03*
X139276215Y-78101843D03*
X139523702Y-77076538D03*
X138745884Y-76298721D03*
X137968067Y-77076538D03*
X138215554Y-78101843D03*
X137190250Y-77854356D03*
X137437737Y-78879661D03*
X136412432Y-78632173D03*
X136659919Y-79657478D03*
X135634615Y-79409991D03*
X135882102Y-80435295D03*
X134856797Y-80187808D03*
X135104285Y-81213113D03*
X134078980Y-80965626D03*
X134326467Y-81990930D03*
X133301162Y-81743443D03*
X132523345Y-82521260D03*
X133301162Y-83299078D03*
X134326467Y-83051591D03*
X134078980Y-84076895D03*
X135104285Y-83829408D03*
X134856797Y-84854713D03*
X135882102Y-84607225D03*
X135634615Y-85632530D03*
X136659919Y-85385043D03*
X136412432Y-86410348D03*
X137437737Y-86162860D03*
X137190250Y-87188165D03*
X138215554Y-86940678D03*
X137968067Y-87965983D03*
X138993372Y-87718495D03*
X138745884Y-88743800D03*
X140690428Y-86799257D03*
X143023881Y-84465804D03*
X142917814Y-83016235D03*
X142139997Y-82238418D03*
X141362180Y-81460600D03*
X140584362Y-80682783D03*
X139806545Y-79904965D03*
X137685224Y-79904965D03*
X136907407Y-80682783D03*
X136129589Y-81460600D03*
X136129589Y-83581921D03*
X136907407Y-84359738D03*
X137685224Y-85137556D03*
X138463042Y-85915373D03*
X139240859Y-86693190D03*
X137720580Y-76051233D03*
X136942762Y-76829051D03*
X136164945Y-77606868D03*
X135387127Y-78384686D03*
X134609310Y-79162503D03*
X133831492Y-79940321D03*
X133053675Y-80718138D03*
X132275857Y-81495956D03*
%TD*%
D17*
%TO.C,R2*%
X116241919Y-89655681D03*
X117261919Y-89655681D03*
%TD*%
D12*
%TO.C,H2*%
X116172935Y-87001555D03*
%TD*%
D18*
%TO.C,C9*%
X130003111Y-83256065D03*
X129324289Y-83934887D03*
%TD*%
D19*
%TO.C,D4*%
X114938452Y-90430181D03*
X115022996Y-89463873D03*
%TD*%
D20*
%TO.C,R4*%
X131824324Y-84134852D03*
X131103076Y-84856100D03*
%TD*%
D21*
%TO.C,R3*%
X121763700Y-89240000D03*
X121763700Y-90260000D03*
%TD*%
D22*
%TO.C,C4*%
X135910589Y-75534887D03*
X136589411Y-74856065D03*
%TD*%
D23*
%TO.C,C1*%
X125000000Y-94525000D03*
X125000000Y-92975000D03*
%TD*%
D24*
%TO.C,U2*%
X133757687Y-76952757D03*
X133404133Y-76599204D03*
X133050580Y-76245651D03*
X132697027Y-75892097D03*
D25*
X132113663Y-76245651D03*
X131760110Y-76599204D03*
X131406557Y-76952757D03*
D24*
X131053003Y-77536121D03*
X131406557Y-77889674D03*
X131760110Y-78243227D03*
X132113663Y-78596781D03*
D25*
X132697027Y-78243227D03*
X133050580Y-77889674D03*
X133404133Y-77536121D03*
%TD*%
D12*
%TO.C,H3*%
X141527700Y-104911476D03*
%TD*%
D26*
%TO.C,Q1*%
X118662500Y-88545476D03*
X118662500Y-89195476D03*
X118662500Y-89845476D03*
X120337500Y-89845476D03*
X120337500Y-89195476D03*
X120337500Y-88545476D03*
%TD*%
D27*
%TO.C,C6*%
X131445506Y-79698892D03*
X130766684Y-79020070D03*
%TD*%
D28*
%TO.C,R7*%
X116663700Y-97205476D03*
X116663700Y-96185476D03*
%TD*%
D27*
%TO.C,C3*%
X130695506Y-80448892D03*
X130016684Y-79770070D03*
%TD*%
D28*
%TO.C,R8*%
X116863700Y-99305476D03*
X116863700Y-98285476D03*
%TD*%
D12*
%TO.C,H4*%
X120601700Y-103264476D03*
%TD*%
D29*
%TO.C,R10*%
X125639376Y-83389376D03*
X126360624Y-84110624D03*
%TD*%
D18*
%TO.C,C7*%
X129945506Y-78270070D03*
X129266684Y-78948892D03*
%TD*%
D28*
%TO.C,R1*%
X117000000Y-92760000D03*
X117000000Y-91740000D03*
%TD*%
D30*
%TO.C,R9*%
X128403076Y-83110624D03*
X129124324Y-82389376D03*
%TD*%
D31*
%TO.C,BT1*%
X124863700Y-98945476D03*
D32*
X123863700Y-104595475D03*
%TD*%
D29*
%TO.C,R11*%
X124889376Y-84139376D03*
X125610624Y-84860624D03*
%TD*%
D33*
%TO.C,J1*%
X125335816Y-76453333D03*
X117743693Y-83428702D03*
D34*
X124440893Y-82211836D03*
X122673571Y-83835588D03*
X121789910Y-84647465D03*
X123557232Y-83023712D03*
X125324554Y-81399960D03*
X126208216Y-80588084D03*
D35*
X126014119Y-76020250D03*
D36*
X117254828Y-84067972D03*
%TD*%
D26*
%TO.C,Q2*%
X120626200Y-99245476D03*
X120626200Y-99895476D03*
X120626200Y-100545476D03*
X122301200Y-100545476D03*
X122301200Y-99895476D03*
X122301200Y-99245476D03*
%TD*%
D37*
%TO.C,D1*%
X123472183Y-90073293D03*
X125027817Y-88517659D03*
%TD*%
D38*
%TO.C,C2*%
X117888700Y-95750000D03*
X119438700Y-95750000D03*
%TD*%
D39*
%TO.C,D2*%
X123063700Y-93795476D03*
X123063700Y-91595476D03*
%TD*%
D40*
%TO.C,U3*%
X118526200Y-91945476D03*
X118526200Y-92895476D03*
X118526200Y-93845476D03*
X120801200Y-93845476D03*
X120801200Y-91945476D03*
%TD*%
M02*
