%TF.GenerationSoftware,KiCad,Pcbnew,10.0.6*%
%TF.CreationDate,2026-09-27T11:19:32+02:00*%
%TF.ProjectId,shotpuck,73686f74-7075-4636-9b2e-6b696361645f,rev?*%
%TF.SameCoordinates,Original*%
%TF.FileFunction,Legend,Top*%
%TF.FilePolarity,Positive*%
%FSLAX46Y46*%
G04 Gerber Fmt 4.6, Leading zero omitted, Abs format (unit mm)*
G04 Created by KiCad (PCBNEW 10.0.6) date 2026-09-27 11:19:32*
%MOMM*%
%LPD*%
G01*
G04 APERTURE LIST*
%ADD10C,0.120000*%
%ADD11C,0.100000*%
G04 APERTURE END LIST*
%TO.C,C7*%
D10*
X-4457836Y-10140000D02*
X-4242164Y-10140000D01*
X-4457836Y-10860000D02*
X-4242164Y-10860000D01*
%TO.C,R2*%
X8646359Y-14220000D02*
X8953641Y-14220000D01*
X8646359Y-14980000D02*
X8953641Y-14980000D01*
%TO.C,JP1*%
X8000000Y13400000D02*
X10800000Y13400000D01*
X8000000Y11400000D02*
X8000000Y13400000D01*
X10800000Y13400000D02*
X10800000Y11400000D01*
X10800000Y11400000D02*
X8000000Y11400000D01*
%TO.C,R8*%
X-9353641Y-9620000D02*
X-9046359Y-9620000D01*
X-9353641Y-10380000D02*
X-9046359Y-10380000D01*
%TO.C,C8*%
X-12307836Y-9840000D02*
X-12092164Y-9840000D01*
X-12307836Y-10560000D02*
X-12092164Y-10560000D01*
%TO.C,R7*%
X-12353641Y-11220000D02*
X-12046359Y-11220000D01*
X-12353641Y-11980000D02*
X-12046359Y-11980000D01*
%TO.C,C6*%
X-5992164Y-6840000D02*
X-6207836Y-6840000D01*
X-5992164Y-7560000D02*
X-6207836Y-7560000D01*
%TO.C,U4*%
X-12985000Y-9099999D02*
X-11415000Y-9099999D01*
X-12780000Y-7299999D02*
X-11420000Y-7299999D01*
X-13100000Y-7299999D02*
X-13380000Y-7299999D01*
X-13100000Y-7019999D01*
X-13100000Y-7299999D01*
G36*
X-13100000Y-7299999D02*
G01*
X-13380000Y-7299999D01*
X-13100000Y-7019999D01*
X-13100000Y-7299999D01*
G37*
%TO.C,U3*%
X2990000Y-11840000D02*
X4810000Y-11840000D01*
X2990000Y-11890000D02*
X2990000Y-11840000D01*
X2990000Y-14960000D02*
X2990000Y-14910000D01*
X4810000Y-11840000D02*
X4810000Y-11890000D01*
X4810000Y-13010000D02*
X4810000Y-13790000D01*
X4810000Y-14910000D02*
X4810000Y-14960000D01*
X4810000Y-14960000D02*
X2990000Y-14960000D01*
X2450000Y-11890000D02*
X2210000Y-11560000D01*
X2690000Y-11560000D01*
X2450000Y-11890000D01*
G36*
X2450000Y-11890000D02*
G01*
X2210000Y-11560000D01*
X2690000Y-11560000D01*
X2450000Y-11890000D01*
G37*
%TO.C,R5*%
X-1380000Y-9453641D02*
X-1380000Y-9146359D01*
X-620000Y-9453641D02*
X-620000Y-9146359D01*
%TO.C,C3*%
X992164Y7260000D02*
X1207836Y7260000D01*
X992164Y6540000D02*
X1207836Y6540000D01*
%TO.C,R1*%
X6520000Y-13753641D02*
X6520000Y-13446359D01*
X7280000Y-13753641D02*
X7280000Y-13446359D01*
%TO.C,R4*%
X5746359Y9280000D02*
X6053641Y9280000D01*
X5746359Y8520000D02*
X6053641Y8520000D01*
%TO.C,C1*%
X3059420Y10710000D02*
X3340580Y10710000D01*
X3059420Y9690000D02*
X3340580Y9690000D01*
%TO.C,U2*%
X-4960000Y-6589999D02*
X-4785000Y-6589999D01*
X-4960000Y-7264999D02*
X-4960000Y-6589999D01*
X-4960000Y-9809999D02*
X-4960000Y-9134999D01*
X-4785000Y-9809999D02*
X-4960000Y-9809999D01*
X-2415000Y-6589999D02*
X-2240000Y-6589999D01*
X-2240000Y-6589999D02*
X-2240000Y-7264999D01*
X-2240000Y-9134999D02*
X-2240000Y-9809999D01*
X-2240000Y-9809999D02*
X-2415000Y-9809999D01*
X-2850000Y-6459999D02*
X-3090000Y-6129999D01*
X-2610000Y-6129999D01*
X-2850000Y-6459999D01*
G36*
X-2850000Y-6459999D02*
G01*
X-3090000Y-6129999D01*
X-2610000Y-6129999D01*
X-2850000Y-6459999D01*
G37*
%TO.C,J1*%
X-7250000Y15500000D02*
X7250000Y15500000D01*
X-7250000Y11500000D02*
X-7250000Y15500000D01*
X7250000Y15500000D02*
X7250000Y11500000D01*
X7250000Y11500000D02*
X-7250000Y11500000D01*
%TO.C,D1*%
X1610000Y11150000D02*
X-1050000Y11150000D01*
X1610000Y9450000D02*
X-1050000Y9450000D01*
X1610000Y9450000D02*
X1610000Y11150000D01*
%TO.C,J2*%
X-9905000Y7130000D02*
X-9905000Y7765000D01*
X-9270000Y7130000D02*
X-9905000Y7130000D01*
%TO.C,D2*%
X11850000Y-11610000D02*
X11850000Y-8950000D01*
X11850000Y-11610000D02*
X13550000Y-11610000D01*
X13550000Y-11610000D02*
X13550000Y-8950000D01*
%TO.C,D3*%
X-4260000Y10900000D02*
X-4260000Y9700000D01*
X-2300000Y10900000D02*
X-4260000Y10900000D01*
X-2300000Y9700000D02*
X-4260000Y9700000D01*
%TO.C,C5*%
X-1407836Y8460000D02*
X-1192164Y8460000D01*
X-1407836Y7740000D02*
X-1192164Y7740000D01*
%TO.C,D4*%
D11*
X4860000Y10200000D02*
G75*
G02*
X4760000Y10200000I-50000J0D01*
G01*
X4760000Y10200000D02*
G75*
G02*
X4860000Y10200000I50000J0D01*
G01*
%TO.C,U1*%
D10*
X-17100000Y5350000D02*
X-16000000Y5350000D01*
X-17100000Y4250000D02*
X-17100000Y5350000D01*
X-17100000Y-4250000D02*
X-17100000Y-5350000D01*
X-17100000Y-5350000D02*
X-16000000Y-5350000D01*
X-2500000Y5350000D02*
X-1400000Y5350000D01*
X-2500000Y-5350000D02*
X-1400000Y-5350000D01*
X-1400000Y5350000D02*
X-1400000Y4250000D01*
X-1400000Y-5350000D02*
X-1400000Y-4250000D01*
X-13000000Y-5375000D02*
X-12760000Y-5711000D01*
X-13240000Y-5711000D01*
X-13000000Y-5375000D01*
G36*
X-12760000Y-5711000D02*
G01*
X-13240000Y-5711000D01*
X-13000000Y-5375000D01*
X-12760000Y-5711000D01*
G37*
%TO.C,C4*%
X-1407836Y7260000D02*
X-1192164Y7260000D01*
X-1407836Y6540000D02*
X-1192164Y6540000D01*
%TO.C,R3*%
X5020000Y-10453641D02*
X5020000Y-10146359D01*
X5780000Y-10453641D02*
X5780000Y-10146359D01*
%TO.C,R6*%
X-280000Y-10953641D02*
X-280000Y-10646359D01*
X480000Y-10953641D02*
X480000Y-10646359D01*
%TO.C,Q1*%
X8465000Y-11490000D02*
X9935000Y-11490000D01*
X8465000Y-11515000D02*
X8465000Y-11490000D01*
X8465000Y-13710000D02*
X8465000Y-13685000D01*
X9935000Y-11490000D02*
X9935000Y-11515000D01*
X9935000Y-13685000D02*
X9935000Y-13710000D01*
X9935000Y-13710000D02*
X8465000Y-13710000D01*
X8020000Y-11510000D02*
X7880000Y-11320000D01*
X8160000Y-11320000D01*
X8020000Y-11510000D01*
G36*
X8020000Y-11510000D02*
G01*
X7880000Y-11320000D01*
X8160000Y-11320000D01*
X8020000Y-11510000D01*
G37*
%TO.C,Q2*%
X-9735000Y-6890000D02*
X-8265000Y-6890000D01*
X-9735000Y-6915000D02*
X-9735000Y-6890000D01*
X-9735000Y-9110000D02*
X-9735000Y-9085000D01*
X-8265000Y-6890000D02*
X-8265000Y-6915000D01*
X-8265000Y-9085000D02*
X-8265000Y-9110000D01*
X-8265000Y-9110000D02*
X-9735000Y-9110000D01*
X-10180000Y-6910000D02*
X-10320000Y-6720000D01*
X-10040000Y-6720000D01*
X-10180000Y-6910000D01*
G36*
X-10180000Y-6910000D02*
G01*
X-10320000Y-6720000D01*
X-10040000Y-6720000D01*
X-10180000Y-6910000D01*
G37*
%TO.C,C2*%
X1890000Y-10340580D02*
X1890000Y-10059420D01*
X2910000Y-10340580D02*
X2910000Y-10059420D01*
%TO.C,BT1*%
X7900000Y7400000D02*
X9100000Y7400000D01*
X8500000Y8000000D02*
X8500000Y6800000D01*
X16650000Y0D02*
G75*
G02*
X350000Y0I-8150000J0D01*
G01*
X350000Y0D02*
G75*
G02*
X16650000Y0I8150000J0D01*
G01*
%TD*%
M02*
