%TF.GenerationSoftware,KiCad,Pcbnew,10.0.6*%
%TF.CreationDate,2026-09-29T01:28:05+02:00*%
%TF.ProjectId,shotpuck,73686f74-7075-4636-9b2e-6b696361645f,rev?*%
%TF.SameCoordinates,Original*%
%TF.FileFunction,Copper,L2,Bot*%
%TF.FilePolarity,Positive*%
%FSLAX46Y46*%
G04 Gerber Fmt 4.6, Leading zero omitted, Abs format (unit mm)*
G04 Created by KiCad (PCBNEW 10.0.6) date 2026-09-29 01:28:05*
%MOMM*%
%LPD*%
G01*
G04 APERTURE LIST*
G04 Aperture macros list*
%AMRotRect*
0 Rectangle, with rotation*
0 The origin of the aperture is its center*
0 $1 length*
0 $2 width*
0 $3 Rotation angle, in degrees counterclockwise*
0 Add horizontal line*
21,1,$1,$2,0,0,$3*%
G04 Aperture macros list end*
%TA.AperFunction,EtchedComponent*%
%ADD10C,0.000000*%
%TD*%
%TA.AperFunction,ComponentPad*%
%ADD11RotRect,1.300000X1.300000X75.000000*%
%TD*%
%TA.AperFunction,ComponentPad*%
%ADD12C,1.300000*%
%TD*%
%TA.AperFunction,SMDPad,CuDef*%
%ADD13C,1.000000*%
%TD*%
%TA.AperFunction,SMDPad,CuDef*%
%ADD14R,1.000000X1.500000*%
%TD*%
%TA.AperFunction,ViaPad*%
%ADD15C,0.550000*%
%TD*%
%TA.AperFunction,Conductor*%
%ADD16C,0.150000*%
%TD*%
G04 APERTURE END LIST*
D10*
%TA.AperFunction,EtchedComponent*%
%TO.C,JP1*%
G36*
X-9950000Y-5300000D02*
G01*
X-10450000Y-5300000D01*
X-10450000Y-4700000D01*
X-9950000Y-4700000D01*
X-9950000Y-5300000D01*
G37*
%TD.AperFunction*%
%TD*%
D11*
%TO.P,J1,1*%
%TO.N,VIN_RAW*%
X13196476Y-4827407D03*
D12*
%TO.P,J1,2*%
%TO.N,GND*%
X13843524Y-2412593D03*
%TD*%
D13*
%TO.P,J2,1*%
%TO.N,VDD*%
X-5310000Y12600000D03*
%TO.P,J2,2*%
%TO.N,SWDIO*%
X-2770000Y12600000D03*
%TO.P,J2,3*%
%TO.N,SWDCLK*%
X-230000Y12600000D03*
%TO.P,J2,4*%
%TO.N,GND*%
X2310000Y12600000D03*
%TD*%
D14*
%TO.P,JP1,1*%
%TO.N,BAT_P*%
X-9550000Y-5000000D03*
%TO.P,JP1,2*%
%TO.N,VBAT*%
X-10850000Y-5000000D03*
%TD*%
D15*
%TO.N,VDD*%
X-4039900Y11137400D03*
X-4335500Y14312500D03*
X-10103400Y11079000D03*
%TO.N,GND*%
X-11818557Y832973D03*
X8000000Y-4800000D03*
X-12337500Y-1500000D03*
X-9218557Y-10367026D03*
X-6899999Y2280000D03*
X6000000Y400000D03*
X-12800000Y4800000D03*
X-6216913Y15723661D03*
X8414230Y3500000D03*
X-11585769Y-3499999D03*
X8000000Y-6400000D03*
X-7951606Y5658851D03*
X8000000Y-8000000D03*
X-13379422Y10130000D03*
X6400000Y-1600000D03*
X-8782974Y13266716D03*
X8000000Y-1600000D03*
X808450Y12824500D03*
X-11190000Y-10900000D03*
X6400000Y-3200000D03*
X-12049333Y7767062D03*
X-7985000Y4440000D03*
X8000000Y-9600000D03*
X-13301751Y3797984D03*
X2462188Y16268012D03*
X3367700Y16519427D03*
X-6400000Y-1600000D03*
X8000000Y-3200000D03*
X-10139222Y11782616D03*
X-12080000Y6900000D03*
X-11630000Y9879422D03*
X-16000000Y-3200000D03*
X-10300000Y3610000D03*
X-6400000Y-3200000D03*
X-6400000Y0D03*
%TO.N,VIN*%
X4700000Y3650000D03*
X-14090500Y901800D03*
X-7750000Y3250000D03*
%TO.N,CHG_INH*%
X-10015800Y6161700D03*
X-8467000Y9961500D03*
%TO.N,CHG_STAT*%
X-7817000Y10296700D03*
X-11345400Y2040500D03*
%TO.N,VBAT*%
X-12670400Y-3179600D03*
X-14076100Y-5346100D03*
%TO.N,SWDIO*%
X2350000Y5350000D03*
%TO.N,SWDCLK*%
X3150000Y5350000D03*
%TO.N,BAT_P*%
X-8403400Y-4771000D03*
%TO.N,PROG_SW*%
X-11385400Y3158600D03*
X-15067900Y143100D03*
%TD*%
%TO.N,VDD*%
D16*
X-5310000Y12600000D02*
X-4039900Y11329900D01*
X-6869900Y14312500D02*
X-10103400Y11079000D01*
X-4335500Y14312500D02*
X-6869900Y14312500D01*
%TO.N,GND*%
X-6216900Y15723700D02*
X-5672600Y16268000D01*
X-10139200Y11782600D02*
X-10203200Y11782600D01*
X-9751600Y-10900000D02*
X-9218600Y-10367000D01*
X3367700Y16519400D02*
X2713600Y16519400D01*
X-7951600Y5658900D02*
X-10838900Y5658900D01*
X-10838900Y5658900D02*
X-12080000Y6900000D01*
X-8627000Y3798000D02*
X-10300000Y3798000D01*
X6000000Y1085800D02*
X6000000Y400000D01*
X-10139200Y11910500D02*
X-10139200Y11782600D01*
X-12435200Y-2650600D02*
X-12925300Y-2650600D01*
X-10300000Y3798000D02*
X-10300000Y3610000D01*
X-11190000Y-10900000D02*
X-9751600Y-10900000D01*
X-11855800Y10130000D02*
X-13379400Y10130000D01*
X-7985000Y4440000D02*
X-8627000Y3798000D01*
X-8673900Y13266700D02*
X-8783000Y13266700D01*
X-5672600Y16268000D02*
X2462200Y16268000D01*
X-12049300Y7767100D02*
X-11630000Y8186400D01*
X2713600Y16519400D02*
X2462200Y16268000D01*
X-11818600Y-981100D02*
X-11818600Y833000D01*
X-12337500Y-1500000D02*
X-11818600Y-981100D01*
X8414200Y3500000D02*
X6000000Y1085800D01*
X-11630000Y8186400D02*
X-11630000Y9879400D01*
X-10300000Y3798000D02*
X-13301800Y3798000D01*
X-12925300Y-2650600D02*
X-14554800Y-4280100D01*
X-9736500Y-10367000D02*
X-9218600Y-10367000D01*
X-14554800Y-4280100D02*
X-14554800Y-5548700D01*
X-10203200Y11782600D02*
X-11855800Y10130000D01*
X-11855800Y10130000D02*
X-11855800Y10105200D01*
X-8783000Y13266700D02*
X-10139200Y11910500D01*
X-14554800Y-5548700D02*
X-9736500Y-10367000D01*
X-6216900Y15723700D02*
X-8673900Y13266700D01*
X-11585800Y-3500000D02*
X-12435200Y-2650600D01*
X-11855800Y10105200D02*
X-11630000Y9879400D01*
%TO.N,VIN*%
X3700000Y13450000D02*
X-6800000Y13450000D01*
X-6800000Y13450000D02*
X-6800000Y3250000D01*
X-13608400Y1383900D02*
X-14090500Y901800D01*
X-6800000Y3250000D02*
X-7750000Y3250000D01*
X3700000Y4650000D02*
X3700000Y13450000D01*
X-9607100Y1383900D02*
X-13608400Y1383900D01*
X4700000Y3650000D02*
X3700000Y4650000D01*
X-7741000Y3250000D02*
X-9607100Y1383900D01*
%TO.N,CHG_INH*%
X-8467000Y9961500D02*
X-10015800Y8412700D01*
X-10015800Y8412700D02*
X-10015800Y6161700D01*
%TO.N,CHG_STAT*%
X-9705900Y2040500D02*
X-7421700Y4324700D01*
X-7421700Y9901400D02*
X-7817000Y10296700D01*
X-7421700Y4324700D02*
X-7421700Y9901400D01*
X-11345400Y2040500D02*
X-9705900Y2040500D01*
%TO.N,VBAT*%
X-7705200Y-9127600D02*
X-11157800Y-5675000D01*
X-11438200Y-5032800D02*
X-11524600Y-5032800D01*
X-13487500Y-5346100D02*
X-8662600Y-10171000D01*
X-11553700Y-5000000D02*
X-11553700Y-4296300D01*
X-11553700Y-5003700D02*
X-11553700Y-5000000D01*
X-11553700Y-4296300D02*
X-12670400Y-3179600D01*
X-8662600Y-10658600D02*
X-8382200Y-10939000D01*
X-14076100Y-5346100D02*
X-13487500Y-5346100D01*
X-11231200Y-5675000D02*
X-11275000Y-5631200D01*
X-11275000Y-5196000D02*
X-11438200Y-5032800D01*
X-7985500Y-10939000D02*
X-7705200Y-10658700D01*
X-10850000Y-5000000D02*
X-11553700Y-5000000D01*
X-11157800Y-5675000D02*
X-11231200Y-5675000D01*
X-11275000Y-5631200D02*
X-11275000Y-5196000D01*
X-8382200Y-10939000D02*
X-7985500Y-10939000D01*
X-7705200Y-10658700D02*
X-7705200Y-9127600D01*
X-8662600Y-10171000D02*
X-8662600Y-10658600D01*
X-11524600Y-5032800D02*
X-11553700Y-5003700D01*
%TO.N,SWDIO*%
X-2770000Y12600000D02*
X-2770000Y10470000D01*
X-2770000Y10470000D02*
X2350000Y5350000D01*
%TO.N,SWDCLK*%
X3150000Y5350000D02*
X3150000Y9220000D01*
X3150000Y9220000D02*
X-230000Y12600000D01*
%TO.N,BAT_P*%
X-9550000Y-5000000D02*
X-8632400Y-5000000D01*
X-8632400Y-5000000D02*
X-8403400Y-4771000D01*
%TO.N,PROG_SW*%
X-15067900Y143100D02*
X-15067900Y625800D01*
X-12535100Y3158600D02*
X-11385400Y3158600D01*
X-15067900Y625800D02*
X-12535100Y3158600D01*
%TD*%
%TA.AperFunction,Conductor*%
%TO.N,GND*%
G36*
X17082830Y4531093D02*
G01*
X17118794Y4481593D01*
X17120053Y4477404D01*
X17168331Y4302944D01*
X17169511Y4298231D01*
X17358784Y3455365D01*
X17359732Y3450599D01*
X17507423Y2599444D01*
X17508136Y2594638D01*
X17613881Y1737272D01*
X17614358Y1732436D01*
X17677910Y870884D01*
X17678148Y866031D01*
X17699349Y2430D01*
X17699349Y-2430D01*
X17678148Y-866031D01*
X17677910Y-870884D01*
X17614358Y-1732436D01*
X17613881Y-1737272D01*
X17508136Y-2594638D01*
X17507423Y-2599444D01*
X17359732Y-3450599D01*
X17358784Y-3455365D01*
X17169511Y-4298231D01*
X17168331Y-4302944D01*
X16937927Y-5135521D01*
X16936516Y-5140171D01*
X16665536Y-5960439D01*
X16663899Y-5965015D01*
X16353001Y-6770988D01*
X16351142Y-6775477D01*
X16001057Y-7565256D01*
X15998979Y-7569649D01*
X15610579Y-8341267D01*
X15608289Y-8345552D01*
X15182487Y-9097196D01*
X15179989Y-9101364D01*
X14717821Y-9831210D01*
X14715121Y-9835250D01*
X14217699Y-10541535D01*
X14214804Y-10545438D01*
X13683334Y-11226455D01*
X13680252Y-11230211D01*
X13115978Y-11884362D01*
X13112714Y-11887963D01*
X12517047Y-12513611D01*
X12513612Y-12517046D01*
X11887953Y-13112723D01*
X11884352Y-13115987D01*
X11778066Y-13207669D01*
X11721653Y-13231361D01*
X11662089Y-13217369D01*
X11622125Y-13171039D01*
X11615250Y-13145630D01*
X11589048Y-12946606D01*
X11369267Y-12416008D01*
X11019646Y-11960373D01*
X11019641Y-11960369D01*
X11019640Y-11960368D01*
X10825754Y-11811595D01*
X10564011Y-11610752D01*
X10561647Y-11609773D01*
X10109458Y-11422470D01*
X10033413Y-11390971D01*
X10033411Y-11390970D01*
X10033409Y-11390970D01*
X9464012Y-11316008D01*
X9464010Y-11316008D01*
X8894612Y-11390970D01*
X8894606Y-11390972D01*
X8364012Y-11610751D01*
X7908381Y-11960368D01*
X7908371Y-11960378D01*
X7558754Y-12416009D01*
X7338975Y-12946603D01*
X7338973Y-12946609D01*
X7304604Y-13207669D01*
X7264011Y-13516008D01*
X7338974Y-14085410D01*
X7558755Y-14616008D01*
X7908376Y-15071643D01*
X8364011Y-15421264D01*
X8364016Y-15421266D01*
X8368463Y-15423834D01*
X8409403Y-15469304D01*
X8415798Y-15530154D01*
X8385205Y-15583142D01*
X8367758Y-15595709D01*
X8345558Y-15608285D01*
X8341274Y-15610575D01*
X7569649Y-15998979D01*
X7565256Y-16001057D01*
X6989119Y-16256441D01*
X6928258Y-16262737D01*
X6875320Y-16232057D01*
X6850526Y-16176121D01*
X6850000Y-16165934D01*
X6850000Y-11749962D01*
X6849894Y-11741433D01*
X6849894Y-11741410D01*
X6842065Y-11422470D01*
X6841222Y-11405312D01*
X6817752Y-11087140D01*
X6816068Y-11070044D01*
X6777015Y-10753408D01*
X6774494Y-10736415D01*
X6768427Y-10701451D01*
X6719954Y-10422091D01*
X6716597Y-10405212D01*
X6687767Y-10276831D01*
X6646698Y-10093943D01*
X6642524Y-10077279D01*
X6578522Y-9846007D01*
X6557439Y-9769821D01*
X6557433Y-9769800D01*
X6552447Y-9753360D01*
X6452371Y-9450427D01*
X6446583Y-9434252D01*
X6446577Y-9434237D01*
X6446569Y-9434214D01*
X6331772Y-9136615D01*
X6331764Y-9136594D01*
X6325190Y-9120723D01*
X6195903Y-8829057D01*
X6195893Y-8829034D01*
X6188565Y-8813540D01*
X6094590Y-8626845D01*
X6045116Y-8528557D01*
X6037018Y-8513406D01*
X5879766Y-8235817D01*
X5870934Y-8221082D01*
X5700251Y-7951544D01*
X5690707Y-7937260D01*
X5636123Y-7859756D01*
X5568059Y-7763112D01*
X5550000Y-7706107D01*
X5550000Y-5320360D01*
X12147168Y-5320360D01*
X12147169Y-5320365D01*
X12179201Y-5414731D01*
X12244907Y-5489652D01*
X12244910Y-5489655D01*
X12311724Y-5522605D01*
X13615094Y-5871842D01*
X13652263Y-5874278D01*
X13689429Y-5876714D01*
X13689429Y-5876713D01*
X13689433Y-5876714D01*
X13783800Y-5844681D01*
X13858724Y-5778973D01*
X13891674Y-5712159D01*
X14240911Y-4408789D01*
X14243956Y-4362327D01*
X14245783Y-4334453D01*
X14245782Y-4334452D01*
X14245783Y-4334450D01*
X14213750Y-4240083D01*
X14213750Y-4240082D01*
X14148044Y-4165161D01*
X14148043Y-4165160D01*
X14148042Y-4165159D01*
X14081228Y-4132209D01*
X14081225Y-4132208D01*
X13373803Y-3942655D01*
X12777858Y-3782972D01*
X12777856Y-3782971D01*
X12777853Y-3782971D01*
X12703522Y-3778099D01*
X12703517Y-3778100D01*
X12609151Y-3810132D01*
X12534230Y-3875838D01*
X12534229Y-3875839D01*
X12501277Y-3942657D01*
X12237900Y-4925595D01*
X12180405Y-5140171D01*
X12152040Y-5246029D01*
X12147168Y-5320360D01*
X5550000Y-5320360D01*
X5550000Y-2323948D01*
X12943524Y-2323948D01*
X12943524Y-2501237D01*
X12978110Y-2675112D01*
X12978110Y-2675114D01*
X12999476Y-2726697D01*
X12999477Y-2726698D01*
X13422286Y-2482588D01*
X13447487Y-2576637D01*
X13503440Y-2673549D01*
X13572287Y-2742396D01*
X13146412Y-2988275D01*
X13269805Y-3111667D01*
X13417215Y-3210163D01*
X13581003Y-3278006D01*
X13754879Y-3312592D01*
X13754883Y-3312593D01*
X13932165Y-3312593D01*
X13932168Y-3312592D01*
X14106041Y-3278007D01*
X14106052Y-3278004D01*
X14157628Y-3256639D01*
X13913519Y-2833830D01*
X14007568Y-2808630D01*
X14104480Y-2752677D01*
X14173327Y-2683829D01*
X14419206Y-3109702D01*
X14542594Y-2986315D01*
X14542601Y-2986306D01*
X14641094Y-2838901D01*
X14708937Y-2675114D01*
X14708937Y-2675112D01*
X14743523Y-2501237D01*
X14743524Y-2501234D01*
X14743524Y-2323951D01*
X14743523Y-2323948D01*
X14708938Y-2150075D01*
X14708936Y-2150069D01*
X14687569Y-2098486D01*
X14264760Y-2342595D01*
X14239561Y-2248549D01*
X14183608Y-2151637D01*
X14114758Y-2082787D01*
X14540634Y-1836909D01*
X14417242Y-1713518D01*
X14269832Y-1615022D01*
X14106044Y-1547179D01*
X13932168Y-1512593D01*
X13754879Y-1512593D01*
X13581002Y-1547179D01*
X13580995Y-1547181D01*
X13529418Y-1568545D01*
X13529417Y-1568546D01*
X13773527Y-1991356D01*
X13679480Y-2016556D01*
X13582568Y-2072509D01*
X13513719Y-2141357D01*
X13267841Y-1715482D01*
X13144447Y-1838876D01*
X13045952Y-1986285D01*
X12978110Y-2150071D01*
X12978110Y-2150073D01*
X12943524Y-2323948D01*
X5550000Y-2323948D01*
X5550000Y37D01*
X5549894Y8565D01*
X5549894Y8589D01*
X5543630Y263741D01*
X5542788Y280899D01*
X5524012Y535436D01*
X5522328Y552532D01*
X5491085Y805842D01*
X5488565Y822835D01*
X5488565Y822838D01*
X5469945Y930143D01*
X5444930Y1074306D01*
X5441579Y1091155D01*
X5385658Y1340182D01*
X5381484Y1356846D01*
X5313411Y1602829D01*
X5308424Y1619268D01*
X5228364Y1861615D01*
X5222576Y1877790D01*
X5130721Y2115917D01*
X5124146Y2131788D01*
X5020717Y2365120D01*
X5019724Y2367219D01*
X5013379Y2380636D01*
X4972925Y2461004D01*
X4898619Y2608626D01*
X4890521Y2623777D01*
X4764719Y2845848D01*
X4755887Y2860583D01*
X4695614Y2955764D01*
X4684994Y2972536D01*
X4669837Y3031814D01*
X4692416Y3088680D01*
X4744109Y3121414D01*
X4768635Y3124500D01*
X4769181Y3124500D01*
X4769183Y3124500D01*
X4902836Y3160312D01*
X5022665Y3229495D01*
X5120505Y3327335D01*
X5189688Y3447164D01*
X5225500Y3580817D01*
X5225500Y3719183D01*
X5189688Y3852836D01*
X5120505Y3972665D01*
X5022665Y4070505D01*
X4902836Y4139688D01*
X4769183Y4175500D01*
X4769181Y4175500D01*
X4675834Y4175500D01*
X4617643Y4194407D01*
X4605830Y4204496D01*
X4429330Y4380996D01*
X4401553Y4435513D01*
X4411124Y4495945D01*
X4454389Y4539210D01*
X4499334Y4550000D01*
X7800000Y4550000D01*
X17024639Y4550000D01*
X17082830Y4531093D01*
G37*
%TD.AperFunction*%
%TA.AperFunction,Conductor*%
G36*
X866031Y17678148D02*
G01*
X870884Y17677910D01*
X1732436Y17614358D01*
X1737272Y17613881D01*
X2594638Y17508136D01*
X2599444Y17507423D01*
X3450599Y17359732D01*
X3455365Y17358784D01*
X4298231Y17169511D01*
X4302943Y17168331D01*
X4389372Y17144414D01*
X4440413Y17110672D01*
X4461872Y17053373D01*
X4445554Y16994404D01*
X4397691Y16956289D01*
X4362969Y16950000D01*
X4050000Y16950000D01*
X4050000Y16949999D01*
X4050000Y13795255D01*
X4031093Y13737064D01*
X3981593Y13701100D01*
X3920407Y13701100D01*
X3901500Y13709519D01*
X3899862Y13710464D01*
X3899862Y13710465D01*
X3825638Y13753318D01*
X3742853Y13775500D01*
X-3890323Y13775500D01*
X-3948514Y13794407D01*
X-3984478Y13843907D01*
X-3984478Y13905093D01*
X-3960328Y13944501D01*
X-3914995Y13989835D01*
X-3845812Y14109664D01*
X-3810000Y14243317D01*
X-3810000Y14381683D01*
X-3845812Y14515336D01*
X-3914995Y14635165D01*
X-4012835Y14733005D01*
X-4132664Y14802188D01*
X-4266317Y14838000D01*
X-4404683Y14838000D01*
X-4538336Y14802188D01*
X-4658165Y14733005D01*
X-4676049Y14715121D01*
X-4724175Y14666996D01*
X-4778692Y14639219D01*
X-4794178Y14638000D01*
X-6820968Y14638000D01*
X-6820984Y14638001D01*
X-6827047Y14638001D01*
X-6912752Y14638001D01*
X-6995538Y14615818D01*
X-7069762Y14572965D01*
X-7130365Y14512362D01*
X-7130366Y14512359D01*
X-9625678Y12017049D01*
X-10009231Y11633496D01*
X-10063748Y11605719D01*
X-10079235Y11604500D01*
X-10172583Y11604500D01*
X-10306236Y11568688D01*
X-10426065Y11499505D01*
X-10523905Y11401665D01*
X-10593088Y11281836D01*
X-10628900Y11148183D01*
X-10628900Y11009817D01*
X-10593088Y10876164D01*
X-10523905Y10756335D01*
X-10426065Y10658495D01*
X-10306236Y10589312D01*
X-10172583Y10553500D01*
X-10172581Y10553500D01*
X-10034219Y10553500D01*
X-10034217Y10553500D01*
X-9900564Y10589312D01*
X-9780735Y10658495D01*
X-9682895Y10756335D01*
X-9613712Y10876164D01*
X-9577900Y11009817D01*
X-9577900Y11103165D01*
X-9558993Y11161356D01*
X-9548904Y11173169D01*
X-7294504Y13427569D01*
X-7239987Y13455346D01*
X-7179555Y13445775D01*
X-7136290Y13402510D01*
X-7125500Y13357565D01*
X-7125500Y10498342D01*
X-7144407Y10440151D01*
X-7193907Y10404187D01*
X-7255093Y10404187D01*
X-7304593Y10440151D01*
X-7320125Y10472716D01*
X-7327312Y10499536D01*
X-7396495Y10619365D01*
X-7494335Y10717205D01*
X-7614164Y10786388D01*
X-7747817Y10822200D01*
X-7886183Y10822200D01*
X-8019836Y10786388D01*
X-8139665Y10717205D01*
X-8237505Y10619365D01*
X-8287183Y10533318D01*
X-8332650Y10492379D01*
X-8391375Y10486206D01*
X-8391383Y10486153D01*
X-8391604Y10486182D01*
X-8393500Y10485983D01*
X-8397631Y10486975D01*
X-8397817Y10487000D01*
X-8536183Y10487000D01*
X-8669836Y10451188D01*
X-8789665Y10382005D01*
X-8887505Y10284165D01*
X-8956688Y10164336D01*
X-8992500Y10030683D01*
X-8992500Y10030681D01*
X-8992500Y9937334D01*
X-9011407Y9879143D01*
X-9021490Y9867336D01*
X-10276265Y8612562D01*
X-10319118Y8538339D01*
X-10319118Y8538338D01*
X-10341300Y8455553D01*
X-10341300Y8455552D01*
X-10341300Y6620377D01*
X-10360207Y6562186D01*
X-10370290Y6550379D01*
X-10436305Y6484365D01*
X-10505488Y6364536D01*
X-10541300Y6230883D01*
X-10541300Y6092517D01*
X-10505488Y5958864D01*
X-10436305Y5839035D01*
X-10338465Y5741195D01*
X-10218636Y5672012D01*
X-10084983Y5636200D01*
X-10084981Y5636200D01*
X-9946619Y5636200D01*
X-9946617Y5636200D01*
X-9812964Y5672012D01*
X-9693135Y5741195D01*
X-9595295Y5839035D01*
X-9526112Y5958864D01*
X-9490300Y6092517D01*
X-9490300Y6230883D01*
X-9526112Y6364536D01*
X-9595295Y6484365D01*
X-9661305Y6550375D01*
X-9689081Y6604890D01*
X-9690300Y6620377D01*
X-9690300Y8236865D01*
X-9671393Y8295056D01*
X-9661304Y8306869D01*
X-8561169Y9407004D01*
X-8506652Y9434781D01*
X-8491165Y9436000D01*
X-8397819Y9436000D01*
X-8397817Y9436000D01*
X-8264164Y9471812D01*
X-8144335Y9540995D01*
X-8046495Y9638835D01*
X-8046494Y9638836D01*
X-7996816Y9724880D01*
X-7951346Y9765820D01*
X-7892622Y9771991D01*
X-7892615Y9772047D01*
X-7892383Y9772016D01*
X-7890496Y9772215D01*
X-7886367Y9771224D01*
X-7886183Y9771200D01*
X-7846200Y9771200D01*
X-7788009Y9752293D01*
X-7752045Y9702793D01*
X-7747200Y9672200D01*
X-7747200Y4500534D01*
X-7766107Y4442343D01*
X-7776196Y4430530D01*
X-9811731Y2394996D01*
X-9866248Y2367219D01*
X-9881735Y2366000D01*
X-10886722Y2366000D01*
X-10944913Y2384907D01*
X-10956725Y2394996D01*
X-11022732Y2461002D01*
X-11022735Y2461005D01*
X-11134204Y2525361D01*
X-11175143Y2570829D01*
X-11181539Y2631679D01*
X-11150946Y2684667D01*
X-11134203Y2696832D01*
X-11062736Y2738094D01*
X-10964895Y2835935D01*
X-10895712Y2955764D01*
X-10863432Y3076235D01*
X-10859900Y3089417D01*
X-10859900Y3227783D01*
X-10895712Y3361436D01*
X-10964895Y3481265D01*
X-11062735Y3579105D01*
X-11182564Y3648288D01*
X-11316217Y3684100D01*
X-11454583Y3684100D01*
X-11588236Y3648288D01*
X-11708065Y3579105D01*
X-11741071Y3546099D01*
X-11774075Y3513096D01*
X-11828592Y3485319D01*
X-11844078Y3484100D01*
X-12492247Y3484100D01*
X-12577953Y3484100D01*
X-12660739Y3461918D01*
X-12660741Y3461916D01*
X-12660743Y3461916D01*
X-12692931Y3443332D01*
X-12734962Y3419065D01*
X-15328365Y825662D01*
X-15328367Y825657D01*
X-15328368Y825657D01*
X-15371216Y751442D01*
X-15371218Y751438D01*
X-15380757Y715841D01*
X-15387531Y690555D01*
X-15393054Y669941D01*
X-15393399Y668655D01*
X-15393400Y668652D01*
X-15393400Y601777D01*
X-15412307Y543586D01*
X-15422390Y531779D01*
X-15488405Y465765D01*
X-15557588Y345936D01*
X-15593400Y212283D01*
X-15593400Y73917D01*
X-15557588Y-59736D01*
X-15488405Y-179565D01*
X-15390565Y-277405D01*
X-15270736Y-346588D01*
X-15137083Y-382400D01*
X-15137081Y-382400D01*
X-14998719Y-382400D01*
X-14998717Y-382400D01*
X-14865064Y-346588D01*
X-14745235Y-277405D01*
X-14647395Y-179565D01*
X-14578212Y-59736D01*
X-14542400Y73917D01*
X-14542400Y212283D01*
X-14578212Y345936D01*
X-14612585Y405472D01*
X-14625306Y465320D01*
X-14600419Y521215D01*
X-14547431Y551808D01*
X-14486581Y545412D01*
X-14456847Y524977D01*
X-14413165Y481295D01*
X-14293336Y412112D01*
X-14159683Y376300D01*
X-14159681Y376300D01*
X-14021319Y376300D01*
X-14021317Y376300D01*
X-13887664Y412112D01*
X-13767835Y481295D01*
X-13669995Y579135D01*
X-13600812Y698964D01*
X-13565000Y832617D01*
X-13565000Y925965D01*
X-13546093Y984156D01*
X-13536004Y995969D01*
X-13502569Y1029404D01*
X-13448052Y1057181D01*
X-13432565Y1058400D01*
X-9564249Y1058400D01*
X-9564247Y1058400D01*
X-9504921Y1074296D01*
X-9481456Y1080583D01*
X-9407242Y1123431D01*
X-7835169Y2695504D01*
X-7780652Y2723281D01*
X-7765165Y2724500D01*
X-7680819Y2724500D01*
X-7680817Y2724500D01*
X-7547164Y2760312D01*
X-7427335Y2829495D01*
X-7427334Y2829495D01*
X-7427332Y2829497D01*
X-7361325Y2895504D01*
X-7306808Y2923281D01*
X-7291322Y2924500D01*
X-6757149Y2924500D01*
X-6757147Y2924500D01*
X-6674362Y2946682D01*
X-6600138Y2989535D01*
X-6539535Y3050138D01*
X-6496682Y3124362D01*
X-6474500Y3207147D01*
X-6474500Y13025500D01*
X-6455593Y13083691D01*
X-6406093Y13119655D01*
X-6375500Y13124500D01*
X-6047374Y13124500D01*
X-5989183Y13105593D01*
X-5953219Y13056093D01*
X-5953219Y12994907D01*
X-5965059Y12970497D01*
X-5975084Y12955495D01*
X-6031658Y12818913D01*
X-6060500Y12673918D01*
X-6060500Y12526082D01*
X-6031658Y12381087D01*
X-5975084Y12244505D01*
X-5892951Y12121584D01*
X-5788416Y12017049D01*
X-5665495Y11934916D01*
X-5665493Y11934915D01*
X-5528914Y11878342D01*
X-5383918Y11849500D01*
X-5236079Y11849500D01*
X-5107606Y11875056D01*
X-5046845Y11867864D01*
X-5018288Y11847961D01*
X-4565983Y11395655D01*
X-4538206Y11341139D01*
X-4540360Y11300030D01*
X-4565400Y11206583D01*
X-4565400Y11068217D01*
X-4529588Y10934564D01*
X-4460405Y10814735D01*
X-4362565Y10716895D01*
X-4242736Y10647712D01*
X-4109083Y10611900D01*
X-4109081Y10611900D01*
X-3970719Y10611900D01*
X-3970717Y10611900D01*
X-3837064Y10647712D01*
X-3717235Y10716895D01*
X-3619395Y10814735D01*
X-3550212Y10934564D01*
X-3514400Y11068217D01*
X-3514400Y11206583D01*
X-3550212Y11340236D01*
X-3619395Y11460065D01*
X-3717235Y11557905D01*
X-3837064Y11627088D01*
X-3865668Y11634752D01*
X-3910048Y11660374D01*
X-4557962Y12308288D01*
X-4585739Y12362805D01*
X-4585056Y12397606D01*
X-4559500Y12526079D01*
X-4559500Y12673918D01*
X-4588342Y12818914D01*
X-4644915Y12955494D01*
X-4654940Y12970497D01*
X-4671550Y13029385D01*
X-4650374Y13086789D01*
X-4599500Y13120783D01*
X-4572626Y13124500D01*
X-3507374Y13124500D01*
X-3449183Y13105593D01*
X-3413219Y13056093D01*
X-3413219Y12994907D01*
X-3425059Y12970497D01*
X-3435084Y12955495D01*
X-3491658Y12818913D01*
X-3520500Y12673918D01*
X-3520500Y12526082D01*
X-3491658Y12381087D01*
X-3435084Y12244505D01*
X-3352951Y12121584D01*
X-3248416Y12017049D01*
X-3203770Y11987217D01*
X-3139498Y11944272D01*
X-3101619Y11896222D01*
X-3095500Y11861957D01*
X-3095500Y10512853D01*
X-3095500Y10427147D01*
X-3073318Y10344361D01*
X-3073316Y10344358D01*
X-3073316Y10344356D01*
X-3030468Y10270142D01*
X-3030467Y10270141D01*
X-3030465Y10270138D01*
X-1819978Y9059651D01*
X1790386Y5449286D01*
X1818163Y5394769D01*
X1808592Y5334337D01*
X1765327Y5291072D01*
X1704895Y5281501D01*
X1689332Y5285277D01*
X1619268Y5308424D01*
X1602829Y5313411D01*
X1356846Y5381484D01*
X1340182Y5385658D01*
X1126855Y5433562D01*
X1091169Y5441576D01*
X1091163Y5441577D01*
X1091155Y5441579D01*
X1074306Y5444930D01*
X927077Y5470476D01*
X822838Y5488565D01*
X805836Y5491086D01*
X639800Y5511564D01*
X552532Y5522328D01*
X535436Y5524012D01*
X280899Y5542788D01*
X263741Y5543630D01*
X41833Y5549077D01*
X8596Y5549894D01*
X8589Y5549894D01*
X-8589Y5549894D01*
X-8596Y5549894D01*
X-41833Y5549077D01*
X-263741Y5543630D01*
X-280899Y5542788D01*
X-535436Y5524012D01*
X-552532Y5522328D01*
X-639800Y5511564D01*
X-805836Y5491086D01*
X-822838Y5488565D01*
X-927077Y5470476D01*
X-1074306Y5444930D01*
X-1091155Y5441579D01*
X-1091163Y5441577D01*
X-1091169Y5441576D01*
X-1126855Y5433562D01*
X-1340182Y5385658D01*
X-1356846Y5381484D01*
X-1602829Y5313411D01*
X-1619268Y5308424D01*
X-1861615Y5228364D01*
X-1877790Y5222576D01*
X-1877817Y5222565D01*
X-1877827Y5222562D01*
X-1964981Y5188942D01*
X-2115917Y5130721D01*
X-2131788Y5124146D01*
X-2365120Y5020717D01*
X-2365128Y5020713D01*
X-2365142Y5020707D01*
X-2380636Y5013379D01*
X-2380648Y5013372D01*
X-2380650Y5013372D01*
X-2608626Y4898619D01*
X-2623777Y4890521D01*
X-2845848Y4764719D01*
X-2860583Y4755887D01*
X-3076214Y4619340D01*
X-3090498Y4609796D01*
X-3299169Y4462833D01*
X-3312967Y4452600D01*
X-3514176Y4295575D01*
X-3527455Y4284677D01*
X-3720717Y4117968D01*
X-3733445Y4106432D01*
X-3918294Y3930441D01*
X-3930441Y3918294D01*
X-4106432Y3733445D01*
X-4117968Y3720717D01*
X-4284677Y3527455D01*
X-4295575Y3514176D01*
X-4452600Y3312967D01*
X-4462833Y3299169D01*
X-4609796Y3090498D01*
X-4619340Y3076214D01*
X-4755887Y2860583D01*
X-4764719Y2845848D01*
X-4890521Y2623777D01*
X-4898619Y2608626D01*
X-4972925Y2461004D01*
X-5013379Y2380636D01*
X-5019724Y2367219D01*
X-5020717Y2365120D01*
X-5124146Y2131788D01*
X-5130721Y2115917D01*
X-5222576Y1877790D01*
X-5228364Y1861615D01*
X-5308424Y1619268D01*
X-5313411Y1602829D01*
X-5381484Y1356846D01*
X-5385658Y1340182D01*
X-5441579Y1091155D01*
X-5444930Y1074306D01*
X-5469945Y930143D01*
X-5488565Y822838D01*
X-5488565Y822835D01*
X-5491085Y805842D01*
X-5522328Y552532D01*
X-5524012Y535436D01*
X-5542788Y280899D01*
X-5543630Y263741D01*
X-5549894Y8589D01*
X-5549894Y8565D01*
X-5550000Y37D01*
X-5550000Y-7706107D01*
X-5568059Y-7763112D01*
X-5636123Y-7859756D01*
X-5690707Y-7937260D01*
X-5700251Y-7951544D01*
X-5870934Y-8221082D01*
X-5879766Y-8235817D01*
X-6037018Y-8513406D01*
X-6045116Y-8528557D01*
X-6094590Y-8626845D01*
X-6188565Y-8813540D01*
X-6195893Y-8829034D01*
X-6195903Y-8829057D01*
X-6325190Y-9120723D01*
X-6331764Y-9136594D01*
X-6331772Y-9136615D01*
X-6446569Y-9434214D01*
X-6446577Y-9434237D01*
X-6446583Y-9434252D01*
X-6452371Y-9450427D01*
X-6552447Y-9753360D01*
X-6557433Y-9769800D01*
X-6557439Y-9769821D01*
X-6578522Y-9846007D01*
X-6642524Y-10077279D01*
X-6646698Y-10093943D01*
X-6687767Y-10276831D01*
X-6716597Y-10405212D01*
X-6719954Y-10422091D01*
X-6768427Y-10701451D01*
X-6774494Y-10736415D01*
X-6777015Y-10753408D01*
X-6816068Y-11070044D01*
X-6817752Y-11087140D01*
X-6841222Y-11405312D01*
X-6842065Y-11422470D01*
X-6849894Y-11741410D01*
X-6849894Y-11741433D01*
X-6850000Y-11749962D01*
X-6850000Y-16165934D01*
X-6868907Y-16224125D01*
X-6918407Y-16260089D01*
X-6979593Y-16260089D01*
X-6989119Y-16256441D01*
X-7565256Y-16001057D01*
X-7569649Y-15998979D01*
X-8341267Y-15610579D01*
X-8345552Y-15608289D01*
X-9097196Y-15182487D01*
X-9101364Y-15179989D01*
X-9831210Y-14717821D01*
X-9835250Y-14715121D01*
X-10541535Y-14217699D01*
X-10545438Y-14214804D01*
X-11226455Y-13683334D01*
X-11230211Y-13680252D01*
X-11884362Y-13115978D01*
X-11887963Y-13112714D01*
X-12513611Y-12517047D01*
X-12517046Y-12513612D01*
X-13112723Y-11887953D01*
X-13115987Y-11884352D01*
X-13680235Y-11230232D01*
X-13683317Y-11226476D01*
X-14214796Y-10545449D01*
X-14217691Y-10541546D01*
X-14715121Y-9835250D01*
X-14717821Y-9831210D01*
X-15179989Y-9101364D01*
X-15182487Y-9097196D01*
X-15608293Y-8345544D01*
X-15610583Y-8341259D01*
X-15998979Y-7569649D01*
X-16001057Y-7565256D01*
X-16351142Y-6775477D01*
X-16353001Y-6770988D01*
X-16663899Y-5965015D01*
X-16665536Y-5960439D01*
X-16883226Y-5301483D01*
X-16891342Y-5276917D01*
X-14601600Y-5276917D01*
X-14601600Y-5415283D01*
X-14565788Y-5548936D01*
X-14496605Y-5668765D01*
X-14398765Y-5766605D01*
X-14278936Y-5835788D01*
X-14145283Y-5871600D01*
X-14145281Y-5871600D01*
X-14006919Y-5871600D01*
X-14006917Y-5871600D01*
X-13873264Y-5835788D01*
X-13753435Y-5766605D01*
X-13753432Y-5766602D01*
X-13710381Y-5723552D01*
X-13655864Y-5695775D01*
X-13595432Y-5705347D01*
X-13570377Y-5723549D01*
X-11072845Y-8221082D01*
X-9017096Y-10276831D01*
X-8989319Y-10331348D01*
X-8988100Y-10346835D01*
X-8988100Y-10615747D01*
X-8988100Y-10701453D01*
X-8965918Y-10784239D01*
X-8965916Y-10784241D01*
X-8965916Y-10784243D01*
X-8965858Y-10784343D01*
X-8923065Y-10858462D01*
X-8642666Y-11138861D01*
X-8642665Y-11138862D01*
X-8582062Y-11199465D01*
X-8507838Y-11242318D01*
X-8425053Y-11264500D01*
X-8425051Y-11264500D01*
X-7942649Y-11264500D01*
X-7942647Y-11264500D01*
X-7859861Y-11242318D01*
X-7859858Y-11242316D01*
X-7859856Y-11242316D01*
X-7785642Y-11199468D01*
X-7785640Y-11199466D01*
X-7785638Y-11199465D01*
X-7444735Y-10858562D01*
X-7444733Y-10858559D01*
X-7444731Y-10858557D01*
X-7401883Y-10784343D01*
X-7393594Y-10753408D01*
X-7379700Y-10701553D01*
X-7379700Y-10615847D01*
X-7379700Y-9178440D01*
X-7379699Y-9178427D01*
X-7379699Y-9084744D01*
X-7401881Y-9001961D01*
X-7428996Y-8954997D01*
X-7444652Y-8927882D01*
X-7444735Y-8927738D01*
X-7444735Y-8927737D01*
X-7444737Y-8927735D01*
X-7505340Y-8867133D01*
X-10215022Y-6157450D01*
X-10242799Y-6102933D01*
X-10233228Y-6042501D01*
X-10189963Y-5999236D01*
X-10129531Y-5989665D01*
X-10125745Y-5990340D01*
X-10074674Y-6000500D01*
X-10074673Y-6000500D01*
X-9025327Y-6000500D01*
X-9025326Y-6000500D01*
X-9025320Y-6000498D01*
X-9025315Y-6000498D01*
X-9007808Y-5997015D01*
X-8952260Y-5985966D01*
X-8869399Y-5930601D01*
X-8869397Y-5930599D01*
X-8814035Y-5847742D01*
X-8814033Y-5847736D01*
X-8799501Y-5774684D01*
X-8799500Y-5774672D01*
X-8799500Y-5424500D01*
X-8780593Y-5366309D01*
X-8731093Y-5330345D01*
X-8700500Y-5325500D01*
X-8589549Y-5325500D01*
X-8589547Y-5325500D01*
X-8506761Y-5303318D01*
X-8506759Y-5303317D01*
X-8500493Y-5301638D01*
X-8500287Y-5302403D01*
X-8470609Y-5296500D01*
X-8334219Y-5296500D01*
X-8334217Y-5296500D01*
X-8200564Y-5260688D01*
X-8080735Y-5191505D01*
X-7982895Y-5093665D01*
X-7913712Y-4973836D01*
X-7877900Y-4840183D01*
X-7877900Y-4701817D01*
X-7913712Y-4568164D01*
X-7982895Y-4448335D01*
X-8080735Y-4350495D01*
X-8200564Y-4281312D01*
X-8334217Y-4245500D01*
X-8472583Y-4245500D01*
X-8606236Y-4281312D01*
X-8651001Y-4307157D01*
X-8710849Y-4319878D01*
X-8766744Y-4294991D01*
X-8797337Y-4242003D01*
X-8798585Y-4230118D01*
X-8799024Y-4230162D01*
X-8799501Y-4225315D01*
X-8814033Y-4152263D01*
X-8814035Y-4152257D01*
X-8869397Y-4069400D01*
X-8869400Y-4069397D01*
X-8952257Y-4014035D01*
X-8952263Y-4014033D01*
X-9025315Y-3999501D01*
X-9025325Y-3999500D01*
X-9025326Y-3999500D01*
X-10074674Y-3999500D01*
X-10074684Y-3999501D01*
X-10147736Y-4014033D01*
X-10147740Y-4014034D01*
X-10147742Y-4014035D01*
X-10156749Y-4017766D01*
X-10157583Y-4015751D01*
X-10203888Y-4028811D01*
X-10242613Y-4016227D01*
X-10243251Y-4017766D01*
X-10252259Y-4014034D01*
X-10252260Y-4014034D01*
X-10252261Y-4014033D01*
X-10252263Y-4014033D01*
X-10325315Y-3999501D01*
X-10325325Y-3999500D01*
X-10325326Y-3999500D01*
X-11349164Y-3999500D01*
X-11407355Y-3980593D01*
X-11419168Y-3970504D01*
X-12115904Y-3273768D01*
X-12143681Y-3219251D01*
X-12144900Y-3203764D01*
X-12144900Y-3110418D01*
X-12180712Y-2976764D01*
X-12249895Y-2856935D01*
X-12347735Y-2759095D01*
X-12467564Y-2689912D01*
X-12484903Y-2685266D01*
X-12601217Y-2654100D01*
X-12739583Y-2654100D01*
X-12873236Y-2689912D01*
X-12993065Y-2759095D01*
X-13090905Y-2856935D01*
X-13160088Y-2976764D01*
X-13195900Y-3110417D01*
X-13195900Y-3248783D01*
X-13160088Y-3382436D01*
X-13090905Y-3502265D01*
X-12993065Y-3600105D01*
X-12873236Y-3669288D01*
X-12739583Y-3705100D01*
X-12646235Y-3705100D01*
X-12588044Y-3724007D01*
X-12576231Y-3734096D01*
X-11908196Y-4402131D01*
X-11880419Y-4456648D01*
X-11879200Y-4472135D01*
X-11879200Y-4957147D01*
X-11879200Y-4960847D01*
X-11879200Y-5046553D01*
X-11857018Y-5129339D01*
X-11816301Y-5199861D01*
X-11816300Y-5199866D01*
X-11816299Y-5199865D01*
X-11814165Y-5203562D01*
X-11785065Y-5232662D01*
X-11724462Y-5293265D01*
X-11691355Y-5312379D01*
X-11668628Y-5325501D01*
X-11660295Y-5330311D01*
X-11650238Y-5336118D01*
X-11650236Y-5336118D01*
X-11650005Y-5336252D01*
X-11609061Y-5381719D01*
X-11600500Y-5421991D01*
X-11600500Y-5774674D01*
X-11585966Y-5847740D01*
X-11530601Y-5930601D01*
X-11447740Y-5985966D01*
X-11374674Y-6000500D01*
X-11333635Y-6000500D01*
X-11275444Y-6019407D01*
X-11263631Y-6029496D01*
X-8059696Y-9233430D01*
X-8031919Y-9287947D01*
X-8030700Y-9303434D01*
X-8030700Y-10482865D01*
X-8049607Y-10541056D01*
X-8059696Y-10552869D01*
X-8091331Y-10584504D01*
X-8145848Y-10612281D01*
X-8161335Y-10613500D01*
X-8206365Y-10613500D01*
X-8264556Y-10594593D01*
X-8276369Y-10584504D01*
X-8308104Y-10552769D01*
X-8335881Y-10498252D01*
X-8337100Y-10482765D01*
X-8337100Y-10128146D01*
X-8343381Y-10104706D01*
X-8359283Y-10045356D01*
X-8402131Y-9971142D01*
X-13287642Y-5085631D01*
X-13361857Y-5042783D01*
X-13361855Y-5042783D01*
X-13405850Y-5030995D01*
X-13444647Y-5020600D01*
X-13444649Y-5020600D01*
X-13617422Y-5020600D01*
X-13675613Y-5001693D01*
X-13687425Y-4991604D01*
X-13753432Y-4925597D01*
X-13873264Y-4856412D01*
X-14006917Y-4820600D01*
X-14145283Y-4820600D01*
X-14278936Y-4856412D01*
X-14398765Y-4925595D01*
X-14496605Y-5023435D01*
X-14565788Y-5143264D01*
X-14601600Y-5276917D01*
X-16891342Y-5276917D01*
X-16936516Y-5140172D01*
X-16936516Y-5140171D01*
X-16937927Y-5135521D01*
X-17168331Y-4302944D01*
X-17169511Y-4298231D01*
X-17358784Y-3455365D01*
X-17359732Y-3450599D01*
X-17507423Y-2599444D01*
X-17508136Y-2594638D01*
X-17613881Y-1737272D01*
X-17614358Y-1732436D01*
X-17677910Y-870884D01*
X-17678148Y-866031D01*
X-17699349Y-2430D01*
X-17699349Y2430D01*
X-17678148Y866031D01*
X-17677910Y870884D01*
X-17614358Y1732436D01*
X-17613881Y1737272D01*
X-17508136Y2594638D01*
X-17507423Y2599444D01*
X-17359732Y3450599D01*
X-17358784Y3455365D01*
X-17227550Y4039774D01*
X-17196353Y4092408D01*
X-17140176Y4116653D01*
X-17080477Y4103247D01*
X-17060952Y4088087D01*
X-17060567Y4087702D01*
X-17060563Y4087697D01*
X-17060558Y4087693D01*
X-17060557Y4087692D01*
X-16959013Y4009775D01*
X-16604928Y3738076D01*
X-16604926Y3738075D01*
X-16388161Y3648288D01*
X-16074330Y3518295D01*
X-16074328Y3518294D01*
X-16074326Y3518294D01*
X-15504929Y3443332D01*
X-15504928Y3443332D01*
X-15504927Y3443332D01*
X-14935529Y3518294D01*
X-14935523Y3518296D01*
X-14404929Y3738075D01*
X-13949298Y4087692D01*
X-13949288Y4087702D01*
X-13599671Y4543333D01*
X-13379892Y5073927D01*
X-13379890Y5073933D01*
X-13304928Y5643331D01*
X-13304928Y5643332D01*
X-13379890Y6212730D01*
X-13379892Y6212736D01*
X-13442770Y6364536D01*
X-13599672Y6743332D01*
X-13949293Y7198967D01*
X-14404928Y7548588D01*
X-14935526Y7768369D01*
X-15393490Y7828661D01*
X-15504927Y7843332D01*
X-15504928Y7843332D01*
X-15701054Y7817511D01*
X-15761213Y7828661D01*
X-15803331Y7873043D01*
X-15811317Y7933705D01*
X-15802404Y7960176D01*
X-15610583Y8341259D01*
X-15608293Y8345544D01*
X-15182487Y9097196D01*
X-15179989Y9101364D01*
X-14717821Y9831210D01*
X-14715121Y9835250D01*
X-14217691Y10541546D01*
X-14214796Y10545449D01*
X-13683317Y11226476D01*
X-13680235Y11230232D01*
X-13115987Y11884352D01*
X-13112723Y11887953D01*
X-12517046Y12513612D01*
X-12513611Y12517047D01*
X-11887963Y13112714D01*
X-11884362Y13115978D01*
X-11230211Y13680252D01*
X-11226455Y13683334D01*
X-10545438Y14214804D01*
X-10541535Y14217699D01*
X-9835250Y14715121D01*
X-9831210Y14717821D01*
X-9101364Y15179989D01*
X-9097196Y15182487D01*
X-8345552Y15608289D01*
X-8341267Y15610579D01*
X-7569649Y15998979D01*
X-7565256Y16001057D01*
X-6775477Y16351142D01*
X-6770988Y16353001D01*
X-5965015Y16663899D01*
X-5960439Y16665536D01*
X-5140171Y16936516D01*
X-5135521Y16937927D01*
X-4302944Y17168331D01*
X-4298231Y17169511D01*
X-3455365Y17358784D01*
X-3450599Y17359732D01*
X-2599444Y17507423D01*
X-2594638Y17508136D01*
X-1737272Y17613881D01*
X-1732436Y17614358D01*
X-870884Y17677910D01*
X-866031Y17678148D01*
X-2430Y17699349D01*
X2430Y17699349D01*
X866031Y17678148D01*
G37*
%TD.AperFunction*%
%TA.AperFunction,Conductor*%
G36*
X3333691Y13105593D02*
G01*
X3369655Y13056093D01*
X3374500Y13025500D01*
X3374500Y9694833D01*
X3355593Y9636642D01*
X3306093Y9600678D01*
X3244907Y9600678D01*
X3205496Y9624829D01*
X1928682Y10901643D01*
X522035Y12308290D01*
X494260Y12362805D01*
X494942Y12397600D01*
X520500Y12526082D01*
X520500Y12673918D01*
X491658Y12818913D01*
X435084Y12955495D01*
X425059Y12970497D01*
X408450Y13029385D01*
X429626Y13086789D01*
X480500Y13120783D01*
X507374Y13124500D01*
X3275500Y13124500D01*
X3333691Y13105593D01*
G37*
%TD.AperFunction*%
%TD*%
M02*
