%TF.GenerationSoftware,KiCad,Pcbnew,10.0.6*%
%TF.CreationDate,2026-09-29T13:47:49+02:00*%
%TF.ProjectId,shotpuck,73686f74-7075-4636-9b2e-6b696361645f,rev?*%
%TF.SameCoordinates,Original*%
%TF.FileFunction,Legend,Bot*%
%TF.FilePolarity,Positive*%
%FSLAX46Y46*%
G04 Gerber Fmt 4.6, Leading zero omitted, Abs format (unit mm)*
G04 Created by KiCad (PCBNEW 10.0.6) date 2026-09-29 13:47:49*
%MOMM*%
%LPD*%
G01*
G04 APERTURE LIST*
%ADD10C,0.125000*%
%ADD11C,0.120000*%
G04 APERTURE END LIST*
D10*
X5571429Y14891500D02*
X5428572Y14843880D01*
X5428572Y14843880D02*
X5190477Y14843880D01*
X5190477Y14843880D02*
X5095239Y14891500D01*
X5095239Y14891500D02*
X5047620Y14939119D01*
X5047620Y14939119D02*
X5000001Y15034357D01*
X5000001Y15034357D02*
X5000001Y15129595D01*
X5000001Y15129595D02*
X5047620Y15224833D01*
X5047620Y15224833D02*
X5095239Y15272452D01*
X5095239Y15272452D02*
X5190477Y15320071D01*
X5190477Y15320071D02*
X5380953Y15367690D01*
X5380953Y15367690D02*
X5476191Y15415309D01*
X5476191Y15415309D02*
X5523810Y15462928D01*
X5523810Y15462928D02*
X5571429Y15558166D01*
X5571429Y15558166D02*
X5571429Y15653404D01*
X5571429Y15653404D02*
X5523810Y15748642D01*
X5523810Y15748642D02*
X5476191Y15796261D01*
X5476191Y15796261D02*
X5380953Y15843880D01*
X5380953Y15843880D02*
X5142858Y15843880D01*
X5142858Y15843880D02*
X5000001Y15796261D01*
X4571429Y14843880D02*
X4571429Y15843880D01*
X4142858Y14843880D02*
X4142858Y15367690D01*
X4142858Y15367690D02*
X4190477Y15462928D01*
X4190477Y15462928D02*
X4285715Y15510547D01*
X4285715Y15510547D02*
X4428572Y15510547D01*
X4428572Y15510547D02*
X4523810Y15462928D01*
X4523810Y15462928D02*
X4571429Y15415309D01*
X3523810Y14843880D02*
X3619048Y14891500D01*
X3619048Y14891500D02*
X3666667Y14939119D01*
X3666667Y14939119D02*
X3714286Y15034357D01*
X3714286Y15034357D02*
X3714286Y15320071D01*
X3714286Y15320071D02*
X3666667Y15415309D01*
X3666667Y15415309D02*
X3619048Y15462928D01*
X3619048Y15462928D02*
X3523810Y15510547D01*
X3523810Y15510547D02*
X3380953Y15510547D01*
X3380953Y15510547D02*
X3285715Y15462928D01*
X3285715Y15462928D02*
X3238096Y15415309D01*
X3238096Y15415309D02*
X3190477Y15320071D01*
X3190477Y15320071D02*
X3190477Y15034357D01*
X3190477Y15034357D02*
X3238096Y14939119D01*
X3238096Y14939119D02*
X3285715Y14891500D01*
X3285715Y14891500D02*
X3380953Y14843880D01*
X3380953Y14843880D02*
X3523810Y14843880D01*
X2904762Y15510547D02*
X2523810Y15510547D01*
X2761905Y15843880D02*
X2761905Y14986738D01*
X2761905Y14986738D02*
X2714286Y14891500D01*
X2714286Y14891500D02*
X2619048Y14843880D01*
X2619048Y14843880D02*
X2523810Y14843880D01*
X2190476Y14843880D02*
X2190476Y15843880D01*
X2190476Y15843880D02*
X1809524Y15843880D01*
X1809524Y15843880D02*
X1714286Y15796261D01*
X1714286Y15796261D02*
X1666667Y15748642D01*
X1666667Y15748642D02*
X1619048Y15653404D01*
X1619048Y15653404D02*
X1619048Y15510547D01*
X1619048Y15510547D02*
X1666667Y15415309D01*
X1666667Y15415309D02*
X1714286Y15367690D01*
X1714286Y15367690D02*
X1809524Y15320071D01*
X1809524Y15320071D02*
X2190476Y15320071D01*
X761905Y15510547D02*
X761905Y14843880D01*
X1190476Y15510547D02*
X1190476Y14986738D01*
X1190476Y14986738D02*
X1142857Y14891500D01*
X1142857Y14891500D02*
X1047619Y14843880D01*
X1047619Y14843880D02*
X904762Y14843880D01*
X904762Y14843880D02*
X809524Y14891500D01*
X809524Y14891500D02*
X761905Y14939119D01*
X-142856Y14891500D02*
X-47618Y14843880D01*
X-47618Y14843880D02*
X142857Y14843880D01*
X142857Y14843880D02*
X238095Y14891500D01*
X238095Y14891500D02*
X285714Y14939119D01*
X285714Y14939119D02*
X333333Y15034357D01*
X333333Y15034357D02*
X333333Y15320071D01*
X333333Y15320071D02*
X285714Y15415309D01*
X285714Y15415309D02*
X238095Y15462928D01*
X238095Y15462928D02*
X142857Y15510547D01*
X142857Y15510547D02*
X-47618Y15510547D01*
X-47618Y15510547D02*
X-142856Y15462928D01*
X-571428Y14843880D02*
X-571428Y15843880D01*
X-666666Y15224833D02*
X-952380Y14843880D01*
X-952380Y15510547D02*
X-571428Y15129595D01*
X-2142857Y14843880D02*
X-2142857Y15510547D01*
X-2142857Y15320071D02*
X-2190476Y15415309D01*
X-2190476Y15415309D02*
X-2238095Y15462928D01*
X-2238095Y15462928D02*
X-2333333Y15510547D01*
X-2333333Y15510547D02*
X-2428571Y15510547D01*
X-3142857Y14891500D02*
X-3047619Y14843880D01*
X-3047619Y14843880D02*
X-2857143Y14843880D01*
X-2857143Y14843880D02*
X-2761905Y14891500D01*
X-2761905Y14891500D02*
X-2714286Y14986738D01*
X-2714286Y14986738D02*
X-2714286Y15367690D01*
X-2714286Y15367690D02*
X-2761905Y15462928D01*
X-2761905Y15462928D02*
X-2857143Y15510547D01*
X-2857143Y15510547D02*
X-3047619Y15510547D01*
X-3047619Y15510547D02*
X-3142857Y15462928D01*
X-3142857Y15462928D02*
X-3190476Y15367690D01*
X-3190476Y15367690D02*
X-3190476Y15272452D01*
X-3190476Y15272452D02*
X-2714286Y15177214D01*
X-3523810Y15510547D02*
X-3761905Y14843880D01*
X-3761905Y14843880D02*
X-4000000Y15510547D01*
X-5095239Y15129595D02*
X-5571429Y15129595D01*
X-5000001Y14843880D02*
X-5333334Y15843880D01*
X-5333334Y15843880D02*
X-5666667Y14843880D01*
%TO.C,JP1*%
D11*
X-11600000Y-4000000D02*
X-11600000Y-6000000D01*
X-11600000Y-6000000D02*
X-8800000Y-6000000D01*
X-8800000Y-4000000D02*
X-11600000Y-4000000D01*
X-8800000Y-6000000D02*
X-8800000Y-4000000D01*
%TD*%
M02*
