M48
; DRILL file KiCad 10.0.6 date 2026-09-27T11:19:32
; FORMAT={-:-/ absolute / metric / decimal}
; #@! TF.CreationDate,2026-09-27T11:19:32+02:00
; #@! TF.GenerationSoftware,Kicad,Pcbnew,10.0.6
; #@! TF.FileFunction,MixedPlating,1,2
FMAT,2
METRIC
; #@! TA.AperFunction,Plated,PTH,ViaDrill
T1C0.300
; #@! TA.AperFunction,Plated,PTH,ComponentDrill
T2C0.850
; #@! TA.AperFunction,Plated,PTH,ComponentDrill
T3C1.000
; #@! TA.AperFunction,NonPlated,NPTH,ComponentDrill
T4C0.991
; #@! TA.AperFunction,NonPlated,NPTH,ComponentDrill
T5C1.800
%
G90
G05
T1
X-14.4Y-8.0
X-12.638Y-9.365
X-12.346Y-5.432
X-12.13Y-6.994
X-11.418Y6.675
X-11.2Y11.2
X-11.183Y-9.396
X-11.171Y-5.46
X-11.012Y-7.256
X-10.241Y-10.561
X-9.778Y-6.604
X-9.6Y12.8
X-9.6Y11.2
X-8.0Y14.4
X-8.0Y12.8
X-8.0Y11.2
X-8.0Y-11.2
X-8.0Y-14.4
X-7.79Y-10.0
X-7.671Y10.145
X-7.215Y-9.386
X-7.03Y-6.421
X-6.549Y6.703
X-6.4Y-11.2
X-6.4Y-14.4
X-6.067Y-9.079
X-5.412Y-8.2
X-4.8Y-14.4
X-4.8Y-16.0
X-4.569Y10.533
X-4.31Y0.001
X-3.661Y-7.917
X-3.2Y-14.4
X-3.2Y-16.0
X-3.161Y-6.158
X-3.122Y-4.25
X-3.011Y3.831
X-2.985Y-2.91
X-2.97Y-10.5
X-2.183Y-6.433
X-2.124Y5.436
X-1.6Y-11.2
X-1.508Y-5.478
X-1.282Y4.231
X-1.248Y5.091
X-0.997Y0.753
X-0.971Y1.444
X-0.967Y-1.684
X-0.828Y0.061
X-0.571Y3.978
X-0.553Y-3.161
X-0.37Y6.121
X0.08Y8.1
X0.627Y-5.192
X0.768Y8.222
X1.446Y-12.625
X1.562Y-13.4
X2.4Y-8.525
X2.437Y9.224
X2.48Y6.9
X3.2Y-16.0
X4.204Y11.156
X4.575Y9.161
X4.8Y-16.0
X4.965Y10.979
X5.4Y-8.89
X6.433Y-12.294
X7.732Y-13.971
X7.819Y-11.233
X8.0Y14.4
X9.199Y-11.248
X11.209Y-11.478
X11.218Y-8.186
X11.659Y-12.346
X12.522Y-7.814
T2
X-1.25Y13.5
X1.25Y13.5
T3
X8.5Y9.4
X8.5Y-9.4
T4
X-10.54Y8.4
X-5.46Y9.416
X-5.46Y7.384
T5
X-13.993Y8.744
X0.0Y-16.5
X13.516Y9.464
M30
