M48
; DRILL file {KiCad 7.0.11+dfsg-1build4} date Sat Sep 26 20:24:41 2026
; FORMAT={-:-/ absolute / metric / decimal}
; #@! TF.CreationDate,2026-09-26T20:24:41+00:00
; #@! TF.GenerationSoftware,Kicad,Pcbnew,7.0.11+dfsg-1build4
; #@! TF.FileFunction,MixedPlating,1,2
FMAT,2
METRIC
; #@! TA.AperFunction,Plated,PTH,ViaDrill
T1C0.250
; #@! TA.AperFunction,Plated,PTH,ComponentDrill
T2C0.900
; #@! TA.AperFunction,NonPlated,NPTH,ComponentDrill
T3C0.991
; #@! TA.AperFunction,NonPlated,NPTH,ComponentDrill
T4C1.800
%
G90
G05
T1
X-14.4Y-8.0
X-14.4Y-9.6
X-12.8Y-8.0
X-12.8Y-9.6
X-12.346Y-5.432
X-11.2Y-8.0
X-11.171Y-5.46
X-9.6Y14.4
X-8.0Y14.4
X-6.4Y16.0
X-6.4Y14.4
X-6.4Y-8.0
X-6.4Y-14.4
X-6.4Y-16.0
X-5.218Y-7.67
X-5.047Y-9.154
X-5.004Y-6.819
X-4.8Y-12.8
X-4.8Y-14.4
X-4.8Y-16.0
X-4.13Y-6.582
X-4.1Y15.5
X-3.88Y-9.57
X-3.515Y7.4
X-3.301Y-6.539
X-3.2Y-14.4
X-3.2Y-16.0
X-3.061Y3.36
X-2.647Y-6.738
X-2.22Y-10.3
X-2.025Y-8.628
X-1.939Y-7.901
X-1.508Y-5.478
X-1.311Y-4.683
X-1.248Y5.091
X-1.104Y3.123
X-0.37Y6.121
X-0.293Y2.286
X0.0Y16.0
X0.08Y8.1
X0.83Y-11.381
X1.562Y-13.4
X1.6Y16.0
X2.4Y-8.525
X2.48Y6.9
X3.2Y16.0
X3.2Y-16.0
X4.328Y-13.196
X4.8Y16.0
X4.8Y-16.0
X4.959Y9.921
X5.218Y-8.203
X6.4Y16.0
X6.4Y14.4
X6.4Y-16.0
X6.816Y-12.136
X6.862Y-11.071
X7.664Y-11.267
X8.0Y14.4
X8.5Y11.0
X9.033Y-12.887
X9.252Y-11.83
X9.6Y11.2
X10.736Y-13.933
X11.2Y11.2
X11.5Y-11.19
X12.014Y12.6
X12.252Y-12.599
X12.622Y-10.0
X12.8Y11.2
T2
X-1.25Y12.0
X1.25Y12.0
T3
X-11.54Y11.0
X-6.46Y12.016
X-6.46Y9.984
T4
X-14.722Y8.5
X0.0Y-17.0
X14.722Y8.5
M30
