%TF.GenerationSoftware,KiCad,Pcbnew,7.0.11+dfsg-1build4*%
%TF.CreationDate,2026-09-26T20:24:41+00:00*%
%TF.ProjectId,shotpuck,73686f74-7075-4636-9b2e-6b696361645f,rev?*%
%TF.SameCoordinates,Original*%
%TF.FileFunction,Copper,L1,Top*%
%TF.FilePolarity,Positive*%
%FSLAX46Y46*%
G04 Gerber Fmt 4.6, Leading zero omitted, Abs format (unit mm)*
G04 Created by KiCad (PCBNEW 7.0.11+dfsg-1build4) date 2026-09-26 20:24:41*
%MOMM*%
%LPD*%
G01*
G04 APERTURE LIST*
G04 Aperture macros list*
%AMRoundRect*
0 Rectangle with rounded corners*
0 $1 Rounding radius*
0 $2 $3 $4 $5 $6 $7 $8 $9 X,Y pos of 4 corners*
0 Add a 4 corners polygon primitive as box body*
4,1,4,$2,$3,$4,$5,$6,$7,$8,$9,$2,$3,0*
0 Add four circle primitives for the rounded corners*
1,1,$1+$1,$2,$3*
1,1,$1+$1,$4,$5*
1,1,$1+$1,$6,$7*
1,1,$1+$1,$8,$9*
0 Add four rect primitives between the rounded corners*
20,1,$1+$1,$2,$3,$4,$5,0*
20,1,$1+$1,$4,$5,$6,$7,0*
20,1,$1+$1,$6,$7,$8,$9,0*
20,1,$1+$1,$8,$9,$2,$3,0*%
G04 Aperture macros list end*
%TA.AperFunction,SMDPad,CuDef*%
%ADD10RoundRect,0.225000X0.250000X-0.225000X0.250000X0.225000X-0.250000X0.225000X-0.250000X-0.225000X0*%
%TD*%
%TA.AperFunction,SMDPad,CuDef*%
%ADD11RoundRect,0.135000X-0.135000X-0.185000X0.135000X-0.185000X0.135000X0.185000X-0.135000X0.185000X0*%
%TD*%
%TA.AperFunction,SMDPad,CuDef*%
%ADD12RoundRect,0.225000X-0.225000X-0.250000X0.225000X-0.250000X0.225000X0.250000X-0.225000X0.250000X0*%
%TD*%
%TA.AperFunction,SMDPad,CuDef*%
%ADD13RoundRect,0.100000X-0.225000X-0.100000X0.225000X-0.100000X0.225000X0.100000X-0.225000X0.100000X0*%
%TD*%
%TA.AperFunction,ConnectorPad*%
%ADD14C,0.787400*%
%TD*%
%TA.AperFunction,SMDPad,CuDef*%
%ADD15R,3.000000X2.200000*%
%TD*%
%TA.AperFunction,SMDPad,CuDef*%
%ADD16RoundRect,0.140000X-0.140000X-0.170000X0.140000X-0.170000X0.140000X0.170000X-0.140000X0.170000X0*%
%TD*%
%TA.AperFunction,SMDPad,CuDef*%
%ADD17RoundRect,0.150000X-0.512500X-0.150000X0.512500X-0.150000X0.512500X0.150000X-0.512500X0.150000X0*%
%TD*%
%TA.AperFunction,SMDPad,CuDef*%
%ADD18RoundRect,0.125000X0.125000X0.125000X-0.125000X0.125000X-0.125000X-0.125000X0.125000X-0.125000X0*%
%TD*%
%TA.AperFunction,SMDPad,CuDef*%
%ADD19R,1.000000X1.500000*%
%TD*%
%TA.AperFunction,SMDPad,CuDef*%
%ADD20R,0.400000X0.600000*%
%TD*%
%TA.AperFunction,SMDPad,CuDef*%
%ADD21R,0.600000X0.400000*%
%TD*%
%TA.AperFunction,ComponentPad*%
%ADD22R,1.500000X1.500000*%
%TD*%
%TA.AperFunction,ComponentPad*%
%ADD23C,1.500000*%
%TD*%
%TA.AperFunction,SMDPad,CuDef*%
%ADD24R,0.375000X0.350000*%
%TD*%
%TA.AperFunction,SMDPad,CuDef*%
%ADD25R,0.350000X0.375000*%
%TD*%
%TA.AperFunction,SMDPad,CuDef*%
%ADD26RoundRect,0.135000X0.185000X-0.135000X0.185000X0.135000X-0.185000X0.135000X-0.185000X-0.135000X0*%
%TD*%
%TA.AperFunction,SMDPad,CuDef*%
%ADD27RoundRect,0.125000X0.125000X-0.125000X0.125000X0.125000X-0.125000X0.125000X-0.125000X-0.125000X0*%
%TD*%
%TA.AperFunction,SMDPad,CuDef*%
%ADD28RoundRect,0.150000X0.150000X0.200000X-0.150000X0.200000X-0.150000X-0.200000X0.150000X-0.200000X0*%
%TD*%
%TA.AperFunction,SMDPad,CuDef*%
%ADD29RoundRect,0.147500X0.147500X0.172500X-0.147500X0.172500X-0.147500X-0.172500X0.147500X-0.172500X0*%
%TD*%
%TA.AperFunction,ViaPad*%
%ADD30C,0.500000*%
%TD*%
%TA.AperFunction,Conductor*%
%ADD31C,0.200000*%
%TD*%
G04 APERTURE END LIST*
%TA.AperFunction,EtchedComponent*%
%TO.C,JP1*%
G36*
X5550000Y-10300000D02*
G01*
X5050000Y-10300000D01*
X5050000Y-9700000D01*
X5550000Y-9700000D01*
X5550000Y-10300000D01*
G37*
%TD.AperFunction*%
%TD*%
D10*
%TO.P,C2,1*%
%TO.N,VBAT*%
X2400000Y-10975000D03*
%TO.P,C2,2*%
%TO.N,GND*%
X2400000Y-9425000D03*
%TD*%
D11*
%TO.P,R4,1*%
%TO.N,LED_IO*%
X-7410000Y7400000D03*
%TO.P,R4,2*%
%TO.N,LED_A*%
X-6390000Y7400000D03*
%TD*%
D12*
%TO.P,C1,1*%
%TO.N,VIN*%
X9425000Y13200000D03*
%TO.P,C1,2*%
%TO.N,GND*%
X10975000Y13200000D03*
%TD*%
D11*
%TO.P,R2,1*%
%TO.N,VIN*%
X8290000Y-14600000D03*
%TO.P,R2,2*%
%TO.N,Q1_GATE*%
X9310000Y-14600000D03*
%TD*%
D13*
%TO.P,Q1,1*%
%TO.N,GND*%
X8250000Y-11950000D03*
%TO.P,Q1,2*%
%TO.N,Q1_GATE*%
X8250000Y-12600000D03*
%TO.P,Q1,3*%
X8250000Y-13250000D03*
%TO.P,Q1,4*%
%TO.N,GND*%
X10150000Y-13250000D03*
%TO.P,Q1,5*%
%TO.N,CHG_INH*%
X10150000Y-12600000D03*
%TO.P,Q1,6*%
%TO.N,PROG_SW*%
X10150000Y-11950000D03*
%TD*%
D14*
%TO.P,J2,1*%
%TO.N,VDD*%
X-10270000Y10365000D03*
%TO.P,J2,2*%
%TO.N,SWDIO*%
X-10270000Y11635000D03*
%TO.P,J2,3*%
%TO.N,N/C*%
X-9000000Y10365000D03*
%TO.P,J2,4*%
%TO.N,SWDCLK*%
X-9000000Y11635000D03*
%TO.P,J2,5*%
%TO.N,GND*%
X-7730000Y10365000D03*
%TO.P,J2,6*%
%TO.N,N/C*%
X-7730000Y11635000D03*
%TD*%
D15*
%TO.P,BT1,1*%
%TO.N,BAT_P*%
X8500000Y-9400000D03*
%TO.P,BT1,2*%
%TO.N,GND*%
X8500000Y9400000D03*
%TD*%
D16*
%TO.P,C4,1*%
%TO.N,VDD*%
X-1780000Y6900000D03*
%TO.P,C4,2*%
%TO.N,GND*%
X-820000Y6900000D03*
%TD*%
D17*
%TO.P,U3,1*%
%TO.N,STAT*%
X2762500Y-12450000D03*
%TO.P,U3,2*%
%TO.N,GND*%
X2762500Y-13400000D03*
%TO.P,U3,3*%
%TO.N,VBAT*%
X2762500Y-14350000D03*
%TO.P,U3,4*%
%TO.N,VIN*%
X5037500Y-14350000D03*
%TO.P,U3,5*%
%TO.N,PROG*%
X5037500Y-12450000D03*
%TD*%
D18*
%TO.P,D1,1*%
%TO.N,VIN*%
X8000000Y12900000D03*
%TO.P,D1,2*%
%TO.N,VIN_RAW*%
X5800000Y12900000D03*
%TD*%
D19*
%TO.P,JP1,1*%
%TO.N,BAT_P*%
X4650000Y-10000000D03*
%TO.P,JP1,2*%
%TO.N,VBAT*%
X5950000Y-10000000D03*
%TD*%
D20*
%TO.P,U1,1*%
%TO.N,GND*%
X-13000000Y-4650000D03*
%TO.P,U1,2*%
X-11900000Y-4650000D03*
%TO.P,U1,3*%
%TO.N,N/C*%
X-11100000Y-4650000D03*
%TO.P,U1,4*%
X-9500000Y-4650000D03*
%TO.P,U1,5*%
X-9100000Y-3750000D03*
%TO.P,U1,6*%
X-8700000Y-4650000D03*
%TO.P,U1,7*%
X-8300000Y-3750000D03*
%TO.P,U1,8*%
X-7900000Y-4650000D03*
%TO.P,U1,9*%
X-7500000Y-3750000D03*
%TO.P,U1,10*%
X-7100000Y-4650000D03*
%TO.P,U1,11*%
X-6700000Y-3750000D03*
%TO.P,U1,12*%
X-6300000Y-4650000D03*
%TO.P,U1,13*%
X-5900000Y-3750000D03*
%TO.P,U1,14*%
X-5500000Y-4650000D03*
D21*
%TO.P,U1,15*%
%TO.N,GND*%
X-2100000Y-4800000D03*
%TO.P,U1,16*%
%TO.N,CHG_INH*%
X-2100000Y-4000000D03*
%TO.P,U1,17*%
%TO.N,N/C*%
X-2100000Y-3200000D03*
%TO.P,U1,18*%
X-2100000Y-2400000D03*
%TO.P,U1,19*%
X-3000000Y-2000000D03*
%TO.P,U1,20*%
%TO.N,SCL*%
X-2100000Y-1600000D03*
%TO.P,U1,21*%
%TO.N,N/C*%
X-3000000Y-1200000D03*
%TO.P,U1,22*%
%TO.N,SDA*%
X-2100000Y-800000D03*
%TO.P,U1,23*%
%TO.N,N/C*%
X-3000000Y-400000D03*
%TO.P,U1,24*%
%TO.N,ACC_INT1*%
X-2100000Y0D03*
%TO.P,U1,25*%
%TO.N,N/C*%
X-3000000Y400000D03*
%TO.P,U1,26*%
%TO.N,CHG_STAT*%
X-2100000Y800000D03*
%TO.P,U1,27*%
%TO.N,N/C*%
X-3000000Y1200000D03*
%TO.P,U1,28*%
%TO.N,VDD*%
X-2100000Y1600000D03*
%TO.P,U1,29*%
%TO.N,N/C*%
X-3000000Y2000000D03*
%TO.P,U1,30*%
%TO.N,VBAT*%
X-2100000Y2400000D03*
%TO.P,U1,31*%
%TO.N,N/C*%
X-2100000Y3200000D03*
%TO.P,U1,32*%
%TO.N,VIN*%
X-2100000Y4000000D03*
%TO.P,U1,33*%
%TO.N,GND*%
X-2100000Y4800000D03*
D20*
%TO.P,U1,34*%
%TO.N,N/C*%
X-3100000Y4650000D03*
%TO.P,U1,35*%
X-3900000Y4650000D03*
%TO.P,U1,36*%
X-4300000Y3750000D03*
%TO.P,U1,37*%
%TO.N,LED_IO*%
X-4700000Y4650000D03*
%TO.P,U1,38*%
%TO.N,N/C*%
X-5100000Y3750000D03*
%TO.P,U1,39*%
X-5500000Y4650000D03*
%TO.P,U1,40*%
X-5900000Y3750000D03*
%TO.P,U1,41*%
X-6300000Y4650000D03*
%TO.P,U1,42*%
X-6700000Y3750000D03*
%TO.P,U1,43*%
X-7500000Y3750000D03*
%TO.P,U1,44*%
X-7900000Y4650000D03*
%TO.P,U1,45*%
X-8300000Y3750000D03*
%TO.P,U1,46*%
X-8700000Y4650000D03*
%TO.P,U1,47*%
X-9100000Y3750000D03*
%TO.P,U1,48*%
X-9500000Y4650000D03*
%TO.P,U1,49*%
X-9900000Y3750000D03*
%TO.P,U1,50*%
X-10700000Y3750000D03*
%TO.P,U1,51*%
%TO.N,SWDIO*%
X-11100000Y4650000D03*
%TO.P,U1,52*%
%TO.N,N/C*%
X-11500000Y3750000D03*
%TO.P,U1,53*%
%TO.N,SWDCLK*%
X-11900000Y4650000D03*
%TO.P,U1,54*%
%TO.N,N/C*%
X-12300000Y3750000D03*
%TO.P,U1,55*%
%TO.N,GND*%
X-13000000Y4650000D03*
D21*
%TO.P,U1,56*%
%TO.N,N/C*%
X-8700000Y-2000000D03*
%TO.P,U1,57*%
X-8700000Y-1200000D03*
%TO.P,U1,58*%
X-8700000Y-400000D03*
%TO.P,U1,59*%
X-8700000Y400000D03*
%TO.P,U1,60*%
X-8700000Y1200000D03*
%TO.P,U1,61*%
X-8700000Y2000000D03*
%TD*%
D22*
%TO.P,J1,1*%
%TO.N,VIN_RAW*%
X-1250000Y12000000D03*
D23*
%TO.P,J1,2*%
%TO.N,GND*%
X1250000Y12000000D03*
%TD*%
D24*
%TO.P,U2,1*%
%TO.N,SCL*%
X-2837500Y-8949999D03*
%TO.P,U2,2*%
%TO.N,VDD*%
X-2837500Y-8449999D03*
%TO.P,U2,3*%
%TO.N,GND*%
X-2837500Y-7949999D03*
%TO.P,U2,4*%
%TO.N,SDA*%
X-2837500Y-7449999D03*
D25*
%TO.P,U2,5*%
%TO.N,GND*%
X-3350000Y-7437499D03*
%TO.P,U2,6*%
X-3850000Y-7437499D03*
D24*
%TO.P,U2,7*%
X-4362500Y-7449999D03*
%TO.P,U2,8*%
X-4362500Y-7949999D03*
%TO.P,U2,9*%
%TO.N,VDD*%
X-4362500Y-8449999D03*
%TO.P,U2,10*%
X-4362500Y-8949999D03*
D25*
%TO.P,U2,11*%
%TO.N,N/C*%
X-3850000Y-8962499D03*
%TO.P,U2,12*%
%TO.N,ACC_INT1*%
X-3350000Y-8962499D03*
%TD*%
D26*
%TO.P,R5,1*%
%TO.N,VDD*%
X-1000000Y-9810000D03*
%TO.P,R5,2*%
%TO.N,SCL*%
X-1000000Y-8790000D03*
%TD*%
%TO.P,R1,1*%
%TO.N,PROG*%
X6900000Y-14110000D03*
%TO.P,R1,2*%
%TO.N,PROG_SW*%
X6900000Y-13090000D03*
%TD*%
D27*
%TO.P,D2,1*%
%TO.N,STAT*%
X13000000Y-11100000D03*
%TO.P,D2,2*%
%TO.N,CHG_STAT*%
X13000000Y-8900000D03*
%TD*%
D28*
%TO.P,D3,1*%
%TO.N,GND*%
X-3200000Y15500000D03*
%TO.P,D3,2*%
%TO.N,VIN_RAW*%
X-1800000Y15500000D03*
%TD*%
D16*
%TO.P,C5,1*%
%TO.N,VDD*%
X-1780000Y8100000D03*
%TO.P,C5,2*%
%TO.N,GND*%
X-820000Y8100000D03*
%TD*%
D29*
%TO.P,D4,1*%
%TO.N,GND*%
X-4415000Y7400000D03*
%TO.P,D4,2*%
%TO.N,LED_A*%
X-5385000Y7400000D03*
%TD*%
D26*
%TO.P,R6,1*%
%TO.N,VDD*%
X100000Y-11310000D03*
%TO.P,R6,2*%
%TO.N,SDA*%
X100000Y-10290000D03*
%TD*%
%TO.P,R3,1*%
%TO.N,CHG_INH*%
X11500000Y-13110000D03*
%TO.P,R3,2*%
%TO.N,GND*%
X11500000Y-12090000D03*
%TD*%
D16*
%TO.P,C6,1*%
%TO.N,VDD*%
X-4080000Y-10300000D03*
%TO.P,C6,2*%
%TO.N,GND*%
X-3120000Y-10300000D03*
%TD*%
%TO.P,C3,1*%
%TO.N,VBAT*%
X620000Y6900000D03*
%TO.P,C3,2*%
%TO.N,GND*%
X1580000Y6900000D03*
%TD*%
D30*
%TO.N,GND*%
X3200000Y16000000D03*
X6400000Y14400000D03*
X11500000Y-11190000D03*
X12800000Y11200000D03*
X-2220000Y-10300000D03*
X0Y16000000D03*
X-11200000Y-8000000D03*
X-1508061Y-5477944D03*
X-6400000Y16000000D03*
X-4800000Y-16000000D03*
X-5004133Y-6818883D03*
X-3200000Y-14400000D03*
X-12345619Y-5431935D03*
X2480000Y6900000D03*
X6400000Y-16000000D03*
X7664068Y-11266856D03*
X8000000Y14400000D03*
X3200000Y-16000000D03*
X-3200000Y-16000000D03*
X-8000000Y14400000D03*
X-3300502Y-6538861D03*
X8500000Y11000000D03*
X11200000Y11200000D03*
X-14400000Y-8000000D03*
X2400000Y-8525000D03*
X80000Y8100000D03*
X-3515000Y7400000D03*
X-6400000Y-14400000D03*
X1562500Y-13400000D03*
X-6400000Y-16000000D03*
X-12800000Y-9600000D03*
X-369999Y6120577D03*
X-4100000Y15500000D03*
X4800000Y16000000D03*
X-12800000Y-8000000D03*
X-6400000Y14400000D03*
X10735931Y-13933143D03*
X-14400000Y-9600000D03*
X4800000Y-16000000D03*
X-9600000Y14400000D03*
X-11171272Y-5459788D03*
X1600000Y16000000D03*
X9600000Y11200000D03*
X-1938862Y-7900501D03*
X-4800000Y-14400000D03*
X-5217706Y-7669603D03*
X-6400000Y-8000000D03*
X-4800000Y-12800000D03*
X6400000Y16000000D03*
X-4130395Y-6582292D03*
X-1248393Y5091148D03*
X12014230Y12600000D03*
%TO.N,VDD*%
X-293500Y2285800D03*
X-5047200Y-9154000D03*
X-1103800Y3123000D03*
%TO.N,VIN*%
X4959400Y9921000D03*
X6862100Y-11070800D03*
X-3060600Y3360300D03*
%TO.N,SCL*%
X-1311500Y-4683300D03*
X-2024900Y-8627900D03*
%TO.N,ACC_INT1*%
X-3879900Y-9569700D03*
X829800Y-11380700D03*
%TO.N,CHG_STAT*%
X5218400Y-8202900D03*
X12621900Y-10000000D03*
%TO.N,CHG_INH*%
X9032700Y-12887300D03*
X-2647100Y-6737600D03*
%TO.N,STAT*%
X12252500Y-12599200D03*
X4328400Y-13195700D03*
%TO.N,PROG_SW*%
X9252200Y-11829900D03*
X6815600Y-12136400D03*
%TD*%
D31*
%TO.N,GND*%
X-13000000Y-4650000D02*
X-11171272Y-5459788D01*
X-4362500Y-7949999D02*
X-5217706Y-7669603D01*
X10975000Y13200000D02*
X12014230Y12600000D01*
X-2100000Y4800000D02*
X-1248400Y5091200D01*
X11500000Y-12090000D02*
X11500000Y-11190000D01*
X-820000Y8100000D02*
X80000Y8100000D01*
X-3850000Y-7437499D02*
X-4130395Y-6582292D01*
X-13000000Y-4650000D02*
X-12121700Y-5039000D01*
X-3120000Y-10300000D02*
X-2220000Y-10300000D01*
X-2837500Y-7949999D02*
X-1938862Y-7900501D01*
X-2100000Y-4800000D02*
X-1508061Y-5477944D01*
X-11900000Y-4650000D02*
X-12121700Y-5039000D01*
X8250000Y-11950000D02*
X7664068Y-11266856D01*
X-12121700Y-5039000D02*
X-12345600Y-5431900D01*
X10150000Y-13250000D02*
X10735931Y-13933143D01*
X2400000Y-9425000D02*
X2400000Y-8525000D01*
X-4362500Y-7449999D02*
X-5004133Y-6818883D01*
X-820000Y6900000D02*
X-369999Y6120577D01*
X1580000Y6900000D02*
X2480000Y6900000D01*
X-2100000Y4800000D02*
X-1248393Y5091148D01*
X-3200000Y15500000D02*
X-4100000Y15500000D01*
X-4415000Y7400000D02*
X-3515000Y7400000D01*
X2762500Y-13400000D02*
X1562500Y-13400000D01*
X-11900000Y-4650000D02*
X-12345619Y-5431935D01*
X8500000Y9400000D02*
X8500000Y11000000D01*
X-3350000Y-7437499D02*
X-3300502Y-6538861D01*
X-12121700Y-5039000D02*
X-11171300Y-5459800D01*
%TO.N,VDD*%
X-3514300Y-10865700D02*
X-1655700Y-10865700D01*
X-740800Y5613100D02*
X-740800Y3486000D01*
X-4381800Y-8969300D02*
X-4381800Y-9998200D01*
X-1655700Y-10865700D02*
X-1000000Y-10210000D01*
X-1000000Y-10210000D02*
X-1000000Y-9810000D01*
X-1780000Y6900000D02*
X-1780000Y6652300D01*
X-4381800Y-9998200D02*
X-4080000Y-10300000D01*
X100000Y-11310000D02*
X-1000000Y-10210000D01*
X-4362500Y-8450000D02*
X-4362500Y-8950000D01*
X-4080000Y-10300000D02*
X-3514300Y-10865700D01*
X-8005000Y8100000D02*
X-1780000Y8100000D01*
X-2100000Y1600000D02*
X-979300Y1600000D01*
X-1780000Y6652300D02*
X-740800Y5613100D01*
X-740800Y3486000D02*
X-1103800Y3123000D01*
X-5005900Y-9154000D02*
X-4801900Y-8950000D01*
X-10270000Y10365000D02*
X-8005000Y8100000D01*
X-1780000Y8100000D02*
X-1780000Y6900000D01*
X-4362500Y-8450000D02*
X-2837500Y-8450000D01*
X-4362500Y-8950000D02*
X-4801900Y-8950000D01*
X-5047200Y-9154000D02*
X-5005900Y-9154000D01*
X-979300Y1600000D02*
X-293500Y2285800D01*
X-4362500Y-8950000D02*
X-4381800Y-8969300D01*
%TO.N,VBAT*%
X2426900Y-11001900D02*
X2400000Y-10975000D01*
X1047300Y-12327700D02*
X2400000Y-10975000D01*
X-2100000Y2400000D02*
X-1548100Y2400000D01*
X5950000Y-11001900D02*
X2426900Y-11001900D01*
X-1117000Y2400000D02*
X620000Y4137000D01*
X1793700Y-14350000D02*
X1047300Y-13603600D01*
X2762500Y-14350000D02*
X1793700Y-14350000D01*
X-3447800Y2475700D02*
X-4680600Y1242900D01*
X-4680600Y-5396000D02*
X-5727200Y-6442600D01*
X1047300Y-13603600D02*
X1047300Y-12327700D01*
X-1548100Y2400000D02*
X-1117000Y2400000D01*
X-2985600Y-12327700D02*
X1047300Y-12327700D01*
X-4680600Y1242900D02*
X-4680600Y-5396000D01*
X-5727200Y-9586100D02*
X-2985600Y-12327700D01*
X5950000Y-10000000D02*
X5950000Y-11001900D01*
X-5727200Y-6442600D02*
X-5727200Y-9586100D01*
X620000Y4137000D02*
X620000Y6900000D01*
X-2100000Y2400000D02*
X-2175700Y2475700D01*
X-2175700Y2475700D02*
X-3447800Y2475700D01*
%TO.N,VIN*%
X6862100Y-11473200D02*
X6862100Y-11070800D01*
X5336400Y-14648900D02*
X7480200Y-14648900D01*
X8300000Y13200000D02*
X8000000Y12900000D01*
X7480200Y-14648900D02*
X7529100Y-14600000D01*
X4959400Y9921000D02*
X5021000Y9921000D01*
X7529100Y-14600000D02*
X7529100Y-12140200D01*
X5037500Y-14350000D02*
X5336400Y-14648900D01*
X-2100000Y4000000D02*
X-2651900Y4000000D01*
X-2651900Y4000000D02*
X-2651900Y3769000D01*
X-2651900Y3769000D02*
X-3060600Y3360300D01*
X7529100Y-14600000D02*
X8290000Y-14600000D01*
X7529100Y-12140200D02*
X6862100Y-11473200D01*
X9425000Y13200000D02*
X8300000Y13200000D01*
X5021000Y9921000D02*
X8000000Y12900000D01*
%TO.N,SCL*%
X-2347000Y-8950000D02*
X-2837500Y-8950000D01*
X-1311500Y-4683300D02*
X-1311500Y-1836600D01*
X-1162100Y-8627900D02*
X-2024900Y-8627900D01*
X-2024900Y-8627900D02*
X-2347000Y-8950000D01*
X-1309900Y-4683300D02*
X-1311500Y-4683300D01*
X-1311500Y-1836600D02*
X-1548100Y-1600000D01*
X-1000000Y-8790000D02*
X-1162100Y-8627900D01*
X-2100000Y-1600000D02*
X-1548100Y-1600000D01*
%TO.N,SDA*%
X-2398100Y-7450000D02*
X-2333300Y-7385200D01*
X-2333300Y-7385200D02*
X-1465400Y-7385200D01*
X-1548100Y-800000D02*
X-808000Y-1540100D01*
X-1465400Y-7385200D02*
X100000Y-8950600D01*
X-808000Y-6727800D02*
X-1465400Y-7385200D01*
X-808000Y-1540100D02*
X-808000Y-6727800D01*
X-2100000Y-800000D02*
X-1548100Y-800000D01*
X-2837500Y-7450000D02*
X-2398100Y-7450000D01*
X100000Y-8950600D02*
X100000Y-10290000D01*
%TO.N,ACC_INT1*%
X-3712100Y-9401900D02*
X-3879900Y-9569700D01*
X-443100Y-5264000D02*
X-443100Y-1105000D01*
X829800Y-11380700D02*
X829800Y-6536900D01*
X-443100Y-1105000D02*
X-1548100Y0D01*
X-3350000Y-9401900D02*
X-3712100Y-9401900D01*
X-2100000Y0D02*
X-1548100Y0D01*
X829800Y-6536900D02*
X-443100Y-5264000D01*
X-3350000Y-8962500D02*
X-3350000Y-9401900D01*
%TO.N,CHG_STAT*%
X-77000Y-3583900D02*
X-77000Y-671100D01*
X-2100000Y800000D02*
X-1548100Y800000D01*
X4542000Y-8202900D02*
X-77000Y-3583900D01*
X13000000Y-8900000D02*
X12621900Y-9278100D01*
X-77000Y-671100D02*
X-1548100Y800000D01*
X5218400Y-8202900D02*
X4542000Y-8202900D01*
X12621900Y-9278100D02*
X12621900Y-10000000D01*
%TO.N,CHG_INH*%
X-2651900Y-6732800D02*
X-2647100Y-6737600D01*
X9320000Y-12600000D02*
X9032700Y-12887300D01*
X-2651900Y-4000000D02*
X-2651900Y-6732800D01*
X10150000Y-12600000D02*
X10990000Y-12600000D01*
X10990000Y-12600000D02*
X11500000Y-13110000D01*
X-2100000Y-4000000D02*
X-2651900Y-4000000D01*
X10150000Y-12600000D02*
X9320000Y-12600000D01*
%TO.N,LED_IO*%
X-4700000Y4650000D02*
X-4700000Y5201900D01*
X-5211900Y5201900D02*
X-7410000Y7400000D01*
X-4700000Y5201900D02*
X-5211900Y5201900D01*
%TO.N,SWDIO*%
X-10636800Y12001800D02*
X-10270000Y11635000D01*
X-11959900Y12001800D02*
X-10636800Y12001800D01*
X-12550800Y11410900D02*
X-11959900Y12001800D01*
X-12550800Y10554700D02*
X-12550800Y11410900D01*
X-11100000Y4650000D02*
X-11100000Y9103900D01*
X-11100000Y9103900D02*
X-12550800Y10554700D01*
%TO.N,SWDCLK*%
X-12122100Y12389600D02*
X-12909000Y11602700D01*
X-11900000Y9274800D02*
X-11900000Y4650000D01*
X-12909000Y10283800D02*
X-11900000Y9274800D01*
X-9754600Y12389600D02*
X-12122100Y12389600D01*
X-9000000Y11635000D02*
X-9754600Y12389600D01*
X-12909000Y11602700D02*
X-12909000Y10283800D01*
%TO.N,STAT*%
X3582700Y-12450000D02*
X2762500Y-12450000D01*
X4328400Y-13195700D02*
X3582700Y-12450000D01*
X13000000Y-11851700D02*
X12252500Y-12599200D01*
X13000000Y-11100000D02*
X13000000Y-11851700D01*
%TO.N,PROG*%
X6697500Y-14110000D02*
X6900000Y-14110000D01*
X5037500Y-12450000D02*
X6697500Y-14110000D01*
%TO.N,Q1_GATE*%
X9310000Y-14600000D02*
X9310000Y-14310000D01*
X9310000Y-14310000D02*
X8250000Y-13250000D01*
X8250000Y-13250000D02*
X8250000Y-12600000D01*
%TO.N,PROG_SW*%
X9252200Y-11829900D02*
X10029900Y-11829900D01*
X10029900Y-11829900D02*
X10150000Y-11950000D01*
X6900000Y-13090000D02*
X6900000Y-12220800D01*
X6900000Y-12220800D02*
X6815600Y-12136400D01*
%TO.N,LED_A*%
X-6390000Y7400000D02*
X-5385000Y7400000D01*
%TO.N,VIN_RAW*%
X-1250000Y13001900D02*
X-1800000Y13551900D01*
X5698100Y13001900D02*
X753800Y13001900D01*
X-1250000Y12000000D02*
X-1250000Y13001900D01*
X-1800000Y13551900D02*
X-1800000Y15500000D01*
X753800Y13001900D02*
X-248100Y12000000D01*
X5800000Y12900000D02*
X5698100Y13001900D01*
X-1250000Y12000000D02*
X-248100Y12000000D01*
%TO.N,BAT_P*%
X8500000Y-9400000D02*
X6748100Y-9400000D01*
X4650000Y-10000000D02*
X4650000Y-8998100D01*
X4650000Y-8998100D02*
X6572300Y-8998100D01*
X6572300Y-8998100D02*
X6748100Y-9173900D01*
X6748100Y-9173900D02*
X6748100Y-9400000D01*
%TD*%
%TA.AperFunction,Conductor*%
%TO.N,GND*%
G36*
X-12551609Y9426858D02*
G01*
X-12533333Y9412451D01*
X-12279496Y9158614D01*
X-12251719Y9104097D01*
X-12250500Y9088610D01*
X-12250500Y5201709D01*
X-12269407Y5143518D01*
X-12279496Y5131705D01*
X-12280594Y5130605D01*
X-12280601Y5130601D01*
X-12335966Y5047740D01*
X-12340564Y5024624D01*
X-12350498Y4974684D01*
X-12350500Y4974672D01*
X-12350500Y4399500D01*
X-12369407Y4341309D01*
X-12418907Y4305345D01*
X-12449500Y4300500D01*
X-12451000Y4300500D01*
X-12509191Y4319407D01*
X-12545155Y4368907D01*
X-12550000Y4399500D01*
X-12550000Y4499999D01*
X-12550001Y4500000D01*
X-12849999Y4500000D01*
X-12850000Y4499999D01*
X-12850000Y4100001D01*
X-12849999Y4100000D01*
X-12849500Y4100000D01*
X-12791309Y4081093D01*
X-12755345Y4031593D01*
X-12750500Y4001000D01*
X-12750500Y3425326D01*
X-12735966Y3352260D01*
X-12735964Y3352257D01*
X-12680602Y3269400D01*
X-12680599Y3269397D01*
X-12597742Y3214035D01*
X-12597740Y3214034D01*
X-12597737Y3214033D01*
X-12597736Y3214033D01*
X-12524684Y3199501D01*
X-12524674Y3199500D01*
X-12524673Y3199500D01*
X-12075327Y3199500D01*
X-12075326Y3199500D01*
X-12075325Y3199500D01*
X-12075315Y3199501D01*
X-12002263Y3214033D01*
X-12002254Y3214036D01*
X-11955000Y3245610D01*
X-11896112Y3262218D01*
X-11845000Y3245610D01*
X-11797745Y3214036D01*
X-11797740Y3214034D01*
X-11797737Y3214033D01*
X-11797736Y3214033D01*
X-11724684Y3199501D01*
X-11724674Y3199500D01*
X-11724673Y3199500D01*
X-11275327Y3199500D01*
X-11275326Y3199500D01*
X-11275325Y3199500D01*
X-11275315Y3199501D01*
X-11202263Y3214033D01*
X-11202254Y3214036D01*
X-11155000Y3245610D01*
X-11096112Y3262218D01*
X-11045000Y3245610D01*
X-10997745Y3214036D01*
X-10997740Y3214034D01*
X-10997737Y3214033D01*
X-10997736Y3214033D01*
X-10924684Y3199501D01*
X-10924674Y3199500D01*
X-10924673Y3199500D01*
X-10475327Y3199500D01*
X-10475326Y3199500D01*
X-10475325Y3199500D01*
X-10475315Y3199501D01*
X-10402263Y3214033D01*
X-10402254Y3214036D01*
X-10355000Y3245610D01*
X-10296112Y3262218D01*
X-10245000Y3245610D01*
X-10197745Y3214036D01*
X-10197740Y3214034D01*
X-10197737Y3214033D01*
X-10197736Y3214033D01*
X-10124684Y3199501D01*
X-10124674Y3199500D01*
X-10124673Y3199500D01*
X-9675327Y3199500D01*
X-9675326Y3199500D01*
X-9675325Y3199500D01*
X-9675315Y3199501D01*
X-9602263Y3214033D01*
X-9602254Y3214036D01*
X-9555000Y3245610D01*
X-9496112Y3262218D01*
X-9445000Y3245610D01*
X-9397745Y3214036D01*
X-9397740Y3214034D01*
X-9397737Y3214033D01*
X-9397736Y3214033D01*
X-9324684Y3199501D01*
X-9324674Y3199500D01*
X-9324673Y3199500D01*
X-8875327Y3199500D01*
X-8875326Y3199500D01*
X-8875325Y3199500D01*
X-8875315Y3199501D01*
X-8802263Y3214033D01*
X-8802254Y3214036D01*
X-8755000Y3245610D01*
X-8696112Y3262218D01*
X-8645000Y3245610D01*
X-8597745Y3214036D01*
X-8597740Y3214034D01*
X-8597737Y3214033D01*
X-8597736Y3214033D01*
X-8524684Y3199501D01*
X-8524674Y3199500D01*
X-8524673Y3199500D01*
X-8075327Y3199500D01*
X-8075326Y3199500D01*
X-8075325Y3199500D01*
X-8075315Y3199501D01*
X-8002263Y3214033D01*
X-8002254Y3214036D01*
X-7955000Y3245610D01*
X-7896112Y3262218D01*
X-7845000Y3245610D01*
X-7797745Y3214036D01*
X-7797740Y3214034D01*
X-7797737Y3214033D01*
X-7797736Y3214033D01*
X-7724684Y3199501D01*
X-7724674Y3199500D01*
X-7724673Y3199500D01*
X-7275327Y3199500D01*
X-7275326Y3199500D01*
X-7275325Y3199500D01*
X-7275315Y3199501D01*
X-7202263Y3214033D01*
X-7202254Y3214036D01*
X-7155000Y3245610D01*
X-7096112Y3262218D01*
X-7045000Y3245610D01*
X-6997745Y3214036D01*
X-6997740Y3214034D01*
X-6997737Y3214033D01*
X-6997736Y3214033D01*
X-6924684Y3199501D01*
X-6924674Y3199500D01*
X-6924673Y3199500D01*
X-6475327Y3199500D01*
X-6475326Y3199500D01*
X-6475325Y3199500D01*
X-6475315Y3199501D01*
X-6402263Y3214033D01*
X-6402254Y3214036D01*
X-6355000Y3245610D01*
X-6296112Y3262218D01*
X-6245000Y3245610D01*
X-6197745Y3214036D01*
X-6197740Y3214034D01*
X-6197737Y3214033D01*
X-6197736Y3214033D01*
X-6124684Y3199501D01*
X-6124674Y3199500D01*
X-6124673Y3199500D01*
X-5675327Y3199500D01*
X-5675326Y3199500D01*
X-5675325Y3199500D01*
X-5675315Y3199501D01*
X-5602263Y3214033D01*
X-5602254Y3214036D01*
X-5555000Y3245610D01*
X-5496112Y3262218D01*
X-5445000Y3245610D01*
X-5397745Y3214036D01*
X-5397740Y3214034D01*
X-5397737Y3214033D01*
X-5397736Y3214033D01*
X-5324684Y3199501D01*
X-5324674Y3199500D01*
X-5324673Y3199500D01*
X-4875327Y3199500D01*
X-4875326Y3199500D01*
X-4875325Y3199500D01*
X-4875315Y3199501D01*
X-4802263Y3214033D01*
X-4802254Y3214036D01*
X-4755000Y3245610D01*
X-4696112Y3262218D01*
X-4645000Y3245610D01*
X-4597745Y3214036D01*
X-4597740Y3214034D01*
X-4597737Y3214033D01*
X-4597736Y3214033D01*
X-4524684Y3199501D01*
X-4524674Y3199500D01*
X-4524673Y3199500D01*
X-4075327Y3199500D01*
X-4075326Y3199500D01*
X-4075325Y3199500D01*
X-4075315Y3199501D01*
X-4002263Y3214033D01*
X-4002257Y3214035D01*
X-3919400Y3269397D01*
X-3919397Y3269400D01*
X-3864035Y3352257D01*
X-3864033Y3352263D01*
X-3849501Y3425315D01*
X-3849500Y3425327D01*
X-3849500Y4000500D01*
X-3830593Y4058691D01*
X-3781093Y4094655D01*
X-3750500Y4099500D01*
X-3675327Y4099500D01*
X-3675326Y4099500D01*
X-3675325Y4099500D01*
X-3675315Y4099501D01*
X-3602263Y4114033D01*
X-3602254Y4114036D01*
X-3555000Y4145610D01*
X-3496112Y4162218D01*
X-3445000Y4145610D01*
X-3397745Y4114036D01*
X-3397740Y4114034D01*
X-3397737Y4114033D01*
X-3397736Y4114033D01*
X-3324684Y4099501D01*
X-3324674Y4099500D01*
X-3102898Y4099500D01*
X-3044707Y4080593D01*
X-3008743Y4031093D01*
X-3004236Y3992327D01*
X-3006032Y3970656D01*
X-3006030Y3970648D01*
X-3005809Y3967979D01*
X-3006494Y3965071D01*
X-3006709Y3962480D01*
X-3007097Y3962512D01*
X-3019844Y3908425D01*
X-3066204Y3868495D01*
X-3104471Y3860800D01*
X-3132561Y3860800D01*
X-3270653Y3820253D01*
X-3391728Y3742443D01*
X-3485977Y3633673D01*
X-3510214Y3580601D01*
X-3545765Y3502756D01*
X-3566247Y3360302D01*
X-3566247Y3360297D01*
X-3557352Y3298432D01*
X-3545765Y3217843D01*
X-3485977Y3086927D01*
X-3485976Y3086926D01*
X-3402017Y2990031D01*
X-3378199Y2933672D01*
X-3392058Y2874076D01*
X-3438299Y2834009D01*
X-3472804Y2827016D01*
X-3472765Y2826538D01*
X-3476828Y2826201D01*
X-3476836Y2826200D01*
X-3476840Y2826200D01*
X-3496364Y2822941D01*
X-3500359Y2822359D01*
X-3549193Y2816273D01*
X-3549198Y2816270D01*
X-3556226Y2814178D01*
X-3563175Y2811792D01*
X-3563181Y2811792D01*
X-3606455Y2788371D01*
X-3610079Y2786507D01*
X-3654284Y2764898D01*
X-3654285Y2764896D01*
X-3660270Y2760623D01*
X-3666055Y2756120D01*
X-3666055Y2756119D01*
X-3666058Y2756118D01*
X-3699379Y2719920D01*
X-3702164Y2717016D01*
X-4895484Y1523696D01*
X-4911334Y1510826D01*
X-4921269Y1504337D01*
X-4940051Y1480203D01*
X-4948177Y1471004D01*
X-4948975Y1470207D01*
X-4960486Y1454082D01*
X-4962888Y1450862D01*
X-4983272Y1424674D01*
X-4993116Y1412027D01*
X-4996623Y1405545D01*
X-4999837Y1398971D01*
X-4999837Y1398969D01*
X-4999840Y1398966D01*
X-5013887Y1351781D01*
X-5015112Y1347954D01*
X-5031100Y1301388D01*
X-5031100Y1301383D01*
X-5032307Y1294154D01*
X-5033217Y1286854D01*
X-5031185Y1237723D01*
X-5031100Y1233632D01*
X-5031100Y-4043182D01*
X-5050007Y-4101373D01*
X-5099507Y-4137337D01*
X-5160693Y-4137337D01*
X-5185099Y-4125499D01*
X-5202254Y-4114036D01*
X-5202263Y-4114033D01*
X-5275315Y-4099501D01*
X-5275325Y-4099500D01*
X-5275326Y-4099500D01*
X-5275327Y-4099500D01*
X-5350500Y-4099500D01*
X-5408691Y-4080593D01*
X-5444655Y-4031093D01*
X-5449500Y-4000500D01*
X-5449500Y-3425327D01*
X-5449501Y-3425315D01*
X-5464033Y-3352263D01*
X-5464035Y-3352257D01*
X-5519397Y-3269400D01*
X-5519400Y-3269397D01*
X-5602257Y-3214035D01*
X-5602263Y-3214033D01*
X-5675315Y-3199501D01*
X-5675325Y-3199500D01*
X-5675326Y-3199500D01*
X-6124674Y-3199500D01*
X-6124684Y-3199501D01*
X-6197736Y-3214033D01*
X-6197737Y-3214033D01*
X-6197740Y-3214034D01*
X-6197745Y-3214036D01*
X-6245000Y-3245610D01*
X-6303888Y-3262218D01*
X-6355000Y-3245610D01*
X-6402254Y-3214036D01*
X-6402263Y-3214033D01*
X-6475315Y-3199501D01*
X-6475325Y-3199500D01*
X-6475326Y-3199500D01*
X-6924674Y-3199500D01*
X-6924684Y-3199501D01*
X-6997736Y-3214033D01*
X-6997737Y-3214033D01*
X-6997740Y-3214034D01*
X-6997745Y-3214036D01*
X-7045000Y-3245610D01*
X-7103888Y-3262218D01*
X-7155000Y-3245610D01*
X-7202254Y-3214036D01*
X-7202263Y-3214033D01*
X-7275315Y-3199501D01*
X-7275325Y-3199500D01*
X-7275326Y-3199500D01*
X-7724674Y-3199500D01*
X-7724684Y-3199501D01*
X-7797736Y-3214033D01*
X-7797737Y-3214033D01*
X-7797740Y-3214034D01*
X-7797745Y-3214036D01*
X-7845000Y-3245610D01*
X-7903888Y-3262218D01*
X-7955000Y-3245610D01*
X-8002254Y-3214036D01*
X-8002263Y-3214033D01*
X-8075315Y-3199501D01*
X-8075325Y-3199500D01*
X-8075326Y-3199500D01*
X-8524674Y-3199500D01*
X-8524684Y-3199501D01*
X-8597736Y-3214033D01*
X-8597737Y-3214033D01*
X-8597740Y-3214034D01*
X-8597745Y-3214036D01*
X-8645000Y-3245610D01*
X-8703888Y-3262218D01*
X-8755000Y-3245610D01*
X-8802254Y-3214036D01*
X-8802263Y-3214033D01*
X-8875315Y-3199501D01*
X-8875325Y-3199500D01*
X-8875326Y-3199500D01*
X-9324674Y-3199500D01*
X-9324684Y-3199501D01*
X-9397736Y-3214033D01*
X-9397737Y-3214033D01*
X-9397740Y-3214034D01*
X-9397742Y-3214035D01*
X-9480599Y-3269397D01*
X-9480601Y-3269399D01*
X-9535966Y-3352260D01*
X-9543711Y-3391197D01*
X-9550498Y-3425315D01*
X-9550500Y-3425327D01*
X-9550500Y-4000500D01*
X-9569407Y-4058691D01*
X-9618907Y-4094655D01*
X-9649500Y-4099500D01*
X-9724674Y-4099500D01*
X-9724684Y-4099501D01*
X-9797736Y-4114033D01*
X-9797737Y-4114033D01*
X-9797740Y-4114034D01*
X-9797742Y-4114035D01*
X-9880599Y-4169397D01*
X-9880601Y-4169399D01*
X-9935966Y-4252260D01*
X-9950500Y-4325326D01*
X-9950500Y-4974674D01*
X-9935966Y-5047740D01*
X-9880601Y-5130601D01*
X-9797740Y-5185966D01*
X-9724674Y-5200500D01*
X-9724673Y-5200500D01*
X-9275327Y-5200500D01*
X-9275326Y-5200500D01*
X-9275320Y-5200498D01*
X-9275315Y-5200498D01*
X-9257808Y-5197015D01*
X-9202260Y-5185966D01*
X-9202257Y-5185964D01*
X-9202256Y-5185964D01*
X-9180004Y-5171095D01*
X-9155000Y-5154388D01*
X-9096114Y-5137780D01*
X-9045000Y-5154388D01*
X-8997740Y-5185966D01*
X-8924674Y-5200500D01*
X-8924673Y-5200500D01*
X-8475327Y-5200500D01*
X-8475326Y-5200500D01*
X-8475320Y-5200498D01*
X-8475315Y-5200498D01*
X-8457808Y-5197015D01*
X-8402260Y-5185966D01*
X-8402257Y-5185964D01*
X-8402256Y-5185964D01*
X-8380004Y-5171095D01*
X-8355000Y-5154388D01*
X-8296114Y-5137780D01*
X-8245000Y-5154388D01*
X-8197740Y-5185966D01*
X-8124674Y-5200500D01*
X-8124673Y-5200500D01*
X-7675327Y-5200500D01*
X-7675326Y-5200500D01*
X-7675320Y-5200498D01*
X-7675315Y-5200498D01*
X-7657808Y-5197015D01*
X-7602260Y-5185966D01*
X-7602257Y-5185964D01*
X-7602256Y-5185964D01*
X-7580004Y-5171095D01*
X-7555000Y-5154388D01*
X-7496114Y-5137780D01*
X-7445000Y-5154388D01*
X-7397740Y-5185966D01*
X-7324674Y-5200500D01*
X-7324673Y-5200500D01*
X-6875327Y-5200500D01*
X-6875326Y-5200500D01*
X-6875320Y-5200498D01*
X-6875315Y-5200498D01*
X-6857808Y-5197015D01*
X-6802260Y-5185966D01*
X-6802257Y-5185964D01*
X-6802256Y-5185964D01*
X-6780004Y-5171095D01*
X-6755000Y-5154388D01*
X-6696114Y-5137780D01*
X-6645000Y-5154388D01*
X-6597740Y-5185966D01*
X-6524674Y-5200500D01*
X-6524673Y-5200500D01*
X-6075327Y-5200500D01*
X-6075326Y-5200500D01*
X-6075320Y-5200498D01*
X-6075315Y-5200498D01*
X-6057808Y-5197015D01*
X-6002260Y-5185966D01*
X-6002257Y-5185964D01*
X-6002256Y-5185964D01*
X-5980004Y-5171095D01*
X-5955000Y-5154388D01*
X-5896114Y-5137780D01*
X-5845000Y-5154388D01*
X-5797740Y-5185966D01*
X-5724674Y-5200500D01*
X-5724673Y-5200500D01*
X-5275327Y-5200500D01*
X-5275326Y-5200500D01*
X-5275323Y-5200499D01*
X-5275320Y-5200499D01*
X-5263879Y-5198223D01*
X-5227734Y-5191033D01*
X-5166975Y-5198223D01*
X-5122044Y-5239754D01*
X-5110106Y-5299763D01*
X-5135720Y-5355329D01*
X-5138416Y-5358134D01*
X-5942081Y-6161799D01*
X-5957937Y-6174674D01*
X-5967869Y-6181163D01*
X-5986648Y-6205290D01*
X-5994760Y-6214477D01*
X-5995574Y-6215291D01*
X-5995577Y-6215295D01*
X-6007043Y-6231355D01*
X-6009491Y-6234639D01*
X-6039714Y-6273470D01*
X-6039717Y-6273474D01*
X-6039718Y-6273478D01*
X-6043220Y-6279948D01*
X-6046440Y-6286534D01*
X-6060482Y-6333702D01*
X-6061720Y-6337564D01*
X-6077700Y-6384112D01*
X-6077700Y-6384114D01*
X-6078905Y-6391336D01*
X-6079815Y-6398639D01*
X-6079817Y-6398646D01*
X-6078292Y-6435507D01*
X-6077785Y-6447775D01*
X-6077700Y-6451866D01*
X-6077700Y-9539481D01*
X-6079807Y-9559796D01*
X-6082243Y-9571415D01*
X-6079428Y-9593996D01*
X-6078460Y-9601762D01*
X-6077700Y-9614007D01*
X-6077700Y-9615143D01*
X-6074449Y-9634621D01*
X-6073861Y-9638652D01*
X-6067773Y-9687493D01*
X-6067771Y-9687496D01*
X-6065677Y-9694529D01*
X-6063292Y-9701475D01*
X-6063292Y-9701481D01*
X-6039871Y-9744755D01*
X-6038007Y-9748379D01*
X-6016399Y-9792582D01*
X-6012123Y-9798570D01*
X-6007620Y-9804355D01*
X-6007618Y-9804358D01*
X-5971420Y-9837679D01*
X-5968516Y-9840464D01*
X-3266398Y-12542581D01*
X-3253528Y-12558431D01*
X-3247037Y-12568369D01*
X-3222899Y-12587154D01*
X-3213707Y-12595273D01*
X-3212906Y-12596075D01*
X-3196784Y-12607584D01*
X-3193607Y-12609953D01*
X-3154726Y-12640217D01*
X-3154723Y-12640218D01*
X-3148245Y-12643723D01*
X-3141671Y-12646937D01*
X-3141669Y-12646937D01*
X-3141666Y-12646940D01*
X-3094481Y-12660987D01*
X-3090654Y-12662212D01*
X-3044088Y-12678200D01*
X-3044083Y-12678200D01*
X-3036863Y-12679405D01*
X-3029561Y-12680314D01*
X-3029554Y-12680317D01*
X-2980424Y-12678285D01*
X-2976333Y-12678200D01*
X597800Y-12678200D01*
X655991Y-12697107D01*
X691955Y-12746607D01*
X696800Y-12777200D01*
X696800Y-13556981D01*
X694693Y-13577296D01*
X692257Y-13588913D01*
X696040Y-13619262D01*
X696800Y-13631507D01*
X696800Y-13632642D01*
X700051Y-13652128D01*
X700637Y-13656147D01*
X704869Y-13690087D01*
X706727Y-13704993D01*
X708827Y-13712048D01*
X711207Y-13718980D01*
X734622Y-13762246D01*
X736495Y-13765885D01*
X758101Y-13810082D01*
X762378Y-13816072D01*
X766881Y-13821858D01*
X803064Y-13855167D01*
X806017Y-13857999D01*
X1512899Y-14564881D01*
X1525774Y-14580737D01*
X1532263Y-14590669D01*
X1556390Y-14609448D01*
X1565577Y-14617560D01*
X1566391Y-14618374D01*
X1566395Y-14618377D01*
X1582455Y-14629843D01*
X1585739Y-14632291D01*
X1624570Y-14662514D01*
X1624574Y-14662517D01*
X1624578Y-14662518D01*
X1631054Y-14666022D01*
X1637634Y-14669240D01*
X1684802Y-14683282D01*
X1688664Y-14684520D01*
X1699011Y-14688072D01*
X1735212Y-14700500D01*
X1735214Y-14700500D01*
X1742436Y-14701705D01*
X1749739Y-14702615D01*
X1749746Y-14702617D01*
X1798876Y-14700585D01*
X1802967Y-14700500D01*
X1844013Y-14700500D01*
X1902204Y-14719407D01*
X1916035Y-14733237D01*
X1916441Y-14732832D01*
X1921948Y-14738339D01*
X1921950Y-14738342D01*
X2011658Y-14828050D01*
X2124696Y-14885646D01*
X2218481Y-14900500D01*
X3306518Y-14900499D01*
X3306521Y-14900499D01*
X3306522Y-14900498D01*
X3353411Y-14893072D01*
X3400299Y-14885647D01*
X3400299Y-14885646D01*
X3400304Y-14885646D01*
X3513342Y-14828050D01*
X3603050Y-14738342D01*
X3660646Y-14625304D01*
X3675500Y-14531519D01*
X3675499Y-14168482D01*
X3675498Y-14168478D01*
X3675498Y-14168476D01*
X3660647Y-14074700D01*
X3660646Y-14074698D01*
X3660646Y-14074696D01*
X3603050Y-13961658D01*
X3603047Y-13961655D01*
X3586041Y-13944648D01*
X3558265Y-13890131D01*
X3567837Y-13829699D01*
X3586044Y-13804641D01*
X3602640Y-13788045D01*
X3602640Y-13788044D01*
X3660163Y-13675151D01*
X3660164Y-13675147D01*
X3675000Y-13581484D01*
X3675000Y-13550001D01*
X3674999Y-13550000D01*
X1850002Y-13550000D01*
X1850001Y-13550001D01*
X1850001Y-13581485D01*
X1864275Y-13671619D01*
X1854703Y-13732051D01*
X1811437Y-13775315D01*
X1751005Y-13784885D01*
X1696490Y-13757108D01*
X1426796Y-13487414D01*
X1399019Y-13432897D01*
X1397800Y-13417410D01*
X1397800Y-12513889D01*
X1416707Y-12455698D01*
X1426796Y-12443886D01*
X1551727Y-12318955D01*
X1680872Y-12189809D01*
X1735388Y-12162032D01*
X1795820Y-12171603D01*
X1839085Y-12214868D01*
X1848982Y-12264592D01*
X1849500Y-12264592D01*
X1849500Y-12267196D01*
X1849572Y-12267558D01*
X1849500Y-12268475D01*
X1849500Y-12631520D01*
X1849501Y-12631523D01*
X1864352Y-12725299D01*
X1864354Y-12725304D01*
X1921950Y-12838342D01*
X1921952Y-12838344D01*
X1938958Y-12855351D01*
X1966734Y-12909868D01*
X1957162Y-12970300D01*
X1938958Y-12995355D01*
X1922361Y-13011952D01*
X1922359Y-13011955D01*
X1864836Y-13124848D01*
X1864835Y-13124852D01*
X1850000Y-13218515D01*
X1850000Y-13249999D01*
X1850001Y-13250000D01*
X3678698Y-13250000D01*
X3725670Y-13226065D01*
X3786102Y-13235635D01*
X3829368Y-13278899D01*
X3839151Y-13309757D01*
X3843234Y-13338156D01*
X3894883Y-13451250D01*
X3903023Y-13469073D01*
X3996798Y-13577296D01*
X3997273Y-13577844D01*
X4118342Y-13655650D01*
X4118347Y-13655653D01*
X4256439Y-13696200D01*
X4257035Y-13696375D01*
X4307542Y-13730911D01*
X4328104Y-13788538D01*
X4310866Y-13847245D01*
X4287340Y-13871454D01*
X4286663Y-13871945D01*
X4196949Y-13961659D01*
X4139354Y-14074695D01*
X4124500Y-14168477D01*
X4124500Y-14531520D01*
X4124501Y-14531523D01*
X4139352Y-14625299D01*
X4139354Y-14625304D01*
X4196950Y-14738342D01*
X4286658Y-14828050D01*
X4399696Y-14885646D01*
X4493481Y-14900500D01*
X5053881Y-14900499D01*
X5111406Y-14918927D01*
X5125173Y-14928756D01*
X5128455Y-14931203D01*
X5167274Y-14961417D01*
X5173723Y-14964907D01*
X5180330Y-14968137D01*
X5180333Y-14968139D01*
X5180335Y-14968139D01*
X5180336Y-14968140D01*
X5227458Y-14982169D01*
X5231355Y-14983417D01*
X5251627Y-14990376D01*
X5277912Y-14999400D01*
X5277914Y-14999400D01*
X5285136Y-15000605D01*
X5292439Y-15001515D01*
X5292446Y-15001517D01*
X5341576Y-14999485D01*
X5345667Y-14999400D01*
X7433581Y-14999400D01*
X7453896Y-15001507D01*
X7455806Y-15001907D01*
X7465515Y-15003943D01*
X7495862Y-15000159D01*
X7508107Y-14999400D01*
X7509243Y-14999400D01*
X7528721Y-14996149D01*
X7532752Y-14995561D01*
X7581593Y-14989473D01*
X7581596Y-14989471D01*
X7588629Y-14987377D01*
X7595577Y-14984992D01*
X7595581Y-14984992D01*
X7637264Y-14962432D01*
X7684385Y-14950500D01*
X7745010Y-14950500D01*
X7803201Y-14969407D01*
X7833949Y-15006017D01*
X7836924Y-15012102D01*
X7927898Y-15103076D01*
X8043482Y-15159582D01*
X8118418Y-15170500D01*
X8118421Y-15170500D01*
X8461578Y-15170500D01*
X8461582Y-15170500D01*
X8536518Y-15159582D01*
X8652102Y-15103076D01*
X8729998Y-15025179D01*
X8784513Y-14997404D01*
X8844945Y-15006975D01*
X8870000Y-15025178D01*
X8947898Y-15103076D01*
X9063482Y-15159582D01*
X9138418Y-15170500D01*
X9138421Y-15170500D01*
X9481578Y-15170500D01*
X9481582Y-15170500D01*
X9556518Y-15159582D01*
X9672102Y-15103076D01*
X9763076Y-15012102D01*
X9819582Y-14896518D01*
X9830500Y-14821582D01*
X9830500Y-14378418D01*
X9819582Y-14303482D01*
X9763076Y-14187898D01*
X9672102Y-14096924D01*
X9570399Y-14047204D01*
X9556512Y-14040415D01*
X9550395Y-14038525D01*
X9509626Y-14013944D01*
X9051135Y-13555453D01*
X9023358Y-13500936D01*
X9032929Y-13440504D01*
X9073433Y-13400000D01*
X9577446Y-13400000D01*
X9584912Y-13451250D01*
X9636214Y-13556188D01*
X9718812Y-13638786D01*
X9823751Y-13690087D01*
X9891784Y-13699999D01*
X10000000Y-13699999D01*
X10000000Y-13699998D01*
X10300000Y-13699998D01*
X10300001Y-13699999D01*
X10408213Y-13699999D01*
X10408216Y-13699998D01*
X10476250Y-13690087D01*
X10581188Y-13638785D01*
X10663786Y-13556187D01*
X10715087Y-13451248D01*
X10722554Y-13400000D01*
X10300001Y-13400000D01*
X10300000Y-13400001D01*
X10300000Y-13699998D01*
X10000000Y-13699998D01*
X10000000Y-13400001D01*
X9999999Y-13400000D01*
X9577446Y-13400000D01*
X9073433Y-13400000D01*
X9076194Y-13397239D01*
X9098020Y-13390319D01*
X9097867Y-13389795D01*
X9104661Y-13387800D01*
X9242753Y-13347253D01*
X9363828Y-13269443D01*
X9458077Y-13160673D01*
X9459356Y-13157871D01*
X9461095Y-13155977D01*
X9461905Y-13154717D01*
X9462123Y-13154857D01*
X9500729Y-13112795D01*
X9549409Y-13100000D01*
X10722553Y-13100000D01*
X10719225Y-13077152D01*
X10729546Y-13016843D01*
X10773344Y-12974118D01*
X10833890Y-12965298D01*
X10887191Y-12992873D01*
X10900505Y-13006186D01*
X10928281Y-13060701D01*
X10929500Y-13076188D01*
X10929500Y-13281582D01*
X10940418Y-13356518D01*
X10996924Y-13472102D01*
X11087898Y-13563076D01*
X11203482Y-13619582D01*
X11278418Y-13630500D01*
X11278421Y-13630500D01*
X11721577Y-13630500D01*
X11721582Y-13630500D01*
X11786184Y-13621087D01*
X11846490Y-13631407D01*
X11889215Y-13675205D01*
X11898037Y-13735751D01*
X11869586Y-13789919D01*
X11864485Y-13794559D01*
X11444032Y-14151111D01*
X11440423Y-14154029D01*
X10768152Y-14671970D01*
X10764409Y-14674716D01*
X10068615Y-15160567D01*
X10064748Y-15163134D01*
X9346937Y-15615843D01*
X9342954Y-15618227D01*
X8604715Y-16036791D01*
X8600625Y-16038985D01*
X7843574Y-16422489D01*
X7839385Y-16424489D01*
X7065194Y-16772085D01*
X7060917Y-16773886D01*
X6271283Y-17084812D01*
X6266925Y-17086411D01*
X5463588Y-17359983D01*
X5459160Y-17361376D01*
X4643885Y-17596992D01*
X4639397Y-17598176D01*
X3813965Y-17795321D01*
X3809427Y-17796293D01*
X2975657Y-17954533D01*
X2971077Y-17955291D01*
X2130829Y-18074274D01*
X2126219Y-18074817D01*
X2070779Y-18080031D01*
X2011073Y-18066655D01*
X1970633Y-18020740D01*
X1964904Y-17959824D01*
X1970042Y-17943587D01*
X2125036Y-17569401D01*
X2199999Y-17000000D01*
X2125036Y-16430598D01*
X1905255Y-15900000D01*
X1555634Y-15444365D01*
X1555629Y-15444361D01*
X1555628Y-15444360D01*
X1198726Y-15170500D01*
X1099999Y-15094744D01*
X872727Y-15000605D01*
X778119Y-14961417D01*
X569401Y-14874963D01*
X569399Y-14874962D01*
X569397Y-14874962D01*
X1Y-14800000D01*
X-1Y-14800000D01*
X-569397Y-14874962D01*
X-569399Y-14874962D01*
X-569401Y-14874963D01*
X-595192Y-14885646D01*
X-1100000Y-15094743D01*
X-1100001Y-15094744D01*
X-1555628Y-15444360D01*
X-1555629Y-15444361D01*
X-1555634Y-15444365D01*
X-1905255Y-15900000D01*
X-2125036Y-16430598D01*
X-2200000Y-17000000D01*
X-2125036Y-17569401D01*
X-1970044Y-17943582D01*
X-1965244Y-18004577D01*
X-1997214Y-18056746D01*
X-2053741Y-18080161D01*
X-2070779Y-18080031D01*
X-2126219Y-18074817D01*
X-2130829Y-18074274D01*
X-2971077Y-17955291D01*
X-2975657Y-17954533D01*
X-3809427Y-17796293D01*
X-3813965Y-17795321D01*
X-4639397Y-17598176D01*
X-4643885Y-17596992D01*
X-5459160Y-17361376D01*
X-5463588Y-17359983D01*
X-6266925Y-17086411D01*
X-6271283Y-17084812D01*
X-7060917Y-16773886D01*
X-7065194Y-16772085D01*
X-7839385Y-16424489D01*
X-7843574Y-16422489D01*
X-8600625Y-16038985D01*
X-8604715Y-16036791D01*
X-9342954Y-15618227D01*
X-9346937Y-15615843D01*
X-10064748Y-15163134D01*
X-10068615Y-15160567D01*
X-10764409Y-14674716D01*
X-10768152Y-14671970D01*
X-11440423Y-14154029D01*
X-11444032Y-14151111D01*
X-12091272Y-13602240D01*
X-12094741Y-13599156D01*
X-12715566Y-13020530D01*
X-12718886Y-13017286D01*
X-13311874Y-12410230D01*
X-13315039Y-12406835D01*
X-13878946Y-11772624D01*
X-13881948Y-11769084D01*
X-14415500Y-11109148D01*
X-14418333Y-11105471D01*
X-14920373Y-10421241D01*
X-14923030Y-10417435D01*
X-15392437Y-9710443D01*
X-15394913Y-9706517D01*
X-15830663Y-8978301D01*
X-15832953Y-8974263D01*
X-16234104Y-8226401D01*
X-16236201Y-8222261D01*
X-16601853Y-7456427D01*
X-16603754Y-7452192D01*
X-16933099Y-6670079D01*
X-16934800Y-6665761D01*
X-16972434Y-6563197D01*
X-17020169Y-6433100D01*
X-17022464Y-6371960D01*
X-16988382Y-6321146D01*
X-16930941Y-6300070D01*
X-16927228Y-6300000D01*
X-13100001Y-6300000D01*
X-13100000Y-6300000D01*
X-13100000Y-5199999D01*
X-12850000Y-5199999D01*
X-12849999Y-5200000D01*
X-12775377Y-5200000D01*
X-12775375Y-5199999D01*
X-12702453Y-5185493D01*
X-12702451Y-5185492D01*
X-12619762Y-5130241D01*
X-12619758Y-5130237D01*
X-12564507Y-5047548D01*
X-12564506Y-5047546D01*
X-12550000Y-4974624D01*
X-12550000Y-4974622D01*
X-12350000Y-4974622D01*
X-12349999Y-4974624D01*
X-12335493Y-5047546D01*
X-12335492Y-5047548D01*
X-12280241Y-5130237D01*
X-12280237Y-5130241D01*
X-12197548Y-5185492D01*
X-12197546Y-5185493D01*
X-12124624Y-5199999D01*
X-12124623Y-5200000D01*
X-12050001Y-5200000D01*
X-12050000Y-5199999D01*
X-11750000Y-5199999D01*
X-11749999Y-5200000D01*
X-11675377Y-5200000D01*
X-11675375Y-5199999D01*
X-11602453Y-5185493D01*
X-11602448Y-5185491D01*
X-11555451Y-5154089D01*
X-11496563Y-5137480D01*
X-11445450Y-5154087D01*
X-11397740Y-5185966D01*
X-11324674Y-5200500D01*
X-11324673Y-5200500D01*
X-10875327Y-5200500D01*
X-10875326Y-5200500D01*
X-10875320Y-5200498D01*
X-10875315Y-5200498D01*
X-10857808Y-5197015D01*
X-10802260Y-5185966D01*
X-10754550Y-5154088D01*
X-10719400Y-5130602D01*
X-10719397Y-5130599D01*
X-10664035Y-5047742D01*
X-10664033Y-5047736D01*
X-10649501Y-4974684D01*
X-10649500Y-4974672D01*
X-10649500Y-4325327D01*
X-10649501Y-4325315D01*
X-10664033Y-4252263D01*
X-10664035Y-4252257D01*
X-10719397Y-4169400D01*
X-10719400Y-4169397D01*
X-10802257Y-4114035D01*
X-10802263Y-4114033D01*
X-10875315Y-4099501D01*
X-10875325Y-4099500D01*
X-10875326Y-4099500D01*
X-11324674Y-4099500D01*
X-11324684Y-4099501D01*
X-11397736Y-4114033D01*
X-11397737Y-4114033D01*
X-11397740Y-4114034D01*
X-11397745Y-4114036D01*
X-11445450Y-4145911D01*
X-11504338Y-4162519D01*
X-11555450Y-4145911D01*
X-11602449Y-4114507D01*
X-11602453Y-4114506D01*
X-11675375Y-4100000D01*
X-11749999Y-4100000D01*
X-11750000Y-4100001D01*
X-11750000Y-5199999D01*
X-12050000Y-5199999D01*
X-12050000Y-4800001D01*
X-12050001Y-4800000D01*
X-12349999Y-4800000D01*
X-12350000Y-4800001D01*
X-12350000Y-4974622D01*
X-12550000Y-4974622D01*
X-12550000Y-4800001D01*
X-12550001Y-4800000D01*
X-12849999Y-4800000D01*
X-12850000Y-4800001D01*
X-12850000Y-5199999D01*
X-13100000Y-5199999D01*
X-13100000Y-4499999D01*
X-12850000Y-4499999D01*
X-12849999Y-4500000D01*
X-12550001Y-4500000D01*
X-12550000Y-4499999D01*
X-12350000Y-4499999D01*
X-12349999Y-4500000D01*
X-12050001Y-4500000D01*
X-12050000Y-4499999D01*
X-12050000Y-4100001D01*
X-12050001Y-4100000D01*
X-12124624Y-4100000D01*
X-12197546Y-4114506D01*
X-12197548Y-4114507D01*
X-12280237Y-4169758D01*
X-12280241Y-4169762D01*
X-12335492Y-4252451D01*
X-12335493Y-4252453D01*
X-12349999Y-4325375D01*
X-12350000Y-4325377D01*
X-12350000Y-4499999D01*
X-12550000Y-4499999D01*
X-12550000Y-4325375D01*
X-12564506Y-4252453D01*
X-12564507Y-4252451D01*
X-12619758Y-4169762D01*
X-12619762Y-4169758D01*
X-12702451Y-4114507D01*
X-12702453Y-4114506D01*
X-12775375Y-4100000D01*
X-12849999Y-4100000D01*
X-12850000Y-4100001D01*
X-12850000Y-4499999D01*
X-13100000Y-4499999D01*
X-13100000Y-2399000D01*
X-13081093Y-2340809D01*
X-13031593Y-2304845D01*
X-13001000Y-2300000D01*
X-12000001Y-2300000D01*
X-12000000Y-2300000D01*
X-12000000Y-2224674D01*
X-9250500Y-2224674D01*
X-9235966Y-2297740D01*
X-9180601Y-2380601D01*
X-9097740Y-2435966D01*
X-9024674Y-2450500D01*
X-9024673Y-2450500D01*
X-8375327Y-2450500D01*
X-8375326Y-2450500D01*
X-8375320Y-2450498D01*
X-8375315Y-2450498D01*
X-8357808Y-2447015D01*
X-8302260Y-2435966D01*
X-8302257Y-2435964D01*
X-8219400Y-2380602D01*
X-8219397Y-2380599D01*
X-8164035Y-2297742D01*
X-8164033Y-2297736D01*
X-8149501Y-2224684D01*
X-8149500Y-2224672D01*
X-8149500Y-1775327D01*
X-8149501Y-1775315D01*
X-8164033Y-1702263D01*
X-8164036Y-1702254D01*
X-8195610Y-1655000D01*
X-8212218Y-1596112D01*
X-8195610Y-1545000D01*
X-8164036Y-1497745D01*
X-8164033Y-1497736D01*
X-8149501Y-1424684D01*
X-8149500Y-1424672D01*
X-8149500Y-975327D01*
X-8149501Y-975315D01*
X-8164033Y-902263D01*
X-8164036Y-902254D01*
X-8195610Y-855000D01*
X-8212218Y-796112D01*
X-8195610Y-745000D01*
X-8164036Y-697745D01*
X-8164033Y-697736D01*
X-8149501Y-624684D01*
X-8149500Y-624672D01*
X-8149500Y-175327D01*
X-8149501Y-175315D01*
X-8164033Y-102263D01*
X-8164036Y-102254D01*
X-8195610Y-55000D01*
X-8212218Y3888D01*
X-8195610Y55000D01*
X-8164036Y102254D01*
X-8164033Y102263D01*
X-8149501Y175315D01*
X-8149500Y175327D01*
X-8149500Y624672D01*
X-8149501Y624684D01*
X-8164033Y697736D01*
X-8164036Y697745D01*
X-8195610Y745000D01*
X-8212218Y803888D01*
X-8195610Y855000D01*
X-8164036Y902254D01*
X-8164033Y902263D01*
X-8149501Y975315D01*
X-8149500Y975327D01*
X-8149500Y1424672D01*
X-8149501Y1424684D01*
X-8164033Y1497736D01*
X-8164036Y1497745D01*
X-8195610Y1545000D01*
X-8212218Y1603888D01*
X-8195610Y1655000D01*
X-8164036Y1702254D01*
X-8164033Y1702263D01*
X-8149501Y1775315D01*
X-8149500Y1775327D01*
X-8149500Y2224672D01*
X-8149501Y2224684D01*
X-8164033Y2297736D01*
X-8164035Y2297742D01*
X-8219397Y2380599D01*
X-8219400Y2380602D01*
X-8302257Y2435964D01*
X-8302260Y2435966D01*
X-8357808Y2447015D01*
X-8375315Y2450498D01*
X-8375320Y2450498D01*
X-8375326Y2450500D01*
X-9024674Y2450500D01*
X-9097740Y2435966D01*
X-9180601Y2380601D01*
X-9235966Y2297740D01*
X-9250500Y2224674D01*
X-9250500Y1775326D01*
X-9235966Y1702260D01*
X-9235964Y1702257D01*
X-9235964Y1702256D01*
X-9235723Y1701896D01*
X-9204388Y1655000D01*
X-9187780Y1596114D01*
X-9204388Y1545000D01*
X-9235966Y1497740D01*
X-9250500Y1424674D01*
X-9250500Y975326D01*
X-9235966Y902260D01*
X-9235964Y902257D01*
X-9235964Y902256D01*
X-9221095Y880004D01*
X-9204388Y855000D01*
X-9187780Y796114D01*
X-9204388Y745000D01*
X-9235966Y697740D01*
X-9250500Y624674D01*
X-9250500Y175326D01*
X-9235966Y102260D01*
X-9235964Y102257D01*
X-9235964Y102256D01*
X-9221095Y80004D01*
X-9204388Y55000D01*
X-9187780Y-3886D01*
X-9204388Y-54999D01*
X-9221095Y-80004D01*
X-9235964Y-102256D01*
X-9235964Y-102257D01*
X-9235966Y-102260D01*
X-9250500Y-175326D01*
X-9250500Y-624674D01*
X-9235966Y-697740D01*
X-9204388Y-744999D01*
X-9187780Y-803886D01*
X-9204388Y-854999D01*
X-9204640Y-855377D01*
X-9235964Y-902256D01*
X-9235964Y-902257D01*
X-9235966Y-902260D01*
X-9250500Y-975326D01*
X-9250500Y-1424674D01*
X-9235966Y-1497740D01*
X-9204388Y-1544999D01*
X-9187780Y-1603886D01*
X-9204388Y-1654999D01*
X-9221095Y-1680004D01*
X-9235964Y-1702256D01*
X-9235964Y-1702257D01*
X-9235966Y-1702260D01*
X-9250500Y-1775326D01*
X-9250500Y-2224674D01*
X-12000000Y-2224674D01*
X-12000000Y-700000D01*
X-12000001Y-700000D01*
X-13001000Y-700000D01*
X-13059191Y-681093D01*
X-13095155Y-631593D01*
X-13100000Y-601000D01*
X-13100000Y4800001D01*
X-12850000Y4800001D01*
X-12849999Y4800000D01*
X-12550001Y4800000D01*
X-12550000Y4800001D01*
X-12550000Y4974624D01*
X-12564506Y5047546D01*
X-12564507Y5047548D01*
X-12619758Y5130237D01*
X-12619762Y5130241D01*
X-12702451Y5185492D01*
X-12702453Y5185493D01*
X-12775375Y5199999D01*
X-12775377Y5200000D01*
X-12849999Y5200000D01*
X-12850000Y5199999D01*
X-12850000Y4800001D01*
X-13100000Y4800001D01*
X-13100000Y6299999D01*
X-13100000Y6300000D01*
X-13100001Y6300000D01*
X-13836299Y6300000D01*
X-13894490Y6318907D01*
X-13930454Y6368407D01*
X-13930454Y6429593D01*
X-13894490Y6479093D01*
X-13874185Y6490464D01*
X-13622432Y6594743D01*
X-13166801Y6944360D01*
X-13166791Y6944370D01*
X-12817175Y7399998D01*
X-12817173Y7400002D01*
X-12597396Y7930593D01*
X-12597394Y7930601D01*
X-12522431Y8499998D01*
X-12522431Y8499999D01*
X-12597394Y9069397D01*
X-12597396Y9069405D01*
X-12694801Y9304562D01*
X-12699602Y9365558D01*
X-12667632Y9417727D01*
X-12611104Y9441142D01*
X-12551609Y9426858D01*
G37*
%TD.AperFunction*%
%TA.AperFunction,Conductor*%
G36*
X16634330Y7296285D02*
G01*
X16682872Y7259038D01*
X16692523Y7241385D01*
X16933099Y6670080D01*
X16934800Y6665761D01*
X17227134Y5869042D01*
X17228630Y5864648D01*
X17483291Y5055130D01*
X17484580Y5050671D01*
X17701023Y4230082D01*
X17702101Y4225568D01*
X17879839Y3395758D01*
X17880705Y3391197D01*
X18019354Y2553955D01*
X18020005Y2549360D01*
X18119261Y1706518D01*
X18119695Y1701896D01*
X18179333Y855377D01*
X18179551Y850741D01*
X18199445Y2321D01*
X18199445Y-2321D01*
X18179551Y-850741D01*
X18179333Y-855377D01*
X18119695Y-1701896D01*
X18119261Y-1706518D01*
X18020005Y-2549360D01*
X18019354Y-2553955D01*
X17880705Y-3391197D01*
X17879839Y-3395758D01*
X17702101Y-4225568D01*
X17701023Y-4230082D01*
X17484580Y-5050671D01*
X17483291Y-5055130D01*
X17228630Y-5864648D01*
X17227134Y-5869042D01*
X16934800Y-6665761D01*
X16933099Y-6670080D01*
X16603754Y-7452192D01*
X16601853Y-7456427D01*
X16236201Y-8222261D01*
X16234104Y-8226401D01*
X15832953Y-8974263D01*
X15830663Y-8978301D01*
X15394913Y-9706517D01*
X15392437Y-9710443D01*
X14923030Y-10417435D01*
X14920373Y-10421241D01*
X14418333Y-11105471D01*
X14415500Y-11109148D01*
X13881948Y-11769084D01*
X13878946Y-11772624D01*
X13315039Y-12406835D01*
X13311874Y-12410230D01*
X12906422Y-12825300D01*
X12852235Y-12853715D01*
X12791695Y-12844852D01*
X12747926Y-12802098D01*
X12737611Y-12742033D01*
X12751283Y-12646940D01*
X12755131Y-12620175D01*
X12782127Y-12565268D01*
X12783052Y-12564328D01*
X13214884Y-12132496D01*
X13230734Y-12119626D01*
X13240669Y-12113137D01*
X13259451Y-12089003D01*
X13267577Y-12079804D01*
X13268376Y-12079006D01*
X13279875Y-12062898D01*
X13282309Y-12059636D01*
X13312517Y-12020826D01*
X13312518Y-12020822D01*
X13316022Y-12014350D01*
X13319237Y-12007771D01*
X13319237Y-12007769D01*
X13319240Y-12007766D01*
X13333287Y-11960581D01*
X13334512Y-11956754D01*
X13350500Y-11910188D01*
X13350500Y-11910183D01*
X13351707Y-11902951D01*
X13352617Y-11895655D01*
X13350585Y-11846513D01*
X13350500Y-11842423D01*
X13350500Y-11571544D01*
X13369407Y-11513353D01*
X13379490Y-11501546D01*
X13434826Y-11446211D01*
X13489866Y-11333625D01*
X13500500Y-11260636D01*
X13500500Y-10939364D01*
X13489866Y-10866375D01*
X13434826Y-10753789D01*
X13346211Y-10665174D01*
X13233625Y-10610134D01*
X13233626Y-10610134D01*
X13215377Y-10607475D01*
X13160636Y-10599500D01*
X12951977Y-10599500D01*
X12893786Y-10580593D01*
X12857822Y-10531093D01*
X12857822Y-10469907D01*
X12893786Y-10420407D01*
X12898453Y-10417216D01*
X12909191Y-10410315D01*
X12953028Y-10382143D01*
X13047277Y-10273373D01*
X13107065Y-10142457D01*
X13127547Y-10000000D01*
X13126012Y-9989327D01*
X13107065Y-9857543D01*
X13097982Y-9837654D01*
X13047277Y-9726627D01*
X13029852Y-9706517D01*
X12996580Y-9668117D01*
X12972763Y-9611757D01*
X12972400Y-9603287D01*
X12972400Y-9499500D01*
X12991307Y-9441309D01*
X13040807Y-9405345D01*
X13071400Y-9400500D01*
X13160632Y-9400500D01*
X13160636Y-9400500D01*
X13233625Y-9389866D01*
X13346211Y-9334826D01*
X13434826Y-9246211D01*
X13489866Y-9133625D01*
X13500500Y-9060636D01*
X13500500Y-8739364D01*
X13489866Y-8666375D01*
X13434826Y-8553789D01*
X13346211Y-8465174D01*
X13233625Y-8410134D01*
X13233626Y-8410134D01*
X13215377Y-8407475D01*
X13160636Y-8399500D01*
X12839364Y-8399500D01*
X12795570Y-8405880D01*
X12766373Y-8410134D01*
X12653790Y-8465173D01*
X12565173Y-8553790D01*
X12510134Y-8666373D01*
X12506421Y-8691861D01*
X12499573Y-8738867D01*
X12499500Y-8739367D01*
X12499500Y-8863810D01*
X12480593Y-8922001D01*
X12470503Y-8933814D01*
X12407020Y-8997296D01*
X12391169Y-9010169D01*
X12381232Y-9016661D01*
X12362448Y-9040795D01*
X12354337Y-9049980D01*
X12353527Y-9050789D01*
X12353519Y-9050798D01*
X12342033Y-9066886D01*
X12339590Y-9070163D01*
X12309382Y-9108974D01*
X12305881Y-9115443D01*
X12302659Y-9122034D01*
X12288618Y-9169196D01*
X12287370Y-9173090D01*
X12271400Y-9219610D01*
X12270193Y-9226843D01*
X12269283Y-9234147D01*
X12271315Y-9283275D01*
X12271400Y-9287366D01*
X12271400Y-9603287D01*
X12252493Y-9661478D01*
X12247220Y-9668117D01*
X12196523Y-9726626D01*
X12136734Y-9857543D01*
X12116253Y-9999997D01*
X12116253Y-10000002D01*
X12136734Y-10142456D01*
X12185392Y-10249000D01*
X12196523Y-10273373D01*
X12290771Y-10382142D01*
X12290773Y-10382144D01*
X12411842Y-10459950D01*
X12411847Y-10459953D01*
X12501251Y-10486204D01*
X12549935Y-10500499D01*
X12549936Y-10500499D01*
X12549939Y-10500500D01*
X12549941Y-10500500D01*
X12579456Y-10500500D01*
X12637647Y-10519407D01*
X12673611Y-10568907D01*
X12673611Y-10630093D01*
X12649461Y-10669501D01*
X12582999Y-10735964D01*
X12565173Y-10753790D01*
X12510134Y-10866373D01*
X12510134Y-10866375D01*
X12499500Y-10939364D01*
X12499500Y-11260636D01*
X12502659Y-11282318D01*
X12510134Y-11333626D01*
X12534520Y-11383508D01*
X12565174Y-11446211D01*
X12620505Y-11501542D01*
X12648281Y-11556057D01*
X12649500Y-11571544D01*
X12649500Y-11665510D01*
X12630593Y-11723701D01*
X12620504Y-11735514D01*
X12286314Y-12069704D01*
X12231797Y-12097481D01*
X12216310Y-12098700D01*
X12173459Y-12098700D01*
X12173459Y-12096667D01*
X12122794Y-12087897D01*
X12080154Y-12044017D01*
X12069999Y-12000341D01*
X12069999Y-11918464D01*
X12069998Y-11918461D01*
X12059096Y-11843624D01*
X12002664Y-11728192D01*
X11911807Y-11637335D01*
X11796374Y-11580903D01*
X11721538Y-11570000D01*
X11650001Y-11570000D01*
X11650000Y-11570001D01*
X11650000Y-12141000D01*
X11631093Y-12199191D01*
X11581593Y-12235155D01*
X11551000Y-12240000D01*
X10911234Y-12240000D01*
X10894981Y-12248281D01*
X10879494Y-12249500D01*
X10815748Y-12249500D01*
X10757557Y-12230593D01*
X10721593Y-12181093D01*
X10717782Y-12136229D01*
X10725500Y-12083260D01*
X10725500Y-11939999D01*
X10930000Y-11939999D01*
X10930001Y-11940000D01*
X11349999Y-11940000D01*
X11350000Y-11939999D01*
X11350000Y-11569999D01*
X11278464Y-11570000D01*
X11278460Y-11570001D01*
X11203624Y-11580903D01*
X11088192Y-11637335D01*
X10997335Y-11728192D01*
X10940903Y-11843625D01*
X10930000Y-11918462D01*
X10930000Y-11939999D01*
X10725500Y-11939999D01*
X10725500Y-11816740D01*
X10715573Y-11748607D01*
X10709172Y-11735514D01*
X10678171Y-11672100D01*
X10664198Y-11643517D01*
X10581483Y-11560802D01*
X10571777Y-11556057D01*
X10476395Y-11509427D01*
X10449139Y-11505456D01*
X10408260Y-11499500D01*
X10408257Y-11499500D01*
X10163459Y-11499500D01*
X10131314Y-11494136D01*
X10088387Y-11479399D01*
X10081160Y-11478193D01*
X10073855Y-11477283D01*
X10073854Y-11477283D01*
X10073852Y-11477283D01*
X10024724Y-11479315D01*
X10020633Y-11479400D01*
X9655959Y-11479400D01*
X9597768Y-11460493D01*
X9588796Y-11452259D01*
X9588680Y-11452394D01*
X9583328Y-11447756D01*
X9462257Y-11369949D01*
X9462254Y-11369947D01*
X9462253Y-11369947D01*
X9462250Y-11369946D01*
X9324164Y-11329400D01*
X9324161Y-11329400D01*
X9180239Y-11329400D01*
X9180235Y-11329400D01*
X9042149Y-11369946D01*
X9042142Y-11369949D01*
X8921072Y-11447756D01*
X8921070Y-11447758D01*
X8826671Y-11556701D01*
X8774275Y-11588297D01*
X8713314Y-11583061D01*
X8687891Y-11565943D01*
X8687865Y-11565981D01*
X8686498Y-11565005D01*
X8681848Y-11561874D01*
X8681187Y-11561213D01*
X8576248Y-11509912D01*
X8508216Y-11500000D01*
X8400001Y-11500000D01*
X8400000Y-11500001D01*
X8400000Y-12001000D01*
X8381093Y-12059191D01*
X8331593Y-12095155D01*
X8301000Y-12100000D01*
X8199000Y-12100000D01*
X8140809Y-12081093D01*
X8104845Y-12031593D01*
X8100000Y-12001000D01*
X8100000Y-11500000D01*
X7991785Y-11500000D01*
X7991782Y-11500001D01*
X7923750Y-11509912D01*
X7818811Y-11561214D01*
X7736212Y-11643813D01*
X7736212Y-11643814D01*
X7728872Y-11658827D01*
X7686327Y-11702799D01*
X7626061Y-11713366D01*
X7571094Y-11686492D01*
X7569929Y-11685347D01*
X7317671Y-11433089D01*
X7289894Y-11378572D01*
X7297622Y-11321958D01*
X7347265Y-11213257D01*
X7359318Y-11129423D01*
X7367747Y-11070802D01*
X7367747Y-11070797D01*
X7347265Y-10928343D01*
X7347265Y-10928341D01*
X7330041Y-10890626D01*
X7323066Y-10829840D01*
X7353152Y-10776563D01*
X7408809Y-10751145D01*
X7420094Y-10750500D01*
X10024673Y-10750500D01*
X10024674Y-10750500D01*
X10097740Y-10735966D01*
X10180601Y-10680601D01*
X10235966Y-10597740D01*
X10250500Y-10524674D01*
X10250500Y-8275326D01*
X10235966Y-8202260D01*
X10235557Y-8200203D01*
X10242747Y-8139442D01*
X10284279Y-8094512D01*
X10313333Y-8083792D01*
X10648198Y-8017184D01*
X11676272Y-7668200D01*
X12650000Y-7188010D01*
X13552719Y-6584832D01*
X14368986Y-5868986D01*
X15084832Y-5052719D01*
X15688010Y-4150000D01*
X16168200Y-3176272D01*
X16517184Y-2148198D01*
X16728992Y-1083367D01*
X16800000Y0D01*
X16728992Y1083367D01*
X16517184Y2148198D01*
X16168200Y3176272D01*
X15688010Y4149999D01*
X15084832Y5052719D01*
X14368986Y5868986D01*
X13919730Y6262972D01*
X13888447Y6315554D01*
X13894046Y6376482D01*
X13934388Y6422484D01*
X13994065Y6435988D01*
X14022891Y6428867D01*
X14153023Y6374964D01*
X14153032Y6374962D01*
X14722430Y6299999D01*
X14722431Y6299999D01*
X14722432Y6299999D01*
X15291829Y6374962D01*
X15291831Y6374962D01*
X15291833Y6374963D01*
X15570677Y6490464D01*
X15822429Y6594743D01*
X15822431Y6594744D01*
X16129024Y6830001D01*
X16278060Y6944360D01*
X16278061Y6944361D01*
X16278066Y6944365D01*
X16282926Y6950698D01*
X16471316Y7196213D01*
X16522741Y7263231D01*
X16573166Y7297887D01*
X16634330Y7296285D01*
G37*
%TD.AperFunction*%
%TA.AperFunction,Conductor*%
G36*
X76404Y-4232986D02*
G01*
X4261199Y-8417781D01*
X4274074Y-8433637D01*
X4280563Y-8443569D01*
X4304690Y-8462348D01*
X4313877Y-8470460D01*
X4314689Y-8471271D01*
X4314693Y-8471275D01*
X4330794Y-8482770D01*
X4334055Y-8485203D01*
X4372874Y-8515417D01*
X4379323Y-8518907D01*
X4385928Y-8522135D01*
X4385933Y-8522139D01*
X4418096Y-8531714D01*
X4419512Y-8532136D01*
X4469888Y-8566861D01*
X4490233Y-8624565D01*
X4472774Y-8683207D01*
X4438385Y-8714086D01*
X4431744Y-8717679D01*
X4431738Y-8717684D01*
X4430070Y-8719497D01*
X4411393Y-8735315D01*
X4409335Y-8736659D01*
X4409330Y-8736663D01*
X4384830Y-8768141D01*
X4379545Y-8774380D01*
X4352516Y-8803743D01*
X4352513Y-8803747D01*
X4351523Y-8806005D01*
X4338995Y-8827031D01*
X4337483Y-8828973D01*
X4337481Y-8828976D01*
X4324530Y-8866701D01*
X4321558Y-8874319D01*
X4305527Y-8910868D01*
X4303514Y-8918819D01*
X4301656Y-8918348D01*
X4282057Y-8965110D01*
X4229755Y-8996861D01*
X4207047Y-8999500D01*
X4125326Y-8999500D01*
X4125325Y-8999500D01*
X4125315Y-8999501D01*
X4052263Y-9014033D01*
X4052257Y-9014035D01*
X3969400Y-9069397D01*
X3969397Y-9069400D01*
X3914035Y-9152257D01*
X3914033Y-9152263D01*
X3899501Y-9225315D01*
X3899500Y-9225327D01*
X3899500Y-10552400D01*
X3880593Y-10610591D01*
X3831093Y-10646555D01*
X3800500Y-10651400D01*
X3189459Y-10651400D01*
X3131268Y-10632493D01*
X3096702Y-10586999D01*
X3071628Y-10519774D01*
X3071353Y-10519407D01*
X3044521Y-10483563D01*
X2989687Y-10410313D01*
X2888837Y-10334818D01*
X2880228Y-10328373D01*
X2880226Y-10328372D01*
X2784023Y-10292489D01*
X2736111Y-10254440D01*
X2719714Y-10195492D01*
X2741096Y-10138165D01*
X2784027Y-10106975D01*
X2879982Y-10071186D01*
X2989327Y-9989331D01*
X2989331Y-9989327D01*
X3071185Y-9879983D01*
X3118916Y-9752009D01*
X3118918Y-9752001D01*
X3125000Y-9695434D01*
X3125000Y-9575001D01*
X3124999Y-9575000D01*
X1675002Y-9575000D01*
X1675001Y-9575001D01*
X1675001Y-9695436D01*
X1681081Y-9752004D01*
X1681082Y-9752006D01*
X1728814Y-9879983D01*
X1810668Y-9989327D01*
X1810672Y-9989331D01*
X1920016Y-10071185D01*
X2015973Y-10106975D01*
X2063887Y-10145025D01*
X2080285Y-10203972D01*
X2058903Y-10261300D01*
X2015974Y-10292490D01*
X1949469Y-10317296D01*
X1919771Y-10328373D01*
X1810315Y-10410311D01*
X1810311Y-10410315D01*
X1728373Y-10519771D01*
X1680587Y-10647887D01*
X1674500Y-10704518D01*
X1674500Y-11163809D01*
X1655593Y-11222000D01*
X1645503Y-11233813D01*
X1495807Y-11383508D01*
X1441291Y-11411285D01*
X1380859Y-11401713D01*
X1337594Y-11358449D01*
X1327812Y-11327593D01*
X1314965Y-11238243D01*
X1303413Y-11212949D01*
X1255177Y-11107327D01*
X1250819Y-11102297D01*
X1204480Y-11048817D01*
X1180663Y-10992457D01*
X1180300Y-10983987D01*
X1180300Y-9274999D01*
X1675000Y-9274999D01*
X1675001Y-9275000D01*
X2249999Y-9275000D01*
X2250000Y-9274999D01*
X2550000Y-9274999D01*
X2550001Y-9275000D01*
X3124998Y-9275000D01*
X3124999Y-9274999D01*
X3124999Y-9154569D01*
X3124998Y-9154563D01*
X3118918Y-9097995D01*
X3118917Y-9097993D01*
X3071185Y-8970016D01*
X2989331Y-8860672D01*
X2989327Y-8860668D01*
X2879983Y-8778814D01*
X2752009Y-8731083D01*
X2752001Y-8731081D01*
X2695434Y-8725000D01*
X2550001Y-8725000D01*
X2550000Y-8725001D01*
X2550000Y-9274999D01*
X2250000Y-9274999D01*
X2250000Y-8725001D01*
X2249999Y-8725000D01*
X2104569Y-8725000D01*
X2104563Y-8725001D01*
X2047995Y-8731081D01*
X2047993Y-8731082D01*
X1920016Y-8778814D01*
X1810672Y-8860668D01*
X1810668Y-8860672D01*
X1728814Y-8970016D01*
X1681083Y-9097990D01*
X1681081Y-9097998D01*
X1675000Y-9154565D01*
X1675000Y-9274999D01*
X1180300Y-9274999D01*
X1180300Y-6583513D01*
X1182407Y-6563197D01*
X1183332Y-6558785D01*
X1184842Y-6551585D01*
X1181060Y-6521242D01*
X1180300Y-6508998D01*
X1180300Y-6507859D01*
X1179733Y-6504465D01*
X1177043Y-6488347D01*
X1176458Y-6484329D01*
X1170373Y-6435507D01*
X1170371Y-6435504D01*
X1168277Y-6428469D01*
X1165891Y-6421516D01*
X1142487Y-6378271D01*
X1140613Y-6374630D01*
X1118999Y-6330417D01*
X1114748Y-6324462D01*
X1110219Y-6318643D01*
X1110218Y-6318642D01*
X1074021Y-6285320D01*
X1071094Y-6282512D01*
X-63604Y-5147814D01*
X-91381Y-5093297D01*
X-92600Y-5077810D01*
X-92600Y-4302990D01*
X-73693Y-4244799D01*
X-24193Y-4208835D01*
X36993Y-4208835D01*
X76404Y-4232986D01*
G37*
%TD.AperFunction*%
%TA.AperFunction,Conductor*%
G36*
X-1578918Y-9017546D02*
G01*
X-1552647Y-9050703D01*
X-1503076Y-9152102D01*
X-1425179Y-9229998D01*
X-1397404Y-9284513D01*
X-1406975Y-9344945D01*
X-1425178Y-9370000D01*
X-1503076Y-9447898D01*
X-1559582Y-9563482D01*
X-1570500Y-9638418D01*
X-1570500Y-9981582D01*
X-1559582Y-10056518D01*
X-1519248Y-10139020D01*
X-1510677Y-10199600D01*
X-1538185Y-10252503D01*
X-1771886Y-10486204D01*
X-1826403Y-10513981D01*
X-1841890Y-10515200D01*
X-2491000Y-10515200D01*
X-2549191Y-10496293D01*
X-2563758Y-10476242D01*
X-2590001Y-10450000D01*
X-3171000Y-10450000D01*
X-3229191Y-10431093D01*
X-3265155Y-10381593D01*
X-3270000Y-10351000D01*
X-3270000Y-10249000D01*
X-3251093Y-10190809D01*
X-3201593Y-10154845D01*
X-3171000Y-10150000D01*
X-2590002Y-10150000D01*
X-2590001Y-10149999D01*
X-2590001Y-10099306D01*
X-2590000Y-10099306D01*
X-2604463Y-10007984D01*
X-2604465Y-10007977D01*
X-2660548Y-9897911D01*
X-2660549Y-9897909D01*
X-2747909Y-9810549D01*
X-2747911Y-9810548D01*
X-2857977Y-9754466D01*
X-2857978Y-9754465D01*
X-2949307Y-9740000D01*
X-2964037Y-9740000D01*
X-3022228Y-9721093D01*
X-3058192Y-9671593D01*
X-3058192Y-9610407D01*
X-3054696Y-9601226D01*
X-3051524Y-9593996D01*
X-3038993Y-9572967D01*
X-3037485Y-9571029D01*
X-3037483Y-9571025D01*
X-3033628Y-9559796D01*
X-3024525Y-9533284D01*
X-3021561Y-9525687D01*
X-3005527Y-9489132D01*
X-3005526Y-9489126D01*
X-3005323Y-9486676D01*
X-3000299Y-9462717D01*
X-2999500Y-9460389D01*
X-2999135Y-9458202D01*
X-2998000Y-9456019D01*
X-2996838Y-9452634D01*
X-2996330Y-9452808D01*
X-2970907Y-9403918D01*
X-2916162Y-9376593D01*
X-2901486Y-9375499D01*
X-2625327Y-9375499D01*
X-2625326Y-9375499D01*
X-2625320Y-9375497D01*
X-2625315Y-9375497D01*
X-2607808Y-9372014D01*
X-2552260Y-9360965D01*
X-2486735Y-9317183D01*
X-2431735Y-9300500D01*
X-2393619Y-9300500D01*
X-2373304Y-9302607D01*
X-2371739Y-9302934D01*
X-2361685Y-9305043D01*
X-2331337Y-9301259D01*
X-2319093Y-9300500D01*
X-2317960Y-9300500D01*
X-2298478Y-9297249D01*
X-2294433Y-9296659D01*
X-2245607Y-9290573D01*
X-2245605Y-9290572D01*
X-2245603Y-9290572D01*
X-2238575Y-9288479D01*
X-2231616Y-9286091D01*
X-2188371Y-9262687D01*
X-2184730Y-9260813D01*
X-2140517Y-9239199D01*
X-2134562Y-9234948D01*
X-2128743Y-9230419D01*
X-2125451Y-9226843D01*
X-2095420Y-9194221D01*
X-2092612Y-9191294D01*
X-2058714Y-9157396D01*
X-2004197Y-9129619D01*
X-1988710Y-9128400D01*
X-1952941Y-9128400D01*
X-1952939Y-9128400D01*
X-1952936Y-9128399D01*
X-1952935Y-9128399D01*
X-1908811Y-9115443D01*
X-1814847Y-9087853D01*
X-1695107Y-9010901D01*
X-1635934Y-8995347D01*
X-1578918Y-9017546D01*
G37*
%TD.AperFunction*%
%TA.AperFunction,Conductor*%
G36*
X-3581315Y1749759D02*
G01*
X-3541707Y1710151D01*
X-3541384Y1710368D01*
X-3540296Y1708740D01*
X-3538050Y1706494D01*
X-3536390Y1702895D01*
X-3535966Y1702260D01*
X-3504388Y1655000D01*
X-3487780Y1596114D01*
X-3504388Y1545000D01*
X-3535966Y1497740D01*
X-3550500Y1424674D01*
X-3550500Y975326D01*
X-3535966Y902260D01*
X-3535964Y902257D01*
X-3535964Y902256D01*
X-3521095Y880004D01*
X-3504388Y855000D01*
X-3487780Y796114D01*
X-3504388Y745000D01*
X-3535966Y697740D01*
X-3550500Y624674D01*
X-3550500Y175326D01*
X-3535966Y102260D01*
X-3535964Y102257D01*
X-3535964Y102256D01*
X-3521095Y80004D01*
X-3504388Y55000D01*
X-3487780Y-3886D01*
X-3504388Y-54999D01*
X-3521095Y-80004D01*
X-3535964Y-102256D01*
X-3535964Y-102257D01*
X-3535966Y-102260D01*
X-3550500Y-175326D01*
X-3550500Y-624674D01*
X-3535966Y-697740D01*
X-3504388Y-744999D01*
X-3487780Y-803886D01*
X-3504388Y-854999D01*
X-3504640Y-855377D01*
X-3535964Y-902256D01*
X-3535964Y-902257D01*
X-3535966Y-902260D01*
X-3550500Y-975326D01*
X-3550500Y-1424674D01*
X-3535966Y-1497740D01*
X-3504388Y-1544999D01*
X-3487780Y-1603886D01*
X-3504388Y-1654999D01*
X-3521095Y-1680004D01*
X-3535964Y-1702256D01*
X-3535964Y-1702257D01*
X-3535966Y-1702260D01*
X-3550500Y-1775326D01*
X-3550500Y-2224674D01*
X-3535966Y-2297740D01*
X-3480601Y-2380601D01*
X-3397740Y-2435966D01*
X-3324674Y-2450500D01*
X-3324673Y-2450500D01*
X-2749500Y-2450500D01*
X-2691309Y-2469407D01*
X-2655345Y-2518907D01*
X-2650500Y-2549500D01*
X-2650500Y-2624674D01*
X-2635966Y-2697740D01*
X-2604388Y-2744999D01*
X-2587780Y-2803886D01*
X-2604388Y-2854999D01*
X-2621095Y-2880004D01*
X-2635964Y-2902256D01*
X-2635964Y-2902257D01*
X-2635966Y-2902260D01*
X-2650500Y-2975326D01*
X-2650500Y-3424674D01*
X-2635966Y-3497740D01*
X-2635752Y-3498059D01*
X-2635580Y-3498669D01*
X-2632233Y-3506752D01*
X-2633188Y-3507147D01*
X-2619140Y-3556945D01*
X-2640313Y-3614350D01*
X-2691184Y-3648347D01*
X-2693762Y-3649037D01*
X-2719925Y-3655662D01*
X-2727929Y-3657340D01*
X-2767280Y-3663907D01*
X-2767286Y-3663909D01*
X-2769449Y-3665080D01*
X-2792253Y-3673979D01*
X-2794639Y-3674583D01*
X-2794641Y-3674584D01*
X-2823789Y-3693627D01*
X-2828038Y-3696403D01*
X-2835065Y-3700590D01*
X-2865926Y-3717291D01*
X-2870158Y-3719582D01*
X-2871821Y-3721389D01*
X-2890508Y-3737216D01*
X-2892565Y-3738560D01*
X-2892566Y-3738561D01*
X-2892569Y-3738563D01*
X-2892570Y-3738564D01*
X-2892572Y-3738566D01*
X-2917068Y-3770040D01*
X-2922358Y-3776286D01*
X-2949384Y-3805644D01*
X-2950372Y-3807897D01*
X-2962907Y-3828934D01*
X-2964417Y-3830874D01*
X-2964417Y-3830875D01*
X-2977370Y-3868606D01*
X-2980332Y-3876199D01*
X-2996373Y-3912768D01*
X-2996575Y-3915216D01*
X-3001604Y-3939192D01*
X-3002398Y-3941506D01*
X-3002400Y-3941513D01*
X-3002400Y-3981412D01*
X-3002738Y-3989586D01*
X-3006032Y-4029344D01*
X-3006031Y-4029347D01*
X-3005430Y-4031721D01*
X-3002400Y-4056025D01*
X-3002400Y-6346427D01*
X-3021307Y-6404618D01*
X-3026580Y-6411257D01*
X-3060003Y-6449831D01*
X-3072477Y-6464227D01*
X-3122265Y-6573246D01*
X-3132265Y-6595143D01*
X-3152747Y-6737597D01*
X-3152747Y-6737602D01*
X-3131280Y-6886910D01*
X-3141713Y-6947199D01*
X-3185591Y-6989841D01*
X-3191128Y-6991128D01*
X-3200000Y-7000000D01*
X-3200000Y-7055983D01*
X-3216684Y-7110983D01*
X-3260963Y-7177253D01*
X-3260964Y-7177256D01*
X-3260966Y-7177259D01*
X-3275500Y-7250325D01*
X-3275500Y-7649673D01*
X-3260966Y-7722739D01*
X-3205601Y-7805600D01*
X-3163855Y-7833493D01*
X-3114633Y-7866382D01*
X-3116372Y-7868985D01*
X-3082087Y-7898261D01*
X-3067796Y-7957754D01*
X-3091204Y-8014285D01*
X-3115672Y-8032062D01*
X-3114634Y-8033616D01*
X-3188269Y-8082816D01*
X-3243269Y-8099500D01*
X-3956731Y-8099500D01*
X-4011731Y-8082816D01*
X-4077254Y-8039035D01*
X-4077263Y-8039032D01*
X-4150315Y-8024500D01*
X-4150325Y-8024499D01*
X-4150326Y-8024499D01*
X-4574674Y-8024499D01*
X-4574684Y-8024500D01*
X-4647736Y-8039032D01*
X-4647737Y-8039032D01*
X-4647740Y-8039033D01*
X-4647742Y-8039034D01*
X-4714014Y-8083315D01*
X-4769015Y-8099999D01*
X-4799999Y-8099999D01*
X-4800000Y-8100000D01*
X-4800000Y-8149618D01*
X-4799999Y-8149626D01*
X-4794076Y-8179401D01*
X-4794076Y-8218029D01*
X-4795133Y-8223345D01*
X-4800499Y-8250321D01*
X-4800500Y-8250329D01*
X-4800500Y-8509187D01*
X-4819407Y-8567378D01*
X-4868907Y-8603342D01*
X-4887250Y-8607426D01*
X-4903290Y-8609426D01*
X-4910350Y-8611528D01*
X-4917277Y-8613906D01*
X-4960564Y-8637332D01*
X-4964179Y-8639192D01*
X-4972870Y-8643441D01*
X-5016348Y-8653500D01*
X-5119164Y-8653500D01*
X-5249809Y-8691861D01*
X-5310969Y-8690113D01*
X-5359422Y-8652751D01*
X-5376700Y-8596871D01*
X-5376700Y-7874998D01*
X-3700000Y-7874998D01*
X-3699999Y-7874999D01*
X-3650381Y-7874999D01*
X-3650372Y-7874998D01*
X-3619316Y-7868820D01*
X-3580684Y-7868820D01*
X-3549627Y-7874998D01*
X-3549619Y-7874999D01*
X-3500001Y-7874999D01*
X-3500000Y-7874998D01*
X-3500000Y-7587500D01*
X-3500001Y-7587499D01*
X-3699999Y-7587499D01*
X-3700000Y-7587500D01*
X-3700000Y-7874998D01*
X-5376700Y-7874998D01*
X-5376700Y-7799998D01*
X-4800000Y-7799998D01*
X-4799999Y-7799999D01*
X-4512501Y-7799999D01*
X-4512500Y-7799998D01*
X-4212500Y-7799998D01*
X-4212499Y-7799999D01*
X-4000001Y-7799999D01*
X-4000000Y-7799998D01*
X-4000000Y-7600000D01*
X-4000001Y-7599999D01*
X-4212499Y-7599999D01*
X-4212500Y-7600000D01*
X-4212500Y-7799998D01*
X-4512500Y-7799998D01*
X-4512500Y-7600000D01*
X-4512501Y-7599999D01*
X-4799999Y-7599999D01*
X-4800000Y-7600000D01*
X-4800000Y-7649618D01*
X-4799999Y-7649626D01*
X-4793821Y-7680683D01*
X-4793821Y-7719315D01*
X-4799999Y-7750371D01*
X-4800000Y-7750379D01*
X-4800000Y-7799998D01*
X-5376700Y-7799998D01*
X-5376700Y-7299998D01*
X-4800000Y-7299998D01*
X-4799999Y-7299999D01*
X-4512501Y-7299999D01*
X-4512500Y-7299998D01*
X-4512500Y-7287498D01*
X-4212500Y-7287498D01*
X-4212499Y-7287499D01*
X-4000001Y-7287499D01*
X-4000000Y-7287498D01*
X-3700000Y-7287498D01*
X-3699999Y-7287499D01*
X-3500001Y-7287499D01*
X-3500000Y-7287498D01*
X-3500000Y-7000000D01*
X-3500001Y-6999999D01*
X-3549630Y-6999999D01*
X-3580688Y-7006177D01*
X-3619312Y-7006177D01*
X-3650369Y-6999999D01*
X-3699999Y-6999999D01*
X-3700000Y-7000000D01*
X-3700000Y-7287498D01*
X-4000000Y-7287498D01*
X-4000000Y-7000000D01*
X-4000001Y-6999999D01*
X-4049626Y-6999999D01*
X-4122542Y-7014503D01*
X-4129685Y-7017462D01*
X-4167574Y-7024999D01*
X-4212499Y-7024999D01*
X-4212500Y-7025000D01*
X-4212500Y-7287498D01*
X-4512500Y-7287498D01*
X-4512500Y-7025000D01*
X-4512501Y-7024999D01*
X-4574624Y-7024999D01*
X-4647546Y-7039505D01*
X-4647548Y-7039506D01*
X-4730237Y-7094757D01*
X-4730241Y-7094761D01*
X-4785492Y-7177450D01*
X-4785493Y-7177452D01*
X-4799999Y-7250374D01*
X-4800000Y-7250376D01*
X-4800000Y-7299998D01*
X-5376700Y-7299998D01*
X-5376700Y-6628789D01*
X-5357793Y-6570598D01*
X-5347704Y-6558785D01*
X-4465722Y-5676803D01*
X-4449865Y-5663927D01*
X-4439929Y-5657436D01*
X-4421148Y-5633305D01*
X-4413034Y-5624115D01*
X-4412225Y-5623306D01*
X-4412222Y-5623302D01*
X-4412220Y-5623300D01*
X-4400747Y-5607231D01*
X-4398301Y-5603950D01*
X-4368083Y-5565126D01*
X-4364591Y-5558675D01*
X-4361363Y-5552070D01*
X-4361360Y-5552066D01*
X-4347320Y-5504909D01*
X-4346072Y-5501015D01*
X-4330099Y-5454487D01*
X-4328892Y-5447252D01*
X-4327982Y-5439954D01*
X-4330015Y-5390823D01*
X-4330100Y-5386732D01*
X-4330100Y1056710D01*
X-4311193Y1114901D01*
X-4301104Y1126714D01*
X-3696264Y1731553D01*
X-3641747Y1759330D01*
X-3581315Y1749759D01*
G37*
%TD.AperFunction*%
%TA.AperFunction,Conductor*%
G36*
X-1593399Y-7754607D02*
G01*
X-1581586Y-7764696D01*
X-1237886Y-8108396D01*
X-1210109Y-8162913D01*
X-1219680Y-8223345D01*
X-1262945Y-8266610D01*
X-1307890Y-8277400D01*
X-1621141Y-8277400D01*
X-1679332Y-8258493D01*
X-1688303Y-8250259D01*
X-1688420Y-8250394D01*
X-1693771Y-8245756D01*
X-1814842Y-8167949D01*
X-1814849Y-8167946D01*
X-1952935Y-8127400D01*
X-1952939Y-8127400D01*
X-2096861Y-8127400D01*
X-2096864Y-8127400D01*
X-2234950Y-8167946D01*
X-2234956Y-8167948D01*
X-2247478Y-8175996D01*
X-2306653Y-8191549D01*
X-2363669Y-8169350D01*
X-2396748Y-8117877D01*
X-2398918Y-8101081D01*
X-2400001Y-8099999D01*
X-2430985Y-8099999D01*
X-2485986Y-8083315D01*
X-2560367Y-8033616D01*
X-2558628Y-8031013D01*
X-2592918Y-8001727D01*
X-2607202Y-7942233D01*
X-2583788Y-7885705D01*
X-2559329Y-7867934D01*
X-2560367Y-7866382D01*
X-2489837Y-7819256D01*
X-2430949Y-7802648D01*
X-2414522Y-7804678D01*
X-2412785Y-7805043D01*
X-2382437Y-7801259D01*
X-2370193Y-7800500D01*
X-2369060Y-7800500D01*
X-2349578Y-7797249D01*
X-2345533Y-7796659D01*
X-2296707Y-7790573D01*
X-2296705Y-7790572D01*
X-2296703Y-7790572D01*
X-2289675Y-7788479D01*
X-2282716Y-7786091D01*
X-2239471Y-7762687D01*
X-2235831Y-7760813D01*
X-2205037Y-7745759D01*
X-2161557Y-7735700D01*
X-1651590Y-7735700D01*
X-1593399Y-7754607D01*
G37*
%TD.AperFunction*%
%TA.AperFunction,Conductor*%
G36*
X-1990809Y-4668907D02*
G01*
X-1954845Y-4718407D01*
X-1950000Y-4749000D01*
X-1950000Y-5249999D01*
X-1949999Y-5250000D01*
X-1775377Y-5250000D01*
X-1775375Y-5249999D01*
X-1702453Y-5235493D01*
X-1702451Y-5235492D01*
X-1619762Y-5180241D01*
X-1612866Y-5173345D01*
X-1610606Y-5175604D01*
X-1575347Y-5147812D01*
X-1514208Y-5145415D01*
X-1513238Y-5145694D01*
X-1383461Y-5183800D01*
X-1383459Y-5183800D01*
X-1257500Y-5183800D01*
X-1199309Y-5202707D01*
X-1163345Y-5252207D01*
X-1158500Y-5282800D01*
X-1158500Y-6541610D01*
X-1177407Y-6599801D01*
X-1187496Y-6611614D01*
X-1581586Y-7005704D01*
X-1636103Y-7033481D01*
X-1651590Y-7034700D01*
X-2078511Y-7034700D01*
X-2136702Y-7015793D01*
X-2172666Y-6966293D01*
X-2172666Y-6905107D01*
X-2168564Y-6894573D01*
X-2161934Y-6880056D01*
X-2141453Y-6737602D01*
X-2141453Y-6737597D01*
X-2161934Y-6595143D01*
X-2221723Y-6464226D01*
X-2277220Y-6400178D01*
X-2301037Y-6343819D01*
X-2301400Y-6335348D01*
X-2301400Y-5342407D01*
X-2282493Y-5284216D01*
X-2272404Y-5272403D01*
X-2250000Y-5249999D01*
X-2250000Y-4749000D01*
X-2231093Y-4690809D01*
X-2181593Y-4654845D01*
X-2151000Y-4650000D01*
X-2049000Y-4650000D01*
X-1990809Y-4668907D01*
G37*
%TD.AperFunction*%
%TA.AperFunction,Conductor*%
G36*
X428966Y18194390D02*
G01*
X1276667Y18154612D01*
X1281298Y18154286D01*
X2126221Y18074816D01*
X2130830Y18074273D01*
X2971077Y17955291D01*
X2975657Y17954533D01*
X3809427Y17796293D01*
X3813965Y17795321D01*
X4639397Y17598176D01*
X4643885Y17596992D01*
X5459160Y17361376D01*
X5463588Y17359983D01*
X6266925Y17086411D01*
X6271283Y17084812D01*
X7060917Y16773886D01*
X7065194Y16772085D01*
X7839385Y16424489D01*
X7843574Y16422489D01*
X8600625Y16038985D01*
X8604715Y16036791D01*
X9342954Y15618227D01*
X9346937Y15615843D01*
X10064748Y15163134D01*
X10068615Y15160567D01*
X10764409Y14674716D01*
X10768152Y14671970D01*
X11440423Y14154029D01*
X11444032Y14151111D01*
X12091272Y13602240D01*
X12094741Y13599156D01*
X12715566Y13020530D01*
X12718886Y13017286D01*
X13311874Y12410230D01*
X13315039Y12406835D01*
X13878946Y11772624D01*
X13881948Y11769084D01*
X14415508Y11109138D01*
X14418341Y11105460D01*
X14617454Y10834088D01*
X14636634Y10775987D01*
X14618000Y10717708D01*
X14568669Y10681513D01*
X14550566Y10677372D01*
X14153029Y10625036D01*
X13622431Y10405255D01*
X13347604Y10194373D01*
X13200086Y10081178D01*
X13166796Y10055634D01*
X13166792Y10055629D01*
X13166791Y10055628D01*
X12817175Y9599999D01*
X12817174Y9599998D01*
X12663956Y9230094D01*
X12600790Y9077596D01*
X12597396Y9069403D01*
X12597394Y9069397D01*
X12522431Y8499999D01*
X12522431Y8499998D01*
X12597394Y7930601D01*
X12597396Y7930593D01*
X12817173Y7400002D01*
X12817175Y7399998D01*
X12961855Y7211448D01*
X12982279Y7153772D01*
X12964901Y7095107D01*
X12916360Y7057859D01*
X12855195Y7056258D01*
X12828311Y7068866D01*
X12650000Y7188010D01*
X11676272Y7668200D01*
X10648198Y8017184D01*
X10312846Y8083889D01*
X10259465Y8113785D01*
X10233849Y8169350D01*
X10235066Y8200302D01*
X10249999Y8275368D01*
X10250000Y8275377D01*
X10250000Y10524622D01*
X10249999Y10524624D01*
X10235493Y10597546D01*
X10235492Y10597548D01*
X10180241Y10680237D01*
X10180237Y10680241D01*
X10097545Y10735494D01*
X10097545Y10735495D01*
X10055908Y10743775D01*
X8570003Y9257871D01*
X8515486Y9230094D01*
X8455054Y9239665D01*
X8429995Y9257871D01*
X6944090Y10743775D01*
X6902456Y10735495D01*
X6902453Y10735494D01*
X6819762Y10680241D01*
X6819758Y10680237D01*
X6764507Y10597548D01*
X6764506Y10597546D01*
X6750000Y10524624D01*
X6750000Y8275375D01*
X6764934Y8200301D01*
X6757742Y8139539D01*
X6716210Y8094609D01*
X6687156Y8083890D01*
X6351801Y8017184D01*
X6351796Y8017182D01*
X6351794Y8017182D01*
X6096712Y7930593D01*
X5323727Y7668200D01*
X5323722Y7668197D01*
X5323720Y7668197D01*
X4349998Y7188009D01*
X4349992Y7188005D01*
X3447290Y6584839D01*
X3447280Y6584832D01*
X3447276Y6584828D01*
X3447270Y6584824D01*
X2753304Y5976232D01*
X2631013Y5868986D01*
X2631005Y5868977D01*
X2631004Y5868976D01*
X1915174Y5052728D01*
X1915159Y5052708D01*
X1311993Y4150006D01*
X1311989Y4150000D01*
X831801Y3176278D01*
X482816Y2148204D01*
X271006Y1083364D01*
X199999Y0D01*
X214528Y-221676D01*
X199467Y-280979D01*
X152425Y-320103D01*
X91371Y-324105D01*
X45736Y-298155D01*
X-602919Y350500D01*
X-1267299Y1014881D01*
X-1280174Y1030737D01*
X-1286663Y1040669D01*
X-1310790Y1059448D01*
X-1319977Y1067560D01*
X-1320791Y1068374D01*
X-1320795Y1068377D01*
X-1322963Y1069925D01*
X-1323534Y1070697D01*
X-1323922Y1071026D01*
X-1323844Y1071117D01*
X-1359339Y1119123D01*
X-1359850Y1180306D01*
X-1324300Y1230104D01*
X-1266269Y1249497D01*
X-1265443Y1249500D01*
X-1025919Y1249500D01*
X-1005604Y1247393D01*
X-993985Y1244957D01*
X-963637Y1248740D01*
X-951393Y1249500D01*
X-950260Y1249500D01*
X-930770Y1252751D01*
X-926731Y1253339D01*
X-877907Y1259426D01*
X-870881Y1261517D01*
X-863916Y1263908D01*
X-820661Y1287317D01*
X-817024Y1289189D01*
X-772820Y1310799D01*
X-766842Y1315066D01*
X-761044Y1319580D01*
X-727720Y1355777D01*
X-724890Y1358726D01*
X-327315Y1756303D01*
X-272798Y1784081D01*
X-257311Y1785300D01*
X-221535Y1785300D01*
X-83449Y1825846D01*
X-83442Y1825849D01*
X37626Y1903655D01*
X78217Y1950500D01*
X131877Y2012427D01*
X191665Y2143343D01*
X212147Y2285800D01*
X210430Y2297740D01*
X191665Y2428256D01*
X188144Y2435966D01*
X131877Y2559173D01*
X37628Y2667943D01*
X-83447Y2745753D01*
X-85632Y2746751D01*
X-87109Y2748107D01*
X-89403Y2749581D01*
X-89147Y2749977D01*
X-130709Y2788123D01*
X-142860Y2848090D01*
X-117442Y2903746D01*
X-114509Y2906808D01*
X834881Y3856199D01*
X850737Y3869074D01*
X860669Y3875563D01*
X879448Y3899690D01*
X887560Y3908877D01*
X888374Y3909691D01*
X888377Y3909695D01*
X899843Y3925755D01*
X902291Y3929039D01*
X932514Y3967870D01*
X932517Y3967874D01*
X932518Y3967878D01*
X936022Y3974354D01*
X939240Y3980934D01*
X949230Y4014491D01*
X953282Y4028102D01*
X954520Y4031964D01*
X958072Y4042311D01*
X970500Y4078512D01*
X970500Y4078514D01*
X971705Y4085736D01*
X972615Y4093039D01*
X972617Y4093046D01*
X970584Y4142176D01*
X970500Y4146266D01*
X970500Y6339999D01*
X1730000Y6339999D01*
X1750692Y6340000D01*
X1750696Y6340001D01*
X1842015Y6354463D01*
X1842022Y6354465D01*
X1952088Y6410548D01*
X1952090Y6410549D01*
X2039450Y6497909D01*
X2039451Y6497911D01*
X2095533Y6607977D01*
X2095534Y6607978D01*
X2110000Y6699307D01*
X2110000Y6749999D01*
X2109999Y6750000D01*
X1730001Y6750000D01*
X1730000Y6749999D01*
X1730000Y6339999D01*
X970500Y6339999D01*
X970500Y6347243D01*
X989407Y6405434D01*
X999490Y6417240D01*
X1030351Y6448101D01*
X1084866Y6475877D01*
X1145298Y6466306D01*
X1170355Y6448101D01*
X1207905Y6410552D01*
X1207911Y6410548D01*
X1317977Y6354466D01*
X1317978Y6354465D01*
X1409307Y6340000D01*
X1429999Y6340000D01*
X1430000Y6340001D01*
X1430000Y7050001D01*
X1730000Y7050001D01*
X1730001Y7050000D01*
X2109998Y7050000D01*
X2109999Y7050001D01*
X2109999Y7100693D01*
X2095536Y7192015D01*
X2095534Y7192022D01*
X2039451Y7302088D01*
X2039450Y7302090D01*
X1952090Y7389450D01*
X1952088Y7389451D01*
X1842022Y7445533D01*
X1842020Y7445534D01*
X1750694Y7459999D01*
X1730000Y7459998D01*
X1730000Y7050001D01*
X1430000Y7050001D01*
X1430000Y7459998D01*
X1429999Y7459999D01*
X1409307Y7459999D01*
X1317984Y7445536D01*
X1317977Y7445534D01*
X1207911Y7389451D01*
X1207909Y7389450D01*
X1170358Y7351899D01*
X1115841Y7324122D01*
X1055409Y7333693D01*
X1030353Y7351896D01*
X992391Y7389859D01*
X882175Y7446017D01*
X790735Y7460500D01*
X449266Y7460499D01*
X449262Y7460499D01*
X414898Y7455056D01*
X357825Y7446017D01*
X247609Y7389859D01*
X160141Y7302391D01*
X160140Y7302389D01*
X103983Y7192176D01*
X89500Y7100736D01*
X89500Y6699262D01*
X103983Y6607825D01*
X103984Y6607821D01*
X159987Y6497911D01*
X160141Y6497609D01*
X240505Y6417244D01*
X268281Y6362730D01*
X269500Y6347243D01*
X269500Y4323190D01*
X250593Y4264999D01*
X240504Y4253186D01*
X-221296Y3791386D01*
X-275813Y3763609D01*
X-336245Y3773180D01*
X-379510Y3816445D01*
X-390300Y3861390D01*
X-390300Y5566481D01*
X-388193Y5586796D01*
X-385757Y5598413D01*
X-389540Y5628762D01*
X-390300Y5641007D01*
X-390300Y5642142D01*
X-393551Y5661628D01*
X-394137Y5665647D01*
X-400227Y5714493D01*
X-402325Y5721540D01*
X-404709Y5728483D01*
X-428124Y5771751D01*
X-429997Y5775389D01*
X-451600Y5819580D01*
X-455872Y5825563D01*
X-460380Y5831355D01*
X-460382Y5831358D01*
X-460385Y5831361D01*
X-496588Y5864689D01*
X-499516Y5867497D01*
X-803017Y6170998D01*
X-830793Y6225513D01*
X-821222Y6285945D01*
X-777957Y6329210D01*
X-733013Y6340000D01*
X-649307Y6340000D01*
X-649306Y6340001D01*
X-557984Y6354463D01*
X-557977Y6354465D01*
X-447911Y6410548D01*
X-447909Y6410549D01*
X-360549Y6497909D01*
X-360548Y6497911D01*
X-304466Y6607977D01*
X-304465Y6607978D01*
X-290000Y6699307D01*
X-290000Y6749999D01*
X-290001Y6750000D01*
X-871000Y6750000D01*
X-929191Y6768907D01*
X-965155Y6818407D01*
X-970000Y6849000D01*
X-970000Y7050001D01*
X-670000Y7050001D01*
X-669999Y7050000D01*
X-290002Y7050000D01*
X-290001Y7050001D01*
X-290001Y7100693D01*
X-290000Y7100693D01*
X-304463Y7192015D01*
X-304465Y7192022D01*
X-360548Y7302088D01*
X-360549Y7302090D01*
X-447909Y7389450D01*
X-491754Y7411791D01*
X-535018Y7455056D01*
X-544589Y7515488D01*
X-516811Y7570004D01*
X-491754Y7588209D01*
X-447909Y7610549D01*
X-360549Y7697909D01*
X-360548Y7697911D01*
X-304466Y7807977D01*
X-304465Y7807978D01*
X-290000Y7899307D01*
X-290000Y7949999D01*
X-290001Y7950000D01*
X-669999Y7950000D01*
X-670000Y7949999D01*
X-670000Y7050001D01*
X-970000Y7050001D01*
X-970000Y8250001D01*
X-670000Y8250001D01*
X-669999Y8250000D01*
X-290002Y8250000D01*
X-290001Y8250001D01*
X-290001Y8300693D01*
X-290000Y8300693D01*
X-304463Y8392015D01*
X-304465Y8392022D01*
X-360548Y8502088D01*
X-360549Y8502090D01*
X-447909Y8589450D01*
X-447911Y8589451D01*
X-557977Y8645533D01*
X-557979Y8645534D01*
X-649305Y8659999D01*
X-670000Y8659998D01*
X-670000Y8250001D01*
X-970000Y8250001D01*
X-970000Y8659998D01*
X-970001Y8659999D01*
X-990693Y8659999D01*
X-1082015Y8645536D01*
X-1082022Y8645534D01*
X-1192088Y8589451D01*
X-1192090Y8589450D01*
X-1229642Y8551899D01*
X-1284159Y8524122D01*
X-1344591Y8533693D01*
X-1369646Y8551896D01*
X-1407609Y8589859D01*
X-1517825Y8646017D01*
X-1609265Y8660500D01*
X-1950734Y8660499D01*
X-1950737Y8660499D01*
X-1977332Y8656286D01*
X-2042175Y8646017D01*
X-2152391Y8589859D01*
X-2239859Y8502391D01*
X-2239861Y8502385D01*
X-2244439Y8496087D01*
X-2246052Y8497259D01*
X-2282021Y8461291D01*
X-2326966Y8450500D01*
X-7818811Y8450500D01*
X-7877002Y8469407D01*
X-7888815Y8479496D01*
X-8498534Y9089215D01*
X-8964802Y9555484D01*
X-8992579Y9610000D01*
X-8983008Y9670432D01*
X-8939743Y9713697D01*
X-8918491Y9721610D01*
X-8769885Y9758239D01*
X-8769884Y9758239D01*
X-8661293Y9815232D01*
X-8067634Y9815232D01*
X-7959937Y9758709D01*
X-7808161Y9721300D01*
X-7651838Y9721300D01*
X-7500064Y9758708D01*
X-7361655Y9831351D01*
X-7361649Y9831356D01*
X-7345948Y9845265D01*
X-7289852Y9869697D01*
X-7230109Y9856492D01*
X-7189538Y9810692D01*
X-7182806Y9788348D01*
X-7179332Y9768646D01*
X-7110279Y9608562D01*
X-7110278Y9608561D01*
X-7006168Y9468717D01*
X-7006166Y9468715D01*
X-6872616Y9356652D01*
X-6716816Y9278406D01*
X-6674404Y9268354D01*
X-6547171Y9238200D01*
X-6547168Y9238200D01*
X-6416567Y9238200D01*
X-6416564Y9238200D01*
X-6351700Y9245781D01*
X-6286833Y9253363D01*
X-6286828Y9253365D01*
X-6123008Y9312991D01*
X-6122998Y9312996D01*
X-5977351Y9408790D01*
X-5977345Y9408795D01*
X-5857705Y9535605D01*
X-5857704Y9535605D01*
X-5770533Y9686592D01*
X-5720531Y9853608D01*
X-5720530Y9853616D01*
X-5716605Y9920997D01*
X4453753Y9920997D01*
X4474234Y9778543D01*
X4534022Y9647628D01*
X4628273Y9538855D01*
X4749342Y9461049D01*
X4749349Y9461046D01*
X4887435Y9420500D01*
X4887439Y9420500D01*
X5031364Y9420500D01*
X5169450Y9461046D01*
X5169453Y9461047D01*
X5169454Y9461047D01*
X5169457Y9461049D01*
X5290526Y9538855D01*
X5304934Y9555483D01*
X5384777Y9647627D01*
X5402572Y9686592D01*
X5444564Y9778540D01*
X5444564Y9778541D01*
X5444565Y9778543D01*
X5451686Y9828078D01*
X5478680Y9882983D01*
X5479674Y9883992D01*
X6345682Y10750000D01*
X7362133Y10750000D01*
X8500000Y9612133D01*
X9637867Y10750000D01*
X7362133Y10750000D01*
X6345682Y10750000D01*
X7966186Y12370504D01*
X8020703Y12398281D01*
X8036190Y12399500D01*
X8160633Y12399500D01*
X8160636Y12399500D01*
X8215377Y12407475D01*
X8233626Y12410134D01*
X8346209Y12465173D01*
X8346211Y12465174D01*
X8434826Y12553789D01*
X8489866Y12666375D01*
X8500500Y12739364D01*
X8500500Y12750500D01*
X8519407Y12808691D01*
X8568907Y12844655D01*
X8599500Y12849500D01*
X8661250Y12849500D01*
X8719441Y12830593D01*
X8754006Y12785098D01*
X8778282Y12720016D01*
X8778373Y12719772D01*
X8860311Y12610315D01*
X8860315Y12610311D01*
X8969771Y12528373D01*
X9097888Y12480587D01*
X9097886Y12480587D01*
X9140707Y12475984D01*
X9154515Y12474500D01*
X9154517Y12474500D01*
X9154518Y12474500D01*
X9695478Y12474500D01*
X9695484Y12474501D01*
X9752111Y12480587D01*
X9752112Y12480587D01*
X9752114Y12480588D01*
X9880226Y12528372D01*
X9989687Y12610313D01*
X10071628Y12719774D01*
X10107509Y12815975D01*
X10145559Y12863887D01*
X10204506Y12880285D01*
X10261834Y12858903D01*
X10293024Y12815973D01*
X10328814Y12720017D01*
X10410668Y12610672D01*
X10410672Y12610668D01*
X10520016Y12528814D01*
X10647990Y12481083D01*
X10647998Y12481081D01*
X10704566Y12475000D01*
X10824999Y12475000D01*
X11125000Y12475000D01*
X11245430Y12475000D01*
X11245437Y12475001D01*
X11302004Y12481081D01*
X11302006Y12481082D01*
X11429983Y12528814D01*
X11539327Y12610668D01*
X11539331Y12610672D01*
X11621185Y12720016D01*
X11668916Y12847990D01*
X11668918Y12847998D01*
X11675000Y12904565D01*
X11675000Y13049999D01*
X11674999Y13050000D01*
X11125001Y13050000D01*
X11125000Y13049999D01*
X11125000Y12475000D01*
X10824999Y12475000D01*
X10825000Y12475001D01*
X10825000Y13924998D01*
X10824999Y13924999D01*
X11125000Y13924999D01*
X11125000Y13350001D01*
X11125001Y13350000D01*
X11674998Y13350000D01*
X11674999Y13350001D01*
X11674999Y13495431D01*
X11674998Y13495436D01*
X11668918Y13552004D01*
X11668917Y13552006D01*
X11621185Y13679983D01*
X11539331Y13789327D01*
X11539327Y13789331D01*
X11429983Y13871185D01*
X11302009Y13918916D01*
X11302001Y13918918D01*
X11245433Y13924999D01*
X11125000Y13924999D01*
X10824999Y13924999D01*
X10704569Y13924999D01*
X10704563Y13924998D01*
X10647995Y13918918D01*
X10647993Y13918917D01*
X10520016Y13871185D01*
X10410672Y13789331D01*
X10410668Y13789327D01*
X10328814Y13679983D01*
X10293024Y13584026D01*
X10254973Y13536112D01*
X10196026Y13519714D01*
X10138698Y13541096D01*
X10107510Y13584022D01*
X10071628Y13680226D01*
X9989687Y13789687D01*
X9880226Y13871628D01*
X9752114Y13919412D01*
X9695485Y13925500D01*
X9154516Y13925499D01*
X9097886Y13919412D01*
X8969774Y13871628D01*
X8860313Y13789687D01*
X8860311Y13789684D01*
X8778372Y13680226D01*
X8754006Y13614901D01*
X8715955Y13566988D01*
X8661249Y13550500D01*
X8346619Y13550500D01*
X8326304Y13552607D01*
X8324739Y13552934D01*
X8314685Y13555043D01*
X8284338Y13551260D01*
X8272093Y13550500D01*
X8270960Y13550500D01*
X8251478Y13547249D01*
X8247433Y13546659D01*
X8198607Y13540573D01*
X8198605Y13540572D01*
X8198603Y13540572D01*
X8191575Y13538479D01*
X8184616Y13536091D01*
X8141371Y13512687D01*
X8137730Y13510813D01*
X8093517Y13489199D01*
X8087562Y13484948D01*
X8081743Y13480419D01*
X8081742Y13480418D01*
X8048420Y13444221D01*
X8045612Y13441294D01*
X8033814Y13429496D01*
X7979297Y13401719D01*
X7963810Y13400500D01*
X7839364Y13400500D01*
X7766375Y13389866D01*
X7653789Y13334826D01*
X7565174Y13246211D01*
X7565173Y13246209D01*
X7546681Y13208382D01*
X7510134Y13133625D01*
X7499500Y13060636D01*
X7499500Y13060632D01*
X7499500Y12936190D01*
X7480593Y12877999D01*
X7470504Y12866186D01*
X5054814Y10450496D01*
X5000297Y10422719D01*
X4984810Y10421500D01*
X4887439Y10421500D01*
X4887436Y10421499D01*
X4887435Y10421499D01*
X4871837Y10416919D01*
X4749347Y10380953D01*
X4749342Y10380950D01*
X4628273Y10303144D01*
X4628272Y10303143D01*
X4534023Y10194373D01*
X4534022Y10194371D01*
X4474234Y10063456D01*
X4453753Y9921002D01*
X4453753Y9920997D01*
X-5716605Y9920997D01*
X-5710392Y10027656D01*
X-5710393Y10027660D01*
X-5740666Y10199350D01*
X-5809720Y10359436D01*
X-5809721Y10359438D01*
X-5913831Y10499282D01*
X-5913833Y10499284D01*
X-6047383Y10611347D01*
X-6047384Y10611347D01*
X-6047386Y10611349D01*
X-6203185Y10689594D01*
X-6372829Y10729800D01*
X-6503436Y10729800D01*
X-6633164Y10714637D01*
X-6796993Y10655008D01*
X-6796999Y10655003D01*
X-6797001Y10655003D01*
X-6889272Y10594315D01*
X-6942654Y10559205D01*
X-6957231Y10543754D01*
X-7010913Y10514403D01*
X-7071598Y10522211D01*
X-7116104Y10564198D01*
X-7121806Y10576586D01*
X-7155843Y10666333D01*
X-7155847Y10666341D01*
X-7180626Y10702240D01*
X-7560997Y10321871D01*
X-7615513Y10294094D01*
X-7666807Y10302217D01*
X-7662721Y10296593D01*
X-7662721Y10235407D01*
X-7686872Y10195996D01*
X-7730000Y10152868D01*
X-8067634Y9815233D01*
X-8067634Y9815232D01*
X-8661293Y9815232D01*
X-8631362Y9830941D01*
X-8631361Y9830941D01*
X-8514268Y9934677D01*
X-8514266Y9934680D01*
X-8446171Y10033333D01*
X-8397555Y10070482D01*
X-8336387Y10071960D01*
X-8286033Y10037203D01*
X-8283220Y10033332D01*
X-8279372Y10027758D01*
X-7971129Y10336003D01*
X-7916612Y10363781D01*
X-7901125Y10365000D01*
X-7756876Y10365000D01*
X-7720728Y10353255D01*
X-7730000Y10391875D01*
X-7730000Y10536124D01*
X-7711093Y10594315D01*
X-7701004Y10606128D01*
X-7392365Y10914767D01*
X-7392829Y10917820D01*
X-7429943Y10955842D01*
X-7438784Y11016385D01*
X-7410350Y11070562D01*
X-7387207Y11087376D01*
X-7361365Y11100940D01*
X-7361359Y11100943D01*
X-7244268Y11204677D01*
X-7244268Y11204678D01*
X-7155399Y11333428D01*
X-7155397Y11333431D01*
X-7120672Y11424995D01*
X-7082359Y11472700D01*
X-7023323Y11488773D01*
X-6966113Y11467077D01*
X-6964470Y11465727D01*
X-6872616Y11388652D01*
X-6716816Y11310406D01*
X-6674404Y11300354D01*
X-6547171Y11270200D01*
X-6547168Y11270200D01*
X-6416567Y11270200D01*
X-6416564Y11270200D01*
X-6351700Y11277781D01*
X-6286833Y11285363D01*
X-6286828Y11285365D01*
X-6123008Y11344991D01*
X-6122998Y11344996D01*
X-5977351Y11440790D01*
X-5977345Y11440795D01*
X-5857705Y11567605D01*
X-5857704Y11567605D01*
X-5770533Y11718592D01*
X-5720531Y11885608D01*
X-5720530Y11885616D01*
X-5710392Y12059656D01*
X-5710393Y12059660D01*
X-5740666Y12231350D01*
X-5809720Y12391436D01*
X-5809721Y12391438D01*
X-5913831Y12531282D01*
X-5913833Y12531284D01*
X-6047383Y12643347D01*
X-6047384Y12643347D01*
X-6047386Y12643349D01*
X-6203185Y12721594D01*
X-6372829Y12761800D01*
X-6503436Y12761800D01*
X-6633164Y12746637D01*
X-6796993Y12687008D01*
X-6796999Y12687003D01*
X-6797001Y12687003D01*
X-6882348Y12630869D01*
X-6942654Y12591205D01*
X-7062296Y12464393D01*
X-7149467Y12313407D01*
X-7174033Y12231350D01*
X-7183583Y12199450D01*
X-7218385Y12149127D01*
X-7276120Y12128871D01*
X-7334735Y12146419D01*
X-7344073Y12153741D01*
X-7361364Y12169060D01*
X-7499884Y12241760D01*
X-7499886Y12241761D01*
X-7651780Y12279200D01*
X-7808220Y12279200D01*
X-7960114Y12241761D01*
X-8098635Y12169060D01*
X-8098637Y12169058D01*
X-8098638Y12169058D01*
X-8129035Y12142128D01*
X-8215732Y12065321D01*
X-8283525Y11967104D01*
X-8332140Y11929956D01*
X-8393308Y11928477D01*
X-8443663Y11963234D01*
X-8446462Y11967087D01*
X-8514268Y12065321D01*
X-8514268Y12065322D01*
X-8631362Y12169058D01*
X-8631363Y12169058D01*
X-8631365Y12169060D01*
X-8769886Y12241761D01*
X-8921780Y12279200D01*
X-9078220Y12279200D01*
X-9080393Y12278664D01*
X-9081792Y12278765D01*
X-9084161Y12278478D01*
X-9084217Y12278941D01*
X-9141414Y12283088D01*
X-9174098Y12304780D01*
X-9473799Y12604481D01*
X-9486674Y12620337D01*
X-9493163Y12630269D01*
X-9517290Y12649048D01*
X-9526477Y12657160D01*
X-9527291Y12657974D01*
X-9527295Y12657977D01*
X-9543355Y12669443D01*
X-9546639Y12671891D01*
X-9585470Y12702114D01*
X-9585474Y12702117D01*
X-9585478Y12702118D01*
X-9591954Y12705622D01*
X-9598534Y12708840D01*
X-9645702Y12722882D01*
X-9649564Y12724120D01*
X-9659911Y12727672D01*
X-9696112Y12740100D01*
X-9696114Y12740100D01*
X-9703336Y12741305D01*
X-9710639Y12742215D01*
X-9710646Y12742217D01*
X-9759487Y12740196D01*
X-9759776Y12740185D01*
X-9763867Y12740100D01*
X-12075481Y12740100D01*
X-12095796Y12742207D01*
X-12097706Y12742607D01*
X-12107415Y12744643D01*
X-12137762Y12740860D01*
X-12150007Y12740100D01*
X-12151143Y12740100D01*
X-12170621Y12736849D01*
X-12174652Y12736261D01*
X-12223493Y12730173D01*
X-12223496Y12730171D01*
X-12230522Y12728080D01*
X-12237475Y12725692D01*
X-12237481Y12725692D01*
X-12280805Y12702245D01*
X-12284357Y12700418D01*
X-12328583Y12678798D01*
X-12328587Y12678793D01*
X-12334552Y12674535D01*
X-12340349Y12670022D01*
X-12340358Y12670018D01*
X-12373700Y12633797D01*
X-12376486Y12630893D01*
X-13123884Y11883496D01*
X-13139734Y11870626D01*
X-13149669Y11864137D01*
X-13168451Y11840003D01*
X-13176577Y11830804D01*
X-13177375Y11830007D01*
X-13188886Y11813882D01*
X-13191288Y11810662D01*
X-13193049Y11808400D01*
X-13221516Y11771827D01*
X-13225023Y11765345D01*
X-13228237Y11758771D01*
X-13228237Y11758769D01*
X-13228240Y11758766D01*
X-13242287Y11711581D01*
X-13243512Y11707754D01*
X-13259500Y11661188D01*
X-13259500Y11661183D01*
X-13260707Y11653954D01*
X-13261617Y11646654D01*
X-13259585Y11597523D01*
X-13259500Y11593432D01*
X-13259500Y10330418D01*
X-13261603Y10310123D01*
X-13262126Y10307626D01*
X-13292561Y10254547D01*
X-13348382Y10229495D01*
X-13408268Y10242038D01*
X-13419290Y10249379D01*
X-13622431Y10405255D01*
X-14153029Y10625036D01*
X-14550559Y10677371D01*
X-14605782Y10703711D01*
X-14634977Y10757481D01*
X-14626991Y10818143D01*
X-14617454Y10834088D01*
X-14418341Y11105460D01*
X-14415508Y11109138D01*
X-13881948Y11769084D01*
X-13878946Y11772624D01*
X-13315039Y12406835D01*
X-13311874Y12410230D01*
X-12718886Y13017286D01*
X-12715566Y13020530D01*
X-12094741Y13599156D01*
X-12091272Y13602240D01*
X-11444032Y14151111D01*
X-11440423Y14154029D01*
X-10768152Y14671970D01*
X-10764409Y14674716D01*
X-10068615Y15160567D01*
X-10064748Y15163134D01*
X-9897655Y15268516D01*
X-3749999Y15268516D01*
X-3749998Y15268514D01*
X-3735166Y15174858D01*
X-3735163Y15174848D01*
X-3677641Y15061956D01*
X-3588043Y14972358D01*
X-3475151Y14914836D01*
X-3475147Y14914835D01*
X-3381484Y14900000D01*
X-3350001Y14900000D01*
X-3050000Y14900000D01*
X-3018517Y14900000D01*
X-3018512Y14900001D01*
X-2924858Y14914833D01*
X-2924848Y14914836D01*
X-2811956Y14972358D01*
X-2722358Y15061956D01*
X-2664836Y15174848D01*
X-2664835Y15174852D01*
X-2650000Y15268515D01*
X-2650000Y15349999D01*
X-2650001Y15350000D01*
X-3049999Y15350000D01*
X-3050000Y15349999D01*
X-3050000Y14900000D01*
X-3350001Y14900000D01*
X-3350000Y14900001D01*
X-3350000Y15349999D01*
X-3350001Y15350000D01*
X-3749998Y15350000D01*
X-3749999Y15349999D01*
X-3749999Y15268516D01*
X-9897655Y15268516D01*
X-9346937Y15615843D01*
X-9342954Y15618227D01*
X-9286913Y15650001D01*
X-3750000Y15650001D01*
X-3749999Y15650000D01*
X-3350001Y15650000D01*
X-3350000Y15650001D01*
X-3350000Y16099998D01*
X-3350001Y16099999D01*
X-3050000Y16099999D01*
X-3050000Y15650001D01*
X-3049999Y15650000D01*
X-2650002Y15650000D01*
X-2650001Y15650001D01*
X-2650001Y15731485D01*
X-2650006Y15731519D01*
X-2350500Y15731519D01*
X-2350499Y15268482D01*
X-2335646Y15174696D01*
X-2278050Y15061658D01*
X-2188342Y14971950D01*
X-2188339Y14971948D01*
X-2182832Y14966441D01*
X-2184515Y14964757D01*
X-2155344Y14924601D01*
X-2150500Y14894013D01*
X-2150500Y13598518D01*
X-2152607Y13578202D01*
X-2155043Y13566585D01*
X-2152559Y13546659D01*
X-2151260Y13536236D01*
X-2150500Y13523992D01*
X-2150500Y13522859D01*
X-2147249Y13503378D01*
X-2146659Y13499333D01*
X-2140573Y13450507D01*
X-2140572Y13450505D01*
X-2140572Y13450503D01*
X-2138479Y13443475D01*
X-2136091Y13436516D01*
X-2112687Y13393271D01*
X-2110813Y13389630D01*
X-2089199Y13345417D01*
X-2084948Y13339462D01*
X-2080419Y13333643D01*
X-2080418Y13333642D01*
X-2044221Y13300320D01*
X-2041294Y13297512D01*
X-1913286Y13169504D01*
X-1885509Y13114987D01*
X-1895080Y13054555D01*
X-1938345Y13011290D01*
X-1983290Y13000500D01*
X-2024674Y13000500D01*
X-2097740Y12985966D01*
X-2180601Y12930601D01*
X-2235966Y12847740D01*
X-2250500Y12774674D01*
X-2250500Y11225326D01*
X-2235966Y11152260D01*
X-2235964Y11152257D01*
X-2180602Y11069400D01*
X-2180599Y11069397D01*
X-2097742Y11014035D01*
X-2097740Y11014034D01*
X-2097737Y11014033D01*
X-2097736Y11014033D01*
X-2024684Y10999501D01*
X-2024674Y10999500D01*
X-2024673Y10999500D01*
X-475327Y10999500D01*
X-475326Y10999500D01*
X-475325Y10999500D01*
X-475315Y10999501D01*
X-402263Y11014033D01*
X-402257Y11014035D01*
X-319400Y11069397D01*
X-319397Y11069400D01*
X-264035Y11152257D01*
X-264033Y11152263D01*
X-249501Y11225315D01*
X-249500Y11225327D01*
X-249500Y11559187D01*
X-230593Y11617378D01*
X-181093Y11653342D01*
X-162750Y11657426D01*
X-146707Y11659426D01*
X-139681Y11661517D01*
X-132716Y11663908D01*
X-89461Y11687317D01*
X-85824Y11689189D01*
X-41620Y11710799D01*
X-35630Y11715075D01*
X-29841Y11719581D01*
X3467Y11755764D01*
X6299Y11758717D01*
X98175Y11850593D01*
X152692Y11878370D01*
X213124Y11868799D01*
X256389Y11825534D01*
X262334Y11808400D01*
X263057Y11808620D01*
X321650Y11615464D01*
X321652Y11615459D01*
X414502Y11441748D01*
X414510Y11441736D01*
X443851Y11405984D01*
X843045Y11805178D01*
X855887Y11772459D01*
X940465Y11666401D01*
X1052291Y11590158D01*
X655984Y11193851D01*
X691736Y11164510D01*
X691748Y11164502D01*
X865459Y11071652D01*
X865464Y11071650D01*
X1053965Y11014468D01*
X1053970Y11014467D01*
X1249997Y10995161D01*
X1250003Y10995161D01*
X1446029Y11014467D01*
X1446034Y11014468D01*
X1634535Y11071650D01*
X1634540Y11071652D01*
X1808253Y11164504D01*
X1808264Y11164511D01*
X1844014Y11193851D01*
X1443933Y11593931D01*
X1506357Y11623993D01*
X1605798Y11716260D01*
X1657068Y11805062D01*
X2056146Y11405984D01*
X2056147Y11405984D01*
X2085488Y11441735D01*
X2085495Y11441746D01*
X2178347Y11615459D01*
X2178349Y11615464D01*
X2235531Y11803965D01*
X2235532Y11803970D01*
X2254839Y11999996D01*
X2254839Y12000003D01*
X2235532Y12196029D01*
X2235531Y12196034D01*
X2178349Y12384535D01*
X2178347Y12384540D01*
X2113570Y12505732D01*
X2102814Y12565965D01*
X2129516Y12621016D01*
X2183477Y12649858D01*
X2200880Y12651400D01*
X5255656Y12651400D01*
X5313847Y12632493D01*
X5344597Y12595880D01*
X5365173Y12553790D01*
X5453790Y12465173D01*
X5566374Y12410134D01*
X5566373Y12410134D01*
X5589018Y12406835D01*
X5639364Y12399500D01*
X5639367Y12399500D01*
X5960633Y12399500D01*
X5960636Y12399500D01*
X6015377Y12407475D01*
X6033626Y12410134D01*
X6146209Y12465173D01*
X6146211Y12465174D01*
X6234826Y12553789D01*
X6289866Y12666375D01*
X6300500Y12739364D01*
X6300500Y13060636D01*
X6289866Y13133625D01*
X6234826Y13246211D01*
X6146211Y13334826D01*
X6033625Y13389866D01*
X5960636Y13400500D01*
X5639364Y13400500D01*
X5566375Y13389866D01*
X5510312Y13362458D01*
X5466833Y13352400D01*
X800419Y13352400D01*
X780104Y13354507D01*
X778539Y13354834D01*
X768485Y13356943D01*
X738138Y13353160D01*
X725893Y13352400D01*
X724760Y13352400D01*
X705227Y13349139D01*
X701267Y13348562D01*
X652408Y13342473D01*
X652406Y13342472D01*
X652403Y13342472D01*
X645377Y13340380D01*
X638416Y13337991D01*
X595162Y13314582D01*
X591521Y13312708D01*
X547318Y13291099D01*
X541338Y13286830D01*
X535545Y13282320D01*
X535544Y13282319D01*
X535542Y13282318D01*
X502209Y13246109D01*
X499401Y13243182D01*
X-80496Y12663285D01*
X-135013Y12635508D01*
X-195445Y12645079D01*
X-238710Y12688344D01*
X-249500Y12733289D01*
X-249500Y12774672D01*
X-249501Y12774684D01*
X-264033Y12847736D01*
X-264035Y12847742D01*
X-319397Y12930599D01*
X-319400Y12930602D01*
X-402257Y12985964D01*
X-402260Y12985966D01*
X-457808Y12997015D01*
X-475315Y13000498D01*
X-475320Y13000498D01*
X-475326Y13000500D01*
X-475327Y13000500D01*
X-809188Y13000500D01*
X-867379Y13019407D01*
X-903343Y13068907D01*
X-907428Y13087254D01*
X-909427Y13103292D01*
X-911529Y13110354D01*
X-913907Y13117280D01*
X-937322Y13160546D01*
X-939195Y13164185D01*
X-960801Y13208382D01*
X-965078Y13214372D01*
X-969581Y13220158D01*
X-1005764Y13253467D01*
X-1008717Y13256299D01*
X-1420504Y13668086D01*
X-1448281Y13722603D01*
X-1449500Y13738090D01*
X-1449500Y14894013D01*
X-1430593Y14952204D01*
X-1416762Y14966035D01*
X-1417168Y14966441D01*
X-1411659Y14971949D01*
X-1411658Y14971950D01*
X-1321950Y15061658D01*
X-1271553Y15160567D01*
X-1264354Y15174695D01*
X-1249500Y15268477D01*
X-1249500Y15731520D01*
X-1249501Y15731523D01*
X-1264352Y15825299D01*
X-1264354Y15825304D01*
X-1321949Y15938340D01*
X-1321950Y15938342D01*
X-1411658Y16028050D01*
X-1524696Y16085646D01*
X-1618481Y16100500D01*
X-1981518Y16100499D01*
X-1981520Y16100499D01*
X-1981521Y16100498D01*
X-2028411Y16093072D01*
X-2075299Y16085647D01*
X-2075299Y16085646D01*
X-2075304Y16085646D01*
X-2188342Y16028050D01*
X-2278050Y15938342D01*
X-2335646Y15825304D01*
X-2350500Y15731519D01*
X-2650006Y15731519D01*
X-2664833Y15825141D01*
X-2664836Y15825151D01*
X-2722358Y15938043D01*
X-2811956Y16027641D01*
X-2924848Y16085163D01*
X-2924852Y16085164D01*
X-3018516Y16099999D01*
X-3050000Y16099999D01*
X-3350001Y16099999D01*
X-3381484Y16099999D01*
X-3475141Y16085166D01*
X-3475151Y16085163D01*
X-3588043Y16027641D01*
X-3677641Y15938043D01*
X-3735163Y15825151D01*
X-3735164Y15825147D01*
X-3750000Y15731484D01*
X-3750000Y15650001D01*
X-9286913Y15650001D01*
X-8604715Y16036791D01*
X-8600625Y16038985D01*
X-7843574Y16422489D01*
X-7839385Y16424489D01*
X-7065194Y16772085D01*
X-7060917Y16773886D01*
X-6271283Y17084812D01*
X-6266925Y17086411D01*
X-5463588Y17359983D01*
X-5459160Y17361376D01*
X-4643885Y17596992D01*
X-4639397Y17598176D01*
X-3813965Y17795321D01*
X-3809427Y17796293D01*
X-2975657Y17954533D01*
X-2971077Y17955291D01*
X-2130830Y18074273D01*
X-2126221Y18074816D01*
X-1281298Y18154286D01*
X-1276667Y18154612D01*
X-428966Y18194390D01*
X-424326Y18194499D01*
X424326Y18194499D01*
X428966Y18194390D01*
G37*
%TD.AperFunction*%
%TA.AperFunction,Conductor*%
G36*
X-2268775Y7730593D02*
G01*
X-2245395Y7703218D01*
X-2244439Y7703913D01*
X-2239860Y7697611D01*
X-2239859Y7697609D01*
X-2159494Y7617244D01*
X-2131719Y7562730D01*
X-2130500Y7547243D01*
X-2130500Y7452757D01*
X-2149407Y7394566D01*
X-2159490Y7382759D01*
X-2239859Y7302391D01*
X-2296017Y7192175D01*
X-2310500Y7100735D01*
X-2310499Y6896925D01*
X-2310499Y6699262D01*
X-2305537Y6667934D01*
X-2296017Y6607825D01*
X-2239859Y6497609D01*
X-2152391Y6410141D01*
X-2152389Y6410140D01*
X-2042178Y6353984D01*
X-2042173Y6353982D01*
X-1996937Y6346817D01*
X-1942422Y6319040D01*
X-1120296Y5496914D01*
X-1092519Y5442397D01*
X-1091300Y5426910D01*
X-1091300Y3721427D01*
X-1110207Y3663236D01*
X-1159707Y3627272D01*
X-1175099Y3623694D01*
X-1175760Y3623500D01*
X-1175761Y3623500D01*
X-1313853Y3582953D01*
X-1434928Y3505143D01*
X-1434935Y3505134D01*
X-1435015Y3505067D01*
X-1435107Y3505027D01*
X-1440885Y3501315D01*
X-1441527Y3502314D01*
X-1491372Y3481245D01*
X-1550969Y3495098D01*
X-1582170Y3524883D01*
X-1595612Y3545002D01*
X-1612218Y3603890D01*
X-1595610Y3655000D01*
X-1564036Y3702254D01*
X-1564033Y3702263D01*
X-1549501Y3775315D01*
X-1549500Y3775327D01*
X-1549500Y4224672D01*
X-1549501Y4224684D01*
X-1564033Y4297736D01*
X-1564036Y4297745D01*
X-1595911Y4345450D01*
X-1612519Y4404338D01*
X-1595911Y4455450D01*
X-1564507Y4502449D01*
X-1564506Y4502453D01*
X-1550000Y4575375D01*
X-1550000Y4649999D01*
X-1550001Y4650000D01*
X-2151000Y4650000D01*
X-2209191Y4668907D01*
X-2245155Y4718407D01*
X-2250000Y4749000D01*
X-2250000Y4950001D01*
X-1950000Y4950001D01*
X-1949999Y4950000D01*
X-1550001Y4950000D01*
X-1550000Y4950001D01*
X-1550000Y5024624D01*
X-1564506Y5097546D01*
X-1564507Y5097548D01*
X-1619758Y5180237D01*
X-1619762Y5180241D01*
X-1702451Y5235492D01*
X-1702453Y5235493D01*
X-1775375Y5249999D01*
X-1775377Y5250000D01*
X-1949999Y5250000D01*
X-1950000Y5249999D01*
X-1950000Y4950001D01*
X-2250000Y4950001D01*
X-2250000Y5249999D01*
X-2250001Y5250000D01*
X-2424623Y5250000D01*
X-2424624Y5249999D01*
X-2497546Y5235493D01*
X-2497548Y5235492D01*
X-2580237Y5180241D01*
X-2580240Y5180238D01*
X-2591119Y5163957D01*
X-2639168Y5126076D01*
X-2700306Y5123672D01*
X-2728437Y5136640D01*
X-2802257Y5185964D01*
X-2802260Y5185966D01*
X-2857808Y5197015D01*
X-2875315Y5200498D01*
X-2875320Y5200498D01*
X-2875326Y5200500D01*
X-3324674Y5200500D01*
X-3397740Y5185966D01*
X-3444999Y5154388D01*
X-3503886Y5137780D01*
X-3554999Y5154388D01*
X-3580004Y5171095D01*
X-3602256Y5185964D01*
X-3602257Y5185964D01*
X-3602260Y5185966D01*
X-3657808Y5197015D01*
X-3675315Y5200498D01*
X-3675320Y5200498D01*
X-3675326Y5200500D01*
X-4124674Y5200500D01*
X-4197740Y5185966D01*
X-4198059Y5185752D01*
X-4198669Y5185580D01*
X-4206752Y5182233D01*
X-4207147Y5183188D01*
X-4256945Y5169140D01*
X-4314350Y5190313D01*
X-4348347Y5241184D01*
X-4349037Y5243762D01*
X-4355662Y5269925D01*
X-4357340Y5277929D01*
X-4363907Y5317280D01*
X-4363909Y5317286D01*
X-4365080Y5319449D01*
X-4373979Y5342253D01*
X-4374583Y5344639D01*
X-4374584Y5344640D01*
X-4374584Y5344641D01*
X-4396403Y5378038D01*
X-4400590Y5385065D01*
X-4419581Y5420156D01*
X-4419582Y5420158D01*
X-4421390Y5421822D01*
X-4437216Y5440508D01*
X-4438560Y5442565D01*
X-4438566Y5442572D01*
X-4470040Y5467068D01*
X-4476286Y5472358D01*
X-4505641Y5499381D01*
X-4505644Y5499384D01*
X-4507897Y5500372D01*
X-4528934Y5512907D01*
X-4530874Y5514417D01*
X-4568615Y5527373D01*
X-4576199Y5530332D01*
X-4612768Y5546373D01*
X-4615216Y5546575D01*
X-4639192Y5551604D01*
X-4641506Y5552398D01*
X-4641507Y5552398D01*
X-4641512Y5552400D01*
X-4641513Y5552400D01*
X-4681414Y5552400D01*
X-4689588Y5552738D01*
X-4690954Y5552851D01*
X-4729344Y5556032D01*
X-4731721Y5555430D01*
X-4756025Y5552400D01*
X-5025710Y5552400D01*
X-5083901Y5571307D01*
X-5095714Y5581396D01*
X-6188755Y6674437D01*
X-6216532Y6728954D01*
X-6206961Y6789386D01*
X-6163696Y6832651D01*
X-6147984Y6839026D01*
X-6143488Y6840415D01*
X-6027899Y6896923D01*
X-6027896Y6896925D01*
X-5966342Y6958479D01*
X-5911825Y6986256D01*
X-5851393Y6976684D01*
X-5826338Y6958481D01*
X-5769355Y6901498D01*
X-5769352Y6901496D01*
X-5769350Y6901495D01*
X-5657028Y6844263D01*
X-5657023Y6844261D01*
X-5657022Y6844261D01*
X-5633722Y6840570D01*
X-5563826Y6829500D01*
X-5563823Y6829500D01*
X-5206175Y6829500D01*
X-5206172Y6829501D01*
X-5112982Y6844259D01*
X-5112974Y6844261D01*
X-5000649Y6901495D01*
X-5000647Y6901496D01*
X-4969649Y6932494D01*
X-4915132Y6960270D01*
X-4854700Y6950698D01*
X-4829642Y6932493D01*
X-4799054Y6901905D01*
X-4686865Y6844743D01*
X-4593787Y6830000D01*
X-4565001Y6830000D01*
X-4565000Y6830001D01*
X-4265000Y6830001D01*
X-4264999Y6830000D01*
X-4236213Y6830000D01*
X-4143134Y6844743D01*
X-4030945Y6901905D01*
X-3941905Y6990945D01*
X-3884743Y7103134D01*
X-3870000Y7196213D01*
X-3870000Y7249999D01*
X-3870001Y7250000D01*
X-4264999Y7250000D01*
X-4265000Y7249999D01*
X-4265000Y6830001D01*
X-4565000Y6830001D01*
X-4565000Y7451000D01*
X-4546093Y7509191D01*
X-4496593Y7545155D01*
X-4466000Y7550000D01*
X-3870001Y7550000D01*
X-3870000Y7550001D01*
X-3870000Y7603786D01*
X-3874946Y7635012D01*
X-3865375Y7695444D01*
X-3822111Y7738709D01*
X-3777165Y7749500D01*
X-2326966Y7749500D01*
X-2268775Y7730593D01*
G37*
%TD.AperFunction*%
%TD*%
M02*
