%TF.GenerationSoftware,KiCad,Pcbnew,10.0.6*%
%TF.CreationDate,2026-09-29T01:28:06+02:00*%
%TF.ProjectId,shotpuck-panel,73686f74-7075-4636-9b2d-70616e656c2e,rev?*%
%TF.SameCoordinates,Original*%
%TF.FileFunction,Soldermask,Bot*%
%TF.FilePolarity,Negative*%
%FSLAX46Y46*%
G04 Gerber Fmt 4.6, Leading zero omitted, Abs format (unit mm)*
G04 Created by KiCad (PCBNEW 10.0.6) date 2026-09-29 01:28:06*
%MOMM*%
%LPD*%
G01*
G04 APERTURE LIST*
G04 Aperture macros list*
%AMRotRect*
0 Rectangle, with rotation*
0 The origin of the aperture is its center*
0 $1 length*
0 $2 width*
0 $3 Rotation angle, in degrees counterclockwise*
0 Add horizontal line*
21,1,$1,$2,0,0,$3*%
G04 Aperture macros list end*
%ADD10C,0.500000*%
%ADD11C,2.400000*%
%ADD12RotRect,1.300000X1.300000X255.000000*%
%ADD13C,1.300000*%
%ADD14C,1.152000*%
%ADD15RotRect,1.300000X1.300000X75.000000*%
%ADD16C,1.000000*%
%ADD17R,1.000000X1.500000*%
%ADD18C,2.000000*%
G04 APERTURE END LIST*
%TO.C,JP1_2*%
G36*
X118650000Y-88029616D02*
G01*
X118950000Y-88029616D01*
X118950000Y-89529616D01*
X118650000Y-89529616D01*
X118650000Y-88029616D01*
G37*
%TO.C,JP1_3*%
G36*
X157650000Y-88029616D02*
G01*
X157950000Y-88029616D01*
X157950000Y-89529616D01*
X157650000Y-89529616D01*
X157650000Y-88029616D01*
G37*
%TO.C,JP1_1*%
G36*
X178050000Y-39029616D02*
G01*
X178350000Y-39029616D01*
X178350000Y-40529616D01*
X178050000Y-40529616D01*
X178050000Y-39029616D01*
G37*
%TO.C,JP1_0*%
G36*
X139050000Y-39029616D02*
G01*
X139350000Y-39029616D01*
X139350000Y-40529616D01*
X139050000Y-40529616D01*
X139050000Y-39029616D01*
G37*
%TD*%
D10*
%TO.C,KiKit_MB_15_3*%
X150744461Y-88144249D03*
%TD*%
D11*
%TO.C,H3_0*%
X119535989Y-31263608D03*
%TD*%
D10*
%TO.C,KiKit_MB_22_4*%
X105071429Y-100559232D03*
%TD*%
%TO.C,KiKit_MB_20_5*%
X186000000Y-106487803D03*
%TD*%
%TO.C,KiKit_MB_1_2*%
X137764150Y-29292954D03*
%TD*%
%TO.C,KiKit_MB_11_5*%
X111421999Y-86560155D03*
%TD*%
%TO.C,KiKit_MB_19_6*%
X111000000Y-107344946D03*
%TD*%
%TO.C,KiKit_MB_9_6*%
X117252031Y-97145972D03*
%TD*%
%TO.C,KiKit_MB_11_4*%
X111565346Y-87355810D03*
%TD*%
%TO.C,KiKit_MB_8_4*%
X150744461Y-40414983D03*
%TD*%
%TO.C,KiKit_MB_5_6*%
X179747969Y-31413260D03*
%TD*%
%TO.C,KiKit_MB_3_1*%
X145787372Y-38867589D03*
%TD*%
%TO.C,KiKit_MB_22_5*%
X105928572Y-100559232D03*
%TD*%
%TO.C,KiKit_MB_16_4*%
X185255538Y-88144249D03*
%TD*%
%TO.C,KiKit_MB_21_6*%
X106785715Y-28000000D03*
%TD*%
D11*
%TO.C,H1_3*%
X180639733Y-73173621D03*
%TD*%
D10*
%TO.C,KiKit_MB_2_3*%
X129000000Y-62579555D03*
%TD*%
%TO.C,KiKit_MB_20_2*%
X186000000Y-103916374D03*
%TD*%
%TO.C,KiKit_MB_18_4*%
X186000000Y-22071429D03*
%TD*%
%TO.C,KiKit_MB_5_5*%
X179043886Y-30826321D03*
%TD*%
%TO.C,KiKit_MB_1_5*%
X140043886Y-30826321D03*
%TD*%
D11*
%TO.C,H2_3*%
X152495072Y-78136284D03*
%TD*%
D10*
%TO.C,KiKit_MB_4_2*%
X111421999Y-41999077D03*
%TD*%
%TO.C,KiKit_MB_7_5*%
X185578001Y-41999077D03*
%TD*%
%TO.C,KiKit_MB_14_3*%
X168000000Y-65979676D03*
%TD*%
%TO.C,KiKit_MB_19_3*%
X111000000Y-104773517D03*
%TD*%
D12*
%TO.C,J1_0*%
X115803524Y-39952209D03*
D13*
X115156476Y-42367023D03*
%TD*%
D10*
%TO.C,KiKit_MB_3_6*%
X146685295Y-42800338D03*
%TD*%
%TO.C,KiKit_MB_6_2*%
X168993018Y-62549291D03*
%TD*%
D12*
%TO.C,J1_1*%
X154803524Y-39952209D03*
D13*
X154156476Y-42367023D03*
%TD*%
D14*
%TO.C,KiKit_TO_3*%
X105500000Y-106059232D03*
%TD*%
D15*
%TO.C,J1_3*%
X181196476Y-88607023D03*
D13*
X181843524Y-86192209D03*
%TD*%
D10*
%TO.C,KiKit_MB_16_5*%
X185039881Y-88923536D03*
%TD*%
%TO.C,KiKit_MB_5_1*%
X175966376Y-28841020D03*
%TD*%
%TO.C,KiKit_MB_21_7*%
X107642858Y-28000000D03*
%TD*%
D11*
%TO.C,H2_1*%
X183504928Y-50422948D03*
%TD*%
%TO.C,H3_2*%
X138464011Y-97295624D03*
%TD*%
D10*
%TO.C,KiKit_MB_1_1*%
X136966376Y-28841020D03*
%TD*%
%TO.C,KiKit_MB_21_3*%
X104214286Y-28000000D03*
%TD*%
%TO.C,KiKit_MB_9_2*%
X120235850Y-99266278D03*
%TD*%
%TO.C,KiKit_MB_8_3*%
X150565345Y-41203422D03*
%TD*%
%TO.C,KiKit_MB_22_7*%
X107642858Y-100559232D03*
%TD*%
%TO.C,KiKit_MB_4_6*%
X112212628Y-38867589D03*
%TD*%
%TO.C,KiKit_MB_16_1*%
X185685295Y-85758894D03*
%TD*%
D11*
%TO.C,H2_2*%
X113495072Y-78136284D03*
%TD*%
D10*
%TO.C,KiKit_MB_17_4*%
X111000000Y-22071429D03*
%TD*%
%TO.C,KiKit_MB_17_5*%
X111000000Y-22928572D03*
%TD*%
D11*
%TO.C,H3_3*%
X177464011Y-97295624D03*
%TD*%
D10*
%TO.C,KiKit_MB_12_5*%
X146039881Y-88923536D03*
%TD*%
%TO.C,KiKit_MB_23_3*%
X190214285Y-28000000D03*
%TD*%
%TO.C,KiKit_MB_8_5*%
X150960118Y-39635696D03*
%TD*%
%TO.C,KiKit_MB_18_5*%
X186000000Y-22928572D03*
%TD*%
%TO.C,KiKit_MB_7_2*%
X185039881Y-39635696D03*
%TD*%
%TO.C,KiKit_MB_4_1*%
X111314705Y-42800338D03*
%TD*%
%TO.C,KiKit_MB_19_4*%
X111000000Y-105630660D03*
%TD*%
%TO.C,KiKit_MB_11_1*%
X112212628Y-89691643D03*
%TD*%
%TO.C,KiKit_MB_9_1*%
X121033624Y-99718212D03*
%TD*%
%TO.C,KiKit_MB_13_5*%
X156956113Y-97732911D03*
%TD*%
%TO.C,KiKit_MB_24_4*%
X191071428Y-100559232D03*
%TD*%
%TO.C,KiKit_MB_23_6*%
X192785714Y-28000000D03*
%TD*%
%TO.C,KiKit_MB_5_4*%
X178310587Y-30276341D03*
%TD*%
%TO.C,KiKit_MB_7_4*%
X185434654Y-41203422D03*
%TD*%
%TO.C,KiKit_MB_9_3*%
X119449993Y-98794462D03*
%TD*%
%TO.C,KiKit_MB_17_2*%
X111000000Y-20357143D03*
%TD*%
D11*
%TO.C,H3_1*%
X158535989Y-31263608D03*
%TD*%
D10*
%TO.C,KiKit_MB_24_2*%
X189357142Y-100559232D03*
%TD*%
%TO.C,KiKit_MB_19_5*%
X111000000Y-106487803D03*
%TD*%
%TO.C,KiKit_MB_17_3*%
X111000000Y-21214286D03*
%TD*%
%TO.C,KiKit_MB_15_4*%
X150565345Y-87355810D03*
%TD*%
%TO.C,KiKit_MB_12_3*%
X146434654Y-87355810D03*
%TD*%
%TO.C,KiKit_MB_13_2*%
X159235849Y-99266278D03*
%TD*%
D11*
%TO.C,H1_0*%
X116360267Y-55385611D03*
%TD*%
D10*
%TO.C,KiKit_MB_13_4*%
X157689412Y-98282891D03*
%TD*%
%TO.C,KiKit_MB_5_2*%
X176764150Y-29292954D03*
%TD*%
%TO.C,KiKit_MB_23_5*%
X191928571Y-28000000D03*
%TD*%
%TO.C,KiKit_MB_13_6*%
X156252030Y-97145972D03*
%TD*%
%TO.C,KiKit_MB_16_2*%
X185578001Y-86560155D03*
%TD*%
D14*
%TO.C,KiKit_TO_1*%
X105500000Y-22500000D03*
%TD*%
D10*
%TO.C,KiKit_MB_14_2*%
X167006981Y-66009940D03*
%TD*%
%TO.C,KiKit_MB_12_4*%
X146255538Y-88144249D03*
%TD*%
%TO.C,KiKit_MB_10_2*%
X128006982Y-66009940D03*
%TD*%
%TO.C,KiKit_MB_9_4*%
X118689413Y-98282891D03*
%TD*%
%TO.C,KiKit_MB_20_7*%
X186000000Y-108202089D03*
%TD*%
%TO.C,KiKit_MB_21_2*%
X103357143Y-28000000D03*
%TD*%
%TO.C,KiKit_MB_1_3*%
X138550007Y-29764770D03*
%TD*%
D11*
%TO.C,H1_2*%
X141639733Y-73173621D03*
%TD*%
D10*
%TO.C,KiKit_MB_24_6*%
X192785714Y-100559232D03*
%TD*%
D14*
%TO.C,KiKit_TO_2*%
X191500000Y-22500000D03*
%TD*%
D10*
%TO.C,KiKit_MB_20_6*%
X186000000Y-107344946D03*
%TD*%
%TO.C,KiKit_MB_23_7*%
X193642857Y-28000000D03*
%TD*%
%TO.C,KiKit_MB_7_1*%
X184787372Y-38867589D03*
%TD*%
%TO.C,KiKit_MB_2_2*%
X129993018Y-62549291D03*
%TD*%
%TO.C,KiKit_MB_24_3*%
X190214285Y-100559232D03*
%TD*%
%TO.C,KiKit_MB_20_3*%
X186000000Y-104773517D03*
%TD*%
%TO.C,KiKit_MB_1_6*%
X140747969Y-31413260D03*
%TD*%
%TO.C,KiKit_MB_8_1*%
X150314704Y-42800338D03*
%TD*%
%TO.C,KiKit_MB_15_2*%
X150960118Y-88923536D03*
%TD*%
%TO.C,KiKit_MB_23_4*%
X191071428Y-28000000D03*
%TD*%
%TO.C,KiKit_MB_10_3*%
X129000000Y-65979676D03*
%TD*%
%TO.C,KiKit_MB_14_4*%
X168993018Y-66009940D03*
%TD*%
%TO.C,KiKit_MB_16_6*%
X184787372Y-89691643D03*
%TD*%
%TO.C,KiKit_MB_4_4*%
X111744462Y-40414983D03*
%TD*%
%TO.C,KiKit_MB_3_2*%
X146039881Y-39635696D03*
%TD*%
%TO.C,KiKit_MB_12_1*%
X146685295Y-85758894D03*
%TD*%
D11*
%TO.C,H2_0*%
X144504928Y-50422948D03*
%TD*%
D15*
%TO.C,J1_2*%
X142196476Y-88607023D03*
D13*
X142843524Y-86192209D03*
%TD*%
D11*
%TO.C,H1_1*%
X155360267Y-55385611D03*
%TD*%
D10*
%TO.C,KiKit_MB_24_7*%
X193642857Y-100559232D03*
%TD*%
%TO.C,KiKit_MB_19_2*%
X111000000Y-103916374D03*
%TD*%
%TO.C,KiKit_MB_20_4*%
X186000000Y-105630660D03*
%TD*%
%TO.C,KiKit_MB_13_3*%
X158449992Y-98794462D03*
%TD*%
%TO.C,KiKit_MB_19_7*%
X111000000Y-108202089D03*
%TD*%
%TO.C,KiKit_MB_6_4*%
X167006981Y-62549291D03*
%TD*%
%TO.C,KiKit_MB_15_6*%
X150314704Y-85758894D03*
%TD*%
%TO.C,KiKit_MB_2_1*%
X130983932Y-62476197D03*
%TD*%
%TO.C,KiKit_MB_3_4*%
X146434654Y-41203422D03*
%TD*%
%TO.C,KiKit_MB_11_3*%
X111744462Y-88144249D03*
%TD*%
%TO.C,KiKit_MB_12_6*%
X145787372Y-89691643D03*
%TD*%
%TO.C,KiKit_MB_2_4*%
X128006982Y-62549291D03*
%TD*%
%TO.C,KiKit_MB_18_3*%
X186000000Y-21214286D03*
%TD*%
%TO.C,KiKit_MB_6_1*%
X169983932Y-62476197D03*
%TD*%
%TO.C,KiKit_MB_10_5*%
X130983932Y-66083034D03*
%TD*%
%TO.C,KiKit_MB_9_5*%
X117956114Y-97732911D03*
%TD*%
%TO.C,KiKit_MB_21_5*%
X105928572Y-28000000D03*
%TD*%
%TO.C,KiKit_MB_8_2*%
X150421998Y-41999077D03*
%TD*%
%TO.C,KiKit_MB_14_5*%
X169983932Y-66083034D03*
%TD*%
%TO.C,KiKit_MB_15_5*%
X150421998Y-86560155D03*
%TD*%
%TO.C,KiKit_MB_13_1*%
X160033623Y-99718212D03*
%TD*%
%TO.C,KiKit_MB_10_1*%
X127016068Y-66083034D03*
%TD*%
%TO.C,KiKit_MB_18_7*%
X186000000Y-24642858D03*
%TD*%
%TO.C,KiKit_MB_10_4*%
X129993018Y-66009940D03*
%TD*%
%TO.C,KiKit_MB_4_5*%
X111960119Y-39635696D03*
%TD*%
%TO.C,KiKit_MB_12_2*%
X146578001Y-86560155D03*
%TD*%
%TO.C,KiKit_MB_22_2*%
X103357143Y-100559232D03*
%TD*%
%TO.C,KiKit_MB_3_3*%
X146255538Y-40414983D03*
%TD*%
%TO.C,KiKit_MB_18_6*%
X186000000Y-23785715D03*
%TD*%
%TO.C,KiKit_MB_2_5*%
X127016068Y-62476197D03*
%TD*%
%TO.C,KiKit_MB_21_4*%
X105071429Y-28000000D03*
%TD*%
%TO.C,KiKit_MB_24_5*%
X191928571Y-100559232D03*
%TD*%
%TO.C,KiKit_MB_22_3*%
X104214286Y-100559232D03*
%TD*%
%TO.C,KiKit_MB_16_3*%
X185434654Y-87355810D03*
%TD*%
%TO.C,KiKit_MB_6_5*%
X166016067Y-62476197D03*
%TD*%
%TO.C,KiKit_MB_11_2*%
X111960119Y-88923536D03*
%TD*%
%TO.C,KiKit_MB_3_5*%
X146578001Y-41999077D03*
%TD*%
%TO.C,KiKit_MB_23_2*%
X189357142Y-28000000D03*
%TD*%
%TO.C,KiKit_MB_4_3*%
X111565346Y-41203422D03*
%TD*%
%TO.C,KiKit_MB_18_2*%
X186000000Y-20357143D03*
%TD*%
%TO.C,KiKit_MB_8_6*%
X151212627Y-38867589D03*
%TD*%
%TO.C,KiKit_MB_11_6*%
X111314705Y-85758894D03*
%TD*%
%TO.C,KiKit_MB_7_3*%
X185255538Y-40414983D03*
%TD*%
%TO.C,KiKit_MB_5_3*%
X177550007Y-29764770D03*
%TD*%
%TO.C,KiKit_MB_15_1*%
X151212627Y-89691643D03*
%TD*%
%TO.C,KiKit_MB_17_7*%
X111000000Y-24642858D03*
%TD*%
%TO.C,KiKit_MB_1_4*%
X139310587Y-30276341D03*
%TD*%
%TO.C,KiKit_MB_17_6*%
X111000000Y-23785715D03*
%TD*%
%TO.C,KiKit_MB_7_6*%
X185685295Y-42800338D03*
%TD*%
%TO.C,KiKit_MB_6_3*%
X168000000Y-62579555D03*
%TD*%
%TO.C,KiKit_MB_22_6*%
X106785715Y-100559232D03*
%TD*%
%TO.C,KiKit_MB_14_1*%
X166016067Y-66083034D03*
%TD*%
D16*
%TO.C,J2_1*%
X173310000Y-57379616D03*
X170770000Y-57379616D03*
X168230000Y-57379616D03*
X165690000Y-57379616D03*
%TD*%
D17*
%TO.C,JP1_2*%
X119450000Y-88779616D03*
X118150000Y-88779616D03*
%TD*%
%TO.C,JP1_3*%
X158450000Y-88779616D03*
X157150000Y-88779616D03*
%TD*%
D16*
%TO.C,J2_2*%
X123690000Y-71179616D03*
X126230000Y-71179616D03*
X128770000Y-71179616D03*
X131310000Y-71179616D03*
%TD*%
D18*
%TO.C,KiKit_FID_B_2*%
X189000000Y-22500000D03*
%TD*%
%TO.C,KiKit_FID_B_3*%
X108000000Y-106059232D03*
%TD*%
D17*
%TO.C,JP1_1*%
X177550000Y-39779616D03*
X178850000Y-39779616D03*
%TD*%
D16*
%TO.C,J2_0*%
X134310000Y-57379616D03*
X131770000Y-57379616D03*
X129230000Y-57379616D03*
X126690000Y-57379616D03*
%TD*%
D18*
%TO.C,KiKit_FID_B_1*%
X108000000Y-22500000D03*
%TD*%
D16*
%TO.C,J2_3*%
X162690000Y-71179616D03*
X165230000Y-71179616D03*
X167770000Y-71179616D03*
X170310000Y-71179616D03*
%TD*%
D17*
%TO.C,JP1_0*%
X138550000Y-39779616D03*
X139850000Y-39779616D03*
%TD*%
M02*
