%TF.GenerationSoftware,KiCad,Pcbnew,10.0.6*%
%TF.CreationDate,2026-09-27T11:20:08+02:00*%
%TF.ProjectId,shotpuck-panel,73686f74-7075-4636-9b2d-70616e656c2e,rev?*%
%TF.SameCoordinates,Original*%
%TF.FileFunction,Legend,Bot*%
%TF.FilePolarity,Positive*%
%FSLAX46Y46*%
G04 Gerber Fmt 4.6, Leading zero omitted, Abs format (unit mm)*
G04 Created by KiCad (PCBNEW 10.0.6) date 2026-09-27 11:20:08*
%MOMM*%
%LPD*%
G01*
G04 APERTURE LIST*
%ADD10C,0.125000*%
G04 APERTURE END LIST*
D10*
X134568676Y-50407123D02*
X134425819Y-50454742D01*
X134425819Y-50454742D02*
X134187724Y-50454742D01*
X134187724Y-50454742D02*
X134092486Y-50407123D01*
X134092486Y-50407123D02*
X134044867Y-50359503D01*
X134044867Y-50359503D02*
X133997248Y-50264265D01*
X133997248Y-50264265D02*
X133997248Y-50169027D01*
X133997248Y-50169027D02*
X134044867Y-50073789D01*
X134044867Y-50073789D02*
X134092486Y-50026170D01*
X134092486Y-50026170D02*
X134187724Y-49978551D01*
X134187724Y-49978551D02*
X134378200Y-49930932D01*
X134378200Y-49930932D02*
X134473438Y-49883313D01*
X134473438Y-49883313D02*
X134521057Y-49835694D01*
X134521057Y-49835694D02*
X134568676Y-49740456D01*
X134568676Y-49740456D02*
X134568676Y-49645218D01*
X134568676Y-49645218D02*
X134521057Y-49549980D01*
X134521057Y-49549980D02*
X134473438Y-49502361D01*
X134473438Y-49502361D02*
X134378200Y-49454742D01*
X134378200Y-49454742D02*
X134140105Y-49454742D01*
X134140105Y-49454742D02*
X133997248Y-49502361D01*
X133568676Y-50454742D02*
X133568676Y-49454742D01*
X133140105Y-50454742D02*
X133140105Y-49930932D01*
X133140105Y-49930932D02*
X133187724Y-49835694D01*
X133187724Y-49835694D02*
X133282962Y-49788075D01*
X133282962Y-49788075D02*
X133425819Y-49788075D01*
X133425819Y-49788075D02*
X133521057Y-49835694D01*
X133521057Y-49835694D02*
X133568676Y-49883313D01*
X132521057Y-50454742D02*
X132616295Y-50407123D01*
X132616295Y-50407123D02*
X132663914Y-50359503D01*
X132663914Y-50359503D02*
X132711533Y-50264265D01*
X132711533Y-50264265D02*
X132711533Y-49978551D01*
X132711533Y-49978551D02*
X132663914Y-49883313D01*
X132663914Y-49883313D02*
X132616295Y-49835694D01*
X132616295Y-49835694D02*
X132521057Y-49788075D01*
X132521057Y-49788075D02*
X132378200Y-49788075D01*
X132378200Y-49788075D02*
X132282962Y-49835694D01*
X132282962Y-49835694D02*
X132235343Y-49883313D01*
X132235343Y-49883313D02*
X132187724Y-49978551D01*
X132187724Y-49978551D02*
X132187724Y-50264265D01*
X132187724Y-50264265D02*
X132235343Y-50359503D01*
X132235343Y-50359503D02*
X132282962Y-50407123D01*
X132282962Y-50407123D02*
X132378200Y-50454742D01*
X132378200Y-50454742D02*
X132521057Y-50454742D01*
X131902009Y-49788075D02*
X131521057Y-49788075D01*
X131759152Y-49454742D02*
X131759152Y-50311884D01*
X131759152Y-50311884D02*
X131711533Y-50407123D01*
X131711533Y-50407123D02*
X131616295Y-50454742D01*
X131616295Y-50454742D02*
X131521057Y-50454742D01*
X131187723Y-50454742D02*
X131187723Y-49454742D01*
X131187723Y-49454742D02*
X130806771Y-49454742D01*
X130806771Y-49454742D02*
X130711533Y-49502361D01*
X130711533Y-49502361D02*
X130663914Y-49549980D01*
X130663914Y-49549980D02*
X130616295Y-49645218D01*
X130616295Y-49645218D02*
X130616295Y-49788075D01*
X130616295Y-49788075D02*
X130663914Y-49883313D01*
X130663914Y-49883313D02*
X130711533Y-49930932D01*
X130711533Y-49930932D02*
X130806771Y-49978551D01*
X130806771Y-49978551D02*
X131187723Y-49978551D01*
X129759152Y-49788075D02*
X129759152Y-50454742D01*
X130187723Y-49788075D02*
X130187723Y-50311884D01*
X130187723Y-50311884D02*
X130140104Y-50407123D01*
X130140104Y-50407123D02*
X130044866Y-50454742D01*
X130044866Y-50454742D02*
X129902009Y-50454742D01*
X129902009Y-50454742D02*
X129806771Y-50407123D01*
X129806771Y-50407123D02*
X129759152Y-50359503D01*
X128854390Y-50407123D02*
X128949628Y-50454742D01*
X128949628Y-50454742D02*
X129140104Y-50454742D01*
X129140104Y-50454742D02*
X129235342Y-50407123D01*
X129235342Y-50407123D02*
X129282961Y-50359503D01*
X129282961Y-50359503D02*
X129330580Y-50264265D01*
X129330580Y-50264265D02*
X129330580Y-49978551D01*
X129330580Y-49978551D02*
X129282961Y-49883313D01*
X129282961Y-49883313D02*
X129235342Y-49835694D01*
X129235342Y-49835694D02*
X129140104Y-49788075D01*
X129140104Y-49788075D02*
X128949628Y-49788075D01*
X128949628Y-49788075D02*
X128854390Y-49835694D01*
X128425818Y-50454742D02*
X128425818Y-49454742D01*
X128330580Y-50073789D02*
X128044866Y-50454742D01*
X128044866Y-49788075D02*
X128425818Y-50169027D01*
X126854389Y-50454742D02*
X126854389Y-49788075D01*
X126854389Y-49978551D02*
X126806770Y-49883313D01*
X126806770Y-49883313D02*
X126759151Y-49835694D01*
X126759151Y-49835694D02*
X126663913Y-49788075D01*
X126663913Y-49788075D02*
X126568675Y-49788075D01*
X125854389Y-50407123D02*
X125949627Y-50454742D01*
X125949627Y-50454742D02*
X126140103Y-50454742D01*
X126140103Y-50454742D02*
X126235341Y-50407123D01*
X126235341Y-50407123D02*
X126282960Y-50311884D01*
X126282960Y-50311884D02*
X126282960Y-49930932D01*
X126282960Y-49930932D02*
X126235341Y-49835694D01*
X126235341Y-49835694D02*
X126140103Y-49788075D01*
X126140103Y-49788075D02*
X125949627Y-49788075D01*
X125949627Y-49788075D02*
X125854389Y-49835694D01*
X125854389Y-49835694D02*
X125806770Y-49930932D01*
X125806770Y-49930932D02*
X125806770Y-50026170D01*
X125806770Y-50026170D02*
X126282960Y-50121408D01*
X125473436Y-49788075D02*
X125235341Y-50454742D01*
X125235341Y-50454742D02*
X124997246Y-49788075D01*
X123902007Y-50169027D02*
X123425817Y-50169027D01*
X123997245Y-50454742D02*
X123663912Y-49454742D01*
X123663912Y-49454742D02*
X123330579Y-50454742D01*
X134568676Y-89407123D02*
X134425819Y-89454742D01*
X134425819Y-89454742D02*
X134187724Y-89454742D01*
X134187724Y-89454742D02*
X134092486Y-89407123D01*
X134092486Y-89407123D02*
X134044867Y-89359503D01*
X134044867Y-89359503D02*
X133997248Y-89264265D01*
X133997248Y-89264265D02*
X133997248Y-89169027D01*
X133997248Y-89169027D02*
X134044867Y-89073789D01*
X134044867Y-89073789D02*
X134092486Y-89026170D01*
X134092486Y-89026170D02*
X134187724Y-88978551D01*
X134187724Y-88978551D02*
X134378200Y-88930932D01*
X134378200Y-88930932D02*
X134473438Y-88883313D01*
X134473438Y-88883313D02*
X134521057Y-88835694D01*
X134521057Y-88835694D02*
X134568676Y-88740456D01*
X134568676Y-88740456D02*
X134568676Y-88645218D01*
X134568676Y-88645218D02*
X134521057Y-88549980D01*
X134521057Y-88549980D02*
X134473438Y-88502361D01*
X134473438Y-88502361D02*
X134378200Y-88454742D01*
X134378200Y-88454742D02*
X134140105Y-88454742D01*
X134140105Y-88454742D02*
X133997248Y-88502361D01*
X133568676Y-89454742D02*
X133568676Y-88454742D01*
X133140105Y-89454742D02*
X133140105Y-88930932D01*
X133140105Y-88930932D02*
X133187724Y-88835694D01*
X133187724Y-88835694D02*
X133282962Y-88788075D01*
X133282962Y-88788075D02*
X133425819Y-88788075D01*
X133425819Y-88788075D02*
X133521057Y-88835694D01*
X133521057Y-88835694D02*
X133568676Y-88883313D01*
X132521057Y-89454742D02*
X132616295Y-89407123D01*
X132616295Y-89407123D02*
X132663914Y-89359503D01*
X132663914Y-89359503D02*
X132711533Y-89264265D01*
X132711533Y-89264265D02*
X132711533Y-88978551D01*
X132711533Y-88978551D02*
X132663914Y-88883313D01*
X132663914Y-88883313D02*
X132616295Y-88835694D01*
X132616295Y-88835694D02*
X132521057Y-88788075D01*
X132521057Y-88788075D02*
X132378200Y-88788075D01*
X132378200Y-88788075D02*
X132282962Y-88835694D01*
X132282962Y-88835694D02*
X132235343Y-88883313D01*
X132235343Y-88883313D02*
X132187724Y-88978551D01*
X132187724Y-88978551D02*
X132187724Y-89264265D01*
X132187724Y-89264265D02*
X132235343Y-89359503D01*
X132235343Y-89359503D02*
X132282962Y-89407123D01*
X132282962Y-89407123D02*
X132378200Y-89454742D01*
X132378200Y-89454742D02*
X132521057Y-89454742D01*
X131902009Y-88788075D02*
X131521057Y-88788075D01*
X131759152Y-88454742D02*
X131759152Y-89311884D01*
X131759152Y-89311884D02*
X131711533Y-89407123D01*
X131711533Y-89407123D02*
X131616295Y-89454742D01*
X131616295Y-89454742D02*
X131521057Y-89454742D01*
X131187723Y-89454742D02*
X131187723Y-88454742D01*
X131187723Y-88454742D02*
X130806771Y-88454742D01*
X130806771Y-88454742D02*
X130711533Y-88502361D01*
X130711533Y-88502361D02*
X130663914Y-88549980D01*
X130663914Y-88549980D02*
X130616295Y-88645218D01*
X130616295Y-88645218D02*
X130616295Y-88788075D01*
X130616295Y-88788075D02*
X130663914Y-88883313D01*
X130663914Y-88883313D02*
X130711533Y-88930932D01*
X130711533Y-88930932D02*
X130806771Y-88978551D01*
X130806771Y-88978551D02*
X131187723Y-88978551D01*
X129759152Y-88788075D02*
X129759152Y-89454742D01*
X130187723Y-88788075D02*
X130187723Y-89311884D01*
X130187723Y-89311884D02*
X130140104Y-89407123D01*
X130140104Y-89407123D02*
X130044866Y-89454742D01*
X130044866Y-89454742D02*
X129902009Y-89454742D01*
X129902009Y-89454742D02*
X129806771Y-89407123D01*
X129806771Y-89407123D02*
X129759152Y-89359503D01*
X128854390Y-89407123D02*
X128949628Y-89454742D01*
X128949628Y-89454742D02*
X129140104Y-89454742D01*
X129140104Y-89454742D02*
X129235342Y-89407123D01*
X129235342Y-89407123D02*
X129282961Y-89359503D01*
X129282961Y-89359503D02*
X129330580Y-89264265D01*
X129330580Y-89264265D02*
X129330580Y-88978551D01*
X129330580Y-88978551D02*
X129282961Y-88883313D01*
X129282961Y-88883313D02*
X129235342Y-88835694D01*
X129235342Y-88835694D02*
X129140104Y-88788075D01*
X129140104Y-88788075D02*
X128949628Y-88788075D01*
X128949628Y-88788075D02*
X128854390Y-88835694D01*
X128425818Y-89454742D02*
X128425818Y-88454742D01*
X128330580Y-89073789D02*
X128044866Y-89454742D01*
X128044866Y-88788075D02*
X128425818Y-89169027D01*
X126854389Y-89454742D02*
X126854389Y-88788075D01*
X126854389Y-88978551D02*
X126806770Y-88883313D01*
X126806770Y-88883313D02*
X126759151Y-88835694D01*
X126759151Y-88835694D02*
X126663913Y-88788075D01*
X126663913Y-88788075D02*
X126568675Y-88788075D01*
X125854389Y-89407123D02*
X125949627Y-89454742D01*
X125949627Y-89454742D02*
X126140103Y-89454742D01*
X126140103Y-89454742D02*
X126235341Y-89407123D01*
X126235341Y-89407123D02*
X126282960Y-89311884D01*
X126282960Y-89311884D02*
X126282960Y-88930932D01*
X126282960Y-88930932D02*
X126235341Y-88835694D01*
X126235341Y-88835694D02*
X126140103Y-88788075D01*
X126140103Y-88788075D02*
X125949627Y-88788075D01*
X125949627Y-88788075D02*
X125854389Y-88835694D01*
X125854389Y-88835694D02*
X125806770Y-88930932D01*
X125806770Y-88930932D02*
X125806770Y-89026170D01*
X125806770Y-89026170D02*
X126282960Y-89121408D01*
X125473436Y-88788075D02*
X125235341Y-89454742D01*
X125235341Y-89454742D02*
X124997246Y-88788075D01*
X123902007Y-89169027D02*
X123425817Y-89169027D01*
X123997245Y-89454742D02*
X123663912Y-88454742D01*
X123663912Y-88454742D02*
X123330579Y-89454742D01*
X173568676Y-50407123D02*
X173425819Y-50454742D01*
X173425819Y-50454742D02*
X173187724Y-50454742D01*
X173187724Y-50454742D02*
X173092486Y-50407123D01*
X173092486Y-50407123D02*
X173044867Y-50359503D01*
X173044867Y-50359503D02*
X172997248Y-50264265D01*
X172997248Y-50264265D02*
X172997248Y-50169027D01*
X172997248Y-50169027D02*
X173044867Y-50073789D01*
X173044867Y-50073789D02*
X173092486Y-50026170D01*
X173092486Y-50026170D02*
X173187724Y-49978551D01*
X173187724Y-49978551D02*
X173378200Y-49930932D01*
X173378200Y-49930932D02*
X173473438Y-49883313D01*
X173473438Y-49883313D02*
X173521057Y-49835694D01*
X173521057Y-49835694D02*
X173568676Y-49740456D01*
X173568676Y-49740456D02*
X173568676Y-49645218D01*
X173568676Y-49645218D02*
X173521057Y-49549980D01*
X173521057Y-49549980D02*
X173473438Y-49502361D01*
X173473438Y-49502361D02*
X173378200Y-49454742D01*
X173378200Y-49454742D02*
X173140105Y-49454742D01*
X173140105Y-49454742D02*
X172997248Y-49502361D01*
X172568676Y-50454742D02*
X172568676Y-49454742D01*
X172140105Y-50454742D02*
X172140105Y-49930932D01*
X172140105Y-49930932D02*
X172187724Y-49835694D01*
X172187724Y-49835694D02*
X172282962Y-49788075D01*
X172282962Y-49788075D02*
X172425819Y-49788075D01*
X172425819Y-49788075D02*
X172521057Y-49835694D01*
X172521057Y-49835694D02*
X172568676Y-49883313D01*
X171521057Y-50454742D02*
X171616295Y-50407123D01*
X171616295Y-50407123D02*
X171663914Y-50359503D01*
X171663914Y-50359503D02*
X171711533Y-50264265D01*
X171711533Y-50264265D02*
X171711533Y-49978551D01*
X171711533Y-49978551D02*
X171663914Y-49883313D01*
X171663914Y-49883313D02*
X171616295Y-49835694D01*
X171616295Y-49835694D02*
X171521057Y-49788075D01*
X171521057Y-49788075D02*
X171378200Y-49788075D01*
X171378200Y-49788075D02*
X171282962Y-49835694D01*
X171282962Y-49835694D02*
X171235343Y-49883313D01*
X171235343Y-49883313D02*
X171187724Y-49978551D01*
X171187724Y-49978551D02*
X171187724Y-50264265D01*
X171187724Y-50264265D02*
X171235343Y-50359503D01*
X171235343Y-50359503D02*
X171282962Y-50407123D01*
X171282962Y-50407123D02*
X171378200Y-50454742D01*
X171378200Y-50454742D02*
X171521057Y-50454742D01*
X170902009Y-49788075D02*
X170521057Y-49788075D01*
X170759152Y-49454742D02*
X170759152Y-50311884D01*
X170759152Y-50311884D02*
X170711533Y-50407123D01*
X170711533Y-50407123D02*
X170616295Y-50454742D01*
X170616295Y-50454742D02*
X170521057Y-50454742D01*
X170187723Y-50454742D02*
X170187723Y-49454742D01*
X170187723Y-49454742D02*
X169806771Y-49454742D01*
X169806771Y-49454742D02*
X169711533Y-49502361D01*
X169711533Y-49502361D02*
X169663914Y-49549980D01*
X169663914Y-49549980D02*
X169616295Y-49645218D01*
X169616295Y-49645218D02*
X169616295Y-49788075D01*
X169616295Y-49788075D02*
X169663914Y-49883313D01*
X169663914Y-49883313D02*
X169711533Y-49930932D01*
X169711533Y-49930932D02*
X169806771Y-49978551D01*
X169806771Y-49978551D02*
X170187723Y-49978551D01*
X168759152Y-49788075D02*
X168759152Y-50454742D01*
X169187723Y-49788075D02*
X169187723Y-50311884D01*
X169187723Y-50311884D02*
X169140104Y-50407123D01*
X169140104Y-50407123D02*
X169044866Y-50454742D01*
X169044866Y-50454742D02*
X168902009Y-50454742D01*
X168902009Y-50454742D02*
X168806771Y-50407123D01*
X168806771Y-50407123D02*
X168759152Y-50359503D01*
X167854390Y-50407123D02*
X167949628Y-50454742D01*
X167949628Y-50454742D02*
X168140104Y-50454742D01*
X168140104Y-50454742D02*
X168235342Y-50407123D01*
X168235342Y-50407123D02*
X168282961Y-50359503D01*
X168282961Y-50359503D02*
X168330580Y-50264265D01*
X168330580Y-50264265D02*
X168330580Y-49978551D01*
X168330580Y-49978551D02*
X168282961Y-49883313D01*
X168282961Y-49883313D02*
X168235342Y-49835694D01*
X168235342Y-49835694D02*
X168140104Y-49788075D01*
X168140104Y-49788075D02*
X167949628Y-49788075D01*
X167949628Y-49788075D02*
X167854390Y-49835694D01*
X167425818Y-50454742D02*
X167425818Y-49454742D01*
X167330580Y-50073789D02*
X167044866Y-50454742D01*
X167044866Y-49788075D02*
X167425818Y-50169027D01*
X165854389Y-50454742D02*
X165854389Y-49788075D01*
X165854389Y-49978551D02*
X165806770Y-49883313D01*
X165806770Y-49883313D02*
X165759151Y-49835694D01*
X165759151Y-49835694D02*
X165663913Y-49788075D01*
X165663913Y-49788075D02*
X165568675Y-49788075D01*
X164854389Y-50407123D02*
X164949627Y-50454742D01*
X164949627Y-50454742D02*
X165140103Y-50454742D01*
X165140103Y-50454742D02*
X165235341Y-50407123D01*
X165235341Y-50407123D02*
X165282960Y-50311884D01*
X165282960Y-50311884D02*
X165282960Y-49930932D01*
X165282960Y-49930932D02*
X165235341Y-49835694D01*
X165235341Y-49835694D02*
X165140103Y-49788075D01*
X165140103Y-49788075D02*
X164949627Y-49788075D01*
X164949627Y-49788075D02*
X164854389Y-49835694D01*
X164854389Y-49835694D02*
X164806770Y-49930932D01*
X164806770Y-49930932D02*
X164806770Y-50026170D01*
X164806770Y-50026170D02*
X165282960Y-50121408D01*
X164473436Y-49788075D02*
X164235341Y-50454742D01*
X164235341Y-50454742D02*
X163997246Y-49788075D01*
X162902007Y-50169027D02*
X162425817Y-50169027D01*
X162997245Y-50454742D02*
X162663912Y-49454742D01*
X162663912Y-49454742D02*
X162330579Y-50454742D01*
X173568676Y-89407123D02*
X173425819Y-89454742D01*
X173425819Y-89454742D02*
X173187724Y-89454742D01*
X173187724Y-89454742D02*
X173092486Y-89407123D01*
X173092486Y-89407123D02*
X173044867Y-89359503D01*
X173044867Y-89359503D02*
X172997248Y-89264265D01*
X172997248Y-89264265D02*
X172997248Y-89169027D01*
X172997248Y-89169027D02*
X173044867Y-89073789D01*
X173044867Y-89073789D02*
X173092486Y-89026170D01*
X173092486Y-89026170D02*
X173187724Y-88978551D01*
X173187724Y-88978551D02*
X173378200Y-88930932D01*
X173378200Y-88930932D02*
X173473438Y-88883313D01*
X173473438Y-88883313D02*
X173521057Y-88835694D01*
X173521057Y-88835694D02*
X173568676Y-88740456D01*
X173568676Y-88740456D02*
X173568676Y-88645218D01*
X173568676Y-88645218D02*
X173521057Y-88549980D01*
X173521057Y-88549980D02*
X173473438Y-88502361D01*
X173473438Y-88502361D02*
X173378200Y-88454742D01*
X173378200Y-88454742D02*
X173140105Y-88454742D01*
X173140105Y-88454742D02*
X172997248Y-88502361D01*
X172568676Y-89454742D02*
X172568676Y-88454742D01*
X172140105Y-89454742D02*
X172140105Y-88930932D01*
X172140105Y-88930932D02*
X172187724Y-88835694D01*
X172187724Y-88835694D02*
X172282962Y-88788075D01*
X172282962Y-88788075D02*
X172425819Y-88788075D01*
X172425819Y-88788075D02*
X172521057Y-88835694D01*
X172521057Y-88835694D02*
X172568676Y-88883313D01*
X171521057Y-89454742D02*
X171616295Y-89407123D01*
X171616295Y-89407123D02*
X171663914Y-89359503D01*
X171663914Y-89359503D02*
X171711533Y-89264265D01*
X171711533Y-89264265D02*
X171711533Y-88978551D01*
X171711533Y-88978551D02*
X171663914Y-88883313D01*
X171663914Y-88883313D02*
X171616295Y-88835694D01*
X171616295Y-88835694D02*
X171521057Y-88788075D01*
X171521057Y-88788075D02*
X171378200Y-88788075D01*
X171378200Y-88788075D02*
X171282962Y-88835694D01*
X171282962Y-88835694D02*
X171235343Y-88883313D01*
X171235343Y-88883313D02*
X171187724Y-88978551D01*
X171187724Y-88978551D02*
X171187724Y-89264265D01*
X171187724Y-89264265D02*
X171235343Y-89359503D01*
X171235343Y-89359503D02*
X171282962Y-89407123D01*
X171282962Y-89407123D02*
X171378200Y-89454742D01*
X171378200Y-89454742D02*
X171521057Y-89454742D01*
X170902009Y-88788075D02*
X170521057Y-88788075D01*
X170759152Y-88454742D02*
X170759152Y-89311884D01*
X170759152Y-89311884D02*
X170711533Y-89407123D01*
X170711533Y-89407123D02*
X170616295Y-89454742D01*
X170616295Y-89454742D02*
X170521057Y-89454742D01*
X170187723Y-89454742D02*
X170187723Y-88454742D01*
X170187723Y-88454742D02*
X169806771Y-88454742D01*
X169806771Y-88454742D02*
X169711533Y-88502361D01*
X169711533Y-88502361D02*
X169663914Y-88549980D01*
X169663914Y-88549980D02*
X169616295Y-88645218D01*
X169616295Y-88645218D02*
X169616295Y-88788075D01*
X169616295Y-88788075D02*
X169663914Y-88883313D01*
X169663914Y-88883313D02*
X169711533Y-88930932D01*
X169711533Y-88930932D02*
X169806771Y-88978551D01*
X169806771Y-88978551D02*
X170187723Y-88978551D01*
X168759152Y-88788075D02*
X168759152Y-89454742D01*
X169187723Y-88788075D02*
X169187723Y-89311884D01*
X169187723Y-89311884D02*
X169140104Y-89407123D01*
X169140104Y-89407123D02*
X169044866Y-89454742D01*
X169044866Y-89454742D02*
X168902009Y-89454742D01*
X168902009Y-89454742D02*
X168806771Y-89407123D01*
X168806771Y-89407123D02*
X168759152Y-89359503D01*
X167854390Y-89407123D02*
X167949628Y-89454742D01*
X167949628Y-89454742D02*
X168140104Y-89454742D01*
X168140104Y-89454742D02*
X168235342Y-89407123D01*
X168235342Y-89407123D02*
X168282961Y-89359503D01*
X168282961Y-89359503D02*
X168330580Y-89264265D01*
X168330580Y-89264265D02*
X168330580Y-88978551D01*
X168330580Y-88978551D02*
X168282961Y-88883313D01*
X168282961Y-88883313D02*
X168235342Y-88835694D01*
X168235342Y-88835694D02*
X168140104Y-88788075D01*
X168140104Y-88788075D02*
X167949628Y-88788075D01*
X167949628Y-88788075D02*
X167854390Y-88835694D01*
X167425818Y-89454742D02*
X167425818Y-88454742D01*
X167330580Y-89073789D02*
X167044866Y-89454742D01*
X167044866Y-88788075D02*
X167425818Y-89169027D01*
X165854389Y-89454742D02*
X165854389Y-88788075D01*
X165854389Y-88978551D02*
X165806770Y-88883313D01*
X165806770Y-88883313D02*
X165759151Y-88835694D01*
X165759151Y-88835694D02*
X165663913Y-88788075D01*
X165663913Y-88788075D02*
X165568675Y-88788075D01*
X164854389Y-89407123D02*
X164949627Y-89454742D01*
X164949627Y-89454742D02*
X165140103Y-89454742D01*
X165140103Y-89454742D02*
X165235341Y-89407123D01*
X165235341Y-89407123D02*
X165282960Y-89311884D01*
X165282960Y-89311884D02*
X165282960Y-88930932D01*
X165282960Y-88930932D02*
X165235341Y-88835694D01*
X165235341Y-88835694D02*
X165140103Y-88788075D01*
X165140103Y-88788075D02*
X164949627Y-88788075D01*
X164949627Y-88788075D02*
X164854389Y-88835694D01*
X164854389Y-88835694D02*
X164806770Y-88930932D01*
X164806770Y-88930932D02*
X164806770Y-89026170D01*
X164806770Y-89026170D02*
X165282960Y-89121408D01*
X164473436Y-88788075D02*
X164235341Y-89454742D01*
X164235341Y-89454742D02*
X163997246Y-88788075D01*
X162902007Y-89169027D02*
X162425817Y-89169027D01*
X162997245Y-89454742D02*
X162663912Y-88454742D01*
X162663912Y-88454742D02*
X162330579Y-89454742D01*
M02*
