M48
; DRILL file KiCad 10.0.6 date 2026-10-01T08:29:36
; FORMAT={-:-/ absolute / metric / decimal}
; #@! TF.CreationDate,2026-10-01T08:29:36+02:00
; #@! TF.GenerationSoftware,Kicad,Pcbnew,10.0.6
; #@! TF.FileFunction,NonPlated,1,2,NPTH
FMAT,2
METRIC
; #@! TA.AperFunction,NonPlated,NPTH,ComponentDrill
T1C0.500
; #@! TA.AperFunction,NonPlated,NPTH,ComponentDrill
T2C0.700
; #@! TA.AperFunction,NonPlated,NPTH,ComponentDrill
T3C1.152
; #@! TA.AperFunction,NonPlated,NPTH,ComponentDrill
T4C2.400
%
G90
G05
T1
X103.357Y-28.0
X103.357Y-104.559
X104.214Y-28.0
X104.214Y-104.559
X105.071Y-28.0
X105.071Y-104.559
X105.929Y-28.0
X105.929Y-104.559
X106.786Y-28.0
X106.786Y-104.559
X107.643Y-28.0
X107.643Y-104.559
X111.0Y-20.357
X111.0Y-21.214
X111.0Y-22.071
X111.0Y-22.929
X111.0Y-23.786
X111.0Y-24.643
X111.0Y-65.78
X111.0Y-66.78
X111.0Y-107.916
X111.0Y-108.774
X111.0Y-109.631
X111.0Y-110.488
X111.0Y-111.345
X111.0Y-112.202
X111.315Y-42.8
X111.315Y-89.759
X111.422Y-41.999
X111.422Y-90.56
X111.565Y-41.203
X111.565Y-91.356
X111.744Y-40.415
X111.744Y-92.144
X111.96Y-39.636
X111.96Y-92.924
X112.213Y-38.868
X112.213Y-93.692
X118.685Y-102.31
X119.425Y-102.779
X120.175Y-103.232
X120.946Y-103.647
X121.737Y-104.025
X126.578Y-62.41
X127.401Y-62.505
X128.227Y-62.561
X128.945Y-69.978
X129.055Y-62.581
X129.773Y-69.999
X130.599Y-70.055
X131.422Y-70.149
X136.263Y-28.535
X137.054Y-28.912
X137.825Y-29.327
X138.575Y-29.781
X139.315Y-30.249
X145.787Y-38.868
X145.787Y-93.692
X146.04Y-39.636
X146.04Y-92.924
X146.256Y-40.415
X146.256Y-92.144
X146.435Y-41.203
X146.435Y-91.356
X146.578Y-41.999
X146.578Y-90.56
X146.685Y-42.8
X146.685Y-89.759
X148.5Y-65.78
X148.5Y-66.78
X150.315Y-42.8
X150.315Y-89.759
X150.422Y-41.999
X150.422Y-90.56
X150.565Y-41.203
X150.565Y-91.356
X150.744Y-40.415
X150.744Y-92.144
X150.96Y-39.636
X150.96Y-92.924
X151.213Y-38.868
X151.213Y-93.692
X157.685Y-102.31
X158.425Y-102.779
X159.175Y-103.232
X159.946Y-103.647
X160.737Y-104.025
X165.578Y-62.41
X166.401Y-62.505
X167.227Y-62.561
X167.945Y-69.978
X168.055Y-62.581
X168.773Y-69.999
X169.599Y-70.055
X170.422Y-70.149
X175.263Y-28.535
X176.054Y-28.912
X176.825Y-29.327
X177.575Y-29.781
X178.315Y-30.249
X184.787Y-38.868
X184.787Y-93.692
X185.04Y-39.636
X185.04Y-92.924
X185.256Y-40.415
X185.256Y-92.144
X185.435Y-41.203
X185.435Y-91.356
X185.578Y-41.999
X185.578Y-90.56
X185.685Y-42.8
X185.685Y-89.759
X186.0Y-20.357
X186.0Y-21.214
X186.0Y-22.071
X186.0Y-22.929
X186.0Y-23.786
X186.0Y-24.643
X186.0Y-65.78
X186.0Y-66.78
X186.0Y-107.916
X186.0Y-108.774
X186.0Y-109.631
X186.0Y-110.488
X186.0Y-111.345
X186.0Y-112.202
X189.357Y-28.0
X189.357Y-104.559
X190.214Y-28.0
X190.214Y-104.559
X191.071Y-28.0
X191.071Y-104.559
X191.929Y-28.0
X191.929Y-104.559
X192.786Y-28.0
X192.786Y-104.559
X193.643Y-28.0
X193.643Y-104.559
T2
X114.68Y-79.813
X122.272Y-72.837
X135.728Y-59.722
X143.32Y-52.746
X153.68Y-79.813
X161.272Y-72.837
X174.728Y-59.722
X182.32Y-52.746
T3
X105.5Y-22.5
X105.5Y-110.059
X191.5Y-22.5
T4
X113.109Y-83.386
X117.538Y-99.649
X119.536Y-31.264
X125.963Y-71.563
X132.037Y-60.996
X138.464Y-101.296
X140.462Y-32.911
X144.891Y-49.174
X152.109Y-83.386
X156.538Y-99.649
X158.536Y-31.264
X164.963Y-71.563
X171.037Y-60.996
X177.464Y-101.296
X179.462Y-32.911
X183.891Y-49.174
M30
