%TF.GenerationSoftware,KiCad,Pcbnew,10.0.6*%
%TF.CreationDate,2026-10-01T08:29:36+02:00*%
%TF.ProjectId,shotpuck-panel,73686f74-7075-4636-9b2d-70616e656c2e,rev?*%
%TF.SameCoordinates,Original*%
%TF.FileFunction,Profile,NP*%
%FSLAX46Y46*%
G04 Gerber Fmt 4.6, Leading zero omitted, Abs format (unit mm)*
G04 Created by KiCad (PCBNEW 10.0.6) date 2026-10-01 08:29:36*
%MOMM*%
%LPD*%
G01*
G04 APERTURE LIST*
%TA.AperFunction,Profile*%
%ADD10C,0.100000*%
%TD*%
G04 APERTURE END LIST*
D10*
X103000000Y-20006136D02*
X103000398Y-112558798D01*
X103000398Y-112558798D02*
X193999566Y-112558833D01*
X103001098Y-20000123D02*
X103000000Y-20006136D01*
X108000000Y-25499012D02*
X108002403Y-25450089D01*
X108000000Y-38780604D02*
X108000000Y-25499012D01*
X108000000Y-64780603D02*
X108000601Y-42754132D01*
X108000000Y-67778628D02*
X108002403Y-67729705D01*
X108000000Y-89780602D02*
X108000000Y-67778628D01*
X108000000Y-93778627D02*
X108002403Y-93729704D01*
X108000601Y-42754132D02*
X108005401Y-42705398D01*
X108000601Y-64805100D02*
X108000000Y-64780603D01*
X108000601Y-107084716D02*
X108000000Y-93778627D01*
X108002403Y-25450089D02*
X108005401Y-25425781D01*
X108002403Y-38829527D02*
X108000000Y-38780604D01*
X108002403Y-67729705D02*
X108009588Y-67681265D01*
X108002403Y-89829525D02*
X108000000Y-89780602D01*
X108002403Y-93729704D02*
X108009588Y-93681264D01*
X108005401Y-25425781D02*
X108014954Y-25377752D01*
X108005401Y-42705398D02*
X108014954Y-42657369D01*
X108005401Y-64853834D02*
X108000601Y-64805100D01*
X108005401Y-89853833D02*
X108002403Y-89829525D01*
X108005401Y-107133450D02*
X108000601Y-107084716D01*
X108009588Y-38877967D02*
X108002403Y-38829527D01*
X108009588Y-67681265D02*
X108021487Y-67633764D01*
X108009588Y-93681264D02*
X108014954Y-93657367D01*
X108014954Y-25377752D02*
X108021487Y-25354148D01*
X108014954Y-42657369D02*
X108029169Y-42610509D01*
X108014954Y-64901863D02*
X108005401Y-64853834D01*
X108014954Y-89901862D02*
X108005401Y-89853833D01*
X108014954Y-93657367D02*
X108029169Y-93610507D01*
X108014954Y-107181479D02*
X108005401Y-107133450D01*
X108021487Y-25354148D02*
X108037984Y-25308041D01*
X108021487Y-38925468D02*
X108009588Y-38877967D01*
X108021487Y-67633764D02*
X108037984Y-67587657D01*
X108029169Y-42610509D02*
X108047909Y-42565267D01*
X108029169Y-64948723D02*
X108014954Y-64901863D01*
X108029169Y-89948722D02*
X108014954Y-89901862D01*
X108029169Y-93610507D02*
X108037984Y-93587656D01*
X108029169Y-107228339D02*
X108014954Y-107181479D01*
X108037984Y-25308041D02*
X108058921Y-25263773D01*
X108037984Y-38971575D02*
X108021487Y-38925468D01*
X108037984Y-64971574D02*
X108029169Y-64948723D01*
X108037984Y-67587657D02*
X108058921Y-67543389D01*
X108037984Y-93587656D02*
X108058921Y-93543388D01*
X108047909Y-38993966D02*
X108037984Y-38971575D01*
X108047909Y-42565267D02*
X108070993Y-42522079D01*
X108047909Y-89993964D02*
X108029169Y-89948722D01*
X108047909Y-107273581D02*
X108029169Y-107228339D01*
X108058921Y-25263773D02*
X108070993Y-25242462D01*
X108058921Y-65015842D02*
X108037984Y-64971574D01*
X108058921Y-67543389D02*
X108084096Y-67501386D01*
X108058921Y-90015841D02*
X108047909Y-89993964D01*
X108058921Y-93543388D02*
X108084096Y-93501385D01*
X108070993Y-25242462D02*
X108098199Y-25201746D01*
X108070993Y-39037154D02*
X108047909Y-38993966D01*
X108070993Y-42522079D02*
X108098199Y-42481363D01*
X108070993Y-107316769D02*
X108047909Y-107273581D01*
X108084096Y-65057845D02*
X108058921Y-65015842D01*
X108084096Y-67501386D02*
X108113268Y-67462053D01*
X108084096Y-90057844D02*
X108058921Y-90015841D01*
X108084096Y-93501385D02*
X108113268Y-93462052D01*
X108098199Y-25201746D02*
X108113268Y-25182437D01*
X108098199Y-39077870D02*
X108070993Y-39037154D01*
X108098199Y-42481363D02*
X108129265Y-42443509D01*
X108098199Y-107357485D02*
X108070993Y-107316769D01*
X108113268Y-25182437D02*
X108146153Y-25146153D01*
X108113268Y-65097178D02*
X108084096Y-65057845D01*
X108113268Y-67462053D02*
X108146153Y-67425769D01*
X108113268Y-90097177D02*
X108084096Y-90057844D01*
X108113268Y-93462052D02*
X108146153Y-93425768D01*
X108129265Y-39115724D02*
X108098199Y-39077870D01*
X108129265Y-42443509D02*
X108163892Y-42408882D01*
X108129265Y-107395339D02*
X108098199Y-107357485D01*
X108146153Y-25146153D02*
X108163892Y-25129265D01*
X108146153Y-39133463D02*
X108129265Y-39115724D01*
X108146153Y-65133462D02*
X108113268Y-65097178D01*
X108146153Y-67425769D02*
X108182437Y-67392884D01*
X108146153Y-90133461D02*
X108113268Y-90097177D01*
X108146153Y-93425768D02*
X108163892Y-93408880D01*
X108163892Y-25129265D02*
X108201746Y-25098199D01*
X108163892Y-42408882D02*
X108201746Y-42377816D01*
X108163892Y-65150350D02*
X108146153Y-65133462D01*
X108163892Y-93408880D02*
X108182437Y-93392883D01*
X108163892Y-107429966D02*
X108129265Y-107395339D01*
X108182437Y-39166348D02*
X108146153Y-39133463D01*
X108182437Y-67392884D02*
X108221770Y-67363712D01*
X108182437Y-90166346D02*
X108146153Y-90133461D01*
X108182437Y-93392883D02*
X108221770Y-93363711D01*
X108201746Y-25098199D02*
X108221770Y-25084096D01*
X108201746Y-39181417D02*
X108182437Y-39166348D01*
X108201746Y-42377816D02*
X108242462Y-42350610D01*
X108201746Y-65181416D02*
X108163892Y-65150350D01*
X108201746Y-107461032D02*
X108163892Y-107429966D01*
X108221770Y-25084096D02*
X108242462Y-25070993D01*
X108221770Y-39195520D02*
X108201746Y-39181417D01*
X108221770Y-67363712D02*
X108263773Y-67338537D01*
X108221770Y-90195518D02*
X108182437Y-90166346D01*
X108221770Y-93363711D02*
X108263773Y-93338536D01*
X108242462Y-25070993D02*
X108285650Y-25047909D01*
X108242462Y-42350610D02*
X108285650Y-42327526D01*
X108242462Y-65208622D02*
X108201746Y-65181416D01*
X108242462Y-90208621D02*
X108221770Y-90195518D01*
X108242462Y-107488238D02*
X108201746Y-107461032D01*
X108263773Y-39220695D02*
X108221770Y-39195520D01*
X108263773Y-67338537D02*
X108308041Y-67317600D01*
X108263773Y-93338536D02*
X108308041Y-93317599D01*
X108285650Y-25047909D02*
X108308041Y-25037984D01*
X108285650Y-42327526D02*
X108308041Y-42317601D01*
X108285650Y-65231706D02*
X108242462Y-65208622D01*
X108285650Y-90231705D02*
X108242462Y-90208621D01*
X108285650Y-107511322D02*
X108242462Y-107488238D01*
X108308041Y-25037984D02*
X108354148Y-25021487D01*
X108308041Y-39241632D02*
X108263773Y-39220695D01*
X108308041Y-42317601D02*
X108354148Y-42301104D01*
X108308041Y-65241631D02*
X108285650Y-65231706D01*
X108308041Y-67317600D02*
X108354148Y-67301103D01*
X108308041Y-90241630D02*
X108285650Y-90231705D01*
X108308041Y-93317599D02*
X108330892Y-93308784D01*
X108330892Y-39250447D02*
X108308041Y-39241632D01*
X108330892Y-93308784D02*
X108377752Y-93294569D01*
X108330892Y-107530062D02*
X108285650Y-107511322D01*
X108354148Y-25021487D02*
X108401649Y-25009588D01*
X108354148Y-39258129D02*
X108330892Y-39250447D01*
X108354148Y-42301104D02*
X108401649Y-42289205D01*
X108354148Y-65258128D02*
X108308041Y-65241631D01*
X108354148Y-67301103D02*
X108401649Y-67289204D01*
X108354148Y-90258127D02*
X108308041Y-90241630D01*
X108377752Y-90264660D02*
X108354148Y-90258127D01*
X108377752Y-93294569D02*
X108425781Y-93285016D01*
X108377752Y-107544277D02*
X108330892Y-107530062D01*
X108401649Y-25009588D02*
X108450089Y-25002403D01*
X108401649Y-39270028D02*
X108354148Y-39258129D01*
X108401649Y-42289205D02*
X108450089Y-42282020D01*
X108401649Y-65270027D02*
X108354148Y-65258128D01*
X108401649Y-67289204D02*
X108450089Y-67282019D01*
X108425781Y-39274215D02*
X108401649Y-39270028D01*
X108425781Y-90274213D02*
X108377752Y-90264660D01*
X108425781Y-93285016D02*
X108450089Y-93282018D01*
X108425781Y-107553830D02*
X108377752Y-107544277D01*
X108450089Y-25002403D02*
X108499012Y-25000000D01*
X108450089Y-42282020D02*
X108499012Y-42279617D01*
X108450089Y-65277212D02*
X108401649Y-65270027D01*
X108450089Y-67282019D02*
X108499012Y-67279616D01*
X108450089Y-93282018D02*
X108499012Y-93279615D01*
X108474515Y-39279015D02*
X108425781Y-39274215D01*
X108474515Y-90279013D02*
X108425781Y-90274213D01*
X108474515Y-107558630D02*
X108425781Y-107553830D01*
X108499012Y-25000000D02*
X135500987Y-25000000D01*
X108499012Y-42279617D02*
X110613074Y-42279617D01*
X108499012Y-65279616D02*
X108450089Y-65277212D01*
X108499012Y-67279616D02*
X128950987Y-67279616D01*
X108499012Y-90279615D02*
X108474515Y-90279013D01*
X108499012Y-93279615D02*
X111505191Y-93279615D01*
X110613074Y-42279617D02*
X110661300Y-42281952D01*
X110613074Y-90279615D02*
X108499012Y-90279615D01*
X110661300Y-42281952D02*
X110685266Y-42284865D01*
X110661300Y-90277279D02*
X110613074Y-90279615D01*
X110685266Y-42284865D02*
X110732636Y-42294149D01*
X110709063Y-90270297D02*
X110661300Y-90277279D01*
X110732636Y-42294149D02*
X110778886Y-42307967D01*
X110755928Y-90258733D02*
X110709063Y-90270297D01*
X110778886Y-42307967D02*
X110823585Y-42326189D01*
X110778886Y-90251264D02*
X110755928Y-90258733D01*
X110823585Y-42326189D02*
X110866314Y-42348644D01*
X110823585Y-90233042D02*
X110778886Y-90251264D01*
X110845221Y-90222332D02*
X110823585Y-90233042D01*
X110866314Y-42348644D02*
X110886815Y-42361395D01*
X110886815Y-42361395D02*
X110925846Y-42389795D01*
X110886815Y-90197836D02*
X110845221Y-90222332D01*
X110925846Y-42389795D02*
X110961951Y-42421834D01*
X110925846Y-90169436D02*
X110886815Y-90197836D01*
X110961951Y-42421834D02*
X110978800Y-42439125D01*
X110961951Y-90137397D02*
X110925846Y-90169436D01*
X110978800Y-42439125D02*
X111009891Y-42476049D01*
X110994792Y-90102020D02*
X110961951Y-90137397D01*
X111000150Y-44785725D02*
X111021532Y-45656724D01*
X111000150Y-87773506D02*
X111021531Y-88656699D01*
X111009891Y-42476049D02*
X111024061Y-42495596D01*
X111021532Y-45656724D02*
X111086225Y-46537828D01*
X111021531Y-88656699D02*
X111086223Y-89537804D01*
X111022131Y-43890302D02*
X111000150Y-44785725D01*
X111022133Y-86890278D02*
X111000150Y-87773506D01*
X111024061Y-42495596D02*
X111049484Y-42536629D01*
X111024061Y-90063635D02*
X110994792Y-90102020D01*
X111049484Y-42536629D02*
X111070823Y-42579926D01*
X111049484Y-90022602D02*
X111024061Y-90063635D01*
X111060677Y-90001212D02*
X111049484Y-90022602D01*
X111070823Y-42579926D02*
X111079897Y-42602298D01*
X111079897Y-42602298D02*
X111094749Y-42648227D01*
X111079897Y-89956933D02*
X111060677Y-90001212D01*
X111086223Y-43021427D02*
X111022131Y-43890302D01*
X111086225Y-46537828D02*
X111194075Y-47414698D01*
X111086223Y-89537804D02*
X111110708Y-89743557D01*
X111087423Y-86009242D02*
X111022133Y-86890278D01*
X111094749Y-42648227D02*
X111100492Y-42671676D01*
X111094749Y-89911004D02*
X111079897Y-89956933D01*
X111100492Y-42671676D02*
X111108545Y-42719270D01*
X111100492Y-89887555D02*
X111094749Y-89911004D01*
X111108332Y-42839711D02*
X111086223Y-43021427D01*
X111108545Y-42719270D02*
X111110835Y-42743304D01*
X111108545Y-89839961D02*
X111100492Y-89887555D01*
X111110708Y-89743557D02*
X111111961Y-89791811D01*
X111110835Y-42743304D02*
X111111918Y-42791562D01*
X111111918Y-42791562D02*
X111108332Y-42839711D01*
X111111961Y-89791811D02*
X111108545Y-89839961D01*
X111194075Y-47414698D02*
X111344820Y-48285219D01*
X111195868Y-85132446D02*
X111087423Y-86009242D01*
X111344820Y-48285219D02*
X111538099Y-49147295D01*
X111347204Y-84262027D02*
X111195868Y-85132446D01*
X111505191Y-93279615D02*
X111555089Y-93282115D01*
X111530177Y-39278991D02*
X108474515Y-39279015D01*
X111538099Y-49147295D02*
X111773444Y-49998849D01*
X111538099Y-83411936D02*
X111347204Y-84262027D01*
X111555089Y-39277116D02*
X111530177Y-39278991D01*
X111555089Y-93282115D02*
X111604474Y-93289589D01*
X111604474Y-39269642D02*
X111555089Y-39277116D01*
X111604474Y-93289589D02*
X111652865Y-93301963D01*
X111628825Y-39264061D02*
X111604474Y-39269642D01*
X111652865Y-93301963D02*
X111699777Y-93319113D01*
X111676536Y-39249280D02*
X111628825Y-39264061D01*
X111699777Y-93319113D02*
X111744739Y-93340867D01*
X111722530Y-39229804D02*
X111676536Y-39249280D01*
X111744739Y-39218364D02*
X111722530Y-39229804D01*
X111744739Y-93340867D02*
X111787301Y-93367006D01*
X111766347Y-39205828D02*
X111744739Y-39218364D01*
X111773444Y-49998849D02*
X112050290Y-50837829D01*
X111776998Y-82548665D02*
X111538099Y-83411936D01*
X111787301Y-93367006D02*
X111827037Y-93397270D01*
X111807548Y-39177591D02*
X111766347Y-39205828D01*
X111827037Y-39161961D02*
X111807548Y-39177591D01*
X111827037Y-93397270D02*
X111863548Y-93431354D01*
X111863548Y-39127877D02*
X111827037Y-39161961D01*
X111863548Y-93431354D02*
X111880479Y-93449724D01*
X111880479Y-93449724D02*
X111911478Y-93488888D01*
X111896469Y-39090313D02*
X111863548Y-39127877D01*
X111911478Y-93488888D02*
X111938407Y-93530955D01*
X111925469Y-39049646D02*
X111896469Y-39090313D01*
X111938407Y-93530955D02*
X111950259Y-93552947D01*
X111950259Y-39006284D02*
X111925469Y-39049646D01*
X111950259Y-93552947D02*
X111970590Y-93598570D01*
X111960996Y-38983727D02*
X111950259Y-39006284D01*
X111970590Y-93598570D02*
X112054415Y-93849358D01*
X111979022Y-38937132D02*
X111960996Y-38983727D01*
X112050290Y-50837829D02*
X112372645Y-51673504D01*
X112054406Y-81709896D02*
X111776998Y-82548665D01*
X112054415Y-38709873D02*
X111979022Y-38937132D01*
X112054415Y-93849358D02*
X112372655Y-94673526D01*
X112367969Y-37897017D02*
X112054415Y-38709873D01*
X112367969Y-80897016D02*
X112054406Y-81709896D01*
X112372645Y-51673504D02*
X112730941Y-52481066D01*
X112372655Y-94673526D02*
X112730941Y-95481066D01*
X112730941Y-37078165D02*
X112367969Y-37897017D01*
X112730941Y-52481066D02*
X113128430Y-53270074D01*
X112730941Y-95481066D02*
X113122670Y-96259297D01*
X112730951Y-80078142D02*
X112367969Y-80897016D01*
X113122670Y-96259297D02*
X113557873Y-97028147D01*
X113122720Y-79299831D02*
X112730951Y-80078142D01*
X113128430Y-36289157D02*
X112730941Y-37078165D01*
X113128430Y-53270074D02*
X113564155Y-54038628D01*
X113543356Y-78555389D02*
X113122720Y-79299831D01*
X113548106Y-78558702D02*
X113543356Y-78555389D01*
X113557873Y-97028147D02*
X114030264Y-97774695D01*
X113564155Y-54038628D02*
X114037066Y-54784876D01*
X113564168Y-35520582D02*
X113128430Y-36289157D01*
X114030264Y-97774695D02*
X114546040Y-98507040D01*
X114037066Y-54784876D02*
X114546025Y-55507020D01*
X114037080Y-34774334D02*
X113564168Y-35520582D01*
X114546025Y-34052211D02*
X114037080Y-34774334D01*
X114546025Y-55507020D02*
X115089820Y-56203341D01*
X114546040Y-98507040D02*
X115082052Y-99193876D01*
X115082036Y-33365374D02*
X114546025Y-34052211D01*
X115082052Y-99193876D02*
X115658872Y-99863030D01*
X115089820Y-56203341D02*
X115667094Y-56872103D01*
X115658872Y-99863030D02*
X116276522Y-100511769D01*
X115658888Y-32696182D02*
X115082036Y-33365374D01*
X115667094Y-56872103D02*
X116276504Y-57511752D01*
X116237543Y-81484889D02*
X113548106Y-78558702D01*
X116267846Y-32056138D02*
X115658888Y-32696182D01*
X116274798Y-81521396D02*
X116237543Y-81484889D01*
X116276504Y-57511752D02*
X116916566Y-58120727D01*
X116276522Y-100511769D02*
X116916566Y-101120727D01*
X116294889Y-81538212D02*
X116274798Y-81521396D01*
X116337484Y-81568509D02*
X116294889Y-81538212D01*
X116382862Y-81594112D02*
X116337484Y-81568509D01*
X116430675Y-81614849D02*
X116382862Y-81594112D01*
X116455539Y-81623388D02*
X116430675Y-81614849D01*
X116506303Y-81636455D02*
X116455539Y-81623388D01*
X116557843Y-81644096D02*
X116506303Y-81636455D01*
X116583841Y-81645889D02*
X116557843Y-81644096D01*
X116636184Y-81645383D02*
X116583841Y-81645889D01*
X116662291Y-81643072D02*
X116636184Y-81645383D01*
X116688259Y-81639390D02*
X116662291Y-81643072D01*
X116739237Y-81628020D02*
X116688259Y-81639390D01*
X116764258Y-81620334D02*
X116739237Y-81628020D01*
X116812842Y-81601124D02*
X116764258Y-81620334D01*
X116859151Y-81576941D02*
X116812842Y-81601124D01*
X116881332Y-81563043D02*
X116859151Y-81576941D01*
X116907512Y-31446710D02*
X116267846Y-32056138D01*
X116916566Y-58120727D02*
X117576293Y-58689811D01*
X116916566Y-101120727D02*
X117576274Y-101689795D01*
X116923288Y-81531913D02*
X116881332Y-81563043D01*
X116953100Y-81506385D02*
X116923288Y-81531913D01*
X117576274Y-101689795D02*
X118272593Y-102233589D01*
X117576293Y-30869420D02*
X116907512Y-31446710D01*
X117576293Y-58689811D02*
X118272595Y-59233590D01*
X118272595Y-59233590D02*
X118994739Y-59742549D01*
X118272593Y-102233589D02*
X118807511Y-102611374D01*
X118282409Y-30318362D02*
X117576293Y-30869420D01*
X118525484Y-107558630D02*
X108474515Y-107558630D01*
X118574218Y-107553830D02*
X118525484Y-107558630D01*
X118622247Y-107544277D02*
X118574218Y-107553830D01*
X118645851Y-107537744D02*
X118622247Y-107544277D01*
X118691958Y-107521247D02*
X118645851Y-107537744D01*
X118736226Y-107500310D02*
X118691958Y-107521247D01*
X118757537Y-107488238D02*
X118736226Y-107500310D01*
X118798253Y-107461032D02*
X118757537Y-107488238D01*
X118807511Y-102611374D02*
X118843742Y-102642471D01*
X118836107Y-107429966D02*
X118798253Y-107461032D01*
X118843742Y-102642471D02*
X118876835Y-102676890D01*
X118853846Y-107413078D02*
X118836107Y-107429966D01*
X118876835Y-102676890D02*
X118892109Y-102695247D01*
X118886731Y-107376794D02*
X118853846Y-107413078D01*
X118892109Y-102695247D02*
X118919937Y-102734046D01*
X118915903Y-107337461D02*
X118886731Y-107376794D01*
X118919937Y-102734046D02*
X118943930Y-102775327D01*
X118941078Y-107295458D02*
X118915903Y-107337461D01*
X118943930Y-102775327D02*
X118963866Y-102818713D01*
X118962015Y-107251190D02*
X118941078Y-107295458D01*
X118963866Y-102818713D02*
X118979565Y-102863805D01*
X118970830Y-107228339D02*
X118962015Y-107251190D01*
X118978512Y-107205083D02*
X118970830Y-107228339D01*
X118979565Y-102863805D02*
X118985779Y-102886863D01*
X118985779Y-102886863D02*
X118994864Y-102933738D01*
X118990411Y-107157582D02*
X118978512Y-107205083D01*
X118994739Y-59742549D02*
X119740987Y-60215460D01*
X118994864Y-102933738D02*
X118997715Y-102957447D01*
X118997596Y-107109142D02*
X118990411Y-107157582D01*
X118997715Y-102957447D02*
X119000000Y-103005152D01*
X119000000Y-103005152D02*
X119000000Y-107060219D01*
X119000000Y-107060219D02*
X118997596Y-107109142D01*
X119004899Y-29809893D02*
X118282409Y-30318362D01*
X119740987Y-60215460D02*
X120509519Y-60651173D01*
X119751468Y-29337489D02*
X119004899Y-29809893D01*
X120509519Y-60651173D02*
X121298549Y-61048674D01*
X120520340Y-28902275D02*
X119751468Y-29337489D01*
X121115052Y-71598735D02*
X121118097Y-71603587D01*
X121118097Y-71603587D02*
X123798163Y-74520620D01*
X121298549Y-61048674D02*
X122106111Y-61406970D01*
X121307481Y-71506268D02*
X121115052Y-71598735D01*
X121309618Y-28505322D02*
X120520340Y-28902275D01*
X122000000Y-105058098D02*
X122002417Y-105009032D01*
X122000000Y-107060219D02*
X122000000Y-105058098D01*
X122002403Y-107109142D02*
X122000000Y-107060219D01*
X122002417Y-105009032D02*
X122009644Y-104960454D01*
X122009588Y-107157582D02*
X122002403Y-107109142D01*
X122009644Y-104960454D02*
X122021612Y-104912822D01*
X122021487Y-107205083D02*
X122009588Y-107157582D01*
X122021612Y-104912822D02*
X122038204Y-104866596D01*
X122037984Y-107251190D02*
X122021487Y-107205083D01*
X122038204Y-104866596D02*
X122059260Y-104822226D01*
X122058921Y-107295458D02*
X122037984Y-107251190D01*
X122059260Y-104822226D02*
X122084576Y-104780140D01*
X122070993Y-107316769D02*
X122058921Y-107295458D01*
X122084096Y-107337461D02*
X122070993Y-107316769D01*
X122084576Y-104780140D02*
X122113906Y-104740747D01*
X122106111Y-28152261D02*
X121309618Y-28505322D01*
X122106111Y-61406970D02*
X122930280Y-61725209D01*
X122106110Y-71152260D02*
X121307481Y-71506268D01*
X122113268Y-107376794D02*
X122084096Y-107337461D01*
X122113906Y-104740747D02*
X122146967Y-104704428D01*
X122129265Y-107395339D02*
X122113268Y-107376794D01*
X122146967Y-104704428D02*
X122183437Y-104671535D01*
X122163892Y-107429966D02*
X122129265Y-107395339D01*
X122183437Y-104671535D02*
X122222965Y-104642387D01*
X122201746Y-107461032D02*
X122163892Y-107429966D01*
X122222965Y-104642387D02*
X122265167Y-104617265D01*
X122242462Y-107488238D02*
X122201746Y-107461032D01*
X122265167Y-104617265D02*
X122309633Y-104596413D01*
X122285650Y-107511322D02*
X122242462Y-107488238D01*
X122308041Y-107521247D02*
X122285650Y-107511322D01*
X122309633Y-104596413D02*
X122355935Y-104580034D01*
X122354148Y-107537744D02*
X122308041Y-107521247D01*
X122355935Y-104580034D02*
X122403622Y-104568286D01*
X122377752Y-107544277D02*
X122354148Y-107537744D01*
X122403622Y-104568286D02*
X122452233Y-104561282D01*
X122425781Y-107553830D02*
X122377752Y-107544277D01*
X122452233Y-104561282D02*
X122499877Y-104558206D01*
X122474515Y-107558630D02*
X122425781Y-107553830D01*
X122494346Y-28002180D02*
X122106111Y-28152261D01*
X122498790Y-28000619D02*
X122494346Y-28002180D01*
X122499877Y-104558206D02*
X122500150Y-99523487D01*
X122499891Y-28001590D02*
X122498790Y-28000619D01*
X122500000Y-33023485D02*
X122499891Y-28001590D01*
X122500150Y-99523487D02*
X122507529Y-99222934D01*
X122507529Y-99222934D02*
X122530397Y-98904732D01*
X122508732Y-33360784D02*
X122500000Y-33023485D01*
X122530397Y-33654499D02*
X122508732Y-33360784D01*
X122530397Y-98904732D02*
X122568851Y-98588037D01*
X122568851Y-33971194D02*
X122530397Y-33654499D01*
X122568851Y-98588037D02*
X122622799Y-98273609D01*
X122622799Y-34285622D02*
X122568851Y-33971194D01*
X122622799Y-98273609D02*
X122698067Y-97938425D01*
X122698067Y-34620806D02*
X122622799Y-34285622D01*
X122698067Y-97938425D02*
X122783734Y-97631121D01*
X122783734Y-34928110D02*
X122698067Y-34620806D01*
X122783734Y-97631121D02*
X122884377Y-97328390D01*
X122876117Y-35207757D02*
X122783734Y-34928110D01*
X122884377Y-97328390D02*
X122990371Y-97053612D01*
X122930280Y-61725209D02*
X123769049Y-62002617D01*
X122930279Y-70834021D02*
X122106110Y-71152260D01*
X122990371Y-97053612D02*
X123119100Y-96761717D01*
X122999752Y-35528268D02*
X122876117Y-35207757D01*
X123119100Y-96761717D02*
X123261998Y-96476490D01*
X123129583Y-35819678D02*
X122999752Y-35528268D01*
X123261998Y-96476490D02*
X123431324Y-96177589D01*
X123273556Y-36104364D02*
X123129583Y-35819678D01*
X123418721Y-36360615D02*
X123273556Y-36104364D01*
X123431324Y-96177589D02*
X123602509Y-95908383D01*
X123602509Y-36650848D02*
X123418721Y-36360615D01*
X123602509Y-95908383D02*
X123772093Y-95667592D01*
X123769049Y-62002617D02*
X124620466Y-62238547D01*
X123772093Y-36891639D02*
X123602509Y-36650848D01*
X123772093Y-95667592D02*
X123799839Y-95630585D01*
X123772281Y-75241168D02*
X116953100Y-81506385D01*
X123780766Y-70553060D02*
X122930279Y-70834021D01*
X123798163Y-74520620D02*
X123823697Y-74550439D01*
X123799839Y-95630585D02*
X123800150Y-87773487D01*
X123799844Y-36928697D02*
X123772093Y-36891639D01*
X123800000Y-44773485D02*
X123799844Y-36928697D01*
X123800150Y-87773487D02*
X123807166Y-87512236D01*
X123805963Y-45022508D02*
X123800000Y-44773485D01*
X123807166Y-87512236D02*
X123824137Y-87282155D01*
X123813107Y-75199036D02*
X123772281Y-75241168D01*
X123823697Y-74550439D02*
X123854826Y-74592393D01*
X123824137Y-87282155D02*
X123854782Y-87028787D01*
X123826541Y-45301474D02*
X123805963Y-45022508D01*
X123845562Y-75158157D02*
X123813107Y-75199036D01*
X123854782Y-87028787D02*
X123902603Y-86753182D01*
X123854826Y-74592393D02*
X123868705Y-74614540D01*
X123858379Y-45554694D02*
X123826541Y-45301474D01*
X123868705Y-74614540D02*
X123892901Y-74660871D01*
X123873608Y-75114044D02*
X123845562Y-75158157D01*
X123892901Y-74660871D02*
X123903155Y-74684941D01*
X123896936Y-75067146D02*
X123873608Y-75114044D01*
X123902603Y-45806049D02*
X123858379Y-45554694D01*
X123902603Y-86753182D02*
X123959108Y-86504302D01*
X123903155Y-74684941D02*
X123919796Y-74734461D01*
X123915227Y-75018040D02*
X123896936Y-75067146D01*
X123919796Y-74734461D02*
X123931177Y-74785480D01*
X123922394Y-74992919D02*
X123915227Y-75018040D01*
X123931177Y-74785480D02*
X123934846Y-74811344D01*
X123932748Y-74941682D02*
X123922394Y-74992919D01*
X123934846Y-74811344D02*
X123938109Y-74863515D01*
X123937686Y-74889674D02*
X123932748Y-74941682D01*
X123938109Y-74863515D02*
X123937686Y-74889674D01*
X123959108Y-46054929D02*
X123902603Y-45806049D01*
X123959108Y-86504302D02*
X124020640Y-86281953D01*
X124020640Y-86281953D02*
X124108384Y-86016347D01*
X124027757Y-46300738D02*
X123959108Y-46054929D01*
X124108384Y-46542884D02*
X124027757Y-46300738D01*
X124108384Y-86016347D02*
X124200795Y-85778453D01*
X124191414Y-46758129D02*
X124108384Y-46542884D01*
X124200795Y-85778453D02*
X124304769Y-85545376D01*
X124294286Y-46991691D02*
X124191414Y-46758129D01*
X124304769Y-85545376D02*
X124408496Y-85339305D01*
X124408496Y-47219926D02*
X124294286Y-46991691D01*
X124408496Y-85339305D02*
X124533768Y-85116950D01*
X124533768Y-47442281D02*
X124408496Y-47219926D01*
X124533768Y-85116950D02*
X124683419Y-84880626D01*
X124620466Y-62238547D02*
X125482387Y-62432406D01*
X124632344Y-70317709D02*
X123780766Y-70553060D01*
X124669799Y-47658221D02*
X124533768Y-47442281D01*
X124683419Y-84880626D02*
X124816260Y-84692005D01*
X124816260Y-47867226D02*
X124669799Y-47658221D01*
X124816260Y-84692005D02*
X124972801Y-84490438D01*
X124972801Y-48068793D02*
X124816260Y-47867226D01*
X124972801Y-84490438D02*
X125155509Y-84278630D01*
X125139046Y-48262438D02*
X124972801Y-48068793D01*
X125155509Y-84278630D02*
X125314588Y-84111542D01*
X125314588Y-48447689D02*
X125139046Y-48262438D01*
X125314588Y-84111542D02*
X125499014Y-83935125D01*
X125482387Y-62432406D02*
X126352806Y-62583743D01*
X125494396Y-70124436D02*
X124632344Y-70317709D01*
X125499014Y-48624106D02*
X125314588Y-48447689D01*
X125499014Y-83935125D02*
X125710822Y-83752417D01*
X125691869Y-48791260D02*
X125499014Y-48624106D01*
X125710822Y-83752417D02*
X125912389Y-83595876D01*
X125892696Y-48948750D02*
X125691869Y-48791260D01*
X125912389Y-83595876D02*
X126101010Y-83463035D01*
X126101010Y-49096196D02*
X125892696Y-48948750D01*
X126101010Y-83463035D02*
X126316306Y-83325988D01*
X126316306Y-49233243D02*
X126101010Y-49096196D01*
X126316306Y-83325988D02*
X126538067Y-83199670D01*
X126352806Y-62583743D02*
X126612070Y-62616024D01*
X126364942Y-69973687D02*
X125494396Y-70124436D01*
X126538067Y-49359561D02*
X126316306Y-49233243D01*
X126538067Y-83199670D02*
X126787924Y-83073902D01*
X126550987Y-65279616D02*
X108499012Y-65279616D01*
X126575484Y-65279014D02*
X126550987Y-65279616D01*
X126612070Y-62616024D02*
X126661155Y-62624584D01*
X126624218Y-65274214D02*
X126575484Y-65279014D01*
X126661155Y-62624584D02*
X126685310Y-62630688D01*
X126672247Y-65264661D02*
X126624218Y-65274214D01*
X126685310Y-62630688D02*
X126732556Y-62646474D01*
X126719107Y-65250446D02*
X126672247Y-65264661D01*
X126732556Y-62646474D02*
X126777992Y-62666891D01*
X126764349Y-65231706D02*
X126719107Y-65250446D01*
X126765760Y-49474846D02*
X126538067Y-49359561D01*
X126777992Y-62666891D02*
X126821167Y-62691737D01*
X126786226Y-65220694D02*
X126764349Y-65231706D01*
X126787924Y-83073902D02*
X126998837Y-82980411D01*
X126821167Y-62691737D02*
X126861649Y-62720763D01*
X126828229Y-65195519D02*
X126786226Y-65220694D01*
X126861649Y-62720763D02*
X126899035Y-62753681D01*
X126867562Y-65166347D02*
X126828229Y-65195519D01*
X126899035Y-62753681D02*
X126932954Y-62790163D01*
X126903846Y-65133462D02*
X126867562Y-65166347D01*
X126932954Y-62790163D02*
X126963066Y-62829844D01*
X126936731Y-65097178D02*
X126903846Y-65133462D01*
X126963066Y-62829844D02*
X126976599Y-62850762D01*
X126965903Y-65057845D02*
X126936731Y-65097178D01*
X126976599Y-62850762D02*
X127000452Y-62894493D01*
X126991078Y-65015842D02*
X126965903Y-65057845D01*
X126998837Y-49578820D02*
X126765760Y-49474846D01*
X126998837Y-82980411D02*
X127236731Y-82888000D01*
X127000452Y-62894493D02*
X127010712Y-62917197D01*
X127010712Y-62917197D02*
X127027771Y-62963998D01*
X127012015Y-64971574D02*
X126991078Y-65015842D01*
X127027771Y-62963998D02*
X127040079Y-63012267D01*
X127028512Y-64925467D02*
X127012015Y-64971574D01*
X127040079Y-63012267D02*
X127047513Y-63061522D01*
X127040411Y-64877966D02*
X127028512Y-64925467D01*
X127047513Y-63061522D02*
X127050000Y-63111285D01*
X127047596Y-64829526D02*
X127040411Y-64877966D01*
X127050000Y-63111285D02*
X127050000Y-64780603D01*
X127050000Y-64780603D02*
X127047596Y-64829526D01*
X127236731Y-49671231D02*
X126998837Y-49578820D01*
X127236731Y-82888000D02*
X127502337Y-82800256D01*
X127241811Y-69865839D02*
X126364942Y-69973687D01*
X127478877Y-49751858D02*
X127236731Y-49671231D01*
X127502337Y-82800256D02*
X127724686Y-82738724D01*
X127724686Y-49820507D02*
X127478877Y-49751858D01*
X127724686Y-82738724D02*
X127973566Y-82682219D01*
X127973566Y-49877012D02*
X127724686Y-49820507D01*
X127973566Y-82682219D02*
X128249171Y-82634398D01*
X128110686Y-69801747D02*
X127241811Y-69865839D01*
X128224921Y-49921236D02*
X127973566Y-49877012D01*
X128249171Y-82634398D02*
X128502539Y-82603753D01*
X128478141Y-49953074D02*
X128224921Y-49921236D01*
X128502539Y-82603753D02*
X128732620Y-82586782D01*
X128550000Y-64780603D02*
X128550620Y-63252684D01*
X128550620Y-63252684D02*
X128555576Y-63203172D01*
X128552403Y-64829526D02*
X128550000Y-64780603D01*
X128555576Y-63203172D02*
X128559899Y-63178664D01*
X128559588Y-64877966D02*
X128552403Y-64829526D01*
X128559899Y-63178664D02*
X128572180Y-63130444D01*
X128564954Y-64901863D02*
X128559588Y-64877966D01*
X128572180Y-63130444D02*
X128580108Y-63106854D01*
X128579169Y-64948723D02*
X128564954Y-64901863D01*
X128580108Y-63106854D02*
X128599441Y-63061004D01*
X128597909Y-64993965D02*
X128579169Y-64948723D01*
X128599441Y-63061004D02*
X128623244Y-63017308D01*
X128620993Y-65037153D02*
X128597909Y-64993965D01*
X128623244Y-63017308D02*
X128651280Y-62976200D01*
X128634096Y-65057845D02*
X128620993Y-65037153D01*
X128651280Y-62976200D02*
X128683271Y-62938088D01*
X128663268Y-65097178D02*
X128634096Y-65057845D01*
X128679265Y-65115723D02*
X128663268Y-65097178D01*
X128683271Y-62938088D02*
X128700651Y-62920276D01*
X128700651Y-62920276D02*
X128737966Y-62887359D01*
X128713892Y-65150350D02*
X128679265Y-65115723D01*
X128732437Y-65166347D02*
X128713892Y-65150350D01*
X128732620Y-49972449D02*
X128478141Y-49953074D01*
X128732620Y-82586782D02*
X129012259Y-82579916D01*
X128737966Y-62887359D02*
X128757808Y-62872337D01*
X128757808Y-62872337D02*
X128799614Y-62845351D01*
X128771770Y-65195519D02*
X128732437Y-65166347D01*
X128799614Y-62845351D02*
X128821473Y-62833454D01*
X128813773Y-65220694D02*
X128771770Y-65195519D01*
X128821473Y-62833454D02*
X128866834Y-62813002D01*
X128835650Y-65231706D02*
X128813773Y-65220694D01*
X128866834Y-62813002D02*
X128914007Y-62797170D01*
X128880892Y-65250446D02*
X128835650Y-65231706D01*
X128904148Y-65258128D02*
X128880892Y-65250446D01*
X128914007Y-62797170D02*
X128938127Y-62791037D01*
X128938127Y-62791037D02*
X128987132Y-62782413D01*
X128950987Y-67279616D02*
X128975484Y-67280217D01*
X128951649Y-65270027D02*
X128904148Y-65258128D01*
X128975484Y-67280217D02*
X129024218Y-67285017D01*
X128975781Y-65274214D02*
X128951649Y-65270027D01*
X128987132Y-62782413D02*
X129036766Y-62778713D01*
X128987740Y-49979315D02*
X128732620Y-49972449D01*
X128988102Y-69779286D02*
X128110686Y-69801747D01*
X129012259Y-82579916D02*
X129267379Y-82586782D01*
X129024218Y-67285017D02*
X129072247Y-67294570D01*
X129024515Y-65279014D02*
X128975781Y-65274214D01*
X129036766Y-62778713D02*
X129889313Y-62757484D01*
X129037477Y-69773117D02*
X128988102Y-69779286D01*
X129061872Y-69768194D02*
X129037477Y-69773117D01*
X129072247Y-67294570D02*
X129119107Y-67308785D01*
X129109776Y-69754733D02*
X129061872Y-69768194D01*
X129119107Y-67308785D02*
X129164349Y-67327525D01*
X129156100Y-69736568D02*
X129109776Y-69754733D01*
X129164349Y-67327525D02*
X129207537Y-67350609D01*
X129200385Y-69713880D02*
X129156100Y-69736568D01*
X129207537Y-67350609D02*
X129248253Y-67377815D01*
X129242191Y-69686894D02*
X129200385Y-69713880D01*
X129242892Y-49973652D02*
X128987740Y-49979315D01*
X129248253Y-67377815D02*
X129286107Y-67408881D01*
X129262033Y-69671872D02*
X129242191Y-69686894D01*
X129267379Y-82586782D02*
X129497460Y-82603753D01*
X129281101Y-69655879D02*
X129262033Y-69671872D01*
X129286107Y-67408881D02*
X129320734Y-67443508D01*
X129316728Y-69621143D02*
X129281101Y-69655879D01*
X129320734Y-67443508D02*
X129351800Y-67481362D01*
X129348719Y-69583031D02*
X129316728Y-69621143D01*
X129351800Y-67481362D02*
X129379006Y-67522078D01*
X129376755Y-69541923D02*
X129348719Y-69583031D01*
X129379006Y-67522078D02*
X129402090Y-67565266D01*
X129400558Y-69498227D02*
X129376755Y-69541923D01*
X129402090Y-67565266D02*
X129420830Y-67610508D01*
X129410796Y-69475543D02*
X129400558Y-69498227D01*
X129419891Y-69452377D02*
X129410796Y-69475543D01*
X129420830Y-67610508D02*
X129428512Y-67633764D01*
X129428512Y-67633764D02*
X129440411Y-67681265D01*
X129434561Y-69404830D02*
X129419891Y-69452377D01*
X129440411Y-67681265D02*
X129447596Y-67729705D01*
X129444423Y-69356059D02*
X129434561Y-69404830D01*
X129447596Y-67729705D02*
X129450000Y-67778628D01*
X129449379Y-69306547D02*
X129444423Y-69356059D01*
X129450000Y-67778628D02*
X129450000Y-69281656D01*
X129450000Y-69281656D02*
X129449379Y-69306547D01*
X129497460Y-49955478D02*
X129242892Y-49973652D01*
X129497460Y-82603753D02*
X129750828Y-82634398D01*
X129750828Y-49924833D02*
X129497460Y-49955478D01*
X129750828Y-82634398D02*
X130002387Y-82677436D01*
X129889313Y-62757484D02*
X130758188Y-62693392D01*
X130002387Y-49881795D02*
X129750828Y-49924833D01*
X130002387Y-82677436D02*
X130275313Y-82738724D01*
X130251531Y-49826464D02*
X130002387Y-49881795D01*
X130275313Y-82738724D02*
X130497662Y-82800256D01*
X130497662Y-49758975D02*
X130251531Y-49826464D01*
X130497662Y-82800256D02*
X130740182Y-82879740D01*
X130740182Y-49679491D02*
X130497662Y-49758975D01*
X130740182Y-82879740D02*
X130978513Y-82971030D01*
X130758188Y-62693392D02*
X131635057Y-62585544D01*
X130950000Y-69447946D02*
X130950601Y-67754131D01*
X130950601Y-67754131D02*
X130952403Y-67729705D01*
X130952403Y-67729705D02*
X130959588Y-67681265D01*
X130952486Y-69497709D02*
X130950000Y-69447946D01*
X130959588Y-67681265D02*
X130971487Y-67633764D01*
X130959920Y-69546964D02*
X130952486Y-69497709D01*
X130971487Y-67633764D02*
X130987984Y-67587657D01*
X130972228Y-69595233D02*
X130959920Y-69546964D01*
X130978513Y-49588201D02*
X130740182Y-49679491D01*
X130978513Y-82971030D02*
X131212075Y-83073902D01*
X130987984Y-67587657D02*
X130997909Y-67565266D01*
X130989287Y-69642034D02*
X130972228Y-69595233D01*
X130997909Y-67565266D02*
X131020993Y-67522078D01*
X130999547Y-69664738D02*
X130989287Y-69642034D01*
X131020993Y-67522078D02*
X131048199Y-67481362D01*
X131023400Y-69708469D02*
X130999547Y-69664738D01*
X131036933Y-69729387D02*
X131023400Y-69708469D01*
X131048199Y-67481362D02*
X131079265Y-67443508D01*
X131067045Y-69769068D02*
X131036933Y-69729387D01*
X131079265Y-67443508D02*
X131113892Y-67408881D01*
X131100964Y-69805550D02*
X131067045Y-69769068D01*
X131113892Y-67408881D02*
X131151746Y-67377815D01*
X131138350Y-69838468D02*
X131100964Y-69805550D01*
X131151746Y-67377815D02*
X131171770Y-67363712D01*
X131171770Y-67363712D02*
X131213773Y-67338537D01*
X131178832Y-69867494D02*
X131138350Y-69838468D01*
X131200109Y-69880456D02*
X131178832Y-69867494D01*
X131212075Y-83073902D02*
X131461932Y-83199670D01*
X131213773Y-67338537D02*
X131258041Y-67317600D01*
X131234239Y-49474846D02*
X130978513Y-49588201D01*
X131244470Y-69903116D02*
X131200109Y-69880456D01*
X131258041Y-67317600D02*
X131304148Y-67301103D01*
X131290869Y-69921240D02*
X131244470Y-69903116D01*
X131304148Y-67301103D02*
X131351649Y-67289204D01*
X131338844Y-69934647D02*
X131290869Y-69921240D01*
X131351649Y-67289204D02*
X131400089Y-67282019D01*
X131387929Y-69943207D02*
X131338844Y-69934647D01*
X131400089Y-67282019D02*
X131449012Y-67279616D01*
X131449012Y-67279616D02*
X167950987Y-67279616D01*
X131461932Y-49359561D02*
X131234239Y-49474846D01*
X131461932Y-83199670D02*
X131683693Y-83325988D01*
X131635057Y-62585544D02*
X132505603Y-62434795D01*
X131647193Y-69975488D02*
X131387929Y-69943207D01*
X131683693Y-49233243D02*
X131461932Y-49359561D01*
X131683693Y-83325988D02*
X131898989Y-83463035D01*
X131878605Y-49109816D02*
X131683693Y-49233243D01*
X131898989Y-83463035D02*
X132087610Y-83595876D01*
X132087610Y-83595876D02*
X132289177Y-83752417D01*
X132107303Y-48948750D02*
X131878605Y-49109816D01*
X132289177Y-83752417D02*
X132482822Y-83918662D01*
X132308130Y-48791260D02*
X132107303Y-48948750D01*
X132482822Y-48640569D02*
X132308130Y-48791260D01*
X132482822Y-83918662D02*
X132668073Y-84094204D01*
X132505603Y-62434795D02*
X133367655Y-62241522D01*
X132505603Y-70124436D02*
X131647193Y-69975488D01*
X132668073Y-48465027D02*
X132482822Y-48640569D01*
X132668073Y-84094204D02*
X132860953Y-84296793D01*
X132844490Y-48280601D02*
X132668073Y-48465027D01*
X132860953Y-84296793D02*
X133011644Y-84471485D01*
X133011644Y-84471485D02*
X133169134Y-84672312D01*
X133027198Y-48068793D02*
X132844490Y-48280601D01*
X133169134Y-84672312D02*
X133316580Y-84880626D01*
X133183739Y-47867226D02*
X133027198Y-48068793D01*
X133316580Y-84880626D02*
X133453627Y-85095922D01*
X133330200Y-47658221D02*
X133183739Y-47867226D01*
X133367655Y-62241522D02*
X134219233Y-62006171D01*
X133379533Y-70320684D02*
X132505603Y-70124436D01*
X133453627Y-47463309D02*
X133330200Y-47658221D01*
X133453627Y-85095922D02*
X133591503Y-85339305D01*
X133591503Y-47219926D02*
X133453627Y-47463309D01*
X133591503Y-85339305D02*
X133705713Y-85567540D01*
X133705713Y-46991691D02*
X133591503Y-47219926D01*
X133705713Y-85567540D02*
X133808585Y-85801102D01*
X133799204Y-46780778D02*
X133705713Y-46991691D01*
X133808585Y-85801102D02*
X133891615Y-86016347D01*
X133891615Y-46542884D02*
X133799204Y-46780778D01*
X133891615Y-86016347D02*
X133972242Y-86258493D01*
X133972242Y-46300738D02*
X133891615Y-46542884D01*
X133972242Y-86258493D02*
X134046848Y-86528084D01*
X134046848Y-46031147D02*
X133972242Y-46300738D01*
X134046848Y-86528084D02*
X134102179Y-86777228D01*
X134061891Y-57695707D02*
X134064102Y-57643481D01*
X134064102Y-57643481D02*
X134067251Y-57617549D01*
X134065154Y-57747891D02*
X134061891Y-57695707D01*
X134067251Y-57617549D02*
X134077605Y-57566312D01*
X134073844Y-57799405D02*
X134065154Y-57747891D01*
X134077605Y-57566312D02*
X134084783Y-57541153D01*
X134080208Y-57824786D02*
X134073844Y-57799405D01*
X134084783Y-57541153D02*
X134103013Y-57492195D01*
X134096845Y-57874295D02*
X134080208Y-57824786D01*
X134102179Y-45782003D02*
X134046848Y-46031147D01*
X134102179Y-86777228D02*
X134141620Y-87004537D01*
X134103013Y-57492195D02*
X134126274Y-57445388D01*
X134107089Y-57898340D02*
X134096845Y-57874295D01*
X134126274Y-57445388D02*
X134154284Y-57401289D01*
X134131282Y-57944672D02*
X134107089Y-57898340D01*
X134141620Y-87004537D02*
X134175862Y-87282155D01*
X134145179Y-57966844D02*
X134131282Y-57944672D01*
X134145217Y-45530444D02*
X134102179Y-45782003D01*
X134154284Y-57401289D02*
X134186767Y-57360335D01*
X134175862Y-45277076D02*
X134145217Y-45530444D01*
X134175862Y-87282155D02*
X134194036Y-87536723D01*
X134176308Y-58008799D02*
X134145179Y-57966844D01*
X134186767Y-57360335D02*
X134232530Y-57313642D01*
X134194036Y-45022508D02*
X134175862Y-45277076D01*
X134194036Y-87536723D02*
X134199849Y-87773487D01*
X134199849Y-87773487D02*
X134200155Y-95630534D01*
X134200000Y-44773485D02*
X134194036Y-45022508D01*
X134200155Y-36928697D02*
X134200000Y-44773485D01*
X134200155Y-95630534D02*
X134227906Y-95667592D01*
X134201836Y-58038611D02*
X134176308Y-58008799D01*
X134219233Y-62006171D02*
X135069720Y-61725210D01*
X134219233Y-70553060D02*
X133379533Y-70320684D01*
X134227906Y-36891639D02*
X134200155Y-36928697D01*
X134227906Y-95667592D02*
X134397490Y-95908383D01*
X134232530Y-57313642D02*
X141046899Y-51052846D01*
X134397490Y-36650848D02*
X134227906Y-36891639D01*
X134397490Y-95908383D02*
X134581278Y-96198616D01*
X134581278Y-36360615D02*
X134397490Y-36650848D01*
X134581278Y-96198616D02*
X134726443Y-96454867D01*
X134726443Y-36104364D02*
X134581278Y-36360615D01*
X134726443Y-96454867D02*
X134870416Y-96739553D01*
X134870416Y-35819678D02*
X134726443Y-36104364D01*
X134870416Y-96739553D02*
X135000247Y-97030963D01*
X135000247Y-35528268D02*
X134870416Y-35819678D01*
X135000247Y-97030963D02*
X135123882Y-97351474D01*
X135058213Y-70829906D02*
X134219233Y-70553060D01*
X135069720Y-61725210D02*
X135893889Y-61406971D01*
X135123882Y-35207757D02*
X135000247Y-35528268D01*
X135123882Y-97351474D02*
X135216265Y-97631121D01*
X135216265Y-34928110D02*
X135123882Y-35207757D01*
X135216265Y-97631121D02*
X135301932Y-97938425D01*
X135301932Y-34620806D02*
X135216265Y-34928110D01*
X135301932Y-97938425D02*
X135377200Y-98273609D01*
X135377200Y-34285622D02*
X135301932Y-34620806D01*
X135377200Y-98273609D02*
X135431148Y-98588037D01*
X135431148Y-33971194D02*
X135377200Y-34285622D01*
X135431148Y-98588037D02*
X135469602Y-98904732D01*
X135469602Y-33654499D02*
X135431148Y-33971194D01*
X135469602Y-98904732D02*
X135491267Y-99198447D01*
X135491267Y-33360784D02*
X135469602Y-33654499D01*
X135491267Y-99198447D02*
X135500000Y-99535746D01*
X135500000Y-33023485D02*
X135491267Y-33360784D01*
X135500000Y-99535746D02*
X135500522Y-104558428D01*
X135500122Y-28001025D02*
X135500000Y-33023485D01*
X135500522Y-104558428D02*
X135893888Y-104406970D01*
X135500987Y-25000000D02*
X135549910Y-25002403D01*
X135547766Y-27997949D02*
X135500122Y-28001025D01*
X135549910Y-25002403D02*
X135598350Y-25009588D01*
X135596377Y-27990945D02*
X135547766Y-27997949D01*
X135598350Y-25009588D02*
X135622247Y-25014954D01*
X135622247Y-25014954D02*
X135669107Y-25029169D01*
X135644064Y-27979197D02*
X135596377Y-27990945D01*
X135669107Y-25029169D02*
X135714349Y-25047909D01*
X135690366Y-27962818D02*
X135644064Y-27979197D01*
X135714349Y-25047909D02*
X135757537Y-25070993D01*
X135734832Y-27941966D02*
X135690366Y-27962818D01*
X135757537Y-25070993D02*
X135778229Y-25084096D01*
X135777034Y-27916844D02*
X135734832Y-27941966D01*
X135778229Y-25084096D02*
X135817562Y-25113268D01*
X135816562Y-27887696D02*
X135777034Y-27916844D01*
X135817562Y-25113268D02*
X135853846Y-25146153D01*
X135853032Y-27854803D02*
X135816562Y-27887696D01*
X135853846Y-25146153D02*
X135886731Y-25182437D01*
X135882598Y-71147585D02*
X135058213Y-70829906D01*
X135886093Y-27818484D02*
X135853032Y-27854803D01*
X135886731Y-25182437D02*
X135901800Y-25201746D01*
X135893889Y-61406971D02*
X136692518Y-61052963D01*
X135893888Y-104406970D02*
X136690381Y-104053909D01*
X135901800Y-25201746D02*
X135915903Y-25221770D01*
X135915423Y-27779091D02*
X135886093Y-27818484D01*
X135915903Y-25221770D02*
X135941078Y-25263773D01*
X135940739Y-27737005D02*
X135915423Y-27779091D01*
X135941078Y-25263773D02*
X135962015Y-25308041D01*
X135961795Y-27692635D02*
X135940739Y-27737005D01*
X135962015Y-25308041D02*
X135978512Y-25354148D01*
X135978387Y-27646409D02*
X135961795Y-27692635D01*
X135978512Y-25354148D02*
X135985045Y-25377752D01*
X135985045Y-25377752D02*
X135994598Y-25425781D01*
X135990355Y-27598777D02*
X135978387Y-27646409D01*
X135994598Y-25425781D02*
X135997596Y-25450089D01*
X135997582Y-27550199D02*
X135990355Y-27598777D01*
X135997596Y-25450089D02*
X136000000Y-25499012D01*
X135999395Y-27525702D02*
X135997582Y-27550199D01*
X136000000Y-25499012D02*
X135999395Y-27525702D01*
X136690381Y-104053909D02*
X137479659Y-103656956D01*
X136690403Y-71505332D02*
X135882598Y-71147585D01*
X136692518Y-61052963D02*
X136884912Y-60960531D01*
X136881902Y-60955644D02*
X134201836Y-58038611D01*
X136884912Y-60960531D02*
X136881902Y-60955644D01*
X137479659Y-103656956D02*
X138248531Y-103221742D01*
X137479681Y-71902286D02*
X136690403Y-71505332D01*
X138248531Y-72337489D02*
X137479681Y-71902286D01*
X138248531Y-103221742D02*
X138995100Y-102749338D01*
X138995100Y-72809893D02*
X138248531Y-72337489D01*
X138995100Y-102749338D02*
X139717590Y-102240869D01*
X139000000Y-25499012D02*
X139002403Y-25450089D01*
X139000000Y-29554079D02*
X139000000Y-25499012D01*
X139002284Y-29601784D02*
X139000000Y-29554079D01*
X139002403Y-25450089D02*
X139009588Y-25401649D01*
X139009116Y-29649039D02*
X139002284Y-29601784D01*
X139009588Y-25401649D02*
X139021487Y-25354148D01*
X139014220Y-29672368D02*
X139009116Y-29649039D01*
X139021487Y-25354148D02*
X139029169Y-25330892D01*
X139027743Y-29718160D02*
X139014220Y-29672368D01*
X139029169Y-25330892D02*
X139047909Y-25285650D01*
X139036133Y-29740518D02*
X139027743Y-29718160D01*
X139047909Y-25285650D02*
X139070993Y-25242462D01*
X139056069Y-29783904D02*
X139036133Y-29740518D01*
X139070993Y-25242462D02*
X139098199Y-25201746D01*
X139080062Y-29825185D02*
X139056069Y-29783904D01*
X139098199Y-25201746D02*
X139129265Y-25163892D01*
X139107890Y-29863984D02*
X139080062Y-29825185D01*
X139129265Y-25163892D02*
X139163892Y-25129265D01*
X139139298Y-29899946D02*
X139107890Y-29863984D01*
X139163892Y-25129265D02*
X139201746Y-25098199D01*
X139174000Y-29932742D02*
X139139298Y-29899946D01*
X139192488Y-29947857D02*
X139174000Y-29932742D01*
X139201746Y-25098199D02*
X139242462Y-25070993D01*
X139242462Y-25070993D02*
X139285650Y-25047909D01*
X139285650Y-25047909D02*
X139330892Y-25029169D01*
X139330892Y-25029169D02*
X139377752Y-25014954D01*
X139377752Y-25014954D02*
X139425781Y-25005401D01*
X139425781Y-25005401D02*
X139474515Y-25000601D01*
X139474515Y-25000601D02*
X139499012Y-25000000D01*
X139499012Y-25000000D02*
X174500987Y-25000000D01*
X139717590Y-73318362D02*
X138995100Y-72809893D01*
X139717590Y-102240869D02*
X140423706Y-101689811D01*
X139727406Y-30325642D02*
X139192488Y-29947857D01*
X140423706Y-73869420D02*
X139717590Y-73318362D01*
X140423706Y-101689811D02*
X141092487Y-101112521D01*
X140423725Y-30869436D02*
X139727406Y-30325642D01*
X141046899Y-51052846D02*
X141097287Y-51011200D01*
X141083433Y-31438504D02*
X140423725Y-30869436D01*
X141092487Y-74446710D02*
X140423706Y-73869420D01*
X141092487Y-101112521D02*
X141732153Y-100503093D01*
X141097287Y-51011200D02*
X141140848Y-50982290D01*
X141140848Y-50982290D02*
X141163692Y-50969589D01*
X141163692Y-50969589D02*
X141211191Y-50947868D01*
X141211191Y-50947868D02*
X141235777Y-50938885D01*
X141235777Y-50938885D02*
X141286102Y-50924859D01*
X141286102Y-50924859D02*
X141337618Y-50916170D01*
X141337618Y-50916170D02*
X141363691Y-50913854D01*
X141363691Y-50913854D02*
X141415919Y-50913331D01*
X141415919Y-50913331D02*
X141442032Y-50915124D01*
X141442032Y-50915124D02*
X141467979Y-50918276D01*
X141467979Y-50918276D02*
X141519174Y-50928623D01*
X141519174Y-50928623D02*
X141544335Y-50935801D01*
X141544335Y-50935801D02*
X141593281Y-50954029D01*
X141593281Y-50954029D02*
X141617016Y-50965058D01*
X141617016Y-50965058D02*
X141662508Y-50990718D01*
X141662508Y-50990718D02*
X141684219Y-51005320D01*
X141684219Y-51005320D02*
X141725170Y-51037805D01*
X141723477Y-32047462D02*
X141083433Y-31438504D01*
X141725170Y-51037805D02*
X141762439Y-51074324D01*
X141732136Y-75056120D02*
X141092487Y-74446710D01*
X141732153Y-100503093D02*
X142341111Y-99863049D01*
X141762439Y-51074324D02*
X144451893Y-54000529D01*
X142341111Y-75696182D02*
X141732136Y-75056120D01*
X142341111Y-99863049D02*
X142917947Y-99193876D01*
X142341127Y-32696201D02*
X141723477Y-32047462D01*
X142917947Y-33365355D02*
X142341127Y-32696201D01*
X142917947Y-76365355D02*
X142341111Y-75696182D01*
X142917947Y-99193876D02*
X143461253Y-98497206D01*
X143453959Y-34052191D02*
X142917947Y-33365355D01*
X143461253Y-98497206D02*
X143969722Y-97774716D01*
X143461268Y-77062045D02*
X142917947Y-76365355D01*
X143969722Y-77784515D02*
X143461268Y-77062045D01*
X143969722Y-97774716D02*
X144442138Y-97028126D01*
X143969735Y-34784536D02*
X143453959Y-34052191D01*
X144435844Y-78520603D02*
X143969722Y-77784515D01*
X144442126Y-35531084D02*
X143969735Y-34784536D01*
X144442138Y-97028126D02*
X144877329Y-96259297D01*
X144451893Y-54000529D02*
X144456576Y-54003916D01*
X144456576Y-54003916D02*
X144877279Y-53259400D01*
X144871569Y-79289157D02*
X144435844Y-78520603D01*
X144877279Y-53259400D02*
X145274284Y-52470020D01*
X144877329Y-36299934D02*
X144442126Y-35531084D01*
X144877329Y-96259297D02*
X145269048Y-95481088D01*
X145269048Y-80078143D02*
X144871569Y-79289157D01*
X145269048Y-95481088D02*
X145632030Y-94662214D01*
X145269058Y-37078165D02*
X144877329Y-36299934D01*
X145274284Y-52470020D02*
X145627354Y-51673503D01*
X145627344Y-37885705D02*
X145269058Y-37078165D01*
X145627354Y-51673503D02*
X145945584Y-50849358D01*
X145632030Y-94662214D02*
X145945584Y-93849358D01*
X145632039Y-80897039D02*
X145269048Y-80078143D01*
X145945584Y-38709873D02*
X145627344Y-37885705D01*
X145945584Y-50849358D02*
X146226562Y-49998825D01*
X145945584Y-93849358D02*
X146029409Y-93598570D01*
X145949709Y-81721402D02*
X145632039Y-80897039D01*
X146029409Y-38960661D02*
X145945584Y-38709873D01*
X146029409Y-93598570D02*
X146049740Y-93552947D01*
X146049740Y-39006284D02*
X146029409Y-38960661D01*
X146049740Y-93552947D02*
X146061592Y-93530955D01*
X146061592Y-39028276D02*
X146049740Y-39006284D01*
X146061592Y-93530955D02*
X146074530Y-93509585D01*
X146074530Y-39049646D02*
X146061592Y-39028276D01*
X146074530Y-93509585D02*
X146103530Y-93468918D01*
X146103530Y-39090313D02*
X146074530Y-39049646D01*
X146103530Y-93468918D02*
X146136451Y-93431354D01*
X146136451Y-39127877D02*
X146103530Y-39090313D01*
X146136451Y-93431354D02*
X146172962Y-93397270D01*
X146172962Y-39161961D02*
X146136451Y-39127877D01*
X146172962Y-93397270D02*
X146212698Y-93367006D01*
X146212698Y-39192225D02*
X146172962Y-39161961D01*
X146212698Y-93367006D02*
X146233652Y-93353403D01*
X146226555Y-82560382D02*
X145949709Y-81721402D01*
X146226562Y-49998825D02*
X146461900Y-49147295D01*
X146233652Y-39205828D02*
X146212698Y-39192225D01*
X146233652Y-93353403D02*
X146277469Y-93329427D01*
X146277469Y-39229804D02*
X146233652Y-39205828D01*
X146277469Y-93329427D02*
X146323463Y-93309951D01*
X146300222Y-39240118D02*
X146277469Y-39229804D01*
X146323463Y-93309951D02*
X146347134Y-93301963D01*
X146347134Y-39257268D02*
X146300222Y-39240118D01*
X146347134Y-93301963D02*
X146395525Y-93289589D01*
X146395525Y-39269642D02*
X146347134Y-39257268D01*
X146395525Y-93289589D02*
X146420124Y-93285234D01*
X146420124Y-93285234D02*
X146469822Y-93280240D01*
X146444910Y-39277116D02*
X146395525Y-39269642D01*
X146461900Y-49147295D02*
X146652790Y-48297228D01*
X146461900Y-83411936D02*
X146226555Y-82560382D01*
X146469822Y-93280240D02*
X150530177Y-93280240D01*
X146494808Y-39279617D02*
X146444910Y-39277116D01*
X146652790Y-48297228D02*
X146805928Y-47414673D01*
X146655179Y-84274012D02*
X146461900Y-83411936D01*
X146805924Y-85144533D02*
X146655179Y-84274012D01*
X146805928Y-47414673D02*
X146913774Y-46537828D01*
X146888081Y-42791562D02*
X146889164Y-42743304D01*
X146888081Y-89767669D02*
X146889291Y-89743557D01*
X146889164Y-42743304D02*
X146894905Y-42695376D01*
X146889164Y-89815927D02*
X146888081Y-89767669D01*
X146889291Y-89743557D02*
X146913776Y-89537804D01*
X146891667Y-42839711D02*
X146888081Y-42791562D01*
X146894905Y-42695376D02*
X146905250Y-42648227D01*
X146894905Y-89863855D02*
X146889164Y-89815927D01*
X146905250Y-42648227D02*
X146912120Y-42625083D01*
X146905250Y-89911004D02*
X146894905Y-89863855D01*
X146912120Y-42625083D02*
X146929176Y-42579926D01*
X146912120Y-89934148D02*
X146905250Y-89911004D01*
X146913776Y-43021427D02*
X146891667Y-42839711D01*
X146913774Y-46537828D02*
X146978467Y-45656724D01*
X146913774Y-86021403D02*
X146805924Y-85144533D01*
X146913776Y-89537804D02*
X146977868Y-88668929D01*
X146929176Y-42579926D02*
X146939322Y-42558019D01*
X146929176Y-89979305D02*
X146912120Y-89934148D01*
X146939322Y-42558019D02*
X146962730Y-42515805D01*
X146950515Y-90022602D02*
X146929176Y-89979305D01*
X146962730Y-42515805D02*
X146975938Y-42495596D01*
X146975938Y-42495596D02*
X147005207Y-42457211D01*
X146975938Y-90063635D02*
X146950515Y-90022602D01*
X146977868Y-88668929D02*
X146999849Y-87785725D01*
X146978468Y-43902532D02*
X146913776Y-43021427D01*
X146978467Y-45656724D02*
X146999849Y-44785725D01*
X146978467Y-86902507D02*
X146913774Y-86021403D01*
X146999849Y-44785725D02*
X146978468Y-43902532D01*
X146999849Y-87785725D02*
X146978467Y-86902507D01*
X147005207Y-42457211D02*
X147038048Y-42421834D01*
X147005207Y-90102020D02*
X146975938Y-90063635D01*
X147038048Y-42421834D02*
X147055712Y-42405378D01*
X147038048Y-90137397D02*
X147005207Y-90102020D01*
X147055712Y-42405378D02*
X147093325Y-42375123D01*
X147074153Y-90169436D02*
X147038048Y-90137397D01*
X147093325Y-42375123D02*
X147113184Y-42361395D01*
X147113184Y-42361395D02*
X147154778Y-42336899D01*
X147113184Y-90197836D02*
X147074153Y-90169436D01*
X147133685Y-90210587D02*
X147113184Y-90197836D01*
X147154778Y-42336899D02*
X147198543Y-42316537D01*
X147176414Y-90233042D02*
X147133685Y-90210587D01*
X147198543Y-42316537D02*
X147244071Y-42300498D01*
X147221113Y-90251264D02*
X147176414Y-90233042D01*
X147244071Y-42300498D02*
X147267363Y-42294149D01*
X147267363Y-42294149D02*
X147314733Y-42284865D01*
X147267363Y-90265082D02*
X147221113Y-90251264D01*
X147314733Y-42284865D02*
X147338699Y-42281952D01*
X147314733Y-90274366D02*
X147267363Y-90265082D01*
X147338699Y-42281952D02*
X147386925Y-42279617D01*
X147362777Y-90279030D02*
X147314733Y-90274366D01*
X147386925Y-42279617D02*
X149637222Y-42280201D01*
X149613074Y-90279615D02*
X147362777Y-90279030D01*
X149637222Y-42280201D02*
X149685266Y-42284865D01*
X149661300Y-90277279D02*
X149613074Y-90279615D01*
X149685266Y-42284865D02*
X149732636Y-42294149D01*
X149709063Y-90270297D02*
X149661300Y-90277279D01*
X149732636Y-42294149D02*
X149755928Y-42300498D01*
X149732636Y-90265082D02*
X149709063Y-90270297D01*
X149755928Y-42300498D02*
X149801456Y-42316537D01*
X149755928Y-90258733D02*
X149732636Y-90265082D01*
X149801456Y-42316537D02*
X149845221Y-42336899D01*
X149801456Y-90242694D02*
X149755928Y-90258733D01*
X149823585Y-90233042D02*
X149801456Y-90242694D01*
X149845221Y-42336899D02*
X149866314Y-42348644D01*
X149866314Y-42348644D02*
X149906674Y-42375123D01*
X149866314Y-90210587D02*
X149823585Y-90233042D01*
X149906674Y-42375123D02*
X149944287Y-42405378D01*
X149906674Y-90184108D02*
X149866314Y-90210587D01*
X149925846Y-90169436D02*
X149906674Y-90184108D01*
X149944287Y-42405378D02*
X149961951Y-42421834D01*
X149961951Y-42421834D02*
X149994792Y-42457211D01*
X149961951Y-90137397D02*
X149925846Y-90169436D01*
X149994792Y-42457211D02*
X150024061Y-42495596D01*
X149994792Y-90102020D02*
X149961951Y-90137397D01*
X150000150Y-44773506D02*
X150021532Y-45656724D01*
X150000150Y-87773506D02*
X150021531Y-88656699D01*
X150021532Y-45656724D02*
X150086225Y-46537828D01*
X150021532Y-86902507D02*
X150000150Y-87773506D01*
X150021531Y-88656699D02*
X150086223Y-89537804D01*
X150022131Y-43890302D02*
X150000150Y-44773506D01*
X150024061Y-42495596D02*
X150049484Y-42536629D01*
X150024061Y-90063635D02*
X149994792Y-90102020D01*
X150037269Y-90043426D02*
X150024061Y-90063635D01*
X150049484Y-42536629D02*
X150070823Y-42579926D01*
X150060677Y-90001212D02*
X150037269Y-90043426D01*
X150070823Y-42579926D02*
X150087879Y-42625083D01*
X150070823Y-89979305D02*
X150060677Y-90001212D01*
X150086223Y-43021427D02*
X150022131Y-43890302D01*
X150086225Y-46537828D02*
X150194075Y-47414698D01*
X150086225Y-86021403D02*
X150021532Y-86902507D01*
X150086223Y-89537804D02*
X150108332Y-89719520D01*
X150087879Y-42625083D02*
X150094749Y-42648227D01*
X150087879Y-89934148D02*
X150070823Y-89979305D01*
X150094749Y-42648227D02*
X150105094Y-42695376D01*
X150094749Y-89911004D02*
X150087879Y-89934148D01*
X150105094Y-42695376D02*
X150110835Y-42743304D01*
X150105094Y-89863855D02*
X150094749Y-89911004D01*
X150108332Y-89719520D02*
X150111918Y-89767669D01*
X150110708Y-42815674D02*
X150086223Y-43021427D01*
X150110835Y-42743304D02*
X150111918Y-42791562D01*
X150110835Y-89815927D02*
X150105094Y-89863855D01*
X150111918Y-42791562D02*
X150110708Y-42815674D01*
X150111918Y-89767669D02*
X150110835Y-89815927D01*
X150194071Y-85144558D02*
X150086225Y-86021403D01*
X150194075Y-47414698D02*
X150344820Y-48285219D01*
X150344820Y-48285219D02*
X150538099Y-49147295D01*
X150347209Y-84262003D02*
X150194071Y-85144558D01*
X150505191Y-39279617D02*
X146494808Y-39279617D01*
X150530177Y-39278991D02*
X150505191Y-39279617D01*
X150530177Y-93280240D02*
X150555089Y-93282115D01*
X150538099Y-49147295D02*
X150773444Y-49998849D01*
X150538099Y-83411936D02*
X150347209Y-84262003D01*
X150555089Y-93282115D02*
X150604474Y-93289589D01*
X150579875Y-39273997D02*
X150530177Y-39278991D01*
X150604474Y-39269642D02*
X150579875Y-39273997D01*
X150604474Y-93289589D02*
X150652865Y-93301963D01*
X150652865Y-39257268D02*
X150604474Y-39269642D01*
X150652865Y-93301963D02*
X150676536Y-93309951D01*
X150676536Y-93309951D02*
X150722530Y-93329427D01*
X150699777Y-39240118D02*
X150652865Y-39257268D01*
X150722530Y-39229804D02*
X150699777Y-39240118D01*
X150722530Y-93329427D02*
X150744739Y-93340867D01*
X150744739Y-93340867D02*
X150787301Y-93367006D01*
X150766347Y-39205828D02*
X150722530Y-39229804D01*
X150773437Y-82560406D02*
X150538099Y-83411936D01*
X150773444Y-49998849D02*
X151050290Y-50837829D01*
X150787301Y-93367006D02*
X150827037Y-93397270D01*
X150807548Y-39177591D02*
X150766347Y-39205828D01*
X150827037Y-93397270D02*
X150863548Y-93431354D01*
X150845719Y-39145376D02*
X150807548Y-39177591D01*
X150863548Y-93431354D02*
X150896469Y-93468918D01*
X150880479Y-39109507D02*
X150845719Y-39145376D01*
X150896469Y-39090313D02*
X150880479Y-39109507D01*
X150896469Y-93468918D02*
X150925469Y-93509585D01*
X150925469Y-39049646D02*
X150896469Y-39090313D01*
X150925469Y-93509585D02*
X150938407Y-93530955D01*
X150938407Y-39028276D02*
X150925469Y-39049646D01*
X150938407Y-93530955D02*
X150960996Y-93575504D01*
X150960996Y-38983727D02*
X150938407Y-39028276D01*
X150960996Y-93575504D02*
X150979022Y-93622099D01*
X150979022Y-38937132D02*
X150960996Y-38983727D01*
X150979022Y-93622099D02*
X151054415Y-93849358D01*
X151050290Y-50837829D02*
X151367960Y-51662192D01*
X151054415Y-38709873D02*
X150979022Y-38937132D01*
X151054415Y-81709873D02*
X150773437Y-82560406D01*
X151054415Y-93849358D02*
X151372655Y-94673526D01*
X151367960Y-51662192D02*
X151730951Y-52481088D01*
X151367969Y-37897017D02*
X151054415Y-38709873D01*
X151372645Y-80885728D02*
X151054415Y-81709873D01*
X151372655Y-94673526D02*
X151730941Y-95481066D01*
X151725715Y-80089211D02*
X151372645Y-80885728D01*
X151730941Y-37078165D02*
X151367969Y-37897017D01*
X151730941Y-95481066D02*
X152122670Y-96259297D01*
X151730951Y-52481088D02*
X152128430Y-53270074D01*
X152122670Y-96259297D02*
X152557873Y-97028147D01*
X152122720Y-79299831D02*
X151725715Y-80089211D01*
X152128430Y-36289157D02*
X151730941Y-37078165D01*
X152128430Y-53270074D02*
X152564155Y-54038628D01*
X152543389Y-78555351D02*
X152122720Y-79299831D01*
X152548106Y-78558702D02*
X152543389Y-78555351D01*
X152557873Y-97028147D02*
X153030264Y-97774695D01*
X152564155Y-54038628D02*
X153037066Y-54784876D01*
X152564168Y-35520582D02*
X152128430Y-36289157D01*
X153030264Y-97774695D02*
X153546025Y-98507020D01*
X153037066Y-54784876D02*
X153538746Y-55497206D01*
X153037080Y-34774334D02*
X152564168Y-35520582D01*
X153538746Y-55497206D02*
X154082052Y-56193876D01*
X153546025Y-34052211D02*
X153037080Y-34774334D01*
X153546025Y-98507020D02*
X154089820Y-99203341D01*
X154082036Y-33365374D02*
X153546025Y-34052211D01*
X154082052Y-56193876D02*
X154658888Y-56863049D01*
X154089820Y-99203341D02*
X154667094Y-99872103D01*
X154658888Y-32696182D02*
X154082036Y-33365374D01*
X154658888Y-56863049D02*
X155267863Y-57503111D01*
X154667094Y-99872103D02*
X155267863Y-100503111D01*
X155237543Y-81484889D02*
X152548106Y-78558702D01*
X155267846Y-32056138D02*
X154658888Y-32696182D01*
X155267863Y-57503111D02*
X155907512Y-58112521D01*
X155267863Y-100503111D02*
X155907512Y-101112521D01*
X155274798Y-81521396D02*
X155237543Y-81484889D01*
X155294889Y-81538212D02*
X155274798Y-81521396D01*
X155337484Y-81568509D02*
X155294889Y-81538212D01*
X155382862Y-81594112D02*
X155337484Y-81568509D01*
X155430675Y-81614849D02*
X155382862Y-81594112D01*
X155455539Y-81623388D02*
X155430675Y-81614849D01*
X155506303Y-81636455D02*
X155455539Y-81623388D01*
X155557843Y-81644096D02*
X155506303Y-81636455D01*
X155583841Y-81645889D02*
X155557843Y-81644096D01*
X155636184Y-81645383D02*
X155583841Y-81645889D01*
X155662291Y-81643072D02*
X155636184Y-81645383D01*
X155688259Y-81639390D02*
X155662291Y-81643072D01*
X155739237Y-81628020D02*
X155688259Y-81639390D01*
X155764258Y-81620334D02*
X155739237Y-81628020D01*
X155812842Y-81601124D02*
X155764258Y-81620334D01*
X155859151Y-81576941D02*
X155812842Y-81601124D01*
X155902712Y-81548031D02*
X155859151Y-81576941D01*
X155907512Y-31446710D02*
X155267846Y-32056138D01*
X155907512Y-58112521D02*
X156576293Y-58689811D01*
X155907512Y-101112521D02*
X156576293Y-101689811D01*
X155953100Y-81506385D02*
X155902712Y-81548031D01*
X156576293Y-30869420D02*
X155907512Y-31446710D01*
X156576293Y-58689811D02*
X157282409Y-59240869D01*
X156576293Y-101689811D02*
X157272593Y-102233589D01*
X157272593Y-102233589D02*
X157788311Y-102597153D01*
X157282409Y-30318362D02*
X156576293Y-30869420D01*
X157282409Y-59240869D02*
X158004899Y-59749338D01*
X157525484Y-107558630D02*
X122474515Y-107558630D01*
X157574218Y-107553830D02*
X157525484Y-107558630D01*
X157622247Y-107544277D02*
X157574218Y-107553830D01*
X157645851Y-107537744D02*
X157622247Y-107544277D01*
X157691958Y-107521247D02*
X157645851Y-107537744D01*
X157736226Y-107500310D02*
X157691958Y-107521247D01*
X157778229Y-107475135D02*
X157736226Y-107500310D01*
X157788311Y-102597153D02*
X157807511Y-102611374D01*
X157807511Y-102611374D02*
X157843742Y-102642471D01*
X157817562Y-107445963D02*
X157778229Y-107475135D01*
X157843742Y-102642471D02*
X157876835Y-102676890D01*
X157853846Y-107413078D02*
X157817562Y-107445963D01*
X157870734Y-107395339D02*
X157853846Y-107413078D01*
X157876835Y-102676890D02*
X157906488Y-102714313D01*
X157901800Y-107357485D02*
X157870734Y-107395339D01*
X157906488Y-102714313D02*
X157932427Y-102754400D01*
X157929006Y-107316769D02*
X157901800Y-107357485D01*
X157932427Y-102754400D02*
X157954417Y-102796782D01*
X157952090Y-107273581D02*
X157929006Y-107316769D01*
X157954417Y-102796782D02*
X157972256Y-102841071D01*
X157970830Y-107228339D02*
X157952090Y-107273581D01*
X157972256Y-102841071D02*
X157985779Y-102886863D01*
X157985045Y-107181479D02*
X157970830Y-107228339D01*
X157985779Y-102886863D02*
X157994864Y-102933738D01*
X157990411Y-107157582D02*
X157985045Y-107181479D01*
X157994864Y-102933738D02*
X157999428Y-102981266D01*
X157997596Y-107109142D02*
X157990411Y-107157582D01*
X157999428Y-102981266D02*
X158000000Y-107060219D01*
X158000000Y-107060219D02*
X157997596Y-107109142D01*
X158004899Y-29809893D02*
X157282409Y-30318362D01*
X158004899Y-59749338D02*
X158751468Y-60221742D01*
X158751468Y-29337489D02*
X158004899Y-29809893D01*
X158751468Y-60221742D02*
X159520318Y-60656945D01*
X159520318Y-60656945D02*
X160309596Y-61053899D01*
X159520340Y-28902275D02*
X158751468Y-29337489D01*
X160115020Y-71598771D02*
X162798163Y-74520620D01*
X160307481Y-71506268D02*
X160115020Y-71598771D01*
X160309596Y-61053899D02*
X161117401Y-61411646D01*
X160309618Y-28505322D02*
X159520340Y-28902275D01*
X161000000Y-105058098D02*
X161002417Y-105009032D01*
X161000000Y-107060219D02*
X161000000Y-105058098D01*
X161002403Y-107109142D02*
X161000000Y-107060219D01*
X161002417Y-105009032D02*
X161009644Y-104960454D01*
X161009588Y-107157582D02*
X161002403Y-107109142D01*
X161009644Y-104960454D02*
X161021612Y-104912822D01*
X161014954Y-107181479D02*
X161009588Y-107157582D01*
X161021612Y-104912822D02*
X161038204Y-104866596D01*
X161029169Y-107228339D02*
X161014954Y-107181479D01*
X161038204Y-104866596D02*
X161059260Y-104822226D01*
X161047909Y-107273581D02*
X161029169Y-107228339D01*
X161059260Y-104822226D02*
X161084576Y-104780140D01*
X161070993Y-107316769D02*
X161047909Y-107273581D01*
X161084576Y-104780140D02*
X161113906Y-104740747D01*
X161098199Y-107357485D02*
X161070993Y-107316769D01*
X161106111Y-28152261D02*
X160309618Y-28505322D01*
X161106110Y-71152260D02*
X160307481Y-71506268D01*
X161113268Y-107376794D02*
X161098199Y-107357485D01*
X161113906Y-104740747D02*
X161146967Y-104704428D01*
X161117401Y-61411646D02*
X161941786Y-61729325D01*
X161129265Y-107395339D02*
X161113268Y-107376794D01*
X161146967Y-104704428D02*
X161183437Y-104671535D01*
X161163892Y-107429966D02*
X161129265Y-107395339D01*
X161182437Y-107445963D02*
X161163892Y-107429966D01*
X161183437Y-104671535D02*
X161222965Y-104642387D01*
X161221770Y-107475135D02*
X161182437Y-107445963D01*
X161222965Y-104642387D02*
X161265167Y-104617265D01*
X161263773Y-107500310D02*
X161221770Y-107475135D01*
X161265167Y-104617265D02*
X161309633Y-104596413D01*
X161308041Y-107521247D02*
X161263773Y-107500310D01*
X161309633Y-104596413D02*
X161355935Y-104580034D01*
X161354148Y-107537744D02*
X161308041Y-107521247D01*
X161355935Y-104580034D02*
X161403622Y-104568286D01*
X161377752Y-107544277D02*
X161354148Y-107537744D01*
X161403622Y-104568286D02*
X161452233Y-104561282D01*
X161425781Y-107553830D02*
X161377752Y-107544277D01*
X161450089Y-107556828D02*
X161425781Y-107553830D01*
X161452233Y-104561282D02*
X161499877Y-104558206D01*
X161494346Y-28002180D02*
X161106111Y-28152261D01*
X161498790Y-28000619D02*
X161494346Y-28002180D01*
X161499012Y-107559232D02*
X161450089Y-107556828D01*
X161499877Y-104558206D02*
X161500150Y-99523487D01*
X161499891Y-28001590D02*
X161498790Y-28000619D01*
X161500000Y-33023485D02*
X161499891Y-28001590D01*
X161500150Y-99523487D02*
X161507529Y-99222934D01*
X161507529Y-99222934D02*
X161530397Y-98904732D01*
X161508732Y-33360784D02*
X161500000Y-33023485D01*
X161530397Y-33654499D02*
X161508732Y-33360784D01*
X161530397Y-98904732D02*
X161568851Y-98588037D01*
X161568851Y-33971194D02*
X161530397Y-33654499D01*
X161568851Y-98588037D02*
X161622799Y-98273609D01*
X161622799Y-34285622D02*
X161568851Y-33971194D01*
X161622799Y-98273609D02*
X161698067Y-97938425D01*
X161698067Y-34620806D02*
X161622799Y-34285622D01*
X161698067Y-97938425D02*
X161783734Y-97631121D01*
X161783734Y-34928110D02*
X161698067Y-34620806D01*
X161783734Y-97631121D02*
X161884377Y-97328390D01*
X161876117Y-35207757D02*
X161783734Y-34928110D01*
X161884377Y-97328390D02*
X161990371Y-97053612D01*
X161930279Y-70834021D02*
X161106110Y-71152260D01*
X161941786Y-61729325D02*
X162780766Y-62006171D01*
X161990371Y-97053612D02*
X162119100Y-96761717D01*
X161999752Y-35528268D02*
X161876117Y-35207757D01*
X162119100Y-96761717D02*
X162261998Y-96476490D01*
X162129583Y-35819678D02*
X161999752Y-35528268D01*
X162261998Y-96476490D02*
X162431324Y-96177589D01*
X162273556Y-36104364D02*
X162129583Y-35819678D01*
X162418721Y-36360615D02*
X162273556Y-36104364D01*
X162431324Y-96177589D02*
X162602509Y-95908383D01*
X162602509Y-36650848D02*
X162418721Y-36360615D01*
X162602509Y-95908383D02*
X162772093Y-95667592D01*
X162772093Y-36891639D02*
X162602509Y-36650848D01*
X162772093Y-95667592D02*
X162799839Y-95630585D01*
X162772281Y-75241168D02*
X155953100Y-81506385D01*
X162780766Y-62006171D02*
X163632320Y-62241516D01*
X162780766Y-70553060D02*
X161930279Y-70834021D01*
X162798163Y-74520620D02*
X162823691Y-74550432D01*
X162799839Y-95630585D02*
X162800150Y-87773487D01*
X162799844Y-36928697D02*
X162772093Y-36891639D01*
X162800000Y-44773485D02*
X162799844Y-36928697D01*
X162800150Y-87773487D02*
X162807166Y-87512236D01*
X162805963Y-45022508D02*
X162800000Y-44773485D01*
X162807166Y-87512236D02*
X162826541Y-87257757D01*
X162813107Y-75199036D02*
X162772281Y-75241168D01*
X162823691Y-74550432D02*
X162854820Y-74592387D01*
X162826541Y-45301474D02*
X162805963Y-45022508D01*
X162826541Y-87257757D02*
X162854782Y-87028787D01*
X162845562Y-75158157D02*
X162813107Y-75199036D01*
X162854782Y-87028787D02*
X162897820Y-86777228D01*
X162854820Y-74592387D02*
X162868751Y-74614619D01*
X162858379Y-45554694D02*
X162826541Y-45301474D01*
X162868751Y-74614619D02*
X162893032Y-74661167D01*
X162873606Y-75114047D02*
X162845562Y-75158157D01*
X162893032Y-74661167D02*
X162903242Y-74685167D01*
X162896953Y-75067107D02*
X162873606Y-75114047D01*
X162897820Y-86777228D02*
X162953151Y-86528084D01*
X162902603Y-45806049D02*
X162858379Y-45554694D01*
X162903242Y-74685167D02*
X162919828Y-74734576D01*
X162915229Y-75018041D02*
X162896953Y-75067107D01*
X162919828Y-74734576D02*
X162931172Y-74785459D01*
X162928238Y-74967458D02*
X162915229Y-75018041D01*
X162931172Y-74785459D02*
X162934850Y-74811379D01*
X162932743Y-74941713D02*
X162928238Y-74967458D01*
X162934850Y-74811379D02*
X162938108Y-74863506D01*
X162937687Y-74889670D02*
X162932743Y-74941713D01*
X162938108Y-74863506D02*
X162937687Y-74889670D01*
X162953151Y-86528084D02*
X163020640Y-86281953D01*
X162959108Y-46054929D02*
X162902603Y-45806049D01*
X163020640Y-86281953D02*
X163100124Y-86039433D01*
X163027757Y-46300738D02*
X162959108Y-46054929D01*
X163100124Y-86039433D02*
X163191414Y-85801102D01*
X163108384Y-46542884D02*
X163027757Y-46300738D01*
X163191414Y-46758129D02*
X163108384Y-46542884D01*
X163191414Y-85801102D02*
X163304769Y-85545376D01*
X163294286Y-46991691D02*
X163191414Y-46758129D01*
X163304769Y-85545376D02*
X163420054Y-85317683D01*
X163408496Y-47219926D02*
X163294286Y-46991691D01*
X163420054Y-85317683D02*
X163546372Y-85095922D01*
X163533768Y-47442281D02*
X163408496Y-47219926D01*
X163546372Y-85095922D02*
X163669799Y-84901010D01*
X163632320Y-62241516D02*
X164494396Y-62434795D01*
X163632344Y-70317709D02*
X162780766Y-70553060D01*
X163669799Y-47658221D02*
X163533768Y-47442281D01*
X163669799Y-84901010D02*
X163830865Y-84672312D01*
X163816260Y-47867226D02*
X163669799Y-47658221D01*
X163830865Y-84672312D02*
X163988355Y-84471485D01*
X163972801Y-48068793D02*
X163816260Y-47867226D01*
X163988355Y-84471485D02*
X164139046Y-84296793D01*
X164139046Y-48262438D02*
X163972801Y-48068793D01*
X164139046Y-84296793D02*
X164314588Y-84111542D01*
X164314588Y-48447689D02*
X164139046Y-48262438D01*
X164314588Y-84111542D02*
X164499014Y-83935125D01*
X164494396Y-62434795D02*
X165352806Y-62583743D01*
X164494396Y-70124436D02*
X163632344Y-70317709D01*
X164499014Y-48624106D02*
X164314588Y-48447689D01*
X164499014Y-83935125D02*
X164710822Y-83752417D01*
X164691869Y-48791260D02*
X164499014Y-48624106D01*
X164710822Y-83752417D02*
X164912389Y-83595876D01*
X164892696Y-48948750D02*
X164691869Y-48791260D01*
X164912389Y-83595876D02*
X165121394Y-83449415D01*
X165101010Y-49096196D02*
X164892696Y-48948750D01*
X165121394Y-83449415D02*
X165316306Y-83325988D01*
X165316306Y-49233243D02*
X165101010Y-49096196D01*
X165316306Y-83325988D02*
X165538067Y-83199670D01*
X165352806Y-62583743D02*
X165612070Y-62616024D01*
X165364942Y-69973687D02*
X164494396Y-70124436D01*
X165538067Y-49359561D02*
X165316306Y-49233243D01*
X165538067Y-83199670D02*
X165765760Y-83084385D01*
X165550987Y-65279616D02*
X129024515Y-65279014D01*
X165575484Y-65279014D02*
X165550987Y-65279616D01*
X165612070Y-62616024D02*
X165661155Y-62624584D01*
X165624218Y-65274214D02*
X165575484Y-65279014D01*
X165661155Y-62624584D02*
X165709130Y-62637991D01*
X165672247Y-65264661D02*
X165624218Y-65274214D01*
X165709130Y-62637991D02*
X165755529Y-62656115D01*
X165719107Y-65250446D02*
X165672247Y-65264661D01*
X165755529Y-62656115D02*
X165799890Y-62678775D01*
X165764349Y-65231706D02*
X165719107Y-65250446D01*
X165765760Y-49474846D02*
X165538067Y-49359561D01*
X165765760Y-83084385D02*
X166021486Y-82971030D01*
X165799890Y-62678775D02*
X165841770Y-62705745D01*
X165807537Y-65208622D02*
X165764349Y-65231706D01*
X165841770Y-62705745D02*
X165880753Y-62736756D01*
X165848253Y-65181416D02*
X165807537Y-65208622D01*
X165880753Y-62736756D02*
X165916450Y-62771499D01*
X165886107Y-65150350D02*
X165848253Y-65181416D01*
X165916450Y-62771499D02*
X165948505Y-62809627D01*
X165920734Y-65115723D02*
X165886107Y-65150350D01*
X165948505Y-62809627D02*
X165976599Y-62850762D01*
X165951800Y-65077869D02*
X165920734Y-65115723D01*
X165976599Y-62850762D02*
X166000452Y-62894493D01*
X165979006Y-65037153D02*
X165951800Y-65077869D01*
X165998837Y-49578820D02*
X165765760Y-49474846D01*
X166000452Y-62894493D02*
X166019826Y-62940384D01*
X166002090Y-64993965D02*
X165979006Y-65037153D01*
X166019826Y-62940384D02*
X166027771Y-62963998D01*
X166020830Y-64948723D02*
X166002090Y-64993965D01*
X166021486Y-82971030D02*
X166259817Y-82879740D01*
X166027771Y-62963998D02*
X166040079Y-63012267D01*
X166035045Y-64901863D02*
X166020830Y-64948723D01*
X166040079Y-63012267D02*
X166047513Y-63061522D01*
X166044598Y-64853834D02*
X166035045Y-64901863D01*
X166047513Y-63061522D02*
X166050000Y-63111285D01*
X166049398Y-64805100D02*
X166044598Y-64853834D01*
X166050000Y-63111285D02*
X166049398Y-64805100D01*
X166236731Y-49671231D02*
X165998837Y-49578820D01*
X166241811Y-69865839D02*
X165364942Y-69973687D01*
X166259817Y-82879740D02*
X166502337Y-82800256D01*
X166478877Y-49751858D02*
X166236731Y-49671231D01*
X166502337Y-82800256D02*
X166748468Y-82732767D01*
X166724686Y-49820507D02*
X166478877Y-49751858D01*
X166748468Y-82732767D02*
X166997612Y-82677436D01*
X166973566Y-49877012D02*
X166724686Y-49820507D01*
X166997612Y-82677436D02*
X167249171Y-82634398D01*
X167110686Y-69801747D02*
X166241811Y-69865839D01*
X167224921Y-49921236D02*
X166973566Y-49877012D01*
X167249171Y-82634398D02*
X167502539Y-82603753D01*
X167478141Y-49953074D02*
X167224921Y-49921236D01*
X167502539Y-82603753D02*
X167757107Y-82585579D01*
X167550000Y-64780603D02*
X167550620Y-63252684D01*
X167550620Y-63252684D02*
X167555576Y-63203172D01*
X167552403Y-64829526D02*
X167550000Y-64780603D01*
X167555401Y-64853834D02*
X167552403Y-64829526D01*
X167555576Y-63203172D02*
X167565438Y-63154401D01*
X167564954Y-64901863D02*
X167555401Y-64853834D01*
X167565438Y-63154401D02*
X167572180Y-63130444D01*
X167572180Y-63130444D02*
X167589203Y-63083688D01*
X167579169Y-64948723D02*
X167564954Y-64901863D01*
X167587984Y-64971574D02*
X167579169Y-64948723D01*
X167589203Y-63083688D02*
X167610797Y-63038859D01*
X167608921Y-65015842D02*
X167587984Y-64971574D01*
X167610797Y-63038859D02*
X167636749Y-62996404D01*
X167634096Y-65057845D02*
X167608921Y-65015842D01*
X167636749Y-62996404D02*
X167651280Y-62976200D01*
X167651280Y-62976200D02*
X167683271Y-62938088D01*
X167663268Y-65097178D02*
X167634096Y-65057845D01*
X167679265Y-65115723D02*
X167663268Y-65097178D01*
X167683271Y-62938088D02*
X167700651Y-62920276D01*
X167696153Y-65133462D02*
X167679265Y-65115723D01*
X167700651Y-62920276D02*
X167737966Y-62887359D01*
X167732437Y-65166347D02*
X167696153Y-65133462D01*
X167732620Y-49972449D02*
X167478141Y-49953074D01*
X167737966Y-62887359D02*
X167757808Y-62872337D01*
X167757107Y-82585579D02*
X168012259Y-82579916D01*
X167757808Y-62872337D02*
X167778374Y-62858322D01*
X167771770Y-65195519D02*
X167732437Y-65166347D01*
X167778374Y-62858322D02*
X167821473Y-62833454D01*
X167792462Y-65208622D02*
X167771770Y-65195519D01*
X167813773Y-65220694D02*
X167792462Y-65208622D01*
X167821473Y-62833454D02*
X167866834Y-62813002D01*
X167858041Y-65241631D02*
X167813773Y-65220694D01*
X167866834Y-62813002D02*
X167914007Y-62797170D01*
X167880892Y-65250446D02*
X167858041Y-65241631D01*
X167914007Y-62797170D02*
X167938127Y-62791037D01*
X167927752Y-65264661D02*
X167880892Y-65250446D01*
X167938127Y-62791037D02*
X167987132Y-62782413D01*
X167950987Y-67279616D02*
X167975484Y-67280217D01*
X167975484Y-67280217D02*
X168024218Y-67285017D01*
X167975781Y-65274214D02*
X167927752Y-65264661D01*
X167987132Y-62782413D02*
X168036766Y-62778713D01*
X167987740Y-49979315D02*
X167732620Y-49972449D01*
X167988102Y-69779286D02*
X167110686Y-69801747D01*
X168000089Y-65277212D02*
X167975781Y-65274214D01*
X168012259Y-82579916D02*
X168267379Y-82586782D01*
X168024218Y-67285017D02*
X168072247Y-67294570D01*
X168036766Y-62778713D02*
X168889313Y-62757484D01*
X168037477Y-69773117D02*
X167988102Y-69779286D01*
X168049012Y-65279616D02*
X168000089Y-65277212D01*
X168072247Y-67294570D02*
X168119107Y-67308785D01*
X168085992Y-69762061D02*
X168037477Y-69773117D01*
X168119107Y-67308785D02*
X168164349Y-67327525D01*
X168133165Y-69746229D02*
X168085992Y-69762061D01*
X168164349Y-67327525D02*
X168207537Y-67350609D01*
X168178526Y-69725777D02*
X168133165Y-69746229D01*
X168207537Y-67350609D02*
X168248253Y-67377815D01*
X168221625Y-69700909D02*
X168178526Y-69725777D01*
X168242191Y-69686894D02*
X168221625Y-69700909D01*
X168242892Y-49973652D02*
X167987740Y-49979315D01*
X168248253Y-67377815D02*
X168286107Y-67408881D01*
X168267379Y-82586782D02*
X168521858Y-82606157D01*
X168281101Y-69655879D02*
X168242191Y-69686894D01*
X168286107Y-67408881D02*
X168320734Y-67443508D01*
X168316728Y-69621143D02*
X168281101Y-69655879D01*
X168320734Y-67443508D02*
X168351800Y-67481362D01*
X168333199Y-69602486D02*
X168316728Y-69621143D01*
X168351800Y-67481362D02*
X168379006Y-67522078D01*
X168363250Y-69562827D02*
X168333199Y-69602486D01*
X168379006Y-67522078D02*
X168402090Y-67565266D01*
X168389202Y-69520372D02*
X168363250Y-69562827D01*
X168402090Y-67565266D02*
X168420830Y-67610508D01*
X168410796Y-69475543D02*
X168389202Y-69520372D01*
X168419891Y-69452377D02*
X168410796Y-69475543D01*
X168420830Y-67610508D02*
X168435045Y-67657368D01*
X168434561Y-69404830D02*
X168419891Y-69452377D01*
X168435045Y-67657368D02*
X168444598Y-67705397D01*
X168440100Y-69380567D02*
X168434561Y-69404830D01*
X168444423Y-69356059D02*
X168440100Y-69380567D01*
X168444598Y-67705397D02*
X168447596Y-67729705D01*
X168447596Y-67729705D02*
X168450000Y-67778628D01*
X168449379Y-69306547D02*
X168444423Y-69356059D01*
X168450000Y-67778628D02*
X168449379Y-69306547D01*
X168497460Y-49955478D02*
X168242892Y-49973652D01*
X168521858Y-82606157D02*
X168775078Y-82637995D01*
X168750828Y-49924833D02*
X168497460Y-49955478D01*
X168775078Y-82637995D02*
X169026433Y-82682219D01*
X168889313Y-62757484D02*
X169758188Y-62693392D01*
X169002387Y-49881795D02*
X168750828Y-49924833D01*
X169026433Y-82682219D02*
X169275313Y-82738724D01*
X169251531Y-49826464D02*
X169002387Y-49881795D01*
X169275313Y-82738724D02*
X169521122Y-82807373D01*
X169497662Y-49758975D02*
X169251531Y-49826464D01*
X169521122Y-82807373D02*
X169763268Y-82888000D01*
X169740182Y-49679491D02*
X169497662Y-49758975D01*
X169758188Y-62693392D02*
X170635057Y-62585544D01*
X169763268Y-82888000D02*
X170001162Y-82980411D01*
X169950000Y-67778628D02*
X169952403Y-67729705D01*
X169950000Y-69447946D02*
X169950000Y-67778628D01*
X169952403Y-67729705D02*
X169959588Y-67681265D01*
X169952486Y-69497709D02*
X169950000Y-69447946D01*
X169959588Y-67681265D02*
X169971487Y-67633764D01*
X169959920Y-69546964D02*
X169952486Y-69497709D01*
X169971487Y-67633764D02*
X169987984Y-67587657D01*
X169972228Y-69595233D02*
X169959920Y-69546964D01*
X169978513Y-49588201D02*
X169740182Y-49679491D01*
X169980173Y-69618847D02*
X169972228Y-69595233D01*
X169987984Y-67587657D02*
X170008921Y-67543389D01*
X169999547Y-69664738D02*
X169980173Y-69618847D01*
X170001162Y-82980411D02*
X170234239Y-83084385D01*
X170008921Y-67543389D02*
X170034096Y-67501386D01*
X170023400Y-69708469D02*
X169999547Y-69664738D01*
X170034096Y-67501386D02*
X170063268Y-67462053D01*
X170036933Y-69729387D02*
X170023400Y-69708469D01*
X170063268Y-67462053D02*
X170096153Y-67425769D01*
X170067045Y-69769068D02*
X170036933Y-69729387D01*
X170096153Y-67425769D02*
X170132437Y-67392884D01*
X170100964Y-69805550D02*
X170067045Y-69769068D01*
X170132437Y-67392884D02*
X170171770Y-67363712D01*
X170138350Y-69838468D02*
X170100964Y-69805550D01*
X170171770Y-67363712D02*
X170213773Y-67338537D01*
X170178832Y-69867494D02*
X170138350Y-69838468D01*
X170213773Y-67338537D02*
X170258041Y-67317600D01*
X170222007Y-69892340D02*
X170178832Y-69867494D01*
X170234239Y-49474846D02*
X169978513Y-49588201D01*
X170234239Y-83084385D02*
X170461932Y-83199670D01*
X170258041Y-67317600D02*
X170280892Y-67308785D01*
X170267443Y-69912757D02*
X170222007Y-69892340D01*
X170280892Y-67308785D02*
X170327752Y-67294570D01*
X170314689Y-69928543D02*
X170267443Y-69912757D01*
X170327752Y-67294570D02*
X170375781Y-67285017D01*
X170338844Y-69934647D02*
X170314689Y-69928543D01*
X170375781Y-67285017D02*
X170424515Y-67280217D01*
X170387929Y-69943207D02*
X170338844Y-69934647D01*
X170424515Y-67280217D02*
X170449012Y-67279616D01*
X170449012Y-67279616D02*
X188500987Y-67279616D01*
X170461932Y-49359561D02*
X170234239Y-49474846D01*
X170461932Y-83199670D02*
X170683693Y-83325988D01*
X170635057Y-62585544D02*
X171505603Y-62434795D01*
X170647193Y-69975488D02*
X170387929Y-69943207D01*
X170683693Y-49233243D02*
X170461932Y-49359561D01*
X170683693Y-83325988D02*
X170898989Y-83463035D01*
X170878605Y-49109816D02*
X170683693Y-49233243D01*
X170898989Y-83463035D02*
X171107303Y-83610481D01*
X171107303Y-48948750D02*
X170878605Y-49109816D01*
X171107303Y-83610481D02*
X171308130Y-83767971D01*
X171308130Y-48791260D02*
X171107303Y-48948750D01*
X171308130Y-83767971D02*
X171500985Y-83935125D01*
X171482822Y-48640569D02*
X171308130Y-48791260D01*
X171500985Y-83935125D02*
X171685411Y-84111542D01*
X171505603Y-62434795D02*
X172367655Y-62241522D01*
X171517612Y-70126825D02*
X170647193Y-69975488D01*
X171668073Y-48465027D02*
X171482822Y-48640569D01*
X171685411Y-84111542D02*
X171860953Y-84296793D01*
X171844490Y-48280601D02*
X171668073Y-48465027D01*
X171860953Y-84296793D02*
X172027198Y-84490438D01*
X172027198Y-48068793D02*
X171844490Y-48280601D01*
X172027198Y-84490438D02*
X172183739Y-84692005D01*
X172183739Y-47867226D02*
X172027198Y-48068793D01*
X172183739Y-84692005D02*
X172330200Y-84901010D01*
X172330200Y-47658221D02*
X172183739Y-47867226D01*
X172330200Y-84901010D02*
X172466231Y-85116950D01*
X172367655Y-62241522D02*
X173219233Y-62006171D01*
X172379533Y-70320684D02*
X171517612Y-70126825D01*
X172453627Y-47463309D02*
X172330200Y-47658221D01*
X172466231Y-85116950D02*
X172591503Y-85339305D01*
X172591503Y-47219926D02*
X172453627Y-47463309D01*
X172591503Y-85339305D02*
X172705713Y-85567540D01*
X172705713Y-46991691D02*
X172591503Y-47219926D01*
X172705713Y-85567540D02*
X172808585Y-85801102D01*
X172799204Y-46780778D02*
X172705713Y-46991691D01*
X172808585Y-85801102D02*
X172891615Y-86016347D01*
X172891615Y-46542884D02*
X172799204Y-46780778D01*
X172891615Y-86016347D02*
X172972242Y-86258493D01*
X172972242Y-46300738D02*
X172891615Y-46542884D01*
X172972242Y-86258493D02*
X173040891Y-86504302D01*
X173040891Y-86504302D02*
X173097396Y-86753182D01*
X173046848Y-46031147D02*
X172972242Y-46300738D01*
X173062312Y-57669561D02*
X173067251Y-57617553D01*
X173062837Y-57721831D02*
X173062312Y-57669561D01*
X173065154Y-57747895D02*
X173062837Y-57721831D01*
X173067251Y-57617553D02*
X173077603Y-57566311D01*
X173073841Y-57799397D02*
X173065154Y-57747895D01*
X173077603Y-57566311D02*
X173093247Y-57516466D01*
X173080206Y-57824778D02*
X173073841Y-57799397D01*
X173093247Y-57516466D02*
X173103017Y-57492187D01*
X173096843Y-57874286D02*
X173080206Y-57824778D01*
X173097396Y-86753182D02*
X173141620Y-87004537D01*
X173102179Y-45782003D02*
X173046848Y-46031147D01*
X173103017Y-57492187D02*
X173126259Y-57445414D01*
X173107105Y-57898371D02*
X173096843Y-57874286D01*
X173126259Y-57445414D02*
X173154284Y-57401289D01*
X173131259Y-57944632D02*
X173107105Y-57898371D01*
X173141620Y-87004537D02*
X173173458Y-87257757D01*
X173145217Y-45530444D02*
X173102179Y-45782003D01*
X173154284Y-57401289D02*
X173186767Y-57360335D01*
X173160104Y-57988106D02*
X173131259Y-57944632D01*
X173173458Y-87257757D02*
X173194036Y-87536723D01*
X173175862Y-45277076D02*
X173145217Y-45530444D01*
X173176200Y-58008663D02*
X173160104Y-57988106D01*
X173186767Y-57360335D02*
X173232530Y-57313642D01*
X173194036Y-45022508D02*
X173175862Y-45277076D01*
X173194036Y-87536723D02*
X173200000Y-87785746D01*
X173200000Y-44773485D02*
X173194036Y-45022508D01*
X173200000Y-87785746D02*
X173200155Y-95630534D01*
X173200155Y-36928697D02*
X173200000Y-44773485D01*
X173200155Y-95630534D02*
X173227906Y-95667592D01*
X173201836Y-58038611D02*
X173176200Y-58008663D01*
X173219233Y-62006171D02*
X174069720Y-61725210D01*
X173227906Y-36891639D02*
X173200155Y-36928697D01*
X173227906Y-95667592D02*
X173397490Y-95908383D01*
X173230950Y-70556614D02*
X172379533Y-70320684D01*
X173232530Y-57313642D02*
X180046899Y-51052846D01*
X173397490Y-36650848D02*
X173227906Y-36891639D01*
X173397490Y-95908383D02*
X173581278Y-96198616D01*
X173581278Y-36360615D02*
X173397490Y-36650848D01*
X173581278Y-96198616D02*
X173726443Y-96454867D01*
X173726443Y-36104364D02*
X173581278Y-36360615D01*
X173726443Y-96454867D02*
X173870416Y-96739553D01*
X173870416Y-35819678D02*
X173726443Y-36104364D01*
X173870416Y-96739553D02*
X174000247Y-97030963D01*
X174000247Y-35528268D02*
X173870416Y-35819678D01*
X174000247Y-97030963D02*
X174123882Y-97351474D01*
X174069720Y-61725210D02*
X174893889Y-61406971D01*
X174069719Y-70834022D02*
X173230950Y-70556614D01*
X174123882Y-35207757D02*
X174000247Y-35528268D01*
X174123882Y-97351474D02*
X174216265Y-97631121D01*
X174216265Y-34928110D02*
X174123882Y-35207757D01*
X174216265Y-97631121D02*
X174301932Y-97938425D01*
X174301932Y-34620806D02*
X174216265Y-34928110D01*
X174301932Y-97938425D02*
X174377200Y-98273609D01*
X174377200Y-34285622D02*
X174301932Y-34620806D01*
X174377200Y-98273609D02*
X174431148Y-98588037D01*
X174431148Y-33971194D02*
X174377200Y-34285622D01*
X174431148Y-98588037D02*
X174469602Y-98904732D01*
X174469602Y-33654499D02*
X174431148Y-33971194D01*
X174469602Y-98904732D02*
X174491267Y-99198447D01*
X174491267Y-33360784D02*
X174469602Y-33654499D01*
X174491267Y-99198447D02*
X174500000Y-99535746D01*
X174500000Y-33023485D02*
X174491267Y-33360784D01*
X174500000Y-99535746D02*
X174500689Y-104558525D01*
X174500122Y-28001025D02*
X174500000Y-33023485D01*
X174500689Y-104558525D02*
X174893888Y-104406970D01*
X174500987Y-25000000D02*
X174525484Y-25000601D01*
X174525484Y-25000601D02*
X174574218Y-25005401D01*
X174547766Y-27997949D02*
X174500122Y-28001025D01*
X174574218Y-25005401D02*
X174622247Y-25014954D01*
X174596377Y-27990945D02*
X174547766Y-27997949D01*
X174622247Y-25014954D02*
X174645851Y-25021487D01*
X174644064Y-27979197D02*
X174596377Y-27990945D01*
X174645851Y-25021487D02*
X174691958Y-25037984D01*
X174690366Y-27962818D02*
X174644064Y-27979197D01*
X174691958Y-25037984D02*
X174736226Y-25058921D01*
X174734832Y-27941966D02*
X174690366Y-27962818D01*
X174736226Y-25058921D02*
X174778229Y-25084096D01*
X174777034Y-27916844D02*
X174734832Y-27941966D01*
X174778229Y-25084096D02*
X174798253Y-25098199D01*
X174798253Y-25098199D02*
X174836107Y-25129265D01*
X174816562Y-27887696D02*
X174777034Y-27916844D01*
X174836107Y-25129265D02*
X174870734Y-25163892D01*
X174853032Y-27854803D02*
X174816562Y-27887696D01*
X174870734Y-25163892D02*
X174901800Y-25201746D01*
X174886093Y-27818484D02*
X174853032Y-27854803D01*
X174893889Y-61406971D02*
X175692518Y-61052963D01*
X174893888Y-71152261D02*
X174069719Y-70834022D01*
X174893888Y-104406970D02*
X175690381Y-104053909D01*
X174901800Y-25201746D02*
X174929006Y-25242462D01*
X174915423Y-27779091D02*
X174886093Y-27818484D01*
X174929006Y-25242462D02*
X174952090Y-25285650D01*
X174940739Y-27737005D02*
X174915423Y-27779091D01*
X174952090Y-25285650D02*
X174970830Y-25330892D01*
X174961795Y-27692635D02*
X174940739Y-27737005D01*
X174970830Y-25330892D02*
X174985045Y-25377752D01*
X174978387Y-27646409D02*
X174961795Y-27692635D01*
X174985045Y-25377752D02*
X174994598Y-25425781D01*
X174990355Y-27598777D02*
X174978387Y-27646409D01*
X174994567Y-27574577D02*
X174990355Y-27598777D01*
X174994598Y-25425781D02*
X174997596Y-25450089D01*
X174997596Y-25450089D02*
X175000000Y-25499012D01*
X174999395Y-27525702D02*
X174994567Y-27574577D01*
X175000000Y-25499012D02*
X174999395Y-27525702D01*
X175690381Y-104053909D02*
X176479659Y-103656956D01*
X175692518Y-61052963D02*
X175884912Y-60960531D01*
X175701450Y-71510557D02*
X174893888Y-71152261D01*
X175881902Y-60955644D02*
X173201836Y-58038611D01*
X175884912Y-60960531D02*
X175881902Y-60955644D01*
X176479659Y-103656956D02*
X177248531Y-103221742D01*
X176490480Y-71908058D02*
X175701450Y-71510557D01*
X177248531Y-103221742D02*
X177995100Y-102749338D01*
X177259012Y-72343771D02*
X176490480Y-71908058D01*
X177995100Y-102749338D02*
X178717590Y-102240869D01*
X178000000Y-25499012D02*
X178002403Y-25450089D01*
X178000000Y-29554079D02*
X178000000Y-25499012D01*
X178002284Y-29601784D02*
X178000000Y-29554079D01*
X178002403Y-25450089D02*
X178009588Y-25401649D01*
X178005260Y-72816682D02*
X177259012Y-72343771D01*
X178009116Y-29649039D02*
X178002284Y-29601784D01*
X178009588Y-25401649D02*
X178021487Y-25354148D01*
X178014220Y-29672368D02*
X178009116Y-29649039D01*
X178021487Y-25354148D02*
X178037984Y-25308041D01*
X178027743Y-29718160D02*
X178014220Y-29672368D01*
X178036133Y-29740518D02*
X178027743Y-29718160D01*
X178037984Y-25308041D02*
X178047909Y-25285650D01*
X178047909Y-25285650D02*
X178070993Y-25242462D01*
X178056069Y-29783904D02*
X178036133Y-29740518D01*
X178070993Y-25242462D02*
X178098199Y-25201746D01*
X178080062Y-29825185D02*
X178056069Y-29783904D01*
X178098199Y-25201746D02*
X178129265Y-25163892D01*
X178107890Y-29863984D02*
X178080062Y-29825185D01*
X178123164Y-29882341D02*
X178107890Y-29863984D01*
X178129265Y-25163892D02*
X178146153Y-25146153D01*
X178146153Y-25146153D02*
X178182437Y-25113268D01*
X178156257Y-29916760D02*
X178123164Y-29882341D01*
X178182437Y-25113268D02*
X178221770Y-25084096D01*
X178192488Y-29947857D02*
X178156257Y-29916760D01*
X178221770Y-25084096D02*
X178263773Y-25058921D01*
X178263773Y-25058921D02*
X178308041Y-25037984D01*
X178308041Y-25037984D02*
X178330892Y-25029169D01*
X178330892Y-25029169D02*
X178377752Y-25014954D01*
X178377752Y-25014954D02*
X178401649Y-25009588D01*
X178401649Y-25009588D02*
X178425781Y-25005401D01*
X178425781Y-25005401D02*
X178474515Y-25000601D01*
X178474515Y-25000601D02*
X188525484Y-25000601D01*
X178717590Y-102240869D02*
X179423706Y-101689811D01*
X178727406Y-30325642D02*
X178192488Y-29947857D01*
X178727404Y-73325641D02*
X178005260Y-72816682D01*
X179423706Y-73869420D02*
X178727404Y-73325641D01*
X179423706Y-101689811D02*
X180092487Y-101112521D01*
X179423725Y-30869436D02*
X178727406Y-30325642D01*
X180046899Y-51052846D02*
X180097287Y-51011200D01*
X180083433Y-31438504D02*
X179423725Y-30869436D01*
X180083433Y-74438504D02*
X179423706Y-73869420D01*
X180092487Y-101112521D02*
X180732153Y-100503093D01*
X180097287Y-51011200D02*
X180140848Y-50982290D01*
X180140848Y-50982290D02*
X180163692Y-50969589D01*
X180163692Y-50969589D02*
X180211191Y-50947868D01*
X180211191Y-50947868D02*
X180235777Y-50938885D01*
X180235777Y-50938885D02*
X180286102Y-50924859D01*
X180286102Y-50924859D02*
X180337700Y-50916159D01*
X180337700Y-50916159D02*
X180363786Y-50913848D01*
X180363786Y-50913848D02*
X180389957Y-50912909D01*
X180389957Y-50912909D02*
X180442248Y-50915145D01*
X180442248Y-50915145D02*
X180493812Y-50922799D01*
X180493812Y-50922799D02*
X180519223Y-50928635D01*
X180519223Y-50928635D02*
X180569069Y-50944283D01*
X180569069Y-50944283D02*
X180593303Y-50954038D01*
X180593303Y-50954038D02*
X180640088Y-50977288D01*
X180640088Y-50977288D02*
X180662543Y-50990740D01*
X180662543Y-50990740D02*
X180684219Y-51005320D01*
X180684219Y-51005320D02*
X180725170Y-51037805D01*
X180723477Y-32047462D02*
X180083433Y-31438504D01*
X180723495Y-75047479D02*
X180083433Y-74438504D01*
X180725170Y-51037805D02*
X180762439Y-51074324D01*
X180732153Y-100503093D02*
X181341111Y-99863049D01*
X180762439Y-51074324D02*
X183451893Y-54000529D01*
X181332905Y-75687128D02*
X180723495Y-75047479D01*
X181341111Y-99863049D02*
X181917963Y-99193857D01*
X181341127Y-32696201D02*
X180723477Y-32047462D01*
X181910179Y-76355890D02*
X181332905Y-75687128D01*
X181917947Y-33365355D02*
X181341127Y-32696201D01*
X181917963Y-99193857D02*
X182453974Y-98507020D01*
X182453959Y-34052191D02*
X181917947Y-33365355D01*
X182453974Y-77052211D02*
X181910179Y-76355890D01*
X182453974Y-98507020D02*
X182962919Y-97784897D01*
X182962919Y-97784897D02*
X183435831Y-97038649D01*
X182962933Y-77774355D02*
X182453974Y-77052211D01*
X182969735Y-34784536D02*
X182453959Y-34052191D01*
X183435831Y-97038649D02*
X183871569Y-96270074D01*
X183435844Y-78520603D02*
X182962933Y-77774355D01*
X183442126Y-35531084D02*
X182969735Y-34784536D01*
X183451893Y-54000529D02*
X183456576Y-54003916D01*
X183456576Y-54003916D02*
X183877279Y-53259400D01*
X183871569Y-79289157D02*
X183435844Y-78520603D01*
X183871569Y-96270074D02*
X184269058Y-95481066D01*
X183877279Y-53259400D02*
X184274284Y-52470020D01*
X183877329Y-36299934D02*
X183442126Y-35531084D01*
X184269058Y-37078165D02*
X183877329Y-36299934D01*
X184269058Y-80078165D02*
X183871569Y-79289157D01*
X184269058Y-95481066D02*
X184632030Y-94662214D01*
X184274284Y-52470020D02*
X184627354Y-51673503D01*
X184627344Y-37885705D02*
X184269058Y-37078165D01*
X184627354Y-51673503D02*
X184945584Y-50849358D01*
X184627354Y-80885727D02*
X184269058Y-80078165D01*
X184632030Y-94662214D02*
X184945584Y-93849358D01*
X184945584Y-38709873D02*
X184627344Y-37885705D01*
X184945584Y-50849358D02*
X185226562Y-49998825D01*
X184945584Y-93849358D02*
X185020977Y-93622099D01*
X184949709Y-81721402D02*
X184627354Y-80885727D01*
X185020977Y-93622099D02*
X185039003Y-93575504D01*
X185029409Y-38960661D02*
X184945584Y-38709873D01*
X185039003Y-38983727D02*
X185029409Y-38960661D01*
X185039003Y-93575504D02*
X185061592Y-93530955D01*
X185061592Y-39028276D02*
X185039003Y-38983727D01*
X185061592Y-93530955D02*
X185088521Y-93488888D01*
X185088521Y-39070343D02*
X185061592Y-39028276D01*
X185088521Y-93488888D02*
X185103530Y-93468918D01*
X185103530Y-93468918D02*
X185136451Y-93431354D01*
X185119520Y-39109507D02*
X185088521Y-39070343D01*
X185136451Y-93431354D02*
X185154280Y-93413855D01*
X185154280Y-39145376D02*
X185119520Y-39109507D01*
X185154280Y-93413855D02*
X185192451Y-93381640D01*
X185192451Y-39177591D02*
X185154280Y-39145376D01*
X185192451Y-93381640D02*
X185212698Y-93367006D01*
X185212698Y-93367006D02*
X185255260Y-93340867D01*
X185226555Y-82560382D02*
X184949709Y-81721402D01*
X185226562Y-49998825D02*
X185461900Y-49147295D01*
X185233652Y-39205828D02*
X185192451Y-39177591D01*
X185255260Y-93340867D02*
X185300222Y-93319113D01*
X185277469Y-39229804D02*
X185233652Y-39205828D01*
X185300222Y-93319113D02*
X185323463Y-93309951D01*
X185323463Y-39249280D02*
X185277469Y-39229804D01*
X185323463Y-93309951D02*
X185371174Y-93295170D01*
X185371174Y-39264061D02*
X185323463Y-39249280D01*
X185371174Y-93295170D02*
X185395525Y-93289589D01*
X185395525Y-39269642D02*
X185371174Y-39264061D01*
X185395525Y-93289589D02*
X185420124Y-93285234D01*
X185420124Y-93285234D02*
X185469822Y-93280240D01*
X185444910Y-39277116D02*
X185395525Y-39269642D01*
X185461900Y-49147295D02*
X185652790Y-48297228D01*
X185461900Y-83411936D02*
X185226555Y-82560382D01*
X185469822Y-93280240D02*
X188525484Y-93280216D01*
X185494808Y-39279617D02*
X185444910Y-39277116D01*
X185652790Y-48297228D02*
X185805928Y-47414673D01*
X185655179Y-84274012D02*
X185461900Y-83411936D01*
X185805924Y-85144533D02*
X185655179Y-84274012D01*
X185805928Y-47414673D02*
X185913774Y-46537828D01*
X185888081Y-42791562D02*
X185889164Y-42743304D01*
X185888081Y-89767669D02*
X185891667Y-89719520D01*
X185889164Y-42743304D02*
X185891454Y-42719270D01*
X185889164Y-89815927D02*
X185888081Y-89767669D01*
X185891454Y-42719270D02*
X185899507Y-42671676D01*
X185891454Y-89839961D02*
X185889164Y-89815927D01*
X185891667Y-42839711D02*
X185888081Y-42791562D01*
X185891667Y-89719520D02*
X185913776Y-89537804D01*
X185899507Y-42671676D02*
X185912120Y-42625083D01*
X185899507Y-89887555D02*
X185891454Y-89839961D01*
X185905250Y-89911004D02*
X185899507Y-89887555D01*
X185912120Y-42625083D02*
X185920102Y-42602298D01*
X185912120Y-89934148D02*
X185905250Y-89911004D01*
X185913776Y-43021427D02*
X185891667Y-42839711D01*
X185913774Y-46537828D02*
X185977868Y-45668929D01*
X185913774Y-86021403D02*
X185805924Y-85144533D01*
X185913776Y-89537804D02*
X185977868Y-88668929D01*
X185920102Y-42602298D02*
X185939322Y-42558019D01*
X185929176Y-89979305D02*
X185912120Y-89934148D01*
X185939322Y-42558019D02*
X185962730Y-42515805D01*
X185950515Y-90022602D02*
X185929176Y-89979305D01*
X185962730Y-42515805D02*
X185975938Y-42495596D01*
X185975938Y-42495596D02*
X186005207Y-42457211D01*
X185975938Y-90063635D02*
X185950515Y-90022602D01*
X185977868Y-45668929D02*
X185999849Y-44785725D01*
X185977868Y-88668929D02*
X185999849Y-87773506D01*
X185978468Y-43902532D02*
X185913776Y-43021427D01*
X185978467Y-86902507D02*
X185913774Y-86021403D01*
X185999849Y-44785725D02*
X185978468Y-43902532D01*
X185999849Y-87773506D02*
X185978467Y-86902507D01*
X186005207Y-42457211D02*
X186021199Y-42439125D01*
X186005207Y-90102020D02*
X185975938Y-90063635D01*
X186021199Y-42439125D02*
X186055712Y-42405378D01*
X186021199Y-90120106D02*
X186005207Y-90102020D01*
X186055712Y-42405378D02*
X186093325Y-42375123D01*
X186055712Y-90153853D02*
X186021199Y-90120106D01*
X186074153Y-90169436D02*
X186055712Y-90153853D01*
X186093325Y-42375123D02*
X186113184Y-42361395D01*
X186113184Y-42361395D02*
X186154778Y-42336899D01*
X186113184Y-90197836D02*
X186074153Y-90169436D01*
X186154778Y-42336899D02*
X186176414Y-42326189D01*
X186154778Y-90222332D02*
X186113184Y-90197836D01*
X186176414Y-42326189D02*
X186221113Y-42307967D01*
X186176414Y-90233042D02*
X186154778Y-90222332D01*
X186221113Y-42307967D02*
X186244071Y-42300498D01*
X186221113Y-90251264D02*
X186176414Y-90233042D01*
X186244071Y-42300498D02*
X186267363Y-42294149D01*
X186244071Y-90258733D02*
X186221113Y-90251264D01*
X186267363Y-42294149D02*
X186314733Y-42284865D01*
X186290936Y-90270297D02*
X186244071Y-90258733D01*
X186314733Y-42284865D02*
X186362777Y-42280201D01*
X186338699Y-90277279D02*
X186290936Y-90270297D01*
X186362777Y-42280201D02*
X188525484Y-42280218D01*
X186386925Y-90279615D02*
X186338699Y-90277279D01*
X188500987Y-39279617D02*
X185494808Y-39279617D01*
X188500987Y-65279616D02*
X168049012Y-65279616D01*
X188500987Y-67279616D02*
X188549910Y-67282019D01*
X188500987Y-90279615D02*
X186386925Y-90279615D01*
X188500987Y-107559232D02*
X161499012Y-107559232D01*
X188525484Y-25000601D02*
X188574218Y-25005401D01*
X188525484Y-42280218D02*
X188574218Y-42285018D01*
X188525484Y-93280216D02*
X188574218Y-93285016D01*
X188549910Y-39277213D02*
X188500987Y-39279617D01*
X188549910Y-65277212D02*
X188500987Y-65279616D01*
X188549910Y-67282019D02*
X188598350Y-67289204D01*
X188549910Y-90277211D02*
X188500987Y-90279615D01*
X188549910Y-107556828D02*
X188500987Y-107559232D01*
X188574218Y-25005401D02*
X188622247Y-25014954D01*
X188574218Y-42285018D02*
X188622247Y-42294571D01*
X188574218Y-93285016D02*
X188622247Y-93294569D01*
X188598350Y-39270028D02*
X188549910Y-39277213D01*
X188598350Y-65270027D02*
X188549910Y-65277212D01*
X188598350Y-67289204D02*
X188622247Y-67294570D01*
X188598350Y-90270026D02*
X188549910Y-90277211D01*
X188598350Y-107549643D02*
X188549910Y-107556828D01*
X188622247Y-25014954D02*
X188669107Y-25029169D01*
X188622247Y-39264662D02*
X188598350Y-39270028D01*
X188622247Y-42294571D02*
X188645851Y-42301104D01*
X188622247Y-67294570D02*
X188669107Y-67308785D01*
X188622247Y-93294569D02*
X188645851Y-93301102D01*
X188645851Y-39258129D02*
X188622247Y-39264662D01*
X188645851Y-42301104D02*
X188691958Y-42317601D01*
X188645851Y-65258128D02*
X188598350Y-65270027D01*
X188645851Y-90258127D02*
X188598350Y-90270026D01*
X188645851Y-93301102D02*
X188691958Y-93317599D01*
X188645851Y-107537744D02*
X188598350Y-107549643D01*
X188669107Y-25029169D02*
X188714349Y-25047909D01*
X188669107Y-67308785D02*
X188714349Y-67327525D01*
X188691958Y-39241632D02*
X188645851Y-39258129D01*
X188691958Y-42317601D02*
X188736226Y-42338538D01*
X188691958Y-65241631D02*
X188645851Y-65258128D01*
X188691958Y-90241630D02*
X188645851Y-90258127D01*
X188691958Y-93317599D02*
X188714349Y-93327524D01*
X188691958Y-107521247D02*
X188645851Y-107537744D01*
X188714349Y-25047909D02*
X188757537Y-25070993D01*
X188714349Y-67327525D02*
X188736226Y-67338537D01*
X188714349Y-90231705D02*
X188691958Y-90241630D01*
X188714349Y-93327524D02*
X188736226Y-93338536D01*
X188714349Y-107511322D02*
X188691958Y-107521247D01*
X188736226Y-39220695D02*
X188691958Y-39241632D01*
X188736226Y-42338538D02*
X188778229Y-42363713D01*
X188736226Y-65220694D02*
X188691958Y-65241631D01*
X188736226Y-67338537D02*
X188778229Y-67363712D01*
X188736226Y-93338536D02*
X188778229Y-93363711D01*
X188757537Y-25070993D02*
X188798253Y-25098199D01*
X188757537Y-90208621D02*
X188714349Y-90231705D01*
X188757537Y-107488238D02*
X188714349Y-107511322D01*
X188778229Y-39195520D02*
X188736226Y-39220695D01*
X188778229Y-42363713D02*
X188817562Y-42392885D01*
X188778229Y-65195519D02*
X188736226Y-65220694D01*
X188778229Y-67363712D02*
X188817562Y-67392884D01*
X188778229Y-93363711D02*
X188817562Y-93392883D01*
X188778229Y-107475135D02*
X188757537Y-107488238D01*
X188798253Y-25098199D02*
X188836107Y-25129265D01*
X188798253Y-39181417D02*
X188778229Y-39195520D01*
X188798253Y-90181415D02*
X188757537Y-90208621D01*
X188817562Y-42392885D02*
X188853846Y-42425770D01*
X188817562Y-65166347D02*
X188778229Y-65195519D01*
X188817562Y-67392884D02*
X188853846Y-67425769D01*
X188817562Y-93392883D02*
X188836107Y-93408880D01*
X188817562Y-107445963D02*
X188778229Y-107475135D01*
X188836107Y-25129265D02*
X188870734Y-25163892D01*
X188836107Y-39150351D02*
X188798253Y-39181417D01*
X188836107Y-90150349D02*
X188798253Y-90181415D01*
X188836107Y-93408880D02*
X188870734Y-93443507D01*
X188836107Y-107429966D02*
X188817562Y-107445963D01*
X188853846Y-42425770D02*
X188886731Y-42462054D01*
X188853846Y-65133462D02*
X188817562Y-65166347D01*
X188853846Y-67425769D02*
X188886731Y-67462053D01*
X188870734Y-25163892D02*
X188901800Y-25201746D01*
X188870734Y-39115724D02*
X188836107Y-39150351D01*
X188870734Y-90115722D02*
X188836107Y-90150349D01*
X188870734Y-93443507D02*
X188886731Y-93462052D01*
X188870734Y-107395339D02*
X188836107Y-107429966D01*
X188886731Y-39097179D02*
X188870734Y-39115724D01*
X188886731Y-42462054D02*
X188915903Y-42501387D01*
X188886731Y-65097178D02*
X188853846Y-65133462D01*
X188886731Y-67462053D02*
X188915903Y-67501386D01*
X188886731Y-93462052D02*
X188915903Y-93501385D01*
X188901800Y-25201746D02*
X188929006Y-25242462D01*
X188901800Y-39077870D02*
X188886731Y-39097179D01*
X188901800Y-90077868D02*
X188870734Y-90115722D01*
X188901800Y-107357485D02*
X188870734Y-107395339D01*
X188915903Y-42501387D02*
X188941078Y-42543390D01*
X188915903Y-65057845D02*
X188886731Y-65097178D01*
X188915903Y-67501386D02*
X188929006Y-67522078D01*
X188915903Y-93501385D02*
X188929006Y-93522077D01*
X188915903Y-107337461D02*
X188901800Y-107357485D01*
X188929006Y-25242462D02*
X188952090Y-25285650D01*
X188929006Y-39037154D02*
X188901800Y-39077870D01*
X188929006Y-67522078D02*
X188952090Y-67565266D01*
X188929006Y-90037152D02*
X188901800Y-90077868D01*
X188929006Y-93522077D02*
X188952090Y-93565265D01*
X188941078Y-42543390D02*
X188962015Y-42587658D01*
X188941078Y-65015842D02*
X188915903Y-65057845D01*
X188941078Y-107295458D02*
X188915903Y-107337461D01*
X188952090Y-25285650D02*
X188970830Y-25330892D01*
X188952090Y-38993966D02*
X188929006Y-39037154D01*
X188952090Y-67565266D02*
X188970830Y-67610508D01*
X188952090Y-89993964D02*
X188929006Y-90037152D01*
X188952090Y-93565265D02*
X188962015Y-93587656D01*
X188952090Y-107273581D02*
X188941078Y-107295458D01*
X188962015Y-38971575D02*
X188952090Y-38993966D01*
X188962015Y-42587658D02*
X188978512Y-42633765D01*
X188962015Y-64971574D02*
X188941078Y-65015842D01*
X188962015Y-93587656D02*
X188978512Y-93633763D01*
X188962015Y-107251190D02*
X188952090Y-107273581D01*
X188970830Y-25330892D02*
X188985045Y-25377752D01*
X188970830Y-67610508D02*
X188985045Y-67657368D01*
X188970830Y-89948722D02*
X188952090Y-89993964D01*
X188978512Y-38925468D02*
X188962015Y-38971575D01*
X188978512Y-42633765D02*
X188990411Y-42681266D01*
X188978512Y-64925467D02*
X188962015Y-64971574D01*
X188978512Y-93633763D02*
X188990411Y-93681264D01*
X188978512Y-107205083D02*
X188962015Y-107251190D01*
X188985045Y-25377752D02*
X188994598Y-25425781D01*
X188985045Y-67657368D02*
X188994598Y-67705397D01*
X188985045Y-89901862D02*
X188970830Y-89948722D01*
X188985045Y-107181479D02*
X188978512Y-107205083D01*
X188990411Y-38877967D02*
X188978512Y-38925468D01*
X188990411Y-42681266D02*
X188997596Y-42729706D01*
X188990411Y-64877966D02*
X188978512Y-64925467D01*
X188990411Y-93681264D02*
X188997596Y-93729704D01*
X188994598Y-25425781D02*
X188999398Y-25474515D01*
X188994598Y-67705397D02*
X188999398Y-67754131D01*
X188994598Y-89853833D02*
X188985045Y-89901862D01*
X188994598Y-107133450D02*
X188985045Y-107181479D01*
X188997596Y-38829527D02*
X188990411Y-38877967D01*
X188997596Y-42729706D02*
X189000000Y-42778629D01*
X188997596Y-64829526D02*
X188990411Y-64877966D01*
X188997596Y-93729704D02*
X189000000Y-93778627D01*
X188999398Y-25474515D02*
X189000000Y-38780604D01*
X188999398Y-67754131D02*
X189000000Y-67778628D01*
X188999398Y-89805099D02*
X188994598Y-89853833D01*
X188999398Y-107084716D02*
X188994598Y-107133450D01*
X189000000Y-38780604D02*
X188997596Y-38829527D01*
X189000000Y-42778629D02*
X189000000Y-64780603D01*
X189000000Y-64780603D02*
X188997596Y-64829526D01*
X189000000Y-67778628D02*
X188999398Y-89805099D01*
X189000000Y-93778627D02*
X189000000Y-107060219D01*
X189000000Y-107060219D02*
X188999398Y-107084716D01*
X193999566Y-112558833D02*
X193999601Y-20000433D01*
X193999601Y-20000433D02*
X103001098Y-20000123D01*
M02*
