%TF.GenerationSoftware,KiCad,Pcbnew,10.0.6*%
%TF.CreationDate,2026-09-27T13:08:25+02:00*%
%TF.ProjectId,shotpuck-panel,73686f74-7075-4636-9b2d-70616e656c2e,rev?*%
%TF.SameCoordinates,Original*%
%TF.FileFunction,Legend,Top*%
%TF.FilePolarity,Positive*%
%FSLAX46Y46*%
G04 Gerber Fmt 4.6, Leading zero omitted, Abs format (unit mm)*
G04 Created by KiCad (PCBNEW 10.0.6) date 2026-09-27 13:08:25*
%MOMM*%
%LPD*%
G01*
G04 APERTURE LIST*
%ADD10C,0.300000*%
%ADD11C,0.120000*%
%ADD12C,0.100000*%
G04 APERTURE END LIST*
D10*
X141571428Y-21678328D02*
X141571428Y-22749757D01*
X141571428Y-22749757D02*
X141499999Y-22964042D01*
X141499999Y-22964042D02*
X141357142Y-23106900D01*
X141357142Y-23106900D02*
X141142856Y-23178328D01*
X141142856Y-23178328D02*
X140999999Y-23178328D01*
X142999999Y-23178328D02*
X142285713Y-23178328D01*
X142285713Y-23178328D02*
X142285713Y-21678328D01*
X144357142Y-23035471D02*
X144285714Y-23106900D01*
X144285714Y-23106900D02*
X144071428Y-23178328D01*
X144071428Y-23178328D02*
X143928571Y-23178328D01*
X143928571Y-23178328D02*
X143714285Y-23106900D01*
X143714285Y-23106900D02*
X143571428Y-22964042D01*
X143571428Y-22964042D02*
X143499999Y-22821185D01*
X143499999Y-22821185D02*
X143428571Y-22535471D01*
X143428571Y-22535471D02*
X143428571Y-22321185D01*
X143428571Y-22321185D02*
X143499999Y-22035471D01*
X143499999Y-22035471D02*
X143571428Y-21892614D01*
X143571428Y-21892614D02*
X143714285Y-21749757D01*
X143714285Y-21749757D02*
X143928571Y-21678328D01*
X143928571Y-21678328D02*
X144071428Y-21678328D01*
X144071428Y-21678328D02*
X144285714Y-21749757D01*
X144285714Y-21749757D02*
X144357142Y-21821185D01*
X145428571Y-21678328D02*
X145428571Y-22749757D01*
X145428571Y-22749757D02*
X145357142Y-22964042D01*
X145357142Y-22964042D02*
X145214285Y-23106900D01*
X145214285Y-23106900D02*
X144999999Y-23178328D01*
X144999999Y-23178328D02*
X144857142Y-23178328D01*
X146857142Y-23178328D02*
X146142856Y-23178328D01*
X146142856Y-23178328D02*
X146142856Y-21678328D01*
X148214285Y-23035471D02*
X148142857Y-23106900D01*
X148142857Y-23106900D02*
X147928571Y-23178328D01*
X147928571Y-23178328D02*
X147785714Y-23178328D01*
X147785714Y-23178328D02*
X147571428Y-23106900D01*
X147571428Y-23106900D02*
X147428571Y-22964042D01*
X147428571Y-22964042D02*
X147357142Y-22821185D01*
X147357142Y-22821185D02*
X147285714Y-22535471D01*
X147285714Y-22535471D02*
X147285714Y-22321185D01*
X147285714Y-22321185D02*
X147357142Y-22035471D01*
X147357142Y-22035471D02*
X147428571Y-21892614D01*
X147428571Y-21892614D02*
X147571428Y-21749757D01*
X147571428Y-21749757D02*
X147785714Y-21678328D01*
X147785714Y-21678328D02*
X147928571Y-21678328D01*
X147928571Y-21678328D02*
X148142857Y-21749757D01*
X148142857Y-21749757D02*
X148214285Y-21821185D01*
X149285714Y-21678328D02*
X149285714Y-22749757D01*
X149285714Y-22749757D02*
X149214285Y-22964042D01*
X149214285Y-22964042D02*
X149071428Y-23106900D01*
X149071428Y-23106900D02*
X148857142Y-23178328D01*
X148857142Y-23178328D02*
X148714285Y-23178328D01*
X150714285Y-23178328D02*
X149999999Y-23178328D01*
X149999999Y-23178328D02*
X149999999Y-21678328D01*
X152071428Y-23035471D02*
X152000000Y-23106900D01*
X152000000Y-23106900D02*
X151785714Y-23178328D01*
X151785714Y-23178328D02*
X151642857Y-23178328D01*
X151642857Y-23178328D02*
X151428571Y-23106900D01*
X151428571Y-23106900D02*
X151285714Y-22964042D01*
X151285714Y-22964042D02*
X151214285Y-22821185D01*
X151214285Y-22821185D02*
X151142857Y-22535471D01*
X151142857Y-22535471D02*
X151142857Y-22321185D01*
X151142857Y-22321185D02*
X151214285Y-22035471D01*
X151214285Y-22035471D02*
X151285714Y-21892614D01*
X151285714Y-21892614D02*
X151428571Y-21749757D01*
X151428571Y-21749757D02*
X151642857Y-21678328D01*
X151642857Y-21678328D02*
X151785714Y-21678328D01*
X151785714Y-21678328D02*
X152000000Y-21749757D01*
X152000000Y-21749757D02*
X152071428Y-21821185D01*
X153142857Y-21678328D02*
X153142857Y-22749757D01*
X153142857Y-22749757D02*
X153071428Y-22964042D01*
X153071428Y-22964042D02*
X152928571Y-23106900D01*
X152928571Y-23106900D02*
X152714285Y-23178328D01*
X152714285Y-23178328D02*
X152571428Y-23178328D01*
X154571428Y-23178328D02*
X153857142Y-23178328D01*
X153857142Y-23178328D02*
X153857142Y-21678328D01*
X155928571Y-23035471D02*
X155857143Y-23106900D01*
X155857143Y-23106900D02*
X155642857Y-23178328D01*
X155642857Y-23178328D02*
X155500000Y-23178328D01*
X155500000Y-23178328D02*
X155285714Y-23106900D01*
X155285714Y-23106900D02*
X155142857Y-22964042D01*
X155142857Y-22964042D02*
X155071428Y-22821185D01*
X155071428Y-22821185D02*
X155000000Y-22535471D01*
X155000000Y-22535471D02*
X155000000Y-22321185D01*
X155000000Y-22321185D02*
X155071428Y-22035471D01*
X155071428Y-22035471D02*
X155142857Y-21892614D01*
X155142857Y-21892614D02*
X155285714Y-21749757D01*
X155285714Y-21749757D02*
X155500000Y-21678328D01*
X155500000Y-21678328D02*
X155642857Y-21678328D01*
X155642857Y-21678328D02*
X155857143Y-21749757D01*
X155857143Y-21749757D02*
X155928571Y-21821185D01*
%TO.C,C5_3*%
D11*
X166589378Y-76539905D02*
X166805050Y-76539905D01*
X166589378Y-77259905D02*
X166805050Y-77259905D01*
%TO.C,R1_3*%
X174517214Y-98753546D02*
X174517214Y-98446264D01*
X175277214Y-98753546D02*
X175277214Y-98446264D01*
%TO.C,U3_1*%
X170987214Y-57839905D02*
X172807214Y-57839905D01*
X170987214Y-57889905D02*
X170987214Y-57839905D01*
X170987214Y-60959905D02*
X170987214Y-60909905D01*
X172807214Y-57839905D02*
X172807214Y-57889905D01*
X172807214Y-59009905D02*
X172807214Y-59789905D01*
X172807214Y-60909905D02*
X172807214Y-60959905D01*
X172807214Y-60959905D02*
X170987214Y-60959905D01*
X170447214Y-57889905D02*
X170207214Y-57559905D01*
X170687214Y-57559905D01*
X170447214Y-57889905D01*
G36*
X170447214Y-57889905D02*
G01*
X170207214Y-57559905D01*
X170687214Y-57559905D01*
X170447214Y-57889905D01*
G37*
%TO.C,C3_0*%
X132017215Y-38739905D02*
X132232887Y-38739905D01*
X132017215Y-39459905D02*
X132232887Y-39459905D01*
%TO.C,C7_0*%
X126567215Y-56139905D02*
X126782887Y-56139905D01*
X126567215Y-56859905D02*
X126782887Y-56859905D01*
%TO.C,C4_0*%
X129617215Y-38739905D02*
X129832887Y-38739905D01*
X129617215Y-39459905D02*
X129832887Y-39459905D01*
%TO.C,C5_2*%
X129617215Y-76539905D02*
X129832887Y-76539905D01*
X129617215Y-77259905D02*
X129832887Y-77259905D01*
%TO.C,JP1_2*%
X139225051Y-70599905D02*
X141225051Y-70599905D01*
X139225051Y-73399905D02*
X139225051Y-70599905D01*
X141225051Y-70599905D02*
X141225051Y-73399905D01*
X141225051Y-73399905D02*
X139225051Y-73399905D01*
%TO.C,R2_1*%
X176643573Y-60219905D02*
X176950855Y-60219905D01*
X176643573Y-60979905D02*
X176950855Y-60979905D01*
%TO.C,R2_3*%
X176643573Y-99219905D02*
X176950855Y-99219905D01*
X176643573Y-99979905D02*
X176950855Y-99979905D01*
%TO.C,C8_0*%
X118717215Y-55839905D02*
X118932887Y-55839905D01*
X118717215Y-56559905D02*
X118932887Y-56559905D01*
%TO.C,U1_0*%
X113925051Y-40649905D02*
X115025051Y-40649905D01*
X113925051Y-41749905D02*
X113925051Y-40649905D01*
X113925051Y-50249905D02*
X113925051Y-51349905D01*
X113925051Y-51349905D02*
X115025051Y-51349905D01*
X128525051Y-40649905D02*
X129625051Y-40649905D01*
X128525051Y-51349905D02*
X129625051Y-51349905D01*
X129625051Y-40649905D02*
X129625051Y-41749905D01*
X129625051Y-51349905D02*
X129625051Y-50249905D01*
X118025051Y-51374905D02*
X118265051Y-51710905D01*
X117785051Y-51710905D01*
X118025051Y-51374905D01*
G36*
X118265051Y-51710905D02*
G01*
X117785051Y-51710905D01*
X118025051Y-51374905D01*
X118265051Y-51710905D01*
G37*
%TO.C,Q2_0*%
X121290051Y-52889905D02*
X122760051Y-52889905D01*
X121290051Y-52914905D02*
X121290051Y-52889905D01*
X121290051Y-55109905D02*
X121290051Y-55084905D01*
X122760051Y-52889905D02*
X122760051Y-52914905D01*
X122760051Y-55084905D02*
X122760051Y-55109905D01*
X122760051Y-55109905D02*
X121290051Y-55109905D01*
X120845051Y-52909905D02*
X120705051Y-52719905D01*
X120985051Y-52719905D01*
X120845051Y-52909905D01*
G36*
X120845051Y-52909905D02*
G01*
X120705051Y-52719905D01*
X120985051Y-52719905D01*
X120845051Y-52909905D01*
G37*
%TO.C,D3_1*%
X163737214Y-35099905D02*
X163737214Y-36299905D01*
X165697214Y-35099905D02*
X163737214Y-35099905D01*
X165697214Y-36299905D02*
X163737214Y-36299905D01*
%TO.C,R4_3*%
X173743573Y-75719905D02*
X174050855Y-75719905D01*
X173743573Y-76479905D02*
X174050855Y-76479905D01*
%TO.C,D1_2*%
X132635051Y-73849905D02*
X129975051Y-73849905D01*
X132635051Y-75549905D02*
X129975051Y-75549905D01*
X132635051Y-75549905D02*
X132635051Y-73849905D01*
%TO.C,R6_3*%
X167717214Y-95953546D02*
X167717214Y-95646264D01*
X168477214Y-95953546D02*
X168477214Y-95646264D01*
%TO.C,R3_3*%
X173017214Y-95453546D02*
X173017214Y-95146264D01*
X173777214Y-95453546D02*
X173777214Y-95146264D01*
%TO.C,C3_1*%
X168989378Y-38739905D02*
X169205050Y-38739905D01*
X168989378Y-39459905D02*
X169205050Y-39459905D01*
%TO.C,C7_2*%
X126567215Y-95139905D02*
X126782887Y-95139905D01*
X126567215Y-95859905D02*
X126782887Y-95859905D01*
%TO.C,J1_0*%
X123775051Y-30499905D02*
X138275051Y-30499905D01*
X123775051Y-34499905D02*
X123775051Y-30499905D01*
X138275051Y-30499905D02*
X138275051Y-34499905D01*
X138275051Y-34499905D02*
X123775051Y-34499905D01*
%TO.C,BT1_2*%
X141325050Y-74799905D02*
X142525051Y-74799905D01*
X141925051Y-74199906D02*
X141925051Y-75399905D01*
%TO.C,U3_2*%
X134015051Y-96839905D02*
X135835051Y-96839905D01*
X134015051Y-96889905D02*
X134015051Y-96839905D01*
X134015051Y-99959905D02*
X134015051Y-99909905D01*
X135835051Y-96839905D02*
X135835051Y-96889905D01*
X135835051Y-98009905D02*
X135835051Y-98789905D01*
X135835051Y-99909905D02*
X135835051Y-99959905D01*
X135835051Y-99959905D02*
X134015051Y-99959905D01*
X133475051Y-96889905D02*
X133235051Y-96559905D01*
X133715051Y-96559905D01*
X133475051Y-96889905D01*
G36*
X133475051Y-96889905D02*
G01*
X133235051Y-96559905D01*
X133715051Y-96559905D01*
X133475051Y-96889905D01*
G37*
%TO.C,R5_1*%
X166617214Y-55453546D02*
X166617214Y-55146264D01*
X167377214Y-55453546D02*
X167377214Y-55146264D01*
%TO.C,R6_0*%
X130745051Y-56953546D02*
X130745051Y-56646264D01*
X131505051Y-56953546D02*
X131505051Y-56646264D01*
%TO.C,R7_1*%
X155643573Y-57219905D02*
X155950855Y-57219905D01*
X155643573Y-57979905D02*
X155950855Y-57979905D01*
%TO.C,R8_3*%
X158643573Y-94619905D02*
X158950855Y-94619905D01*
X158643573Y-95379905D02*
X158950855Y-95379905D01*
%TO.C,U2_3*%
X163037214Y-91589904D02*
X163212214Y-91589904D01*
X163037214Y-92264904D02*
X163037214Y-91589904D01*
X163037214Y-94809904D02*
X163037214Y-94134904D01*
X163212214Y-94809904D02*
X163037214Y-94809904D01*
X165582214Y-91589904D02*
X165757214Y-91589904D01*
X165757214Y-91589904D02*
X165757214Y-92264904D01*
X165757214Y-94134904D02*
X165757214Y-94809904D01*
X165757214Y-94809904D02*
X165582214Y-94809904D01*
X165147214Y-91459904D02*
X164907214Y-91129904D01*
X165387214Y-91129904D01*
X165147214Y-91459904D01*
G36*
X165147214Y-91459904D02*
G01*
X164907214Y-91129904D01*
X165387214Y-91129904D01*
X165147214Y-91459904D01*
G37*
%TO.C,C1_2*%
X134084471Y-74289905D02*
X134365631Y-74289905D01*
X134084471Y-75309905D02*
X134365631Y-75309905D01*
%TO.C,JP1_1*%
X176197214Y-31599905D02*
X178197214Y-31599905D01*
X176197214Y-34399905D02*
X176197214Y-31599905D01*
X178197214Y-31599905D02*
X178197214Y-34399905D01*
X178197214Y-34399905D02*
X176197214Y-34399905D01*
%TO.C,U2_0*%
X126065051Y-52589904D02*
X126240051Y-52589904D01*
X126065051Y-53264904D02*
X126065051Y-52589904D01*
X126065051Y-55809904D02*
X126065051Y-55134904D01*
X126240051Y-55809904D02*
X126065051Y-55809904D01*
X128610051Y-52589904D02*
X128785051Y-52589904D01*
X128785051Y-52589904D02*
X128785051Y-53264904D01*
X128785051Y-55134904D02*
X128785051Y-55809904D01*
X128785051Y-55809904D02*
X128610051Y-55809904D01*
X128175051Y-52459904D02*
X127935051Y-52129904D01*
X128415051Y-52129904D01*
X128175051Y-52459904D01*
G36*
X128175051Y-52459904D02*
G01*
X127935051Y-52129904D01*
X128415051Y-52129904D01*
X128175051Y-52459904D01*
G37*
%TO.C,D3_0*%
X126765051Y-35099905D02*
X126765051Y-36299905D01*
X128725051Y-35099905D02*
X126765051Y-35099905D01*
X128725051Y-36299905D02*
X126765051Y-36299905D01*
%TO.C,Q1_1*%
X176462214Y-57489905D02*
X177932214Y-57489905D01*
X176462214Y-57514905D02*
X176462214Y-57489905D01*
X176462214Y-59709905D02*
X176462214Y-59684905D01*
X177932214Y-57489905D02*
X177932214Y-57514905D01*
X177932214Y-59684905D02*
X177932214Y-59709905D01*
X177932214Y-59709905D02*
X176462214Y-59709905D01*
X176017214Y-57509905D02*
X175877214Y-57319905D01*
X176157214Y-57319905D01*
X176017214Y-57509905D01*
G36*
X176017214Y-57509905D02*
G01*
X175877214Y-57319905D01*
X176157214Y-57319905D01*
X176017214Y-57509905D01*
G37*
%TO.C,JP1_3*%
X176197214Y-70599905D02*
X178197214Y-70599905D01*
X176197214Y-73399905D02*
X176197214Y-70599905D01*
X178197214Y-70599905D02*
X178197214Y-73399905D01*
X178197214Y-73399905D02*
X176197214Y-73399905D01*
%TO.C,U3_3*%
X170987214Y-96839905D02*
X172807214Y-96839905D01*
X170987214Y-96889905D02*
X170987214Y-96839905D01*
X170987214Y-99959905D02*
X170987214Y-99909905D01*
X172807214Y-96839905D02*
X172807214Y-96889905D01*
X172807214Y-98009905D02*
X172807214Y-98789905D01*
X172807214Y-99909905D02*
X172807214Y-99959905D01*
X172807214Y-99959905D02*
X170987214Y-99959905D01*
X170447214Y-96889905D02*
X170207214Y-96559905D01*
X170687214Y-96559905D01*
X170447214Y-96889905D01*
G36*
X170447214Y-96889905D02*
G01*
X170207214Y-96559905D01*
X170687214Y-96559905D01*
X170447214Y-96889905D01*
G37*
%TO.C,C8_3*%
X155689378Y-94839905D02*
X155905050Y-94839905D01*
X155689378Y-95559905D02*
X155905050Y-95559905D01*
%TO.C,C8_1*%
X155689378Y-55839905D02*
X155905050Y-55839905D01*
X155689378Y-56559905D02*
X155905050Y-56559905D01*
%TO.C,R3_0*%
X136045051Y-56453546D02*
X136045051Y-56146264D01*
X136805051Y-56453546D02*
X136805051Y-56146264D01*
%TO.C,Q1_3*%
X176462214Y-96489905D02*
X177932214Y-96489905D01*
X176462214Y-96514905D02*
X176462214Y-96489905D01*
X176462214Y-98709905D02*
X176462214Y-98684905D01*
X177932214Y-96489905D02*
X177932214Y-96514905D01*
X177932214Y-98684905D02*
X177932214Y-98709905D01*
X177932214Y-98709905D02*
X176462214Y-98709905D01*
X176017214Y-96509905D02*
X175877214Y-96319905D01*
X176157214Y-96319905D01*
X176017214Y-96509905D01*
G36*
X176017214Y-96509905D02*
G01*
X175877214Y-96319905D01*
X176157214Y-96319905D01*
X176017214Y-96509905D01*
G37*
%TO.C,C1_3*%
X171056634Y-74289905D02*
X171337794Y-74289905D01*
X171056634Y-75309905D02*
X171337794Y-75309905D01*
%TO.C,U4_1*%
X155012214Y-55099904D02*
X156582214Y-55099904D01*
X155217214Y-53299904D02*
X156577214Y-53299904D01*
X154897214Y-53299904D02*
X154617214Y-53299904D01*
X154897214Y-53019904D01*
X154897214Y-53299904D01*
G36*
X154897214Y-53299904D02*
G01*
X154617214Y-53299904D01*
X154897214Y-53019904D01*
X154897214Y-53299904D01*
G37*
%TO.C,D1_1*%
X169607214Y-34849905D02*
X166947214Y-34849905D01*
X169607214Y-36549905D02*
X166947214Y-36549905D01*
X169607214Y-36549905D02*
X169607214Y-34849905D01*
%TO.C,C1_1*%
X171056634Y-35289905D02*
X171337794Y-35289905D01*
X171056634Y-36309905D02*
X171337794Y-36309905D01*
%TO.C,J1_3*%
X160747214Y-69499905D02*
X175247214Y-69499905D01*
X160747214Y-73499905D02*
X160747214Y-69499905D01*
X175247214Y-69499905D02*
X175247214Y-73499905D01*
X175247214Y-73499905D02*
X160747214Y-73499905D01*
%TO.C,U4_0*%
X118040051Y-55099904D02*
X119610051Y-55099904D01*
X118245051Y-53299904D02*
X119605051Y-53299904D01*
X117925051Y-53299904D02*
X117645051Y-53299904D01*
X117925051Y-53019904D01*
X117925051Y-53299904D01*
G36*
X117925051Y-53299904D02*
G01*
X117645051Y-53299904D01*
X117925051Y-53019904D01*
X117925051Y-53299904D01*
G37*
%TO.C,R5_0*%
X129645051Y-55453546D02*
X129645051Y-55146264D01*
X130405051Y-55453546D02*
X130405051Y-55146264D01*
%TO.C,C6_1*%
X162005050Y-52839905D02*
X161789378Y-52839905D01*
X162005050Y-53559905D02*
X161789378Y-53559905D01*
%TO.C,C6_0*%
X125032887Y-52839905D02*
X124817215Y-52839905D01*
X125032887Y-53559905D02*
X124817215Y-53559905D01*
%TO.C,C2_2*%
X132915051Y-95340485D02*
X132915051Y-95059325D01*
X133935051Y-95340485D02*
X133935051Y-95059325D01*
%TO.C,R6_2*%
X130745051Y-95953546D02*
X130745051Y-95646264D01*
X131505051Y-95953546D02*
X131505051Y-95646264D01*
%TO.C,U4_3*%
X155012214Y-94099904D02*
X156582214Y-94099904D01*
X155217214Y-92299904D02*
X156577214Y-92299904D01*
X154897214Y-92299904D02*
X154617214Y-92299904D01*
X154897214Y-92019904D01*
X154897214Y-92299904D01*
G36*
X154897214Y-92299904D02*
G01*
X154617214Y-92299904D01*
X154897214Y-92019904D01*
X154897214Y-92299904D01*
G37*
%TO.C,D4_2*%
D12*
X135885051Y-74799905D02*
G75*
G02*
X135785051Y-74799905I-50000J0D01*
G01*
X135785051Y-74799905D02*
G75*
G02*
X135885051Y-74799905I50000J0D01*
G01*
%TO.C,R8_1*%
D11*
X158643573Y-55619905D02*
X158950855Y-55619905D01*
X158643573Y-56379905D02*
X158950855Y-56379905D01*
%TO.C,C2_1*%
X169887214Y-56340485D02*
X169887214Y-56059325D01*
X170907214Y-56340485D02*
X170907214Y-56059325D01*
%TO.C,C6_2*%
X125032887Y-91839905D02*
X124817215Y-91839905D01*
X125032887Y-92559905D02*
X124817215Y-92559905D01*
%TO.C,R7_3*%
X155643573Y-96219905D02*
X155950855Y-96219905D01*
X155643573Y-96979905D02*
X155950855Y-96979905D01*
%TO.C,J2_1*%
X158092214Y-38869905D02*
X158092214Y-38234905D01*
X158727214Y-38869905D02*
X158092214Y-38869905D01*
%TO.C,Q2_1*%
X158262214Y-52889905D02*
X159732214Y-52889905D01*
X158262214Y-52914905D02*
X158262214Y-52889905D01*
X158262214Y-55109905D02*
X158262214Y-55084905D01*
X159732214Y-52889905D02*
X159732214Y-52914905D01*
X159732214Y-55084905D02*
X159732214Y-55109905D01*
X159732214Y-55109905D02*
X158262214Y-55109905D01*
X157817214Y-52909905D02*
X157677214Y-52719905D01*
X157957214Y-52719905D01*
X157817214Y-52909905D01*
G36*
X157817214Y-52909905D02*
G01*
X157677214Y-52719905D01*
X157957214Y-52719905D01*
X157817214Y-52909905D01*
G37*
%TO.C,C4_3*%
X166589378Y-77739905D02*
X166805050Y-77739905D01*
X166589378Y-78459905D02*
X166805050Y-78459905D01*
%TO.C,D2_1*%
X169307214Y-58049905D02*
X166647214Y-58049905D01*
X169307214Y-59749905D02*
X166647214Y-59749905D01*
X169307214Y-59749905D02*
X169307214Y-58049905D01*
%TO.C,Q2_3*%
X158262214Y-91889905D02*
X159732214Y-91889905D01*
X158262214Y-91914905D02*
X158262214Y-91889905D01*
X158262214Y-94109905D02*
X158262214Y-94084905D01*
X159732214Y-91889905D02*
X159732214Y-91914905D01*
X159732214Y-94084905D02*
X159732214Y-94109905D01*
X159732214Y-94109905D02*
X158262214Y-94109905D01*
X157817214Y-91909905D02*
X157677214Y-91719905D01*
X157957214Y-91719905D01*
X157817214Y-91909905D01*
G36*
X157817214Y-91909905D02*
G01*
X157677214Y-91719905D01*
X157957214Y-91719905D01*
X157817214Y-91909905D01*
G37*
%TO.C,R5_2*%
X129645051Y-94453546D02*
X129645051Y-94146264D01*
X130405051Y-94453546D02*
X130405051Y-94146264D01*
%TO.C,Q1_2*%
X139490051Y-96489905D02*
X140960051Y-96489905D01*
X139490051Y-96514905D02*
X139490051Y-96489905D01*
X139490051Y-98709905D02*
X139490051Y-98684905D01*
X140960051Y-96489905D02*
X140960051Y-96514905D01*
X140960051Y-98684905D02*
X140960051Y-98709905D01*
X140960051Y-98709905D02*
X139490051Y-98709905D01*
X139045051Y-96509905D02*
X138905051Y-96319905D01*
X139185051Y-96319905D01*
X139045051Y-96509905D01*
G36*
X139045051Y-96509905D02*
G01*
X138905051Y-96319905D01*
X139185051Y-96319905D01*
X139045051Y-96509905D01*
G37*
%TO.C,C2_0*%
X132915051Y-56340485D02*
X132915051Y-56059325D01*
X133935051Y-56340485D02*
X133935051Y-56059325D01*
%TO.C,BT1_0*%
X141325050Y-35799905D02*
X142525051Y-35799905D01*
X141925051Y-35199906D02*
X141925051Y-36399905D01*
%TO.C,D4_0*%
D12*
X135885051Y-35799905D02*
G75*
G02*
X135785051Y-35799905I-50000J0D01*
G01*
X135785051Y-35799905D02*
G75*
G02*
X135885051Y-35799905I50000J0D01*
G01*
%TO.C,R1_0*%
D11*
X137545051Y-59753546D02*
X137545051Y-59446264D01*
X138305051Y-59753546D02*
X138305051Y-59446264D01*
%TO.C,C2_3*%
X169887214Y-95340485D02*
X169887214Y-95059325D01*
X170907214Y-95340485D02*
X170907214Y-95059325D01*
%TO.C,R2_2*%
X139671410Y-99219905D02*
X139978692Y-99219905D01*
X139671410Y-99979905D02*
X139978692Y-99979905D01*
%TO.C,J2_3*%
X158092214Y-77869905D02*
X158092214Y-77234905D01*
X158727214Y-77869905D02*
X158092214Y-77869905D01*
%TO.C,J2_2*%
X121120051Y-77869905D02*
X121120051Y-77234905D01*
X121755051Y-77869905D02*
X121120051Y-77869905D01*
%TO.C,J1_2*%
X123775051Y-69499905D02*
X138275051Y-69499905D01*
X123775051Y-73499905D02*
X123775051Y-69499905D01*
X138275051Y-69499905D02*
X138275051Y-73499905D01*
X138275051Y-73499905D02*
X123775051Y-73499905D01*
%TO.C,R4_2*%
X136771410Y-75719905D02*
X137078692Y-75719905D01*
X136771410Y-76479905D02*
X137078692Y-76479905D01*
%TO.C,JP1_0*%
X139225051Y-31599905D02*
X141225051Y-31599905D01*
X139225051Y-34399905D02*
X139225051Y-31599905D01*
X141225051Y-31599905D02*
X141225051Y-34399905D01*
X141225051Y-34399905D02*
X139225051Y-34399905D01*
%TO.C,R8_2*%
X121671410Y-94619905D02*
X121978692Y-94619905D01*
X121671410Y-95379905D02*
X121978692Y-95379905D01*
%TO.C,D3_3*%
X163737214Y-74099905D02*
X163737214Y-75299905D01*
X165697214Y-74099905D02*
X163737214Y-74099905D01*
X165697214Y-75299905D02*
X163737214Y-75299905D01*
%TO.C,Q1_0*%
X139490051Y-57489905D02*
X140960051Y-57489905D01*
X139490051Y-57514905D02*
X139490051Y-57489905D01*
X139490051Y-59709905D02*
X139490051Y-59684905D01*
X140960051Y-57489905D02*
X140960051Y-57514905D01*
X140960051Y-59684905D02*
X140960051Y-59709905D01*
X140960051Y-59709905D02*
X139490051Y-59709905D01*
X139045051Y-57509905D02*
X138905051Y-57319905D01*
X139185051Y-57319905D01*
X139045051Y-57509905D01*
G36*
X139045051Y-57509905D02*
G01*
X138905051Y-57319905D01*
X139185051Y-57319905D01*
X139045051Y-57509905D01*
G37*
%TO.C,D2_2*%
X132335051Y-97049905D02*
X129675051Y-97049905D01*
X132335051Y-98749905D02*
X129675051Y-98749905D01*
X132335051Y-98749905D02*
X132335051Y-97049905D01*
%TO.C,D1_3*%
X169607214Y-73849905D02*
X166947214Y-73849905D01*
X169607214Y-75549905D02*
X166947214Y-75549905D01*
X169607214Y-75549905D02*
X169607214Y-73849905D01*
%TO.C,U1_1*%
X150897214Y-40649905D02*
X151997214Y-40649905D01*
X150897214Y-41749905D02*
X150897214Y-40649905D01*
X150897214Y-50249905D02*
X150897214Y-51349905D01*
X150897214Y-51349905D02*
X151997214Y-51349905D01*
X165497214Y-40649905D02*
X166597214Y-40649905D01*
X165497214Y-51349905D02*
X166597214Y-51349905D01*
X166597214Y-40649905D02*
X166597214Y-41749905D01*
X166597214Y-51349905D02*
X166597214Y-50249905D01*
X154997214Y-51374905D02*
X155237214Y-51710905D01*
X154757214Y-51710905D01*
X154997214Y-51374905D01*
G36*
X155237214Y-51710905D02*
G01*
X154757214Y-51710905D01*
X154997214Y-51374905D01*
X155237214Y-51710905D01*
G37*
%TO.C,R4_1*%
X173743573Y-36719905D02*
X174050855Y-36719905D01*
X173743573Y-37479905D02*
X174050855Y-37479905D01*
%TO.C,R8_0*%
X121671410Y-55619905D02*
X121978692Y-55619905D01*
X121671410Y-56379905D02*
X121978692Y-56379905D01*
%TO.C,R5_3*%
X166617214Y-94453546D02*
X166617214Y-94146264D01*
X167377214Y-94453546D02*
X167377214Y-94146264D01*
%TO.C,D3_2*%
X126765051Y-74099905D02*
X126765051Y-75299905D01*
X128725051Y-74099905D02*
X126765051Y-74099905D01*
X128725051Y-75299905D02*
X126765051Y-75299905D01*
%TO.C,C7_3*%
X163539378Y-95139905D02*
X163755050Y-95139905D01*
X163539378Y-95859905D02*
X163755050Y-95859905D01*
%TO.C,R6_1*%
X167717214Y-56953546D02*
X167717214Y-56646264D01*
X168477214Y-56953546D02*
X168477214Y-56646264D01*
%TO.C,J2_0*%
X121120051Y-38869905D02*
X121120051Y-38234905D01*
X121755051Y-38869905D02*
X121120051Y-38869905D01*
%TO.C,Q2_2*%
X121290051Y-91889905D02*
X122760051Y-91889905D01*
X121290051Y-91914905D02*
X121290051Y-91889905D01*
X121290051Y-94109905D02*
X121290051Y-94084905D01*
X122760051Y-91889905D02*
X122760051Y-91914905D01*
X122760051Y-94084905D02*
X122760051Y-94109905D01*
X122760051Y-94109905D02*
X121290051Y-94109905D01*
X120845051Y-91909905D02*
X120705051Y-91719905D01*
X120985051Y-91719905D01*
X120845051Y-91909905D01*
G36*
X120845051Y-91909905D02*
G01*
X120705051Y-91719905D01*
X120985051Y-91719905D01*
X120845051Y-91909905D01*
G37*
%TO.C,C1_0*%
X134084471Y-35289905D02*
X134365631Y-35289905D01*
X134084471Y-36309905D02*
X134365631Y-36309905D01*
%TO.C,R4_0*%
X136771410Y-36719905D02*
X137078692Y-36719905D01*
X136771410Y-37479905D02*
X137078692Y-37479905D01*
%TO.C,BT1_3*%
X178297213Y-74799905D02*
X179497214Y-74799905D01*
X178897214Y-74199906D02*
X178897214Y-75399905D01*
%TO.C,C4_2*%
X129617215Y-77739905D02*
X129832887Y-77739905D01*
X129617215Y-78459905D02*
X129832887Y-78459905D01*
%TO.C,U2_1*%
X163037214Y-52589904D02*
X163212214Y-52589904D01*
X163037214Y-53264904D02*
X163037214Y-52589904D01*
X163037214Y-55809904D02*
X163037214Y-55134904D01*
X163212214Y-55809904D02*
X163037214Y-55809904D01*
X165582214Y-52589904D02*
X165757214Y-52589904D01*
X165757214Y-52589904D02*
X165757214Y-53264904D01*
X165757214Y-55134904D02*
X165757214Y-55809904D01*
X165757214Y-55809904D02*
X165582214Y-55809904D01*
X165147214Y-52459904D02*
X164907214Y-52129904D01*
X165387214Y-52129904D01*
X165147214Y-52459904D01*
G36*
X165147214Y-52459904D02*
G01*
X164907214Y-52129904D01*
X165387214Y-52129904D01*
X165147214Y-52459904D01*
G37*
%TO.C,R7_0*%
X118671410Y-57219905D02*
X118978692Y-57219905D01*
X118671410Y-57979905D02*
X118978692Y-57979905D01*
%TO.C,C5_1*%
X166589378Y-37539905D02*
X166805050Y-37539905D01*
X166589378Y-38259905D02*
X166805050Y-38259905D01*
%TO.C,R1_2*%
X137545051Y-98753546D02*
X137545051Y-98446264D01*
X138305051Y-98753546D02*
X138305051Y-98446264D01*
%TO.C,BT1_1*%
X178297213Y-35799905D02*
X179497214Y-35799905D01*
X178897214Y-35199906D02*
X178897214Y-36399905D01*
%TO.C,D4_1*%
D12*
X172857214Y-35799905D02*
G75*
G02*
X172757214Y-35799905I-50000J0D01*
G01*
X172757214Y-35799905D02*
G75*
G02*
X172857214Y-35799905I50000J0D01*
G01*
%TO.C,C6_3*%
D11*
X162005050Y-91839905D02*
X161789378Y-91839905D01*
X162005050Y-92559905D02*
X161789378Y-92559905D01*
%TO.C,R3_1*%
X173017214Y-56453546D02*
X173017214Y-56146264D01*
X173777214Y-56453546D02*
X173777214Y-56146264D01*
%TO.C,R3_2*%
X136045051Y-95453546D02*
X136045051Y-95146264D01*
X136805051Y-95453546D02*
X136805051Y-95146264D01*
%TO.C,C3_2*%
X132017215Y-77739905D02*
X132232887Y-77739905D01*
X132017215Y-78459905D02*
X132232887Y-78459905D01*
%TO.C,D4_3*%
D12*
X172857214Y-74799905D02*
G75*
G02*
X172757214Y-74799905I-50000J0D01*
G01*
X172757214Y-74799905D02*
G75*
G02*
X172857214Y-74799905I50000J0D01*
G01*
%TO.C,C7_1*%
D11*
X163539378Y-56139905D02*
X163755050Y-56139905D01*
X163539378Y-56859905D02*
X163755050Y-56859905D01*
%TO.C,R1_1*%
X174517214Y-59753546D02*
X174517214Y-59446264D01*
X175277214Y-59753546D02*
X175277214Y-59446264D01*
%TO.C,C3_3*%
X168989378Y-77739905D02*
X169205050Y-77739905D01*
X168989378Y-78459905D02*
X169205050Y-78459905D01*
%TO.C,J1_1*%
X160747214Y-30499905D02*
X175247214Y-30499905D01*
X160747214Y-34499905D02*
X160747214Y-30499905D01*
X175247214Y-30499905D02*
X175247214Y-34499905D01*
X175247214Y-34499905D02*
X160747214Y-34499905D01*
%TO.C,U1_2*%
X113925051Y-79649905D02*
X115025051Y-79649905D01*
X113925051Y-80749905D02*
X113925051Y-79649905D01*
X113925051Y-89249905D02*
X113925051Y-90349905D01*
X113925051Y-90349905D02*
X115025051Y-90349905D01*
X128525051Y-79649905D02*
X129625051Y-79649905D01*
X128525051Y-90349905D02*
X129625051Y-90349905D01*
X129625051Y-79649905D02*
X129625051Y-80749905D01*
X129625051Y-90349905D02*
X129625051Y-89249905D01*
X118025051Y-90374905D02*
X118265051Y-90710905D01*
X117785051Y-90710905D01*
X118025051Y-90374905D01*
G36*
X118265051Y-90710905D02*
G01*
X117785051Y-90710905D01*
X118025051Y-90374905D01*
X118265051Y-90710905D01*
G37*
%TO.C,C8_2*%
X118717215Y-94839905D02*
X118932887Y-94839905D01*
X118717215Y-95559905D02*
X118932887Y-95559905D01*
%TO.C,U2_2*%
X126065051Y-91589904D02*
X126240051Y-91589904D01*
X126065051Y-92264904D02*
X126065051Y-91589904D01*
X126065051Y-94809904D02*
X126065051Y-94134904D01*
X126240051Y-94809904D02*
X126065051Y-94809904D01*
X128610051Y-91589904D02*
X128785051Y-91589904D01*
X128785051Y-91589904D02*
X128785051Y-92264904D01*
X128785051Y-94134904D02*
X128785051Y-94809904D01*
X128785051Y-94809904D02*
X128610051Y-94809904D01*
X128175051Y-91459904D02*
X127935051Y-91129904D01*
X128415051Y-91129904D01*
X128175051Y-91459904D01*
G36*
X128175051Y-91459904D02*
G01*
X127935051Y-91129904D01*
X128415051Y-91129904D01*
X128175051Y-91459904D01*
G37*
%TO.C,R7_2*%
X118671410Y-96219905D02*
X118978692Y-96219905D01*
X118671410Y-96979905D02*
X118978692Y-96979905D01*
%TO.C,U3_0*%
X134015051Y-57839905D02*
X135835051Y-57839905D01*
X134015051Y-57889905D02*
X134015051Y-57839905D01*
X134015051Y-60959905D02*
X134015051Y-60909905D01*
X135835051Y-57839905D02*
X135835051Y-57889905D01*
X135835051Y-59009905D02*
X135835051Y-59789905D01*
X135835051Y-60909905D02*
X135835051Y-60959905D01*
X135835051Y-60959905D02*
X134015051Y-60959905D01*
X133475051Y-57889905D02*
X133235051Y-57559905D01*
X133715051Y-57559905D01*
X133475051Y-57889905D01*
G36*
X133475051Y-57889905D02*
G01*
X133235051Y-57559905D01*
X133715051Y-57559905D01*
X133475051Y-57889905D01*
G37*
%TO.C,D2_3*%
X169307214Y-97049905D02*
X166647214Y-97049905D01*
X169307214Y-98749905D02*
X166647214Y-98749905D01*
X169307214Y-98749905D02*
X169307214Y-97049905D01*
%TO.C,D2_0*%
X132335051Y-58049905D02*
X129675051Y-58049905D01*
X132335051Y-59749905D02*
X129675051Y-59749905D01*
X132335051Y-59749905D02*
X132335051Y-58049905D01*
%TO.C,U4_2*%
X118040051Y-94099904D02*
X119610051Y-94099904D01*
X118245051Y-92299904D02*
X119605051Y-92299904D01*
X117925051Y-92299904D02*
X117645051Y-92299904D01*
X117925051Y-92019904D01*
X117925051Y-92299904D01*
G36*
X117925051Y-92299904D02*
G01*
X117645051Y-92299904D01*
X117925051Y-92019904D01*
X117925051Y-92299904D01*
G37*
%TO.C,D1_0*%
X132635051Y-34849905D02*
X129975051Y-34849905D01*
X132635051Y-36549905D02*
X129975051Y-36549905D01*
X132635051Y-36549905D02*
X132635051Y-34849905D01*
%TO.C,U1_3*%
X150897214Y-79649905D02*
X151997214Y-79649905D01*
X150897214Y-80749905D02*
X150897214Y-79649905D01*
X150897214Y-89249905D02*
X150897214Y-90349905D01*
X150897214Y-90349905D02*
X151997214Y-90349905D01*
X165497214Y-79649905D02*
X166597214Y-79649905D01*
X165497214Y-90349905D02*
X166597214Y-90349905D01*
X166597214Y-79649905D02*
X166597214Y-80749905D01*
X166597214Y-90349905D02*
X166597214Y-89249905D01*
X154997214Y-90374905D02*
X155237214Y-90710905D01*
X154757214Y-90710905D01*
X154997214Y-90374905D01*
G36*
X155237214Y-90710905D02*
G01*
X154757214Y-90710905D01*
X154997214Y-90374905D01*
X155237214Y-90710905D01*
G37*
%TO.C,R2_0*%
X139671410Y-60219905D02*
X139978692Y-60219905D01*
X139671410Y-60979905D02*
X139978692Y-60979905D01*
%TO.C,C5_0*%
X129617215Y-37539905D02*
X129832887Y-37539905D01*
X129617215Y-38259905D02*
X129832887Y-38259905D01*
%TO.C,C4_1*%
X166589378Y-38739905D02*
X166805050Y-38739905D01*
X166589378Y-39459905D02*
X166805050Y-39459905D01*
%TD*%
M02*
