M48
; DRILL file KiCad 10.0.6 date 2026-09-29T01:28:06
; FORMAT={-:-/ absolute / metric / decimal}
; #@! TF.CreationDate,2026-09-29T01:28:06+02:00
; #@! TF.GenerationSoftware,Kicad,Pcbnew,10.0.6
; #@! TF.FileFunction,MixedPlating,1,2
FMAT,2
METRIC
; #@! TA.AperFunction,Plated,PTH,ViaDrill
T1C0.300
; #@! TA.AperFunction,Plated,PTH,ComponentDrill
T2C0.850
; #@! TA.AperFunction,NonPlated,NPTH,ComponentDrill
T3C0.500
; #@! TA.AperFunction,NonPlated,NPTH,ComponentDrill
T4C1.152
; #@! TA.AperFunction,NonPlated,NPTH,ComponentDrill
T5C2.400
%
G90
G05
T1
X113.0Y-86.98
X113.932Y-83.637
X114.909Y-82.878
X114.924Y-89.126
X115.621Y-73.65
X115.698Y-79.982
X116.2Y-78.98
X116.33Y-86.959
X116.662Y-85.28
X116.92Y-76.88
X116.951Y-76.013
X117.181Y-82.947
X117.37Y-73.9
X117.414Y-87.28
X117.615Y-80.621
X117.655Y-81.739
X117.81Y-94.68
X118.7Y-80.17
X118.861Y-71.997
X118.897Y-72.701
X118.984Y-77.618
X119.781Y-94.147
X120.217Y-70.513
X120.533Y-73.818
X120.586Y-48.28
X120.597Y-88.551
X121.0Y-35.18
X121.0Y-36.78
X121.0Y-38.38
X121.0Y-39.98
X121.0Y-41.58
X121.0Y-43.18
X121.015Y-79.34
X121.048Y-78.121
X121.183Y-73.483
X121.25Y-80.53
X122.1Y-81.5
X122.6Y-41.58
X122.6Y-43.18
X122.6Y-83.78
X122.6Y-85.38
X122.6Y-86.98
X122.783Y-68.056
X123.0Y-45.18
X124.3Y-48.43
X124.664Y-69.467
X124.96Y-72.642
X125.632Y-61.299
X125.85Y-50.13
X126.538Y-61.048
X126.65Y-50.13
X128.192Y-57.604
X129.808Y-70.955
X131.35Y-78.43
X131.462Y-67.512
X132.15Y-78.43
X132.368Y-67.26
X133.04Y-55.917
X133.335Y-59.092
X133.7Y-80.13
X135.0Y-83.38
X135.217Y-60.503
X135.4Y-41.58
X135.4Y-43.18
X135.4Y-44.78
X135.4Y-85.38
X135.4Y-86.98
X135.9Y-47.06
X136.75Y-48.03
X136.817Y-55.076
X136.952Y-50.438
X136.985Y-49.22
X137.0Y-85.38
X137.0Y-86.98
X137.0Y-88.58
X137.0Y-90.18
X137.0Y-91.78
X137.0Y-93.38
X137.403Y-40.009
X137.414Y-80.28
X137.467Y-54.741
X137.783Y-58.046
X138.219Y-34.413
X139.016Y-50.941
X139.103Y-55.859
X139.139Y-56.562
X139.3Y-48.39
X140.19Y-33.88
X140.345Y-46.82
X140.385Y-47.938
X140.586Y-41.28
X140.63Y-54.659
X140.819Y-45.613
X141.049Y-52.547
X141.08Y-51.68
X141.338Y-43.28
X141.67Y-41.6
X141.8Y-49.58
X142.302Y-48.578
X142.379Y-54.91
X143.076Y-39.434
X143.09Y-45.681
X144.068Y-44.923
X145.0Y-41.58
X152.0Y-86.98
X152.932Y-83.637
X153.909Y-82.878
X153.924Y-89.126
X154.621Y-73.65
X154.698Y-79.982
X155.2Y-78.98
X155.33Y-86.959
X155.662Y-85.28
X155.92Y-76.88
X155.951Y-76.013
X156.181Y-82.947
X156.37Y-73.9
X156.414Y-87.28
X156.615Y-80.621
X156.655Y-81.739
X156.81Y-94.68
X157.7Y-80.17
X157.861Y-71.997
X157.897Y-72.701
X157.984Y-77.618
X158.781Y-94.147
X159.217Y-70.513
X159.533Y-73.818
X159.586Y-48.28
X159.597Y-88.551
X160.0Y-35.18
X160.0Y-36.78
X160.0Y-38.38
X160.0Y-39.98
X160.0Y-41.58
X160.0Y-43.18
X160.015Y-79.34
X160.048Y-78.121
X160.183Y-73.483
X160.25Y-80.53
X161.1Y-81.5
X161.6Y-41.58
X161.6Y-43.18
X161.6Y-83.78
X161.6Y-85.38
X161.6Y-86.98
X161.783Y-68.056
X162.0Y-45.18
X163.3Y-48.43
X163.665Y-69.467
X163.96Y-72.642
X164.632Y-61.299
X164.85Y-50.13
X165.538Y-61.048
X165.65Y-50.13
X167.192Y-57.604
X168.808Y-70.955
X170.35Y-78.43
X170.462Y-67.512
X171.15Y-78.43
X171.368Y-67.26
X172.04Y-55.917
X172.335Y-59.092
X172.7Y-80.13
X174.0Y-83.38
X174.217Y-60.503
X174.4Y-41.58
X174.4Y-43.18
X174.4Y-44.78
X174.4Y-85.38
X174.4Y-86.98
X174.9Y-47.06
X175.75Y-48.03
X175.817Y-55.076
X175.952Y-50.438
X175.985Y-49.22
X176.0Y-85.38
X176.0Y-86.98
X176.0Y-88.58
X176.0Y-90.18
X176.0Y-91.78
X176.0Y-93.38
X176.403Y-40.009
X176.414Y-80.28
X176.467Y-54.741
X176.783Y-58.046
X177.219Y-34.413
X178.016Y-50.941
X178.103Y-55.859
X178.139Y-56.562
X178.3Y-48.39
X179.19Y-33.88
X179.345Y-46.82
X179.385Y-47.938
X179.586Y-41.28
X179.63Y-54.659
X179.819Y-45.613
X180.049Y-52.547
X180.08Y-51.68
X180.338Y-43.28
X180.67Y-41.6
X180.8Y-49.58
X181.302Y-48.578
X181.379Y-54.91
X182.076Y-39.434
X182.09Y-45.681
X183.068Y-44.923
X184.0Y-41.58
T2
X115.156Y-42.367
X115.804Y-39.952
X142.196Y-88.607
X142.844Y-86.192
X154.156Y-42.367
X154.804Y-39.952
X181.196Y-88.607
X181.844Y-86.192
T3
X103.357Y-28.0
X103.357Y-100.559
X104.214Y-28.0
X104.214Y-100.559
X105.071Y-28.0
X105.071Y-100.559
X105.929Y-28.0
X105.929Y-100.559
X106.786Y-28.0
X106.786Y-100.559
X107.643Y-28.0
X107.643Y-100.559
X111.0Y-20.357
X111.0Y-21.214
X111.0Y-22.071
X111.0Y-22.929
X111.0Y-23.786
X111.0Y-24.643
X111.0Y-103.916
X111.0Y-104.774
X111.0Y-105.631
X111.0Y-106.488
X111.0Y-107.345
X111.0Y-108.202
X111.315Y-42.8
X111.315Y-85.759
X111.422Y-41.999
X111.422Y-86.56
X111.565Y-41.203
X111.565Y-87.356
X111.744Y-40.415
X111.744Y-88.144
X111.96Y-39.636
X111.96Y-88.924
X112.213Y-38.868
X112.213Y-89.692
X117.252Y-97.146
X117.956Y-97.733
X118.689Y-98.283
X119.45Y-98.794
X120.236Y-99.266
X121.034Y-99.718
X127.016Y-62.476
X127.016Y-66.083
X128.007Y-62.549
X128.007Y-66.01
X129.0Y-62.58
X129.0Y-65.98
X129.993Y-62.549
X129.993Y-66.01
X130.984Y-62.476
X130.984Y-66.083
X136.966Y-28.841
X137.764Y-29.293
X138.55Y-29.765
X139.311Y-30.276
X140.044Y-30.826
X140.748Y-31.413
X145.787Y-38.868
X145.787Y-89.692
X146.04Y-39.636
X146.04Y-88.924
X146.256Y-40.415
X146.256Y-88.144
X146.435Y-41.203
X146.435Y-87.356
X146.578Y-41.999
X146.578Y-86.56
X146.685Y-42.8
X146.685Y-85.759
X150.315Y-42.8
X150.315Y-85.759
X150.422Y-41.999
X150.422Y-86.56
X150.565Y-41.203
X150.565Y-87.356
X150.744Y-40.415
X150.744Y-88.144
X150.96Y-39.636
X150.96Y-88.924
X151.213Y-38.868
X151.213Y-89.692
X156.252Y-97.146
X156.956Y-97.733
X157.689Y-98.283
X158.45Y-98.794
X159.236Y-99.266
X160.034Y-99.718
X166.016Y-62.476
X166.016Y-66.083
X167.007Y-62.549
X167.007Y-66.01
X168.0Y-62.58
X168.0Y-65.98
X168.993Y-62.549
X168.993Y-66.01
X169.984Y-62.476
X169.984Y-66.083
X175.966Y-28.841
X176.764Y-29.293
X177.55Y-29.765
X178.311Y-30.276
X179.044Y-30.826
X179.748Y-31.413
X184.787Y-38.868
X184.787Y-89.692
X185.04Y-39.636
X185.04Y-88.924
X185.256Y-40.415
X185.256Y-88.144
X185.435Y-41.203
X185.435Y-87.356
X185.578Y-41.999
X185.578Y-86.56
X185.685Y-42.8
X185.685Y-85.759
X186.0Y-20.357
X186.0Y-21.214
X186.0Y-22.071
X186.0Y-22.929
X186.0Y-23.786
X186.0Y-24.643
X186.0Y-103.916
X186.0Y-104.774
X186.0Y-105.631
X186.0Y-106.488
X186.0Y-107.345
X186.0Y-108.202
X189.357Y-28.0
X189.357Y-100.559
X190.214Y-28.0
X190.214Y-100.559
X191.071Y-28.0
X191.071Y-100.559
X191.929Y-28.0
X191.929Y-100.559
X192.786Y-28.0
X192.786Y-100.559
X193.643Y-28.0
X193.643Y-100.559
T4
X105.5Y-22.5
X105.5Y-106.059
X191.5Y-22.5
T5
X113.495Y-78.136
X116.36Y-55.386
X119.536Y-31.264
X138.464Y-97.296
X141.64Y-73.174
X144.505Y-50.423
X152.495Y-78.136
X155.36Y-55.386
X158.536Y-31.264
X177.464Y-97.296
X180.64Y-73.174
X183.505Y-50.423
M30
