M48
; DRILL file KiCad 10.0.6 date 2026-09-30T15:46:01
; FORMAT={-:-/ absolute / metric / decimal}
; #@! TF.CreationDate,2026-09-30T15:46:01+02:00
; #@! TF.GenerationSoftware,Kicad,Pcbnew,10.0.6
; #@! TF.FileFunction,MixedPlating,1,2
FMAT,2
METRIC
; #@! TA.AperFunction,Plated,PTH,ViaDrill
T1C0.300
; #@! TA.AperFunction,NonPlated,NPTH,ComponentDrill
T2C0.500
; #@! TA.AperFunction,NonPlated,NPTH,ComponentDrill
T3C0.700
; #@! TA.AperFunction,NonPlated,NPTH,ComponentDrill
T4C1.152
; #@! TA.AperFunction,NonPlated,NPTH,ComponentDrill
T5C2.400
%
G90
G05
T1
X111.798Y-88.384
X112.436Y-91.634
X113.082Y-87.7
X113.5Y-91.78
X113.517Y-90.134
X113.977Y-86.884
X114.249Y-90.134
X114.441Y-95.159
X115.0Y-93.28
X115.38Y-91.26
X115.85Y-87.638
X116.064Y-55.675
X116.436Y-83.884
X116.662Y-89.28
X117.15Y-92.83
X117.238Y-92.101
X117.414Y-91.28
X117.5Y-86.947
X118.112Y-94.92
X118.133Y-91.624
X118.642Y-91.134
X118.686Y-84.634
X118.832Y-51.205
X119.74Y-86.548
X119.821Y-50.251
X119.936Y-81.884
X120.1Y-59.618
X120.5Y-53.28
X120.579Y-96.839
X120.597Y-92.551
X120.6Y-94.003
X120.686Y-80.884
X120.686Y-82.884
X120.686Y-91.134
X121.0Y-83.78
X122.0Y-51.28
X122.318Y-59.099
X122.639Y-57.011
X122.936Y-86.884
X122.936Y-92.134
X122.936Y-93.634
X123.0Y-55.28
X123.131Y-47.325
X123.186Y-78.884
X123.186Y-82.134
X123.803Y-47.856
X123.936Y-78.134
X124.935Y-53.68
X124.936Y-78.384
X125.436Y-76.384
X125.915Y-54.091
X125.939Y-59.349
X126.064Y-61.675
X126.686Y-78.134
X127.334Y-57.902
X127.37Y-53.669
X127.7Y-80.288
X128.065Y-56.283
X128.517Y-79.678
X128.586Y-71.693
X128.757Y-78.677
X129.243Y-53.882
X129.414Y-60.867
X129.483Y-52.881
X129.935Y-76.276
X130.3Y-52.271
X130.63Y-78.89
X130.666Y-74.657
X131.314Y-54.425
X131.936Y-70.884
X132.061Y-73.21
X132.085Y-78.469
X132.564Y-56.175
X133.064Y-54.175
X133.065Y-78.879
X134.064Y-54.425
X134.197Y-84.704
X134.814Y-50.425
X134.814Y-53.675
X134.869Y-85.234
X135.0Y-77.28
X135.064Y-38.925
X135.064Y-40.425
X135.064Y-45.675
X135.361Y-75.548
X135.682Y-73.461
X136.0Y-81.28
X137.0Y-48.78
X137.314Y-41.425
X137.314Y-49.675
X137.314Y-51.675
X137.4Y-38.556
X137.403Y-40.009
X137.421Y-35.721
X137.5Y-79.28
X137.9Y-72.941
X138.064Y-50.675
X138.179Y-82.308
X138.26Y-46.011
X139.168Y-81.355
X139.314Y-47.925
X139.358Y-41.425
X139.867Y-40.935
X139.887Y-37.64
X140.5Y-45.613
X140.586Y-41.28
X140.762Y-40.458
X140.85Y-39.73
X141.338Y-43.28
X141.564Y-48.675
X141.936Y-76.884
X142.15Y-44.921
X142.62Y-41.3
X143.0Y-39.28
X143.559Y-37.4
X143.751Y-42.425
X144.023Y-45.675
X144.483Y-42.425
X144.5Y-40.78
X144.918Y-44.859
X145.564Y-40.925
X146.202Y-44.175
X150.798Y-88.384
X151.436Y-91.634
X152.082Y-87.7
X152.5Y-91.78
X152.517Y-90.134
X152.977Y-86.884
X153.249Y-90.134
X153.44Y-95.159
X154.0Y-93.28
X154.38Y-91.26
X154.85Y-87.638
X155.064Y-55.675
X155.436Y-83.884
X155.662Y-89.28
X156.15Y-92.83
X156.238Y-92.101
X156.414Y-91.28
X156.5Y-86.947
X157.112Y-94.92
X157.133Y-91.624
X157.642Y-91.134
X157.686Y-84.634
X157.832Y-51.205
X158.74Y-86.548
X158.821Y-50.251
X158.936Y-81.884
X159.1Y-59.618
X159.5Y-53.28
X159.579Y-96.839
X159.597Y-92.551
X159.6Y-94.003
X159.686Y-80.884
X159.686Y-82.884
X159.686Y-91.134
X160.0Y-83.78
X161.0Y-51.28
X161.318Y-59.099
X161.639Y-57.011
X161.936Y-86.884
X161.936Y-92.134
X161.936Y-93.634
X162.0Y-55.28
X162.131Y-47.325
X162.186Y-78.884
X162.186Y-82.134
X162.803Y-47.856
X162.936Y-78.134
X163.935Y-53.68
X163.936Y-78.384
X164.436Y-76.384
X164.915Y-54.091
X164.939Y-59.349
X165.064Y-61.675
X165.686Y-78.134
X166.334Y-57.902
X166.37Y-53.669
X166.7Y-80.288
X167.065Y-56.283
X167.517Y-79.678
X167.586Y-71.693
X167.757Y-78.677
X168.243Y-53.882
X168.414Y-60.867
X168.483Y-52.881
X168.935Y-76.276
X169.3Y-52.271
X169.63Y-78.89
X169.666Y-74.657
X170.314Y-54.425
X170.936Y-70.884
X171.061Y-73.21
X171.085Y-78.469
X171.564Y-56.175
X172.064Y-54.175
X172.065Y-78.879
X173.064Y-54.425
X173.197Y-84.704
X173.814Y-50.425
X173.814Y-53.675
X173.869Y-85.234
X174.0Y-77.28
X174.064Y-38.925
X174.064Y-40.425
X174.064Y-45.675
X174.361Y-75.548
X174.682Y-73.461
X175.0Y-81.28
X176.0Y-48.78
X176.314Y-41.425
X176.314Y-49.675
X176.314Y-51.675
X176.4Y-38.556
X176.403Y-40.009
X176.421Y-35.721
X176.5Y-79.28
X176.9Y-72.941
X177.064Y-50.675
X177.179Y-82.308
X177.26Y-46.011
X178.168Y-81.355
X178.314Y-47.925
X178.358Y-41.425
X178.867Y-40.935
X178.887Y-37.64
X179.5Y-45.613
X179.586Y-41.28
X179.762Y-40.458
X179.85Y-39.73
X180.338Y-43.28
X180.564Y-48.675
X180.936Y-76.884
X181.15Y-44.921
X181.62Y-41.3
X182.0Y-39.28
X182.559Y-37.4
X182.751Y-42.425
X183.023Y-45.675
X183.483Y-42.425
X183.5Y-40.78
X183.918Y-44.859
X184.564Y-40.925
X185.202Y-44.175
T2
X103.357Y-28.0
X103.357Y-104.559
X104.214Y-28.0
X104.214Y-104.559
X105.071Y-28.0
X105.071Y-104.559
X105.929Y-28.0
X105.929Y-104.559
X106.786Y-28.0
X106.786Y-104.559
X107.643Y-28.0
X107.643Y-104.559
X111.0Y-20.357
X111.0Y-21.214
X111.0Y-22.071
X111.0Y-22.929
X111.0Y-23.786
X111.0Y-24.643
X111.0Y-65.78
X111.0Y-66.78
X111.0Y-107.916
X111.0Y-108.774
X111.0Y-109.631
X111.0Y-110.488
X111.0Y-111.345
X111.0Y-112.202
X111.315Y-42.8
X111.315Y-89.759
X111.422Y-41.999
X111.422Y-90.56
X111.565Y-41.203
X111.565Y-91.356
X111.744Y-40.415
X111.744Y-92.144
X111.96Y-39.636
X111.96Y-92.924
X112.213Y-38.868
X112.213Y-93.692
X118.685Y-102.31
X119.425Y-102.779
X120.175Y-103.232
X120.946Y-103.647
X121.737Y-104.025
X126.578Y-62.41
X127.401Y-62.505
X128.227Y-62.561
X128.945Y-69.978
X129.055Y-62.581
X129.773Y-69.999
X130.599Y-70.055
X131.422Y-70.149
X136.263Y-28.535
X137.054Y-28.912
X137.825Y-29.327
X138.575Y-29.781
X139.315Y-30.249
X145.787Y-38.868
X145.787Y-93.692
X146.04Y-39.636
X146.04Y-92.924
X146.256Y-40.415
X146.256Y-92.144
X146.435Y-41.203
X146.435Y-91.356
X146.578Y-41.999
X146.578Y-90.56
X146.685Y-42.8
X146.685Y-89.759
X148.5Y-65.78
X148.5Y-66.78
X150.315Y-42.8
X150.315Y-89.759
X150.422Y-41.999
X150.422Y-90.56
X150.565Y-41.203
X150.565Y-91.356
X150.744Y-40.415
X150.744Y-92.144
X150.96Y-39.636
X150.96Y-92.924
X151.213Y-38.868
X151.213Y-93.692
X157.685Y-102.31
X158.425Y-102.779
X159.175Y-103.232
X159.946Y-103.647
X160.737Y-104.025
X165.578Y-62.41
X166.401Y-62.505
X167.227Y-62.561
X167.945Y-69.978
X168.055Y-62.581
X168.773Y-69.999
X169.599Y-70.055
X170.422Y-70.149
X175.263Y-28.535
X176.054Y-28.912
X176.825Y-29.327
X177.575Y-29.781
X178.315Y-30.249
X184.787Y-38.868
X184.787Y-93.692
X185.04Y-39.636
X185.04Y-92.924
X185.256Y-40.415
X185.256Y-92.144
X185.435Y-41.203
X185.435Y-91.356
X185.578Y-41.999
X185.578Y-90.56
X185.685Y-42.8
X185.685Y-89.759
X186.0Y-20.357
X186.0Y-21.214
X186.0Y-22.071
X186.0Y-22.929
X186.0Y-23.786
X186.0Y-24.643
X186.0Y-65.78
X186.0Y-66.78
X186.0Y-107.916
X186.0Y-108.774
X186.0Y-109.631
X186.0Y-110.488
X186.0Y-111.345
X186.0Y-112.202
X189.357Y-28.0
X189.357Y-104.559
X190.214Y-28.0
X190.214Y-104.559
X191.071Y-28.0
X191.071Y-104.559
X191.929Y-28.0
X191.929Y-104.559
X192.786Y-28.0
X192.786Y-104.559
X193.643Y-28.0
X193.643Y-104.559
T3
X114.68Y-79.813
X122.272Y-72.837
X135.728Y-59.722
X143.32Y-52.746
X153.68Y-79.813
X161.272Y-72.837
X174.728Y-59.722
X182.32Y-52.746
T4
X105.5Y-22.5
X105.5Y-110.059
X191.5Y-22.5
T5
X113.109Y-83.386
X117.538Y-99.649
X119.536Y-31.264
X125.963Y-71.563
X132.037Y-60.996
X138.464Y-101.296
X140.462Y-32.911
X144.891Y-49.174
X152.109Y-83.386
X156.538Y-99.649
X158.536Y-31.264
X164.963Y-71.563
X171.037Y-60.996
X177.464Y-101.296
X179.462Y-32.911
X183.891Y-49.174
M30
