%TF.GenerationSoftware,KiCad,Pcbnew,10.0.6*%
%TF.CreationDate,2026-09-29T13:49:20+02:00*%
%TF.ProjectId,shotpuck-panel,73686f74-7075-4636-9b2d-70616e656c2e,rev?*%
%TF.SameCoordinates,Original*%
%TF.FileFunction,Legend,Top*%
%TF.FilePolarity,Positive*%
%FSLAX46Y46*%
G04 Gerber Fmt 4.6, Leading zero omitted, Abs format (unit mm)*
G04 Created by KiCad (PCBNEW 10.0.6) date 2026-09-29 13:49:20*
%MOMM*%
%LPD*%
G01*
G04 APERTURE LIST*
%ADD10C,0.300000*%
%ADD11C,0.120000*%
%ADD12C,0.100000*%
G04 APERTURE END LIST*
D10*
X141571428Y-21678328D02*
X141571428Y-22749757D01*
X141571428Y-22749757D02*
X141499999Y-22964042D01*
X141499999Y-22964042D02*
X141357142Y-23106900D01*
X141357142Y-23106900D02*
X141142856Y-23178328D01*
X141142856Y-23178328D02*
X140999999Y-23178328D01*
X142999999Y-23178328D02*
X142285713Y-23178328D01*
X142285713Y-23178328D02*
X142285713Y-21678328D01*
X144357142Y-23035471D02*
X144285714Y-23106900D01*
X144285714Y-23106900D02*
X144071428Y-23178328D01*
X144071428Y-23178328D02*
X143928571Y-23178328D01*
X143928571Y-23178328D02*
X143714285Y-23106900D01*
X143714285Y-23106900D02*
X143571428Y-22964042D01*
X143571428Y-22964042D02*
X143499999Y-22821185D01*
X143499999Y-22821185D02*
X143428571Y-22535471D01*
X143428571Y-22535471D02*
X143428571Y-22321185D01*
X143428571Y-22321185D02*
X143499999Y-22035471D01*
X143499999Y-22035471D02*
X143571428Y-21892614D01*
X143571428Y-21892614D02*
X143714285Y-21749757D01*
X143714285Y-21749757D02*
X143928571Y-21678328D01*
X143928571Y-21678328D02*
X144071428Y-21678328D01*
X144071428Y-21678328D02*
X144285714Y-21749757D01*
X144285714Y-21749757D02*
X144357142Y-21821185D01*
X145428571Y-21678328D02*
X145428571Y-22749757D01*
X145428571Y-22749757D02*
X145357142Y-22964042D01*
X145357142Y-22964042D02*
X145214285Y-23106900D01*
X145214285Y-23106900D02*
X144999999Y-23178328D01*
X144999999Y-23178328D02*
X144857142Y-23178328D01*
X146857142Y-23178328D02*
X146142856Y-23178328D01*
X146142856Y-23178328D02*
X146142856Y-21678328D01*
X148214285Y-23035471D02*
X148142857Y-23106900D01*
X148142857Y-23106900D02*
X147928571Y-23178328D01*
X147928571Y-23178328D02*
X147785714Y-23178328D01*
X147785714Y-23178328D02*
X147571428Y-23106900D01*
X147571428Y-23106900D02*
X147428571Y-22964042D01*
X147428571Y-22964042D02*
X147357142Y-22821185D01*
X147357142Y-22821185D02*
X147285714Y-22535471D01*
X147285714Y-22535471D02*
X147285714Y-22321185D01*
X147285714Y-22321185D02*
X147357142Y-22035471D01*
X147357142Y-22035471D02*
X147428571Y-21892614D01*
X147428571Y-21892614D02*
X147571428Y-21749757D01*
X147571428Y-21749757D02*
X147785714Y-21678328D01*
X147785714Y-21678328D02*
X147928571Y-21678328D01*
X147928571Y-21678328D02*
X148142857Y-21749757D01*
X148142857Y-21749757D02*
X148214285Y-21821185D01*
X149285714Y-21678328D02*
X149285714Y-22749757D01*
X149285714Y-22749757D02*
X149214285Y-22964042D01*
X149214285Y-22964042D02*
X149071428Y-23106900D01*
X149071428Y-23106900D02*
X148857142Y-23178328D01*
X148857142Y-23178328D02*
X148714285Y-23178328D01*
X150714285Y-23178328D02*
X149999999Y-23178328D01*
X149999999Y-23178328D02*
X149999999Y-21678328D01*
X152071428Y-23035471D02*
X152000000Y-23106900D01*
X152000000Y-23106900D02*
X151785714Y-23178328D01*
X151785714Y-23178328D02*
X151642857Y-23178328D01*
X151642857Y-23178328D02*
X151428571Y-23106900D01*
X151428571Y-23106900D02*
X151285714Y-22964042D01*
X151285714Y-22964042D02*
X151214285Y-22821185D01*
X151214285Y-22821185D02*
X151142857Y-22535471D01*
X151142857Y-22535471D02*
X151142857Y-22321185D01*
X151142857Y-22321185D02*
X151214285Y-22035471D01*
X151214285Y-22035471D02*
X151285714Y-21892614D01*
X151285714Y-21892614D02*
X151428571Y-21749757D01*
X151428571Y-21749757D02*
X151642857Y-21678328D01*
X151642857Y-21678328D02*
X151785714Y-21678328D01*
X151785714Y-21678328D02*
X152000000Y-21749757D01*
X152000000Y-21749757D02*
X152071428Y-21821185D01*
X153142857Y-21678328D02*
X153142857Y-22749757D01*
X153142857Y-22749757D02*
X153071428Y-22964042D01*
X153071428Y-22964042D02*
X152928571Y-23106900D01*
X152928571Y-23106900D02*
X152714285Y-23178328D01*
X152714285Y-23178328D02*
X152571428Y-23178328D01*
X154571428Y-23178328D02*
X153857142Y-23178328D01*
X153857142Y-23178328D02*
X153857142Y-21678328D01*
X155928571Y-23035471D02*
X155857143Y-23106900D01*
X155857143Y-23106900D02*
X155642857Y-23178328D01*
X155642857Y-23178328D02*
X155500000Y-23178328D01*
X155500000Y-23178328D02*
X155285714Y-23106900D01*
X155285714Y-23106900D02*
X155142857Y-22964042D01*
X155142857Y-22964042D02*
X155071428Y-22821185D01*
X155071428Y-22821185D02*
X155000000Y-22535471D01*
X155000000Y-22535471D02*
X155000000Y-22321185D01*
X155000000Y-22321185D02*
X155071428Y-22035471D01*
X155071428Y-22035471D02*
X155142857Y-21892614D01*
X155142857Y-21892614D02*
X155285714Y-21749757D01*
X155285714Y-21749757D02*
X155500000Y-21678328D01*
X155500000Y-21678328D02*
X155642857Y-21678328D01*
X155642857Y-21678328D02*
X155857143Y-21749757D01*
X155857143Y-21749757D02*
X155928571Y-21821185D01*
%TO.C,R9_0*%
D11*
X137420000Y-47333257D02*
X137420000Y-47025975D01*
X138180000Y-47333257D02*
X138180000Y-47025975D01*
%TO.C,R4_0*%
X133446359Y-48839616D02*
X133753641Y-48839616D01*
X133446359Y-49599616D02*
X133753641Y-49599616D01*
%TO.C,J1_0*%
X111671710Y-47644940D02*
X115424586Y-33639016D01*
X115424586Y-33639016D02*
X119288290Y-34674292D01*
X115535414Y-48680216D02*
X111671710Y-47644940D01*
X119288290Y-34674292D02*
X115535414Y-48680216D01*
%TO.C,D2_2*%
X119150000Y-86689616D02*
X119150000Y-84029616D01*
X119150000Y-86689616D02*
X120850000Y-86689616D01*
X120850000Y-86689616D02*
X120850000Y-84029616D01*
%TO.C,C3_0*%
X139592164Y-52419616D02*
X139807836Y-52419616D01*
X139592164Y-53139616D02*
X139807836Y-53139616D01*
%TO.C,D3_3*%
X176300000Y-84969616D02*
X176300000Y-88829616D01*
X178300000Y-84969616D02*
X176300000Y-84969616D01*
X178300000Y-84969616D02*
X178300000Y-88829616D01*
%TO.C,D3_2*%
X137300000Y-84969616D02*
X137300000Y-88829616D01*
X139300000Y-84969616D02*
X137300000Y-84969616D01*
X139300000Y-84969616D02*
X139300000Y-88829616D01*
%TO.C,C7_3*%
X155040000Y-74687452D02*
X155040000Y-74471780D01*
X155760000Y-74687452D02*
X155760000Y-74471780D01*
%TO.C,Q2_0*%
X138865000Y-35169616D02*
X140335000Y-35169616D01*
X138865000Y-35194616D02*
X138865000Y-35169616D01*
X138865000Y-37389616D02*
X138865000Y-37364616D01*
X140335000Y-35169616D02*
X140335000Y-35194616D01*
X140335000Y-37364616D02*
X140335000Y-37389616D01*
X140335000Y-37389616D02*
X138865000Y-37389616D01*
X140780000Y-37369616D02*
X140920000Y-37559616D01*
X140640000Y-37559616D01*
X140780000Y-37369616D01*
G36*
X140920000Y-37559616D02*
G01*
X140640000Y-37559616D01*
X140780000Y-37369616D01*
X140920000Y-37559616D01*
G37*
%TO.C,C8_0*%
X142707836Y-37519616D02*
X142492164Y-37519616D01*
X142707836Y-38239616D02*
X142492164Y-38239616D01*
%TO.C,C8_2*%
X115292164Y-90319616D02*
X115507836Y-90319616D01*
X115292164Y-91039616D02*
X115507836Y-91039616D01*
%TO.C,R3_2*%
X118320000Y-81733257D02*
X118320000Y-81425975D01*
X119080000Y-81733257D02*
X119080000Y-81425975D01*
%TO.C,D1_3*%
X174589999Y-89729616D02*
X174589999Y-91429616D01*
X174589999Y-89729616D02*
X177249999Y-89729616D01*
X174589999Y-91429616D02*
X177249999Y-91429616D01*
%TO.C,R8_2*%
X113420000Y-91333257D02*
X113420000Y-91025975D01*
X114180000Y-91333257D02*
X114180000Y-91025975D01*
%TO.C,U2_0*%
X137840000Y-54669616D02*
X138015000Y-54669616D01*
X137840000Y-55344616D02*
X137840000Y-54669616D01*
X137840000Y-57889616D02*
X137840000Y-57214616D01*
X138015000Y-57889616D02*
X137840000Y-57889616D01*
X140385000Y-54669616D02*
X140560000Y-54669616D01*
X140560000Y-54669616D02*
X140560000Y-55344616D01*
X140560000Y-57214616D02*
X140560000Y-57889616D01*
X140560000Y-57889616D02*
X140385000Y-57889616D01*
X138450000Y-58019616D02*
X138690000Y-58349616D01*
X138210000Y-58349616D01*
X138450000Y-58019616D01*
G36*
X138690000Y-58349616D02*
G01*
X138210000Y-58349616D01*
X138450000Y-58019616D01*
X138690000Y-58349616D01*
G37*
%TO.C,C1_0*%
X122040000Y-43420196D02*
X122040000Y-43139036D01*
X123060000Y-43420196D02*
X123060000Y-43139036D01*
%TO.C,J1_1*%
X150671710Y-47644940D02*
X154424586Y-33639016D01*
X154424586Y-33639016D02*
X158288290Y-34674292D01*
X154535414Y-48680216D02*
X150671710Y-47644940D01*
X158288290Y-34674292D02*
X154535414Y-48680216D01*
%TO.C,D3_1*%
X157700000Y-43589616D02*
X157700000Y-39729616D01*
X157700000Y-43589616D02*
X159700000Y-43589616D01*
X159700000Y-43589616D02*
X159700000Y-39729616D01*
%TO.C,R4_2*%
X124553641Y-78959616D02*
X124246359Y-78959616D01*
X124553641Y-79719616D02*
X124246359Y-79719616D01*
%TO.C,C6_1*%
X180040000Y-55871780D02*
X180040000Y-56087452D01*
X180760000Y-55871780D02*
X180760000Y-56087452D01*
%TO.C,J1_3*%
X177711710Y-93884940D02*
X181464586Y-79879016D01*
X181464586Y-79879016D02*
X185328290Y-80914292D01*
X181575414Y-94920216D02*
X177711710Y-93884940D01*
X185328290Y-80914292D02*
X181575414Y-94920216D01*
%TO.C,D2_0*%
X137150000Y-41869616D02*
X137150000Y-44529616D01*
X138850000Y-41869616D02*
X137150000Y-41869616D01*
X138850000Y-41869616D02*
X138850000Y-44529616D01*
%TO.C,Q2_2*%
X117665000Y-91169616D02*
X119135000Y-91169616D01*
X117665000Y-91194616D02*
X117665000Y-91169616D01*
X117665000Y-93389616D02*
X117665000Y-93364616D01*
X119135000Y-91169616D02*
X119135000Y-91194616D01*
X119135000Y-93364616D02*
X119135000Y-93389616D01*
X119135000Y-93389616D02*
X117665000Y-93389616D01*
X117220000Y-91189616D02*
X117080000Y-90999616D01*
X117360000Y-90999616D01*
X117220000Y-91189616D01*
G36*
X117220000Y-91189616D02*
G01*
X117080000Y-90999616D01*
X117360000Y-90999616D01*
X117220000Y-91189616D01*
G37*
%TO.C,D3_0*%
X118700000Y-43589616D02*
X118700000Y-39729616D01*
X118700000Y-43589616D02*
X120700000Y-43589616D01*
X120700000Y-43589616D02*
X120700000Y-39729616D01*
%TO.C,C2_2*%
X115459420Y-87369615D02*
X115740580Y-87369615D01*
X115459420Y-88389615D02*
X115740580Y-88389615D01*
%TO.C,R1_0*%
X143820000Y-43125975D02*
X143820000Y-43433257D01*
X144580000Y-43125975D02*
X144580000Y-43433257D01*
%TO.C,U1_0*%
X120500000Y-50179616D02*
X135500000Y-50179616D01*
X120500000Y-60379616D02*
X120500000Y-50179616D01*
X125150000Y-60379616D02*
X125150000Y-60979615D01*
X135500000Y-50179616D02*
X135500000Y-60379616D01*
X135500000Y-60379616D02*
X120500000Y-60379616D01*
%TO.C,C8_3*%
X154292164Y-90319616D02*
X154507836Y-90319616D01*
X154292164Y-91039616D02*
X154507836Y-91039616D01*
%TO.C,R7_1*%
X183020000Y-39325975D02*
X183020000Y-39633257D01*
X183780000Y-39325975D02*
X183780000Y-39633257D01*
%TO.C,C5_1*%
X178592164Y-53519616D02*
X178807836Y-53519616D01*
X178592164Y-54239616D02*
X178807836Y-54239616D01*
%TO.C,D4_2*%
D12*
X112100000Y-82269616D02*
G75*
G02*
X112000000Y-82269616I-50000J0D01*
G01*
X112000000Y-82269616D02*
G75*
G02*
X112100000Y-82269616I50000J0D01*
G01*
%TO.C,R2_2*%
D11*
X113020000Y-82333257D02*
X113020000Y-82025975D01*
X113780000Y-82333257D02*
X113780000Y-82025975D01*
%TO.C,R1_1*%
X182820000Y-43125975D02*
X182820000Y-43433257D01*
X183580000Y-43125975D02*
X183580000Y-43433257D01*
%TO.C,C9_1*%
X175440000Y-46471780D02*
X175440000Y-46687452D01*
X176160000Y-46471780D02*
X176160000Y-46687452D01*
%TO.C,C2_0*%
X142540580Y-40169617D02*
X142259420Y-40169617D01*
X142540580Y-41189617D02*
X142259420Y-41189617D01*
%TO.C,C5_3*%
X157407836Y-74319616D02*
X157192164Y-74319616D01*
X157407836Y-75039616D02*
X157192164Y-75039616D01*
%TO.C,R3_1*%
X177920000Y-46825975D02*
X177920000Y-47133257D01*
X178680000Y-46825975D02*
X178680000Y-47133257D01*
%TO.C,R8_3*%
X152420000Y-91333257D02*
X152420000Y-91025975D01*
X153180000Y-91333257D02*
X153180000Y-91025975D01*
%TO.C,U3_1*%
X179490000Y-41719616D02*
X181310000Y-41719616D01*
X179490000Y-41769616D02*
X179490000Y-41719616D01*
X179490000Y-43669616D02*
X179490000Y-42889616D01*
X179490000Y-44839616D02*
X179490000Y-44789616D01*
X181310000Y-41719616D02*
X181310000Y-41769616D01*
X181310000Y-44789616D02*
X181310000Y-44839616D01*
X181310000Y-44839616D02*
X179490000Y-44839616D01*
X181850000Y-44789616D02*
X182090000Y-45119616D01*
X181610000Y-45119616D01*
X181850000Y-44789616D01*
G36*
X182090000Y-45119616D02*
G01*
X181610000Y-45119616D01*
X181850000Y-44789616D01*
X182090000Y-45119616D01*
G37*
%TO.C,D4_3*%
D12*
X151100000Y-82269616D02*
G75*
G02*
X151000000Y-82269616I-50000J0D01*
G01*
X151000000Y-82269616D02*
G75*
G02*
X151100000Y-82269616I50000J0D01*
G01*
%TO.C,C4_2*%
D11*
X115840000Y-76587452D02*
X115840000Y-76371780D01*
X116560000Y-76587452D02*
X116560000Y-76371780D01*
%TO.C,C4_1*%
X180440000Y-51971780D02*
X180440000Y-52187452D01*
X181160000Y-51971780D02*
X181160000Y-52187452D01*
%TO.C,BT1_2*%
X120054489Y-93191276D02*
X121254489Y-93191276D01*
X120654489Y-92591276D02*
X120654489Y-93791276D01*
%TO.C,U4_2*%
X116180000Y-93329616D02*
X114820000Y-93329616D01*
X116385000Y-91529616D02*
X114815000Y-91529616D01*
X116500000Y-93329616D02*
X116780000Y-93329616D01*
X116500000Y-93609616D01*
X116500000Y-93329616D01*
G36*
X116500000Y-93609616D02*
G01*
X116500000Y-93329616D01*
X116780000Y-93329616D01*
X116500000Y-93609616D01*
G37*
%TO.C,C4_0*%
X141440000Y-51971780D02*
X141440000Y-52187452D01*
X142160000Y-51971780D02*
X142160000Y-52187452D01*
%TO.C,D1_0*%
X122410001Y-37129616D02*
X119750001Y-37129616D01*
X122410001Y-38829616D02*
X119750001Y-38829616D01*
X122410001Y-38829616D02*
X122410001Y-37129616D01*
%TO.C,R9_2*%
X119820000Y-81225975D02*
X119820000Y-81533257D01*
X120580000Y-81225975D02*
X120580000Y-81533257D01*
%TO.C,U2_3*%
X156440000Y-70669616D02*
X156615000Y-70669616D01*
X156440000Y-71344616D02*
X156440000Y-70669616D01*
X156440000Y-73889616D02*
X156440000Y-73214616D01*
X156615000Y-73889616D02*
X156440000Y-73889616D01*
X158985000Y-70669616D02*
X159160000Y-70669616D01*
X159160000Y-70669616D02*
X159160000Y-71344616D01*
X159160000Y-73214616D02*
X159160000Y-73889616D01*
X159160000Y-73889616D02*
X158985000Y-73889616D01*
X158550000Y-70539616D02*
X158310000Y-70209616D01*
X158790000Y-70209616D01*
X158550000Y-70539616D01*
G36*
X158550000Y-70539616D02*
G01*
X158310000Y-70209616D01*
X158790000Y-70209616D01*
X158550000Y-70539616D01*
G37*
%TO.C,C3_2*%
X118407836Y-75419616D02*
X118192164Y-75419616D01*
X118407836Y-76139616D02*
X118192164Y-76139616D01*
%TO.C,R2_0*%
X144220000Y-46225975D02*
X144220000Y-46533257D01*
X144980000Y-46225975D02*
X144980000Y-46533257D01*
%TO.C,R3_0*%
X138920000Y-46825975D02*
X138920000Y-47133257D01*
X139680000Y-46825975D02*
X139680000Y-47133257D01*
%TO.C,U4_0*%
X141615000Y-37029616D02*
X143185000Y-37029616D01*
X141820000Y-35229616D02*
X143180000Y-35229616D01*
X141500000Y-35229616D02*
X141220000Y-35229616D01*
X141500000Y-34949616D01*
X141500000Y-35229616D01*
G36*
X141500000Y-35229616D02*
G01*
X141220000Y-35229616D01*
X141500000Y-34949616D01*
X141500000Y-35229616D01*
G37*
%TO.C,R8_1*%
X182820000Y-37225975D02*
X182820000Y-37533257D01*
X183580000Y-37225975D02*
X183580000Y-37533257D01*
%TO.C,C6_2*%
X116240000Y-72687452D02*
X116240000Y-72471780D01*
X116960000Y-72687452D02*
X116960000Y-72471780D01*
%TO.C,BT1_1*%
X176345511Y-35967956D02*
X176345511Y-34767956D01*
X176945511Y-35367956D02*
X175745511Y-35367956D01*
%TO.C,R9_1*%
X176420000Y-47333257D02*
X176420000Y-47025975D01*
X177180000Y-47333257D02*
X177180000Y-47025975D01*
%TO.C,C3_3*%
X157407836Y-75419616D02*
X157192164Y-75419616D01*
X157407836Y-76139616D02*
X157192164Y-76139616D01*
%TO.C,Q2_3*%
X156665000Y-91169616D02*
X158135000Y-91169616D01*
X156665000Y-91194616D02*
X156665000Y-91169616D01*
X156665000Y-93389616D02*
X156665000Y-93364616D01*
X158135000Y-91169616D02*
X158135000Y-91194616D01*
X158135000Y-93364616D02*
X158135000Y-93389616D01*
X158135000Y-93389616D02*
X156665000Y-93389616D01*
X156220000Y-91189616D02*
X156080000Y-90999616D01*
X156360000Y-90999616D01*
X156220000Y-91189616D01*
G36*
X156220000Y-91189616D02*
G01*
X156080000Y-90999616D01*
X156360000Y-90999616D01*
X156220000Y-91189616D01*
G37*
%TO.C,BT1_0*%
X137345511Y-35967956D02*
X137345511Y-34767956D01*
X137945511Y-35367956D02*
X136745511Y-35367956D01*
%TO.C,C2_1*%
X181540580Y-40169617D02*
X181259420Y-40169617D01*
X181540580Y-41189617D02*
X181259420Y-41189617D01*
%TO.C,U1_1*%
X159500000Y-50179616D02*
X174500000Y-50179616D01*
X159500000Y-60379616D02*
X159500000Y-50179616D01*
X164150000Y-60379616D02*
X164150000Y-60979615D01*
X174500000Y-50179616D02*
X174500000Y-60379616D01*
X174500000Y-60379616D02*
X159500000Y-60379616D01*
%TO.C,C5_0*%
X139592164Y-53519616D02*
X139807836Y-53519616D01*
X139592164Y-54239616D02*
X139807836Y-54239616D01*
%TO.C,D1_2*%
X135589999Y-89729616D02*
X135589999Y-91429616D01*
X135589999Y-89729616D02*
X138249999Y-89729616D01*
X135589999Y-91429616D02*
X138249999Y-91429616D01*
%TO.C,C6_0*%
X141040000Y-55871780D02*
X141040000Y-56087452D01*
X141760000Y-55871780D02*
X141760000Y-56087452D01*
%TO.C,D2_1*%
X176150000Y-41869616D02*
X176150000Y-44529616D01*
X177850000Y-41869616D02*
X176150000Y-41869616D01*
X177850000Y-41869616D02*
X177850000Y-44529616D01*
%TO.C,C1_2*%
X134940000Y-85139036D02*
X134940000Y-85420196D01*
X135960000Y-85139036D02*
X135960000Y-85420196D01*
%TO.C,U2_1*%
X176840000Y-54669616D02*
X177015000Y-54669616D01*
X176840000Y-55344616D02*
X176840000Y-54669616D01*
X176840000Y-57889616D02*
X176840000Y-57214616D01*
X177015000Y-57889616D02*
X176840000Y-57889616D01*
X179385000Y-54669616D02*
X179560000Y-54669616D01*
X179560000Y-54669616D02*
X179560000Y-55344616D01*
X179560000Y-57214616D02*
X179560000Y-57889616D01*
X179560000Y-57889616D02*
X179385000Y-57889616D01*
X177450000Y-58019616D02*
X177690000Y-58349616D01*
X177210000Y-58349616D01*
X177450000Y-58019616D01*
G36*
X177690000Y-58349616D02*
G01*
X177210000Y-58349616D01*
X177450000Y-58019616D01*
X177690000Y-58349616D01*
G37*
%TO.C,C2_3*%
X154459420Y-87369615D02*
X154740580Y-87369615D01*
X154459420Y-88389615D02*
X154740580Y-88389615D01*
%TO.C,C7_0*%
X141240000Y-53871780D02*
X141240000Y-54087452D01*
X141960000Y-53871780D02*
X141960000Y-54087452D01*
%TO.C,C3_1*%
X178592164Y-52419616D02*
X178807836Y-52419616D01*
X178592164Y-53139616D02*
X178807836Y-53139616D01*
%TO.C,U1_3*%
X161500000Y-68179616D02*
X176500000Y-68179616D01*
X161500000Y-78379616D02*
X161500000Y-68179616D01*
X171850000Y-68179616D02*
X171850000Y-67579617D01*
X176500000Y-68179616D02*
X176500000Y-78379616D01*
X176500000Y-78379616D02*
X161500000Y-78379616D01*
%TO.C,R2_3*%
X152020000Y-82333257D02*
X152020000Y-82025975D01*
X152780000Y-82333257D02*
X152780000Y-82025975D01*
%TO.C,D1_1*%
X161410001Y-37129616D02*
X158750001Y-37129616D01*
X161410001Y-38829616D02*
X158750001Y-38829616D01*
X161410001Y-38829616D02*
X161410001Y-37129616D01*
%TO.C,U3_2*%
X115690000Y-83719616D02*
X117510000Y-83719616D01*
X115690000Y-83769616D02*
X115690000Y-83719616D01*
X115690000Y-86839616D02*
X115690000Y-86789616D01*
X117510000Y-83719616D02*
X117510000Y-83769616D01*
X117510000Y-84889616D02*
X117510000Y-85669616D01*
X117510000Y-86789616D02*
X117510000Y-86839616D01*
X117510000Y-86839616D02*
X115690000Y-86839616D01*
X115150000Y-83769616D02*
X114910000Y-83439616D01*
X115390000Y-83439616D01*
X115150000Y-83769616D01*
G36*
X115150000Y-83769616D02*
G01*
X114910000Y-83439616D01*
X115390000Y-83439616D01*
X115150000Y-83769616D01*
G37*
%TO.C,J1_2*%
X138711710Y-93884940D02*
X142464586Y-79879016D01*
X142464586Y-79879016D02*
X146328290Y-80914292D01*
X142575414Y-94920216D02*
X138711710Y-93884940D01*
X146328290Y-80914292D02*
X142575414Y-94920216D01*
%TO.C,BT1_3*%
X159054489Y-93191276D02*
X160254489Y-93191276D01*
X159654489Y-92591276D02*
X159654489Y-93791276D01*
%TO.C,D2_3*%
X158150000Y-86689616D02*
X158150000Y-84029616D01*
X158150000Y-86689616D02*
X159850000Y-86689616D01*
X159850000Y-86689616D02*
X159850000Y-84029616D01*
%TO.C,Q1_3*%
X154065000Y-80469616D02*
X155535000Y-80469616D01*
X154065000Y-80494616D02*
X154065000Y-80469616D01*
X154065000Y-82689616D02*
X154065000Y-82664616D01*
X155535000Y-80469616D02*
X155535000Y-80494616D01*
X155535000Y-82664616D02*
X155535000Y-82689616D01*
X155535000Y-82689616D02*
X154065000Y-82689616D01*
X153620000Y-80489616D02*
X153480000Y-80299616D01*
X153760000Y-80299616D01*
X153620000Y-80489616D01*
G36*
X153620000Y-80489616D02*
G01*
X153480000Y-80299616D01*
X153760000Y-80299616D01*
X153620000Y-80489616D01*
G37*
%TO.C,C7_1*%
X180240000Y-53871780D02*
X180240000Y-54087452D01*
X180960000Y-53871780D02*
X180960000Y-54087452D01*
%TO.C,U4_1*%
X180615000Y-37029616D02*
X182185000Y-37029616D01*
X180820000Y-35229616D02*
X182180000Y-35229616D01*
X180500000Y-35229616D02*
X180220000Y-35229616D01*
X180500000Y-34949616D01*
X180500000Y-35229616D01*
G36*
X180500000Y-35229616D02*
G01*
X180220000Y-35229616D01*
X180500000Y-34949616D01*
X180500000Y-35229616D01*
G37*
%TO.C,R1_3*%
X152420000Y-85433257D02*
X152420000Y-85125975D01*
X153180000Y-85433257D02*
X153180000Y-85125975D01*
%TO.C,R7_0*%
X144020000Y-39325975D02*
X144020000Y-39633257D01*
X144780000Y-39325975D02*
X144780000Y-39633257D01*
%TO.C,D4_1*%
D12*
X185000000Y-46289616D02*
G75*
G02*
X184900000Y-46289616I-50000J0D01*
G01*
X184900000Y-46289616D02*
G75*
G02*
X185000000Y-46289616I50000J0D01*
G01*
%TO.C,R3_3*%
D11*
X157320000Y-81733257D02*
X157320000Y-81425975D01*
X158080000Y-81733257D02*
X158080000Y-81425975D01*
%TO.C,Q1_0*%
X141465000Y-45869616D02*
X142935000Y-45869616D01*
X141465000Y-45894616D02*
X141465000Y-45869616D01*
X141465000Y-48089616D02*
X141465000Y-48064616D01*
X142935000Y-45869616D02*
X142935000Y-45894616D01*
X142935000Y-48064616D02*
X142935000Y-48089616D01*
X142935000Y-48089616D02*
X141465000Y-48089616D01*
X143380000Y-48069616D02*
X143520000Y-48259616D01*
X143240000Y-48259616D01*
X143380000Y-48069616D01*
G36*
X143520000Y-48259616D02*
G01*
X143240000Y-48259616D01*
X143380000Y-48069616D01*
X143520000Y-48259616D01*
G37*
%TO.C,Q1_2*%
X115065000Y-80469616D02*
X116535000Y-80469616D01*
X115065000Y-80494616D02*
X115065000Y-80469616D01*
X115065000Y-82689616D02*
X115065000Y-82664616D01*
X116535000Y-80469616D02*
X116535000Y-80494616D01*
X116535000Y-82664616D02*
X116535000Y-82689616D01*
X116535000Y-82689616D02*
X115065000Y-82689616D01*
X114620000Y-80489616D02*
X114480000Y-80299616D01*
X114760000Y-80299616D01*
X114620000Y-80489616D01*
G36*
X114620000Y-80489616D02*
G01*
X114480000Y-80299616D01*
X114760000Y-80299616D01*
X114620000Y-80489616D01*
G37*
%TO.C,R1_2*%
X113420000Y-85433257D02*
X113420000Y-85125975D01*
X114180000Y-85433257D02*
X114180000Y-85125975D01*
%TO.C,R7_3*%
X152220000Y-89233257D02*
X152220000Y-88925975D01*
X152980000Y-89233257D02*
X152980000Y-88925975D01*
%TO.C,C1_1*%
X161040000Y-43420196D02*
X161040000Y-43139036D01*
X162060000Y-43420196D02*
X162060000Y-43139036D01*
%TO.C,C4_3*%
X154840000Y-76587452D02*
X154840000Y-76371780D01*
X155560000Y-76587452D02*
X155560000Y-76371780D01*
%TO.C,R4_3*%
X163553641Y-78959616D02*
X163246359Y-78959616D01*
X163553641Y-79719616D02*
X163246359Y-79719616D01*
%TO.C,U1_2*%
X122500000Y-68179616D02*
X137500000Y-68179616D01*
X122500000Y-78379616D02*
X122500000Y-68179616D01*
X132850000Y-68179616D02*
X132850000Y-67579617D01*
X137500000Y-68179616D02*
X137500000Y-78379616D01*
X137500000Y-78379616D02*
X122500000Y-78379616D01*
%TO.C,C9_2*%
X120840000Y-82087452D02*
X120840000Y-81871780D01*
X121560000Y-82087452D02*
X121560000Y-81871780D01*
%TO.C,U3_0*%
X140490000Y-41719616D02*
X142310000Y-41719616D01*
X140490000Y-41769616D02*
X140490000Y-41719616D01*
X140490000Y-43669616D02*
X140490000Y-42889616D01*
X140490000Y-44839616D02*
X140490000Y-44789616D01*
X142310000Y-41719616D02*
X142310000Y-41769616D01*
X142310000Y-44789616D02*
X142310000Y-44839616D01*
X142310000Y-44839616D02*
X140490000Y-44839616D01*
X142850000Y-44789616D02*
X143090000Y-45119616D01*
X142610000Y-45119616D01*
X142850000Y-44789616D01*
G36*
X143090000Y-45119616D02*
G01*
X142610000Y-45119616D01*
X142850000Y-44789616D01*
X143090000Y-45119616D01*
G37*
%TO.C,R8_0*%
X143820000Y-37225975D02*
X143820000Y-37533257D01*
X144580000Y-37225975D02*
X144580000Y-37533257D01*
%TO.C,C6_3*%
X155240000Y-72687452D02*
X155240000Y-72471780D01*
X155960000Y-72687452D02*
X155960000Y-72471780D01*
%TO.C,C9_3*%
X159840000Y-82087452D02*
X159840000Y-81871780D01*
X160560000Y-82087452D02*
X160560000Y-81871780D01*
%TO.C,C1_3*%
X173940000Y-85139036D02*
X173940000Y-85420196D01*
X174960000Y-85139036D02*
X174960000Y-85420196D01*
%TO.C,C5_2*%
X118407836Y-74319616D02*
X118192164Y-74319616D01*
X118407836Y-75039616D02*
X118192164Y-75039616D01*
%TO.C,R7_2*%
X113220000Y-89233257D02*
X113220000Y-88925975D01*
X113980000Y-89233257D02*
X113980000Y-88925975D01*
%TO.C,Q1_1*%
X180465000Y-45869616D02*
X181935000Y-45869616D01*
X180465000Y-45894616D02*
X180465000Y-45869616D01*
X180465000Y-48089616D02*
X180465000Y-48064616D01*
X181935000Y-45869616D02*
X181935000Y-45894616D01*
X181935000Y-48064616D02*
X181935000Y-48089616D01*
X181935000Y-48089616D02*
X180465000Y-48089616D01*
X182380000Y-48069616D02*
X182520000Y-48259616D01*
X182240000Y-48259616D01*
X182380000Y-48069616D01*
G36*
X182520000Y-48259616D02*
G01*
X182240000Y-48259616D01*
X182380000Y-48069616D01*
X182520000Y-48259616D01*
G37*
%TO.C,C9_0*%
X136440000Y-46471780D02*
X136440000Y-46687452D01*
X137160000Y-46471780D02*
X137160000Y-46687452D01*
%TO.C,U4_3*%
X155180000Y-93329616D02*
X153820000Y-93329616D01*
X155385000Y-91529616D02*
X153815000Y-91529616D01*
X155500000Y-93329616D02*
X155780000Y-93329616D01*
X155500000Y-93609616D01*
X155500000Y-93329616D01*
G36*
X155500000Y-93609616D02*
G01*
X155500000Y-93329616D01*
X155780000Y-93329616D01*
X155500000Y-93609616D01*
G37*
%TO.C,U3_3*%
X154690000Y-83719616D02*
X156510000Y-83719616D01*
X154690000Y-83769616D02*
X154690000Y-83719616D01*
X154690000Y-86839616D02*
X154690000Y-86789616D01*
X156510000Y-83719616D02*
X156510000Y-83769616D01*
X156510000Y-84889616D02*
X156510000Y-85669616D01*
X156510000Y-86789616D02*
X156510000Y-86839616D01*
X156510000Y-86839616D02*
X154690000Y-86839616D01*
X154150000Y-83769616D02*
X153910000Y-83439616D01*
X154390000Y-83439616D01*
X154150000Y-83769616D01*
G36*
X154150000Y-83769616D02*
G01*
X153910000Y-83439616D01*
X154390000Y-83439616D01*
X154150000Y-83769616D01*
G37*
%TO.C,Q2_1*%
X177865000Y-35169616D02*
X179335000Y-35169616D01*
X177865000Y-35194616D02*
X177865000Y-35169616D01*
X177865000Y-37389616D02*
X177865000Y-37364616D01*
X179335000Y-35169616D02*
X179335000Y-35194616D01*
X179335000Y-37364616D02*
X179335000Y-37389616D01*
X179335000Y-37389616D02*
X177865000Y-37389616D01*
X179780000Y-37369616D02*
X179920000Y-37559616D01*
X179640000Y-37559616D01*
X179780000Y-37369616D01*
G36*
X179920000Y-37559616D02*
G01*
X179640000Y-37559616D01*
X179780000Y-37369616D01*
X179920000Y-37559616D01*
G37*
%TO.C,U2_2*%
X117440000Y-70669616D02*
X117615000Y-70669616D01*
X117440000Y-71344616D02*
X117440000Y-70669616D01*
X117440000Y-73889616D02*
X117440000Y-73214616D01*
X117615000Y-73889616D02*
X117440000Y-73889616D01*
X119985000Y-70669616D02*
X120160000Y-70669616D01*
X120160000Y-70669616D02*
X120160000Y-71344616D01*
X120160000Y-73214616D02*
X120160000Y-73889616D01*
X120160000Y-73889616D02*
X119985000Y-73889616D01*
X119550000Y-70539616D02*
X119310000Y-70209616D01*
X119790000Y-70209616D01*
X119550000Y-70539616D01*
G36*
X119550000Y-70539616D02*
G01*
X119310000Y-70209616D01*
X119790000Y-70209616D01*
X119550000Y-70539616D01*
G37*
%TO.C,R2_1*%
X183220000Y-46225975D02*
X183220000Y-46533257D01*
X183980000Y-46225975D02*
X183980000Y-46533257D01*
%TO.C,C7_2*%
X116040000Y-74687452D02*
X116040000Y-74471780D01*
X116760000Y-74687452D02*
X116760000Y-74471780D01*
%TO.C,C8_1*%
X181707836Y-37519616D02*
X181492164Y-37519616D01*
X181707836Y-38239616D02*
X181492164Y-38239616D01*
%TO.C,R4_1*%
X172446359Y-48839616D02*
X172753641Y-48839616D01*
X172446359Y-49599616D02*
X172753641Y-49599616D01*
%TO.C,R9_3*%
X158820000Y-81225975D02*
X158820000Y-81533257D01*
X159580000Y-81225975D02*
X159580000Y-81533257D01*
%TO.C,D4_0*%
D12*
X146000000Y-46289616D02*
G75*
G02*
X145900000Y-46289616I-50000J0D01*
G01*
X145900000Y-46289616D02*
G75*
G02*
X146000000Y-46289616I50000J0D01*
G01*
%TD*%
M02*
