%TF.GenerationSoftware,KiCad,Pcbnew,10.0.6*%
%TF.CreationDate,2026-09-27T13:08:25+02:00*%
%TF.ProjectId,shotpuck-panel,73686f74-7075-4636-9b2d-70616e656c2e,rev?*%
%TF.SameCoordinates,Original*%
%TF.FileFunction,Paste,Top*%
%TF.FilePolarity,Positive*%
%FSLAX46Y46*%
G04 Gerber Fmt 4.6, Leading zero omitted, Abs format (unit mm)*
G04 Created by KiCad (PCBNEW 10.0.6) date 2026-09-27 13:08:25*
%MOMM*%
%LPD*%
G01*
G04 APERTURE LIST*
G04 Aperture macros list*
%AMRoundRect*
0 Rectangle with rounded corners*
0 $1 Rounding radius*
0 $2 $3 $4 $5 $6 $7 $8 $9 X,Y pos of 4 corners*
0 Add a 4 corners polygon primitive as box body*
4,1,4,$2,$3,$4,$5,$6,$7,$8,$9,$2,$3,0*
0 Add four circle primitives for the rounded corners*
1,1,$1+$1,$2,$3*
1,1,$1+$1,$4,$5*
1,1,$1+$1,$6,$7*
1,1,$1+$1,$8,$9*
0 Add four rect primitives between the rounded corners*
20,1,$1+$1,$2,$3,$4,$5,0*
20,1,$1+$1,$4,$5,$6,$7,0*
20,1,$1+$1,$6,$7,$8,$9,0*
20,1,$1+$1,$8,$9,$2,$3,0*%
G04 Aperture macros list end*
%ADD10RoundRect,0.140000X-0.140000X-0.170000X0.140000X-0.170000X0.140000X0.170000X-0.140000X0.170000X0*%
%ADD11RoundRect,0.135000X0.185000X-0.135000X0.185000X0.135000X-0.185000X0.135000X-0.185000X-0.135000X0*%
%ADD12RoundRect,0.150000X-0.512500X-0.150000X0.512500X-0.150000X0.512500X0.150000X-0.512500X0.150000X0*%
%ADD13RoundRect,0.135000X-0.135000X-0.185000X0.135000X-0.185000X0.135000X0.185000X-0.135000X0.185000X0*%
%ADD14R,0.400000X0.600000*%
%ADD15R,0.600000X0.400000*%
%ADD16RoundRect,0.087500X-0.425000X-0.087500X0.425000X-0.087500X0.425000X0.087500X-0.425000X0.087500X0*%
%ADD17RoundRect,0.150000X0.150000X0.200000X-0.150000X0.200000X-0.150000X-0.200000X0.150000X-0.200000X0*%
%ADD18RoundRect,0.125000X0.125000X0.125000X-0.125000X0.125000X-0.125000X-0.125000X0.125000X-0.125000X0*%
%ADD19RoundRect,0.087500X-0.087500X0.225000X-0.087500X-0.225000X0.087500X-0.225000X0.087500X0.225000X0*%
%ADD20RoundRect,0.087500X-0.225000X0.087500X-0.225000X-0.087500X0.225000X-0.087500X0.225000X0.087500X0*%
%ADD21RoundRect,0.225000X-0.225000X-0.250000X0.225000X-0.250000X0.225000X0.250000X-0.225000X0.250000X0*%
%ADD22RoundRect,0.070000X-0.355000X0.070000X-0.355000X-0.070000X0.355000X-0.070000X0.355000X0.070000X0*%
%ADD23RoundRect,0.070000X-0.305000X0.070000X-0.305000X-0.070000X0.305000X-0.070000X0.305000X0.070000X0*%
%ADD24RoundRect,0.140000X0.140000X0.170000X-0.140000X0.170000X-0.140000X-0.170000X0.140000X-0.170000X0*%
%ADD25RoundRect,0.225000X0.250000X-0.225000X0.250000X0.225000X-0.250000X0.225000X-0.250000X-0.225000X0*%
%ADD26RoundRect,0.147500X-0.147500X-0.172500X0.147500X-0.172500X0.147500X0.172500X-0.147500X0.172500X0*%
G04 APERTURE END LIST*
D10*
%TO.C,C5_3*%
X166217214Y-76899905D03*
X167177214Y-76899905D03*
%TD*%
D11*
%TO.C,R1_3*%
X174897214Y-99109905D03*
X174897214Y-98089905D03*
%TD*%
D12*
%TO.C,U3_1*%
X170759714Y-58449905D03*
X170759714Y-59399905D03*
X170759714Y-60349905D03*
X173034714Y-60349905D03*
X173034714Y-58449905D03*
%TD*%
D10*
%TO.C,C3_0*%
X131645051Y-39099905D03*
X132605051Y-39099905D03*
%TD*%
%TO.C,C7_0*%
X126195051Y-56499905D03*
X127155051Y-56499905D03*
%TD*%
%TO.C,C4_0*%
X129245051Y-39099905D03*
X130205051Y-39099905D03*
%TD*%
%TO.C,C5_2*%
X129245051Y-76899905D03*
X130205051Y-76899905D03*
%TD*%
D13*
%TO.C,R2_1*%
X176287214Y-60599905D03*
X177307214Y-60599905D03*
%TD*%
%TO.C,R2_3*%
X176287214Y-99599905D03*
X177307214Y-99599905D03*
%TD*%
D10*
%TO.C,C8_0*%
X118345051Y-56199905D03*
X119305051Y-56199905D03*
%TD*%
D14*
%TO.C,U1_0*%
X118025051Y-50649905D03*
X119125051Y-50649905D03*
X119925051Y-50649905D03*
X121525051Y-50649905D03*
X121925051Y-49749905D03*
X122325051Y-50649905D03*
X122725051Y-49749905D03*
X123125051Y-50649905D03*
X123525051Y-49749905D03*
X123925051Y-50649905D03*
X124325051Y-49749905D03*
X124725051Y-50649905D03*
X125125051Y-49749905D03*
X125525051Y-50649905D03*
D15*
X128925051Y-50799905D03*
X128925051Y-49999905D03*
X128925051Y-49199905D03*
X128925051Y-48399905D03*
X128025051Y-47999905D03*
X128925051Y-47599905D03*
X128025051Y-47199905D03*
X128925051Y-46799905D03*
X128025051Y-46399905D03*
X128925051Y-45999905D03*
X128025051Y-45599905D03*
X128925051Y-45199905D03*
X128025051Y-44799905D03*
X128925051Y-44399905D03*
X128025051Y-43999905D03*
X128925051Y-43599905D03*
X128925051Y-42799905D03*
X128925051Y-41999905D03*
X128925051Y-41199905D03*
D14*
X127925051Y-41349905D03*
X127125051Y-41349905D03*
X126725051Y-42249905D03*
X126325051Y-41349905D03*
X125925051Y-42249905D03*
X125525051Y-41349905D03*
X125125051Y-42249905D03*
X124725051Y-41349905D03*
X124325051Y-42249905D03*
X123525051Y-42249905D03*
X123125051Y-41349905D03*
X122725051Y-42249905D03*
X122325051Y-41349905D03*
X121925051Y-42249905D03*
X121525051Y-41349905D03*
X121125051Y-42249905D03*
X120325051Y-42249905D03*
X119925051Y-41349905D03*
X119525051Y-42249905D03*
X119125051Y-41349905D03*
X118725051Y-42249905D03*
X118025051Y-41349905D03*
D15*
X122325051Y-47999905D03*
X122325051Y-47199905D03*
X122325051Y-46399905D03*
X122325051Y-45599905D03*
X122325051Y-44799905D03*
X122325051Y-43999905D03*
%TD*%
D16*
%TO.C,Q2_0*%
X121187551Y-53349905D03*
X121187551Y-53999905D03*
X121187551Y-54649905D03*
X122862551Y-54649905D03*
X122862551Y-53999905D03*
X122862551Y-53349905D03*
%TD*%
D17*
%TO.C,D3_1*%
X164297214Y-35699905D03*
X165697214Y-35699905D03*
%TD*%
D13*
%TO.C,R4_3*%
X173387214Y-76099905D03*
X174407214Y-76099905D03*
%TD*%
D18*
%TO.C,D1_2*%
X132125051Y-74699905D03*
X129925051Y-74699905D03*
%TD*%
D11*
%TO.C,R6_3*%
X168097214Y-96309905D03*
X168097214Y-95289905D03*
%TD*%
%TO.C,R3_3*%
X173397214Y-95809905D03*
X173397214Y-94789905D03*
%TD*%
D10*
%TO.C,C3_1*%
X168617214Y-39099905D03*
X169577214Y-39099905D03*
%TD*%
%TO.C,C7_2*%
X126195051Y-95499905D03*
X127155051Y-95499905D03*
%TD*%
D12*
%TO.C,U3_2*%
X133787551Y-97449905D03*
X133787551Y-98399905D03*
X133787551Y-99349905D03*
X136062551Y-99349905D03*
X136062551Y-97449905D03*
%TD*%
D11*
%TO.C,R5_1*%
X166997214Y-55809905D03*
X166997214Y-54789905D03*
%TD*%
%TO.C,R6_0*%
X131125051Y-57309905D03*
X131125051Y-56289905D03*
%TD*%
D13*
%TO.C,R7_1*%
X155287214Y-57599905D03*
X156307214Y-57599905D03*
%TD*%
%TO.C,R8_3*%
X158287214Y-94999905D03*
X159307214Y-94999905D03*
%TD*%
D19*
%TO.C,U2_3*%
X165147214Y-92037404D03*
X164647214Y-92037404D03*
X164147214Y-92037404D03*
X163647214Y-92037404D03*
D20*
X163484714Y-92699904D03*
X163484714Y-93199904D03*
X163484714Y-93699904D03*
D19*
X163647214Y-94362404D03*
X164147214Y-94362404D03*
X164647214Y-94362404D03*
X165147214Y-94362404D03*
D20*
X165309714Y-93699904D03*
X165309714Y-93199904D03*
X165309714Y-92699904D03*
%TD*%
D21*
%TO.C,C1_2*%
X133450051Y-74799905D03*
X135000051Y-74799905D03*
%TD*%
D19*
%TO.C,U2_0*%
X128175051Y-53037404D03*
X127675051Y-53037404D03*
X127175051Y-53037404D03*
X126675051Y-53037404D03*
D20*
X126512551Y-53699904D03*
X126512551Y-54199904D03*
X126512551Y-54699904D03*
D19*
X126675051Y-55362404D03*
X127175051Y-55362404D03*
X127675051Y-55362404D03*
X128175051Y-55362404D03*
D20*
X128337551Y-54699904D03*
X128337551Y-54199904D03*
X128337551Y-53699904D03*
%TD*%
D17*
%TO.C,D3_0*%
X127325051Y-35699905D03*
X128725051Y-35699905D03*
%TD*%
D16*
%TO.C,Q1_1*%
X176359714Y-57949905D03*
X176359714Y-58599905D03*
X176359714Y-59249905D03*
X178034714Y-59249905D03*
X178034714Y-58599905D03*
X178034714Y-57949905D03*
%TD*%
D12*
%TO.C,U3_3*%
X170759714Y-97449905D03*
X170759714Y-98399905D03*
X170759714Y-99349905D03*
X173034714Y-99349905D03*
X173034714Y-97449905D03*
%TD*%
D10*
%TO.C,C8_3*%
X155317214Y-95199905D03*
X156277214Y-95199905D03*
%TD*%
%TO.C,C8_1*%
X155317214Y-56199905D03*
X156277214Y-56199905D03*
%TD*%
D11*
%TO.C,R3_0*%
X136425051Y-56809905D03*
X136425051Y-55789905D03*
%TD*%
D16*
%TO.C,Q1_3*%
X176359714Y-96949905D03*
X176359714Y-97599905D03*
X176359714Y-98249905D03*
X178034714Y-98249905D03*
X178034714Y-97599905D03*
X178034714Y-96949905D03*
%TD*%
D21*
%TO.C,C1_3*%
X170422214Y-74799905D03*
X171972214Y-74799905D03*
%TD*%
D22*
%TO.C,U4_1*%
X155272214Y-53699904D03*
D23*
X155222214Y-54199904D03*
X155222214Y-54699904D03*
X156372214Y-54699904D03*
X156372214Y-54199904D03*
X156372214Y-53699904D03*
%TD*%
D18*
%TO.C,D1_1*%
X169097214Y-35699905D03*
X166897214Y-35699905D03*
%TD*%
D21*
%TO.C,C1_1*%
X170422214Y-35799905D03*
X171972214Y-35799905D03*
%TD*%
D22*
%TO.C,U4_0*%
X118300051Y-53699904D03*
D23*
X118250051Y-54199904D03*
X118250051Y-54699904D03*
X119400051Y-54699904D03*
X119400051Y-54199904D03*
X119400051Y-53699904D03*
%TD*%
D11*
%TO.C,R5_0*%
X130025051Y-55809905D03*
X130025051Y-54789905D03*
%TD*%
D24*
%TO.C,C6_1*%
X162377214Y-53199905D03*
X161417214Y-53199905D03*
%TD*%
%TO.C,C6_0*%
X125405051Y-53199905D03*
X124445051Y-53199905D03*
%TD*%
D25*
%TO.C,C2_2*%
X133425051Y-95974905D03*
X133425051Y-94424905D03*
%TD*%
D11*
%TO.C,R6_2*%
X131125051Y-96309905D03*
X131125051Y-95289905D03*
%TD*%
D22*
%TO.C,U4_3*%
X155272214Y-92699904D03*
D23*
X155222214Y-93199904D03*
X155222214Y-93699904D03*
X156372214Y-93699904D03*
X156372214Y-93199904D03*
X156372214Y-92699904D03*
%TD*%
D26*
%TO.C,D4_2*%
X136440051Y-74799905D03*
X137410051Y-74799905D03*
%TD*%
D13*
%TO.C,R8_1*%
X158287214Y-55999905D03*
X159307214Y-55999905D03*
%TD*%
D25*
%TO.C,C2_1*%
X170397214Y-56974905D03*
X170397214Y-55424905D03*
%TD*%
D24*
%TO.C,C6_2*%
X125405051Y-92199905D03*
X124445051Y-92199905D03*
%TD*%
D13*
%TO.C,R7_3*%
X155287214Y-96599905D03*
X156307214Y-96599905D03*
%TD*%
D16*
%TO.C,Q2_1*%
X158159714Y-53349905D03*
X158159714Y-53999905D03*
X158159714Y-54649905D03*
X159834714Y-54649905D03*
X159834714Y-53999905D03*
X159834714Y-53349905D03*
%TD*%
D10*
%TO.C,C4_3*%
X166217214Y-78099905D03*
X167177214Y-78099905D03*
%TD*%
D18*
%TO.C,D2_1*%
X168797214Y-58899905D03*
X166597214Y-58899905D03*
%TD*%
D16*
%TO.C,Q2_3*%
X158159714Y-92349905D03*
X158159714Y-92999905D03*
X158159714Y-93649905D03*
X159834714Y-93649905D03*
X159834714Y-92999905D03*
X159834714Y-92349905D03*
%TD*%
D11*
%TO.C,R5_2*%
X130025051Y-94809905D03*
X130025051Y-93789905D03*
%TD*%
D16*
%TO.C,Q1_2*%
X139387551Y-96949905D03*
X139387551Y-97599905D03*
X139387551Y-98249905D03*
X141062551Y-98249905D03*
X141062551Y-97599905D03*
X141062551Y-96949905D03*
%TD*%
D25*
%TO.C,C2_0*%
X133425051Y-56974905D03*
X133425051Y-55424905D03*
%TD*%
D26*
%TO.C,D4_0*%
X136440051Y-35799905D03*
X137410051Y-35799905D03*
%TD*%
D11*
%TO.C,R1_0*%
X137925051Y-60109905D03*
X137925051Y-59089905D03*
%TD*%
D25*
%TO.C,C2_3*%
X170397214Y-95974905D03*
X170397214Y-94424905D03*
%TD*%
D13*
%TO.C,R2_2*%
X139315051Y-99599905D03*
X140335051Y-99599905D03*
%TD*%
%TO.C,R4_2*%
X136415051Y-76099905D03*
X137435051Y-76099905D03*
%TD*%
%TO.C,R8_2*%
X121315051Y-94999905D03*
X122335051Y-94999905D03*
%TD*%
D17*
%TO.C,D3_3*%
X164297214Y-74699905D03*
X165697214Y-74699905D03*
%TD*%
D16*
%TO.C,Q1_0*%
X139387551Y-57949905D03*
X139387551Y-58599905D03*
X139387551Y-59249905D03*
X141062551Y-59249905D03*
X141062551Y-58599905D03*
X141062551Y-57949905D03*
%TD*%
D18*
%TO.C,D2_2*%
X131825051Y-97899905D03*
X129625051Y-97899905D03*
%TD*%
%TO.C,D1_3*%
X169097214Y-74699905D03*
X166897214Y-74699905D03*
%TD*%
D14*
%TO.C,U1_1*%
X154997214Y-50649905D03*
X156097214Y-50649905D03*
X156897214Y-50649905D03*
X158497214Y-50649905D03*
X158897214Y-49749905D03*
X159297214Y-50649905D03*
X159697214Y-49749905D03*
X160097214Y-50649905D03*
X160497214Y-49749905D03*
X160897214Y-50649905D03*
X161297214Y-49749905D03*
X161697214Y-50649905D03*
X162097214Y-49749905D03*
X162497214Y-50649905D03*
D15*
X165897214Y-50799905D03*
X165897214Y-49999905D03*
X165897214Y-49199905D03*
X165897214Y-48399905D03*
X164997214Y-47999905D03*
X165897214Y-47599905D03*
X164997214Y-47199905D03*
X165897214Y-46799905D03*
X164997214Y-46399905D03*
X165897214Y-45999905D03*
X164997214Y-45599905D03*
X165897214Y-45199905D03*
X164997214Y-44799905D03*
X165897214Y-44399905D03*
X164997214Y-43999905D03*
X165897214Y-43599905D03*
X165897214Y-42799905D03*
X165897214Y-41999905D03*
X165897214Y-41199905D03*
D14*
X164897214Y-41349905D03*
X164097214Y-41349905D03*
X163697214Y-42249905D03*
X163297214Y-41349905D03*
X162897214Y-42249905D03*
X162497214Y-41349905D03*
X162097214Y-42249905D03*
X161697214Y-41349905D03*
X161297214Y-42249905D03*
X160497214Y-42249905D03*
X160097214Y-41349905D03*
X159697214Y-42249905D03*
X159297214Y-41349905D03*
X158897214Y-42249905D03*
X158497214Y-41349905D03*
X158097214Y-42249905D03*
X157297214Y-42249905D03*
X156897214Y-41349905D03*
X156497214Y-42249905D03*
X156097214Y-41349905D03*
X155697214Y-42249905D03*
X154997214Y-41349905D03*
D15*
X159297214Y-47999905D03*
X159297214Y-47199905D03*
X159297214Y-46399905D03*
X159297214Y-45599905D03*
X159297214Y-44799905D03*
X159297214Y-43999905D03*
%TD*%
D13*
%TO.C,R4_1*%
X173387214Y-37099905D03*
X174407214Y-37099905D03*
%TD*%
%TO.C,R8_0*%
X121315051Y-55999905D03*
X122335051Y-55999905D03*
%TD*%
D11*
%TO.C,R5_3*%
X166997214Y-94809905D03*
X166997214Y-93789905D03*
%TD*%
D17*
%TO.C,D3_2*%
X127325051Y-74699905D03*
X128725051Y-74699905D03*
%TD*%
D10*
%TO.C,C7_3*%
X163167214Y-95499905D03*
X164127214Y-95499905D03*
%TD*%
D11*
%TO.C,R6_1*%
X168097214Y-57309905D03*
X168097214Y-56289905D03*
%TD*%
D16*
%TO.C,Q2_2*%
X121187551Y-92349905D03*
X121187551Y-92999905D03*
X121187551Y-93649905D03*
X122862551Y-93649905D03*
X122862551Y-92999905D03*
X122862551Y-92349905D03*
%TD*%
D21*
%TO.C,C1_0*%
X133450051Y-35799905D03*
X135000051Y-35799905D03*
%TD*%
D13*
%TO.C,R4_0*%
X136415051Y-37099905D03*
X137435051Y-37099905D03*
%TD*%
D10*
%TO.C,C4_2*%
X129245051Y-78099905D03*
X130205051Y-78099905D03*
%TD*%
D19*
%TO.C,U2_1*%
X165147214Y-53037404D03*
X164647214Y-53037404D03*
X164147214Y-53037404D03*
X163647214Y-53037404D03*
D20*
X163484714Y-53699904D03*
X163484714Y-54199904D03*
X163484714Y-54699904D03*
D19*
X163647214Y-55362404D03*
X164147214Y-55362404D03*
X164647214Y-55362404D03*
X165147214Y-55362404D03*
D20*
X165309714Y-54699904D03*
X165309714Y-54199904D03*
X165309714Y-53699904D03*
%TD*%
D13*
%TO.C,R7_0*%
X118315051Y-57599905D03*
X119335051Y-57599905D03*
%TD*%
D10*
%TO.C,C5_1*%
X166217214Y-37899905D03*
X167177214Y-37899905D03*
%TD*%
D11*
%TO.C,R1_2*%
X137925051Y-99109905D03*
X137925051Y-98089905D03*
%TD*%
D26*
%TO.C,D4_1*%
X173412214Y-35799905D03*
X174382214Y-35799905D03*
%TD*%
D24*
%TO.C,C6_3*%
X162377214Y-92199905D03*
X161417214Y-92199905D03*
%TD*%
D11*
%TO.C,R3_1*%
X173397214Y-56809905D03*
X173397214Y-55789905D03*
%TD*%
%TO.C,R3_2*%
X136425051Y-95809905D03*
X136425051Y-94789905D03*
%TD*%
D10*
%TO.C,C3_2*%
X131645051Y-78099905D03*
X132605051Y-78099905D03*
%TD*%
D26*
%TO.C,D4_3*%
X173412214Y-74799905D03*
X174382214Y-74799905D03*
%TD*%
D10*
%TO.C,C7_1*%
X163167214Y-56499905D03*
X164127214Y-56499905D03*
%TD*%
D11*
%TO.C,R1_1*%
X174897214Y-60109905D03*
X174897214Y-59089905D03*
%TD*%
D10*
%TO.C,C3_3*%
X168617214Y-78099905D03*
X169577214Y-78099905D03*
%TD*%
D14*
%TO.C,U1_2*%
X118025051Y-89649905D03*
X119125051Y-89649905D03*
X119925051Y-89649905D03*
X121525051Y-89649905D03*
X121925051Y-88749905D03*
X122325051Y-89649905D03*
X122725051Y-88749905D03*
X123125051Y-89649905D03*
X123525051Y-88749905D03*
X123925051Y-89649905D03*
X124325051Y-88749905D03*
X124725051Y-89649905D03*
X125125051Y-88749905D03*
X125525051Y-89649905D03*
D15*
X128925051Y-89799905D03*
X128925051Y-88999905D03*
X128925051Y-88199905D03*
X128925051Y-87399905D03*
X128025051Y-86999905D03*
X128925051Y-86599905D03*
X128025051Y-86199905D03*
X128925051Y-85799905D03*
X128025051Y-85399905D03*
X128925051Y-84999905D03*
X128025051Y-84599905D03*
X128925051Y-84199905D03*
X128025051Y-83799905D03*
X128925051Y-83399905D03*
X128025051Y-82999905D03*
X128925051Y-82599905D03*
X128925051Y-81799905D03*
X128925051Y-80999905D03*
X128925051Y-80199905D03*
D14*
X127925051Y-80349905D03*
X127125051Y-80349905D03*
X126725051Y-81249905D03*
X126325051Y-80349905D03*
X125925051Y-81249905D03*
X125525051Y-80349905D03*
X125125051Y-81249905D03*
X124725051Y-80349905D03*
X124325051Y-81249905D03*
X123525051Y-81249905D03*
X123125051Y-80349905D03*
X122725051Y-81249905D03*
X122325051Y-80349905D03*
X121925051Y-81249905D03*
X121525051Y-80349905D03*
X121125051Y-81249905D03*
X120325051Y-81249905D03*
X119925051Y-80349905D03*
X119525051Y-81249905D03*
X119125051Y-80349905D03*
X118725051Y-81249905D03*
X118025051Y-80349905D03*
D15*
X122325051Y-86999905D03*
X122325051Y-86199905D03*
X122325051Y-85399905D03*
X122325051Y-84599905D03*
X122325051Y-83799905D03*
X122325051Y-82999905D03*
%TD*%
D10*
%TO.C,C8_2*%
X118345051Y-95199905D03*
X119305051Y-95199905D03*
%TD*%
D19*
%TO.C,U2_2*%
X128175051Y-92037404D03*
X127675051Y-92037404D03*
X127175051Y-92037404D03*
X126675051Y-92037404D03*
D20*
X126512551Y-92699904D03*
X126512551Y-93199904D03*
X126512551Y-93699904D03*
D19*
X126675051Y-94362404D03*
X127175051Y-94362404D03*
X127675051Y-94362404D03*
X128175051Y-94362404D03*
D20*
X128337551Y-93699904D03*
X128337551Y-93199904D03*
X128337551Y-92699904D03*
%TD*%
D13*
%TO.C,R7_2*%
X118315051Y-96599905D03*
X119335051Y-96599905D03*
%TD*%
D12*
%TO.C,U3_0*%
X133787551Y-58449905D03*
X133787551Y-59399905D03*
X133787551Y-60349905D03*
X136062551Y-60349905D03*
X136062551Y-58449905D03*
%TD*%
D18*
%TO.C,D2_3*%
X168797214Y-97899905D03*
X166597214Y-97899905D03*
%TD*%
%TO.C,D2_0*%
X131825051Y-58899905D03*
X129625051Y-58899905D03*
%TD*%
D22*
%TO.C,U4_2*%
X118300051Y-92699904D03*
D23*
X118250051Y-93199904D03*
X118250051Y-93699904D03*
X119400051Y-93699904D03*
X119400051Y-93199904D03*
X119400051Y-92699904D03*
%TD*%
D18*
%TO.C,D1_0*%
X132125051Y-35699905D03*
X129925051Y-35699905D03*
%TD*%
D14*
%TO.C,U1_3*%
X154997214Y-89649905D03*
X156097214Y-89649905D03*
X156897214Y-89649905D03*
X158497214Y-89649905D03*
X158897214Y-88749905D03*
X159297214Y-89649905D03*
X159697214Y-88749905D03*
X160097214Y-89649905D03*
X160497214Y-88749905D03*
X160897214Y-89649905D03*
X161297214Y-88749905D03*
X161697214Y-89649905D03*
X162097214Y-88749905D03*
X162497214Y-89649905D03*
D15*
X165897214Y-89799905D03*
X165897214Y-88999905D03*
X165897214Y-88199905D03*
X165897214Y-87399905D03*
X164997214Y-86999905D03*
X165897214Y-86599905D03*
X164997214Y-86199905D03*
X165897214Y-85799905D03*
X164997214Y-85399905D03*
X165897214Y-84999905D03*
X164997214Y-84599905D03*
X165897214Y-84199905D03*
X164997214Y-83799905D03*
X165897214Y-83399905D03*
X164997214Y-82999905D03*
X165897214Y-82599905D03*
X165897214Y-81799905D03*
X165897214Y-80999905D03*
X165897214Y-80199905D03*
D14*
X164897214Y-80349905D03*
X164097214Y-80349905D03*
X163697214Y-81249905D03*
X163297214Y-80349905D03*
X162897214Y-81249905D03*
X162497214Y-80349905D03*
X162097214Y-81249905D03*
X161697214Y-80349905D03*
X161297214Y-81249905D03*
X160497214Y-81249905D03*
X160097214Y-80349905D03*
X159697214Y-81249905D03*
X159297214Y-80349905D03*
X158897214Y-81249905D03*
X158497214Y-80349905D03*
X158097214Y-81249905D03*
X157297214Y-81249905D03*
X156897214Y-80349905D03*
X156497214Y-81249905D03*
X156097214Y-80349905D03*
X155697214Y-81249905D03*
X154997214Y-80349905D03*
D15*
X159297214Y-86999905D03*
X159297214Y-86199905D03*
X159297214Y-85399905D03*
X159297214Y-84599905D03*
X159297214Y-83799905D03*
X159297214Y-82999905D03*
%TD*%
D13*
%TO.C,R2_0*%
X139315051Y-60599905D03*
X140335051Y-60599905D03*
%TD*%
D10*
%TO.C,C5_0*%
X129245051Y-37899905D03*
X130205051Y-37899905D03*
%TD*%
%TO.C,C4_1*%
X166217214Y-39099905D03*
X167177214Y-39099905D03*
%TD*%
M02*
