%TF.GenerationSoftware,KiCad,Pcbnew,10.0.6*%
%TF.CreationDate,2026-09-29T01:28:05+02:00*%
%TF.ProjectId,shotpuck-panel,73686f74-7075-4636-9b2d-70616e656c2e,rev?*%
%TF.SameCoordinates,Original*%
%TF.FileFunction,Paste,Top*%
%TF.FilePolarity,Positive*%
%FSLAX46Y46*%
G04 Gerber Fmt 4.6, Leading zero omitted, Abs format (unit mm)*
G04 Created by KiCad (PCBNEW 10.0.6) date 2026-09-29 01:28:05*
%MOMM*%
%LPD*%
G01*
G04 APERTURE LIST*
G04 Aperture macros list*
%AMRoundRect*
0 Rectangle with rounded corners*
0 $1 Rounding radius*
0 $2 $3 $4 $5 $6 $7 $8 $9 X,Y pos of 4 corners*
0 Add a 4 corners polygon primitive as box body*
4,1,4,$2,$3,$4,$5,$6,$7,$8,$9,$2,$3,0*
0 Add four circle primitives for the rounded corners*
1,1,$1+$1,$2,$3*
1,1,$1+$1,$4,$5*
1,1,$1+$1,$6,$7*
1,1,$1+$1,$8,$9*
0 Add four rect primitives between the rounded corners*
20,1,$1+$1,$2,$3,$4,$5,0*
20,1,$1+$1,$4,$5,$6,$7,0*
20,1,$1+$1,$6,$7,$8,$9,0*
20,1,$1+$1,$8,$9,$2,$3,0*%
%AMRotRect*
0 Rectangle, with rotation*
0 The origin of the aperture is its center*
0 $1 length*
0 $2 width*
0 $3 Rotation angle, in degrees counterclockwise*
0 Add horizontal line*
21,1,$1,$2,0,0,$3*%
G04 Aperture macros list end*
%ADD10R,0.400000X0.600000*%
%ADD11R,0.600000X0.400000*%
%ADD12RoundRect,0.135000X-0.135000X-0.185000X0.135000X-0.185000X0.135000X0.185000X-0.135000X0.185000X0*%
%ADD13RoundRect,0.140000X0.140000X0.170000X-0.140000X0.170000X-0.140000X-0.170000X0.140000X-0.170000X0*%
%ADD14RoundRect,0.070000X0.355000X-0.070000X0.355000X0.070000X-0.355000X0.070000X-0.355000X-0.070000X0*%
%ADD15RoundRect,0.070000X0.305000X-0.070000X0.305000X0.070000X-0.305000X0.070000X-0.305000X-0.070000X0*%
%ADD16RoundRect,0.087500X-0.425000X-0.087500X0.425000X-0.087500X0.425000X0.087500X-0.425000X0.087500X0*%
%ADD17RoundRect,0.140000X-0.140000X-0.170000X0.140000X-0.170000X0.140000X0.170000X-0.140000X0.170000X0*%
%ADD18RoundRect,0.087500X0.425000X0.087500X-0.425000X0.087500X-0.425000X-0.087500X0.425000X-0.087500X0*%
%ADD19RoundRect,0.225000X-0.225000X-0.250000X0.225000X-0.250000X0.225000X0.250000X-0.225000X0.250000X0*%
%ADD20RoundRect,0.225000X0.225000X0.250000X-0.225000X0.250000X-0.225000X-0.250000X0.225000X-0.250000X0*%
%ADD21RoundRect,0.135000X-0.185000X0.135000X-0.185000X-0.135000X0.185000X-0.135000X0.185000X0.135000X0*%
%ADD22RoundRect,0.125000X-0.125000X-0.125000X0.125000X-0.125000X0.125000X0.125000X-0.125000X0.125000X0*%
%ADD23RoundRect,0.087500X-0.087500X0.225000X-0.087500X-0.225000X0.087500X-0.225000X0.087500X0.225000X0*%
%ADD24RoundRect,0.087500X-0.225000X0.087500X-0.225000X-0.087500X0.225000X-0.087500X0.225000X0.087500X0*%
%ADD25RoundRect,0.135000X0.185000X-0.135000X0.185000X0.135000X-0.185000X0.135000X-0.185000X-0.135000X0*%
%ADD26RoundRect,0.250000X0.300000X0.300000X-0.300000X0.300000X-0.300000X-0.300000X0.300000X-0.300000X0*%
%ADD27RoundRect,0.140000X-0.170000X0.140000X-0.170000X-0.140000X0.170000X-0.140000X0.170000X0.140000X0*%
%ADD28RoundRect,0.150000X0.512500X0.150000X-0.512500X0.150000X-0.512500X-0.150000X0.512500X-0.150000X0*%
%ADD29RoundRect,0.087500X0.087500X-0.225000X0.087500X0.225000X-0.087500X0.225000X-0.087500X-0.225000X0*%
%ADD30RoundRect,0.087500X0.225000X-0.087500X0.225000X0.087500X-0.225000X0.087500X-0.225000X-0.087500X0*%
%ADD31RoundRect,0.147500X-0.147500X-0.172500X0.147500X-0.172500X0.147500X0.172500X-0.147500X0.172500X0*%
%ADD32RoundRect,0.140000X0.170000X-0.140000X0.170000X0.140000X-0.170000X0.140000X-0.170000X-0.140000X0*%
%ADD33RoundRect,0.125000X0.125000X0.125000X-0.125000X0.125000X-0.125000X-0.125000X0.125000X-0.125000X0*%
%ADD34RoundRect,0.070000X-0.355000X0.070000X-0.355000X-0.070000X0.355000X-0.070000X0.355000X0.070000X0*%
%ADD35RoundRect,0.070000X-0.305000X0.070000X-0.305000X-0.070000X0.305000X-0.070000X0.305000X0.070000X0*%
%ADD36RoundRect,0.150000X-0.512500X-0.150000X0.512500X-0.150000X0.512500X0.150000X-0.512500X0.150000X0*%
%ADD37RoundRect,0.125000X0.125000X-0.125000X0.125000X0.125000X-0.125000X0.125000X-0.125000X-0.125000X0*%
%ADD38RoundRect,0.135000X0.135000X0.185000X-0.135000X0.185000X-0.135000X-0.185000X0.135000X-0.185000X0*%
%ADD39RoundRect,0.147500X0.147500X0.172500X-0.147500X0.172500X-0.147500X-0.172500X0.147500X-0.172500X0*%
%ADD40RoundRect,0.250000X-0.300000X-0.300000X0.300000X-0.300000X0.300000X0.300000X-0.300000X0.300000X0*%
%ADD41RotRect,2.500000X2.000000X239.984259*%
%ADD42RotRect,2.500000X2.000000X279.944731*%
%ADD43RoundRect,0.125000X-0.125000X0.125000X-0.125000X-0.125000X0.125000X-0.125000X0.125000X0.125000X0*%
%ADD44RotRect,2.500000X2.000000X59.984259*%
%ADD45RotRect,2.500000X2.000000X99.944731*%
G04 APERTURE END LIST*
D10*
%TO.C,U1_3*%
X171800000Y-68379616D03*
X170700000Y-68379616D03*
X169900000Y-68379616D03*
X168300000Y-68379616D03*
X167900000Y-69279616D03*
X167500000Y-68379616D03*
X167100000Y-69279616D03*
X166700000Y-68379616D03*
X166300000Y-69279616D03*
X165900000Y-68379616D03*
X165500000Y-69279616D03*
X165100000Y-68379616D03*
X164700000Y-69279616D03*
X164300000Y-68379616D03*
D11*
X160900000Y-68229616D03*
X160900000Y-69029616D03*
X160900000Y-69829616D03*
X160900000Y-70629616D03*
X161800000Y-71029616D03*
X160900000Y-71429616D03*
X161800000Y-71829616D03*
X160900000Y-72229616D03*
X161800000Y-72629616D03*
X160900000Y-73029616D03*
X161800000Y-73429616D03*
X160900000Y-73829616D03*
X161800000Y-74229616D03*
X160900000Y-74629616D03*
X161800000Y-75029616D03*
X160900000Y-75429616D03*
X160900000Y-76229616D03*
X160900000Y-77029616D03*
X160900000Y-77829616D03*
D10*
X161900000Y-77679616D03*
X162700000Y-77679616D03*
X163100000Y-76779616D03*
X163500000Y-77679616D03*
X163900000Y-76779616D03*
X164300000Y-77679616D03*
X164700000Y-76779616D03*
X165100000Y-77679616D03*
X165500000Y-76779616D03*
X166300000Y-76779616D03*
X166700000Y-77679616D03*
X167100000Y-76779616D03*
X167500000Y-77679616D03*
X167900000Y-76779616D03*
X168300000Y-77679616D03*
X168700000Y-76779616D03*
X169500000Y-76779616D03*
X169900000Y-77679616D03*
X170300000Y-76779616D03*
X170700000Y-77679616D03*
X171100000Y-76779616D03*
X171800000Y-77679616D03*
D11*
X167500000Y-71029616D03*
X167500000Y-71829616D03*
X167500000Y-72629616D03*
X167500000Y-73429616D03*
X167500000Y-74229616D03*
X167500000Y-75029616D03*
%TD*%
D12*
%TO.C,R4_0*%
X133090000Y-49219616D03*
X134110000Y-49219616D03*
%TD*%
D13*
%TO.C,C5_3*%
X157780000Y-76879616D03*
X156820000Y-76879616D03*
%TD*%
D14*
%TO.C,U4_2*%
X116125000Y-93279616D03*
D15*
X116175000Y-92779616D03*
X116175000Y-92279616D03*
X115025000Y-92279616D03*
X115025000Y-92779616D03*
X115025000Y-93279616D03*
%TD*%
D16*
%TO.C,Q2_2*%
X117562500Y-92129616D03*
X117562500Y-92779616D03*
X117562500Y-93429616D03*
X119237500Y-93429616D03*
X119237500Y-92779616D03*
X119237500Y-92129616D03*
%TD*%
D17*
%TO.C,C4_0*%
X139220000Y-53879616D03*
X140180000Y-53879616D03*
%TD*%
D18*
%TO.C,Q2_0*%
X140437500Y-36429616D03*
X140437500Y-35779616D03*
X140437500Y-35129616D03*
X138762500Y-35129616D03*
X138762500Y-35779616D03*
X138762500Y-36429616D03*
%TD*%
D19*
%TO.C,C2_3*%
X153825000Y-87879615D03*
X155375000Y-87879615D03*
%TD*%
D20*
%TO.C,C2_0*%
X143175000Y-40679617D03*
X141625000Y-40679617D03*
%TD*%
D21*
%TO.C,R7_0*%
X144400000Y-38969616D03*
X144400000Y-39989616D03*
%TD*%
D22*
%TO.C,D1_2*%
X137850000Y-81179616D03*
X140050000Y-81179616D03*
%TD*%
D23*
%TO.C,U2_3*%
X158550000Y-71117116D03*
X158050000Y-71117116D03*
X157550000Y-71117116D03*
X157050000Y-71117116D03*
D24*
X156887500Y-71779616D03*
X156887500Y-72279616D03*
X156887500Y-72779616D03*
D23*
X157050000Y-73442116D03*
X157550000Y-73442116D03*
X158050000Y-73442116D03*
X158550000Y-73442116D03*
D24*
X158712500Y-72779616D03*
X158712500Y-72279616D03*
X158712500Y-71779616D03*
%TD*%
D25*
%TO.C,R3_2*%
X118700000Y-82089616D03*
X118700000Y-81069616D03*
%TD*%
%TO.C,R7_3*%
X152600000Y-89589616D03*
X152600000Y-88569616D03*
%TD*%
D20*
%TO.C,C1_1*%
X162175000Y-47679616D03*
X160625000Y-47679616D03*
%TD*%
D16*
%TO.C,Q1_3*%
X153962500Y-80929616D03*
X153962500Y-81579616D03*
X153962500Y-82229616D03*
X155637500Y-82229616D03*
X155637500Y-81579616D03*
X155637500Y-80929616D03*
%TD*%
D10*
%TO.C,U1_2*%
X132800000Y-68379616D03*
X131700000Y-68379616D03*
X130900000Y-68379616D03*
X129300000Y-68379616D03*
X128900000Y-69279616D03*
X128500000Y-68379616D03*
X128100000Y-69279616D03*
X127700000Y-68379616D03*
X127300000Y-69279616D03*
X126900000Y-68379616D03*
X126500000Y-69279616D03*
X126100000Y-68379616D03*
X125700000Y-69279616D03*
X125300000Y-68379616D03*
D11*
X121900000Y-68229616D03*
X121900000Y-69029616D03*
X121900000Y-69829616D03*
X121900000Y-70629616D03*
X122800000Y-71029616D03*
X121900000Y-71429616D03*
X122800000Y-71829616D03*
X121900000Y-72229616D03*
X122800000Y-72629616D03*
X121900000Y-73029616D03*
X122800000Y-73429616D03*
X121900000Y-73829616D03*
X122800000Y-74229616D03*
X121900000Y-74629616D03*
X122800000Y-75029616D03*
X121900000Y-75429616D03*
X121900000Y-76229616D03*
X121900000Y-77029616D03*
X121900000Y-77829616D03*
D10*
X122900000Y-77679616D03*
X123700000Y-77679616D03*
X124100000Y-76779616D03*
X124500000Y-77679616D03*
X124900000Y-76779616D03*
X125300000Y-77679616D03*
X125700000Y-76779616D03*
X126100000Y-77679616D03*
X126500000Y-76779616D03*
X127300000Y-76779616D03*
X127700000Y-77679616D03*
X128100000Y-76779616D03*
X128500000Y-77679616D03*
X128900000Y-76779616D03*
X129300000Y-77679616D03*
X129700000Y-76779616D03*
X130500000Y-76779616D03*
X130900000Y-77679616D03*
X131300000Y-76779616D03*
X131700000Y-77679616D03*
X132100000Y-76779616D03*
X132800000Y-77679616D03*
D11*
X128500000Y-71029616D03*
X128500000Y-71829616D03*
X128500000Y-72629616D03*
X128500000Y-73429616D03*
X128500000Y-74229616D03*
X128500000Y-75029616D03*
%TD*%
D26*
%TO.C,D3_1*%
X160800000Y-45179616D03*
X158000000Y-45179616D03*
%TD*%
D25*
%TO.C,R9_1*%
X176800000Y-47689616D03*
X176800000Y-46669616D03*
%TD*%
D13*
%TO.C,C5_2*%
X118780000Y-76879616D03*
X117820000Y-76879616D03*
%TD*%
D27*
%TO.C,C7_1*%
X180600000Y-53499616D03*
X180600000Y-54459616D03*
%TD*%
D28*
%TO.C,U3_0*%
X142537500Y-44229616D03*
X142537500Y-43279616D03*
X142537500Y-42329616D03*
X140262500Y-42329616D03*
X140262500Y-44229616D03*
%TD*%
D17*
%TO.C,C4_1*%
X178220000Y-53879616D03*
X179180000Y-53879616D03*
%TD*%
D13*
%TO.C,C8_0*%
X143080000Y-37879616D03*
X142120000Y-37879616D03*
%TD*%
D29*
%TO.C,U2_0*%
X138450000Y-57442116D03*
X138950000Y-57442116D03*
X139450000Y-57442116D03*
X139950000Y-57442116D03*
D30*
X140112500Y-56779616D03*
X140112500Y-56279616D03*
X140112500Y-55779616D03*
D29*
X139950000Y-55117116D03*
X139450000Y-55117116D03*
X138950000Y-55117116D03*
X138450000Y-55117116D03*
D30*
X138287500Y-55779616D03*
X138287500Y-56279616D03*
X138287500Y-56779616D03*
%TD*%
D16*
%TO.C,Q2_3*%
X156562500Y-92129616D03*
X156562500Y-92779616D03*
X156562500Y-93429616D03*
X158237500Y-93429616D03*
X158237500Y-92779616D03*
X158237500Y-92129616D03*
%TD*%
D31*
%TO.C,D4_3*%
X160915000Y-79339616D03*
X161885000Y-79339616D03*
%TD*%
D21*
%TO.C,R1_0*%
X144200000Y-42769616D03*
X144200000Y-43789616D03*
%TD*%
D32*
%TO.C,C7_3*%
X155400000Y-75059616D03*
X155400000Y-74099616D03*
%TD*%
D33*
%TO.C,D1_0*%
X120150000Y-47379616D03*
X117950000Y-47379616D03*
%TD*%
D20*
%TO.C,C1_0*%
X123175000Y-47679616D03*
X121625000Y-47679616D03*
%TD*%
D34*
%TO.C,U4_0*%
X141875000Y-35279616D03*
D35*
X141825000Y-35779616D03*
X141825000Y-36279616D03*
X142975000Y-36279616D03*
X142975000Y-35779616D03*
X142975000Y-35279616D03*
%TD*%
D36*
%TO.C,U3_3*%
X154462500Y-84329616D03*
X154462500Y-85279616D03*
X154462500Y-86229616D03*
X156737500Y-86229616D03*
X156737500Y-84329616D03*
%TD*%
D25*
%TO.C,R7_2*%
X113600000Y-89589616D03*
X113600000Y-88569616D03*
%TD*%
D37*
%TO.C,D2_2*%
X120000000Y-86179616D03*
X120000000Y-83979616D03*
%TD*%
D17*
%TO.C,C8_2*%
X114920000Y-90679616D03*
X115880000Y-90679616D03*
%TD*%
D27*
%TO.C,C7_0*%
X141600000Y-53499616D03*
X141600000Y-54459616D03*
%TD*%
D10*
%TO.C,U1_0*%
X125200000Y-60179616D03*
X126300000Y-60179616D03*
X127100000Y-60179616D03*
X128700000Y-60179616D03*
X129100000Y-59279616D03*
X129500000Y-60179616D03*
X129900000Y-59279616D03*
X130300000Y-60179616D03*
X130700000Y-59279616D03*
X131100000Y-60179616D03*
X131500000Y-59279616D03*
X131900000Y-60179616D03*
X132300000Y-59279616D03*
X132700000Y-60179616D03*
D11*
X136100000Y-60329616D03*
X136100000Y-59529616D03*
X136100000Y-58729616D03*
X136100000Y-57929616D03*
X135200000Y-57529616D03*
X136100000Y-57129616D03*
X135200000Y-56729616D03*
X136100000Y-56329616D03*
X135200000Y-55929616D03*
X136100000Y-55529616D03*
X135200000Y-55129616D03*
X136100000Y-54729616D03*
X135200000Y-54329616D03*
X136100000Y-53929616D03*
X135200000Y-53529616D03*
X136100000Y-53129616D03*
X136100000Y-52329616D03*
X136100000Y-51529616D03*
X136100000Y-50729616D03*
D10*
X135100000Y-50879616D03*
X134300000Y-50879616D03*
X133900000Y-51779616D03*
X133500000Y-50879616D03*
X133100000Y-51779616D03*
X132700000Y-50879616D03*
X132300000Y-51779616D03*
X131900000Y-50879616D03*
X131500000Y-51779616D03*
X130700000Y-51779616D03*
X130300000Y-50879616D03*
X129900000Y-51779616D03*
X129500000Y-50879616D03*
X129100000Y-51779616D03*
X128700000Y-50879616D03*
X128300000Y-51779616D03*
X127500000Y-51779616D03*
X127100000Y-50879616D03*
X126700000Y-51779616D03*
X126300000Y-50879616D03*
X125900000Y-51779616D03*
X125200000Y-50879616D03*
D11*
X129500000Y-57529616D03*
X129500000Y-56729616D03*
X129500000Y-55929616D03*
X129500000Y-55129616D03*
X129500000Y-54329616D03*
X129500000Y-53529616D03*
%TD*%
D18*
%TO.C,Q2_1*%
X179437500Y-36429616D03*
X179437500Y-35779616D03*
X179437500Y-35129616D03*
X177762500Y-35129616D03*
X177762500Y-35779616D03*
X177762500Y-36429616D03*
%TD*%
%TO.C,Q1_1*%
X182037500Y-47629616D03*
X182037500Y-46979616D03*
X182037500Y-46329616D03*
X180362500Y-46329616D03*
X180362500Y-46979616D03*
X180362500Y-47629616D03*
%TD*%
D25*
%TO.C,R3_3*%
X157700000Y-82089616D03*
X157700000Y-81069616D03*
%TD*%
%TO.C,R2_3*%
X152400000Y-82689616D03*
X152400000Y-81669616D03*
%TD*%
D38*
%TO.C,R4_2*%
X124910000Y-79339616D03*
X123890000Y-79339616D03*
%TD*%
%TO.C,R4_3*%
X163910000Y-79339616D03*
X162890000Y-79339616D03*
%TD*%
D12*
%TO.C,R8_2*%
X115890000Y-94679616D03*
X116910000Y-94679616D03*
%TD*%
D19*
%TO.C,C1_2*%
X134825000Y-80879616D03*
X136375000Y-80879616D03*
%TD*%
D17*
%TO.C,C5_0*%
X139220000Y-51679616D03*
X140180000Y-51679616D03*
%TD*%
D27*
%TO.C,C9_1*%
X175800000Y-46099616D03*
X175800000Y-47059616D03*
%TD*%
D39*
%TO.C,D4_1*%
X175085000Y-49219616D03*
X174115000Y-49219616D03*
%TD*%
D13*
%TO.C,C3_3*%
X157780000Y-75779616D03*
X156820000Y-75779616D03*
%TD*%
D40*
%TO.C,D3_3*%
X175200000Y-83379616D03*
X178000000Y-83379616D03*
%TD*%
D17*
%TO.C,C5_1*%
X178220000Y-51679616D03*
X179180000Y-51679616D03*
%TD*%
D32*
%TO.C,C6_2*%
X116600000Y-73059616D03*
X116600000Y-72099616D03*
%TD*%
D13*
%TO.C,C4_2*%
X118780000Y-74679616D03*
X117820000Y-74679616D03*
%TD*%
D21*
%TO.C,R2_0*%
X144600000Y-45869616D03*
X144600000Y-46889616D03*
%TD*%
D32*
%TO.C,C7_2*%
X116400000Y-75059616D03*
X116400000Y-74099616D03*
%TD*%
D21*
%TO.C,R3_0*%
X139300000Y-46469616D03*
X139300000Y-47489616D03*
%TD*%
D41*
%TO.C,BT1_2*%
X121730000Y-91329616D03*
D42*
X120730000Y-96979615D03*
%TD*%
D32*
%TO.C,C9_2*%
X121200000Y-82459616D03*
X121200000Y-81499616D03*
%TD*%
D19*
%TO.C,C2_2*%
X114825000Y-87879615D03*
X116375000Y-87879615D03*
%TD*%
D25*
%TO.C,R1_3*%
X152800000Y-85789616D03*
X152800000Y-84769616D03*
%TD*%
D21*
%TO.C,R3_1*%
X178300000Y-46469616D03*
X178300000Y-47489616D03*
%TD*%
D43*
%TO.C,D2_0*%
X138000000Y-42379616D03*
X138000000Y-44579616D03*
%TD*%
D28*
%TO.C,U3_1*%
X181537500Y-44229616D03*
X181537500Y-43279616D03*
X181537500Y-42329616D03*
X179262500Y-42329616D03*
X179262500Y-44229616D03*
%TD*%
D19*
%TO.C,C1_3*%
X173825000Y-80879616D03*
X175375000Y-80879616D03*
%TD*%
D17*
%TO.C,C3_0*%
X139220000Y-52779616D03*
X140180000Y-52779616D03*
%TD*%
%TO.C,C3_1*%
X178220000Y-52779616D03*
X179180000Y-52779616D03*
%TD*%
D31*
%TO.C,D4_2*%
X121915000Y-79339616D03*
X122885000Y-79339616D03*
%TD*%
D13*
%TO.C,C8_1*%
X182080000Y-37879616D03*
X181120000Y-37879616D03*
%TD*%
D27*
%TO.C,C6_1*%
X180400000Y-55499616D03*
X180400000Y-56459616D03*
%TD*%
%TO.C,C6_0*%
X141400000Y-55499616D03*
X141400000Y-56459616D03*
%TD*%
D41*
%TO.C,BT1_3*%
X160730000Y-91329616D03*
D42*
X159730000Y-96979615D03*
%TD*%
D44*
%TO.C,BT1_0*%
X136270000Y-37229616D03*
D45*
X137270000Y-31579617D03*
%TD*%
D21*
%TO.C,R2_1*%
X183600000Y-45869616D03*
X183600000Y-46889616D03*
%TD*%
D29*
%TO.C,U2_1*%
X177450000Y-57442116D03*
X177950000Y-57442116D03*
X178450000Y-57442116D03*
X178950000Y-57442116D03*
D30*
X179112500Y-56779616D03*
X179112500Y-56279616D03*
X179112500Y-55779616D03*
D29*
X178950000Y-55117116D03*
X178450000Y-55117116D03*
X177950000Y-55117116D03*
X177450000Y-55117116D03*
D30*
X177287500Y-55779616D03*
X177287500Y-56279616D03*
X177287500Y-56779616D03*
%TD*%
D43*
%TO.C,D2_1*%
X177000000Y-42379616D03*
X177000000Y-44579616D03*
%TD*%
D21*
%TO.C,R9_2*%
X120200000Y-80869616D03*
X120200000Y-81889616D03*
%TD*%
D17*
%TO.C,C8_3*%
X153920000Y-90679616D03*
X154880000Y-90679616D03*
%TD*%
D26*
%TO.C,D3_0*%
X121800000Y-45179616D03*
X119000000Y-45179616D03*
%TD*%
D27*
%TO.C,C9_0*%
X136800000Y-46099616D03*
X136800000Y-47059616D03*
%TD*%
D23*
%TO.C,U2_2*%
X119550000Y-71117116D03*
X119050000Y-71117116D03*
X118550000Y-71117116D03*
X118050000Y-71117116D03*
D24*
X117887500Y-71779616D03*
X117887500Y-72279616D03*
X117887500Y-72779616D03*
D23*
X118050000Y-73442116D03*
X118550000Y-73442116D03*
X119050000Y-73442116D03*
X119550000Y-73442116D03*
D24*
X119712500Y-72779616D03*
X119712500Y-72279616D03*
X119712500Y-71779616D03*
%TD*%
D37*
%TO.C,D2_3*%
X159000000Y-86179616D03*
X159000000Y-83979616D03*
%TD*%
D34*
%TO.C,U4_1*%
X180875000Y-35279616D03*
D35*
X180825000Y-35779616D03*
X180825000Y-36279616D03*
X181975000Y-36279616D03*
X181975000Y-35779616D03*
X181975000Y-35279616D03*
%TD*%
D40*
%TO.C,D3_2*%
X136200000Y-83379616D03*
X139000000Y-83379616D03*
%TD*%
D12*
%TO.C,R4_1*%
X172090000Y-49219616D03*
X173110000Y-49219616D03*
%TD*%
D25*
%TO.C,R2_2*%
X113400000Y-82689616D03*
X113400000Y-81669616D03*
%TD*%
%TO.C,R1_2*%
X113800000Y-85789616D03*
X113800000Y-84769616D03*
%TD*%
D13*
%TO.C,C4_3*%
X157780000Y-74679616D03*
X156820000Y-74679616D03*
%TD*%
D21*
%TO.C,R9_3*%
X159200000Y-80869616D03*
X159200000Y-81889616D03*
%TD*%
D22*
%TO.C,D1_3*%
X176850000Y-81179616D03*
X179050000Y-81179616D03*
%TD*%
D32*
%TO.C,C6_3*%
X155600000Y-73059616D03*
X155600000Y-72099616D03*
%TD*%
D21*
%TO.C,R1_1*%
X183200000Y-42769616D03*
X183200000Y-43789616D03*
%TD*%
D38*
%TO.C,R8_0*%
X142110000Y-33879616D03*
X141090000Y-33879616D03*
%TD*%
D25*
%TO.C,R9_0*%
X137800000Y-47689616D03*
X137800000Y-46669616D03*
%TD*%
D44*
%TO.C,BT1_1*%
X175270000Y-37229616D03*
D45*
X176270000Y-31579617D03*
%TD*%
D10*
%TO.C,U1_1*%
X164200000Y-60179616D03*
X165300000Y-60179616D03*
X166100000Y-60179616D03*
X167700000Y-60179616D03*
X168100000Y-59279616D03*
X168500000Y-60179616D03*
X168900000Y-59279616D03*
X169300000Y-60179616D03*
X169700000Y-59279616D03*
X170100000Y-60179616D03*
X170500000Y-59279616D03*
X170900000Y-60179616D03*
X171300000Y-59279616D03*
X171700000Y-60179616D03*
D11*
X175100000Y-60329616D03*
X175100000Y-59529616D03*
X175100000Y-58729616D03*
X175100000Y-57929616D03*
X174200000Y-57529616D03*
X175100000Y-57129616D03*
X174200000Y-56729616D03*
X175100000Y-56329616D03*
X174200000Y-55929616D03*
X175100000Y-55529616D03*
X174200000Y-55129616D03*
X175100000Y-54729616D03*
X174200000Y-54329616D03*
X175100000Y-53929616D03*
X174200000Y-53529616D03*
X175100000Y-53129616D03*
X175100000Y-52329616D03*
X175100000Y-51529616D03*
X175100000Y-50729616D03*
D10*
X174100000Y-50879616D03*
X173300000Y-50879616D03*
X172900000Y-51779616D03*
X172500000Y-50879616D03*
X172100000Y-51779616D03*
X171700000Y-50879616D03*
X171300000Y-51779616D03*
X170900000Y-50879616D03*
X170500000Y-51779616D03*
X169700000Y-51779616D03*
X169300000Y-50879616D03*
X168900000Y-51779616D03*
X168500000Y-50879616D03*
X168100000Y-51779616D03*
X167700000Y-50879616D03*
X167300000Y-51779616D03*
X166500000Y-51779616D03*
X166100000Y-50879616D03*
X165700000Y-51779616D03*
X165300000Y-50879616D03*
X164900000Y-51779616D03*
X164200000Y-50879616D03*
D11*
X168500000Y-57529616D03*
X168500000Y-56729616D03*
X168500000Y-55929616D03*
X168500000Y-55129616D03*
X168500000Y-54329616D03*
X168500000Y-53529616D03*
%TD*%
D39*
%TO.C,D4_0*%
X136085000Y-49219616D03*
X135115000Y-49219616D03*
%TD*%
D21*
%TO.C,R7_1*%
X183400000Y-38969616D03*
X183400000Y-39989616D03*
%TD*%
D14*
%TO.C,U4_3*%
X155125000Y-93279616D03*
D15*
X155175000Y-92779616D03*
X155175000Y-92279616D03*
X154025000Y-92279616D03*
X154025000Y-92779616D03*
X154025000Y-93279616D03*
%TD*%
D20*
%TO.C,C2_1*%
X182175000Y-40679617D03*
X180625000Y-40679617D03*
%TD*%
D18*
%TO.C,Q1_0*%
X143037500Y-47629616D03*
X143037500Y-46979616D03*
X143037500Y-46329616D03*
X141362500Y-46329616D03*
X141362500Y-46979616D03*
X141362500Y-47629616D03*
%TD*%
D13*
%TO.C,C3_2*%
X118780000Y-75779616D03*
X117820000Y-75779616D03*
%TD*%
D36*
%TO.C,U3_2*%
X115462500Y-84329616D03*
X115462500Y-85279616D03*
X115462500Y-86229616D03*
X117737500Y-86229616D03*
X117737500Y-84329616D03*
%TD*%
D33*
%TO.C,D1_1*%
X159150000Y-47379616D03*
X156950000Y-47379616D03*
%TD*%
D32*
%TO.C,C9_3*%
X160200000Y-82459616D03*
X160200000Y-81499616D03*
%TD*%
D16*
%TO.C,Q1_2*%
X114962500Y-80929616D03*
X114962500Y-81579616D03*
X114962500Y-82229616D03*
X116637500Y-82229616D03*
X116637500Y-81579616D03*
X116637500Y-80929616D03*
%TD*%
D12*
%TO.C,R8_3*%
X154890000Y-94679616D03*
X155910000Y-94679616D03*
%TD*%
D38*
%TO.C,R8_1*%
X181110000Y-33879616D03*
X180090000Y-33879616D03*
%TD*%
M02*
