M48
; DRILL file KiCad 10.0.6 date 2026-09-27T19:28:39
; FORMAT={-:-/ absolute / metric / decimal}
; #@! TF.CreationDate,2026-09-27T19:28:39+02:00
; #@! TF.GenerationSoftware,Kicad,Pcbnew,10.0.6
; #@! TF.FileFunction,MixedPlating,1,2
FMAT,2
METRIC
; #@! TA.AperFunction,Plated,PTH,ViaDrill
T1C0.300
; #@! TA.AperFunction,Plated,PTH,ComponentDrill
T2C0.850
; #@! TA.AperFunction,NonPlated,NPTH,ComponentDrill
T3C0.500
; #@! TA.AperFunction,NonPlated,NPTH,ComponentDrill
T4C1.152
; #@! TA.AperFunction,NonPlated,NPTH,ComponentDrill
T5C2.400
%
G90
G05
T1
X113.0Y-86.98
X113.985Y-80.818
X114.922Y-89.126
X115.514Y-80.219
X115.621Y-73.65
X116.2Y-78.98
X116.662Y-85.28
X116.92Y-76.88
X116.947Y-71.297
X116.951Y-76.013
X117.181Y-82.947
X117.37Y-73.9
X117.414Y-87.28
X117.765Y-80.875
X117.8Y-78.98
X117.81Y-94.68
X117.918Y-82.09
X118.7Y-80.17
X118.739Y-71.997
X118.908Y-82.87
X119.239Y-70.237
X119.781Y-94.147
X120.206Y-74.037
X120.217Y-70.513
X120.3Y-45.18
X120.514Y-72.737
X120.529Y-71.423
X120.586Y-48.28
X120.597Y-88.551
X121.0Y-35.18
X121.0Y-36.78
X121.0Y-38.38
X121.0Y-39.98
X121.0Y-41.58
X121.0Y-43.18
X121.022Y-74.382
X121.048Y-78.221
X121.092Y-68.726
X121.215Y-80.48
X122.6Y-41.58
X122.6Y-43.18
X122.6Y-83.78
X122.6Y-85.38
X122.6Y-86.98
X122.735Y-45.7
X123.026Y-79.322
X123.09Y-70.14
X123.403Y-68.726
X124.624Y-71.183
X125.854Y-60.862
X126.3Y-50.03
X127.029Y-60.889
X127.1Y-50.03
X127.711Y-74.043
X130.289Y-54.516
X130.9Y-78.53
X130.971Y-67.67
X131.7Y-78.53
X132.146Y-67.698
X133.376Y-57.376
X134.597Y-59.833
X134.91Y-58.419
X134.974Y-49.238
X135.265Y-82.859
X135.4Y-41.58
X135.4Y-43.18
X135.4Y-44.78
X135.4Y-85.38
X135.4Y-86.98
X136.785Y-48.08
X136.908Y-59.833
X136.952Y-50.338
X136.978Y-54.177
X137.0Y-85.38
X137.0Y-86.98
X137.0Y-88.58
X137.0Y-90.18
X137.0Y-91.78
X137.0Y-93.38
X137.403Y-40.009
X137.414Y-80.28
X137.47Y-57.136
X137.486Y-55.822
X137.7Y-83.38
X137.783Y-58.046
X137.794Y-54.522
X138.219Y-34.413
X138.761Y-58.322
X139.092Y-45.689
X139.261Y-56.562
X139.3Y-48.39
X140.082Y-46.47
X140.19Y-33.88
X140.2Y-49.58
X140.235Y-47.685
X140.586Y-41.28
X140.63Y-54.659
X140.819Y-45.613
X141.049Y-52.547
X141.053Y-57.262
X141.08Y-51.68
X141.338Y-43.28
X141.8Y-49.58
X142.379Y-54.91
X142.486Y-48.341
X143.078Y-39.434
X144.015Y-47.742
X145.0Y-41.58
X152.0Y-86.98
X152.985Y-80.818
X153.922Y-89.126
X154.514Y-80.219
X154.621Y-73.65
X155.2Y-78.98
X155.662Y-85.28
X155.92Y-76.88
X155.947Y-71.297
X155.951Y-76.013
X156.181Y-82.947
X156.37Y-73.9
X156.414Y-87.28
X156.765Y-80.875
X156.8Y-78.98
X156.81Y-94.68
X156.918Y-82.09
X157.7Y-80.17
X157.739Y-71.997
X157.908Y-82.87
X158.239Y-70.237
X158.781Y-94.147
X159.206Y-74.037
X159.217Y-70.513
X159.3Y-45.18
X159.514Y-72.737
X159.529Y-71.423
X159.586Y-48.28
X159.597Y-88.551
X160.0Y-35.18
X160.0Y-36.78
X160.0Y-38.38
X160.0Y-39.98
X160.0Y-41.58
X160.0Y-43.18
X160.022Y-74.382
X160.048Y-78.221
X160.092Y-68.726
X160.215Y-80.48
X161.6Y-41.58
X161.6Y-43.18
X161.6Y-83.78
X161.6Y-85.38
X161.6Y-86.98
X161.735Y-45.7
X162.026Y-79.322
X162.09Y-70.14
X162.403Y-68.726
X163.624Y-71.183
X164.854Y-60.862
X165.3Y-50.03
X166.029Y-60.889
X166.1Y-50.03
X166.711Y-74.043
X169.289Y-54.516
X169.9Y-78.53
X169.971Y-67.67
X170.7Y-78.53
X171.146Y-67.698
X172.376Y-57.376
X173.597Y-59.833
X173.91Y-58.419
X173.974Y-49.238
X174.265Y-82.859
X174.4Y-41.58
X174.4Y-43.18
X174.4Y-44.78
X174.4Y-85.38
X174.4Y-86.98
X175.785Y-48.08
X175.908Y-59.833
X175.952Y-50.338
X175.978Y-54.177
X176.0Y-85.38
X176.0Y-86.98
X176.0Y-88.58
X176.0Y-90.18
X176.0Y-91.78
X176.0Y-93.38
X176.403Y-40.009
X176.414Y-80.28
X176.47Y-57.136
X176.486Y-55.822
X176.7Y-83.38
X176.783Y-58.046
X176.794Y-54.522
X177.219Y-34.413
X177.761Y-58.322
X178.092Y-45.689
X178.261Y-56.562
X178.3Y-48.39
X179.082Y-46.47
X179.19Y-33.88
X179.2Y-49.58
X179.235Y-47.685
X179.586Y-41.28
X179.63Y-54.659
X179.819Y-45.613
X180.049Y-52.547
X180.053Y-57.262
X180.08Y-51.68
X180.338Y-43.28
X180.8Y-49.58
X181.379Y-54.91
X181.486Y-48.341
X182.078Y-39.434
X183.015Y-47.742
X184.0Y-41.58
T2
X115.156Y-42.367
X115.804Y-39.952
X142.196Y-88.607
X142.844Y-86.192
X154.156Y-42.367
X154.804Y-39.952
X181.196Y-88.607
X181.844Y-86.192
T3
X103.357Y-28.0
X103.357Y-100.559
X104.214Y-28.0
X104.214Y-100.559
X105.071Y-28.0
X105.071Y-100.559
X105.929Y-28.0
X105.929Y-100.559
X106.786Y-28.0
X106.786Y-100.559
X107.643Y-28.0
X107.643Y-100.559
X111.0Y-20.357
X111.0Y-21.214
X111.0Y-22.071
X111.0Y-22.929
X111.0Y-23.786
X111.0Y-24.643
X111.0Y-103.916
X111.0Y-104.774
X111.0Y-105.631
X111.0Y-106.488
X111.0Y-107.345
X111.0Y-108.202
X111.315Y-42.8
X111.315Y-85.759
X111.422Y-41.999
X111.422Y-86.56
X111.565Y-41.203
X111.565Y-87.356
X111.744Y-40.415
X111.744Y-88.144
X111.96Y-39.636
X111.96Y-88.924
X112.213Y-38.868
X112.213Y-89.692
X117.252Y-97.146
X117.956Y-97.733
X118.689Y-98.283
X119.45Y-98.794
X120.236Y-99.266
X121.034Y-99.718
X127.016Y-62.476
X127.016Y-66.083
X128.007Y-62.549
X128.007Y-66.01
X129.0Y-62.58
X129.0Y-65.98
X129.993Y-62.549
X129.993Y-66.01
X130.984Y-62.476
X130.984Y-66.083
X136.966Y-28.841
X137.764Y-29.293
X138.55Y-29.765
X139.311Y-30.276
X140.044Y-30.826
X140.748Y-31.413
X145.787Y-38.868
X145.787Y-89.692
X146.04Y-39.636
X146.04Y-88.924
X146.256Y-40.415
X146.256Y-88.144
X146.435Y-41.203
X146.435Y-87.356
X146.578Y-41.999
X146.578Y-86.56
X146.685Y-42.8
X146.685Y-85.759
X150.315Y-42.8
X150.315Y-85.759
X150.422Y-41.999
X150.422Y-86.56
X150.565Y-41.203
X150.565Y-87.356
X150.744Y-40.415
X150.744Y-88.144
X150.96Y-39.636
X150.96Y-88.924
X151.213Y-38.868
X151.213Y-89.692
X156.252Y-97.146
X156.956Y-97.733
X157.689Y-98.283
X158.45Y-98.794
X159.236Y-99.266
X160.034Y-99.718
X166.016Y-62.476
X166.016Y-66.083
X167.007Y-62.549
X167.007Y-66.01
X168.0Y-62.58
X168.0Y-65.98
X168.993Y-62.549
X168.993Y-66.01
X169.984Y-62.476
X169.984Y-66.083
X175.966Y-28.841
X176.764Y-29.293
X177.55Y-29.765
X178.311Y-30.276
X179.044Y-30.826
X179.748Y-31.413
X184.787Y-38.868
X184.787Y-89.692
X185.04Y-39.636
X185.04Y-88.924
X185.256Y-40.415
X185.256Y-88.144
X185.435Y-41.203
X185.435Y-87.356
X185.578Y-41.999
X185.578Y-86.56
X185.685Y-42.8
X185.685Y-85.759
X186.0Y-20.357
X186.0Y-21.214
X186.0Y-22.071
X186.0Y-22.929
X186.0Y-23.786
X186.0Y-24.643
X186.0Y-103.916
X186.0Y-104.774
X186.0Y-105.631
X186.0Y-106.488
X186.0Y-107.345
X186.0Y-108.202
X189.357Y-28.0
X189.357Y-100.559
X190.214Y-28.0
X190.214Y-100.559
X191.071Y-28.0
X191.071Y-100.559
X191.929Y-28.0
X191.929Y-100.559
X192.786Y-28.0
X192.786Y-100.559
X193.643Y-28.0
X193.643Y-100.559
T4
X105.5Y-22.5
X105.5Y-106.059
X191.5Y-22.5
T5
X113.495Y-78.136
X116.36Y-55.386
X119.536Y-31.264
X138.464Y-97.296
X141.64Y-73.174
X144.505Y-50.423
X152.495Y-78.136
X155.36Y-55.386
X158.536Y-31.264
X177.464Y-97.296
X180.64Y-73.174
X183.505Y-50.423
M30
