%TF.GenerationSoftware,KiCad,Pcbnew,10.0.6*%
%TF.CreationDate,2026-09-27T11:20:08+02:00*%
%TF.ProjectId,shotpuck-panel,73686f74-7075-4636-9b2d-70616e656c2e,rev?*%
%TF.SameCoordinates,Original*%
%TF.FileFunction,Profile,NP*%
%FSLAX46Y46*%
G04 Gerber Fmt 4.6, Leading zero omitted, Abs format (unit mm)*
G04 Created by KiCad (PCBNEW 10.0.6) date 2026-09-27 11:20:08*
%MOMM*%
%LPD*%
G01*
G04 APERTURE LIST*
%TA.AperFunction,Profile*%
%ADD10C,0.100000*%
%TD*%
G04 APERTURE END LIST*
D10*
X111002753Y-20012272D02*
X111003531Y-24999599D01*
X111002753Y-45565772D02*
X111003364Y-46456171D01*
X111002753Y-85431473D02*
X111046179Y-86320863D01*
X111003266Y-110996629D02*
X185996630Y-110996733D01*
X111003364Y-46456171D02*
X111046177Y-47320838D01*
X111003364Y-84541074D02*
X111002753Y-85431473D01*
X111003531Y-24999599D02*
X120501906Y-24999999D01*
X111003531Y-105997646D02*
X111003266Y-110996629D01*
X111003999Y-20000270D02*
X111002753Y-20012272D01*
X111046179Y-44676382D02*
X111002753Y-45565772D01*
X111046177Y-47320838D02*
X111136578Y-48231485D01*
X111046177Y-83676407D02*
X111003364Y-84541074D01*
X111046179Y-86320863D02*
X111133533Y-87206992D01*
X111133533Y-87206992D02*
X111268855Y-88112029D01*
X111136578Y-48231485D02*
X111268860Y-49112053D01*
X111136578Y-82765760D02*
X111046177Y-83676407D01*
X111136581Y-43765736D02*
X111046179Y-44676382D01*
X111268855Y-88112029D02*
X111444523Y-88984978D01*
X111268860Y-42885192D02*
X111136581Y-43765736D01*
X111268860Y-49112053D02*
X111444517Y-49984954D01*
X111268860Y-81885192D02*
X111136578Y-82765760D01*
X111439068Y-42036363D02*
X111268860Y-42885192D01*
X111444517Y-49984954D02*
X111656500Y-50824351D01*
X111444517Y-81012291D02*
X111268860Y-81885192D01*
X111444523Y-88984978D02*
X111663140Y-89848148D01*
X111656494Y-41172917D02*
X111439068Y-42036363D01*
X111656500Y-50824351D02*
X111924177Y-51699450D01*
X111656500Y-80172894D02*
X111444517Y-81012291D01*
X111663140Y-89848148D02*
X111916368Y-90676011D01*
X111916368Y-40321234D02*
X111656494Y-41172917D01*
X111916368Y-90676011D02*
X112218027Y-91513754D01*
X111924177Y-51699450D02*
X112226985Y-52536779D01*
X111924177Y-79297795D02*
X111656500Y-80172894D01*
X112218027Y-91513754D02*
X112570841Y-92358131D01*
X112218036Y-39483468D02*
X111916368Y-40321234D01*
X112226985Y-52536779D02*
X112560765Y-53335600D01*
X112226985Y-78460466D02*
X111924177Y-79297795D01*
X112560765Y-53335600D02*
X112954907Y-54161495D01*
X112560765Y-77661645D02*
X112226985Y-78460466D01*
X112570841Y-38639114D02*
X112218036Y-39483468D01*
X112570841Y-92358131D02*
X112954907Y-93161495D01*
X112954907Y-37835750D02*
X112570841Y-38639114D01*
X112954907Y-54161495D02*
X113378208Y-54944839D01*
X112954907Y-76835750D02*
X112560765Y-77661645D01*
X112954907Y-93161495D02*
X113378208Y-93944839D01*
X113365956Y-76073832D02*
X112954907Y-76835750D01*
X113378208Y-37052406D02*
X112954907Y-37835750D01*
X113378208Y-54944839D02*
X113826433Y-55685498D01*
X113378208Y-93944839D02*
X113826446Y-94685519D01*
X113826433Y-55685498D02*
X114338385Y-56444048D01*
X113826433Y-75311747D02*
X113365956Y-76073832D01*
X113826446Y-36311726D02*
X113378208Y-37052406D01*
X113826446Y-94685519D02*
X114324062Y-95423918D01*
X114324062Y-35573327D02*
X113826446Y-36311726D01*
X114324062Y-95423918D02*
X114857570Y-96136786D01*
X114338371Y-74553217D02*
X113826433Y-75311747D01*
X114338385Y-56444048D02*
X114872871Y-57156184D01*
X114857570Y-34860459D02*
X114324062Y-35573327D01*
X114857570Y-96136786D02*
X115441953Y-96841053D01*
X114872871Y-57156184D02*
X115425695Y-57822417D01*
X114872887Y-73841042D02*
X114338371Y-74553217D01*
X115425695Y-57822417D02*
X116027048Y-58479132D01*
X115425711Y-73174809D02*
X114872887Y-73841042D01*
X115441953Y-34156192D02*
X114857570Y-34860459D01*
X115441953Y-96841053D02*
X116027048Y-97479132D01*
X116027031Y-72518131D02*
X115425711Y-73174809D01*
X116027048Y-33518113D02*
X115441953Y-34156192D01*
X116027048Y-58479132D02*
X116678128Y-59122206D01*
X116027048Y-97479132D02*
X116660108Y-98105268D01*
X116660108Y-32891977D02*
X116027048Y-33518113D01*
X116660108Y-98105268D02*
X117342211Y-98715375D01*
X116678109Y-71875055D02*
X116027031Y-72518131D01*
X116678128Y-59122206D02*
X117342211Y-59715375D01*
X117323395Y-71297880D02*
X116678109Y-71875055D01*
X117342211Y-32281870D02*
X116660108Y-32891977D01*
X117342211Y-59715375D02*
X118034797Y-60274961D01*
X117342211Y-98715375D02*
X118034797Y-99274961D01*
X118015212Y-70737344D02*
X117323395Y-71297880D01*
X118034797Y-31722284D02*
X117342211Y-32281870D01*
X118034797Y-60274961D02*
X118733923Y-60785553D01*
X118034797Y-99274961D02*
X118733943Y-99785568D01*
X118733923Y-60785553D02*
X119498747Y-61288085D01*
X118733943Y-31211677D02*
X118034797Y-31722284D01*
X118733943Y-70211677D02*
X118015212Y-70737344D01*
X118733943Y-99785568D02*
X119498747Y-100288085D01*
X119498747Y-30709160D02*
X118733943Y-31211677D01*
X119498747Y-61288085D02*
X120244893Y-61727115D01*
X119498747Y-69709160D02*
X118733943Y-70211677D01*
X119498747Y-100288085D02*
X120244893Y-100727115D01*
X120244893Y-30270130D02*
X119498747Y-30709160D01*
X120244893Y-61727115D02*
X120965323Y-62105041D01*
X120244893Y-69270130D02*
X119498747Y-69709160D01*
X120244893Y-100727115D02*
X120965323Y-101105041D01*
X120501906Y-24999999D02*
X120550936Y-25001203D01*
X120501906Y-105997246D02*
X111003531Y-105997646D01*
X120550936Y-25001203D02*
X120599837Y-25004810D01*
X120550936Y-105996042D02*
X120501906Y-105997246D01*
X120599837Y-25004810D02*
X120648502Y-25010812D01*
X120599837Y-105992435D02*
X120550936Y-105996042D01*
X120648502Y-25010812D02*
X120696813Y-25019195D01*
X120648502Y-105986433D02*
X120599837Y-105992435D01*
X120696813Y-25019195D02*
X120744655Y-25029938D01*
X120696813Y-105978050D02*
X120648502Y-105986433D01*
X120744655Y-25029938D02*
X120791912Y-25043016D01*
X120744655Y-105967307D02*
X120696813Y-105978050D01*
X120791912Y-25043016D02*
X120838471Y-25058397D01*
X120791912Y-105954229D02*
X120744655Y-105967307D01*
X120838471Y-25058397D02*
X120884218Y-25076044D01*
X120838471Y-105938848D02*
X120791912Y-105954229D01*
X120884218Y-25076044D02*
X120929045Y-25095914D01*
X120884218Y-105921201D02*
X120838471Y-105938848D01*
X120929045Y-25095914D02*
X120972843Y-25117960D01*
X120929045Y-105901331D02*
X120884218Y-105921201D01*
X120965323Y-29892204D02*
X120244893Y-30270130D01*
X120965323Y-62105041D02*
X121008534Y-62129048D01*
X120965323Y-68892204D02*
X120244893Y-69270130D01*
X120965323Y-101105041D02*
X121008534Y-101129048D01*
X120972843Y-25117960D02*
X121015506Y-25142129D01*
X120972843Y-105879285D02*
X120929045Y-105901331D01*
X121008534Y-29868197D02*
X120965323Y-29892204D01*
X121008534Y-62129048D02*
X121050495Y-62155155D01*
X121008534Y-68868197D02*
X120965323Y-68892204D01*
X121008534Y-101129048D02*
X121050495Y-101155155D01*
X121015506Y-25142129D02*
X121056932Y-25168361D01*
X121015506Y-105855116D02*
X120972843Y-105879285D01*
X121050495Y-29842090D02*
X121008534Y-29868197D01*
X121050495Y-62155155D02*
X121091113Y-62183306D01*
X121050495Y-68842090D02*
X121008534Y-68868197D01*
X121050495Y-101155155D02*
X121091113Y-101183306D01*
X121056932Y-25168361D02*
X121097021Y-25196595D01*
X121056932Y-105828884D02*
X121015506Y-105855116D01*
X121091113Y-29813939D02*
X121050495Y-29842090D01*
X121091113Y-62183306D02*
X121130289Y-62213431D01*
X121091113Y-68813939D02*
X121050495Y-68842090D01*
X121091113Y-101183306D02*
X121130289Y-101213431D01*
X121097021Y-25196595D02*
X121135677Y-25226762D01*
X121097021Y-105800650D02*
X121056932Y-105828884D01*
X121130289Y-29783814D02*
X121091113Y-29813939D01*
X121130289Y-62213431D02*
X121167927Y-62245457D01*
X121130289Y-68783814D02*
X121091113Y-68813939D01*
X121130289Y-101213431D02*
X121167927Y-101245457D01*
X121135677Y-25226762D02*
X121172805Y-25258789D01*
X121135677Y-105770483D02*
X121097021Y-105800650D01*
X121167927Y-29751788D02*
X121130289Y-29783814D01*
X121167927Y-62245457D02*
X121203935Y-62279304D01*
X121167927Y-68751788D02*
X121130289Y-68783814D01*
X121167927Y-101245457D02*
X121203935Y-101279304D01*
X121172805Y-25258789D02*
X121208317Y-25292600D01*
X121172805Y-105738456D02*
X121135677Y-105770483D01*
X121203935Y-29717941D02*
X121167927Y-29751788D01*
X121203935Y-62279304D02*
X121238226Y-62314891D01*
X121203935Y-68717941D02*
X121167927Y-68751788D01*
X121203935Y-101279304D02*
X121238226Y-101314891D01*
X121208317Y-25292600D02*
X121242128Y-25328112D01*
X121208317Y-105704645D02*
X121172805Y-105738456D01*
X121238226Y-29682354D02*
X121203935Y-29717941D01*
X121238226Y-62314891D02*
X121270714Y-62352131D01*
X121238226Y-68682354D02*
X121203935Y-68717941D01*
X121238226Y-101314891D02*
X121270714Y-101352131D01*
X121242128Y-25328112D02*
X121274155Y-25365241D01*
X121242128Y-105669133D02*
X121208317Y-105704645D01*
X121270714Y-29645114D02*
X121238226Y-29682354D01*
X121270714Y-62352131D02*
X121301322Y-62390931D01*
X121270714Y-68645114D02*
X121238226Y-68682354D01*
X121270714Y-101352131D02*
X121301322Y-101390931D01*
X121274155Y-25365241D02*
X121304322Y-25403896D01*
X121274155Y-105632004D02*
X121242128Y-105669133D01*
X121301322Y-29606314D02*
X121270714Y-29645114D01*
X121301322Y-62390931D02*
X121329973Y-62431198D01*
X121301322Y-68606314D02*
X121270714Y-68645114D01*
X121301322Y-101390931D02*
X121329973Y-101431198D01*
X121304322Y-25403896D02*
X121332556Y-25443985D01*
X121304322Y-105593349D02*
X121274155Y-105632004D01*
X121329973Y-29566047D02*
X121301322Y-29606314D01*
X121329973Y-62431198D02*
X121356597Y-62472832D01*
X121329973Y-68566047D02*
X121301322Y-68606314D01*
X121329973Y-101431198D02*
X121356597Y-101472832D01*
X121332556Y-25443985D02*
X121358788Y-25485411D01*
X121332556Y-105553260D02*
X121304322Y-105593349D01*
X121356597Y-29524413D02*
X121329973Y-29566047D01*
X121356597Y-62472832D02*
X121381130Y-62515732D01*
X121356597Y-68524413D02*
X121329973Y-68566047D01*
X121356597Y-101472832D02*
X121381130Y-101515732D01*
X121358788Y-25485411D02*
X121382957Y-25528074D01*
X121358788Y-105511834D02*
X121332556Y-105553260D01*
X121381130Y-29481513D02*
X121356597Y-29524413D01*
X121381130Y-62515732D02*
X121403512Y-62559792D01*
X121381130Y-68481513D02*
X121356597Y-68524413D01*
X121381130Y-101515732D02*
X121403512Y-101559792D01*
X121382957Y-25528074D02*
X121405003Y-25571872D01*
X121382957Y-105469171D02*
X121358788Y-105511834D01*
X121403512Y-29437453D02*
X121381130Y-29481513D01*
X121403512Y-62559792D02*
X121423687Y-62604906D01*
X121403512Y-68437453D02*
X121381130Y-68481513D01*
X121403512Y-101559792D02*
X121423687Y-101604906D01*
X121405003Y-25571872D02*
X121424873Y-25616699D01*
X121405003Y-105425373D02*
X121382957Y-105469171D01*
X121423687Y-29392339D02*
X121403512Y-29437453D01*
X121423687Y-62604906D02*
X121441606Y-62650962D01*
X121423687Y-68392339D02*
X121403512Y-68437453D01*
X121423687Y-101604906D02*
X121441606Y-101650962D01*
X121424873Y-25616699D02*
X121442520Y-25662446D01*
X121424873Y-105380546D02*
X121405003Y-105425373D01*
X121441606Y-29346283D02*
X121423687Y-29392339D01*
X121441606Y-62650962D02*
X121457226Y-62697848D01*
X121441606Y-68346283D02*
X121423687Y-68392339D01*
X121441606Y-101650962D02*
X121457226Y-101697848D01*
X121442520Y-25662446D02*
X121457901Y-25709005D01*
X121442520Y-105334799D02*
X121424873Y-105380546D01*
X121457226Y-29299397D02*
X121441606Y-29346283D01*
X121457226Y-62697848D02*
X121470508Y-62745449D01*
X121457226Y-68299397D02*
X121441606Y-68346283D01*
X121457226Y-101697848D02*
X121470508Y-101745449D01*
X121457901Y-25709005D02*
X121470979Y-25756262D01*
X121457901Y-105288240D02*
X121442520Y-105334799D01*
X121470508Y-29251796D02*
X121457226Y-29299397D01*
X121470508Y-62745449D02*
X121481420Y-62793649D01*
X121470508Y-68251796D02*
X121457226Y-68299397D01*
X121470508Y-101745449D02*
X121481420Y-101793649D01*
X121470979Y-25756262D02*
X121481722Y-25804104D01*
X121470979Y-105240983D02*
X121457901Y-105288240D01*
X121481420Y-29203596D02*
X121470508Y-29251796D01*
X121481420Y-62793649D02*
X121489934Y-62842329D01*
X121481420Y-68203596D02*
X121470508Y-68251796D01*
X121481420Y-101793649D02*
X121489934Y-101842329D01*
X121481722Y-25804104D02*
X121490105Y-25852416D01*
X121481722Y-105193141D02*
X121470979Y-105240983D01*
X121489934Y-29154916D02*
X121481420Y-29203596D01*
X121489934Y-62842329D02*
X121496031Y-62891371D01*
X121489934Y-68154916D02*
X121481420Y-68203596D01*
X121489934Y-101842329D02*
X121496031Y-101891371D01*
X121490105Y-25852416D02*
X121496107Y-25901080D01*
X121490105Y-105144829D02*
X121481722Y-105193141D01*
X121496031Y-29105874D02*
X121489934Y-29154916D01*
X121496031Y-62891371D02*
X121499695Y-62940655D01*
X121496031Y-68105874D02*
X121489934Y-68154916D01*
X121496031Y-101891371D02*
X121499695Y-101940655D01*
X121496107Y-25901080D02*
X121499714Y-25949981D01*
X121496107Y-105096165D02*
X121490105Y-105144829D01*
X121499695Y-29056590D02*
X121496031Y-29105874D01*
X121499695Y-62940655D02*
X121500918Y-62990071D01*
X121499695Y-68056590D02*
X121496031Y-68105874D01*
X121499695Y-101940655D02*
X121500918Y-101990071D01*
X121499714Y-25949981D02*
X121500918Y-25999012D01*
X121499714Y-105047264D02*
X121496107Y-105096165D01*
X121500918Y-25999012D02*
X121500918Y-29007174D01*
X121500918Y-29007174D02*
X121499695Y-29056590D01*
X121500918Y-62990071D02*
X121500918Y-68007174D01*
X121500918Y-68007174D02*
X121499695Y-68056590D01*
X121500918Y-101990071D02*
X121500918Y-104998233D01*
X121500918Y-104998233D02*
X121499714Y-105047264D01*
X124500918Y-25999012D02*
X124502121Y-25949981D01*
X124500918Y-27329879D02*
X124500918Y-25999012D01*
X124500918Y-64667366D02*
X124502107Y-64618635D01*
X124500918Y-66329879D02*
X124500918Y-64667366D01*
X124500918Y-103667366D02*
X124502107Y-103618635D01*
X124500918Y-104998233D02*
X124500918Y-103667366D01*
X124502107Y-27378610D02*
X124500918Y-27329879D01*
X124502107Y-64618635D02*
X124505670Y-64570032D01*
X124502107Y-66378610D02*
X124500918Y-66329879D01*
X124502107Y-103618635D02*
X124505670Y-103570032D01*
X124502121Y-25949981D02*
X124505729Y-25901080D01*
X124502121Y-105047264D02*
X124500918Y-104998233D01*
X124505670Y-27427213D02*
X124502107Y-27378610D01*
X124505670Y-64570032D02*
X124511599Y-64521661D01*
X124505670Y-66427213D02*
X124502107Y-66378610D01*
X124505670Y-103570032D02*
X124511599Y-103521661D01*
X124505729Y-25901080D02*
X124511731Y-25852416D01*
X124505729Y-105096165D02*
X124502121Y-105047264D01*
X124511599Y-27475584D02*
X124505670Y-27427213D01*
X124511599Y-64521661D02*
X124519880Y-64473636D01*
X124511599Y-66475584D02*
X124505670Y-66427213D01*
X124511599Y-103521661D02*
X124519880Y-103473636D01*
X124511731Y-25852416D02*
X124520114Y-25804104D01*
X124511731Y-105144829D02*
X124505729Y-105096165D01*
X124519880Y-27523609D02*
X124511599Y-27475584D01*
X124519880Y-64473636D02*
X124530493Y-64426073D01*
X124519880Y-66523609D02*
X124511599Y-66475584D01*
X124519880Y-103473636D02*
X124530493Y-103426073D01*
X124520114Y-25804104D02*
X124530857Y-25756262D01*
X124520114Y-105193141D02*
X124511731Y-105144829D01*
X124530493Y-27571172D02*
X124519880Y-27523609D01*
X124530493Y-64426073D02*
X124543413Y-64379084D01*
X124530493Y-66571172D02*
X124519880Y-66523609D01*
X124530493Y-103426073D02*
X124543413Y-103379084D01*
X124530857Y-25756262D02*
X124543935Y-25709005D01*
X124530857Y-105240983D02*
X124520114Y-105193141D01*
X124543413Y-27618161D02*
X124530493Y-27571172D01*
X124543413Y-64379084D02*
X124558609Y-64332781D01*
X124543413Y-66618161D02*
X124530493Y-66571172D01*
X124543413Y-103379084D02*
X124558609Y-103332781D01*
X124543935Y-25709005D02*
X124559316Y-25662446D01*
X124543935Y-105288240D02*
X124530857Y-105240983D01*
X124558609Y-27664464D02*
X124543413Y-27618161D01*
X124558609Y-64332781D02*
X124576046Y-64287273D01*
X124558609Y-66664464D02*
X124543413Y-66618161D01*
X124558609Y-103332781D02*
X124576046Y-103287273D01*
X124559316Y-25662446D02*
X124576962Y-25616699D01*
X124559316Y-105334799D02*
X124543935Y-105288240D01*
X124576046Y-27709972D02*
X124558609Y-27664464D01*
X124576046Y-64287273D02*
X124595680Y-64242671D01*
X124576046Y-66709972D02*
X124558609Y-66664464D01*
X124576046Y-103287273D02*
X124595680Y-103242671D01*
X124576962Y-25616699D02*
X124596833Y-25571872D01*
X124576962Y-105380546D02*
X124559316Y-105334799D01*
X124595680Y-27754574D02*
X124576046Y-27709972D01*
X124595680Y-64242671D02*
X124617467Y-64199079D01*
X124595680Y-66754574D02*
X124576046Y-66709972D01*
X124595680Y-103242671D02*
X124617467Y-103199079D01*
X124596833Y-25571872D02*
X124618879Y-25528074D01*
X124596833Y-105425373D02*
X124576962Y-105380546D01*
X124617467Y-27798166D02*
X124595680Y-27754574D01*
X124617467Y-64199079D02*
X124641354Y-64156601D01*
X124617467Y-66798166D02*
X124595680Y-66754574D01*
X124617467Y-103199079D02*
X124641354Y-103156601D01*
X124618879Y-25528074D02*
X124643047Y-25485411D01*
X124618879Y-105469171D02*
X124596833Y-105425373D01*
X124641354Y-27840644D02*
X124617467Y-27798166D01*
X124641354Y-64156601D02*
X124667283Y-64115339D01*
X124641354Y-66840644D02*
X124617467Y-66798166D01*
X124641354Y-103156601D02*
X124667283Y-103115339D01*
X124643047Y-25485411D02*
X124669280Y-25443985D01*
X124643047Y-105511834D02*
X124618879Y-105469171D01*
X124667283Y-27881906D02*
X124641354Y-27840644D01*
X124667283Y-64115339D02*
X124695194Y-64075390D01*
X124667283Y-66881906D02*
X124641354Y-66840644D01*
X124667283Y-103115339D02*
X124695194Y-103075390D01*
X124669280Y-25443985D02*
X124697514Y-25403896D01*
X124669280Y-105553260D02*
X124643047Y-105511834D01*
X124695194Y-27921855D02*
X124667283Y-27881906D01*
X124695194Y-64075390D02*
X124725020Y-64036850D01*
X124695194Y-66921855D02*
X124667283Y-66881906D01*
X124695194Y-103075390D02*
X124725020Y-103036850D01*
X124697514Y-25403896D02*
X124727681Y-25365241D01*
X124697514Y-105593349D02*
X124669280Y-105553260D01*
X124725020Y-27960395D02*
X124695194Y-27921855D01*
X124725020Y-64036850D02*
X124756690Y-63999811D01*
X124725020Y-66960395D02*
X124695194Y-66921855D01*
X124725020Y-103036850D02*
X124756690Y-102999811D01*
X124727681Y-25365241D02*
X124759708Y-25328112D01*
X124727681Y-105632004D02*
X124697514Y-105593349D01*
X124756690Y-27997434D02*
X124725020Y-27960395D01*
X124756690Y-63999811D02*
X124790129Y-63964360D01*
X124756690Y-66997434D02*
X124725020Y-66960395D01*
X124756690Y-102999811D02*
X124790129Y-102964360D01*
X124759708Y-25328112D02*
X124793518Y-25292600D01*
X124759708Y-105669133D02*
X124727681Y-105632004D01*
X124790129Y-28032885D02*
X124756690Y-27997434D01*
X124790129Y-63964360D02*
X124825256Y-63930582D01*
X124790129Y-67032885D02*
X124756690Y-66997434D01*
X124790129Y-102964360D02*
X124825256Y-102930582D01*
X124793518Y-25292600D02*
X124829031Y-25258789D01*
X124793518Y-105704645D02*
X124759708Y-105669133D01*
X124825256Y-28066663D02*
X124790129Y-28032885D01*
X124825256Y-63930582D02*
X124861990Y-63898557D01*
X124825256Y-67066663D02*
X124790129Y-67032885D01*
X124825256Y-102930582D02*
X124861990Y-102898557D01*
X124829031Y-25258789D02*
X124866159Y-25226762D01*
X124829031Y-105738456D02*
X124793518Y-105704645D01*
X124861990Y-28098688D02*
X124825256Y-28066663D01*
X124861990Y-63898557D02*
X124900241Y-63868361D01*
X124861990Y-67098688D02*
X124825256Y-67066663D01*
X124861990Y-102898557D02*
X124900241Y-102868361D01*
X124866159Y-25226762D02*
X124904814Y-25196595D01*
X124866159Y-105770483D02*
X124829031Y-105738456D01*
X124900241Y-28128884D02*
X124861990Y-28098688D01*
X124900241Y-63868361D02*
X124939919Y-63840067D01*
X124900241Y-67128884D02*
X124861990Y-67098688D01*
X124900241Y-102868361D02*
X124939919Y-102840067D01*
X124904814Y-25196595D02*
X124944903Y-25168361D01*
X124904814Y-105800650D02*
X124866159Y-105770483D01*
X124939919Y-28157178D02*
X124900241Y-28128884D01*
X124939919Y-63840067D02*
X124980930Y-63813742D01*
X124939919Y-67157178D02*
X124900241Y-67128884D01*
X124939919Y-102840067D02*
X124980930Y-102813742D01*
X124944903Y-25168361D02*
X124986329Y-25142129D01*
X124944903Y-105828884D02*
X124904814Y-105800650D01*
X124980930Y-28183503D02*
X124939919Y-28157178D01*
X124980930Y-63813742D02*
X125023176Y-63789448D01*
X124980930Y-67183503D02*
X124939919Y-67157178D01*
X124980930Y-102813742D02*
X125023176Y-102789448D01*
X124986329Y-25142129D02*
X125028993Y-25117960D01*
X124986329Y-105855116D02*
X124944903Y-105828884D01*
X125023176Y-28207797D02*
X124980930Y-28183503D01*
X125023176Y-63789448D02*
X125066556Y-63767243D01*
X125023176Y-67207797D02*
X124980930Y-67183503D01*
X125023176Y-102789448D02*
X125066556Y-102767243D01*
X125028993Y-25117960D02*
X125072790Y-25095914D01*
X125028993Y-105879285D02*
X124986329Y-105855116D01*
X125066556Y-28230002D02*
X125023176Y-28207797D01*
X125066556Y-63767243D02*
X125110968Y-63747180D01*
X125066556Y-67230002D02*
X125023176Y-67207797D01*
X125066556Y-102767243D02*
X125110968Y-102747180D01*
X125072790Y-25095914D02*
X125117617Y-25076044D01*
X125072790Y-105901331D02*
X125028993Y-105879285D01*
X125110968Y-28250065D02*
X125066556Y-28230002D01*
X125110968Y-63747180D02*
X125156305Y-63729307D01*
X125110968Y-67250065D02*
X125066556Y-67230002D01*
X125110968Y-102747180D02*
X125156305Y-102729307D01*
X125117617Y-25076044D02*
X125163365Y-25058397D01*
X125117617Y-105921201D02*
X125072790Y-105901331D01*
X125156305Y-28267938D02*
X125110968Y-28250065D01*
X125156305Y-63729307D02*
X125202460Y-63713666D01*
X125156305Y-67267938D02*
X125110968Y-67250065D01*
X125156305Y-102729307D02*
X125202460Y-102713666D01*
X125163365Y-25058397D02*
X125209924Y-25043016D01*
X125163365Y-105938848D02*
X125117617Y-105921201D01*
X125202460Y-28283579D02*
X125156305Y-28267938D01*
X125202460Y-63713666D02*
X125249323Y-63700295D01*
X125202460Y-67283579D02*
X125156305Y-67267938D01*
X125202460Y-102713666D02*
X125249323Y-102700295D01*
X125209924Y-25043016D02*
X125257181Y-25029938D01*
X125209924Y-105954229D02*
X125163365Y-105938848D01*
X125249323Y-28296950D02*
X125202460Y-28283579D01*
X125249323Y-63700295D02*
X125296782Y-63689224D01*
X125249323Y-67296950D02*
X125202460Y-67283579D01*
X125249323Y-102700295D02*
X125296782Y-102689224D01*
X125257181Y-25029938D02*
X125305023Y-25019195D01*
X125257181Y-105967307D02*
X125209924Y-105954229D01*
X125296782Y-28308021D02*
X125249323Y-28296950D01*
X125296782Y-63689224D02*
X125344725Y-63680482D01*
X125296782Y-67308021D02*
X125249323Y-67296950D01*
X125296782Y-102689224D02*
X125344725Y-102680482D01*
X125305023Y-25019195D02*
X125353334Y-25010812D01*
X125305023Y-105978050D02*
X125257181Y-105967307D01*
X125344725Y-28316763D02*
X125296782Y-28308021D01*
X125344725Y-63680482D02*
X125393037Y-63674088D01*
X125344725Y-67316763D02*
X125296782Y-67308021D01*
X125344725Y-102680482D02*
X125393037Y-102674088D01*
X125353334Y-25010812D02*
X125401999Y-25004810D01*
X125353334Y-105986433D02*
X125305023Y-105978050D01*
X125393037Y-28323157D02*
X125344725Y-28316763D01*
X125393037Y-63674088D02*
X125441603Y-63670057D01*
X125393037Y-67323157D02*
X125344725Y-67316763D01*
X125393037Y-102674088D02*
X125441603Y-102670057D01*
X125401999Y-25004810D02*
X125450899Y-25001203D01*
X125401999Y-105992435D02*
X125353334Y-105986433D01*
X125441603Y-28327188D02*
X125393037Y-28323157D01*
X125441603Y-63670057D02*
X125490308Y-63668400D01*
X125441603Y-67327188D02*
X125393037Y-67323157D01*
X125441603Y-102670057D02*
X125490308Y-102668400D01*
X125450899Y-25001203D02*
X125499930Y-24999999D01*
X125450899Y-105996042D02*
X125401999Y-105992435D01*
X125490308Y-28328845D02*
X125441603Y-28327188D01*
X125490308Y-63668400D02*
X125539035Y-63669120D01*
X125490308Y-67328845D02*
X125441603Y-67327188D01*
X125490308Y-102668400D02*
X125539035Y-102669120D01*
X125499930Y-24999999D02*
X132500070Y-24999999D01*
X125499930Y-105997246D02*
X125450899Y-105996042D01*
X125539035Y-28328125D02*
X125490308Y-28328845D01*
X125539035Y-63669120D02*
X125587670Y-63672215D01*
X125539035Y-67328125D02*
X125490308Y-67328845D01*
X125539035Y-102669120D02*
X125587670Y-102672215D01*
X125587670Y-28325030D02*
X125539035Y-28328125D01*
X125587670Y-63672215D02*
X125636096Y-63677679D01*
X125587670Y-67325030D02*
X125539035Y-67328125D01*
X125587670Y-102672215D02*
X125636096Y-102677679D01*
X125636096Y-28319566D02*
X125587670Y-28325030D01*
X125636096Y-63677679D02*
X125684210Y-63685499D01*
X125636096Y-67319566D02*
X125587670Y-67325030D01*
X125636096Y-102677679D02*
X125684210Y-102685499D01*
X125684210Y-28311746D02*
X125636096Y-28319566D01*
X125684210Y-63685499D02*
X126127709Y-63768116D01*
X125684210Y-67311746D02*
X125636096Y-67319566D01*
X125684210Y-102685499D02*
X126127709Y-102768116D01*
X126127709Y-28229129D02*
X125684210Y-28311746D01*
X126127709Y-63768116D02*
X127010012Y-63888285D01*
X126127709Y-67229129D02*
X125684210Y-67311746D01*
X126127709Y-102768116D02*
X127010012Y-102888285D01*
X127009987Y-28108962D02*
X126127709Y-28229129D01*
X127010012Y-63888285D02*
X127897129Y-63964671D01*
X127010012Y-67108960D02*
X126127709Y-67229129D01*
X127010012Y-102888285D02*
X127897129Y-102964671D01*
X127897129Y-28032574D02*
X127009987Y-28108962D01*
X127897129Y-63964671D02*
X128786963Y-63997093D01*
X127897129Y-67032574D02*
X127010012Y-67108960D01*
X127897129Y-102964671D02*
X128786963Y-102997093D01*
X128786963Y-28000152D02*
X127897129Y-28032574D01*
X128786963Y-63997093D02*
X129677312Y-63985469D01*
X128786963Y-102997093D02*
X129677312Y-102985469D01*
X128786988Y-67000152D02*
X127897129Y-67032574D01*
X129677312Y-28011776D02*
X128786963Y-28000152D01*
X129677312Y-63985469D02*
X130541407Y-63931963D01*
X129677312Y-67011776D02*
X128786988Y-67000152D01*
X129677312Y-102985469D02*
X130541407Y-102931963D01*
X130541407Y-63931963D02*
X131426388Y-63833656D01*
X130541407Y-67065282D02*
X129677312Y-67011776D01*
X130541407Y-102931963D02*
X131450841Y-102830308D01*
X130565996Y-28067416D02*
X129677312Y-28011776D01*
X131426388Y-63833656D02*
X132363904Y-63681937D01*
X131450841Y-28166937D02*
X130565996Y-28067416D01*
X131450841Y-67166937D02*
X130541407Y-67065282D01*
X131450841Y-102830308D02*
X132363904Y-102681937D01*
X132363904Y-28315308D02*
X131450841Y-28166937D01*
X132363904Y-63681937D02*
X132412330Y-63676474D01*
X132363904Y-67315308D02*
X131450841Y-67166937D01*
X132363904Y-102681937D02*
X132412330Y-102676474D01*
X132412330Y-28320771D02*
X132363904Y-28315308D01*
X132412330Y-63676474D02*
X132460965Y-63673378D01*
X132412330Y-67320771D02*
X132363904Y-67315308D01*
X132412330Y-102676474D02*
X132460965Y-102673378D01*
X132460965Y-28323867D02*
X132412330Y-28320771D01*
X132460965Y-63673378D02*
X132509692Y-63672658D01*
X132460965Y-67323867D02*
X132412330Y-67320771D01*
X132460965Y-102673378D02*
X132509692Y-102672658D01*
X132500070Y-24999999D02*
X132549101Y-25001203D01*
X132500070Y-105997246D02*
X125499930Y-105997246D01*
X132509692Y-28324587D02*
X132460965Y-28323867D01*
X132509692Y-63672658D02*
X132558397Y-63674316D01*
X132509692Y-67324587D02*
X132460965Y-67323867D01*
X132509692Y-102672658D02*
X132558397Y-102674316D01*
X132549101Y-25001203D02*
X132598001Y-25004810D01*
X132549101Y-105996042D02*
X132500070Y-105997246D01*
X132558397Y-28322929D02*
X132509692Y-28324587D01*
X132558397Y-63674316D02*
X132606963Y-63678346D01*
X132558397Y-67322929D02*
X132509692Y-67324587D01*
X132558397Y-102674316D02*
X132606963Y-102678346D01*
X132598001Y-25004810D02*
X132646666Y-25010812D01*
X132598001Y-105992435D02*
X132549101Y-105996042D01*
X132606963Y-28318899D02*
X132558397Y-28322929D01*
X132606963Y-63678346D02*
X132655275Y-63684740D01*
X132606963Y-67318899D02*
X132558397Y-67322929D01*
X132606963Y-102678346D02*
X132655275Y-102684740D01*
X132646666Y-25010812D02*
X132694977Y-25019195D01*
X132646666Y-105986433D02*
X132598001Y-105992435D01*
X132655275Y-28312505D02*
X132606963Y-28318899D01*
X132655275Y-63684740D02*
X132703218Y-63693483D01*
X132655275Y-67312505D02*
X132606963Y-67318899D01*
X132655275Y-102684740D02*
X132703218Y-102693483D01*
X132694977Y-25019195D02*
X132742819Y-25029938D01*
X132694977Y-105978050D02*
X132646666Y-105986433D01*
X132703218Y-28303762D02*
X132655275Y-28312505D01*
X132703218Y-63693483D02*
X132750677Y-63704553D01*
X132703218Y-67303762D02*
X132655275Y-67312505D01*
X132703218Y-102693483D02*
X132750677Y-102704553D01*
X132742819Y-25029938D02*
X132790076Y-25043016D01*
X132742819Y-105967307D02*
X132694977Y-105978050D01*
X132750677Y-28292692D02*
X132703218Y-28303762D01*
X132750677Y-63704553D02*
X132797540Y-63717925D01*
X132750677Y-67292692D02*
X132703218Y-67303762D01*
X132750677Y-102704553D02*
X132797540Y-102717925D01*
X132790076Y-25043016D02*
X132836635Y-25058397D01*
X132790076Y-105954229D02*
X132742819Y-105967307D01*
X132797540Y-28279320D02*
X132750677Y-28292692D01*
X132797540Y-63717925D02*
X132843695Y-63733566D01*
X132797540Y-67279320D02*
X132750677Y-67292692D01*
X132797540Y-102717925D02*
X132843695Y-102733566D01*
X132836635Y-25058397D02*
X132882383Y-25076044D01*
X132836635Y-105938848D02*
X132790076Y-105954229D01*
X132843695Y-28263679D02*
X132797540Y-28279320D01*
X132843695Y-63733566D02*
X132889032Y-63751439D01*
X132843695Y-67263679D02*
X132797540Y-67279320D01*
X132843695Y-102733566D02*
X132889032Y-102751439D01*
X132882383Y-25076044D02*
X132927210Y-25095914D01*
X132882383Y-105921201D02*
X132836635Y-105938848D01*
X132889032Y-28245806D02*
X132843695Y-28263679D01*
X132889032Y-63751439D02*
X132933444Y-63771502D01*
X132889032Y-67245806D02*
X132843695Y-67263679D01*
X132889032Y-102751439D02*
X132933444Y-102771502D01*
X132927210Y-25095914D02*
X132971007Y-25117960D01*
X132927210Y-105901331D02*
X132882383Y-105921201D01*
X132933444Y-28225743D02*
X132889032Y-28245806D01*
X132933444Y-63771502D02*
X132976824Y-63793707D01*
X132933444Y-67225743D02*
X132889032Y-67245806D01*
X132933444Y-102771502D02*
X132976824Y-102793707D01*
X132971007Y-25117960D02*
X133013671Y-25142129D01*
X132971007Y-105879285D02*
X132927210Y-105901331D01*
X132976824Y-28203538D02*
X132933444Y-28225743D01*
X132976824Y-63793707D02*
X133019070Y-63818001D01*
X132976824Y-67203538D02*
X132933444Y-67225743D01*
X132976824Y-102793707D02*
X133019070Y-102818001D01*
X133013671Y-25142129D02*
X133055097Y-25168361D01*
X133013671Y-105855116D02*
X132971007Y-105879285D01*
X133019070Y-28179244D02*
X132976824Y-28203538D01*
X133019070Y-63818001D02*
X133060081Y-63844326D01*
X133019070Y-67179244D02*
X132976824Y-67203538D01*
X133019070Y-102818001D02*
X133060081Y-102844326D01*
X133055097Y-25168361D02*
X133095186Y-25196595D01*
X133055097Y-105828884D02*
X133013671Y-105855116D01*
X133060081Y-28152919D02*
X133019070Y-28179244D01*
X133060081Y-63844326D02*
X133099759Y-63872620D01*
X133060081Y-67152919D02*
X133019070Y-67179244D01*
X133060081Y-102844326D02*
X133099759Y-102872620D01*
X133095186Y-25196595D02*
X133133841Y-25226762D01*
X133095186Y-105800650D02*
X133055097Y-105828884D01*
X133099759Y-28124625D02*
X133060081Y-28152919D01*
X133099759Y-63872620D02*
X133138010Y-63902815D01*
X133099759Y-67124625D02*
X133060081Y-67152919D01*
X133099759Y-102872620D02*
X133138010Y-102902815D01*
X133133841Y-25226762D02*
X133170969Y-25258789D01*
X133133841Y-105770483D02*
X133095186Y-105800650D01*
X133138010Y-28094430D02*
X133099759Y-28124625D01*
X133138010Y-63902815D02*
X133174743Y-63934840D01*
X133138010Y-67094430D02*
X133099759Y-67124625D01*
X133138010Y-102902815D02*
X133174743Y-102934840D01*
X133170969Y-25258789D02*
X133206482Y-25292600D01*
X133170969Y-105738456D02*
X133133841Y-105770483D01*
X133174743Y-28062405D02*
X133138010Y-28094430D01*
X133174743Y-63934840D02*
X133209871Y-63968618D01*
X133174743Y-67062405D02*
X133138010Y-67094430D01*
X133174743Y-102934840D02*
X133209871Y-102968618D01*
X133206482Y-25292600D02*
X133240292Y-25328112D01*
X133206482Y-105704645D02*
X133170969Y-105738456D01*
X133209871Y-28028627D02*
X133174743Y-28062405D01*
X133209871Y-63968618D02*
X133243310Y-64004069D01*
X133209871Y-67028627D02*
X133174743Y-67062405D01*
X133209871Y-102968618D02*
X133243310Y-103004069D01*
X133240292Y-25328112D02*
X133272319Y-25365241D01*
X133240292Y-105669133D02*
X133206482Y-105704645D01*
X133243310Y-27993176D02*
X133209871Y-28028627D01*
X133243310Y-64004069D02*
X133274980Y-64041109D01*
X133243310Y-66993176D02*
X133209871Y-67028627D01*
X133243310Y-103004069D02*
X133274980Y-103041109D01*
X133272319Y-25365241D02*
X133302486Y-25403896D01*
X133272319Y-105632004D02*
X133240292Y-105669133D01*
X133274980Y-27956136D02*
X133243310Y-27993176D01*
X133274980Y-64041109D02*
X133304806Y-64079649D01*
X133274980Y-66956136D02*
X133243310Y-66993176D01*
X133274980Y-103041109D02*
X133304806Y-103079649D01*
X133302486Y-25403896D02*
X133330720Y-25443985D01*
X133302486Y-105593349D02*
X133272319Y-105632004D01*
X133304806Y-27917596D02*
X133274980Y-27956136D01*
X133304806Y-64079649D02*
X133332717Y-64119598D01*
X133304806Y-66917596D02*
X133274980Y-66956136D01*
X133304806Y-103079649D02*
X133332717Y-103119598D01*
X133330720Y-25443985D02*
X133356953Y-25485411D01*
X133330720Y-105553260D02*
X133302486Y-105593349D01*
X133332717Y-27877647D02*
X133304806Y-27917596D01*
X133332717Y-64119598D02*
X133358646Y-64160860D01*
X133332717Y-66877647D02*
X133304806Y-66917596D01*
X133332717Y-103119598D02*
X133358646Y-103160860D01*
X133356953Y-25485411D02*
X133381121Y-25528074D01*
X133356953Y-105511834D02*
X133330720Y-105553260D01*
X133358646Y-27836385D02*
X133332717Y-27877647D01*
X133358646Y-64160860D02*
X133382533Y-64203337D01*
X133358646Y-66836385D02*
X133332717Y-66877647D01*
X133358646Y-103160860D02*
X133382533Y-103203337D01*
X133381121Y-25528074D02*
X133403167Y-25571872D01*
X133381121Y-105469171D02*
X133356953Y-105511834D01*
X133382533Y-27793908D02*
X133358646Y-27836385D01*
X133382533Y-64203337D02*
X133404320Y-64246929D01*
X133382533Y-66793908D02*
X133358646Y-66836385D01*
X133382533Y-103203337D02*
X133404320Y-103246929D01*
X133403167Y-25571872D02*
X133423038Y-25616699D01*
X133403167Y-105425373D02*
X133381121Y-105469171D01*
X133404320Y-27750316D02*
X133382533Y-27793908D01*
X133404320Y-64246929D02*
X133423954Y-64291532D01*
X133404320Y-66750316D02*
X133382533Y-66793908D01*
X133404320Y-103246929D02*
X133423954Y-103291532D01*
X133423038Y-25616699D02*
X133440684Y-25662446D01*
X133423038Y-105380546D02*
X133403167Y-105425373D01*
X133423954Y-27705713D02*
X133404320Y-27750316D01*
X133423954Y-64291532D02*
X133441391Y-64337039D01*
X133423954Y-66705713D02*
X133404320Y-66750316D01*
X133423954Y-103291532D02*
X133441391Y-103337039D01*
X133440684Y-25662446D02*
X133456065Y-25709005D01*
X133440684Y-105334799D02*
X133423038Y-105380546D01*
X133441391Y-27660206D02*
X133423954Y-27705713D01*
X133441391Y-64337039D02*
X133456587Y-64383342D01*
X133441391Y-66660206D02*
X133423954Y-66705713D01*
X133441391Y-103337039D02*
X133456587Y-103383342D01*
X133456065Y-25709005D02*
X133469143Y-25756262D01*
X133456065Y-105288240D02*
X133440684Y-105334799D01*
X133456587Y-27613903D02*
X133441391Y-27660206D01*
X133456587Y-64383342D02*
X133469507Y-64430332D01*
X133456587Y-66613903D02*
X133441391Y-66660206D01*
X133456587Y-103383342D02*
X133469507Y-103430332D01*
X133469143Y-25756262D02*
X133479886Y-25804104D01*
X133469143Y-105240983D02*
X133456065Y-105288240D01*
X133469507Y-27566913D02*
X133456587Y-27613903D01*
X133469507Y-64430332D02*
X133480120Y-64477895D01*
X133469507Y-66566913D02*
X133456587Y-66613903D01*
X133469507Y-103430332D02*
X133480120Y-103477895D01*
X133479886Y-25804104D02*
X133488269Y-25852416D01*
X133479886Y-105193141D02*
X133469143Y-105240983D01*
X133480120Y-27519350D02*
X133469507Y-27566913D01*
X133480120Y-64477895D02*
X133488401Y-64525919D01*
X133480120Y-66519350D02*
X133469507Y-66566913D01*
X133480120Y-103477895D02*
X133488401Y-103525919D01*
X133488269Y-25852416D02*
X133494271Y-25901080D01*
X133488269Y-105144829D02*
X133479886Y-105193141D01*
X133488401Y-27471326D02*
X133480120Y-27519350D01*
X133488401Y-64525919D02*
X133494330Y-64574291D01*
X133488401Y-66471326D02*
X133480120Y-66519350D01*
X133488401Y-103525919D02*
X133494330Y-103574291D01*
X133494271Y-25901080D02*
X133497879Y-25949981D01*
X133494271Y-105096165D02*
X133488269Y-105144829D01*
X133494330Y-27422954D02*
X133488401Y-27471326D01*
X133494330Y-64574291D02*
X133497893Y-64622893D01*
X133494330Y-66422954D02*
X133488401Y-66471326D01*
X133494330Y-103574291D02*
X133497893Y-103622893D01*
X133497879Y-25949981D02*
X133499082Y-25999012D01*
X133497879Y-105047264D02*
X133494271Y-105096165D01*
X133497893Y-27374352D02*
X133494330Y-27422954D01*
X133497893Y-64622893D02*
X133499082Y-64671624D01*
X133497893Y-66374352D02*
X133494330Y-66422954D01*
X133497893Y-103622893D02*
X133499082Y-103671624D01*
X133499082Y-25999012D02*
X133499082Y-27325621D01*
X133499082Y-27325621D02*
X133497893Y-27374352D01*
X133499082Y-64671624D02*
X133499082Y-66325621D01*
X133499082Y-66325621D02*
X133497893Y-66374352D01*
X133499082Y-103671624D02*
X133499082Y-104998233D01*
X133499082Y-104998233D02*
X133497879Y-105047264D01*
X136499082Y-25999012D02*
X136500286Y-25949981D01*
X136499082Y-29013224D02*
X136499082Y-25999012D01*
X136499082Y-62984021D02*
X136500252Y-62935677D01*
X136499082Y-68013224D02*
X136499082Y-62984021D01*
X136499082Y-101984021D02*
X136500252Y-101935677D01*
X136499082Y-104998233D02*
X136499082Y-101984021D01*
X136500252Y-29061568D02*
X136499082Y-29013224D01*
X136500252Y-62935677D02*
X136503759Y-62887459D01*
X136500252Y-68061568D02*
X136499082Y-68013224D01*
X136500252Y-101935677D02*
X136503759Y-101887459D01*
X136500286Y-25949981D02*
X136503893Y-25901080D01*
X136500286Y-105047264D02*
X136499082Y-104998233D01*
X136503759Y-29109786D02*
X136500252Y-29061568D01*
X136503759Y-62887459D02*
X136509594Y-62839468D01*
X136503759Y-68109786D02*
X136500252Y-68061568D01*
X136503759Y-101887459D02*
X136509594Y-101839468D01*
X136503893Y-25901080D02*
X136509895Y-25852416D01*
X136503893Y-105096165D02*
X136500286Y-105047264D01*
X136509594Y-29157777D02*
X136503759Y-29109786D01*
X136509594Y-62839468D02*
X136517745Y-62791814D01*
X136509594Y-68157777D02*
X136503759Y-68109786D01*
X136509594Y-101839468D02*
X136517745Y-101791814D01*
X136509895Y-25852416D02*
X136518278Y-25804104D01*
X136509895Y-105144829D02*
X136503893Y-105096165D01*
X136517745Y-29205431D02*
X136509594Y-29157777D01*
X136517745Y-62791814D02*
X136528191Y-62744611D01*
X136517745Y-68205431D02*
X136509594Y-68157777D01*
X136517745Y-101791814D02*
X136528191Y-101744611D01*
X136518278Y-25804104D02*
X136529021Y-25756262D01*
X136518278Y-105193141D02*
X136509895Y-105144829D01*
X136528191Y-29252634D02*
X136517745Y-29205431D01*
X136528191Y-62744611D02*
X136540908Y-62697969D01*
X136528191Y-68252634D02*
X136517745Y-68205431D01*
X136528191Y-101744611D02*
X136540908Y-101697969D01*
X136529021Y-25756262D02*
X136542099Y-25709005D01*
X136529021Y-105240983D02*
X136518278Y-105193141D01*
X136540908Y-29299276D02*
X136528191Y-29252634D01*
X136540908Y-62697969D02*
X136555868Y-62651996D01*
X136540908Y-68299276D02*
X136528191Y-68252634D01*
X136540908Y-101697969D02*
X136555868Y-101651996D01*
X136542099Y-25709005D02*
X136557480Y-25662446D01*
X136542099Y-105288240D02*
X136529021Y-105240983D01*
X136555868Y-29345249D02*
X136540908Y-29299276D01*
X136555868Y-62651996D02*
X136573034Y-62606801D01*
X136555868Y-68345249D02*
X136540908Y-68299276D01*
X136555868Y-101651996D02*
X136573034Y-101606801D01*
X136557480Y-25662446D02*
X136575127Y-25616699D01*
X136557480Y-105334799D02*
X136542099Y-105288240D01*
X136573034Y-29390444D02*
X136555868Y-29345249D01*
X136573034Y-62606801D02*
X136592366Y-62562489D01*
X136573034Y-68390444D02*
X136555868Y-68345249D01*
X136573034Y-101606801D02*
X136592366Y-101562489D01*
X136575127Y-25616699D02*
X136594997Y-25571872D01*
X136575127Y-105380546D02*
X136557480Y-105334799D01*
X136592366Y-29434756D02*
X136573034Y-29390444D01*
X136592366Y-62562489D02*
X136613819Y-62519165D01*
X136592366Y-68434756D02*
X136573034Y-68390444D01*
X136592366Y-101562489D02*
X136613819Y-101519165D01*
X136594997Y-25571872D02*
X136617043Y-25528074D01*
X136594997Y-105425373D02*
X136575127Y-105380546D01*
X136613819Y-29478080D02*
X136592366Y-29434756D01*
X136613819Y-62519165D02*
X136637344Y-62476929D01*
X136613819Y-68478080D02*
X136592366Y-68434756D01*
X136613819Y-101519165D02*
X136637344Y-101476929D01*
X136617043Y-25528074D02*
X136641212Y-25485411D01*
X136617043Y-105469171D02*
X136594997Y-105425373D01*
X136637344Y-29520316D02*
X136613819Y-29478080D01*
X136637344Y-62476929D02*
X136662884Y-62435881D01*
X136637344Y-68520316D02*
X136613819Y-68478080D01*
X136637344Y-101476929D02*
X136662884Y-101435881D01*
X136641212Y-25485411D02*
X136667444Y-25443985D01*
X136641212Y-105511834D02*
X136617043Y-105469171D01*
X136662884Y-29561364D02*
X136637344Y-29520316D01*
X136662884Y-62435881D02*
X136690380Y-62396116D01*
X136662884Y-68561364D02*
X136637344Y-68520316D01*
X136662884Y-101435881D02*
X136690380Y-101396116D01*
X136667444Y-25443985D02*
X136695678Y-25403896D01*
X136667444Y-105553260D02*
X136641212Y-105511834D01*
X136690380Y-29601129D02*
X136662884Y-29561364D01*
X136690380Y-62396116D02*
X136719768Y-62357728D01*
X136690380Y-68601129D02*
X136662884Y-68561364D01*
X136690380Y-101396116D02*
X136719768Y-101357728D01*
X136695678Y-25403896D02*
X136725845Y-25365241D01*
X136695678Y-105593349D02*
X136667444Y-105553260D01*
X136719768Y-29639517D02*
X136690380Y-29601129D01*
X136719768Y-62357728D02*
X136750978Y-62320807D01*
X136719768Y-68639517D02*
X136690380Y-68601129D01*
X136719768Y-101357728D02*
X136750978Y-101320807D01*
X136725845Y-25365241D02*
X136757872Y-25328112D01*
X136725845Y-105632004D02*
X136695678Y-105593349D01*
X136750978Y-29676438D02*
X136719768Y-29639517D01*
X136750978Y-62320807D02*
X136783938Y-62285439D01*
X136750978Y-68676438D02*
X136719768Y-68639517D01*
X136750978Y-101320807D02*
X136783938Y-101285439D01*
X136757872Y-25328112D02*
X136791683Y-25292600D01*
X136757872Y-105669133D02*
X136725845Y-105632004D01*
X136783938Y-29711806D02*
X136750978Y-29676438D01*
X136783938Y-62285439D02*
X136818571Y-62251707D01*
X136783938Y-68711806D02*
X136750978Y-68676438D01*
X136783938Y-101285439D02*
X136818571Y-101251707D01*
X136791683Y-25292600D02*
X136827195Y-25258789D01*
X136791683Y-105704645D02*
X136757872Y-105669133D01*
X136818571Y-29745538D02*
X136783938Y-29711806D01*
X136818571Y-62251707D02*
X136854795Y-62219690D01*
X136818571Y-68745538D02*
X136783938Y-68711806D01*
X136818571Y-101251707D02*
X136854795Y-101219690D01*
X136827195Y-25258789D02*
X136864323Y-25226762D01*
X136827195Y-105738456D02*
X136791683Y-105704645D01*
X136854795Y-29777555D02*
X136818571Y-29745538D01*
X136854795Y-62219690D02*
X136892526Y-62189463D01*
X136854795Y-68777555D02*
X136818571Y-68745538D01*
X136854795Y-101219690D02*
X136892526Y-101189463D01*
X136864323Y-25226762D02*
X136902979Y-25196595D01*
X136864323Y-105770483D02*
X136827195Y-105738456D01*
X136892526Y-29807782D02*
X136854795Y-29777555D01*
X136892526Y-62189463D02*
X136931674Y-62161097D01*
X136892526Y-68807782D02*
X136854795Y-68777555D01*
X136892526Y-101189463D02*
X136931674Y-101161097D01*
X136902979Y-25196595D02*
X136943068Y-25168361D01*
X136902979Y-105800650D02*
X136864323Y-105770483D01*
X136931674Y-29836148D02*
X136892526Y-29807782D01*
X136931674Y-62161097D02*
X136972150Y-62134658D01*
X136931674Y-68836148D02*
X136892526Y-68807782D01*
X136931674Y-101161097D02*
X136972150Y-101134658D01*
X136943068Y-25168361D02*
X136984494Y-25142129D01*
X136943068Y-105828884D02*
X136902979Y-105800650D01*
X136972150Y-29862587D02*
X136931674Y-29836148D01*
X136972150Y-62134658D02*
X137013857Y-62110209D01*
X136972150Y-68862587D02*
X136931674Y-68836148D01*
X136972150Y-101134658D02*
X137013857Y-101110209D01*
X136984494Y-25142129D02*
X137027157Y-25117960D01*
X136984494Y-105855116D02*
X136943068Y-105828884D01*
X137013857Y-29887036D02*
X136972150Y-29862587D01*
X137013857Y-62110209D02*
X137056708Y-62087800D01*
X137013857Y-68887036D02*
X136972150Y-68862587D01*
X137013857Y-101110209D02*
X137056708Y-101087800D01*
X137027157Y-25117960D02*
X137070955Y-25095914D01*
X137027157Y-105879285D02*
X136984494Y-105855116D01*
X137056708Y-62087800D02*
X137357908Y-61938775D01*
X137056708Y-101087800D02*
X137357908Y-100938775D01*
X137070955Y-25095914D02*
X137115782Y-25076044D01*
X137070955Y-105901331D02*
X137027157Y-105879285D01*
X137115782Y-25076044D02*
X137161529Y-25058397D01*
X137115782Y-105921201D02*
X137070955Y-105901331D01*
X137161529Y-25058397D02*
X137208088Y-25043016D01*
X137161529Y-105938848D02*
X137115782Y-105921201D01*
X137208088Y-25043016D02*
X137255345Y-25029938D01*
X137208088Y-105954229D02*
X137161529Y-105938848D01*
X137255345Y-25029938D02*
X137303187Y-25019195D01*
X137255345Y-105967307D02*
X137208088Y-105954229D01*
X137303187Y-25019195D02*
X137351498Y-25010812D01*
X137303187Y-105978050D02*
X137255345Y-105967307D01*
X137351498Y-25010812D02*
X137400163Y-25004810D01*
X137351498Y-105986433D02*
X137303187Y-105978050D01*
X137357887Y-30058458D02*
X137013857Y-29887036D01*
X137357887Y-69058458D02*
X137013857Y-68887036D01*
X137357908Y-61938775D02*
X138114685Y-61518335D01*
X137357908Y-100938775D02*
X138135978Y-100505805D01*
X137400163Y-25004810D02*
X137449064Y-25001203D01*
X137400163Y-105992435D02*
X137351498Y-105986433D01*
X137449064Y-25001203D02*
X137498094Y-24999999D01*
X137449064Y-105996042D02*
X137400163Y-105992435D01*
X137498094Y-24999999D02*
X159501906Y-24999999D01*
X137498094Y-105997246D02*
X137449064Y-105996042D01*
X138114685Y-30478910D02*
X137357887Y-30058458D01*
X138114685Y-61518335D02*
X138891684Y-61034887D01*
X138135978Y-69491440D02*
X137357887Y-69058458D01*
X138135978Y-100505805D02*
X138891664Y-100034901D01*
X138891664Y-69962344D02*
X138135978Y-69491440D01*
X138891664Y-100034901D02*
X139603225Y-99541743D01*
X138891684Y-30962358D02*
X138114685Y-30478910D01*
X138891684Y-61034887D02*
X139623157Y-60527187D01*
X139603205Y-70455487D02*
X138891664Y-69962344D01*
X139603225Y-99541743D02*
X140328666Y-98983903D01*
X139623157Y-31470058D02*
X138891684Y-30962358D01*
X139623157Y-60527187D02*
X140309440Y-59999459D01*
X140309440Y-31997786D02*
X139623157Y-31470058D01*
X140309440Y-59999459D02*
X141006425Y-59406410D01*
X140328666Y-71013342D02*
X139603205Y-70455487D01*
X140328666Y-98983903D02*
X141006407Y-98406427D01*
X140988011Y-71574364D02*
X140328666Y-71013342D01*
X141006407Y-98406427D02*
X141637218Y-97813468D01*
X141006425Y-32590835D02*
X140309440Y-31997786D01*
X141006425Y-59406410D02*
X141637218Y-58813468D01*
X141637201Y-72183760D02*
X140988011Y-71574364D01*
X141637218Y-33183777D02*
X141006425Y-32590835D01*
X141637218Y-58813468D02*
X142255477Y-58172712D01*
X141637218Y-97813468D02*
X142255494Y-97172694D01*
X142255477Y-33824533D02*
X141637218Y-33183777D01*
X142255477Y-58172712D02*
X142857085Y-57483135D01*
X142255494Y-72824551D02*
X141637201Y-72183760D01*
X142255494Y-97172694D02*
X142841309Y-96502147D01*
X142841309Y-96502147D02*
X143408078Y-95783662D01*
X142857085Y-34514110D02*
X142255477Y-33824533D01*
X142857085Y-57483135D02*
X143408093Y-56783642D01*
X142857101Y-73514130D02*
X142255494Y-72824551D01*
X143393277Y-35193833D02*
X142857085Y-34514110D01*
X143393277Y-74193833D02*
X142857101Y-73514130D01*
X143408078Y-95783662D02*
X143909999Y-95078254D01*
X143408093Y-56783642D02*
X143923806Y-56057796D01*
X143909985Y-35918971D02*
X143393277Y-35193833D01*
X143909985Y-74918971D02*
X143393277Y-74193833D01*
X143909999Y-95078254D02*
X144390214Y-94328451D01*
X143923806Y-56057796D02*
X144390214Y-55328451D01*
X144390214Y-55328451D02*
X144844516Y-54534030D01*
X144390214Y-75668794D02*
X143909985Y-74918971D01*
X144390214Y-94328451D02*
X144844516Y-93534030D01*
X144390227Y-36668815D02*
X143909985Y-35918971D01*
X144832786Y-76441471D02*
X144390214Y-75668794D01*
X144844516Y-37463215D02*
X144390227Y-36668815D01*
X144844516Y-54534030D02*
X145247223Y-53739902D01*
X144844516Y-93534030D02*
X145236593Y-92762177D01*
X145236593Y-92762177D02*
X145600650Y-91949604D01*
X145247223Y-38257343D02*
X144844516Y-37463215D01*
X145247223Y-53739902D02*
X145600650Y-52949604D01*
X145247233Y-77257365D02*
X144832786Y-76441471D01*
X145600650Y-52949604D02*
X145924095Y-52119976D01*
X145600650Y-91949604D02*
X145924086Y-91119999D01*
X145600659Y-39047664D02*
X145247223Y-38257343D01*
X145600659Y-78047664D02*
X145247233Y-77257365D01*
X145924086Y-78877246D02*
X145600659Y-78047664D01*
X145924086Y-91119999D02*
X146206107Y-90275390D01*
X145924095Y-52119976D02*
X146213333Y-51251765D01*
X145932480Y-39900508D02*
X145600659Y-39047664D01*
X146206107Y-90275390D02*
X146452049Y-89393962D01*
X146213326Y-40745457D02*
X145932480Y-39900508D01*
X146213333Y-51251765D02*
X146446006Y-50417891D01*
X146213333Y-79745480D02*
X145924086Y-78877246D01*
X146446000Y-41579330D02*
X146213326Y-40745457D01*
X146446006Y-50417891D02*
X146643200Y-49549602D01*
X146446006Y-80579354D02*
X146213333Y-79745480D01*
X146452049Y-89393962D02*
X146648058Y-88525379D01*
X146643200Y-49549602D02*
X146800872Y-48648165D01*
X146643200Y-81447643D02*
X146446006Y-80579354D01*
X146648058Y-42471866D02*
X146446000Y-41579330D01*
X146648058Y-88525379D02*
X146800875Y-87648141D01*
X146800872Y-48648165D02*
X146910119Y-47764443D01*
X146800872Y-82349080D02*
X146643200Y-81447643D01*
X146800875Y-43349104D02*
X146648058Y-42471866D01*
X146800875Y-87648141D02*
X146910117Y-86764468D01*
X146907679Y-83208217D02*
X146800872Y-82349080D01*
X146910117Y-44232777D02*
X146800875Y-43349104D01*
X146910119Y-47764443D02*
X146975527Y-46876449D01*
X146910117Y-86764468D02*
X146974305Y-85901125D01*
X146974305Y-45096120D02*
X146910117Y-44232777D01*
X146974305Y-84096120D02*
X146907679Y-83208217D01*
X146974305Y-85901125D02*
X146996941Y-85010963D01*
X146975527Y-46876449D02*
X146996941Y-46010988D01*
X146996941Y-46010988D02*
X146974305Y-45096120D01*
X146996941Y-85010963D02*
X146974305Y-84096120D01*
X150002753Y-45565772D02*
X150003364Y-46456171D01*
X150002754Y-84565747D02*
X150002754Y-85431498D01*
X150002754Y-85431498D02*
X150046177Y-86320838D01*
X150003364Y-46456171D02*
X150046177Y-47320838D01*
X150046179Y-44676382D02*
X150002753Y-45565772D01*
X150046177Y-47320838D02*
X150136578Y-48231485D01*
X150046177Y-86320838D02*
X150133533Y-87206992D01*
X150048011Y-83651744D02*
X150002754Y-84565747D01*
X150133533Y-43790253D02*
X150046179Y-44676382D01*
X150133533Y-87206992D02*
X150268860Y-88112053D01*
X150136578Y-48231485D02*
X150264603Y-49087717D01*
X150136578Y-82765760D02*
X150048011Y-83651744D01*
X150264603Y-49087717D02*
X150439062Y-49960858D01*
X150264603Y-81909528D02*
X150136578Y-82765760D01*
X150268855Y-42885216D02*
X150133533Y-43790253D01*
X150268860Y-88112053D02*
X150444517Y-88984954D01*
X150439062Y-49960858D02*
X150663133Y-50848125D01*
X150444517Y-88984954D02*
X150656500Y-89824351D01*
X150444523Y-42012267D02*
X150268855Y-42885216D01*
X150444523Y-81012267D02*
X150264603Y-81909528D01*
X150656500Y-80172894D02*
X150444523Y-81012267D01*
X150656500Y-89824351D02*
X150924177Y-90699450D01*
X150663133Y-50848125D02*
X150916368Y-51676011D01*
X150663140Y-41149097D02*
X150444523Y-42012267D01*
X150916361Y-79321257D02*
X150656500Y-80172894D01*
X150916368Y-40321234D02*
X150663140Y-41149097D01*
X150916368Y-51676011D02*
X151218027Y-52513754D01*
X150924177Y-90699450D02*
X151226985Y-91536779D01*
X151218027Y-39483491D02*
X150916368Y-40321234D01*
X151218027Y-52513754D02*
X151560765Y-53335600D01*
X151218036Y-78483468D02*
X150916361Y-79321257D01*
X151226985Y-91536779D02*
X151560765Y-92335600D01*
X151560765Y-53335600D02*
X151954907Y-54161495D01*
X151560765Y-92335600D02*
X151954907Y-93161495D01*
X151570841Y-38639114D02*
X151218027Y-39483491D01*
X151570852Y-77639092D02*
X151218036Y-78483468D01*
X151954895Y-76835772D02*
X151570852Y-77639092D01*
X151954907Y-37835750D02*
X151570841Y-38639114D01*
X151954907Y-54161495D02*
X152378208Y-54944839D01*
X151954907Y-93161495D02*
X152365956Y-93923413D01*
X152365944Y-76073853D02*
X151954895Y-76835772D01*
X152365956Y-93923413D02*
X152826433Y-94685498D01*
X152378208Y-37052406D02*
X151954907Y-37835750D01*
X152378208Y-54944839D02*
X152826433Y-55685498D01*
X152826433Y-55685498D02*
X153324062Y-56423918D01*
X152826433Y-94685498D02*
X153324062Y-95423918D01*
X152826446Y-36311726D02*
X152378208Y-37052406D01*
X152839743Y-75290933D02*
X152365944Y-76073853D01*
X153324062Y-35573327D02*
X152826446Y-36311726D01*
X153324062Y-56423918D02*
X153872887Y-57156203D01*
X153324062Y-95423918D02*
X153872887Y-96156203D01*
X153338385Y-74553197D02*
X152839743Y-75290933D01*
X153857570Y-34860459D02*
X153324062Y-35573327D01*
X153857585Y-73860439D02*
X153338385Y-74553197D01*
X153872887Y-57156203D02*
X154441936Y-57841034D01*
X153872887Y-96156203D02*
X154441936Y-96841034D01*
X154425695Y-73174828D02*
X153857585Y-73860439D01*
X154441936Y-57841034D02*
X155027031Y-58479114D01*
X154441936Y-96841034D02*
X155027031Y-97479114D01*
X154441953Y-34156192D02*
X153857570Y-34860459D01*
X155027031Y-58479114D02*
X155678109Y-59122190D01*
X155027031Y-97479114D02*
X155678128Y-98122206D01*
X155044174Y-33500340D02*
X154441953Y-34156192D01*
X155044174Y-72500340D02*
X154425695Y-73174828D01*
X155660108Y-32891977D02*
X155044174Y-33500340D01*
X155678109Y-59122190D02*
X156323395Y-59699365D01*
X155678128Y-71875039D02*
X155044174Y-72500340D01*
X155678128Y-98122206D02*
X156342211Y-98715375D01*
X156323395Y-59699365D02*
X157015212Y-60259901D01*
X156342192Y-71281886D02*
X155678128Y-71875039D01*
X156342211Y-32281870D02*
X155660108Y-32891977D01*
X156342211Y-98715375D02*
X157034797Y-99274961D01*
X157015212Y-60259901D02*
X157733943Y-60785568D01*
X157015212Y-70737344D02*
X156342192Y-71281886D01*
X157034797Y-31722284D02*
X156342211Y-32281870D01*
X157034797Y-99274961D02*
X157733923Y-99785553D01*
X157733923Y-31211692D02*
X157034797Y-31722284D01*
X157733923Y-70211692D02*
X157015212Y-70737344D01*
X157733923Y-99785553D02*
X158498747Y-100288085D01*
X157733943Y-60785568D02*
X158498747Y-61288085D01*
X158498747Y-30709160D02*
X157733923Y-31211692D01*
X158498747Y-61288085D02*
X159244893Y-61727115D01*
X158498747Y-69709160D02*
X157733923Y-70211692D01*
X158498747Y-100288085D02*
X159244893Y-100727115D01*
X159244893Y-30270130D02*
X158498747Y-30709160D01*
X159244893Y-61727115D02*
X159965323Y-62105041D01*
X159244893Y-69270130D02*
X158498747Y-69709160D01*
X159244893Y-100727115D02*
X159965323Y-101105041D01*
X159501906Y-24999999D02*
X159550936Y-25001203D01*
X159501906Y-105997246D02*
X137498094Y-105997246D01*
X159550936Y-25001203D02*
X159599837Y-25004810D01*
X159550936Y-105996042D02*
X159501906Y-105997246D01*
X159599837Y-25004810D02*
X159648502Y-25010812D01*
X159599837Y-105992435D02*
X159550936Y-105996042D01*
X159648502Y-25010812D02*
X159696813Y-25019195D01*
X159648502Y-105986433D02*
X159599837Y-105992435D01*
X159696813Y-25019195D02*
X159744655Y-25029938D01*
X159696813Y-105978050D02*
X159648502Y-105986433D01*
X159744655Y-25029938D02*
X159791912Y-25043016D01*
X159744655Y-105967307D02*
X159696813Y-105978050D01*
X159791912Y-25043016D02*
X159838471Y-25058397D01*
X159791912Y-105954229D02*
X159744655Y-105967307D01*
X159838471Y-25058397D02*
X159884218Y-25076044D01*
X159838471Y-105938848D02*
X159791912Y-105954229D01*
X159884218Y-25076044D02*
X159929045Y-25095914D01*
X159884218Y-105921201D02*
X159838471Y-105938848D01*
X159929045Y-25095914D02*
X159972843Y-25117960D01*
X159929045Y-105901331D02*
X159884218Y-105921201D01*
X159965323Y-29892204D02*
X159244893Y-30270130D01*
X159965323Y-62105041D02*
X160008534Y-62129048D01*
X159965323Y-68892204D02*
X159244893Y-69270130D01*
X159965323Y-101105041D02*
X160008534Y-101129048D01*
X159972843Y-25117960D02*
X160015506Y-25142129D01*
X159972843Y-105879285D02*
X159929045Y-105901331D01*
X160008534Y-29868197D02*
X159965323Y-29892204D01*
X160008534Y-62129048D02*
X160050495Y-62155155D01*
X160008534Y-68868197D02*
X159965323Y-68892204D01*
X160008534Y-101129048D02*
X160050495Y-101155155D01*
X160015506Y-25142129D02*
X160056932Y-25168361D01*
X160015506Y-105855116D02*
X159972843Y-105879285D01*
X160050495Y-29842090D02*
X160008534Y-29868197D01*
X160050495Y-62155155D02*
X160091113Y-62183306D01*
X160050495Y-68842090D02*
X160008534Y-68868197D01*
X160050495Y-101155155D02*
X160091113Y-101183306D01*
X160056932Y-25168361D02*
X160097021Y-25196595D01*
X160056932Y-105828884D02*
X160015506Y-105855116D01*
X160091113Y-29813939D02*
X160050495Y-29842090D01*
X160091113Y-62183306D02*
X160130289Y-62213431D01*
X160091113Y-68813939D02*
X160050495Y-68842090D01*
X160091113Y-101183306D02*
X160130289Y-101213431D01*
X160097021Y-25196595D02*
X160135677Y-25226762D01*
X160097021Y-105800650D02*
X160056932Y-105828884D01*
X160130289Y-29783814D02*
X160091113Y-29813939D01*
X160130289Y-62213431D02*
X160167927Y-62245457D01*
X160130289Y-68783814D02*
X160091113Y-68813939D01*
X160130289Y-101213431D02*
X160167927Y-101245457D01*
X160135677Y-25226762D02*
X160172805Y-25258789D01*
X160135677Y-105770483D02*
X160097021Y-105800650D01*
X160167927Y-29751788D02*
X160130289Y-29783814D01*
X160167927Y-62245457D02*
X160203935Y-62279304D01*
X160167927Y-68751788D02*
X160130289Y-68783814D01*
X160167927Y-101245457D02*
X160203935Y-101279304D01*
X160172805Y-25258789D02*
X160208317Y-25292600D01*
X160172805Y-105738456D02*
X160135677Y-105770483D01*
X160203935Y-29717941D02*
X160167927Y-29751788D01*
X160203935Y-62279304D02*
X160238226Y-62314891D01*
X160203935Y-68717941D02*
X160167927Y-68751788D01*
X160203935Y-101279304D02*
X160238226Y-101314891D01*
X160208317Y-25292600D02*
X160242128Y-25328112D01*
X160208317Y-105704645D02*
X160172805Y-105738456D01*
X160238226Y-29682354D02*
X160203935Y-29717941D01*
X160238226Y-62314891D02*
X160270714Y-62352131D01*
X160238226Y-68682354D02*
X160203935Y-68717941D01*
X160238226Y-101314891D02*
X160270714Y-101352131D01*
X160242128Y-25328112D02*
X160274155Y-25365241D01*
X160242128Y-105669133D02*
X160208317Y-105704645D01*
X160270714Y-29645114D02*
X160238226Y-29682354D01*
X160270714Y-62352131D02*
X160301322Y-62390931D01*
X160270714Y-68645114D02*
X160238226Y-68682354D01*
X160270714Y-101352131D02*
X160301322Y-101390931D01*
X160274155Y-25365241D02*
X160304322Y-25403896D01*
X160274155Y-105632004D02*
X160242128Y-105669133D01*
X160301322Y-29606314D02*
X160270714Y-29645114D01*
X160301322Y-62390931D02*
X160329973Y-62431198D01*
X160301322Y-68606314D02*
X160270714Y-68645114D01*
X160301322Y-101390931D02*
X160329973Y-101431198D01*
X160304322Y-25403896D02*
X160332556Y-25443985D01*
X160304322Y-105593349D02*
X160274155Y-105632004D01*
X160329973Y-29566047D02*
X160301322Y-29606314D01*
X160329973Y-62431198D02*
X160356597Y-62472832D01*
X160329973Y-68566047D02*
X160301322Y-68606314D01*
X160329973Y-101431198D02*
X160356597Y-101472832D01*
X160332556Y-25443985D02*
X160358788Y-25485411D01*
X160332556Y-105553260D02*
X160304322Y-105593349D01*
X160356597Y-29524413D02*
X160329973Y-29566047D01*
X160356597Y-62472832D02*
X160381130Y-62515732D01*
X160356597Y-68524413D02*
X160329973Y-68566047D01*
X160356597Y-101472832D02*
X160381130Y-101515732D01*
X160358788Y-25485411D02*
X160382957Y-25528074D01*
X160358788Y-105511834D02*
X160332556Y-105553260D01*
X160381130Y-29481513D02*
X160356597Y-29524413D01*
X160381130Y-62515732D02*
X160403512Y-62559792D01*
X160381130Y-68481513D02*
X160356597Y-68524413D01*
X160381130Y-101515732D02*
X160403512Y-101559792D01*
X160382957Y-25528074D02*
X160405003Y-25571872D01*
X160382957Y-105469171D02*
X160358788Y-105511834D01*
X160403512Y-29437453D02*
X160381130Y-29481513D01*
X160403512Y-62559792D02*
X160423687Y-62604906D01*
X160403512Y-68437453D02*
X160381130Y-68481513D01*
X160403512Y-101559792D02*
X160423687Y-101604906D01*
X160405003Y-25571872D02*
X160424873Y-25616699D01*
X160405003Y-105425373D02*
X160382957Y-105469171D01*
X160423687Y-29392339D02*
X160403512Y-29437453D01*
X160423687Y-62604906D02*
X160441606Y-62650962D01*
X160423687Y-68392339D02*
X160403512Y-68437453D01*
X160423687Y-101604906D02*
X160441606Y-101650962D01*
X160424873Y-25616699D02*
X160442520Y-25662446D01*
X160424873Y-105380546D02*
X160405003Y-105425373D01*
X160441606Y-29346283D02*
X160423687Y-29392339D01*
X160441606Y-62650962D02*
X160457226Y-62697848D01*
X160441606Y-68346283D02*
X160423687Y-68392339D01*
X160441606Y-101650962D02*
X160457226Y-101697848D01*
X160442520Y-25662446D02*
X160457901Y-25709005D01*
X160442520Y-105334799D02*
X160424873Y-105380546D01*
X160457226Y-29299397D02*
X160441606Y-29346283D01*
X160457226Y-62697848D02*
X160470508Y-62745449D01*
X160457226Y-68299397D02*
X160441606Y-68346283D01*
X160457226Y-101697848D02*
X160470508Y-101745449D01*
X160457901Y-25709005D02*
X160470979Y-25756262D01*
X160457901Y-105288240D02*
X160442520Y-105334799D01*
X160470508Y-29251796D02*
X160457226Y-29299397D01*
X160470508Y-62745449D02*
X160481420Y-62793649D01*
X160470508Y-68251796D02*
X160457226Y-68299397D01*
X160470508Y-101745449D02*
X160481420Y-101793649D01*
X160470979Y-25756262D02*
X160481722Y-25804104D01*
X160470979Y-105240983D02*
X160457901Y-105288240D01*
X160481420Y-29203596D02*
X160470508Y-29251796D01*
X160481420Y-62793649D02*
X160489934Y-62842329D01*
X160481420Y-68203596D02*
X160470508Y-68251796D01*
X160481420Y-101793649D02*
X160489934Y-101842329D01*
X160481722Y-25804104D02*
X160490105Y-25852416D01*
X160481722Y-105193141D02*
X160470979Y-105240983D01*
X160489934Y-29154916D02*
X160481420Y-29203596D01*
X160489934Y-62842329D02*
X160496031Y-62891371D01*
X160489934Y-68154916D02*
X160481420Y-68203596D01*
X160489934Y-101842329D02*
X160496031Y-101891371D01*
X160490105Y-25852416D02*
X160496107Y-25901080D01*
X160490105Y-105144829D02*
X160481722Y-105193141D01*
X160496031Y-29105874D02*
X160489934Y-29154916D01*
X160496031Y-62891371D02*
X160499695Y-62940655D01*
X160496031Y-68105874D02*
X160489934Y-68154916D01*
X160496031Y-101891371D02*
X160499695Y-101940655D01*
X160496107Y-25901080D02*
X160499714Y-25949981D01*
X160496107Y-105096165D02*
X160490105Y-105144829D01*
X160499695Y-29056590D02*
X160496031Y-29105874D01*
X160499695Y-62940655D02*
X160500918Y-62990071D01*
X160499695Y-68056590D02*
X160496031Y-68105874D01*
X160499695Y-101940655D02*
X160500918Y-101990071D01*
X160499714Y-25949981D02*
X160500918Y-25999012D01*
X160499714Y-105047264D02*
X160496107Y-105096165D01*
X160500918Y-25999012D02*
X160500918Y-29007174D01*
X160500918Y-29007174D02*
X160499695Y-29056590D01*
X160500918Y-62990071D02*
X160500918Y-68007174D01*
X160500918Y-68007174D02*
X160499695Y-68056590D01*
X160500918Y-101990071D02*
X160500918Y-104998233D01*
X160500918Y-104998233D02*
X160499714Y-105047264D01*
X163500918Y-25999012D02*
X163502121Y-25949981D01*
X163500918Y-27329879D02*
X163500918Y-25999012D01*
X163500918Y-64667366D02*
X163502107Y-64618635D01*
X163500918Y-66329879D02*
X163500918Y-64667366D01*
X163500918Y-103667366D02*
X163502107Y-103618635D01*
X163500918Y-104998233D02*
X163500918Y-103667366D01*
X163502107Y-27378610D02*
X163500918Y-27329879D01*
X163502107Y-64618635D02*
X163505670Y-64570032D01*
X163502107Y-66378610D02*
X163500918Y-66329879D01*
X163502107Y-103618635D02*
X163505670Y-103570032D01*
X163502121Y-25949981D02*
X163505729Y-25901080D01*
X163502121Y-105047264D02*
X163500918Y-104998233D01*
X163505670Y-27427213D02*
X163502107Y-27378610D01*
X163505670Y-64570032D02*
X163511599Y-64521661D01*
X163505670Y-66427213D02*
X163502107Y-66378610D01*
X163505670Y-103570032D02*
X163511599Y-103521661D01*
X163505729Y-25901080D02*
X163511731Y-25852416D01*
X163505729Y-105096165D02*
X163502121Y-105047264D01*
X163511599Y-27475584D02*
X163505670Y-27427213D01*
X163511599Y-64521661D02*
X163519880Y-64473636D01*
X163511599Y-66475584D02*
X163505670Y-66427213D01*
X163511599Y-103521661D02*
X163519880Y-103473636D01*
X163511731Y-25852416D02*
X163520114Y-25804104D01*
X163511731Y-105144829D02*
X163505729Y-105096165D01*
X163519880Y-27523609D02*
X163511599Y-27475584D01*
X163519880Y-64473636D02*
X163530493Y-64426073D01*
X163519880Y-66523609D02*
X163511599Y-66475584D01*
X163519880Y-103473636D02*
X163530493Y-103426073D01*
X163520114Y-25804104D02*
X163530857Y-25756262D01*
X163520114Y-105193141D02*
X163511731Y-105144829D01*
X163530493Y-27571172D02*
X163519880Y-27523609D01*
X163530493Y-64426073D02*
X163543413Y-64379084D01*
X163530493Y-66571172D02*
X163519880Y-66523609D01*
X163530493Y-103426073D02*
X163543413Y-103379084D01*
X163530857Y-25756262D02*
X163543935Y-25709005D01*
X163530857Y-105240983D02*
X163520114Y-105193141D01*
X163543413Y-27618161D02*
X163530493Y-27571172D01*
X163543413Y-64379084D02*
X163558609Y-64332781D01*
X163543413Y-66618161D02*
X163530493Y-66571172D01*
X163543413Y-103379084D02*
X163558609Y-103332781D01*
X163543935Y-25709005D02*
X163559316Y-25662446D01*
X163543935Y-105288240D02*
X163530857Y-105240983D01*
X163558609Y-27664464D02*
X163543413Y-27618161D01*
X163558609Y-64332781D02*
X163576046Y-64287273D01*
X163558609Y-66664464D02*
X163543413Y-66618161D01*
X163558609Y-103332781D02*
X163576046Y-103287273D01*
X163559316Y-25662446D02*
X163576962Y-25616699D01*
X163559316Y-105334799D02*
X163543935Y-105288240D01*
X163576046Y-27709972D02*
X163558609Y-27664464D01*
X163576046Y-64287273D02*
X163595680Y-64242671D01*
X163576046Y-66709972D02*
X163558609Y-66664464D01*
X163576046Y-103287273D02*
X163595680Y-103242671D01*
X163576962Y-25616699D02*
X163596833Y-25571872D01*
X163576962Y-105380546D02*
X163559316Y-105334799D01*
X163595680Y-27754574D02*
X163576046Y-27709972D01*
X163595680Y-64242671D02*
X163617467Y-64199079D01*
X163595680Y-66754574D02*
X163576046Y-66709972D01*
X163595680Y-103242671D02*
X163617467Y-103199079D01*
X163596833Y-25571872D02*
X163618879Y-25528074D01*
X163596833Y-105425373D02*
X163576962Y-105380546D01*
X163617467Y-27798166D02*
X163595680Y-27754574D01*
X163617467Y-64199079D02*
X163641354Y-64156601D01*
X163617467Y-66798166D02*
X163595680Y-66754574D01*
X163617467Y-103199079D02*
X163641354Y-103156601D01*
X163618879Y-25528074D02*
X163643047Y-25485411D01*
X163618879Y-105469171D02*
X163596833Y-105425373D01*
X163641354Y-27840644D02*
X163617467Y-27798166D01*
X163641354Y-64156601D02*
X163667283Y-64115339D01*
X163641354Y-66840644D02*
X163617467Y-66798166D01*
X163641354Y-103156601D02*
X163667283Y-103115339D01*
X163643047Y-25485411D02*
X163669280Y-25443985D01*
X163643047Y-105511834D02*
X163618879Y-105469171D01*
X163667283Y-27881906D02*
X163641354Y-27840644D01*
X163667283Y-64115339D02*
X163695194Y-64075390D01*
X163667283Y-66881906D02*
X163641354Y-66840644D01*
X163667283Y-103115339D02*
X163695194Y-103075390D01*
X163669280Y-25443985D02*
X163697514Y-25403896D01*
X163669280Y-105553260D02*
X163643047Y-105511834D01*
X163695194Y-27921855D02*
X163667283Y-27881906D01*
X163695194Y-64075390D02*
X163725020Y-64036850D01*
X163695194Y-66921855D02*
X163667283Y-66881906D01*
X163695194Y-103075390D02*
X163725020Y-103036850D01*
X163697514Y-25403896D02*
X163727681Y-25365241D01*
X163697514Y-105593349D02*
X163669280Y-105553260D01*
X163725020Y-27960395D02*
X163695194Y-27921855D01*
X163725020Y-64036850D02*
X163756690Y-63999811D01*
X163725020Y-66960395D02*
X163695194Y-66921855D01*
X163725020Y-103036850D02*
X163756690Y-102999811D01*
X163727681Y-25365241D02*
X163759708Y-25328112D01*
X163727681Y-105632004D02*
X163697514Y-105593349D01*
X163756690Y-27997434D02*
X163725020Y-27960395D01*
X163756690Y-63999811D02*
X163790129Y-63964360D01*
X163756690Y-66997434D02*
X163725020Y-66960395D01*
X163756690Y-102999811D02*
X163790129Y-102964360D01*
X163759708Y-25328112D02*
X163793518Y-25292600D01*
X163759708Y-105669133D02*
X163727681Y-105632004D01*
X163790129Y-28032885D02*
X163756690Y-27997434D01*
X163790129Y-63964360D02*
X163825256Y-63930582D01*
X163790129Y-67032885D02*
X163756690Y-66997434D01*
X163790129Y-102964360D02*
X163825256Y-102930582D01*
X163793518Y-25292600D02*
X163829031Y-25258789D01*
X163793518Y-105704645D02*
X163759708Y-105669133D01*
X163825256Y-28066663D02*
X163790129Y-28032885D01*
X163825256Y-63930582D02*
X163861990Y-63898557D01*
X163825256Y-67066663D02*
X163790129Y-67032885D01*
X163825256Y-102930582D02*
X163861990Y-102898557D01*
X163829031Y-25258789D02*
X163866159Y-25226762D01*
X163829031Y-105738456D02*
X163793518Y-105704645D01*
X163861990Y-28098688D02*
X163825256Y-28066663D01*
X163861990Y-63898557D02*
X163900241Y-63868361D01*
X163861990Y-67098688D02*
X163825256Y-67066663D01*
X163861990Y-102898557D02*
X163900241Y-102868361D01*
X163866159Y-25226762D02*
X163904814Y-25196595D01*
X163866159Y-105770483D02*
X163829031Y-105738456D01*
X163900241Y-28128884D02*
X163861990Y-28098688D01*
X163900241Y-63868361D02*
X163939919Y-63840067D01*
X163900241Y-67128884D02*
X163861990Y-67098688D01*
X163900241Y-102868361D02*
X163939919Y-102840067D01*
X163904814Y-25196595D02*
X163944903Y-25168361D01*
X163904814Y-105800650D02*
X163866159Y-105770483D01*
X163939919Y-28157178D02*
X163900241Y-28128884D01*
X163939919Y-63840067D02*
X163980930Y-63813742D01*
X163939919Y-67157178D02*
X163900241Y-67128884D01*
X163939919Y-102840067D02*
X163980930Y-102813742D01*
X163944903Y-25168361D02*
X163986329Y-25142129D01*
X163944903Y-105828884D02*
X163904814Y-105800650D01*
X163980930Y-28183503D02*
X163939919Y-28157178D01*
X163980930Y-63813742D02*
X164023176Y-63789448D01*
X163980930Y-67183503D02*
X163939919Y-67157178D01*
X163980930Y-102813742D02*
X164023176Y-102789448D01*
X163986329Y-25142129D02*
X164028993Y-25117960D01*
X163986329Y-105855116D02*
X163944903Y-105828884D01*
X164023176Y-28207797D02*
X163980930Y-28183503D01*
X164023176Y-63789448D02*
X164066556Y-63767243D01*
X164023176Y-67207797D02*
X163980930Y-67183503D01*
X164023176Y-102789448D02*
X164066556Y-102767243D01*
X164028993Y-25117960D02*
X164072790Y-25095914D01*
X164028993Y-105879285D02*
X163986329Y-105855116D01*
X164066556Y-28230002D02*
X164023176Y-28207797D01*
X164066556Y-63767243D02*
X164110968Y-63747180D01*
X164066556Y-67230002D02*
X164023176Y-67207797D01*
X164066556Y-102767243D02*
X164110968Y-102747180D01*
X164072790Y-25095914D02*
X164117617Y-25076044D01*
X164072790Y-105901331D02*
X164028993Y-105879285D01*
X164110968Y-28250065D02*
X164066556Y-28230002D01*
X164110968Y-63747180D02*
X164156305Y-63729307D01*
X164110968Y-67250065D02*
X164066556Y-67230002D01*
X164110968Y-102747180D02*
X164156305Y-102729307D01*
X164117617Y-25076044D02*
X164163365Y-25058397D01*
X164117617Y-105921201D02*
X164072790Y-105901331D01*
X164156305Y-28267938D02*
X164110968Y-28250065D01*
X164156305Y-63729307D02*
X164202460Y-63713666D01*
X164156305Y-67267938D02*
X164110968Y-67250065D01*
X164156305Y-102729307D02*
X164202460Y-102713666D01*
X164163365Y-25058397D02*
X164209924Y-25043016D01*
X164163365Y-105938848D02*
X164117617Y-105921201D01*
X164202460Y-28283579D02*
X164156305Y-28267938D01*
X164202460Y-63713666D02*
X164249323Y-63700295D01*
X164202460Y-67283579D02*
X164156305Y-67267938D01*
X164202460Y-102713666D02*
X164249323Y-102700295D01*
X164209924Y-25043016D02*
X164257181Y-25029938D01*
X164209924Y-105954229D02*
X164163365Y-105938848D01*
X164249323Y-28296950D02*
X164202460Y-28283579D01*
X164249323Y-63700295D02*
X164296782Y-63689224D01*
X164249323Y-67296950D02*
X164202460Y-67283579D01*
X164249323Y-102700295D02*
X164296782Y-102689224D01*
X164257181Y-25029938D02*
X164305023Y-25019195D01*
X164257181Y-105967307D02*
X164209924Y-105954229D01*
X164296782Y-28308021D02*
X164249323Y-28296950D01*
X164296782Y-63689224D02*
X164344725Y-63680482D01*
X164296782Y-67308021D02*
X164249323Y-67296950D01*
X164296782Y-102689224D02*
X164344725Y-102680482D01*
X164305023Y-25019195D02*
X164353334Y-25010812D01*
X164305023Y-105978050D02*
X164257181Y-105967307D01*
X164344725Y-28316763D02*
X164296782Y-28308021D01*
X164344725Y-63680482D02*
X164393037Y-63674088D01*
X164344725Y-67316763D02*
X164296782Y-67308021D01*
X164344725Y-102680482D02*
X164393037Y-102674088D01*
X164353334Y-25010812D02*
X164401999Y-25004810D01*
X164353334Y-105986433D02*
X164305023Y-105978050D01*
X164393037Y-28323157D02*
X164344725Y-28316763D01*
X164393037Y-63674088D02*
X164441603Y-63670057D01*
X164393037Y-67323157D02*
X164344725Y-67316763D01*
X164393037Y-102674088D02*
X164441603Y-102670057D01*
X164401999Y-25004810D02*
X164450899Y-25001203D01*
X164401999Y-105992435D02*
X164353334Y-105986433D01*
X164441603Y-28327188D02*
X164393037Y-28323157D01*
X164441603Y-63670057D02*
X164490308Y-63668400D01*
X164441603Y-67327188D02*
X164393037Y-67323157D01*
X164441603Y-102670057D02*
X164490308Y-102668400D01*
X164450899Y-25001203D02*
X164499930Y-24999999D01*
X164450899Y-105996042D02*
X164401999Y-105992435D01*
X164490308Y-28328845D02*
X164441603Y-28327188D01*
X164490308Y-63668400D02*
X164539035Y-63669120D01*
X164490308Y-67328845D02*
X164441603Y-67327188D01*
X164490308Y-102668400D02*
X164539035Y-102669120D01*
X164499930Y-24999999D02*
X171500070Y-24999999D01*
X164499930Y-105997246D02*
X164450899Y-105996042D01*
X164539035Y-28328125D02*
X164490308Y-28328845D01*
X164539035Y-63669120D02*
X164587670Y-63672215D01*
X164539035Y-67328125D02*
X164490308Y-67328845D01*
X164539035Y-102669120D02*
X164587670Y-102672215D01*
X164587670Y-28325030D02*
X164539035Y-28328125D01*
X164587670Y-63672215D02*
X164636096Y-63677679D01*
X164587670Y-67325030D02*
X164539035Y-67328125D01*
X164587670Y-102672215D02*
X164636096Y-102677679D01*
X164636096Y-28319566D02*
X164587670Y-28325030D01*
X164636096Y-63677679D02*
X164684210Y-63685499D01*
X164636096Y-67319566D02*
X164587670Y-67325030D01*
X164636096Y-102677679D02*
X164684210Y-102685499D01*
X164684210Y-28311746D02*
X164636096Y-28319566D01*
X164684210Y-63685499D02*
X165127709Y-63768116D01*
X164684210Y-67311746D02*
X164636096Y-67319566D01*
X164684210Y-102685499D02*
X165127709Y-102768116D01*
X165127709Y-28229129D02*
X164684210Y-28311746D01*
X165127709Y-63768116D02*
X166010012Y-63888285D01*
X165127709Y-67229129D02*
X164684210Y-67311746D01*
X165127709Y-102768116D02*
X166010012Y-102888285D01*
X166009987Y-28108962D02*
X165127709Y-28229129D01*
X166010012Y-63888285D02*
X166897129Y-63964671D01*
X166010012Y-67108960D02*
X165127709Y-67229129D01*
X166010012Y-102888285D02*
X166897129Y-102964671D01*
X166897129Y-28032574D02*
X166009987Y-28108962D01*
X166897129Y-63964671D02*
X167786963Y-63997093D01*
X166897129Y-67032574D02*
X166010012Y-67108960D01*
X166897129Y-102964671D02*
X167786963Y-102997093D01*
X167786963Y-28000152D02*
X166897129Y-28032574D01*
X167786963Y-63997093D02*
X168677312Y-63985469D01*
X167786963Y-102997093D02*
X168677312Y-102985469D01*
X167786988Y-67000152D02*
X166897129Y-67032574D01*
X168677312Y-28011776D02*
X167786963Y-28000152D01*
X168677312Y-63985469D02*
X169541407Y-63931963D01*
X168677312Y-67011776D02*
X167786988Y-67000152D01*
X168677312Y-102985469D02*
X169541407Y-102931963D01*
X169541407Y-63931963D02*
X170426388Y-63833656D01*
X169541407Y-67065282D02*
X168677312Y-67011776D01*
X169541407Y-102931963D02*
X170450841Y-102830308D01*
X169565996Y-28067416D02*
X168677312Y-28011776D01*
X170426388Y-63833656D02*
X171363904Y-63681937D01*
X170450841Y-28166937D02*
X169565996Y-28067416D01*
X170450841Y-67166937D02*
X169541407Y-67065282D01*
X170450841Y-102830308D02*
X171363904Y-102681937D01*
X171363904Y-28315308D02*
X170450841Y-28166937D01*
X171363904Y-63681937D02*
X171412330Y-63676474D01*
X171363904Y-67315308D02*
X170450841Y-67166937D01*
X171363904Y-102681937D02*
X171412330Y-102676474D01*
X171412330Y-28320771D02*
X171363904Y-28315308D01*
X171412330Y-63676474D02*
X171460965Y-63673378D01*
X171412330Y-67320771D02*
X171363904Y-67315308D01*
X171412330Y-102676474D02*
X171460965Y-102673378D01*
X171460965Y-28323867D02*
X171412330Y-28320771D01*
X171460965Y-63673378D02*
X171509692Y-63672658D01*
X171460965Y-67323867D02*
X171412330Y-67320771D01*
X171460965Y-102673378D02*
X171509692Y-102672658D01*
X171500070Y-24999999D02*
X171549101Y-25001203D01*
X171500070Y-105997246D02*
X164499930Y-105997246D01*
X171509692Y-28324587D02*
X171460965Y-28323867D01*
X171509692Y-63672658D02*
X171558397Y-63674316D01*
X171509692Y-67324587D02*
X171460965Y-67323867D01*
X171509692Y-102672658D02*
X171558397Y-102674316D01*
X171549101Y-25001203D02*
X171598001Y-25004810D01*
X171549101Y-105996042D02*
X171500070Y-105997246D01*
X171558397Y-28322929D02*
X171509692Y-28324587D01*
X171558397Y-63674316D02*
X171606963Y-63678346D01*
X171558397Y-67322929D02*
X171509692Y-67324587D01*
X171558397Y-102674316D02*
X171606963Y-102678346D01*
X171598001Y-25004810D02*
X171646666Y-25010812D01*
X171598001Y-105992435D02*
X171549101Y-105996042D01*
X171606963Y-28318899D02*
X171558397Y-28322929D01*
X171606963Y-63678346D02*
X171655275Y-63684740D01*
X171606963Y-67318899D02*
X171558397Y-67322929D01*
X171606963Y-102678346D02*
X171655275Y-102684740D01*
X171646666Y-25010812D02*
X171694977Y-25019195D01*
X171646666Y-105986433D02*
X171598001Y-105992435D01*
X171655275Y-28312505D02*
X171606963Y-28318899D01*
X171655275Y-63684740D02*
X171703218Y-63693483D01*
X171655275Y-67312505D02*
X171606963Y-67318899D01*
X171655275Y-102684740D02*
X171703218Y-102693483D01*
X171694977Y-25019195D02*
X171742819Y-25029938D01*
X171694977Y-105978050D02*
X171646666Y-105986433D01*
X171703218Y-28303762D02*
X171655275Y-28312505D01*
X171703218Y-63693483D02*
X171750677Y-63704553D01*
X171703218Y-67303762D02*
X171655275Y-67312505D01*
X171703218Y-102693483D02*
X171750677Y-102704553D01*
X171742819Y-25029938D02*
X171790076Y-25043016D01*
X171742819Y-105967307D02*
X171694977Y-105978050D01*
X171750677Y-28292692D02*
X171703218Y-28303762D01*
X171750677Y-63704553D02*
X171797540Y-63717925D01*
X171750677Y-67292692D02*
X171703218Y-67303762D01*
X171750677Y-102704553D02*
X171797540Y-102717925D01*
X171790076Y-25043016D02*
X171836635Y-25058397D01*
X171790076Y-105954229D02*
X171742819Y-105967307D01*
X171797540Y-28279320D02*
X171750677Y-28292692D01*
X171797540Y-63717925D02*
X171843695Y-63733566D01*
X171797540Y-67279320D02*
X171750677Y-67292692D01*
X171797540Y-102717925D02*
X171843695Y-102733566D01*
X171836635Y-25058397D02*
X171882383Y-25076044D01*
X171836635Y-105938848D02*
X171790076Y-105954229D01*
X171843695Y-28263679D02*
X171797540Y-28279320D01*
X171843695Y-63733566D02*
X171889032Y-63751439D01*
X171843695Y-67263679D02*
X171797540Y-67279320D01*
X171843695Y-102733566D02*
X171889032Y-102751439D01*
X171882383Y-25076044D02*
X171927210Y-25095914D01*
X171882383Y-105921201D02*
X171836635Y-105938848D01*
X171889032Y-28245806D02*
X171843695Y-28263679D01*
X171889032Y-63751439D02*
X171933444Y-63771502D01*
X171889032Y-67245806D02*
X171843695Y-67263679D01*
X171889032Y-102751439D02*
X171933444Y-102771502D01*
X171927210Y-25095914D02*
X171971007Y-25117960D01*
X171927210Y-105901331D02*
X171882383Y-105921201D01*
X171933444Y-28225743D02*
X171889032Y-28245806D01*
X171933444Y-63771502D02*
X171976824Y-63793707D01*
X171933444Y-67225743D02*
X171889032Y-67245806D01*
X171933444Y-102771502D02*
X171976824Y-102793707D01*
X171971007Y-25117960D02*
X172013671Y-25142129D01*
X171971007Y-105879285D02*
X171927210Y-105901331D01*
X171976824Y-28203538D02*
X171933444Y-28225743D01*
X171976824Y-63793707D02*
X172019070Y-63818001D01*
X171976824Y-67203538D02*
X171933444Y-67225743D01*
X171976824Y-102793707D02*
X172019070Y-102818001D01*
X172013671Y-25142129D02*
X172055097Y-25168361D01*
X172013671Y-105855116D02*
X171971007Y-105879285D01*
X172019070Y-28179244D02*
X171976824Y-28203538D01*
X172019070Y-63818001D02*
X172060081Y-63844326D01*
X172019070Y-67179244D02*
X171976824Y-67203538D01*
X172019070Y-102818001D02*
X172060081Y-102844326D01*
X172055097Y-25168361D02*
X172095186Y-25196595D01*
X172055097Y-105828884D02*
X172013671Y-105855116D01*
X172060081Y-28152919D02*
X172019070Y-28179244D01*
X172060081Y-63844326D02*
X172099759Y-63872620D01*
X172060081Y-67152919D02*
X172019070Y-67179244D01*
X172060081Y-102844326D02*
X172099759Y-102872620D01*
X172095186Y-25196595D02*
X172133841Y-25226762D01*
X172095186Y-105800650D02*
X172055097Y-105828884D01*
X172099759Y-28124625D02*
X172060081Y-28152919D01*
X172099759Y-63872620D02*
X172138010Y-63902815D01*
X172099759Y-67124625D02*
X172060081Y-67152919D01*
X172099759Y-102872620D02*
X172138010Y-102902815D01*
X172133841Y-25226762D02*
X172170969Y-25258789D01*
X172133841Y-105770483D02*
X172095186Y-105800650D01*
X172138010Y-28094430D02*
X172099759Y-28124625D01*
X172138010Y-63902815D02*
X172174743Y-63934840D01*
X172138010Y-67094430D02*
X172099759Y-67124625D01*
X172138010Y-102902815D02*
X172174743Y-102934840D01*
X172170969Y-25258789D02*
X172206482Y-25292600D01*
X172170969Y-105738456D02*
X172133841Y-105770483D01*
X172174743Y-28062405D02*
X172138010Y-28094430D01*
X172174743Y-63934840D02*
X172209871Y-63968618D01*
X172174743Y-67062405D02*
X172138010Y-67094430D01*
X172174743Y-102934840D02*
X172209871Y-102968618D01*
X172206482Y-25292600D02*
X172240292Y-25328112D01*
X172206482Y-105704645D02*
X172170969Y-105738456D01*
X172209871Y-28028627D02*
X172174743Y-28062405D01*
X172209871Y-63968618D02*
X172243310Y-64004069D01*
X172209871Y-67028627D02*
X172174743Y-67062405D01*
X172209871Y-102968618D02*
X172243310Y-103004069D01*
X172240292Y-25328112D02*
X172272319Y-25365241D01*
X172240292Y-105669133D02*
X172206482Y-105704645D01*
X172243310Y-27993176D02*
X172209871Y-28028627D01*
X172243310Y-64004069D02*
X172274980Y-64041109D01*
X172243310Y-66993176D02*
X172209871Y-67028627D01*
X172243310Y-103004069D02*
X172274980Y-103041109D01*
X172272319Y-25365241D02*
X172302486Y-25403896D01*
X172272319Y-105632004D02*
X172240292Y-105669133D01*
X172274980Y-27956136D02*
X172243310Y-27993176D01*
X172274980Y-64041109D02*
X172304806Y-64079649D01*
X172274980Y-66956136D02*
X172243310Y-66993176D01*
X172274980Y-103041109D02*
X172304806Y-103079649D01*
X172302486Y-25403896D02*
X172330720Y-25443985D01*
X172302486Y-105593349D02*
X172272319Y-105632004D01*
X172304806Y-27917596D02*
X172274980Y-27956136D01*
X172304806Y-64079649D02*
X172332717Y-64119598D01*
X172304806Y-66917596D02*
X172274980Y-66956136D01*
X172304806Y-103079649D02*
X172332717Y-103119598D01*
X172330720Y-25443985D02*
X172356953Y-25485411D01*
X172330720Y-105553260D02*
X172302486Y-105593349D01*
X172332717Y-27877647D02*
X172304806Y-27917596D01*
X172332717Y-64119598D02*
X172358646Y-64160860D01*
X172332717Y-66877647D02*
X172304806Y-66917596D01*
X172332717Y-103119598D02*
X172358646Y-103160860D01*
X172356953Y-25485411D02*
X172381121Y-25528074D01*
X172356953Y-105511834D02*
X172330720Y-105553260D01*
X172358646Y-27836385D02*
X172332717Y-27877647D01*
X172358646Y-64160860D02*
X172382533Y-64203337D01*
X172358646Y-66836385D02*
X172332717Y-66877647D01*
X172358646Y-103160860D02*
X172382533Y-103203337D01*
X172381121Y-25528074D02*
X172403167Y-25571872D01*
X172381121Y-105469171D02*
X172356953Y-105511834D01*
X172382533Y-27793908D02*
X172358646Y-27836385D01*
X172382533Y-64203337D02*
X172404320Y-64246929D01*
X172382533Y-66793908D02*
X172358646Y-66836385D01*
X172382533Y-103203337D02*
X172404320Y-103246929D01*
X172403167Y-25571872D02*
X172423038Y-25616699D01*
X172403167Y-105425373D02*
X172381121Y-105469171D01*
X172404320Y-27750316D02*
X172382533Y-27793908D01*
X172404320Y-64246929D02*
X172423954Y-64291532D01*
X172404320Y-66750316D02*
X172382533Y-66793908D01*
X172404320Y-103246929D02*
X172423954Y-103291532D01*
X172423038Y-25616699D02*
X172440684Y-25662446D01*
X172423038Y-105380546D02*
X172403167Y-105425373D01*
X172423954Y-27705713D02*
X172404320Y-27750316D01*
X172423954Y-64291532D02*
X172441391Y-64337039D01*
X172423954Y-66705713D02*
X172404320Y-66750316D01*
X172423954Y-103291532D02*
X172441391Y-103337039D01*
X172440684Y-25662446D02*
X172456065Y-25709005D01*
X172440684Y-105334799D02*
X172423038Y-105380546D01*
X172441391Y-27660206D02*
X172423954Y-27705713D01*
X172441391Y-64337039D02*
X172456587Y-64383342D01*
X172441391Y-66660206D02*
X172423954Y-66705713D01*
X172441391Y-103337039D02*
X172456587Y-103383342D01*
X172456065Y-25709005D02*
X172469143Y-25756262D01*
X172456065Y-105288240D02*
X172440684Y-105334799D01*
X172456587Y-27613903D02*
X172441391Y-27660206D01*
X172456587Y-64383342D02*
X172469507Y-64430332D01*
X172456587Y-66613903D02*
X172441391Y-66660206D01*
X172456587Y-103383342D02*
X172469507Y-103430332D01*
X172469143Y-25756262D02*
X172479886Y-25804104D01*
X172469143Y-105240983D02*
X172456065Y-105288240D01*
X172469507Y-27566913D02*
X172456587Y-27613903D01*
X172469507Y-64430332D02*
X172480120Y-64477895D01*
X172469507Y-66566913D02*
X172456587Y-66613903D01*
X172469507Y-103430332D02*
X172480120Y-103477895D01*
X172479886Y-25804104D02*
X172488269Y-25852416D01*
X172479886Y-105193141D02*
X172469143Y-105240983D01*
X172480120Y-27519350D02*
X172469507Y-27566913D01*
X172480120Y-64477895D02*
X172488401Y-64525919D01*
X172480120Y-66519350D02*
X172469507Y-66566913D01*
X172480120Y-103477895D02*
X172488401Y-103525919D01*
X172488269Y-25852416D02*
X172494271Y-25901080D01*
X172488269Y-105144829D02*
X172479886Y-105193141D01*
X172488401Y-27471326D02*
X172480120Y-27519350D01*
X172488401Y-64525919D02*
X172494330Y-64574291D01*
X172488401Y-66471326D02*
X172480120Y-66519350D01*
X172488401Y-103525919D02*
X172494330Y-103574291D01*
X172494271Y-25901080D02*
X172497879Y-25949981D01*
X172494271Y-105096165D02*
X172488269Y-105144829D01*
X172494330Y-27422954D02*
X172488401Y-27471326D01*
X172494330Y-64574291D02*
X172497893Y-64622893D01*
X172494330Y-66422954D02*
X172488401Y-66471326D01*
X172494330Y-103574291D02*
X172497893Y-103622893D01*
X172497879Y-25949981D02*
X172499082Y-25999012D01*
X172497879Y-105047264D02*
X172494271Y-105096165D01*
X172497893Y-27374352D02*
X172494330Y-27422954D01*
X172497893Y-64622893D02*
X172499082Y-64671624D01*
X172497893Y-66374352D02*
X172494330Y-66422954D01*
X172497893Y-103622893D02*
X172499082Y-103671624D01*
X172499082Y-25999012D02*
X172499082Y-27325621D01*
X172499082Y-27325621D02*
X172497893Y-27374352D01*
X172499082Y-64671624D02*
X172499082Y-66325621D01*
X172499082Y-66325621D02*
X172497893Y-66374352D01*
X172499082Y-103671624D02*
X172499082Y-104998233D01*
X172499082Y-104998233D02*
X172497879Y-105047264D01*
X175499082Y-25999012D02*
X175500286Y-25949981D01*
X175499082Y-29013224D02*
X175499082Y-25999012D01*
X175499082Y-62984021D02*
X175500252Y-62935677D01*
X175499082Y-68013224D02*
X175499082Y-62984021D01*
X175499082Y-101984021D02*
X175500252Y-101935677D01*
X175499082Y-104998233D02*
X175499082Y-101984021D01*
X175500252Y-29061568D02*
X175499082Y-29013224D01*
X175500252Y-62935677D02*
X175503759Y-62887459D01*
X175500252Y-68061568D02*
X175499082Y-68013224D01*
X175500252Y-101935677D02*
X175503759Y-101887459D01*
X175500286Y-25949981D02*
X175503893Y-25901080D01*
X175500286Y-105047264D02*
X175499082Y-104998233D01*
X175503759Y-29109786D02*
X175500252Y-29061568D01*
X175503759Y-62887459D02*
X175509594Y-62839468D01*
X175503759Y-68109786D02*
X175500252Y-68061568D01*
X175503759Y-101887459D02*
X175509594Y-101839468D01*
X175503893Y-25901080D02*
X175509895Y-25852416D01*
X175503893Y-105096165D02*
X175500286Y-105047264D01*
X175509594Y-29157777D02*
X175503759Y-29109786D01*
X175509594Y-62839468D02*
X175517745Y-62791814D01*
X175509594Y-68157777D02*
X175503759Y-68109786D01*
X175509594Y-101839468D02*
X175517745Y-101791814D01*
X175509895Y-25852416D02*
X175518278Y-25804104D01*
X175509895Y-105144829D02*
X175503893Y-105096165D01*
X175517745Y-29205431D02*
X175509594Y-29157777D01*
X175517745Y-62791814D02*
X175528191Y-62744611D01*
X175517745Y-68205431D02*
X175509594Y-68157777D01*
X175517745Y-101791814D02*
X175528191Y-101744611D01*
X175518278Y-25804104D02*
X175529021Y-25756262D01*
X175518278Y-105193141D02*
X175509895Y-105144829D01*
X175528191Y-29252634D02*
X175517745Y-29205431D01*
X175528191Y-62744611D02*
X175540908Y-62697969D01*
X175528191Y-68252634D02*
X175517745Y-68205431D01*
X175528191Y-101744611D02*
X175540908Y-101697969D01*
X175529021Y-25756262D02*
X175542099Y-25709005D01*
X175529021Y-105240983D02*
X175518278Y-105193141D01*
X175540908Y-29299276D02*
X175528191Y-29252634D01*
X175540908Y-62697969D02*
X175555868Y-62651996D01*
X175540908Y-68299276D02*
X175528191Y-68252634D01*
X175540908Y-101697969D02*
X175555868Y-101651996D01*
X175542099Y-25709005D02*
X175557480Y-25662446D01*
X175542099Y-105288240D02*
X175529021Y-105240983D01*
X175555868Y-29345249D02*
X175540908Y-29299276D01*
X175555868Y-62651996D02*
X175573034Y-62606801D01*
X175555868Y-68345249D02*
X175540908Y-68299276D01*
X175555868Y-101651996D02*
X175573034Y-101606801D01*
X175557480Y-25662446D02*
X175575127Y-25616699D01*
X175557480Y-105334799D02*
X175542099Y-105288240D01*
X175573034Y-29390444D02*
X175555868Y-29345249D01*
X175573034Y-62606801D02*
X175592366Y-62562489D01*
X175573034Y-68390444D02*
X175555868Y-68345249D01*
X175573034Y-101606801D02*
X175592366Y-101562489D01*
X175575127Y-25616699D02*
X175594997Y-25571872D01*
X175575127Y-105380546D02*
X175557480Y-105334799D01*
X175592366Y-29434756D02*
X175573034Y-29390444D01*
X175592366Y-62562489D02*
X175613819Y-62519165D01*
X175592366Y-68434756D02*
X175573034Y-68390444D01*
X175592366Y-101562489D02*
X175613819Y-101519165D01*
X175594997Y-25571872D02*
X175617043Y-25528074D01*
X175594997Y-105425373D02*
X175575127Y-105380546D01*
X175613819Y-29478080D02*
X175592366Y-29434756D01*
X175613819Y-62519165D02*
X175637344Y-62476929D01*
X175613819Y-68478080D02*
X175592366Y-68434756D01*
X175613819Y-101519165D02*
X175637344Y-101476929D01*
X175617043Y-25528074D02*
X175641212Y-25485411D01*
X175617043Y-105469171D02*
X175594997Y-105425373D01*
X175637344Y-29520316D02*
X175613819Y-29478080D01*
X175637344Y-62476929D02*
X175662884Y-62435881D01*
X175637344Y-68520316D02*
X175613819Y-68478080D01*
X175637344Y-101476929D02*
X175662884Y-101435881D01*
X175641212Y-25485411D02*
X175667444Y-25443985D01*
X175641212Y-105511834D02*
X175617043Y-105469171D01*
X175662884Y-29561364D02*
X175637344Y-29520316D01*
X175662884Y-62435881D02*
X175690380Y-62396116D01*
X175662884Y-68561364D02*
X175637344Y-68520316D01*
X175662884Y-101435881D02*
X175690380Y-101396116D01*
X175667444Y-25443985D02*
X175695678Y-25403896D01*
X175667444Y-105553260D02*
X175641212Y-105511834D01*
X175690380Y-29601129D02*
X175662884Y-29561364D01*
X175690380Y-62396116D02*
X175719768Y-62357728D01*
X175690380Y-68601129D02*
X175662884Y-68561364D01*
X175690380Y-101396116D02*
X175719768Y-101357728D01*
X175695678Y-25403896D02*
X175725845Y-25365241D01*
X175695678Y-105593349D02*
X175667444Y-105553260D01*
X175719768Y-29639517D02*
X175690380Y-29601129D01*
X175719768Y-62357728D02*
X175750978Y-62320807D01*
X175719768Y-68639517D02*
X175690380Y-68601129D01*
X175719768Y-101357728D02*
X175750978Y-101320807D01*
X175725845Y-25365241D02*
X175757872Y-25328112D01*
X175725845Y-105632004D02*
X175695678Y-105593349D01*
X175750978Y-29676438D02*
X175719768Y-29639517D01*
X175750978Y-62320807D02*
X175783938Y-62285439D01*
X175750978Y-68676438D02*
X175719768Y-68639517D01*
X175750978Y-101320807D02*
X175783938Y-101285439D01*
X175757872Y-25328112D02*
X175791683Y-25292600D01*
X175757872Y-105669133D02*
X175725845Y-105632004D01*
X175783938Y-29711806D02*
X175750978Y-29676438D01*
X175783938Y-62285439D02*
X175818571Y-62251707D01*
X175783938Y-68711806D02*
X175750978Y-68676438D01*
X175783938Y-101285439D02*
X175818571Y-101251707D01*
X175791683Y-25292600D02*
X175827195Y-25258789D01*
X175791683Y-105704645D02*
X175757872Y-105669133D01*
X175818571Y-29745538D02*
X175783938Y-29711806D01*
X175818571Y-62251707D02*
X175854795Y-62219690D01*
X175818571Y-68745538D02*
X175783938Y-68711806D01*
X175818571Y-101251707D02*
X175854795Y-101219690D01*
X175827195Y-25258789D02*
X175864323Y-25226762D01*
X175827195Y-105738456D02*
X175791683Y-105704645D01*
X175854795Y-29777555D02*
X175818571Y-29745538D01*
X175854795Y-62219690D02*
X175892526Y-62189463D01*
X175854795Y-68777555D02*
X175818571Y-68745538D01*
X175854795Y-101219690D02*
X175892526Y-101189463D01*
X175864323Y-25226762D02*
X175902979Y-25196595D01*
X175864323Y-105770483D02*
X175827195Y-105738456D01*
X175892526Y-29807782D02*
X175854795Y-29777555D01*
X175892526Y-62189463D02*
X175931674Y-62161097D01*
X175892526Y-68807782D02*
X175854795Y-68777555D01*
X175892526Y-101189463D02*
X175931674Y-101161097D01*
X175902979Y-25196595D02*
X175943068Y-25168361D01*
X175902979Y-105800650D02*
X175864323Y-105770483D01*
X175931674Y-29836148D02*
X175892526Y-29807782D01*
X175931674Y-62161097D02*
X175972150Y-62134658D01*
X175931674Y-68836148D02*
X175892526Y-68807782D01*
X175931674Y-101161097D02*
X175972150Y-101134658D01*
X175943068Y-25168361D02*
X175984494Y-25142129D01*
X175943068Y-105828884D02*
X175902979Y-105800650D01*
X175972150Y-29862587D02*
X175931674Y-29836148D01*
X175972150Y-62134658D02*
X176013857Y-62110209D01*
X175972150Y-68862587D02*
X175931674Y-68836148D01*
X175972150Y-101134658D02*
X176013857Y-101110209D01*
X175984494Y-25142129D02*
X176027157Y-25117960D01*
X175984494Y-105855116D02*
X175943068Y-105828884D01*
X176013857Y-29887036D02*
X175972150Y-29862587D01*
X176013857Y-62110209D02*
X176357887Y-61938787D01*
X176013857Y-68887036D02*
X175972150Y-68862587D01*
X176013857Y-101110209D02*
X176056708Y-101087800D01*
X176027157Y-25117960D02*
X176070955Y-25095914D01*
X176027157Y-105879285D02*
X175984494Y-105855116D01*
X176056708Y-29909445D02*
X176013857Y-29887036D01*
X176056708Y-68909445D02*
X176013857Y-68887036D01*
X176056708Y-101087800D02*
X176357908Y-100938775D01*
X176070955Y-25095914D02*
X176115782Y-25076044D01*
X176070955Y-105901331D02*
X176027157Y-105879285D01*
X176115782Y-25076044D02*
X176161529Y-25058397D01*
X176115782Y-105921201D02*
X176070955Y-105901331D01*
X176161529Y-25058397D02*
X176208088Y-25043016D01*
X176161529Y-105938848D02*
X176115782Y-105921201D01*
X176208088Y-25043016D02*
X176255345Y-25029938D01*
X176208088Y-105954229D02*
X176161529Y-105938848D01*
X176255345Y-25029938D02*
X176303187Y-25019195D01*
X176255345Y-105967307D02*
X176208088Y-105954229D01*
X176303187Y-25019195D02*
X176351498Y-25010812D01*
X176303187Y-105978050D02*
X176255345Y-105967307D01*
X176351498Y-25010812D02*
X176400163Y-25004810D01*
X176351498Y-105986433D02*
X176303187Y-105978050D01*
X176357887Y-61938787D02*
X177135978Y-61505805D01*
X176357908Y-30058470D02*
X176056708Y-29909445D01*
X176357908Y-69058470D02*
X176056708Y-68909445D01*
X176357908Y-100938775D02*
X177135978Y-100505805D01*
X176400163Y-25004810D02*
X176449064Y-25001203D01*
X176400163Y-105992435D02*
X176351498Y-105986433D01*
X176449064Y-25001203D02*
X176498094Y-24999999D01*
X176449064Y-105996042D02*
X176400163Y-105992435D01*
X176498094Y-24999999D02*
X185996469Y-24999599D01*
X176498094Y-105997246D02*
X176449064Y-105996042D01*
X177114685Y-69478910D02*
X176357908Y-69058470D01*
X177135978Y-30491440D02*
X176357908Y-30058470D01*
X177135978Y-61505805D02*
X177871037Y-61048454D01*
X177135978Y-100505805D02*
X177891664Y-100034901D01*
X177871037Y-61048454D02*
X178603205Y-60541758D01*
X177891664Y-30962344D02*
X177135978Y-30491440D01*
X177891664Y-100034901D02*
X178603225Y-99541743D01*
X177891684Y-69962358D02*
X177114685Y-69478910D01*
X178603205Y-60541758D02*
X179328666Y-59983903D01*
X178603225Y-31455502D02*
X177891664Y-30962344D01*
X178603225Y-99541743D02*
X179328666Y-98983903D01*
X178623157Y-70470058D02*
X177891684Y-69962358D01*
X179309440Y-70997786D02*
X178623157Y-70470058D01*
X179328666Y-32013342D02*
X178603225Y-31455502D01*
X179328666Y-59983903D02*
X179988011Y-59422881D01*
X179328666Y-98983903D02*
X180006407Y-98406427D01*
X179988011Y-59422881D02*
X180637201Y-58813485D01*
X180006407Y-32590818D02*
X179328666Y-32013342D01*
X180006407Y-98406427D02*
X180637218Y-97813468D01*
X180006425Y-71590835D02*
X179309440Y-70997786D01*
X180637201Y-58813485D02*
X181272175Y-58154503D01*
X180637218Y-33183777D02*
X180006407Y-32590818D01*
X180637218Y-72183777D02*
X180006425Y-71590835D01*
X180637218Y-97813468D02*
X181272191Y-97154484D01*
X181255477Y-72824533D02*
X180637218Y-72183777D01*
X181272175Y-58154503D02*
X181857101Y-57483115D01*
X181272191Y-33842761D02*
X180637218Y-33183777D01*
X181272191Y-97154484D02*
X181857085Y-96483135D01*
X181857085Y-34514110D02*
X181272191Y-33842761D01*
X181857085Y-73514110D02*
X181255477Y-72824533D01*
X181857085Y-96483135D02*
X182408078Y-95783662D01*
X181857101Y-57483115D02*
X182408093Y-56783642D01*
X182408078Y-35213583D02*
X181857085Y-34514110D01*
X182408078Y-95783662D02*
X182909999Y-95078254D01*
X182408093Y-56783642D02*
X182923806Y-56057796D01*
X182408093Y-74213603D02*
X181857085Y-73514110D01*
X182909999Y-35918991D02*
X182408078Y-35213583D01*
X182909999Y-95078254D02*
X183390214Y-94328451D01*
X182923806Y-56057796D02*
X183390214Y-55328451D01*
X182923806Y-74939449D02*
X182408093Y-74213603D01*
X183390214Y-36668794D02*
X182909999Y-35918991D01*
X183390214Y-55328451D02*
X183832786Y-54555774D01*
X183390214Y-75668794D02*
X182923806Y-74939449D01*
X183390214Y-94328451D02*
X183844516Y-93534030D01*
X183832786Y-54555774D02*
X184247233Y-53739880D01*
X183844505Y-37463193D02*
X183390214Y-36668794D01*
X183844516Y-76463215D02*
X183390214Y-75668794D01*
X183844516Y-93534030D02*
X184236593Y-92762177D01*
X184236593Y-77235068D02*
X183844516Y-76463215D01*
X184236593Y-92762177D02*
X184600650Y-91949604D01*
X184247223Y-38257343D02*
X183844505Y-37463193D01*
X184247233Y-53739880D02*
X184600659Y-52949581D01*
X184600650Y-78047641D02*
X184236593Y-77235068D01*
X184600650Y-91949604D02*
X184924086Y-91119999D01*
X184600659Y-52949581D02*
X184924086Y-52119999D01*
X184610184Y-39070460D02*
X184247223Y-38257343D01*
X184924086Y-52119999D02*
X185213333Y-51251765D01*
X184924086Y-91119999D02*
X185206107Y-90275390D01*
X184924095Y-78877269D02*
X184600650Y-78047641D01*
X184932472Y-39900485D02*
X184610184Y-39070460D01*
X185206099Y-40721831D02*
X184932472Y-39900485D01*
X185206107Y-90275390D02*
X185452049Y-89393962D01*
X185213333Y-51251765D02*
X185452049Y-50393962D01*
X185213333Y-79745480D02*
X184924095Y-78877269D01*
X185446006Y-41579354D02*
X185206099Y-40721831D01*
X185452049Y-50393962D02*
X185643200Y-49549602D01*
X185452049Y-80603283D02*
X185213333Y-79745480D01*
X185452049Y-89393962D02*
X185648062Y-88525354D01*
X185643200Y-49549602D02*
X185800872Y-48648165D01*
X185643200Y-81447643D02*
X185452049Y-80603283D01*
X185648058Y-42471866D02*
X185446006Y-41579354D01*
X185648062Y-88525354D02*
X185797222Y-87672575D01*
X185797222Y-87672575D02*
X185907676Y-86789053D01*
X185800872Y-48648165D02*
X185907679Y-47789028D01*
X185800872Y-82349080D02*
X185643200Y-81447643D01*
X185800875Y-43349104D02*
X185648058Y-42471866D01*
X185907676Y-86789053D02*
X185974306Y-85901100D01*
X185907679Y-47789028D02*
X185974305Y-46901125D01*
X185907679Y-83208217D02*
X185800872Y-82349080D01*
X185910117Y-44232777D02*
X185800875Y-43349104D01*
X185974305Y-45096120D02*
X185910117Y-44232777D01*
X185974305Y-46901125D02*
X185996941Y-45986282D01*
X185974305Y-84096120D02*
X185907679Y-83208217D01*
X185974306Y-85901100D02*
X185996941Y-85010963D01*
X185996469Y-24999599D02*
X185996734Y-20000616D01*
X185996469Y-105997646D02*
X176498094Y-105997246D01*
X185996630Y-110996733D02*
X185996469Y-105997646D01*
X185996734Y-20000616D02*
X111003999Y-20000270D01*
X185996941Y-45986282D02*
X185974305Y-45096120D01*
X185996941Y-85010963D02*
X185974305Y-84096120D01*
M02*
