M48
; DRILL file KiCad 10.0.6 date 2026-09-27T13:08:26
; FORMAT={-:-/ absolute / metric / decimal}
; #@! TF.CreationDate,2026-09-27T13:08:26+02:00
; #@! TF.GenerationSoftware,Kicad,Pcbnew,10.0.6
; #@! TF.FileFunction,MixedPlating,1,2
FMAT,2
METRIC
; #@! TA.AperFunction,Plated,PTH,ViaDrill
T1C0.300
; #@! TA.AperFunction,Plated,PTH,ComponentDrill
T2C0.850
; #@! TA.AperFunction,Plated,PTH,ComponentDrill
T3C1.000
; #@! TA.AperFunction,NonPlated,NPTH,ComponentDrill
T4C0.500
; #@! TA.AperFunction,NonPlated,NPTH,ComponentDrill
T5C0.991
; #@! TA.AperFunction,NonPlated,NPTH,ComponentDrill
T6C1.152
; #@! TA.AperFunction,NonPlated,NPTH,ComponentDrill
T7C1.800
%
G90
G05
T1
X116.625Y-54.0
X116.625Y-93.0
X118.679Y-51.432
X118.679Y-90.432
X118.71Y-52.106
X118.71Y-91.106
X118.725Y-39.237
X118.725Y-78.237
X119.165Y-55.365
X119.165Y-94.365
X119.825Y-34.8
X119.825Y-73.8
X119.854Y-51.46
X119.854Y-90.46
X120.453Y-52.671
X120.453Y-91.671
X121.425Y-33.2
X121.425Y-34.8
X121.425Y-57.2
X121.425Y-72.2
X121.425Y-73.8
X121.425Y-96.2
X121.47Y-52.747
X121.47Y-91.747
X122.203Y-52.442
X122.203Y-91.442
X123.025Y-31.6
X123.025Y-33.2
X123.025Y-34.8
X123.025Y-57.2
X123.025Y-60.4
X123.025Y-70.6
X123.025Y-72.2
X123.025Y-73.8
X123.025Y-96.2
X123.025Y-99.4
X123.235Y-56.0
X123.235Y-95.0
X123.41Y-35.855
X123.41Y-74.855
X123.811Y-55.386
X123.811Y-94.386
X123.818Y-54.296
X123.818Y-93.296
X123.995Y-52.42
X123.995Y-91.42
X124.625Y-57.2
X124.625Y-60.4
X124.625Y-96.2
X124.625Y-99.4
X124.958Y-55.079
X124.958Y-94.079
X125.613Y-54.2
X125.613Y-93.2
X125.733Y-49.535
X125.733Y-88.535
X125.978Y-52.58
X125.978Y-91.58
X126.225Y-60.4
X126.225Y-62.0
X126.225Y-99.4
X126.225Y-101.0
X126.349Y-58.774
X126.349Y-97.774
X126.456Y-35.467
X126.456Y-74.467
X126.647Y-40.508
X126.647Y-79.508
X127.16Y-48.412
X127.16Y-87.412
X127.364Y-53.917
X127.364Y-92.917
X127.825Y-38.0
X127.825Y-60.4
X127.825Y-62.0
X127.825Y-77.0
X127.825Y-99.4
X127.825Y-101.0
X127.864Y-52.158
X127.864Y-91.158
X127.89Y-49.062
X127.89Y-88.062
X128.055Y-56.5
X128.055Y-95.5
X128.097Y-50.16
X128.097Y-89.16
X128.329Y-39.988
X128.329Y-78.988
X128.842Y-52.433
X128.842Y-91.433
X129.425Y-57.2
X129.425Y-96.2
X129.517Y-51.478
X129.517Y-90.478
X129.644Y-48.983
X129.644Y-87.983
X129.699Y-46.801
X129.699Y-85.801
X129.772Y-45.509
X129.772Y-84.509
X129.777Y-40.909
X129.777Y-79.909
X129.846Y-39.877
X129.846Y-78.877
X129.978Y-47.589
X129.978Y-86.589
X130.655Y-39.879
X130.655Y-78.879
X130.996Y-50.173
X130.996Y-89.173
X131.105Y-37.9
X131.105Y-76.9
X131.129Y-51.8
X131.129Y-90.8
X131.231Y-49.249
X131.231Y-88.249
X131.31Y-42.144
X131.31Y-81.144
X131.719Y-55.352
X131.719Y-94.352
X132.588Y-59.4
X132.588Y-98.4
X133.425Y-54.525
X133.425Y-93.525
X133.505Y-39.1
X133.505Y-78.1
X134.225Y-62.0
X134.225Y-101.0
X134.327Y-55.507
X134.327Y-94.507
X135.046Y-38.082
X135.046Y-77.082
X135.6Y-36.839
X135.6Y-75.839
X135.825Y-62.0
X135.825Y-101.0
X135.99Y-35.02
X135.99Y-74.02
X136.425Y-54.89
X136.425Y-93.89
X138.199Y-57.787
X138.199Y-96.787
X140.971Y-59.95
X140.971Y-98.95
X143.436Y-55.755
X143.436Y-94.755
X153.597Y-54.0
X153.597Y-93.0
X155.652Y-51.432
X155.652Y-90.432
X155.682Y-52.106
X155.682Y-91.106
X155.697Y-39.237
X155.697Y-78.237
X156.137Y-55.365
X156.137Y-94.365
X156.797Y-34.8
X156.797Y-73.8
X156.826Y-51.46
X156.826Y-90.46
X157.426Y-52.671
X157.426Y-91.671
X158.397Y-33.2
X158.397Y-34.8
X158.397Y-57.2
X158.397Y-72.2
X158.397Y-73.8
X158.397Y-96.2
X158.442Y-52.747
X158.442Y-91.747
X159.176Y-52.442
X159.176Y-91.442
X159.997Y-31.6
X159.997Y-33.2
X159.997Y-34.8
X159.997Y-57.2
X159.997Y-60.4
X159.997Y-70.6
X159.997Y-72.2
X159.997Y-73.8
X159.997Y-96.2
X159.997Y-99.4
X160.207Y-56.0
X160.207Y-95.0
X160.382Y-35.855
X160.382Y-74.855
X160.783Y-55.386
X160.783Y-94.386
X160.791Y-54.296
X160.791Y-93.296
X160.967Y-52.42
X160.967Y-91.42
X161.597Y-57.2
X161.597Y-60.4
X161.597Y-96.2
X161.597Y-99.4
X161.93Y-55.079
X161.93Y-94.079
X162.585Y-54.2
X162.585Y-93.2
X162.705Y-49.535
X162.705Y-88.535
X162.951Y-52.58
X162.951Y-91.58
X163.197Y-60.4
X163.197Y-62.0
X163.197Y-99.4
X163.197Y-101.0
X163.321Y-58.774
X163.321Y-97.774
X163.428Y-35.467
X163.428Y-74.467
X163.619Y-40.508
X163.619Y-79.508
X164.132Y-48.412
X164.132Y-87.412
X164.336Y-53.917
X164.336Y-92.917
X164.797Y-38.0
X164.797Y-60.4
X164.797Y-62.0
X164.797Y-77.0
X164.797Y-99.4
X164.797Y-101.0
X164.836Y-52.158
X164.836Y-91.158
X164.862Y-49.062
X164.862Y-88.062
X165.027Y-56.5
X165.027Y-95.5
X165.069Y-50.16
X165.069Y-89.16
X165.301Y-39.988
X165.301Y-78.988
X165.814Y-52.433
X165.814Y-91.433
X166.397Y-57.2
X166.397Y-96.2
X166.489Y-51.478
X166.489Y-90.478
X166.616Y-48.983
X166.616Y-87.983
X166.671Y-46.801
X166.671Y-85.801
X166.744Y-45.509
X166.744Y-84.509
X166.749Y-40.909
X166.749Y-79.909
X166.818Y-39.877
X166.818Y-78.877
X166.951Y-47.589
X166.951Y-86.589
X167.627Y-39.879
X167.627Y-78.879
X167.968Y-50.173
X167.968Y-89.173
X168.077Y-37.9
X168.077Y-76.9
X168.102Y-51.8
X168.102Y-90.8
X168.203Y-49.249
X168.203Y-88.249
X168.282Y-42.144
X168.282Y-81.144
X168.692Y-55.352
X168.692Y-94.352
X169.56Y-59.4
X169.56Y-98.4
X170.397Y-54.525
X170.397Y-93.525
X170.477Y-39.1
X170.477Y-78.1
X171.197Y-62.0
X171.197Y-101.0
X171.3Y-55.507
X171.3Y-94.507
X172.018Y-38.082
X172.018Y-77.082
X172.572Y-36.839
X172.572Y-75.839
X172.797Y-62.0
X172.797Y-101.0
X172.962Y-35.02
X172.962Y-74.02
X173.397Y-54.89
X173.397Y-93.89
X175.171Y-57.787
X175.171Y-96.787
X177.943Y-59.95
X177.943Y-98.95
X180.409Y-55.755
X180.409Y-94.755
T2
X129.775Y-32.5
X129.775Y-71.5
X132.275Y-32.5
X132.275Y-71.5
X166.747Y-32.5
X166.747Y-71.5
X169.247Y-32.5
X169.247Y-71.5
T3
X139.525Y-35.8
X139.525Y-56.2
X139.525Y-74.8
X139.525Y-95.2
X176.497Y-35.8
X176.497Y-56.2
X176.497Y-74.8
X176.497Y-95.2
T4
X122.5Y-30.375
X122.5Y-61.625
X122.5Y-69.375
X122.5Y-100.625
X123.246Y-29.99
X123.246Y-62.01
X123.246Y-68.99
X123.246Y-101.01
X124.01Y-29.642
X124.01Y-62.358
X124.01Y-68.642
X124.01Y-101.358
X124.79Y-29.33
X124.79Y-62.669
X124.79Y-68.33
X124.79Y-101.669
X125.583Y-29.056
X125.583Y-62.944
X125.583Y-68.056
X125.583Y-101.944
X126.388Y-28.819
X126.388Y-63.181
X126.388Y-67.819
X126.388Y-102.181
X133.648Y-28.395
X133.648Y-63.605
X133.648Y-67.395
X133.648Y-102.605
X134.45Y-28.534
X134.45Y-63.466
X134.45Y-67.534
X134.45Y-102.466
X135.245Y-28.71
X135.245Y-63.29
X135.245Y-67.71
X135.245Y-102.29
X136.031Y-28.922
X136.031Y-63.078
X136.031Y-67.922
X136.031Y-102.078
X136.806Y-29.17
X136.806Y-62.83
X136.806Y-68.17
X136.806Y-101.83
X137.569Y-29.452
X137.569Y-62.548
X137.569Y-68.452
X137.569Y-101.548
X159.472Y-30.375
X159.472Y-61.625
X159.472Y-69.375
X159.472Y-100.625
X160.218Y-29.99
X160.218Y-62.01
X160.218Y-68.99
X160.218Y-101.01
X160.983Y-29.642
X160.983Y-62.358
X160.983Y-68.642
X160.983Y-101.358
X161.762Y-29.33
X161.762Y-62.669
X161.762Y-68.33
X161.762Y-101.669
X162.555Y-29.056
X162.555Y-62.944
X162.555Y-68.056
X162.555Y-101.944
X163.361Y-28.819
X163.361Y-63.181
X163.361Y-67.819
X163.361Y-102.181
X170.62Y-28.395
X170.62Y-63.605
X170.62Y-67.395
X170.62Y-102.605
X171.423Y-28.534
X171.423Y-63.466
X171.423Y-67.534
X171.423Y-102.466
X172.217Y-28.71
X172.217Y-63.29
X172.217Y-67.71
X172.217Y-102.29
X173.003Y-28.922
X173.003Y-63.078
X173.003Y-67.922
X173.003Y-102.078
X173.778Y-29.17
X173.778Y-62.83
X173.778Y-68.17
X173.778Y-101.83
X174.541Y-29.452
X174.541Y-62.548
X174.541Y-68.452
X174.541Y-101.548
T5
X120.485Y-37.6
X120.485Y-76.6
X125.565Y-36.584
X125.565Y-38.616
X125.565Y-75.584
X125.565Y-77.616
X157.457Y-37.6
X157.457Y-76.6
X162.537Y-36.584
X162.537Y-38.616
X162.537Y-75.584
X162.537Y-77.616
T6
X115.531Y-22.5
X115.531Y-108.5
X181.469Y-22.5
T7
X117.032Y-37.256
X117.032Y-76.256
X131.025Y-62.5
X131.025Y-101.5
X143.665Y-35.394
X143.665Y-74.394
X154.004Y-37.256
X154.004Y-76.256
X167.997Y-62.5
X167.997Y-101.5
X180.637Y-35.394
X180.637Y-74.394
M30
