%TF.GenerationSoftware,KiCad,Pcbnew,10.0.6*%
%TF.CreationDate,2026-09-30T15:20:24+02:00*%
%TF.ProjectId,shotpuck-panel,73686f74-7075-4636-9b2d-70616e656c2e,rev?*%
%TF.SameCoordinates,Original*%
%TF.FileFunction,Legend,Top*%
%TF.FilePolarity,Positive*%
%FSLAX46Y46*%
G04 Gerber Fmt 4.6, Leading zero omitted, Abs format (unit mm)*
G04 Created by KiCad (PCBNEW 10.0.6) date 2026-09-30 15:20:24*
%MOMM*%
%LPD*%
G01*
G04 APERTURE LIST*
%ADD10C,0.200000*%
%ADD11C,0.300000*%
%ADD12C,0.120000*%
%ADD13C,0.100000*%
G04 APERTURE END LIST*
D10*
X119694230Y-58609616D02*
X119613418Y-59067552D01*
X120017479Y-58932865D02*
X119451793Y-59498550D01*
X119451793Y-59498550D02*
X119236294Y-59283051D01*
X119236294Y-59283051D02*
X119209357Y-59202239D01*
X119209357Y-59202239D02*
X119209357Y-59148364D01*
X119209357Y-59148364D02*
X119236294Y-59067552D01*
X119236294Y-59067552D02*
X119317106Y-58986740D01*
X119317106Y-58986740D02*
X119397919Y-58959802D01*
X119397919Y-58959802D02*
X119451793Y-58959802D01*
X119451793Y-58959802D02*
X119532606Y-58986740D01*
X119532606Y-58986740D02*
X119748105Y-59202239D01*
X119451793Y-58421054D02*
X119397919Y-58313305D01*
X119397919Y-58313305D02*
X119263232Y-58178618D01*
X119263232Y-58178618D02*
X119182419Y-58151680D01*
X119182419Y-58151680D02*
X119128545Y-58151680D01*
X119128545Y-58151680D02*
X119047732Y-58178618D01*
X119047732Y-58178618D02*
X118993858Y-58232492D01*
X118993858Y-58232492D02*
X118966920Y-58313305D01*
X118966920Y-58313305D02*
X118966920Y-58367179D01*
X118966920Y-58367179D02*
X118993858Y-58447992D01*
X118993858Y-58447992D02*
X119074670Y-58582679D01*
X119074670Y-58582679D02*
X119101607Y-58663491D01*
X119101607Y-58663491D02*
X119101607Y-58717366D01*
X119101607Y-58717366D02*
X119074670Y-58798178D01*
X119074670Y-58798178D02*
X119020795Y-58852053D01*
X119020795Y-58852053D02*
X118939983Y-58878990D01*
X118939983Y-58878990D02*
X118886108Y-58878990D01*
X118886108Y-58878990D02*
X118805296Y-58852053D01*
X118805296Y-58852053D02*
X118670609Y-58717366D01*
X118670609Y-58717366D02*
X118616734Y-58609616D01*
X118428172Y-58474929D02*
X118104923Y-58151680D01*
X118832233Y-57747619D02*
X118266548Y-58313304D01*
X158694230Y-58609616D02*
X158613418Y-59067552D01*
X159017479Y-58932865D02*
X158451793Y-59498550D01*
X158451793Y-59498550D02*
X158236294Y-59283051D01*
X158236294Y-59283051D02*
X158209357Y-59202239D01*
X158209357Y-59202239D02*
X158209357Y-59148364D01*
X158209357Y-59148364D02*
X158236294Y-59067552D01*
X158236294Y-59067552D02*
X158317106Y-58986740D01*
X158317106Y-58986740D02*
X158397919Y-58959802D01*
X158397919Y-58959802D02*
X158451793Y-58959802D01*
X158451793Y-58959802D02*
X158532606Y-58986740D01*
X158532606Y-58986740D02*
X158748105Y-59202239D01*
X158451793Y-58421054D02*
X158397919Y-58313305D01*
X158397919Y-58313305D02*
X158263232Y-58178618D01*
X158263232Y-58178618D02*
X158182419Y-58151680D01*
X158182419Y-58151680D02*
X158128545Y-58151680D01*
X158128545Y-58151680D02*
X158047732Y-58178618D01*
X158047732Y-58178618D02*
X157993858Y-58232492D01*
X157993858Y-58232492D02*
X157966920Y-58313305D01*
X157966920Y-58313305D02*
X157966920Y-58367179D01*
X157966920Y-58367179D02*
X157993858Y-58447992D01*
X157993858Y-58447992D02*
X158074670Y-58582679D01*
X158074670Y-58582679D02*
X158101607Y-58663491D01*
X158101607Y-58663491D02*
X158101607Y-58717366D01*
X158101607Y-58717366D02*
X158074670Y-58798178D01*
X158074670Y-58798178D02*
X158020795Y-58852053D01*
X158020795Y-58852053D02*
X157939983Y-58878990D01*
X157939983Y-58878990D02*
X157886108Y-58878990D01*
X157886108Y-58878990D02*
X157805296Y-58852053D01*
X157805296Y-58852053D02*
X157670609Y-58717366D01*
X157670609Y-58717366D02*
X157616734Y-58609616D01*
X157428172Y-58474929D02*
X157104923Y-58151680D01*
X157832233Y-57747619D02*
X157266548Y-58313304D01*
X138305769Y-73949615D02*
X138386581Y-73491679D01*
X137982520Y-73626366D02*
X138548206Y-73060681D01*
X138548206Y-73060681D02*
X138763705Y-73276180D01*
X138763705Y-73276180D02*
X138790642Y-73356992D01*
X138790642Y-73356992D02*
X138790642Y-73410867D01*
X138790642Y-73410867D02*
X138763705Y-73491679D01*
X138763705Y-73491679D02*
X138682893Y-73572491D01*
X138682893Y-73572491D02*
X138602080Y-73599429D01*
X138602080Y-73599429D02*
X138548206Y-73599429D01*
X138548206Y-73599429D02*
X138467393Y-73572491D01*
X138467393Y-73572491D02*
X138251894Y-73356992D01*
X138548206Y-74138177D02*
X138602080Y-74245926D01*
X138602080Y-74245926D02*
X138736767Y-74380613D01*
X138736767Y-74380613D02*
X138817580Y-74407551D01*
X138817580Y-74407551D02*
X138871454Y-74407551D01*
X138871454Y-74407551D02*
X138952267Y-74380613D01*
X138952267Y-74380613D02*
X139006141Y-74326739D01*
X139006141Y-74326739D02*
X139033079Y-74245926D01*
X139033079Y-74245926D02*
X139033079Y-74192052D01*
X139033079Y-74192052D02*
X139006141Y-74111239D01*
X139006141Y-74111239D02*
X138925329Y-73976552D01*
X138925329Y-73976552D02*
X138898392Y-73895740D01*
X138898392Y-73895740D02*
X138898392Y-73841865D01*
X138898392Y-73841865D02*
X138925329Y-73761053D01*
X138925329Y-73761053D02*
X138979204Y-73707178D01*
X138979204Y-73707178D02*
X139060016Y-73680241D01*
X139060016Y-73680241D02*
X139113891Y-73680241D01*
X139113891Y-73680241D02*
X139194703Y-73707178D01*
X139194703Y-73707178D02*
X139329390Y-73841865D01*
X139329390Y-73841865D02*
X139383265Y-73949615D01*
X139571827Y-74084302D02*
X139895076Y-74407551D01*
X139167766Y-74811612D02*
X139733451Y-74245927D01*
X177305769Y-73949615D02*
X177386581Y-73491679D01*
X176982520Y-73626366D02*
X177548206Y-73060681D01*
X177548206Y-73060681D02*
X177763705Y-73276180D01*
X177763705Y-73276180D02*
X177790642Y-73356992D01*
X177790642Y-73356992D02*
X177790642Y-73410867D01*
X177790642Y-73410867D02*
X177763705Y-73491679D01*
X177763705Y-73491679D02*
X177682893Y-73572491D01*
X177682893Y-73572491D02*
X177602080Y-73599429D01*
X177602080Y-73599429D02*
X177548206Y-73599429D01*
X177548206Y-73599429D02*
X177467393Y-73572491D01*
X177467393Y-73572491D02*
X177251894Y-73356992D01*
X177548206Y-74138177D02*
X177602080Y-74245926D01*
X177602080Y-74245926D02*
X177736767Y-74380613D01*
X177736767Y-74380613D02*
X177817580Y-74407551D01*
X177817580Y-74407551D02*
X177871454Y-74407551D01*
X177871454Y-74407551D02*
X177952267Y-74380613D01*
X177952267Y-74380613D02*
X178006141Y-74326739D01*
X178006141Y-74326739D02*
X178033079Y-74245926D01*
X178033079Y-74245926D02*
X178033079Y-74192052D01*
X178033079Y-74192052D02*
X178006141Y-74111239D01*
X178006141Y-74111239D02*
X177925329Y-73976552D01*
X177925329Y-73976552D02*
X177898392Y-73895740D01*
X177898392Y-73895740D02*
X177898392Y-73841865D01*
X177898392Y-73841865D02*
X177925329Y-73761053D01*
X177925329Y-73761053D02*
X177979204Y-73707178D01*
X177979204Y-73707178D02*
X178060016Y-73680241D01*
X178060016Y-73680241D02*
X178113891Y-73680241D01*
X178113891Y-73680241D02*
X178194703Y-73707178D01*
X178194703Y-73707178D02*
X178329390Y-73841865D01*
X178329390Y-73841865D02*
X178383265Y-73949615D01*
X178571827Y-74084302D02*
X178895076Y-74407551D01*
X178167766Y-74811612D02*
X178733451Y-74245927D01*
X136540296Y-91172087D02*
X136683153Y-91219706D01*
X136683153Y-91219706D02*
X136921248Y-91219706D01*
X136921248Y-91219706D02*
X137016486Y-91172087D01*
X137016486Y-91172087D02*
X137064105Y-91124467D01*
X137064105Y-91124467D02*
X137111724Y-91029229D01*
X137111724Y-91029229D02*
X137111724Y-90933991D01*
X137111724Y-90933991D02*
X137064105Y-90838753D01*
X137064105Y-90838753D02*
X137016486Y-90791134D01*
X137016486Y-90791134D02*
X136921248Y-90743515D01*
X136921248Y-90743515D02*
X136730772Y-90695896D01*
X136730772Y-90695896D02*
X136635534Y-90648277D01*
X136635534Y-90648277D02*
X136587915Y-90600658D01*
X136587915Y-90600658D02*
X136540296Y-90505420D01*
X136540296Y-90505420D02*
X136540296Y-90410182D01*
X136540296Y-90410182D02*
X136587915Y-90314944D01*
X136587915Y-90314944D02*
X136635534Y-90267325D01*
X136635534Y-90267325D02*
X136730772Y-90219706D01*
X136730772Y-90219706D02*
X136968867Y-90219706D01*
X136968867Y-90219706D02*
X137111724Y-90267325D01*
X137540296Y-91219706D02*
X137540296Y-90219706D01*
X137968867Y-91219706D02*
X137968867Y-90695896D01*
X137968867Y-90695896D02*
X137921248Y-90600658D01*
X137921248Y-90600658D02*
X137826010Y-90553039D01*
X137826010Y-90553039D02*
X137683153Y-90553039D01*
X137683153Y-90553039D02*
X137587915Y-90600658D01*
X137587915Y-90600658D02*
X137540296Y-90648277D01*
X138587915Y-91219706D02*
X138492677Y-91172087D01*
X138492677Y-91172087D02*
X138445058Y-91124467D01*
X138445058Y-91124467D02*
X138397439Y-91029229D01*
X138397439Y-91029229D02*
X138397439Y-90743515D01*
X138397439Y-90743515D02*
X138445058Y-90648277D01*
X138445058Y-90648277D02*
X138492677Y-90600658D01*
X138492677Y-90600658D02*
X138587915Y-90553039D01*
X138587915Y-90553039D02*
X138730772Y-90553039D01*
X138730772Y-90553039D02*
X138826010Y-90600658D01*
X138826010Y-90600658D02*
X138873629Y-90648277D01*
X138873629Y-90648277D02*
X138921248Y-90743515D01*
X138921248Y-90743515D02*
X138921248Y-91029229D01*
X138921248Y-91029229D02*
X138873629Y-91124467D01*
X138873629Y-91124467D02*
X138826010Y-91172087D01*
X138826010Y-91172087D02*
X138730772Y-91219706D01*
X138730772Y-91219706D02*
X138587915Y-91219706D01*
X139206963Y-90553039D02*
X139587915Y-90553039D01*
X139349820Y-90219706D02*
X139349820Y-91076848D01*
X139349820Y-91076848D02*
X139397439Y-91172087D01*
X139397439Y-91172087D02*
X139492677Y-91219706D01*
X139492677Y-91219706D02*
X139587915Y-91219706D01*
X139921249Y-90553039D02*
X139921249Y-91553039D01*
X139921249Y-90600658D02*
X140016487Y-90553039D01*
X140016487Y-90553039D02*
X140206963Y-90553039D01*
X140206963Y-90553039D02*
X140302201Y-90600658D01*
X140302201Y-90600658D02*
X140349820Y-90648277D01*
X140349820Y-90648277D02*
X140397439Y-90743515D01*
X140397439Y-90743515D02*
X140397439Y-91029229D01*
X140397439Y-91029229D02*
X140349820Y-91124467D01*
X140349820Y-91124467D02*
X140302201Y-91172087D01*
X140302201Y-91172087D02*
X140206963Y-91219706D01*
X140206963Y-91219706D02*
X140016487Y-91219706D01*
X140016487Y-91219706D02*
X139921249Y-91172087D01*
X141254582Y-90553039D02*
X141254582Y-91219706D01*
X140826011Y-90553039D02*
X140826011Y-91076848D01*
X140826011Y-91076848D02*
X140873630Y-91172087D01*
X140873630Y-91172087D02*
X140968868Y-91219706D01*
X140968868Y-91219706D02*
X141111725Y-91219706D01*
X141111725Y-91219706D02*
X141206963Y-91172087D01*
X141206963Y-91172087D02*
X141254582Y-91124467D01*
X142159344Y-91172087D02*
X142064106Y-91219706D01*
X142064106Y-91219706D02*
X141873630Y-91219706D01*
X141873630Y-91219706D02*
X141778392Y-91172087D01*
X141778392Y-91172087D02*
X141730773Y-91124467D01*
X141730773Y-91124467D02*
X141683154Y-91029229D01*
X141683154Y-91029229D02*
X141683154Y-90743515D01*
X141683154Y-90743515D02*
X141730773Y-90648277D01*
X141730773Y-90648277D02*
X141778392Y-90600658D01*
X141778392Y-90600658D02*
X141873630Y-90553039D01*
X141873630Y-90553039D02*
X142064106Y-90553039D01*
X142064106Y-90553039D02*
X142159344Y-90600658D01*
X142587916Y-91219706D02*
X142587916Y-90219706D01*
X142683154Y-90838753D02*
X142968868Y-91219706D01*
X142968868Y-90553039D02*
X142587916Y-90933991D01*
X143397440Y-91124467D02*
X143445059Y-91172087D01*
X143445059Y-91172087D02*
X143397440Y-91219706D01*
X143397440Y-91219706D02*
X143349821Y-91172087D01*
X143349821Y-91172087D02*
X143397440Y-91124467D01*
X143397440Y-91124467D02*
X143397440Y-91219706D01*
X143397440Y-90838753D02*
X143349821Y-90267325D01*
X143349821Y-90267325D02*
X143397440Y-90219706D01*
X143397440Y-90219706D02*
X143445059Y-90267325D01*
X143445059Y-90267325D02*
X143397440Y-90838753D01*
X143397440Y-90838753D02*
X143397440Y-90219706D01*
X143873630Y-91124467D02*
X143921249Y-91172087D01*
X143921249Y-91172087D02*
X143873630Y-91219706D01*
X143873630Y-91219706D02*
X143826011Y-91172087D01*
X143826011Y-91172087D02*
X143873630Y-91124467D01*
X143873630Y-91124467D02*
X143873630Y-91219706D01*
X143873630Y-90838753D02*
X143826011Y-90267325D01*
X143826011Y-90267325D02*
X143873630Y-90219706D01*
X143873630Y-90219706D02*
X143921249Y-90267325D01*
X143921249Y-90267325D02*
X143873630Y-90838753D01*
X143873630Y-90838753D02*
X143873630Y-90219706D01*
X144873629Y-91219706D02*
X144302201Y-91219706D01*
X144587915Y-91219706D02*
X144587915Y-90219706D01*
X144587915Y-90219706D02*
X144492677Y-90362563D01*
X144492677Y-90362563D02*
X144397439Y-90457801D01*
X144397439Y-90457801D02*
X144302201Y-90505420D01*
X145302201Y-91124467D02*
X145349820Y-91172087D01*
X145349820Y-91172087D02*
X145302201Y-91219706D01*
X145302201Y-91219706D02*
X145254582Y-91172087D01*
X145254582Y-91172087D02*
X145302201Y-91124467D01*
X145302201Y-91124467D02*
X145302201Y-91219706D01*
X145302201Y-90838753D02*
X145254582Y-90267325D01*
X145254582Y-90267325D02*
X145302201Y-90219706D01*
X145302201Y-90219706D02*
X145349820Y-90267325D01*
X145349820Y-90267325D02*
X145302201Y-90838753D01*
X145302201Y-90838753D02*
X145302201Y-90219706D01*
X136587915Y-94439594D02*
X136587915Y-93772927D01*
X136587915Y-93963403D02*
X136635534Y-93868165D01*
X136635534Y-93868165D02*
X136683153Y-93820546D01*
X136683153Y-93820546D02*
X136778391Y-93772927D01*
X136778391Y-93772927D02*
X136873629Y-93772927D01*
X137587915Y-94391975D02*
X137492677Y-94439594D01*
X137492677Y-94439594D02*
X137302201Y-94439594D01*
X137302201Y-94439594D02*
X137206963Y-94391975D01*
X137206963Y-94391975D02*
X137159344Y-94296736D01*
X137159344Y-94296736D02*
X137159344Y-93915784D01*
X137159344Y-93915784D02*
X137206963Y-93820546D01*
X137206963Y-93820546D02*
X137302201Y-93772927D01*
X137302201Y-93772927D02*
X137492677Y-93772927D01*
X137492677Y-93772927D02*
X137587915Y-93820546D01*
X137587915Y-93820546D02*
X137635534Y-93915784D01*
X137635534Y-93915784D02*
X137635534Y-94011022D01*
X137635534Y-94011022D02*
X137159344Y-94106260D01*
X137968868Y-93772927D02*
X138206963Y-94439594D01*
X138206963Y-94439594D02*
X138445058Y-93772927D01*
X138826011Y-94344355D02*
X138873630Y-94391975D01*
X138873630Y-94391975D02*
X138826011Y-94439594D01*
X138826011Y-94439594D02*
X138778392Y-94391975D01*
X138778392Y-94391975D02*
X138826011Y-94344355D01*
X138826011Y-94344355D02*
X138826011Y-94439594D01*
X140254582Y-93439594D02*
X140349820Y-93439594D01*
X140349820Y-93439594D02*
X140445058Y-93487213D01*
X140445058Y-93487213D02*
X140492677Y-93534832D01*
X140492677Y-93534832D02*
X140540296Y-93630070D01*
X140540296Y-93630070D02*
X140587915Y-93820546D01*
X140587915Y-93820546D02*
X140587915Y-94058641D01*
X140587915Y-94058641D02*
X140540296Y-94249117D01*
X140540296Y-94249117D02*
X140492677Y-94344355D01*
X140492677Y-94344355D02*
X140445058Y-94391975D01*
X140445058Y-94391975D02*
X140349820Y-94439594D01*
X140349820Y-94439594D02*
X140254582Y-94439594D01*
X140254582Y-94439594D02*
X140159344Y-94391975D01*
X140159344Y-94391975D02*
X140111725Y-94344355D01*
X140111725Y-94344355D02*
X140064106Y-94249117D01*
X140064106Y-94249117D02*
X140016487Y-94058641D01*
X140016487Y-94058641D02*
X140016487Y-93820546D01*
X140016487Y-93820546D02*
X140064106Y-93630070D01*
X140064106Y-93630070D02*
X140111725Y-93534832D01*
X140111725Y-93534832D02*
X140159344Y-93487213D01*
X140159344Y-93487213D02*
X140254582Y-93439594D01*
X140968868Y-94153879D02*
X141445058Y-94153879D01*
X140873630Y-94439594D02*
X141206963Y-93439594D01*
X141206963Y-93439594D02*
X141540296Y-94439594D01*
X137159343Y-96049538D02*
X136826010Y-95573347D01*
X136587915Y-96049538D02*
X136587915Y-95049538D01*
X136587915Y-95049538D02*
X136968867Y-95049538D01*
X136968867Y-95049538D02*
X137064105Y-95097157D01*
X137064105Y-95097157D02*
X137111724Y-95144776D01*
X137111724Y-95144776D02*
X137159343Y-95240014D01*
X137159343Y-95240014D02*
X137159343Y-95382871D01*
X137159343Y-95382871D02*
X137111724Y-95478109D01*
X137111724Y-95478109D02*
X137064105Y-95525728D01*
X137064105Y-95525728D02*
X136968867Y-95573347D01*
X136968867Y-95573347D02*
X136587915Y-95573347D01*
X137587915Y-96049538D02*
X137587915Y-95382871D01*
X137587915Y-95049538D02*
X137540296Y-95097157D01*
X137540296Y-95097157D02*
X137587915Y-95144776D01*
X137587915Y-95144776D02*
X137635534Y-95097157D01*
X137635534Y-95097157D02*
X137587915Y-95049538D01*
X137587915Y-95049538D02*
X137587915Y-95144776D01*
X138492676Y-96001919D02*
X138397438Y-96049538D01*
X138397438Y-96049538D02*
X138206962Y-96049538D01*
X138206962Y-96049538D02*
X138111724Y-96001919D01*
X138111724Y-96001919D02*
X138064105Y-95954299D01*
X138064105Y-95954299D02*
X138016486Y-95859061D01*
X138016486Y-95859061D02*
X138016486Y-95573347D01*
X138016486Y-95573347D02*
X138064105Y-95478109D01*
X138064105Y-95478109D02*
X138111724Y-95430490D01*
X138111724Y-95430490D02*
X138206962Y-95382871D01*
X138206962Y-95382871D02*
X138397438Y-95382871D01*
X138397438Y-95382871D02*
X138492676Y-95430490D01*
X138921248Y-96049538D02*
X138921248Y-95049538D01*
X139349819Y-96049538D02*
X139349819Y-95525728D01*
X139349819Y-95525728D02*
X139302200Y-95430490D01*
X139302200Y-95430490D02*
X139206962Y-95382871D01*
X139206962Y-95382871D02*
X139064105Y-95382871D01*
X139064105Y-95382871D02*
X138968867Y-95430490D01*
X138968867Y-95430490D02*
X138921248Y-95478109D01*
X140254581Y-96049538D02*
X140254581Y-95525728D01*
X140254581Y-95525728D02*
X140206962Y-95430490D01*
X140206962Y-95430490D02*
X140111724Y-95382871D01*
X140111724Y-95382871D02*
X139921248Y-95382871D01*
X139921248Y-95382871D02*
X139826010Y-95430490D01*
X140254581Y-96001919D02*
X140159343Y-96049538D01*
X140159343Y-96049538D02*
X139921248Y-96049538D01*
X139921248Y-96049538D02*
X139826010Y-96001919D01*
X139826010Y-96001919D02*
X139778391Y-95906680D01*
X139778391Y-95906680D02*
X139778391Y-95811442D01*
X139778391Y-95811442D02*
X139826010Y-95716204D01*
X139826010Y-95716204D02*
X139921248Y-95668585D01*
X139921248Y-95668585D02*
X140159343Y-95668585D01*
X140159343Y-95668585D02*
X140254581Y-95620966D01*
X140730772Y-96049538D02*
X140730772Y-95382871D01*
X140730772Y-95573347D02*
X140778391Y-95478109D01*
X140778391Y-95478109D02*
X140826010Y-95430490D01*
X140826010Y-95430490D02*
X140921248Y-95382871D01*
X140921248Y-95382871D02*
X141016486Y-95382871D01*
X141778391Y-96049538D02*
X141778391Y-95049538D01*
X141778391Y-96001919D02*
X141683153Y-96049538D01*
X141683153Y-96049538D02*
X141492677Y-96049538D01*
X141492677Y-96049538D02*
X141397439Y-96001919D01*
X141397439Y-96001919D02*
X141349820Y-95954299D01*
X141349820Y-95954299D02*
X141302201Y-95859061D01*
X141302201Y-95859061D02*
X141302201Y-95573347D01*
X141302201Y-95573347D02*
X141349820Y-95478109D01*
X141349820Y-95478109D02*
X141397439Y-95430490D01*
X141397439Y-95430490D02*
X141492677Y-95382871D01*
X141492677Y-95382871D02*
X141683153Y-95382871D01*
X141683153Y-95382871D02*
X141778391Y-95430490D01*
X143016487Y-96049538D02*
X143016487Y-95049538D01*
X143016487Y-95525728D02*
X143587915Y-95525728D01*
X143587915Y-96049538D02*
X143587915Y-95049538D01*
X144064106Y-95954299D02*
X144111725Y-96001919D01*
X144111725Y-96001919D02*
X144064106Y-96049538D01*
X144064106Y-96049538D02*
X144016487Y-96001919D01*
X144016487Y-96001919D02*
X144064106Y-95954299D01*
X144064106Y-95954299D02*
X144064106Y-96049538D01*
X136445058Y-96659482D02*
X136778391Y-97659482D01*
X136778391Y-97659482D02*
X137111724Y-96659482D01*
X137778391Y-97135672D02*
X137921248Y-97183291D01*
X137921248Y-97183291D02*
X137968867Y-97230910D01*
X137968867Y-97230910D02*
X138016486Y-97326148D01*
X138016486Y-97326148D02*
X138016486Y-97469005D01*
X138016486Y-97469005D02*
X137968867Y-97564243D01*
X137968867Y-97564243D02*
X137921248Y-97611863D01*
X137921248Y-97611863D02*
X137826010Y-97659482D01*
X137826010Y-97659482D02*
X137445058Y-97659482D01*
X137445058Y-97659482D02*
X137445058Y-96659482D01*
X137445058Y-96659482D02*
X137778391Y-96659482D01*
X137778391Y-96659482D02*
X137873629Y-96707101D01*
X137873629Y-96707101D02*
X137921248Y-96754720D01*
X137921248Y-96754720D02*
X137968867Y-96849958D01*
X137968867Y-96849958D02*
X137968867Y-96945196D01*
X137968867Y-96945196D02*
X137921248Y-97040434D01*
X137921248Y-97040434D02*
X137873629Y-97088053D01*
X137873629Y-97088053D02*
X137778391Y-97135672D01*
X137778391Y-97135672D02*
X137445058Y-97135672D01*
X138445058Y-97659482D02*
X138445058Y-96659482D01*
X139016486Y-97659482D02*
X138587915Y-97088053D01*
X139016486Y-96659482D02*
X138445058Y-97230910D01*
X175540296Y-91172087D02*
X175683153Y-91219706D01*
X175683153Y-91219706D02*
X175921248Y-91219706D01*
X175921248Y-91219706D02*
X176016486Y-91172087D01*
X176016486Y-91172087D02*
X176064105Y-91124467D01*
X176064105Y-91124467D02*
X176111724Y-91029229D01*
X176111724Y-91029229D02*
X176111724Y-90933991D01*
X176111724Y-90933991D02*
X176064105Y-90838753D01*
X176064105Y-90838753D02*
X176016486Y-90791134D01*
X176016486Y-90791134D02*
X175921248Y-90743515D01*
X175921248Y-90743515D02*
X175730772Y-90695896D01*
X175730772Y-90695896D02*
X175635534Y-90648277D01*
X175635534Y-90648277D02*
X175587915Y-90600658D01*
X175587915Y-90600658D02*
X175540296Y-90505420D01*
X175540296Y-90505420D02*
X175540296Y-90410182D01*
X175540296Y-90410182D02*
X175587915Y-90314944D01*
X175587915Y-90314944D02*
X175635534Y-90267325D01*
X175635534Y-90267325D02*
X175730772Y-90219706D01*
X175730772Y-90219706D02*
X175968867Y-90219706D01*
X175968867Y-90219706D02*
X176111724Y-90267325D01*
X176540296Y-91219706D02*
X176540296Y-90219706D01*
X176968867Y-91219706D02*
X176968867Y-90695896D01*
X176968867Y-90695896D02*
X176921248Y-90600658D01*
X176921248Y-90600658D02*
X176826010Y-90553039D01*
X176826010Y-90553039D02*
X176683153Y-90553039D01*
X176683153Y-90553039D02*
X176587915Y-90600658D01*
X176587915Y-90600658D02*
X176540296Y-90648277D01*
X177587915Y-91219706D02*
X177492677Y-91172087D01*
X177492677Y-91172087D02*
X177445058Y-91124467D01*
X177445058Y-91124467D02*
X177397439Y-91029229D01*
X177397439Y-91029229D02*
X177397439Y-90743515D01*
X177397439Y-90743515D02*
X177445058Y-90648277D01*
X177445058Y-90648277D02*
X177492677Y-90600658D01*
X177492677Y-90600658D02*
X177587915Y-90553039D01*
X177587915Y-90553039D02*
X177730772Y-90553039D01*
X177730772Y-90553039D02*
X177826010Y-90600658D01*
X177826010Y-90600658D02*
X177873629Y-90648277D01*
X177873629Y-90648277D02*
X177921248Y-90743515D01*
X177921248Y-90743515D02*
X177921248Y-91029229D01*
X177921248Y-91029229D02*
X177873629Y-91124467D01*
X177873629Y-91124467D02*
X177826010Y-91172087D01*
X177826010Y-91172087D02*
X177730772Y-91219706D01*
X177730772Y-91219706D02*
X177587915Y-91219706D01*
X178206963Y-90553039D02*
X178587915Y-90553039D01*
X178349820Y-90219706D02*
X178349820Y-91076848D01*
X178349820Y-91076848D02*
X178397439Y-91172087D01*
X178397439Y-91172087D02*
X178492677Y-91219706D01*
X178492677Y-91219706D02*
X178587915Y-91219706D01*
X178921249Y-90553039D02*
X178921249Y-91553039D01*
X178921249Y-90600658D02*
X179016487Y-90553039D01*
X179016487Y-90553039D02*
X179206963Y-90553039D01*
X179206963Y-90553039D02*
X179302201Y-90600658D01*
X179302201Y-90600658D02*
X179349820Y-90648277D01*
X179349820Y-90648277D02*
X179397439Y-90743515D01*
X179397439Y-90743515D02*
X179397439Y-91029229D01*
X179397439Y-91029229D02*
X179349820Y-91124467D01*
X179349820Y-91124467D02*
X179302201Y-91172087D01*
X179302201Y-91172087D02*
X179206963Y-91219706D01*
X179206963Y-91219706D02*
X179016487Y-91219706D01*
X179016487Y-91219706D02*
X178921249Y-91172087D01*
X180254582Y-90553039D02*
X180254582Y-91219706D01*
X179826011Y-90553039D02*
X179826011Y-91076848D01*
X179826011Y-91076848D02*
X179873630Y-91172087D01*
X179873630Y-91172087D02*
X179968868Y-91219706D01*
X179968868Y-91219706D02*
X180111725Y-91219706D01*
X180111725Y-91219706D02*
X180206963Y-91172087D01*
X180206963Y-91172087D02*
X180254582Y-91124467D01*
X181159344Y-91172087D02*
X181064106Y-91219706D01*
X181064106Y-91219706D02*
X180873630Y-91219706D01*
X180873630Y-91219706D02*
X180778392Y-91172087D01*
X180778392Y-91172087D02*
X180730773Y-91124467D01*
X180730773Y-91124467D02*
X180683154Y-91029229D01*
X180683154Y-91029229D02*
X180683154Y-90743515D01*
X180683154Y-90743515D02*
X180730773Y-90648277D01*
X180730773Y-90648277D02*
X180778392Y-90600658D01*
X180778392Y-90600658D02*
X180873630Y-90553039D01*
X180873630Y-90553039D02*
X181064106Y-90553039D01*
X181064106Y-90553039D02*
X181159344Y-90600658D01*
X181587916Y-91219706D02*
X181587916Y-90219706D01*
X181683154Y-90838753D02*
X181968868Y-91219706D01*
X181968868Y-90553039D02*
X181587916Y-90933991D01*
X182397440Y-91124467D02*
X182445059Y-91172087D01*
X182445059Y-91172087D02*
X182397440Y-91219706D01*
X182397440Y-91219706D02*
X182349821Y-91172087D01*
X182349821Y-91172087D02*
X182397440Y-91124467D01*
X182397440Y-91124467D02*
X182397440Y-91219706D01*
X182397440Y-90838753D02*
X182349821Y-90267325D01*
X182349821Y-90267325D02*
X182397440Y-90219706D01*
X182397440Y-90219706D02*
X182445059Y-90267325D01*
X182445059Y-90267325D02*
X182397440Y-90838753D01*
X182397440Y-90838753D02*
X182397440Y-90219706D01*
X182873630Y-91124467D02*
X182921249Y-91172087D01*
X182921249Y-91172087D02*
X182873630Y-91219706D01*
X182873630Y-91219706D02*
X182826011Y-91172087D01*
X182826011Y-91172087D02*
X182873630Y-91124467D01*
X182873630Y-91124467D02*
X182873630Y-91219706D01*
X182873630Y-90838753D02*
X182826011Y-90267325D01*
X182826011Y-90267325D02*
X182873630Y-90219706D01*
X182873630Y-90219706D02*
X182921249Y-90267325D01*
X182921249Y-90267325D02*
X182873630Y-90838753D01*
X182873630Y-90838753D02*
X182873630Y-90219706D01*
X183873629Y-91219706D02*
X183302201Y-91219706D01*
X183587915Y-91219706D02*
X183587915Y-90219706D01*
X183587915Y-90219706D02*
X183492677Y-90362563D01*
X183492677Y-90362563D02*
X183397439Y-90457801D01*
X183397439Y-90457801D02*
X183302201Y-90505420D01*
X184302201Y-91124467D02*
X184349820Y-91172087D01*
X184349820Y-91172087D02*
X184302201Y-91219706D01*
X184302201Y-91219706D02*
X184254582Y-91172087D01*
X184254582Y-91172087D02*
X184302201Y-91124467D01*
X184302201Y-91124467D02*
X184302201Y-91219706D01*
X184302201Y-90838753D02*
X184254582Y-90267325D01*
X184254582Y-90267325D02*
X184302201Y-90219706D01*
X184302201Y-90219706D02*
X184349820Y-90267325D01*
X184349820Y-90267325D02*
X184302201Y-90838753D01*
X184302201Y-90838753D02*
X184302201Y-90219706D01*
X175587915Y-94439594D02*
X175587915Y-93772927D01*
X175587915Y-93963403D02*
X175635534Y-93868165D01*
X175635534Y-93868165D02*
X175683153Y-93820546D01*
X175683153Y-93820546D02*
X175778391Y-93772927D01*
X175778391Y-93772927D02*
X175873629Y-93772927D01*
X176587915Y-94391975D02*
X176492677Y-94439594D01*
X176492677Y-94439594D02*
X176302201Y-94439594D01*
X176302201Y-94439594D02*
X176206963Y-94391975D01*
X176206963Y-94391975D02*
X176159344Y-94296736D01*
X176159344Y-94296736D02*
X176159344Y-93915784D01*
X176159344Y-93915784D02*
X176206963Y-93820546D01*
X176206963Y-93820546D02*
X176302201Y-93772927D01*
X176302201Y-93772927D02*
X176492677Y-93772927D01*
X176492677Y-93772927D02*
X176587915Y-93820546D01*
X176587915Y-93820546D02*
X176635534Y-93915784D01*
X176635534Y-93915784D02*
X176635534Y-94011022D01*
X176635534Y-94011022D02*
X176159344Y-94106260D01*
X176968868Y-93772927D02*
X177206963Y-94439594D01*
X177206963Y-94439594D02*
X177445058Y-93772927D01*
X177826011Y-94344355D02*
X177873630Y-94391975D01*
X177873630Y-94391975D02*
X177826011Y-94439594D01*
X177826011Y-94439594D02*
X177778392Y-94391975D01*
X177778392Y-94391975D02*
X177826011Y-94344355D01*
X177826011Y-94344355D02*
X177826011Y-94439594D01*
X179254582Y-93439594D02*
X179349820Y-93439594D01*
X179349820Y-93439594D02*
X179445058Y-93487213D01*
X179445058Y-93487213D02*
X179492677Y-93534832D01*
X179492677Y-93534832D02*
X179540296Y-93630070D01*
X179540296Y-93630070D02*
X179587915Y-93820546D01*
X179587915Y-93820546D02*
X179587915Y-94058641D01*
X179587915Y-94058641D02*
X179540296Y-94249117D01*
X179540296Y-94249117D02*
X179492677Y-94344355D01*
X179492677Y-94344355D02*
X179445058Y-94391975D01*
X179445058Y-94391975D02*
X179349820Y-94439594D01*
X179349820Y-94439594D02*
X179254582Y-94439594D01*
X179254582Y-94439594D02*
X179159344Y-94391975D01*
X179159344Y-94391975D02*
X179111725Y-94344355D01*
X179111725Y-94344355D02*
X179064106Y-94249117D01*
X179064106Y-94249117D02*
X179016487Y-94058641D01*
X179016487Y-94058641D02*
X179016487Y-93820546D01*
X179016487Y-93820546D02*
X179064106Y-93630070D01*
X179064106Y-93630070D02*
X179111725Y-93534832D01*
X179111725Y-93534832D02*
X179159344Y-93487213D01*
X179159344Y-93487213D02*
X179254582Y-93439594D01*
X179968868Y-94153879D02*
X180445058Y-94153879D01*
X179873630Y-94439594D02*
X180206963Y-93439594D01*
X180206963Y-93439594D02*
X180540296Y-94439594D01*
X176159343Y-96049538D02*
X175826010Y-95573347D01*
X175587915Y-96049538D02*
X175587915Y-95049538D01*
X175587915Y-95049538D02*
X175968867Y-95049538D01*
X175968867Y-95049538D02*
X176064105Y-95097157D01*
X176064105Y-95097157D02*
X176111724Y-95144776D01*
X176111724Y-95144776D02*
X176159343Y-95240014D01*
X176159343Y-95240014D02*
X176159343Y-95382871D01*
X176159343Y-95382871D02*
X176111724Y-95478109D01*
X176111724Y-95478109D02*
X176064105Y-95525728D01*
X176064105Y-95525728D02*
X175968867Y-95573347D01*
X175968867Y-95573347D02*
X175587915Y-95573347D01*
X176587915Y-96049538D02*
X176587915Y-95382871D01*
X176587915Y-95049538D02*
X176540296Y-95097157D01*
X176540296Y-95097157D02*
X176587915Y-95144776D01*
X176587915Y-95144776D02*
X176635534Y-95097157D01*
X176635534Y-95097157D02*
X176587915Y-95049538D01*
X176587915Y-95049538D02*
X176587915Y-95144776D01*
X177492676Y-96001919D02*
X177397438Y-96049538D01*
X177397438Y-96049538D02*
X177206962Y-96049538D01*
X177206962Y-96049538D02*
X177111724Y-96001919D01*
X177111724Y-96001919D02*
X177064105Y-95954299D01*
X177064105Y-95954299D02*
X177016486Y-95859061D01*
X177016486Y-95859061D02*
X177016486Y-95573347D01*
X177016486Y-95573347D02*
X177064105Y-95478109D01*
X177064105Y-95478109D02*
X177111724Y-95430490D01*
X177111724Y-95430490D02*
X177206962Y-95382871D01*
X177206962Y-95382871D02*
X177397438Y-95382871D01*
X177397438Y-95382871D02*
X177492676Y-95430490D01*
X177921248Y-96049538D02*
X177921248Y-95049538D01*
X178349819Y-96049538D02*
X178349819Y-95525728D01*
X178349819Y-95525728D02*
X178302200Y-95430490D01*
X178302200Y-95430490D02*
X178206962Y-95382871D01*
X178206962Y-95382871D02*
X178064105Y-95382871D01*
X178064105Y-95382871D02*
X177968867Y-95430490D01*
X177968867Y-95430490D02*
X177921248Y-95478109D01*
X179254581Y-96049538D02*
X179254581Y-95525728D01*
X179254581Y-95525728D02*
X179206962Y-95430490D01*
X179206962Y-95430490D02*
X179111724Y-95382871D01*
X179111724Y-95382871D02*
X178921248Y-95382871D01*
X178921248Y-95382871D02*
X178826010Y-95430490D01*
X179254581Y-96001919D02*
X179159343Y-96049538D01*
X179159343Y-96049538D02*
X178921248Y-96049538D01*
X178921248Y-96049538D02*
X178826010Y-96001919D01*
X178826010Y-96001919D02*
X178778391Y-95906680D01*
X178778391Y-95906680D02*
X178778391Y-95811442D01*
X178778391Y-95811442D02*
X178826010Y-95716204D01*
X178826010Y-95716204D02*
X178921248Y-95668585D01*
X178921248Y-95668585D02*
X179159343Y-95668585D01*
X179159343Y-95668585D02*
X179254581Y-95620966D01*
X179730772Y-96049538D02*
X179730772Y-95382871D01*
X179730772Y-95573347D02*
X179778391Y-95478109D01*
X179778391Y-95478109D02*
X179826010Y-95430490D01*
X179826010Y-95430490D02*
X179921248Y-95382871D01*
X179921248Y-95382871D02*
X180016486Y-95382871D01*
X180778391Y-96049538D02*
X180778391Y-95049538D01*
X180778391Y-96001919D02*
X180683153Y-96049538D01*
X180683153Y-96049538D02*
X180492677Y-96049538D01*
X180492677Y-96049538D02*
X180397439Y-96001919D01*
X180397439Y-96001919D02*
X180349820Y-95954299D01*
X180349820Y-95954299D02*
X180302201Y-95859061D01*
X180302201Y-95859061D02*
X180302201Y-95573347D01*
X180302201Y-95573347D02*
X180349820Y-95478109D01*
X180349820Y-95478109D02*
X180397439Y-95430490D01*
X180397439Y-95430490D02*
X180492677Y-95382871D01*
X180492677Y-95382871D02*
X180683153Y-95382871D01*
X180683153Y-95382871D02*
X180778391Y-95430490D01*
X182016487Y-96049538D02*
X182016487Y-95049538D01*
X182016487Y-95525728D02*
X182587915Y-95525728D01*
X182587915Y-96049538D02*
X182587915Y-95049538D01*
X183064106Y-95954299D02*
X183111725Y-96001919D01*
X183111725Y-96001919D02*
X183064106Y-96049538D01*
X183064106Y-96049538D02*
X183016487Y-96001919D01*
X183016487Y-96001919D02*
X183064106Y-95954299D01*
X183064106Y-95954299D02*
X183064106Y-96049538D01*
X175445058Y-96659482D02*
X175778391Y-97659482D01*
X175778391Y-97659482D02*
X176111724Y-96659482D01*
X176778391Y-97135672D02*
X176921248Y-97183291D01*
X176921248Y-97183291D02*
X176968867Y-97230910D01*
X176968867Y-97230910D02*
X177016486Y-97326148D01*
X177016486Y-97326148D02*
X177016486Y-97469005D01*
X177016486Y-97469005D02*
X176968867Y-97564243D01*
X176968867Y-97564243D02*
X176921248Y-97611863D01*
X176921248Y-97611863D02*
X176826010Y-97659482D01*
X176826010Y-97659482D02*
X176445058Y-97659482D01*
X176445058Y-97659482D02*
X176445058Y-96659482D01*
X176445058Y-96659482D02*
X176778391Y-96659482D01*
X176778391Y-96659482D02*
X176873629Y-96707101D01*
X176873629Y-96707101D02*
X176921248Y-96754720D01*
X176921248Y-96754720D02*
X176968867Y-96849958D01*
X176968867Y-96849958D02*
X176968867Y-96945196D01*
X176968867Y-96945196D02*
X176921248Y-97040434D01*
X176921248Y-97040434D02*
X176873629Y-97088053D01*
X176873629Y-97088053D02*
X176778391Y-97135672D01*
X176778391Y-97135672D02*
X176445058Y-97135672D01*
X177445058Y-97659482D02*
X177445058Y-96659482D01*
X178016486Y-97659482D02*
X177587915Y-97088053D01*
X178016486Y-96659482D02*
X177445058Y-97230910D01*
X121459703Y-41387145D02*
X121316846Y-41339525D01*
X121316846Y-41339525D02*
X121078751Y-41339525D01*
X121078751Y-41339525D02*
X120983513Y-41387145D01*
X120983513Y-41387145D02*
X120935894Y-41434764D01*
X120935894Y-41434764D02*
X120888275Y-41530002D01*
X120888275Y-41530002D02*
X120888275Y-41625240D01*
X120888275Y-41625240D02*
X120935894Y-41720478D01*
X120935894Y-41720478D02*
X120983513Y-41768097D01*
X120983513Y-41768097D02*
X121078751Y-41815716D01*
X121078751Y-41815716D02*
X121269227Y-41863335D01*
X121269227Y-41863335D02*
X121364465Y-41910954D01*
X121364465Y-41910954D02*
X121412084Y-41958573D01*
X121412084Y-41958573D02*
X121459703Y-42053811D01*
X121459703Y-42053811D02*
X121459703Y-42149049D01*
X121459703Y-42149049D02*
X121412084Y-42244287D01*
X121412084Y-42244287D02*
X121364465Y-42291906D01*
X121364465Y-42291906D02*
X121269227Y-42339525D01*
X121269227Y-42339525D02*
X121031132Y-42339525D01*
X121031132Y-42339525D02*
X120888275Y-42291906D01*
X120459703Y-41339525D02*
X120459703Y-42339525D01*
X120031132Y-41339525D02*
X120031132Y-41863335D01*
X120031132Y-41863335D02*
X120078751Y-41958573D01*
X120078751Y-41958573D02*
X120173989Y-42006192D01*
X120173989Y-42006192D02*
X120316846Y-42006192D01*
X120316846Y-42006192D02*
X120412084Y-41958573D01*
X120412084Y-41958573D02*
X120459703Y-41910954D01*
X119412084Y-41339525D02*
X119507322Y-41387145D01*
X119507322Y-41387145D02*
X119554941Y-41434764D01*
X119554941Y-41434764D02*
X119602560Y-41530002D01*
X119602560Y-41530002D02*
X119602560Y-41815716D01*
X119602560Y-41815716D02*
X119554941Y-41910954D01*
X119554941Y-41910954D02*
X119507322Y-41958573D01*
X119507322Y-41958573D02*
X119412084Y-42006192D01*
X119412084Y-42006192D02*
X119269227Y-42006192D01*
X119269227Y-42006192D02*
X119173989Y-41958573D01*
X119173989Y-41958573D02*
X119126370Y-41910954D01*
X119126370Y-41910954D02*
X119078751Y-41815716D01*
X119078751Y-41815716D02*
X119078751Y-41530002D01*
X119078751Y-41530002D02*
X119126370Y-41434764D01*
X119126370Y-41434764D02*
X119173989Y-41387145D01*
X119173989Y-41387145D02*
X119269227Y-41339525D01*
X119269227Y-41339525D02*
X119412084Y-41339525D01*
X118793036Y-42006192D02*
X118412084Y-42006192D01*
X118650179Y-42339525D02*
X118650179Y-41482383D01*
X118650179Y-41482383D02*
X118602560Y-41387145D01*
X118602560Y-41387145D02*
X118507322Y-41339525D01*
X118507322Y-41339525D02*
X118412084Y-41339525D01*
X118078750Y-42006192D02*
X118078750Y-41006192D01*
X118078750Y-41958573D02*
X117983512Y-42006192D01*
X117983512Y-42006192D02*
X117793036Y-42006192D01*
X117793036Y-42006192D02*
X117697798Y-41958573D01*
X117697798Y-41958573D02*
X117650179Y-41910954D01*
X117650179Y-41910954D02*
X117602560Y-41815716D01*
X117602560Y-41815716D02*
X117602560Y-41530002D01*
X117602560Y-41530002D02*
X117650179Y-41434764D01*
X117650179Y-41434764D02*
X117697798Y-41387145D01*
X117697798Y-41387145D02*
X117793036Y-41339525D01*
X117793036Y-41339525D02*
X117983512Y-41339525D01*
X117983512Y-41339525D02*
X118078750Y-41387145D01*
X116745417Y-42006192D02*
X116745417Y-41339525D01*
X117173988Y-42006192D02*
X117173988Y-41482383D01*
X117173988Y-41482383D02*
X117126369Y-41387145D01*
X117126369Y-41387145D02*
X117031131Y-41339525D01*
X117031131Y-41339525D02*
X116888274Y-41339525D01*
X116888274Y-41339525D02*
X116793036Y-41387145D01*
X116793036Y-41387145D02*
X116745417Y-41434764D01*
X115840655Y-41387145D02*
X115935893Y-41339525D01*
X115935893Y-41339525D02*
X116126369Y-41339525D01*
X116126369Y-41339525D02*
X116221607Y-41387145D01*
X116221607Y-41387145D02*
X116269226Y-41434764D01*
X116269226Y-41434764D02*
X116316845Y-41530002D01*
X116316845Y-41530002D02*
X116316845Y-41815716D01*
X116316845Y-41815716D02*
X116269226Y-41910954D01*
X116269226Y-41910954D02*
X116221607Y-41958573D01*
X116221607Y-41958573D02*
X116126369Y-42006192D01*
X116126369Y-42006192D02*
X115935893Y-42006192D01*
X115935893Y-42006192D02*
X115840655Y-41958573D01*
X115412083Y-41339525D02*
X115412083Y-42339525D01*
X115316845Y-41720478D02*
X115031131Y-41339525D01*
X115031131Y-42006192D02*
X115412083Y-41625240D01*
X114602559Y-41434764D02*
X114554940Y-41387145D01*
X114554940Y-41387145D02*
X114602559Y-41339525D01*
X114602559Y-41339525D02*
X114650178Y-41387145D01*
X114650178Y-41387145D02*
X114602559Y-41434764D01*
X114602559Y-41434764D02*
X114602559Y-41339525D01*
X114602559Y-41720478D02*
X114650178Y-42291906D01*
X114650178Y-42291906D02*
X114602559Y-42339525D01*
X114602559Y-42339525D02*
X114554940Y-42291906D01*
X114554940Y-42291906D02*
X114602559Y-41720478D01*
X114602559Y-41720478D02*
X114602559Y-42339525D01*
X114126369Y-41434764D02*
X114078750Y-41387145D01*
X114078750Y-41387145D02*
X114126369Y-41339525D01*
X114126369Y-41339525D02*
X114173988Y-41387145D01*
X114173988Y-41387145D02*
X114126369Y-41434764D01*
X114126369Y-41434764D02*
X114126369Y-41339525D01*
X114126369Y-41720478D02*
X114173988Y-42291906D01*
X114173988Y-42291906D02*
X114126369Y-42339525D01*
X114126369Y-42339525D02*
X114078750Y-42291906D01*
X114078750Y-42291906D02*
X114126369Y-41720478D01*
X114126369Y-41720478D02*
X114126369Y-42339525D01*
X113126370Y-41339525D02*
X113697798Y-41339525D01*
X113412084Y-41339525D02*
X113412084Y-42339525D01*
X113412084Y-42339525D02*
X113507322Y-42196668D01*
X113507322Y-42196668D02*
X113602560Y-42101430D01*
X113602560Y-42101430D02*
X113697798Y-42053811D01*
X112697798Y-41434764D02*
X112650179Y-41387145D01*
X112650179Y-41387145D02*
X112697798Y-41339525D01*
X112697798Y-41339525D02*
X112745417Y-41387145D01*
X112745417Y-41387145D02*
X112697798Y-41434764D01*
X112697798Y-41434764D02*
X112697798Y-41339525D01*
X112697798Y-41720478D02*
X112745417Y-42291906D01*
X112745417Y-42291906D02*
X112697798Y-42339525D01*
X112697798Y-42339525D02*
X112650179Y-42291906D01*
X112650179Y-42291906D02*
X112697798Y-41720478D01*
X112697798Y-41720478D02*
X112697798Y-42339525D01*
X121412084Y-38119637D02*
X121412084Y-38786304D01*
X121412084Y-38595828D02*
X121364465Y-38691066D01*
X121364465Y-38691066D02*
X121316846Y-38738685D01*
X121316846Y-38738685D02*
X121221608Y-38786304D01*
X121221608Y-38786304D02*
X121126370Y-38786304D01*
X120412084Y-38167257D02*
X120507322Y-38119637D01*
X120507322Y-38119637D02*
X120697798Y-38119637D01*
X120697798Y-38119637D02*
X120793036Y-38167257D01*
X120793036Y-38167257D02*
X120840655Y-38262495D01*
X120840655Y-38262495D02*
X120840655Y-38643447D01*
X120840655Y-38643447D02*
X120793036Y-38738685D01*
X120793036Y-38738685D02*
X120697798Y-38786304D01*
X120697798Y-38786304D02*
X120507322Y-38786304D01*
X120507322Y-38786304D02*
X120412084Y-38738685D01*
X120412084Y-38738685D02*
X120364465Y-38643447D01*
X120364465Y-38643447D02*
X120364465Y-38548209D01*
X120364465Y-38548209D02*
X120840655Y-38452971D01*
X120031131Y-38786304D02*
X119793036Y-38119637D01*
X119793036Y-38119637D02*
X119554941Y-38786304D01*
X119173988Y-38214876D02*
X119126369Y-38167257D01*
X119126369Y-38167257D02*
X119173988Y-38119637D01*
X119173988Y-38119637D02*
X119221607Y-38167257D01*
X119221607Y-38167257D02*
X119173988Y-38214876D01*
X119173988Y-38214876D02*
X119173988Y-38119637D01*
X117745417Y-39119637D02*
X117650179Y-39119637D01*
X117650179Y-39119637D02*
X117554941Y-39072018D01*
X117554941Y-39072018D02*
X117507322Y-39024399D01*
X117507322Y-39024399D02*
X117459703Y-38929161D01*
X117459703Y-38929161D02*
X117412084Y-38738685D01*
X117412084Y-38738685D02*
X117412084Y-38500590D01*
X117412084Y-38500590D02*
X117459703Y-38310114D01*
X117459703Y-38310114D02*
X117507322Y-38214876D01*
X117507322Y-38214876D02*
X117554941Y-38167257D01*
X117554941Y-38167257D02*
X117650179Y-38119637D01*
X117650179Y-38119637D02*
X117745417Y-38119637D01*
X117745417Y-38119637D02*
X117840655Y-38167257D01*
X117840655Y-38167257D02*
X117888274Y-38214876D01*
X117888274Y-38214876D02*
X117935893Y-38310114D01*
X117935893Y-38310114D02*
X117983512Y-38500590D01*
X117983512Y-38500590D02*
X117983512Y-38738685D01*
X117983512Y-38738685D02*
X117935893Y-38929161D01*
X117935893Y-38929161D02*
X117888274Y-39024399D01*
X117888274Y-39024399D02*
X117840655Y-39072018D01*
X117840655Y-39072018D02*
X117745417Y-39119637D01*
X117031131Y-38405352D02*
X116554941Y-38405352D01*
X117126369Y-38119637D02*
X116793036Y-39119637D01*
X116793036Y-39119637D02*
X116459703Y-38119637D01*
X120840656Y-36509693D02*
X121173989Y-36985884D01*
X121412084Y-36509693D02*
X121412084Y-37509693D01*
X121412084Y-37509693D02*
X121031132Y-37509693D01*
X121031132Y-37509693D02*
X120935894Y-37462074D01*
X120935894Y-37462074D02*
X120888275Y-37414455D01*
X120888275Y-37414455D02*
X120840656Y-37319217D01*
X120840656Y-37319217D02*
X120840656Y-37176360D01*
X120840656Y-37176360D02*
X120888275Y-37081122D01*
X120888275Y-37081122D02*
X120935894Y-37033503D01*
X120935894Y-37033503D02*
X121031132Y-36985884D01*
X121031132Y-36985884D02*
X121412084Y-36985884D01*
X120412084Y-36509693D02*
X120412084Y-37176360D01*
X120412084Y-37509693D02*
X120459703Y-37462074D01*
X120459703Y-37462074D02*
X120412084Y-37414455D01*
X120412084Y-37414455D02*
X120364465Y-37462074D01*
X120364465Y-37462074D02*
X120412084Y-37509693D01*
X120412084Y-37509693D02*
X120412084Y-37414455D01*
X119507323Y-36557313D02*
X119602561Y-36509693D01*
X119602561Y-36509693D02*
X119793037Y-36509693D01*
X119793037Y-36509693D02*
X119888275Y-36557313D01*
X119888275Y-36557313D02*
X119935894Y-36604932D01*
X119935894Y-36604932D02*
X119983513Y-36700170D01*
X119983513Y-36700170D02*
X119983513Y-36985884D01*
X119983513Y-36985884D02*
X119935894Y-37081122D01*
X119935894Y-37081122D02*
X119888275Y-37128741D01*
X119888275Y-37128741D02*
X119793037Y-37176360D01*
X119793037Y-37176360D02*
X119602561Y-37176360D01*
X119602561Y-37176360D02*
X119507323Y-37128741D01*
X119078751Y-36509693D02*
X119078751Y-37509693D01*
X118650180Y-36509693D02*
X118650180Y-37033503D01*
X118650180Y-37033503D02*
X118697799Y-37128741D01*
X118697799Y-37128741D02*
X118793037Y-37176360D01*
X118793037Y-37176360D02*
X118935894Y-37176360D01*
X118935894Y-37176360D02*
X119031132Y-37128741D01*
X119031132Y-37128741D02*
X119078751Y-37081122D01*
X117745418Y-36509693D02*
X117745418Y-37033503D01*
X117745418Y-37033503D02*
X117793037Y-37128741D01*
X117793037Y-37128741D02*
X117888275Y-37176360D01*
X117888275Y-37176360D02*
X118078751Y-37176360D01*
X118078751Y-37176360D02*
X118173989Y-37128741D01*
X117745418Y-36557313D02*
X117840656Y-36509693D01*
X117840656Y-36509693D02*
X118078751Y-36509693D01*
X118078751Y-36509693D02*
X118173989Y-36557313D01*
X118173989Y-36557313D02*
X118221608Y-36652551D01*
X118221608Y-36652551D02*
X118221608Y-36747789D01*
X118221608Y-36747789D02*
X118173989Y-36843027D01*
X118173989Y-36843027D02*
X118078751Y-36890646D01*
X118078751Y-36890646D02*
X117840656Y-36890646D01*
X117840656Y-36890646D02*
X117745418Y-36938265D01*
X117269227Y-36509693D02*
X117269227Y-37176360D01*
X117269227Y-36985884D02*
X117221608Y-37081122D01*
X117221608Y-37081122D02*
X117173989Y-37128741D01*
X117173989Y-37128741D02*
X117078751Y-37176360D01*
X117078751Y-37176360D02*
X116983513Y-37176360D01*
X116221608Y-36509693D02*
X116221608Y-37509693D01*
X116221608Y-36557313D02*
X116316846Y-36509693D01*
X116316846Y-36509693D02*
X116507322Y-36509693D01*
X116507322Y-36509693D02*
X116602560Y-36557313D01*
X116602560Y-36557313D02*
X116650179Y-36604932D01*
X116650179Y-36604932D02*
X116697798Y-36700170D01*
X116697798Y-36700170D02*
X116697798Y-36985884D01*
X116697798Y-36985884D02*
X116650179Y-37081122D01*
X116650179Y-37081122D02*
X116602560Y-37128741D01*
X116602560Y-37128741D02*
X116507322Y-37176360D01*
X116507322Y-37176360D02*
X116316846Y-37176360D01*
X116316846Y-37176360D02*
X116221608Y-37128741D01*
X114983512Y-36509693D02*
X114983512Y-37509693D01*
X114983512Y-37033503D02*
X114412084Y-37033503D01*
X114412084Y-36509693D02*
X114412084Y-37509693D01*
X113935893Y-36604932D02*
X113888274Y-36557313D01*
X113888274Y-36557313D02*
X113935893Y-36509693D01*
X113935893Y-36509693D02*
X113983512Y-36557313D01*
X113983512Y-36557313D02*
X113935893Y-36604932D01*
X113935893Y-36604932D02*
X113935893Y-36509693D01*
X121554941Y-35899749D02*
X121221608Y-34899749D01*
X121221608Y-34899749D02*
X120888275Y-35899749D01*
X120221608Y-35423559D02*
X120078751Y-35375940D01*
X120078751Y-35375940D02*
X120031132Y-35328321D01*
X120031132Y-35328321D02*
X119983513Y-35233083D01*
X119983513Y-35233083D02*
X119983513Y-35090226D01*
X119983513Y-35090226D02*
X120031132Y-34994988D01*
X120031132Y-34994988D02*
X120078751Y-34947369D01*
X120078751Y-34947369D02*
X120173989Y-34899749D01*
X120173989Y-34899749D02*
X120554941Y-34899749D01*
X120554941Y-34899749D02*
X120554941Y-35899749D01*
X120554941Y-35899749D02*
X120221608Y-35899749D01*
X120221608Y-35899749D02*
X120126370Y-35852130D01*
X120126370Y-35852130D02*
X120078751Y-35804511D01*
X120078751Y-35804511D02*
X120031132Y-35709273D01*
X120031132Y-35709273D02*
X120031132Y-35614035D01*
X120031132Y-35614035D02*
X120078751Y-35518797D01*
X120078751Y-35518797D02*
X120126370Y-35471178D01*
X120126370Y-35471178D02*
X120221608Y-35423559D01*
X120221608Y-35423559D02*
X120554941Y-35423559D01*
X119554941Y-34899749D02*
X119554941Y-35899749D01*
X118983513Y-34899749D02*
X119412084Y-35471178D01*
X118983513Y-35899749D02*
X119554941Y-35328321D01*
X160459703Y-41387145D02*
X160316846Y-41339525D01*
X160316846Y-41339525D02*
X160078751Y-41339525D01*
X160078751Y-41339525D02*
X159983513Y-41387145D01*
X159983513Y-41387145D02*
X159935894Y-41434764D01*
X159935894Y-41434764D02*
X159888275Y-41530002D01*
X159888275Y-41530002D02*
X159888275Y-41625240D01*
X159888275Y-41625240D02*
X159935894Y-41720478D01*
X159935894Y-41720478D02*
X159983513Y-41768097D01*
X159983513Y-41768097D02*
X160078751Y-41815716D01*
X160078751Y-41815716D02*
X160269227Y-41863335D01*
X160269227Y-41863335D02*
X160364465Y-41910954D01*
X160364465Y-41910954D02*
X160412084Y-41958573D01*
X160412084Y-41958573D02*
X160459703Y-42053811D01*
X160459703Y-42053811D02*
X160459703Y-42149049D01*
X160459703Y-42149049D02*
X160412084Y-42244287D01*
X160412084Y-42244287D02*
X160364465Y-42291906D01*
X160364465Y-42291906D02*
X160269227Y-42339525D01*
X160269227Y-42339525D02*
X160031132Y-42339525D01*
X160031132Y-42339525D02*
X159888275Y-42291906D01*
X159459703Y-41339525D02*
X159459703Y-42339525D01*
X159031132Y-41339525D02*
X159031132Y-41863335D01*
X159031132Y-41863335D02*
X159078751Y-41958573D01*
X159078751Y-41958573D02*
X159173989Y-42006192D01*
X159173989Y-42006192D02*
X159316846Y-42006192D01*
X159316846Y-42006192D02*
X159412084Y-41958573D01*
X159412084Y-41958573D02*
X159459703Y-41910954D01*
X158412084Y-41339525D02*
X158507322Y-41387145D01*
X158507322Y-41387145D02*
X158554941Y-41434764D01*
X158554941Y-41434764D02*
X158602560Y-41530002D01*
X158602560Y-41530002D02*
X158602560Y-41815716D01*
X158602560Y-41815716D02*
X158554941Y-41910954D01*
X158554941Y-41910954D02*
X158507322Y-41958573D01*
X158507322Y-41958573D02*
X158412084Y-42006192D01*
X158412084Y-42006192D02*
X158269227Y-42006192D01*
X158269227Y-42006192D02*
X158173989Y-41958573D01*
X158173989Y-41958573D02*
X158126370Y-41910954D01*
X158126370Y-41910954D02*
X158078751Y-41815716D01*
X158078751Y-41815716D02*
X158078751Y-41530002D01*
X158078751Y-41530002D02*
X158126370Y-41434764D01*
X158126370Y-41434764D02*
X158173989Y-41387145D01*
X158173989Y-41387145D02*
X158269227Y-41339525D01*
X158269227Y-41339525D02*
X158412084Y-41339525D01*
X157793036Y-42006192D02*
X157412084Y-42006192D01*
X157650179Y-42339525D02*
X157650179Y-41482383D01*
X157650179Y-41482383D02*
X157602560Y-41387145D01*
X157602560Y-41387145D02*
X157507322Y-41339525D01*
X157507322Y-41339525D02*
X157412084Y-41339525D01*
X157078750Y-42006192D02*
X157078750Y-41006192D01*
X157078750Y-41958573D02*
X156983512Y-42006192D01*
X156983512Y-42006192D02*
X156793036Y-42006192D01*
X156793036Y-42006192D02*
X156697798Y-41958573D01*
X156697798Y-41958573D02*
X156650179Y-41910954D01*
X156650179Y-41910954D02*
X156602560Y-41815716D01*
X156602560Y-41815716D02*
X156602560Y-41530002D01*
X156602560Y-41530002D02*
X156650179Y-41434764D01*
X156650179Y-41434764D02*
X156697798Y-41387145D01*
X156697798Y-41387145D02*
X156793036Y-41339525D01*
X156793036Y-41339525D02*
X156983512Y-41339525D01*
X156983512Y-41339525D02*
X157078750Y-41387145D01*
X155745417Y-42006192D02*
X155745417Y-41339525D01*
X156173988Y-42006192D02*
X156173988Y-41482383D01*
X156173988Y-41482383D02*
X156126369Y-41387145D01*
X156126369Y-41387145D02*
X156031131Y-41339525D01*
X156031131Y-41339525D02*
X155888274Y-41339525D01*
X155888274Y-41339525D02*
X155793036Y-41387145D01*
X155793036Y-41387145D02*
X155745417Y-41434764D01*
X154840655Y-41387145D02*
X154935893Y-41339525D01*
X154935893Y-41339525D02*
X155126369Y-41339525D01*
X155126369Y-41339525D02*
X155221607Y-41387145D01*
X155221607Y-41387145D02*
X155269226Y-41434764D01*
X155269226Y-41434764D02*
X155316845Y-41530002D01*
X155316845Y-41530002D02*
X155316845Y-41815716D01*
X155316845Y-41815716D02*
X155269226Y-41910954D01*
X155269226Y-41910954D02*
X155221607Y-41958573D01*
X155221607Y-41958573D02*
X155126369Y-42006192D01*
X155126369Y-42006192D02*
X154935893Y-42006192D01*
X154935893Y-42006192D02*
X154840655Y-41958573D01*
X154412083Y-41339525D02*
X154412083Y-42339525D01*
X154316845Y-41720478D02*
X154031131Y-41339525D01*
X154031131Y-42006192D02*
X154412083Y-41625240D01*
X153602559Y-41434764D02*
X153554940Y-41387145D01*
X153554940Y-41387145D02*
X153602559Y-41339525D01*
X153602559Y-41339525D02*
X153650178Y-41387145D01*
X153650178Y-41387145D02*
X153602559Y-41434764D01*
X153602559Y-41434764D02*
X153602559Y-41339525D01*
X153602559Y-41720478D02*
X153650178Y-42291906D01*
X153650178Y-42291906D02*
X153602559Y-42339525D01*
X153602559Y-42339525D02*
X153554940Y-42291906D01*
X153554940Y-42291906D02*
X153602559Y-41720478D01*
X153602559Y-41720478D02*
X153602559Y-42339525D01*
X153126369Y-41434764D02*
X153078750Y-41387145D01*
X153078750Y-41387145D02*
X153126369Y-41339525D01*
X153126369Y-41339525D02*
X153173988Y-41387145D01*
X153173988Y-41387145D02*
X153126369Y-41434764D01*
X153126369Y-41434764D02*
X153126369Y-41339525D01*
X153126369Y-41720478D02*
X153173988Y-42291906D01*
X153173988Y-42291906D02*
X153126369Y-42339525D01*
X153126369Y-42339525D02*
X153078750Y-42291906D01*
X153078750Y-42291906D02*
X153126369Y-41720478D01*
X153126369Y-41720478D02*
X153126369Y-42339525D01*
X152126370Y-41339525D02*
X152697798Y-41339525D01*
X152412084Y-41339525D02*
X152412084Y-42339525D01*
X152412084Y-42339525D02*
X152507322Y-42196668D01*
X152507322Y-42196668D02*
X152602560Y-42101430D01*
X152602560Y-42101430D02*
X152697798Y-42053811D01*
X151697798Y-41434764D02*
X151650179Y-41387145D01*
X151650179Y-41387145D02*
X151697798Y-41339525D01*
X151697798Y-41339525D02*
X151745417Y-41387145D01*
X151745417Y-41387145D02*
X151697798Y-41434764D01*
X151697798Y-41434764D02*
X151697798Y-41339525D01*
X151697798Y-41720478D02*
X151745417Y-42291906D01*
X151745417Y-42291906D02*
X151697798Y-42339525D01*
X151697798Y-42339525D02*
X151650179Y-42291906D01*
X151650179Y-42291906D02*
X151697798Y-41720478D01*
X151697798Y-41720478D02*
X151697798Y-42339525D01*
X160412084Y-38119637D02*
X160412084Y-38786304D01*
X160412084Y-38595828D02*
X160364465Y-38691066D01*
X160364465Y-38691066D02*
X160316846Y-38738685D01*
X160316846Y-38738685D02*
X160221608Y-38786304D01*
X160221608Y-38786304D02*
X160126370Y-38786304D01*
X159412084Y-38167257D02*
X159507322Y-38119637D01*
X159507322Y-38119637D02*
X159697798Y-38119637D01*
X159697798Y-38119637D02*
X159793036Y-38167257D01*
X159793036Y-38167257D02*
X159840655Y-38262495D01*
X159840655Y-38262495D02*
X159840655Y-38643447D01*
X159840655Y-38643447D02*
X159793036Y-38738685D01*
X159793036Y-38738685D02*
X159697798Y-38786304D01*
X159697798Y-38786304D02*
X159507322Y-38786304D01*
X159507322Y-38786304D02*
X159412084Y-38738685D01*
X159412084Y-38738685D02*
X159364465Y-38643447D01*
X159364465Y-38643447D02*
X159364465Y-38548209D01*
X159364465Y-38548209D02*
X159840655Y-38452971D01*
X159031131Y-38786304D02*
X158793036Y-38119637D01*
X158793036Y-38119637D02*
X158554941Y-38786304D01*
X158173988Y-38214876D02*
X158126369Y-38167257D01*
X158126369Y-38167257D02*
X158173988Y-38119637D01*
X158173988Y-38119637D02*
X158221607Y-38167257D01*
X158221607Y-38167257D02*
X158173988Y-38214876D01*
X158173988Y-38214876D02*
X158173988Y-38119637D01*
X156745417Y-39119637D02*
X156650179Y-39119637D01*
X156650179Y-39119637D02*
X156554941Y-39072018D01*
X156554941Y-39072018D02*
X156507322Y-39024399D01*
X156507322Y-39024399D02*
X156459703Y-38929161D01*
X156459703Y-38929161D02*
X156412084Y-38738685D01*
X156412084Y-38738685D02*
X156412084Y-38500590D01*
X156412084Y-38500590D02*
X156459703Y-38310114D01*
X156459703Y-38310114D02*
X156507322Y-38214876D01*
X156507322Y-38214876D02*
X156554941Y-38167257D01*
X156554941Y-38167257D02*
X156650179Y-38119637D01*
X156650179Y-38119637D02*
X156745417Y-38119637D01*
X156745417Y-38119637D02*
X156840655Y-38167257D01*
X156840655Y-38167257D02*
X156888274Y-38214876D01*
X156888274Y-38214876D02*
X156935893Y-38310114D01*
X156935893Y-38310114D02*
X156983512Y-38500590D01*
X156983512Y-38500590D02*
X156983512Y-38738685D01*
X156983512Y-38738685D02*
X156935893Y-38929161D01*
X156935893Y-38929161D02*
X156888274Y-39024399D01*
X156888274Y-39024399D02*
X156840655Y-39072018D01*
X156840655Y-39072018D02*
X156745417Y-39119637D01*
X156031131Y-38405352D02*
X155554941Y-38405352D01*
X156126369Y-38119637D02*
X155793036Y-39119637D01*
X155793036Y-39119637D02*
X155459703Y-38119637D01*
X159840656Y-36509693D02*
X160173989Y-36985884D01*
X160412084Y-36509693D02*
X160412084Y-37509693D01*
X160412084Y-37509693D02*
X160031132Y-37509693D01*
X160031132Y-37509693D02*
X159935894Y-37462074D01*
X159935894Y-37462074D02*
X159888275Y-37414455D01*
X159888275Y-37414455D02*
X159840656Y-37319217D01*
X159840656Y-37319217D02*
X159840656Y-37176360D01*
X159840656Y-37176360D02*
X159888275Y-37081122D01*
X159888275Y-37081122D02*
X159935894Y-37033503D01*
X159935894Y-37033503D02*
X160031132Y-36985884D01*
X160031132Y-36985884D02*
X160412084Y-36985884D01*
X159412084Y-36509693D02*
X159412084Y-37176360D01*
X159412084Y-37509693D02*
X159459703Y-37462074D01*
X159459703Y-37462074D02*
X159412084Y-37414455D01*
X159412084Y-37414455D02*
X159364465Y-37462074D01*
X159364465Y-37462074D02*
X159412084Y-37509693D01*
X159412084Y-37509693D02*
X159412084Y-37414455D01*
X158507323Y-36557313D02*
X158602561Y-36509693D01*
X158602561Y-36509693D02*
X158793037Y-36509693D01*
X158793037Y-36509693D02*
X158888275Y-36557313D01*
X158888275Y-36557313D02*
X158935894Y-36604932D01*
X158935894Y-36604932D02*
X158983513Y-36700170D01*
X158983513Y-36700170D02*
X158983513Y-36985884D01*
X158983513Y-36985884D02*
X158935894Y-37081122D01*
X158935894Y-37081122D02*
X158888275Y-37128741D01*
X158888275Y-37128741D02*
X158793037Y-37176360D01*
X158793037Y-37176360D02*
X158602561Y-37176360D01*
X158602561Y-37176360D02*
X158507323Y-37128741D01*
X158078751Y-36509693D02*
X158078751Y-37509693D01*
X157650180Y-36509693D02*
X157650180Y-37033503D01*
X157650180Y-37033503D02*
X157697799Y-37128741D01*
X157697799Y-37128741D02*
X157793037Y-37176360D01*
X157793037Y-37176360D02*
X157935894Y-37176360D01*
X157935894Y-37176360D02*
X158031132Y-37128741D01*
X158031132Y-37128741D02*
X158078751Y-37081122D01*
X156745418Y-36509693D02*
X156745418Y-37033503D01*
X156745418Y-37033503D02*
X156793037Y-37128741D01*
X156793037Y-37128741D02*
X156888275Y-37176360D01*
X156888275Y-37176360D02*
X157078751Y-37176360D01*
X157078751Y-37176360D02*
X157173989Y-37128741D01*
X156745418Y-36557313D02*
X156840656Y-36509693D01*
X156840656Y-36509693D02*
X157078751Y-36509693D01*
X157078751Y-36509693D02*
X157173989Y-36557313D01*
X157173989Y-36557313D02*
X157221608Y-36652551D01*
X157221608Y-36652551D02*
X157221608Y-36747789D01*
X157221608Y-36747789D02*
X157173989Y-36843027D01*
X157173989Y-36843027D02*
X157078751Y-36890646D01*
X157078751Y-36890646D02*
X156840656Y-36890646D01*
X156840656Y-36890646D02*
X156745418Y-36938265D01*
X156269227Y-36509693D02*
X156269227Y-37176360D01*
X156269227Y-36985884D02*
X156221608Y-37081122D01*
X156221608Y-37081122D02*
X156173989Y-37128741D01*
X156173989Y-37128741D02*
X156078751Y-37176360D01*
X156078751Y-37176360D02*
X155983513Y-37176360D01*
X155221608Y-36509693D02*
X155221608Y-37509693D01*
X155221608Y-36557313D02*
X155316846Y-36509693D01*
X155316846Y-36509693D02*
X155507322Y-36509693D01*
X155507322Y-36509693D02*
X155602560Y-36557313D01*
X155602560Y-36557313D02*
X155650179Y-36604932D01*
X155650179Y-36604932D02*
X155697798Y-36700170D01*
X155697798Y-36700170D02*
X155697798Y-36985884D01*
X155697798Y-36985884D02*
X155650179Y-37081122D01*
X155650179Y-37081122D02*
X155602560Y-37128741D01*
X155602560Y-37128741D02*
X155507322Y-37176360D01*
X155507322Y-37176360D02*
X155316846Y-37176360D01*
X155316846Y-37176360D02*
X155221608Y-37128741D01*
X153983512Y-36509693D02*
X153983512Y-37509693D01*
X153983512Y-37033503D02*
X153412084Y-37033503D01*
X153412084Y-36509693D02*
X153412084Y-37509693D01*
X152935893Y-36604932D02*
X152888274Y-36557313D01*
X152888274Y-36557313D02*
X152935893Y-36509693D01*
X152935893Y-36509693D02*
X152983512Y-36557313D01*
X152983512Y-36557313D02*
X152935893Y-36604932D01*
X152935893Y-36604932D02*
X152935893Y-36509693D01*
X160554941Y-35899749D02*
X160221608Y-34899749D01*
X160221608Y-34899749D02*
X159888275Y-35899749D01*
X159221608Y-35423559D02*
X159078751Y-35375940D01*
X159078751Y-35375940D02*
X159031132Y-35328321D01*
X159031132Y-35328321D02*
X158983513Y-35233083D01*
X158983513Y-35233083D02*
X158983513Y-35090226D01*
X158983513Y-35090226D02*
X159031132Y-34994988D01*
X159031132Y-34994988D02*
X159078751Y-34947369D01*
X159078751Y-34947369D02*
X159173989Y-34899749D01*
X159173989Y-34899749D02*
X159554941Y-34899749D01*
X159554941Y-34899749D02*
X159554941Y-35899749D01*
X159554941Y-35899749D02*
X159221608Y-35899749D01*
X159221608Y-35899749D02*
X159126370Y-35852130D01*
X159126370Y-35852130D02*
X159078751Y-35804511D01*
X159078751Y-35804511D02*
X159031132Y-35709273D01*
X159031132Y-35709273D02*
X159031132Y-35614035D01*
X159031132Y-35614035D02*
X159078751Y-35518797D01*
X159078751Y-35518797D02*
X159126370Y-35471178D01*
X159126370Y-35471178D02*
X159221608Y-35423559D01*
X159221608Y-35423559D02*
X159554941Y-35423559D01*
X158554941Y-34899749D02*
X158554941Y-35899749D01*
X157983513Y-34899749D02*
X158412084Y-35471178D01*
X157983513Y-35899749D02*
X158554941Y-35328321D01*
D11*
X141571428Y-21678328D02*
X141571428Y-22749757D01*
X141571428Y-22749757D02*
X141499999Y-22964042D01*
X141499999Y-22964042D02*
X141357142Y-23106900D01*
X141357142Y-23106900D02*
X141142856Y-23178328D01*
X141142856Y-23178328D02*
X140999999Y-23178328D01*
X142999999Y-23178328D02*
X142285713Y-23178328D01*
X142285713Y-23178328D02*
X142285713Y-21678328D01*
X144357142Y-23035471D02*
X144285714Y-23106900D01*
X144285714Y-23106900D02*
X144071428Y-23178328D01*
X144071428Y-23178328D02*
X143928571Y-23178328D01*
X143928571Y-23178328D02*
X143714285Y-23106900D01*
X143714285Y-23106900D02*
X143571428Y-22964042D01*
X143571428Y-22964042D02*
X143499999Y-22821185D01*
X143499999Y-22821185D02*
X143428571Y-22535471D01*
X143428571Y-22535471D02*
X143428571Y-22321185D01*
X143428571Y-22321185D02*
X143499999Y-22035471D01*
X143499999Y-22035471D02*
X143571428Y-21892614D01*
X143571428Y-21892614D02*
X143714285Y-21749757D01*
X143714285Y-21749757D02*
X143928571Y-21678328D01*
X143928571Y-21678328D02*
X144071428Y-21678328D01*
X144071428Y-21678328D02*
X144285714Y-21749757D01*
X144285714Y-21749757D02*
X144357142Y-21821185D01*
X145428571Y-21678328D02*
X145428571Y-22749757D01*
X145428571Y-22749757D02*
X145357142Y-22964042D01*
X145357142Y-22964042D02*
X145214285Y-23106900D01*
X145214285Y-23106900D02*
X144999999Y-23178328D01*
X144999999Y-23178328D02*
X144857142Y-23178328D01*
X146857142Y-23178328D02*
X146142856Y-23178328D01*
X146142856Y-23178328D02*
X146142856Y-21678328D01*
X148214285Y-23035471D02*
X148142857Y-23106900D01*
X148142857Y-23106900D02*
X147928571Y-23178328D01*
X147928571Y-23178328D02*
X147785714Y-23178328D01*
X147785714Y-23178328D02*
X147571428Y-23106900D01*
X147571428Y-23106900D02*
X147428571Y-22964042D01*
X147428571Y-22964042D02*
X147357142Y-22821185D01*
X147357142Y-22821185D02*
X147285714Y-22535471D01*
X147285714Y-22535471D02*
X147285714Y-22321185D01*
X147285714Y-22321185D02*
X147357142Y-22035471D01*
X147357142Y-22035471D02*
X147428571Y-21892614D01*
X147428571Y-21892614D02*
X147571428Y-21749757D01*
X147571428Y-21749757D02*
X147785714Y-21678328D01*
X147785714Y-21678328D02*
X147928571Y-21678328D01*
X147928571Y-21678328D02*
X148142857Y-21749757D01*
X148142857Y-21749757D02*
X148214285Y-21821185D01*
X149285714Y-21678328D02*
X149285714Y-22749757D01*
X149285714Y-22749757D02*
X149214285Y-22964042D01*
X149214285Y-22964042D02*
X149071428Y-23106900D01*
X149071428Y-23106900D02*
X148857142Y-23178328D01*
X148857142Y-23178328D02*
X148714285Y-23178328D01*
X150714285Y-23178328D02*
X149999999Y-23178328D01*
X149999999Y-23178328D02*
X149999999Y-21678328D01*
X152071428Y-23035471D02*
X152000000Y-23106900D01*
X152000000Y-23106900D02*
X151785714Y-23178328D01*
X151785714Y-23178328D02*
X151642857Y-23178328D01*
X151642857Y-23178328D02*
X151428571Y-23106900D01*
X151428571Y-23106900D02*
X151285714Y-22964042D01*
X151285714Y-22964042D02*
X151214285Y-22821185D01*
X151214285Y-22821185D02*
X151142857Y-22535471D01*
X151142857Y-22535471D02*
X151142857Y-22321185D01*
X151142857Y-22321185D02*
X151214285Y-22035471D01*
X151214285Y-22035471D02*
X151285714Y-21892614D01*
X151285714Y-21892614D02*
X151428571Y-21749757D01*
X151428571Y-21749757D02*
X151642857Y-21678328D01*
X151642857Y-21678328D02*
X151785714Y-21678328D01*
X151785714Y-21678328D02*
X152000000Y-21749757D01*
X152000000Y-21749757D02*
X152071428Y-21821185D01*
X153142857Y-21678328D02*
X153142857Y-22749757D01*
X153142857Y-22749757D02*
X153071428Y-22964042D01*
X153071428Y-22964042D02*
X152928571Y-23106900D01*
X152928571Y-23106900D02*
X152714285Y-23178328D01*
X152714285Y-23178328D02*
X152571428Y-23178328D01*
X154571428Y-23178328D02*
X153857142Y-23178328D01*
X153857142Y-23178328D02*
X153857142Y-21678328D01*
X155928571Y-23035471D02*
X155857143Y-23106900D01*
X155857143Y-23106900D02*
X155642857Y-23178328D01*
X155642857Y-23178328D02*
X155500000Y-23178328D01*
X155500000Y-23178328D02*
X155285714Y-23106900D01*
X155285714Y-23106900D02*
X155142857Y-22964042D01*
X155142857Y-22964042D02*
X155071428Y-22821185D01*
X155071428Y-22821185D02*
X155000000Y-22535471D01*
X155000000Y-22535471D02*
X155000000Y-22321185D01*
X155000000Y-22321185D02*
X155071428Y-22035471D01*
X155071428Y-22035471D02*
X155142857Y-21892614D01*
X155142857Y-21892614D02*
X155285714Y-21749757D01*
X155285714Y-21749757D02*
X155500000Y-21678328D01*
X155500000Y-21678328D02*
X155642857Y-21678328D01*
X155642857Y-21678328D02*
X155857143Y-21749757D01*
X155857143Y-21749757D02*
X155928571Y-21821185D01*
%TO.C,C9_1*%
D12*
X170069190Y-52401309D02*
X170221693Y-52248806D01*
X170578307Y-52910426D02*
X170730810Y-52757923D01*
%TO.C,R11_1*%
X174653640Y-52052433D02*
X174436359Y-51835152D01*
X175191041Y-51515032D02*
X174973760Y-51297751D01*
%TO.C,U1_3*%
X166868655Y-78304360D02*
X174081144Y-71091871D01*
X174081144Y-71091871D02*
X184687745Y-81698472D01*
X177475256Y-88910961D02*
X166868655Y-78304360D01*
X181399699Y-78410426D02*
X181823962Y-77986162D01*
X184687745Y-81698472D02*
X177475256Y-88910961D01*
%TO.C,R1_2*%
X113556300Y-88787781D02*
X113556300Y-88480499D01*
X114316300Y-88787781D02*
X114316300Y-88480499D01*
%TO.C,R3_3*%
X157320000Y-85980499D02*
X157320000Y-86287781D01*
X158080000Y-85980499D02*
X158080000Y-86287781D01*
%TO.C,D4_1*%
D13*
X185227976Y-45142213D02*
G75*
G02*
X185127976Y-45142213I-50000J0D01*
G01*
X185127976Y-45142213D02*
G75*
G02*
X185227976Y-45142213I50000J0D01*
G01*
%TO.C,D3_3*%
D12*
X160320187Y-83395215D02*
X161734401Y-84809429D01*
X160320187Y-83395215D02*
X163049619Y-80665783D01*
X161734401Y-84809429D02*
X164463833Y-82079997D01*
%TO.C,BT1_2*%
X120124489Y-97191276D02*
X121324489Y-97191276D01*
X120724489Y-96591276D02*
X120724489Y-97791276D01*
%TO.C,U2_2*%
X127708431Y-73062129D02*
X128185728Y-72584832D01*
X127832175Y-73185872D02*
X127708431Y-73062129D01*
X129508018Y-71262542D02*
X129985315Y-70785245D01*
X129631761Y-74985459D02*
X129508018Y-74861715D01*
X129985315Y-70785245D02*
X130109058Y-70908989D01*
X130109058Y-74508162D02*
X129631761Y-74985459D01*
X131784901Y-72584832D02*
X131908645Y-72708575D01*
X131908645Y-72708575D02*
X131431348Y-73185872D01*
X131569234Y-72185316D02*
X131632873Y-71782265D01*
X131972285Y-72121677D01*
X131569234Y-72185316D01*
G36*
X131972285Y-72121677D02*
G01*
X131569234Y-72185316D01*
X131632873Y-71782265D01*
X131972285Y-72121677D01*
G37*
%TO.C,R1_0*%
X143683700Y-43771451D02*
X143683700Y-44078733D01*
X144443700Y-43771451D02*
X144443700Y-44078733D01*
%TO.C,C1_2*%
X121426300Y-90274720D02*
X121426300Y-89993560D01*
X122446300Y-90274720D02*
X122446300Y-89993560D01*
%TO.C,R2_3*%
X152534578Y-85659821D02*
X152841860Y-85659821D01*
X152534578Y-86419821D02*
X152841860Y-86419821D01*
%TO.C,C2_2*%
X115459420Y-91624140D02*
X115740580Y-91624140D01*
X115459420Y-92644140D02*
X115740580Y-92644140D01*
%TO.C,D3_1*%
X174265599Y-47749803D02*
X171536167Y-50479235D01*
X175679813Y-49164017D02*
X172950381Y-51893449D01*
X175679813Y-49164017D02*
X174265599Y-47749803D01*
%TO.C,C3_3*%
X166757993Y-76214950D02*
X166605490Y-76062447D01*
X167267110Y-75705833D02*
X167114607Y-75553330D01*
%TO.C,D4_3*%
D13*
X150872024Y-87417019D02*
G75*
G02*
X150772024Y-87417019I-50000J0D01*
G01*
X150772024Y-87417019D02*
G75*
G02*
X150872024Y-87417019I50000J0D01*
G01*
%TO.C,C4_2*%
D12*
X132855490Y-71401309D02*
X133007993Y-71248806D01*
X133364607Y-71910426D02*
X133517110Y-71757923D01*
%TO.C,C6_2*%
X128507993Y-75464950D02*
X128355490Y-75312447D01*
X129017110Y-74955833D02*
X128864607Y-74803330D01*
%TO.C,C7_2*%
X127007993Y-74053330D02*
X126855490Y-74205833D01*
X127517110Y-74562447D02*
X127364607Y-74714950D01*
%TO.C,U1_0*%
X112312255Y-50860760D02*
X119524744Y-43648271D01*
X115600301Y-54148806D02*
X115176038Y-54573070D01*
X119524744Y-43648271D02*
X130131345Y-54254872D01*
X122918856Y-61467361D02*
X112312255Y-50860760D01*
X130131345Y-54254872D02*
X122918856Y-61467361D01*
%TO.C,C2_1*%
X181540580Y-39915092D02*
X181259420Y-39915092D01*
X181540580Y-40935092D02*
X181259420Y-40935092D01*
%TO.C,C1_0*%
X135553700Y-42284512D02*
X135553700Y-42565672D01*
X136573700Y-42284512D02*
X136573700Y-42565672D01*
%TO.C,R10_3*%
X161558959Y-80294200D02*
X161776240Y-80511481D01*
X162096360Y-79756799D02*
X162313641Y-79974080D01*
%TO.C,C6_3*%
X167507993Y-75464950D02*
X167355490Y-75312447D01*
X168017110Y-74955833D02*
X167864607Y-74803330D01*
%TO.C,R11_0*%
X135653640Y-52052433D02*
X135436359Y-51835152D01*
X136191041Y-51515032D02*
X135973760Y-51297751D01*
%TO.C,R3_1*%
X177920000Y-46578733D02*
X177920000Y-46271451D01*
X178680000Y-46578733D02*
X178680000Y-46271451D01*
%TO.C,D3_0*%
X135265599Y-47749803D02*
X132536167Y-50479235D01*
X136679813Y-49164017D02*
X133950381Y-51893449D01*
X136679813Y-49164017D02*
X135265599Y-47749803D01*
%TO.C,D1_0*%
X137351101Y-45140133D02*
X135470197Y-47021037D01*
X138553183Y-46342215D02*
X136672279Y-48223119D01*
X138553183Y-46342215D02*
X137351101Y-45140133D01*
%TO.C,C3_2*%
X127757993Y-76214950D02*
X127605490Y-76062447D01*
X128267110Y-75705833D02*
X128114607Y-75553330D01*
%TO.C,C3_0*%
X129732890Y-56853399D02*
X129885393Y-57005902D01*
X130242007Y-56344282D02*
X130394510Y-56496785D01*
%TO.C,R7_2*%
X113220000Y-93233257D02*
X113220000Y-92925975D01*
X113980000Y-93233257D02*
X113980000Y-92925975D01*
%TO.C,C9_0*%
X131069190Y-52401309D02*
X131221693Y-52248806D01*
X131578307Y-52910426D02*
X131730810Y-52757923D01*
%TO.C,R7_0*%
X144020000Y-39325975D02*
X144020000Y-39633257D01*
X144780000Y-39325975D02*
X144780000Y-39633257D01*
%TO.C,C6_1*%
X167982890Y-57603399D02*
X168135393Y-57755902D01*
X168492007Y-57094282D02*
X168644510Y-57246785D01*
%TO.C,BT1_0*%
X137275511Y-35967956D02*
X137275511Y-34767956D01*
X137875511Y-35367956D02*
X136675511Y-35367956D01*
%TO.C,R8_3*%
X152420000Y-95333257D02*
X152420000Y-95025975D01*
X153180000Y-95333257D02*
X153180000Y-95025975D01*
%TO.C,Q2_1*%
X177865000Y-35169616D02*
X179335000Y-35169616D01*
X177865000Y-35194616D02*
X177865000Y-35169616D01*
X177865000Y-37389616D02*
X177865000Y-37364616D01*
X179335000Y-35169616D02*
X179335000Y-35194616D01*
X179335000Y-37364616D02*
X179335000Y-37389616D01*
X179335000Y-37389616D02*
X177865000Y-37389616D01*
X179780000Y-37369616D02*
X179920000Y-37559616D01*
X179640000Y-37559616D01*
X179780000Y-37369616D01*
G36*
X179920000Y-37559616D02*
G01*
X179640000Y-37559616D01*
X179780000Y-37369616D01*
X179920000Y-37559616D01*
G37*
%TO.C,U4_0*%
X141615000Y-37179616D02*
X143185000Y-37179616D01*
X141820000Y-35379616D02*
X143180000Y-35379616D01*
X141500000Y-35379616D02*
X141220000Y-35379616D01*
X141500000Y-35099616D01*
X141500000Y-35379616D01*
G36*
X141500000Y-35379616D02*
G01*
X141220000Y-35379616D01*
X141500000Y-35099616D01*
X141500000Y-35379616D01*
G37*
%TO.C,Q1_1*%
X179828700Y-45869616D02*
X181298700Y-45869616D01*
X179828700Y-45894616D02*
X179828700Y-45869616D01*
X179828700Y-48089616D02*
X179828700Y-48064616D01*
X181298700Y-45869616D02*
X181298700Y-45894616D01*
X181298700Y-48064616D02*
X181298700Y-48089616D01*
X181298700Y-48089616D02*
X179828700Y-48089616D01*
X181743700Y-48069616D02*
X181883700Y-48259616D01*
X181603700Y-48259616D01*
X181743700Y-48069616D01*
G36*
X181883700Y-48259616D02*
G01*
X181603700Y-48259616D01*
X181743700Y-48069616D01*
X181883700Y-48259616D01*
G37*
%TO.C,R7_3*%
X152220000Y-93233257D02*
X152220000Y-92925975D01*
X152980000Y-93233257D02*
X152980000Y-92925975D01*
%TO.C,U2_1*%
X165091355Y-59850657D02*
X165568652Y-59373360D01*
X165215099Y-59974400D02*
X165091355Y-59850657D01*
X166890942Y-58051070D02*
X167368239Y-57573773D01*
X167014685Y-61773987D02*
X166890942Y-61650243D01*
X167368239Y-57573773D02*
X167491982Y-57697517D01*
X167491982Y-61296690D02*
X167014685Y-61773987D01*
X169167825Y-59373360D02*
X169291569Y-59497103D01*
X169291569Y-59497103D02*
X168814272Y-59974400D01*
X165430766Y-60373916D02*
X165367127Y-60776967D01*
X165027715Y-60437555D01*
X165430766Y-60373916D01*
G36*
X165367127Y-60776967D02*
G01*
X165027715Y-60437555D01*
X165430766Y-60373916D01*
X165367127Y-60776967D01*
G37*
%TO.C,D1_1*%
X176351101Y-45140133D02*
X174470197Y-47021037D01*
X177553183Y-46342215D02*
X175672279Y-48223119D01*
X177553183Y-46342215D02*
X176351101Y-45140133D01*
%TO.C,Q1_3*%
X154701300Y-84469616D02*
X156171300Y-84469616D01*
X154701300Y-84494616D02*
X154701300Y-84469616D01*
X154701300Y-86689616D02*
X154701300Y-86664616D01*
X156171300Y-84469616D02*
X156171300Y-84494616D01*
X156171300Y-86664616D02*
X156171300Y-86689616D01*
X156171300Y-86689616D02*
X154701300Y-86689616D01*
X154256300Y-84489616D02*
X154116300Y-84299616D01*
X154396300Y-84299616D01*
X154256300Y-84489616D01*
G36*
X154256300Y-84489616D02*
G01*
X154116300Y-84299616D01*
X154396300Y-84299616D01*
X154256300Y-84489616D01*
G37*
%TO.C,R3_2*%
X118320000Y-85980499D02*
X118320000Y-86287781D01*
X119080000Y-85980499D02*
X119080000Y-86287781D01*
%TO.C,BT1_3*%
X159124489Y-97191276D02*
X160324489Y-97191276D01*
X159724489Y-96591276D02*
X159724489Y-97791276D01*
%TO.C,R8_2*%
X113420000Y-95333257D02*
X113420000Y-95025975D01*
X114180000Y-95333257D02*
X114180000Y-95025975D01*
%TO.C,R3_0*%
X138920000Y-46578733D02*
X138920000Y-46271451D01*
X139680000Y-46578733D02*
X139680000Y-46271451D01*
%TO.C,D2_1*%
X176150000Y-41869616D02*
X176150000Y-44529616D01*
X177850000Y-41869616D02*
X176150000Y-41869616D01*
X177850000Y-41869616D02*
X177850000Y-44529616D01*
%TO.C,U4_3*%
X155180000Y-97179616D02*
X153820000Y-97179616D01*
X155385000Y-95379616D02*
X153815000Y-95379616D01*
X155500000Y-97179616D02*
X155780000Y-97179616D01*
X155500000Y-97459616D01*
X155500000Y-97179616D01*
G36*
X155500000Y-97459616D02*
G01*
X155500000Y-97179616D01*
X155780000Y-97179616D01*
X155500000Y-97459616D01*
G37*
%TO.C,C9_2*%
X126421693Y-79648806D02*
X126269190Y-79801309D01*
X126930810Y-80157923D02*
X126778307Y-80310426D01*
%TO.C,D2_2*%
X119150000Y-90689616D02*
X119150000Y-88029616D01*
X119150000Y-90689616D02*
X120850000Y-90689616D01*
X120850000Y-90689616D02*
X120850000Y-88029616D01*
%TO.C,U3_1*%
X179490000Y-41719616D02*
X181310000Y-41719616D01*
X179490000Y-41769616D02*
X179490000Y-41719616D01*
X179490000Y-43669616D02*
X179490000Y-42889616D01*
X179490000Y-44839616D02*
X179490000Y-44789616D01*
X181310000Y-41719616D02*
X181310000Y-41769616D01*
X181310000Y-44789616D02*
X181310000Y-44839616D01*
X181310000Y-44839616D02*
X179490000Y-44839616D01*
X181850000Y-44789616D02*
X182090000Y-45119616D01*
X181610000Y-45119616D01*
X181850000Y-44789616D01*
G36*
X182090000Y-45119616D02*
G01*
X181610000Y-45119616D01*
X181850000Y-44789616D01*
X182090000Y-45119616D01*
G37*
%TO.C,BT1_1*%
X176275511Y-35967956D02*
X176275511Y-34767956D01*
X176875511Y-35367956D02*
X175675511Y-35367956D01*
%TO.C,R7_1*%
X183020000Y-39325975D02*
X183020000Y-39633257D01*
X183780000Y-39325975D02*
X183780000Y-39633257D01*
%TO.C,D1_3*%
X158446817Y-86217017D02*
X159648899Y-87419099D01*
X158446817Y-86217017D02*
X160327721Y-84336113D01*
X159648899Y-87419099D02*
X161529803Y-85538195D01*
%TO.C,R1_3*%
X152556300Y-88787781D02*
X152556300Y-88480499D01*
X153316300Y-88787781D02*
X153316300Y-88480499D01*
%TO.C,C8_0*%
X142707836Y-37519616D02*
X142492164Y-37519616D01*
X142707836Y-38239616D02*
X142492164Y-38239616D01*
%TO.C,C4_3*%
X171855490Y-71401309D02*
X172007993Y-71248806D01*
X172364607Y-71910426D02*
X172517110Y-71757923D01*
%TO.C,R11_2*%
X121808959Y-81044200D02*
X122026240Y-81261481D01*
X122346360Y-80506799D02*
X122563641Y-80724080D01*
%TO.C,U2_0*%
X126091355Y-59850657D02*
X126568652Y-59373360D01*
X126215099Y-59974400D02*
X126091355Y-59850657D01*
X127890942Y-58051070D02*
X128368239Y-57573773D01*
X128014685Y-61773987D02*
X127890942Y-61650243D01*
X128368239Y-57573773D02*
X128491982Y-57697517D01*
X128491982Y-61296690D02*
X128014685Y-61773987D01*
X130167825Y-59373360D02*
X130291569Y-59497103D01*
X130291569Y-59497103D02*
X129814272Y-59974400D01*
X126430766Y-60373916D02*
X126367127Y-60776967D01*
X126027715Y-60437555D01*
X126430766Y-60373916D01*
G36*
X126367127Y-60776967D02*
G01*
X126027715Y-60437555D01*
X126430766Y-60373916D01*
X126367127Y-60776967D01*
G37*
%TO.C,Q1_0*%
X140828700Y-45869616D02*
X142298700Y-45869616D01*
X140828700Y-45894616D02*
X140828700Y-45869616D01*
X140828700Y-48089616D02*
X140828700Y-48064616D01*
X142298700Y-45869616D02*
X142298700Y-45894616D01*
X142298700Y-48064616D02*
X142298700Y-48089616D01*
X142298700Y-48089616D02*
X140828700Y-48089616D01*
X142743700Y-48069616D02*
X142883700Y-48259616D01*
X142603700Y-48259616D01*
X142743700Y-48069616D01*
G36*
X142883700Y-48259616D02*
G01*
X142603700Y-48259616D01*
X142743700Y-48069616D01*
X142883700Y-48259616D01*
G37*
%TO.C,C8_2*%
X115292164Y-94319616D02*
X115507836Y-94319616D01*
X115292164Y-95039616D02*
X115507836Y-95039616D01*
%TO.C,R10_0*%
X134903640Y-52802433D02*
X134686359Y-52585152D01*
X135441041Y-52265032D02*
X135223760Y-52047751D01*
%TO.C,U3_0*%
X140490000Y-41719616D02*
X142310000Y-41719616D01*
X140490000Y-41769616D02*
X140490000Y-41719616D01*
X140490000Y-43669616D02*
X140490000Y-42889616D01*
X140490000Y-44839616D02*
X140490000Y-44789616D01*
X142310000Y-41719616D02*
X142310000Y-41769616D01*
X142310000Y-44789616D02*
X142310000Y-44839616D01*
X142310000Y-44839616D02*
X140490000Y-44839616D01*
X142850000Y-44789616D02*
X143090000Y-45119616D01*
X142610000Y-45119616D01*
X142850000Y-44789616D01*
G36*
X143090000Y-45119616D02*
G01*
X142610000Y-45119616D01*
X142850000Y-44789616D01*
X143090000Y-45119616D01*
G37*
%TO.C,C8_1*%
X181707836Y-37519616D02*
X181492164Y-37519616D01*
X181707836Y-38239616D02*
X181492164Y-38239616D01*
%TO.C,R2_2*%
X113534578Y-85659821D02*
X113841860Y-85659821D01*
X113534578Y-86419821D02*
X113841860Y-86419821D01*
%TO.C,R9_1*%
X171139940Y-53047751D02*
X170922659Y-53265032D01*
X171677341Y-53585152D02*
X171460060Y-53802433D01*
%TO.C,R11_3*%
X160808959Y-81044200D02*
X161026240Y-81261481D01*
X161346360Y-80506799D02*
X161563641Y-80724080D01*
%TO.C,R9_3*%
X164322659Y-78974080D02*
X164539940Y-78756799D01*
X164860060Y-79511481D02*
X165077341Y-79294200D01*
%TO.C,C7_3*%
X166007993Y-74053330D02*
X165855490Y-74205833D01*
X166517110Y-74562447D02*
X166364607Y-74714950D01*
%TO.C,R1_1*%
X182683700Y-43771451D02*
X182683700Y-44078733D01*
X183443700Y-43771451D02*
X183443700Y-44078733D01*
%TO.C,R2_1*%
X183465422Y-46139411D02*
X183158140Y-46139411D01*
X183465422Y-46899411D02*
X183158140Y-46899411D01*
%TO.C,R4_0*%
X129222659Y-51519556D02*
X129439940Y-51302275D01*
X129760060Y-52056957D02*
X129977341Y-51839676D01*
%TO.C,C2_0*%
X142540580Y-39915092D02*
X142259420Y-39915092D01*
X142540580Y-40935092D02*
X142259420Y-40935092D01*
%TO.C,R2_0*%
X144465422Y-46139411D02*
X144158140Y-46139411D01*
X144465422Y-46899411D02*
X144158140Y-46899411D01*
%TO.C,D3_2*%
X121320187Y-83395215D02*
X122734401Y-84809429D01*
X121320187Y-83395215D02*
X124049619Y-80665783D01*
X122734401Y-84809429D02*
X125463833Y-82079997D01*
%TO.C,D1_2*%
X119446817Y-86217017D02*
X120648899Y-87419099D01*
X119446817Y-86217017D02*
X121327721Y-84336113D01*
X120648899Y-87419099D02*
X122529803Y-85538195D01*
%TO.C,C3_1*%
X168732890Y-56853399D02*
X168885393Y-57005902D01*
X169242007Y-56344282D02*
X169394510Y-56496785D01*
%TO.C,U2_3*%
X166708431Y-73062129D02*
X167185728Y-72584832D01*
X166832175Y-73185872D02*
X166708431Y-73062129D01*
X168508018Y-71262542D02*
X168985315Y-70785245D01*
X168631761Y-74985459D02*
X168508018Y-74861715D01*
X168985315Y-70785245D02*
X169109058Y-70908989D01*
X169109058Y-74508162D02*
X168631761Y-74985459D01*
X170784901Y-72584832D02*
X170908645Y-72708575D01*
X170908645Y-72708575D02*
X170431348Y-73185872D01*
X170569234Y-72185316D02*
X170632873Y-71782265D01*
X170972285Y-72121677D01*
X170569234Y-72185316D01*
G36*
X170972285Y-72121677D02*
G01*
X170569234Y-72185316D01*
X170632873Y-71782265D01*
X170972285Y-72121677D01*
G37*
%TO.C,R4_2*%
X128239940Y-80502275D02*
X128022659Y-80719556D01*
X128777341Y-81039676D02*
X128560060Y-81256957D01*
%TO.C,U3_2*%
X115690000Y-87719616D02*
X117510000Y-87719616D01*
X115690000Y-87769616D02*
X115690000Y-87719616D01*
X115690000Y-90839616D02*
X115690000Y-90789616D01*
X117510000Y-87719616D02*
X117510000Y-87769616D01*
X117510000Y-88889616D02*
X117510000Y-89669616D01*
X117510000Y-90789616D02*
X117510000Y-90839616D01*
X117510000Y-90839616D02*
X115690000Y-90839616D01*
X115150000Y-87769616D02*
X114910000Y-87439616D01*
X115390000Y-87439616D01*
X115150000Y-87769616D01*
G36*
X115150000Y-87769616D02*
G01*
X114910000Y-87439616D01*
X115390000Y-87439616D01*
X115150000Y-87769616D01*
G37*
%TO.C,U1_2*%
X127868655Y-78304360D02*
X135081144Y-71091871D01*
X135081144Y-71091871D02*
X145687745Y-81698472D01*
X138475256Y-88910961D02*
X127868655Y-78304360D01*
X142399699Y-78410426D02*
X142823962Y-77986162D01*
X145687745Y-81698472D02*
X138475256Y-88910961D01*
%TO.C,D4_0*%
D13*
X146227976Y-45142213D02*
G75*
G02*
X146127976Y-45142213I-50000J0D01*
G01*
X146127976Y-45142213D02*
G75*
G02*
X146227976Y-45142213I50000J0D01*
G01*
%TO.C,R9_0*%
D12*
X132139940Y-53047751D02*
X131922659Y-53265032D01*
X132677341Y-53585152D02*
X132460060Y-53802433D01*
%TO.C,C4_0*%
X124635393Y-60648806D02*
X124482890Y-60801309D01*
X125144510Y-61157923D02*
X124992007Y-61310426D01*
%TO.C,U3_3*%
X154690000Y-87719616D02*
X156510000Y-87719616D01*
X154690000Y-87769616D02*
X154690000Y-87719616D01*
X154690000Y-90839616D02*
X154690000Y-90789616D01*
X156510000Y-87719616D02*
X156510000Y-87769616D01*
X156510000Y-88889616D02*
X156510000Y-89669616D01*
X156510000Y-90789616D02*
X156510000Y-90839616D01*
X156510000Y-90839616D02*
X154690000Y-90839616D01*
X154150000Y-87769616D02*
X153910000Y-87439616D01*
X154390000Y-87439616D01*
X154150000Y-87769616D01*
G36*
X154150000Y-87769616D02*
G01*
X153910000Y-87439616D01*
X154390000Y-87439616D01*
X154150000Y-87769616D01*
G37*
%TO.C,D2_3*%
X158150000Y-90689616D02*
X158150000Y-88029616D01*
X158150000Y-90689616D02*
X159850000Y-90689616D01*
X159850000Y-90689616D02*
X159850000Y-88029616D01*
%TO.C,D4_2*%
D13*
X111872024Y-87417019D02*
G75*
G02*
X111772024Y-87417019I-50000J0D01*
G01*
X111772024Y-87417019D02*
G75*
G02*
X111872024Y-87417019I50000J0D01*
G01*
%TO.C,Q2_0*%
D12*
X138865000Y-35169616D02*
X140335000Y-35169616D01*
X138865000Y-35194616D02*
X138865000Y-35169616D01*
X138865000Y-37389616D02*
X138865000Y-37364616D01*
X140335000Y-35169616D02*
X140335000Y-35194616D01*
X140335000Y-37364616D02*
X140335000Y-37389616D01*
X140335000Y-37389616D02*
X138865000Y-37389616D01*
X140780000Y-37369616D02*
X140920000Y-37559616D01*
X140640000Y-37559616D01*
X140780000Y-37369616D01*
G36*
X140920000Y-37559616D02*
G01*
X140640000Y-37559616D01*
X140780000Y-37369616D01*
X140920000Y-37559616D01*
G37*
%TO.C,U4_2*%
X116180000Y-97179616D02*
X114820000Y-97179616D01*
X116385000Y-95379616D02*
X114815000Y-95379616D01*
X116500000Y-97179616D02*
X116780000Y-97179616D01*
X116500000Y-97459616D01*
X116500000Y-97179616D01*
G36*
X116500000Y-97459616D02*
G01*
X116500000Y-97179616D01*
X116780000Y-97179616D01*
X116500000Y-97459616D01*
G37*
%TO.C,Q1_2*%
X115701300Y-84469616D02*
X117171300Y-84469616D01*
X115701300Y-84494616D02*
X115701300Y-84469616D01*
X115701300Y-86689616D02*
X115701300Y-86664616D01*
X117171300Y-84469616D02*
X117171300Y-84494616D01*
X117171300Y-86664616D02*
X117171300Y-86689616D01*
X117171300Y-86689616D02*
X115701300Y-86689616D01*
X115256300Y-84489616D02*
X115116300Y-84299616D01*
X115396300Y-84299616D01*
X115256300Y-84489616D01*
G36*
X115256300Y-84489616D02*
G01*
X115116300Y-84299616D01*
X115396300Y-84299616D01*
X115256300Y-84489616D01*
G37*
%TO.C,R4_1*%
X168222659Y-51519556D02*
X168439940Y-51302275D01*
X168760060Y-52056957D02*
X168977341Y-51839676D01*
%TO.C,Q2_2*%
X117665000Y-95169616D02*
X119135000Y-95169616D01*
X117665000Y-95194616D02*
X117665000Y-95169616D01*
X117665000Y-97389616D02*
X117665000Y-97364616D01*
X119135000Y-95169616D02*
X119135000Y-95194616D01*
X119135000Y-97364616D02*
X119135000Y-97389616D01*
X119135000Y-97389616D02*
X117665000Y-97389616D01*
X117220000Y-95189616D02*
X117080000Y-94999616D01*
X117360000Y-94999616D01*
X117220000Y-95189616D01*
G36*
X117220000Y-95189616D02*
G01*
X117080000Y-94999616D01*
X117360000Y-94999616D01*
X117220000Y-95189616D01*
G37*
%TO.C,C8_3*%
X154292164Y-94319616D02*
X154507836Y-94319616D01*
X154292164Y-95039616D02*
X154507836Y-95039616D01*
%TO.C,D2_0*%
X137150000Y-41869616D02*
X137150000Y-44529616D01*
X138850000Y-41869616D02*
X137150000Y-41869616D01*
X138850000Y-41869616D02*
X138850000Y-44529616D01*
%TO.C,R10_2*%
X122558959Y-80294200D02*
X122776240Y-80511481D01*
X123096360Y-79756799D02*
X123313641Y-79974080D01*
%TO.C,C2_3*%
X154459420Y-91624140D02*
X154740580Y-91624140D01*
X154459420Y-92644140D02*
X154740580Y-92644140D01*
%TO.C,Q2_3*%
X156665000Y-95169616D02*
X158135000Y-95169616D01*
X156665000Y-95194616D02*
X156665000Y-95169616D01*
X156665000Y-97389616D02*
X156665000Y-97364616D01*
X158135000Y-95169616D02*
X158135000Y-95194616D01*
X158135000Y-97364616D02*
X158135000Y-97389616D01*
X158135000Y-97389616D02*
X156665000Y-97389616D01*
X156220000Y-95189616D02*
X156080000Y-94999616D01*
X156360000Y-94999616D01*
X156220000Y-95189616D01*
G36*
X156220000Y-95189616D02*
G01*
X156080000Y-94999616D01*
X156360000Y-94999616D01*
X156220000Y-95189616D01*
G37*
%TO.C,C4_1*%
X163635393Y-60648806D02*
X163482890Y-60801309D01*
X164144510Y-61157923D02*
X163992007Y-61310426D01*
%TO.C,R8_0*%
X143820000Y-37225975D02*
X143820000Y-37533257D01*
X144580000Y-37225975D02*
X144580000Y-37533257D01*
%TO.C,U4_1*%
X180615000Y-37179616D02*
X182185000Y-37179616D01*
X180820000Y-35379616D02*
X182180000Y-35379616D01*
X180500000Y-35379616D02*
X180220000Y-35379616D01*
X180500000Y-35099616D01*
X180500000Y-35379616D01*
G36*
X180500000Y-35379616D02*
G01*
X180220000Y-35379616D01*
X180500000Y-35099616D01*
X180500000Y-35379616D01*
G37*
%TO.C,C7_0*%
X130482890Y-57996785D02*
X130635393Y-57844282D01*
X130992007Y-58505902D02*
X131144510Y-58353399D01*
%TO.C,C9_3*%
X165421693Y-79648806D02*
X165269190Y-79801309D01*
X165930810Y-80157923D02*
X165778307Y-80310426D01*
%TO.C,C1_1*%
X174553700Y-42284512D02*
X174553700Y-42565672D01*
X175573700Y-42284512D02*
X175573700Y-42565672D01*
%TO.C,R4_3*%
X167239940Y-80502275D02*
X167022659Y-80719556D01*
X167777341Y-81039676D02*
X167560060Y-81256957D01*
%TO.C,R8_1*%
X182820000Y-37225975D02*
X182820000Y-37533257D01*
X183580000Y-37225975D02*
X183580000Y-37533257D01*
%TO.C,R10_1*%
X173903640Y-52802433D02*
X173686359Y-52585152D01*
X174441041Y-52265032D02*
X174223760Y-52047751D01*
%TO.C,C7_1*%
X169482890Y-57996785D02*
X169635393Y-57844282D01*
X169992007Y-58505902D02*
X170144510Y-58353399D01*
%TO.C,R9_2*%
X125322659Y-78974080D02*
X125539940Y-78756799D01*
X125860060Y-79511481D02*
X126077341Y-79294200D01*
%TO.C,C1_3*%
X160426300Y-90274720D02*
X160426300Y-89993560D01*
X161446300Y-90274720D02*
X161446300Y-89993560D01*
%TO.C,C6_0*%
X128982890Y-57603399D02*
X129135393Y-57755902D01*
X129492007Y-57094282D02*
X129644510Y-57246785D01*
%TO.C,U1_1*%
X151312255Y-50860760D02*
X158524744Y-43648271D01*
X154600301Y-54148806D02*
X154176038Y-54573070D01*
X158524744Y-43648271D02*
X169131345Y-54254872D01*
X161918856Y-61467361D02*
X151312255Y-50860760D01*
X169131345Y-54254872D02*
X161918856Y-61467361D01*
%TD*%
M02*
