M48
; DRILL file KiCad 10.0.6 date 2026-09-29T13:49:20
; FORMAT={-:-/ absolute / metric / decimal}
; #@! TF.CreationDate,2026-09-29T13:49:20+02:00
; #@! TF.GenerationSoftware,Kicad,Pcbnew,10.0.6
; #@! TF.FileFunction,MixedPlating,1,2
FMAT,2
METRIC
; #@! TA.AperFunction,Plated,PTH,ViaDrill
T1C0.300
; #@! TA.AperFunction,Plated,PTH,ComponentDrill
T2C0.850
; #@! TA.AperFunction,NonPlated,NPTH,ComponentDrill
T3C0.500
; #@! TA.AperFunction,NonPlated,NPTH,ComponentDrill
T4C1.152
; #@! TA.AperFunction,NonPlated,NPTH,ComponentDrill
T5C2.400
%
G90
G05
T1
X112.05Y-82.565
X112.864Y-80.799
X113.009Y-87.321
X114.649Y-89.821
X115.421Y-75.55
X115.621Y-73.65
X115.698Y-79.982
X116.33Y-86.852
X116.662Y-85.28
X116.826Y-90.01
X116.963Y-71.35
X117.041Y-76.23
X117.181Y-82.947
X117.37Y-73.9
X117.414Y-87.28
X117.765Y-80.875
X117.8Y-77.38
X117.8Y-78.98
X118.112Y-90.92
X118.661Y-43.38
X118.7Y-80.17
X118.805Y-82.882
X118.861Y-71.997
X119.203Y-84.016
X119.223Y-79.574
X120.175Y-73.353
X120.579Y-92.839
X120.597Y-88.551
X121.0Y-35.18
X121.0Y-70.98
X121.0Y-74.18
X121.0Y-77.38
X121.0Y-78.98
X121.25Y-80.53
X121.684Y-69.505
X122.1Y-81.5
X122.55Y-41.305
X122.6Y-83.78
X122.6Y-85.38
X122.6Y-86.98
X123.326Y-78.215
X123.571Y-67.779
X124.05Y-48.73
X124.6Y-69.43
X124.915Y-76.827
X125.65Y-50.23
X125.777Y-75.998
X125.848Y-75.28
X125.878Y-61.104
X126.019Y-56.696
X126.05Y-53.631
X126.1Y-70.78
X126.25Y-78.43
X126.5Y-50.13
X126.725Y-60.782
X127.792Y-60.795
X130.208Y-67.764
X131.275Y-67.778
X131.5Y-78.43
X131.75Y-50.13
X131.9Y-57.78
X131.95Y-74.929
X131.981Y-71.864
X132.122Y-67.455
X132.152Y-53.28
X132.223Y-52.561
X132.35Y-78.33
X133.085Y-51.732
X133.4Y-59.13
X133.95Y-79.83
X134.429Y-60.78
X134.674Y-50.344
X135.4Y-41.58
X135.4Y-43.18
X135.4Y-44.78
X135.45Y-87.255
X135.9Y-47.06
X136.316Y-59.055
X136.75Y-48.03
X137.0Y-49.58
X137.0Y-51.18
X137.0Y-54.38
X137.0Y-57.58
X137.0Y-93.38
X137.403Y-40.009
X137.421Y-35.721
X137.825Y-55.206
X138.777Y-48.985
X138.796Y-44.543
X139.139Y-56.562
X139.195Y-45.678
X139.3Y-48.39
X139.339Y-85.18
X139.887Y-37.64
X140.2Y-49.58
X140.2Y-51.18
X140.235Y-47.685
X140.586Y-41.28
X140.63Y-54.659
X140.819Y-45.613
X140.959Y-52.33
X141.037Y-57.209
X141.174Y-38.549
X141.338Y-43.28
X141.67Y-41.707
X142.302Y-48.578
X142.379Y-54.91
X142.579Y-53.01
X143.351Y-38.738
X144.991Y-41.239
X145.136Y-47.76
X145.95Y-45.995
X151.05Y-82.565
X151.864Y-80.799
X152.009Y-87.321
X153.649Y-89.821
X154.421Y-75.55
X154.621Y-73.65
X154.698Y-79.982
X155.33Y-86.852
X155.662Y-85.28
X155.826Y-90.01
X155.963Y-71.35
X156.041Y-76.23
X156.181Y-82.947
X156.37Y-73.9
X156.414Y-87.28
X156.765Y-80.875
X156.8Y-77.38
X156.8Y-78.98
X157.112Y-90.92
X157.661Y-43.38
X157.7Y-80.17
X157.805Y-82.882
X157.861Y-71.997
X158.203Y-84.016
X158.223Y-79.574
X159.175Y-73.353
X159.579Y-92.839
X159.597Y-88.551
X160.0Y-35.18
X160.0Y-70.98
X160.0Y-74.18
X160.0Y-77.38
X160.0Y-78.98
X160.25Y-80.53
X160.684Y-69.505
X161.1Y-81.5
X161.55Y-41.305
X161.6Y-83.78
X161.6Y-85.38
X161.6Y-86.98
X162.326Y-78.215
X162.571Y-67.779
X163.05Y-48.73
X163.6Y-69.43
X163.915Y-76.827
X164.65Y-50.23
X164.777Y-75.998
X164.848Y-75.28
X164.878Y-61.104
X165.019Y-56.696
X165.05Y-53.631
X165.1Y-70.78
X165.25Y-78.43
X165.5Y-50.13
X165.725Y-60.782
X166.792Y-60.795
X169.208Y-67.764
X170.275Y-67.778
X170.5Y-78.43
X170.75Y-50.13
X170.9Y-57.78
X170.95Y-74.929
X170.981Y-71.864
X171.122Y-67.455
X171.152Y-53.28
X171.223Y-52.561
X171.35Y-78.33
X172.085Y-51.732
X172.4Y-59.13
X172.95Y-79.83
X173.429Y-60.78
X173.674Y-50.344
X174.4Y-41.58
X174.4Y-43.18
X174.4Y-44.78
X174.45Y-87.255
X174.9Y-47.06
X175.316Y-59.055
X175.75Y-48.03
X176.0Y-49.58
X176.0Y-51.18
X176.0Y-54.38
X176.0Y-57.58
X176.0Y-93.38
X176.403Y-40.009
X176.421Y-35.721
X176.825Y-55.206
X177.777Y-48.985
X177.796Y-44.543
X178.139Y-56.562
X178.195Y-45.678
X178.3Y-48.39
X178.339Y-85.18
X178.887Y-37.64
X179.2Y-49.58
X179.2Y-51.18
X179.235Y-47.685
X179.586Y-41.28
X179.63Y-54.659
X179.819Y-45.613
X179.959Y-52.33
X180.037Y-57.209
X180.174Y-38.549
X180.338Y-43.28
X180.67Y-41.707
X181.302Y-48.578
X181.379Y-54.91
X181.579Y-53.01
X182.351Y-38.738
X183.991Y-41.239
X184.136Y-47.76
X184.95Y-45.995
T2
X115.156Y-42.367
X115.804Y-39.952
X142.196Y-88.607
X142.844Y-86.192
X154.156Y-42.367
X154.804Y-39.952
X181.196Y-88.607
X181.844Y-86.192
T3
X103.357Y-28.0
X103.357Y-100.559
X104.214Y-28.0
X104.214Y-100.559
X105.071Y-28.0
X105.071Y-100.559
X105.929Y-28.0
X105.929Y-100.559
X106.786Y-28.0
X106.786Y-100.559
X107.643Y-28.0
X107.643Y-100.559
X111.0Y-20.357
X111.0Y-21.214
X111.0Y-22.071
X111.0Y-22.929
X111.0Y-23.786
X111.0Y-24.643
X111.0Y-103.916
X111.0Y-104.774
X111.0Y-105.631
X111.0Y-106.488
X111.0Y-107.345
X111.0Y-108.202
X111.315Y-42.8
X111.315Y-85.759
X111.422Y-41.999
X111.422Y-86.56
X111.565Y-41.203
X111.565Y-87.356
X111.744Y-40.415
X111.744Y-88.144
X111.96Y-39.636
X111.96Y-88.924
X112.213Y-38.868
X112.213Y-89.692
X118.685Y-98.31
X119.425Y-98.779
X120.175Y-99.232
X120.946Y-99.647
X121.737Y-100.025
X127.016Y-62.476
X127.016Y-66.083
X128.007Y-62.549
X128.007Y-66.01
X129.0Y-62.58
X129.0Y-65.98
X129.993Y-62.549
X129.993Y-66.01
X130.984Y-62.476
X130.984Y-66.083
X136.263Y-28.535
X137.054Y-28.912
X137.825Y-29.327
X138.575Y-29.781
X139.315Y-30.249
X145.787Y-38.868
X145.787Y-89.692
X146.04Y-39.636
X146.04Y-88.924
X146.256Y-40.415
X146.256Y-88.144
X146.435Y-41.203
X146.435Y-87.356
X146.578Y-41.999
X146.578Y-86.56
X146.685Y-42.8
X146.685Y-85.759
X150.315Y-42.8
X150.315Y-85.759
X150.422Y-41.999
X150.422Y-86.56
X150.565Y-41.203
X150.565Y-87.356
X150.744Y-40.415
X150.744Y-88.144
X150.96Y-39.636
X150.96Y-88.924
X151.213Y-38.868
X151.213Y-89.692
X157.685Y-98.31
X158.425Y-98.779
X159.175Y-99.232
X159.946Y-99.647
X160.737Y-100.025
X166.016Y-62.476
X166.016Y-66.083
X167.007Y-62.549
X167.007Y-66.01
X168.0Y-62.58
X168.0Y-65.98
X168.993Y-62.549
X168.993Y-66.01
X169.984Y-62.476
X169.984Y-66.083
X175.263Y-28.535
X176.054Y-28.912
X176.825Y-29.327
X177.575Y-29.781
X178.315Y-30.249
X184.787Y-38.868
X184.787Y-89.692
X185.04Y-39.636
X185.04Y-88.924
X185.256Y-40.415
X185.256Y-88.144
X185.435Y-41.203
X185.435Y-87.356
X185.578Y-41.999
X185.578Y-86.56
X185.685Y-42.8
X185.685Y-85.759
X186.0Y-20.357
X186.0Y-21.214
X186.0Y-22.071
X186.0Y-22.929
X186.0Y-23.786
X186.0Y-24.643
X186.0Y-103.916
X186.0Y-104.774
X186.0Y-105.631
X186.0Y-106.488
X186.0Y-107.345
X186.0Y-108.202
X189.357Y-28.0
X189.357Y-100.559
X190.214Y-28.0
X190.214Y-100.559
X191.071Y-28.0
X191.071Y-100.559
X191.929Y-28.0
X191.929Y-100.559
X192.786Y-28.0
X192.786Y-100.559
X193.643Y-28.0
X193.643Y-100.559
T4
X105.5Y-22.5
X105.5Y-106.059
X191.5Y-22.5
T5
X113.495Y-78.137
X117.538Y-95.649
X119.536Y-31.264
X119.8Y-45.98
X138.2Y-82.58
X138.464Y-97.296
X140.462Y-32.911
X144.505Y-50.423
X152.495Y-78.137
X156.538Y-95.649
X158.536Y-31.264
X158.8Y-45.98
X177.2Y-82.58
X177.464Y-97.296
X179.462Y-32.911
X183.505Y-50.423
M30
