%TF.GenerationSoftware,KiCad,Pcbnew,10.0.6*%
%TF.CreationDate,2026-10-01T09:26:11+02:00*%
%TF.ProjectId,shotpuck-panel,73686f74-7075-4636-9b2d-70616e656c2e,rev?*%
%TF.SameCoordinates,Original*%
%TF.FileFunction,Soldermask,Top*%
%TF.FilePolarity,Negative*%
%FSLAX46Y46*%
G04 Gerber Fmt 4.6, Leading zero omitted, Abs format (unit mm)*
G04 Created by KiCad (PCBNEW 10.0.6) date 2026-10-01 09:26:11*
%MOMM*%
%LPD*%
G01*
G04 APERTURE LIST*
G04 Aperture macros list*
%AMRoundRect*
0 Rectangle with rounded corners*
0 $1 Rounding radius*
0 $2 $3 $4 $5 $6 $7 $8 $9 X,Y pos of 4 corners*
0 Add a 4 corners polygon primitive as box body*
4,1,4,$2,$3,$4,$5,$6,$7,$8,$9,$2,$3,0*
0 Add four circle primitives for the rounded corners*
1,1,$1+$1,$2,$3*
1,1,$1+$1,$4,$5*
1,1,$1+$1,$6,$7*
1,1,$1+$1,$8,$9*
0 Add four rect primitives between the rounded corners*
20,1,$1+$1,$2,$3,$4,$5,0*
20,1,$1+$1,$4,$5,$6,$7,0*
20,1,$1+$1,$6,$7,$8,$9,0*
20,1,$1+$1,$8,$9,$2,$3,0*%
%AMRotRect*
0 Rectangle, with rotation*
0 The origin of the aperture is its center*
0 $1 length*
0 $2 width*
0 $3 Rotation angle, in degrees counterclockwise*
0 Add horizontal line*
21,1,$1,$2,0,0,$3*%
%AMFreePoly0*
4,1,30,0.497501,0.387700,0.456400,0.363000,0.408700,0.327701,0.364700,0.287800,0.324799,0.243800,0.289500,0.196100,0.258900,0.145200,0.233600,0.091500,0.213600,0.035600,0.199100,-0.022001,0.190400,-0.080700,0.187500,-0.140000,0.190400,-0.199300,0.199100,-0.257999,0.213600,-0.315600,0.233600,-0.371501,0.258900,-0.425200,0.289500,-0.476100,0.324801,-0.523800,0.364700,-0.567800,
0.408700,-0.607700,0.456400,-0.643000,0.497501,-0.667700,0.497500,-1.005000,-0.452500,-1.005000,-0.452500,1.164300,-0.449000,1.188000,-0.441300,1.344999,0.497500,1.345000,0.497501,0.387700,0.497501,0.387700,$1*%
%AMFreePoly1*
4,1,30,0.442800,1.197900,0.452500,1.132300,0.452500,-1.005000,-0.497500,-1.005000,-0.497500,-0.667700,-0.456400,-0.643001,-0.408700,-0.607700,-0.364700,-0.567800,-0.324800,-0.523800,-0.289500,-0.476100,-0.258900,-0.425200,-0.233600,-0.371500,-0.213600,-0.315600,-0.199100,-0.258000,-0.190400,-0.199300,-0.187500,-0.140000,-0.190400,-0.080700,-0.199100,-0.022000,-0.213600,0.035600,-0.233600,0.091500,
-0.258900,0.145200,-0.289500,0.196100,-0.324800,0.243800,-0.364700,0.287800,-0.408700,0.327700,-0.456400,0.363000,-0.497500,0.387700,-0.497500,1.345000,0.435500,1.344999,0.442800,1.197900,0.442800,1.197900,$1*%
G04 Aperture macros list end*
%ADD10C,0.500000*%
%ADD11RoundRect,0.087500X-0.097227X-0.220971X0.220971X0.097227X0.097227X0.220971X-0.220971X-0.097227X0*%
%ADD12RoundRect,0.087500X0.097227X-0.220971X0.220971X-0.097227X-0.097227X0.220971X-0.220971X0.097227X0*%
%ADD13C,2.400000*%
%ADD14RoundRect,0.135000X0.185000X-0.135000X0.185000X0.135000X-0.185000X0.135000X-0.185000X-0.135000X0*%
%ADD15RoundRect,0.147500X0.158988X-0.161973X0.184699X0.131904X-0.158988X0.161973X-0.184699X-0.131904X0*%
%ADD16RoundRect,0.135000X-0.135000X-0.185000X0.135000X-0.185000X0.135000X0.185000X-0.135000X0.185000X0*%
%ADD17RoundRect,0.125000X-0.125000X0.125000X-0.125000X-0.125000X0.125000X-0.125000X0.125000X0.125000X0*%
%ADD18RoundRect,0.140000X-0.021213X0.219203X-0.219203X0.021213X0.021213X-0.219203X0.219203X-0.021213X0*%
%ADD19RoundRect,0.135000X-0.185000X0.135000X-0.185000X-0.135000X0.185000X-0.135000X0.185000X0.135000X0*%
%ADD20RoundRect,0.135000X0.226274X0.035355X0.035355X0.226274X-0.226274X-0.035355X-0.035355X-0.226274X0*%
%ADD21RoundRect,0.140000X0.021213X-0.219203X0.219203X-0.021213X-0.021213X0.219203X-0.219203X0.021213X0*%
%ADD22RoundRect,0.070000X-0.355000X0.070000X-0.355000X-0.070000X0.355000X-0.070000X0.355000X0.070000X0*%
%ADD23RoundRect,0.070000X-0.305000X0.070000X-0.305000X-0.070000X0.305000X-0.070000X0.305000X0.070000X0*%
%ADD24C,2.000000*%
%ADD25RoundRect,0.140000X-0.140000X-0.170000X0.140000X-0.170000X0.140000X0.170000X-0.140000X0.170000X0*%
%ADD26RoundRect,0.087500X0.097227X0.220971X-0.220971X-0.097227X-0.097227X-0.220971X0.220971X0.097227X0*%
%ADD27RoundRect,0.087500X-0.097227X0.220971X-0.220971X0.097227X0.097227X-0.220971X0.220971X-0.097227X0*%
%ADD28RoundRect,0.147500X-0.158988X0.161973X-0.184699X-0.131904X0.158988X-0.161973X0.184699X0.131904X0*%
%ADD29RoundRect,0.087500X0.425000X0.087500X-0.425000X0.087500X-0.425000X-0.087500X0.425000X-0.087500X0*%
%ADD30RotRect,0.500000X0.500000X315.000000*%
%ADD31RoundRect,0.070000X0.355000X-0.070000X0.355000X0.070000X-0.355000X0.070000X-0.355000X-0.070000X0*%
%ADD32RoundRect,0.070000X0.305000X-0.070000X0.305000X0.070000X-0.305000X0.070000X-0.305000X-0.070000X0*%
%ADD33RotRect,2.500000X2.000000X59.984259*%
%ADD34R,2.000000X2.500000*%
%ADD35RotRect,0.500000X0.500000X135.000000*%
%ADD36RoundRect,0.140000X0.140000X0.170000X-0.140000X0.170000X-0.140000X-0.170000X0.140000X-0.170000X0*%
%ADD37C,0.700000*%
%ADD38RotRect,0.900000X1.100000X222.575681*%
%ADD39FreePoly0,222.575681*%
%ADD40FreePoly1,222.575681*%
%ADD41RoundRect,0.087500X-0.425000X-0.087500X0.425000X-0.087500X0.425000X0.087500X-0.425000X0.087500X0*%
%ADD42C,0.800000*%
%ADD43RoundRect,0.225000X0.250000X-0.225000X0.250000X0.225000X-0.250000X0.225000X-0.250000X-0.225000X0*%
%ADD44RoundRect,0.140000X0.219203X0.021213X0.021213X0.219203X-0.219203X-0.021213X-0.021213X-0.219203X0*%
%ADD45RoundRect,0.135000X-0.035355X0.226274X-0.226274X0.035355X0.035355X-0.226274X0.226274X-0.035355X0*%
%ADD46RotRect,2.500000X2.000000X239.984259*%
%ADD47RoundRect,0.140000X-0.219203X-0.021213X-0.021213X-0.219203X0.219203X0.021213X0.021213X0.219203X0*%
%ADD48RoundRect,0.225000X-0.225000X-0.250000X0.225000X-0.250000X0.225000X0.250000X-0.225000X0.250000X0*%
%ADD49RoundRect,0.250000X0.000000X-0.424264X0.424264X0.000000X0.000000X0.424264X-0.424264X0.000000X0*%
%ADD50RotRect,0.900000X1.100000X42.575681*%
%ADD51FreePoly0,42.575681*%
%ADD52FreePoly1,42.575681*%
%ADD53RoundRect,0.125000X0.000000X-0.176777X0.176777X0.000000X0.000000X0.176777X-0.176777X0.000000X0*%
%ADD54RoundRect,0.135000X0.035355X-0.226274X0.226274X-0.035355X-0.035355X0.226274X-0.226274X0.035355X0*%
%ADD55RoundRect,0.135000X-0.226274X-0.035355X-0.035355X-0.226274X0.226274X0.035355X0.035355X0.226274X0*%
%ADD56RoundRect,0.250000X0.000000X0.424264X-0.424264X0.000000X0.000000X-0.424264X0.424264X0.000000X0*%
%ADD57RoundRect,0.135000X0.135000X0.185000X-0.135000X0.185000X-0.135000X-0.185000X0.135000X-0.185000X0*%
%ADD58RoundRect,0.125000X0.125000X-0.125000X0.125000X0.125000X-0.125000X0.125000X-0.125000X-0.125000X0*%
%ADD59RoundRect,0.225000X0.225000X0.250000X-0.225000X0.250000X-0.225000X-0.250000X0.225000X-0.250000X0*%
%ADD60RoundRect,0.125000X0.000000X0.176777X-0.176777X0.000000X0.000000X-0.176777X0.176777X0.000000X0*%
%ADD61RoundRect,0.150000X0.512500X0.150000X-0.512500X0.150000X-0.512500X-0.150000X0.512500X-0.150000X0*%
%ADD62RoundRect,0.225000X-0.250000X0.225000X-0.250000X-0.225000X0.250000X-0.225000X0.250000X0.225000X0*%
%ADD63RoundRect,0.150000X-0.512500X-0.150000X0.512500X-0.150000X0.512500X0.150000X-0.512500X0.150000X0*%
G04 APERTURE END LIST*
D10*
%TO.C,KiKit_MB_11_3*%
X146434654Y-91355809D03*
%TD*%
%TO.C,KiKit_MB_18_3*%
X186000000Y-66779616D03*
%TD*%
%TO.C,KiKit_MB_11_1*%
X146685295Y-89758893D03*
%TD*%
D11*
%TO.C,U2_0*%
X127306013Y-59222335D03*
X127659567Y-59575888D03*
X128013120Y-59929441D03*
X128366673Y-60282995D03*
D12*
X128950037Y-59929441D03*
X129303590Y-59575888D03*
X129657143Y-59222335D03*
D11*
X130010697Y-58638971D03*
X129657143Y-58285418D03*
X129303590Y-57931865D03*
X128950037Y-57578311D03*
D12*
X128366673Y-57931865D03*
X128013120Y-58285418D03*
X127659567Y-58638971D03*
%TD*%
D13*
%TO.C,H4_1*%
X179462000Y-32910616D03*
%TD*%
D10*
%TO.C,KiKit_MB_21_4*%
X186000000Y-22071429D03*
%TD*%
%TO.C,KiKit_MB_2_5*%
X126578243Y-62410336D03*
%TD*%
%TO.C,KiKit_MB_14_2*%
X167973490Y-69980327D03*
%TD*%
%TO.C,KiKit_MB_27_4*%
X191071428Y-104559232D03*
%TD*%
%TO.C,KiKit_MB_18_2*%
X186000000Y-65779616D03*
%TD*%
D14*
%TO.C,R1_3*%
X152936300Y-89144140D03*
X152936300Y-88124140D03*
%TD*%
D15*
%TO.C,D4_2*%
X111874752Y-86814321D03*
X111959296Y-85848013D03*
%TD*%
D16*
%TO.C,R2_2*%
X113178219Y-86039821D03*
X114198219Y-86039821D03*
%TD*%
D10*
%TO.C,KiKit_MB_25_4*%
X105071429Y-104559232D03*
%TD*%
%TO.C,KiKit_MB_23_4*%
X186000000Y-109630660D03*
%TD*%
%TO.C,KiKit_MB_5_5*%
X185578001Y-41999078D03*
%TD*%
%TO.C,KiKit_MB_9_1*%
X112212628Y-93691642D03*
%TD*%
%TO.C,KiKit_MB_9_6*%
X111314705Y-89758893D03*
%TD*%
%TO.C,KiKit_MB_10_2*%
X128973491Y-69980327D03*
%TD*%
D17*
%TO.C,D2_0*%
X138000000Y-42379616D03*
X138000000Y-44579616D03*
%TD*%
D10*
%TO.C,KiKit_MB_27_5*%
X191928571Y-104559232D03*
%TD*%
D18*
%TO.C,C7_2*%
X126881806Y-74654210D03*
X126202984Y-75333032D03*
%TD*%
D10*
%TO.C,KiKit_MB_21_5*%
X186000000Y-22928572D03*
%TD*%
%TO.C,KiKit_MB_13_6*%
X150314704Y-89758893D03*
%TD*%
D19*
%TO.C,R1_1*%
X183063700Y-43415092D03*
X183063700Y-44435092D03*
%TD*%
D20*
%TO.C,R10_1*%
X174424324Y-52785716D03*
X173703076Y-52064468D03*
%TD*%
D10*
%TO.C,KiKit_MB_3_4*%
X111744462Y-40414984D03*
%TD*%
D13*
%TO.C,H2_2*%
X113109235Y-83385695D03*
%TD*%
D21*
%TO.C,C4_2*%
X132846889Y-71919027D03*
X133525711Y-71240205D03*
%TD*%
D10*
%TO.C,KiKit_MB_23_6*%
X186000000Y-111344946D03*
%TD*%
D22*
%TO.C,U4_0*%
X141875000Y-35779616D03*
D23*
X141825000Y-36279616D03*
X141825000Y-36779616D03*
X142975000Y-36779616D03*
X142975000Y-36279616D03*
X142975000Y-35779616D03*
%TD*%
D10*
%TO.C,KiKit_MB_25_5*%
X105928572Y-104559232D03*
%TD*%
%TO.C,KiKit_MB_20_2*%
X111000000Y-20357143D03*
%TD*%
%TO.C,KiKit_MB_16_6*%
X157684572Y-102309766D03*
%TD*%
D18*
%TO.C,C9_3*%
X165939411Y-79640205D03*
X165260589Y-80319027D03*
%TD*%
D24*
%TO.C,KiKit_FID_T_3*%
X108000000Y-108709232D03*
%TD*%
D25*
%TO.C,C8_3*%
X153920000Y-94679616D03*
X154880000Y-94679616D03*
%TD*%
D10*
%TO.C,KiKit_MB_24_4*%
X105071429Y-28000000D03*
%TD*%
%TO.C,KiKit_MB_3_2*%
X111421999Y-41999078D03*
%TD*%
%TO.C,KiKit_MB_13_2*%
X150960118Y-92923535D03*
%TD*%
%TO.C,KiKit_MB_22_6*%
X111000000Y-111344946D03*
%TD*%
D26*
%TO.C,U2_3*%
X169693987Y-73336897D03*
X169340433Y-72983344D03*
X168986880Y-72629791D03*
X168633327Y-72276237D03*
D27*
X168049963Y-72629791D03*
X167696410Y-72983344D03*
X167342857Y-73336897D03*
D26*
X166989303Y-73920261D03*
X167342857Y-74273814D03*
X167696410Y-74627367D03*
X168049963Y-74980921D03*
D27*
X168633327Y-74627367D03*
X168986880Y-74273814D03*
X169340433Y-73920261D03*
%TD*%
D10*
%TO.C,KiKit_MB_5_4*%
X185434654Y-41203423D03*
%TD*%
D28*
%TO.C,D4_1*%
X185125248Y-45744911D03*
X185040704Y-46711219D03*
%TD*%
D10*
%TO.C,KiKit_MB_23_7*%
X186000000Y-112202089D03*
%TD*%
%TO.C,KiKit_MB_10_3*%
X129791922Y-69999117D03*
%TD*%
%TO.C,KiKit_MB_25_2*%
X103357143Y-104559232D03*
%TD*%
D29*
%TO.C,Q1_1*%
X181401200Y-47629616D03*
X181401200Y-46979616D03*
X181401200Y-46329616D03*
X179726200Y-46329616D03*
X179726200Y-46979616D03*
X179726200Y-47629616D03*
%TD*%
D13*
%TO.C,H4_2*%
X117538000Y-99648616D03*
%TD*%
D30*
%TO.C,U1_1*%
X155095276Y-53653832D03*
X156120581Y-53406344D03*
X155873093Y-54431649D03*
X156898398Y-54184162D03*
X156650911Y-55209466D03*
X157676216Y-54961979D03*
X157428728Y-55987284D03*
X158454033Y-55739797D03*
X158206546Y-56765101D03*
X159231851Y-56517614D03*
X158984363Y-57542919D03*
X160009668Y-57295431D03*
X159762181Y-58320736D03*
X160787485Y-58073249D03*
X160539998Y-59098554D03*
X161317816Y-59876371D03*
X162095633Y-59098554D03*
X161848146Y-58073249D03*
X162873450Y-58320736D03*
X162625963Y-57295431D03*
X163651268Y-57542919D03*
X163403781Y-56517614D03*
X164429085Y-56765101D03*
X164181598Y-55739797D03*
X165206903Y-55987284D03*
X164959415Y-54961979D03*
X165984720Y-55209466D03*
X165737233Y-54184162D03*
X166762538Y-54431649D03*
X167540355Y-53653832D03*
X166762538Y-52876014D03*
X165737233Y-53123501D03*
X165984720Y-52098197D03*
X164959415Y-52345684D03*
X165206903Y-51320379D03*
X164181598Y-51567867D03*
X164429085Y-50542562D03*
X163403781Y-50790049D03*
X163651268Y-49764744D03*
X162625963Y-50012232D03*
X162873450Y-48986927D03*
X161848146Y-49234414D03*
X162095633Y-48209109D03*
X161070328Y-48456597D03*
X161317816Y-47431292D03*
X159373272Y-49375835D03*
X157039819Y-51709288D03*
X157145886Y-53158857D03*
X157923703Y-53936674D03*
X158701520Y-54714492D03*
X159479338Y-55492309D03*
X160257155Y-56270127D03*
X162378476Y-56270127D03*
X163156293Y-55492309D03*
X163934111Y-54714492D03*
X163934111Y-52593171D03*
X163156293Y-51815354D03*
X162378476Y-51037536D03*
X161600658Y-50259719D03*
X160822841Y-49481902D03*
X162343120Y-60123859D03*
X163120938Y-59346041D03*
X163898755Y-58568224D03*
X164676573Y-57790406D03*
X165454390Y-57012589D03*
X166232208Y-56234771D03*
X167010025Y-55456954D03*
X167787843Y-54679136D03*
%TD*%
D10*
%TO.C,KiKit_MB_24_6*%
X106785715Y-28000000D03*
%TD*%
%TO.C,KiKit_MB_12_2*%
X121736943Y-104024560D03*
%TD*%
%TO.C,KiKit_MB_16_3*%
X159946148Y-103647383D03*
%TD*%
D31*
%TO.C,U4_3*%
X155125000Y-96779616D03*
D32*
X155175000Y-96279616D03*
X155175000Y-95779616D03*
X154025000Y-95779616D03*
X154025000Y-96279616D03*
X154025000Y-96779616D03*
%TD*%
D21*
%TO.C,C7_0*%
X131118194Y-57905022D03*
X131797016Y-57226200D03*
%TD*%
D10*
%TO.C,KiKit_MB_6_3*%
X167208077Y-62560114D03*
%TD*%
%TO.C,KiKit_MB_17_2*%
X148500000Y-66779616D03*
%TD*%
D33*
%TO.C,BT1_0*%
X136200000Y-37229616D03*
D34*
X137200000Y-31579617D03*
%TD*%
D10*
%TO.C,KiKit_MB_4_6*%
X139315427Y-30249466D03*
%TD*%
%TO.C,KiKit_MB_4_2*%
X136263057Y-28534672D03*
%TD*%
%TO.C,KiKit_MB_20_5*%
X111000000Y-22928572D03*
%TD*%
%TO.C,KiKit_MB_15_6*%
X184787372Y-93691642D03*
%TD*%
D35*
%TO.C,U1_3*%
X180904724Y-78905400D03*
X179879419Y-79152888D03*
X180126907Y-78127583D03*
X179101602Y-78375070D03*
X179349089Y-77349766D03*
X178323784Y-77597253D03*
X178571272Y-76571948D03*
X177545967Y-76819435D03*
X177793454Y-75794131D03*
X176768149Y-76041618D03*
X177015637Y-75016313D03*
X175990332Y-75263801D03*
X176237819Y-74238496D03*
X175212515Y-74485983D03*
X175460002Y-73460678D03*
X174682184Y-72682861D03*
X173904367Y-73460678D03*
X174151854Y-74485983D03*
X173126550Y-74238496D03*
X173374037Y-75263801D03*
X172348732Y-75016313D03*
X172596219Y-76041618D03*
X171570915Y-75794131D03*
X171818402Y-76819435D03*
X170793097Y-76571948D03*
X171040585Y-77597253D03*
X170015280Y-77349766D03*
X170262767Y-78375070D03*
X169237462Y-78127583D03*
X168459645Y-78905400D03*
X169237462Y-79683218D03*
X170262767Y-79435731D03*
X170015280Y-80461035D03*
X171040585Y-80213548D03*
X170793097Y-81238853D03*
X171818402Y-80991365D03*
X171570915Y-82016670D03*
X172596219Y-81769183D03*
X172348732Y-82794488D03*
X173374037Y-82547000D03*
X173126550Y-83572305D03*
X174151854Y-83324818D03*
X173904367Y-84350123D03*
X174929672Y-84102635D03*
X174682184Y-85127940D03*
X176626728Y-83183397D03*
X178960181Y-80849944D03*
X178854114Y-79400375D03*
X178076297Y-78622558D03*
X177298480Y-77844740D03*
X176520662Y-77066923D03*
X175742845Y-76289105D03*
X173621524Y-76289105D03*
X172843707Y-77066923D03*
X172065889Y-77844740D03*
X172065889Y-79966061D03*
X172843707Y-80743878D03*
X173621524Y-81521696D03*
X174399342Y-82299513D03*
X175177159Y-83077330D03*
X173656880Y-72435373D03*
X172879062Y-73213191D03*
X172101245Y-73991008D03*
X171323427Y-74768826D03*
X170545610Y-75546643D03*
X169767792Y-76324461D03*
X168989975Y-77102278D03*
X168212157Y-77880096D03*
%TD*%
D24*
%TO.C,KiKit_TO_1*%
X105500000Y-22500000D03*
%TD*%
D21*
%TO.C,C7_1*%
X170118194Y-57905022D03*
X170797016Y-57226200D03*
%TD*%
D35*
%TO.C,U1_2*%
X141904724Y-78905400D03*
X140879419Y-79152888D03*
X141126907Y-78127583D03*
X140101602Y-78375070D03*
X140349089Y-77349766D03*
X139323784Y-77597253D03*
X139571272Y-76571948D03*
X138545967Y-76819435D03*
X138793454Y-75794131D03*
X137768149Y-76041618D03*
X138015637Y-75016313D03*
X136990332Y-75263801D03*
X137237819Y-74238496D03*
X136212515Y-74485983D03*
X136460002Y-73460678D03*
X135682184Y-72682861D03*
X134904367Y-73460678D03*
X135151854Y-74485983D03*
X134126550Y-74238496D03*
X134374037Y-75263801D03*
X133348732Y-75016313D03*
X133596219Y-76041618D03*
X132570915Y-75794131D03*
X132818402Y-76819435D03*
X131793097Y-76571948D03*
X132040585Y-77597253D03*
X131015280Y-77349766D03*
X131262767Y-78375070D03*
X130237462Y-78127583D03*
X129459645Y-78905400D03*
X130237462Y-79683218D03*
X131262767Y-79435731D03*
X131015280Y-80461035D03*
X132040585Y-80213548D03*
X131793097Y-81238853D03*
X132818402Y-80991365D03*
X132570915Y-82016670D03*
X133596219Y-81769183D03*
X133348732Y-82794488D03*
X134374037Y-82547000D03*
X134126550Y-83572305D03*
X135151854Y-83324818D03*
X134904367Y-84350123D03*
X135929672Y-84102635D03*
X135682184Y-85127940D03*
X137626728Y-83183397D03*
X139960181Y-80849944D03*
X139854114Y-79400375D03*
X139076297Y-78622558D03*
X138298480Y-77844740D03*
X137520662Y-77066923D03*
X136742845Y-76289105D03*
X134621524Y-76289105D03*
X133843707Y-77066923D03*
X133065889Y-77844740D03*
X133065889Y-79966061D03*
X133843707Y-80743878D03*
X134621524Y-81521696D03*
X135399342Y-82299513D03*
X136177159Y-83077330D03*
X134656880Y-72435373D03*
X133879062Y-73213191D03*
X133101245Y-73991008D03*
X132323427Y-74768826D03*
X131545610Y-75546643D03*
X130767792Y-76324461D03*
X129989975Y-77102278D03*
X129212157Y-77880096D03*
%TD*%
D24*
%TO.C,KiKit_FID_T_2*%
X189000000Y-23850000D03*
%TD*%
%TO.C,KiKit_TO_3*%
X105500000Y-110059232D03*
%TD*%
D10*
%TO.C,KiKit_MB_8_5*%
X177575000Y-29780596D03*
%TD*%
%TO.C,KiKit_MB_20_7*%
X111000000Y-24642858D03*
%TD*%
D36*
%TO.C,C8_1*%
X182080000Y-37879616D03*
X181120000Y-37879616D03*
%TD*%
D26*
%TO.C,U2_2*%
X130693987Y-73336897D03*
X130340433Y-72983344D03*
X129986880Y-72629791D03*
X129633327Y-72276237D03*
D27*
X129049963Y-72629791D03*
X128696410Y-72983344D03*
X128342857Y-73336897D03*
D26*
X127989303Y-73920261D03*
X128342857Y-74273814D03*
X128696410Y-74627367D03*
X129049963Y-74980921D03*
D27*
X129633327Y-74627367D03*
X129986880Y-74273814D03*
X130340433Y-73920261D03*
%TD*%
D37*
%TO.C,J1_3*%
X161272116Y-72837473D03*
X153679993Y-79812842D03*
D38*
X160377193Y-78595976D03*
X158609871Y-80219728D03*
X157726210Y-81031605D03*
X159493532Y-79407852D03*
X161260854Y-77784100D03*
X162144516Y-76972224D03*
D39*
X161950419Y-72404390D03*
D40*
X153191128Y-80452112D03*
%TD*%
D41*
%TO.C,Q2_3*%
X156562500Y-95629616D03*
X156562500Y-96279616D03*
X156562500Y-96929616D03*
X158237500Y-96929616D03*
X158237500Y-96279616D03*
X158237500Y-95629616D03*
%TD*%
D42*
%TO.C,JP2_1*%
X155806592Y-56701167D03*
X156655120Y-57549695D03*
%TD*%
D10*
%TO.C,KiKit_MB_21_2*%
X186000000Y-20357143D03*
%TD*%
D43*
%TO.C,C1_3*%
X160936300Y-90909140D03*
X160936300Y-89359140D03*
%TD*%
D10*
%TO.C,KiKit_MB_17_3*%
X148500000Y-65779616D03*
%TD*%
%TO.C,KiKit_MB_10_5*%
X131421757Y-70148895D03*
%TD*%
%TO.C,KiKit_MB_15_1*%
X185685295Y-89758893D03*
%TD*%
%TO.C,KiKit_MB_9_4*%
X111565346Y-91355809D03*
%TD*%
%TO.C,KiKit_MB_22_7*%
X111000000Y-112202089D03*
%TD*%
%TO.C,KiKit_MB_8_3*%
X176053851Y-28911849D03*
%TD*%
D44*
%TO.C,C6_3*%
X167381806Y-76083032D03*
X166702984Y-75404210D03*
%TD*%
D29*
%TO.C,Q1_0*%
X142401200Y-47629616D03*
X142401200Y-46979616D03*
X142401200Y-46329616D03*
X140726200Y-46329616D03*
X140726200Y-46979616D03*
X140726200Y-47629616D03*
%TD*%
D45*
%TO.C,R4_3*%
X167760624Y-80518992D03*
X167039376Y-81240240D03*
%TD*%
D22*
%TO.C,U4_1*%
X180875000Y-35779616D03*
D23*
X180825000Y-36279616D03*
X180825000Y-36779616D03*
X181975000Y-36779616D03*
X181975000Y-36279616D03*
X181975000Y-35779616D03*
%TD*%
D42*
%TO.C,JP2_3*%
X180193408Y-75858065D03*
X179344880Y-75009537D03*
%TD*%
D13*
%TO.C,H1_1*%
X171037214Y-60996463D03*
%TD*%
D41*
%TO.C,Q2_2*%
X117562500Y-95629616D03*
X117562500Y-96279616D03*
X117562500Y-96929616D03*
X119237500Y-96929616D03*
X119237500Y-96279616D03*
X119237500Y-95629616D03*
%TD*%
D10*
%TO.C,KiKit_MB_12_3*%
X120946149Y-103647383D03*
%TD*%
D19*
%TO.C,R1_0*%
X144063700Y-43415092D03*
X144063700Y-44435092D03*
%TD*%
D10*
%TO.C,KiKit_MB_11_6*%
X145787372Y-93691642D03*
%TD*%
%TO.C,KiKit_MB_20_3*%
X111000000Y-21214286D03*
%TD*%
D18*
%TO.C,C4_1*%
X164153111Y-60640205D03*
X163474289Y-61319027D03*
%TD*%
D10*
%TO.C,KiKit_MB_12_4*%
X120174879Y-103231738D03*
%TD*%
%TO.C,KiKit_MB_23_2*%
X186000000Y-107916374D03*
%TD*%
D46*
%TO.C,BT1_2*%
X121800000Y-95329616D03*
D34*
X120800000Y-100979615D03*
%TD*%
D10*
%TO.C,KiKit_MB_11_5*%
X146039881Y-92923535D03*
%TD*%
%TO.C,KiKit_MB_26_5*%
X191928571Y-28000000D03*
%TD*%
D47*
%TO.C,C3_0*%
X130368194Y-55726200D03*
X131047016Y-56405022D03*
%TD*%
D29*
%TO.C,Q2_1*%
X179437500Y-36929616D03*
X179437500Y-36279616D03*
X179437500Y-35629616D03*
X177762500Y-35629616D03*
X177762500Y-36279616D03*
X177762500Y-36929616D03*
%TD*%
D10*
%TO.C,KiKit_MB_5_6*%
X185685295Y-42800339D03*
%TD*%
%TO.C,KiKit_MB_24_5*%
X105928572Y-28000000D03*
%TD*%
%TO.C,KiKit_MB_5_1*%
X184787372Y-38867590D03*
%TD*%
D45*
%TO.C,R9_0*%
X132660624Y-53064468D03*
X131939376Y-53785716D03*
%TD*%
D10*
%TO.C,KiKit_MB_1_1*%
X145787372Y-38867590D03*
%TD*%
%TO.C,KiKit_MB_15_3*%
X185434654Y-91355809D03*
%TD*%
%TO.C,KiKit_MB_3_6*%
X112212628Y-38867590D03*
%TD*%
D48*
%TO.C,C2_3*%
X153825000Y-92134140D03*
X155375000Y-92134140D03*
%TD*%
D10*
%TO.C,KiKit_MB_26_4*%
X191071428Y-28000000D03*
%TD*%
%TO.C,KiKit_MB_5_2*%
X185039881Y-39635697D03*
%TD*%
%TO.C,KiKit_MB_25_6*%
X106785715Y-104559232D03*
%TD*%
D49*
%TO.C,D3_2*%
X122600051Y-83529565D03*
X124579949Y-81549667D03*
%TD*%
D31*
%TO.C,U4_2*%
X116125000Y-96779616D03*
D32*
X116175000Y-96279616D03*
X116175000Y-95779616D03*
X115025000Y-95779616D03*
X115025000Y-96279616D03*
X115025000Y-96779616D03*
%TD*%
D10*
%TO.C,KiKit_MB_16_2*%
X160736942Y-104024560D03*
%TD*%
D37*
%TO.C,J1_1*%
X174727884Y-59721759D03*
X182320007Y-52746390D03*
D50*
X175622807Y-53963256D03*
X177390129Y-52339504D03*
X178273790Y-51527627D03*
X176506468Y-53151380D03*
X174739146Y-54775132D03*
X173855484Y-55587008D03*
D51*
X174049581Y-60154842D03*
D52*
X182808872Y-52107120D03*
%TD*%
D13*
%TO.C,H2_3*%
X152109235Y-83385695D03*
%TD*%
D10*
%TO.C,KiKit_MB_5_3*%
X185255538Y-40414984D03*
%TD*%
D19*
%TO.C,R8_0*%
X144200000Y-36869616D03*
X144200000Y-37889616D03*
%TD*%
D10*
%TO.C,KiKit_MB_15_5*%
X185039881Y-92923535D03*
%TD*%
D53*
%TO.C,D1_3*%
X159408483Y-86457433D03*
X160964117Y-84901799D03*
%TD*%
D46*
%TO.C,BT1_3*%
X160800000Y-95329616D03*
D34*
X159800000Y-100979615D03*
%TD*%
D10*
%TO.C,KiKit_MB_13_4*%
X150565345Y-91355809D03*
%TD*%
D20*
%TO.C,R11_0*%
X136174324Y-52035716D03*
X135453076Y-51314468D03*
%TD*%
D21*
%TO.C,C9_0*%
X131060589Y-52919027D03*
X131739411Y-52240205D03*
%TD*%
D14*
%TO.C,R3_0*%
X139300000Y-46935092D03*
X139300000Y-45915092D03*
%TD*%
D54*
%TO.C,R4_0*%
X129239376Y-52040240D03*
X129960624Y-51318992D03*
%TD*%
D10*
%TO.C,KiKit_MB_21_3*%
X186000000Y-21214286D03*
%TD*%
%TO.C,KiKit_MB_14_3*%
X168791922Y-69999117D03*
%TD*%
%TO.C,KiKit_MB_13_3*%
X150744461Y-92144248D03*
%TD*%
D55*
%TO.C,R10_3*%
X161575676Y-79773516D03*
X162296924Y-80494764D03*
%TD*%
D13*
%TO.C,H1_3*%
X164962786Y-71562769D03*
%TD*%
D10*
%TO.C,KiKit_MB_20_6*%
X111000000Y-23785715D03*
%TD*%
D13*
%TO.C,H4_3*%
X156538000Y-99648616D03*
%TD*%
D10*
%TO.C,KiKit_MB_15_2*%
X185578001Y-90560154D03*
%TD*%
D41*
%TO.C,Q1_3*%
X154598800Y-84929616D03*
X154598800Y-85579616D03*
X154598800Y-86229616D03*
X156273800Y-86229616D03*
X156273800Y-85579616D03*
X156273800Y-84929616D03*
%TD*%
D10*
%TO.C,KiKit_MB_2_2*%
X129026509Y-62578904D03*
%TD*%
D56*
%TO.C,D3_1*%
X174399949Y-49029667D03*
X172420051Y-51009565D03*
%TD*%
D10*
%TO.C,KiKit_MB_19_2*%
X111000000Y-65779616D03*
%TD*%
D57*
%TO.C,R2_0*%
X144821781Y-46519411D03*
X143801781Y-46519411D03*
%TD*%
D42*
%TO.C,JP2_0*%
X116806592Y-56701167D03*
X117655120Y-57549695D03*
%TD*%
D58*
%TO.C,D2_2*%
X120000000Y-90179616D03*
X120000000Y-87979616D03*
%TD*%
D14*
%TO.C,R3_1*%
X178300000Y-46935092D03*
X178300000Y-45915092D03*
%TD*%
D59*
%TO.C,C2_0*%
X143175000Y-40425092D03*
X141625000Y-40425092D03*
%TD*%
D10*
%TO.C,KiKit_MB_4_3*%
X137053851Y-28911849D03*
%TD*%
D47*
%TO.C,C3_1*%
X169368194Y-55726200D03*
X170047016Y-56405022D03*
%TD*%
D10*
%TO.C,KiKit_MB_23_3*%
X186000000Y-108773517D03*
%TD*%
%TO.C,KiKit_MB_23_5*%
X186000000Y-110487803D03*
%TD*%
D13*
%TO.C,H2_0*%
X144890765Y-49173537D03*
%TD*%
D24*
%TO.C,KiKit_FID_T_1*%
X108000000Y-23850000D03*
%TD*%
D10*
%TO.C,KiKit_MB_12_6*%
X118684573Y-102309766D03*
%TD*%
%TO.C,KiKit_MB_3_5*%
X111960119Y-39635697D03*
%TD*%
%TO.C,KiKit_MB_6_5*%
X165578242Y-62410336D03*
%TD*%
%TO.C,KiKit_MB_6_1*%
X168844941Y-62558813D03*
%TD*%
D20*
%TO.C,R10_0*%
X135424324Y-52785716D03*
X134703076Y-52064468D03*
%TD*%
D10*
%TO.C,KiKit_MB_4_5*%
X138575000Y-29780596D03*
%TD*%
D13*
%TO.C,H1_0*%
X132037214Y-60996463D03*
%TD*%
D10*
%TO.C,KiKit_MB_15_4*%
X185255538Y-92144248D03*
%TD*%
D59*
%TO.C,C2_1*%
X182175000Y-40425092D03*
X180625000Y-40425092D03*
%TD*%
D49*
%TO.C,D3_3*%
X161600051Y-83529565D03*
X163579949Y-81549667D03*
%TD*%
D13*
%TO.C,H3_2*%
X138464000Y-101295616D03*
%TD*%
D19*
%TO.C,R7_0*%
X144400000Y-38969616D03*
X144400000Y-39989616D03*
%TD*%
D10*
%TO.C,KiKit_MB_27_3*%
X190214285Y-104559232D03*
%TD*%
D55*
%TO.C,R11_2*%
X121825676Y-80523516D03*
X122546924Y-81244764D03*
%TD*%
D10*
%TO.C,KiKit_MB_8_4*%
X176825121Y-29327494D03*
%TD*%
D56*
%TO.C,D3_0*%
X135399949Y-49029667D03*
X133420051Y-51009565D03*
%TD*%
D54*
%TO.C,R4_1*%
X168239376Y-52040240D03*
X168960624Y-51318992D03*
%TD*%
D10*
%TO.C,KiKit_MB_3_3*%
X111565346Y-41203423D03*
%TD*%
D18*
%TO.C,C4_0*%
X125153111Y-60640205D03*
X124474289Y-61319027D03*
%TD*%
D10*
%TO.C,KiKit_MB_27_6*%
X192785714Y-104559232D03*
%TD*%
%TO.C,KiKit_MB_14_4*%
X169608579Y-70055347D03*
%TD*%
%TO.C,KiKit_MB_2_4*%
X127391421Y-62503884D03*
%TD*%
D43*
%TO.C,C1_2*%
X121936300Y-90909140D03*
X121936300Y-89359140D03*
%TD*%
D33*
%TO.C,BT1_1*%
X175200000Y-37229616D03*
D34*
X176200000Y-31579617D03*
%TD*%
D10*
%TO.C,KiKit_MB_9_5*%
X111421999Y-90560154D03*
%TD*%
D60*
%TO.C,D1_1*%
X176591517Y-46101799D03*
X175035883Y-47657433D03*
%TD*%
%TO.C,D1_0*%
X137591517Y-46101799D03*
X136035883Y-47657433D03*
%TD*%
D10*
%TO.C,KiKit_MB_27_7*%
X193642857Y-104559232D03*
%TD*%
D61*
%TO.C,U3_0*%
X142537500Y-44229616D03*
X142537500Y-43279616D03*
X142537500Y-42329616D03*
X140262500Y-42329616D03*
X140262500Y-44229616D03*
%TD*%
D47*
%TO.C,C6_0*%
X129618194Y-56476200D03*
X130297016Y-57155022D03*
%TD*%
D10*
%TO.C,KiKit_MB_8_2*%
X175263057Y-28534672D03*
%TD*%
D41*
%TO.C,Q1_2*%
X115598800Y-84929616D03*
X115598800Y-85579616D03*
X115598800Y-86229616D03*
X117273800Y-86229616D03*
X117273800Y-85579616D03*
X117273800Y-84929616D03*
%TD*%
D42*
%TO.C,JP2_2*%
X141193408Y-75858065D03*
X140344880Y-75009537D03*
%TD*%
D54*
%TO.C,R9_2*%
X125339376Y-79494764D03*
X126060624Y-78773516D03*
%TD*%
D10*
%TO.C,KiKit_MB_26_2*%
X189357142Y-28000000D03*
%TD*%
%TO.C,KiKit_MB_13_5*%
X150421998Y-90560154D03*
%TD*%
D45*
%TO.C,R9_1*%
X171660624Y-53064468D03*
X170939376Y-53785716D03*
%TD*%
D14*
%TO.C,R7_3*%
X152600000Y-93589616D03*
X152600000Y-92569616D03*
%TD*%
D62*
%TO.C,C1_1*%
X175063700Y-41650092D03*
X175063700Y-43200092D03*
%TD*%
D47*
%TO.C,C6_1*%
X168618194Y-56476200D03*
X169297016Y-57155022D03*
%TD*%
D10*
%TO.C,KiKit_MB_13_1*%
X151212627Y-93691642D03*
%TD*%
%TO.C,KiKit_MB_1_3*%
X146255538Y-40414984D03*
%TD*%
D13*
%TO.C,H3_0*%
X119536000Y-31263616D03*
%TD*%
D10*
%TO.C,KiKit_MB_25_7*%
X107642858Y-104559232D03*
%TD*%
D25*
%TO.C,C8_2*%
X114920000Y-94679616D03*
X115880000Y-94679616D03*
%TD*%
D30*
%TO.C,U1_0*%
X116095276Y-53653832D03*
X117120581Y-53406344D03*
X116873093Y-54431649D03*
X117898398Y-54184162D03*
X117650911Y-55209466D03*
X118676216Y-54961979D03*
X118428728Y-55987284D03*
X119454033Y-55739797D03*
X119206546Y-56765101D03*
X120231851Y-56517614D03*
X119984363Y-57542919D03*
X121009668Y-57295431D03*
X120762181Y-58320736D03*
X121787485Y-58073249D03*
X121539998Y-59098554D03*
X122317816Y-59876371D03*
X123095633Y-59098554D03*
X122848146Y-58073249D03*
X123873450Y-58320736D03*
X123625963Y-57295431D03*
X124651268Y-57542919D03*
X124403781Y-56517614D03*
X125429085Y-56765101D03*
X125181598Y-55739797D03*
X126206903Y-55987284D03*
X125959415Y-54961979D03*
X126984720Y-55209466D03*
X126737233Y-54184162D03*
X127762538Y-54431649D03*
X128540355Y-53653832D03*
X127762538Y-52876014D03*
X126737233Y-53123501D03*
X126984720Y-52098197D03*
X125959415Y-52345684D03*
X126206903Y-51320379D03*
X125181598Y-51567867D03*
X125429085Y-50542562D03*
X124403781Y-50790049D03*
X124651268Y-49764744D03*
X123625963Y-50012232D03*
X123873450Y-48986927D03*
X122848146Y-49234414D03*
X123095633Y-48209109D03*
X122070328Y-48456597D03*
X122317816Y-47431292D03*
X120373272Y-49375835D03*
X118039819Y-51709288D03*
X118145886Y-53158857D03*
X118923703Y-53936674D03*
X119701520Y-54714492D03*
X120479338Y-55492309D03*
X121257155Y-56270127D03*
X123378476Y-56270127D03*
X124156293Y-55492309D03*
X124934111Y-54714492D03*
X124934111Y-52593171D03*
X124156293Y-51815354D03*
X123378476Y-51037536D03*
X122600658Y-50259719D03*
X121822841Y-49481902D03*
X123343120Y-60123859D03*
X124120938Y-59346041D03*
X124898755Y-58568224D03*
X125676573Y-57790406D03*
X126454390Y-57012589D03*
X127232208Y-56234771D03*
X128010025Y-55456954D03*
X128787843Y-54679136D03*
%TD*%
D13*
%TO.C,H1_2*%
X125962786Y-71562769D03*
%TD*%
D10*
%TO.C,KiKit_MB_7_6*%
X151212627Y-38867590D03*
%TD*%
D29*
%TO.C,Q2_0*%
X140437500Y-36929616D03*
X140437500Y-36279616D03*
X140437500Y-35629616D03*
X138762500Y-35629616D03*
X138762500Y-36279616D03*
X138762500Y-36929616D03*
%TD*%
D55*
%TO.C,R11_3*%
X160825676Y-80523516D03*
X161546924Y-81244764D03*
%TD*%
D48*
%TO.C,C2_2*%
X114825000Y-92134140D03*
X116375000Y-92134140D03*
%TD*%
D19*
%TO.C,R3_3*%
X157700000Y-85624140D03*
X157700000Y-86644140D03*
%TD*%
D13*
%TO.C,H3_1*%
X158536000Y-31263616D03*
%TD*%
D54*
%TO.C,R9_3*%
X164339376Y-79494764D03*
X165060624Y-78773516D03*
%TD*%
D10*
%TO.C,KiKit_MB_12_5*%
X119425000Y-102778636D03*
%TD*%
D19*
%TO.C,R3_2*%
X118700000Y-85624140D03*
X118700000Y-86644140D03*
%TD*%
D10*
%TO.C,KiKit_MB_1_6*%
X146685295Y-42800339D03*
%TD*%
%TO.C,KiKit_MB_11_2*%
X146578001Y-90560154D03*
%TD*%
%TO.C,KiKit_MB_22_4*%
X111000000Y-109630660D03*
%TD*%
D37*
%TO.C,J1_2*%
X122272116Y-72837473D03*
X114679993Y-79812842D03*
D38*
X121377193Y-78595976D03*
X119609871Y-80219728D03*
X118726210Y-81031605D03*
X120493532Y-79407852D03*
X122260854Y-77784100D03*
X123144516Y-76972224D03*
D39*
X122950419Y-72404390D03*
D40*
X114191128Y-80452112D03*
%TD*%
D10*
%TO.C,KiKit_MB_8_6*%
X178315427Y-30249466D03*
%TD*%
D28*
%TO.C,D4_0*%
X146125248Y-45744911D03*
X146040704Y-46711219D03*
%TD*%
D63*
%TO.C,U3_2*%
X115462500Y-88329616D03*
X115462500Y-89279616D03*
X115462500Y-90229616D03*
X117737500Y-90229616D03*
X117737500Y-88329616D03*
%TD*%
D21*
%TO.C,C4_3*%
X171846889Y-71919027D03*
X172525711Y-71240205D03*
%TD*%
D44*
%TO.C,C3_2*%
X127631806Y-76833032D03*
X126952984Y-76154210D03*
%TD*%
D62*
%TO.C,C1_0*%
X136063700Y-41650092D03*
X136063700Y-43200092D03*
%TD*%
D10*
%TO.C,KiKit_MB_7_3*%
X150565345Y-41203423D03*
%TD*%
%TO.C,KiKit_MB_21_6*%
X186000000Y-23785715D03*
%TD*%
D53*
%TO.C,D1_2*%
X120408483Y-86457433D03*
X121964117Y-84901799D03*
%TD*%
D10*
%TO.C,KiKit_MB_25_3*%
X104214286Y-104559232D03*
%TD*%
D16*
%TO.C,R2_3*%
X152178219Y-86039821D03*
X153198219Y-86039821D03*
%TD*%
D10*
%TO.C,KiKit_MB_6_4*%
X166391420Y-62503884D03*
%TD*%
%TO.C,KiKit_MB_24_3*%
X104214286Y-28000000D03*
%TD*%
%TO.C,KiKit_MB_3_1*%
X111314705Y-42800339D03*
%TD*%
D19*
%TO.C,R8_1*%
X183200000Y-36869616D03*
X183200000Y-37889616D03*
%TD*%
D10*
%TO.C,KiKit_MB_14_1*%
X167155058Y-70000418D03*
%TD*%
%TO.C,KiKit_MB_26_3*%
X190214285Y-28000000D03*
%TD*%
%TO.C,KiKit_MB_22_5*%
X111000000Y-110487803D03*
%TD*%
D36*
%TO.C,C8_0*%
X143080000Y-37879616D03*
X142120000Y-37879616D03*
%TD*%
D14*
%TO.C,R1_2*%
X113936300Y-89144140D03*
X113936300Y-88124140D03*
%TD*%
D10*
%TO.C,KiKit_MB_21_7*%
X186000000Y-24642858D03*
%TD*%
D58*
%TO.C,D2_3*%
X159000000Y-90179616D03*
X159000000Y-87979616D03*
%TD*%
D10*
%TO.C,KiKit_MB_1_4*%
X146434654Y-41203423D03*
%TD*%
%TO.C,KiKit_MB_7_1*%
X150314704Y-42800339D03*
%TD*%
%TO.C,KiKit_MB_27_2*%
X189357142Y-104559232D03*
%TD*%
D45*
%TO.C,R4_2*%
X128760624Y-80518992D03*
X128039376Y-81240240D03*
%TD*%
D55*
%TO.C,R10_2*%
X122575676Y-79773516D03*
X123296924Y-80494764D03*
%TD*%
D14*
%TO.C,R8_2*%
X113800000Y-95689616D03*
X113800000Y-94669616D03*
%TD*%
D10*
%TO.C,KiKit_MB_2_3*%
X128208078Y-62560114D03*
%TD*%
D18*
%TO.C,C7_3*%
X165881806Y-74654210D03*
X165202984Y-75333032D03*
%TD*%
D10*
%TO.C,KiKit_MB_7_2*%
X150421998Y-41999078D03*
%TD*%
%TO.C,KiKit_MB_6_2*%
X168026509Y-62578904D03*
%TD*%
%TO.C,KiKit_MB_11_4*%
X146255538Y-92144248D03*
%TD*%
%TO.C,KiKit_MB_9_2*%
X111960119Y-92923535D03*
%TD*%
D18*
%TO.C,C9_2*%
X126939411Y-79640205D03*
X126260589Y-80319027D03*
%TD*%
D10*
%TO.C,KiKit_MB_7_4*%
X150744461Y-40414984D03*
%TD*%
%TO.C,KiKit_MB_4_4*%
X137825121Y-29327494D03*
%TD*%
%TO.C,KiKit_MB_20_4*%
X111000000Y-22071429D03*
%TD*%
%TO.C,KiKit_MB_19_3*%
X111000000Y-66779616D03*
%TD*%
D44*
%TO.C,C6_2*%
X128381806Y-76083032D03*
X127702984Y-75404210D03*
%TD*%
D10*
%TO.C,KiKit_MB_9_3*%
X111744462Y-92144248D03*
%TD*%
D13*
%TO.C,H3_3*%
X177464000Y-101295616D03*
%TD*%
D14*
%TO.C,R7_2*%
X113600000Y-93589616D03*
X113600000Y-92569616D03*
%TD*%
D11*
%TO.C,U2_1*%
X166306013Y-59222335D03*
X166659567Y-59575888D03*
X167013120Y-59929441D03*
X167366673Y-60282995D03*
D12*
X167950037Y-59929441D03*
X168303590Y-59575888D03*
X168657143Y-59222335D03*
D11*
X169010697Y-58638971D03*
X168657143Y-58285418D03*
X168303590Y-57931865D03*
X167950037Y-57578311D03*
D12*
X167366673Y-57931865D03*
X167013120Y-58285418D03*
X166659567Y-58638971D03*
%TD*%
D10*
%TO.C,KiKit_MB_2_1*%
X129844941Y-62558813D03*
%TD*%
%TO.C,KiKit_MB_10_1*%
X128155059Y-70000418D03*
%TD*%
%TO.C,KiKit_MB_26_7*%
X193642857Y-28000000D03*
%TD*%
%TO.C,KiKit_MB_16_4*%
X159174878Y-103231738D03*
%TD*%
D44*
%TO.C,C3_3*%
X166631806Y-76833032D03*
X165952984Y-76154210D03*
%TD*%
D13*
%TO.C,H4_0*%
X140462000Y-32910616D03*
%TD*%
D10*
%TO.C,KiKit_MB_26_6*%
X192785714Y-28000000D03*
%TD*%
D24*
%TO.C,KiKit_TO_2*%
X191500000Y-22500000D03*
%TD*%
D20*
%TO.C,R11_1*%
X175174324Y-52035716D03*
X174453076Y-51314468D03*
%TD*%
D15*
%TO.C,D4_3*%
X150874752Y-86814321D03*
X150959296Y-85848013D03*
%TD*%
D57*
%TO.C,R2_1*%
X183821781Y-46519411D03*
X182801781Y-46519411D03*
%TD*%
D10*
%TO.C,KiKit_MB_24_7*%
X107642858Y-28000000D03*
%TD*%
D61*
%TO.C,U3_1*%
X181537500Y-44229616D03*
X181537500Y-43279616D03*
X181537500Y-42329616D03*
X179262500Y-42329616D03*
X179262500Y-44229616D03*
%TD*%
D37*
%TO.C,J1_0*%
X135727884Y-59721759D03*
X143320007Y-52746390D03*
D50*
X136622807Y-53963256D03*
X138390129Y-52339504D03*
X139273790Y-51527627D03*
X137506468Y-53151380D03*
X135739146Y-54775132D03*
X134855484Y-55587008D03*
D51*
X135049581Y-60154842D03*
D52*
X143808872Y-52107120D03*
%TD*%
D10*
%TO.C,KiKit_MB_10_4*%
X130608579Y-70055347D03*
%TD*%
%TO.C,KiKit_MB_22_3*%
X111000000Y-108773517D03*
%TD*%
D21*
%TO.C,C9_1*%
X170060589Y-52919027D03*
X170739411Y-52240205D03*
%TD*%
D10*
%TO.C,KiKit_MB_24_2*%
X103357143Y-28000000D03*
%TD*%
D19*
%TO.C,R7_1*%
X183400000Y-38969616D03*
X183400000Y-39989616D03*
%TD*%
D63*
%TO.C,U3_3*%
X154462500Y-88329616D03*
X154462500Y-89279616D03*
X154462500Y-90229616D03*
X156737500Y-90229616D03*
X156737500Y-88329616D03*
%TD*%
D17*
%TO.C,D2_1*%
X177000000Y-42379616D03*
X177000000Y-44579616D03*
%TD*%
D13*
%TO.C,H2_1*%
X183890765Y-49173537D03*
%TD*%
D10*
%TO.C,KiKit_MB_16_5*%
X158424999Y-102778636D03*
%TD*%
%TO.C,KiKit_MB_7_5*%
X150960118Y-39635697D03*
%TD*%
%TO.C,KiKit_MB_22_2*%
X111000000Y-107916374D03*
%TD*%
%TO.C,KiKit_MB_1_5*%
X146578001Y-41999078D03*
%TD*%
%TO.C,KiKit_MB_14_5*%
X170421757Y-70148895D03*
%TD*%
D14*
%TO.C,R8_3*%
X152800000Y-95689616D03*
X152800000Y-94669616D03*
%TD*%
D10*
%TO.C,KiKit_MB_1_2*%
X146039881Y-39635697D03*
%TD*%
M02*
