%TF.GenerationSoftware,KiCad,Pcbnew,10.0.6*%
%TF.CreationDate,2026-09-29T13:49:20+02:00*%
%TF.ProjectId,shotpuck-panel,73686f74-7075-4636-9b2d-70616e656c2e,rev?*%
%TF.SameCoordinates,Original*%
%TF.FileFunction,Soldermask,Top*%
%TF.FilePolarity,Negative*%
%FSLAX46Y46*%
G04 Gerber Fmt 4.6, Leading zero omitted, Abs format (unit mm)*
G04 Created by KiCad (PCBNEW 10.0.6) date 2026-09-29 13:49:20*
%MOMM*%
%LPD*%
G01*
G04 APERTURE LIST*
G04 Aperture macros list*
%AMRoundRect*
0 Rectangle with rounded corners*
0 $1 Rounding radius*
0 $2 $3 $4 $5 $6 $7 $8 $9 X,Y pos of 4 corners*
0 Add a 4 corners polygon primitive as box body*
4,1,4,$2,$3,$4,$5,$6,$7,$8,$9,$2,$3,0*
0 Add four circle primitives for the rounded corners*
1,1,$1+$1,$2,$3*
1,1,$1+$1,$4,$5*
1,1,$1+$1,$6,$7*
1,1,$1+$1,$8,$9*
0 Add four rect primitives between the rounded corners*
20,1,$1+$1,$2,$3,$4,$5,0*
20,1,$1+$1,$4,$5,$6,$7,0*
20,1,$1+$1,$6,$7,$8,$9,0*
20,1,$1+$1,$8,$9,$2,$3,0*%
%AMRotRect*
0 Rectangle, with rotation*
0 The origin of the aperture is its center*
0 $1 length*
0 $2 width*
0 $3 Rotation angle, in degrees counterclockwise*
0 Add horizontal line*
21,1,$1,$2,0,0,$3*%
G04 Aperture macros list end*
%ADD10C,0.500000*%
%ADD11RoundRect,0.135000X0.185000X-0.135000X0.185000X0.135000X-0.185000X0.135000X-0.185000X-0.135000X0*%
%ADD12RoundRect,0.135000X-0.135000X-0.185000X0.135000X-0.185000X0.135000X0.185000X-0.135000X0.185000X0*%
%ADD13RotRect,1.300000X1.300000X255.000000*%
%ADD14C,1.300000*%
%ADD15C,1.152000*%
%ADD16RoundRect,0.125000X0.125000X-0.125000X0.125000X0.125000X-0.125000X0.125000X-0.125000X-0.125000X0*%
%ADD17RoundRect,0.140000X-0.140000X-0.170000X0.140000X-0.170000X0.140000X0.170000X-0.140000X0.170000X0*%
%ADD18RoundRect,0.250000X-0.300000X0.300000X-0.300000X-0.300000X0.300000X-0.300000X0.300000X0.300000X0*%
%ADD19RoundRect,0.140000X0.170000X-0.140000X0.170000X0.140000X-0.170000X0.140000X-0.170000X-0.140000X0*%
%ADD20RoundRect,0.087500X0.425000X0.087500X-0.425000X0.087500X-0.425000X-0.087500X0.425000X-0.087500X0*%
%ADD21RoundRect,0.140000X0.140000X0.170000X-0.140000X0.170000X-0.140000X-0.170000X0.140000X-0.170000X0*%
%ADD22RoundRect,0.125000X-0.125000X-0.125000X0.125000X-0.125000X0.125000X0.125000X-0.125000X0.125000X0*%
%ADD23RoundRect,0.087500X0.087500X-0.225000X0.087500X0.225000X-0.087500X0.225000X-0.087500X-0.225000X0*%
%ADD24RoundRect,0.087500X0.225000X-0.087500X0.225000X0.087500X-0.225000X0.087500X-0.225000X-0.087500X0*%
%ADD25RoundRect,0.225000X0.250000X-0.225000X0.250000X0.225000X-0.250000X0.225000X-0.250000X-0.225000X0*%
%ADD26RoundRect,0.250000X0.300000X-0.300000X0.300000X0.300000X-0.300000X0.300000X-0.300000X-0.300000X0*%
%ADD27RoundRect,0.135000X0.135000X0.185000X-0.135000X0.185000X-0.135000X-0.185000X0.135000X-0.185000X0*%
%ADD28C,2.400000*%
%ADD29RoundRect,0.140000X-0.170000X0.140000X-0.170000X-0.140000X0.170000X-0.140000X0.170000X0.140000X0*%
%ADD30RotRect,1.300000X1.300000X75.000000*%
%ADD31RoundRect,0.125000X-0.125000X0.125000X-0.125000X-0.125000X0.125000X-0.125000X0.125000X0.125000X0*%
%ADD32RoundRect,0.087500X-0.425000X-0.087500X0.425000X-0.087500X0.425000X0.087500X-0.425000X0.087500X0*%
%ADD33RoundRect,0.225000X-0.225000X-0.250000X0.225000X-0.250000X0.225000X0.250000X-0.225000X0.250000X0*%
%ADD34RoundRect,0.135000X-0.185000X0.135000X-0.185000X-0.135000X0.185000X-0.135000X0.185000X0.135000X0*%
%ADD35R,0.500000X0.500000*%
%ADD36RoundRect,0.147500X0.172500X-0.147500X0.172500X0.147500X-0.172500X0.147500X-0.172500X-0.147500X0*%
%ADD37RoundRect,0.225000X0.225000X0.250000X-0.225000X0.250000X-0.225000X-0.250000X0.225000X-0.250000X0*%
%ADD38RoundRect,0.150000X0.512500X0.150000X-0.512500X0.150000X-0.512500X-0.150000X0.512500X-0.150000X0*%
%ADD39RotRect,2.500000X2.000000X239.984259*%
%ADD40RotRect,2.500000X2.000000X279.944731*%
%ADD41RoundRect,0.070000X0.355000X-0.070000X0.355000X0.070000X-0.355000X0.070000X-0.355000X-0.070000X0*%
%ADD42RoundRect,0.070000X0.305000X-0.070000X0.305000X0.070000X-0.305000X0.070000X-0.305000X-0.070000X0*%
%ADD43RoundRect,0.125000X0.125000X0.125000X-0.125000X0.125000X-0.125000X-0.125000X0.125000X-0.125000X0*%
%ADD44RoundRect,0.087500X-0.087500X0.225000X-0.087500X-0.225000X0.087500X-0.225000X0.087500X0.225000X0*%
%ADD45RoundRect,0.087500X-0.225000X0.087500X-0.225000X-0.087500X0.225000X-0.087500X0.225000X0.087500X0*%
%ADD46RoundRect,0.070000X-0.355000X0.070000X-0.355000X-0.070000X0.355000X-0.070000X0.355000X0.070000X0*%
%ADD47RoundRect,0.070000X-0.305000X0.070000X-0.305000X-0.070000X0.305000X-0.070000X0.305000X0.070000X0*%
%ADD48RotRect,2.500000X2.000000X59.984259*%
%ADD49RotRect,2.500000X2.000000X99.944731*%
%ADD50C,2.000000*%
%ADD51RoundRect,0.225000X-0.250000X0.225000X-0.250000X-0.225000X0.250000X-0.225000X0.250000X0.225000X0*%
%ADD52RoundRect,0.150000X-0.512500X-0.150000X0.512500X-0.150000X0.512500X0.150000X-0.512500X0.150000X0*%
%ADD53RoundRect,0.147500X-0.172500X0.147500X-0.172500X-0.147500X0.172500X-0.147500X0.172500X0.147500X0*%
G04 APERTURE END LIST*
D10*
%TO.C,KiKit_MB_16_2*%
X167006981Y-66009940D03*
%TD*%
%TO.C,KiKit_MB_23_2*%
X189357142Y-28000000D03*
%TD*%
D11*
%TO.C,R9_0*%
X137800000Y-47689616D03*
X137800000Y-46669616D03*
%TD*%
D10*
%TO.C,KiKit_MB_20_4*%
X186000000Y-105630660D03*
%TD*%
D12*
%TO.C,R4_0*%
X133090000Y-49219616D03*
X134110000Y-49219616D03*
%TD*%
D10*
%TO.C,KiKit_MB_21_4*%
X105071429Y-28000000D03*
%TD*%
%TO.C,KiKit_MB_10_1*%
X146685295Y-85758894D03*
%TD*%
%TO.C,KiKit_MB_2_5*%
X111960119Y-39635696D03*
%TD*%
D13*
%TO.C,J1_0*%
X115803524Y-39952209D03*
D14*
X115156476Y-42367023D03*
%TD*%
D10*
%TO.C,KiKit_MB_21_3*%
X104214286Y-28000000D03*
%TD*%
D15*
%TO.C,KiKit_TO_3*%
X105500000Y-106059232D03*
%TD*%
D16*
%TO.C,D2_2*%
X120000000Y-86179616D03*
X120000000Y-83979616D03*
%TD*%
D10*
%TO.C,KiKit_MB_2_4*%
X111744462Y-40414983D03*
%TD*%
D17*
%TO.C,C3_0*%
X139220000Y-52779616D03*
X140180000Y-52779616D03*
%TD*%
D10*
%TO.C,KiKit_MB_17_5*%
X111000000Y-22928572D03*
%TD*%
%TO.C,KiKit_MB_4_4*%
X128006982Y-62549291D03*
%TD*%
D18*
%TO.C,D3_3*%
X177300000Y-85779616D03*
X177300000Y-88579616D03*
%TD*%
D10*
%TO.C,KiKit_MB_22_6*%
X106785715Y-100559232D03*
%TD*%
D18*
%TO.C,D3_2*%
X138300000Y-85779616D03*
X138300000Y-88579616D03*
%TD*%
D19*
%TO.C,C7_3*%
X155400000Y-75059616D03*
X155400000Y-74099616D03*
%TD*%
D10*
%TO.C,KiKit_MB_6_2*%
X150421998Y-41999077D03*
%TD*%
D20*
%TO.C,Q2_0*%
X140437500Y-36929616D03*
X140437500Y-36279616D03*
X140437500Y-35629616D03*
X138762500Y-35629616D03*
X138762500Y-36279616D03*
X138762500Y-36929616D03*
%TD*%
D10*
%TO.C,KiKit_MB_24_4*%
X191071428Y-100559232D03*
%TD*%
%TO.C,KiKit_MB_19_3*%
X111000000Y-104773517D03*
%TD*%
%TO.C,KiKit_MB_13_3*%
X159946148Y-99647383D03*
%TD*%
D21*
%TO.C,C8_0*%
X143080000Y-37879616D03*
X142120000Y-37879616D03*
%TD*%
D10*
%TO.C,KiKit_MB_7_3*%
X185255538Y-40414983D03*
%TD*%
D17*
%TO.C,C8_2*%
X114920000Y-90679616D03*
X115880000Y-90679616D03*
%TD*%
D11*
%TO.C,R3_2*%
X118700000Y-82089616D03*
X118700000Y-81069616D03*
%TD*%
D22*
%TO.C,D1_3*%
X175099999Y-90579616D03*
X177299999Y-90579616D03*
%TD*%
D10*
%TO.C,KiKit_MB_6_1*%
X150314704Y-42800338D03*
%TD*%
D11*
%TO.C,R8_2*%
X113800000Y-91689616D03*
X113800000Y-90669616D03*
%TD*%
D23*
%TO.C,U2_0*%
X138450000Y-57442116D03*
X138950000Y-57442116D03*
X139450000Y-57442116D03*
X139950000Y-57442116D03*
D24*
X140112500Y-56779616D03*
X140112500Y-56279616D03*
X140112500Y-55779616D03*
D23*
X139950000Y-55117116D03*
X139450000Y-55117116D03*
X138950000Y-55117116D03*
X138450000Y-55117116D03*
D24*
X138287500Y-55779616D03*
X138287500Y-56279616D03*
X138287500Y-56779616D03*
%TD*%
D25*
%TO.C,C1_0*%
X122550000Y-44054616D03*
X122550000Y-42504616D03*
%TD*%
D10*
%TO.C,KiKit_MB_8_1*%
X169983932Y-62476197D03*
%TD*%
D13*
%TO.C,J1_1*%
X154803524Y-39952209D03*
D14*
X154156476Y-42367023D03*
%TD*%
D26*
%TO.C,D3_1*%
X158700000Y-42779616D03*
X158700000Y-39979616D03*
%TD*%
D10*
%TO.C,KiKit_MB_15_3*%
X150744461Y-88144249D03*
%TD*%
D27*
%TO.C,R4_2*%
X124910000Y-79339616D03*
X123890000Y-79339616D03*
%TD*%
D28*
%TO.C,H3_3*%
X177464000Y-97295616D03*
%TD*%
D29*
%TO.C,C6_1*%
X180400000Y-55499616D03*
X180400000Y-56459616D03*
%TD*%
D30*
%TO.C,J1_3*%
X181196476Y-88607023D03*
D14*
X181843524Y-86192209D03*
%TD*%
D10*
%TO.C,KiKit_MB_22_7*%
X107642858Y-100559232D03*
%TD*%
D31*
%TO.C,D2_0*%
X138000000Y-42379616D03*
X138000000Y-44579616D03*
%TD*%
D10*
%TO.C,KiKit_MB_2_2*%
X111421999Y-41999077D03*
%TD*%
D32*
%TO.C,Q2_2*%
X117562500Y-91629616D03*
X117562500Y-92279616D03*
X117562500Y-92929616D03*
X119237500Y-92929616D03*
X119237500Y-92279616D03*
X119237500Y-91629616D03*
%TD*%
D28*
%TO.C,H2_2*%
X113495000Y-78136616D03*
%TD*%
D26*
%TO.C,D3_0*%
X119700000Y-42779616D03*
X119700000Y-39979616D03*
%TD*%
D10*
%TO.C,KiKit_MB_18_7*%
X186000000Y-24642858D03*
%TD*%
%TO.C,KiKit_MB_4_2*%
X129993018Y-62549291D03*
%TD*%
%TO.C,KiKit_MB_17_3*%
X111000000Y-21214286D03*
%TD*%
%TO.C,KiKit_MB_4_5*%
X127016068Y-62476197D03*
%TD*%
%TO.C,KiKit_MB_19_7*%
X111000000Y-108202089D03*
%TD*%
D33*
%TO.C,C2_2*%
X114825000Y-87879615D03*
X116375000Y-87879615D03*
%TD*%
D34*
%TO.C,R1_0*%
X144200000Y-42769616D03*
X144200000Y-43789616D03*
%TD*%
D10*
%TO.C,KiKit_MB_23_5*%
X191928571Y-28000000D03*
%TD*%
%TO.C,KiKit_MB_15_6*%
X150314704Y-85758894D03*
%TD*%
D35*
%TO.C,U1_0*%
X125150000Y-59679616D03*
X125700000Y-58779616D03*
X126250000Y-59679616D03*
X126800000Y-58779616D03*
X127350000Y-59679616D03*
X127900000Y-58779616D03*
X128450000Y-59679616D03*
X129000000Y-58779616D03*
X129550000Y-59679616D03*
X130100000Y-58779616D03*
X130650000Y-59679616D03*
X131200000Y-58779616D03*
X131750000Y-59679616D03*
X132300000Y-58779616D03*
X132850000Y-59679616D03*
X133950000Y-59679616D03*
X133950000Y-58579616D03*
X133050000Y-58029616D03*
X133950000Y-57479616D03*
X133050000Y-56929616D03*
X133950000Y-56379616D03*
X133050000Y-55829616D03*
X133950000Y-55279616D03*
X133050000Y-54729616D03*
X133950000Y-54179616D03*
X133050000Y-53629616D03*
X133950000Y-53079616D03*
X133050000Y-52529616D03*
X133950000Y-51979616D03*
X133950000Y-50879616D03*
X132850000Y-50879616D03*
X132300000Y-51779616D03*
X131750000Y-50879616D03*
X131200000Y-51779616D03*
X130650000Y-50879616D03*
X130100000Y-51779616D03*
X129550000Y-50879616D03*
X129000000Y-51779616D03*
X128450000Y-50879616D03*
X127900000Y-51779616D03*
X127350000Y-50879616D03*
X126800000Y-51779616D03*
X126250000Y-50879616D03*
X125700000Y-51779616D03*
X125150000Y-50879616D03*
X125150000Y-53629616D03*
X125150000Y-56929616D03*
X126250000Y-57879616D03*
X127350000Y-57879616D03*
X128450000Y-57879616D03*
X129550000Y-57879616D03*
X130650000Y-57879616D03*
X132150000Y-56379616D03*
X132150000Y-55279616D03*
X132150000Y-54179616D03*
X130650000Y-52679616D03*
X129550000Y-52679616D03*
X128450000Y-52679616D03*
X127350000Y-52679616D03*
X126250000Y-52679616D03*
X134850000Y-59129616D03*
X134850000Y-58029616D03*
X134850000Y-56929616D03*
X134850000Y-55829616D03*
X134850000Y-54729616D03*
X134850000Y-53629616D03*
X134850000Y-52529616D03*
X134850000Y-51429616D03*
%TD*%
D10*
%TO.C,KiKit_MB_12_1*%
X127016068Y-66083034D03*
%TD*%
D17*
%TO.C,C8_3*%
X153920000Y-90679616D03*
X154880000Y-90679616D03*
%TD*%
D10*
%TO.C,KiKit_MB_7_5*%
X185578001Y-41999077D03*
%TD*%
%TO.C,KiKit_MB_16_5*%
X169983932Y-66083034D03*
%TD*%
D34*
%TO.C,R7_1*%
X183400000Y-38969616D03*
X183400000Y-39989616D03*
%TD*%
D17*
%TO.C,C5_1*%
X178220000Y-53879616D03*
X179180000Y-53879616D03*
%TD*%
D10*
%TO.C,KiKit_MB_5_4*%
X176825121Y-29327494D03*
%TD*%
%TO.C,KiKit_MB_11_2*%
X111960119Y-88923536D03*
%TD*%
%TO.C,KiKit_MB_11_3*%
X111744462Y-88144249D03*
%TD*%
%TO.C,KiKit_MB_7_2*%
X185039881Y-39635696D03*
%TD*%
%TO.C,KiKit_MB_5_2*%
X175263057Y-28534672D03*
%TD*%
D28*
%TO.C,H4_1*%
X179462000Y-32910616D03*
%TD*%
D10*
%TO.C,KiKit_MB_20_3*%
X186000000Y-104773517D03*
%TD*%
D36*
%TO.C,D4_2*%
X112050000Y-81664616D03*
X112050000Y-80694616D03*
%TD*%
D10*
%TO.C,KiKit_MB_7_6*%
X185685295Y-42800338D03*
%TD*%
%TO.C,KiKit_MB_5_6*%
X178315427Y-30249466D03*
%TD*%
D11*
%TO.C,R2_2*%
X113400000Y-82689616D03*
X113400000Y-81669616D03*
%TD*%
D34*
%TO.C,R1_1*%
X183200000Y-42769616D03*
X183200000Y-43789616D03*
%TD*%
D10*
%TO.C,KiKit_MB_6_5*%
X150960118Y-39635696D03*
%TD*%
%TO.C,KiKit_MB_11_5*%
X111421999Y-86560155D03*
%TD*%
D29*
%TO.C,C9_1*%
X175800000Y-46099616D03*
X175800000Y-47059616D03*
%TD*%
D37*
%TO.C,C2_0*%
X143175000Y-40679617D03*
X141625000Y-40679617D03*
%TD*%
D10*
%TO.C,KiKit_MB_21_2*%
X103357143Y-28000000D03*
%TD*%
%TO.C,KiKit_MB_20_5*%
X186000000Y-106487803D03*
%TD*%
D21*
%TO.C,C5_3*%
X157780000Y-74679616D03*
X156820000Y-74679616D03*
%TD*%
D34*
%TO.C,R3_1*%
X178300000Y-46469616D03*
X178300000Y-47489616D03*
%TD*%
D28*
%TO.C,H2_1*%
X183505000Y-50422616D03*
%TD*%
D11*
%TO.C,R8_3*%
X152800000Y-91689616D03*
X152800000Y-90669616D03*
%TD*%
D10*
%TO.C,KiKit_MB_15_1*%
X151212627Y-89691643D03*
%TD*%
D28*
%TO.C,H2_3*%
X152495000Y-78136616D03*
%TD*%
D10*
%TO.C,KiKit_MB_13_5*%
X158424999Y-98778636D03*
%TD*%
D28*
%TO.C,H4_0*%
X140462000Y-32910616D03*
%TD*%
D10*
%TO.C,KiKit_MB_8_5*%
X166016067Y-62476197D03*
%TD*%
%TO.C,KiKit_MB_1_3*%
X137053851Y-28911849D03*
%TD*%
%TO.C,KiKit_MB_22_4*%
X105071429Y-100559232D03*
%TD*%
%TO.C,KiKit_MB_5_3*%
X176053851Y-28911849D03*
%TD*%
D28*
%TO.C,H4_2*%
X117538000Y-95648616D03*
%TD*%
D10*
%TO.C,KiKit_MB_3_5*%
X146578001Y-41999077D03*
%TD*%
%TO.C,KiKit_MB_13_2*%
X160736942Y-100024560D03*
%TD*%
%TO.C,KiKit_MB_24_2*%
X189357142Y-100559232D03*
%TD*%
D38*
%TO.C,U3_1*%
X181537500Y-44229616D03*
X181537500Y-43279616D03*
X181537500Y-42329616D03*
X179262500Y-42329616D03*
X179262500Y-44229616D03*
%TD*%
D36*
%TO.C,D4_3*%
X151050000Y-81664616D03*
X151050000Y-80694616D03*
%TD*%
D10*
%TO.C,KiKit_MB_23_6*%
X192785714Y-28000000D03*
%TD*%
D19*
%TO.C,C4_2*%
X116200000Y-76959616D03*
X116200000Y-75999616D03*
%TD*%
D10*
%TO.C,KiKit_MB_20_2*%
X186000000Y-103916374D03*
%TD*%
D29*
%TO.C,C4_1*%
X180800000Y-51599616D03*
X180800000Y-52559616D03*
%TD*%
D10*
%TO.C,KiKit_MB_7_4*%
X185434654Y-41203422D03*
%TD*%
D39*
%TO.C,BT1_2*%
X121730000Y-91329616D03*
D40*
X120730000Y-96979615D03*
%TD*%
D41*
%TO.C,U4_2*%
X116125000Y-92929616D03*
D42*
X116175000Y-92429616D03*
X116175000Y-91929616D03*
X115025000Y-91929616D03*
X115025000Y-92429616D03*
X115025000Y-92929616D03*
%TD*%
D29*
%TO.C,C4_0*%
X141800000Y-51599616D03*
X141800000Y-52559616D03*
%TD*%
D43*
%TO.C,D1_0*%
X121900001Y-37979616D03*
X119700001Y-37979616D03*
%TD*%
D34*
%TO.C,R9_2*%
X120200000Y-80869616D03*
X120200000Y-81889616D03*
%TD*%
D44*
%TO.C,U2_3*%
X158550000Y-71117116D03*
X158050000Y-71117116D03*
X157550000Y-71117116D03*
X157050000Y-71117116D03*
D45*
X156887500Y-71779616D03*
X156887500Y-72279616D03*
X156887500Y-72779616D03*
D44*
X157050000Y-73442116D03*
X157550000Y-73442116D03*
X158050000Y-73442116D03*
X158550000Y-73442116D03*
D45*
X158712500Y-72779616D03*
X158712500Y-72279616D03*
X158712500Y-71779616D03*
%TD*%
D10*
%TO.C,KiKit_MB_11_6*%
X111314705Y-85758894D03*
%TD*%
%TO.C,KiKit_MB_10_2*%
X146578001Y-86560155D03*
%TD*%
%TO.C,KiKit_MB_4_3*%
X129000000Y-62579555D03*
%TD*%
D21*
%TO.C,C3_2*%
X118780000Y-75779616D03*
X117820000Y-75779616D03*
%TD*%
D28*
%TO.C,H4_3*%
X156538000Y-95648616D03*
%TD*%
D34*
%TO.C,R2_0*%
X144600000Y-45869616D03*
X144600000Y-46889616D03*
%TD*%
%TO.C,R3_0*%
X139300000Y-46469616D03*
X139300000Y-47489616D03*
%TD*%
D10*
%TO.C,KiKit_MB_17_4*%
X111000000Y-22071429D03*
%TD*%
D46*
%TO.C,U4_0*%
X141875000Y-35629616D03*
D47*
X141825000Y-36129616D03*
X141825000Y-36629616D03*
X142975000Y-36629616D03*
X142975000Y-36129616D03*
X142975000Y-35629616D03*
%TD*%
D10*
%TO.C,KiKit_MB_24_3*%
X190214285Y-100559232D03*
%TD*%
D28*
%TO.C,H1_3*%
X177200000Y-82579616D03*
%TD*%
D34*
%TO.C,R8_1*%
X183200000Y-36869616D03*
X183200000Y-37889616D03*
%TD*%
D19*
%TO.C,C6_2*%
X116600000Y-73059616D03*
X116600000Y-72099616D03*
%TD*%
D10*
%TO.C,KiKit_MB_2_1*%
X111314705Y-42800338D03*
%TD*%
D48*
%TO.C,BT1_1*%
X175270000Y-37229616D03*
D49*
X176270000Y-31579617D03*
%TD*%
D11*
%TO.C,R9_1*%
X176800000Y-47689616D03*
X176800000Y-46669616D03*
%TD*%
D10*
%TO.C,KiKit_MB_19_5*%
X111000000Y-106487803D03*
%TD*%
%TO.C,KiKit_MB_19_4*%
X111000000Y-105630660D03*
%TD*%
%TO.C,KiKit_MB_9_4*%
X120174879Y-99231738D03*
%TD*%
D21*
%TO.C,C3_3*%
X157780000Y-75779616D03*
X156820000Y-75779616D03*
%TD*%
D10*
%TO.C,KiKit_MB_11_1*%
X112212628Y-89691643D03*
%TD*%
%TO.C,KiKit_MB_5_5*%
X177575000Y-29780596D03*
%TD*%
%TO.C,KiKit_MB_16_3*%
X168000000Y-65979676D03*
%TD*%
%TO.C,KiKit_MB_22_5*%
X105928572Y-100559232D03*
%TD*%
D32*
%TO.C,Q2_3*%
X156562500Y-91629616D03*
X156562500Y-92279616D03*
X156562500Y-92929616D03*
X158237500Y-92929616D03*
X158237500Y-92279616D03*
X158237500Y-91629616D03*
%TD*%
D10*
%TO.C,KiKit_MB_18_6*%
X186000000Y-23785715D03*
%TD*%
%TO.C,KiKit_MB_13_6*%
X157684572Y-98309766D03*
%TD*%
%TO.C,KiKit_MB_18_5*%
X186000000Y-22928572D03*
%TD*%
%TO.C,KiKit_MB_1_2*%
X136263057Y-28534672D03*
%TD*%
D48*
%TO.C,BT1_0*%
X136270000Y-37229616D03*
D49*
X137270000Y-31579617D03*
%TD*%
D50*
%TO.C,KiKit_FID_T_3*%
X108000000Y-106059232D03*
%TD*%
D10*
%TO.C,KiKit_MB_14_3*%
X185434654Y-87355810D03*
%TD*%
%TO.C,KiKit_MB_12_3*%
X129000000Y-65979676D03*
%TD*%
D37*
%TO.C,C2_1*%
X182175000Y-40679617D03*
X180625000Y-40679617D03*
%TD*%
D10*
%TO.C,KiKit_MB_16_4*%
X168993018Y-66009940D03*
%TD*%
%TO.C,KiKit_MB_12_5*%
X130983932Y-66083034D03*
%TD*%
D35*
%TO.C,U1_1*%
X164150000Y-59679616D03*
X164700000Y-58779616D03*
X165250000Y-59679616D03*
X165800000Y-58779616D03*
X166350000Y-59679616D03*
X166900000Y-58779616D03*
X167450000Y-59679616D03*
X168000000Y-58779616D03*
X168550000Y-59679616D03*
X169100000Y-58779616D03*
X169650000Y-59679616D03*
X170200000Y-58779616D03*
X170750000Y-59679616D03*
X171300000Y-58779616D03*
X171850000Y-59679616D03*
X172950000Y-59679616D03*
X172950000Y-58579616D03*
X172050000Y-58029616D03*
X172950000Y-57479616D03*
X172050000Y-56929616D03*
X172950000Y-56379616D03*
X172050000Y-55829616D03*
X172950000Y-55279616D03*
X172050000Y-54729616D03*
X172950000Y-54179616D03*
X172050000Y-53629616D03*
X172950000Y-53079616D03*
X172050000Y-52529616D03*
X172950000Y-51979616D03*
X172950000Y-50879616D03*
X171850000Y-50879616D03*
X171300000Y-51779616D03*
X170750000Y-50879616D03*
X170200000Y-51779616D03*
X169650000Y-50879616D03*
X169100000Y-51779616D03*
X168550000Y-50879616D03*
X168000000Y-51779616D03*
X167450000Y-50879616D03*
X166900000Y-51779616D03*
X166350000Y-50879616D03*
X165800000Y-51779616D03*
X165250000Y-50879616D03*
X164700000Y-51779616D03*
X164150000Y-50879616D03*
X164150000Y-53629616D03*
X164150000Y-56929616D03*
X165250000Y-57879616D03*
X166350000Y-57879616D03*
X167450000Y-57879616D03*
X168550000Y-57879616D03*
X169650000Y-57879616D03*
X171150000Y-56379616D03*
X171150000Y-55279616D03*
X171150000Y-54179616D03*
X169650000Y-52679616D03*
X168550000Y-52679616D03*
X167450000Y-52679616D03*
X166350000Y-52679616D03*
X165250000Y-52679616D03*
X173850000Y-59129616D03*
X173850000Y-58029616D03*
X173850000Y-56929616D03*
X173850000Y-55829616D03*
X173850000Y-54729616D03*
X173850000Y-53629616D03*
X173850000Y-52529616D03*
X173850000Y-51429616D03*
%TD*%
D10*
%TO.C,KiKit_MB_18_2*%
X186000000Y-20357143D03*
%TD*%
%TO.C,KiKit_MB_20_7*%
X186000000Y-108202089D03*
%TD*%
%TO.C,KiKit_MB_12_4*%
X129993018Y-66009940D03*
%TD*%
%TO.C,KiKit_MB_3_3*%
X146255538Y-40414983D03*
%TD*%
D17*
%TO.C,C5_0*%
X139220000Y-53879616D03*
X140180000Y-53879616D03*
%TD*%
D22*
%TO.C,D1_2*%
X136099999Y-90579616D03*
X138299999Y-90579616D03*
%TD*%
D10*
%TO.C,KiKit_MB_9_5*%
X119425000Y-98778636D03*
%TD*%
D29*
%TO.C,C6_0*%
X141400000Y-55499616D03*
X141400000Y-56459616D03*
%TD*%
D10*
%TO.C,KiKit_MB_6_6*%
X151212627Y-38867589D03*
%TD*%
D31*
%TO.C,D2_1*%
X177000000Y-42379616D03*
X177000000Y-44579616D03*
%TD*%
D51*
%TO.C,C1_2*%
X135450000Y-84504616D03*
X135450000Y-86054616D03*
%TD*%
D23*
%TO.C,U2_1*%
X177450000Y-57442116D03*
X177950000Y-57442116D03*
X178450000Y-57442116D03*
X178950000Y-57442116D03*
D24*
X179112500Y-56779616D03*
X179112500Y-56279616D03*
X179112500Y-55779616D03*
D23*
X178950000Y-55117116D03*
X178450000Y-55117116D03*
X177950000Y-55117116D03*
X177450000Y-55117116D03*
D24*
X177287500Y-55779616D03*
X177287500Y-56279616D03*
X177287500Y-56779616D03*
%TD*%
D15*
%TO.C,KiKit_TO_1*%
X105500000Y-22500000D03*
%TD*%
D33*
%TO.C,C2_3*%
X153825000Y-87879615D03*
X155375000Y-87879615D03*
%TD*%
D29*
%TO.C,C7_0*%
X141600000Y-53499616D03*
X141600000Y-54459616D03*
%TD*%
D17*
%TO.C,C3_1*%
X178220000Y-52779616D03*
X179180000Y-52779616D03*
%TD*%
D10*
%TO.C,KiKit_MB_2_6*%
X112212628Y-38867589D03*
%TD*%
%TO.C,KiKit_MB_13_4*%
X159174878Y-99231738D03*
%TD*%
D35*
%TO.C,U1_3*%
X171850000Y-68879616D03*
X171300000Y-69779616D03*
X170750000Y-68879616D03*
X170200000Y-69779616D03*
X169650000Y-68879616D03*
X169100000Y-69779616D03*
X168550000Y-68879616D03*
X168000000Y-69779616D03*
X167450000Y-68879616D03*
X166900000Y-69779616D03*
X166350000Y-68879616D03*
X165800000Y-69779616D03*
X165250000Y-68879616D03*
X164700000Y-69779616D03*
X164150000Y-68879616D03*
X163050000Y-68879616D03*
X163050000Y-69979616D03*
X163950000Y-70529616D03*
X163050000Y-71079616D03*
X163950000Y-71629616D03*
X163050000Y-72179616D03*
X163950000Y-72729616D03*
X163050000Y-73279616D03*
X163950000Y-73829616D03*
X163050000Y-74379616D03*
X163950000Y-74929616D03*
X163050000Y-75479616D03*
X163950000Y-76029616D03*
X163050000Y-76579616D03*
X163050000Y-77679616D03*
X164150000Y-77679616D03*
X164700000Y-76779616D03*
X165250000Y-77679616D03*
X165800000Y-76779616D03*
X166350000Y-77679616D03*
X166900000Y-76779616D03*
X167450000Y-77679616D03*
X168000000Y-76779616D03*
X168550000Y-77679616D03*
X169100000Y-76779616D03*
X169650000Y-77679616D03*
X170200000Y-76779616D03*
X170750000Y-77679616D03*
X171300000Y-76779616D03*
X171850000Y-77679616D03*
X171850000Y-74929616D03*
X171850000Y-71629616D03*
X170750000Y-70679616D03*
X169650000Y-70679616D03*
X168550000Y-70679616D03*
X167450000Y-70679616D03*
X166350000Y-70679616D03*
X164850000Y-72179616D03*
X164850000Y-73279616D03*
X164850000Y-74379616D03*
X166350000Y-75879616D03*
X167450000Y-75879616D03*
X168550000Y-75879616D03*
X169650000Y-75879616D03*
X170750000Y-75879616D03*
X162150000Y-69429616D03*
X162150000Y-70529616D03*
X162150000Y-71629616D03*
X162150000Y-72729616D03*
X162150000Y-73829616D03*
X162150000Y-74929616D03*
X162150000Y-76029616D03*
X162150000Y-77129616D03*
%TD*%
D10*
%TO.C,KiKit_MB_4_1*%
X130983932Y-62476197D03*
%TD*%
D11*
%TO.C,R2_3*%
X152400000Y-82689616D03*
X152400000Y-81669616D03*
%TD*%
D10*
%TO.C,KiKit_MB_21_6*%
X106785715Y-28000000D03*
%TD*%
%TO.C,KiKit_MB_1_6*%
X139315427Y-30249466D03*
%TD*%
D15*
%TO.C,KiKit_TO_2*%
X191500000Y-22500000D03*
%TD*%
D43*
%TO.C,D1_1*%
X160900001Y-37979616D03*
X158700001Y-37979616D03*
%TD*%
D10*
%TO.C,KiKit_MB_6_4*%
X150744461Y-40414983D03*
%TD*%
%TO.C,KiKit_MB_14_5*%
X185039881Y-88923536D03*
%TD*%
D52*
%TO.C,U3_2*%
X115462500Y-84329616D03*
X115462500Y-85279616D03*
X115462500Y-86229616D03*
X117737500Y-86229616D03*
X117737500Y-84329616D03*
%TD*%
D30*
%TO.C,J1_2*%
X142196476Y-88607023D03*
D14*
X142843524Y-86192209D03*
%TD*%
D39*
%TO.C,BT1_3*%
X160730000Y-91329616D03*
D40*
X159730000Y-96979615D03*
%TD*%
D10*
%TO.C,KiKit_MB_19_6*%
X111000000Y-107344946D03*
%TD*%
%TO.C,KiKit_MB_14_6*%
X184787372Y-89691643D03*
%TD*%
D16*
%TO.C,D2_3*%
X159000000Y-86179616D03*
X159000000Y-83979616D03*
%TD*%
D28*
%TO.C,H2_0*%
X144505000Y-50422616D03*
%TD*%
D32*
%TO.C,Q1_3*%
X153962500Y-80929616D03*
X153962500Y-81579616D03*
X153962500Y-82229616D03*
X155637500Y-82229616D03*
X155637500Y-81579616D03*
X155637500Y-80929616D03*
%TD*%
D29*
%TO.C,C7_1*%
X180600000Y-53499616D03*
X180600000Y-54459616D03*
%TD*%
D10*
%TO.C,KiKit_MB_15_2*%
X150960118Y-88923536D03*
%TD*%
%TO.C,KiKit_MB_10_3*%
X146434654Y-87355810D03*
%TD*%
D46*
%TO.C,U4_1*%
X180875000Y-35629616D03*
D47*
X180825000Y-36129616D03*
X180825000Y-36629616D03*
X181975000Y-36629616D03*
X181975000Y-36129616D03*
X181975000Y-35629616D03*
%TD*%
D11*
%TO.C,R1_3*%
X152800000Y-85789616D03*
X152800000Y-84769616D03*
%TD*%
D10*
%TO.C,KiKit_MB_21_7*%
X107642858Y-28000000D03*
%TD*%
D34*
%TO.C,R7_0*%
X144400000Y-38969616D03*
X144400000Y-39989616D03*
%TD*%
D53*
%TO.C,D4_1*%
X184950000Y-46894616D03*
X184950000Y-47864616D03*
%TD*%
D10*
%TO.C,KiKit_MB_14_2*%
X185578001Y-86560155D03*
%TD*%
%TO.C,KiKit_MB_14_4*%
X185255538Y-88144249D03*
%TD*%
%TO.C,KiKit_MB_10_6*%
X145787372Y-89691643D03*
%TD*%
D11*
%TO.C,R3_3*%
X157700000Y-82089616D03*
X157700000Y-81069616D03*
%TD*%
D10*
%TO.C,KiKit_MB_3_6*%
X146685295Y-42800338D03*
%TD*%
%TO.C,KiKit_MB_16_1*%
X166016067Y-66083034D03*
%TD*%
D20*
%TO.C,Q1_0*%
X143037500Y-47629616D03*
X143037500Y-46979616D03*
X143037500Y-46329616D03*
X141362500Y-46329616D03*
X141362500Y-46979616D03*
X141362500Y-47629616D03*
%TD*%
D32*
%TO.C,Q1_2*%
X114962500Y-80929616D03*
X114962500Y-81579616D03*
X114962500Y-82229616D03*
X116637500Y-82229616D03*
X116637500Y-81579616D03*
X116637500Y-80929616D03*
%TD*%
D10*
%TO.C,KiKit_MB_14_1*%
X185685295Y-85758894D03*
%TD*%
D28*
%TO.C,H1_1*%
X158800000Y-45979616D03*
%TD*%
D10*
%TO.C,KiKit_MB_11_4*%
X111565346Y-87355810D03*
%TD*%
%TO.C,KiKit_MB_9_6*%
X118684573Y-98309766D03*
%TD*%
%TO.C,KiKit_MB_3_4*%
X146434654Y-41203422D03*
%TD*%
D50*
%TO.C,KiKit_FID_T_2*%
X189000000Y-22500000D03*
%TD*%
D10*
%TO.C,KiKit_MB_8_2*%
X168993018Y-62549291D03*
%TD*%
D11*
%TO.C,R1_2*%
X113800000Y-85789616D03*
X113800000Y-84769616D03*
%TD*%
D28*
%TO.C,H1_2*%
X138200000Y-82579616D03*
%TD*%
D10*
%TO.C,KiKit_MB_10_4*%
X146255538Y-88144249D03*
%TD*%
D11*
%TO.C,R7_3*%
X152600000Y-89589616D03*
X152600000Y-88569616D03*
%TD*%
D10*
%TO.C,KiKit_MB_15_4*%
X150565345Y-87355810D03*
%TD*%
D50*
%TO.C,KiKit_FID_T_1*%
X108000000Y-22500000D03*
%TD*%
D10*
%TO.C,KiKit_MB_23_4*%
X191071428Y-28000000D03*
%TD*%
D25*
%TO.C,C1_1*%
X161550000Y-44054616D03*
X161550000Y-42504616D03*
%TD*%
D10*
%TO.C,KiKit_MB_24_5*%
X191928571Y-100559232D03*
%TD*%
D19*
%TO.C,C4_3*%
X155200000Y-76959616D03*
X155200000Y-75999616D03*
%TD*%
D27*
%TO.C,R4_3*%
X163910000Y-79339616D03*
X162890000Y-79339616D03*
%TD*%
D10*
%TO.C,KiKit_MB_20_6*%
X186000000Y-107344946D03*
%TD*%
%TO.C,KiKit_MB_17_7*%
X111000000Y-24642858D03*
%TD*%
%TO.C,KiKit_MB_1_5*%
X138575000Y-29780596D03*
%TD*%
%TO.C,KiKit_MB_6_3*%
X150565345Y-41203422D03*
%TD*%
%TO.C,KiKit_MB_8_3*%
X168000000Y-62579555D03*
%TD*%
D35*
%TO.C,U1_2*%
X132850000Y-68879616D03*
X132300000Y-69779616D03*
X131750000Y-68879616D03*
X131200000Y-69779616D03*
X130650000Y-68879616D03*
X130100000Y-69779616D03*
X129550000Y-68879616D03*
X129000000Y-69779616D03*
X128450000Y-68879616D03*
X127900000Y-69779616D03*
X127350000Y-68879616D03*
X126800000Y-69779616D03*
X126250000Y-68879616D03*
X125700000Y-69779616D03*
X125150000Y-68879616D03*
X124050000Y-68879616D03*
X124050000Y-69979616D03*
X124950000Y-70529616D03*
X124050000Y-71079616D03*
X124950000Y-71629616D03*
X124050000Y-72179616D03*
X124950000Y-72729616D03*
X124050000Y-73279616D03*
X124950000Y-73829616D03*
X124050000Y-74379616D03*
X124950000Y-74929616D03*
X124050000Y-75479616D03*
X124950000Y-76029616D03*
X124050000Y-76579616D03*
X124050000Y-77679616D03*
X125150000Y-77679616D03*
X125700000Y-76779616D03*
X126250000Y-77679616D03*
X126800000Y-76779616D03*
X127350000Y-77679616D03*
X127900000Y-76779616D03*
X128450000Y-77679616D03*
X129000000Y-76779616D03*
X129550000Y-77679616D03*
X130100000Y-76779616D03*
X130650000Y-77679616D03*
X131200000Y-76779616D03*
X131750000Y-77679616D03*
X132300000Y-76779616D03*
X132850000Y-77679616D03*
X132850000Y-74929616D03*
X132850000Y-71629616D03*
X131750000Y-70679616D03*
X130650000Y-70679616D03*
X129550000Y-70679616D03*
X128450000Y-70679616D03*
X127350000Y-70679616D03*
X125850000Y-72179616D03*
X125850000Y-73279616D03*
X125850000Y-74379616D03*
X127350000Y-75879616D03*
X128450000Y-75879616D03*
X129550000Y-75879616D03*
X130650000Y-75879616D03*
X131750000Y-75879616D03*
X123150000Y-69429616D03*
X123150000Y-70529616D03*
X123150000Y-71629616D03*
X123150000Y-72729616D03*
X123150000Y-73829616D03*
X123150000Y-74929616D03*
X123150000Y-76029616D03*
X123150000Y-77129616D03*
%TD*%
D10*
%TO.C,KiKit_MB_2_3*%
X111565346Y-41203422D03*
%TD*%
D19*
%TO.C,C9_2*%
X121200000Y-82459616D03*
X121200000Y-81499616D03*
%TD*%
D10*
%TO.C,KiKit_MB_17_2*%
X111000000Y-20357143D03*
%TD*%
D38*
%TO.C,U3_0*%
X142537500Y-44229616D03*
X142537500Y-43279616D03*
X142537500Y-42329616D03*
X140262500Y-42329616D03*
X140262500Y-44229616D03*
%TD*%
D28*
%TO.C,H3_0*%
X119536000Y-31263616D03*
%TD*%
D34*
%TO.C,R8_0*%
X144200000Y-36869616D03*
X144200000Y-37889616D03*
%TD*%
D10*
%TO.C,KiKit_MB_10_5*%
X146039881Y-88923536D03*
%TD*%
D19*
%TO.C,C6_3*%
X155600000Y-73059616D03*
X155600000Y-72099616D03*
%TD*%
D10*
%TO.C,KiKit_MB_17_6*%
X111000000Y-23785715D03*
%TD*%
D19*
%TO.C,C9_3*%
X160200000Y-82459616D03*
X160200000Y-81499616D03*
%TD*%
D28*
%TO.C,H3_1*%
X158536000Y-31263616D03*
%TD*%
D10*
%TO.C,KiKit_MB_21_5*%
X105928572Y-28000000D03*
%TD*%
D51*
%TO.C,C1_3*%
X174450000Y-84504616D03*
X174450000Y-86054616D03*
%TD*%
D10*
%TO.C,KiKit_MB_3_2*%
X146039881Y-39635696D03*
%TD*%
%TO.C,KiKit_MB_18_3*%
X186000000Y-21214286D03*
%TD*%
%TO.C,KiKit_MB_24_6*%
X192785714Y-100559232D03*
%TD*%
D21*
%TO.C,C5_2*%
X118780000Y-74679616D03*
X117820000Y-74679616D03*
%TD*%
D10*
%TO.C,KiKit_MB_24_7*%
X193642857Y-100559232D03*
%TD*%
D11*
%TO.C,R7_2*%
X113600000Y-89589616D03*
X113600000Y-88569616D03*
%TD*%
D10*
%TO.C,KiKit_MB_19_2*%
X111000000Y-103916374D03*
%TD*%
%TO.C,KiKit_MB_12_2*%
X128006982Y-66009940D03*
%TD*%
%TO.C,KiKit_MB_22_2*%
X103357143Y-100559232D03*
%TD*%
D28*
%TO.C,H1_0*%
X119800000Y-45979616D03*
%TD*%
D20*
%TO.C,Q1_1*%
X182037500Y-47629616D03*
X182037500Y-46979616D03*
X182037500Y-46329616D03*
X180362500Y-46329616D03*
X180362500Y-46979616D03*
X180362500Y-47629616D03*
%TD*%
D10*
%TO.C,KiKit_MB_9_3*%
X120946149Y-99647383D03*
%TD*%
D28*
%TO.C,H3_2*%
X138464000Y-97295616D03*
%TD*%
D29*
%TO.C,C9_0*%
X136800000Y-46099616D03*
X136800000Y-47059616D03*
%TD*%
D10*
%TO.C,KiKit_MB_7_1*%
X184787372Y-38867589D03*
%TD*%
D41*
%TO.C,U4_3*%
X155125000Y-92929616D03*
D42*
X155175000Y-92429616D03*
X155175000Y-91929616D03*
X154025000Y-91929616D03*
X154025000Y-92429616D03*
X154025000Y-92929616D03*
%TD*%
D10*
%TO.C,KiKit_MB_22_3*%
X104214286Y-100559232D03*
%TD*%
%TO.C,KiKit_MB_9_2*%
X121736943Y-100024560D03*
%TD*%
%TO.C,KiKit_MB_23_3*%
X190214285Y-28000000D03*
%TD*%
D52*
%TO.C,U3_3*%
X154462500Y-84329616D03*
X154462500Y-85279616D03*
X154462500Y-86229616D03*
X156737500Y-86229616D03*
X156737500Y-84329616D03*
%TD*%
D20*
%TO.C,Q2_1*%
X179437500Y-36929616D03*
X179437500Y-36279616D03*
X179437500Y-35629616D03*
X177762500Y-35629616D03*
X177762500Y-36279616D03*
X177762500Y-36929616D03*
%TD*%
D10*
%TO.C,KiKit_MB_1_4*%
X137825121Y-29327494D03*
%TD*%
D44*
%TO.C,U2_2*%
X119550000Y-71117116D03*
X119050000Y-71117116D03*
X118550000Y-71117116D03*
X118050000Y-71117116D03*
D45*
X117887500Y-71779616D03*
X117887500Y-72279616D03*
X117887500Y-72779616D03*
D44*
X118050000Y-73442116D03*
X118550000Y-73442116D03*
X119050000Y-73442116D03*
X119550000Y-73442116D03*
D45*
X119712500Y-72779616D03*
X119712500Y-72279616D03*
X119712500Y-71779616D03*
%TD*%
D34*
%TO.C,R2_1*%
X183600000Y-45869616D03*
X183600000Y-46889616D03*
%TD*%
D10*
%TO.C,KiKit_MB_23_7*%
X193642857Y-28000000D03*
%TD*%
%TO.C,KiKit_MB_3_1*%
X145787372Y-38867589D03*
%TD*%
%TO.C,KiKit_MB_8_4*%
X167006981Y-62549291D03*
%TD*%
D19*
%TO.C,C7_2*%
X116400000Y-75059616D03*
X116400000Y-74099616D03*
%TD*%
D21*
%TO.C,C8_1*%
X182080000Y-37879616D03*
X181120000Y-37879616D03*
%TD*%
D12*
%TO.C,R4_1*%
X172090000Y-49219616D03*
X173110000Y-49219616D03*
%TD*%
D34*
%TO.C,R9_3*%
X159200000Y-80869616D03*
X159200000Y-81889616D03*
%TD*%
D10*
%TO.C,KiKit_MB_15_5*%
X150421998Y-86560155D03*
%TD*%
D53*
%TO.C,D4_0*%
X145950000Y-46894616D03*
X145950000Y-47864616D03*
%TD*%
D10*
%TO.C,KiKit_MB_18_4*%
X186000000Y-22071429D03*
%TD*%
M02*
