%TF.GenerationSoftware,KiCad,Pcbnew,10.0.6*%
%TF.CreationDate,2026-09-27T13:08:25+02:00*%
%TF.ProjectId,shotpuck-panel,73686f74-7075-4636-9b2d-70616e656c2e,rev?*%
%TF.SameCoordinates,Original*%
%TF.FileFunction,Profile,NP*%
%FSLAX46Y46*%
G04 Gerber Fmt 4.6, Leading zero omitted, Abs format (unit mm)*
G04 Created by KiCad (PCBNEW 10.0.6) date 2026-09-27 13:08:25*
%MOMM*%
%LPD*%
G01*
G04 APERTURE LIST*
%TA.AperFunction,Profile*%
%ADD10C,0.100000*%
%TD*%
G04 APERTURE END LIST*
D10*
X113030622Y-20012272D02*
X113031357Y-24999574D01*
X113030622Y-45564521D02*
X113030622Y-46435313D01*
X113030622Y-46435313D02*
X113074556Y-47329845D01*
X113030622Y-84564496D02*
X113030622Y-85435288D01*
X113030622Y-85435288D02*
X113074557Y-86329870D01*
X113031104Y-110999155D02*
X183968722Y-110999328D01*
X113031357Y-24999574D02*
X121853807Y-24999999D01*
X113031357Y-106000235D02*
X113031104Y-110999155D01*
X113031868Y-20000270D02*
X113030622Y-20012272D01*
X113074557Y-44669939D02*
X113030622Y-45564521D01*
X113074556Y-47329845D02*
X113166016Y-48245767D01*
X113074556Y-83669964D02*
X113030622Y-84564496D01*
X113074557Y-86329870D02*
X113166016Y-87245767D01*
X113162935Y-43778676D02*
X113074557Y-44669939D01*
X113162935Y-82778676D02*
X113074556Y-83669964D01*
X113166016Y-48245767D02*
X113299845Y-49131372D01*
X113166016Y-87245767D02*
X113299840Y-88131348D01*
X113299840Y-42868461D02*
X113162935Y-43778676D01*
X113299840Y-88131348D02*
X113477556Y-89009199D01*
X113299845Y-49131372D02*
X113477550Y-50009175D01*
X113299845Y-81868437D02*
X113162935Y-82778676D01*
X113477550Y-50009175D02*
X113691989Y-50853150D01*
X113477550Y-80990634D02*
X113299845Y-81868437D01*
X113477556Y-41990610D02*
X113299840Y-42868461D01*
X113477556Y-89009199D02*
X113698713Y-89877100D01*
X113691989Y-50853150D02*
X113962760Y-51732901D01*
X113691989Y-80146659D02*
X113477550Y-80990634D01*
X113698713Y-41122709D02*
X113477556Y-41990610D01*
X113698713Y-89877100D02*
X113954869Y-90709363D01*
X113954869Y-40290446D02*
X113698713Y-41122709D01*
X113954869Y-79290446D02*
X113691989Y-80146659D01*
X113954869Y-90709363D02*
X114259997Y-91551393D01*
X113962760Y-51732901D02*
X114269067Y-52574556D01*
X114259997Y-39448416D02*
X113954869Y-40290446D01*
X114259997Y-91551393D02*
X114606652Y-92377248D01*
X114269067Y-52574556D02*
X114606652Y-53377248D01*
X114269067Y-78425253D02*
X113954869Y-79290446D01*
X114606652Y-38622561D02*
X114259997Y-39448416D01*
X114606652Y-53377248D02*
X114993936Y-54184793D01*
X114606652Y-92377248D02*
X114993947Y-93184815D01*
X114616842Y-77599923D02*
X114269067Y-78425253D01*
X114993936Y-54184793D02*
X115433324Y-54993629D01*
X114993936Y-76815016D02*
X114616842Y-77599923D01*
X114993947Y-37814994D02*
X114606652Y-38622561D01*
X114993947Y-93184815D02*
X115433337Y-93993651D01*
X115433324Y-54993629D02*
X115900014Y-55758095D01*
X115433324Y-76006180D02*
X114993936Y-76815016D01*
X115433337Y-37006158D02*
X114993947Y-37814994D01*
X115433337Y-93993651D02*
X115900000Y-94758074D01*
X115900000Y-36241735D02*
X115433337Y-37006158D01*
X115900000Y-94758074D02*
X116404124Y-95498358D01*
X115900014Y-55758095D02*
X116404124Y-56498358D01*
X115900014Y-75241714D02*
X115433324Y-76006180D01*
X116389658Y-35521626D02*
X115900000Y-36241735D01*
X116404124Y-56498358D02*
X116928981Y-57193199D01*
X116404124Y-74501451D02*
X115900014Y-75241714D01*
X116404124Y-95498358D02*
X116928996Y-96193219D01*
X116928981Y-57193199D02*
X117503235Y-57880541D01*
X116928981Y-73806610D02*
X116404124Y-74501451D01*
X116928996Y-96193219D02*
X117503219Y-96880522D01*
X116944464Y-34787140D02*
X116389658Y-35521626D01*
X117503219Y-96880522D02*
X118128258Y-97556248D01*
X117503235Y-57880541D02*
X118128275Y-58556265D01*
X117503235Y-73119268D02*
X116928981Y-73806610D01*
X117519634Y-34100630D02*
X116944464Y-34787140D01*
X118128258Y-33443561D02*
X117519634Y-34100630D01*
X118128258Y-72443561D02*
X117503235Y-73119268D01*
X118128258Y-97556248D02*
X118750643Y-98165311D01*
X118128275Y-58556265D02*
X118768831Y-59182245D01*
X118750643Y-71834498D02*
X118128258Y-72443561D01*
X118750643Y-98165311D02*
X119420705Y-98759562D01*
X118768831Y-32817564D02*
X118128258Y-33443561D01*
X118768831Y-59182245D02*
X119420724Y-59759578D01*
X119420705Y-71240247D02*
X118750643Y-71834498D01*
X119420705Y-98759562D02*
X120119536Y-99319778D01*
X119420724Y-59759578D02*
X120119516Y-60319762D01*
X119439712Y-32224239D02*
X118768831Y-32817564D01*
X120119516Y-60319762D02*
X120865853Y-60858563D01*
X120119536Y-31680031D02*
X119439712Y-32224239D01*
X120119536Y-99319778D02*
X120865853Y-99858563D01*
X120139296Y-70665004D02*
X119420705Y-71240247D01*
X120865853Y-31141246D02*
X120119536Y-31680031D01*
X120865853Y-60858563D02*
X121596366Y-61332514D01*
X120865853Y-70141246D02*
X120139296Y-70665004D01*
X120865853Y-99858563D02*
X121596366Y-100332514D01*
X121596366Y-30667295D02*
X120865853Y-31141246D01*
X121596366Y-61332514D02*
X122355180Y-61773523D01*
X121596366Y-69667295D02*
X120865853Y-70141246D01*
X121596366Y-100332514D02*
X122355180Y-100773523D01*
X121853807Y-24999999D02*
X121902838Y-25001203D01*
X121853807Y-105999810D02*
X113031357Y-106000235D01*
X121902838Y-25001203D02*
X121951738Y-25004810D01*
X121902838Y-105998606D02*
X121853807Y-105999810D01*
X121951738Y-25004810D02*
X122000403Y-25010812D01*
X121951738Y-105994999D02*
X121902838Y-105998606D01*
X122000403Y-25010812D02*
X122048714Y-25019195D01*
X122000403Y-105988997D02*
X121951738Y-105994999D01*
X122048714Y-25019195D02*
X122096556Y-25029938D01*
X122048714Y-105980614D02*
X122000403Y-105988997D01*
X122096556Y-25029938D02*
X122143814Y-25043016D01*
X122096556Y-105969871D02*
X122048714Y-105980614D01*
X122143814Y-25043016D02*
X122190372Y-25058397D01*
X122143814Y-105956793D02*
X122096556Y-105969871D01*
X122190372Y-25058397D02*
X122236120Y-25076044D01*
X122190372Y-105941412D02*
X122143814Y-105956793D01*
X122236120Y-25076044D02*
X122280947Y-25095914D01*
X122236120Y-105923765D02*
X122190372Y-105941412D01*
X122280947Y-25095914D02*
X122324745Y-25117960D01*
X122280947Y-105903895D02*
X122236120Y-105923765D01*
X122324745Y-25117960D02*
X122367408Y-25142129D01*
X122324745Y-105881849D02*
X122280947Y-105903895D01*
X122355180Y-30226286D02*
X121596366Y-30667295D01*
X122355180Y-61773523D02*
X122397552Y-61799539D01*
X122355180Y-69226286D02*
X121596366Y-69667295D01*
X122355180Y-100773523D02*
X122397552Y-100799539D01*
X122367408Y-25142129D02*
X122408834Y-25168361D01*
X122367408Y-105857680D02*
X122324745Y-105881849D01*
X122397552Y-30200270D02*
X122355180Y-30226286D01*
X122397552Y-61799539D02*
X122438567Y-61827624D01*
X122397552Y-69200270D02*
X122355180Y-69226286D01*
X122397552Y-100799539D02*
X122438567Y-100827624D01*
X122408834Y-25168361D02*
X122448923Y-25196595D01*
X122408834Y-105831448D02*
X122367408Y-105857680D01*
X122438567Y-30172185D02*
X122397552Y-30200270D01*
X122438567Y-61827624D02*
X122478134Y-61857713D01*
X122438567Y-69172185D02*
X122397552Y-69200270D01*
X122438567Y-100827624D02*
X122478134Y-100857713D01*
X122448923Y-25196595D02*
X122487578Y-25226762D01*
X122448923Y-105803214D02*
X122408834Y-105831448D01*
X122478134Y-30142096D02*
X122438567Y-30172185D01*
X122478134Y-61857713D02*
X122516155Y-61889734D01*
X122478134Y-69142096D02*
X122438567Y-69172185D01*
X122478134Y-100857713D02*
X122516155Y-100889734D01*
X122487578Y-25226762D02*
X122524707Y-25258789D01*
X122487578Y-105773047D02*
X122448923Y-105803214D01*
X122516155Y-30110075D02*
X122478134Y-30142096D01*
X122516155Y-61889734D02*
X122552536Y-61923606D01*
X122516155Y-69110075D02*
X122478134Y-69142096D01*
X122516155Y-100889734D02*
X122552536Y-100923606D01*
X122524707Y-25258789D02*
X122560219Y-25292600D01*
X122524707Y-105741020D02*
X122487578Y-105773047D01*
X122552536Y-30076203D02*
X122516155Y-30110075D01*
X122552536Y-61923606D02*
X122587188Y-61959246D01*
X122552536Y-69076203D02*
X122516155Y-69110075D01*
X122552536Y-100923606D02*
X122587188Y-100959246D01*
X122560219Y-25292600D02*
X122594029Y-25328112D01*
X122560219Y-105707209D02*
X122524707Y-105741020D01*
X122587188Y-30040563D02*
X122552536Y-30076203D01*
X122587188Y-61959246D02*
X122620023Y-61996566D01*
X122587188Y-69040563D02*
X122552536Y-69076203D01*
X122587188Y-100959246D02*
X122620023Y-100996566D01*
X122594029Y-25328112D02*
X122626057Y-25365241D01*
X122594029Y-105671697D02*
X122560219Y-105707209D01*
X122620023Y-30003243D02*
X122587188Y-30040563D01*
X122620023Y-61996566D02*
X122650962Y-62035473D01*
X122620023Y-69003243D02*
X122587188Y-69040563D01*
X122620023Y-100996566D02*
X122650962Y-101035473D01*
X122626057Y-25365241D02*
X122656223Y-25403896D01*
X122626057Y-105634568D02*
X122594029Y-105671697D01*
X122650962Y-29964336D02*
X122620023Y-30003243D01*
X122650962Y-62035473D02*
X122679927Y-62075871D01*
X122650962Y-68964336D02*
X122620023Y-69003243D01*
X122650962Y-101035473D02*
X122679927Y-101075871D01*
X122656223Y-25403896D02*
X122684457Y-25443985D01*
X122656223Y-105595913D02*
X122626057Y-105634568D01*
X122679927Y-29923938D02*
X122650962Y-29964336D01*
X122679927Y-62075871D02*
X122706847Y-62117659D01*
X122679927Y-68923938D02*
X122650962Y-68964336D01*
X122679927Y-101075871D02*
X122706847Y-101117659D01*
X122684457Y-25443985D02*
X122710690Y-25485411D01*
X122684457Y-105555824D02*
X122656223Y-105595913D01*
X122706847Y-29882150D02*
X122679927Y-29923938D01*
X122706847Y-62117659D02*
X122731654Y-62160735D01*
X122706847Y-68882150D02*
X122679927Y-68923938D01*
X122706847Y-101117659D02*
X122731654Y-101160735D01*
X122710690Y-25485411D02*
X122734858Y-25528074D01*
X122710690Y-105514398D02*
X122684457Y-105555824D01*
X122731654Y-29839074D02*
X122706847Y-29882150D01*
X122731654Y-62160735D02*
X122754289Y-62204991D01*
X122731654Y-68839074D02*
X122706847Y-68882150D01*
X122731654Y-101160735D02*
X122754289Y-101204991D01*
X122734858Y-25528074D02*
X122756904Y-25571872D01*
X122734858Y-105471735D02*
X122710690Y-105514398D01*
X122754289Y-29794818D02*
X122731654Y-29839074D01*
X122754289Y-62204991D02*
X122774693Y-62250319D01*
X122754289Y-68794818D02*
X122731654Y-68839074D01*
X122754289Y-101204991D02*
X122774693Y-101250319D01*
X122756904Y-25571872D02*
X122776775Y-25616699D01*
X122756904Y-105427937D02*
X122734858Y-105471735D01*
X122774693Y-29749490D02*
X122754289Y-29794818D01*
X122774693Y-62250319D02*
X122792818Y-62296605D01*
X122774693Y-68749490D02*
X122754289Y-68794818D01*
X122774693Y-101250319D02*
X122792818Y-101296605D01*
X122776775Y-25616699D02*
X122794422Y-25662447D01*
X122776775Y-105383110D02*
X122756904Y-105427937D01*
X122792818Y-29703204D02*
X122774693Y-29749490D01*
X122792818Y-62296605D02*
X122808618Y-62343736D01*
X122792818Y-68703204D02*
X122774693Y-68749490D01*
X122792818Y-101296605D02*
X122808618Y-101343736D01*
X122794422Y-25662447D02*
X122809802Y-25709005D01*
X122794422Y-105337362D02*
X122776775Y-105383110D01*
X122808618Y-29656073D02*
X122792818Y-29703204D01*
X122808618Y-62343736D02*
X122822054Y-62391594D01*
X122808618Y-68656073D02*
X122792818Y-68703204D01*
X122808618Y-101343736D02*
X122822054Y-101391594D01*
X122809802Y-25709005D02*
X122822880Y-25756262D01*
X122809802Y-105290804D02*
X122794422Y-105337362D01*
X122822054Y-29608215D02*
X122808618Y-29656073D01*
X122822054Y-62391594D02*
X122833093Y-62440062D01*
X122822054Y-68608215D02*
X122808618Y-68656073D01*
X122822054Y-101391594D02*
X122833093Y-101440062D01*
X122822880Y-25756262D02*
X122833624Y-25804104D01*
X122822880Y-105243547D02*
X122809802Y-105290804D01*
X122833093Y-29559747D02*
X122822054Y-29608215D01*
X122833093Y-62440062D02*
X122841707Y-62489018D01*
X122833093Y-68559747D02*
X122822054Y-68608215D01*
X122833093Y-101440062D02*
X122841707Y-101489018D01*
X122833624Y-25804104D02*
X122842006Y-25852416D01*
X122833624Y-105195705D02*
X122822880Y-105243547D01*
X122841707Y-29510791D02*
X122833093Y-29559747D01*
X122841707Y-62489018D02*
X122847875Y-62538342D01*
X122841707Y-68510791D02*
X122833093Y-68559747D01*
X122841707Y-101489018D02*
X122847875Y-101538342D01*
X122842006Y-25852416D02*
X122848009Y-25901080D01*
X122842006Y-105147393D02*
X122833624Y-105195705D01*
X122847875Y-29461467D02*
X122841707Y-29510791D01*
X122847875Y-62538342D02*
X122851582Y-62587913D01*
X122847875Y-68461467D02*
X122841707Y-68510791D01*
X122847875Y-101538342D02*
X122851582Y-101587913D01*
X122848009Y-25901080D02*
X122851616Y-25949981D01*
X122848009Y-105098729D02*
X122842006Y-105147393D01*
X122851582Y-29411896D02*
X122847875Y-29461467D01*
X122851582Y-62587913D02*
X122852819Y-62637618D01*
X122851582Y-68411896D02*
X122847875Y-68461467D01*
X122851582Y-101587913D02*
X122852819Y-101637618D01*
X122851616Y-25949981D02*
X122852819Y-25999012D01*
X122851616Y-105049828D02*
X122848009Y-105098729D01*
X122852819Y-25999012D02*
X122852819Y-29362191D01*
X122852819Y-29362191D02*
X122851582Y-29411896D01*
X122852819Y-62637618D02*
X122852819Y-68362191D01*
X122852819Y-68362191D02*
X122851582Y-68411896D01*
X122852819Y-101637618D02*
X122852819Y-105000797D01*
X122852819Y-105000797D02*
X122851616Y-105049828D01*
X125852819Y-25999012D02*
X125854023Y-25949981D01*
X125852819Y-27470294D02*
X125852819Y-25999012D01*
X125852819Y-64529515D02*
X125853999Y-64480977D01*
X125852819Y-66470294D02*
X125852819Y-64529515D01*
X125852819Y-103529515D02*
X125853999Y-103480977D01*
X125852819Y-105000797D02*
X125852819Y-103529515D01*
X125853999Y-27518832D02*
X125852819Y-27470294D01*
X125853999Y-64480977D02*
X125857534Y-64432565D01*
X125853999Y-66518832D02*
X125852819Y-66470294D01*
X125853999Y-103480977D02*
X125857534Y-103432565D01*
X125854023Y-25949981D02*
X125857630Y-25901080D01*
X125854023Y-105049828D02*
X125852819Y-105000797D01*
X125857534Y-27567244D02*
X125853999Y-27518832D01*
X125857534Y-64432565D02*
X125863416Y-64384382D01*
X125857534Y-66567244D02*
X125853999Y-66518832D01*
X125857534Y-103432565D02*
X125863416Y-103384382D01*
X125857630Y-25901080D02*
X125863632Y-25852416D01*
X125857630Y-105098729D02*
X125854023Y-105049828D01*
X125863416Y-27615427D02*
X125857534Y-27567244D01*
X125863416Y-64384382D02*
X125871632Y-64336542D01*
X125863416Y-66615427D02*
X125857534Y-66567244D01*
X125863416Y-103384382D02*
X125871632Y-103336542D01*
X125863632Y-25852416D02*
X125872015Y-25804104D01*
X125863632Y-105147393D02*
X125857630Y-105098729D01*
X125871632Y-27663267D02*
X125863416Y-27615427D01*
X125871632Y-64336542D02*
X125882163Y-64289157D01*
X125871632Y-66663267D02*
X125863416Y-66615427D01*
X125871632Y-103336542D02*
X125882163Y-103289157D01*
X125872015Y-25804104D02*
X125882758Y-25756262D01*
X125872015Y-105195705D02*
X125863632Y-105147393D01*
X125882163Y-27710652D02*
X125871632Y-27663267D01*
X125882163Y-64289157D02*
X125894982Y-64242340D01*
X125882163Y-66710652D02*
X125871632Y-66663267D01*
X125882163Y-103289157D02*
X125894982Y-103242340D01*
X125882758Y-25756262D02*
X125895836Y-25709005D01*
X125882758Y-105243547D02*
X125872015Y-105195705D01*
X125894982Y-27757469D02*
X125882163Y-27710652D01*
X125894982Y-64242340D02*
X125910060Y-64196200D01*
X125894982Y-66757469D02*
X125882163Y-66710652D01*
X125894982Y-103242340D02*
X125910060Y-103196200D01*
X125895836Y-25709005D02*
X125911217Y-25662447D01*
X125895836Y-105290804D02*
X125882758Y-105243547D01*
X125910060Y-27803609D02*
X125894982Y-27757469D01*
X125910060Y-64196200D02*
X125927362Y-64150848D01*
X125910060Y-66803609D02*
X125894982Y-66757469D01*
X125910060Y-103196200D02*
X125927362Y-103150848D01*
X125911217Y-25662447D02*
X125928864Y-25616699D01*
X125911217Y-105337362D02*
X125895836Y-105290804D01*
X125927362Y-27848961D02*
X125910060Y-27803609D01*
X125927362Y-64150848D02*
X125946847Y-64106390D01*
X125927362Y-66848961D02*
X125910060Y-66803609D01*
X125927362Y-103150848D02*
X125946847Y-103106390D01*
X125928864Y-25616699D02*
X125948734Y-25571872D01*
X125928864Y-105383110D02*
X125911217Y-105337362D01*
X125946847Y-27893419D02*
X125927362Y-27848961D01*
X125946847Y-64106390D02*
X125968468Y-64062930D01*
X125946847Y-66893419D02*
X125927362Y-66848961D01*
X125946847Y-103106390D02*
X125968468Y-103062930D01*
X125948734Y-25571872D02*
X125970780Y-25528074D01*
X125948734Y-105427937D02*
X125928864Y-105383110D01*
X125968468Y-27936879D02*
X125946847Y-27893419D01*
X125968468Y-64062930D02*
X125992174Y-64020572D01*
X125968468Y-66936879D02*
X125946847Y-66893419D01*
X125968468Y-103062930D02*
X125992174Y-103020572D01*
X125970780Y-25528074D02*
X125994949Y-25485411D01*
X125970780Y-105471735D02*
X125948734Y-105427937D01*
X125992174Y-27979237D02*
X125968468Y-27936879D01*
X125992174Y-64020572D02*
X126017910Y-63979416D01*
X125992174Y-66979237D02*
X125968468Y-66936879D01*
X125992174Y-103020572D02*
X126017910Y-102979416D01*
X125994949Y-25485411D02*
X126021181Y-25443985D01*
X125994949Y-105514398D02*
X125970780Y-105471735D01*
X126017910Y-28020393D02*
X125992174Y-27979237D01*
X126017910Y-63979416D02*
X126045615Y-63939558D01*
X126017910Y-67020393D02*
X125992174Y-66979237D01*
X126017910Y-102979416D02*
X126045615Y-102939558D01*
X126021181Y-25443985D02*
X126049415Y-25403896D01*
X126021181Y-105555824D02*
X125994949Y-105514398D01*
X126045615Y-28060251D02*
X126017910Y-28020393D01*
X126045615Y-63939558D02*
X126075223Y-63901093D01*
X126045615Y-67060251D02*
X126017910Y-67020393D01*
X126045615Y-102939558D02*
X126075223Y-102901093D01*
X126049415Y-25403896D02*
X126079582Y-25365241D01*
X126049415Y-105595913D02*
X126021181Y-105555824D01*
X126075223Y-28098716D02*
X126045615Y-28060251D01*
X126075223Y-63901093D02*
X126106665Y-63864112D01*
X126075223Y-67098716D02*
X126045615Y-67060251D01*
X126075223Y-102901093D02*
X126106665Y-102864112D01*
X126079582Y-25365241D02*
X126111609Y-25328112D01*
X126079582Y-105634568D02*
X126049415Y-105595913D01*
X126106665Y-28135697D02*
X126075223Y-28098716D01*
X126106665Y-63864112D02*
X126139866Y-63828702D01*
X126106665Y-67135697D02*
X126075223Y-67098716D01*
X126106665Y-102864112D02*
X126139866Y-102828702D01*
X126111609Y-25328112D02*
X126145420Y-25292600D01*
X126111609Y-105671697D02*
X126079582Y-105634568D01*
X126139866Y-28171107D02*
X126106665Y-28135697D01*
X126139866Y-63828702D02*
X126174748Y-63794946D01*
X126139866Y-67171107D02*
X126106665Y-67135697D01*
X126139866Y-102828702D02*
X126174748Y-102794946D01*
X126145420Y-25292600D02*
X126180932Y-25258789D01*
X126145420Y-105707209D02*
X126111609Y-105671697D01*
X126174748Y-28204863D02*
X126139866Y-28171107D01*
X126174748Y-63794946D02*
X126211228Y-63762924D01*
X126174748Y-67204863D02*
X126139866Y-67171107D01*
X126174748Y-102794946D02*
X126211228Y-102762924D01*
X126180932Y-25258789D02*
X126218061Y-25226762D01*
X126180932Y-105741020D02*
X126145420Y-105707209D01*
X126211228Y-28236885D02*
X126174748Y-28204863D01*
X126211228Y-63762924D02*
X126249221Y-63732712D01*
X126211228Y-67236885D02*
X126174748Y-67204863D01*
X126211228Y-102762924D02*
X126249221Y-102732712D01*
X126218061Y-25226762D02*
X126256716Y-25196595D01*
X126218061Y-105773047D02*
X126180932Y-105741020D01*
X126249221Y-28267097D02*
X126211228Y-28236885D01*
X126249221Y-63732712D02*
X126288636Y-63704382D01*
X126249221Y-67267097D02*
X126211228Y-67236885D01*
X126249221Y-102732712D02*
X126288636Y-102704382D01*
X126256716Y-25196595D02*
X126296805Y-25168361D01*
X126256716Y-105803214D02*
X126218061Y-105773047D01*
X126288636Y-28295427D02*
X126249221Y-28267097D01*
X126288636Y-63704382D02*
X126329381Y-63677999D01*
X126288636Y-67295427D02*
X126249221Y-67267097D01*
X126288636Y-102704382D02*
X126329381Y-102677999D01*
X126296805Y-25168361D02*
X126338231Y-25142129D01*
X126296805Y-105831448D02*
X126256716Y-105803214D01*
X126329381Y-28321810D02*
X126288636Y-28295427D01*
X126329381Y-63677999D02*
X126371359Y-63653627D01*
X126329381Y-67321810D02*
X126288636Y-67295427D01*
X126329381Y-102677999D02*
X126371359Y-102653627D01*
X126338231Y-25142129D02*
X126380894Y-25117960D01*
X126338231Y-105857680D02*
X126296805Y-105831448D01*
X126371359Y-28346182D02*
X126329381Y-28321810D01*
X126371359Y-63653627D02*
X126414472Y-63631323D01*
X126371359Y-67346182D02*
X126329381Y-67321810D01*
X126371359Y-102653627D02*
X126414472Y-102631323D01*
X126380894Y-25117960D02*
X126424692Y-25095914D01*
X126380894Y-105881849D02*
X126338231Y-105857680D01*
X126414472Y-28368486D02*
X126371359Y-28346182D01*
X126414472Y-63631323D02*
X126458617Y-63611139D01*
X126414472Y-67368486D02*
X126371359Y-67346182D01*
X126414472Y-102631323D02*
X126458617Y-102611139D01*
X126424692Y-25095914D02*
X126469519Y-25076044D01*
X126424692Y-105903895D02*
X126380894Y-105881849D01*
X126458617Y-28388670D02*
X126414472Y-28368486D01*
X126458617Y-63611139D02*
X126503691Y-63593123D01*
X126458617Y-67388670D02*
X126414472Y-67368486D01*
X126458617Y-102611139D02*
X126503691Y-102593123D01*
X126469519Y-25076044D02*
X126515266Y-25058397D01*
X126469519Y-105923765D02*
X126424692Y-105903895D01*
X126503691Y-28406686D02*
X126458617Y-28388670D01*
X126503691Y-63593123D02*
X126549586Y-63577318D01*
X126503691Y-67406686D02*
X126458617Y-67388670D01*
X126503691Y-102593123D02*
X126549586Y-102577318D01*
X126515266Y-25058397D02*
X126561825Y-25043016D01*
X126515266Y-105941412D02*
X126469519Y-105923765D01*
X126549586Y-28422491D02*
X126503691Y-28406686D01*
X126549586Y-63577318D02*
X126596196Y-63563761D01*
X126549586Y-67422491D02*
X126503691Y-67406686D01*
X126549586Y-102577318D02*
X126596196Y-102563761D01*
X126561825Y-25043016D02*
X126609082Y-25029938D01*
X126561825Y-105956793D02*
X126515266Y-105941412D01*
X126596196Y-28436048D02*
X126549586Y-28422491D01*
X126596196Y-63563761D02*
X126643408Y-63552484D01*
X126596196Y-67436048D02*
X126549586Y-67422491D01*
X126596196Y-102563761D02*
X126643408Y-102552484D01*
X126609082Y-25029938D02*
X126656924Y-25019195D01*
X126609082Y-105969871D02*
X126561825Y-105956793D01*
X126643408Y-28447325D02*
X126596196Y-28436048D01*
X126643408Y-63552484D02*
X126691113Y-63543514D01*
X126643408Y-67447325D02*
X126596196Y-67436048D01*
X126643408Y-102552484D02*
X126691113Y-102543514D01*
X126656924Y-25019195D02*
X126705236Y-25010812D01*
X126656924Y-105980614D02*
X126609082Y-105969871D01*
X126691113Y-28456295D02*
X126643408Y-28447325D01*
X126691113Y-63543514D02*
X126739197Y-63536872D01*
X126691113Y-67456295D02*
X126643408Y-67447325D01*
X126691113Y-102543514D02*
X126739197Y-102536872D01*
X126705236Y-25010812D02*
X126753900Y-25004810D01*
X126705236Y-105988997D02*
X126656924Y-105980614D01*
X126739197Y-28462937D02*
X126691113Y-28456295D01*
X126739197Y-63536872D02*
X126787547Y-63532573D01*
X126739197Y-67462937D02*
X126691113Y-67456295D01*
X126739197Y-102536872D02*
X126787547Y-102532573D01*
X126753900Y-25004810D02*
X126802801Y-25001203D01*
X126753900Y-105994999D02*
X126705236Y-105988997D01*
X126787547Y-28467236D02*
X126739197Y-28462937D01*
X126787547Y-63532573D02*
X126836048Y-63530628D01*
X126787547Y-67467236D02*
X126739197Y-67462937D01*
X126787547Y-102532573D02*
X126836048Y-102530628D01*
X126802801Y-25001203D02*
X126851832Y-24999999D01*
X126802801Y-105998606D02*
X126753900Y-105994999D01*
X126836048Y-28469181D02*
X126787547Y-28467236D01*
X126836048Y-63530628D02*
X126884587Y-63531041D01*
X126836048Y-67469181D02*
X126787547Y-67467236D01*
X126836048Y-102530628D02*
X126884587Y-102531041D01*
X126851832Y-24999999D02*
X133176004Y-24999999D01*
X126851832Y-105999810D02*
X126802801Y-105998606D01*
X126884587Y-28468768D02*
X126836048Y-28469181D01*
X126884587Y-63531041D02*
X126933049Y-63533811D01*
X126884587Y-67468768D02*
X126836048Y-67469181D01*
X126884587Y-102531041D02*
X126933049Y-102533811D01*
X126933049Y-28465998D02*
X126884587Y-28468768D01*
X126933049Y-63533811D02*
X126981318Y-63538932D01*
X126933049Y-67465998D02*
X126884587Y-67468768D01*
X126933049Y-102533811D02*
X126981318Y-102538932D01*
X126981318Y-28460877D02*
X126933049Y-28465998D01*
X126981318Y-63538932D02*
X127029282Y-63546392D01*
X126981318Y-67460877D02*
X126933049Y-67465998D01*
X126981318Y-102538932D02*
X127029282Y-102546392D01*
X127029282Y-28453417D02*
X126981318Y-28460877D01*
X127029282Y-63546392D02*
X127420643Y-63635019D01*
X127029282Y-67453417D02*
X126981318Y-67460877D01*
X127029282Y-102546392D02*
X127420643Y-102635019D01*
X127076839Y-67443634D02*
X127029282Y-67453417D01*
X127420643Y-28364790D02*
X127029282Y-28453417D01*
X127420643Y-63635019D02*
X128302352Y-63792485D01*
X127420643Y-102635019D02*
X128302352Y-102792485D01*
X127420668Y-67364785D02*
X127076839Y-67443634D01*
X128302352Y-28207324D02*
X127420643Y-28364790D01*
X128302352Y-63792485D02*
X129190753Y-63905892D01*
X128302352Y-67207324D02*
X127420668Y-67364785D01*
X128302352Y-102792485D02*
X129190753Y-102905892D01*
X129190753Y-28093917D02*
X128302352Y-28207324D01*
X129190753Y-63905892D02*
X130058930Y-63973653D01*
X129190753Y-67093917D02*
X128302352Y-67207324D01*
X129190753Y-102905892D02*
X130058930Y-102973653D01*
X130058930Y-28026156D02*
X129190753Y-28093917D01*
X130058930Y-63973653D02*
X130954193Y-63999460D01*
X130058930Y-102973653D02*
X130954193Y-102999460D01*
X130083721Y-67024841D02*
X129190753Y-67093917D01*
X130954193Y-28000349D02*
X130058930Y-28026156D01*
X130954193Y-63999460D02*
X131849606Y-63980703D01*
X130954193Y-67000349D02*
X130083721Y-67024841D01*
X130954193Y-102999460D02*
X131849606Y-102980703D01*
X131225757Y-46042774D02*
X131232013Y-45674891D01*
X131225757Y-85042774D02*
X131232013Y-84674891D01*
X131226170Y-46093149D02*
X131225757Y-46042774D01*
X131226170Y-85093149D02*
X131225757Y-85042774D01*
X131232013Y-45674891D02*
X131234138Y-45624560D01*
X131232013Y-84674891D02*
X131234138Y-84624560D01*
X131234138Y-45624560D02*
X131258922Y-45257459D01*
X131234138Y-84624560D02*
X131258922Y-84257459D01*
X131238458Y-46460880D02*
X131226170Y-46093149D01*
X131238458Y-85460880D02*
X131226170Y-85093149D01*
X131241409Y-46511169D02*
X131238458Y-46460880D01*
X131241409Y-85511169D02*
X131238458Y-85460880D01*
X131258922Y-45257459D02*
X131263580Y-45207300D01*
X131258922Y-84257459D02*
X131263580Y-84207300D01*
X131263580Y-45207300D02*
X131306829Y-44841914D01*
X131263580Y-84207300D02*
X131306829Y-83841914D01*
X131272209Y-46877814D02*
X131241409Y-46511169D01*
X131272209Y-85877814D02*
X131241409Y-85511169D01*
X131277690Y-46927891D02*
X131272209Y-46877814D01*
X131277690Y-85927891D02*
X131272209Y-85877814D01*
X131306829Y-44841914D02*
X131314009Y-44792052D01*
X131306829Y-83841914D02*
X131314009Y-83792052D01*
X131314009Y-44792052D02*
X131375612Y-44429310D01*
X131314009Y-83792052D02*
X131375612Y-83429310D01*
X131326925Y-47292518D02*
X131277690Y-46927891D01*
X131326925Y-86292518D02*
X131277690Y-85927891D01*
X131334922Y-47342255D02*
X131326925Y-47292518D01*
X131334922Y-86342255D02*
X131326925Y-86292518D01*
X131375612Y-44429310D02*
X131385296Y-44379873D01*
X131375612Y-83429310D02*
X131385296Y-83379873D01*
X131385296Y-44379873D02*
X131465098Y-44020695D01*
X131385296Y-83379873D02*
X131465098Y-83020695D01*
X131402466Y-47703939D02*
X131334922Y-47342255D01*
X131402466Y-86703939D02*
X131334922Y-86342255D01*
X131412959Y-47753210D02*
X131402466Y-47703939D01*
X131412959Y-86753210D02*
X131402466Y-86703939D01*
X131465098Y-44020695D02*
X131477259Y-43971810D01*
X131465098Y-83020695D02*
X131477259Y-82971810D01*
X131477259Y-43971810D02*
X131575057Y-43617109D01*
X131477259Y-82971810D02*
X131575057Y-82617109D01*
X131498641Y-48111031D02*
X131412959Y-47753210D01*
X131498641Y-87111031D02*
X131412959Y-86753210D01*
X131511602Y-48159710D02*
X131498641Y-48111031D01*
X131511602Y-87159710D02*
X131498641Y-87111031D01*
X131575057Y-43617109D02*
X131589667Y-43568898D01*
X131575057Y-82617109D02*
X131589667Y-82568898D01*
X131589667Y-43568898D02*
X131705212Y-43219575D01*
X131589667Y-82568898D02*
X131705212Y-82219575D01*
X131615204Y-48512760D02*
X131511602Y-48159710D01*
X131615204Y-87512760D02*
X131511602Y-87159710D01*
X131630602Y-48560724D02*
X131615204Y-48512760D01*
X131630602Y-87560724D02*
X131615204Y-87512760D01*
X131705212Y-43219575D02*
X131722232Y-43172161D01*
X131705212Y-82219575D02*
X131722232Y-82172161D01*
X131722232Y-43172161D02*
X131855231Y-42829104D01*
X131722232Y-82172161D02*
X131855231Y-81829104D01*
X131751861Y-48908105D02*
X131630602Y-48560724D01*
X131751861Y-87908105D02*
X131630602Y-87560724D01*
X131769656Y-48955233D02*
X131751861Y-48908105D01*
X131769656Y-87955233D02*
X131751861Y-87908105D01*
X131849606Y-28019106D02*
X130954193Y-28000349D01*
X131849606Y-63980703D02*
X132743003Y-63917428D01*
X131849606Y-67019106D02*
X130954193Y-67000349D01*
X131849606Y-102980703D02*
X132743003Y-102917428D01*
X131855231Y-42829104D02*
X131874618Y-42782608D01*
X131855231Y-81829104D02*
X131874618Y-81782608D01*
X131874618Y-42782608D02*
X132024733Y-42446687D01*
X131874618Y-81782608D02*
X132024733Y-81446687D01*
X131908263Y-49296064D02*
X131769656Y-48955233D01*
X131908263Y-88296064D02*
X131769656Y-87955233D01*
X131928411Y-49342235D02*
X131908263Y-49296064D01*
X131928411Y-88342235D02*
X131908263Y-88296064D01*
X132024733Y-42446687D02*
X132046439Y-42401228D01*
X132024733Y-81446687D02*
X132046439Y-81401228D01*
X132046439Y-42401228D02*
X132213288Y-42073297D01*
X132046439Y-81401228D02*
X132213288Y-81073297D01*
X132084015Y-49675649D02*
X131928411Y-49342235D01*
X132084015Y-88675649D02*
X131928411Y-88342235D01*
X132106463Y-49720746D02*
X132084015Y-49675649D01*
X132106463Y-88720746D02*
X132084015Y-88675649D01*
X132213288Y-42073297D02*
X132237257Y-42028989D01*
X132213288Y-81073297D02*
X132237257Y-81028989D01*
X132237257Y-42028989D02*
X132420417Y-41709882D01*
X132237257Y-81028989D02*
X132420417Y-80709882D01*
X132278668Y-50045896D02*
X132106463Y-49720746D01*
X132278668Y-89045896D02*
X132106463Y-88720746D01*
X132303360Y-50089806D02*
X132278668Y-50045896D01*
X132303360Y-89089806D02*
X132278668Y-89045896D01*
X132420417Y-41709882D02*
X132446588Y-41666837D01*
X132420417Y-80709882D02*
X132446588Y-80666837D01*
X132446588Y-41666837D02*
X132645594Y-41357364D01*
X132446588Y-80666837D02*
X132645594Y-80357364D01*
X132491729Y-50405866D02*
X132303360Y-50089806D01*
X132491729Y-89405866D02*
X132303360Y-89089806D01*
X132518602Y-50448476D02*
X132491729Y-50405866D01*
X132518602Y-89448476D02*
X132491729Y-89405866D01*
X132645594Y-41357364D02*
X132673900Y-41315692D01*
X132645594Y-80357364D02*
X132673900Y-80315692D01*
X132673900Y-41315692D02*
X132888246Y-41016639D01*
X132673900Y-80315692D02*
X132888246Y-80016639D01*
X132722657Y-50754644D02*
X132518602Y-50448476D01*
X132722657Y-89754644D02*
X132518602Y-89448476D01*
X132743003Y-28082381D02*
X131849606Y-28019106D01*
X132743003Y-63917428D02*
X133104750Y-63875252D01*
X132743003Y-67082381D02*
X131849606Y-67019106D01*
X132743003Y-102917428D02*
X133104750Y-102875252D01*
X132751642Y-50795845D02*
X132722657Y-50754644D01*
X132751642Y-89795845D02*
X132722657Y-89754644D01*
X132888246Y-41016639D02*
X132918616Y-40976447D01*
X132888246Y-80016639D02*
X132918616Y-79976447D01*
X132918616Y-40976447D02*
X133147757Y-40688573D01*
X132918616Y-79976447D02*
X133147757Y-79688573D01*
X132970864Y-51091343D02*
X132751642Y-50795845D01*
X132970864Y-90091343D02*
X132751642Y-89795845D01*
X133001889Y-51131032D02*
X132970864Y-51091343D01*
X133001889Y-90131032D02*
X132970864Y-90091343D01*
X133055260Y-28119777D02*
X132743003Y-28082381D01*
X133104750Y-28124557D02*
X133055260Y-28119777D01*
X133104750Y-63875252D02*
X133154405Y-63872941D01*
X133104750Y-67124557D02*
X132743003Y-67082381D01*
X133104750Y-102875252D02*
X133154405Y-102872941D01*
X133147757Y-40688573D02*
X133180114Y-40649962D01*
X133147757Y-79688573D02*
X133180114Y-79649962D01*
X133154405Y-28126868D02*
X133104750Y-28124557D01*
X133154405Y-63872941D02*
X133204113Y-63873102D01*
X133154405Y-67126868D02*
X133104750Y-67124557D01*
X133154405Y-102872941D02*
X133204113Y-102873102D01*
X133176004Y-24999999D02*
X133225035Y-25001203D01*
X133176004Y-105999810D02*
X126851832Y-105999810D01*
X133180114Y-40649962D02*
X133423469Y-40374000D01*
X133180114Y-79649962D02*
X133423469Y-79374000D01*
X133204113Y-28126707D02*
X133154405Y-28126868D01*
X133204113Y-63873102D02*
X133253752Y-63875736D01*
X133204113Y-67126707D02*
X133154405Y-67126868D01*
X133204113Y-102873102D02*
X133253752Y-102875736D01*
X133225035Y-25001203D02*
X133273936Y-25004810D01*
X133225035Y-105998606D02*
X133176004Y-105999810D01*
X133235721Y-51415109D02*
X133001889Y-51131032D01*
X133235721Y-90415109D02*
X133001889Y-90131032D01*
X133253752Y-28124073D02*
X133204113Y-28126707D01*
X133253752Y-63875736D02*
X133303198Y-63880836D01*
X133253752Y-67124073D02*
X133204113Y-67126707D01*
X133253752Y-102875736D02*
X133303198Y-102880836D01*
X133268706Y-51453184D02*
X133235721Y-51415109D01*
X133268706Y-90453184D02*
X133235721Y-90415109D01*
X133273936Y-25004810D02*
X133322600Y-25010812D01*
X133273936Y-105994999D02*
X133225035Y-105998606D01*
X133303198Y-28118973D02*
X133253752Y-28124073D01*
X133303198Y-63880836D02*
X133352330Y-63888389D01*
X133303198Y-67118973D02*
X133253752Y-67124073D01*
X133303198Y-102880836D02*
X133352330Y-102888389D01*
X133322600Y-25010812D02*
X133370912Y-25019195D01*
X133322600Y-105988997D02*
X133273936Y-105994999D01*
X133352330Y-28111420D02*
X133303198Y-28118973D01*
X133352330Y-63888389D02*
X133401025Y-63898376D01*
X133352330Y-67111420D02*
X133303198Y-67118973D01*
X133352330Y-102888389D02*
X133401025Y-102898376D01*
X133370912Y-25019195D02*
X133418754Y-25029938D01*
X133370912Y-105980614D02*
X133322600Y-105988997D01*
X133401025Y-28101433D02*
X133352330Y-28111420D01*
X133401025Y-63898376D02*
X133449162Y-63910774D01*
X133401025Y-67101433D02*
X133352330Y-67111420D01*
X133401025Y-102898376D02*
X133449162Y-102910774D01*
X133418754Y-25029938D02*
X133466011Y-25043016D01*
X133418754Y-105969871D02*
X133370912Y-105980614D01*
X133423469Y-40374000D02*
X133457729Y-40337068D01*
X133423469Y-79374000D02*
X133457729Y-79337068D01*
X133449162Y-28089035D02*
X133401025Y-28101433D01*
X133449162Y-63910774D02*
X133496624Y-63925550D01*
X133449162Y-67089035D02*
X133401025Y-67101433D01*
X133449162Y-102910774D02*
X133496624Y-102925550D01*
X133457729Y-40337068D02*
X133714680Y-40073717D01*
X133457729Y-79337068D02*
X133714680Y-79073717D01*
X133466011Y-25043016D02*
X133512569Y-25058397D01*
X133466011Y-105956793D02*
X133418754Y-105969871D01*
X133496624Y-28074259D02*
X133449162Y-28089035D01*
X133496624Y-63925550D02*
X133543292Y-63942670D01*
X133496624Y-67074259D02*
X133449162Y-67089035D01*
X133496624Y-102925550D02*
X133543292Y-102942670D01*
X133512569Y-25058397D02*
X133558317Y-25076044D01*
X133512569Y-105941412D02*
X133466011Y-105956793D01*
X133516554Y-51725119D02*
X133268706Y-51453184D01*
X133516554Y-90725119D02*
X133268706Y-90453184D01*
X133543292Y-28057139D02*
X133496624Y-28074259D01*
X133543292Y-63942670D02*
X133589050Y-63962089D01*
X133543292Y-67057139D02*
X133496624Y-67074259D01*
X133543292Y-102942670D02*
X133589050Y-102962089D01*
X133551415Y-51761483D02*
X133516554Y-51725119D01*
X133551415Y-90761483D02*
X133516554Y-90725119D01*
X133558317Y-25076044D02*
X133603144Y-25095914D01*
X133558317Y-105923765D02*
X133512569Y-105941412D01*
X133589050Y-28037720D02*
X133543292Y-28057139D01*
X133589050Y-63962089D02*
X133633786Y-63983761D01*
X133589050Y-67037720D02*
X133543292Y-67057139D01*
X133589050Y-102962089D02*
X133633786Y-102983761D01*
X133603144Y-25095914D02*
X133646942Y-25117960D01*
X133603144Y-105903895D02*
X133558317Y-105923765D01*
X133633786Y-28016048D02*
X133589050Y-28037720D01*
X133633786Y-63983761D02*
X133677388Y-64007631D01*
X133633786Y-67016048D02*
X133589050Y-67037720D01*
X133633786Y-102983761D02*
X133677388Y-103007631D01*
X133646942Y-25117960D02*
X133689605Y-25142129D01*
X133646942Y-105881849D02*
X133603144Y-105903895D01*
X133677388Y-27992178D02*
X133633786Y-28016048D01*
X133677388Y-64007631D02*
X133719749Y-64033640D01*
X133677388Y-66992178D02*
X133633786Y-67016048D01*
X133677388Y-103007631D02*
X133719749Y-103033640D01*
X133689605Y-25142129D02*
X133731031Y-25168361D01*
X133689605Y-105857680D02*
X133646942Y-105881849D01*
X133714680Y-40073717D02*
X133750757Y-40038559D01*
X133714680Y-79073717D02*
X133750757Y-79038559D01*
X133719749Y-27966169D02*
X133677388Y-27992178D01*
X133719749Y-64033640D02*
X133760764Y-64061724D01*
X133719749Y-66966169D02*
X133677388Y-66992178D01*
X133719749Y-103033640D02*
X133760764Y-103061724D01*
X133731031Y-25168361D02*
X133771120Y-25196595D01*
X133731031Y-105831448D02*
X133689605Y-105857680D01*
X133750757Y-40038559D02*
X134020650Y-39788489D01*
X133750757Y-79038559D02*
X134020650Y-78788489D01*
X133760764Y-27938085D02*
X133719749Y-27966169D01*
X133760764Y-64061724D02*
X133800331Y-64091814D01*
X133760764Y-66938085D02*
X133719749Y-66966169D01*
X133760764Y-103061724D02*
X133800331Y-103091814D01*
X133771120Y-25196595D02*
X133809775Y-25226762D01*
X133771120Y-105803214D02*
X133731031Y-105831448D01*
X133800331Y-27907995D02*
X133760764Y-27938085D01*
X133800331Y-64091814D02*
X133838352Y-64123835D01*
X133800331Y-66907995D02*
X133760764Y-66938085D01*
X133800331Y-103091814D02*
X133838352Y-103123835D01*
X133809775Y-25226762D02*
X133846904Y-25258789D01*
X133809775Y-105773047D02*
X133771120Y-105803214D01*
X133812650Y-52020585D02*
X133551415Y-51761483D01*
X133812650Y-91020585D02*
X133551415Y-90761483D01*
X133838352Y-27875974D02*
X133800331Y-27907995D01*
X133838352Y-64123835D02*
X133874733Y-64157707D01*
X133838352Y-66875974D02*
X133800331Y-66907995D01*
X133838352Y-103123835D02*
X133874733Y-103157707D01*
X133846904Y-25258789D02*
X133882416Y-25292600D01*
X133846904Y-105741020D02*
X133809775Y-105773047D01*
X133849300Y-52055147D02*
X133812650Y-52020585D01*
X133849300Y-91055147D02*
X133812650Y-91020585D01*
X133874733Y-27842102D02*
X133838352Y-27875974D01*
X133874733Y-64157707D02*
X133909385Y-64193347D01*
X133874733Y-66842102D02*
X133838352Y-66875974D01*
X133874733Y-103157707D02*
X133909385Y-103193347D01*
X133882416Y-25292600D02*
X133916226Y-25328112D01*
X133882416Y-105707209D02*
X133846904Y-105741020D01*
X133909385Y-27806462D02*
X133874733Y-27842102D01*
X133909385Y-64193347D02*
X133942221Y-64230667D01*
X133909385Y-66806462D02*
X133874733Y-66842102D01*
X133909385Y-103193347D02*
X133942221Y-103230667D01*
X133916226Y-25328112D02*
X133948254Y-25365241D01*
X133916226Y-105671697D02*
X133882416Y-105707209D01*
X133942221Y-27769142D02*
X133909385Y-27806462D01*
X133942221Y-64230667D02*
X133973159Y-64269574D01*
X133942221Y-66769142D02*
X133909385Y-66806462D01*
X133942221Y-103230667D02*
X133973159Y-103269574D01*
X133948254Y-25365241D02*
X133978421Y-25403896D01*
X133948254Y-105634568D02*
X133916226Y-105671697D01*
X133973159Y-27730235D02*
X133942221Y-27769142D01*
X133973159Y-64269574D02*
X134002124Y-64309971D01*
X133973159Y-66730235D02*
X133942221Y-66769142D01*
X133973159Y-103269574D02*
X134002124Y-103309971D01*
X133978421Y-25403896D02*
X134006654Y-25443985D01*
X133978421Y-105595913D02*
X133948254Y-105634568D01*
X134002124Y-27689838D02*
X133973159Y-27730235D01*
X134002124Y-64309971D02*
X134029044Y-64351760D01*
X134002124Y-66689838D02*
X133973159Y-66730235D01*
X134002124Y-103309971D02*
X134029044Y-103351760D01*
X134006654Y-25443985D02*
X134032887Y-25485411D01*
X134006654Y-105555824D02*
X133978421Y-105595913D01*
X134020650Y-39788489D02*
X134058454Y-39755193D01*
X134020650Y-78788489D02*
X134058454Y-78755193D01*
X134029044Y-27648049D02*
X134002124Y-27689838D01*
X134029044Y-64351760D02*
X134053852Y-64394836D01*
X134029044Y-66648049D02*
X134002124Y-66689838D01*
X134029044Y-103351760D02*
X134053852Y-103394836D01*
X134032887Y-25485411D02*
X134057056Y-25528074D01*
X134032887Y-105514398D02*
X134006654Y-105555824D01*
X134053852Y-27604973D02*
X134029044Y-27648049D01*
X134053852Y-64394836D02*
X134076486Y-64439092D01*
X134053852Y-66604973D02*
X134029044Y-66648049D01*
X134053852Y-103394836D02*
X134076486Y-103439092D01*
X134057056Y-25528074D02*
X134079102Y-25571872D01*
X134057056Y-105471735D02*
X134032887Y-105514398D01*
X134058454Y-39755193D02*
X134340604Y-39519039D01*
X134058454Y-78755193D02*
X134340604Y-78519039D01*
X134076486Y-27560717D02*
X134053852Y-27604973D01*
X134076486Y-64439092D02*
X134096891Y-64484420D01*
X134076486Y-66560717D02*
X134053852Y-66604973D01*
X134076486Y-103439092D02*
X134096891Y-103484420D01*
X134079102Y-25571872D02*
X134098972Y-25616699D01*
X134079102Y-105427937D02*
X134057056Y-105471735D01*
X134096891Y-27515389D02*
X134076486Y-27560717D01*
X134096891Y-64484420D02*
X134115015Y-64530706D01*
X134096891Y-66515389D02*
X134076486Y-66560717D01*
X134096891Y-103484420D02*
X134115015Y-103530706D01*
X134098972Y-25616699D02*
X134116619Y-25662447D01*
X134098972Y-105383110D02*
X134079102Y-105427937D01*
X134115015Y-27469103D02*
X134096891Y-27515389D01*
X134115015Y-64530706D02*
X134130815Y-64577837D01*
X134115015Y-66469103D02*
X134096891Y-66515389D01*
X134115015Y-103530706D02*
X134130815Y-103577837D01*
X134116619Y-25662447D02*
X134132000Y-25709005D01*
X134116619Y-105337362D02*
X134098972Y-105383110D01*
X134123258Y-52300757D02*
X133849300Y-52055147D01*
X134123258Y-91300757D02*
X133849300Y-91055147D01*
X134130815Y-27421972D02*
X134115015Y-27469103D01*
X134130815Y-64577837D02*
X134144251Y-64625695D01*
X134130815Y-66421972D02*
X134115015Y-66469103D01*
X134130815Y-103577837D02*
X134144251Y-103625695D01*
X134132000Y-25709005D02*
X134145077Y-25756262D01*
X134132000Y-105290804D02*
X134116619Y-105337362D01*
X134144251Y-27374114D02*
X134130815Y-27421972D01*
X134144251Y-64625695D02*
X134155290Y-64674162D01*
X134144251Y-66374114D02*
X134130815Y-66421972D01*
X134144251Y-103625695D02*
X134155290Y-103674162D01*
X134145077Y-25756262D02*
X134155821Y-25804104D01*
X134145077Y-105243547D02*
X134132000Y-105290804D01*
X134155290Y-27325647D02*
X134144251Y-27374114D01*
X134155290Y-64674162D02*
X134163904Y-64723119D01*
X134155290Y-66325647D02*
X134144251Y-66374114D01*
X134155290Y-103674162D02*
X134163904Y-103723119D01*
X134155821Y-25804104D02*
X134164204Y-25852416D01*
X134155821Y-105195705D02*
X134145077Y-105243547D01*
X134161602Y-52333429D02*
X134123258Y-52300757D01*
X134161602Y-91333429D02*
X134123258Y-91300757D01*
X134163904Y-27276690D02*
X134155290Y-27325647D01*
X134163904Y-64723119D02*
X134170072Y-64772443D01*
X134163904Y-66276690D02*
X134155290Y-66325647D01*
X134163904Y-103723119D02*
X134170072Y-103772443D01*
X134164204Y-25852416D02*
X134170206Y-25901080D01*
X134164204Y-105147393D02*
X134155821Y-105195705D01*
X134170072Y-27227366D02*
X134163904Y-27276690D01*
X134170072Y-64772443D02*
X134173780Y-64822013D01*
X134170072Y-66227366D02*
X134163904Y-66276690D01*
X134170072Y-103772443D02*
X134173780Y-103822013D01*
X134170206Y-25901080D02*
X134173813Y-25949981D01*
X134170206Y-105098729D02*
X134164204Y-105147393D01*
X134173780Y-27177796D02*
X134170072Y-27227366D01*
X134173780Y-64822013D02*
X134175017Y-64871719D01*
X134173780Y-66177796D02*
X134170072Y-66227366D01*
X134173780Y-103822013D02*
X134175017Y-103871719D01*
X134173813Y-25949981D02*
X134175017Y-25999012D01*
X134173813Y-105049828D02*
X134170206Y-105098729D01*
X134175017Y-25999012D02*
X134175017Y-27128090D01*
X134175017Y-27128090D02*
X134173780Y-27177796D01*
X134175017Y-64871719D02*
X134175017Y-66128090D01*
X134175017Y-66128090D02*
X134173780Y-66177796D01*
X134175017Y-103871719D02*
X134175017Y-105000797D01*
X134175017Y-105000797D02*
X134173813Y-105049828D01*
X134340604Y-39519039D02*
X134380037Y-39487690D01*
X134340604Y-78519039D02*
X134380037Y-78487690D01*
X134380037Y-39487690D02*
X134673727Y-39266052D01*
X134380037Y-78487690D02*
X134673727Y-78266052D01*
X134447587Y-52564923D02*
X134161602Y-52333429D01*
X134447587Y-91564923D02*
X134161602Y-91333429D01*
X134487529Y-52595621D02*
X134447587Y-52564923D01*
X134487529Y-91595621D02*
X134447587Y-91564923D01*
X134673727Y-39266052D02*
X134714689Y-39236730D01*
X134673727Y-78266052D02*
X134714689Y-78236730D01*
X134714689Y-39236730D02*
X135019174Y-39030171D01*
X134714689Y-78236730D02*
X135019174Y-78030171D01*
X134784814Y-52812413D02*
X134487529Y-52595621D01*
X134784814Y-91812413D02*
X134487529Y-91595621D01*
X134826252Y-52841059D02*
X134784814Y-52812413D01*
X134826252Y-91841059D02*
X134784814Y-91812413D01*
X135019174Y-39030171D02*
X135061562Y-39002950D01*
X135019174Y-78030171D02*
X135061562Y-78002950D01*
X135061562Y-39002950D02*
X135376067Y-38811995D01*
X135061562Y-78002950D02*
X135376067Y-77811995D01*
X135134083Y-53042596D02*
X134826252Y-52841059D01*
X135134083Y-92042596D02*
X134826252Y-91841059D01*
X135176912Y-53069119D02*
X135134083Y-53042596D01*
X135176912Y-92069119D02*
X135134083Y-92042596D01*
X135376067Y-38811995D02*
X135419772Y-38786944D01*
X135376067Y-77811995D02*
X135419772Y-77786944D01*
X135419772Y-38786944D02*
X135743499Y-38612079D01*
X135419772Y-77786944D02*
X135743499Y-77612079D01*
X135494506Y-53254890D02*
X135176912Y-53069119D01*
X135494506Y-92254890D02*
X135176912Y-92069119D01*
X135538617Y-53279221D02*
X135494506Y-53254890D01*
X135538617Y-92279221D02*
X135494506Y-92254890D01*
X135743499Y-38612079D02*
X135788411Y-38589261D01*
X135743499Y-77612079D02*
X135788411Y-77589261D01*
X135788411Y-38589261D02*
X136120538Y-38430929D01*
X135788411Y-77589261D02*
X136120538Y-77430929D01*
X135865168Y-53448754D02*
X135538617Y-53279221D01*
X135865168Y-92448754D02*
X135538617Y-92279221D01*
X135910448Y-53470832D02*
X135865168Y-53448754D01*
X135910448Y-92470832D02*
X135865168Y-92448754D01*
X136120538Y-38430929D02*
X136166542Y-38410404D01*
X136120538Y-77430929D02*
X136166542Y-77410404D01*
X136166542Y-38410404D02*
X136506225Y-38269006D01*
X136166542Y-77410404D02*
X136506225Y-77269006D01*
X136245127Y-53623696D02*
X135910448Y-53470832D01*
X136245127Y-92623696D02*
X135910448Y-92470832D01*
X136291462Y-53643464D02*
X136245127Y-53623696D01*
X136291462Y-92643464D02*
X136245127Y-92623696D01*
X136506225Y-38269006D02*
X136553205Y-38250825D01*
X136506225Y-77269006D02*
X136553205Y-77250825D01*
X136553205Y-38250825D02*
X136899580Y-38126722D01*
X136553205Y-77250825D02*
X136899580Y-77126722D01*
X136633417Y-53779272D02*
X136291462Y-53643464D01*
X136633417Y-92779272D02*
X136291462Y-92643464D01*
X136680689Y-53796680D02*
X136633417Y-53779272D01*
X136680689Y-92796680D02*
X136633417Y-92779272D01*
X136899580Y-38126722D02*
X136947417Y-38110931D01*
X136899580Y-77126722D02*
X136947417Y-77110931D01*
X136947417Y-38110931D02*
X137299604Y-38004438D01*
X136947417Y-77110931D02*
X137299604Y-77004438D01*
X137029053Y-53915086D02*
X136680689Y-53796680D01*
X137029053Y-92915086D02*
X136680689Y-92796680D01*
X137077143Y-53930090D02*
X137029053Y-53915086D01*
X137077143Y-92930090D02*
X137029053Y-92915086D01*
X137175017Y-25999012D02*
X137176220Y-25949981D01*
X137175017Y-28400646D02*
X137175017Y-25999012D01*
X137175017Y-63599163D02*
X137176267Y-63549187D01*
X137175017Y-67400646D02*
X137175017Y-63599163D01*
X137175017Y-102599163D02*
X137176267Y-102549187D01*
X137175017Y-105000797D02*
X137175017Y-102599163D01*
X137176220Y-25949981D02*
X137179827Y-25901080D01*
X137176220Y-105049828D02*
X137175017Y-105000797D01*
X137176267Y-28450622D02*
X137175017Y-28400646D01*
X137176267Y-63549187D02*
X137180014Y-63499349D01*
X137176267Y-67450622D02*
X137175017Y-67400646D01*
X137176267Y-102549187D02*
X137180014Y-102499349D01*
X137179827Y-25901080D02*
X137185829Y-25852416D01*
X137179827Y-105098729D02*
X137176220Y-105049828D01*
X137180014Y-28500460D02*
X137176267Y-28450622D01*
X137180014Y-63499349D02*
X137186250Y-63449761D01*
X137180014Y-67500460D02*
X137176267Y-67450622D01*
X137180014Y-102499349D02*
X137186250Y-102449761D01*
X137185829Y-25852416D02*
X137194212Y-25804104D01*
X137185829Y-105147393D02*
X137179827Y-105098729D01*
X137186250Y-28550048D02*
X137180014Y-28500460D01*
X137186250Y-63449761D02*
X137194957Y-63400546D01*
X137186250Y-67550048D02*
X137180014Y-67500460D01*
X137186250Y-102449761D02*
X137194957Y-102400546D01*
X137194212Y-25804104D02*
X137204956Y-25756262D01*
X137194212Y-105195705D02*
X137185829Y-105147393D01*
X137194957Y-28599263D02*
X137186250Y-28550048D01*
X137194957Y-63400546D02*
X137206115Y-63351829D01*
X137194957Y-67599263D02*
X137186250Y-67550048D01*
X137194957Y-102400546D02*
X137206115Y-102351829D01*
X137204956Y-25756262D02*
X137218033Y-25709005D01*
X137204956Y-105243547D02*
X137194212Y-105195705D01*
X137206115Y-28647980D02*
X137194957Y-28599263D01*
X137206115Y-63351829D02*
X137219696Y-63303731D01*
X137206115Y-67647980D02*
X137194957Y-67599263D01*
X137206115Y-102351829D02*
X137219696Y-102303731D01*
X137218033Y-25709005D02*
X137233414Y-25662447D01*
X137218033Y-105290804D02*
X137204956Y-105243547D01*
X137219696Y-28696078D02*
X137206115Y-28647980D01*
X137219696Y-63303731D02*
X137235665Y-63256372D01*
X137219696Y-67696078D02*
X137206115Y-67647980D01*
X137219696Y-102303731D02*
X137235665Y-102256372D01*
X137233414Y-25662447D02*
X137251061Y-25616699D01*
X137233414Y-105337362D02*
X137218033Y-105290804D01*
X137235665Y-28743437D02*
X137219696Y-28696078D01*
X137235665Y-63256372D02*
X137253983Y-63209871D01*
X137235665Y-67743437D02*
X137219696Y-67696078D01*
X137235665Y-102256372D02*
X137253983Y-102209871D01*
X137251061Y-25616699D02*
X137270931Y-25571872D01*
X137251061Y-105383110D02*
X137233414Y-105337362D01*
X137253983Y-28789938D02*
X137235665Y-28743437D01*
X137253983Y-63209871D02*
X137274603Y-63164344D01*
X137253983Y-67789938D02*
X137235665Y-67743437D01*
X137253983Y-102209871D02*
X137274603Y-102164344D01*
X137270931Y-25571872D02*
X137292977Y-25528074D01*
X137270931Y-105427937D02*
X137251061Y-105383110D01*
X137274603Y-28835465D02*
X137253983Y-28789938D01*
X137274603Y-63164344D02*
X137297475Y-63119906D01*
X137274603Y-67835465D02*
X137253983Y-67789938D01*
X137274603Y-102164344D02*
X137297475Y-102119906D01*
X137292977Y-25528074D02*
X137317146Y-25485411D01*
X137292977Y-105471735D02*
X137270931Y-105427937D01*
X137297475Y-28879903D02*
X137274603Y-28835465D01*
X137297475Y-63119906D02*
X137322540Y-63076667D01*
X137297475Y-67879903D02*
X137274603Y-67835465D01*
X137297475Y-102119906D02*
X137322540Y-102076667D01*
X137299604Y-38004438D02*
X137348178Y-37991077D01*
X137299604Y-77004438D02*
X137348178Y-76991077D01*
X137317146Y-25485411D02*
X137343379Y-25443985D01*
X137317146Y-105514398D02*
X137292977Y-105471735D01*
X137322540Y-28923142D02*
X137297475Y-28879903D01*
X137322540Y-63076667D02*
X137349737Y-63034736D01*
X137322540Y-67923142D02*
X137297475Y-67879903D01*
X137322540Y-102076667D02*
X137349737Y-102034736D01*
X137343379Y-25443985D02*
X137371612Y-25403896D01*
X137343379Y-105555824D02*
X137317146Y-105514398D01*
X137348178Y-37991077D02*
X137729554Y-37896162D01*
X137348178Y-76991077D02*
X137729465Y-76896191D01*
X137349737Y-28965073D02*
X137322540Y-28923142D01*
X137349737Y-63034736D02*
X137378997Y-62994217D01*
X137349737Y-67965073D02*
X137322540Y-67923142D01*
X137349737Y-102034736D02*
X137378997Y-101994217D01*
X137371612Y-25403896D02*
X137401779Y-25365241D01*
X137371612Y-105595913D02*
X137343379Y-105555824D01*
X137378997Y-29005592D02*
X137349737Y-28965073D01*
X137378997Y-62994217D02*
X137410246Y-62955213D01*
X137378997Y-68005592D02*
X137349737Y-67965073D01*
X137378997Y-101994217D02*
X137410246Y-101955213D01*
X137401779Y-25365241D02*
X137433807Y-25328112D01*
X137401779Y-105634568D02*
X137371612Y-105595913D01*
X137410246Y-29044596D02*
X137378997Y-29005592D01*
X137410246Y-62955213D02*
X137443408Y-62917820D01*
X137410246Y-68044596D02*
X137378997Y-68005592D01*
X137410246Y-101955213D02*
X137443408Y-101917820D01*
X137431030Y-54030793D02*
X137077143Y-53930090D01*
X137431030Y-93030793D02*
X137077143Y-92930090D01*
X137433807Y-25328112D02*
X137467617Y-25292600D01*
X137433807Y-105671697D02*
X137401779Y-105634568D01*
X137443408Y-29081989D02*
X137410246Y-29044596D01*
X137443408Y-62917820D02*
X137478397Y-62882133D01*
X137443408Y-68081989D02*
X137410246Y-68044596D01*
X137443408Y-101917820D02*
X137478397Y-101882133D01*
X137467617Y-25292600D02*
X137503129Y-25258789D01*
X137467617Y-105707209D02*
X137433807Y-105671697D01*
X137478397Y-29117676D02*
X137443408Y-29081989D01*
X137478397Y-62882133D02*
X137515128Y-62848240D01*
X137478397Y-68117676D02*
X137443408Y-68081989D01*
X137478397Y-101882133D02*
X137515128Y-101848240D01*
X137479814Y-54043356D02*
X137431030Y-54030793D01*
X137479814Y-93043356D02*
X137431030Y-93030793D01*
X137503129Y-25258789D02*
X137540258Y-25226762D01*
X137503129Y-105741020D02*
X137467617Y-105707209D01*
X137515128Y-29151569D02*
X137478397Y-29117676D01*
X137515128Y-62848240D02*
X137553508Y-62816227D01*
X137515128Y-68151569D02*
X137478397Y-68117676D01*
X137515128Y-101848240D02*
X137553508Y-101816227D01*
X137540258Y-25226762D02*
X137578913Y-25196595D01*
X137540258Y-105773047D02*
X137503129Y-105741020D01*
X137553508Y-29183582D02*
X137515128Y-29151569D01*
X137553508Y-62816227D02*
X137593441Y-62786173D01*
X137553508Y-68183582D02*
X137515128Y-68151569D01*
X137553508Y-101816227D02*
X137593441Y-101786173D01*
X137578913Y-25196595D02*
X137619002Y-25168361D01*
X137578913Y-105803214D02*
X137540258Y-105773047D01*
X137593441Y-29213636D02*
X137553508Y-29183582D01*
X137593441Y-62786173D02*
X137634827Y-62758154D01*
X137593441Y-68213636D02*
X137553508Y-68183582D01*
X137593441Y-101786173D02*
X137634827Y-101758154D01*
X137619002Y-25168361D02*
X137660428Y-25142129D01*
X137619002Y-105831448D02*
X137578913Y-105803214D01*
X137634827Y-29241655D02*
X137593441Y-29213636D01*
X137634827Y-62758154D02*
X137677563Y-62732240D01*
X137634827Y-68241655D02*
X137593441Y-68213636D01*
X137634827Y-101758154D02*
X137677563Y-101732240D01*
X137660428Y-25142129D02*
X137703091Y-25117960D01*
X137660428Y-105857680D02*
X137619002Y-105831448D01*
X137677563Y-29267569D02*
X137634827Y-29241655D01*
X137677563Y-62732240D02*
X137721541Y-62708495D01*
X137677563Y-68267569D02*
X137634827Y-68241655D01*
X137677563Y-101732240D02*
X137721541Y-101708495D01*
X137703091Y-25117960D02*
X137746889Y-25095914D01*
X137703091Y-105881849D02*
X137660428Y-105857680D01*
X137721541Y-29291314D02*
X137677563Y-29267569D01*
X137721541Y-62708495D02*
X137766652Y-62686980D01*
X137721541Y-68291314D02*
X137677563Y-68267569D01*
X137721541Y-101708495D02*
X137766652Y-101686980D01*
X137729465Y-76896191D02*
X137881717Y-76790730D01*
X137729554Y-37896162D02*
X137881717Y-37790730D01*
X137746889Y-25095914D02*
X137791716Y-25076044D01*
X137746889Y-105903895D02*
X137703091Y-105881849D01*
X137766652Y-29312829D02*
X137721541Y-29291314D01*
X137766652Y-62686980D02*
X137960646Y-62609737D01*
X137766652Y-68312829D02*
X137721541Y-68291314D01*
X137766652Y-101686980D02*
X137960646Y-101609737D01*
X137791716Y-25076044D02*
X137837464Y-25058397D01*
X137791716Y-105923765D02*
X137746889Y-105903895D01*
X137812794Y-29332066D02*
X137766652Y-29312829D01*
X137837464Y-25058397D02*
X137884022Y-25043016D01*
X137837464Y-105941412D02*
X137791716Y-105923765D01*
X137838326Y-54126100D02*
X137479814Y-54043356D01*
X137838326Y-93126100D02*
X137479814Y-93043356D01*
X137881717Y-37790730D02*
X138016697Y-37707344D01*
X137881717Y-76790730D02*
X138016697Y-76707344D01*
X137884022Y-25043016D02*
X137931279Y-25029938D01*
X137884022Y-105956793D02*
X137837464Y-105941412D01*
X137887681Y-54136189D02*
X137838326Y-54126100D01*
X137887681Y-93136189D02*
X137838326Y-93126100D01*
X137931279Y-25029938D02*
X137979121Y-25019195D01*
X137931279Y-105969871D02*
X137884022Y-105956793D01*
X137960646Y-29390072D02*
X137812794Y-29332066D01*
X137960646Y-62609737D02*
X138778282Y-62244178D01*
X137960646Y-68390072D02*
X137766652Y-68312829D01*
X137960646Y-101609737D02*
X138755848Y-101254867D01*
X137979121Y-25019195D02*
X138027433Y-25010812D01*
X137979121Y-105980614D02*
X137931279Y-105969871D01*
X138016697Y-37707344D02*
X138109071Y-37655759D01*
X138016697Y-76707344D02*
X138109071Y-76655759D01*
X138027433Y-25010812D02*
X138076097Y-25004810D01*
X138027433Y-105988997D02*
X137979121Y-105980614D01*
X138076097Y-25004810D02*
X138124998Y-25001203D01*
X138076097Y-105994999D02*
X138027433Y-105988997D01*
X138109071Y-37655759D02*
X138155897Y-37631212D01*
X138109071Y-76655759D02*
X138155897Y-76631212D01*
X138124998Y-25001203D02*
X138174029Y-24999999D01*
X138124998Y-105998606D02*
X138076097Y-105994999D01*
X138155897Y-37631212D02*
X138298928Y-37562547D01*
X138155897Y-76631212D02*
X138298928Y-76562547D01*
X138174029Y-24999999D02*
X158825970Y-24999999D01*
X138174029Y-105999810D02*
X138124998Y-105998606D01*
X138249906Y-54200764D02*
X137887681Y-54136189D01*
X138249906Y-93200764D02*
X137887681Y-93136189D01*
X138298928Y-37562547D02*
X138445390Y-37501541D01*
X138298928Y-76562547D02*
X138445390Y-76501541D01*
X138299707Y-54208353D02*
X138249906Y-54200764D01*
X138299707Y-93208353D02*
X138249906Y-93200764D01*
X138445390Y-37501541D02*
X138544756Y-37465204D01*
X138445390Y-76501541D02*
X138544756Y-76465204D01*
X138544756Y-37465204D02*
X138594873Y-37448366D01*
X138544756Y-76465204D02*
X138594873Y-76448366D01*
X138594873Y-37448366D02*
X138746959Y-37403169D01*
X138594873Y-76448366D02*
X138746959Y-76403169D01*
X138664726Y-54254596D02*
X138299707Y-54208353D01*
X138664726Y-93254596D02*
X138299707Y-93208353D01*
X138714846Y-54259666D02*
X138664726Y-54254596D01*
X138714846Y-93259666D02*
X138664726Y-93254596D01*
X138746959Y-37403169D02*
X138849607Y-37377529D01*
X138746959Y-76403169D02*
X138849607Y-76377529D01*
X138755848Y-68744942D02*
X137960646Y-68390072D01*
X138755848Y-101254867D02*
X139554847Y-100850191D01*
X138778282Y-29755631D02*
X137960646Y-29390072D01*
X138778282Y-62244178D02*
X139576700Y-61838412D01*
X138849607Y-37377529D02*
X139005082Y-37345901D01*
X138849607Y-76377529D02*
X139005082Y-76345901D01*
X139005082Y-37345901D02*
X139057230Y-37337195D01*
X139005082Y-76345901D02*
X139162012Y-76322539D01*
X139057230Y-37337195D02*
X139214547Y-37316603D01*
X139081731Y-54287459D02*
X138714846Y-54259666D01*
X139081731Y-93287459D02*
X138714846Y-93259666D01*
X139132043Y-54289997D02*
X139081731Y-54287459D01*
X139132043Y-93289997D02*
X139081731Y-93287459D01*
X139162012Y-76322539D02*
X139214547Y-76316603D01*
X139214547Y-37316603D02*
X139372734Y-37304357D01*
X139214547Y-76316603D02*
X139319957Y-76307508D01*
X139319957Y-76307508D02*
X139478477Y-76300849D01*
X139372734Y-37304357D02*
X139478477Y-37300849D01*
X139478477Y-37300849D02*
X139637127Y-37302582D01*
X139478477Y-76300849D02*
X139637127Y-76302582D01*
X139537646Y-54299905D02*
X139132043Y-54289997D01*
X139537646Y-93299905D02*
X139132043Y-93289997D01*
X139554847Y-69149618D02*
X138755848Y-68744942D01*
X139554847Y-100850191D02*
X140332727Y-100406272D01*
X139576700Y-30161397D02*
X138778282Y-29755631D01*
X139576700Y-61838412D02*
X140353988Y-61393407D01*
X139637127Y-37302582D02*
X139689941Y-37305023D01*
X139637127Y-76302582D02*
X139689941Y-76305023D01*
X139689941Y-37305023D02*
X139848074Y-37317932D01*
X139689941Y-76305023D02*
X139848074Y-76317932D01*
X139848074Y-37317932D02*
X140005304Y-37339185D01*
X139848074Y-76317932D02*
X139953043Y-76331180D01*
X139953043Y-76331180D02*
X140109425Y-76357965D01*
X140005304Y-37339185D02*
X140109425Y-37357965D01*
X140109425Y-37357965D02*
X140264172Y-37392981D01*
X140109425Y-76357965D02*
X140264172Y-76392981D01*
X140264172Y-37392981D02*
X140416851Y-37436132D01*
X140264172Y-76392981D02*
X140416851Y-76436132D01*
X140332727Y-69593537D02*
X139554847Y-69149618D01*
X140332727Y-100406272D02*
X141087542Y-99924223D01*
X140353988Y-30606402D02*
X139576700Y-30161397D01*
X140353988Y-61393407D02*
X141108137Y-60910316D01*
X140416851Y-37436132D02*
X140467190Y-37452296D01*
X140416851Y-76436132D02*
X140467190Y-76452296D01*
X140467190Y-37452296D02*
X140616448Y-37506098D01*
X140467190Y-76452296D02*
X140616448Y-76506098D01*
X140616448Y-37506098D02*
X140714303Y-37546328D01*
X140616448Y-76506098D02*
X140714303Y-76546328D01*
X140714303Y-37546328D02*
X140858243Y-37613066D01*
X140714303Y-76546328D02*
X140858243Y-76613066D01*
X140858243Y-37613066D02*
X141021967Y-37699602D01*
X140858243Y-76613066D02*
X141021967Y-76699602D01*
X141021967Y-37699602D02*
X146984862Y-37699904D01*
X141021967Y-76699602D02*
X146996009Y-76699050D01*
X141087542Y-70075586D02*
X140332727Y-69593537D01*
X141087542Y-99924223D02*
X141837362Y-99390281D01*
X141108137Y-31089493D02*
X140353988Y-30606402D01*
X141108137Y-60910316D02*
X141837343Y-60390296D01*
X141837343Y-31609513D02*
X141108137Y-31089493D01*
X141837343Y-60390296D02*
X142539778Y-59834646D01*
X141837362Y-70609528D02*
X141087542Y-70075586D01*
X141837362Y-99390281D02*
X142539778Y-98834646D01*
X142539778Y-32165163D02*
X141837343Y-31609513D01*
X142539778Y-59834646D02*
X143213722Y-59244726D01*
X142539778Y-71165163D02*
X141837362Y-70609528D01*
X142539778Y-98834646D02*
X143195425Y-98261541D01*
X143195425Y-32738268D02*
X142539778Y-32165163D01*
X143195425Y-71738268D02*
X142539778Y-71165163D01*
X143195425Y-98261541D02*
X143840031Y-97639734D01*
X143213722Y-59244726D02*
X143857452Y-58622047D01*
X143840031Y-33360075D02*
X143195425Y-32738268D01*
X143840031Y-72360075D02*
X143195425Y-71738268D01*
X143840031Y-97639734D02*
X144452892Y-96986650D01*
X143857452Y-58622047D02*
X144452909Y-57986632D01*
X144452892Y-34013159D02*
X143840031Y-33360075D01*
X144452892Y-73013159D02*
X143840031Y-72360075D01*
X144452892Y-96986650D02*
X145048134Y-96284502D01*
X144452909Y-57986632D02*
X145032541Y-57303852D01*
X145032541Y-57303852D02*
X145577477Y-56593105D01*
X145048134Y-34715307D02*
X144452892Y-34013159D01*
X145048134Y-73715307D02*
X144452892Y-73013159D01*
X145048134Y-96284502D02*
X145592089Y-95573004D01*
X145577477Y-56593105D02*
X146100006Y-55835286D01*
X145592089Y-35426805D02*
X145048134Y-34715307D01*
X145592089Y-74426805D02*
X145048134Y-73715307D01*
X145592089Y-95573004D02*
X146099992Y-94835307D01*
X146099992Y-36164502D02*
X145592089Y-35426805D01*
X146099992Y-75164502D02*
X145592089Y-74426805D01*
X146099992Y-94835307D02*
X146570572Y-94073260D01*
X146100006Y-55835286D02*
X146570572Y-55073260D01*
X146570572Y-36926549D02*
X146099992Y-36164502D01*
X146570572Y-55073260D02*
X146996069Y-54300947D01*
X146570572Y-75926549D02*
X146099992Y-75164502D01*
X146570572Y-94073260D02*
X146996091Y-93301192D01*
X146984862Y-37699904D02*
X146996092Y-37698666D01*
X146984862Y-54299905D02*
X139537646Y-54299905D01*
X146984862Y-93299905D02*
X139537646Y-93299905D01*
X146996009Y-76699050D02*
X146570572Y-75926549D01*
X146996069Y-54300947D02*
X146984862Y-54299905D01*
X146996092Y-37698666D02*
X146570572Y-36926549D01*
X146996091Y-93301192D02*
X146984862Y-93299905D01*
X150002785Y-45564496D02*
X150002785Y-46435313D01*
X150002785Y-46435313D02*
X150048574Y-47354651D01*
X150002785Y-84564496D02*
X150002785Y-85435288D01*
X150002785Y-85435288D02*
X150048574Y-86354651D01*
X150046719Y-44669964D02*
X150002785Y-45564496D01*
X150046719Y-83669964D02*
X150002785Y-84564496D01*
X150048574Y-47354651D02*
X150138179Y-48245767D01*
X150048574Y-86354651D02*
X150138179Y-87245767D01*
X150135098Y-43778676D02*
X150046719Y-44669964D01*
X150138179Y-48245767D02*
X150267697Y-49106873D01*
X150138179Y-82754042D02*
X150046719Y-83669964D01*
X150138179Y-87245767D02*
X150267697Y-88106873D01*
X150267697Y-49106873D02*
X150444200Y-49984969D01*
X150267697Y-88106873D02*
X150444200Y-88984969D01*
X150272008Y-42868437D02*
X150135098Y-43778676D01*
X150272008Y-81868437D02*
X150138179Y-82754042D01*
X150444200Y-42014840D02*
X150272008Y-42868437D01*
X150444200Y-49984969D02*
X150670876Y-50877100D01*
X150444200Y-81014840D02*
X150272008Y-81868437D01*
X150444200Y-88984969D02*
X150670876Y-89877100D01*
X150664152Y-41146659D02*
X150444200Y-42014840D01*
X150664152Y-80146659D02*
X150444200Y-81014840D01*
X150670876Y-50877100D02*
X150927032Y-51709363D01*
X150670876Y-89877100D02*
X150927032Y-90709363D01*
X150927032Y-40290446D02*
X150664152Y-41146659D01*
X150927032Y-51709363D02*
X151232160Y-52551393D01*
X150927032Y-90709363D02*
X151232160Y-91551393D01*
X150934923Y-79266908D02*
X150664152Y-80146659D01*
X151232160Y-52551393D02*
X151589005Y-53399886D01*
X151232160Y-91551393D02*
X151589005Y-92399886D01*
X151241230Y-39425253D02*
X150927032Y-40290446D01*
X151241230Y-78425253D02*
X150934923Y-79266908D01*
X151578815Y-38622561D02*
X151241230Y-39425253D01*
X151589005Y-53399886D02*
X151977426Y-54206940D01*
X151589005Y-77599923D02*
X151241230Y-78425253D01*
X151589005Y-92399886D02*
X151977426Y-93206940D01*
X151966099Y-37815016D02*
X151578815Y-38622561D01*
X151966099Y-76815016D02*
X151589005Y-77599923D01*
X151977426Y-54206940D02*
X152393098Y-54972116D01*
X151977426Y-93206940D02*
X152393098Y-93972116D01*
X152393098Y-54972116D02*
X152858706Y-55737183D01*
X152393098Y-93972116D02*
X152858706Y-94737183D01*
X152405487Y-37006180D02*
X151966099Y-37815016D01*
X152405487Y-76006180D02*
X151966099Y-76815016D01*
X152858706Y-55737183D02*
X153361821Y-56478183D01*
X152858706Y-94737183D02*
X153361821Y-95478183D01*
X152872177Y-36241714D02*
X152405487Y-37006180D01*
X152872177Y-75241714D02*
X152405487Y-76006180D01*
X153361821Y-35521626D02*
X152872177Y-36241714D01*
X153361821Y-56478183D02*
X153916627Y-57212669D01*
X153361821Y-74521626D02*
X152872177Y-75241714D01*
X153361821Y-95478183D02*
X153916627Y-96212669D01*
X153901144Y-34806610D02*
X153361821Y-35521626D01*
X153901144Y-73806610D02*
X153361821Y-74521626D01*
X153916627Y-57212669D02*
X154491797Y-57899179D01*
X153916627Y-96212669D02*
X154491797Y-96899179D01*
X154475398Y-34119268D02*
X153901144Y-34806610D01*
X154475398Y-73119268D02*
X153901144Y-73806610D01*
X154491797Y-57899179D02*
X155083098Y-58538430D01*
X154491797Y-96899179D02*
X155083098Y-97538430D01*
X155083098Y-58538430D02*
X155722806Y-59165311D01*
X155083098Y-97538430D02*
X155722806Y-98165311D01*
X155100421Y-72443561D02*
X154475398Y-73119268D01*
X155100438Y-33443544D02*
X154475398Y-34119268D01*
X155722806Y-59165311D02*
X156411875Y-59775570D01*
X155722806Y-71834498D02*
X155100421Y-72443561D01*
X155722806Y-98165311D02*
X156411895Y-98775586D01*
X155740994Y-32817564D02*
X155100438Y-33443544D01*
X156392868Y-71240247D02*
X155722806Y-71834498D01*
X156392887Y-32240231D02*
X155740994Y-32817564D01*
X156411875Y-59775570D02*
X157111479Y-60334820D01*
X156411895Y-98775586D02*
X157111459Y-99334805D01*
X157091679Y-31680047D02*
X156392887Y-32240231D01*
X157111459Y-70665004D02*
X156392868Y-71240247D01*
X157111459Y-99334805D02*
X157817491Y-99844509D01*
X157111479Y-60334820D02*
X157838016Y-60858563D01*
X157817491Y-99844509D02*
X158568529Y-100332514D01*
X157838016Y-31141246D02*
X157091679Y-31680047D01*
X157838016Y-60858563D02*
X158568529Y-61332514D01*
X157838016Y-70141246D02*
X157111459Y-70665004D01*
X158568529Y-30667295D02*
X157838016Y-31141246D01*
X158568529Y-61332514D02*
X159327343Y-61773523D01*
X158568529Y-69667295D02*
X157838016Y-70141246D01*
X158568529Y-100332514D02*
X159327343Y-100773523D01*
X158825970Y-24999999D02*
X158875001Y-25001203D01*
X158825970Y-105999810D02*
X138174029Y-105999810D01*
X158875001Y-25001203D02*
X158923901Y-25004810D01*
X158875001Y-105998606D02*
X158825970Y-105999810D01*
X158923901Y-25004810D02*
X158972566Y-25010812D01*
X158923901Y-105994999D02*
X158875001Y-105998606D01*
X158972566Y-25010812D02*
X159020877Y-25019195D01*
X158972566Y-105988997D02*
X158923901Y-105994999D01*
X159020877Y-25019195D02*
X159068719Y-25029938D01*
X159020877Y-105980614D02*
X158972566Y-105988997D01*
X159068719Y-25029938D02*
X159115977Y-25043016D01*
X159068719Y-105969871D02*
X159020877Y-105980614D01*
X159115977Y-25043016D02*
X159162535Y-25058397D01*
X159115977Y-105956793D02*
X159068719Y-105969871D01*
X159162535Y-25058397D02*
X159208283Y-25076044D01*
X159162535Y-105941412D02*
X159115977Y-105956793D01*
X159208283Y-25076044D02*
X159253110Y-25095914D01*
X159208283Y-105923765D02*
X159162535Y-105941412D01*
X159253110Y-25095914D02*
X159296908Y-25117960D01*
X159253110Y-105903895D02*
X159208283Y-105923765D01*
X159296908Y-25117960D02*
X159339571Y-25142129D01*
X159296908Y-105881849D02*
X159253110Y-105903895D01*
X159327343Y-30226286D02*
X158568529Y-30667295D01*
X159327343Y-61773523D02*
X159369715Y-61799539D01*
X159327343Y-69226286D02*
X158568529Y-69667295D01*
X159327343Y-100773523D02*
X159369715Y-100799539D01*
X159339571Y-25142129D02*
X159380997Y-25168361D01*
X159339571Y-105857680D02*
X159296908Y-105881849D01*
X159369715Y-30200270D02*
X159327343Y-30226286D01*
X159369715Y-61799539D02*
X159410730Y-61827624D01*
X159369715Y-69200270D02*
X159327343Y-69226286D01*
X159369715Y-100799539D02*
X159410730Y-100827624D01*
X159380997Y-25168361D02*
X159421086Y-25196595D01*
X159380997Y-105831448D02*
X159339571Y-105857680D01*
X159410730Y-30172185D02*
X159369715Y-30200270D01*
X159410730Y-61827624D02*
X159450297Y-61857713D01*
X159410730Y-69172185D02*
X159369715Y-69200270D01*
X159410730Y-100827624D02*
X159450297Y-100857713D01*
X159421086Y-25196595D02*
X159459741Y-25226762D01*
X159421086Y-105803214D02*
X159380997Y-105831448D01*
X159450297Y-30142096D02*
X159410730Y-30172185D01*
X159450297Y-61857713D02*
X159488318Y-61889734D01*
X159450297Y-69142096D02*
X159410730Y-69172185D01*
X159450297Y-100857713D02*
X159488318Y-100889734D01*
X159459741Y-25226762D02*
X159496870Y-25258789D01*
X159459741Y-105773047D02*
X159421086Y-105803214D01*
X159488318Y-30110075D02*
X159450297Y-30142096D01*
X159488318Y-61889734D02*
X159524699Y-61923606D01*
X159488318Y-69110075D02*
X159450297Y-69142096D01*
X159488318Y-100889734D02*
X159524699Y-100923606D01*
X159496870Y-25258789D02*
X159532382Y-25292600D01*
X159496870Y-105741020D02*
X159459741Y-105773047D01*
X159524699Y-30076203D02*
X159488318Y-30110075D01*
X159524699Y-61923606D02*
X159559351Y-61959246D01*
X159524699Y-69076203D02*
X159488318Y-69110075D01*
X159524699Y-100923606D02*
X159559351Y-100959246D01*
X159532382Y-25292600D02*
X159566192Y-25328112D01*
X159532382Y-105707209D02*
X159496870Y-105741020D01*
X159559351Y-30040563D02*
X159524699Y-30076203D01*
X159559351Y-61959246D02*
X159592186Y-61996566D01*
X159559351Y-69040563D02*
X159524699Y-69076203D01*
X159559351Y-100959246D02*
X159592186Y-100996566D01*
X159566192Y-25328112D02*
X159598220Y-25365241D01*
X159566192Y-105671697D02*
X159532382Y-105707209D01*
X159592186Y-30003243D02*
X159559351Y-30040563D01*
X159592186Y-61996566D02*
X159623125Y-62035473D01*
X159592186Y-69003243D02*
X159559351Y-69040563D01*
X159592186Y-100996566D02*
X159623125Y-101035473D01*
X159598220Y-25365241D02*
X159628386Y-25403896D01*
X159598220Y-105634568D02*
X159566192Y-105671697D01*
X159623125Y-29964336D02*
X159592186Y-30003243D01*
X159623125Y-62035473D02*
X159652090Y-62075871D01*
X159623125Y-68964336D02*
X159592186Y-69003243D01*
X159623125Y-101035473D02*
X159652090Y-101075871D01*
X159628386Y-25403896D02*
X159656620Y-25443985D01*
X159628386Y-105595913D02*
X159598220Y-105634568D01*
X159652090Y-29923938D02*
X159623125Y-29964336D01*
X159652090Y-62075871D02*
X159679010Y-62117659D01*
X159652090Y-68923938D02*
X159623125Y-68964336D01*
X159652090Y-101075871D02*
X159679010Y-101117659D01*
X159656620Y-25443985D02*
X159682853Y-25485411D01*
X159656620Y-105555824D02*
X159628386Y-105595913D01*
X159679010Y-29882150D02*
X159652090Y-29923938D01*
X159679010Y-62117659D02*
X159703817Y-62160735D01*
X159679010Y-68882150D02*
X159652090Y-68923938D01*
X159679010Y-101117659D02*
X159703817Y-101160735D01*
X159682853Y-25485411D02*
X159707021Y-25528074D01*
X159682853Y-105514398D02*
X159656620Y-105555824D01*
X159703817Y-29839074D02*
X159679010Y-29882150D01*
X159703817Y-62160735D02*
X159726452Y-62204991D01*
X159703817Y-68839074D02*
X159679010Y-68882150D01*
X159703817Y-101160735D02*
X159726452Y-101204991D01*
X159707021Y-25528074D02*
X159729067Y-25571872D01*
X159707021Y-105471735D02*
X159682853Y-105514398D01*
X159726452Y-29794818D02*
X159703817Y-29839074D01*
X159726452Y-62204991D02*
X159746856Y-62250319D01*
X159726452Y-68794818D02*
X159703817Y-68839074D01*
X159726452Y-101204991D02*
X159746856Y-101250319D01*
X159729067Y-25571872D02*
X159748938Y-25616699D01*
X159729067Y-105427937D02*
X159707021Y-105471735D01*
X159746856Y-29749490D02*
X159726452Y-29794818D01*
X159746856Y-62250319D02*
X159764981Y-62296605D01*
X159746856Y-68749490D02*
X159726452Y-68794818D01*
X159746856Y-101250319D02*
X159764981Y-101296605D01*
X159748938Y-25616699D02*
X159766585Y-25662447D01*
X159748938Y-105383110D02*
X159729067Y-105427937D01*
X159764981Y-29703204D02*
X159746856Y-29749490D01*
X159764981Y-62296605D02*
X159780781Y-62343736D01*
X159764981Y-68703204D02*
X159746856Y-68749490D01*
X159764981Y-101296605D02*
X159780781Y-101343736D01*
X159766585Y-25662447D02*
X159781965Y-25709005D01*
X159766585Y-105337362D02*
X159748938Y-105383110D01*
X159780781Y-29656073D02*
X159764981Y-29703204D01*
X159780781Y-62343736D02*
X159794217Y-62391594D01*
X159780781Y-68656073D02*
X159764981Y-68703204D01*
X159780781Y-101343736D02*
X159794217Y-101391594D01*
X159781965Y-25709005D02*
X159795043Y-25756262D01*
X159781965Y-105290804D02*
X159766585Y-105337362D01*
X159794217Y-29608215D02*
X159780781Y-29656073D01*
X159794217Y-62391594D02*
X159805256Y-62440062D01*
X159794217Y-68608215D02*
X159780781Y-68656073D01*
X159794217Y-101391594D02*
X159805256Y-101440062D01*
X159795043Y-25756262D02*
X159805787Y-25804104D01*
X159795043Y-105243547D02*
X159781965Y-105290804D01*
X159805256Y-29559747D02*
X159794217Y-29608215D01*
X159805256Y-62440062D02*
X159813870Y-62489018D01*
X159805256Y-68559747D02*
X159794217Y-68608215D01*
X159805256Y-101440062D02*
X159813870Y-101489018D01*
X159805787Y-25804104D02*
X159814169Y-25852416D01*
X159805787Y-105195705D02*
X159795043Y-105243547D01*
X159813870Y-29510791D02*
X159805256Y-29559747D01*
X159813870Y-62489018D02*
X159820038Y-62538342D01*
X159813870Y-68510791D02*
X159805256Y-68559747D01*
X159813870Y-101489018D02*
X159820038Y-101538342D01*
X159814169Y-25852416D02*
X159820172Y-25901080D01*
X159814169Y-105147393D02*
X159805787Y-105195705D01*
X159820038Y-29461467D02*
X159813870Y-29510791D01*
X159820038Y-62538342D02*
X159823745Y-62587913D01*
X159820038Y-68461467D02*
X159813870Y-68510791D01*
X159820038Y-101538342D02*
X159823745Y-101587913D01*
X159820172Y-25901080D02*
X159823779Y-25949981D01*
X159820172Y-105098729D02*
X159814169Y-105147393D01*
X159823745Y-29411896D02*
X159820038Y-29461467D01*
X159823745Y-62587913D02*
X159824982Y-62637618D01*
X159823745Y-68411896D02*
X159820038Y-68461467D01*
X159823745Y-101587913D02*
X159824982Y-101637618D01*
X159823779Y-25949981D02*
X159824982Y-25999012D01*
X159823779Y-105049828D02*
X159820172Y-105098729D01*
X159824982Y-25999012D02*
X159824982Y-29362191D01*
X159824982Y-29362191D02*
X159823745Y-29411896D01*
X159824982Y-62637618D02*
X159824982Y-68362191D01*
X159824982Y-68362191D02*
X159823745Y-68411896D01*
X159824982Y-101637618D02*
X159824982Y-105000797D01*
X159824982Y-105000797D02*
X159823779Y-105049828D01*
X162824982Y-25999012D02*
X162826186Y-25949981D01*
X162824982Y-27470294D02*
X162824982Y-25999012D01*
X162824982Y-64529515D02*
X162826162Y-64480977D01*
X162824982Y-66470294D02*
X162824982Y-64529515D01*
X162824982Y-103529515D02*
X162826162Y-103480977D01*
X162824982Y-105000797D02*
X162824982Y-103529515D01*
X162826162Y-27518832D02*
X162824982Y-27470294D01*
X162826162Y-64480977D02*
X162829697Y-64432565D01*
X162826162Y-66518832D02*
X162824982Y-66470294D01*
X162826162Y-103480977D02*
X162829697Y-103432565D01*
X162826186Y-25949981D02*
X162829793Y-25901080D01*
X162826186Y-105049828D02*
X162824982Y-105000797D01*
X162829697Y-27567244D02*
X162826162Y-27518832D01*
X162829697Y-64432565D02*
X162835579Y-64384382D01*
X162829697Y-66567244D02*
X162826162Y-66518832D01*
X162829697Y-103432565D02*
X162835579Y-103384382D01*
X162829793Y-25901080D02*
X162835795Y-25852416D01*
X162829793Y-105098729D02*
X162826186Y-105049828D01*
X162835579Y-27615427D02*
X162829697Y-27567244D01*
X162835579Y-64384382D02*
X162843795Y-64336542D01*
X162835579Y-66615427D02*
X162829697Y-66567244D01*
X162835579Y-103384382D02*
X162843795Y-103336542D01*
X162835795Y-25852416D02*
X162844178Y-25804104D01*
X162835795Y-105147393D02*
X162829793Y-105098729D01*
X162843795Y-27663267D02*
X162835579Y-27615427D01*
X162843795Y-64336542D02*
X162854326Y-64289157D01*
X162843795Y-66663267D02*
X162835579Y-66615427D01*
X162843795Y-103336542D02*
X162854326Y-103289157D01*
X162844178Y-25804104D02*
X162854921Y-25756262D01*
X162844178Y-105195705D02*
X162835795Y-105147393D01*
X162854326Y-27710652D02*
X162843795Y-27663267D01*
X162854326Y-64289157D02*
X162867145Y-64242340D01*
X162854326Y-66710652D02*
X162843795Y-66663267D01*
X162854326Y-103289157D02*
X162867145Y-103242340D01*
X162854921Y-25756262D02*
X162867999Y-25709005D01*
X162854921Y-105243547D02*
X162844178Y-105195705D01*
X162867145Y-27757469D02*
X162854326Y-27710652D01*
X162867145Y-64242340D02*
X162882223Y-64196200D01*
X162867145Y-66757469D02*
X162854326Y-66710652D01*
X162867145Y-103242340D02*
X162882223Y-103196200D01*
X162867999Y-25709005D02*
X162883380Y-25662447D01*
X162867999Y-105290804D02*
X162854921Y-105243547D01*
X162882223Y-27803609D02*
X162867145Y-27757469D01*
X162882223Y-64196200D02*
X162899525Y-64150848D01*
X162882223Y-66803609D02*
X162867145Y-66757469D01*
X162882223Y-103196200D02*
X162899525Y-103150848D01*
X162883380Y-25662447D02*
X162901027Y-25616699D01*
X162883380Y-105337362D02*
X162867999Y-105290804D01*
X162899525Y-27848961D02*
X162882223Y-27803609D01*
X162899525Y-64150848D02*
X162919010Y-64106390D01*
X162899525Y-66848961D02*
X162882223Y-66803609D01*
X162899525Y-103150848D02*
X162919010Y-103106390D01*
X162901027Y-25616699D02*
X162920897Y-25571872D01*
X162901027Y-105383110D02*
X162883380Y-105337362D01*
X162919010Y-27893419D02*
X162899525Y-27848961D01*
X162919010Y-64106390D02*
X162940631Y-64062930D01*
X162919010Y-66893419D02*
X162899525Y-66848961D01*
X162919010Y-103106390D02*
X162940631Y-103062930D01*
X162920897Y-25571872D02*
X162942943Y-25528074D01*
X162920897Y-105427937D02*
X162901027Y-105383110D01*
X162940631Y-27936879D02*
X162919010Y-27893419D01*
X162940631Y-64062930D02*
X162964337Y-64020572D01*
X162940631Y-66936879D02*
X162919010Y-66893419D01*
X162940631Y-103062930D02*
X162964337Y-103020572D01*
X162942943Y-25528074D02*
X162967112Y-25485411D01*
X162942943Y-105471735D02*
X162920897Y-105427937D01*
X162964337Y-27979237D02*
X162940631Y-27936879D01*
X162964337Y-64020572D02*
X162990073Y-63979416D01*
X162964337Y-66979237D02*
X162940631Y-66936879D01*
X162964337Y-103020572D02*
X162990073Y-102979416D01*
X162967112Y-25485411D02*
X162993344Y-25443985D01*
X162967112Y-105514398D02*
X162942943Y-105471735D01*
X162990073Y-28020393D02*
X162964337Y-27979237D01*
X162990073Y-63979416D02*
X163017778Y-63939558D01*
X162990073Y-67020393D02*
X162964337Y-66979237D01*
X162990073Y-102979416D02*
X163017778Y-102939558D01*
X162993344Y-25443985D02*
X163021578Y-25403896D01*
X162993344Y-105555824D02*
X162967112Y-105514398D01*
X163017778Y-28060251D02*
X162990073Y-28020393D01*
X163017778Y-63939558D02*
X163047386Y-63901093D01*
X163017778Y-67060251D02*
X162990073Y-67020393D01*
X163017778Y-102939558D02*
X163047386Y-102901093D01*
X163021578Y-25403896D02*
X163051745Y-25365241D01*
X163021578Y-105595913D02*
X162993344Y-105555824D01*
X163047386Y-28098716D02*
X163017778Y-28060251D01*
X163047386Y-63901093D02*
X163078828Y-63864112D01*
X163047386Y-67098716D02*
X163017778Y-67060251D01*
X163047386Y-102901093D02*
X163078828Y-102864112D01*
X163051745Y-25365241D02*
X163083772Y-25328112D01*
X163051745Y-105634568D02*
X163021578Y-105595913D01*
X163078828Y-28135697D02*
X163047386Y-28098716D01*
X163078828Y-63864112D02*
X163112029Y-63828702D01*
X163078828Y-67135697D02*
X163047386Y-67098716D01*
X163078828Y-102864112D02*
X163112029Y-102828702D01*
X163083772Y-25328112D02*
X163117583Y-25292600D01*
X163083772Y-105671697D02*
X163051745Y-105634568D01*
X163112029Y-28171107D02*
X163078828Y-28135697D01*
X163112029Y-63828702D02*
X163146911Y-63794946D01*
X163112029Y-67171107D02*
X163078828Y-67135697D01*
X163112029Y-102828702D02*
X163146911Y-102794946D01*
X163117583Y-25292600D02*
X163153095Y-25258789D01*
X163117583Y-105707209D02*
X163083772Y-105671697D01*
X163146911Y-28204863D02*
X163112029Y-28171107D01*
X163146911Y-63794946D02*
X163183391Y-63762924D01*
X163146911Y-67204863D02*
X163112029Y-67171107D01*
X163146911Y-102794946D02*
X163183391Y-102762924D01*
X163153095Y-25258789D02*
X163190224Y-25226762D01*
X163153095Y-105741020D02*
X163117583Y-105707209D01*
X163183391Y-28236885D02*
X163146911Y-28204863D01*
X163183391Y-63762924D02*
X163221384Y-63732712D01*
X163183391Y-67236885D02*
X163146911Y-67204863D01*
X163183391Y-102762924D02*
X163221384Y-102732712D01*
X163190224Y-25226762D02*
X163228879Y-25196595D01*
X163190224Y-105773047D02*
X163153095Y-105741020D01*
X163221384Y-28267097D02*
X163183391Y-28236885D01*
X163221384Y-63732712D02*
X163260799Y-63704382D01*
X163221384Y-67267097D02*
X163183391Y-67236885D01*
X163221384Y-102732712D02*
X163260799Y-102704382D01*
X163228879Y-25196595D02*
X163268968Y-25168361D01*
X163228879Y-105803214D02*
X163190224Y-105773047D01*
X163260799Y-28295427D02*
X163221384Y-28267097D01*
X163260799Y-63704382D02*
X163301544Y-63677999D01*
X163260799Y-67295427D02*
X163221384Y-67267097D01*
X163260799Y-102704382D02*
X163301544Y-102677999D01*
X163268968Y-25168361D02*
X163310394Y-25142129D01*
X163268968Y-105831448D02*
X163228879Y-105803214D01*
X163301544Y-28321810D02*
X163260799Y-28295427D01*
X163301544Y-63677999D02*
X163343522Y-63653627D01*
X163301544Y-67321810D02*
X163260799Y-67295427D01*
X163301544Y-102677999D02*
X163343522Y-102653627D01*
X163310394Y-25142129D02*
X163353057Y-25117960D01*
X163310394Y-105857680D02*
X163268968Y-105831448D01*
X163343522Y-28346182D02*
X163301544Y-28321810D01*
X163343522Y-63653627D02*
X163386635Y-63631323D01*
X163343522Y-67346182D02*
X163301544Y-67321810D01*
X163343522Y-102653627D02*
X163386635Y-102631323D01*
X163353057Y-25117960D02*
X163396855Y-25095914D01*
X163353057Y-105881849D02*
X163310394Y-105857680D01*
X163386635Y-28368486D02*
X163343522Y-28346182D01*
X163386635Y-63631323D02*
X163430780Y-63611139D01*
X163386635Y-67368486D02*
X163343522Y-67346182D01*
X163386635Y-102631323D02*
X163430780Y-102611139D01*
X163396855Y-25095914D02*
X163441682Y-25076044D01*
X163396855Y-105903895D02*
X163353057Y-105881849D01*
X163430780Y-28388670D02*
X163386635Y-28368486D01*
X163430780Y-63611139D02*
X163475854Y-63593123D01*
X163430780Y-67388670D02*
X163386635Y-67368486D01*
X163430780Y-102611139D02*
X163475854Y-102593123D01*
X163441682Y-25076044D02*
X163487429Y-25058397D01*
X163441682Y-105923765D02*
X163396855Y-105903895D01*
X163475854Y-28406686D02*
X163430780Y-28388670D01*
X163475854Y-63593123D02*
X163521749Y-63577318D01*
X163475854Y-67406686D02*
X163430780Y-67388670D01*
X163475854Y-102593123D02*
X163521749Y-102577318D01*
X163487429Y-25058397D02*
X163533988Y-25043016D01*
X163487429Y-105941412D02*
X163441682Y-105923765D01*
X163521749Y-28422491D02*
X163475854Y-28406686D01*
X163521749Y-63577318D02*
X163568359Y-63563761D01*
X163521749Y-67422491D02*
X163475854Y-67406686D01*
X163521749Y-102577318D02*
X163568359Y-102563761D01*
X163533988Y-25043016D02*
X163581245Y-25029938D01*
X163533988Y-105956793D02*
X163487429Y-105941412D01*
X163568359Y-28436048D02*
X163521749Y-28422491D01*
X163568359Y-63563761D02*
X163615571Y-63552484D01*
X163568359Y-67436048D02*
X163521749Y-67422491D01*
X163568359Y-102563761D02*
X163615571Y-102552484D01*
X163581245Y-25029938D02*
X163629087Y-25019195D01*
X163581245Y-105969871D02*
X163533988Y-105956793D01*
X163615571Y-28447325D02*
X163568359Y-28436048D01*
X163615571Y-63552484D02*
X163663276Y-63543514D01*
X163615571Y-67447325D02*
X163568359Y-67436048D01*
X163615571Y-102552484D02*
X163663276Y-102543514D01*
X163629087Y-25019195D02*
X163677399Y-25010812D01*
X163629087Y-105980614D02*
X163581245Y-105969871D01*
X163663276Y-28456295D02*
X163615571Y-28447325D01*
X163663276Y-63543514D02*
X163711360Y-63536872D01*
X163663276Y-67456295D02*
X163615571Y-67447325D01*
X163663276Y-102543514D02*
X163711360Y-102536872D01*
X163677399Y-25010812D02*
X163726063Y-25004810D01*
X163677399Y-105988997D02*
X163629087Y-105980614D01*
X163711360Y-28462937D02*
X163663276Y-28456295D01*
X163711360Y-63536872D02*
X163759710Y-63532573D01*
X163711360Y-67462937D02*
X163663276Y-67456295D01*
X163711360Y-102536872D02*
X163759710Y-102532573D01*
X163726063Y-25004810D02*
X163774964Y-25001203D01*
X163726063Y-105994999D02*
X163677399Y-105988997D01*
X163759710Y-28467236D02*
X163711360Y-28462937D01*
X163759710Y-63532573D02*
X163808211Y-63530628D01*
X163759710Y-67467236D02*
X163711360Y-67462937D01*
X163759710Y-102532573D02*
X163808211Y-102530628D01*
X163774964Y-25001203D02*
X163823995Y-24999999D01*
X163774964Y-105998606D02*
X163726063Y-105994999D01*
X163808211Y-28469181D02*
X163759710Y-28467236D01*
X163808211Y-63530628D02*
X163856750Y-63531041D01*
X163808211Y-67469181D02*
X163759710Y-67467236D01*
X163808211Y-102530628D02*
X163856750Y-102531041D01*
X163823995Y-24999999D02*
X170148167Y-24999999D01*
X163823995Y-105999810D02*
X163774964Y-105998606D01*
X163856750Y-28468768D02*
X163808211Y-28469181D01*
X163856750Y-63531041D02*
X163905212Y-63533811D01*
X163856750Y-67468768D02*
X163808211Y-67469181D01*
X163856750Y-102531041D02*
X163905212Y-102533811D01*
X163905212Y-28465998D02*
X163856750Y-28468768D01*
X163905212Y-63533811D02*
X163953481Y-63538932D01*
X163905212Y-67465998D02*
X163856750Y-67468768D01*
X163905212Y-102533811D02*
X163953481Y-102538932D01*
X163953481Y-28460877D02*
X163905212Y-28465998D01*
X163953481Y-63538932D02*
X164001445Y-63546392D01*
X163953481Y-67460877D02*
X163905212Y-67465998D01*
X163953481Y-102538932D02*
X164001445Y-102546392D01*
X164001445Y-28453417D02*
X163953481Y-28460877D01*
X164001445Y-63546392D02*
X164392806Y-63635019D01*
X164001445Y-67453417D02*
X163953481Y-67460877D01*
X164001445Y-102546392D02*
X164392806Y-102635019D01*
X164049002Y-67443634D02*
X164001445Y-67453417D01*
X164392806Y-28364790D02*
X164001445Y-28453417D01*
X164392806Y-63635019D02*
X165274515Y-63792485D01*
X164392806Y-102635019D02*
X165274515Y-102792485D01*
X164392831Y-67364785D02*
X164049002Y-67443634D01*
X165274515Y-28207324D02*
X164392806Y-28364790D01*
X165274515Y-63792485D02*
X166162916Y-63905892D01*
X165274515Y-67207324D02*
X164392831Y-67364785D01*
X165274515Y-102792485D02*
X166162916Y-102905892D01*
X166162916Y-28093917D02*
X165274515Y-28207324D01*
X166162916Y-63905892D02*
X167031093Y-63973653D01*
X166162916Y-67093917D02*
X165274515Y-67207324D01*
X166162916Y-102905892D02*
X167031093Y-102973653D01*
X167031093Y-28026156D02*
X166162916Y-28093917D01*
X167031093Y-63973653D02*
X167926356Y-63999460D01*
X167031093Y-102973653D02*
X167926356Y-102999460D01*
X167055884Y-67024841D02*
X166162916Y-67093917D01*
X167926356Y-28000349D02*
X167031093Y-28026156D01*
X167926356Y-63999460D02*
X168821769Y-63980703D01*
X167926356Y-67000349D02*
X167055884Y-67024841D01*
X167926356Y-102999460D02*
X168821769Y-102980703D01*
X168197920Y-46042774D02*
X168204176Y-45674891D01*
X168197920Y-85042774D02*
X168204176Y-84674891D01*
X168198333Y-46093149D02*
X168197920Y-46042774D01*
X168198333Y-85093149D02*
X168197920Y-85042774D01*
X168204176Y-45674891D02*
X168206301Y-45624560D01*
X168204176Y-84674891D02*
X168206301Y-84624560D01*
X168206301Y-45624560D02*
X168231085Y-45257459D01*
X168206301Y-84624560D02*
X168231085Y-84257459D01*
X168210621Y-46460880D02*
X168198333Y-46093149D01*
X168210621Y-85460880D02*
X168198333Y-85093149D01*
X168213572Y-46511169D02*
X168210621Y-46460880D01*
X168213572Y-85511169D02*
X168210621Y-85460880D01*
X168231085Y-45257459D02*
X168235743Y-45207300D01*
X168231085Y-84257459D02*
X168235743Y-84207300D01*
X168235743Y-45207300D02*
X168278992Y-44841914D01*
X168235743Y-84207300D02*
X168278992Y-83841914D01*
X168244372Y-46877814D02*
X168213572Y-46511169D01*
X168244372Y-85877814D02*
X168213572Y-85511169D01*
X168249853Y-46927891D02*
X168244372Y-46877814D01*
X168249853Y-85927891D02*
X168244372Y-85877814D01*
X168278992Y-44841914D02*
X168286172Y-44792052D01*
X168278992Y-83841914D02*
X168286172Y-83792052D01*
X168286172Y-44792052D02*
X168347775Y-44429310D01*
X168286172Y-83792052D02*
X168347775Y-83429310D01*
X168299088Y-47292518D02*
X168249853Y-46927891D01*
X168299088Y-86292518D02*
X168249853Y-85927891D01*
X168307085Y-47342255D02*
X168299088Y-47292518D01*
X168307085Y-86342255D02*
X168299088Y-86292518D01*
X168347775Y-44429310D02*
X168357459Y-44379873D01*
X168347775Y-83429310D02*
X168357459Y-83379873D01*
X168357459Y-44379873D02*
X168437261Y-44020695D01*
X168357459Y-83379873D02*
X168437261Y-83020695D01*
X168374629Y-47703939D02*
X168307085Y-47342255D01*
X168374629Y-86703939D02*
X168307085Y-86342255D01*
X168385122Y-47753210D02*
X168374629Y-47703939D01*
X168385122Y-86753210D02*
X168374629Y-86703939D01*
X168437261Y-44020695D02*
X168449422Y-43971810D01*
X168437261Y-83020695D02*
X168449422Y-82971810D01*
X168449422Y-43971810D02*
X168547220Y-43617109D01*
X168449422Y-82971810D02*
X168547220Y-82617109D01*
X168470804Y-48111031D02*
X168385122Y-47753210D01*
X168470804Y-87111031D02*
X168385122Y-86753210D01*
X168483765Y-48159710D02*
X168470804Y-48111031D01*
X168483765Y-87159710D02*
X168470804Y-87111031D01*
X168547220Y-43617109D02*
X168561830Y-43568898D01*
X168547220Y-82617109D02*
X168561830Y-82568898D01*
X168561830Y-43568898D02*
X168677375Y-43219575D01*
X168561830Y-82568898D02*
X168677375Y-82219575D01*
X168587367Y-48512760D02*
X168483765Y-48159710D01*
X168587367Y-87512760D02*
X168483765Y-87159710D01*
X168602765Y-48560724D02*
X168587367Y-48512760D01*
X168602765Y-87560724D02*
X168587367Y-87512760D01*
X168677375Y-43219575D02*
X168694395Y-43172161D01*
X168677375Y-82219575D02*
X168694395Y-82172161D01*
X168694395Y-43172161D02*
X168827394Y-42829104D01*
X168694395Y-82172161D02*
X168827394Y-81829104D01*
X168724024Y-48908105D02*
X168602765Y-48560724D01*
X168724024Y-87908105D02*
X168602765Y-87560724D01*
X168741819Y-48955233D02*
X168724024Y-48908105D01*
X168741819Y-87955233D02*
X168724024Y-87908105D01*
X168821769Y-28019106D02*
X167926356Y-28000349D01*
X168821769Y-63980703D02*
X169715166Y-63917428D01*
X168821769Y-67019106D02*
X167926356Y-67000349D01*
X168821769Y-102980703D02*
X169715166Y-102917428D01*
X168827394Y-42829104D02*
X168846781Y-42782608D01*
X168827394Y-81829104D02*
X168846781Y-81782608D01*
X168846781Y-42782608D02*
X168996896Y-42446687D01*
X168846781Y-81782608D02*
X168996896Y-81446687D01*
X168880426Y-49296064D02*
X168741819Y-48955233D01*
X168880426Y-88296064D02*
X168741819Y-87955233D01*
X168900574Y-49342235D02*
X168880426Y-49296064D01*
X168900574Y-88342235D02*
X168880426Y-88296064D01*
X168996896Y-42446687D02*
X169018602Y-42401228D01*
X168996896Y-81446687D02*
X169018602Y-81401228D01*
X169018602Y-42401228D02*
X169185451Y-42073297D01*
X169018602Y-81401228D02*
X169185451Y-81073297D01*
X169056178Y-49675649D02*
X168900574Y-49342235D01*
X169056178Y-88675649D02*
X168900574Y-88342235D01*
X169078626Y-49720746D02*
X169056178Y-49675649D01*
X169078626Y-88720746D02*
X169056178Y-88675649D01*
X169185451Y-42073297D02*
X169209420Y-42028989D01*
X169185451Y-81073297D02*
X169209420Y-81028989D01*
X169209420Y-42028989D02*
X169392580Y-41709882D01*
X169209420Y-81028989D02*
X169392580Y-80709882D01*
X169250831Y-50045896D02*
X169078626Y-49720746D01*
X169250831Y-89045896D02*
X169078626Y-88720746D01*
X169275523Y-50089806D02*
X169250831Y-50045896D01*
X169275523Y-89089806D02*
X169250831Y-89045896D01*
X169392580Y-41709882D02*
X169418751Y-41666837D01*
X169392580Y-80709882D02*
X169418751Y-80666837D01*
X169418751Y-41666837D02*
X169617757Y-41357364D01*
X169418751Y-80666837D02*
X169617757Y-80357364D01*
X169463892Y-50405866D02*
X169275523Y-50089806D01*
X169463892Y-89405866D02*
X169275523Y-89089806D01*
X169490765Y-50448476D02*
X169463892Y-50405866D01*
X169490765Y-89448476D02*
X169463892Y-89405866D01*
X169617757Y-41357364D02*
X169646063Y-41315692D01*
X169617757Y-80357364D02*
X169646063Y-80315692D01*
X169646063Y-41315692D02*
X169860409Y-41016639D01*
X169646063Y-80315692D02*
X169860409Y-80016639D01*
X169694820Y-50754644D02*
X169490765Y-50448476D01*
X169694820Y-89754644D02*
X169490765Y-89448476D01*
X169715166Y-28082381D02*
X168821769Y-28019106D01*
X169715166Y-63917428D02*
X170076913Y-63875252D01*
X169715166Y-67082381D02*
X168821769Y-67019106D01*
X169715166Y-102917428D02*
X170076913Y-102875252D01*
X169723805Y-50795845D02*
X169694820Y-50754644D01*
X169723805Y-89795845D02*
X169694820Y-89754644D01*
X169860409Y-41016639D02*
X169890779Y-40976447D01*
X169860409Y-80016639D02*
X169890779Y-79976447D01*
X169890779Y-40976447D02*
X170119920Y-40688573D01*
X169890779Y-79976447D02*
X170119920Y-79688573D01*
X169943027Y-51091343D02*
X169723805Y-50795845D01*
X169943027Y-90091343D02*
X169723805Y-89795845D01*
X169974052Y-51131032D02*
X169943027Y-51091343D01*
X169974052Y-90131032D02*
X169943027Y-90091343D01*
X170027423Y-28119777D02*
X169715166Y-28082381D01*
X170076913Y-28124557D02*
X170027423Y-28119777D01*
X170076913Y-63875252D02*
X170126568Y-63872941D01*
X170076913Y-67124557D02*
X169715166Y-67082381D01*
X170076913Y-102875252D02*
X170126568Y-102872941D01*
X170119920Y-40688573D02*
X170152277Y-40649962D01*
X170119920Y-79688573D02*
X170152277Y-79649962D01*
X170126568Y-28126868D02*
X170076913Y-28124557D01*
X170126568Y-63872941D02*
X170176276Y-63873102D01*
X170126568Y-67126868D02*
X170076913Y-67124557D01*
X170126568Y-102872941D02*
X170176276Y-102873102D01*
X170148167Y-24999999D02*
X170197198Y-25001203D01*
X170148167Y-105999810D02*
X163823995Y-105999810D01*
X170152277Y-40649962D02*
X170395632Y-40374000D01*
X170152277Y-79649962D02*
X170395632Y-79374000D01*
X170176276Y-28126707D02*
X170126568Y-28126868D01*
X170176276Y-63873102D02*
X170225915Y-63875736D01*
X170176276Y-67126707D02*
X170126568Y-67126868D01*
X170176276Y-102873102D02*
X170225915Y-102875736D01*
X170197198Y-25001203D02*
X170246099Y-25004810D01*
X170197198Y-105998606D02*
X170148167Y-105999810D01*
X170207884Y-51415109D02*
X169974052Y-51131032D01*
X170207884Y-90415109D02*
X169974052Y-90131032D01*
X170225915Y-28124073D02*
X170176276Y-28126707D01*
X170225915Y-63875736D02*
X170275361Y-63880836D01*
X170225915Y-67124073D02*
X170176276Y-67126707D01*
X170225915Y-102875736D02*
X170275361Y-102880836D01*
X170240869Y-51453184D02*
X170207884Y-51415109D01*
X170240869Y-90453184D02*
X170207884Y-90415109D01*
X170246099Y-25004810D02*
X170294763Y-25010812D01*
X170246099Y-105994999D02*
X170197198Y-105998606D01*
X170275361Y-28118973D02*
X170225915Y-28124073D01*
X170275361Y-63880836D02*
X170324493Y-63888389D01*
X170275361Y-67118973D02*
X170225915Y-67124073D01*
X170275361Y-102880836D02*
X170324493Y-102888389D01*
X170294763Y-25010812D02*
X170343075Y-25019195D01*
X170294763Y-105988997D02*
X170246099Y-105994999D01*
X170324493Y-28111420D02*
X170275361Y-28118973D01*
X170324493Y-63888389D02*
X170373188Y-63898376D01*
X170324493Y-67111420D02*
X170275361Y-67118973D01*
X170324493Y-102888389D02*
X170373188Y-102898376D01*
X170343075Y-25019195D02*
X170390917Y-25029938D01*
X170343075Y-105980614D02*
X170294763Y-105988997D01*
X170373188Y-28101433D02*
X170324493Y-28111420D01*
X170373188Y-63898376D02*
X170421325Y-63910774D01*
X170373188Y-67101433D02*
X170324493Y-67111420D01*
X170373188Y-102898376D02*
X170421325Y-102910774D01*
X170390917Y-25029938D02*
X170438174Y-25043016D01*
X170390917Y-105969871D02*
X170343075Y-105980614D01*
X170395632Y-40374000D02*
X170429892Y-40337068D01*
X170395632Y-79374000D02*
X170429892Y-79337068D01*
X170421325Y-28089035D02*
X170373188Y-28101433D01*
X170421325Y-63910774D02*
X170468787Y-63925550D01*
X170421325Y-67089035D02*
X170373188Y-67101433D01*
X170421325Y-102910774D02*
X170468787Y-102925550D01*
X170429892Y-40337068D02*
X170686843Y-40073717D01*
X170429892Y-79337068D02*
X170686843Y-79073717D01*
X170438174Y-25043016D02*
X170484732Y-25058397D01*
X170438174Y-105956793D02*
X170390917Y-105969871D01*
X170468787Y-28074259D02*
X170421325Y-28089035D01*
X170468787Y-63925550D02*
X170515455Y-63942670D01*
X170468787Y-67074259D02*
X170421325Y-67089035D01*
X170468787Y-102925550D02*
X170515455Y-102942670D01*
X170484732Y-25058397D02*
X170530480Y-25076044D01*
X170484732Y-105941412D02*
X170438174Y-105956793D01*
X170488717Y-51725119D02*
X170240869Y-51453184D01*
X170488717Y-90725119D02*
X170240869Y-90453184D01*
X170515455Y-28057139D02*
X170468787Y-28074259D01*
X170515455Y-63942670D02*
X170561213Y-63962089D01*
X170515455Y-67057139D02*
X170468787Y-67074259D01*
X170515455Y-102942670D02*
X170561213Y-102962089D01*
X170523578Y-51761483D02*
X170488717Y-51725119D01*
X170523578Y-90761483D02*
X170488717Y-90725119D01*
X170530480Y-25076044D02*
X170575307Y-25095914D01*
X170530480Y-105923765D02*
X170484732Y-105941412D01*
X170561213Y-28037720D02*
X170515455Y-28057139D01*
X170561213Y-63962089D02*
X170605949Y-63983761D01*
X170561213Y-67037720D02*
X170515455Y-67057139D01*
X170561213Y-102962089D02*
X170605949Y-102983761D01*
X170575307Y-25095914D02*
X170619105Y-25117960D01*
X170575307Y-105903895D02*
X170530480Y-105923765D01*
X170605949Y-28016048D02*
X170561213Y-28037720D01*
X170605949Y-63983761D02*
X170649551Y-64007631D01*
X170605949Y-67016048D02*
X170561213Y-67037720D01*
X170605949Y-102983761D02*
X170649551Y-103007631D01*
X170619105Y-25117960D02*
X170661768Y-25142129D01*
X170619105Y-105881849D02*
X170575307Y-105903895D01*
X170649551Y-27992178D02*
X170605949Y-28016048D01*
X170649551Y-64007631D02*
X170691912Y-64033640D01*
X170649551Y-66992178D02*
X170605949Y-67016048D01*
X170649551Y-103007631D02*
X170691912Y-103033640D01*
X170661768Y-25142129D02*
X170703194Y-25168361D01*
X170661768Y-105857680D02*
X170619105Y-105881849D01*
X170686843Y-40073717D02*
X170722920Y-40038559D01*
X170686843Y-79073717D02*
X170722920Y-79038559D01*
X170691912Y-27966169D02*
X170649551Y-27992178D01*
X170691912Y-64033640D02*
X170732927Y-64061724D01*
X170691912Y-66966169D02*
X170649551Y-66992178D01*
X170691912Y-103033640D02*
X170732927Y-103061724D01*
X170703194Y-25168361D02*
X170743283Y-25196595D01*
X170703194Y-105831448D02*
X170661768Y-105857680D01*
X170722920Y-40038559D02*
X170992813Y-39788489D01*
X170722920Y-79038559D02*
X170992813Y-78788489D01*
X170732927Y-27938085D02*
X170691912Y-27966169D01*
X170732927Y-64061724D02*
X170772494Y-64091814D01*
X170732927Y-66938085D02*
X170691912Y-66966169D01*
X170732927Y-103061724D02*
X170772494Y-103091814D01*
X170743283Y-25196595D02*
X170781938Y-25226762D01*
X170743283Y-105803214D02*
X170703194Y-105831448D01*
X170772494Y-27907995D02*
X170732927Y-27938085D01*
X170772494Y-64091814D02*
X170810515Y-64123835D01*
X170772494Y-66907995D02*
X170732927Y-66938085D01*
X170772494Y-103091814D02*
X170810515Y-103123835D01*
X170781938Y-25226762D02*
X170819067Y-25258789D01*
X170781938Y-105773047D02*
X170743283Y-105803214D01*
X170784813Y-52020585D02*
X170523578Y-51761483D01*
X170784813Y-91020585D02*
X170523578Y-90761483D01*
X170810515Y-27875974D02*
X170772494Y-27907995D01*
X170810515Y-64123835D02*
X170846896Y-64157707D01*
X170810515Y-66875974D02*
X170772494Y-66907995D01*
X170810515Y-103123835D02*
X170846896Y-103157707D01*
X170819067Y-25258789D02*
X170854579Y-25292600D01*
X170819067Y-105741020D02*
X170781938Y-105773047D01*
X170821463Y-52055147D02*
X170784813Y-52020585D01*
X170821463Y-91055147D02*
X170784813Y-91020585D01*
X170846896Y-27842102D02*
X170810515Y-27875974D01*
X170846896Y-64157707D02*
X170881548Y-64193347D01*
X170846896Y-66842102D02*
X170810515Y-66875974D01*
X170846896Y-103157707D02*
X170881548Y-103193347D01*
X170854579Y-25292600D02*
X170888389Y-25328112D01*
X170854579Y-105707209D02*
X170819067Y-105741020D01*
X170881548Y-27806462D02*
X170846896Y-27842102D01*
X170881548Y-64193347D02*
X170914384Y-64230667D01*
X170881548Y-66806462D02*
X170846896Y-66842102D01*
X170881548Y-103193347D02*
X170914384Y-103230667D01*
X170888389Y-25328112D02*
X170920417Y-25365241D01*
X170888389Y-105671697D02*
X170854579Y-105707209D01*
X170914384Y-27769142D02*
X170881548Y-27806462D01*
X170914384Y-64230667D02*
X170945322Y-64269574D01*
X170914384Y-66769142D02*
X170881548Y-66806462D01*
X170914384Y-103230667D02*
X170945322Y-103269574D01*
X170920417Y-25365241D02*
X170950584Y-25403896D01*
X170920417Y-105634568D02*
X170888389Y-105671697D01*
X170945322Y-27730235D02*
X170914384Y-27769142D01*
X170945322Y-64269574D02*
X170974287Y-64309971D01*
X170945322Y-66730235D02*
X170914384Y-66769142D01*
X170945322Y-103269574D02*
X170974287Y-103309971D01*
X170950584Y-25403896D02*
X170978817Y-25443985D01*
X170950584Y-105595913D02*
X170920417Y-105634568D01*
X170974287Y-27689838D02*
X170945322Y-27730235D01*
X170974287Y-64309971D02*
X171001207Y-64351760D01*
X170974287Y-66689838D02*
X170945322Y-66730235D01*
X170974287Y-103309971D02*
X171001207Y-103351760D01*
X170978817Y-25443985D02*
X171005050Y-25485411D01*
X170978817Y-105555824D02*
X170950584Y-105595913D01*
X170992813Y-39788489D02*
X171030617Y-39755193D01*
X170992813Y-78788489D02*
X171030617Y-78755193D01*
X171001207Y-27648049D02*
X170974287Y-27689838D01*
X171001207Y-64351760D02*
X171026015Y-64394836D01*
X171001207Y-66648049D02*
X170974287Y-66689838D01*
X171001207Y-103351760D02*
X171026015Y-103394836D01*
X171005050Y-25485411D02*
X171029219Y-25528074D01*
X171005050Y-105514398D02*
X170978817Y-105555824D01*
X171026015Y-27604973D02*
X171001207Y-27648049D01*
X171026015Y-64394836D02*
X171048649Y-64439092D01*
X171026015Y-66604973D02*
X171001207Y-66648049D01*
X171026015Y-103394836D02*
X171048649Y-103439092D01*
X171029219Y-25528074D02*
X171051265Y-25571872D01*
X171029219Y-105471735D02*
X171005050Y-105514398D01*
X171030617Y-39755193D02*
X171312767Y-39519039D01*
X171030617Y-78755193D02*
X171312767Y-78519039D01*
X171048649Y-27560717D02*
X171026015Y-27604973D01*
X171048649Y-64439092D02*
X171069054Y-64484420D01*
X171048649Y-66560717D02*
X171026015Y-66604973D01*
X171048649Y-103439092D02*
X171069054Y-103484420D01*
X171051265Y-25571872D02*
X171071135Y-25616699D01*
X171051265Y-105427937D02*
X171029219Y-105471735D01*
X171069054Y-27515389D02*
X171048649Y-27560717D01*
X171069054Y-64484420D02*
X171087178Y-64530706D01*
X171069054Y-66515389D02*
X171048649Y-66560717D01*
X171069054Y-103484420D02*
X171087178Y-103530706D01*
X171071135Y-25616699D02*
X171088782Y-25662447D01*
X171071135Y-105383110D02*
X171051265Y-105427937D01*
X171087178Y-27469103D02*
X171069054Y-27515389D01*
X171087178Y-64530706D02*
X171102978Y-64577837D01*
X171087178Y-66469103D02*
X171069054Y-66515389D01*
X171087178Y-103530706D02*
X171102978Y-103577837D01*
X171088782Y-25662447D02*
X171104163Y-25709005D01*
X171088782Y-105337362D02*
X171071135Y-105383110D01*
X171095421Y-52300757D02*
X170821463Y-52055147D01*
X171095421Y-91300757D02*
X170821463Y-91055147D01*
X171102978Y-27421972D02*
X171087178Y-27469103D01*
X171102978Y-64577837D02*
X171116414Y-64625695D01*
X171102978Y-66421972D02*
X171087178Y-66469103D01*
X171102978Y-103577837D02*
X171116414Y-103625695D01*
X171104163Y-25709005D02*
X171117240Y-25756262D01*
X171104163Y-105290804D02*
X171088782Y-105337362D01*
X171116414Y-27374114D02*
X171102978Y-27421972D01*
X171116414Y-64625695D02*
X171127453Y-64674162D01*
X171116414Y-66374114D02*
X171102978Y-66421972D01*
X171116414Y-103625695D02*
X171127453Y-103674162D01*
X171117240Y-25756262D02*
X171127984Y-25804104D01*
X171117240Y-105243547D02*
X171104163Y-105290804D01*
X171127453Y-27325647D02*
X171116414Y-27374114D01*
X171127453Y-64674162D02*
X171136067Y-64723119D01*
X171127453Y-66325647D02*
X171116414Y-66374114D01*
X171127453Y-103674162D02*
X171136067Y-103723119D01*
X171127984Y-25804104D02*
X171136367Y-25852416D01*
X171127984Y-105195705D02*
X171117240Y-105243547D01*
X171133765Y-52333429D02*
X171095421Y-52300757D01*
X171133765Y-91333429D02*
X171095421Y-91300757D01*
X171136067Y-27276690D02*
X171127453Y-27325647D01*
X171136067Y-64723119D02*
X171142235Y-64772443D01*
X171136067Y-66276690D02*
X171127453Y-66325647D01*
X171136067Y-103723119D02*
X171142235Y-103772443D01*
X171136367Y-25852416D02*
X171142369Y-25901080D01*
X171136367Y-105147393D02*
X171127984Y-105195705D01*
X171142235Y-27227366D02*
X171136067Y-27276690D01*
X171142235Y-64772443D02*
X171145943Y-64822013D01*
X171142235Y-66227366D02*
X171136067Y-66276690D01*
X171142235Y-103772443D02*
X171145943Y-103822013D01*
X171142369Y-25901080D02*
X171145976Y-25949981D01*
X171142369Y-105098729D02*
X171136367Y-105147393D01*
X171145943Y-27177796D02*
X171142235Y-27227366D01*
X171145943Y-64822013D02*
X171147180Y-64871719D01*
X171145943Y-66177796D02*
X171142235Y-66227366D01*
X171145943Y-103822013D02*
X171147180Y-103871719D01*
X171145976Y-25949981D02*
X171147180Y-25999012D01*
X171145976Y-105049828D02*
X171142369Y-105098729D01*
X171147180Y-25999012D02*
X171147180Y-27128090D01*
X171147180Y-27128090D02*
X171145943Y-27177796D01*
X171147180Y-64871719D02*
X171147180Y-66128090D01*
X171147180Y-66128090D02*
X171145943Y-66177796D01*
X171147180Y-103871719D02*
X171147180Y-105000797D01*
X171147180Y-105000797D02*
X171145976Y-105049828D01*
X171312767Y-39519039D02*
X171352200Y-39487690D01*
X171312767Y-78519039D02*
X171352200Y-78487690D01*
X171352200Y-39487690D02*
X171645890Y-39266052D01*
X171352200Y-78487690D02*
X171645890Y-78266052D01*
X171419750Y-52564923D02*
X171133765Y-52333429D01*
X171419750Y-91564923D02*
X171133765Y-91333429D01*
X171459692Y-52595621D02*
X171419750Y-52564923D01*
X171459692Y-91595621D02*
X171419750Y-91564923D01*
X171645890Y-39266052D02*
X171686852Y-39236730D01*
X171645890Y-78266052D02*
X171686852Y-78236730D01*
X171686852Y-39236730D02*
X171991337Y-39030171D01*
X171686852Y-78236730D02*
X171991337Y-78030171D01*
X171756977Y-52812413D02*
X171459692Y-52595621D01*
X171756977Y-91812413D02*
X171459692Y-91595621D01*
X171798415Y-52841059D02*
X171756977Y-52812413D01*
X171798415Y-91841059D02*
X171756977Y-91812413D01*
X171991337Y-39030171D02*
X172033725Y-39002950D01*
X171991337Y-78030171D02*
X172033725Y-78002950D01*
X172033725Y-39002950D02*
X172348230Y-38811995D01*
X172033725Y-78002950D02*
X172348230Y-77811995D01*
X172106246Y-53042596D02*
X171798415Y-52841059D01*
X172106246Y-92042596D02*
X171798415Y-91841059D01*
X172149075Y-53069119D02*
X172106246Y-53042596D01*
X172149075Y-92069119D02*
X172106246Y-92042596D01*
X172348230Y-38811995D02*
X172391935Y-38786944D01*
X172348230Y-77811995D02*
X172391935Y-77786944D01*
X172391935Y-38786944D02*
X172715662Y-38612079D01*
X172391935Y-77786944D02*
X172715662Y-77612079D01*
X172466669Y-53254890D02*
X172149075Y-53069119D01*
X172466669Y-92254890D02*
X172149075Y-92069119D01*
X172510780Y-53279221D02*
X172466669Y-53254890D01*
X172510780Y-92279221D02*
X172466669Y-92254890D01*
X172715662Y-38612079D02*
X172760574Y-38589261D01*
X172715662Y-77612079D02*
X172760574Y-77589261D01*
X172760574Y-38589261D02*
X173092701Y-38430929D01*
X172760574Y-77589261D02*
X173092701Y-77430929D01*
X172837331Y-53448754D02*
X172510780Y-53279221D01*
X172837331Y-92448754D02*
X172510780Y-92279221D01*
X172882611Y-53470832D02*
X172837331Y-53448754D01*
X172882611Y-92470832D02*
X172837331Y-92448754D01*
X173092701Y-38430929D02*
X173138705Y-38410404D01*
X173092701Y-77430929D02*
X173138705Y-77410404D01*
X173138705Y-38410404D02*
X173478388Y-38269006D01*
X173138705Y-77410404D02*
X173478388Y-77269006D01*
X173217290Y-53623696D02*
X172882611Y-53470832D01*
X173217290Y-92623696D02*
X172882611Y-92470832D01*
X173263625Y-53643464D02*
X173217290Y-53623696D01*
X173263625Y-92643464D02*
X173217290Y-92623696D01*
X173478388Y-38269006D02*
X173525368Y-38250825D01*
X173478388Y-77269006D02*
X173525368Y-77250825D01*
X173525368Y-38250825D02*
X173871743Y-38126722D01*
X173525368Y-77250825D02*
X173871743Y-77126722D01*
X173605580Y-53779272D02*
X173263625Y-53643464D01*
X173605580Y-92779272D02*
X173263625Y-92643464D01*
X173652852Y-53796680D02*
X173605580Y-53779272D01*
X173652852Y-92796680D02*
X173605580Y-92779272D01*
X173871743Y-38126722D02*
X173919580Y-38110931D01*
X173871743Y-77126722D02*
X173919580Y-77110931D01*
X173919580Y-38110931D02*
X174271767Y-38004438D01*
X173919580Y-77110931D02*
X174271767Y-77004438D01*
X174001216Y-53915086D02*
X173652852Y-53796680D01*
X174001216Y-92915086D02*
X173652852Y-92796680D01*
X174049306Y-53930090D02*
X174001216Y-53915086D01*
X174049306Y-92930090D02*
X174001216Y-92915086D01*
X174147180Y-25999012D02*
X174148383Y-25949981D01*
X174147180Y-28400646D02*
X174147180Y-25999012D01*
X174147180Y-63599163D02*
X174148430Y-63549187D01*
X174147180Y-67400646D02*
X174147180Y-63599163D01*
X174147180Y-102599163D02*
X174148430Y-102549187D01*
X174147180Y-105000797D02*
X174147180Y-102599163D01*
X174148383Y-25949981D02*
X174151990Y-25901080D01*
X174148383Y-105049828D02*
X174147180Y-105000797D01*
X174148430Y-28450622D02*
X174147180Y-28400646D01*
X174148430Y-63549187D02*
X174152177Y-63499349D01*
X174148430Y-67450622D02*
X174147180Y-67400646D01*
X174148430Y-102549187D02*
X174152177Y-102499349D01*
X174151990Y-25901080D02*
X174157992Y-25852416D01*
X174151990Y-105098729D02*
X174148383Y-105049828D01*
X174152177Y-28500460D02*
X174148430Y-28450622D01*
X174152177Y-63499349D02*
X174158413Y-63449761D01*
X174152177Y-67500460D02*
X174148430Y-67450622D01*
X174152177Y-102499349D02*
X174158413Y-102449761D01*
X174157992Y-25852416D02*
X174166375Y-25804104D01*
X174157992Y-105147393D02*
X174151990Y-105098729D01*
X174158413Y-28550048D02*
X174152177Y-28500460D01*
X174158413Y-63449761D02*
X174167120Y-63400546D01*
X174158413Y-67550048D02*
X174152177Y-67500460D01*
X174158413Y-102449761D02*
X174167120Y-102400546D01*
X174166375Y-25804104D02*
X174177119Y-25756262D01*
X174166375Y-105195705D02*
X174157992Y-105147393D01*
X174167120Y-28599263D02*
X174158413Y-28550048D01*
X174167120Y-63400546D02*
X174178278Y-63351829D01*
X174167120Y-67599263D02*
X174158413Y-67550048D01*
X174167120Y-102400546D02*
X174178278Y-102351829D01*
X174177119Y-25756262D02*
X174190196Y-25709005D01*
X174177119Y-105243547D02*
X174166375Y-105195705D01*
X174178278Y-28647980D02*
X174167120Y-28599263D01*
X174178278Y-63351829D02*
X174191859Y-63303731D01*
X174178278Y-67647980D02*
X174167120Y-67599263D01*
X174178278Y-102351829D02*
X174191859Y-102303731D01*
X174190196Y-25709005D02*
X174205577Y-25662447D01*
X174190196Y-105290804D02*
X174177119Y-105243547D01*
X174191859Y-28696078D02*
X174178278Y-28647980D01*
X174191859Y-63303731D02*
X174207828Y-63256372D01*
X174191859Y-67696078D02*
X174178278Y-67647980D01*
X174191859Y-102303731D02*
X174207828Y-102256372D01*
X174205577Y-25662447D02*
X174223224Y-25616699D01*
X174205577Y-105337362D02*
X174190196Y-105290804D01*
X174207828Y-28743437D02*
X174191859Y-28696078D01*
X174207828Y-63256372D02*
X174226146Y-63209871D01*
X174207828Y-67743437D02*
X174191859Y-67696078D01*
X174207828Y-102256372D02*
X174226146Y-102209871D01*
X174223224Y-25616699D02*
X174243094Y-25571872D01*
X174223224Y-105383110D02*
X174205577Y-105337362D01*
X174226146Y-28789938D02*
X174207828Y-28743437D01*
X174226146Y-63209871D02*
X174246766Y-63164344D01*
X174226146Y-67789938D02*
X174207828Y-67743437D01*
X174226146Y-102209871D02*
X174246766Y-102164344D01*
X174243094Y-25571872D02*
X174265140Y-25528074D01*
X174243094Y-105427937D02*
X174223224Y-105383110D01*
X174246766Y-28835465D02*
X174226146Y-28789938D01*
X174246766Y-63164344D02*
X174269638Y-63119906D01*
X174246766Y-67835465D02*
X174226146Y-67789938D01*
X174246766Y-102164344D02*
X174269638Y-102119906D01*
X174265140Y-25528074D02*
X174289309Y-25485411D01*
X174265140Y-105471735D02*
X174243094Y-105427937D01*
X174269638Y-28879903D02*
X174246766Y-28835465D01*
X174269638Y-63119906D02*
X174294703Y-63076667D01*
X174269638Y-67879903D02*
X174246766Y-67835465D01*
X174269638Y-102119906D02*
X174294703Y-102076667D01*
X174271767Y-38004438D02*
X174320341Y-37991077D01*
X174271767Y-77004438D02*
X174320341Y-76991077D01*
X174289309Y-25485411D02*
X174315542Y-25443985D01*
X174289309Y-105514398D02*
X174265140Y-105471735D01*
X174294703Y-28923142D02*
X174269638Y-28879903D01*
X174294703Y-63076667D02*
X174321900Y-63034736D01*
X174294703Y-67923142D02*
X174269638Y-67879903D01*
X174294703Y-102076667D02*
X174321900Y-102034736D01*
X174315542Y-25443985D02*
X174343775Y-25403896D01*
X174315542Y-105555824D02*
X174289309Y-105514398D01*
X174320341Y-37991077D02*
X174701760Y-37896145D01*
X174320341Y-76991077D02*
X174701760Y-76896145D01*
X174321900Y-28965073D02*
X174294703Y-28923142D01*
X174321900Y-63034736D02*
X174351160Y-62994217D01*
X174321900Y-67965073D02*
X174294703Y-67923142D01*
X174321900Y-102034736D02*
X174351160Y-101994217D01*
X174343775Y-25403896D02*
X174373942Y-25365241D01*
X174343775Y-105595913D02*
X174315542Y-105555824D01*
X174351160Y-29005592D02*
X174321900Y-28965073D01*
X174351160Y-62994217D02*
X174382409Y-62955213D01*
X174351160Y-68005592D02*
X174321900Y-67965073D01*
X174351160Y-101994217D02*
X174382409Y-101955213D01*
X174373942Y-25365241D02*
X174405970Y-25328112D01*
X174373942Y-105634568D02*
X174343775Y-105595913D01*
X174382409Y-29044596D02*
X174351160Y-29005592D01*
X174382409Y-62955213D02*
X174415571Y-62917820D01*
X174382409Y-68044596D02*
X174351160Y-68005592D01*
X174382409Y-101955213D02*
X174415571Y-101917820D01*
X174403193Y-54030793D02*
X174049306Y-53930090D01*
X174403193Y-93030793D02*
X174049306Y-92930090D01*
X174405970Y-25328112D02*
X174439780Y-25292600D01*
X174405970Y-105671697D02*
X174373942Y-105634568D01*
X174415571Y-29081989D02*
X174382409Y-29044596D01*
X174415571Y-62917820D02*
X174450560Y-62882133D01*
X174415571Y-68081989D02*
X174382409Y-68044596D01*
X174415571Y-101917820D02*
X174450560Y-101882133D01*
X174439780Y-25292600D02*
X174475292Y-25258789D01*
X174439780Y-105707209D02*
X174405970Y-105671697D01*
X174450560Y-29117676D02*
X174415571Y-29081989D01*
X174450560Y-62882133D02*
X174487291Y-62848240D01*
X174450560Y-68117676D02*
X174415571Y-68081989D01*
X174450560Y-101882133D02*
X174487291Y-101848240D01*
X174451977Y-54043356D02*
X174403193Y-54030793D01*
X174451977Y-93043356D02*
X174403193Y-93030793D01*
X174475292Y-25258789D02*
X174512421Y-25226762D01*
X174475292Y-105741020D02*
X174439780Y-105707209D01*
X174487291Y-29151569D02*
X174450560Y-29117676D01*
X174487291Y-62848240D02*
X174525671Y-62816227D01*
X174487291Y-68151569D02*
X174450560Y-68117676D01*
X174487291Y-101848240D02*
X174525671Y-101816227D01*
X174512421Y-25226762D02*
X174551076Y-25196595D01*
X174512421Y-105773047D02*
X174475292Y-105741020D01*
X174525671Y-29183582D02*
X174487291Y-29151569D01*
X174525671Y-62816227D02*
X174565604Y-62786173D01*
X174525671Y-68183582D02*
X174487291Y-68151569D01*
X174525671Y-101816227D02*
X174565604Y-101786173D01*
X174551076Y-25196595D02*
X174591165Y-25168361D01*
X174551076Y-105803214D02*
X174512421Y-105773047D01*
X174565604Y-29213636D02*
X174525671Y-29183582D01*
X174565604Y-62786173D02*
X174606990Y-62758154D01*
X174565604Y-68213636D02*
X174525671Y-68183582D01*
X174565604Y-101786173D02*
X174606990Y-101758154D01*
X174591165Y-25168361D02*
X174632591Y-25142129D01*
X174591165Y-105831448D02*
X174551076Y-105803214D01*
X174606990Y-29241655D02*
X174565604Y-29213636D01*
X174606990Y-62758154D02*
X174649726Y-62732240D01*
X174606990Y-68241655D02*
X174565604Y-68213636D01*
X174606990Y-101758154D02*
X174649726Y-101732240D01*
X174632591Y-25142129D02*
X174675254Y-25117960D01*
X174632591Y-105857680D02*
X174591165Y-105831448D01*
X174649726Y-29267569D02*
X174606990Y-29241655D01*
X174649726Y-62732240D02*
X174693704Y-62708495D01*
X174649726Y-68267569D02*
X174606990Y-68241655D01*
X174649726Y-101732240D02*
X174693704Y-101708495D01*
X174675254Y-25117960D02*
X174719052Y-25095914D01*
X174675254Y-105881849D02*
X174632591Y-105857680D01*
X174693704Y-29291314D02*
X174649726Y-29267569D01*
X174693704Y-62708495D02*
X174738815Y-62686980D01*
X174693704Y-68291314D02*
X174649726Y-68267569D01*
X174693704Y-101708495D02*
X174738815Y-101686980D01*
X174701760Y-37896145D02*
X174853880Y-37790730D01*
X174701760Y-76896145D02*
X174853880Y-76790730D01*
X174719052Y-25095914D02*
X174763879Y-25076044D01*
X174719052Y-105903895D02*
X174675254Y-105881849D01*
X174738815Y-29312829D02*
X174693704Y-29291314D01*
X174738815Y-62686980D02*
X174932809Y-62609737D01*
X174738815Y-68312829D02*
X174693704Y-68291314D01*
X174738815Y-101686980D02*
X174784957Y-101667743D01*
X174763879Y-25076044D02*
X174809627Y-25058397D01*
X174763879Y-105923765D02*
X174719052Y-105903895D01*
X174784957Y-29332066D02*
X174738815Y-29312829D01*
X174784957Y-101667743D02*
X174932809Y-101609737D01*
X174809627Y-25058397D02*
X174856185Y-25043016D01*
X174809627Y-105941412D02*
X174763879Y-105923765D01*
X174810489Y-54126100D02*
X174451977Y-54043356D01*
X174810489Y-93126100D02*
X174451977Y-93043356D01*
X174853880Y-37790730D02*
X174988860Y-37707344D01*
X174853880Y-76790730D02*
X174943397Y-76734333D01*
X174856185Y-25043016D02*
X174903442Y-25029938D01*
X174856185Y-105956793D02*
X174809627Y-105941412D01*
X174859844Y-54136189D02*
X174810489Y-54126100D01*
X174859844Y-93136189D02*
X174810489Y-93126100D01*
X174903442Y-25029938D02*
X174951284Y-25019195D01*
X174903442Y-105969871D02*
X174856185Y-105956793D01*
X174932809Y-29390072D02*
X174784957Y-29332066D01*
X174932809Y-62609737D02*
X175750445Y-62244178D01*
X174932809Y-68390072D02*
X174738815Y-68312829D01*
X174932809Y-101609737D02*
X175750445Y-101244178D01*
X174943397Y-76734333D02*
X175081234Y-76655759D01*
X174951284Y-25019195D02*
X174999596Y-25010812D01*
X174951284Y-105980614D02*
X174903442Y-105969871D01*
X174988860Y-37707344D02*
X175081234Y-37655759D01*
X174999596Y-25010812D02*
X175048260Y-25004810D01*
X174999596Y-105988997D02*
X174951284Y-105980614D01*
X175048260Y-25004810D02*
X175097161Y-25001203D01*
X175048260Y-105994999D02*
X174999596Y-105988997D01*
X175081234Y-37655759D02*
X175223032Y-37584584D01*
X175081234Y-76655759D02*
X175128060Y-76631212D01*
X175097161Y-25001203D02*
X175146192Y-24999999D01*
X175097161Y-105998606D02*
X175048260Y-105994999D01*
X175128060Y-76631212D02*
X175271091Y-76562547D01*
X175146192Y-24999999D02*
X183968642Y-24999574D01*
X175146192Y-105999810D02*
X175097161Y-105998606D01*
X175222069Y-54200764D02*
X174859844Y-54136189D01*
X175222069Y-93200764D02*
X174859844Y-93136189D01*
X175223032Y-37584584D02*
X175271091Y-37562547D01*
X175271091Y-37562547D02*
X175368396Y-37521006D01*
X175271091Y-76562547D02*
X175368396Y-76521006D01*
X175271870Y-54208353D02*
X175222069Y-54200764D01*
X175271870Y-93208353D02*
X175222069Y-93200764D01*
X175368396Y-37521006D02*
X175516919Y-37465204D01*
X175368396Y-76521006D02*
X175516919Y-76465204D01*
X175516919Y-37465204D02*
X175567036Y-37448366D01*
X175516919Y-76465204D02*
X175567036Y-76448366D01*
X175567036Y-37448366D02*
X175719122Y-37403169D01*
X175567036Y-76448366D02*
X175719122Y-76403169D01*
X175636889Y-54254596D02*
X175271870Y-54208353D01*
X175636889Y-93254596D02*
X175271870Y-93208353D01*
X175687009Y-54259666D02*
X175636889Y-54254596D01*
X175687009Y-93259666D02*
X175636889Y-93254596D01*
X175719122Y-37403169D02*
X175873385Y-37366078D01*
X175719122Y-76403169D02*
X175873385Y-76366078D01*
X175728011Y-68744942D02*
X174932809Y-68390072D01*
X175750445Y-29755631D02*
X174932809Y-29390072D01*
X175750445Y-62244178D02*
X176548863Y-61838412D01*
X175750445Y-101244178D02*
X176548863Y-100838412D01*
X175873385Y-37366078D02*
X176029393Y-37337195D01*
X175873385Y-76366078D02*
X175977245Y-76345901D01*
X175977245Y-76345901D02*
X176134175Y-76322539D01*
X176029393Y-37337195D02*
X176134175Y-37322539D01*
X176053894Y-54287459D02*
X175687009Y-54259666D01*
X176053894Y-93287459D02*
X175687009Y-93259666D01*
X176104206Y-54289997D02*
X176053894Y-54287459D01*
X176104206Y-93289997D02*
X176053894Y-93287459D01*
X176134175Y-37322539D02*
X176292120Y-37307508D01*
X176134175Y-76322539D02*
X176292120Y-76307508D01*
X176292120Y-37307508D02*
X176450640Y-37300849D01*
X176292120Y-76307508D02*
X176450640Y-76300849D01*
X176450640Y-37300849D02*
X176503509Y-37300494D01*
X176450640Y-76300849D02*
X176503509Y-76300494D01*
X176503509Y-37300494D02*
X176662104Y-37305023D01*
X176503509Y-76300494D02*
X176609290Y-76302582D01*
X176509809Y-54299905D02*
X176104206Y-54289997D01*
X176509809Y-93299905D02*
X176104206Y-93289997D01*
X176527010Y-69149618D02*
X175728011Y-68744942D01*
X176548863Y-30161397D02*
X175750445Y-29755631D01*
X176548863Y-61838412D02*
X177326151Y-61393407D01*
X176548863Y-100838412D02*
X177326151Y-100393407D01*
X176609290Y-76302582D02*
X176767626Y-76312702D01*
X176662104Y-37305023D02*
X176820237Y-37317932D01*
X176767626Y-76312702D02*
X176820237Y-76317932D01*
X176820237Y-37317932D02*
X176925206Y-37331180D01*
X176820237Y-76317932D02*
X176977467Y-76339185D01*
X176925206Y-37331180D02*
X176977467Y-37339185D01*
X176977467Y-37339185D02*
X177133352Y-37368722D01*
X176977467Y-76339185D02*
X177133352Y-76368722D01*
X177133352Y-37368722D02*
X177236335Y-37392981D01*
X177133352Y-76368722D02*
X177287458Y-76406461D01*
X177236335Y-37392981D02*
X177389014Y-37436132D01*
X177287458Y-76406461D02*
X177389014Y-76436132D01*
X177304890Y-69593537D02*
X176527010Y-69149618D01*
X177326151Y-30606402D02*
X176548863Y-30161397D01*
X177326151Y-61393407D02*
X178080300Y-60910316D01*
X177326151Y-100393407D02*
X178080300Y-99910316D01*
X177389014Y-37436132D02*
X177439353Y-37452296D01*
X177389014Y-76436132D02*
X177439353Y-76452296D01*
X177439353Y-37452296D02*
X177588611Y-37506098D01*
X177439353Y-76452296D02*
X177588611Y-76506098D01*
X177588611Y-37506098D02*
X177686466Y-37546328D01*
X177588611Y-76506098D02*
X177734816Y-76567718D01*
X177686466Y-37546328D02*
X177830406Y-37613066D01*
X177734816Y-76567718D02*
X177830406Y-76613066D01*
X177830406Y-37613066D02*
X177994130Y-37699602D01*
X177830406Y-76613066D02*
X177994130Y-76699602D01*
X177994130Y-37699602D02*
X183968103Y-37699181D01*
X177994130Y-76699602D02*
X183968151Y-76699095D01*
X178059705Y-70075586D02*
X177304890Y-69593537D01*
X178080300Y-31089493D02*
X177326151Y-30606402D01*
X178080300Y-60910316D02*
X178809506Y-60390296D01*
X178080300Y-99910316D02*
X178809506Y-99390296D01*
X178809506Y-31609513D02*
X178080300Y-31089493D01*
X178809506Y-60390296D02*
X179511941Y-59834646D01*
X178809506Y-99390296D02*
X179492849Y-98850514D01*
X178809525Y-70609528D02*
X178059705Y-70075586D01*
X179492849Y-32149295D02*
X178809506Y-31609513D01*
X179492849Y-98850514D02*
X180167588Y-98261541D01*
X179511941Y-59834646D02*
X180185885Y-59244726D01*
X179511941Y-71165163D02*
X178809525Y-70609528D01*
X180167588Y-32738268D02*
X179492849Y-32149295D01*
X180167588Y-71738268D02*
X179511941Y-71165163D01*
X180167588Y-98261541D02*
X180812194Y-97639734D01*
X180185885Y-59244726D02*
X180829615Y-58622047D01*
X180812194Y-33360075D02*
X180167588Y-32738268D01*
X180812194Y-72360075D02*
X180167588Y-71738268D01*
X180812194Y-97639734D02*
X181425055Y-96986650D01*
X180829615Y-58622047D02*
X181441592Y-57968101D01*
X181425055Y-34013159D02*
X180812194Y-33360075D01*
X181425055Y-73013159D02*
X180812194Y-72360075D01*
X181425055Y-96986650D02*
X182020297Y-96284502D01*
X181441592Y-57968101D02*
X182004704Y-57303852D01*
X182004704Y-57303852D02*
X182549640Y-56593105D01*
X182020297Y-34715307D02*
X181425055Y-34013159D01*
X182020297Y-73715307D02*
X181425055Y-73013159D01*
X182020297Y-96284502D02*
X182564252Y-95573004D01*
X182549640Y-56593105D02*
X183072169Y-55835286D01*
X182564252Y-35426805D02*
X182020297Y-34715307D01*
X182564252Y-74426805D02*
X182020297Y-73715307D01*
X182564252Y-95573004D02*
X183072155Y-94835307D01*
X183072155Y-36164502D02*
X182564252Y-35426805D01*
X183072155Y-75164502D02*
X182564252Y-74426805D01*
X183072155Y-94835307D02*
X183542735Y-94073260D01*
X183072169Y-55835286D02*
X183542735Y-55073260D01*
X183542735Y-36926549D02*
X183072155Y-36164502D01*
X183542735Y-55073260D02*
X183968221Y-54300899D01*
X183542735Y-75926549D02*
X183072155Y-75164502D01*
X183542735Y-94073260D02*
X183968103Y-93300628D01*
X183968103Y-37699181D02*
X183542735Y-36926549D01*
X183968103Y-93300628D02*
X176509809Y-93299905D01*
X183968151Y-76699095D02*
X183542735Y-75926549D01*
X183968221Y-54300899D02*
X176509809Y-54299905D01*
X183968642Y-24999574D02*
X183968895Y-20000654D01*
X183968642Y-106000235D02*
X175146192Y-105999810D01*
X183968722Y-110999328D02*
X183968642Y-106000235D01*
X183968895Y-20000654D02*
X113031868Y-20000270D01*
M02*
