M48
; DRILL file KiCad 10.0.6 date 2026-10-01T00:16:33
; FORMAT={-:-/ absolute / metric / decimal}
; #@! TF.CreationDate,2026-10-01T00:16:33+02:00
; #@! TF.GenerationSoftware,Kicad,Pcbnew,10.0.6
; #@! TF.FileFunction,Plated,1,2,PTH
FMAT,2
METRIC
; #@! TA.AperFunction,Plated,PTH,ViaDrill
T1C0.300
%
G90
G05
T1
X111.798Y-88.384
X112.436Y-91.634
X113.082Y-87.7
X113.5Y-91.78
X113.517Y-90.134
X113.977Y-86.884
X114.249Y-90.134
X114.441Y-95.159
X115.0Y-93.28
X115.38Y-91.26
X115.85Y-87.638
X116.064Y-55.675
X116.436Y-83.884
X116.662Y-89.28
X117.15Y-92.83
X117.238Y-92.101
X117.414Y-91.28
X117.5Y-86.947
X118.112Y-94.92
X118.133Y-91.624
X118.642Y-91.134
X118.686Y-84.634
X118.832Y-51.205
X119.74Y-86.548
X119.821Y-50.251
X119.936Y-81.884
X120.1Y-59.618
X120.5Y-53.28
X120.579Y-96.839
X120.597Y-92.551
X120.6Y-94.003
X120.686Y-80.884
X120.686Y-82.884
X120.686Y-91.134
X121.0Y-83.78
X122.0Y-51.28
X122.318Y-59.099
X122.639Y-57.011
X122.936Y-86.884
X122.936Y-92.134
X122.936Y-93.634
X123.0Y-55.28
X123.131Y-47.325
X123.186Y-78.884
X123.186Y-82.134
X123.803Y-47.856
X123.936Y-78.134
X124.935Y-53.68
X124.936Y-78.384
X125.436Y-76.384
X125.915Y-54.091
X125.939Y-59.349
X126.064Y-61.675
X126.686Y-78.134
X127.334Y-57.902
X127.37Y-53.669
X127.7Y-80.288
X128.065Y-56.283
X128.517Y-79.678
X128.586Y-71.693
X128.757Y-78.677
X129.243Y-53.882
X129.414Y-60.867
X129.483Y-52.881
X129.935Y-76.276
X130.3Y-52.271
X130.63Y-78.89
X130.666Y-74.657
X131.314Y-54.425
X131.936Y-70.884
X132.061Y-73.21
X132.085Y-78.469
X132.564Y-56.175
X133.064Y-54.175
X133.065Y-78.879
X134.064Y-54.425
X134.197Y-84.704
X134.814Y-50.425
X134.814Y-53.675
X134.869Y-85.234
X135.0Y-77.28
X135.064Y-38.925
X135.064Y-40.425
X135.064Y-45.675
X135.361Y-75.548
X135.682Y-73.461
X136.0Y-81.28
X137.0Y-48.78
X137.314Y-41.425
X137.314Y-49.675
X137.314Y-51.675
X137.4Y-38.556
X137.403Y-40.009
X137.421Y-35.721
X137.5Y-79.28
X137.9Y-72.941
X138.064Y-50.675
X138.179Y-82.308
X138.26Y-46.011
X139.168Y-81.355
X139.314Y-47.925
X139.358Y-41.425
X139.867Y-40.935
X139.887Y-37.64
X140.5Y-45.613
X140.586Y-41.28
X140.762Y-40.458
X140.85Y-39.73
X141.338Y-43.28
X141.564Y-48.675
X141.936Y-76.884
X142.15Y-44.921
X142.62Y-41.3
X143.0Y-39.28
X143.559Y-37.4
X143.751Y-42.425
X144.023Y-45.675
X144.483Y-42.425
X144.5Y-40.78
X144.918Y-44.859
X145.564Y-40.925
X146.202Y-44.175
X150.798Y-88.384
X151.436Y-91.634
X152.082Y-87.7
X152.5Y-91.78
X152.517Y-90.134
X152.977Y-86.884
X153.249Y-90.134
X153.44Y-95.159
X154.0Y-93.28
X154.38Y-91.26
X154.85Y-87.638
X155.064Y-55.675
X155.436Y-83.884
X155.662Y-89.28
X156.15Y-92.83
X156.238Y-92.101
X156.414Y-91.28
X156.5Y-86.947
X157.112Y-94.92
X157.133Y-91.624
X157.642Y-91.134
X157.686Y-84.634
X157.832Y-51.205
X158.74Y-86.548
X158.821Y-50.251
X158.936Y-81.884
X159.1Y-59.618
X159.5Y-53.28
X159.579Y-96.839
X159.597Y-92.551
X159.6Y-94.003
X159.686Y-80.884
X159.686Y-82.884
X159.686Y-91.134
X160.0Y-83.78
X161.0Y-51.28
X161.318Y-59.099
X161.639Y-57.011
X161.936Y-86.884
X161.936Y-92.134
X161.936Y-93.634
X162.0Y-55.28
X162.131Y-47.325
X162.186Y-78.884
X162.186Y-82.134
X162.803Y-47.856
X162.936Y-78.134
X163.935Y-53.68
X163.936Y-78.384
X164.436Y-76.384
X164.915Y-54.091
X164.939Y-59.349
X165.064Y-61.675
X165.686Y-78.134
X166.334Y-57.902
X166.37Y-53.669
X166.7Y-80.288
X167.065Y-56.283
X167.517Y-79.678
X167.586Y-71.693
X167.757Y-78.677
X168.243Y-53.882
X168.414Y-60.867
X168.483Y-52.881
X168.935Y-76.276
X169.3Y-52.271
X169.63Y-78.89
X169.666Y-74.657
X170.314Y-54.425
X170.936Y-70.884
X171.061Y-73.21
X171.085Y-78.469
X171.564Y-56.175
X172.064Y-54.175
X172.065Y-78.879
X173.064Y-54.425
X173.197Y-84.704
X173.814Y-50.425
X173.814Y-53.675
X173.869Y-85.234
X174.0Y-77.28
X174.064Y-38.925
X174.064Y-40.425
X174.064Y-45.675
X174.361Y-75.548
X174.682Y-73.461
X175.0Y-81.28
X176.0Y-48.78
X176.314Y-41.425
X176.314Y-49.675
X176.314Y-51.675
X176.4Y-38.556
X176.403Y-40.009
X176.421Y-35.721
X176.5Y-79.28
X176.9Y-72.941
X177.064Y-50.675
X177.179Y-82.308
X177.26Y-46.011
X178.168Y-81.355
X178.314Y-47.925
X178.358Y-41.425
X178.867Y-40.935
X178.887Y-37.64
X179.5Y-45.613
X179.586Y-41.28
X179.762Y-40.458
X179.85Y-39.73
X180.338Y-43.28
X180.564Y-48.675
X180.936Y-76.884
X181.15Y-44.921
X181.62Y-41.3
X182.0Y-39.28
X182.559Y-37.4
X182.751Y-42.425
X183.023Y-45.675
X183.483Y-42.425
X183.5Y-40.78
X183.918Y-44.859
X184.564Y-40.925
X185.202Y-44.175
M30
