%TF.GenerationSoftware,KiCad,Pcbnew,10.0.6*%
%TF.CreationDate,2026-09-27T19:28:39+02:00*%
%TF.ProjectId,shotpuck-panel,73686f74-7075-4636-9b2d-70616e656c2e,rev?*%
%TF.SameCoordinates,Original*%
%TF.FileFunction,Soldermask,Top*%
%TF.FilePolarity,Negative*%
%FSLAX46Y46*%
G04 Gerber Fmt 4.6, Leading zero omitted, Abs format (unit mm)*
G04 Created by KiCad (PCBNEW 10.0.6) date 2026-09-27 19:28:39*
%MOMM*%
%LPD*%
G01*
G04 APERTURE LIST*
G04 Aperture macros list*
%AMRoundRect*
0 Rectangle with rounded corners*
0 $1 Rounding radius*
0 $2 $3 $4 $5 $6 $7 $8 $9 X,Y pos of 4 corners*
0 Add a 4 corners polygon primitive as box body*
4,1,4,$2,$3,$4,$5,$6,$7,$8,$9,$2,$3,0*
0 Add four circle primitives for the rounded corners*
1,1,$1+$1,$2,$3*
1,1,$1+$1,$4,$5*
1,1,$1+$1,$6,$7*
1,1,$1+$1,$8,$9*
0 Add four rect primitives between the rounded corners*
20,1,$1+$1,$2,$3,$4,$5,0*
20,1,$1+$1,$4,$5,$6,$7,0*
20,1,$1+$1,$6,$7,$8,$9,0*
20,1,$1+$1,$8,$9,$2,$3,0*%
%AMRotRect*
0 Rectangle, with rotation*
0 The origin of the aperture is its center*
0 $1 length*
0 $2 width*
0 $3 Rotation angle, in degrees counterclockwise*
0 Add horizontal line*
21,1,$1,$2,0,0,$3*%
G04 Aperture macros list end*
%ADD10C,0.500000*%
%ADD11RoundRect,0.087500X0.425000X0.087500X-0.425000X0.087500X-0.425000X-0.087500X0.425000X-0.087500X0*%
%ADD12RoundRect,0.135000X-0.185000X0.135000X-0.185000X-0.135000X0.185000X-0.135000X0.185000X0.135000X0*%
%ADD13RoundRect,0.140000X0.170000X-0.140000X0.170000X0.140000X-0.170000X0.140000X-0.170000X-0.140000X0*%
%ADD14C,1.152000*%
%ADD15RoundRect,0.125000X0.125000X0.125000X-0.125000X0.125000X-0.125000X-0.125000X0.125000X-0.125000X0*%
%ADD16RoundRect,0.140000X-0.170000X0.140000X-0.170000X-0.140000X0.170000X-0.140000X0.170000X0.140000X0*%
%ADD17RoundRect,0.140000X-0.140000X-0.170000X0.140000X-0.170000X0.140000X0.170000X-0.140000X0.170000X0*%
%ADD18C,2.400000*%
%ADD19RoundRect,0.150000X-0.150000X-0.200000X0.150000X-0.200000X0.150000X0.200000X-0.150000X0.200000X0*%
%ADD20RoundRect,0.087500X-0.087500X0.225000X-0.087500X-0.225000X0.087500X-0.225000X0.087500X0.225000X0*%
%ADD21RoundRect,0.087500X-0.225000X0.087500X-0.225000X-0.087500X0.225000X-0.087500X0.225000X0.087500X0*%
%ADD22RoundRect,0.140000X0.140000X0.170000X-0.140000X0.170000X-0.140000X-0.170000X0.140000X-0.170000X0*%
%ADD23RoundRect,0.135000X0.185000X-0.135000X0.185000X0.135000X-0.185000X0.135000X-0.185000X-0.135000X0*%
%ADD24RoundRect,0.147500X-0.147500X-0.172500X0.147500X-0.172500X0.147500X0.172500X-0.147500X0.172500X0*%
%ADD25RoundRect,0.225000X0.225000X0.250000X-0.225000X0.250000X-0.225000X-0.250000X0.225000X-0.250000X0*%
%ADD26RoundRect,0.087500X-0.425000X-0.087500X0.425000X-0.087500X0.425000X0.087500X-0.425000X0.087500X0*%
%ADD27C,2.000000*%
%ADD28RoundRect,0.135000X0.135000X0.185000X-0.135000X0.185000X-0.135000X-0.185000X0.135000X-0.185000X0*%
%ADD29RoundRect,0.125000X0.125000X-0.125000X0.125000X0.125000X-0.125000X0.125000X-0.125000X-0.125000X0*%
%ADD30RoundRect,0.125000X-0.125000X0.125000X-0.125000X-0.125000X0.125000X-0.125000X0.125000X0.125000X0*%
%ADD31RoundRect,0.150000X-0.512500X-0.150000X0.512500X-0.150000X0.512500X0.150000X-0.512500X0.150000X0*%
%ADD32RoundRect,0.150000X0.150000X0.200000X-0.150000X0.200000X-0.150000X-0.200000X0.150000X-0.200000X0*%
%ADD33RoundRect,0.225000X-0.225000X-0.250000X0.225000X-0.250000X0.225000X0.250000X-0.225000X0.250000X0*%
%ADD34R,0.400000X0.600000*%
%ADD35R,0.600000X0.400000*%
%ADD36RoundRect,0.125000X-0.125000X-0.125000X0.125000X-0.125000X0.125000X0.125000X-0.125000X0.125000X0*%
%ADD37RotRect,1.300000X1.300000X255.000000*%
%ADD38C,1.300000*%
%ADD39RotRect,2.500000X2.000000X59.984259*%
%ADD40RotRect,2.500000X2.000000X99.944731*%
%ADD41RoundRect,0.087500X0.087500X-0.225000X0.087500X0.225000X-0.087500X0.225000X-0.087500X-0.225000X0*%
%ADD42RoundRect,0.087500X0.225000X-0.087500X0.225000X0.087500X-0.225000X0.087500X-0.225000X-0.087500X0*%
%ADD43RoundRect,0.150000X0.512500X0.150000X-0.512500X0.150000X-0.512500X-0.150000X0.512500X-0.150000X0*%
%ADD44RotRect,1.300000X1.300000X75.000000*%
%ADD45RoundRect,0.070000X0.355000X-0.070000X0.355000X0.070000X-0.355000X0.070000X-0.355000X-0.070000X0*%
%ADD46RoundRect,0.070000X0.305000X-0.070000X0.305000X0.070000X-0.305000X0.070000X-0.305000X-0.070000X0*%
%ADD47RoundRect,0.147500X0.147500X0.172500X-0.147500X0.172500X-0.147500X-0.172500X0.147500X-0.172500X0*%
%ADD48RoundRect,0.135000X-0.135000X-0.185000X0.135000X-0.185000X0.135000X0.185000X-0.135000X0.185000X0*%
%ADD49RoundRect,0.070000X-0.355000X0.070000X-0.355000X-0.070000X0.355000X-0.070000X0.355000X0.070000X0*%
%ADD50RoundRect,0.070000X-0.305000X0.070000X-0.305000X-0.070000X0.305000X-0.070000X0.305000X0.070000X0*%
%ADD51RotRect,2.500000X2.000000X239.984259*%
%ADD52RotRect,2.500000X2.000000X279.944731*%
G04 APERTURE END LIST*
D10*
%TO.C,KiKit_MB_12_1*%
X112212628Y-89691643D03*
%TD*%
D11*
%TO.C,Q2_1*%
X179437500Y-36429616D03*
X179437500Y-35779616D03*
X179437500Y-35129616D03*
X177762500Y-35129616D03*
X177762500Y-35779616D03*
X177762500Y-36429616D03*
%TD*%
D12*
%TO.C,R2_0*%
X144600000Y-45869616D03*
X144600000Y-46889616D03*
%TD*%
D10*
%TO.C,KiKit_MB_13_1*%
X160033623Y-99718212D03*
%TD*%
D13*
%TO.C,C7_3*%
X155400000Y-75059616D03*
X155400000Y-74099616D03*
%TD*%
D10*
%TO.C,KiKit_MB_20_6*%
X186000000Y-107344946D03*
%TD*%
%TO.C,KiKit_MB_23_7*%
X193642857Y-28000000D03*
%TD*%
D14*
%TO.C,KiKit_TO_3*%
X105500000Y-106059232D03*
%TD*%
D15*
%TO.C,D1_0*%
X120150000Y-47379616D03*
X117950000Y-47379616D03*
%TD*%
D16*
%TO.C,C7_1*%
X180600000Y-53499616D03*
X180600000Y-54459616D03*
%TD*%
D10*
%TO.C,KiKit_MB_16_6*%
X150314704Y-85758894D03*
%TD*%
D17*
%TO.C,C4_0*%
X139220000Y-53879616D03*
X140180000Y-53879616D03*
%TD*%
D10*
%TO.C,KiKit_MB_6_1*%
X169983932Y-62476197D03*
%TD*%
D12*
%TO.C,R3_1*%
X178300000Y-46469616D03*
X178300000Y-47489616D03*
%TD*%
D18*
%TO.C,H1_3*%
X180639733Y-73173621D03*
%TD*%
D19*
%TO.C,D3_1*%
X158400000Y-45179616D03*
X157000000Y-45179616D03*
%TD*%
D20*
%TO.C,U2_3*%
X158550000Y-71117116D03*
X158050000Y-71117116D03*
X157550000Y-71117116D03*
X157050000Y-71117116D03*
D21*
X156887500Y-71779616D03*
X156887500Y-72279616D03*
X156887500Y-72779616D03*
D20*
X157050000Y-73442116D03*
X157550000Y-73442116D03*
X158050000Y-73442116D03*
X158550000Y-73442116D03*
D21*
X158712500Y-72779616D03*
X158712500Y-72279616D03*
X158712500Y-71779616D03*
%TD*%
D22*
%TO.C,C5_2*%
X118780000Y-76879616D03*
X117820000Y-76879616D03*
%TD*%
D23*
%TO.C,R1_2*%
X113800000Y-85789616D03*
X113800000Y-84769616D03*
%TD*%
D10*
%TO.C,KiKit_MB_4_6*%
X146685295Y-42800338D03*
%TD*%
D18*
%TO.C,H1_2*%
X141639733Y-73173621D03*
%TD*%
%TO.C,H3_3*%
X177464011Y-97295624D03*
%TD*%
D10*
%TO.C,KiKit_MB_14_2*%
X167006981Y-66009940D03*
%TD*%
%TO.C,KiKit_MB_9_3*%
X119449993Y-98794462D03*
%TD*%
D18*
%TO.C,H3_2*%
X138464011Y-97295624D03*
%TD*%
D24*
%TO.C,D4_2*%
X122115000Y-80479616D03*
X123085000Y-80479616D03*
%TD*%
D10*
%TO.C,KiKit_MB_14_3*%
X168000000Y-65979676D03*
%TD*%
%TO.C,KiKit_MB_9_5*%
X117956114Y-97732911D03*
%TD*%
D25*
%TO.C,C2_1*%
X182175000Y-40679617D03*
X180625000Y-40679617D03*
%TD*%
D13*
%TO.C,C7_2*%
X116400000Y-75059616D03*
X116400000Y-74099616D03*
%TD*%
D10*
%TO.C,KiKit_MB_23_5*%
X191928571Y-28000000D03*
%TD*%
D12*
%TO.C,R1_1*%
X183200000Y-42769616D03*
X183200000Y-43789616D03*
%TD*%
D10*
%TO.C,KiKit_MB_21_4*%
X105071429Y-28000000D03*
%TD*%
%TO.C,KiKit_MB_1_6*%
X140747969Y-31413260D03*
%TD*%
%TO.C,KiKit_MB_12_2*%
X111960119Y-88923536D03*
%TD*%
%TO.C,KiKit_MB_16_5*%
X150421998Y-86560155D03*
%TD*%
D26*
%TO.C,Q2_2*%
X117562500Y-92129616D03*
X117562500Y-92779616D03*
X117562500Y-93429616D03*
X119237500Y-93429616D03*
X119237500Y-92779616D03*
X119237500Y-92129616D03*
%TD*%
D27*
%TO.C,KiKit_FID_T_1*%
X108000000Y-22500000D03*
%TD*%
D10*
%TO.C,KiKit_MB_2_5*%
X127016068Y-62476197D03*
%TD*%
D22*
%TO.C,C3_3*%
X157780000Y-75779616D03*
X156820000Y-75779616D03*
%TD*%
D17*
%TO.C,C3_0*%
X139220000Y-52779616D03*
X140180000Y-52779616D03*
%TD*%
D10*
%TO.C,KiKit_MB_22_5*%
X105928572Y-100559232D03*
%TD*%
D28*
%TO.C,R8_1*%
X181110000Y-33879616D03*
X180090000Y-33879616D03*
%TD*%
D10*
%TO.C,KiKit_MB_5_4*%
X178310587Y-30276341D03*
%TD*%
%TO.C,KiKit_MB_11_2*%
X146578001Y-86560155D03*
%TD*%
%TO.C,KiKit_MB_14_1*%
X166016067Y-66083034D03*
%TD*%
D11*
%TO.C,Q1_0*%
X143037500Y-47629616D03*
X143037500Y-46979616D03*
X143037500Y-46329616D03*
X141362500Y-46329616D03*
X141362500Y-46979616D03*
X141362500Y-47629616D03*
%TD*%
D10*
%TO.C,KiKit_MB_23_3*%
X190214285Y-28000000D03*
%TD*%
%TO.C,KiKit_MB_24_7*%
X193642857Y-100559232D03*
%TD*%
D27*
%TO.C,KiKit_FID_T_2*%
X189000000Y-22500000D03*
%TD*%
D10*
%TO.C,KiKit_MB_12_4*%
X111565346Y-87355810D03*
%TD*%
D12*
%TO.C,R2_1*%
X183600000Y-45869616D03*
X183600000Y-46889616D03*
%TD*%
D24*
%TO.C,D4_3*%
X161115000Y-80479616D03*
X162085000Y-80479616D03*
%TD*%
D10*
%TO.C,KiKit_MB_17_5*%
X111000000Y-22928572D03*
%TD*%
D27*
%TO.C,KiKit_FID_T_3*%
X108000000Y-106059232D03*
%TD*%
D29*
%TO.C,D2_3*%
X159000000Y-86179616D03*
X159000000Y-83979616D03*
%TD*%
D10*
%TO.C,KiKit_MB_10_4*%
X129993018Y-66009940D03*
%TD*%
D30*
%TO.C,D2_1*%
X177000000Y-42379616D03*
X177000000Y-44579616D03*
%TD*%
D10*
%TO.C,KiKit_MB_7_3*%
X150565345Y-41203422D03*
%TD*%
%TO.C,KiKit_MB_5_2*%
X176764150Y-29292954D03*
%TD*%
D16*
%TO.C,C6_1*%
X180400000Y-55499616D03*
X180400000Y-56459616D03*
%TD*%
D18*
%TO.C,H1_0*%
X116360267Y-55385611D03*
%TD*%
D10*
%TO.C,KiKit_MB_5_6*%
X179747969Y-31413260D03*
%TD*%
D28*
%TO.C,R8_0*%
X142110000Y-33879616D03*
X141090000Y-33879616D03*
%TD*%
D26*
%TO.C,Q2_3*%
X156562500Y-92129616D03*
X156562500Y-92779616D03*
X156562500Y-93429616D03*
X158237500Y-93429616D03*
X158237500Y-92779616D03*
X158237500Y-92129616D03*
%TD*%
D31*
%TO.C,U3_3*%
X154462500Y-84329616D03*
X154462500Y-85279616D03*
X154462500Y-86229616D03*
X156737500Y-86229616D03*
X156737500Y-84329616D03*
%TD*%
D10*
%TO.C,KiKit_MB_19_6*%
X111000000Y-107344946D03*
%TD*%
D25*
%TO.C,C2_0*%
X143175000Y-40679617D03*
X141625000Y-40679617D03*
%TD*%
D10*
%TO.C,KiKit_MB_24_4*%
X191071428Y-100559232D03*
%TD*%
D22*
%TO.C,C4_3*%
X157780000Y-74679616D03*
X156820000Y-74679616D03*
%TD*%
D32*
%TO.C,D3_2*%
X138600000Y-83379616D03*
X140000000Y-83379616D03*
%TD*%
D10*
%TO.C,KiKit_MB_20_7*%
X186000000Y-108202089D03*
%TD*%
D18*
%TO.C,H2_3*%
X152495072Y-78136284D03*
%TD*%
D10*
%TO.C,KiKit_MB_1_4*%
X139310587Y-30276341D03*
%TD*%
%TO.C,KiKit_MB_20_2*%
X186000000Y-103916374D03*
%TD*%
%TO.C,KiKit_MB_23_6*%
X192785714Y-28000000D03*
%TD*%
D30*
%TO.C,D2_0*%
X138000000Y-42379616D03*
X138000000Y-44579616D03*
%TD*%
D10*
%TO.C,KiKit_MB_8_1*%
X184787372Y-38867589D03*
%TD*%
D22*
%TO.C,C8_1*%
X182080000Y-37879616D03*
X181120000Y-37879616D03*
%TD*%
D10*
%TO.C,KiKit_MB_4_2*%
X146039881Y-39635696D03*
%TD*%
%TO.C,KiKit_MB_13_4*%
X157689412Y-98282891D03*
%TD*%
D33*
%TO.C,C2_2*%
X114825000Y-87879615D03*
X116375000Y-87879615D03*
%TD*%
D10*
%TO.C,KiKit_MB_17_7*%
X111000000Y-24642858D03*
%TD*%
D25*
%TO.C,C1_0*%
X123175000Y-47679616D03*
X121625000Y-47679616D03*
%TD*%
D10*
%TO.C,KiKit_MB_22_7*%
X107642858Y-100559232D03*
%TD*%
D34*
%TO.C,U1_3*%
X171800000Y-68479616D03*
X170700000Y-68479616D03*
X169900000Y-68479616D03*
X168300000Y-68479616D03*
X167900000Y-69379616D03*
X167500000Y-68479616D03*
X167100000Y-69379616D03*
X166700000Y-68479616D03*
X166300000Y-69379616D03*
X165900000Y-68479616D03*
X165500000Y-69379616D03*
X165100000Y-68479616D03*
X164700000Y-69379616D03*
X164300000Y-68479616D03*
D35*
X160900000Y-68329616D03*
X160900000Y-69129616D03*
X160900000Y-69929616D03*
X160900000Y-70729616D03*
X161800000Y-71129616D03*
X160900000Y-71529616D03*
X161800000Y-71929616D03*
X160900000Y-72329616D03*
X161800000Y-72729616D03*
X160900000Y-73129616D03*
X161800000Y-73529616D03*
X160900000Y-73929616D03*
X161800000Y-74329616D03*
X160900000Y-74729616D03*
X161800000Y-75129616D03*
X160900000Y-75529616D03*
X160900000Y-76329616D03*
X160900000Y-77129616D03*
X160900000Y-77929616D03*
D34*
X161900000Y-77779616D03*
X162700000Y-77779616D03*
X163100000Y-76879616D03*
X163500000Y-77779616D03*
X163900000Y-76879616D03*
X164300000Y-77779616D03*
X164700000Y-76879616D03*
X165100000Y-77779616D03*
X165500000Y-76879616D03*
X166300000Y-76879616D03*
X166700000Y-77779616D03*
X167100000Y-76879616D03*
X167500000Y-77779616D03*
X167900000Y-76879616D03*
X168300000Y-77779616D03*
X168700000Y-76879616D03*
X169500000Y-76879616D03*
X169900000Y-77779616D03*
X170300000Y-76879616D03*
X170700000Y-77779616D03*
X171100000Y-76879616D03*
X171800000Y-77779616D03*
D35*
X167500000Y-71129616D03*
X167500000Y-71929616D03*
X167500000Y-72729616D03*
X167500000Y-73529616D03*
X167500000Y-74329616D03*
X167500000Y-75129616D03*
%TD*%
D10*
%TO.C,KiKit_MB_15_5*%
X185039881Y-88923536D03*
%TD*%
%TO.C,KiKit_MB_6_2*%
X168993018Y-62549291D03*
%TD*%
D36*
%TO.C,D1_2*%
X137850000Y-81179616D03*
X140050000Y-81179616D03*
%TD*%
D10*
%TO.C,KiKit_MB_12_6*%
X111314705Y-85758894D03*
%TD*%
%TO.C,KiKit_MB_15_1*%
X185685295Y-85758894D03*
%TD*%
%TO.C,KiKit_MB_22_4*%
X105071429Y-100559232D03*
%TD*%
D37*
%TO.C,J1_0*%
X115803524Y-39952209D03*
D38*
X115156476Y-42367023D03*
%TD*%
D39*
%TO.C,BT1_0*%
X136270000Y-37229616D03*
D40*
X137270000Y-31579617D03*
%TD*%
D17*
%TO.C,C4_1*%
X178220000Y-53879616D03*
X179180000Y-53879616D03*
%TD*%
D34*
%TO.C,U1_2*%
X132800000Y-68479616D03*
X131700000Y-68479616D03*
X130900000Y-68479616D03*
X129300000Y-68479616D03*
X128900000Y-69379616D03*
X128500000Y-68479616D03*
X128100000Y-69379616D03*
X127700000Y-68479616D03*
X127300000Y-69379616D03*
X126900000Y-68479616D03*
X126500000Y-69379616D03*
X126100000Y-68479616D03*
X125700000Y-69379616D03*
X125300000Y-68479616D03*
D35*
X121900000Y-68329616D03*
X121900000Y-69129616D03*
X121900000Y-69929616D03*
X121900000Y-70729616D03*
X122800000Y-71129616D03*
X121900000Y-71529616D03*
X122800000Y-71929616D03*
X121900000Y-72329616D03*
X122800000Y-72729616D03*
X121900000Y-73129616D03*
X122800000Y-73529616D03*
X121900000Y-73929616D03*
X122800000Y-74329616D03*
X121900000Y-74729616D03*
X122800000Y-75129616D03*
X121900000Y-75529616D03*
X121900000Y-76329616D03*
X121900000Y-77129616D03*
X121900000Y-77929616D03*
D34*
X122900000Y-77779616D03*
X123700000Y-77779616D03*
X124100000Y-76879616D03*
X124500000Y-77779616D03*
X124900000Y-76879616D03*
X125300000Y-77779616D03*
X125700000Y-76879616D03*
X126100000Y-77779616D03*
X126500000Y-76879616D03*
X127300000Y-76879616D03*
X127700000Y-77779616D03*
X128100000Y-76879616D03*
X128500000Y-77779616D03*
X128900000Y-76879616D03*
X129300000Y-77779616D03*
X129700000Y-76879616D03*
X130500000Y-76879616D03*
X130900000Y-77779616D03*
X131300000Y-76879616D03*
X131700000Y-77779616D03*
X132100000Y-76879616D03*
X132800000Y-77779616D03*
D35*
X128500000Y-71129616D03*
X128500000Y-71929616D03*
X128500000Y-72729616D03*
X128500000Y-73529616D03*
X128500000Y-74329616D03*
X128500000Y-75129616D03*
%TD*%
D10*
%TO.C,KiKit_MB_22_2*%
X103357143Y-100559232D03*
%TD*%
D14*
%TO.C,KiKit_TO_2*%
X191500000Y-22500000D03*
%TD*%
D10*
%TO.C,KiKit_MB_3_3*%
X111565346Y-41203422D03*
%TD*%
D12*
%TO.C,R7_0*%
X144400000Y-38969616D03*
X144400000Y-39989616D03*
%TD*%
D10*
%TO.C,KiKit_MB_21_3*%
X104214286Y-28000000D03*
%TD*%
D17*
%TO.C,C5_1*%
X178220000Y-51679616D03*
X179180000Y-51679616D03*
%TD*%
D10*
%TO.C,KiKit_MB_12_5*%
X111421999Y-86560155D03*
%TD*%
%TO.C,KiKit_MB_23_4*%
X191071428Y-28000000D03*
%TD*%
D15*
%TO.C,D1_1*%
X159150000Y-47379616D03*
X156950000Y-47379616D03*
%TD*%
D10*
%TO.C,KiKit_MB_15_2*%
X185578001Y-86560155D03*
%TD*%
D22*
%TO.C,C5_3*%
X157780000Y-76879616D03*
X156820000Y-76879616D03*
%TD*%
D10*
%TO.C,KiKit_MB_6_5*%
X166016067Y-62476197D03*
%TD*%
%TO.C,KiKit_MB_9_4*%
X118689413Y-98282891D03*
%TD*%
D41*
%TO.C,U2_0*%
X138450000Y-57442116D03*
X138950000Y-57442116D03*
X139450000Y-57442116D03*
X139950000Y-57442116D03*
D42*
X140112500Y-56779616D03*
X140112500Y-56279616D03*
X140112500Y-55779616D03*
D41*
X139950000Y-55117116D03*
X139450000Y-55117116D03*
X138950000Y-55117116D03*
X138450000Y-55117116D03*
D42*
X138287500Y-55779616D03*
X138287500Y-56279616D03*
X138287500Y-56779616D03*
%TD*%
D10*
%TO.C,KiKit_MB_2_1*%
X130983932Y-62476197D03*
%TD*%
D17*
%TO.C,C3_1*%
X178220000Y-52779616D03*
X179180000Y-52779616D03*
%TD*%
D10*
%TO.C,KiKit_MB_19_2*%
X111000000Y-103916374D03*
%TD*%
%TO.C,KiKit_MB_24_2*%
X189357142Y-100559232D03*
%TD*%
D23*
%TO.C,R7_3*%
X152600000Y-89589616D03*
X152600000Y-88569616D03*
%TD*%
D17*
%TO.C,C8_2*%
X114920000Y-90679616D03*
X115880000Y-90679616D03*
%TD*%
D10*
%TO.C,KiKit_MB_13_3*%
X158449992Y-98794462D03*
%TD*%
%TO.C,KiKit_MB_15_6*%
X184787372Y-89691643D03*
%TD*%
%TO.C,KiKit_MB_7_2*%
X150421998Y-41999077D03*
%TD*%
%TO.C,KiKit_MB_7_1*%
X150314704Y-42800338D03*
%TD*%
%TO.C,KiKit_MB_3_5*%
X111960119Y-39635696D03*
%TD*%
D43*
%TO.C,U3_0*%
X142537500Y-44229616D03*
X142537500Y-43279616D03*
X142537500Y-42329616D03*
X140262500Y-42329616D03*
X140262500Y-44229616D03*
%TD*%
D10*
%TO.C,KiKit_MB_8_4*%
X185434654Y-41203422D03*
%TD*%
D25*
%TO.C,C1_1*%
X162175000Y-47679616D03*
X160625000Y-47679616D03*
%TD*%
D23*
%TO.C,R2_2*%
X113400000Y-82689616D03*
X113400000Y-81669616D03*
%TD*%
D10*
%TO.C,KiKit_MB_7_6*%
X151212627Y-38867589D03*
%TD*%
D33*
%TO.C,C2_3*%
X153825000Y-87879615D03*
X155375000Y-87879615D03*
%TD*%
D44*
%TO.C,J1_2*%
X142196476Y-88607023D03*
D38*
X142843524Y-86192209D03*
%TD*%
D19*
%TO.C,D3_0*%
X119400000Y-45179616D03*
X118000000Y-45179616D03*
%TD*%
D45*
%TO.C,U4_3*%
X155125000Y-93279616D03*
D46*
X155175000Y-92779616D03*
X155175000Y-92279616D03*
X154025000Y-92279616D03*
X154025000Y-92779616D03*
X154025000Y-93279616D03*
%TD*%
D10*
%TO.C,KiKit_MB_7_4*%
X150744461Y-40414983D03*
%TD*%
%TO.C,KiKit_MB_13_5*%
X156956113Y-97732911D03*
%TD*%
D47*
%TO.C,D4_1*%
X174885000Y-48079616D03*
X173915000Y-48079616D03*
%TD*%
D10*
%TO.C,KiKit_MB_4_3*%
X146255538Y-40414983D03*
%TD*%
%TO.C,KiKit_MB_13_2*%
X159235849Y-99266278D03*
%TD*%
%TO.C,KiKit_MB_6_3*%
X168000000Y-62579555D03*
%TD*%
%TO.C,KiKit_MB_8_6*%
X185685295Y-42800338D03*
%TD*%
%TO.C,KiKit_MB_4_5*%
X146578001Y-41999077D03*
%TD*%
%TO.C,KiKit_MB_24_5*%
X191928571Y-100559232D03*
%TD*%
%TO.C,KiKit_MB_12_3*%
X111744462Y-88144249D03*
%TD*%
%TO.C,KiKit_MB_14_5*%
X169983932Y-66083034D03*
%TD*%
D48*
%TO.C,R4_3*%
X159190000Y-79479616D03*
X160210000Y-79479616D03*
%TD*%
D12*
%TO.C,R7_1*%
X183400000Y-38969616D03*
X183400000Y-39989616D03*
%TD*%
D16*
%TO.C,C7_0*%
X141600000Y-53499616D03*
X141600000Y-54459616D03*
%TD*%
D10*
%TO.C,KiKit_MB_19_4*%
X111000000Y-105630660D03*
%TD*%
D13*
%TO.C,C6_3*%
X155600000Y-73059616D03*
X155600000Y-72099616D03*
%TD*%
D10*
%TO.C,KiKit_MB_8_5*%
X185578001Y-41999077D03*
%TD*%
%TO.C,KiKit_MB_2_2*%
X129993018Y-62549291D03*
%TD*%
D26*
%TO.C,Q1_2*%
X114962500Y-80929616D03*
X114962500Y-81579616D03*
X114962500Y-82229616D03*
X116637500Y-82229616D03*
X116637500Y-81579616D03*
X116637500Y-80929616D03*
%TD*%
D34*
%TO.C,U1_1*%
X164200000Y-60079616D03*
X165300000Y-60079616D03*
X166100000Y-60079616D03*
X167700000Y-60079616D03*
X168100000Y-59179616D03*
X168500000Y-60079616D03*
X168900000Y-59179616D03*
X169300000Y-60079616D03*
X169700000Y-59179616D03*
X170100000Y-60079616D03*
X170500000Y-59179616D03*
X170900000Y-60079616D03*
X171300000Y-59179616D03*
X171700000Y-60079616D03*
D35*
X175100000Y-60229616D03*
X175100000Y-59429616D03*
X175100000Y-58629616D03*
X175100000Y-57829616D03*
X174200000Y-57429616D03*
X175100000Y-57029616D03*
X174200000Y-56629616D03*
X175100000Y-56229616D03*
X174200000Y-55829616D03*
X175100000Y-55429616D03*
X174200000Y-55029616D03*
X175100000Y-54629616D03*
X174200000Y-54229616D03*
X175100000Y-53829616D03*
X174200000Y-53429616D03*
X175100000Y-53029616D03*
X175100000Y-52229616D03*
X175100000Y-51429616D03*
X175100000Y-50629616D03*
D34*
X174100000Y-50779616D03*
X173300000Y-50779616D03*
X172900000Y-51679616D03*
X172500000Y-50779616D03*
X172100000Y-51679616D03*
X171700000Y-50779616D03*
X171300000Y-51679616D03*
X170900000Y-50779616D03*
X170500000Y-51679616D03*
X169700000Y-51679616D03*
X169300000Y-50779616D03*
X168900000Y-51679616D03*
X168500000Y-50779616D03*
X168100000Y-51679616D03*
X167700000Y-50779616D03*
X167300000Y-51679616D03*
X166500000Y-51679616D03*
X166100000Y-50779616D03*
X165700000Y-51679616D03*
X165300000Y-50779616D03*
X164900000Y-51679616D03*
X164200000Y-50779616D03*
D35*
X168500000Y-57429616D03*
X168500000Y-56629616D03*
X168500000Y-55829616D03*
X168500000Y-55029616D03*
X168500000Y-54229616D03*
X168500000Y-53429616D03*
%TD*%
D10*
%TO.C,KiKit_MB_11_4*%
X146255538Y-88144249D03*
%TD*%
%TO.C,KiKit_MB_5_5*%
X179043886Y-30826321D03*
%TD*%
%TO.C,KiKit_MB_7_5*%
X150960118Y-39635696D03*
%TD*%
D18*
%TO.C,H1_1*%
X155360267Y-55385611D03*
%TD*%
D10*
%TO.C,KiKit_MB_18_7*%
X186000000Y-24642858D03*
%TD*%
D49*
%TO.C,U4_0*%
X141875000Y-35279616D03*
D50*
X141825000Y-35779616D03*
X141825000Y-36279616D03*
X142975000Y-36279616D03*
X142975000Y-35779616D03*
X142975000Y-35279616D03*
%TD*%
D10*
%TO.C,KiKit_MB_24_6*%
X192785714Y-100559232D03*
%TD*%
%TO.C,KiKit_MB_19_3*%
X111000000Y-104773517D03*
%TD*%
%TO.C,KiKit_MB_18_6*%
X186000000Y-23785715D03*
%TD*%
D34*
%TO.C,U1_0*%
X125200000Y-60079616D03*
X126300000Y-60079616D03*
X127100000Y-60079616D03*
X128700000Y-60079616D03*
X129100000Y-59179616D03*
X129500000Y-60079616D03*
X129900000Y-59179616D03*
X130300000Y-60079616D03*
X130700000Y-59179616D03*
X131100000Y-60079616D03*
X131500000Y-59179616D03*
X131900000Y-60079616D03*
X132300000Y-59179616D03*
X132700000Y-60079616D03*
D35*
X136100000Y-60229616D03*
X136100000Y-59429616D03*
X136100000Y-58629616D03*
X136100000Y-57829616D03*
X135200000Y-57429616D03*
X136100000Y-57029616D03*
X135200000Y-56629616D03*
X136100000Y-56229616D03*
X135200000Y-55829616D03*
X136100000Y-55429616D03*
X135200000Y-55029616D03*
X136100000Y-54629616D03*
X135200000Y-54229616D03*
X136100000Y-53829616D03*
X135200000Y-53429616D03*
X136100000Y-53029616D03*
X136100000Y-52229616D03*
X136100000Y-51429616D03*
X136100000Y-50629616D03*
D34*
X135100000Y-50779616D03*
X134300000Y-50779616D03*
X133900000Y-51679616D03*
X133500000Y-50779616D03*
X133100000Y-51679616D03*
X132700000Y-50779616D03*
X132300000Y-51679616D03*
X131900000Y-50779616D03*
X131500000Y-51679616D03*
X130700000Y-51679616D03*
X130300000Y-50779616D03*
X129900000Y-51679616D03*
X129500000Y-50779616D03*
X129100000Y-51679616D03*
X128700000Y-50779616D03*
X128300000Y-51679616D03*
X127500000Y-51679616D03*
X127100000Y-50779616D03*
X126700000Y-51679616D03*
X126300000Y-50779616D03*
X125900000Y-51679616D03*
X125200000Y-50779616D03*
D35*
X129500000Y-57429616D03*
X129500000Y-56629616D03*
X129500000Y-55829616D03*
X129500000Y-55029616D03*
X129500000Y-54229616D03*
X129500000Y-53429616D03*
%TD*%
D10*
%TO.C,KiKit_MB_16_1*%
X151212627Y-89691643D03*
%TD*%
%TO.C,KiKit_MB_3_6*%
X112212628Y-38867589D03*
%TD*%
D36*
%TO.C,D1_3*%
X176850000Y-81179616D03*
X179050000Y-81179616D03*
%TD*%
D10*
%TO.C,KiKit_MB_19_5*%
X111000000Y-106487803D03*
%TD*%
%TO.C,KiKit_MB_1_1*%
X136966376Y-28841020D03*
%TD*%
%TO.C,KiKit_MB_5_1*%
X175966376Y-28841020D03*
%TD*%
%TO.C,KiKit_MB_15_3*%
X185434654Y-87355810D03*
%TD*%
D18*
%TO.C,H2_0*%
X144504928Y-50422948D03*
%TD*%
D10*
%TO.C,KiKit_MB_6_4*%
X167006981Y-62549291D03*
%TD*%
D13*
%TO.C,C6_2*%
X116600000Y-73059616D03*
X116600000Y-72099616D03*
%TD*%
D10*
%TO.C,KiKit_MB_5_3*%
X177550007Y-29764770D03*
%TD*%
%TO.C,KiKit_MB_16_2*%
X150960118Y-88923536D03*
%TD*%
%TO.C,KiKit_MB_3_1*%
X111314705Y-42800338D03*
%TD*%
%TO.C,KiKit_MB_17_4*%
X111000000Y-22071429D03*
%TD*%
D22*
%TO.C,C4_2*%
X118780000Y-74679616D03*
X117820000Y-74679616D03*
%TD*%
D10*
%TO.C,KiKit_MB_3_2*%
X111421999Y-41999077D03*
%TD*%
%TO.C,KiKit_MB_9_1*%
X121033624Y-99718212D03*
%TD*%
D11*
%TO.C,Q2_0*%
X140437500Y-36429616D03*
X140437500Y-35779616D03*
X140437500Y-35129616D03*
X138762500Y-35129616D03*
X138762500Y-35779616D03*
X138762500Y-36429616D03*
%TD*%
D23*
%TO.C,R3_2*%
X118700000Y-82089616D03*
X118700000Y-81069616D03*
%TD*%
D41*
%TO.C,U2_1*%
X177450000Y-57442116D03*
X177950000Y-57442116D03*
X178450000Y-57442116D03*
X178950000Y-57442116D03*
D42*
X179112500Y-56779616D03*
X179112500Y-56279616D03*
X179112500Y-55779616D03*
D41*
X178950000Y-55117116D03*
X178450000Y-55117116D03*
X177950000Y-55117116D03*
X177450000Y-55117116D03*
D42*
X177287500Y-55779616D03*
X177287500Y-56279616D03*
X177287500Y-56779616D03*
%TD*%
D28*
%TO.C,R4_0*%
X137810000Y-49079616D03*
X136790000Y-49079616D03*
%TD*%
D20*
%TO.C,U2_2*%
X119550000Y-71117116D03*
X119050000Y-71117116D03*
X118550000Y-71117116D03*
X118050000Y-71117116D03*
D21*
X117887500Y-71779616D03*
X117887500Y-72279616D03*
X117887500Y-72779616D03*
D20*
X118050000Y-73442116D03*
X118550000Y-73442116D03*
X119050000Y-73442116D03*
X119550000Y-73442116D03*
D21*
X119712500Y-72779616D03*
X119712500Y-72279616D03*
X119712500Y-71779616D03*
%TD*%
D51*
%TO.C,BT1_3*%
X160730000Y-91329616D03*
D52*
X159730000Y-96979615D03*
%TD*%
D10*
%TO.C,KiKit_MB_20_4*%
X186000000Y-105630660D03*
%TD*%
%TO.C,KiKit_MB_8_3*%
X185255538Y-40414983D03*
%TD*%
%TO.C,KiKit_MB_15_4*%
X185255538Y-88144249D03*
%TD*%
D49*
%TO.C,U4_1*%
X180875000Y-35279616D03*
D50*
X180825000Y-35779616D03*
X180825000Y-36279616D03*
X181975000Y-36279616D03*
X181975000Y-35779616D03*
X181975000Y-35279616D03*
%TD*%
D48*
%TO.C,R4_2*%
X120190000Y-79479616D03*
X121210000Y-79479616D03*
%TD*%
D14*
%TO.C,KiKit_TO_1*%
X105500000Y-22500000D03*
%TD*%
D10*
%TO.C,KiKit_MB_2_3*%
X129000000Y-62579555D03*
%TD*%
D43*
%TO.C,U3_1*%
X181537500Y-44229616D03*
X181537500Y-43279616D03*
X181537500Y-42329616D03*
X179262500Y-42329616D03*
X179262500Y-44229616D03*
%TD*%
D10*
%TO.C,KiKit_MB_1_3*%
X138550007Y-29764770D03*
%TD*%
D31*
%TO.C,U3_2*%
X115462500Y-84329616D03*
X115462500Y-85279616D03*
X115462500Y-86229616D03*
X117737500Y-86229616D03*
X117737500Y-84329616D03*
%TD*%
D10*
%TO.C,KiKit_MB_16_4*%
X150565345Y-87355810D03*
%TD*%
D18*
%TO.C,H3_1*%
X158535989Y-31263608D03*
%TD*%
D47*
%TO.C,D4_0*%
X135885000Y-48079616D03*
X134915000Y-48079616D03*
%TD*%
D10*
%TO.C,KiKit_MB_10_5*%
X130983932Y-66083034D03*
%TD*%
%TO.C,KiKit_MB_10_1*%
X127016068Y-66083034D03*
%TD*%
D33*
%TO.C,C1_2*%
X134825000Y-80879616D03*
X136375000Y-80879616D03*
%TD*%
D10*
%TO.C,KiKit_MB_17_3*%
X111000000Y-21214286D03*
%TD*%
%TO.C,KiKit_MB_23_2*%
X189357142Y-28000000D03*
%TD*%
%TO.C,KiKit_MB_13_6*%
X156252030Y-97145972D03*
%TD*%
%TO.C,KiKit_MB_18_3*%
X186000000Y-21214286D03*
%TD*%
%TO.C,KiKit_MB_17_6*%
X111000000Y-23785715D03*
%TD*%
%TO.C,KiKit_MB_18_2*%
X186000000Y-20357143D03*
%TD*%
%TO.C,KiKit_MB_1_5*%
X140043886Y-30826321D03*
%TD*%
%TO.C,KiKit_MB_21_2*%
X103357143Y-28000000D03*
%TD*%
D32*
%TO.C,D3_3*%
X177600000Y-83379616D03*
X179000000Y-83379616D03*
%TD*%
D22*
%TO.C,C3_2*%
X118780000Y-75779616D03*
X117820000Y-75779616D03*
%TD*%
D29*
%TO.C,D2_2*%
X120000000Y-86179616D03*
X120000000Y-83979616D03*
%TD*%
D10*
%TO.C,KiKit_MB_2_4*%
X128006982Y-62549291D03*
%TD*%
%TO.C,KiKit_MB_3_4*%
X111744462Y-40414983D03*
%TD*%
D37*
%TO.C,J1_1*%
X154803524Y-39952209D03*
D38*
X154156476Y-42367023D03*
%TD*%
D10*
%TO.C,KiKit_MB_10_2*%
X128006982Y-66009940D03*
%TD*%
%TO.C,KiKit_MB_11_5*%
X146039881Y-88923536D03*
%TD*%
%TO.C,KiKit_MB_21_5*%
X105928572Y-28000000D03*
%TD*%
D44*
%TO.C,J1_3*%
X181196476Y-88607023D03*
D38*
X181843524Y-86192209D03*
%TD*%
D11*
%TO.C,Q1_1*%
X182037500Y-47629616D03*
X182037500Y-46979616D03*
X182037500Y-46329616D03*
X180362500Y-46329616D03*
X180362500Y-46979616D03*
X180362500Y-47629616D03*
%TD*%
D45*
%TO.C,U4_2*%
X116125000Y-93279616D03*
D46*
X116175000Y-92779616D03*
X116175000Y-92279616D03*
X115025000Y-92279616D03*
X115025000Y-92779616D03*
X115025000Y-93279616D03*
%TD*%
D12*
%TO.C,R1_0*%
X144200000Y-42769616D03*
X144200000Y-43789616D03*
%TD*%
D10*
%TO.C,KiKit_MB_21_6*%
X106785715Y-28000000D03*
%TD*%
D48*
%TO.C,R8_2*%
X115890000Y-94679616D03*
X116910000Y-94679616D03*
%TD*%
D10*
%TO.C,KiKit_MB_1_2*%
X137764150Y-29292954D03*
%TD*%
%TO.C,KiKit_MB_21_7*%
X107642858Y-28000000D03*
%TD*%
D48*
%TO.C,R8_3*%
X154890000Y-94679616D03*
X155910000Y-94679616D03*
%TD*%
D10*
%TO.C,KiKit_MB_18_5*%
X186000000Y-22928572D03*
%TD*%
D22*
%TO.C,C8_0*%
X143080000Y-37879616D03*
X142120000Y-37879616D03*
%TD*%
D10*
%TO.C,KiKit_MB_16_3*%
X150744461Y-88144249D03*
%TD*%
%TO.C,KiKit_MB_11_6*%
X145787372Y-89691643D03*
%TD*%
D33*
%TO.C,C1_3*%
X173825000Y-80879616D03*
X175375000Y-80879616D03*
%TD*%
D18*
%TO.C,H2_1*%
X183504928Y-50422948D03*
%TD*%
D23*
%TO.C,R7_2*%
X113600000Y-89589616D03*
X113600000Y-88569616D03*
%TD*%
D10*
%TO.C,KiKit_MB_17_2*%
X111000000Y-20357143D03*
%TD*%
%TO.C,KiKit_MB_20_3*%
X186000000Y-104773517D03*
%TD*%
D18*
%TO.C,H2_2*%
X113495072Y-78136284D03*
%TD*%
D10*
%TO.C,KiKit_MB_4_4*%
X146434654Y-41203422D03*
%TD*%
%TO.C,KiKit_MB_14_4*%
X168993018Y-66009940D03*
%TD*%
%TO.C,KiKit_MB_9_6*%
X117252031Y-97145972D03*
%TD*%
D28*
%TO.C,R4_1*%
X176810000Y-49079616D03*
X175790000Y-49079616D03*
%TD*%
D51*
%TO.C,BT1_2*%
X121730000Y-91329616D03*
D52*
X120730000Y-96979615D03*
%TD*%
D10*
%TO.C,KiKit_MB_18_4*%
X186000000Y-22071429D03*
%TD*%
%TO.C,KiKit_MB_10_3*%
X129000000Y-65979676D03*
%TD*%
%TO.C,KiKit_MB_24_3*%
X190214285Y-100559232D03*
%TD*%
%TO.C,KiKit_MB_9_2*%
X120235850Y-99266278D03*
%TD*%
D26*
%TO.C,Q1_3*%
X153962500Y-80929616D03*
X153962500Y-81579616D03*
X153962500Y-82229616D03*
X155637500Y-82229616D03*
X155637500Y-81579616D03*
X155637500Y-80929616D03*
%TD*%
D17*
%TO.C,C8_3*%
X153920000Y-90679616D03*
X154880000Y-90679616D03*
%TD*%
D10*
%TO.C,KiKit_MB_19_7*%
X111000000Y-108202089D03*
%TD*%
D12*
%TO.C,R3_0*%
X139300000Y-46469616D03*
X139300000Y-47489616D03*
%TD*%
D10*
%TO.C,KiKit_MB_8_2*%
X185039881Y-39635696D03*
%TD*%
D23*
%TO.C,R2_3*%
X152400000Y-82689616D03*
X152400000Y-81669616D03*
%TD*%
D10*
%TO.C,KiKit_MB_20_5*%
X186000000Y-106487803D03*
%TD*%
D39*
%TO.C,BT1_1*%
X175270000Y-37229616D03*
D40*
X176270000Y-31579617D03*
%TD*%
D10*
%TO.C,KiKit_MB_22_6*%
X106785715Y-100559232D03*
%TD*%
%TO.C,KiKit_MB_4_1*%
X145787372Y-38867589D03*
%TD*%
D17*
%TO.C,C5_0*%
X139220000Y-51679616D03*
X140180000Y-51679616D03*
%TD*%
D10*
%TO.C,KiKit_MB_11_3*%
X146434654Y-87355810D03*
%TD*%
D23*
%TO.C,R3_3*%
X157700000Y-82089616D03*
X157700000Y-81069616D03*
%TD*%
D10*
%TO.C,KiKit_MB_22_3*%
X104214286Y-100559232D03*
%TD*%
D18*
%TO.C,H3_0*%
X119535989Y-31263608D03*
%TD*%
D23*
%TO.C,R1_3*%
X152800000Y-85789616D03*
X152800000Y-84769616D03*
%TD*%
D16*
%TO.C,C6_0*%
X141400000Y-55499616D03*
X141400000Y-56459616D03*
%TD*%
D10*
%TO.C,KiKit_MB_11_1*%
X146685295Y-85758894D03*
%TD*%
M02*
