%TF.GenerationSoftware,KiCad,Pcbnew,10.0.6*%
%TF.CreationDate,2026-09-27T11:20:08+02:00*%
%TF.ProjectId,shotpuck-panel,73686f74-7075-4636-9b2d-70616e656c2e,rev?*%
%TF.SameCoordinates,Original*%
%TF.FileFunction,Legend,Top*%
%TF.FilePolarity,Positive*%
%FSLAX46Y46*%
G04 Gerber Fmt 4.6, Leading zero omitted, Abs format (unit mm)*
G04 Created by KiCad (PCBNEW 10.0.6) date 2026-09-27 11:20:08*
%MOMM*%
%LPD*%
G01*
G04 APERTURE LIST*
%ADD10C,0.300000*%
%ADD11C,0.120000*%
%ADD12C,0.100000*%
G04 APERTURE END LIST*
D10*
X141571428Y-21678328D02*
X141571428Y-22749757D01*
X141571428Y-22749757D02*
X141499999Y-22964042D01*
X141499999Y-22964042D02*
X141357142Y-23106900D01*
X141357142Y-23106900D02*
X141142856Y-23178328D01*
X141142856Y-23178328D02*
X140999999Y-23178328D01*
X142999999Y-23178328D02*
X142285713Y-23178328D01*
X142285713Y-23178328D02*
X142285713Y-21678328D01*
X144357142Y-23035471D02*
X144285714Y-23106900D01*
X144285714Y-23106900D02*
X144071428Y-23178328D01*
X144071428Y-23178328D02*
X143928571Y-23178328D01*
X143928571Y-23178328D02*
X143714285Y-23106900D01*
X143714285Y-23106900D02*
X143571428Y-22964042D01*
X143571428Y-22964042D02*
X143499999Y-22821185D01*
X143499999Y-22821185D02*
X143428571Y-22535471D01*
X143428571Y-22535471D02*
X143428571Y-22321185D01*
X143428571Y-22321185D02*
X143499999Y-22035471D01*
X143499999Y-22035471D02*
X143571428Y-21892614D01*
X143571428Y-21892614D02*
X143714285Y-21749757D01*
X143714285Y-21749757D02*
X143928571Y-21678328D01*
X143928571Y-21678328D02*
X144071428Y-21678328D01*
X144071428Y-21678328D02*
X144285714Y-21749757D01*
X144285714Y-21749757D02*
X144357142Y-21821185D01*
X145428571Y-21678328D02*
X145428571Y-22749757D01*
X145428571Y-22749757D02*
X145357142Y-22964042D01*
X145357142Y-22964042D02*
X145214285Y-23106900D01*
X145214285Y-23106900D02*
X144999999Y-23178328D01*
X144999999Y-23178328D02*
X144857142Y-23178328D01*
X146857142Y-23178328D02*
X146142856Y-23178328D01*
X146142856Y-23178328D02*
X146142856Y-21678328D01*
X148214285Y-23035471D02*
X148142857Y-23106900D01*
X148142857Y-23106900D02*
X147928571Y-23178328D01*
X147928571Y-23178328D02*
X147785714Y-23178328D01*
X147785714Y-23178328D02*
X147571428Y-23106900D01*
X147571428Y-23106900D02*
X147428571Y-22964042D01*
X147428571Y-22964042D02*
X147357142Y-22821185D01*
X147357142Y-22821185D02*
X147285714Y-22535471D01*
X147285714Y-22535471D02*
X147285714Y-22321185D01*
X147285714Y-22321185D02*
X147357142Y-22035471D01*
X147357142Y-22035471D02*
X147428571Y-21892614D01*
X147428571Y-21892614D02*
X147571428Y-21749757D01*
X147571428Y-21749757D02*
X147785714Y-21678328D01*
X147785714Y-21678328D02*
X147928571Y-21678328D01*
X147928571Y-21678328D02*
X148142857Y-21749757D01*
X148142857Y-21749757D02*
X148214285Y-21821185D01*
X149285714Y-21678328D02*
X149285714Y-22749757D01*
X149285714Y-22749757D02*
X149214285Y-22964042D01*
X149214285Y-22964042D02*
X149071428Y-23106900D01*
X149071428Y-23106900D02*
X148857142Y-23178328D01*
X148857142Y-23178328D02*
X148714285Y-23178328D01*
X150714285Y-23178328D02*
X149999999Y-23178328D01*
X149999999Y-23178328D02*
X149999999Y-21678328D01*
X152071428Y-23035471D02*
X152000000Y-23106900D01*
X152000000Y-23106900D02*
X151785714Y-23178328D01*
X151785714Y-23178328D02*
X151642857Y-23178328D01*
X151642857Y-23178328D02*
X151428571Y-23106900D01*
X151428571Y-23106900D02*
X151285714Y-22964042D01*
X151285714Y-22964042D02*
X151214285Y-22821185D01*
X151214285Y-22821185D02*
X151142857Y-22535471D01*
X151142857Y-22535471D02*
X151142857Y-22321185D01*
X151142857Y-22321185D02*
X151214285Y-22035471D01*
X151214285Y-22035471D02*
X151285714Y-21892614D01*
X151285714Y-21892614D02*
X151428571Y-21749757D01*
X151428571Y-21749757D02*
X151642857Y-21678328D01*
X151642857Y-21678328D02*
X151785714Y-21678328D01*
X151785714Y-21678328D02*
X152000000Y-21749757D01*
X152000000Y-21749757D02*
X152071428Y-21821185D01*
X153142857Y-21678328D02*
X153142857Y-22749757D01*
X153142857Y-22749757D02*
X153071428Y-22964042D01*
X153071428Y-22964042D02*
X152928571Y-23106900D01*
X152928571Y-23106900D02*
X152714285Y-23178328D01*
X152714285Y-23178328D02*
X152571428Y-23178328D01*
X154571428Y-23178328D02*
X153857142Y-23178328D01*
X153857142Y-23178328D02*
X153857142Y-21678328D01*
X155928571Y-23035471D02*
X155857143Y-23106900D01*
X155857143Y-23106900D02*
X155642857Y-23178328D01*
X155642857Y-23178328D02*
X155500000Y-23178328D01*
X155500000Y-23178328D02*
X155285714Y-23106900D01*
X155285714Y-23106900D02*
X155142857Y-22964042D01*
X155142857Y-22964042D02*
X155071428Y-22821185D01*
X155071428Y-22821185D02*
X155000000Y-22535471D01*
X155000000Y-22535471D02*
X155000000Y-22321185D01*
X155000000Y-22321185D02*
X155071428Y-22035471D01*
X155071428Y-22035471D02*
X155142857Y-21892614D01*
X155142857Y-21892614D02*
X155285714Y-21749757D01*
X155285714Y-21749757D02*
X155500000Y-21678328D01*
X155500000Y-21678328D02*
X155642857Y-21678328D01*
X155642857Y-21678328D02*
X155857143Y-21749757D01*
X155857143Y-21749757D02*
X155928571Y-21821185D01*
%TO.C,R8_2*%
D11*
X119643606Y-94618623D02*
X119950888Y-94618623D01*
X119643606Y-95378623D02*
X119950888Y-95378623D01*
%TO.C,JP1_1*%
X175997247Y-32598623D02*
X178797247Y-32598623D01*
X175997247Y-34598623D02*
X175997247Y-32598623D01*
X178797247Y-32598623D02*
X178797247Y-34598623D01*
X178797247Y-34598623D02*
X175997247Y-34598623D01*
%TO.C,BT1_0*%
X136897247Y-38598623D02*
X138097247Y-38598623D01*
X137497247Y-37998623D02*
X137497247Y-39198623D01*
X145647247Y-45998623D02*
G75*
G02*
X129347247Y-45998623I-8150000J0D01*
G01*
X129347247Y-45998623D02*
G75*
G02*
X145647247Y-45998623I8150000J0D01*
G01*
%TO.C,C7_2*%
X124539411Y-95138623D02*
X124755083Y-95138623D01*
X124539411Y-95858623D02*
X124755083Y-95858623D01*
%TO.C,U1_2*%
X111897247Y-79648623D02*
X112997247Y-79648623D01*
X111897247Y-80748623D02*
X111897247Y-79648623D01*
X111897247Y-89248623D02*
X111897247Y-90348623D01*
X111897247Y-90348623D02*
X112997247Y-90348623D01*
X126497247Y-79648623D02*
X127597247Y-79648623D01*
X126497247Y-90348623D02*
X127597247Y-90348623D01*
X127597247Y-79648623D02*
X127597247Y-80748623D01*
X127597247Y-90348623D02*
X127597247Y-89248623D01*
X115997247Y-90373623D02*
X116237247Y-90709623D01*
X115757247Y-90709623D01*
X115997247Y-90373623D01*
G36*
X116237247Y-90709623D02*
G01*
X115757247Y-90709623D01*
X115997247Y-90373623D01*
X116237247Y-90709623D01*
G37*
%TO.C,C6_0*%
X123005083Y-52838623D02*
X122789411Y-52838623D01*
X123005083Y-53558623D02*
X122789411Y-53558623D01*
%TO.C,R8_0*%
X119643606Y-55618623D02*
X119950888Y-55618623D01*
X119643606Y-56378623D02*
X119950888Y-56378623D01*
%TO.C,R2_2*%
X137643606Y-99218623D02*
X137950888Y-99218623D01*
X137643606Y-99978623D02*
X137950888Y-99978623D01*
%TO.C,R3_3*%
X173017247Y-95452264D02*
X173017247Y-95144982D01*
X173777247Y-95452264D02*
X173777247Y-95144982D01*
%TO.C,BT1_1*%
X175897247Y-38598623D02*
X177097247Y-38598623D01*
X176497247Y-37998623D02*
X176497247Y-39198623D01*
X184647247Y-45998623D02*
G75*
G02*
X168347247Y-45998623I-8150000J0D01*
G01*
X168347247Y-45998623D02*
G75*
G02*
X184647247Y-45998623I8150000J0D01*
G01*
%TO.C,C2_0*%
X130887247Y-56339203D02*
X130887247Y-56058043D01*
X131907247Y-56339203D02*
X131907247Y-56058043D01*
%TO.C,C7_1*%
X163539411Y-56138623D02*
X163755083Y-56138623D01*
X163539411Y-56858623D02*
X163755083Y-56858623D01*
%TO.C,C3_3*%
X168989411Y-77738623D02*
X169205083Y-77738623D01*
X168989411Y-78458623D02*
X169205083Y-78458623D01*
%TO.C,Q2_0*%
X119262247Y-52888623D02*
X120732247Y-52888623D01*
X119262247Y-52913623D02*
X119262247Y-52888623D01*
X119262247Y-55108623D02*
X119262247Y-55083623D01*
X120732247Y-52888623D02*
X120732247Y-52913623D01*
X120732247Y-55083623D02*
X120732247Y-55108623D01*
X120732247Y-55108623D02*
X119262247Y-55108623D01*
X118817247Y-52908623D02*
X118677247Y-52718623D01*
X118957247Y-52718623D01*
X118817247Y-52908623D01*
G36*
X118817247Y-52908623D02*
G01*
X118677247Y-52718623D01*
X118957247Y-52718623D01*
X118817247Y-52908623D01*
G37*
%TO.C,R2_1*%
X176643606Y-60218623D02*
X176950888Y-60218623D01*
X176643606Y-60978623D02*
X176950888Y-60978623D01*
%TO.C,C4_2*%
X127589411Y-77738623D02*
X127805083Y-77738623D01*
X127589411Y-78458623D02*
X127805083Y-78458623D01*
%TO.C,R6_3*%
X167717247Y-95952264D02*
X167717247Y-95644982D01*
X168477247Y-95952264D02*
X168477247Y-95644982D01*
%TO.C,U3_0*%
X131987247Y-57838623D02*
X133807247Y-57838623D01*
X131987247Y-57888623D02*
X131987247Y-57838623D01*
X131987247Y-60958623D02*
X131987247Y-60908623D01*
X133807247Y-57838623D02*
X133807247Y-57888623D01*
X133807247Y-59008623D02*
X133807247Y-59788623D01*
X133807247Y-60908623D02*
X133807247Y-60958623D01*
X133807247Y-60958623D02*
X131987247Y-60958623D01*
X131447247Y-57888623D02*
X131207247Y-57558623D01*
X131687247Y-57558623D01*
X131447247Y-57888623D01*
G36*
X131447247Y-57888623D02*
G01*
X131207247Y-57558623D01*
X131687247Y-57558623D01*
X131447247Y-57888623D01*
G37*
%TO.C,U4_1*%
X155012247Y-55098622D02*
X156582247Y-55098622D01*
X155217247Y-53298622D02*
X156577247Y-53298622D01*
X154897247Y-53298622D02*
X154617247Y-53298622D01*
X154897247Y-53018622D01*
X154897247Y-53298622D01*
G36*
X154897247Y-53298622D02*
G01*
X154617247Y-53298622D01*
X154897247Y-53018622D01*
X154897247Y-53298622D01*
G37*
%TO.C,D4_0*%
D12*
X133857247Y-35798623D02*
G75*
G02*
X133757247Y-35798623I-50000J0D01*
G01*
X133757247Y-35798623D02*
G75*
G02*
X133857247Y-35798623I50000J0D01*
G01*
%TO.C,Q1_0*%
D11*
X137462247Y-57488623D02*
X138932247Y-57488623D01*
X137462247Y-57513623D02*
X137462247Y-57488623D01*
X137462247Y-59708623D02*
X137462247Y-59683623D01*
X138932247Y-57488623D02*
X138932247Y-57513623D01*
X138932247Y-59683623D02*
X138932247Y-59708623D01*
X138932247Y-59708623D02*
X137462247Y-59708623D01*
X137017247Y-57508623D02*
X136877247Y-57318623D01*
X137157247Y-57318623D01*
X137017247Y-57508623D01*
G36*
X137017247Y-57508623D02*
G01*
X136877247Y-57318623D01*
X137157247Y-57318623D01*
X137017247Y-57508623D01*
G37*
%TO.C,J2_0*%
X119092247Y-38868623D02*
X119092247Y-38233623D01*
X119727247Y-38868623D02*
X119092247Y-38868623D01*
%TO.C,J2_3*%
X158092247Y-77868623D02*
X158092247Y-77233623D01*
X158727247Y-77868623D02*
X158092247Y-77868623D01*
%TO.C,U4_0*%
X116012247Y-55098622D02*
X117582247Y-55098622D01*
X116217247Y-53298622D02*
X117577247Y-53298622D01*
X115897247Y-53298622D02*
X115617247Y-53298622D01*
X115897247Y-53018622D01*
X115897247Y-53298622D01*
G36*
X115897247Y-53298622D02*
G01*
X115617247Y-53298622D01*
X115897247Y-53018622D01*
X115897247Y-53298622D01*
G37*
%TO.C,J1_1*%
X160747247Y-30498623D02*
X175247247Y-30498623D01*
X160747247Y-34498623D02*
X160747247Y-30498623D01*
X175247247Y-30498623D02*
X175247247Y-34498623D01*
X175247247Y-34498623D02*
X160747247Y-34498623D01*
%TO.C,D1_0*%
X130607247Y-34848623D02*
X127947247Y-34848623D01*
X130607247Y-36548623D02*
X127947247Y-36548623D01*
X130607247Y-36548623D02*
X130607247Y-34848623D01*
%TO.C,Q2_1*%
X158262247Y-52888623D02*
X159732247Y-52888623D01*
X158262247Y-52913623D02*
X158262247Y-52888623D01*
X158262247Y-55108623D02*
X158262247Y-55083623D01*
X159732247Y-52888623D02*
X159732247Y-52913623D01*
X159732247Y-55083623D02*
X159732247Y-55108623D01*
X159732247Y-55108623D02*
X158262247Y-55108623D01*
X157817247Y-52908623D02*
X157677247Y-52718623D01*
X157957247Y-52718623D01*
X157817247Y-52908623D01*
G36*
X157817247Y-52908623D02*
G01*
X157677247Y-52718623D01*
X157957247Y-52718623D01*
X157817247Y-52908623D01*
G37*
%TO.C,R2_0*%
X137643606Y-60218623D02*
X137950888Y-60218623D01*
X137643606Y-60978623D02*
X137950888Y-60978623D01*
%TO.C,R4_0*%
X134743606Y-36718623D02*
X135050888Y-36718623D01*
X134743606Y-37478623D02*
X135050888Y-37478623D01*
%TO.C,JP1_2*%
X136997247Y-71598623D02*
X139797247Y-71598623D01*
X136997247Y-73598623D02*
X136997247Y-71598623D01*
X139797247Y-71598623D02*
X139797247Y-73598623D01*
X139797247Y-73598623D02*
X136997247Y-73598623D01*
%TO.C,R7_0*%
X116643606Y-57218623D02*
X116950888Y-57218623D01*
X116643606Y-57978623D02*
X116950888Y-57978623D01*
%TO.C,C1_2*%
X132056667Y-74288623D02*
X132337827Y-74288623D01*
X132056667Y-75308623D02*
X132337827Y-75308623D01*
%TO.C,Q1_2*%
X137462247Y-96488623D02*
X138932247Y-96488623D01*
X137462247Y-96513623D02*
X137462247Y-96488623D01*
X137462247Y-98708623D02*
X137462247Y-98683623D01*
X138932247Y-96488623D02*
X138932247Y-96513623D01*
X138932247Y-98683623D02*
X138932247Y-98708623D01*
X138932247Y-98708623D02*
X137462247Y-98708623D01*
X137017247Y-96508623D02*
X136877247Y-96318623D01*
X137157247Y-96318623D01*
X137017247Y-96508623D01*
G36*
X137017247Y-96508623D02*
G01*
X136877247Y-96318623D01*
X137157247Y-96318623D01*
X137017247Y-96508623D01*
G37*
%TO.C,C1_0*%
X132056667Y-35288623D02*
X132337827Y-35288623D01*
X132056667Y-36308623D02*
X132337827Y-36308623D01*
%TO.C,C2_3*%
X169887247Y-95339203D02*
X169887247Y-95058043D01*
X170907247Y-95339203D02*
X170907247Y-95058043D01*
%TO.C,R1_0*%
X135517247Y-59752264D02*
X135517247Y-59444982D01*
X136277247Y-59752264D02*
X136277247Y-59444982D01*
%TO.C,R3_0*%
X134017247Y-56452264D02*
X134017247Y-56144982D01*
X134777247Y-56452264D02*
X134777247Y-56144982D01*
%TO.C,C6_1*%
X162005083Y-52838623D02*
X161789411Y-52838623D01*
X162005083Y-53558623D02*
X161789411Y-53558623D01*
%TO.C,R7_3*%
X155643606Y-96218623D02*
X155950888Y-96218623D01*
X155643606Y-96978623D02*
X155950888Y-96978623D01*
%TO.C,C5_1*%
X166589411Y-37538623D02*
X166805083Y-37538623D01*
X166589411Y-38258623D02*
X166805083Y-38258623D01*
%TO.C,JP1_0*%
X136997247Y-32598623D02*
X139797247Y-32598623D01*
X136997247Y-34598623D02*
X136997247Y-32598623D01*
X139797247Y-32598623D02*
X139797247Y-34598623D01*
X139797247Y-34598623D02*
X136997247Y-34598623D01*
%TO.C,D4_3*%
D12*
X172857247Y-74798623D02*
G75*
G02*
X172757247Y-74798623I-50000J0D01*
G01*
X172757247Y-74798623D02*
G75*
G02*
X172857247Y-74798623I50000J0D01*
G01*
%TO.C,C3_1*%
D11*
X168989411Y-38738623D02*
X169205083Y-38738623D01*
X168989411Y-39458623D02*
X169205083Y-39458623D01*
%TO.C,C8_1*%
X155689411Y-55838623D02*
X155905083Y-55838623D01*
X155689411Y-56558623D02*
X155905083Y-56558623D01*
%TO.C,Q2_2*%
X119262247Y-91888623D02*
X120732247Y-91888623D01*
X119262247Y-91913623D02*
X119262247Y-91888623D01*
X119262247Y-94108623D02*
X119262247Y-94083623D01*
X120732247Y-91888623D02*
X120732247Y-91913623D01*
X120732247Y-94083623D02*
X120732247Y-94108623D01*
X120732247Y-94108623D02*
X119262247Y-94108623D01*
X118817247Y-91908623D02*
X118677247Y-91718623D01*
X118957247Y-91718623D01*
X118817247Y-91908623D01*
G36*
X118817247Y-91908623D02*
G01*
X118677247Y-91718623D01*
X118957247Y-91718623D01*
X118817247Y-91908623D01*
G37*
%TO.C,D4_2*%
D12*
X133857247Y-74798623D02*
G75*
G02*
X133757247Y-74798623I-50000J0D01*
G01*
X133757247Y-74798623D02*
G75*
G02*
X133857247Y-74798623I50000J0D01*
G01*
%TO.C,C4_0*%
D11*
X127589411Y-38738623D02*
X127805083Y-38738623D01*
X127589411Y-39458623D02*
X127805083Y-39458623D01*
%TO.C,D2_2*%
X140847247Y-96608623D02*
X140847247Y-93948623D01*
X140847247Y-96608623D02*
X142547247Y-96608623D01*
X142547247Y-96608623D02*
X142547247Y-93948623D01*
%TO.C,R4_3*%
X173743606Y-75718623D02*
X174050888Y-75718623D01*
X173743606Y-76478623D02*
X174050888Y-76478623D01*
%TO.C,D2_1*%
X179847247Y-57608623D02*
X179847247Y-54948623D01*
X179847247Y-57608623D02*
X181547247Y-57608623D01*
X181547247Y-57608623D02*
X181547247Y-54948623D01*
%TO.C,C3_0*%
X129989411Y-38738623D02*
X130205083Y-38738623D01*
X129989411Y-39458623D02*
X130205083Y-39458623D01*
%TO.C,C8_0*%
X116689411Y-55838623D02*
X116905083Y-55838623D01*
X116689411Y-56558623D02*
X116905083Y-56558623D01*
%TO.C,R1_3*%
X174517247Y-98752264D02*
X174517247Y-98444982D01*
X175277247Y-98752264D02*
X175277247Y-98444982D01*
%TO.C,R3_2*%
X134017247Y-95452264D02*
X134017247Y-95144982D01*
X134777247Y-95452264D02*
X134777247Y-95144982D01*
%TO.C,C2_1*%
X169887247Y-56339203D02*
X169887247Y-56058043D01*
X170907247Y-56339203D02*
X170907247Y-56058043D01*
%TO.C,D3_1*%
X163737247Y-35098623D02*
X163737247Y-36298623D01*
X165697247Y-35098623D02*
X163737247Y-35098623D01*
X165697247Y-36298623D02*
X163737247Y-36298623D01*
%TO.C,D3_0*%
X124737247Y-35098623D02*
X124737247Y-36298623D01*
X126697247Y-35098623D02*
X124737247Y-35098623D01*
X126697247Y-36298623D02*
X124737247Y-36298623D01*
%TO.C,BT1_2*%
X136897247Y-77598623D02*
X138097247Y-77598623D01*
X137497247Y-76998623D02*
X137497247Y-78198623D01*
X145647247Y-84998623D02*
G75*
G02*
X129347247Y-84998623I-8150000J0D01*
G01*
X129347247Y-84998623D02*
G75*
G02*
X145647247Y-84998623I8150000J0D01*
G01*
%TO.C,R5_3*%
X166617247Y-94452264D02*
X166617247Y-94144982D01*
X167377247Y-94452264D02*
X167377247Y-94144982D01*
%TO.C,R4_1*%
X173743606Y-36718623D02*
X174050888Y-36718623D01*
X173743606Y-37478623D02*
X174050888Y-37478623D01*
%TO.C,C8_2*%
X116689411Y-94838623D02*
X116905083Y-94838623D01*
X116689411Y-95558623D02*
X116905083Y-95558623D01*
%TO.C,U2_2*%
X124037247Y-91588622D02*
X124212247Y-91588622D01*
X124037247Y-92263622D02*
X124037247Y-91588622D01*
X124037247Y-94808622D02*
X124037247Y-94133622D01*
X124212247Y-94808622D02*
X124037247Y-94808622D01*
X126582247Y-91588622D02*
X126757247Y-91588622D01*
X126757247Y-91588622D02*
X126757247Y-92263622D01*
X126757247Y-94133622D02*
X126757247Y-94808622D01*
X126757247Y-94808622D02*
X126582247Y-94808622D01*
X126147247Y-91458622D02*
X125907247Y-91128622D01*
X126387247Y-91128622D01*
X126147247Y-91458622D01*
G36*
X126147247Y-91458622D02*
G01*
X125907247Y-91128622D01*
X126387247Y-91128622D01*
X126147247Y-91458622D01*
G37*
%TO.C,R5_1*%
X166617247Y-55452264D02*
X166617247Y-55144982D01*
X167377247Y-55452264D02*
X167377247Y-55144982D01*
%TO.C,U2_0*%
X124037247Y-52588622D02*
X124212247Y-52588622D01*
X124037247Y-53263622D02*
X124037247Y-52588622D01*
X124037247Y-55808622D02*
X124037247Y-55133622D01*
X124212247Y-55808622D02*
X124037247Y-55808622D01*
X126582247Y-52588622D02*
X126757247Y-52588622D01*
X126757247Y-52588622D02*
X126757247Y-53263622D01*
X126757247Y-55133622D02*
X126757247Y-55808622D01*
X126757247Y-55808622D02*
X126582247Y-55808622D01*
X126147247Y-52458622D02*
X125907247Y-52128622D01*
X126387247Y-52128622D01*
X126147247Y-52458622D01*
G36*
X126147247Y-52458622D02*
G01*
X125907247Y-52128622D01*
X126387247Y-52128622D01*
X126147247Y-52458622D01*
G37*
%TO.C,U4_2*%
X116012247Y-94098622D02*
X117582247Y-94098622D01*
X116217247Y-92298622D02*
X117577247Y-92298622D01*
X115897247Y-92298622D02*
X115617247Y-92298622D01*
X115897247Y-92018622D01*
X115897247Y-92298622D01*
G36*
X115897247Y-92298622D02*
G01*
X115617247Y-92298622D01*
X115897247Y-92018622D01*
X115897247Y-92298622D01*
G37*
%TO.C,Q1_3*%
X176462247Y-96488623D02*
X177932247Y-96488623D01*
X176462247Y-96513623D02*
X176462247Y-96488623D01*
X176462247Y-98708623D02*
X176462247Y-98683623D01*
X177932247Y-96488623D02*
X177932247Y-96513623D01*
X177932247Y-98683623D02*
X177932247Y-98708623D01*
X177932247Y-98708623D02*
X176462247Y-98708623D01*
X176017247Y-96508623D02*
X175877247Y-96318623D01*
X176157247Y-96318623D01*
X176017247Y-96508623D01*
G36*
X176017247Y-96508623D02*
G01*
X175877247Y-96318623D01*
X176157247Y-96318623D01*
X176017247Y-96508623D01*
G37*
%TO.C,U2_1*%
X163037247Y-52588622D02*
X163212247Y-52588622D01*
X163037247Y-53263622D02*
X163037247Y-52588622D01*
X163037247Y-55808622D02*
X163037247Y-55133622D01*
X163212247Y-55808622D02*
X163037247Y-55808622D01*
X165582247Y-52588622D02*
X165757247Y-52588622D01*
X165757247Y-52588622D02*
X165757247Y-53263622D01*
X165757247Y-55133622D02*
X165757247Y-55808622D01*
X165757247Y-55808622D02*
X165582247Y-55808622D01*
X165147247Y-52458622D02*
X164907247Y-52128622D01*
X165387247Y-52128622D01*
X165147247Y-52458622D01*
G36*
X165147247Y-52458622D02*
G01*
X164907247Y-52128622D01*
X165387247Y-52128622D01*
X165147247Y-52458622D01*
G37*
%TO.C,R1_2*%
X135517247Y-98752264D02*
X135517247Y-98444982D01*
X136277247Y-98752264D02*
X136277247Y-98444982D01*
%TO.C,C1_1*%
X171056667Y-35288623D02*
X171337827Y-35288623D01*
X171056667Y-36308623D02*
X171337827Y-36308623D01*
%TO.C,R7_2*%
X116643606Y-96218623D02*
X116950888Y-96218623D01*
X116643606Y-96978623D02*
X116950888Y-96978623D01*
%TO.C,JP1_3*%
X175997247Y-71598623D02*
X178797247Y-71598623D01*
X175997247Y-73598623D02*
X175997247Y-71598623D01*
X178797247Y-71598623D02*
X178797247Y-73598623D01*
X178797247Y-73598623D02*
X175997247Y-73598623D01*
%TO.C,U3_1*%
X170987247Y-57838623D02*
X172807247Y-57838623D01*
X170987247Y-57888623D02*
X170987247Y-57838623D01*
X170987247Y-60958623D02*
X170987247Y-60908623D01*
X172807247Y-57838623D02*
X172807247Y-57888623D01*
X172807247Y-59008623D02*
X172807247Y-59788623D01*
X172807247Y-60908623D02*
X172807247Y-60958623D01*
X172807247Y-60958623D02*
X170987247Y-60958623D01*
X170447247Y-57888623D02*
X170207247Y-57558623D01*
X170687247Y-57558623D01*
X170447247Y-57888623D01*
G36*
X170447247Y-57888623D02*
G01*
X170207247Y-57558623D01*
X170687247Y-57558623D01*
X170447247Y-57888623D01*
G37*
%TO.C,R8_3*%
X158643606Y-94618623D02*
X158950888Y-94618623D01*
X158643606Y-95378623D02*
X158950888Y-95378623D01*
%TO.C,Q1_1*%
X176462247Y-57488623D02*
X177932247Y-57488623D01*
X176462247Y-57513623D02*
X176462247Y-57488623D01*
X176462247Y-59708623D02*
X176462247Y-59683623D01*
X177932247Y-57488623D02*
X177932247Y-57513623D01*
X177932247Y-59683623D02*
X177932247Y-59708623D01*
X177932247Y-59708623D02*
X176462247Y-59708623D01*
X176017247Y-57508623D02*
X175877247Y-57318623D01*
X176157247Y-57318623D01*
X176017247Y-57508623D01*
G36*
X176017247Y-57508623D02*
G01*
X175877247Y-57318623D01*
X176157247Y-57318623D01*
X176017247Y-57508623D01*
G37*
%TO.C,D4_1*%
D12*
X172857247Y-35798623D02*
G75*
G02*
X172757247Y-35798623I-50000J0D01*
G01*
X172757247Y-35798623D02*
G75*
G02*
X172857247Y-35798623I50000J0D01*
G01*
%TO.C,R6_2*%
D11*
X128717247Y-95952264D02*
X128717247Y-95644982D01*
X129477247Y-95952264D02*
X129477247Y-95644982D01*
%TO.C,C4_1*%
X166589411Y-38738623D02*
X166805083Y-38738623D01*
X166589411Y-39458623D02*
X166805083Y-39458623D01*
%TO.C,C2_2*%
X130887247Y-95339203D02*
X130887247Y-95058043D01*
X131907247Y-95339203D02*
X131907247Y-95058043D01*
%TO.C,Q2_3*%
X158262247Y-91888623D02*
X159732247Y-91888623D01*
X158262247Y-91913623D02*
X158262247Y-91888623D01*
X158262247Y-94108623D02*
X158262247Y-94083623D01*
X159732247Y-91888623D02*
X159732247Y-91913623D01*
X159732247Y-94083623D02*
X159732247Y-94108623D01*
X159732247Y-94108623D02*
X158262247Y-94108623D01*
X157817247Y-91908623D02*
X157677247Y-91718623D01*
X157957247Y-91718623D01*
X157817247Y-91908623D01*
G36*
X157817247Y-91908623D02*
G01*
X157677247Y-91718623D01*
X157957247Y-91718623D01*
X157817247Y-91908623D01*
G37*
%TO.C,R4_2*%
X134743606Y-75718623D02*
X135050888Y-75718623D01*
X134743606Y-76478623D02*
X135050888Y-76478623D01*
%TO.C,U4_3*%
X155012247Y-94098622D02*
X156582247Y-94098622D01*
X155217247Y-92298622D02*
X156577247Y-92298622D01*
X154897247Y-92298622D02*
X154617247Y-92298622D01*
X154897247Y-92018622D01*
X154897247Y-92298622D01*
G36*
X154897247Y-92298622D02*
G01*
X154617247Y-92298622D01*
X154897247Y-92018622D01*
X154897247Y-92298622D01*
G37*
%TO.C,C7_3*%
X163539411Y-95138623D02*
X163755083Y-95138623D01*
X163539411Y-95858623D02*
X163755083Y-95858623D01*
%TO.C,J1_3*%
X160747247Y-69498623D02*
X175247247Y-69498623D01*
X160747247Y-73498623D02*
X160747247Y-69498623D01*
X175247247Y-69498623D02*
X175247247Y-73498623D01*
X175247247Y-73498623D02*
X160747247Y-73498623D01*
%TO.C,J2_2*%
X119092247Y-77868623D02*
X119092247Y-77233623D01*
X119727247Y-77868623D02*
X119092247Y-77868623D01*
%TO.C,R3_1*%
X173017247Y-56452264D02*
X173017247Y-56144982D01*
X173777247Y-56452264D02*
X173777247Y-56144982D01*
%TO.C,C4_3*%
X166589411Y-77738623D02*
X166805083Y-77738623D01*
X166589411Y-78458623D02*
X166805083Y-78458623D01*
%TO.C,J1_2*%
X121747247Y-69498623D02*
X136247247Y-69498623D01*
X121747247Y-73498623D02*
X121747247Y-69498623D01*
X136247247Y-69498623D02*
X136247247Y-73498623D01*
X136247247Y-73498623D02*
X121747247Y-73498623D01*
%TO.C,BT1_3*%
X175897247Y-77598623D02*
X177097247Y-77598623D01*
X176497247Y-76998623D02*
X176497247Y-78198623D01*
X184647247Y-84998623D02*
G75*
G02*
X168347247Y-84998623I-8150000J0D01*
G01*
X168347247Y-84998623D02*
G75*
G02*
X184647247Y-84998623I8150000J0D01*
G01*
%TO.C,D1_2*%
X130607247Y-73848623D02*
X127947247Y-73848623D01*
X130607247Y-75548623D02*
X127947247Y-75548623D01*
X130607247Y-75548623D02*
X130607247Y-73848623D01*
%TO.C,C5_0*%
X127589411Y-37538623D02*
X127805083Y-37538623D01*
X127589411Y-38258623D02*
X127805083Y-38258623D01*
%TO.C,C8_3*%
X155689411Y-94838623D02*
X155905083Y-94838623D01*
X155689411Y-95558623D02*
X155905083Y-95558623D01*
%TO.C,D2_0*%
X140847247Y-57608623D02*
X140847247Y-54948623D01*
X140847247Y-57608623D02*
X142547247Y-57608623D01*
X142547247Y-57608623D02*
X142547247Y-54948623D01*
%TO.C,R6_1*%
X167717247Y-56952264D02*
X167717247Y-56644982D01*
X168477247Y-56952264D02*
X168477247Y-56644982D01*
%TO.C,U1_0*%
X111897247Y-40648623D02*
X112997247Y-40648623D01*
X111897247Y-41748623D02*
X111897247Y-40648623D01*
X111897247Y-50248623D02*
X111897247Y-51348623D01*
X111897247Y-51348623D02*
X112997247Y-51348623D01*
X126497247Y-40648623D02*
X127597247Y-40648623D01*
X126497247Y-51348623D02*
X127597247Y-51348623D01*
X127597247Y-40648623D02*
X127597247Y-41748623D01*
X127597247Y-51348623D02*
X127597247Y-50248623D01*
X115997247Y-51373623D02*
X116237247Y-51709623D01*
X115757247Y-51709623D01*
X115997247Y-51373623D01*
G36*
X116237247Y-51709623D02*
G01*
X115757247Y-51709623D01*
X115997247Y-51373623D01*
X116237247Y-51709623D01*
G37*
%TO.C,J1_0*%
X121747247Y-30498623D02*
X136247247Y-30498623D01*
X121747247Y-34498623D02*
X121747247Y-30498623D01*
X136247247Y-30498623D02*
X136247247Y-34498623D01*
X136247247Y-34498623D02*
X121747247Y-34498623D01*
%TO.C,D1_1*%
X169607247Y-34848623D02*
X166947247Y-34848623D01*
X169607247Y-36548623D02*
X166947247Y-36548623D01*
X169607247Y-36548623D02*
X169607247Y-34848623D01*
%TO.C,U1_1*%
X150897247Y-40648623D02*
X151997247Y-40648623D01*
X150897247Y-41748623D02*
X150897247Y-40648623D01*
X150897247Y-50248623D02*
X150897247Y-51348623D01*
X150897247Y-51348623D02*
X151997247Y-51348623D01*
X165497247Y-40648623D02*
X166597247Y-40648623D01*
X165497247Y-51348623D02*
X166597247Y-51348623D01*
X166597247Y-40648623D02*
X166597247Y-41748623D01*
X166597247Y-51348623D02*
X166597247Y-50248623D01*
X154997247Y-51373623D02*
X155237247Y-51709623D01*
X154757247Y-51709623D01*
X154997247Y-51373623D01*
G36*
X155237247Y-51709623D02*
G01*
X154757247Y-51709623D01*
X154997247Y-51373623D01*
X155237247Y-51709623D01*
G37*
%TO.C,J2_1*%
X158092247Y-38868623D02*
X158092247Y-38233623D01*
X158727247Y-38868623D02*
X158092247Y-38868623D01*
%TO.C,D2_3*%
X179847247Y-96608623D02*
X179847247Y-93948623D01*
X179847247Y-96608623D02*
X181547247Y-96608623D01*
X181547247Y-96608623D02*
X181547247Y-93948623D01*
%TO.C,R6_0*%
X128717247Y-56952264D02*
X128717247Y-56644982D01*
X129477247Y-56952264D02*
X129477247Y-56644982D01*
%TO.C,C3_2*%
X129989411Y-77738623D02*
X130205083Y-77738623D01*
X129989411Y-78458623D02*
X130205083Y-78458623D01*
%TO.C,U2_3*%
X163037247Y-91588622D02*
X163212247Y-91588622D01*
X163037247Y-92263622D02*
X163037247Y-91588622D01*
X163037247Y-94808622D02*
X163037247Y-94133622D01*
X163212247Y-94808622D02*
X163037247Y-94808622D01*
X165582247Y-91588622D02*
X165757247Y-91588622D01*
X165757247Y-91588622D02*
X165757247Y-92263622D01*
X165757247Y-94133622D02*
X165757247Y-94808622D01*
X165757247Y-94808622D02*
X165582247Y-94808622D01*
X165147247Y-91458622D02*
X164907247Y-91128622D01*
X165387247Y-91128622D01*
X165147247Y-91458622D01*
G36*
X165147247Y-91458622D02*
G01*
X164907247Y-91128622D01*
X165387247Y-91128622D01*
X165147247Y-91458622D01*
G37*
%TO.C,C5_2*%
X127589411Y-76538623D02*
X127805083Y-76538623D01*
X127589411Y-77258623D02*
X127805083Y-77258623D01*
%TO.C,C6_3*%
X162005083Y-91838623D02*
X161789411Y-91838623D01*
X162005083Y-92558623D02*
X161789411Y-92558623D01*
%TO.C,U3_2*%
X131987247Y-96838623D02*
X133807247Y-96838623D01*
X131987247Y-96888623D02*
X131987247Y-96838623D01*
X131987247Y-99958623D02*
X131987247Y-99908623D01*
X133807247Y-96838623D02*
X133807247Y-96888623D01*
X133807247Y-98008623D02*
X133807247Y-98788623D01*
X133807247Y-99908623D02*
X133807247Y-99958623D01*
X133807247Y-99958623D02*
X131987247Y-99958623D01*
X131447247Y-96888623D02*
X131207247Y-96558623D01*
X131687247Y-96558623D01*
X131447247Y-96888623D01*
G36*
X131447247Y-96888623D02*
G01*
X131207247Y-96558623D01*
X131687247Y-96558623D01*
X131447247Y-96888623D01*
G37*
%TO.C,R7_1*%
X155643606Y-57218623D02*
X155950888Y-57218623D01*
X155643606Y-57978623D02*
X155950888Y-57978623D01*
%TO.C,D1_3*%
X169607247Y-73848623D02*
X166947247Y-73848623D01*
X169607247Y-75548623D02*
X166947247Y-75548623D01*
X169607247Y-75548623D02*
X169607247Y-73848623D01*
%TO.C,U1_3*%
X150897247Y-79648623D02*
X151997247Y-79648623D01*
X150897247Y-80748623D02*
X150897247Y-79648623D01*
X150897247Y-89248623D02*
X150897247Y-90348623D01*
X150897247Y-90348623D02*
X151997247Y-90348623D01*
X165497247Y-79648623D02*
X166597247Y-79648623D01*
X165497247Y-90348623D02*
X166597247Y-90348623D01*
X166597247Y-79648623D02*
X166597247Y-80748623D01*
X166597247Y-90348623D02*
X166597247Y-89248623D01*
X154997247Y-90373623D02*
X155237247Y-90709623D01*
X154757247Y-90709623D01*
X154997247Y-90373623D01*
G36*
X155237247Y-90709623D02*
G01*
X154757247Y-90709623D01*
X154997247Y-90373623D01*
X155237247Y-90709623D01*
G37*
%TO.C,D3_2*%
X124737247Y-74098623D02*
X124737247Y-75298623D01*
X126697247Y-74098623D02*
X124737247Y-74098623D01*
X126697247Y-75298623D02*
X124737247Y-75298623D01*
%TO.C,R5_2*%
X127617247Y-94452264D02*
X127617247Y-94144982D01*
X128377247Y-94452264D02*
X128377247Y-94144982D01*
%TO.C,C5_3*%
X166589411Y-76538623D02*
X166805083Y-76538623D01*
X166589411Y-77258623D02*
X166805083Y-77258623D01*
%TO.C,R2_3*%
X176643606Y-99218623D02*
X176950888Y-99218623D01*
X176643606Y-99978623D02*
X176950888Y-99978623D01*
%TO.C,C7_0*%
X124539411Y-56138623D02*
X124755083Y-56138623D01*
X124539411Y-56858623D02*
X124755083Y-56858623D01*
%TO.C,R8_1*%
X158643606Y-55618623D02*
X158950888Y-55618623D01*
X158643606Y-56378623D02*
X158950888Y-56378623D01*
%TO.C,C6_2*%
X123005083Y-91838623D02*
X122789411Y-91838623D01*
X123005083Y-92558623D02*
X122789411Y-92558623D01*
%TO.C,C1_3*%
X171056667Y-74288623D02*
X171337827Y-74288623D01*
X171056667Y-75308623D02*
X171337827Y-75308623D01*
%TO.C,U3_3*%
X170987247Y-96838623D02*
X172807247Y-96838623D01*
X170987247Y-96888623D02*
X170987247Y-96838623D01*
X170987247Y-99958623D02*
X170987247Y-99908623D01*
X172807247Y-96838623D02*
X172807247Y-96888623D01*
X172807247Y-98008623D02*
X172807247Y-98788623D01*
X172807247Y-99908623D02*
X172807247Y-99958623D01*
X172807247Y-99958623D02*
X170987247Y-99958623D01*
X170447247Y-96888623D02*
X170207247Y-96558623D01*
X170687247Y-96558623D01*
X170447247Y-96888623D01*
G36*
X170447247Y-96888623D02*
G01*
X170207247Y-96558623D01*
X170687247Y-96558623D01*
X170447247Y-96888623D01*
G37*
%TO.C,R1_1*%
X174517247Y-59752264D02*
X174517247Y-59444982D01*
X175277247Y-59752264D02*
X175277247Y-59444982D01*
%TO.C,D3_3*%
X163737247Y-74098623D02*
X163737247Y-75298623D01*
X165697247Y-74098623D02*
X163737247Y-74098623D01*
X165697247Y-75298623D02*
X163737247Y-75298623D01*
%TO.C,R5_0*%
X127617247Y-55452264D02*
X127617247Y-55144982D01*
X128377247Y-55452264D02*
X128377247Y-55144982D01*
%TD*%
M02*
