%TF.GenerationSoftware,KiCad,Pcbnew,10.0.6*%
%TF.CreationDate,2026-09-29T01:28:05+02:00*%
%TF.ProjectId,shotpuck-panel,73686f74-7075-4636-9b2d-70616e656c2e,rev?*%
%TF.SameCoordinates,Original*%
%TF.FileFunction,Copper,L2,Bot*%
%TF.FilePolarity,Positive*%
%FSLAX46Y46*%
G04 Gerber Fmt 4.6, Leading zero omitted, Abs format (unit mm)*
G04 Created by KiCad (PCBNEW 10.0.6) date 2026-09-29 01:28:05*
%MOMM*%
%LPD*%
G01*
G04 APERTURE LIST*
G04 Aperture macros list*
%AMRotRect*
0 Rectangle, with rotation*
0 The origin of the aperture is its center*
0 $1 length*
0 $2 width*
0 $3 Rotation angle, in degrees counterclockwise*
0 Add horizontal line*
21,1,$1,$2,0,0,$3*%
G04 Aperture macros list end*
%TA.AperFunction,EtchedComponent*%
%ADD10C,0.000000*%
%TD*%
%TA.AperFunction,ComponentPad*%
%ADD11RotRect,1.300000X1.300000X255.000000*%
%TD*%
%TA.AperFunction,ComponentPad*%
%ADD12C,1.300000*%
%TD*%
%TA.AperFunction,ComponentPad*%
%ADD13RotRect,1.300000X1.300000X75.000000*%
%TD*%
%TA.AperFunction,SMDPad,CuDef*%
%ADD14C,1.000000*%
%TD*%
%TA.AperFunction,SMDPad,CuDef*%
%ADD15R,1.000000X1.500000*%
%TD*%
%TA.AperFunction,ViaPad*%
%ADD16C,0.550000*%
%TD*%
%TA.AperFunction,Conductor*%
%ADD17C,0.150000*%
%TD*%
G04 APERTURE END LIST*
D10*
%TA.AperFunction,EtchedComponent*%
%TO.C,JP1_2*%
G36*
X119050000Y-89079616D02*
G01*
X118550000Y-89079616D01*
X118550000Y-88479616D01*
X119050000Y-88479616D01*
X119050000Y-89079616D01*
G37*
%TD.AperFunction*%
%TA.AperFunction,EtchedComponent*%
%TO.C,JP1_3*%
G36*
X158050000Y-89079616D02*
G01*
X157550000Y-89079616D01*
X157550000Y-88479616D01*
X158050000Y-88479616D01*
X158050000Y-89079616D01*
G37*
%TD.AperFunction*%
%TA.AperFunction,EtchedComponent*%
%TO.C,JP1_1*%
G36*
X178450000Y-40079616D02*
G01*
X177950000Y-40079616D01*
X177950000Y-39479616D01*
X178450000Y-39479616D01*
X178450000Y-40079616D01*
G37*
%TD.AperFunction*%
%TA.AperFunction,EtchedComponent*%
%TO.C,JP1_0*%
G36*
X139450000Y-40079616D02*
G01*
X138950000Y-40079616D01*
X138950000Y-39479616D01*
X139450000Y-39479616D01*
X139450000Y-40079616D01*
G37*
%TD.AperFunction*%
%TD*%
D11*
%TO.P,J1_0,1*%
%TO.N,Board_0-VIN_RAW*%
X115803524Y-39952209D03*
D12*
%TO.P,J1_0,2*%
%TO.N,Board_0-GND*%
X115156476Y-42367023D03*
%TD*%
D11*
%TO.P,J1_1,1*%
%TO.N,Board_1-VIN_RAW*%
X154803524Y-39952209D03*
D12*
%TO.P,J1_1,2*%
%TO.N,Board_1-GND*%
X154156476Y-42367023D03*
%TD*%
D13*
%TO.P,J1_3,1*%
%TO.N,Board_3-VIN_RAW*%
X181196476Y-88607023D03*
D12*
%TO.P,J1_3,2*%
%TO.N,Board_3-GND*%
X181843524Y-86192209D03*
%TD*%
D13*
%TO.P,J1_2,1*%
%TO.N,Board_2-VIN_RAW*%
X142196476Y-88607023D03*
D12*
%TO.P,J1_2,2*%
%TO.N,Board_2-GND*%
X142843524Y-86192209D03*
%TD*%
D14*
%TO.P,J2_1,1*%
%TO.N,Board_1-VDD*%
X173310000Y-57379616D03*
%TO.P,J2_1,2*%
%TO.N,Board_1-SWDIO*%
X170770000Y-57379616D03*
%TO.P,J2_1,3*%
%TO.N,Board_1-SWDCLK*%
X168230000Y-57379616D03*
%TO.P,J2_1,4*%
%TO.N,Board_1-GND*%
X165690000Y-57379616D03*
%TD*%
D15*
%TO.P,JP1_2,1*%
%TO.N,Board_2-BAT_P*%
X119450000Y-88779616D03*
%TO.P,JP1_2,2*%
%TO.N,Board_2-VBAT*%
X118150000Y-88779616D03*
%TD*%
%TO.P,JP1_3,1*%
%TO.N,Board_3-BAT_P*%
X158450000Y-88779616D03*
%TO.P,JP1_3,2*%
%TO.N,Board_3-VBAT*%
X157150000Y-88779616D03*
%TD*%
D14*
%TO.P,J2_2,1*%
%TO.N,Board_2-VDD*%
X123690000Y-71179616D03*
%TO.P,J2_2,2*%
%TO.N,Board_2-SWDIO*%
X126230000Y-71179616D03*
%TO.P,J2_2,3*%
%TO.N,Board_2-SWDCLK*%
X128770000Y-71179616D03*
%TO.P,J2_2,4*%
%TO.N,Board_2-GND*%
X131310000Y-71179616D03*
%TD*%
%TO.P,KiKit_FID_B_2,*%
%TO.N,*%
X189000000Y-22500000D03*
%TD*%
%TO.P,KiKit_FID_B_3,*%
%TO.N,*%
X108000000Y-106059232D03*
%TD*%
D15*
%TO.P,JP1_1,1*%
%TO.N,Board_1-BAT_P*%
X177550000Y-39779616D03*
%TO.P,JP1_1,2*%
%TO.N,Board_1-VBAT*%
X178850000Y-39779616D03*
%TD*%
D14*
%TO.P,J2_0,1*%
%TO.N,Board_0-VDD*%
X134310000Y-57379616D03*
%TO.P,J2_0,2*%
%TO.N,Board_0-SWDIO*%
X131770000Y-57379616D03*
%TO.P,J2_0,3*%
%TO.N,Board_0-SWDCLK*%
X129230000Y-57379616D03*
%TO.P,J2_0,4*%
%TO.N,Board_0-GND*%
X126690000Y-57379616D03*
%TD*%
%TO.P,KiKit_FID_B_1,*%
%TO.N,*%
X108000000Y-22500000D03*
%TD*%
%TO.P,J2_3,1*%
%TO.N,Board_3-VDD*%
X162690000Y-71179616D03*
%TO.P,J2_3,2*%
%TO.N,Board_3-SWDIO*%
X165230000Y-71179616D03*
%TO.P,J2_3,3*%
%TO.N,Board_3-SWDCLK*%
X167770000Y-71179616D03*
%TO.P,J2_3,4*%
%TO.N,Board_3-GND*%
X170310000Y-71179616D03*
%TD*%
D15*
%TO.P,JP1_0,1*%
%TO.N,Board_0-BAT_P*%
X138550000Y-39779616D03*
%TO.P,JP1_0,2*%
%TO.N,Board_0-VBAT*%
X139850000Y-39779616D03*
%TD*%
D16*
%TO.N,Board_3-GND*%
X161100001Y-81499616D03*
X176000000Y-88579616D03*
X168808450Y-70955116D03*
X155920000Y-76879616D03*
X176000000Y-91779616D03*
X155200000Y-78979616D03*
X161600000Y-83779616D03*
X161600000Y-86979616D03*
X158781443Y-94146642D03*
X174400000Y-85379616D03*
X156181443Y-82946643D03*
X176000000Y-86979616D03*
X176000000Y-85379616D03*
X161600000Y-85379616D03*
X154698249Y-79981632D03*
X157860778Y-71997000D03*
X156414231Y-87279615D03*
X155662500Y-85279616D03*
X176000000Y-93379616D03*
X156370000Y-73900194D03*
X159217026Y-70512900D03*
X156810000Y-94679616D03*
X161783087Y-68055955D03*
X155950667Y-76012554D03*
X157700000Y-80169616D03*
X152000000Y-86979616D03*
X174000000Y-83379616D03*
X171367700Y-67260189D03*
X160048394Y-78120765D03*
X176414230Y-80279616D03*
X170462188Y-67511604D03*
X174400000Y-86979616D03*
X154620578Y-73649616D03*
X160015000Y-79339616D03*
X176000000Y-90179616D03*
%TO.N,Board_3-CHG_INH*%
X159533000Y-73818116D03*
X157984200Y-77617916D03*
%TO.N,Board_3-CHG_STAT*%
X160183000Y-73482916D03*
X156654600Y-81739116D03*
%TO.N,Board_3-VDD*%
X157896600Y-72700616D03*
X163960100Y-72642216D03*
X163664500Y-69467116D03*
%TO.N,Board_3-VBAT*%
X153923900Y-89125716D03*
X155329600Y-86959216D03*
%TO.N,Board_3-SWDIO*%
X170350000Y-78429616D03*
%TO.N,Board_3-SWDCLK*%
X171150000Y-78429616D03*
%TO.N,Board_2-GND*%
X132367700Y-67260189D03*
X118860778Y-71997000D03*
X117414231Y-87279615D03*
X116200000Y-78979616D03*
X137000000Y-90179616D03*
X115620578Y-73649616D03*
X129808450Y-70955116D03*
X115698249Y-79981632D03*
X135000000Y-83379616D03*
X137414230Y-80279616D03*
X137000000Y-91779616D03*
X117810000Y-94679616D03*
X135400000Y-85379616D03*
X118700000Y-80169616D03*
X131462188Y-67511604D03*
X117370000Y-73900194D03*
X117181443Y-82946643D03*
X122600000Y-86979616D03*
X137000000Y-86979616D03*
X135400000Y-86979616D03*
X122100001Y-81499616D03*
X122600000Y-83779616D03*
X122783087Y-68055955D03*
X121048394Y-78120765D03*
X116662500Y-85279616D03*
X116920000Y-76879616D03*
X121015000Y-79339616D03*
X122600000Y-85379616D03*
X137000000Y-85379616D03*
X113000000Y-86979616D03*
X116950667Y-76012554D03*
X120217026Y-70512900D03*
X137000000Y-88579616D03*
X137000000Y-93379616D03*
X119781443Y-94146642D03*
%TO.N,Board_0-VDD*%
X133335500Y-59092116D03*
X133039900Y-55917016D03*
X139103400Y-55858616D03*
%TO.N,Board_0-GND*%
X141337500Y-43279616D03*
X139300000Y-48389616D03*
X141080000Y-51679616D03*
X128191550Y-57604116D03*
X135400000Y-43179616D03*
X122600000Y-41579616D03*
X137782974Y-58046332D03*
X140585769Y-41279617D03*
X140630000Y-54659038D03*
X135400000Y-41579616D03*
X140818557Y-45612589D03*
X135216913Y-60503277D03*
X126537812Y-61047628D03*
X121000000Y-36779616D03*
X121000000Y-43179616D03*
X122600000Y-43179616D03*
X145000000Y-41579616D03*
X142379422Y-54909616D03*
X140190000Y-33879616D03*
X136951606Y-50438467D03*
X120585770Y-48279616D03*
X123000000Y-45179616D03*
X141049333Y-52546678D03*
X138218557Y-34412590D03*
X141800000Y-49579616D03*
X121000000Y-35179616D03*
X135899999Y-47059616D03*
X125632300Y-61299043D03*
X121000000Y-41579616D03*
X135400000Y-44779616D03*
X121000000Y-39979616D03*
X121000000Y-38379616D03*
X139139222Y-56562232D03*
X142301751Y-48577600D03*
X136985000Y-49219616D03*
%TO.N,Board_0-VBAT*%
X143076100Y-39433516D03*
X141670400Y-41600016D03*
%TO.N,Board_2-VIN*%
X121250000Y-80529616D03*
X114909500Y-82877816D03*
X133700000Y-80129616D03*
%TO.N,Board_1-GND*%
X180800000Y-49579616D03*
X177218557Y-34412590D03*
X179190000Y-33879616D03*
X178139222Y-56562232D03*
X160000000Y-35179616D03*
X176782974Y-58046332D03*
X181379422Y-54909616D03*
X174400000Y-41579616D03*
X180337500Y-43279616D03*
X160000000Y-39979616D03*
X160000000Y-36779616D03*
X174400000Y-43179616D03*
X179585769Y-41279617D03*
X161600000Y-43179616D03*
X181301751Y-48577600D03*
X161600000Y-41579616D03*
X179630000Y-54659038D03*
X175985000Y-49219616D03*
X160000000Y-38379616D03*
X180049333Y-52546678D03*
X174400000Y-44779616D03*
X184000000Y-41579616D03*
X174899999Y-47059616D03*
X162000000Y-45179616D03*
X160000000Y-41579616D03*
X174216913Y-60503277D03*
X159585770Y-48279616D03*
X167191550Y-57604116D03*
X178300000Y-48389616D03*
X179818557Y-45612589D03*
X165537812Y-61047628D03*
X180080000Y-51679616D03*
X160000000Y-43179616D03*
X175951606Y-50438467D03*
X164632300Y-61299043D03*
%TO.N,Board_2-CHG_INH*%
X118984200Y-77617916D03*
X120533000Y-73818116D03*
%TO.N,Board_1-VIN*%
X182090500Y-45681416D03*
X175750000Y-48029616D03*
X163300000Y-48429616D03*
%TO.N,Board_3-PROG_SW*%
X156614600Y-80621016D03*
X152932100Y-83636516D03*
%TO.N,Board_2-CHG_STAT*%
X117654600Y-81739116D03*
X121183000Y-73482916D03*
%TO.N,Board_2-VDD*%
X124960100Y-72642216D03*
X124664500Y-69467116D03*
X118896600Y-72700616D03*
%TO.N,Board_2-VBAT*%
X116329600Y-86959216D03*
X114923900Y-89125716D03*
%TO.N,Board_2-SWDIO*%
X131350000Y-78429616D03*
%TO.N,Board_2-SWDCLK*%
X132150000Y-78429616D03*
%TO.N,Board_1-VDD*%
X178103400Y-55858616D03*
X172335500Y-59092116D03*
X172039900Y-55917016D03*
%TO.N,Board_0-VIN*%
X136750000Y-48029616D03*
X124300000Y-48429616D03*
X143090500Y-45681416D03*
%TO.N,Board_0-PROG_SW*%
X144067900Y-44922716D03*
X140385400Y-47938216D03*
%TO.N,Board_3-VIN*%
X172700000Y-80129616D03*
X160250000Y-80529616D03*
X153909500Y-82877816D03*
%TO.N,Board_0-CHG_INH*%
X139015800Y-50941316D03*
X137467000Y-54741116D03*
%TO.N,Board_0-CHG_STAT*%
X140345400Y-46820116D03*
X136817000Y-55076316D03*
%TO.N,Board_0-SWDIO*%
X126650000Y-50129616D03*
%TO.N,Board_0-SWDCLK*%
X125850000Y-50129616D03*
%TO.N,Board_1-CHG_INH*%
X178015800Y-50941316D03*
X176467000Y-54741116D03*
%TO.N,Board_1-PROG_SW*%
X183067900Y-44922716D03*
X179385400Y-47938216D03*
%TO.N,Board_2-BAT_P*%
X120596600Y-88550616D03*
%TO.N,Board_1-VBAT*%
X182076100Y-39433516D03*
X180670400Y-41600016D03*
%TO.N,Board_3-BAT_P*%
X159596600Y-88550616D03*
%TO.N,Board_0-BAT_P*%
X137403400Y-40008616D03*
%TO.N,Board_1-CHG_STAT*%
X179345400Y-46820116D03*
X175817000Y-55076316D03*
%TO.N,Board_2-PROG_SW*%
X113932100Y-83636516D03*
X117614600Y-80621016D03*
%TO.N,Board_1-BAT_P*%
X176403400Y-40008616D03*
%TO.N,Board_1-SWDIO*%
X165650000Y-50129616D03*
%TO.N,Board_1-SWDCLK*%
X164850000Y-50129616D03*
%TD*%
%TO.N,Board_3-GND*%
D17*
X156414200Y-87279616D02*
X155564800Y-86430216D01*
X170713600Y-67260216D02*
X170462200Y-67511616D01*
X155950700Y-76012516D02*
X156370000Y-75593216D01*
X156810000Y-94679616D02*
X158248400Y-94679616D01*
X161783100Y-68055916D02*
X159326100Y-70512916D01*
X156144200Y-73649616D02*
X154620600Y-73649616D01*
X157700000Y-79981616D02*
X154698200Y-79981616D01*
X153445200Y-88059716D02*
X153445200Y-89328316D01*
X161783100Y-68055916D02*
X162327400Y-67511616D01*
X157161100Y-78120716D02*
X155920000Y-76879616D01*
X156370000Y-75593216D02*
X156370000Y-73900216D01*
X157860800Y-71997016D02*
X157796800Y-71997016D01*
X159326100Y-70512916D02*
X159217000Y-70512916D01*
X162327400Y-67511616D02*
X170462200Y-67511616D01*
X160015000Y-79339616D02*
X159373000Y-79981616D01*
X158248400Y-94679616D02*
X158781400Y-94146616D01*
X155074700Y-86430216D02*
X153445200Y-88059716D01*
X160048400Y-78120716D02*
X157161100Y-78120716D01*
X153445200Y-89328316D02*
X158263500Y-94146616D01*
X159373000Y-79981616D02*
X157700000Y-79981616D01*
X174000000Y-82693816D02*
X174000000Y-83379616D01*
X156144200Y-73649616D02*
X156144200Y-73674416D01*
X176414200Y-80279616D02*
X174000000Y-82693816D01*
X155564800Y-86430216D02*
X155074700Y-86430216D01*
X157796800Y-71997016D02*
X156144200Y-73649616D01*
X157700000Y-79981616D02*
X157700000Y-80169616D01*
X171367700Y-67260216D02*
X170713600Y-67260216D01*
X158263500Y-94146616D02*
X158781400Y-94146616D01*
X156181400Y-84760716D02*
X156181400Y-82946616D01*
X155662500Y-85279616D02*
X156181400Y-84760716D01*
X157860800Y-71869116D02*
X157860800Y-71997016D01*
X159217000Y-70512916D02*
X157860800Y-71869116D01*
X156144200Y-73674416D02*
X156370000Y-73900216D01*
%TO.N,Board_3-CHG_INH*%
X159533000Y-73818116D02*
X157984200Y-75366916D01*
X157984200Y-75366916D02*
X157984200Y-77617916D01*
%TO.N,Board_3-CHG_STAT*%
X156654600Y-81739116D02*
X158294100Y-81739116D01*
X160578300Y-73878216D02*
X160183000Y-73482916D01*
X160578300Y-79454916D02*
X160578300Y-73878216D01*
X158294100Y-81739116D02*
X160578300Y-79454916D01*
%TO.N,Board_3-VDD*%
X162690000Y-71179616D02*
X163960100Y-72449716D01*
X161130100Y-69467116D02*
X157896600Y-72700616D01*
X163664500Y-69467116D02*
X161130100Y-69467116D01*
%TO.N,Board_3-VBAT*%
X156475400Y-88812416D02*
X156446300Y-88783316D01*
X156842200Y-89454616D02*
X156768800Y-89454616D01*
X156725000Y-89410816D02*
X156725000Y-88975616D01*
X156446300Y-88779616D02*
X156446300Y-88075916D01*
X159337400Y-94438216D02*
X159617800Y-94718616D01*
X156446300Y-88783316D02*
X156446300Y-88779616D01*
X159617800Y-94718616D02*
X160014500Y-94718616D01*
X159337400Y-93950616D02*
X159337400Y-94438216D01*
X156561800Y-88812416D02*
X156475400Y-88812416D01*
X160294800Y-92907216D02*
X156842200Y-89454616D01*
X160014500Y-94718616D02*
X160294800Y-94438316D01*
X154512500Y-89125716D02*
X159337400Y-93950616D01*
X160294800Y-94438316D02*
X160294800Y-92907216D01*
X156768800Y-89454616D02*
X156725000Y-89410816D01*
X156725000Y-88975616D02*
X156561800Y-88812416D01*
X156446300Y-88075916D02*
X155329600Y-86959216D01*
X157150000Y-88779616D02*
X156446300Y-88779616D01*
X153923900Y-89125716D02*
X154512500Y-89125716D01*
%TO.N,Board_3-SWDIO*%
X165230000Y-73309616D02*
X170350000Y-78429616D01*
X165230000Y-71179616D02*
X165230000Y-73309616D01*
%TO.N,Board_3-SWDCLK*%
X171150000Y-78429616D02*
X171150000Y-74559616D01*
X171150000Y-74559616D02*
X167770000Y-71179616D01*
%TO.N,Board_2-GND*%
X120217000Y-70512916D02*
X118860800Y-71869116D01*
X117181400Y-84760716D02*
X117181400Y-82946616D01*
X120326100Y-70512916D02*
X120217000Y-70512916D01*
X116662500Y-85279616D02*
X117181400Y-84760716D01*
X118700000Y-79981616D02*
X115698200Y-79981616D01*
X117144200Y-73649616D02*
X115620600Y-73649616D01*
X122783100Y-68055916D02*
X120326100Y-70512916D01*
X116074700Y-86430216D02*
X114445200Y-88059716D01*
X119263500Y-94146616D02*
X119781400Y-94146616D01*
X117144200Y-73649616D02*
X117144200Y-73674416D01*
X120373000Y-79981616D02*
X118700000Y-79981616D01*
X123327400Y-67511616D02*
X131462200Y-67511616D01*
X119248400Y-94679616D02*
X119781400Y-94146616D01*
X117414200Y-87279616D02*
X116564800Y-86430216D01*
X121048400Y-78120716D02*
X118161100Y-78120716D01*
X117810000Y-94679616D02*
X119248400Y-94679616D01*
X116564800Y-86430216D02*
X116074700Y-86430216D01*
X118860800Y-71997016D02*
X118796800Y-71997016D01*
X118796800Y-71997016D02*
X117144200Y-73649616D01*
X114445200Y-89328316D02*
X119263500Y-94146616D01*
X122783100Y-68055916D02*
X123327400Y-67511616D01*
X117370000Y-75593216D02*
X117370000Y-73900216D01*
X137414200Y-80279616D02*
X135000000Y-82693816D01*
X132367700Y-67260216D02*
X131713600Y-67260216D01*
X135000000Y-82693816D02*
X135000000Y-83379616D01*
X118860800Y-71869116D02*
X118860800Y-71997016D01*
X117144200Y-73674416D02*
X117370000Y-73900216D01*
X116950700Y-76012516D02*
X117370000Y-75593216D01*
X131713600Y-67260216D02*
X131462200Y-67511616D01*
X118161100Y-78120716D02*
X116920000Y-76879616D01*
X121015000Y-79339616D02*
X120373000Y-79981616D01*
X118700000Y-79981616D02*
X118700000Y-80169616D01*
X114445200Y-88059716D02*
X114445200Y-89328316D01*
%TO.N,Board_0-VDD*%
X133335500Y-59092116D02*
X135869900Y-59092116D01*
X135869900Y-59092116D02*
X139103400Y-55858616D01*
X134310000Y-57379616D02*
X133039900Y-56109516D01*
%TO.N,Board_0-GND*%
X143554800Y-40499516D02*
X143554800Y-39230916D01*
X140585800Y-41279616D02*
X141435200Y-42129016D01*
X135216900Y-60503316D02*
X134672600Y-61047616D01*
X136985000Y-49219616D02*
X137627000Y-48577616D01*
X134672600Y-61047616D02*
X126537800Y-61047616D01*
X123000000Y-45865416D02*
X123000000Y-45179616D01*
X139838900Y-50438516D02*
X141080000Y-51679616D01*
X139139200Y-56690116D02*
X139139200Y-56562216D01*
X139139200Y-56562216D02*
X139203200Y-56562216D01*
X120585800Y-48279616D02*
X123000000Y-45865416D01*
X139300000Y-48577616D02*
X139300000Y-48389616D01*
X140190000Y-33879616D02*
X138751600Y-33879616D01*
X138751600Y-33879616D02*
X138218600Y-34412616D01*
X135216900Y-60503316D02*
X137673900Y-58046316D01*
X141435200Y-42129016D02*
X141925300Y-42129016D01*
X140855800Y-54909616D02*
X140855800Y-54884816D01*
X140630000Y-52966016D02*
X140630000Y-54659016D01*
X141049300Y-52546716D02*
X140630000Y-52966016D01*
X141925300Y-42129016D02*
X143554800Y-40499516D01*
X138736500Y-34412616D02*
X138218600Y-34412616D01*
X143554800Y-39230916D02*
X138736500Y-34412616D01*
X140855800Y-54909616D02*
X142379400Y-54909616D01*
X139300000Y-48577616D02*
X142301800Y-48577616D01*
X137627000Y-48577616D02*
X139300000Y-48577616D01*
X137673900Y-58046316D02*
X137783000Y-58046316D01*
X141337500Y-43279616D02*
X140818600Y-43798516D01*
X139203200Y-56562216D02*
X140855800Y-54909616D01*
X126286400Y-61299016D02*
X126537800Y-61047616D01*
X125632300Y-61299016D02*
X126286400Y-61299016D01*
X136951600Y-50438516D02*
X139838900Y-50438516D01*
X140855800Y-54884816D02*
X140630000Y-54659016D01*
X137783000Y-58046316D02*
X139139200Y-56690116D01*
X140818600Y-43798516D02*
X140818600Y-45612616D01*
%TO.N,Board_0-VBAT*%
X137382200Y-33840616D02*
X136985500Y-33840616D01*
X143076100Y-39433516D02*
X142487500Y-39433516D01*
X140231200Y-39104616D02*
X140275000Y-39148416D01*
X139850000Y-39779616D02*
X140553700Y-39779616D01*
X137662600Y-34121016D02*
X137382200Y-33840616D01*
X140157800Y-39104616D02*
X140231200Y-39104616D01*
X142487500Y-39433516D02*
X137662600Y-34608616D01*
X137662600Y-34608616D02*
X137662600Y-34121016D01*
X140524600Y-39746816D02*
X140553700Y-39775916D01*
X136705200Y-35652016D02*
X140157800Y-39104616D01*
X140553700Y-39775916D02*
X140553700Y-39779616D01*
X140275000Y-39583616D02*
X140438200Y-39746816D01*
X140275000Y-39148416D02*
X140275000Y-39583616D01*
X136705200Y-34120916D02*
X136705200Y-35652016D01*
X136985500Y-33840616D02*
X136705200Y-34120916D01*
X140553700Y-39779616D02*
X140553700Y-40483316D01*
X140438200Y-39746816D02*
X140524600Y-39746816D01*
X140553700Y-40483316D02*
X141670400Y-41600016D01*
%TO.N,Board_2-VIN*%
X115391600Y-82395716D02*
X114909500Y-82877816D01*
X119392900Y-82395716D02*
X115391600Y-82395716D01*
X132700000Y-70329616D02*
X122200000Y-70329616D01*
X121259000Y-80529616D02*
X119392900Y-82395716D01*
X122200000Y-70329616D02*
X122200000Y-80529616D01*
X132700000Y-79129616D02*
X132700000Y-70329616D01*
X122200000Y-80529616D02*
X121250000Y-80529616D01*
X133700000Y-80129616D02*
X132700000Y-79129616D01*
%TO.N,Board_1-GND*%
X176783000Y-58046316D02*
X178139200Y-56690116D01*
X179585800Y-41279616D02*
X180435200Y-42129016D01*
X182554800Y-40499516D02*
X182554800Y-39230916D01*
X179855800Y-54909616D02*
X179855800Y-54884816D01*
X175985000Y-49219616D02*
X176627000Y-48577616D01*
X159585800Y-48279616D02*
X162000000Y-45865416D01*
X177736500Y-34412616D02*
X177218600Y-34412616D01*
X176673900Y-58046316D02*
X176783000Y-58046316D01*
X178300000Y-48577616D02*
X178300000Y-48389616D01*
X178838900Y-50438516D02*
X180080000Y-51679616D01*
X174216900Y-60503316D02*
X176673900Y-58046316D01*
X164632300Y-61299016D02*
X165286400Y-61299016D01*
X178300000Y-48577616D02*
X181301800Y-48577616D01*
X178139200Y-56690116D02*
X178139200Y-56562216D01*
X173672600Y-61047616D02*
X165537800Y-61047616D01*
X178139200Y-56562216D02*
X178203200Y-56562216D01*
X165286400Y-61299016D02*
X165537800Y-61047616D01*
X162000000Y-45865416D02*
X162000000Y-45179616D01*
X174216900Y-60503316D02*
X173672600Y-61047616D01*
X179818600Y-43798516D02*
X179818600Y-45612616D01*
X177751600Y-33879616D02*
X177218600Y-34412616D01*
X175951600Y-50438516D02*
X178838900Y-50438516D01*
X179190000Y-33879616D02*
X177751600Y-33879616D01*
X182554800Y-39230916D02*
X177736500Y-34412616D01*
X179855800Y-54909616D02*
X181379400Y-54909616D01*
X180925300Y-42129016D02*
X182554800Y-40499516D01*
X179855800Y-54884816D02*
X179630000Y-54659016D01*
X178203200Y-56562216D02*
X179855800Y-54909616D01*
X180337500Y-43279616D02*
X179818600Y-43798516D01*
X176627000Y-48577616D02*
X178300000Y-48577616D01*
X179630000Y-52966016D02*
X179630000Y-54659016D01*
X180435200Y-42129016D02*
X180925300Y-42129016D01*
X180049300Y-52546716D02*
X179630000Y-52966016D01*
%TO.N,Board_2-CHG_INH*%
X120533000Y-73818116D02*
X118984200Y-75366916D01*
X118984200Y-75366916D02*
X118984200Y-77617916D01*
%TO.N,Board_1-VIN*%
X177607100Y-46163516D02*
X181608400Y-46163516D01*
X181608400Y-46163516D02*
X182090500Y-45681416D01*
X164300000Y-49429616D02*
X164300000Y-58229616D01*
X175741000Y-48029616D02*
X177607100Y-46163516D01*
X163300000Y-48429616D02*
X164300000Y-49429616D01*
X164300000Y-58229616D02*
X174800000Y-58229616D01*
X174800000Y-58229616D02*
X174800000Y-48029616D01*
X174800000Y-48029616D02*
X175750000Y-48029616D01*
%TO.N,Board_3-PROG_SW*%
X152932100Y-83636516D02*
X152932100Y-83153816D01*
X155464900Y-80621016D02*
X156614600Y-80621016D01*
X152932100Y-83153816D02*
X155464900Y-80621016D01*
%TO.N,Board_2-CHG_STAT*%
X117654600Y-81739116D02*
X119294100Y-81739116D01*
X121578300Y-73878216D02*
X121183000Y-73482916D01*
X121578300Y-79454916D02*
X121578300Y-73878216D01*
X119294100Y-81739116D02*
X121578300Y-79454916D01*
%TO.N,Board_2-VDD*%
X123690000Y-71179616D02*
X124960100Y-72449716D01*
X122130100Y-69467116D02*
X118896600Y-72700616D01*
X124664500Y-69467116D02*
X122130100Y-69467116D01*
%TO.N,Board_2-VBAT*%
X117446300Y-88075916D02*
X116329600Y-86959216D01*
X115512500Y-89125716D02*
X120337400Y-93950616D01*
X117561800Y-88812416D02*
X117475400Y-88812416D01*
X117446300Y-88779616D02*
X117446300Y-88075916D01*
X117475400Y-88812416D02*
X117446300Y-88783316D01*
X120337400Y-94438216D02*
X120617800Y-94718616D01*
X121294800Y-92907216D02*
X117842200Y-89454616D01*
X120337400Y-93950616D02*
X120337400Y-94438216D01*
X117725000Y-88975616D02*
X117561800Y-88812416D01*
X117768800Y-89454616D02*
X117725000Y-89410816D01*
X121294800Y-94438316D02*
X121294800Y-92907216D01*
X121014500Y-94718616D02*
X121294800Y-94438316D01*
X114923900Y-89125716D02*
X115512500Y-89125716D01*
X118150000Y-88779616D02*
X117446300Y-88779616D01*
X117725000Y-89410816D02*
X117725000Y-88975616D01*
X120617800Y-94718616D02*
X121014500Y-94718616D01*
X117842200Y-89454616D02*
X117768800Y-89454616D01*
X117446300Y-88783316D02*
X117446300Y-88779616D01*
%TO.N,Board_2-SWDIO*%
X126230000Y-73309616D02*
X131350000Y-78429616D01*
X126230000Y-71179616D02*
X126230000Y-73309616D01*
%TO.N,Board_2-SWDCLK*%
X132150000Y-74559616D02*
X128770000Y-71179616D01*
X132150000Y-78429616D02*
X132150000Y-74559616D01*
%TO.N,Board_1-VDD*%
X173310000Y-57379616D02*
X172039900Y-56109516D01*
X172335500Y-59092116D02*
X174869900Y-59092116D01*
X174869900Y-59092116D02*
X178103400Y-55858616D01*
%TO.N,Board_0-VIN*%
X125300000Y-49429616D02*
X125300000Y-58229616D01*
X125300000Y-58229616D02*
X135800000Y-58229616D01*
X135800000Y-58229616D02*
X135800000Y-48029616D01*
X124300000Y-48429616D02*
X125300000Y-49429616D01*
X142608400Y-46163516D02*
X143090500Y-45681416D01*
X136741000Y-48029616D02*
X138607100Y-46163516D01*
X135800000Y-48029616D02*
X136750000Y-48029616D01*
X138607100Y-46163516D02*
X142608400Y-46163516D01*
%TO.N,Board_0-PROG_SW*%
X144067900Y-44922716D02*
X144067900Y-45405416D01*
X141535100Y-47938216D02*
X140385400Y-47938216D01*
X144067900Y-45405416D02*
X141535100Y-47938216D01*
%TO.N,Board_3-VIN*%
X161200000Y-80529616D02*
X160250000Y-80529616D01*
X172700000Y-80129616D02*
X171700000Y-79129616D01*
X160259000Y-80529616D02*
X158392900Y-82395716D01*
X154391600Y-82395716D02*
X153909500Y-82877816D01*
X171700000Y-79129616D02*
X171700000Y-70329616D01*
X158392900Y-82395716D02*
X154391600Y-82395716D01*
X161200000Y-70329616D02*
X161200000Y-80529616D01*
X171700000Y-70329616D02*
X161200000Y-70329616D01*
%TO.N,Board_0-CHG_INH*%
X137467000Y-54741116D02*
X139015800Y-53192316D01*
X139015800Y-53192316D02*
X139015800Y-50941316D01*
%TO.N,Board_0-CHG_STAT*%
X138705900Y-46820116D02*
X136421700Y-49104316D01*
X140345400Y-46820116D02*
X138705900Y-46820116D01*
X136421700Y-54681016D02*
X136817000Y-55076316D01*
X136421700Y-49104316D02*
X136421700Y-54681016D01*
%TO.N,Board_0-SWDIO*%
X131770000Y-57379616D02*
X131770000Y-55249616D01*
X131770000Y-55249616D02*
X126650000Y-50129616D01*
%TO.N,Board_0-SWDCLK*%
X125850000Y-50129616D02*
X125850000Y-53999616D01*
X125850000Y-53999616D02*
X129230000Y-57379616D01*
%TO.N,Board_1-CHG_INH*%
X176467000Y-54741116D02*
X178015800Y-53192316D01*
X178015800Y-53192316D02*
X178015800Y-50941316D01*
%TO.N,Board_1-PROG_SW*%
X183067900Y-45405416D02*
X180535100Y-47938216D01*
X180535100Y-47938216D02*
X179385400Y-47938216D01*
X183067900Y-44922716D02*
X183067900Y-45405416D01*
%TO.N,Board_2-BAT_P*%
X120367600Y-88779616D02*
X120596600Y-88550616D01*
X119450000Y-88779616D02*
X120367600Y-88779616D01*
%TO.N,Board_1-VBAT*%
X179524600Y-39746816D02*
X179553700Y-39775916D01*
X179553700Y-39779616D02*
X179553700Y-40483316D01*
X175985500Y-33840616D02*
X175705200Y-34120916D01*
X179231200Y-39104616D02*
X179275000Y-39148416D01*
X179157800Y-39104616D02*
X179231200Y-39104616D01*
X182076100Y-39433516D02*
X181487500Y-39433516D01*
X179553700Y-40483316D02*
X180670400Y-41600016D01*
X179275000Y-39148416D02*
X179275000Y-39583616D01*
X176382200Y-33840616D02*
X175985500Y-33840616D01*
X179438200Y-39746816D02*
X179524600Y-39746816D01*
X176662600Y-34121016D02*
X176382200Y-33840616D01*
X176662600Y-34608616D02*
X176662600Y-34121016D01*
X175705200Y-34120916D02*
X175705200Y-35652016D01*
X181487500Y-39433516D02*
X176662600Y-34608616D01*
X175705200Y-35652016D02*
X179157800Y-39104616D01*
X179553700Y-39775916D02*
X179553700Y-39779616D01*
X179275000Y-39583616D02*
X179438200Y-39746816D01*
X178850000Y-39779616D02*
X179553700Y-39779616D01*
%TO.N,Board_3-BAT_P*%
X159367600Y-88779616D02*
X159596600Y-88550616D01*
X158450000Y-88779616D02*
X159367600Y-88779616D01*
%TO.N,Board_0-BAT_P*%
X138550000Y-39779616D02*
X137632400Y-39779616D01*
X137632400Y-39779616D02*
X137403400Y-40008616D01*
%TO.N,Board_1-CHG_STAT*%
X175421700Y-54681016D02*
X175817000Y-55076316D01*
X175421700Y-49104316D02*
X175421700Y-54681016D01*
X179345400Y-46820116D02*
X177705900Y-46820116D01*
X177705900Y-46820116D02*
X175421700Y-49104316D01*
%TO.N,Board_2-PROG_SW*%
X113932100Y-83153816D02*
X116464900Y-80621016D01*
X113932100Y-83636516D02*
X113932100Y-83153816D01*
X116464900Y-80621016D02*
X117614600Y-80621016D01*
%TO.N,Board_1-BAT_P*%
X176632400Y-39779616D02*
X176403400Y-40008616D01*
X177550000Y-39779616D02*
X176632400Y-39779616D01*
%TO.N,Board_1-SWDIO*%
X170770000Y-55249616D02*
X165650000Y-50129616D01*
X170770000Y-57379616D02*
X170770000Y-55249616D01*
%TO.N,Board_1-SWDCLK*%
X164850000Y-53999616D02*
X168230000Y-57379616D01*
X164850000Y-50129616D02*
X164850000Y-53999616D01*
%TD*%
%TA.AperFunction,Conductor*%
%TO.N,Board_1-GND*%
G36*
X174989114Y-28523170D02*
G01*
X175406995Y-28708404D01*
X175452531Y-28749271D01*
X175465876Y-28798911D01*
X175465876Y-28906912D01*
X175470582Y-28924474D01*
X175499985Y-29034210D01*
X175565872Y-29148329D01*
X175565874Y-29148331D01*
X175565876Y-29148334D01*
X175659062Y-29241520D01*
X175659064Y-29241521D01*
X175659066Y-29241523D01*
X175773186Y-29307410D01*
X175773184Y-29307410D01*
X175773188Y-29307411D01*
X175773190Y-29307412D01*
X175900484Y-29341520D01*
X175900486Y-29341520D01*
X176032265Y-29341520D01*
X176032268Y-29341520D01*
X176148196Y-29310457D01*
X176209293Y-29313659D01*
X176256843Y-29352164D01*
X176269441Y-29380459D01*
X176292740Y-29467415D01*
X176297759Y-29486144D01*
X176363646Y-29600263D01*
X176363648Y-29600265D01*
X176363650Y-29600268D01*
X176456836Y-29693454D01*
X176456838Y-29693455D01*
X176456840Y-29693457D01*
X176570960Y-29759344D01*
X176570958Y-29759344D01*
X176570962Y-29759345D01*
X176570964Y-29759346D01*
X176698258Y-29793454D01*
X176698260Y-29793454D01*
X176830041Y-29793454D01*
X176830042Y-29793454D01*
X176929878Y-29766703D01*
X176990978Y-29769904D01*
X177038528Y-29808409D01*
X177051125Y-29836703D01*
X177066528Y-29894184D01*
X177083616Y-29957960D01*
X177149503Y-30072079D01*
X177149505Y-30072081D01*
X177149507Y-30072084D01*
X177242693Y-30165270D01*
X177242695Y-30165271D01*
X177242697Y-30165273D01*
X177356817Y-30231160D01*
X177356815Y-30231160D01*
X177356819Y-30231161D01*
X177356821Y-30231162D01*
X177484115Y-30265270D01*
X177484117Y-30265270D01*
X177615898Y-30265270D01*
X177615899Y-30265270D01*
X177685464Y-30246630D01*
X177746565Y-30249831D01*
X177794115Y-30288336D01*
X177808214Y-30335934D01*
X177809240Y-30335799D01*
X177810086Y-30342230D01*
X177844196Y-30469531D01*
X177910083Y-30583650D01*
X177910085Y-30583652D01*
X177910087Y-30583655D01*
X178003273Y-30676841D01*
X178003275Y-30676842D01*
X178003277Y-30676844D01*
X178117397Y-30742731D01*
X178117395Y-30742731D01*
X178117399Y-30742732D01*
X178117401Y-30742733D01*
X178244695Y-30776841D01*
X178244697Y-30776841D01*
X178376478Y-30776841D01*
X178376479Y-30776841D01*
X178418763Y-30765511D01*
X178479863Y-30768712D01*
X178527414Y-30807217D01*
X178543386Y-30861137D01*
X178543386Y-30892213D01*
X178573186Y-31003431D01*
X178577495Y-31019511D01*
X178643382Y-31133630D01*
X178643384Y-31133632D01*
X178643386Y-31133635D01*
X178736572Y-31226821D01*
X178736574Y-31226822D01*
X178736576Y-31226824D01*
X178850696Y-31292711D01*
X178850694Y-31292711D01*
X178850698Y-31292712D01*
X178850700Y-31292713D01*
X178977994Y-31326821D01*
X178977996Y-31326821D01*
X179109775Y-31326821D01*
X179109778Y-31326821D01*
X179122846Y-31323319D01*
X179183943Y-31326519D01*
X179231495Y-31365022D01*
X179247469Y-31418945D01*
X179247469Y-31479152D01*
X179269733Y-31562244D01*
X179281578Y-31606450D01*
X179347465Y-31720569D01*
X179347467Y-31720571D01*
X179347469Y-31720574D01*
X179440655Y-31813760D01*
X179440657Y-31813761D01*
X179440659Y-31813763D01*
X179554779Y-31879650D01*
X179554777Y-31879650D01*
X179554781Y-31879651D01*
X179554783Y-31879652D01*
X179682077Y-31913760D01*
X179682079Y-31913760D01*
X179813859Y-31913760D01*
X179813861Y-31913760D01*
X179941155Y-31879652D01*
X179983016Y-31855483D01*
X180042860Y-31842761D01*
X180098757Y-31867646D01*
X180100779Y-31869519D01*
X180513601Y-32262558D01*
X180517037Y-32265993D01*
X180609974Y-32363608D01*
X181043779Y-32819247D01*
X181112714Y-32891651D01*
X181115969Y-32895243D01*
X181494277Y-33333806D01*
X181680252Y-33549403D01*
X181683334Y-33553159D01*
X181805377Y-33709543D01*
X182161689Y-34166116D01*
X182214804Y-34234176D01*
X182217691Y-34238068D01*
X182567148Y-34734259D01*
X182715121Y-34944364D01*
X182717821Y-34948404D01*
X183179989Y-35678250D01*
X183182487Y-35682418D01*
X183608289Y-36434062D01*
X183610579Y-36438347D01*
X183998979Y-37209965D01*
X184001057Y-37214358D01*
X184351142Y-38004137D01*
X184353001Y-38008627D01*
X184492809Y-38371067D01*
X184496111Y-38432163D01*
X184470447Y-38476699D01*
X184386872Y-38560274D01*
X184386868Y-38560279D01*
X184320981Y-38674398D01*
X184320980Y-38674403D01*
X184286872Y-38801697D01*
X184286872Y-38933481D01*
X184304868Y-39000643D01*
X184320981Y-39060779D01*
X184386868Y-39174898D01*
X184386870Y-39174900D01*
X184386872Y-39174903D01*
X184480058Y-39268089D01*
X184539920Y-39302650D01*
X184580862Y-39348119D01*
X184587258Y-39408970D01*
X184576160Y-39437882D01*
X184573491Y-39442504D01*
X184573490Y-39442507D01*
X184573489Y-39442509D01*
X184573489Y-39442510D01*
X184539381Y-39569804D01*
X184539381Y-39701588D01*
X184547815Y-39733063D01*
X184573490Y-39828886D01*
X184639377Y-39943005D01*
X184639379Y-39943007D01*
X184639381Y-39943010D01*
X184732567Y-40036196D01*
X184769633Y-40057596D01*
X184810573Y-40103065D01*
X184816969Y-40163915D01*
X184805869Y-40192832D01*
X184789146Y-40221795D01*
X184779523Y-40257711D01*
X184755038Y-40349091D01*
X184755038Y-40480875D01*
X184759708Y-40498303D01*
X184789147Y-40608173D01*
X184855034Y-40722292D01*
X184855036Y-40722294D01*
X184855038Y-40722297D01*
X184948224Y-40815483D01*
X184961845Y-40823347D01*
X184961847Y-40823348D01*
X185002787Y-40868818D01*
X185009182Y-40929668D01*
X184998083Y-40958584D01*
X184968262Y-41010234D01*
X184956104Y-41055609D01*
X184934154Y-41137530D01*
X184934154Y-41269314D01*
X184964233Y-41381573D01*
X184968263Y-41396612D01*
X185034150Y-41510731D01*
X185034152Y-41510733D01*
X185034154Y-41510736D01*
X185127340Y-41603922D01*
X185127342Y-41603923D01*
X185127343Y-41603924D01*
X185128371Y-41604713D01*
X185128896Y-41605477D01*
X185131929Y-41608510D01*
X185131366Y-41609072D01*
X185163024Y-41655140D01*
X185161419Y-41716304D01*
X185153835Y-41732752D01*
X185111610Y-41805886D01*
X185111609Y-41805891D01*
X185077501Y-41933185D01*
X185077501Y-42064969D01*
X185103857Y-42163333D01*
X185111610Y-42192267D01*
X185177497Y-42306386D01*
X185177499Y-42306388D01*
X185177501Y-42306391D01*
X185260121Y-42389011D01*
X185287897Y-42443526D01*
X185278326Y-42503958D01*
X185275852Y-42508513D01*
X185218904Y-42607147D01*
X185212903Y-42629544D01*
X185184795Y-42734446D01*
X185184795Y-42866230D01*
X185199232Y-42920109D01*
X185218904Y-42993528D01*
X185284791Y-43107647D01*
X185284793Y-43107649D01*
X185284795Y-43107652D01*
X185377981Y-43200838D01*
X185377983Y-43200839D01*
X185377985Y-43200841D01*
X185492105Y-43266728D01*
X185492106Y-43266728D01*
X185492109Y-43266730D01*
X185565411Y-43286371D01*
X185616725Y-43319694D01*
X185638520Y-43374714D01*
X185677910Y-43908730D01*
X185678148Y-43913583D01*
X185699349Y-44777185D01*
X185699349Y-44782045D01*
X185678148Y-45645647D01*
X185677910Y-45650500D01*
X185614358Y-46512052D01*
X185613881Y-46516888D01*
X185508136Y-47374254D01*
X185507423Y-47379060D01*
X185359732Y-48230215D01*
X185358784Y-48234981D01*
X185227550Y-48819390D01*
X185196353Y-48872024D01*
X185140176Y-48896269D01*
X185080477Y-48882863D01*
X185060952Y-48867703D01*
X185060566Y-48867317D01*
X185060563Y-48867313D01*
X185060558Y-48867309D01*
X185060557Y-48867308D01*
X184855623Y-48710057D01*
X184604928Y-48517692D01*
X184593728Y-48513053D01*
X184292741Y-48388380D01*
X184074330Y-48297911D01*
X184074328Y-48297910D01*
X184074326Y-48297910D01*
X183504929Y-48222948D01*
X183504927Y-48222948D01*
X182935529Y-48297910D01*
X182935523Y-48297912D01*
X182404929Y-48517691D01*
X181949298Y-48867308D01*
X181949288Y-48867318D01*
X181599671Y-49322949D01*
X181379892Y-49853543D01*
X181379890Y-49853549D01*
X181304928Y-50422947D01*
X181304928Y-50422948D01*
X181378490Y-50981713D01*
X181379891Y-50992350D01*
X181599672Y-51522948D01*
X181622639Y-51552879D01*
X181826857Y-51819022D01*
X181949293Y-51978583D01*
X182404928Y-52328204D01*
X182935526Y-52547985D01*
X183308798Y-52597127D01*
X183504927Y-52622948D01*
X183504928Y-52622948D01*
X183701054Y-52597127D01*
X183761213Y-52608277D01*
X183803331Y-52652659D01*
X183811317Y-52713321D01*
X183802404Y-52739792D01*
X183610579Y-53120883D01*
X183608289Y-53125168D01*
X183182487Y-53876812D01*
X183179989Y-53880980D01*
X182717821Y-54610826D01*
X182715121Y-54614866D01*
X182217699Y-55321151D01*
X182214804Y-55325054D01*
X181683334Y-56006071D01*
X181680252Y-56009827D01*
X181115978Y-56663978D01*
X181112714Y-56667579D01*
X180517047Y-57293227D01*
X180513612Y-57296662D01*
X179887953Y-57892339D01*
X179884352Y-57895603D01*
X179230232Y-58459851D01*
X179226476Y-58462933D01*
X178545449Y-58994412D01*
X178541546Y-58997307D01*
X177835250Y-59494737D01*
X177831210Y-59497437D01*
X177101364Y-59959605D01*
X177097196Y-59962103D01*
X176345544Y-60387909D01*
X176341259Y-60390199D01*
X175569649Y-60778595D01*
X175565256Y-60780673D01*
X174775477Y-61130758D01*
X174770988Y-61132617D01*
X173965015Y-61443515D01*
X173960439Y-61445152D01*
X173140171Y-61716132D01*
X173135521Y-61717543D01*
X172302944Y-61947947D01*
X172298231Y-61949127D01*
X171455365Y-62138400D01*
X171450599Y-62139348D01*
X170599461Y-62287036D01*
X170594654Y-62287750D01*
X170527543Y-62296027D01*
X170467476Y-62284384D01*
X170429690Y-62247271D01*
X170384432Y-62168883D01*
X170291246Y-62075697D01*
X170291243Y-62075695D01*
X170291241Y-62075693D01*
X170177121Y-62009806D01*
X170177123Y-62009806D01*
X170126440Y-61996226D01*
X170049824Y-61975697D01*
X169918040Y-61975697D01*
X169841424Y-61996226D01*
X169790741Y-62009806D01*
X169676622Y-62075693D01*
X169583430Y-62168885D01*
X169551673Y-62223890D01*
X169506203Y-62264830D01*
X169445353Y-62271225D01*
X169395933Y-62244393D01*
X169393519Y-62241979D01*
X169393518Y-62241977D01*
X169300332Y-62148791D01*
X169300329Y-62148789D01*
X169300327Y-62148787D01*
X169186207Y-62082900D01*
X169186209Y-62082900D01*
X169136817Y-62069666D01*
X169058910Y-62048791D01*
X168927126Y-62048791D01*
X168849218Y-62069666D01*
X168799827Y-62082900D01*
X168685708Y-62148787D01*
X168592516Y-62241979D01*
X168573508Y-62274902D01*
X168528038Y-62315842D01*
X168467188Y-62322237D01*
X168414200Y-62291644D01*
X168402033Y-62274897D01*
X168400502Y-62272245D01*
X168400500Y-62272241D01*
X168307314Y-62179055D01*
X168307311Y-62179053D01*
X168307309Y-62179051D01*
X168193189Y-62113164D01*
X168193191Y-62113164D01*
X168143799Y-62099930D01*
X168065892Y-62079055D01*
X167934108Y-62079055D01*
X167856200Y-62099930D01*
X167806809Y-62113164D01*
X167692690Y-62179051D01*
X167599496Y-62272245D01*
X167597961Y-62274905D01*
X167596326Y-62276376D01*
X167595549Y-62277390D01*
X167595361Y-62277245D01*
X167552490Y-62315844D01*
X167491639Y-62322237D01*
X167438652Y-62291641D01*
X167426491Y-62274902D01*
X167407482Y-62241979D01*
X167407481Y-62241977D01*
X167314295Y-62148791D01*
X167314292Y-62148789D01*
X167314290Y-62148787D01*
X167200170Y-62082900D01*
X167200172Y-62082900D01*
X167150780Y-62069666D01*
X167072873Y-62048791D01*
X166941089Y-62048791D01*
X166863181Y-62069666D01*
X166813790Y-62082900D01*
X166699671Y-62148787D01*
X166699666Y-62148791D01*
X166604064Y-62244393D01*
X166549548Y-62272170D01*
X166489116Y-62262598D01*
X166448325Y-62223890D01*
X166416567Y-62168883D01*
X166323381Y-62075697D01*
X166323378Y-62075695D01*
X166323376Y-62075693D01*
X166209256Y-62009806D01*
X166209258Y-62009806D01*
X166158575Y-61996226D01*
X166081959Y-61975697D01*
X165950175Y-61975697D01*
X165873559Y-61996226D01*
X165822876Y-62009806D01*
X165708757Y-62075693D01*
X165615565Y-62168885D01*
X165570308Y-62247272D01*
X165524838Y-62288212D01*
X165472454Y-62296027D01*
X165405344Y-62287750D01*
X165400537Y-62287036D01*
X164549399Y-62139348D01*
X164544633Y-62138400D01*
X163701767Y-61949127D01*
X163697054Y-61947947D01*
X163610626Y-61924030D01*
X163559586Y-61890288D01*
X163538127Y-61832989D01*
X163554445Y-61774020D01*
X163602308Y-61735905D01*
X163637030Y-61729616D01*
X163949999Y-61729616D01*
X163950000Y-61729616D01*
X163950000Y-58574871D01*
X163968907Y-58516680D01*
X164018407Y-58480716D01*
X164079593Y-58480716D01*
X164098500Y-58489135D01*
X164100137Y-58490080D01*
X164100138Y-58490081D01*
X164174362Y-58532934D01*
X164257147Y-58555116D01*
X164257149Y-58555116D01*
X171890323Y-58555116D01*
X171948514Y-58574023D01*
X171984478Y-58623523D01*
X171984478Y-58684709D01*
X171960328Y-58724117D01*
X171914995Y-58769451D01*
X171845812Y-58889280D01*
X171810000Y-59022933D01*
X171810000Y-59161299D01*
X171845812Y-59294952D01*
X171914995Y-59414781D01*
X172012835Y-59512621D01*
X172132664Y-59581804D01*
X172266317Y-59617616D01*
X172266319Y-59617616D01*
X172404681Y-59617616D01*
X172404683Y-59617616D01*
X172538336Y-59581804D01*
X172658165Y-59512621D01*
X172692002Y-59478784D01*
X172724175Y-59446612D01*
X172778692Y-59418835D01*
X172794178Y-59417616D01*
X174912751Y-59417616D01*
X174912753Y-59417616D01*
X174995539Y-59395434D01*
X174995541Y-59395432D01*
X174995543Y-59395432D01*
X175069757Y-59352584D01*
X175069757Y-59352583D01*
X175069762Y-59352581D01*
X178009230Y-56413111D01*
X178063747Y-56385335D01*
X178079234Y-56384116D01*
X178172581Y-56384116D01*
X178172583Y-56384116D01*
X178306236Y-56348304D01*
X178426065Y-56279121D01*
X178523905Y-56181281D01*
X178593088Y-56061452D01*
X178628900Y-55927799D01*
X178628900Y-55789433D01*
X178593088Y-55655780D01*
X178523905Y-55535951D01*
X178426065Y-55438111D01*
X178306236Y-55368928D01*
X178172583Y-55333116D01*
X178034217Y-55333116D01*
X177900564Y-55368928D01*
X177780735Y-55438111D01*
X177682895Y-55535951D01*
X177613712Y-55655780D01*
X177577900Y-55789434D01*
X177577900Y-55882781D01*
X177558993Y-55940972D01*
X177548904Y-55952785D01*
X175294504Y-58207185D01*
X175239987Y-58234962D01*
X175179555Y-58225391D01*
X175136290Y-58182126D01*
X175125500Y-58137181D01*
X175125500Y-55277958D01*
X175144407Y-55219767D01*
X175193907Y-55183803D01*
X175255093Y-55183803D01*
X175304593Y-55219767D01*
X175320125Y-55252332D01*
X175327312Y-55279152D01*
X175396495Y-55398981D01*
X175494335Y-55496821D01*
X175614164Y-55566004D01*
X175747817Y-55601816D01*
X175747819Y-55601816D01*
X175886181Y-55601816D01*
X175886183Y-55601816D01*
X176019836Y-55566004D01*
X176139665Y-55496821D01*
X176237505Y-55398981D01*
X176287183Y-55312934D01*
X176332650Y-55271995D01*
X176391375Y-55265822D01*
X176391383Y-55265769D01*
X176391604Y-55265798D01*
X176393500Y-55265599D01*
X176397631Y-55266591D01*
X176397816Y-55266616D01*
X176397817Y-55266616D01*
X176536181Y-55266616D01*
X176536183Y-55266616D01*
X176669836Y-55230804D01*
X176789665Y-55161621D01*
X176887505Y-55063781D01*
X176956688Y-54943952D01*
X176992500Y-54810299D01*
X176992500Y-54716950D01*
X177011407Y-54658759D01*
X177021490Y-54646952D01*
X178276265Y-53392178D01*
X178319118Y-53317955D01*
X178341300Y-53235169D01*
X178341300Y-53149463D01*
X178341300Y-51399993D01*
X178360207Y-51341802D01*
X178370290Y-51329995D01*
X178436305Y-51263981D01*
X178505488Y-51144152D01*
X178541300Y-51010499D01*
X178541300Y-50872133D01*
X178505488Y-50738480D01*
X178436305Y-50618651D01*
X178338465Y-50520811D01*
X178218636Y-50451628D01*
X178084983Y-50415816D01*
X177946617Y-50415816D01*
X177812964Y-50451628D01*
X177693135Y-50520811D01*
X177595295Y-50618651D01*
X177526112Y-50738480D01*
X177490300Y-50872133D01*
X177490300Y-51010499D01*
X177526112Y-51144152D01*
X177595295Y-51263981D01*
X177661305Y-51329991D01*
X177689081Y-51384506D01*
X177690300Y-51399993D01*
X177690300Y-53016481D01*
X177671393Y-53074672D01*
X177661304Y-53086485D01*
X176561169Y-54186620D01*
X176506652Y-54214397D01*
X176491165Y-54215616D01*
X176397817Y-54215616D01*
X176264164Y-54251428D01*
X176144335Y-54320611D01*
X176046494Y-54418452D01*
X175996816Y-54504496D01*
X175951346Y-54545436D01*
X175892622Y-54551607D01*
X175892615Y-54551663D01*
X175892383Y-54551632D01*
X175890496Y-54551831D01*
X175886367Y-54550840D01*
X175886183Y-54550816D01*
X175886182Y-54550816D01*
X175846200Y-54550816D01*
X175788009Y-54531909D01*
X175752045Y-54482409D01*
X175747200Y-54451816D01*
X175747200Y-49280150D01*
X175766107Y-49221959D01*
X175776196Y-49210146D01*
X177811730Y-47174612D01*
X177866247Y-47146835D01*
X177881734Y-47145616D01*
X178886722Y-47145616D01*
X178944913Y-47164523D01*
X178956725Y-47174612D01*
X179022732Y-47240618D01*
X179022735Y-47240621D01*
X179134204Y-47304977D01*
X179175143Y-47350445D01*
X179181539Y-47411295D01*
X179150946Y-47464283D01*
X179134203Y-47476448D01*
X179062736Y-47517710D01*
X179062735Y-47517711D01*
X178964895Y-47615551D01*
X178895712Y-47735380D01*
X178859900Y-47869033D01*
X178859900Y-48007399D01*
X178895712Y-48141052D01*
X178964895Y-48260881D01*
X179062735Y-48358721D01*
X179182564Y-48427904D01*
X179316217Y-48463716D01*
X179316219Y-48463716D01*
X179454581Y-48463716D01*
X179454583Y-48463716D01*
X179588236Y-48427904D01*
X179708065Y-48358721D01*
X179755783Y-48311003D01*
X179774075Y-48292712D01*
X179828592Y-48264935D01*
X179844078Y-48263716D01*
X180577951Y-48263716D01*
X180577953Y-48263716D01*
X180660739Y-48241534D01*
X180660741Y-48241532D01*
X180660743Y-48241532D01*
X180734957Y-48198684D01*
X180734957Y-48198683D01*
X180734962Y-48198681D01*
X183328365Y-45605278D01*
X183328368Y-45605273D01*
X183371216Y-45531059D01*
X183371216Y-45531057D01*
X183371218Y-45531055D01*
X183393400Y-45448269D01*
X183393400Y-45381393D01*
X183412307Y-45323202D01*
X183422390Y-45311395D01*
X183488405Y-45245381D01*
X183557588Y-45125552D01*
X183593400Y-44991899D01*
X183593400Y-44853533D01*
X183557588Y-44719880D01*
X183488405Y-44600051D01*
X183390565Y-44502211D01*
X183270736Y-44433028D01*
X183137083Y-44397216D01*
X182998717Y-44397216D01*
X182865064Y-44433028D01*
X182745235Y-44502211D01*
X182647395Y-44600051D01*
X182578212Y-44719880D01*
X182542400Y-44853533D01*
X182542400Y-44991899D01*
X182578212Y-45125552D01*
X182612585Y-45185088D01*
X182625306Y-45244936D01*
X182600419Y-45300831D01*
X182547431Y-45331424D01*
X182486581Y-45325028D01*
X182456847Y-45304593D01*
X182413165Y-45260911D01*
X182293336Y-45191728D01*
X182159683Y-45155916D01*
X182021317Y-45155916D01*
X181887664Y-45191728D01*
X181767835Y-45260911D01*
X181669995Y-45358751D01*
X181600812Y-45478580D01*
X181567621Y-45602454D01*
X181565000Y-45612234D01*
X181565000Y-45705581D01*
X181546093Y-45763772D01*
X181536004Y-45775585D01*
X181502569Y-45809020D01*
X181448052Y-45836797D01*
X181432565Y-45838016D01*
X177649953Y-45838016D01*
X177564247Y-45838016D01*
X177513578Y-45851592D01*
X177481456Y-45860199D01*
X177407242Y-45903047D01*
X175835169Y-47475120D01*
X175780652Y-47502897D01*
X175765165Y-47504116D01*
X175680817Y-47504116D01*
X175547164Y-47539928D01*
X175427332Y-47609113D01*
X175361325Y-47675120D01*
X175306808Y-47702897D01*
X175291322Y-47704116D01*
X174842853Y-47704116D01*
X174757147Y-47704116D01*
X174674362Y-47726298D01*
X174600138Y-47769151D01*
X174539535Y-47829754D01*
X174496682Y-47903978D01*
X174474500Y-47986764D01*
X174474500Y-57805116D01*
X174455593Y-57863307D01*
X174406093Y-57899271D01*
X174375500Y-57904116D01*
X174047374Y-57904116D01*
X173989183Y-57885209D01*
X173953219Y-57835709D01*
X173953219Y-57774523D01*
X173965060Y-57750113D01*
X173975084Y-57735111D01*
X174031658Y-57598529D01*
X174060500Y-57453534D01*
X174060500Y-57305698D01*
X174031658Y-57160703D01*
X173975084Y-57024121D01*
X173892951Y-56901200D01*
X173788416Y-56796665D01*
X173665495Y-56714532D01*
X173665493Y-56714531D01*
X173528914Y-56657958D01*
X173383918Y-56629116D01*
X173236082Y-56629116D01*
X173236079Y-56629116D01*
X173107606Y-56654672D01*
X173046845Y-56647480D01*
X173018288Y-56627577D01*
X172565983Y-56175271D01*
X172538206Y-56120755D01*
X172540360Y-56079646D01*
X172565400Y-55986199D01*
X172565400Y-55847833D01*
X172529588Y-55714180D01*
X172460405Y-55594351D01*
X172362565Y-55496511D01*
X172242736Y-55427328D01*
X172109083Y-55391516D01*
X171970717Y-55391516D01*
X171837064Y-55427328D01*
X171717235Y-55496511D01*
X171619395Y-55594351D01*
X171550212Y-55714180D01*
X171514400Y-55847833D01*
X171514400Y-55986199D01*
X171550212Y-56119852D01*
X171619395Y-56239681D01*
X171717235Y-56337521D01*
X171837064Y-56406704D01*
X171865666Y-56414368D01*
X171910047Y-56439990D01*
X172557962Y-57087904D01*
X172585739Y-57142421D01*
X172585056Y-57177222D01*
X172559500Y-57305695D01*
X172559500Y-57453534D01*
X172588342Y-57598530D01*
X172644915Y-57735110D01*
X172654940Y-57750113D01*
X172671550Y-57809001D01*
X172650374Y-57866405D01*
X172599500Y-57900399D01*
X172572626Y-57904116D01*
X171507374Y-57904116D01*
X171449183Y-57885209D01*
X171413219Y-57835709D01*
X171413219Y-57774523D01*
X171425060Y-57750113D01*
X171435084Y-57735111D01*
X171491658Y-57598529D01*
X171520500Y-57453534D01*
X171520500Y-57305698D01*
X171491658Y-57160703D01*
X171435084Y-57024121D01*
X171352951Y-56901200D01*
X171248416Y-56796665D01*
X171203770Y-56766833D01*
X171139498Y-56723888D01*
X171101619Y-56675838D01*
X171095500Y-56641573D01*
X171095500Y-55206764D01*
X171095500Y-55206763D01*
X171073318Y-55123978D01*
X171030465Y-55049754D01*
X171030462Y-55049751D01*
X170969862Y-54989150D01*
X170969862Y-54989151D01*
X166209613Y-50228902D01*
X166181836Y-50174385D01*
X166191407Y-50113953D01*
X166234672Y-50070688D01*
X166295104Y-50061117D01*
X166310668Y-50064894D01*
X166380732Y-50088040D01*
X166397171Y-50093027D01*
X166643154Y-50161100D01*
X166659818Y-50165274D01*
X166791254Y-50194789D01*
X166908830Y-50221192D01*
X166908844Y-50221194D01*
X166908845Y-50221195D01*
X166925694Y-50224546D01*
X167038175Y-50244063D01*
X167177161Y-50268181D01*
X167194163Y-50270702D01*
X167438973Y-50300896D01*
X167447468Y-50301944D01*
X167464564Y-50303628D01*
X167719101Y-50322404D01*
X167736259Y-50323246D01*
X167957535Y-50328678D01*
X167991404Y-50329510D01*
X167991411Y-50329510D01*
X168008596Y-50329510D01*
X168041833Y-50328693D01*
X168263741Y-50323246D01*
X168280899Y-50322404D01*
X168535436Y-50303628D01*
X168552532Y-50301944D01*
X168639800Y-50291180D01*
X168805836Y-50270702D01*
X168822838Y-50268181D01*
X168927077Y-50250092D01*
X169074306Y-50224546D01*
X169091155Y-50221195D01*
X169091163Y-50221193D01*
X169091169Y-50221192D01*
X169126855Y-50213178D01*
X169340182Y-50165274D01*
X169356846Y-50161100D01*
X169602829Y-50093027D01*
X169619268Y-50088040D01*
X169861615Y-50007980D01*
X169877790Y-50002192D01*
X169877817Y-50002181D01*
X169877827Y-50002178D01*
X169964981Y-49968558D01*
X170115917Y-49910337D01*
X170131788Y-49903762D01*
X170365120Y-49800333D01*
X170365128Y-49800329D01*
X170365142Y-49800323D01*
X170380636Y-49792995D01*
X170393647Y-49786446D01*
X170608626Y-49678235D01*
X170623777Y-49670137D01*
X170845848Y-49544335D01*
X170860583Y-49535503D01*
X171076214Y-49398956D01*
X171090498Y-49389412D01*
X171299169Y-49242449D01*
X171312967Y-49232216D01*
X171514176Y-49075191D01*
X171527455Y-49064293D01*
X171720717Y-48897584D01*
X171733445Y-48886048D01*
X171918294Y-48710057D01*
X171930441Y-48697910D01*
X172106432Y-48513061D01*
X172117968Y-48500333D01*
X172284677Y-48307071D01*
X172295575Y-48293792D01*
X172452600Y-48092583D01*
X172462833Y-48078785D01*
X172609796Y-47870114D01*
X172619340Y-47855830D01*
X172755887Y-47640199D01*
X172764719Y-47625464D01*
X172890521Y-47403393D01*
X172898619Y-47388242D01*
X173013372Y-47160266D01*
X173013379Y-47160252D01*
X173020707Y-47144758D01*
X173020717Y-47144736D01*
X173124146Y-46911404D01*
X173130721Y-46895533D01*
X173222576Y-46657406D01*
X173228364Y-46641231D01*
X173308424Y-46398884D01*
X173313411Y-46382445D01*
X173381484Y-46136462D01*
X173385658Y-46119798D01*
X173441579Y-45870771D01*
X173444930Y-45853922D01*
X173482373Y-45638138D01*
X173488565Y-45602454D01*
X173491086Y-45585452D01*
X173522327Y-45332155D01*
X173523209Y-45323202D01*
X173524012Y-45315052D01*
X173542788Y-45060515D01*
X173543630Y-45043357D01*
X173549894Y-44788205D01*
X173550000Y-44779616D01*
X173550000Y-37073508D01*
X173568059Y-37016503D01*
X173690707Y-36842356D01*
X173700251Y-36828072D01*
X173870934Y-36558534D01*
X173879766Y-36543799D01*
X174037018Y-36266210D01*
X174045116Y-36251059D01*
X174188558Y-35966089D01*
X174188565Y-35966075D01*
X174195893Y-35950581D01*
X174239645Y-35851878D01*
X174325190Y-35658893D01*
X174331764Y-35643022D01*
X174426115Y-35398425D01*
X174446569Y-35345401D01*
X174446572Y-35345391D01*
X174446583Y-35345364D01*
X174452371Y-35329189D01*
X174552447Y-35026256D01*
X174557433Y-35009816D01*
X174642524Y-34702337D01*
X174646698Y-34685673D01*
X174716600Y-34374389D01*
X174719951Y-34357540D01*
X174737597Y-34255843D01*
X174768446Y-34078059D01*
X175379700Y-34078059D01*
X175379700Y-34078063D01*
X175379700Y-35609163D01*
X175379700Y-35694869D01*
X175399262Y-35767879D01*
X175401883Y-35777659D01*
X175444731Y-35851873D01*
X175444733Y-35851875D01*
X175444735Y-35851878D01*
X177333067Y-37740209D01*
X178215023Y-38622165D01*
X178242800Y-38676682D01*
X178233229Y-38737114D01*
X178189964Y-38780379D01*
X178129532Y-38789950D01*
X178125719Y-38789269D01*
X178074674Y-38779116D01*
X177025326Y-38779116D01*
X177025325Y-38779116D01*
X177025315Y-38779117D01*
X176952263Y-38793649D01*
X176952257Y-38793651D01*
X176869400Y-38849013D01*
X176869397Y-38849016D01*
X176814035Y-38931873D01*
X176814033Y-38931879D01*
X176799501Y-39004931D01*
X176799500Y-39004943D01*
X176799500Y-39355116D01*
X176780593Y-39413307D01*
X176731093Y-39449271D01*
X176700500Y-39454116D01*
X176675253Y-39454116D01*
X176589547Y-39454116D01*
X176570379Y-39459252D01*
X176500493Y-39477977D01*
X176500287Y-39477211D01*
X176470608Y-39483116D01*
X176334217Y-39483116D01*
X176200564Y-39518928D01*
X176080735Y-39588111D01*
X175982895Y-39685951D01*
X175913712Y-39805780D01*
X175877900Y-39939433D01*
X175877900Y-40077799D01*
X175913712Y-40211452D01*
X175982895Y-40331281D01*
X176080735Y-40429121D01*
X176200564Y-40498304D01*
X176334217Y-40534116D01*
X176334219Y-40534116D01*
X176472581Y-40534116D01*
X176472583Y-40534116D01*
X176606236Y-40498304D01*
X176651002Y-40472458D01*
X176710847Y-40459737D01*
X176766743Y-40484623D01*
X176797336Y-40537611D01*
X176798585Y-40549497D01*
X176799024Y-40549454D01*
X176799501Y-40554300D01*
X176814033Y-40627352D01*
X176814035Y-40627358D01*
X176869397Y-40710215D01*
X176869400Y-40710218D01*
X176887478Y-40722297D01*
X176952260Y-40765582D01*
X177007808Y-40776631D01*
X177025315Y-40780114D01*
X177025320Y-40780114D01*
X177025326Y-40780116D01*
X177025327Y-40780116D01*
X178074673Y-40780116D01*
X178074674Y-40780116D01*
X178147740Y-40765582D01*
X178147746Y-40765577D01*
X178156752Y-40761849D01*
X178157586Y-40763864D01*
X178203880Y-40750805D01*
X178242610Y-40763389D01*
X178243248Y-40761849D01*
X178252255Y-40765578D01*
X178252260Y-40765582D01*
X178307808Y-40776631D01*
X178325315Y-40780114D01*
X178325320Y-40780114D01*
X178325326Y-40780116D01*
X178325327Y-40780116D01*
X179349165Y-40780116D01*
X179407356Y-40799023D01*
X179419169Y-40809112D01*
X180115904Y-41505847D01*
X180143681Y-41560364D01*
X180144900Y-41575851D01*
X180144900Y-41669199D01*
X180180712Y-41802852D01*
X180249895Y-41922681D01*
X180347735Y-42020521D01*
X180467564Y-42089704D01*
X180601217Y-42125516D01*
X180601219Y-42125516D01*
X180739581Y-42125516D01*
X180739583Y-42125516D01*
X180873236Y-42089704D01*
X180993065Y-42020521D01*
X181090905Y-41922681D01*
X181160088Y-41802852D01*
X181195900Y-41669199D01*
X181195900Y-41530833D01*
X181160088Y-41397180D01*
X181090905Y-41277351D01*
X180993065Y-41179511D01*
X180873236Y-41110328D01*
X180739583Y-41074516D01*
X180739581Y-41074516D01*
X180646235Y-41074516D01*
X180588044Y-41055609D01*
X180576231Y-41045520D01*
X179908196Y-40377485D01*
X179880419Y-40322968D01*
X179879200Y-40307481D01*
X179879200Y-39826756D01*
X179879201Y-39826743D01*
X179879201Y-39733062D01*
X179879200Y-39733060D01*
X179857018Y-39650278D01*
X179857017Y-39650276D01*
X179841606Y-39623584D01*
X179841606Y-39623583D01*
X179821126Y-39588111D01*
X179814165Y-39576054D01*
X179797748Y-39559637D01*
X179753562Y-39515450D01*
X179753562Y-39515451D01*
X179724462Y-39486351D01*
X179718859Y-39483116D01*
X179707050Y-39476298D01*
X179649999Y-39443359D01*
X179609059Y-39397889D01*
X179600500Y-39357623D01*
X179600500Y-39199256D01*
X179600501Y-39199243D01*
X179600501Y-39099502D01*
X179600500Y-39099484D01*
X179600500Y-39004943D01*
X179600498Y-39004931D01*
X179586285Y-38933481D01*
X179585966Y-38931876D01*
X179559650Y-38892491D01*
X179530602Y-38849016D01*
X179530599Y-38849013D01*
X179447742Y-38793651D01*
X179447740Y-38793650D01*
X179447737Y-38793649D01*
X179447736Y-38793649D01*
X179374684Y-38779117D01*
X179374674Y-38779116D01*
X179374673Y-38779116D01*
X179333634Y-38779116D01*
X179275443Y-38760209D01*
X179263630Y-38750120D01*
X176059696Y-35546185D01*
X176031919Y-35491668D01*
X176030700Y-35476181D01*
X176030700Y-34296751D01*
X176049607Y-34238560D01*
X176059696Y-34226747D01*
X176091331Y-34195112D01*
X176145848Y-34167335D01*
X176161335Y-34166116D01*
X176206365Y-34166116D01*
X176264556Y-34185023D01*
X176276369Y-34195112D01*
X176308104Y-34226847D01*
X176335881Y-34281364D01*
X176337100Y-34296851D01*
X176337100Y-34565763D01*
X176337100Y-34651469D01*
X176346265Y-34685673D01*
X176359283Y-34734259D01*
X176402131Y-34808473D01*
X176402133Y-34808475D01*
X176402135Y-34808478D01*
X181287638Y-39693981D01*
X181287640Y-39693982D01*
X181287642Y-39693984D01*
X181361857Y-39736832D01*
X181361855Y-39736832D01*
X181361859Y-39736833D01*
X181361861Y-39736834D01*
X181444647Y-39759016D01*
X181530353Y-39759016D01*
X181617422Y-39759016D01*
X181675613Y-39777923D01*
X181687425Y-39788012D01*
X181726157Y-39826743D01*
X181753435Y-39854021D01*
X181873264Y-39923204D01*
X182006917Y-39959016D01*
X182006919Y-39959016D01*
X182145281Y-39959016D01*
X182145283Y-39959016D01*
X182278936Y-39923204D01*
X182398765Y-39854021D01*
X182496605Y-39756181D01*
X182565788Y-39636352D01*
X182601600Y-39502699D01*
X182601600Y-39364333D01*
X182565788Y-39230680D01*
X182496605Y-39110851D01*
X182398765Y-39013011D01*
X182278936Y-38943828D01*
X182145283Y-38908016D01*
X182006917Y-38908016D01*
X181873264Y-38943828D01*
X181767410Y-39004943D01*
X181753432Y-39013013D01*
X181710380Y-39056064D01*
X181655863Y-39083840D01*
X181595431Y-39074268D01*
X181570374Y-39056063D01*
X177017096Y-34502785D01*
X176989319Y-34448268D01*
X176988100Y-34432781D01*
X176988100Y-34078164D01*
X176983076Y-34059413D01*
X176965918Y-33995378D01*
X176923065Y-33921154D01*
X176905251Y-33903340D01*
X176862463Y-33860551D01*
X176582062Y-33580151D01*
X176582057Y-33580147D01*
X176507842Y-33537299D01*
X176507844Y-33537299D01*
X176475721Y-33528692D01*
X176425053Y-33515116D01*
X176028353Y-33515116D01*
X175942647Y-33515116D01*
X175891978Y-33528692D01*
X175859856Y-33537299D01*
X175785642Y-33580147D01*
X175444731Y-33921058D01*
X175401883Y-33995272D01*
X175401882Y-33995277D01*
X175384697Y-34059413D01*
X175384697Y-34059414D01*
X175384696Y-34059413D01*
X175379700Y-34078059D01*
X174768446Y-34078059D01*
X174772507Y-34054654D01*
X174772507Y-34054651D01*
X174774494Y-34043201D01*
X174777015Y-34026208D01*
X174816068Y-33709572D01*
X174817752Y-33692476D01*
X174841222Y-33374304D01*
X174842065Y-33357146D01*
X174849894Y-33038206D01*
X174850000Y-33029616D01*
X174850000Y-28613679D01*
X174868907Y-28555488D01*
X174918407Y-28519524D01*
X174979593Y-28519524D01*
X174989114Y-28523170D01*
G37*
%TD.AperFunction*%
%TA.AperFunction,Conductor*%
G36*
X161124680Y-28547556D02*
G01*
X161149474Y-28603492D01*
X161150000Y-28613679D01*
X161150000Y-33029653D01*
X161150105Y-33038182D01*
X161157934Y-33357130D01*
X161157935Y-33357146D01*
X161158778Y-33374304D01*
X161182248Y-33692476D01*
X161183932Y-33709572D01*
X161200865Y-33846859D01*
X161222986Y-34026221D01*
X161225509Y-34043223D01*
X161280045Y-34357524D01*
X161283402Y-34374403D01*
X161345621Y-34651469D01*
X161353302Y-34685673D01*
X161357476Y-34702337D01*
X161357480Y-34702352D01*
X161442560Y-35009794D01*
X161442567Y-35009816D01*
X161447553Y-35026256D01*
X161447561Y-35026281D01*
X161447564Y-35026290D01*
X161547616Y-35329152D01*
X161553430Y-35345401D01*
X161668227Y-35643000D01*
X161668234Y-35643018D01*
X161668236Y-35643022D01*
X161674810Y-35658893D01*
X161729207Y-35781611D01*
X161804106Y-35950581D01*
X161811434Y-35966075D01*
X161954884Y-36251059D01*
X161962975Y-36266198D01*
X162120241Y-36543812D01*
X162129053Y-36558513D01*
X162129066Y-36558534D01*
X162299749Y-36828072D01*
X162299762Y-36828092D01*
X162299763Y-36828093D01*
X162309288Y-36842349D01*
X162431941Y-37016503D01*
X162450000Y-37073508D01*
X162450000Y-44779653D01*
X162450105Y-44788181D01*
X162451710Y-44853533D01*
X162456370Y-45043357D01*
X162457212Y-45060515D01*
X162475988Y-45315052D01*
X162475990Y-45315072D01*
X162477672Y-45332155D01*
X162508913Y-45585452D01*
X162511434Y-45602454D01*
X162555068Y-45853912D01*
X162558423Y-45870785D01*
X162614334Y-46119763D01*
X162614342Y-46119798D01*
X162618506Y-46136424D01*
X162618517Y-46136466D01*
X162686587Y-46382440D01*
X162686589Y-46382445D01*
X162691576Y-46398884D01*
X162691582Y-46398902D01*
X162691585Y-46398912D01*
X162771623Y-46641194D01*
X162777437Y-46657443D01*
X162869275Y-46895524D01*
X162875845Y-46911385D01*
X162979292Y-47144758D01*
X162986620Y-47160252D01*
X163101381Y-47388242D01*
X163109472Y-47403381D01*
X163235288Y-47625477D01*
X163242341Y-47637243D01*
X163244100Y-47640178D01*
X163244112Y-47640197D01*
X163315006Y-47752152D01*
X163330163Y-47811430D01*
X163307584Y-47868296D01*
X163255891Y-47901030D01*
X163231365Y-47904116D01*
X163230817Y-47904116D01*
X163097164Y-47939928D01*
X162977335Y-48009111D01*
X162879495Y-48106951D01*
X162810312Y-48226780D01*
X162774500Y-48360433D01*
X162774500Y-48498799D01*
X162810312Y-48632452D01*
X162879495Y-48752281D01*
X162977335Y-48850121D01*
X163097164Y-48919304D01*
X163230817Y-48955116D01*
X163324166Y-48955116D01*
X163382357Y-48974023D01*
X163394169Y-48984112D01*
X163510573Y-49100516D01*
X163570670Y-49160612D01*
X163598448Y-49215129D01*
X163588877Y-49275561D01*
X163545612Y-49318826D01*
X163500667Y-49329616D01*
X160200000Y-49329616D01*
X160200000Y-49329617D01*
X160200000Y-60501980D01*
X160181093Y-60560171D01*
X160131593Y-60596135D01*
X160070407Y-60596135D01*
X160056489Y-60590409D01*
X159658740Y-60390200D01*
X159654454Y-60387910D01*
X159654452Y-60387909D01*
X159329438Y-60203790D01*
X158902802Y-59962103D01*
X158898634Y-59959605D01*
X158168788Y-59497437D01*
X158164748Y-59494737D01*
X158142106Y-59478791D01*
X157458452Y-58997307D01*
X157454560Y-58994420D01*
X157398203Y-58950439D01*
X156773543Y-58462950D01*
X156769787Y-58459868D01*
X156395703Y-58137181D01*
X156115627Y-57895585D01*
X156112035Y-57892330D01*
X156084805Y-57866405D01*
X155955608Y-57743398D01*
X155886921Y-57678002D01*
X155857814Y-57624184D01*
X155865900Y-57563535D01*
X155908090Y-57519222D01*
X155929576Y-57510672D01*
X155929656Y-57510649D01*
X155929669Y-57510648D01*
X156460267Y-57290867D01*
X156915902Y-56941246D01*
X157265523Y-56485611D01*
X157485304Y-55955013D01*
X157560267Y-55385611D01*
X157485304Y-54816209D01*
X157265523Y-54285611D01*
X156915902Y-53829976D01*
X156915897Y-53829972D01*
X156915896Y-53829971D01*
X156722010Y-53681198D01*
X156460267Y-53480355D01*
X156351260Y-53435203D01*
X156194968Y-53370464D01*
X155929669Y-53260574D01*
X155929667Y-53260573D01*
X155929665Y-53260573D01*
X155360268Y-53185611D01*
X155360266Y-53185611D01*
X154790868Y-53260573D01*
X154790862Y-53260575D01*
X154260268Y-53480354D01*
X153804637Y-53829971D01*
X153804627Y-53829981D01*
X153455011Y-54285609D01*
X153455010Y-54285611D01*
X153378246Y-54470935D01*
X153338509Y-54517461D01*
X153279014Y-54531744D01*
X153222486Y-54508329D01*
X153203141Y-54486014D01*
X153200858Y-54482409D01*
X152820006Y-53880975D01*
X152817511Y-53876812D01*
X152570505Y-53440785D01*
X152391702Y-53125154D01*
X152389415Y-53120875D01*
X152366158Y-53074672D01*
X152144116Y-52633550D01*
X152001019Y-52349265D01*
X151998941Y-52344872D01*
X151763168Y-51812977D01*
X151648850Y-51555079D01*
X151646997Y-51550604D01*
X151636329Y-51522948D01*
X151336087Y-50744600D01*
X151334469Y-50740074D01*
X151111419Y-50064895D01*
X151063482Y-49919787D01*
X151062071Y-49915137D01*
X151060743Y-49910340D01*
X150831666Y-49082557D01*
X150830487Y-49077847D01*
X150808959Y-48981979D01*
X150641212Y-48234973D01*
X150640266Y-48230215D01*
X150634795Y-48198684D01*
X150492570Y-47379030D01*
X150491866Y-47374284D01*
X150386116Y-46516879D01*
X150385640Y-46512052D01*
X150385335Y-46507923D01*
X150322087Y-45650494D01*
X150321850Y-45645647D01*
X150320790Y-45602451D01*
X150300649Y-44782019D01*
X150300649Y-44777212D01*
X150321850Y-43913575D01*
X150322088Y-43908730D01*
X150326989Y-43842294D01*
X150361479Y-43374712D01*
X150384616Y-43318072D01*
X150434586Y-43286371D01*
X150507890Y-43266730D01*
X150588110Y-43220414D01*
X150622013Y-43200841D01*
X150622013Y-43200840D01*
X150622018Y-43200838D01*
X150715204Y-43107652D01*
X150781096Y-42993524D01*
X150815204Y-42866230D01*
X150815204Y-42734446D01*
X150781096Y-42607152D01*
X150765462Y-42580074D01*
X150724146Y-42508512D01*
X150711425Y-42448664D01*
X150736312Y-42392768D01*
X150739861Y-42389027D01*
X150822498Y-42306391D01*
X150838670Y-42278381D01*
X150838672Y-42278378D01*
X153256476Y-42278378D01*
X153256476Y-42455667D01*
X153291062Y-42629542D01*
X153291062Y-42629544D01*
X153312428Y-42681127D01*
X153312429Y-42681128D01*
X153735238Y-42437018D01*
X153760439Y-42531067D01*
X153816392Y-42627979D01*
X153885239Y-42696826D01*
X153459364Y-42942705D01*
X153582757Y-43066097D01*
X153730167Y-43164593D01*
X153893955Y-43232436D01*
X154067831Y-43267022D01*
X154067835Y-43267023D01*
X154245117Y-43267023D01*
X154245120Y-43267022D01*
X154418993Y-43232437D01*
X154419004Y-43232434D01*
X154470580Y-43211069D01*
X154226471Y-42788260D01*
X154320520Y-42763060D01*
X154417432Y-42707107D01*
X154486279Y-42638259D01*
X154732158Y-43064132D01*
X154855546Y-42940745D01*
X154855553Y-42940736D01*
X154954046Y-42793331D01*
X155021889Y-42629544D01*
X155021889Y-42629542D01*
X155056475Y-42455667D01*
X155056476Y-42455664D01*
X155056476Y-42278381D01*
X155056475Y-42278378D01*
X155021890Y-42104505D01*
X155021888Y-42104499D01*
X155000521Y-42052916D01*
X154577712Y-42297025D01*
X154552513Y-42202979D01*
X154496560Y-42106067D01*
X154427710Y-42037217D01*
X154853586Y-41791339D01*
X154730194Y-41667948D01*
X154582784Y-41569452D01*
X154418996Y-41501609D01*
X154245120Y-41467023D01*
X154067831Y-41467023D01*
X153893954Y-41501609D01*
X153893947Y-41501611D01*
X153842370Y-41522975D01*
X153842369Y-41522976D01*
X154086479Y-41945786D01*
X153992432Y-41970986D01*
X153895520Y-42026939D01*
X153826671Y-42095787D01*
X153580793Y-41669912D01*
X153457399Y-41793306D01*
X153358904Y-41940715D01*
X153291062Y-42104501D01*
X153291062Y-42104503D01*
X153256476Y-42278378D01*
X150838672Y-42278378D01*
X150870057Y-42224018D01*
X150888388Y-42192267D01*
X150888388Y-42192265D01*
X150888390Y-42192263D01*
X150922498Y-42064969D01*
X150922498Y-41933185D01*
X150888390Y-41805891D01*
X150888388Y-41805888D01*
X150888388Y-41805886D01*
X150846163Y-41732751D01*
X150833441Y-41672903D01*
X150858327Y-41617007D01*
X150871642Y-41604701D01*
X150872648Y-41603928D01*
X150872659Y-41603922D01*
X150965845Y-41510736D01*
X151031737Y-41396608D01*
X151065845Y-41269314D01*
X151065845Y-41137530D01*
X151031737Y-41010236D01*
X151001915Y-40958584D01*
X150989194Y-40898736D01*
X151014080Y-40842841D01*
X151038152Y-40823348D01*
X151051775Y-40815483D01*
X151144961Y-40722297D01*
X151151935Y-40710218D01*
X151210851Y-40608173D01*
X151210851Y-40608171D01*
X151210853Y-40608169D01*
X151244961Y-40480875D01*
X151244961Y-40445162D01*
X153754216Y-40445162D01*
X153754217Y-40445167D01*
X153786249Y-40539533D01*
X153846443Y-40608169D01*
X153851958Y-40614457D01*
X153918772Y-40647407D01*
X155222142Y-40996644D01*
X155259311Y-40999080D01*
X155296477Y-41001516D01*
X155296477Y-41001515D01*
X155296481Y-41001516D01*
X155390848Y-40969483D01*
X155465772Y-40903775D01*
X155498722Y-40836961D01*
X155847959Y-39533591D01*
X155852831Y-39459252D01*
X155820798Y-39364885D01*
X155820798Y-39364884D01*
X155755092Y-39289963D01*
X155755091Y-39289962D01*
X155755090Y-39289961D01*
X155688276Y-39257011D01*
X155688273Y-39257010D01*
X155211206Y-39129180D01*
X154384906Y-38907774D01*
X154384904Y-38907773D01*
X154384901Y-38907773D01*
X154310570Y-38902901D01*
X154310565Y-38902902D01*
X154216199Y-38934934D01*
X154141278Y-39000640D01*
X154141277Y-39000641D01*
X154108325Y-39067459D01*
X153873722Y-39943010D01*
X153765075Y-40348489D01*
X153759088Y-40370831D01*
X153754216Y-40445162D01*
X151244961Y-40445162D01*
X151244961Y-40349091D01*
X151210853Y-40221797D01*
X151194129Y-40192830D01*
X151181408Y-40132986D01*
X151206293Y-40077090D01*
X151230364Y-40057596D01*
X151267432Y-40036196D01*
X151360618Y-39943010D01*
X151426510Y-39828882D01*
X151460618Y-39701588D01*
X151460618Y-39569804D01*
X151426510Y-39442510D01*
X151423842Y-39437889D01*
X151411119Y-39378044D01*
X151436002Y-39322147D01*
X151460073Y-39302653D01*
X151519941Y-39268089D01*
X151613127Y-39174903D01*
X151650108Y-39110851D01*
X151679017Y-39060779D01*
X151679017Y-39060777D01*
X151679019Y-39060775D01*
X151713127Y-38933481D01*
X151713127Y-38801697D01*
X151679019Y-38674403D01*
X151679017Y-38674400D01*
X151679017Y-38674398D01*
X151613130Y-38560279D01*
X151613128Y-38560277D01*
X151613127Y-38560275D01*
X151529549Y-38476697D01*
X151501774Y-38422183D01*
X151507189Y-38371067D01*
X151646997Y-38008627D01*
X151648844Y-38004165D01*
X151998945Y-37214348D01*
X152001019Y-37209965D01*
X152111148Y-36991177D01*
X152389426Y-36438332D01*
X152391692Y-36434092D01*
X152817524Y-35682395D01*
X152819995Y-35678272D01*
X153282196Y-34948374D01*
X153284857Y-34944392D01*
X153782329Y-34238038D01*
X153785179Y-34234195D01*
X154316698Y-33553117D01*
X154319745Y-33549403D01*
X154884039Y-32895230D01*
X154887245Y-32891693D01*
X155482978Y-32265975D01*
X155486360Y-32262593D01*
X156112067Y-31666870D01*
X156115604Y-31663664D01*
X156221935Y-31571942D01*
X156278344Y-31548253D01*
X156337908Y-31562244D01*
X156377873Y-31608574D01*
X156384749Y-31633985D01*
X156410951Y-31833007D01*
X156410951Y-31833009D01*
X156410952Y-31833010D01*
X156425299Y-31867646D01*
X156590299Y-32265993D01*
X156630733Y-32363608D01*
X156980354Y-32819243D01*
X157435989Y-33168864D01*
X157966587Y-33388645D01*
X158393638Y-33444867D01*
X158535988Y-33463608D01*
X158535989Y-33463608D01*
X158535990Y-33463608D01*
X158649869Y-33448615D01*
X159105391Y-33388645D01*
X159635989Y-33168864D01*
X160091624Y-32819243D01*
X160441245Y-32363608D01*
X160661026Y-31833010D01*
X160735989Y-31263608D01*
X160661026Y-30694206D01*
X160441245Y-30163608D01*
X160091624Y-29707973D01*
X160091619Y-29707969D01*
X160091618Y-29707968D01*
X159635987Y-29358350D01*
X159631530Y-29355777D01*
X159590592Y-29310305D01*
X159584201Y-29249454D01*
X159614797Y-29196468D01*
X159632233Y-29183908D01*
X159654468Y-29171312D01*
X159658708Y-29169046D01*
X160430392Y-28780613D01*
X160434699Y-28778576D01*
X161010881Y-28523171D01*
X161071742Y-28516876D01*
X161124680Y-28547556D01*
G37*
%TD.AperFunction*%
%TA.AperFunction,Conductor*%
G36*
X164794504Y-54404446D02*
G01*
X167477962Y-57087904D01*
X167505739Y-57142421D01*
X167505056Y-57177222D01*
X167479500Y-57305695D01*
X167479500Y-57453534D01*
X167508342Y-57598530D01*
X167564915Y-57735110D01*
X167574940Y-57750113D01*
X167591550Y-57809001D01*
X167570374Y-57866405D01*
X167519500Y-57900399D01*
X167492626Y-57904116D01*
X164724500Y-57904116D01*
X164666309Y-57885209D01*
X164630345Y-57835709D01*
X164625500Y-57805116D01*
X164625500Y-54474450D01*
X164644407Y-54416259D01*
X164693907Y-54380295D01*
X164755093Y-54380295D01*
X164794504Y-54404446D01*
G37*
%TD.AperFunction*%
%TD*%
%TA.AperFunction,Conductor*%
%TO.N,Board_2-GND*%
G36*
X136943509Y-67968820D02*
G01*
X137169700Y-68082675D01*
X137341259Y-68169031D01*
X137345538Y-68171318D01*
X138077469Y-68585952D01*
X138097196Y-68597127D01*
X138101359Y-68599622D01*
X138831221Y-69061800D01*
X138835240Y-69064486D01*
X139541557Y-69561931D01*
X139545439Y-69564810D01*
X140157607Y-70042551D01*
X140226476Y-70096297D01*
X140230231Y-70099378D01*
X140884362Y-70663636D01*
X140887941Y-70666880D01*
X140947435Y-70723523D01*
X141113078Y-70881229D01*
X141142185Y-70935047D01*
X141134099Y-70995696D01*
X141091909Y-71040009D01*
X141070441Y-71048554D01*
X141070335Y-71048582D01*
X140539734Y-71268364D01*
X140084103Y-71617981D01*
X140084093Y-71617991D01*
X139734476Y-72073622D01*
X139514697Y-72604216D01*
X139514695Y-72604222D01*
X139439733Y-73173620D01*
X139439733Y-73173621D01*
X139514330Y-73740249D01*
X139514696Y-73743023D01*
X139555810Y-73842281D01*
X139719979Y-74238621D01*
X139734477Y-74273621D01*
X139935320Y-74535364D01*
X140046533Y-74680301D01*
X140084098Y-74729256D01*
X140539733Y-75078877D01*
X141070331Y-75298658D01*
X141497382Y-75354880D01*
X141639732Y-75373621D01*
X141639733Y-75373621D01*
X141639734Y-75373621D01*
X141753613Y-75358628D01*
X142209135Y-75298658D01*
X142739733Y-75078877D01*
X143195368Y-74729256D01*
X143544989Y-74273621D01*
X143621753Y-74088295D01*
X143661488Y-74041771D01*
X143720983Y-74027487D01*
X143777511Y-74050901D01*
X143796857Y-74073217D01*
X144179989Y-74678250D01*
X144182487Y-74682418D01*
X144608289Y-75434062D01*
X144610579Y-75438347D01*
X144998979Y-76209965D01*
X145001057Y-76214358D01*
X145351142Y-77004137D01*
X145353001Y-77008626D01*
X145417072Y-77174724D01*
X145561343Y-77548734D01*
X145663899Y-77814599D01*
X145665536Y-77819175D01*
X145936516Y-78639443D01*
X145937927Y-78644093D01*
X146168331Y-79476670D01*
X146169511Y-79481383D01*
X146358784Y-80324249D01*
X146359732Y-80329015D01*
X146507423Y-81180170D01*
X146508136Y-81184976D01*
X146613881Y-82042342D01*
X146614358Y-82047178D01*
X146677910Y-82908730D01*
X146678148Y-82913583D01*
X146699349Y-83777185D01*
X146699349Y-83782045D01*
X146678148Y-84645647D01*
X146677910Y-84650500D01*
X146638520Y-85184517D01*
X146615383Y-85241159D01*
X146565411Y-85272861D01*
X146492104Y-85292503D01*
X146377985Y-85358390D01*
X146284791Y-85451584D01*
X146218904Y-85565703D01*
X146212937Y-85587972D01*
X146184795Y-85693002D01*
X146184795Y-85824786D01*
X146199081Y-85878102D01*
X146218903Y-85952081D01*
X146275852Y-86050719D01*
X146288573Y-86110568D01*
X146263686Y-86166463D01*
X146260119Y-86170222D01*
X146177501Y-86252840D01*
X146177497Y-86252845D01*
X146111610Y-86366964D01*
X146111609Y-86366969D01*
X146077501Y-86494263D01*
X146077501Y-86626047D01*
X146080316Y-86636551D01*
X146111610Y-86753345D01*
X146153835Y-86826480D01*
X146166557Y-86886328D01*
X146141670Y-86942224D01*
X146128371Y-86954519D01*
X146127343Y-86955307D01*
X146034150Y-87048500D01*
X145968263Y-87162619D01*
X145968262Y-87162624D01*
X145934154Y-87289918D01*
X145934154Y-87421702D01*
X145958808Y-87513712D01*
X145968263Y-87549000D01*
X145998082Y-87600647D01*
X146010804Y-87660495D01*
X145985917Y-87716391D01*
X145961848Y-87735882D01*
X145948228Y-87743745D01*
X145855034Y-87836939D01*
X145789147Y-87951058D01*
X145770755Y-88019698D01*
X145755038Y-88078357D01*
X145755038Y-88210141D01*
X145789146Y-88337435D01*
X145789147Y-88337437D01*
X145805868Y-88366398D01*
X145818590Y-88426246D01*
X145793704Y-88482142D01*
X145769633Y-88501635D01*
X145732569Y-88523034D01*
X145639377Y-88616226D01*
X145573490Y-88730345D01*
X145570779Y-88740463D01*
X145539381Y-88857644D01*
X145539381Y-88989428D01*
X145552988Y-89040209D01*
X145573489Y-89116723D01*
X145576158Y-89121345D01*
X145588878Y-89181194D01*
X145563991Y-89237089D01*
X145539921Y-89256580D01*
X145480062Y-89291139D01*
X145386868Y-89384333D01*
X145320981Y-89498452D01*
X145315187Y-89520076D01*
X145286872Y-89625751D01*
X145286872Y-89757535D01*
X145292923Y-89780116D01*
X145320981Y-89884833D01*
X145386868Y-89998952D01*
X145386870Y-89998954D01*
X145386872Y-89998957D01*
X145470448Y-90082533D01*
X145498224Y-90137048D01*
X145492809Y-90188165D01*
X145353001Y-90550604D01*
X145351142Y-90555093D01*
X145001057Y-91344872D01*
X144998979Y-91349265D01*
X144610579Y-92120883D01*
X144608289Y-92125168D01*
X144182487Y-92876812D01*
X144179989Y-92880980D01*
X143717821Y-93610826D01*
X143715121Y-93614866D01*
X143217699Y-94321151D01*
X143214804Y-94325054D01*
X142683334Y-95006071D01*
X142680252Y-95009827D01*
X142115978Y-95663978D01*
X142112714Y-95667579D01*
X141517047Y-96293227D01*
X141513612Y-96296662D01*
X140887953Y-96892339D01*
X140884352Y-96895603D01*
X140778066Y-96987285D01*
X140721653Y-97010977D01*
X140662089Y-96996985D01*
X140622125Y-96950655D01*
X140615250Y-96925246D01*
X140589048Y-96726222D01*
X140369267Y-96195624D01*
X140019646Y-95739989D01*
X140019641Y-95739985D01*
X140019640Y-95739984D01*
X139750308Y-95533319D01*
X139564011Y-95390368D01*
X139561647Y-95389389D01*
X139298712Y-95280477D01*
X139033413Y-95170587D01*
X139033411Y-95170586D01*
X139033409Y-95170586D01*
X138464012Y-95095624D01*
X138464010Y-95095624D01*
X137894612Y-95170586D01*
X137894606Y-95170588D01*
X137364012Y-95390367D01*
X136908381Y-95739984D01*
X136908371Y-95739994D01*
X136558754Y-96195625D01*
X136338975Y-96726219D01*
X136338973Y-96726225D01*
X136264011Y-97295623D01*
X136264011Y-97295624D01*
X136338512Y-97861521D01*
X136338974Y-97865026D01*
X136432037Y-98089700D01*
X136558066Y-98393962D01*
X136558755Y-98395624D01*
X136640002Y-98501507D01*
X136763264Y-98662146D01*
X136908376Y-98851259D01*
X136908380Y-98851262D01*
X136908381Y-98851263D01*
X137026772Y-98942107D01*
X137364011Y-99200880D01*
X137364016Y-99200882D01*
X137368463Y-99203450D01*
X137409403Y-99248920D01*
X137415798Y-99309770D01*
X137385205Y-99362758D01*
X137367758Y-99375325D01*
X137345558Y-99387901D01*
X137341274Y-99390191D01*
X136569649Y-99778595D01*
X136565256Y-99780673D01*
X135989119Y-100036057D01*
X135928258Y-100042353D01*
X135875320Y-100011673D01*
X135850526Y-99955737D01*
X135850000Y-99945550D01*
X135850000Y-95529578D01*
X135849894Y-95521049D01*
X135849894Y-95521026D01*
X135842065Y-95202086D01*
X135841222Y-95184928D01*
X135817752Y-94866756D01*
X135816068Y-94849660D01*
X135777015Y-94533024D01*
X135774494Y-94516031D01*
X135768427Y-94481067D01*
X135719954Y-94201707D01*
X135716597Y-94184828D01*
X135680318Y-94023273D01*
X135646698Y-93873559D01*
X135642524Y-93856895D01*
X135578522Y-93625623D01*
X135557439Y-93549437D01*
X135557433Y-93549416D01*
X135552447Y-93532976D01*
X135452371Y-93230043D01*
X135446583Y-93213868D01*
X135446577Y-93213853D01*
X135446569Y-93213830D01*
X135331772Y-92916231D01*
X135331764Y-92916210D01*
X135325190Y-92900339D01*
X135212781Y-92646749D01*
X135195893Y-92608650D01*
X135188565Y-92593156D01*
X135094590Y-92406461D01*
X135045116Y-92308173D01*
X135037018Y-92293022D01*
X134879766Y-92015433D01*
X134870934Y-92000698D01*
X134700251Y-91731160D01*
X134690707Y-91716876D01*
X134636123Y-91639372D01*
X134568059Y-91542728D01*
X134550000Y-91485723D01*
X134550000Y-89099976D01*
X141147168Y-89099976D01*
X141147169Y-89099981D01*
X141179201Y-89194347D01*
X141233780Y-89256580D01*
X141244910Y-89269271D01*
X141311724Y-89302221D01*
X142615094Y-89651458D01*
X142652263Y-89653894D01*
X142689429Y-89656330D01*
X142689429Y-89656329D01*
X142689433Y-89656330D01*
X142783800Y-89624297D01*
X142858724Y-89558589D01*
X142891674Y-89491775D01*
X143240911Y-88188405D01*
X143243956Y-88141943D01*
X143245783Y-88114069D01*
X143245782Y-88114068D01*
X143245783Y-88114066D01*
X143213750Y-88019699D01*
X143213750Y-88019698D01*
X143148044Y-87944777D01*
X143148043Y-87944776D01*
X143148042Y-87944775D01*
X143081228Y-87911825D01*
X143081225Y-87911824D01*
X142453945Y-87743745D01*
X141777858Y-87562588D01*
X141777856Y-87562587D01*
X141777853Y-87562587D01*
X141703522Y-87557715D01*
X141703517Y-87557716D01*
X141609151Y-87589748D01*
X141534230Y-87655454D01*
X141534229Y-87655455D01*
X141501277Y-87722273D01*
X141152040Y-89025645D01*
X141147168Y-89099976D01*
X134550000Y-89099976D01*
X134550000Y-86103564D01*
X141943524Y-86103564D01*
X141943524Y-86280853D01*
X141978110Y-86454728D01*
X141978110Y-86454730D01*
X141999476Y-86506313D01*
X141999477Y-86506314D01*
X142422286Y-86262204D01*
X142447487Y-86356253D01*
X142503440Y-86453165D01*
X142572287Y-86522012D01*
X142146412Y-86767891D01*
X142269805Y-86891283D01*
X142417215Y-86989779D01*
X142581003Y-87057622D01*
X142754879Y-87092208D01*
X142754883Y-87092209D01*
X142932165Y-87092209D01*
X142932168Y-87092208D01*
X143106041Y-87057623D01*
X143106052Y-87057620D01*
X143157628Y-87036255D01*
X142913519Y-86613446D01*
X143007568Y-86588246D01*
X143104480Y-86532293D01*
X143173327Y-86463445D01*
X143419206Y-86889318D01*
X143542594Y-86765931D01*
X143542601Y-86765922D01*
X143641094Y-86618517D01*
X143708937Y-86454730D01*
X143708937Y-86454728D01*
X143743523Y-86280853D01*
X143743524Y-86280850D01*
X143743524Y-86103567D01*
X143743523Y-86103564D01*
X143708938Y-85929691D01*
X143708936Y-85929685D01*
X143687569Y-85878102D01*
X143264760Y-86122211D01*
X143239561Y-86028165D01*
X143183608Y-85931253D01*
X143114758Y-85862403D01*
X143540634Y-85616525D01*
X143417242Y-85493134D01*
X143269832Y-85394638D01*
X143106044Y-85326795D01*
X142932168Y-85292209D01*
X142754879Y-85292209D01*
X142581002Y-85326795D01*
X142580995Y-85326797D01*
X142529418Y-85348161D01*
X142529417Y-85348162D01*
X142773527Y-85770972D01*
X142679480Y-85796172D01*
X142582568Y-85852125D01*
X142513719Y-85920973D01*
X142267841Y-85495098D01*
X142144447Y-85618492D01*
X142045952Y-85765901D01*
X141978110Y-85929687D01*
X141978110Y-85929689D01*
X141943524Y-86103564D01*
X134550000Y-86103564D01*
X134550000Y-83779578D01*
X134549894Y-83771050D01*
X134549894Y-83771027D01*
X134543630Y-83515875D01*
X134542788Y-83498717D01*
X134524012Y-83244180D01*
X134522328Y-83227084D01*
X134508006Y-83110963D01*
X134491086Y-82973779D01*
X134488565Y-82956777D01*
X134452721Y-82750212D01*
X134444930Y-82705310D01*
X134441579Y-82688461D01*
X134434330Y-82656181D01*
X134419278Y-82589150D01*
X134385658Y-82439434D01*
X134381484Y-82422770D01*
X134313411Y-82176787D01*
X134308424Y-82160348D01*
X134228364Y-81918001D01*
X134222576Y-81901826D01*
X134222570Y-81901811D01*
X134222562Y-81901788D01*
X134130724Y-81663707D01*
X134124154Y-81647846D01*
X134020707Y-81414473D01*
X134013379Y-81398979D01*
X133952155Y-81277348D01*
X133898619Y-81170990D01*
X133890521Y-81155839D01*
X133764719Y-80933768D01*
X133755887Y-80919033D01*
X133715412Y-80855116D01*
X133684994Y-80807080D01*
X133669837Y-80747802D01*
X133692416Y-80690936D01*
X133744109Y-80658202D01*
X133768635Y-80655116D01*
X133769181Y-80655116D01*
X133769183Y-80655116D01*
X133902836Y-80619304D01*
X134022665Y-80550121D01*
X134120505Y-80452281D01*
X134189688Y-80332452D01*
X134225500Y-80198799D01*
X134225500Y-80060433D01*
X134189688Y-79926780D01*
X134120505Y-79806951D01*
X134022665Y-79709111D01*
X133902836Y-79639928D01*
X133769183Y-79604116D01*
X133769181Y-79604116D01*
X133675833Y-79604116D01*
X133617642Y-79585209D01*
X133605829Y-79575119D01*
X133429330Y-79398619D01*
X133401553Y-79344103D01*
X133411124Y-79283671D01*
X133454389Y-79240406D01*
X133499334Y-79229616D01*
X136799999Y-79229616D01*
X136800000Y-79229616D01*
X136800000Y-68057250D01*
X136818907Y-67999059D01*
X136868407Y-67963095D01*
X136929593Y-67963095D01*
X136943509Y-67968820D01*
G37*
%TD.AperFunction*%
%TA.AperFunction,Conductor*%
G36*
X129561337Y-66267578D02*
G01*
X129573508Y-66284329D01*
X129592514Y-66317249D01*
X129592516Y-66317251D01*
X129592518Y-66317254D01*
X129685704Y-66410440D01*
X129685706Y-66410441D01*
X129685708Y-66410443D01*
X129799828Y-66476330D01*
X129799826Y-66476330D01*
X129799830Y-66476331D01*
X129799832Y-66476332D01*
X129927126Y-66510440D01*
X129927128Y-66510440D01*
X130058908Y-66510440D01*
X130058910Y-66510440D01*
X130186204Y-66476332D01*
X130186206Y-66476330D01*
X130186208Y-66476330D01*
X130300327Y-66410443D01*
X130300327Y-66410442D01*
X130300332Y-66410440D01*
X130393518Y-66317254D01*
X130393519Y-66317251D01*
X130395933Y-66314838D01*
X130450449Y-66287060D01*
X130510882Y-66296631D01*
X130551673Y-66335340D01*
X130583432Y-66390348D01*
X130676618Y-66483534D01*
X130676620Y-66483535D01*
X130676622Y-66483537D01*
X130790742Y-66549424D01*
X130790740Y-66549424D01*
X130790744Y-66549425D01*
X130790746Y-66549426D01*
X130918040Y-66583534D01*
X130918042Y-66583534D01*
X131049822Y-66583534D01*
X131049824Y-66583534D01*
X131177118Y-66549426D01*
X131177120Y-66549424D01*
X131177122Y-66549424D01*
X131291241Y-66483537D01*
X131291241Y-66483536D01*
X131291246Y-66483534D01*
X131384432Y-66390348D01*
X131429691Y-66311957D01*
X131475157Y-66271019D01*
X131527540Y-66263203D01*
X131594683Y-66271484D01*
X131599433Y-66272189D01*
X132450608Y-66419883D01*
X132455357Y-66420828D01*
X133298231Y-66610103D01*
X133302931Y-66611279D01*
X133389377Y-66635202D01*
X133440417Y-66668945D01*
X133461875Y-66726244D01*
X133445556Y-66785213D01*
X133397693Y-66823328D01*
X133362972Y-66829616D01*
X133050000Y-66829616D01*
X133050000Y-66829617D01*
X133050000Y-69984360D01*
X133031093Y-70042551D01*
X132981593Y-70078515D01*
X132920407Y-70078515D01*
X132901501Y-70070097D01*
X132825639Y-70026298D01*
X132798043Y-70018904D01*
X132742853Y-70004116D01*
X125109677Y-70004116D01*
X125051486Y-69985209D01*
X125015522Y-69935709D01*
X125015522Y-69874523D01*
X125039671Y-69835114D01*
X125085005Y-69789781D01*
X125154188Y-69669952D01*
X125190000Y-69536299D01*
X125190000Y-69397933D01*
X125154188Y-69264280D01*
X125085005Y-69144451D01*
X124987165Y-69046611D01*
X124867336Y-68977428D01*
X124733683Y-68941616D01*
X124595317Y-68941616D01*
X124461664Y-68977428D01*
X124341832Y-69046613D01*
X124275825Y-69112620D01*
X124221308Y-69140397D01*
X124205822Y-69141616D01*
X122179032Y-69141616D01*
X122179016Y-69141615D01*
X122172953Y-69141615D01*
X122087248Y-69141615D01*
X122087245Y-69141615D01*
X122004465Y-69163796D01*
X121930235Y-69206653D01*
X121869634Y-69267253D01*
X121869635Y-69267254D01*
X118990769Y-72146120D01*
X118936252Y-72173897D01*
X118920765Y-72175116D01*
X118827417Y-72175116D01*
X118693764Y-72210928D01*
X118573935Y-72280111D01*
X118476095Y-72377951D01*
X118406912Y-72497780D01*
X118371100Y-72631433D01*
X118371100Y-72769799D01*
X118406912Y-72903452D01*
X118476095Y-73023281D01*
X118573935Y-73121121D01*
X118693764Y-73190304D01*
X118827417Y-73226116D01*
X118827419Y-73226116D01*
X118965781Y-73226116D01*
X118965783Y-73226116D01*
X119099436Y-73190304D01*
X119219265Y-73121121D01*
X119317105Y-73023281D01*
X119386288Y-72903452D01*
X119422100Y-72769799D01*
X119422100Y-72676450D01*
X119441007Y-72618259D01*
X119451096Y-72606446D01*
X121705496Y-70352046D01*
X121760013Y-70324269D01*
X121820445Y-70333840D01*
X121863710Y-70377105D01*
X121874500Y-70422050D01*
X121874500Y-73281273D01*
X121855593Y-73339464D01*
X121806093Y-73375428D01*
X121744907Y-73375428D01*
X121695407Y-73339464D01*
X121679874Y-73306899D01*
X121672688Y-73280080D01*
X121603505Y-73160251D01*
X121505665Y-73062411D01*
X121385836Y-72993228D01*
X121252183Y-72957416D01*
X121113817Y-72957416D01*
X120980164Y-72993228D01*
X120860335Y-73062411D01*
X120762494Y-73160252D01*
X120712816Y-73246296D01*
X120667346Y-73287236D01*
X120608622Y-73293407D01*
X120608615Y-73293463D01*
X120608383Y-73293432D01*
X120606496Y-73293631D01*
X120602367Y-73292640D01*
X120602183Y-73292616D01*
X120463817Y-73292616D01*
X120330164Y-73328428D01*
X120210335Y-73397611D01*
X120112495Y-73495451D01*
X120043312Y-73615280D01*
X120026412Y-73678354D01*
X120007500Y-73748934D01*
X120007500Y-73842281D01*
X119988593Y-73900472D01*
X119978504Y-73912285D01*
X118723731Y-75167058D01*
X118680882Y-75241276D01*
X118680881Y-75241276D01*
X118680882Y-75241277D01*
X118658700Y-75324063D01*
X118658700Y-77159238D01*
X118639793Y-77217429D01*
X118629704Y-77229241D01*
X118563697Y-77295248D01*
X118563695Y-77295250D01*
X118563695Y-77295251D01*
X118494512Y-77415080D01*
X118458700Y-77548733D01*
X118458700Y-77687099D01*
X118494512Y-77820752D01*
X118563695Y-77940581D01*
X118661535Y-78038421D01*
X118781364Y-78107604D01*
X118915017Y-78143416D01*
X118915019Y-78143416D01*
X119053381Y-78143416D01*
X119053383Y-78143416D01*
X119187036Y-78107604D01*
X119306865Y-78038421D01*
X119404705Y-77940581D01*
X119473888Y-77820752D01*
X119509700Y-77687099D01*
X119509700Y-77548733D01*
X119473888Y-77415080D01*
X119404705Y-77295251D01*
X119404702Y-77295248D01*
X119338696Y-77229241D01*
X119310919Y-77174724D01*
X119309700Y-77159238D01*
X119309700Y-75542751D01*
X119328607Y-75484560D01*
X119338696Y-75472747D01*
X120438831Y-74372612D01*
X120493348Y-74344835D01*
X120508835Y-74343616D01*
X120602181Y-74343616D01*
X120602183Y-74343616D01*
X120735836Y-74307804D01*
X120855665Y-74238621D01*
X120953505Y-74140781D01*
X121003183Y-74054734D01*
X121048650Y-74013795D01*
X121107375Y-74007622D01*
X121107383Y-74007569D01*
X121107604Y-74007598D01*
X121109500Y-74007399D01*
X121113631Y-74008391D01*
X121113816Y-74008416D01*
X121113817Y-74008416D01*
X121153800Y-74008416D01*
X121211991Y-74027323D01*
X121247955Y-74076823D01*
X121252800Y-74107416D01*
X121252800Y-79279081D01*
X121233893Y-79337272D01*
X121223804Y-79349085D01*
X119188269Y-81384620D01*
X119133752Y-81412397D01*
X119118265Y-81413616D01*
X118113278Y-81413616D01*
X118055087Y-81394709D01*
X118043275Y-81384620D01*
X117977267Y-81318613D01*
X117977265Y-81318611D01*
X117865795Y-81254254D01*
X117824856Y-81208786D01*
X117818460Y-81147936D01*
X117849053Y-81094948D01*
X117865791Y-81082786D01*
X117937265Y-81041521D01*
X118035105Y-80943681D01*
X118104288Y-80823852D01*
X118140100Y-80690199D01*
X118140100Y-80551833D01*
X118104288Y-80418180D01*
X118035105Y-80298351D01*
X117937265Y-80200511D01*
X117817436Y-80131328D01*
X117683783Y-80095516D01*
X117545417Y-80095516D01*
X117411764Y-80131328D01*
X117294901Y-80198799D01*
X117291932Y-80200513D01*
X117225925Y-80266520D01*
X117171408Y-80294297D01*
X117155922Y-80295516D01*
X116507753Y-80295516D01*
X116422047Y-80295516D01*
X116371378Y-80309092D01*
X116339256Y-80317699D01*
X116265042Y-80360547D01*
X113671631Y-82953958D01*
X113628783Y-83028173D01*
X113628781Y-83028177D01*
X113619242Y-83063774D01*
X113619243Y-83063775D01*
X113606600Y-83110960D01*
X113606600Y-83177838D01*
X113587693Y-83236029D01*
X113577604Y-83247841D01*
X113511597Y-83313848D01*
X113511595Y-83313850D01*
X113511595Y-83313851D01*
X113442412Y-83433680D01*
X113406600Y-83567333D01*
X113406600Y-83705699D01*
X113442412Y-83839352D01*
X113511595Y-83959181D01*
X113609435Y-84057021D01*
X113729264Y-84126204D01*
X113862917Y-84162016D01*
X113862919Y-84162016D01*
X114001281Y-84162016D01*
X114001283Y-84162016D01*
X114134936Y-84126204D01*
X114254765Y-84057021D01*
X114352605Y-83959181D01*
X114421788Y-83839352D01*
X114457600Y-83705699D01*
X114457600Y-83567333D01*
X114421788Y-83433680D01*
X114387414Y-83374143D01*
X114374693Y-83314296D01*
X114399580Y-83258400D01*
X114452568Y-83227807D01*
X114513418Y-83234203D01*
X114543151Y-83254637D01*
X114586835Y-83298321D01*
X114706664Y-83367504D01*
X114840317Y-83403316D01*
X114840319Y-83403316D01*
X114978681Y-83403316D01*
X114978683Y-83403316D01*
X115112336Y-83367504D01*
X115232165Y-83298321D01*
X115330005Y-83200481D01*
X115399188Y-83080652D01*
X115435000Y-82946999D01*
X115435000Y-82853651D01*
X115453907Y-82795460D01*
X115463996Y-82783647D01*
X115497431Y-82750212D01*
X115551948Y-82722435D01*
X115567435Y-82721216D01*
X119435751Y-82721216D01*
X119435753Y-82721216D01*
X119518539Y-82699034D01*
X119518541Y-82699032D01*
X119518543Y-82699032D01*
X119592757Y-82656184D01*
X119592757Y-82656183D01*
X119592762Y-82656181D01*
X121164831Y-81084112D01*
X121219348Y-81056335D01*
X121234835Y-81055116D01*
X121319181Y-81055116D01*
X121319183Y-81055116D01*
X121452836Y-81019304D01*
X121572665Y-80950121D01*
X121605671Y-80917115D01*
X121638675Y-80884112D01*
X121693192Y-80856335D01*
X121708678Y-80855116D01*
X122242851Y-80855116D01*
X122242853Y-80855116D01*
X122325638Y-80832934D01*
X122399862Y-80790081D01*
X122460465Y-80729478D01*
X122503318Y-80655254D01*
X122525500Y-80572469D01*
X122525500Y-70754116D01*
X122544407Y-70695925D01*
X122593907Y-70659961D01*
X122624500Y-70655116D01*
X122952626Y-70655116D01*
X123010817Y-70674023D01*
X123046781Y-70723523D01*
X123046781Y-70784709D01*
X123034940Y-70809119D01*
X123024915Y-70824121D01*
X122968342Y-70960701D01*
X122939500Y-71105697D01*
X122939500Y-71253534D01*
X122968342Y-71398530D01*
X123015758Y-71513001D01*
X123024916Y-71535111D01*
X123107049Y-71658032D01*
X123211584Y-71762567D01*
X123334505Y-71844700D01*
X123471087Y-71901274D01*
X123616082Y-71930116D01*
X123616083Y-71930116D01*
X123763917Y-71930116D01*
X123763918Y-71930116D01*
X123892392Y-71904560D01*
X123953153Y-71911750D01*
X123981711Y-71931654D01*
X124434016Y-72383960D01*
X124461793Y-72438476D01*
X124459639Y-72479585D01*
X124434600Y-72573033D01*
X124434600Y-72711399D01*
X124470412Y-72845052D01*
X124539595Y-72964881D01*
X124637435Y-73062721D01*
X124757264Y-73131904D01*
X124890917Y-73167716D01*
X124890919Y-73167716D01*
X125029281Y-73167716D01*
X125029283Y-73167716D01*
X125162936Y-73131904D01*
X125282765Y-73062721D01*
X125380605Y-72964881D01*
X125449788Y-72845052D01*
X125485600Y-72711399D01*
X125485600Y-72573033D01*
X125449788Y-72439380D01*
X125380605Y-72319551D01*
X125282765Y-72221711D01*
X125282762Y-72221709D01*
X125162939Y-72152529D01*
X125162936Y-72152528D01*
X125134329Y-72144862D01*
X125089950Y-72119240D01*
X124442037Y-71471327D01*
X124414260Y-71416810D01*
X124414944Y-71382008D01*
X124440498Y-71253544D01*
X124440500Y-71253532D01*
X124440500Y-71105699D01*
X124440500Y-71105698D01*
X124411658Y-70960703D01*
X124355084Y-70824121D01*
X124345059Y-70809118D01*
X124328450Y-70750231D01*
X124349626Y-70692827D01*
X124400500Y-70658833D01*
X124427374Y-70655116D01*
X125492626Y-70655116D01*
X125550817Y-70674023D01*
X125586781Y-70723523D01*
X125586781Y-70784709D01*
X125574940Y-70809119D01*
X125564915Y-70824121D01*
X125508342Y-70960701D01*
X125479500Y-71105697D01*
X125479500Y-71253534D01*
X125508342Y-71398530D01*
X125555758Y-71513001D01*
X125564916Y-71535111D01*
X125647049Y-71658032D01*
X125751584Y-71762567D01*
X125860502Y-71835343D01*
X125898381Y-71883392D01*
X125904500Y-71917658D01*
X125904500Y-73266763D01*
X125904500Y-73352469D01*
X125910652Y-73375428D01*
X125926683Y-73435259D01*
X125969531Y-73509473D01*
X125969532Y-73509474D01*
X125969533Y-73509475D01*
X125969535Y-73509478D01*
X128385739Y-75925682D01*
X130790386Y-78330329D01*
X130818163Y-78384846D01*
X130808592Y-78445278D01*
X130765327Y-78488543D01*
X130704895Y-78498114D01*
X130689333Y-78494338D01*
X130619268Y-78471192D01*
X130606228Y-78467236D01*
X130602824Y-78466203D01*
X130356850Y-78398133D01*
X130356808Y-78398122D01*
X130340182Y-78393958D01*
X130340152Y-78393951D01*
X130340147Y-78393950D01*
X130091169Y-78338039D01*
X130074296Y-78334684D01*
X129822838Y-78291050D01*
X129805836Y-78288529D01*
X129552539Y-78257288D01*
X129535456Y-78255606D01*
X129535457Y-78255606D01*
X129535436Y-78255604D01*
X129348192Y-78241791D01*
X129280888Y-78236827D01*
X129270427Y-78236314D01*
X129263741Y-78235986D01*
X129145978Y-78233094D01*
X129008596Y-78229722D01*
X129008589Y-78229722D01*
X128991411Y-78229722D01*
X128991404Y-78229722D01*
X128842572Y-78233376D01*
X128736259Y-78235986D01*
X128730686Y-78236259D01*
X128719111Y-78236827D01*
X128625479Y-78243734D01*
X128464564Y-78255604D01*
X128464545Y-78255605D01*
X128464543Y-78255606D01*
X128447460Y-78257288D01*
X128194163Y-78288529D01*
X128177161Y-78291050D01*
X127925703Y-78334684D01*
X127908830Y-78338039D01*
X127659852Y-78393950D01*
X127659837Y-78393953D01*
X127659818Y-78393958D01*
X127648633Y-78396759D01*
X127643149Y-78398133D01*
X127397175Y-78466203D01*
X127384074Y-78470177D01*
X127380732Y-78471192D01*
X127380724Y-78471194D01*
X127380703Y-78471201D01*
X127138421Y-78551239D01*
X127122172Y-78557053D01*
X126884091Y-78648891D01*
X126868230Y-78655461D01*
X126634857Y-78758908D01*
X126619363Y-78766236D01*
X126391373Y-78880997D01*
X126376234Y-78889088D01*
X126154138Y-79014904D01*
X126139437Y-79023716D01*
X125923764Y-79160290D01*
X125909508Y-79169815D01*
X125700836Y-79316778D01*
X125687019Y-79327026D01*
X125485843Y-79484025D01*
X125472540Y-79494943D01*
X125279268Y-79661660D01*
X125266562Y-79673176D01*
X125081724Y-79849157D01*
X125069541Y-79861340D01*
X124893560Y-80046178D01*
X124882044Y-80058884D01*
X124715327Y-80252156D01*
X124704409Y-80265459D01*
X124547410Y-80466635D01*
X124537162Y-80480452D01*
X124390199Y-80689124D01*
X124380674Y-80703380D01*
X124244100Y-80919053D01*
X124235288Y-80933754D01*
X124109472Y-81155850D01*
X124101381Y-81170989D01*
X123986620Y-81398979D01*
X123979292Y-81414473D01*
X123875845Y-81647846D01*
X123869275Y-81663707D01*
X123777437Y-81901788D01*
X123771623Y-81918037D01*
X123691585Y-82160319D01*
X123686587Y-82176791D01*
X123636606Y-82357400D01*
X123618516Y-82422770D01*
X123614342Y-82439434D01*
X123614337Y-82439453D01*
X123614334Y-82439468D01*
X123558423Y-82688446D01*
X123555068Y-82705319D01*
X123511434Y-82956777D01*
X123508913Y-82973779D01*
X123477672Y-83227076D01*
X123475990Y-83244159D01*
X123475988Y-83244180D01*
X123470849Y-83313848D01*
X123457211Y-83498727D01*
X123456370Y-83515880D01*
X123450105Y-83771050D01*
X123450000Y-83779578D01*
X123450000Y-91485723D01*
X123431941Y-91542728D01*
X123309288Y-91716882D01*
X123299763Y-91731138D01*
X123129053Y-92000718D01*
X123120241Y-92015419D01*
X122962975Y-92293033D01*
X122954884Y-92308172D01*
X122811434Y-92593156D01*
X122804106Y-92608650D01*
X122674807Y-92900346D01*
X122668227Y-92916231D01*
X122553430Y-93213830D01*
X122547616Y-93230079D01*
X122447564Y-93532941D01*
X122442560Y-93549437D01*
X122357480Y-93856879D01*
X122357476Y-93856895D01*
X122353302Y-93873559D01*
X122353297Y-93873578D01*
X122353294Y-93873593D01*
X122283402Y-94184828D01*
X122280045Y-94201707D01*
X122225509Y-94516008D01*
X122222986Y-94533010D01*
X122208680Y-94649003D01*
X122183932Y-94849660D01*
X122182248Y-94866756D01*
X122169165Y-95044116D01*
X122158778Y-95184929D01*
X122157934Y-95202101D01*
X122150105Y-95521049D01*
X122150000Y-95529578D01*
X122150000Y-99945551D01*
X122131093Y-100003742D01*
X122081593Y-100039706D01*
X122020407Y-100039706D01*
X122010881Y-100036058D01*
X121593005Y-99850827D01*
X121547469Y-99809960D01*
X121534124Y-99760320D01*
X121534124Y-99652321D01*
X121528005Y-99629485D01*
X121500016Y-99525026D01*
X121500014Y-99525023D01*
X121500014Y-99525021D01*
X121434127Y-99410902D01*
X121434125Y-99410900D01*
X121434124Y-99410898D01*
X121340938Y-99317712D01*
X121340935Y-99317710D01*
X121340933Y-99317708D01*
X121226813Y-99251821D01*
X121226815Y-99251821D01*
X121177423Y-99238587D01*
X121099516Y-99217712D01*
X120967732Y-99217712D01*
X120851806Y-99248773D01*
X120790705Y-99245571D01*
X120743155Y-99207066D01*
X120730559Y-99178773D01*
X120702242Y-99073092D01*
X120657736Y-98996005D01*
X120636353Y-98958968D01*
X120636351Y-98958966D01*
X120636350Y-98958964D01*
X120543164Y-98865778D01*
X120543161Y-98865776D01*
X120543159Y-98865774D01*
X120429039Y-98799887D01*
X120429041Y-98799887D01*
X120379649Y-98786653D01*
X120301742Y-98765778D01*
X120169958Y-98765778D01*
X120070121Y-98792528D01*
X120009020Y-98789326D01*
X119961470Y-98750821D01*
X119948874Y-98722529D01*
X119916385Y-98601276D01*
X119916383Y-98601272D01*
X119850496Y-98487152D01*
X119850494Y-98487150D01*
X119850493Y-98487148D01*
X119757307Y-98393962D01*
X119757304Y-98393960D01*
X119757302Y-98393958D01*
X119643182Y-98328071D01*
X119643184Y-98328071D01*
X119573497Y-98309399D01*
X119515885Y-98293962D01*
X119384101Y-98293962D01*
X119314535Y-98312601D01*
X119253434Y-98309399D01*
X119205884Y-98270894D01*
X119191785Y-98223297D01*
X119190760Y-98223433D01*
X119189913Y-98217001D01*
X119189913Y-98216999D01*
X119155805Y-98089705D01*
X119155803Y-98089702D01*
X119155803Y-98089700D01*
X119089916Y-97975581D01*
X119089914Y-97975579D01*
X119089913Y-97975577D01*
X118996727Y-97882391D01*
X118996724Y-97882389D01*
X118996722Y-97882387D01*
X118882602Y-97816500D01*
X118882604Y-97816500D01*
X118816556Y-97798803D01*
X118755305Y-97782391D01*
X118623521Y-97782391D01*
X118581236Y-97793721D01*
X118520135Y-97790518D01*
X118472585Y-97752013D01*
X118456614Y-97698094D01*
X118456614Y-97667020D01*
X118456614Y-97667019D01*
X118422506Y-97539725D01*
X118422504Y-97539722D01*
X118422504Y-97539720D01*
X118356617Y-97425601D01*
X118356615Y-97425599D01*
X118356614Y-97425597D01*
X118263428Y-97332411D01*
X118263425Y-97332409D01*
X118263423Y-97332407D01*
X118149303Y-97266520D01*
X118149305Y-97266520D01*
X118099913Y-97253286D01*
X118022006Y-97232411D01*
X117890222Y-97232411D01*
X117877152Y-97235912D01*
X117816052Y-97232710D01*
X117768502Y-97194205D01*
X117752531Y-97140286D01*
X117752531Y-97080081D01*
X117734015Y-97010977D01*
X117718423Y-96952786D01*
X117718421Y-96952783D01*
X117718421Y-96952781D01*
X117652534Y-96838662D01*
X117652532Y-96838660D01*
X117652531Y-96838658D01*
X117559345Y-96745472D01*
X117559342Y-96745470D01*
X117559340Y-96745468D01*
X117445220Y-96679581D01*
X117445222Y-96679581D01*
X117395830Y-96666347D01*
X117317923Y-96645472D01*
X117186139Y-96645472D01*
X117101276Y-96668210D01*
X117058844Y-96679580D01*
X117016981Y-96703749D01*
X116957132Y-96716468D01*
X116901237Y-96691581D01*
X116899218Y-96689711D01*
X116486387Y-96296663D01*
X116482952Y-96293228D01*
X116482951Y-96293227D01*
X115887264Y-95667557D01*
X115884020Y-95663978D01*
X115319762Y-95009847D01*
X115316681Y-95006092D01*
X115043382Y-94655892D01*
X114785194Y-94325054D01*
X114782307Y-94321162D01*
X114782299Y-94321151D01*
X114284870Y-93614856D01*
X114282177Y-93610826D01*
X114232879Y-93532976D01*
X113820006Y-92880975D01*
X113817511Y-92876812D01*
X113656822Y-92593156D01*
X113391702Y-92125154D01*
X113389415Y-92120875D01*
X113371566Y-92085416D01*
X113144006Y-91633331D01*
X113001019Y-91349265D01*
X112998941Y-91344872D01*
X112763168Y-90812977D01*
X112648850Y-90555079D01*
X112646997Y-90550604D01*
X112507188Y-90188163D01*
X112503887Y-90127069D01*
X112529550Y-90082534D01*
X112613128Y-89998957D01*
X112665970Y-89907433D01*
X112679018Y-89884833D01*
X112679018Y-89884831D01*
X112679020Y-89884829D01*
X112713128Y-89757535D01*
X112713128Y-89625751D01*
X112679020Y-89498457D01*
X112679018Y-89498454D01*
X112679018Y-89498452D01*
X112613131Y-89384333D01*
X112613129Y-89384331D01*
X112613128Y-89384329D01*
X112519942Y-89291143D01*
X112519939Y-89291141D01*
X112519937Y-89291139D01*
X112460079Y-89256580D01*
X112419138Y-89211111D01*
X112412742Y-89150260D01*
X112414983Y-89141643D01*
X112418269Y-89130996D01*
X112426511Y-89116722D01*
X112442638Y-89056533D01*
X114398400Y-89056533D01*
X114398400Y-89194899D01*
X114434212Y-89328552D01*
X114503395Y-89448381D01*
X114601235Y-89546221D01*
X114721064Y-89615404D01*
X114854717Y-89651216D01*
X114854719Y-89651216D01*
X114993081Y-89651216D01*
X114993083Y-89651216D01*
X115126736Y-89615404D01*
X115246565Y-89546221D01*
X115289619Y-89503166D01*
X115344134Y-89475391D01*
X115404566Y-89484962D01*
X115429625Y-89503168D01*
X119982904Y-94056447D01*
X120010681Y-94110964D01*
X120011900Y-94126451D01*
X120011900Y-94395363D01*
X120011900Y-94481069D01*
X120011927Y-94481169D01*
X120034083Y-94563859D01*
X120076931Y-94638073D01*
X120076935Y-94638078D01*
X120357333Y-94918477D01*
X120357334Y-94918477D01*
X120357335Y-94918478D01*
X120357334Y-94918478D01*
X120417935Y-94979078D01*
X120417938Y-94979081D01*
X120492162Y-95021934D01*
X120574947Y-95044116D01*
X120574949Y-95044116D01*
X121057351Y-95044116D01*
X121057353Y-95044116D01*
X121140139Y-95021934D01*
X121140141Y-95021932D01*
X121140143Y-95021932D01*
X121214357Y-94979084D01*
X121214357Y-94979083D01*
X121214362Y-94979081D01*
X121555265Y-94638178D01*
X121598118Y-94563955D01*
X121620300Y-94481169D01*
X121620300Y-94395463D01*
X121620300Y-92958056D01*
X121620301Y-92958043D01*
X121620301Y-92864362D01*
X121620300Y-92864360D01*
X121598118Y-92781577D01*
X121555348Y-92707498D01*
X121555265Y-92707354D01*
X121555262Y-92707351D01*
X121555261Y-92707349D01*
X121491205Y-92643294D01*
X121491204Y-92643294D01*
X118784977Y-89937066D01*
X118757200Y-89882549D01*
X118766771Y-89822117D01*
X118810036Y-89778852D01*
X118870468Y-89769281D01*
X118874271Y-89769960D01*
X118897997Y-89774679D01*
X118925318Y-89780115D01*
X118925324Y-89780115D01*
X118925326Y-89780116D01*
X118925327Y-89780116D01*
X119974673Y-89780116D01*
X119974674Y-89780116D01*
X120047740Y-89765582D01*
X120130601Y-89710217D01*
X120185966Y-89627356D01*
X120200500Y-89554290D01*
X120200500Y-89204116D01*
X120219407Y-89145925D01*
X120268907Y-89109961D01*
X120299500Y-89105116D01*
X120410451Y-89105116D01*
X120410453Y-89105116D01*
X120493239Y-89082934D01*
X120493240Y-89082933D01*
X120499507Y-89081254D01*
X120499712Y-89082019D01*
X120529391Y-89076116D01*
X120665781Y-89076116D01*
X120665783Y-89076116D01*
X120799436Y-89040304D01*
X120919265Y-88971121D01*
X121017105Y-88873281D01*
X121086288Y-88753452D01*
X121122100Y-88619799D01*
X121122100Y-88481433D01*
X121086288Y-88347780D01*
X121017105Y-88227951D01*
X120919265Y-88130111D01*
X120799436Y-88060928D01*
X120665783Y-88025116D01*
X120527417Y-88025116D01*
X120393764Y-88060928D01*
X120348998Y-88086773D01*
X120289151Y-88099494D01*
X120233256Y-88074607D01*
X120202663Y-88021619D01*
X120201414Y-88009734D01*
X120200976Y-88009778D01*
X120200500Y-88004951D01*
X120200500Y-88004942D01*
X120185966Y-87931876D01*
X120130601Y-87849015D01*
X120130599Y-87849013D01*
X120047742Y-87793651D01*
X120047740Y-87793650D01*
X120047737Y-87793649D01*
X120047736Y-87793649D01*
X119974684Y-87779117D01*
X119974674Y-87779116D01*
X118925326Y-87779116D01*
X118925325Y-87779116D01*
X118925315Y-87779117D01*
X118852263Y-87793649D01*
X118852261Y-87793649D01*
X118852260Y-87793650D01*
X118852259Y-87793650D01*
X118843251Y-87797382D01*
X118842416Y-87795367D01*
X118796112Y-87808427D01*
X118757386Y-87795843D01*
X118756749Y-87797382D01*
X118747742Y-87793651D01*
X118747740Y-87793650D01*
X118747736Y-87793649D01*
X118674684Y-87779117D01*
X118674674Y-87779116D01*
X117650835Y-87779116D01*
X117592644Y-87760209D01*
X117580831Y-87750120D01*
X116884096Y-87053385D01*
X116856319Y-86998868D01*
X116855100Y-86983381D01*
X116855100Y-86890034D01*
X116838071Y-86826480D01*
X116819288Y-86756380D01*
X116750105Y-86636551D01*
X116652265Y-86538711D01*
X116532436Y-86469528D01*
X116398783Y-86433716D01*
X116260417Y-86433716D01*
X116126764Y-86469528D01*
X116006935Y-86538711D01*
X115909095Y-86636551D01*
X115839912Y-86756380D01*
X115804100Y-86890033D01*
X115804100Y-87028399D01*
X115839912Y-87162052D01*
X115909095Y-87281881D01*
X116006935Y-87379721D01*
X116126764Y-87448904D01*
X116260417Y-87484716D01*
X116353765Y-87484716D01*
X116411956Y-87503623D01*
X116423769Y-87513712D01*
X117091804Y-88181747D01*
X117119581Y-88236264D01*
X117120800Y-88251751D01*
X117120800Y-88736763D01*
X117120800Y-88740463D01*
X117120800Y-88826169D01*
X117142982Y-88908955D01*
X117142983Y-88908957D01*
X117182262Y-88976989D01*
X117182263Y-88976991D01*
X117185835Y-88983178D01*
X117214935Y-89012278D01*
X117214934Y-89012278D01*
X117275538Y-89072881D01*
X117337774Y-89108813D01*
X117337780Y-89108816D01*
X117344227Y-89112538D01*
X117350004Y-89115874D01*
X117390943Y-89161345D01*
X117399500Y-89201608D01*
X117399500Y-89554288D01*
X117399501Y-89554300D01*
X117414033Y-89627352D01*
X117414035Y-89627358D01*
X117469397Y-89710215D01*
X117469400Y-89710218D01*
X117538584Y-89756444D01*
X117552260Y-89765582D01*
X117607808Y-89776631D01*
X117625315Y-89780114D01*
X117625320Y-89780114D01*
X117625326Y-89780116D01*
X117666365Y-89780116D01*
X117724556Y-89799023D01*
X117736369Y-89809112D01*
X120940304Y-93013046D01*
X120968081Y-93067563D01*
X120969300Y-93083050D01*
X120969300Y-94262481D01*
X120950393Y-94320672D01*
X120940304Y-94332485D01*
X120908669Y-94364120D01*
X120854152Y-94391897D01*
X120838665Y-94393116D01*
X120793635Y-94393116D01*
X120735444Y-94374209D01*
X120723631Y-94364120D01*
X120691896Y-94332385D01*
X120664119Y-94277868D01*
X120662900Y-94262381D01*
X120662900Y-93907764D01*
X120662900Y-93907763D01*
X120656619Y-93884321D01*
X120640718Y-93824977D01*
X120640716Y-93824974D01*
X120640716Y-93824972D01*
X120597868Y-93750758D01*
X120597866Y-93750756D01*
X120597865Y-93750754D01*
X115712362Y-88865251D01*
X115712359Y-88865249D01*
X115712357Y-88865247D01*
X115638142Y-88822399D01*
X115638144Y-88822399D01*
X115606021Y-88813792D01*
X115555353Y-88800216D01*
X115555351Y-88800216D01*
X115382578Y-88800216D01*
X115324387Y-88781309D01*
X115312575Y-88771220D01*
X115246567Y-88705213D01*
X115246565Y-88705211D01*
X115126736Y-88636028D01*
X114993083Y-88600216D01*
X114854717Y-88600216D01*
X114721064Y-88636028D01*
X114601235Y-88705211D01*
X114503395Y-88803051D01*
X114434212Y-88922880D01*
X114398400Y-89056533D01*
X112442638Y-89056533D01*
X112460619Y-88989428D01*
X112460619Y-88857644D01*
X112426511Y-88730350D01*
X112426509Y-88730347D01*
X112426509Y-88730345D01*
X112360622Y-88616226D01*
X112360620Y-88616224D01*
X112360619Y-88616222D01*
X112267433Y-88523036D01*
X112267430Y-88523034D01*
X112267428Y-88523032D01*
X112230367Y-88501635D01*
X112189426Y-88456166D01*
X112183030Y-88395315D01*
X112194129Y-88366402D01*
X112210854Y-88337435D01*
X112244962Y-88210141D01*
X112244962Y-88078357D01*
X112210854Y-87951063D01*
X112210852Y-87951060D01*
X112210852Y-87951058D01*
X112144965Y-87836939D01*
X112144963Y-87836937D01*
X112144962Y-87836935D01*
X112051776Y-87743749D01*
X112051773Y-87743747D01*
X112051771Y-87743745D01*
X112038153Y-87735883D01*
X111997212Y-87690414D01*
X111990816Y-87629564D01*
X112001917Y-87600647D01*
X112031738Y-87548996D01*
X112065846Y-87421702D01*
X112065846Y-87289918D01*
X112031738Y-87162624D01*
X112031736Y-87162621D01*
X112031736Y-87162619D01*
X111965849Y-87048500D01*
X111965847Y-87048498D01*
X111965846Y-87048496D01*
X111872660Y-86955310D01*
X111872657Y-86955308D01*
X111872653Y-86955304D01*
X111871635Y-86954523D01*
X111871114Y-86953765D01*
X111868071Y-86950722D01*
X111868634Y-86950158D01*
X111836978Y-86904100D01*
X111838578Y-86842935D01*
X111846164Y-86826480D01*
X111888391Y-86753341D01*
X111922499Y-86626047D01*
X111922499Y-86494263D01*
X111888391Y-86366969D01*
X111888389Y-86366966D01*
X111888389Y-86366964D01*
X111822502Y-86252845D01*
X111822500Y-86252843D01*
X111822499Y-86252841D01*
X111739878Y-86170220D01*
X111712103Y-86115706D01*
X111721674Y-86055274D01*
X111724148Y-86050719D01*
X111781095Y-85952084D01*
X111781096Y-85952081D01*
X111781097Y-85952080D01*
X111815205Y-85824786D01*
X111815205Y-85693002D01*
X111781097Y-85565708D01*
X111781095Y-85565705D01*
X111781095Y-85565703D01*
X111715208Y-85451584D01*
X111715206Y-85451582D01*
X111715205Y-85451580D01*
X111622019Y-85358394D01*
X111622016Y-85358392D01*
X111622014Y-85358390D01*
X111507894Y-85292503D01*
X111507896Y-85292503D01*
X111468521Y-85281953D01*
X111434587Y-85272860D01*
X111383274Y-85239537D01*
X111361479Y-85184518D01*
X111322087Y-84650494D01*
X111321850Y-84645647D01*
X111321666Y-84638138D01*
X111300649Y-83782019D01*
X111300649Y-83777212D01*
X111321850Y-82913575D01*
X111322088Y-82908730D01*
X111326989Y-82842294D01*
X111385641Y-82047165D01*
X111386117Y-82042342D01*
X111491867Y-81184940D01*
X111492569Y-81180206D01*
X111640264Y-80329028D01*
X111641210Y-80324268D01*
X111642685Y-80317699D01*
X111772448Y-79739837D01*
X111803645Y-79687206D01*
X111859822Y-79662961D01*
X111919521Y-79676367D01*
X111939046Y-79691527D01*
X111939432Y-79691913D01*
X111939437Y-79691919D01*
X111939441Y-79691922D01*
X111939442Y-79691923D01*
X112001889Y-79739840D01*
X112395072Y-80041540D01*
X112925670Y-80261321D01*
X113334999Y-80315210D01*
X113495071Y-80336284D01*
X113495072Y-80336284D01*
X113495073Y-80336284D01*
X113636247Y-80317698D01*
X114064474Y-80261321D01*
X114595072Y-80041540D01*
X115050707Y-79691919D01*
X115400328Y-79236284D01*
X115620109Y-78705686D01*
X115695072Y-78136284D01*
X115620109Y-77566882D01*
X115400328Y-77036284D01*
X115050707Y-76580649D01*
X115050702Y-76580645D01*
X115050701Y-76580644D01*
X114856815Y-76431871D01*
X114595072Y-76231028D01*
X114544221Y-76209965D01*
X114064476Y-76011248D01*
X114064478Y-76011248D01*
X114064474Y-76011247D01*
X114064472Y-76011246D01*
X114064470Y-76011246D01*
X113495073Y-75936284D01*
X113495071Y-75936284D01*
X113298944Y-75962104D01*
X113238783Y-75950954D01*
X113196666Y-75906571D01*
X113188680Y-75845909D01*
X113197593Y-75819439D01*
X113389426Y-75438332D01*
X113391692Y-75434092D01*
X113817524Y-74682395D01*
X113819995Y-74678272D01*
X114282196Y-73948374D01*
X114284857Y-73944392D01*
X114782329Y-73238038D01*
X114785179Y-73234195D01*
X115316698Y-72553117D01*
X115319745Y-72549403D01*
X115884039Y-71895230D01*
X115887245Y-71891693D01*
X116482978Y-71265975D01*
X116486360Y-71262593D01*
X117112067Y-70666870D01*
X117115604Y-70663664D01*
X117769807Y-70099344D01*
X117773522Y-70096297D01*
X118454589Y-69564787D01*
X118458433Y-69561937D01*
X119164776Y-69064473D01*
X119168758Y-69061812D01*
X119898656Y-68599611D01*
X119902779Y-68597140D01*
X120654468Y-68171312D01*
X120658708Y-68169046D01*
X121430359Y-67780630D01*
X121434732Y-67778561D01*
X122224549Y-67428460D01*
X122228981Y-67426625D01*
X123035027Y-67115699D01*
X123039527Y-67114089D01*
X123859831Y-66843096D01*
X123864460Y-66841691D01*
X124697067Y-66611279D01*
X124701754Y-66610106D01*
X125544649Y-66420826D01*
X125549382Y-66419885D01*
X126400571Y-66272188D01*
X126405309Y-66271485D01*
X126472457Y-66263203D01*
X126532522Y-66274846D01*
X126570309Y-66311959D01*
X126615564Y-66390343D01*
X126615566Y-66390345D01*
X126615568Y-66390348D01*
X126708754Y-66483534D01*
X126708756Y-66483535D01*
X126708758Y-66483537D01*
X126822878Y-66549424D01*
X126822876Y-66549424D01*
X126822880Y-66549425D01*
X126822882Y-66549426D01*
X126950176Y-66583534D01*
X126950178Y-66583534D01*
X127081958Y-66583534D01*
X127081960Y-66583534D01*
X127209254Y-66549426D01*
X127209256Y-66549424D01*
X127209258Y-66549424D01*
X127323377Y-66483537D01*
X127323377Y-66483536D01*
X127323382Y-66483534D01*
X127416568Y-66390348D01*
X127448326Y-66335340D01*
X127493794Y-66294401D01*
X127554644Y-66288004D01*
X127604066Y-66314837D01*
X127606480Y-66317251D01*
X127606482Y-66317254D01*
X127699668Y-66410440D01*
X127699670Y-66410441D01*
X127699672Y-66410443D01*
X127813792Y-66476330D01*
X127813790Y-66476330D01*
X127813794Y-66476331D01*
X127813796Y-66476332D01*
X127941090Y-66510440D01*
X127941092Y-66510440D01*
X128072872Y-66510440D01*
X128072874Y-66510440D01*
X128200168Y-66476332D01*
X128200170Y-66476330D01*
X128200172Y-66476330D01*
X128314291Y-66410443D01*
X128314291Y-66410442D01*
X128314296Y-66410440D01*
X128407482Y-66317254D01*
X128408878Y-66314837D01*
X128420676Y-66294401D01*
X128426490Y-66284330D01*
X128471958Y-66243389D01*
X128532808Y-66236992D01*
X128585797Y-66267584D01*
X128597962Y-66284326D01*
X128599500Y-66286990D01*
X128692686Y-66380176D01*
X128692688Y-66380177D01*
X128692690Y-66380179D01*
X128806810Y-66446066D01*
X128806808Y-66446066D01*
X128806812Y-66446067D01*
X128806814Y-66446068D01*
X128934108Y-66480176D01*
X128934110Y-66480176D01*
X129065890Y-66480176D01*
X129065892Y-66480176D01*
X129193186Y-66446068D01*
X129193188Y-66446066D01*
X129193190Y-66446066D01*
X129307309Y-66380179D01*
X129307309Y-66380178D01*
X129307314Y-66380176D01*
X129400500Y-66286990D01*
X129402032Y-66284335D01*
X129403664Y-66282865D01*
X129404451Y-66281841D01*
X129404640Y-66281986D01*
X129447497Y-66243392D01*
X129508346Y-66236990D01*
X129561337Y-66267578D01*
G37*
%TD.AperFunction*%
%TA.AperFunction,Conductor*%
G36*
X132333691Y-70674023D02*
G01*
X132369655Y-70723523D01*
X132374500Y-70754116D01*
X132374500Y-74084781D01*
X132355593Y-74142972D01*
X132306093Y-74178936D01*
X132244907Y-74178936D01*
X132205496Y-74154785D01*
X130888300Y-72837590D01*
X129522035Y-71471324D01*
X129494260Y-71416810D01*
X129494944Y-71382008D01*
X129520498Y-71253544D01*
X129520500Y-71253532D01*
X129520500Y-71105699D01*
X129520500Y-71105698D01*
X129491658Y-70960703D01*
X129435084Y-70824121D01*
X129425059Y-70809118D01*
X129408450Y-70750231D01*
X129429626Y-70692827D01*
X129480500Y-70658833D01*
X129507374Y-70655116D01*
X132275500Y-70655116D01*
X132333691Y-70674023D01*
G37*
%TD.AperFunction*%
%TD*%
%TA.AperFunction,Conductor*%
%TO.N,Board_0-GND*%
G36*
X135989114Y-28523170D02*
G01*
X136406995Y-28708404D01*
X136452531Y-28749271D01*
X136465876Y-28798911D01*
X136465876Y-28906912D01*
X136470582Y-28924474D01*
X136499985Y-29034210D01*
X136565872Y-29148329D01*
X136565874Y-29148331D01*
X136565876Y-29148334D01*
X136659062Y-29241520D01*
X136659064Y-29241521D01*
X136659066Y-29241523D01*
X136773186Y-29307410D01*
X136773184Y-29307410D01*
X136773188Y-29307411D01*
X136773190Y-29307412D01*
X136900484Y-29341520D01*
X136900486Y-29341520D01*
X137032265Y-29341520D01*
X137032268Y-29341520D01*
X137148196Y-29310457D01*
X137209293Y-29313659D01*
X137256843Y-29352164D01*
X137269441Y-29380459D01*
X137292740Y-29467415D01*
X137297759Y-29486144D01*
X137363646Y-29600263D01*
X137363648Y-29600265D01*
X137363650Y-29600268D01*
X137456836Y-29693454D01*
X137456838Y-29693455D01*
X137456840Y-29693457D01*
X137570960Y-29759344D01*
X137570958Y-29759344D01*
X137570962Y-29759345D01*
X137570964Y-29759346D01*
X137698258Y-29793454D01*
X137698260Y-29793454D01*
X137830041Y-29793454D01*
X137830042Y-29793454D01*
X137929878Y-29766703D01*
X137990978Y-29769904D01*
X138038528Y-29808409D01*
X138051125Y-29836703D01*
X138066528Y-29894184D01*
X138083616Y-29957960D01*
X138149503Y-30072079D01*
X138149505Y-30072081D01*
X138149507Y-30072084D01*
X138242693Y-30165270D01*
X138242695Y-30165271D01*
X138242697Y-30165273D01*
X138356817Y-30231160D01*
X138356815Y-30231160D01*
X138356819Y-30231161D01*
X138356821Y-30231162D01*
X138484115Y-30265270D01*
X138484117Y-30265270D01*
X138615898Y-30265270D01*
X138615899Y-30265270D01*
X138685464Y-30246630D01*
X138746565Y-30249831D01*
X138794115Y-30288336D01*
X138808214Y-30335934D01*
X138809240Y-30335799D01*
X138810086Y-30342230D01*
X138844196Y-30469531D01*
X138910083Y-30583650D01*
X138910085Y-30583652D01*
X138910087Y-30583655D01*
X139003273Y-30676841D01*
X139003275Y-30676842D01*
X139003277Y-30676844D01*
X139117397Y-30742731D01*
X139117395Y-30742731D01*
X139117399Y-30742732D01*
X139117401Y-30742733D01*
X139244695Y-30776841D01*
X139244697Y-30776841D01*
X139376478Y-30776841D01*
X139376479Y-30776841D01*
X139418763Y-30765511D01*
X139479863Y-30768712D01*
X139527414Y-30807217D01*
X139543386Y-30861137D01*
X139543386Y-30892213D01*
X139573186Y-31003431D01*
X139577495Y-31019511D01*
X139643382Y-31133630D01*
X139643384Y-31133632D01*
X139643386Y-31133635D01*
X139736572Y-31226821D01*
X139736574Y-31226822D01*
X139736576Y-31226824D01*
X139850696Y-31292711D01*
X139850694Y-31292711D01*
X139850698Y-31292712D01*
X139850700Y-31292713D01*
X139977994Y-31326821D01*
X139977996Y-31326821D01*
X140109775Y-31326821D01*
X140109778Y-31326821D01*
X140122846Y-31323319D01*
X140183943Y-31326519D01*
X140231495Y-31365022D01*
X140247469Y-31418945D01*
X140247469Y-31479152D01*
X140269733Y-31562244D01*
X140281578Y-31606450D01*
X140347465Y-31720569D01*
X140347467Y-31720571D01*
X140347469Y-31720574D01*
X140440655Y-31813760D01*
X140440657Y-31813761D01*
X140440659Y-31813763D01*
X140554779Y-31879650D01*
X140554777Y-31879650D01*
X140554781Y-31879651D01*
X140554783Y-31879652D01*
X140682077Y-31913760D01*
X140682079Y-31913760D01*
X140813859Y-31913760D01*
X140813861Y-31913760D01*
X140941155Y-31879652D01*
X140983016Y-31855483D01*
X141042860Y-31842761D01*
X141098757Y-31867646D01*
X141100779Y-31869519D01*
X141513601Y-32262558D01*
X141517037Y-32265993D01*
X141609974Y-32363608D01*
X142043779Y-32819247D01*
X142112714Y-32891651D01*
X142115969Y-32895243D01*
X142494277Y-33333806D01*
X142680252Y-33549403D01*
X142683334Y-33553159D01*
X142805377Y-33709543D01*
X143161689Y-34166116D01*
X143214804Y-34234176D01*
X143217691Y-34238068D01*
X143567148Y-34734259D01*
X143715121Y-34944364D01*
X143717821Y-34948404D01*
X144179989Y-35678250D01*
X144182487Y-35682418D01*
X144608289Y-36434062D01*
X144610579Y-36438347D01*
X144998979Y-37209965D01*
X145001057Y-37214358D01*
X145351142Y-38004137D01*
X145353001Y-38008627D01*
X145492809Y-38371067D01*
X145496111Y-38432163D01*
X145470447Y-38476699D01*
X145386872Y-38560274D01*
X145386868Y-38560279D01*
X145320981Y-38674398D01*
X145320980Y-38674403D01*
X145286872Y-38801697D01*
X145286872Y-38933481D01*
X145304868Y-39000643D01*
X145320981Y-39060779D01*
X145386868Y-39174898D01*
X145386870Y-39174900D01*
X145386872Y-39174903D01*
X145480058Y-39268089D01*
X145539920Y-39302650D01*
X145580862Y-39348119D01*
X145587258Y-39408970D01*
X145576160Y-39437882D01*
X145573491Y-39442504D01*
X145573490Y-39442507D01*
X145573489Y-39442509D01*
X145573489Y-39442510D01*
X145539381Y-39569804D01*
X145539381Y-39701588D01*
X145547815Y-39733063D01*
X145573490Y-39828886D01*
X145639377Y-39943005D01*
X145639379Y-39943007D01*
X145639381Y-39943010D01*
X145732567Y-40036196D01*
X145769633Y-40057596D01*
X145810573Y-40103065D01*
X145816969Y-40163915D01*
X145805869Y-40192832D01*
X145789146Y-40221795D01*
X145779523Y-40257711D01*
X145755038Y-40349091D01*
X145755038Y-40480875D01*
X145759708Y-40498303D01*
X145789147Y-40608173D01*
X145855034Y-40722292D01*
X145855036Y-40722294D01*
X145855038Y-40722297D01*
X145948224Y-40815483D01*
X145961845Y-40823347D01*
X145961847Y-40823348D01*
X146002787Y-40868818D01*
X146009182Y-40929668D01*
X145998083Y-40958584D01*
X145968262Y-41010234D01*
X145956104Y-41055609D01*
X145934154Y-41137530D01*
X145934154Y-41269314D01*
X145964233Y-41381573D01*
X145968263Y-41396612D01*
X146034150Y-41510731D01*
X146034152Y-41510733D01*
X146034154Y-41510736D01*
X146127340Y-41603922D01*
X146127342Y-41603923D01*
X146127343Y-41603924D01*
X146128371Y-41604713D01*
X146128896Y-41605477D01*
X146131929Y-41608510D01*
X146131366Y-41609072D01*
X146163024Y-41655140D01*
X146161419Y-41716304D01*
X146153835Y-41732752D01*
X146111610Y-41805886D01*
X146111609Y-41805891D01*
X146077501Y-41933185D01*
X146077501Y-42064969D01*
X146104347Y-42165161D01*
X146111610Y-42192267D01*
X146177497Y-42306386D01*
X146177499Y-42306388D01*
X146177501Y-42306391D01*
X146260121Y-42389011D01*
X146287897Y-42443526D01*
X146278326Y-42503958D01*
X146275852Y-42508513D01*
X146218904Y-42607147D01*
X146202463Y-42668507D01*
X146184795Y-42734446D01*
X146184795Y-42866230D01*
X146195661Y-42906783D01*
X146218904Y-42993528D01*
X146284791Y-43107647D01*
X146284793Y-43107649D01*
X146284795Y-43107652D01*
X146377981Y-43200838D01*
X146377983Y-43200839D01*
X146377985Y-43200841D01*
X146492105Y-43266728D01*
X146492106Y-43266728D01*
X146492109Y-43266730D01*
X146565411Y-43286371D01*
X146616725Y-43319694D01*
X146638520Y-43374714D01*
X146677910Y-43908730D01*
X146678148Y-43913583D01*
X146699349Y-44777185D01*
X146699349Y-44782045D01*
X146678148Y-45645647D01*
X146677910Y-45650500D01*
X146614358Y-46512052D01*
X146613881Y-46516888D01*
X146508136Y-47374254D01*
X146507423Y-47379060D01*
X146359732Y-48230215D01*
X146358784Y-48234981D01*
X146227550Y-48819390D01*
X146196353Y-48872024D01*
X146140176Y-48896269D01*
X146080477Y-48882863D01*
X146060952Y-48867703D01*
X146060566Y-48867317D01*
X146060563Y-48867313D01*
X146060558Y-48867309D01*
X146060557Y-48867308D01*
X145855623Y-48710057D01*
X145604928Y-48517692D01*
X145593728Y-48513053D01*
X145292741Y-48388380D01*
X145074330Y-48297911D01*
X145074328Y-48297910D01*
X145074326Y-48297910D01*
X144504929Y-48222948D01*
X144504927Y-48222948D01*
X143935529Y-48297910D01*
X143935523Y-48297912D01*
X143404929Y-48517691D01*
X142949298Y-48867308D01*
X142949288Y-48867318D01*
X142599671Y-49322949D01*
X142379892Y-49853543D01*
X142379890Y-49853549D01*
X142304928Y-50422947D01*
X142304928Y-50422948D01*
X142378490Y-50981713D01*
X142379891Y-50992350D01*
X142599672Y-51522948D01*
X142622639Y-51552879D01*
X142826857Y-51819022D01*
X142949293Y-51978583D01*
X143404928Y-52328204D01*
X143935526Y-52547985D01*
X144308798Y-52597127D01*
X144504927Y-52622948D01*
X144504928Y-52622948D01*
X144701054Y-52597127D01*
X144761213Y-52608277D01*
X144803331Y-52652659D01*
X144811317Y-52713321D01*
X144802404Y-52739792D01*
X144610579Y-53120883D01*
X144608289Y-53125168D01*
X144182487Y-53876812D01*
X144179989Y-53880980D01*
X143717821Y-54610826D01*
X143715121Y-54614866D01*
X143217699Y-55321151D01*
X143214804Y-55325054D01*
X142683334Y-56006071D01*
X142680252Y-56009827D01*
X142115978Y-56663978D01*
X142112714Y-56667579D01*
X141517047Y-57293227D01*
X141513612Y-57296662D01*
X140887953Y-57892339D01*
X140884352Y-57895603D01*
X140230232Y-58459851D01*
X140226476Y-58462933D01*
X139545449Y-58994412D01*
X139541546Y-58997307D01*
X138835250Y-59494737D01*
X138831210Y-59497437D01*
X138101364Y-59959605D01*
X138097196Y-59962103D01*
X137345544Y-60387909D01*
X137341259Y-60390199D01*
X136569649Y-60778595D01*
X136565256Y-60780673D01*
X135775477Y-61130758D01*
X135770988Y-61132617D01*
X134965015Y-61443515D01*
X134960439Y-61445152D01*
X134140171Y-61716132D01*
X134135521Y-61717543D01*
X133302944Y-61947947D01*
X133298231Y-61949127D01*
X132455365Y-62138400D01*
X132450599Y-62139348D01*
X131599461Y-62287036D01*
X131594654Y-62287750D01*
X131527543Y-62296027D01*
X131467476Y-62284384D01*
X131429690Y-62247271D01*
X131384432Y-62168883D01*
X131291246Y-62075697D01*
X131291243Y-62075695D01*
X131291241Y-62075693D01*
X131177121Y-62009806D01*
X131177123Y-62009806D01*
X131126440Y-61996226D01*
X131049824Y-61975697D01*
X130918040Y-61975697D01*
X130841424Y-61996226D01*
X130790741Y-62009806D01*
X130676622Y-62075693D01*
X130583430Y-62168885D01*
X130551673Y-62223890D01*
X130506203Y-62264830D01*
X130445353Y-62271225D01*
X130395933Y-62244393D01*
X130393519Y-62241979D01*
X130393518Y-62241977D01*
X130300332Y-62148791D01*
X130300329Y-62148789D01*
X130300327Y-62148787D01*
X130186207Y-62082900D01*
X130186209Y-62082900D01*
X130136817Y-62069666D01*
X130058910Y-62048791D01*
X129927126Y-62048791D01*
X129849218Y-62069666D01*
X129799827Y-62082900D01*
X129685708Y-62148787D01*
X129592516Y-62241979D01*
X129573508Y-62274902D01*
X129528038Y-62315842D01*
X129467188Y-62322237D01*
X129414200Y-62291644D01*
X129402033Y-62274897D01*
X129400502Y-62272245D01*
X129400500Y-62272241D01*
X129307314Y-62179055D01*
X129307311Y-62179053D01*
X129307309Y-62179051D01*
X129193189Y-62113164D01*
X129193191Y-62113164D01*
X129143799Y-62099930D01*
X129065892Y-62079055D01*
X128934108Y-62079055D01*
X128856200Y-62099930D01*
X128806809Y-62113164D01*
X128692690Y-62179051D01*
X128599496Y-62272245D01*
X128597961Y-62274905D01*
X128596326Y-62276376D01*
X128595549Y-62277390D01*
X128595361Y-62277245D01*
X128552490Y-62315844D01*
X128491639Y-62322237D01*
X128438652Y-62291641D01*
X128426490Y-62274900D01*
X128424957Y-62272245D01*
X128407482Y-62241977D01*
X128314296Y-62148791D01*
X128314293Y-62148789D01*
X128314291Y-62148787D01*
X128200171Y-62082900D01*
X128200173Y-62082900D01*
X128150781Y-62069666D01*
X128072874Y-62048791D01*
X127941090Y-62048791D01*
X127863182Y-62069666D01*
X127813791Y-62082900D01*
X127699672Y-62148787D01*
X127699667Y-62148791D01*
X127604065Y-62244393D01*
X127549549Y-62272170D01*
X127489117Y-62262598D01*
X127448326Y-62223890D01*
X127416568Y-62168883D01*
X127323382Y-62075697D01*
X127323379Y-62075695D01*
X127323377Y-62075693D01*
X127209257Y-62009806D01*
X127209259Y-62009806D01*
X127158576Y-61996226D01*
X127081960Y-61975697D01*
X126950176Y-61975697D01*
X126873560Y-61996226D01*
X126822877Y-62009806D01*
X126708758Y-62075693D01*
X126615566Y-62168885D01*
X126570309Y-62247272D01*
X126524839Y-62288212D01*
X126472455Y-62296027D01*
X126405344Y-62287750D01*
X126400537Y-62287036D01*
X125549399Y-62139348D01*
X125544633Y-62138400D01*
X124701767Y-61949127D01*
X124697054Y-61947947D01*
X124610626Y-61924030D01*
X124559586Y-61890288D01*
X124538127Y-61832989D01*
X124554445Y-61774020D01*
X124602308Y-61735905D01*
X124637030Y-61729616D01*
X124949999Y-61729616D01*
X124950000Y-61729616D01*
X124950000Y-58574871D01*
X124968907Y-58516680D01*
X125018407Y-58480716D01*
X125079593Y-58480716D01*
X125098500Y-58489135D01*
X125100137Y-58490080D01*
X125100138Y-58490081D01*
X125174362Y-58532934D01*
X125257147Y-58555116D01*
X125257149Y-58555116D01*
X132890323Y-58555116D01*
X132948514Y-58574023D01*
X132984478Y-58623523D01*
X132984478Y-58684709D01*
X132960328Y-58724117D01*
X132914995Y-58769451D01*
X132845812Y-58889280D01*
X132810000Y-59022933D01*
X132810000Y-59161299D01*
X132845812Y-59294952D01*
X132914995Y-59414781D01*
X133012835Y-59512621D01*
X133132664Y-59581804D01*
X133266317Y-59617616D01*
X133266319Y-59617616D01*
X133404681Y-59617616D01*
X133404683Y-59617616D01*
X133538336Y-59581804D01*
X133658165Y-59512621D01*
X133692002Y-59478784D01*
X133724175Y-59446612D01*
X133778692Y-59418835D01*
X133794178Y-59417616D01*
X135912751Y-59417616D01*
X135912753Y-59417616D01*
X135995539Y-59395434D01*
X135995541Y-59395432D01*
X135995543Y-59395432D01*
X136069757Y-59352584D01*
X136069757Y-59352583D01*
X136069762Y-59352581D01*
X139009230Y-56413111D01*
X139063747Y-56385335D01*
X139079234Y-56384116D01*
X139172581Y-56384116D01*
X139172583Y-56384116D01*
X139306236Y-56348304D01*
X139426065Y-56279121D01*
X139523905Y-56181281D01*
X139593088Y-56061452D01*
X139628900Y-55927799D01*
X139628900Y-55789433D01*
X139593088Y-55655780D01*
X139523905Y-55535951D01*
X139426065Y-55438111D01*
X139306236Y-55368928D01*
X139172583Y-55333116D01*
X139034217Y-55333116D01*
X138900564Y-55368928D01*
X138780735Y-55438111D01*
X138682895Y-55535951D01*
X138613712Y-55655780D01*
X138577900Y-55789434D01*
X138577900Y-55882781D01*
X138558993Y-55940972D01*
X138548904Y-55952785D01*
X136294504Y-58207185D01*
X136239987Y-58234962D01*
X136179555Y-58225391D01*
X136136290Y-58182126D01*
X136125500Y-58137181D01*
X136125500Y-55277958D01*
X136144407Y-55219767D01*
X136193907Y-55183803D01*
X136255093Y-55183803D01*
X136304593Y-55219767D01*
X136320125Y-55252332D01*
X136327312Y-55279152D01*
X136396495Y-55398981D01*
X136494335Y-55496821D01*
X136614164Y-55566004D01*
X136747817Y-55601816D01*
X136747819Y-55601816D01*
X136886181Y-55601816D01*
X136886183Y-55601816D01*
X137019836Y-55566004D01*
X137139665Y-55496821D01*
X137237505Y-55398981D01*
X137287183Y-55312934D01*
X137332650Y-55271995D01*
X137391375Y-55265822D01*
X137391383Y-55265769D01*
X137391604Y-55265798D01*
X137393500Y-55265599D01*
X137397631Y-55266591D01*
X137397816Y-55266616D01*
X137397817Y-55266616D01*
X137536181Y-55266616D01*
X137536183Y-55266616D01*
X137669836Y-55230804D01*
X137789665Y-55161621D01*
X137887505Y-55063781D01*
X137956688Y-54943952D01*
X137992500Y-54810299D01*
X137992500Y-54716950D01*
X138011407Y-54658759D01*
X138021490Y-54646952D01*
X139276265Y-53392178D01*
X139319118Y-53317955D01*
X139341300Y-53235169D01*
X139341300Y-53149463D01*
X139341300Y-51399993D01*
X139360207Y-51341802D01*
X139370290Y-51329995D01*
X139436305Y-51263981D01*
X139505488Y-51144152D01*
X139541300Y-51010499D01*
X139541300Y-50872133D01*
X139505488Y-50738480D01*
X139436305Y-50618651D01*
X139338465Y-50520811D01*
X139218636Y-50451628D01*
X139084983Y-50415816D01*
X138946617Y-50415816D01*
X138812964Y-50451628D01*
X138693135Y-50520811D01*
X138595295Y-50618651D01*
X138526112Y-50738480D01*
X138490300Y-50872133D01*
X138490300Y-51010499D01*
X138526112Y-51144152D01*
X138595295Y-51263981D01*
X138661305Y-51329991D01*
X138689081Y-51384506D01*
X138690300Y-51399993D01*
X138690300Y-53016481D01*
X138671393Y-53074672D01*
X138661304Y-53086485D01*
X137561169Y-54186620D01*
X137506652Y-54214397D01*
X137491165Y-54215616D01*
X137397817Y-54215616D01*
X137264164Y-54251428D01*
X137144335Y-54320611D01*
X137046494Y-54418452D01*
X136996816Y-54504496D01*
X136951346Y-54545436D01*
X136892622Y-54551607D01*
X136892615Y-54551663D01*
X136892383Y-54551632D01*
X136890496Y-54551831D01*
X136886367Y-54550840D01*
X136886183Y-54550816D01*
X136886182Y-54550816D01*
X136846200Y-54550816D01*
X136788009Y-54531909D01*
X136752045Y-54482409D01*
X136747200Y-54451816D01*
X136747200Y-49280150D01*
X136766107Y-49221959D01*
X136776196Y-49210146D01*
X138811730Y-47174612D01*
X138866247Y-47146835D01*
X138881734Y-47145616D01*
X139886722Y-47145616D01*
X139944913Y-47164523D01*
X139956725Y-47174612D01*
X140022732Y-47240618D01*
X140022735Y-47240621D01*
X140134204Y-47304977D01*
X140175143Y-47350445D01*
X140181539Y-47411295D01*
X140150946Y-47464283D01*
X140134203Y-47476448D01*
X140062736Y-47517710D01*
X140062735Y-47517711D01*
X139964895Y-47615551D01*
X139895712Y-47735380D01*
X139859900Y-47869033D01*
X139859900Y-48007399D01*
X139895712Y-48141052D01*
X139964895Y-48260881D01*
X140062735Y-48358721D01*
X140182564Y-48427904D01*
X140316217Y-48463716D01*
X140316219Y-48463716D01*
X140454581Y-48463716D01*
X140454583Y-48463716D01*
X140588236Y-48427904D01*
X140708065Y-48358721D01*
X140755783Y-48311003D01*
X140774075Y-48292712D01*
X140828592Y-48264935D01*
X140844078Y-48263716D01*
X141577951Y-48263716D01*
X141577953Y-48263716D01*
X141660739Y-48241534D01*
X141660741Y-48241532D01*
X141660743Y-48241532D01*
X141734957Y-48198684D01*
X141734957Y-48198683D01*
X141734962Y-48198681D01*
X144328365Y-45605278D01*
X144328368Y-45605273D01*
X144371216Y-45531059D01*
X144371216Y-45531057D01*
X144371218Y-45531055D01*
X144393400Y-45448269D01*
X144393400Y-45381393D01*
X144412307Y-45323202D01*
X144422390Y-45311395D01*
X144488405Y-45245381D01*
X144557588Y-45125552D01*
X144593400Y-44991899D01*
X144593400Y-44853533D01*
X144557588Y-44719880D01*
X144488405Y-44600051D01*
X144390565Y-44502211D01*
X144270736Y-44433028D01*
X144137083Y-44397216D01*
X143998717Y-44397216D01*
X143865064Y-44433028D01*
X143745235Y-44502211D01*
X143647395Y-44600051D01*
X143578212Y-44719880D01*
X143542400Y-44853533D01*
X143542400Y-44991899D01*
X143578212Y-45125552D01*
X143612585Y-45185088D01*
X143625306Y-45244936D01*
X143600419Y-45300831D01*
X143547431Y-45331424D01*
X143486581Y-45325028D01*
X143456847Y-45304593D01*
X143413165Y-45260911D01*
X143293336Y-45191728D01*
X143159683Y-45155916D01*
X143021317Y-45155916D01*
X142887664Y-45191728D01*
X142767835Y-45260911D01*
X142669995Y-45358751D01*
X142600812Y-45478580D01*
X142567621Y-45602454D01*
X142565000Y-45612234D01*
X142565000Y-45705581D01*
X142546093Y-45763772D01*
X142536004Y-45775585D01*
X142502569Y-45809020D01*
X142448052Y-45836797D01*
X142432565Y-45838016D01*
X138649953Y-45838016D01*
X138564247Y-45838016D01*
X138513578Y-45851592D01*
X138481456Y-45860199D01*
X138407242Y-45903047D01*
X136835169Y-47475120D01*
X136780652Y-47502897D01*
X136765165Y-47504116D01*
X136680817Y-47504116D01*
X136547164Y-47539928D01*
X136427332Y-47609113D01*
X136361325Y-47675120D01*
X136306808Y-47702897D01*
X136291322Y-47704116D01*
X135842853Y-47704116D01*
X135757147Y-47704116D01*
X135674362Y-47726298D01*
X135600138Y-47769151D01*
X135539535Y-47829754D01*
X135496682Y-47903978D01*
X135474500Y-47986764D01*
X135474500Y-57805116D01*
X135455593Y-57863307D01*
X135406093Y-57899271D01*
X135375500Y-57904116D01*
X135047374Y-57904116D01*
X134989183Y-57885209D01*
X134953219Y-57835709D01*
X134953219Y-57774523D01*
X134965060Y-57750113D01*
X134975084Y-57735111D01*
X135031658Y-57598529D01*
X135060500Y-57453534D01*
X135060500Y-57305698D01*
X135031658Y-57160703D01*
X134975084Y-57024121D01*
X134892951Y-56901200D01*
X134788416Y-56796665D01*
X134665495Y-56714532D01*
X134665493Y-56714531D01*
X134528914Y-56657958D01*
X134383918Y-56629116D01*
X134236082Y-56629116D01*
X134236079Y-56629116D01*
X134107606Y-56654672D01*
X134046845Y-56647480D01*
X134018288Y-56627577D01*
X133565983Y-56175271D01*
X133538206Y-56120755D01*
X133540360Y-56079646D01*
X133565400Y-55986199D01*
X133565400Y-55847833D01*
X133529588Y-55714180D01*
X133460405Y-55594351D01*
X133362565Y-55496511D01*
X133242736Y-55427328D01*
X133109083Y-55391516D01*
X132970717Y-55391516D01*
X132837064Y-55427328D01*
X132717235Y-55496511D01*
X132619395Y-55594351D01*
X132550212Y-55714180D01*
X132514400Y-55847833D01*
X132514400Y-55986199D01*
X132550212Y-56119852D01*
X132619395Y-56239681D01*
X132717235Y-56337521D01*
X132837064Y-56406704D01*
X132865666Y-56414368D01*
X132910047Y-56439990D01*
X133557962Y-57087904D01*
X133585739Y-57142421D01*
X133585056Y-57177222D01*
X133559500Y-57305695D01*
X133559500Y-57453534D01*
X133588342Y-57598530D01*
X133644915Y-57735110D01*
X133654940Y-57750113D01*
X133671550Y-57809001D01*
X133650374Y-57866405D01*
X133599500Y-57900399D01*
X133572626Y-57904116D01*
X132507374Y-57904116D01*
X132449183Y-57885209D01*
X132413219Y-57835709D01*
X132413219Y-57774523D01*
X132425060Y-57750113D01*
X132435084Y-57735111D01*
X132491658Y-57598529D01*
X132520500Y-57453534D01*
X132520500Y-57305698D01*
X132491658Y-57160703D01*
X132435084Y-57024121D01*
X132352951Y-56901200D01*
X132248416Y-56796665D01*
X132203770Y-56766833D01*
X132139498Y-56723888D01*
X132101619Y-56675838D01*
X132095500Y-56641573D01*
X132095500Y-55206764D01*
X132095500Y-55206763D01*
X132073318Y-55123978D01*
X132030465Y-55049754D01*
X132030462Y-55049751D01*
X131969862Y-54989150D01*
X131969862Y-54989151D01*
X127209613Y-50228902D01*
X127181836Y-50174385D01*
X127191407Y-50113953D01*
X127234672Y-50070688D01*
X127295104Y-50061117D01*
X127310668Y-50064894D01*
X127380732Y-50088040D01*
X127397171Y-50093027D01*
X127643154Y-50161100D01*
X127659818Y-50165274D01*
X127791254Y-50194789D01*
X127908830Y-50221192D01*
X127908844Y-50221194D01*
X127908845Y-50221195D01*
X127925694Y-50224546D01*
X128038175Y-50244063D01*
X128177161Y-50268181D01*
X128194163Y-50270702D01*
X128438973Y-50300896D01*
X128447468Y-50301944D01*
X128464564Y-50303628D01*
X128719101Y-50322404D01*
X128736259Y-50323246D01*
X128957535Y-50328678D01*
X128991404Y-50329510D01*
X128991411Y-50329510D01*
X129008596Y-50329510D01*
X129041833Y-50328693D01*
X129263741Y-50323246D01*
X129280899Y-50322404D01*
X129535436Y-50303628D01*
X129552532Y-50301944D01*
X129639800Y-50291180D01*
X129805836Y-50270702D01*
X129822838Y-50268181D01*
X129927077Y-50250092D01*
X130074306Y-50224546D01*
X130091155Y-50221195D01*
X130091163Y-50221193D01*
X130091169Y-50221192D01*
X130126855Y-50213178D01*
X130340182Y-50165274D01*
X130356846Y-50161100D01*
X130602829Y-50093027D01*
X130619268Y-50088040D01*
X130861615Y-50007980D01*
X130877790Y-50002192D01*
X130877817Y-50002181D01*
X130877827Y-50002178D01*
X130964981Y-49968558D01*
X131115917Y-49910337D01*
X131131788Y-49903762D01*
X131365120Y-49800333D01*
X131365128Y-49800329D01*
X131365142Y-49800323D01*
X131380636Y-49792995D01*
X131393647Y-49786446D01*
X131608626Y-49678235D01*
X131623777Y-49670137D01*
X131845848Y-49544335D01*
X131860583Y-49535503D01*
X132076214Y-49398956D01*
X132090498Y-49389412D01*
X132299169Y-49242449D01*
X132312967Y-49232216D01*
X132514176Y-49075191D01*
X132527455Y-49064293D01*
X132720717Y-48897584D01*
X132733445Y-48886048D01*
X132918294Y-48710057D01*
X132930441Y-48697910D01*
X133106432Y-48513061D01*
X133117968Y-48500333D01*
X133284677Y-48307071D01*
X133295575Y-48293792D01*
X133452600Y-48092583D01*
X133462833Y-48078785D01*
X133609796Y-47870114D01*
X133619340Y-47855830D01*
X133755887Y-47640199D01*
X133764719Y-47625464D01*
X133890521Y-47403393D01*
X133898619Y-47388242D01*
X134013372Y-47160266D01*
X134013379Y-47160252D01*
X134020707Y-47144758D01*
X134020717Y-47144736D01*
X134124146Y-46911404D01*
X134130721Y-46895533D01*
X134222576Y-46657406D01*
X134228364Y-46641231D01*
X134308424Y-46398884D01*
X134313411Y-46382445D01*
X134381484Y-46136462D01*
X134385658Y-46119798D01*
X134441579Y-45870771D01*
X134444930Y-45853922D01*
X134482373Y-45638138D01*
X134488565Y-45602454D01*
X134491086Y-45585452D01*
X134522327Y-45332155D01*
X134523209Y-45323202D01*
X134524012Y-45315052D01*
X134542788Y-45060515D01*
X134543630Y-45043357D01*
X134549894Y-44788205D01*
X134550000Y-44779616D01*
X134550000Y-37073508D01*
X134568059Y-37016503D01*
X134690707Y-36842356D01*
X134700251Y-36828072D01*
X134870934Y-36558534D01*
X134879766Y-36543799D01*
X135037018Y-36266210D01*
X135045116Y-36251059D01*
X135188558Y-35966089D01*
X135188565Y-35966075D01*
X135195893Y-35950581D01*
X135239645Y-35851878D01*
X135325190Y-35658893D01*
X135331764Y-35643022D01*
X135426115Y-35398425D01*
X135446569Y-35345401D01*
X135446572Y-35345391D01*
X135446583Y-35345364D01*
X135452371Y-35329189D01*
X135552447Y-35026256D01*
X135557433Y-35009816D01*
X135642524Y-34702337D01*
X135646698Y-34685673D01*
X135716600Y-34374389D01*
X135719951Y-34357540D01*
X135737597Y-34255843D01*
X135768446Y-34078059D01*
X136379700Y-34078059D01*
X136379700Y-34078063D01*
X136379700Y-35609163D01*
X136379700Y-35694869D01*
X136399262Y-35767879D01*
X136401883Y-35777659D01*
X136444731Y-35851873D01*
X136444733Y-35851875D01*
X136444735Y-35851878D01*
X138333067Y-37740209D01*
X139215023Y-38622165D01*
X139242800Y-38676682D01*
X139233229Y-38737114D01*
X139189964Y-38780379D01*
X139129532Y-38789950D01*
X139125719Y-38789269D01*
X139074674Y-38779116D01*
X138025326Y-38779116D01*
X138025325Y-38779116D01*
X138025315Y-38779117D01*
X137952263Y-38793649D01*
X137952257Y-38793651D01*
X137869400Y-38849013D01*
X137869397Y-38849016D01*
X137814035Y-38931873D01*
X137814033Y-38931879D01*
X137799501Y-39004931D01*
X137799500Y-39004943D01*
X137799500Y-39355116D01*
X137780593Y-39413307D01*
X137731093Y-39449271D01*
X137700500Y-39454116D01*
X137675253Y-39454116D01*
X137589547Y-39454116D01*
X137570379Y-39459252D01*
X137500493Y-39477977D01*
X137500287Y-39477211D01*
X137470608Y-39483116D01*
X137334217Y-39483116D01*
X137200564Y-39518928D01*
X137080735Y-39588111D01*
X136982895Y-39685951D01*
X136913712Y-39805780D01*
X136877900Y-39939433D01*
X136877900Y-40077799D01*
X136913712Y-40211452D01*
X136982895Y-40331281D01*
X137080735Y-40429121D01*
X137200564Y-40498304D01*
X137334217Y-40534116D01*
X137334219Y-40534116D01*
X137472581Y-40534116D01*
X137472583Y-40534116D01*
X137606236Y-40498304D01*
X137651002Y-40472458D01*
X137710847Y-40459737D01*
X137766743Y-40484623D01*
X137797336Y-40537611D01*
X137798585Y-40549497D01*
X137799024Y-40549454D01*
X137799501Y-40554300D01*
X137814033Y-40627352D01*
X137814035Y-40627358D01*
X137869397Y-40710215D01*
X137869400Y-40710218D01*
X137887478Y-40722297D01*
X137952260Y-40765582D01*
X138007808Y-40776631D01*
X138025315Y-40780114D01*
X138025320Y-40780114D01*
X138025326Y-40780116D01*
X138025327Y-40780116D01*
X139074673Y-40780116D01*
X139074674Y-40780116D01*
X139147740Y-40765582D01*
X139147746Y-40765577D01*
X139156752Y-40761849D01*
X139157586Y-40763864D01*
X139203880Y-40750805D01*
X139242610Y-40763389D01*
X139243248Y-40761849D01*
X139252255Y-40765578D01*
X139252260Y-40765582D01*
X139307808Y-40776631D01*
X139325315Y-40780114D01*
X139325320Y-40780114D01*
X139325326Y-40780116D01*
X139325327Y-40780116D01*
X140349165Y-40780116D01*
X140407356Y-40799023D01*
X140419169Y-40809112D01*
X141115904Y-41505847D01*
X141143681Y-41560364D01*
X141144900Y-41575851D01*
X141144900Y-41669199D01*
X141180712Y-41802852D01*
X141249895Y-41922681D01*
X141347735Y-42020521D01*
X141467564Y-42089704D01*
X141601217Y-42125516D01*
X141601219Y-42125516D01*
X141739581Y-42125516D01*
X141739583Y-42125516D01*
X141873236Y-42089704D01*
X141993065Y-42020521D01*
X142090905Y-41922681D01*
X142160088Y-41802852D01*
X142195900Y-41669199D01*
X142195900Y-41530833D01*
X142160088Y-41397180D01*
X142090905Y-41277351D01*
X141993065Y-41179511D01*
X141873236Y-41110328D01*
X141739583Y-41074516D01*
X141739581Y-41074516D01*
X141646235Y-41074516D01*
X141588044Y-41055609D01*
X141576231Y-41045520D01*
X140908196Y-40377485D01*
X140880419Y-40322968D01*
X140879200Y-40307481D01*
X140879200Y-39826756D01*
X140879201Y-39826743D01*
X140879201Y-39733062D01*
X140879200Y-39733060D01*
X140857019Y-39650280D01*
X140857017Y-39650275D01*
X140840218Y-39621180D01*
X140840216Y-39621177D01*
X140817925Y-39582566D01*
X140814165Y-39576054D01*
X140796450Y-39558339D01*
X140753562Y-39515450D01*
X140753562Y-39515451D01*
X140724462Y-39486351D01*
X140718859Y-39483116D01*
X140707050Y-39476298D01*
X140649999Y-39443359D01*
X140609059Y-39397889D01*
X140600500Y-39357623D01*
X140600500Y-39199256D01*
X140600501Y-39199243D01*
X140600501Y-39099502D01*
X140600500Y-39099484D01*
X140600500Y-39004943D01*
X140600498Y-39004931D01*
X140586285Y-38933481D01*
X140585966Y-38931876D01*
X140530601Y-38849015D01*
X140530599Y-38849013D01*
X140447742Y-38793651D01*
X140447740Y-38793650D01*
X140447737Y-38793649D01*
X140447736Y-38793649D01*
X140374684Y-38779117D01*
X140374674Y-38779116D01*
X140374673Y-38779116D01*
X140333634Y-38779116D01*
X140275443Y-38760209D01*
X140263630Y-38750120D01*
X137059696Y-35546185D01*
X137031919Y-35491668D01*
X137030700Y-35476181D01*
X137030700Y-34296751D01*
X137049607Y-34238560D01*
X137059696Y-34226747D01*
X137091331Y-34195112D01*
X137145848Y-34167335D01*
X137161335Y-34166116D01*
X137206365Y-34166116D01*
X137264556Y-34185023D01*
X137276369Y-34195112D01*
X137308104Y-34226847D01*
X137335881Y-34281364D01*
X137337100Y-34296851D01*
X137337100Y-34565763D01*
X137337100Y-34651469D01*
X137346265Y-34685673D01*
X137359283Y-34734259D01*
X137402131Y-34808473D01*
X137402133Y-34808475D01*
X137402135Y-34808478D01*
X142287638Y-39693981D01*
X142287640Y-39693982D01*
X142287642Y-39693984D01*
X142361857Y-39736832D01*
X142361855Y-39736832D01*
X142361859Y-39736833D01*
X142361861Y-39736834D01*
X142444647Y-39759016D01*
X142530353Y-39759016D01*
X142617422Y-39759016D01*
X142675613Y-39777923D01*
X142687425Y-39788012D01*
X142726157Y-39826743D01*
X142753435Y-39854021D01*
X142873264Y-39923204D01*
X143006917Y-39959016D01*
X143006919Y-39959016D01*
X143145281Y-39959016D01*
X143145283Y-39959016D01*
X143278936Y-39923204D01*
X143398765Y-39854021D01*
X143496605Y-39756181D01*
X143565788Y-39636352D01*
X143601600Y-39502699D01*
X143601600Y-39364333D01*
X143565788Y-39230680D01*
X143496605Y-39110851D01*
X143398765Y-39013011D01*
X143278936Y-38943828D01*
X143145283Y-38908016D01*
X143006917Y-38908016D01*
X142873264Y-38943828D01*
X142767410Y-39004943D01*
X142753432Y-39013013D01*
X142710380Y-39056064D01*
X142655863Y-39083840D01*
X142595431Y-39074268D01*
X142570374Y-39056063D01*
X138017096Y-34502785D01*
X137989319Y-34448268D01*
X137988100Y-34432781D01*
X137988100Y-34078164D01*
X137983076Y-34059413D01*
X137965918Y-33995378D01*
X137923065Y-33921154D01*
X137905251Y-33903340D01*
X137862463Y-33860551D01*
X137582062Y-33580151D01*
X137582057Y-33580147D01*
X137507842Y-33537299D01*
X137507844Y-33537299D01*
X137475721Y-33528692D01*
X137425053Y-33515116D01*
X137028353Y-33515116D01*
X136942647Y-33515116D01*
X136891978Y-33528692D01*
X136859856Y-33537299D01*
X136785642Y-33580147D01*
X136444731Y-33921058D01*
X136401883Y-33995272D01*
X136401882Y-33995277D01*
X136384697Y-34059413D01*
X136384697Y-34059414D01*
X136384696Y-34059413D01*
X136379700Y-34078059D01*
X135768446Y-34078059D01*
X135772507Y-34054654D01*
X135772507Y-34054651D01*
X135774494Y-34043201D01*
X135777015Y-34026208D01*
X135816068Y-33709572D01*
X135817752Y-33692476D01*
X135841222Y-33374304D01*
X135842065Y-33357146D01*
X135849894Y-33038206D01*
X135850000Y-33029616D01*
X135850000Y-28613679D01*
X135868907Y-28555488D01*
X135918407Y-28519524D01*
X135979593Y-28519524D01*
X135989114Y-28523170D01*
G37*
%TD.AperFunction*%
%TA.AperFunction,Conductor*%
G36*
X122124680Y-28547556D02*
G01*
X122149474Y-28603492D01*
X122150000Y-28613679D01*
X122150000Y-33029653D01*
X122150105Y-33038182D01*
X122157934Y-33357130D01*
X122157935Y-33357146D01*
X122158778Y-33374304D01*
X122182248Y-33692476D01*
X122183932Y-33709572D01*
X122200865Y-33846859D01*
X122222986Y-34026221D01*
X122225509Y-34043223D01*
X122280045Y-34357524D01*
X122283402Y-34374403D01*
X122345621Y-34651469D01*
X122353302Y-34685673D01*
X122357476Y-34702337D01*
X122357480Y-34702352D01*
X122442560Y-35009794D01*
X122442567Y-35009816D01*
X122447553Y-35026256D01*
X122447561Y-35026281D01*
X122447564Y-35026290D01*
X122547616Y-35329152D01*
X122553430Y-35345401D01*
X122668227Y-35643000D01*
X122668234Y-35643018D01*
X122668236Y-35643022D01*
X122674810Y-35658893D01*
X122729207Y-35781611D01*
X122804106Y-35950581D01*
X122811434Y-35966075D01*
X122954884Y-36251059D01*
X122962975Y-36266198D01*
X123120241Y-36543812D01*
X123129053Y-36558513D01*
X123129066Y-36558534D01*
X123299749Y-36828072D01*
X123299762Y-36828092D01*
X123299763Y-36828093D01*
X123309288Y-36842349D01*
X123431941Y-37016503D01*
X123450000Y-37073508D01*
X123450000Y-44779653D01*
X123450105Y-44788181D01*
X123451710Y-44853533D01*
X123456370Y-45043357D01*
X123457212Y-45060515D01*
X123475988Y-45315052D01*
X123475990Y-45315072D01*
X123477672Y-45332155D01*
X123508913Y-45585452D01*
X123511434Y-45602454D01*
X123555068Y-45853912D01*
X123558423Y-45870785D01*
X123614334Y-46119763D01*
X123614342Y-46119798D01*
X123618506Y-46136424D01*
X123618517Y-46136466D01*
X123686587Y-46382440D01*
X123686589Y-46382445D01*
X123691576Y-46398884D01*
X123691582Y-46398902D01*
X123691585Y-46398912D01*
X123771623Y-46641194D01*
X123777437Y-46657443D01*
X123869275Y-46895524D01*
X123875845Y-46911385D01*
X123979292Y-47144758D01*
X123986620Y-47160252D01*
X124101381Y-47388242D01*
X124109472Y-47403381D01*
X124235288Y-47625477D01*
X124242341Y-47637243D01*
X124244100Y-47640178D01*
X124244112Y-47640197D01*
X124315006Y-47752152D01*
X124330163Y-47811430D01*
X124307584Y-47868296D01*
X124255891Y-47901030D01*
X124231365Y-47904116D01*
X124230817Y-47904116D01*
X124097164Y-47939928D01*
X123977335Y-48009111D01*
X123879495Y-48106951D01*
X123810312Y-48226780D01*
X123774500Y-48360433D01*
X123774500Y-48498799D01*
X123810312Y-48632452D01*
X123879495Y-48752281D01*
X123977335Y-48850121D01*
X124097164Y-48919304D01*
X124230817Y-48955116D01*
X124324166Y-48955116D01*
X124382357Y-48974023D01*
X124394169Y-48984112D01*
X124510573Y-49100516D01*
X124570670Y-49160612D01*
X124598448Y-49215129D01*
X124588877Y-49275561D01*
X124545612Y-49318826D01*
X124500667Y-49329616D01*
X121200000Y-49329616D01*
X121200000Y-49329617D01*
X121200000Y-60501980D01*
X121181093Y-60560171D01*
X121131593Y-60596135D01*
X121070407Y-60596135D01*
X121056489Y-60590409D01*
X120658740Y-60390200D01*
X120654454Y-60387910D01*
X120654452Y-60387909D01*
X120329438Y-60203790D01*
X119902802Y-59962103D01*
X119898634Y-59959605D01*
X119168788Y-59497437D01*
X119164748Y-59494737D01*
X119142106Y-59478791D01*
X118458452Y-58997307D01*
X118454560Y-58994420D01*
X118398203Y-58950439D01*
X117773543Y-58462950D01*
X117769787Y-58459868D01*
X117395703Y-58137181D01*
X117115627Y-57895585D01*
X117112035Y-57892330D01*
X117084805Y-57866405D01*
X116955608Y-57743398D01*
X116886921Y-57678002D01*
X116857814Y-57624184D01*
X116865900Y-57563535D01*
X116908090Y-57519222D01*
X116929576Y-57510672D01*
X116929656Y-57510649D01*
X116929669Y-57510648D01*
X117460267Y-57290867D01*
X117915902Y-56941246D01*
X118265523Y-56485611D01*
X118485304Y-55955013D01*
X118560267Y-55385611D01*
X118485304Y-54816209D01*
X118265523Y-54285611D01*
X117915902Y-53829976D01*
X117915897Y-53829972D01*
X117915896Y-53829971D01*
X117722010Y-53681198D01*
X117460267Y-53480355D01*
X117351260Y-53435203D01*
X117194968Y-53370464D01*
X116929669Y-53260574D01*
X116929667Y-53260573D01*
X116929665Y-53260573D01*
X116360268Y-53185611D01*
X116360266Y-53185611D01*
X115790868Y-53260573D01*
X115790862Y-53260575D01*
X115260268Y-53480354D01*
X114804637Y-53829971D01*
X114804627Y-53829981D01*
X114455011Y-54285609D01*
X114455010Y-54285611D01*
X114378246Y-54470935D01*
X114338509Y-54517461D01*
X114279014Y-54531744D01*
X114222486Y-54508329D01*
X114203141Y-54486014D01*
X114200858Y-54482409D01*
X113820006Y-53880975D01*
X113817511Y-53876812D01*
X113570505Y-53440785D01*
X113391702Y-53125154D01*
X113389415Y-53120875D01*
X113366158Y-53074672D01*
X113144116Y-52633550D01*
X113001019Y-52349265D01*
X112998941Y-52344872D01*
X112763168Y-51812977D01*
X112648850Y-51555079D01*
X112646997Y-51550604D01*
X112636329Y-51522948D01*
X112336087Y-50744600D01*
X112334469Y-50740074D01*
X112111419Y-50064895D01*
X112063482Y-49919787D01*
X112062071Y-49915137D01*
X112060743Y-49910340D01*
X111831666Y-49082557D01*
X111830487Y-49077847D01*
X111808959Y-48981979D01*
X111641212Y-48234973D01*
X111640266Y-48230215D01*
X111634795Y-48198684D01*
X111492570Y-47379030D01*
X111491866Y-47374284D01*
X111386116Y-46516879D01*
X111385640Y-46512052D01*
X111385335Y-46507923D01*
X111322087Y-45650494D01*
X111321850Y-45645647D01*
X111320790Y-45602451D01*
X111300649Y-44782019D01*
X111300649Y-44777212D01*
X111321850Y-43913575D01*
X111322088Y-43908730D01*
X111326989Y-43842294D01*
X111361479Y-43374712D01*
X111384616Y-43318072D01*
X111434586Y-43286371D01*
X111507891Y-43266730D01*
X111588111Y-43220414D01*
X111622014Y-43200841D01*
X111622014Y-43200840D01*
X111622019Y-43200838D01*
X111715205Y-43107652D01*
X111781097Y-42993524D01*
X111815205Y-42866230D01*
X111815205Y-42734446D01*
X111781097Y-42607152D01*
X111754450Y-42560999D01*
X111724147Y-42508512D01*
X111711426Y-42448664D01*
X111736313Y-42392768D01*
X111739862Y-42389027D01*
X111822499Y-42306391D01*
X111838671Y-42278381D01*
X111838673Y-42278378D01*
X114256476Y-42278378D01*
X114256476Y-42455667D01*
X114291062Y-42629542D01*
X114291062Y-42629544D01*
X114312428Y-42681127D01*
X114312429Y-42681128D01*
X114735238Y-42437018D01*
X114760439Y-42531067D01*
X114816392Y-42627979D01*
X114885239Y-42696826D01*
X114459364Y-42942705D01*
X114582757Y-43066097D01*
X114730167Y-43164593D01*
X114893955Y-43232436D01*
X115067831Y-43267022D01*
X115067835Y-43267023D01*
X115245117Y-43267023D01*
X115245120Y-43267022D01*
X115418993Y-43232437D01*
X115419004Y-43232434D01*
X115470580Y-43211069D01*
X115226471Y-42788260D01*
X115320520Y-42763060D01*
X115417432Y-42707107D01*
X115486279Y-42638259D01*
X115732158Y-43064132D01*
X115855546Y-42940745D01*
X115855553Y-42940736D01*
X115954046Y-42793331D01*
X116021889Y-42629544D01*
X116021889Y-42629542D01*
X116056475Y-42455667D01*
X116056476Y-42455664D01*
X116056476Y-42278381D01*
X116056475Y-42278378D01*
X116021890Y-42104505D01*
X116021888Y-42104499D01*
X116000521Y-42052916D01*
X115577712Y-42297025D01*
X115552513Y-42202979D01*
X115496560Y-42106067D01*
X115427710Y-42037217D01*
X115853586Y-41791339D01*
X115730194Y-41667948D01*
X115582784Y-41569452D01*
X115418996Y-41501609D01*
X115245120Y-41467023D01*
X115067831Y-41467023D01*
X114893954Y-41501609D01*
X114893947Y-41501611D01*
X114842370Y-41522975D01*
X114842369Y-41522976D01*
X115086479Y-41945786D01*
X114992432Y-41970986D01*
X114895520Y-42026939D01*
X114826671Y-42095787D01*
X114580793Y-41669912D01*
X114457399Y-41793306D01*
X114358904Y-41940715D01*
X114291062Y-42104501D01*
X114291062Y-42104503D01*
X114256476Y-42278378D01*
X111838673Y-42278378D01*
X111870058Y-42224018D01*
X111888389Y-42192267D01*
X111888389Y-42192265D01*
X111888391Y-42192263D01*
X111922499Y-42064969D01*
X111922499Y-41933185D01*
X111888391Y-41805891D01*
X111888389Y-41805888D01*
X111888389Y-41805886D01*
X111846164Y-41732751D01*
X111833442Y-41672903D01*
X111858328Y-41617007D01*
X111871643Y-41604701D01*
X111872649Y-41603928D01*
X111872660Y-41603922D01*
X111965846Y-41510736D01*
X112031738Y-41396608D01*
X112065846Y-41269314D01*
X112065846Y-41137530D01*
X112031738Y-41010236D01*
X112001916Y-40958584D01*
X111989195Y-40898736D01*
X112014081Y-40842841D01*
X112038153Y-40823348D01*
X112051776Y-40815483D01*
X112144962Y-40722297D01*
X112151936Y-40710218D01*
X112210852Y-40608173D01*
X112210852Y-40608171D01*
X112210854Y-40608169D01*
X112244962Y-40480875D01*
X112244962Y-40445162D01*
X114754216Y-40445162D01*
X114754217Y-40445167D01*
X114786249Y-40539533D01*
X114846443Y-40608169D01*
X114851958Y-40614457D01*
X114918772Y-40647407D01*
X116222142Y-40996644D01*
X116259311Y-40999080D01*
X116296477Y-41001516D01*
X116296477Y-41001515D01*
X116296481Y-41001516D01*
X116390848Y-40969483D01*
X116465772Y-40903775D01*
X116498722Y-40836961D01*
X116847959Y-39533591D01*
X116852831Y-39459252D01*
X116820798Y-39364885D01*
X116820798Y-39364884D01*
X116755092Y-39289963D01*
X116755091Y-39289962D01*
X116755090Y-39289961D01*
X116688276Y-39257011D01*
X116688273Y-39257010D01*
X116211206Y-39129180D01*
X115384906Y-38907774D01*
X115384904Y-38907773D01*
X115384901Y-38907773D01*
X115310570Y-38902901D01*
X115310565Y-38902902D01*
X115216199Y-38934934D01*
X115141278Y-39000640D01*
X115141277Y-39000641D01*
X115108325Y-39067459D01*
X114873722Y-39943010D01*
X114765075Y-40348489D01*
X114759088Y-40370831D01*
X114754216Y-40445162D01*
X112244962Y-40445162D01*
X112244962Y-40349091D01*
X112210854Y-40221797D01*
X112194130Y-40192830D01*
X112181409Y-40132986D01*
X112206294Y-40077090D01*
X112230365Y-40057596D01*
X112267433Y-40036196D01*
X112360619Y-39943010D01*
X112426511Y-39828882D01*
X112460619Y-39701588D01*
X112460619Y-39569804D01*
X112426511Y-39442510D01*
X112423843Y-39437889D01*
X112411120Y-39378044D01*
X112436003Y-39322147D01*
X112460074Y-39302653D01*
X112519942Y-39268089D01*
X112613128Y-39174903D01*
X112620422Y-39162270D01*
X112679018Y-39060779D01*
X112679018Y-39060777D01*
X112679020Y-39060775D01*
X112713128Y-38933481D01*
X112713128Y-38801697D01*
X112679020Y-38674403D01*
X112679018Y-38674400D01*
X112679018Y-38674398D01*
X112613131Y-38560279D01*
X112613129Y-38560277D01*
X112613128Y-38560275D01*
X112529549Y-38476696D01*
X112501774Y-38422182D01*
X112507189Y-38371067D01*
X112647009Y-38008597D01*
X112648844Y-38004165D01*
X112998945Y-37214348D01*
X113001019Y-37209965D01*
X113111148Y-36991177D01*
X113389426Y-36438332D01*
X113391692Y-36434092D01*
X113817524Y-35682395D01*
X113819995Y-35678272D01*
X114282196Y-34948374D01*
X114284857Y-34944392D01*
X114782329Y-34238038D01*
X114785179Y-34234195D01*
X115316698Y-33553117D01*
X115319745Y-33549403D01*
X115884039Y-32895230D01*
X115887245Y-32891693D01*
X116482978Y-32265975D01*
X116486360Y-32262593D01*
X117112067Y-31666870D01*
X117115604Y-31663664D01*
X117221935Y-31571942D01*
X117278344Y-31548253D01*
X117337908Y-31562244D01*
X117377873Y-31608574D01*
X117384749Y-31633985D01*
X117410951Y-31833007D01*
X117410951Y-31833009D01*
X117410952Y-31833010D01*
X117425299Y-31867646D01*
X117590299Y-32265993D01*
X117630733Y-32363608D01*
X117980354Y-32819243D01*
X118435989Y-33168864D01*
X118966587Y-33388645D01*
X119393638Y-33444867D01*
X119535988Y-33463608D01*
X119535989Y-33463608D01*
X119535990Y-33463608D01*
X119649869Y-33448615D01*
X120105391Y-33388645D01*
X120635989Y-33168864D01*
X121091624Y-32819243D01*
X121441245Y-32363608D01*
X121661026Y-31833010D01*
X121735989Y-31263608D01*
X121661026Y-30694206D01*
X121441245Y-30163608D01*
X121091624Y-29707973D01*
X121091619Y-29707969D01*
X121091618Y-29707968D01*
X120635987Y-29358350D01*
X120631530Y-29355777D01*
X120590592Y-29310305D01*
X120584201Y-29249454D01*
X120614797Y-29196468D01*
X120632233Y-29183908D01*
X120654468Y-29171312D01*
X120658708Y-29169046D01*
X121430392Y-28780613D01*
X121434699Y-28778576D01*
X122010881Y-28523171D01*
X122071742Y-28516876D01*
X122124680Y-28547556D01*
G37*
%TD.AperFunction*%
%TA.AperFunction,Conductor*%
G36*
X125794504Y-54404446D02*
G01*
X128477962Y-57087904D01*
X128505739Y-57142421D01*
X128505056Y-57177222D01*
X128479500Y-57305695D01*
X128479500Y-57453534D01*
X128508342Y-57598530D01*
X128564915Y-57735110D01*
X128574940Y-57750113D01*
X128591550Y-57809001D01*
X128570374Y-57866405D01*
X128519500Y-57900399D01*
X128492626Y-57904116D01*
X125724500Y-57904116D01*
X125666309Y-57885209D01*
X125630345Y-57835709D01*
X125625500Y-57805116D01*
X125625500Y-54474450D01*
X125644407Y-54416259D01*
X125693907Y-54380295D01*
X125755093Y-54380295D01*
X125794504Y-54404446D01*
G37*
%TD.AperFunction*%
%TD*%
%TA.AperFunction,Conductor*%
%TO.N,Board_3-GND*%
G36*
X175943509Y-67968820D02*
G01*
X176169700Y-68082675D01*
X176341259Y-68169031D01*
X176345538Y-68171318D01*
X177077469Y-68585952D01*
X177097196Y-68597127D01*
X177101359Y-68599622D01*
X177831221Y-69061800D01*
X177835240Y-69064486D01*
X178541557Y-69561931D01*
X178545439Y-69564810D01*
X179157607Y-70042551D01*
X179226476Y-70096297D01*
X179230231Y-70099378D01*
X179884362Y-70663636D01*
X179887941Y-70666880D01*
X179947435Y-70723523D01*
X180113078Y-70881229D01*
X180142185Y-70935047D01*
X180134099Y-70995696D01*
X180091909Y-71040009D01*
X180070441Y-71048554D01*
X180070335Y-71048582D01*
X179539734Y-71268364D01*
X179084103Y-71617981D01*
X179084093Y-71617991D01*
X178734476Y-72073622D01*
X178514697Y-72604216D01*
X178514695Y-72604222D01*
X178439733Y-73173620D01*
X178439733Y-73173621D01*
X178514330Y-73740249D01*
X178514696Y-73743023D01*
X178555810Y-73842281D01*
X178719979Y-74238621D01*
X178734477Y-74273621D01*
X178935320Y-74535364D01*
X179046533Y-74680301D01*
X179084098Y-74729256D01*
X179539733Y-75078877D01*
X180070331Y-75298658D01*
X180497382Y-75354880D01*
X180639732Y-75373621D01*
X180639733Y-75373621D01*
X180639734Y-75373621D01*
X180753613Y-75358628D01*
X181209135Y-75298658D01*
X181739733Y-75078877D01*
X182195368Y-74729256D01*
X182544989Y-74273621D01*
X182621753Y-74088295D01*
X182661488Y-74041771D01*
X182720983Y-74027487D01*
X182777511Y-74050901D01*
X182796857Y-74073217D01*
X183179989Y-74678250D01*
X183182487Y-74682418D01*
X183608289Y-75434062D01*
X183610579Y-75438347D01*
X183998979Y-76209965D01*
X184001057Y-76214358D01*
X184351142Y-77004137D01*
X184353001Y-77008626D01*
X184417072Y-77174724D01*
X184561343Y-77548734D01*
X184663899Y-77814599D01*
X184665536Y-77819175D01*
X184936516Y-78639443D01*
X184937927Y-78644093D01*
X185168331Y-79476670D01*
X185169511Y-79481383D01*
X185358784Y-80324249D01*
X185359732Y-80329015D01*
X185507423Y-81180170D01*
X185508136Y-81184976D01*
X185613881Y-82042342D01*
X185614358Y-82047178D01*
X185677910Y-82908730D01*
X185678148Y-82913583D01*
X185699349Y-83777185D01*
X185699349Y-83782045D01*
X185678148Y-84645647D01*
X185677910Y-84650500D01*
X185638520Y-85184517D01*
X185615383Y-85241159D01*
X185565411Y-85272861D01*
X185492104Y-85292503D01*
X185377985Y-85358390D01*
X185284791Y-85451584D01*
X185218904Y-85565703D01*
X185199911Y-85636587D01*
X185184795Y-85693002D01*
X185184795Y-85824786D01*
X185193151Y-85855971D01*
X185218903Y-85952081D01*
X185275852Y-86050719D01*
X185288573Y-86110568D01*
X185263686Y-86166463D01*
X185260119Y-86170222D01*
X185177501Y-86252840D01*
X185177497Y-86252845D01*
X185111610Y-86366964D01*
X185095053Y-86428757D01*
X185077501Y-86494263D01*
X185077501Y-86626047D01*
X185080316Y-86636551D01*
X185111610Y-86753345D01*
X185153835Y-86826480D01*
X185166557Y-86886328D01*
X185141670Y-86942224D01*
X185128371Y-86954519D01*
X185127343Y-86955307D01*
X185034150Y-87048500D01*
X184968263Y-87162619D01*
X184968262Y-87162624D01*
X184934154Y-87289918D01*
X184934154Y-87421702D01*
X184958808Y-87513712D01*
X184968263Y-87549000D01*
X184998082Y-87600647D01*
X185010804Y-87660495D01*
X184985917Y-87716391D01*
X184961848Y-87735882D01*
X184948228Y-87743745D01*
X184855034Y-87836939D01*
X184789147Y-87951058D01*
X184770755Y-88019698D01*
X184755038Y-88078357D01*
X184755038Y-88210141D01*
X184789146Y-88337435D01*
X184789147Y-88337437D01*
X184805868Y-88366398D01*
X184818590Y-88426246D01*
X184793704Y-88482142D01*
X184769633Y-88501635D01*
X184732569Y-88523034D01*
X184639377Y-88616226D01*
X184573490Y-88730345D01*
X184570779Y-88740463D01*
X184539381Y-88857644D01*
X184539381Y-88989428D01*
X184553013Y-89040303D01*
X184573489Y-89116723D01*
X184576158Y-89121345D01*
X184588878Y-89181194D01*
X184563991Y-89237089D01*
X184539921Y-89256580D01*
X184480062Y-89291139D01*
X184386868Y-89384333D01*
X184320981Y-89498452D01*
X184315215Y-89519971D01*
X184286872Y-89625751D01*
X184286872Y-89757535D01*
X184292923Y-89780116D01*
X184320981Y-89884833D01*
X184386868Y-89998952D01*
X184386870Y-89998954D01*
X184386872Y-89998957D01*
X184470448Y-90082533D01*
X184498224Y-90137048D01*
X184492809Y-90188165D01*
X184353001Y-90550604D01*
X184351142Y-90555093D01*
X184001057Y-91344872D01*
X183998979Y-91349265D01*
X183610579Y-92120883D01*
X183608289Y-92125168D01*
X183182487Y-92876812D01*
X183179989Y-92880980D01*
X182717821Y-93610826D01*
X182715121Y-93614866D01*
X182217699Y-94321151D01*
X182214804Y-94325054D01*
X181683334Y-95006071D01*
X181680252Y-95009827D01*
X181115978Y-95663978D01*
X181112714Y-95667579D01*
X180517047Y-96293227D01*
X180513612Y-96296662D01*
X179887953Y-96892339D01*
X179884352Y-96895603D01*
X179778066Y-96987285D01*
X179721653Y-97010977D01*
X179662089Y-96996985D01*
X179622125Y-96950655D01*
X179615250Y-96925246D01*
X179589048Y-96726222D01*
X179369267Y-96195624D01*
X179019646Y-95739989D01*
X179019641Y-95739985D01*
X179019640Y-95739984D01*
X178750308Y-95533319D01*
X178564011Y-95390368D01*
X178561647Y-95389389D01*
X178298712Y-95280477D01*
X178033413Y-95170587D01*
X178033411Y-95170586D01*
X178033409Y-95170586D01*
X177464012Y-95095624D01*
X177464010Y-95095624D01*
X176894612Y-95170586D01*
X176894606Y-95170588D01*
X176364012Y-95390367D01*
X175908381Y-95739984D01*
X175908371Y-95739994D01*
X175558754Y-96195625D01*
X175338975Y-96726219D01*
X175338973Y-96726225D01*
X175264011Y-97295623D01*
X175264011Y-97295624D01*
X175336573Y-97846793D01*
X175338974Y-97865026D01*
X175398028Y-98007595D01*
X175558066Y-98393962D01*
X175558755Y-98395624D01*
X175908376Y-98851259D01*
X175908380Y-98851262D01*
X175908381Y-98851263D01*
X176026772Y-98942107D01*
X176364011Y-99200880D01*
X176364016Y-99200882D01*
X176368463Y-99203450D01*
X176409403Y-99248920D01*
X176415798Y-99309770D01*
X176385205Y-99362758D01*
X176367758Y-99375325D01*
X176345558Y-99387901D01*
X176341274Y-99390191D01*
X175569649Y-99778595D01*
X175565256Y-99780673D01*
X174989119Y-100036057D01*
X174928258Y-100042353D01*
X174875320Y-100011673D01*
X174850526Y-99955737D01*
X174850000Y-99945550D01*
X174850000Y-95529578D01*
X174849894Y-95521049D01*
X174849894Y-95521026D01*
X174842065Y-95202086D01*
X174841222Y-95184928D01*
X174817752Y-94866756D01*
X174816068Y-94849660D01*
X174777015Y-94533024D01*
X174774494Y-94516031D01*
X174768427Y-94481067D01*
X174719954Y-94201707D01*
X174716597Y-94184828D01*
X174680318Y-94023273D01*
X174646698Y-93873559D01*
X174642524Y-93856895D01*
X174578522Y-93625623D01*
X174557439Y-93549437D01*
X174557433Y-93549416D01*
X174552447Y-93532976D01*
X174452371Y-93230043D01*
X174446583Y-93213868D01*
X174446577Y-93213853D01*
X174446569Y-93213830D01*
X174331772Y-92916231D01*
X174331764Y-92916210D01*
X174325190Y-92900339D01*
X174212781Y-92646749D01*
X174195893Y-92608650D01*
X174188565Y-92593156D01*
X174094590Y-92406461D01*
X174045116Y-92308173D01*
X174037018Y-92293022D01*
X173879766Y-92015433D01*
X173870934Y-92000698D01*
X173700251Y-91731160D01*
X173690707Y-91716876D01*
X173636123Y-91639372D01*
X173568059Y-91542728D01*
X173550000Y-91485723D01*
X173550000Y-89099976D01*
X180147168Y-89099976D01*
X180147169Y-89099981D01*
X180179201Y-89194347D01*
X180233780Y-89256580D01*
X180244910Y-89269271D01*
X180311724Y-89302221D01*
X181615094Y-89651458D01*
X181652263Y-89653894D01*
X181689429Y-89656330D01*
X181689429Y-89656329D01*
X181689433Y-89656330D01*
X181783800Y-89624297D01*
X181858724Y-89558589D01*
X181891674Y-89491775D01*
X182240911Y-88188405D01*
X182243956Y-88141943D01*
X182245783Y-88114069D01*
X182245782Y-88114068D01*
X182245783Y-88114066D01*
X182213750Y-88019699D01*
X182213750Y-88019698D01*
X182148044Y-87944777D01*
X182148043Y-87944776D01*
X182148042Y-87944775D01*
X182081228Y-87911825D01*
X182081225Y-87911824D01*
X181453945Y-87743745D01*
X180777858Y-87562588D01*
X180777856Y-87562587D01*
X180777853Y-87562587D01*
X180703522Y-87557715D01*
X180703517Y-87557716D01*
X180609151Y-87589748D01*
X180534230Y-87655454D01*
X180534229Y-87655455D01*
X180501277Y-87722273D01*
X180237900Y-88705211D01*
X180163420Y-88983176D01*
X180152040Y-89025645D01*
X180147168Y-89099976D01*
X173550000Y-89099976D01*
X173550000Y-86103564D01*
X180943524Y-86103564D01*
X180943524Y-86280853D01*
X180978110Y-86454728D01*
X180978110Y-86454730D01*
X180999476Y-86506313D01*
X180999477Y-86506314D01*
X181422286Y-86262204D01*
X181447487Y-86356253D01*
X181503440Y-86453165D01*
X181572287Y-86522012D01*
X181146412Y-86767891D01*
X181269805Y-86891283D01*
X181417215Y-86989779D01*
X181581003Y-87057622D01*
X181754879Y-87092208D01*
X181754883Y-87092209D01*
X181932165Y-87092209D01*
X181932168Y-87092208D01*
X182106041Y-87057623D01*
X182106052Y-87057620D01*
X182157628Y-87036255D01*
X181913519Y-86613446D01*
X182007568Y-86588246D01*
X182104480Y-86532293D01*
X182173327Y-86463445D01*
X182419206Y-86889318D01*
X182542594Y-86765931D01*
X182542601Y-86765922D01*
X182641094Y-86618517D01*
X182708937Y-86454730D01*
X182708937Y-86454728D01*
X182743523Y-86280853D01*
X182743524Y-86280850D01*
X182743524Y-86103567D01*
X182743523Y-86103564D01*
X182708938Y-85929691D01*
X182708936Y-85929685D01*
X182687569Y-85878102D01*
X182264760Y-86122211D01*
X182239561Y-86028165D01*
X182183608Y-85931253D01*
X182114758Y-85862403D01*
X182540634Y-85616525D01*
X182417242Y-85493134D01*
X182269832Y-85394638D01*
X182106044Y-85326795D01*
X181932168Y-85292209D01*
X181754879Y-85292209D01*
X181581002Y-85326795D01*
X181580995Y-85326797D01*
X181529418Y-85348161D01*
X181529417Y-85348162D01*
X181773527Y-85770972D01*
X181679480Y-85796172D01*
X181582568Y-85852125D01*
X181513719Y-85920973D01*
X181267841Y-85495098D01*
X181144447Y-85618492D01*
X181045952Y-85765901D01*
X180978110Y-85929687D01*
X180978110Y-85929689D01*
X180943524Y-86103564D01*
X173550000Y-86103564D01*
X173550000Y-83779578D01*
X173549894Y-83771050D01*
X173549894Y-83771027D01*
X173543630Y-83515875D01*
X173542788Y-83498717D01*
X173524012Y-83244180D01*
X173522328Y-83227084D01*
X173508006Y-83110963D01*
X173491086Y-82973779D01*
X173488565Y-82956777D01*
X173452721Y-82750212D01*
X173444930Y-82705310D01*
X173441579Y-82688461D01*
X173434330Y-82656181D01*
X173419278Y-82589150D01*
X173385658Y-82439434D01*
X173381484Y-82422770D01*
X173313411Y-82176787D01*
X173308424Y-82160348D01*
X173228364Y-81918001D01*
X173222576Y-81901826D01*
X173222570Y-81901811D01*
X173222562Y-81901788D01*
X173130724Y-81663707D01*
X173124154Y-81647846D01*
X173020707Y-81414473D01*
X173013379Y-81398979D01*
X172952155Y-81277348D01*
X172898619Y-81170990D01*
X172890521Y-81155839D01*
X172764719Y-80933768D01*
X172755887Y-80919033D01*
X172715412Y-80855116D01*
X172684994Y-80807080D01*
X172669837Y-80747802D01*
X172692416Y-80690936D01*
X172744109Y-80658202D01*
X172768635Y-80655116D01*
X172769181Y-80655116D01*
X172769183Y-80655116D01*
X172902836Y-80619304D01*
X173022665Y-80550121D01*
X173120505Y-80452281D01*
X173189688Y-80332452D01*
X173225500Y-80198799D01*
X173225500Y-80060433D01*
X173189688Y-79926780D01*
X173120505Y-79806951D01*
X173022665Y-79709111D01*
X172902836Y-79639928D01*
X172769183Y-79604116D01*
X172769181Y-79604116D01*
X172675833Y-79604116D01*
X172617642Y-79585209D01*
X172605829Y-79575119D01*
X172429330Y-79398619D01*
X172401553Y-79344103D01*
X172411124Y-79283671D01*
X172454389Y-79240406D01*
X172499334Y-79229616D01*
X175799999Y-79229616D01*
X175800000Y-79229616D01*
X175800000Y-68057250D01*
X175818907Y-67999059D01*
X175868407Y-67963095D01*
X175929593Y-67963095D01*
X175943509Y-67968820D01*
G37*
%TD.AperFunction*%
%TA.AperFunction,Conductor*%
G36*
X168561337Y-66267578D02*
G01*
X168573508Y-66284329D01*
X168592514Y-66317249D01*
X168592516Y-66317251D01*
X168592518Y-66317254D01*
X168685704Y-66410440D01*
X168685706Y-66410441D01*
X168685708Y-66410443D01*
X168799828Y-66476330D01*
X168799826Y-66476330D01*
X168799830Y-66476331D01*
X168799832Y-66476332D01*
X168927126Y-66510440D01*
X168927128Y-66510440D01*
X169058908Y-66510440D01*
X169058910Y-66510440D01*
X169186204Y-66476332D01*
X169186206Y-66476330D01*
X169186208Y-66476330D01*
X169300327Y-66410443D01*
X169300327Y-66410442D01*
X169300332Y-66410440D01*
X169393518Y-66317254D01*
X169393519Y-66317251D01*
X169395933Y-66314838D01*
X169450449Y-66287060D01*
X169510882Y-66296631D01*
X169551673Y-66335340D01*
X169583432Y-66390348D01*
X169676618Y-66483534D01*
X169676620Y-66483535D01*
X169676622Y-66483537D01*
X169790742Y-66549424D01*
X169790740Y-66549424D01*
X169790744Y-66549425D01*
X169790746Y-66549426D01*
X169918040Y-66583534D01*
X169918042Y-66583534D01*
X170049822Y-66583534D01*
X170049824Y-66583534D01*
X170177118Y-66549426D01*
X170177120Y-66549424D01*
X170177122Y-66549424D01*
X170291241Y-66483537D01*
X170291241Y-66483536D01*
X170291246Y-66483534D01*
X170384432Y-66390348D01*
X170429691Y-66311957D01*
X170475157Y-66271019D01*
X170527540Y-66263203D01*
X170594683Y-66271484D01*
X170599433Y-66272189D01*
X171450608Y-66419883D01*
X171455357Y-66420828D01*
X172298231Y-66610103D01*
X172302931Y-66611279D01*
X172389377Y-66635202D01*
X172440417Y-66668945D01*
X172461875Y-66726244D01*
X172445556Y-66785213D01*
X172397693Y-66823328D01*
X172362972Y-66829616D01*
X172050000Y-66829616D01*
X172050000Y-66829617D01*
X172050000Y-69984360D01*
X172031093Y-70042551D01*
X171981593Y-70078515D01*
X171920407Y-70078515D01*
X171901501Y-70070097D01*
X171825639Y-70026298D01*
X171798043Y-70018904D01*
X171742853Y-70004116D01*
X164109677Y-70004116D01*
X164051486Y-69985209D01*
X164015522Y-69935709D01*
X164015522Y-69874523D01*
X164039671Y-69835114D01*
X164085005Y-69789781D01*
X164154188Y-69669952D01*
X164190000Y-69536299D01*
X164190000Y-69397933D01*
X164154188Y-69264280D01*
X164085005Y-69144451D01*
X163987165Y-69046611D01*
X163867336Y-68977428D01*
X163733683Y-68941616D01*
X163595317Y-68941616D01*
X163461664Y-68977428D01*
X163341832Y-69046613D01*
X163275825Y-69112620D01*
X163221308Y-69140397D01*
X163205822Y-69141616D01*
X161179032Y-69141616D01*
X161179016Y-69141615D01*
X161172953Y-69141615D01*
X161087248Y-69141615D01*
X161087245Y-69141615D01*
X161004465Y-69163796D01*
X160930235Y-69206653D01*
X160869634Y-69267253D01*
X160869635Y-69267254D01*
X157990769Y-72146120D01*
X157936252Y-72173897D01*
X157920765Y-72175116D01*
X157827417Y-72175116D01*
X157693764Y-72210928D01*
X157573935Y-72280111D01*
X157476095Y-72377951D01*
X157406912Y-72497780D01*
X157371100Y-72631433D01*
X157371100Y-72769799D01*
X157406912Y-72903452D01*
X157476095Y-73023281D01*
X157573935Y-73121121D01*
X157693764Y-73190304D01*
X157827417Y-73226116D01*
X157827419Y-73226116D01*
X157965781Y-73226116D01*
X157965783Y-73226116D01*
X158099436Y-73190304D01*
X158219265Y-73121121D01*
X158317105Y-73023281D01*
X158386288Y-72903452D01*
X158422100Y-72769799D01*
X158422100Y-72676450D01*
X158441007Y-72618259D01*
X158451096Y-72606446D01*
X160705496Y-70352046D01*
X160760013Y-70324269D01*
X160820445Y-70333840D01*
X160863710Y-70377105D01*
X160874500Y-70422050D01*
X160874500Y-73281273D01*
X160855593Y-73339464D01*
X160806093Y-73375428D01*
X160744907Y-73375428D01*
X160695407Y-73339464D01*
X160679874Y-73306899D01*
X160672688Y-73280080D01*
X160603505Y-73160251D01*
X160505665Y-73062411D01*
X160385836Y-72993228D01*
X160252183Y-72957416D01*
X160113817Y-72957416D01*
X159980164Y-72993228D01*
X159860335Y-73062411D01*
X159762494Y-73160252D01*
X159712816Y-73246296D01*
X159667346Y-73287236D01*
X159608622Y-73293407D01*
X159608615Y-73293463D01*
X159608383Y-73293432D01*
X159606496Y-73293631D01*
X159602367Y-73292640D01*
X159602183Y-73292616D01*
X159463817Y-73292616D01*
X159330164Y-73328428D01*
X159210335Y-73397611D01*
X159112495Y-73495451D01*
X159043312Y-73615280D01*
X159026412Y-73678354D01*
X159007500Y-73748934D01*
X159007500Y-73842281D01*
X158988593Y-73900472D01*
X158978504Y-73912285D01*
X157723731Y-75167058D01*
X157680882Y-75241276D01*
X157680881Y-75241276D01*
X157680882Y-75241277D01*
X157658700Y-75324063D01*
X157658700Y-77159238D01*
X157639793Y-77217429D01*
X157629704Y-77229241D01*
X157563697Y-77295248D01*
X157563695Y-77295250D01*
X157563695Y-77295251D01*
X157494512Y-77415080D01*
X157458700Y-77548733D01*
X157458700Y-77687099D01*
X157494512Y-77820752D01*
X157563695Y-77940581D01*
X157661535Y-78038421D01*
X157781364Y-78107604D01*
X157915017Y-78143416D01*
X157915019Y-78143416D01*
X158053381Y-78143416D01*
X158053383Y-78143416D01*
X158187036Y-78107604D01*
X158306865Y-78038421D01*
X158404705Y-77940581D01*
X158473888Y-77820752D01*
X158509700Y-77687099D01*
X158509700Y-77548733D01*
X158473888Y-77415080D01*
X158404705Y-77295251D01*
X158404702Y-77295248D01*
X158338696Y-77229241D01*
X158310919Y-77174724D01*
X158309700Y-77159238D01*
X158309700Y-75542751D01*
X158328607Y-75484560D01*
X158338696Y-75472747D01*
X159438831Y-74372612D01*
X159493348Y-74344835D01*
X159508835Y-74343616D01*
X159602181Y-74343616D01*
X159602183Y-74343616D01*
X159735836Y-74307804D01*
X159855665Y-74238621D01*
X159953505Y-74140781D01*
X160003183Y-74054734D01*
X160048650Y-74013795D01*
X160107375Y-74007622D01*
X160107383Y-74007569D01*
X160107604Y-74007598D01*
X160109500Y-74007399D01*
X160113631Y-74008391D01*
X160113816Y-74008416D01*
X160113817Y-74008416D01*
X160153800Y-74008416D01*
X160211991Y-74027323D01*
X160247955Y-74076823D01*
X160252800Y-74107416D01*
X160252800Y-79279081D01*
X160233893Y-79337272D01*
X160223804Y-79349085D01*
X158188269Y-81384620D01*
X158133752Y-81412397D01*
X158118265Y-81413616D01*
X157113278Y-81413616D01*
X157055087Y-81394709D01*
X157043275Y-81384620D01*
X156977267Y-81318613D01*
X156977265Y-81318611D01*
X156865795Y-81254254D01*
X156824856Y-81208786D01*
X156818460Y-81147936D01*
X156849053Y-81094948D01*
X156865791Y-81082786D01*
X156937265Y-81041521D01*
X157035105Y-80943681D01*
X157104288Y-80823852D01*
X157140100Y-80690199D01*
X157140100Y-80551833D01*
X157104288Y-80418180D01*
X157035105Y-80298351D01*
X156937265Y-80200511D01*
X156817436Y-80131328D01*
X156683783Y-80095516D01*
X156545417Y-80095516D01*
X156411764Y-80131328D01*
X156294901Y-80198799D01*
X156291932Y-80200513D01*
X156225925Y-80266520D01*
X156171408Y-80294297D01*
X156155922Y-80295516D01*
X155507753Y-80295516D01*
X155422047Y-80295516D01*
X155371378Y-80309092D01*
X155339256Y-80317699D01*
X155265042Y-80360547D01*
X152671631Y-82953958D01*
X152628783Y-83028173D01*
X152628781Y-83028177D01*
X152619242Y-83063774D01*
X152619243Y-83063775D01*
X152606600Y-83110960D01*
X152606600Y-83177838D01*
X152587693Y-83236029D01*
X152577604Y-83247841D01*
X152511597Y-83313848D01*
X152511595Y-83313850D01*
X152511595Y-83313851D01*
X152442412Y-83433680D01*
X152406600Y-83567333D01*
X152406600Y-83705699D01*
X152442412Y-83839352D01*
X152511595Y-83959181D01*
X152609435Y-84057021D01*
X152729264Y-84126204D01*
X152862917Y-84162016D01*
X152862919Y-84162016D01*
X153001281Y-84162016D01*
X153001283Y-84162016D01*
X153134936Y-84126204D01*
X153254765Y-84057021D01*
X153352605Y-83959181D01*
X153421788Y-83839352D01*
X153457600Y-83705699D01*
X153457600Y-83567333D01*
X153421788Y-83433680D01*
X153387414Y-83374143D01*
X153374693Y-83314296D01*
X153399580Y-83258400D01*
X153452568Y-83227807D01*
X153513418Y-83234203D01*
X153543151Y-83254637D01*
X153586835Y-83298321D01*
X153706664Y-83367504D01*
X153840317Y-83403316D01*
X153840319Y-83403316D01*
X153978681Y-83403316D01*
X153978683Y-83403316D01*
X154112336Y-83367504D01*
X154232165Y-83298321D01*
X154330005Y-83200481D01*
X154399188Y-83080652D01*
X154435000Y-82946999D01*
X154435000Y-82853651D01*
X154453907Y-82795460D01*
X154463996Y-82783647D01*
X154497431Y-82750212D01*
X154551948Y-82722435D01*
X154567435Y-82721216D01*
X158435751Y-82721216D01*
X158435753Y-82721216D01*
X158518539Y-82699034D01*
X158518541Y-82699032D01*
X158518543Y-82699032D01*
X158592757Y-82656184D01*
X158592757Y-82656183D01*
X158592762Y-82656181D01*
X160164831Y-81084112D01*
X160219348Y-81056335D01*
X160234835Y-81055116D01*
X160319181Y-81055116D01*
X160319183Y-81055116D01*
X160452836Y-81019304D01*
X160572665Y-80950121D01*
X160605671Y-80917115D01*
X160638675Y-80884112D01*
X160693192Y-80856335D01*
X160708678Y-80855116D01*
X161242851Y-80855116D01*
X161242853Y-80855116D01*
X161325638Y-80832934D01*
X161399862Y-80790081D01*
X161460465Y-80729478D01*
X161503318Y-80655254D01*
X161525500Y-80572469D01*
X161525500Y-70754116D01*
X161544407Y-70695925D01*
X161593907Y-70659961D01*
X161624500Y-70655116D01*
X161952626Y-70655116D01*
X162010817Y-70674023D01*
X162046781Y-70723523D01*
X162046781Y-70784709D01*
X162034940Y-70809119D01*
X162024915Y-70824121D01*
X161968342Y-70960701D01*
X161939500Y-71105697D01*
X161939500Y-71253534D01*
X161968342Y-71398530D01*
X162015758Y-71513001D01*
X162024916Y-71535111D01*
X162107049Y-71658032D01*
X162211584Y-71762567D01*
X162334505Y-71844700D01*
X162471087Y-71901274D01*
X162616082Y-71930116D01*
X162616083Y-71930116D01*
X162763917Y-71930116D01*
X162763918Y-71930116D01*
X162892392Y-71904560D01*
X162953153Y-71911750D01*
X162981711Y-71931654D01*
X163434016Y-72383960D01*
X163461793Y-72438476D01*
X163459639Y-72479585D01*
X163434600Y-72573033D01*
X163434600Y-72711399D01*
X163470412Y-72845052D01*
X163539595Y-72964881D01*
X163637435Y-73062721D01*
X163757264Y-73131904D01*
X163890917Y-73167716D01*
X163890919Y-73167716D01*
X164029281Y-73167716D01*
X164029283Y-73167716D01*
X164162936Y-73131904D01*
X164282765Y-73062721D01*
X164380605Y-72964881D01*
X164449788Y-72845052D01*
X164485600Y-72711399D01*
X164485600Y-72573033D01*
X164449788Y-72439380D01*
X164380605Y-72319551D01*
X164282765Y-72221711D01*
X164282762Y-72221709D01*
X164162939Y-72152529D01*
X164162936Y-72152528D01*
X164134329Y-72144862D01*
X164089950Y-72119240D01*
X163442037Y-71471327D01*
X163414260Y-71416810D01*
X163414944Y-71382008D01*
X163440498Y-71253544D01*
X163440500Y-71253532D01*
X163440500Y-71105699D01*
X163440500Y-71105698D01*
X163411658Y-70960703D01*
X163355084Y-70824121D01*
X163345059Y-70809118D01*
X163328450Y-70750231D01*
X163349626Y-70692827D01*
X163400500Y-70658833D01*
X163427374Y-70655116D01*
X164492626Y-70655116D01*
X164550817Y-70674023D01*
X164586781Y-70723523D01*
X164586781Y-70784709D01*
X164574940Y-70809119D01*
X164564915Y-70824121D01*
X164508342Y-70960701D01*
X164479500Y-71105697D01*
X164479500Y-71253534D01*
X164508342Y-71398530D01*
X164555758Y-71513001D01*
X164564916Y-71535111D01*
X164647049Y-71658032D01*
X164751584Y-71762567D01*
X164860502Y-71835343D01*
X164898381Y-71883392D01*
X164904500Y-71917658D01*
X164904500Y-73266763D01*
X164904500Y-73352469D01*
X164910652Y-73375428D01*
X164926683Y-73435259D01*
X164969531Y-73509473D01*
X164969532Y-73509474D01*
X164969533Y-73509475D01*
X164969535Y-73509478D01*
X167385739Y-75925682D01*
X169790386Y-78330329D01*
X169818163Y-78384846D01*
X169808592Y-78445278D01*
X169765327Y-78488543D01*
X169704895Y-78498114D01*
X169689333Y-78494338D01*
X169619268Y-78471192D01*
X169606228Y-78467236D01*
X169602824Y-78466203D01*
X169356850Y-78398133D01*
X169356808Y-78398122D01*
X169340182Y-78393958D01*
X169340152Y-78393951D01*
X169340147Y-78393950D01*
X169091169Y-78338039D01*
X169074296Y-78334684D01*
X168822838Y-78291050D01*
X168805836Y-78288529D01*
X168552539Y-78257288D01*
X168535456Y-78255606D01*
X168535457Y-78255606D01*
X168535436Y-78255604D01*
X168348192Y-78241791D01*
X168280888Y-78236827D01*
X168270427Y-78236314D01*
X168263741Y-78235986D01*
X168145978Y-78233094D01*
X168008596Y-78229722D01*
X168008589Y-78229722D01*
X167991411Y-78229722D01*
X167991404Y-78229722D01*
X167842572Y-78233376D01*
X167736259Y-78235986D01*
X167730686Y-78236259D01*
X167719111Y-78236827D01*
X167625479Y-78243734D01*
X167464564Y-78255604D01*
X167464545Y-78255605D01*
X167464543Y-78255606D01*
X167447460Y-78257288D01*
X167194163Y-78288529D01*
X167177161Y-78291050D01*
X166925703Y-78334684D01*
X166908830Y-78338039D01*
X166659852Y-78393950D01*
X166659837Y-78393953D01*
X166659818Y-78393958D01*
X166648633Y-78396759D01*
X166643149Y-78398133D01*
X166397175Y-78466203D01*
X166384074Y-78470177D01*
X166380732Y-78471192D01*
X166380724Y-78471194D01*
X166380703Y-78471201D01*
X166138421Y-78551239D01*
X166122172Y-78557053D01*
X165884091Y-78648891D01*
X165868230Y-78655461D01*
X165634857Y-78758908D01*
X165619363Y-78766236D01*
X165391373Y-78880997D01*
X165376234Y-78889088D01*
X165154138Y-79014904D01*
X165139437Y-79023716D01*
X164923764Y-79160290D01*
X164909508Y-79169815D01*
X164700836Y-79316778D01*
X164687019Y-79327026D01*
X164485843Y-79484025D01*
X164472540Y-79494943D01*
X164279268Y-79661660D01*
X164266562Y-79673176D01*
X164081724Y-79849157D01*
X164069541Y-79861340D01*
X163893560Y-80046178D01*
X163882044Y-80058884D01*
X163715327Y-80252156D01*
X163704409Y-80265459D01*
X163547410Y-80466635D01*
X163537162Y-80480452D01*
X163390199Y-80689124D01*
X163380674Y-80703380D01*
X163244100Y-80919053D01*
X163235288Y-80933754D01*
X163109472Y-81155850D01*
X163101381Y-81170989D01*
X162986620Y-81398979D01*
X162979292Y-81414473D01*
X162875845Y-81647846D01*
X162869275Y-81663707D01*
X162777437Y-81901788D01*
X162771623Y-81918037D01*
X162691585Y-82160319D01*
X162686587Y-82176791D01*
X162636606Y-82357400D01*
X162618516Y-82422770D01*
X162614342Y-82439434D01*
X162614337Y-82439453D01*
X162614334Y-82439468D01*
X162558423Y-82688446D01*
X162555068Y-82705319D01*
X162511434Y-82956777D01*
X162508913Y-82973779D01*
X162477672Y-83227076D01*
X162475990Y-83244159D01*
X162475988Y-83244180D01*
X162470849Y-83313848D01*
X162457211Y-83498727D01*
X162456370Y-83515880D01*
X162450105Y-83771050D01*
X162450000Y-83779578D01*
X162450000Y-91485723D01*
X162431941Y-91542728D01*
X162309288Y-91716882D01*
X162299763Y-91731138D01*
X162129053Y-92000718D01*
X162120241Y-92015419D01*
X161962975Y-92293033D01*
X161954884Y-92308172D01*
X161811434Y-92593156D01*
X161804106Y-92608650D01*
X161674807Y-92900346D01*
X161668227Y-92916231D01*
X161553430Y-93213830D01*
X161547616Y-93230079D01*
X161447564Y-93532941D01*
X161442560Y-93549437D01*
X161357480Y-93856879D01*
X161357476Y-93856895D01*
X161353302Y-93873559D01*
X161353297Y-93873578D01*
X161353294Y-93873593D01*
X161283402Y-94184828D01*
X161280045Y-94201707D01*
X161225509Y-94516008D01*
X161222986Y-94533010D01*
X161208680Y-94649003D01*
X161183932Y-94849660D01*
X161182248Y-94866756D01*
X161169165Y-95044116D01*
X161158778Y-95184929D01*
X161157934Y-95202101D01*
X161150105Y-95521049D01*
X161150000Y-95529578D01*
X161150000Y-99945550D01*
X161131093Y-100003741D01*
X161081593Y-100039705D01*
X161020407Y-100039705D01*
X161010881Y-100036057D01*
X160593004Y-99850826D01*
X160547468Y-99809959D01*
X160534123Y-99760319D01*
X160534123Y-99652321D01*
X160528004Y-99629485D01*
X160500015Y-99525026D01*
X160500013Y-99525023D01*
X160500013Y-99525021D01*
X160434126Y-99410902D01*
X160434124Y-99410900D01*
X160434123Y-99410898D01*
X160340937Y-99317712D01*
X160340934Y-99317710D01*
X160340932Y-99317708D01*
X160226812Y-99251821D01*
X160226814Y-99251821D01*
X160177422Y-99238587D01*
X160099515Y-99217712D01*
X159967731Y-99217712D01*
X159851805Y-99248773D01*
X159790704Y-99245571D01*
X159743154Y-99207066D01*
X159730558Y-99178773D01*
X159702241Y-99073092D01*
X159657735Y-98996005D01*
X159636352Y-98958968D01*
X159636350Y-98958966D01*
X159636349Y-98958964D01*
X159543163Y-98865778D01*
X159543160Y-98865776D01*
X159543158Y-98865774D01*
X159429038Y-98799887D01*
X159429040Y-98799887D01*
X159379648Y-98786653D01*
X159301741Y-98765778D01*
X159169957Y-98765778D01*
X159070120Y-98792528D01*
X159009019Y-98789326D01*
X158961469Y-98750821D01*
X158948873Y-98722529D01*
X158916384Y-98601276D01*
X158916382Y-98601272D01*
X158850495Y-98487152D01*
X158850493Y-98487150D01*
X158850492Y-98487148D01*
X158757306Y-98393962D01*
X158757303Y-98393960D01*
X158757301Y-98393958D01*
X158643181Y-98328071D01*
X158643183Y-98328071D01*
X158573496Y-98309399D01*
X158515884Y-98293962D01*
X158384100Y-98293962D01*
X158314534Y-98312601D01*
X158253433Y-98309399D01*
X158205883Y-98270894D01*
X158191784Y-98223297D01*
X158190759Y-98223433D01*
X158189912Y-98217001D01*
X158189912Y-98216999D01*
X158155804Y-98089705D01*
X158155802Y-98089702D01*
X158155802Y-98089700D01*
X158089915Y-97975581D01*
X158089913Y-97975579D01*
X158089912Y-97975577D01*
X157996726Y-97882391D01*
X157996723Y-97882389D01*
X157996721Y-97882387D01*
X157882601Y-97816500D01*
X157882603Y-97816500D01*
X157816555Y-97798803D01*
X157755304Y-97782391D01*
X157623520Y-97782391D01*
X157581235Y-97793721D01*
X157520134Y-97790518D01*
X157472584Y-97752013D01*
X157456613Y-97698094D01*
X157456613Y-97667020D01*
X157456613Y-97667019D01*
X157422505Y-97539725D01*
X157422503Y-97539722D01*
X157422503Y-97539720D01*
X157356616Y-97425601D01*
X157356614Y-97425599D01*
X157356613Y-97425597D01*
X157263427Y-97332411D01*
X157263424Y-97332409D01*
X157263422Y-97332407D01*
X157149302Y-97266520D01*
X157149304Y-97266520D01*
X157099912Y-97253286D01*
X157022005Y-97232411D01*
X156890221Y-97232411D01*
X156877151Y-97235912D01*
X156816051Y-97232710D01*
X156768501Y-97194205D01*
X156752530Y-97140286D01*
X156752530Y-97080081D01*
X156734014Y-97010977D01*
X156718422Y-96952786D01*
X156718420Y-96952783D01*
X156718420Y-96952781D01*
X156652533Y-96838662D01*
X156652531Y-96838660D01*
X156652530Y-96838658D01*
X156559344Y-96745472D01*
X156559341Y-96745470D01*
X156559339Y-96745468D01*
X156445219Y-96679581D01*
X156445221Y-96679581D01*
X156395829Y-96666347D01*
X156317922Y-96645472D01*
X156186138Y-96645472D01*
X156108230Y-96666347D01*
X156058839Y-96679581D01*
X156058839Y-96679582D01*
X156016981Y-96703748D01*
X155957133Y-96716468D01*
X155901238Y-96691581D01*
X155899218Y-96689711D01*
X155486387Y-96296663D01*
X155482952Y-96293228D01*
X155482951Y-96293227D01*
X154887264Y-95667557D01*
X154884020Y-95663978D01*
X154319762Y-95009847D01*
X154316681Y-95006092D01*
X154043382Y-94655892D01*
X153785194Y-94325054D01*
X153782307Y-94321162D01*
X153782299Y-94321151D01*
X153284870Y-93614856D01*
X153282177Y-93610826D01*
X153232879Y-93532976D01*
X152820006Y-92880975D01*
X152817511Y-92876812D01*
X152656822Y-92593156D01*
X152391702Y-92125154D01*
X152389415Y-92120875D01*
X152371566Y-92085416D01*
X152144006Y-91633331D01*
X152001019Y-91349265D01*
X151998941Y-91344872D01*
X151763168Y-90812977D01*
X151648850Y-90555079D01*
X151646997Y-90550604D01*
X151507189Y-90188165D01*
X151503887Y-90127068D01*
X151529550Y-90082533D01*
X151613127Y-89998957D01*
X151671753Y-89897414D01*
X151679017Y-89884833D01*
X151679017Y-89884831D01*
X151679019Y-89884829D01*
X151713127Y-89757535D01*
X151713127Y-89625751D01*
X151679019Y-89498457D01*
X151679017Y-89498454D01*
X151679017Y-89498452D01*
X151613130Y-89384333D01*
X151613128Y-89384331D01*
X151613127Y-89384329D01*
X151519941Y-89291143D01*
X151519938Y-89291141D01*
X151519936Y-89291139D01*
X151460078Y-89256580D01*
X151419137Y-89211111D01*
X151412741Y-89150260D01*
X151414982Y-89141643D01*
X151418268Y-89130996D01*
X151426510Y-89116722D01*
X151442637Y-89056533D01*
X153398400Y-89056533D01*
X153398400Y-89194899D01*
X153434212Y-89328552D01*
X153503395Y-89448381D01*
X153601235Y-89546221D01*
X153721064Y-89615404D01*
X153854717Y-89651216D01*
X153854719Y-89651216D01*
X153993081Y-89651216D01*
X153993083Y-89651216D01*
X154126736Y-89615404D01*
X154246565Y-89546221D01*
X154289619Y-89503166D01*
X154344134Y-89475391D01*
X154404566Y-89484962D01*
X154429625Y-89503168D01*
X158982904Y-94056447D01*
X159010681Y-94110964D01*
X159011900Y-94126451D01*
X159011900Y-94395363D01*
X159011900Y-94481069D01*
X159011927Y-94481169D01*
X159034083Y-94563859D01*
X159076931Y-94638073D01*
X159076935Y-94638078D01*
X159357333Y-94918477D01*
X159357334Y-94918477D01*
X159357335Y-94918478D01*
X159357334Y-94918478D01*
X159417935Y-94979078D01*
X159417938Y-94979081D01*
X159492162Y-95021934D01*
X159574947Y-95044116D01*
X159574949Y-95044116D01*
X160057351Y-95044116D01*
X160057353Y-95044116D01*
X160140139Y-95021934D01*
X160140141Y-95021932D01*
X160140143Y-95021932D01*
X160214357Y-94979084D01*
X160214357Y-94979083D01*
X160214362Y-94979081D01*
X160555265Y-94638178D01*
X160598118Y-94563955D01*
X160620300Y-94481169D01*
X160620300Y-94395463D01*
X160620300Y-92958056D01*
X160620301Y-92958043D01*
X160620301Y-92864362D01*
X160620300Y-92864360D01*
X160598118Y-92781577D01*
X160555348Y-92707498D01*
X160555265Y-92707354D01*
X160555262Y-92707351D01*
X160555261Y-92707349D01*
X160491205Y-92643294D01*
X160491204Y-92643294D01*
X157784977Y-89937066D01*
X157757200Y-89882549D01*
X157766771Y-89822117D01*
X157810036Y-89778852D01*
X157870468Y-89769281D01*
X157874271Y-89769960D01*
X157897997Y-89774679D01*
X157925318Y-89780115D01*
X157925324Y-89780115D01*
X157925326Y-89780116D01*
X157925327Y-89780116D01*
X158974673Y-89780116D01*
X158974674Y-89780116D01*
X159047740Y-89765582D01*
X159130601Y-89710217D01*
X159185966Y-89627356D01*
X159200500Y-89554290D01*
X159200500Y-89204116D01*
X159219407Y-89145925D01*
X159268907Y-89109961D01*
X159299500Y-89105116D01*
X159410451Y-89105116D01*
X159410453Y-89105116D01*
X159493239Y-89082934D01*
X159493240Y-89082933D01*
X159499507Y-89081254D01*
X159499712Y-89082019D01*
X159529391Y-89076116D01*
X159665781Y-89076116D01*
X159665783Y-89076116D01*
X159799436Y-89040304D01*
X159919265Y-88971121D01*
X160017105Y-88873281D01*
X160086288Y-88753452D01*
X160122100Y-88619799D01*
X160122100Y-88481433D01*
X160086288Y-88347780D01*
X160017105Y-88227951D01*
X159919265Y-88130111D01*
X159799436Y-88060928D01*
X159665783Y-88025116D01*
X159527417Y-88025116D01*
X159393764Y-88060928D01*
X159348998Y-88086773D01*
X159289151Y-88099494D01*
X159233256Y-88074607D01*
X159202663Y-88021619D01*
X159201414Y-88009734D01*
X159200976Y-88009778D01*
X159200500Y-88004951D01*
X159200500Y-88004942D01*
X159185966Y-87931876D01*
X159130601Y-87849015D01*
X159130599Y-87849013D01*
X159047742Y-87793651D01*
X159047740Y-87793650D01*
X159047737Y-87793649D01*
X159047736Y-87793649D01*
X158974684Y-87779117D01*
X158974674Y-87779116D01*
X157925326Y-87779116D01*
X157925325Y-87779116D01*
X157925315Y-87779117D01*
X157852263Y-87793649D01*
X157852261Y-87793649D01*
X157852260Y-87793650D01*
X157852259Y-87793650D01*
X157843251Y-87797382D01*
X157842416Y-87795367D01*
X157796112Y-87808427D01*
X157757386Y-87795843D01*
X157756749Y-87797382D01*
X157747742Y-87793651D01*
X157747740Y-87793650D01*
X157747736Y-87793649D01*
X157674684Y-87779117D01*
X157674674Y-87779116D01*
X156650835Y-87779116D01*
X156592644Y-87760209D01*
X156580831Y-87750120D01*
X155884096Y-87053385D01*
X155856319Y-86998868D01*
X155855100Y-86983381D01*
X155855100Y-86890034D01*
X155838071Y-86826480D01*
X155819288Y-86756380D01*
X155750105Y-86636551D01*
X155652265Y-86538711D01*
X155532436Y-86469528D01*
X155398783Y-86433716D01*
X155260417Y-86433716D01*
X155126764Y-86469528D01*
X155006935Y-86538711D01*
X154909095Y-86636551D01*
X154839912Y-86756380D01*
X154804100Y-86890033D01*
X154804100Y-87028399D01*
X154839912Y-87162052D01*
X154909095Y-87281881D01*
X155006935Y-87379721D01*
X155126764Y-87448904D01*
X155260417Y-87484716D01*
X155353765Y-87484716D01*
X155411956Y-87503623D01*
X155423769Y-87513712D01*
X156091804Y-88181747D01*
X156119581Y-88236264D01*
X156120800Y-88251751D01*
X156120800Y-88736763D01*
X156120800Y-88740463D01*
X156120800Y-88826169D01*
X156142982Y-88908955D01*
X156182720Y-88977782D01*
X156185835Y-88983178D01*
X156214935Y-89012278D01*
X156214936Y-89012279D01*
X156214935Y-89012279D01*
X156247027Y-89044370D01*
X156275538Y-89072881D01*
X156311976Y-89093918D01*
X156330196Y-89104438D01*
X156330195Y-89104438D01*
X156343200Y-89111945D01*
X156349762Y-89115734D01*
X156349763Y-89115734D01*
X156349995Y-89115868D01*
X156390939Y-89161335D01*
X156399500Y-89201607D01*
X156399500Y-89554288D01*
X156399501Y-89554300D01*
X156414033Y-89627352D01*
X156414035Y-89627358D01*
X156469397Y-89710215D01*
X156469400Y-89710218D01*
X156519665Y-89743803D01*
X156552260Y-89765582D01*
X156607808Y-89776631D01*
X156625315Y-89780114D01*
X156625320Y-89780114D01*
X156625326Y-89780116D01*
X156666365Y-89780116D01*
X156724556Y-89799023D01*
X156736369Y-89809112D01*
X159940304Y-93013046D01*
X159968081Y-93067563D01*
X159969300Y-93083050D01*
X159969300Y-94262481D01*
X159950393Y-94320672D01*
X159940304Y-94332485D01*
X159908669Y-94364120D01*
X159854152Y-94391897D01*
X159838665Y-94393116D01*
X159793635Y-94393116D01*
X159735444Y-94374209D01*
X159723631Y-94364120D01*
X159691896Y-94332385D01*
X159664119Y-94277868D01*
X159662900Y-94262381D01*
X159662900Y-93907764D01*
X159662900Y-93907763D01*
X159656619Y-93884321D01*
X159640718Y-93824977D01*
X159640716Y-93824974D01*
X159640716Y-93824972D01*
X159597868Y-93750758D01*
X159597866Y-93750756D01*
X159597865Y-93750754D01*
X154712362Y-88865251D01*
X154712359Y-88865249D01*
X154712357Y-88865247D01*
X154638142Y-88822399D01*
X154638144Y-88822399D01*
X154606021Y-88813792D01*
X154555353Y-88800216D01*
X154555351Y-88800216D01*
X154382578Y-88800216D01*
X154324387Y-88781309D01*
X154312575Y-88771220D01*
X154246567Y-88705213D01*
X154246565Y-88705211D01*
X154126736Y-88636028D01*
X153993083Y-88600216D01*
X153854717Y-88600216D01*
X153721064Y-88636028D01*
X153601235Y-88705211D01*
X153503395Y-88803051D01*
X153434212Y-88922880D01*
X153398400Y-89056533D01*
X151442637Y-89056533D01*
X151460618Y-88989428D01*
X151460618Y-88857644D01*
X151426510Y-88730350D01*
X151426508Y-88730347D01*
X151426508Y-88730345D01*
X151360621Y-88616226D01*
X151360619Y-88616224D01*
X151360618Y-88616222D01*
X151267432Y-88523036D01*
X151267429Y-88523034D01*
X151267427Y-88523032D01*
X151230366Y-88501635D01*
X151189425Y-88456166D01*
X151183029Y-88395315D01*
X151194128Y-88366402D01*
X151210853Y-88337435D01*
X151244961Y-88210141D01*
X151244961Y-88078357D01*
X151210853Y-87951063D01*
X151210851Y-87951060D01*
X151210851Y-87951058D01*
X151144964Y-87836939D01*
X151144962Y-87836937D01*
X151144961Y-87836935D01*
X151051775Y-87743749D01*
X151051772Y-87743747D01*
X151051770Y-87743745D01*
X151038152Y-87735883D01*
X150997211Y-87690414D01*
X150990815Y-87629564D01*
X151001916Y-87600647D01*
X151031737Y-87548996D01*
X151065845Y-87421702D01*
X151065845Y-87289918D01*
X151031737Y-87162624D01*
X151031735Y-87162621D01*
X151031735Y-87162619D01*
X150965848Y-87048500D01*
X150965846Y-87048498D01*
X150965845Y-87048496D01*
X150872659Y-86955310D01*
X150872656Y-86955308D01*
X150872652Y-86955304D01*
X150871634Y-86954523D01*
X150871113Y-86953765D01*
X150868070Y-86950722D01*
X150868633Y-86950158D01*
X150836977Y-86904100D01*
X150838577Y-86842935D01*
X150846163Y-86826480D01*
X150888390Y-86753341D01*
X150922498Y-86626047D01*
X150922498Y-86494263D01*
X150888390Y-86366969D01*
X150888388Y-86366966D01*
X150888388Y-86366964D01*
X150822501Y-86252845D01*
X150822499Y-86252843D01*
X150822498Y-86252841D01*
X150739877Y-86170220D01*
X150712102Y-86115706D01*
X150721673Y-86055274D01*
X150724147Y-86050719D01*
X150781094Y-85952084D01*
X150781095Y-85952081D01*
X150781096Y-85952080D01*
X150815204Y-85824786D01*
X150815204Y-85693002D01*
X150781096Y-85565708D01*
X150781094Y-85565705D01*
X150781094Y-85565703D01*
X150715207Y-85451584D01*
X150715205Y-85451582D01*
X150715204Y-85451580D01*
X150622018Y-85358394D01*
X150622015Y-85358392D01*
X150622013Y-85358390D01*
X150507893Y-85292503D01*
X150507894Y-85292503D01*
X150434588Y-85272861D01*
X150383273Y-85239536D01*
X150361479Y-85184518D01*
X150322087Y-84650494D01*
X150321850Y-84645647D01*
X150321666Y-84638138D01*
X150300649Y-83782019D01*
X150300649Y-83777212D01*
X150321850Y-82913575D01*
X150322088Y-82908730D01*
X150326989Y-82842294D01*
X150385641Y-82047165D01*
X150386117Y-82042342D01*
X150491867Y-81184940D01*
X150492569Y-81180206D01*
X150640264Y-80329028D01*
X150641210Y-80324268D01*
X150642685Y-80317699D01*
X150772448Y-79739837D01*
X150803645Y-79687206D01*
X150859822Y-79662961D01*
X150919521Y-79676367D01*
X150939046Y-79691527D01*
X150939432Y-79691913D01*
X150939437Y-79691919D01*
X150939441Y-79691922D01*
X150939442Y-79691923D01*
X151001889Y-79739840D01*
X151395072Y-80041540D01*
X151925670Y-80261321D01*
X152334999Y-80315210D01*
X152495071Y-80336284D01*
X152495072Y-80336284D01*
X152495073Y-80336284D01*
X152636247Y-80317698D01*
X153064474Y-80261321D01*
X153595072Y-80041540D01*
X154050707Y-79691919D01*
X154400328Y-79236284D01*
X154620109Y-78705686D01*
X154695072Y-78136284D01*
X154620109Y-77566882D01*
X154400328Y-77036284D01*
X154050707Y-76580649D01*
X154050702Y-76580645D01*
X154050701Y-76580644D01*
X153856815Y-76431871D01*
X153595072Y-76231028D01*
X153544221Y-76209965D01*
X153064476Y-76011248D01*
X153064478Y-76011248D01*
X153064474Y-76011247D01*
X153064472Y-76011246D01*
X153064470Y-76011246D01*
X152495073Y-75936284D01*
X152495071Y-75936284D01*
X152298944Y-75962104D01*
X152238783Y-75950954D01*
X152196666Y-75906571D01*
X152188680Y-75845909D01*
X152197593Y-75819439D01*
X152389426Y-75438332D01*
X152391692Y-75434092D01*
X152817524Y-74682395D01*
X152819995Y-74678272D01*
X153282196Y-73948374D01*
X153284857Y-73944392D01*
X153782329Y-73238038D01*
X153785179Y-73234195D01*
X154316698Y-72553117D01*
X154319745Y-72549403D01*
X154884039Y-71895230D01*
X154887245Y-71891693D01*
X155482978Y-71265975D01*
X155486360Y-71262593D01*
X156112067Y-70666870D01*
X156115604Y-70663664D01*
X156769807Y-70099344D01*
X156773522Y-70096297D01*
X157454589Y-69564787D01*
X157458433Y-69561937D01*
X158164776Y-69064473D01*
X158168758Y-69061812D01*
X158898656Y-68599611D01*
X158902779Y-68597140D01*
X159654468Y-68171312D01*
X159658708Y-68169046D01*
X160430359Y-67780630D01*
X160434732Y-67778561D01*
X161224549Y-67428460D01*
X161228981Y-67426625D01*
X162035027Y-67115699D01*
X162039527Y-67114089D01*
X162859831Y-66843096D01*
X162864460Y-66841691D01*
X163697067Y-66611279D01*
X163701754Y-66610106D01*
X164544649Y-66420826D01*
X164549382Y-66419885D01*
X165400571Y-66272188D01*
X165405309Y-66271485D01*
X165472456Y-66263203D01*
X165532521Y-66274846D01*
X165570308Y-66311959D01*
X165615563Y-66390343D01*
X165615565Y-66390345D01*
X165615567Y-66390348D01*
X165708753Y-66483534D01*
X165708755Y-66483535D01*
X165708757Y-66483537D01*
X165822877Y-66549424D01*
X165822875Y-66549424D01*
X165822879Y-66549425D01*
X165822881Y-66549426D01*
X165950175Y-66583534D01*
X165950177Y-66583534D01*
X166081957Y-66583534D01*
X166081959Y-66583534D01*
X166209253Y-66549426D01*
X166209255Y-66549424D01*
X166209257Y-66549424D01*
X166323376Y-66483537D01*
X166323376Y-66483536D01*
X166323381Y-66483534D01*
X166416567Y-66390348D01*
X166448325Y-66335340D01*
X166493793Y-66294401D01*
X166554643Y-66288004D01*
X166604065Y-66314837D01*
X166606479Y-66317251D01*
X166606481Y-66317254D01*
X166699667Y-66410440D01*
X166699669Y-66410441D01*
X166699671Y-66410443D01*
X166813791Y-66476330D01*
X166813789Y-66476330D01*
X166813793Y-66476331D01*
X166813795Y-66476332D01*
X166941089Y-66510440D01*
X166941091Y-66510440D01*
X167072871Y-66510440D01*
X167072873Y-66510440D01*
X167200167Y-66476332D01*
X167200169Y-66476330D01*
X167200171Y-66476330D01*
X167314290Y-66410443D01*
X167314290Y-66410442D01*
X167314295Y-66410440D01*
X167407481Y-66317254D01*
X167426490Y-66284328D01*
X167471956Y-66243388D01*
X167532806Y-66236991D01*
X167585795Y-66267582D01*
X167597961Y-66284325D01*
X167597968Y-66284337D01*
X167599500Y-66286990D01*
X167692686Y-66380176D01*
X167692688Y-66380177D01*
X167692690Y-66380179D01*
X167806810Y-66446066D01*
X167806808Y-66446066D01*
X167806812Y-66446067D01*
X167806814Y-66446068D01*
X167934108Y-66480176D01*
X167934110Y-66480176D01*
X168065890Y-66480176D01*
X168065892Y-66480176D01*
X168193186Y-66446068D01*
X168193188Y-66446066D01*
X168193190Y-66446066D01*
X168307309Y-66380179D01*
X168307309Y-66380178D01*
X168307314Y-66380176D01*
X168400500Y-66286990D01*
X168402032Y-66284335D01*
X168403664Y-66282865D01*
X168404451Y-66281841D01*
X168404640Y-66281986D01*
X168447497Y-66243392D01*
X168508346Y-66236990D01*
X168561337Y-66267578D01*
G37*
%TD.AperFunction*%
%TA.AperFunction,Conductor*%
G36*
X171333691Y-70674023D02*
G01*
X171369655Y-70723523D01*
X171374500Y-70754116D01*
X171374500Y-74084781D01*
X171355593Y-74142972D01*
X171306093Y-74178936D01*
X171244907Y-74178936D01*
X171205496Y-74154785D01*
X169888300Y-72837590D01*
X168522035Y-71471324D01*
X168494260Y-71416810D01*
X168494944Y-71382008D01*
X168520498Y-71253544D01*
X168520500Y-71253532D01*
X168520500Y-71105699D01*
X168520500Y-71105698D01*
X168491658Y-70960703D01*
X168435084Y-70824121D01*
X168425059Y-70809118D01*
X168408450Y-70750231D01*
X168429626Y-70692827D01*
X168480500Y-70658833D01*
X168507374Y-70655116D01*
X171275500Y-70655116D01*
X171333691Y-70674023D01*
G37*
%TD.AperFunction*%
%TD*%
M02*
