%TF.GenerationSoftware,KiCad,Pcbnew,10.0.6*%
%TF.CreationDate,2026-09-27T13:08:25+02:00*%
%TF.ProjectId,shotpuck-panel,73686f74-7075-4636-9b2d-70616e656c2e,rev?*%
%TF.SameCoordinates,Original*%
%TF.FileFunction,Soldermask,Bot*%
%TF.FilePolarity,Negative*%
%FSLAX46Y46*%
G04 Gerber Fmt 4.6, Leading zero omitted, Abs format (unit mm)*
G04 Created by KiCad (PCBNEW 10.0.6) date 2026-09-27 13:08:25*
%MOMM*%
%LPD*%
G01*
G04 APERTURE LIST*
%ADD10C,0.500000*%
%ADD11C,1.152000*%
%ADD12C,1.800000*%
%ADD13R,1.300000X1.300000*%
%ADD14C,1.300000*%
%ADD15R,3.000000X2.000000*%
%ADD16C,0.990600*%
%ADD17C,2.000000*%
G04 APERTURE END LIST*
D10*
%TO.C,KiKit_MB_9_1*%
X122500048Y-69374914D03*
%TD*%
%TO.C,KiKit_MB_8_1*%
X174541028Y-62547833D03*
%TD*%
D11*
%TO.C,KiKit_TO_2*%
X181469377Y-22500000D03*
%TD*%
D10*
%TO.C,KiKit_MB_3_5*%
X123246333Y-62009632D03*
%TD*%
%TO.C,KiKit_MB_7_6*%
X159472210Y-61624895D03*
%TD*%
%TO.C,KiKit_MB_16_5*%
X171422507Y-102466233D03*
%TD*%
%TO.C,KiKit_MB_3_2*%
X125583176Y-62944174D03*
%TD*%
%TO.C,KiKit_MB_13_2*%
X160218495Y-68990177D03*
%TD*%
%TO.C,KiKit_MB_8_2*%
X173777910Y-62830264D03*
%TD*%
%TO.C,KiKit_MB_9_2*%
X123246333Y-68990177D03*
%TD*%
%TO.C,KiKit_MB_16_2*%
X173777910Y-101830264D03*
%TD*%
%TO.C,KiKit_MB_10_6*%
X137568865Y-68451976D03*
%TD*%
%TO.C,KiKit_MB_16_3*%
X173002728Y-102077802D03*
%TD*%
%TO.C,KiKit_MB_1_3*%
X124010381Y-29642110D03*
%TD*%
%TO.C,KiKit_MB_7_2*%
X162555338Y-62944174D03*
%TD*%
%TO.C,KiKit_MB_6_6*%
X174541028Y-29451977D03*
%TD*%
%TO.C,KiKit_MB_6_1*%
X170620447Y-28395134D03*
%TD*%
%TO.C,KiKit_MB_15_5*%
X160218495Y-101009632D03*
%TD*%
%TO.C,KiKit_MB_6_3*%
X172217060Y-28709872D03*
%TD*%
%TO.C,KiKit_MB_6_2*%
X171422507Y-28533577D03*
%TD*%
D12*
%TO.C,H1_2*%
X143664784Y-74393910D03*
%TD*%
D10*
%TO.C,KiKit_MB_4_2*%
X136805747Y-62830264D03*
%TD*%
D13*
%TO.C,J1_0*%
X129775051Y-32499905D03*
D14*
X132275051Y-32499905D03*
%TD*%
D12*
%TO.C,H3_1*%
X167997214Y-62499905D03*
%TD*%
D15*
%TO.C,BT1_2*%
X139525051Y-74799905D03*
X139525051Y-95199905D03*
%TD*%
D10*
%TO.C,KiKit_MB_15_2*%
X162555338Y-101944174D03*
%TD*%
%TO.C,KiKit_MB_12_1*%
X137568865Y-101547833D03*
%TD*%
%TO.C,KiKit_MB_3_6*%
X122500048Y-61624895D03*
%TD*%
%TO.C,KiKit_MB_13_4*%
X161762064Y-68330367D03*
%TD*%
%TO.C,KiKit_MB_15_3*%
X161762064Y-101669442D03*
%TD*%
D12*
%TO.C,H1_1*%
X180636947Y-35393910D03*
%TD*%
%TO.C,H1_3*%
X180636947Y-74393910D03*
%TD*%
D10*
%TO.C,KiKit_MB_8_4*%
X172217060Y-63289938D03*
%TD*%
D12*
%TO.C,H3_3*%
X167997214Y-101499905D03*
%TD*%
%TO.C,H3_2*%
X131025051Y-101499905D03*
%TD*%
%TO.C,H2_2*%
X117032258Y-76256238D03*
%TD*%
D10*
%TO.C,KiKit_MB_4_3*%
X136030565Y-63077802D03*
%TD*%
%TO.C,KiKit_MB_12_6*%
X133648284Y-102604676D03*
%TD*%
D11*
%TO.C,KiKit_TO_3*%
X115530623Y-108499810D03*
%TD*%
D10*
%TO.C,KiKit_MB_5_5*%
X162555338Y-29055636D03*
%TD*%
%TO.C,KiKit_MB_12_2*%
X136805747Y-101830264D03*
%TD*%
%TO.C,KiKit_MB_7_4*%
X160982543Y-62357700D03*
%TD*%
D13*
%TO.C,J1_3*%
X166747214Y-71499905D03*
D14*
X169247214Y-71499905D03*
%TD*%
D11*
%TO.C,KiKit_TO_1*%
X115530623Y-22500000D03*
%TD*%
D12*
%TO.C,H2_1*%
X154004421Y-37256238D03*
%TD*%
D10*
%TO.C,KiKit_MB_4_4*%
X135244897Y-63289938D03*
%TD*%
%TO.C,KiKit_MB_13_6*%
X163360614Y-67818514D03*
%TD*%
%TO.C,KiKit_MB_5_6*%
X163360614Y-28818515D03*
%TD*%
%TO.C,KiKit_MB_13_5*%
X162555338Y-68055635D03*
%TD*%
%TO.C,KiKit_MB_10_4*%
X136030565Y-67922007D03*
%TD*%
%TO.C,KiKit_MB_4_5*%
X134450344Y-63466233D03*
%TD*%
%TO.C,KiKit_MB_15_6*%
X159472210Y-100624895D03*
%TD*%
%TO.C,KiKit_MB_9_6*%
X126388452Y-67818514D03*
%TD*%
%TO.C,KiKit_MB_14_1*%
X170620447Y-67395133D03*
%TD*%
%TO.C,KiKit_MB_11_1*%
X126388452Y-102181295D03*
%TD*%
%TO.C,KiKit_MB_1_1*%
X122500048Y-30374915D03*
%TD*%
%TO.C,KiKit_MB_16_4*%
X172217060Y-102289938D03*
%TD*%
%TO.C,KiKit_MB_9_5*%
X125583176Y-68055635D03*
%TD*%
D12*
%TO.C,H2_0*%
X117032258Y-37256238D03*
%TD*%
D10*
%TO.C,KiKit_MB_11_3*%
X124789902Y-101669442D03*
%TD*%
%TO.C,KiKit_MB_1_4*%
X124789902Y-29330368D03*
%TD*%
%TO.C,KiKit_MB_11_5*%
X123246333Y-101009632D03*
%TD*%
D16*
%TO.C,J2_1*%
X157457214Y-37599905D03*
X162537214Y-36583905D03*
X162537214Y-38615905D03*
%TD*%
D10*
%TO.C,KiKit_MB_10_1*%
X133648284Y-67395133D03*
%TD*%
%TO.C,KiKit_MB_12_5*%
X134450344Y-102466233D03*
%TD*%
%TO.C,KiKit_MB_5_1*%
X159472210Y-30374915D03*
%TD*%
%TO.C,KiKit_MB_8_5*%
X171422507Y-63466233D03*
%TD*%
%TO.C,KiKit_MB_2_6*%
X137568865Y-29451977D03*
%TD*%
D15*
%TO.C,BT1_0*%
X139525051Y-35799905D03*
X139525051Y-56199905D03*
%TD*%
D10*
%TO.C,KiKit_MB_13_1*%
X159472210Y-69374914D03*
%TD*%
D16*
%TO.C,J2_3*%
X157457214Y-76599905D03*
X162537214Y-75583905D03*
X162537214Y-77615905D03*
%TD*%
D10*
%TO.C,KiKit_MB_13_3*%
X160982543Y-68642109D03*
%TD*%
D16*
%TO.C,J2_2*%
X120485051Y-76599905D03*
X125565051Y-75583905D03*
X125565051Y-77615905D03*
%TD*%
D10*
%TO.C,KiKit_MB_14_5*%
X173777910Y-68169545D03*
%TD*%
%TO.C,KiKit_MB_12_3*%
X136030565Y-102077802D03*
%TD*%
D13*
%TO.C,J1_2*%
X129775051Y-71499905D03*
D14*
X132275051Y-71499905D03*
%TD*%
D10*
%TO.C,KiKit_MB_16_6*%
X170620447Y-102604676D03*
%TD*%
%TO.C,KiKit_MB_16_1*%
X174541028Y-101547833D03*
%TD*%
%TO.C,KiKit_MB_8_6*%
X170620447Y-63604676D03*
%TD*%
%TO.C,KiKit_MB_1_5*%
X125583176Y-29055636D03*
%TD*%
%TO.C,KiKit_MB_3_3*%
X124789902Y-62669442D03*
%TD*%
D12*
%TO.C,H1_0*%
X143664784Y-35393910D03*
%TD*%
D10*
%TO.C,KiKit_MB_11_4*%
X124010381Y-101357700D03*
%TD*%
D12*
%TO.C,H3_0*%
X131025051Y-62499905D03*
%TD*%
D16*
%TO.C,J2_0*%
X120485051Y-37599905D03*
X125565051Y-36583905D03*
X125565051Y-38615905D03*
%TD*%
D10*
%TO.C,KiKit_MB_9_3*%
X124010381Y-68642109D03*
%TD*%
%TO.C,KiKit_MB_11_6*%
X122500048Y-100624895D03*
%TD*%
%TO.C,KiKit_MB_7_3*%
X161762064Y-62669442D03*
%TD*%
D15*
%TO.C,BT1_3*%
X176497214Y-74799905D03*
X176497214Y-95199905D03*
%TD*%
D10*
%TO.C,KiKit_MB_10_5*%
X136805747Y-68169545D03*
%TD*%
%TO.C,KiKit_MB_6_4*%
X173002728Y-28922008D03*
%TD*%
%TO.C,KiKit_MB_1_2*%
X123246333Y-29990178D03*
%TD*%
%TO.C,KiKit_MB_3_1*%
X126388452Y-63181295D03*
%TD*%
%TO.C,KiKit_MB_11_2*%
X125583176Y-101944174D03*
%TD*%
%TO.C,KiKit_MB_7_1*%
X163360614Y-63181295D03*
%TD*%
%TO.C,KiKit_MB_4_1*%
X137568865Y-62547833D03*
%TD*%
%TO.C,KiKit_MB_12_4*%
X135244897Y-102289938D03*
%TD*%
D15*
%TO.C,BT1_1*%
X176497214Y-35799905D03*
X176497214Y-56199905D03*
%TD*%
D10*
%TO.C,KiKit_MB_15_1*%
X163360614Y-102181295D03*
%TD*%
%TO.C,KiKit_MB_2_1*%
X133648284Y-28395134D03*
%TD*%
%TO.C,KiKit_MB_1_6*%
X126388452Y-28818515D03*
%TD*%
%TO.C,KiKit_MB_6_5*%
X173777910Y-29169546D03*
%TD*%
%TO.C,KiKit_MB_14_4*%
X173002728Y-67922007D03*
%TD*%
%TO.C,KiKit_MB_14_6*%
X174541028Y-68451976D03*
%TD*%
%TO.C,KiKit_MB_14_3*%
X172217060Y-67709871D03*
%TD*%
%TO.C,KiKit_MB_10_2*%
X134450344Y-67533576D03*
%TD*%
%TO.C,KiKit_MB_9_4*%
X124789902Y-68330367D03*
%TD*%
%TO.C,KiKit_MB_5_3*%
X160982543Y-29642110D03*
%TD*%
%TO.C,KiKit_MB_2_5*%
X136805747Y-29169546D03*
%TD*%
%TO.C,KiKit_MB_14_2*%
X171422507Y-67533576D03*
%TD*%
%TO.C,KiKit_MB_2_3*%
X135244897Y-28709872D03*
%TD*%
D13*
%TO.C,J1_1*%
X166747214Y-32499905D03*
D14*
X169247214Y-32499905D03*
%TD*%
D12*
%TO.C,H2_3*%
X154004421Y-76256238D03*
%TD*%
D10*
%TO.C,KiKit_MB_5_2*%
X160218495Y-29990178D03*
%TD*%
%TO.C,KiKit_MB_3_4*%
X124010381Y-62357700D03*
%TD*%
%TO.C,KiKit_MB_2_2*%
X134450344Y-28533577D03*
%TD*%
%TO.C,KiKit_MB_10_3*%
X135244897Y-67709871D03*
%TD*%
%TO.C,KiKit_MB_15_4*%
X160982543Y-101357700D03*
%TD*%
%TO.C,KiKit_MB_7_5*%
X160218495Y-62009632D03*
%TD*%
%TO.C,KiKit_MB_8_3*%
X173002728Y-63077802D03*
%TD*%
%TO.C,KiKit_MB_2_4*%
X136030565Y-28922008D03*
%TD*%
%TO.C,KiKit_MB_5_4*%
X161762064Y-29330368D03*
%TD*%
%TO.C,KiKit_MB_4_6*%
X133648284Y-63604676D03*
%TD*%
D17*
%TO.C,KiKit_FID_B_1*%
X118030623Y-22500000D03*
%TD*%
%TO.C,KiKit_FID_B_2*%
X178969377Y-22500000D03*
%TD*%
%TO.C,KiKit_FID_B_3*%
X118030623Y-108499810D03*
%TD*%
M02*
