%TF.GenerationSoftware,KiCad,Pcbnew,10.0.6*%
%TF.CreationDate,2026-10-01T00:16:32+02:00*%
%TF.ProjectId,shotpuck-panel,73686f74-7075-4636-9b2d-70616e656c2e,rev?*%
%TF.SameCoordinates,Original*%
%TF.FileFunction,Legend,Bot*%
%TF.FilePolarity,Positive*%
%FSLAX46Y46*%
G04 Gerber Fmt 4.6, Leading zero omitted, Abs format (unit mm)*
G04 Created by KiCad (PCBNEW 10.0.6) date 2026-10-01 00:16:32*
%MOMM*%
%LPD*%
G01*
G04 APERTURE LIST*
%ADD10C,0.120000*%
%ADD11C,0.500000*%
%ADD12C,2.400000*%
%ADD13C,0.700000*%
%ADD14C,1.152000*%
%ADD15C,1.000000*%
%ADD16C,2.000000*%
%ADD17R,1.000000X1.500000*%
G04 APERTURE END LIST*
%TO.C,JP1_1*%
D10*
X176800000Y-38779616D02*
X176800000Y-40779616D01*
X176800000Y-40779616D02*
X179600000Y-40779616D01*
X179600000Y-38779616D02*
X176800000Y-38779616D01*
X179600000Y-40779616D02*
X179600000Y-38779616D01*
%TO.C,JP1_2*%
X117400000Y-91779616D02*
X117400000Y-93779616D01*
X117400000Y-93779616D02*
X120200000Y-93779616D01*
X120200000Y-91779616D02*
X117400000Y-91779616D01*
X120200000Y-93779616D02*
X120200000Y-91779616D01*
%TO.C,JP1_3*%
X156400000Y-91779616D02*
X156400000Y-93779616D01*
X156400000Y-93779616D02*
X159200000Y-93779616D01*
X159200000Y-91779616D02*
X156400000Y-91779616D01*
X159200000Y-93779616D02*
X159200000Y-91779616D01*
%TO.C,JP1_0*%
X137800000Y-38779616D02*
X137800000Y-40779616D01*
X137800000Y-40779616D02*
X140600000Y-40779616D01*
X140600000Y-38779616D02*
X137800000Y-38779616D01*
X140600000Y-40779616D02*
X140600000Y-38779616D01*
%TD*%
%LPC*%
%TO.C,JP1_1*%
G36*
X178050000Y-39029616D02*
G01*
X178350000Y-39029616D01*
X178350000Y-40529616D01*
X178050000Y-40529616D01*
X178050000Y-39029616D01*
G37*
%TO.C,JP1_2*%
G36*
X118650000Y-92029616D02*
G01*
X118950000Y-92029616D01*
X118950000Y-93529616D01*
X118650000Y-93529616D01*
X118650000Y-92029616D01*
G37*
%TO.C,JP1_3*%
G36*
X157650000Y-92029616D02*
G01*
X157950000Y-92029616D01*
X157950000Y-93529616D01*
X157650000Y-93529616D01*
X157650000Y-92029616D01*
G37*
%TO.C,JP1_0*%
G36*
X139050000Y-39029616D02*
G01*
X139350000Y-39029616D01*
X139350000Y-40529616D01*
X139050000Y-40529616D01*
X139050000Y-39029616D01*
G37*
%TD*%
D11*
%TO.C,KiKit_MB_24_2*%
X103357143Y-28000000D03*
%TD*%
%TO.C,KiKit_MB_18_3*%
X186000000Y-66779616D03*
%TD*%
%TO.C,KiKit_MB_16_6*%
X150314704Y-89758893D03*
%TD*%
%TO.C,KiKit_MB_6_4*%
X176825121Y-29327494D03*
%TD*%
%TO.C,KiKit_MB_4_5*%
X146578001Y-41999078D03*
%TD*%
%TO.C,KiKit_MB_12_6*%
X111314705Y-89758893D03*
%TD*%
D12*
%TO.C,H1_0*%
X132037214Y-60996463D03*
%TD*%
D11*
%TO.C,KiKit_MB_10_3*%
X120946149Y-103647383D03*
%TD*%
%TO.C,KiKit_MB_1_4*%
X111744462Y-40414984D03*
%TD*%
%TO.C,KiKit_MB_11_1*%
X128945243Y-69978332D03*
%TD*%
%TO.C,KiKit_MB_13_6*%
X184787372Y-93691642D03*
%TD*%
%TO.C,KiKit_MB_13_5*%
X185039881Y-92923535D03*
%TD*%
%TO.C,KiKit_MB_14_6*%
X157684572Y-102309766D03*
%TD*%
%TO.C,KiKit_MB_19_3*%
X111000000Y-66779616D03*
%TD*%
%TO.C,KiKit_MB_11_2*%
X129773090Y-69998654D03*
%TD*%
D12*
%TO.C,H4_2*%
X117538000Y-99648616D03*
%TD*%
D11*
%TO.C,KiKit_MB_1_3*%
X111565346Y-41203423D03*
%TD*%
%TO.C,KiKit_MB_8_6*%
X185685295Y-42800339D03*
%TD*%
%TO.C,KiKit_MB_19_2*%
X111000000Y-65779616D03*
%TD*%
%TO.C,KiKit_MB_8_1*%
X184787372Y-38867590D03*
%TD*%
%TO.C,KiKit_MB_26_7*%
X193642857Y-28000000D03*
%TD*%
%TO.C,KiKit_MB_26_2*%
X189357142Y-28000000D03*
%TD*%
%TO.C,KiKit_MB_3_2*%
X128226910Y-62560577D03*
%TD*%
%TO.C,KiKit_MB_16_4*%
X150565345Y-91355809D03*
%TD*%
%TO.C,KiKit_MB_1_5*%
X111960119Y-39635697D03*
%TD*%
%TO.C,KiKit_MB_15_3*%
X169599185Y-70054654D03*
%TD*%
%TO.C,KiKit_MB_8_2*%
X185039881Y-39635697D03*
%TD*%
%TO.C,KiKit_MB_21_2*%
X186000000Y-20357143D03*
%TD*%
%TO.C,KiKit_MB_26_5*%
X191928571Y-28000000D03*
%TD*%
%TO.C,KiKit_MB_24_3*%
X104214286Y-28000000D03*
%TD*%
%TO.C,KiKit_MB_17_2*%
X148500000Y-66779616D03*
%TD*%
%TO.C,KiKit_MB_12_2*%
X111960119Y-92923535D03*
%TD*%
%TO.C,KiKit_MB_7_2*%
X167226909Y-62560577D03*
%TD*%
%TO.C,KiKit_MB_26_4*%
X191071428Y-28000000D03*
%TD*%
D12*
%TO.C,H2_1*%
X183890765Y-49173537D03*
%TD*%
D11*
%TO.C,KiKit_MB_9_5*%
X146039881Y-92923535D03*
%TD*%
%TO.C,KiKit_MB_16_2*%
X150960118Y-92923535D03*
%TD*%
%TO.C,KiKit_MB_3_4*%
X126578243Y-62410336D03*
%TD*%
%TO.C,KiKit_MB_15_1*%
X167945242Y-69978332D03*
%TD*%
%TO.C,KiKit_MB_26_6*%
X192785714Y-28000000D03*
%TD*%
%TO.C,KiKit_MB_7_4*%
X165578242Y-62410336D03*
%TD*%
%TO.C,KiKit_MB_25_5*%
X105928572Y-104559232D03*
%TD*%
%TO.C,KiKit_MB_15_2*%
X168773090Y-69998654D03*
%TD*%
%TO.C,KiKit_MB_8_4*%
X185434654Y-41203423D03*
%TD*%
%TO.C,KiKit_MB_23_4*%
X186000000Y-109630660D03*
%TD*%
%TO.C,KiKit_MB_10_4*%
X120174879Y-103231738D03*
%TD*%
%TO.C,KiKit_MB_4_1*%
X145787372Y-38867590D03*
%TD*%
%TO.C,KiKit_MB_24_7*%
X107642858Y-28000000D03*
%TD*%
%TO.C,KiKit_MB_12_5*%
X111421999Y-90560154D03*
%TD*%
%TO.C,KiKit_MB_22_6*%
X111000000Y-111344946D03*
%TD*%
%TO.C,KiKit_MB_1_6*%
X112212628Y-38867590D03*
%TD*%
D13*
%TO.C,J1_1*%
X174727884Y-59721759D03*
X182320007Y-52746390D03*
%TD*%
D11*
%TO.C,KiKit_MB_27_2*%
X189357142Y-104559232D03*
%TD*%
D12*
%TO.C,H3_1*%
X158536000Y-31263616D03*
%TD*%
D11*
%TO.C,KiKit_MB_9_3*%
X146434654Y-91355809D03*
%TD*%
%TO.C,KiKit_MB_9_6*%
X145787372Y-93691642D03*
%TD*%
%TO.C,KiKit_MB_27_3*%
X190214285Y-104559232D03*
%TD*%
%TO.C,KiKit_MB_14_4*%
X159174878Y-103231738D03*
%TD*%
%TO.C,KiKit_MB_16_5*%
X150421998Y-90560154D03*
%TD*%
%TO.C,KiKit_MB_14_3*%
X159946148Y-103647383D03*
%TD*%
%TO.C,KiKit_MB_27_7*%
X193642857Y-104559232D03*
%TD*%
D12*
%TO.C,H2_0*%
X144890765Y-49173537D03*
%TD*%
D11*
%TO.C,KiKit_MB_23_6*%
X186000000Y-111344946D03*
%TD*%
%TO.C,KiKit_MB_4_2*%
X146039881Y-39635697D03*
%TD*%
%TO.C,KiKit_MB_27_5*%
X191928571Y-104559232D03*
%TD*%
%TO.C,KiKit_MB_13_4*%
X185255538Y-92144248D03*
%TD*%
%TO.C,KiKit_MB_25_3*%
X104214286Y-104559232D03*
%TD*%
%TO.C,KiKit_MB_22_4*%
X111000000Y-109630660D03*
%TD*%
%TO.C,KiKit_MB_21_6*%
X186000000Y-23785715D03*
%TD*%
D12*
%TO.C,H3_0*%
X119536000Y-31263616D03*
%TD*%
D11*
%TO.C,KiKit_MB_21_7*%
X186000000Y-24642858D03*
%TD*%
%TO.C,KiKit_MB_23_2*%
X186000000Y-107916374D03*
%TD*%
%TO.C,KiKit_MB_5_1*%
X150314704Y-42800339D03*
%TD*%
%TO.C,KiKit_MB_2_2*%
X136263057Y-28534672D03*
%TD*%
%TO.C,KiKit_MB_13_3*%
X185434654Y-91355809D03*
%TD*%
%TO.C,KiKit_MB_11_4*%
X131421757Y-70148895D03*
%TD*%
D14*
%TO.C,KiKit_TO_2*%
X191500000Y-22500000D03*
%TD*%
D11*
%TO.C,KiKit_MB_25_7*%
X107642858Y-104559232D03*
%TD*%
%TO.C,KiKit_MB_24_6*%
X106785715Y-28000000D03*
%TD*%
%TO.C,KiKit_MB_2_4*%
X137825121Y-29327494D03*
%TD*%
%TO.C,KiKit_MB_8_3*%
X185255538Y-40414984D03*
%TD*%
%TO.C,KiKit_MB_24_4*%
X105071429Y-28000000D03*
%TD*%
%TO.C,KiKit_MB_2_6*%
X139315427Y-30249466D03*
%TD*%
%TO.C,KiKit_MB_9_1*%
X146685295Y-89758893D03*
%TD*%
%TO.C,KiKit_MB_8_5*%
X185578001Y-41999078D03*
%TD*%
%TO.C,KiKit_MB_6_6*%
X178315427Y-30249466D03*
%TD*%
%TO.C,KiKit_MB_7_1*%
X168054757Y-62580899D03*
%TD*%
%TO.C,KiKit_MB_4_4*%
X146434654Y-41203423D03*
%TD*%
%TO.C,KiKit_MB_12_3*%
X111744462Y-92144248D03*
%TD*%
D12*
%TO.C,H4_1*%
X179462000Y-32910616D03*
%TD*%
D11*
%TO.C,KiKit_MB_22_7*%
X111000000Y-112202089D03*
%TD*%
%TO.C,KiKit_MB_4_3*%
X146255538Y-40414984D03*
%TD*%
%TO.C,KiKit_MB_10_6*%
X118684573Y-102309766D03*
%TD*%
%TO.C,KiKit_MB_25_2*%
X103357143Y-104559232D03*
%TD*%
%TO.C,KiKit_MB_23_3*%
X186000000Y-108773517D03*
%TD*%
%TO.C,KiKit_MB_22_2*%
X111000000Y-107916374D03*
%TD*%
D14*
%TO.C,KiKit_TO_3*%
X105500000Y-110059232D03*
%TD*%
D11*
%TO.C,KiKit_MB_10_2*%
X121736943Y-104024560D03*
%TD*%
D12*
%TO.C,H4_0*%
X140462000Y-32910616D03*
%TD*%
D11*
%TO.C,KiKit_MB_5_3*%
X150565345Y-41203423D03*
%TD*%
%TO.C,KiKit_MB_13_2*%
X185578001Y-90560154D03*
%TD*%
%TO.C,KiKit_MB_26_3*%
X190214285Y-28000000D03*
%TD*%
%TO.C,KiKit_MB_20_5*%
X111000000Y-22928572D03*
%TD*%
D13*
%TO.C,J1_0*%
X135727884Y-59721759D03*
X143320007Y-52746390D03*
%TD*%
D12*
%TO.C,H3_2*%
X138464000Y-101295616D03*
%TD*%
D14*
%TO.C,KiKit_TO_1*%
X105500000Y-22500000D03*
%TD*%
D12*
%TO.C,H4_3*%
X156538000Y-99648616D03*
%TD*%
D11*
%TO.C,KiKit_MB_14_5*%
X158424999Y-102778636D03*
%TD*%
%TO.C,KiKit_MB_4_6*%
X146685295Y-42800339D03*
%TD*%
%TO.C,KiKit_MB_11_3*%
X130599185Y-70054654D03*
%TD*%
%TO.C,KiKit_MB_6_2*%
X175263057Y-28534672D03*
%TD*%
%TO.C,KiKit_MB_9_2*%
X146578001Y-90560154D03*
%TD*%
D12*
%TO.C,H2_3*%
X152109235Y-83385695D03*
%TD*%
D11*
%TO.C,KiKit_MB_6_3*%
X176053851Y-28911849D03*
%TD*%
%TO.C,KiKit_MB_5_4*%
X150744461Y-40414984D03*
%TD*%
%TO.C,KiKit_MB_1_2*%
X111421999Y-41999078D03*
%TD*%
%TO.C,KiKit_MB_21_3*%
X186000000Y-21214286D03*
%TD*%
%TO.C,KiKit_MB_16_1*%
X151212627Y-93691642D03*
%TD*%
%TO.C,KiKit_MB_20_3*%
X111000000Y-21214286D03*
%TD*%
%TO.C,KiKit_MB_5_6*%
X151212627Y-38867590D03*
%TD*%
%TO.C,KiKit_MB_2_5*%
X138575000Y-29780596D03*
%TD*%
%TO.C,KiKit_MB_25_4*%
X105071429Y-104559232D03*
%TD*%
%TO.C,KiKit_MB_18_2*%
X186000000Y-65779616D03*
%TD*%
%TO.C,KiKit_MB_23_5*%
X186000000Y-110487803D03*
%TD*%
%TO.C,KiKit_MB_24_5*%
X105928572Y-28000000D03*
%TD*%
%TO.C,KiKit_MB_20_4*%
X111000000Y-22071429D03*
%TD*%
%TO.C,KiKit_MB_20_2*%
X111000000Y-20357143D03*
%TD*%
%TO.C,KiKit_MB_10_5*%
X119425000Y-102778636D03*
%TD*%
%TO.C,KiKit_MB_16_3*%
X150744461Y-92144248D03*
%TD*%
D13*
%TO.C,J1_2*%
X122272116Y-72837473D03*
X114679993Y-79812842D03*
%TD*%
D11*
%TO.C,KiKit_MB_5_5*%
X150960118Y-39635697D03*
%TD*%
%TO.C,KiKit_MB_22_3*%
X111000000Y-108773517D03*
%TD*%
D12*
%TO.C,H1_1*%
X171037214Y-60996463D03*
%TD*%
%TO.C,H1_3*%
X164962786Y-71562769D03*
%TD*%
D11*
%TO.C,KiKit_MB_25_6*%
X106785715Y-104559232D03*
%TD*%
D12*
%TO.C,H1_2*%
X125962786Y-71562769D03*
%TD*%
D11*
%TO.C,KiKit_MB_7_3*%
X166400814Y-62504577D03*
%TD*%
%TO.C,KiKit_MB_1_1*%
X111314705Y-42800339D03*
%TD*%
D12*
%TO.C,H2_2*%
X113109235Y-83385695D03*
%TD*%
D11*
%TO.C,KiKit_MB_27_6*%
X192785714Y-104559232D03*
%TD*%
%TO.C,KiKit_MB_20_7*%
X111000000Y-24642858D03*
%TD*%
%TO.C,KiKit_MB_21_5*%
X186000000Y-22928572D03*
%TD*%
%TO.C,KiKit_MB_3_1*%
X129054757Y-62580899D03*
%TD*%
%TO.C,KiKit_MB_9_4*%
X146255538Y-92144248D03*
%TD*%
%TO.C,KiKit_MB_12_1*%
X112212628Y-93691642D03*
%TD*%
D12*
%TO.C,H3_3*%
X177464000Y-101295616D03*
%TD*%
D11*
%TO.C,KiKit_MB_12_4*%
X111565346Y-91355809D03*
%TD*%
%TO.C,KiKit_MB_15_4*%
X170421757Y-70148895D03*
%TD*%
%TO.C,KiKit_MB_3_3*%
X127400815Y-62504577D03*
%TD*%
%TO.C,KiKit_MB_23_7*%
X186000000Y-112202089D03*
%TD*%
%TO.C,KiKit_MB_14_2*%
X160736942Y-104024560D03*
%TD*%
%TO.C,KiKit_MB_20_6*%
X111000000Y-23785715D03*
%TD*%
%TO.C,KiKit_MB_5_2*%
X150421998Y-41999078D03*
%TD*%
%TO.C,KiKit_MB_2_3*%
X137053851Y-28911849D03*
%TD*%
%TO.C,KiKit_MB_21_4*%
X186000000Y-22071429D03*
%TD*%
D13*
%TO.C,J1_3*%
X161272116Y-72837473D03*
X153679993Y-79812842D03*
%TD*%
D11*
%TO.C,KiKit_MB_22_5*%
X111000000Y-110487803D03*
%TD*%
%TO.C,KiKit_MB_17_3*%
X148500000Y-65779616D03*
%TD*%
%TO.C,KiKit_MB_13_1*%
X185685295Y-89758893D03*
%TD*%
%TO.C,KiKit_MB_6_5*%
X177575000Y-29780596D03*
%TD*%
%TO.C,KiKit_MB_27_4*%
X191071428Y-104559232D03*
%TD*%
D15*
%TO.C,J2_3*%
X173649922Y-74337539D03*
X175445973Y-76133590D03*
X177242025Y-77929642D03*
X179038076Y-79725693D03*
%TD*%
%TO.C,J2_1*%
X162350078Y-58221693D03*
X160554027Y-56425642D03*
X158757975Y-54629590D03*
X156961924Y-52833539D03*
%TD*%
D16*
%TO.C,KiKit_FID_B_1*%
X108000000Y-22500000D03*
%TD*%
D15*
%TO.C,J2_0*%
X123350078Y-58221693D03*
X121554027Y-56425642D03*
X119757975Y-54629590D03*
X117961924Y-52833539D03*
%TD*%
D17*
%TO.C,JP1_1*%
X177550000Y-39779616D03*
X178850000Y-39779616D03*
%TD*%
D16*
%TO.C,KiKit_FID_B_2*%
X189000000Y-22500000D03*
%TD*%
D17*
%TO.C,JP1_2*%
X119450000Y-92779616D03*
X118150000Y-92779616D03*
%TD*%
%TO.C,JP1_3*%
X158450000Y-92779616D03*
X157150000Y-92779616D03*
%TD*%
D16*
%TO.C,KiKit_FID_B_3*%
X108000000Y-110059232D03*
%TD*%
D15*
%TO.C,J2_2*%
X134649922Y-74337539D03*
X136445973Y-76133590D03*
X138242025Y-77929642D03*
X140038076Y-79725693D03*
%TD*%
D17*
%TO.C,JP1_0*%
X138550000Y-39779616D03*
X139850000Y-39779616D03*
%TD*%
%LPD*%
M02*
