%TF.GenerationSoftware,KiCad,Pcbnew,10.0.6*%
%TF.CreationDate,2026-09-29T01:28:06+02:00*%
%TF.ProjectId,shotpuck-panel,73686f74-7075-4636-9b2d-70616e656c2e,rev?*%
%TF.SameCoordinates,Original*%
%TF.FileFunction,Profile,NP*%
%FSLAX46Y46*%
G04 Gerber Fmt 4.6, Leading zero omitted, Abs format (unit mm)*
G04 Created by KiCad (PCBNEW 10.0.6) date 2026-09-29 01:28:06*
%MOMM*%
%LPD*%
G01*
G04 APERTURE LIST*
%TA.AperFunction,Profile*%
%ADD10C,0.100000*%
%TD*%
G04 APERTURE END LIST*
D10*
X103000000Y-20012272D02*
X103000580Y-108558686D01*
X103000580Y-108558686D02*
X193999454Y-108558651D01*
X103001245Y-20000270D02*
X103000000Y-20012272D01*
X108000000Y-25999012D02*
X108001203Y-25949981D01*
X108000000Y-38280603D02*
X108000000Y-25999012D01*
X108000000Y-43278628D02*
X108001203Y-43229597D01*
X108000000Y-85280603D02*
X108000000Y-43278628D01*
X108000000Y-90278628D02*
X108001203Y-90229597D01*
X108000000Y-102560219D02*
X108000000Y-90278628D01*
X108001203Y-25949981D02*
X108004810Y-25901080D01*
X108001203Y-38329634D02*
X108000000Y-38280603D01*
X108001203Y-43229597D02*
X108004810Y-43180696D01*
X108001203Y-85329634D02*
X108000000Y-85280603D01*
X108001203Y-90229597D02*
X108004810Y-90180696D01*
X108001203Y-102609250D02*
X108000000Y-102560219D01*
X108004810Y-25901080D02*
X108010812Y-25852416D01*
X108004810Y-38378535D02*
X108001203Y-38329634D01*
X108004810Y-43180696D02*
X108010812Y-43132032D01*
X108004810Y-85378535D02*
X108001203Y-85329634D01*
X108004810Y-90180696D02*
X108010812Y-90132032D01*
X108004810Y-102658151D02*
X108001203Y-102609250D01*
X108010812Y-25852416D02*
X108019195Y-25804104D01*
X108010812Y-38427199D02*
X108004810Y-38378535D01*
X108010812Y-43132032D02*
X108019195Y-43083720D01*
X108010812Y-85427199D02*
X108004810Y-85378535D01*
X108010812Y-90132032D02*
X108019195Y-90083720D01*
X108010812Y-102706815D02*
X108004810Y-102658151D01*
X108019195Y-25804104D02*
X108029939Y-25756262D01*
X108019195Y-38475511D02*
X108010812Y-38427199D01*
X108019195Y-43083720D02*
X108029939Y-43035878D01*
X108019195Y-85475511D02*
X108010812Y-85427199D01*
X108019195Y-90083720D02*
X108029939Y-90035878D01*
X108019195Y-102755127D02*
X108010812Y-102706815D01*
X108029939Y-25756262D02*
X108043016Y-25709005D01*
X108029939Y-38523353D02*
X108019195Y-38475511D01*
X108029939Y-43035878D02*
X108043016Y-42988621D01*
X108029939Y-85523353D02*
X108019195Y-85475511D01*
X108029939Y-90035878D02*
X108043016Y-89988621D01*
X108029939Y-102802969D02*
X108019195Y-102755127D01*
X108043016Y-25709005D02*
X108058397Y-25662447D01*
X108043016Y-38570610D02*
X108029939Y-38523353D01*
X108043016Y-42988621D02*
X108058397Y-42942063D01*
X108043016Y-85570610D02*
X108029939Y-85523353D01*
X108043016Y-89988621D02*
X108058397Y-89942063D01*
X108043016Y-102850226D02*
X108029939Y-102802969D01*
X108058397Y-25662447D02*
X108076044Y-25616699D01*
X108058397Y-38617168D02*
X108043016Y-38570610D01*
X108058397Y-42942063D02*
X108076044Y-42896315D01*
X108058397Y-85617168D02*
X108043016Y-85570610D01*
X108058397Y-89942063D02*
X108076044Y-89896315D01*
X108058397Y-102896784D02*
X108043016Y-102850226D01*
X108076044Y-25616699D02*
X108095914Y-25571872D01*
X108076044Y-38662916D02*
X108058397Y-38617168D01*
X108076044Y-42896315D02*
X108095914Y-42851488D01*
X108076044Y-85662916D02*
X108058397Y-85617168D01*
X108076044Y-89896315D02*
X108095914Y-89851488D01*
X108076044Y-102942532D02*
X108058397Y-102896784D01*
X108095914Y-25571872D02*
X108117960Y-25528074D01*
X108095914Y-38707743D02*
X108076044Y-38662916D01*
X108095914Y-42851488D02*
X108117960Y-42807690D01*
X108095914Y-85707743D02*
X108076044Y-85662916D01*
X108095914Y-89851488D02*
X108117960Y-89807690D01*
X108095914Y-102987359D02*
X108076044Y-102942532D01*
X108117960Y-25528074D02*
X108142129Y-25485411D01*
X108117960Y-38751541D02*
X108095914Y-38707743D01*
X108117960Y-42807690D02*
X108142129Y-42765027D01*
X108117960Y-85751541D02*
X108095914Y-85707743D01*
X108117960Y-89807690D02*
X108142129Y-89765027D01*
X108117960Y-103031157D02*
X108095914Y-102987359D01*
X108142129Y-25485411D02*
X108168362Y-25443985D01*
X108142129Y-38794204D02*
X108117960Y-38751541D01*
X108142129Y-42765027D02*
X108168362Y-42723601D01*
X108142129Y-85794204D02*
X108117960Y-85751541D01*
X108142129Y-89765027D02*
X108168362Y-89723601D01*
X108142129Y-103073820D02*
X108117960Y-103031157D01*
X108168362Y-25443985D02*
X108196595Y-25403896D01*
X108168362Y-38835630D02*
X108142129Y-38794204D01*
X108168362Y-42723601D02*
X108196595Y-42683512D01*
X108168362Y-85835630D02*
X108142129Y-85794204D01*
X108168362Y-89723601D02*
X108196595Y-89683512D01*
X108168362Y-103115246D02*
X108142129Y-103073820D01*
X108196595Y-25403896D02*
X108226762Y-25365241D01*
X108196595Y-38875719D02*
X108168362Y-38835630D01*
X108196595Y-42683512D02*
X108226762Y-42644857D01*
X108196595Y-85875719D02*
X108168362Y-85835630D01*
X108196595Y-89683512D02*
X108226762Y-89644857D01*
X108196595Y-103155335D02*
X108168362Y-103115246D01*
X108226762Y-25365241D02*
X108258790Y-25328112D01*
X108226762Y-38914374D02*
X108196595Y-38875719D01*
X108226762Y-42644857D02*
X108258790Y-42607728D01*
X108226762Y-85914374D02*
X108196595Y-85875719D01*
X108226762Y-89644857D02*
X108258790Y-89607728D01*
X108226762Y-103193990D02*
X108196595Y-103155335D01*
X108258790Y-25328112D02*
X108292600Y-25292600D01*
X108258790Y-38951503D02*
X108226762Y-38914374D01*
X108258790Y-42607728D02*
X108292600Y-42572216D01*
X108258790Y-85951503D02*
X108226762Y-85914374D01*
X108258790Y-89607728D02*
X108292600Y-89572216D01*
X108258790Y-103231119D02*
X108226762Y-103193990D01*
X108292600Y-25292600D02*
X108328112Y-25258790D01*
X108292600Y-38987015D02*
X108258790Y-38951503D01*
X108292600Y-42572216D02*
X108328112Y-42538406D01*
X108292600Y-85987015D02*
X108258790Y-85951503D01*
X108292600Y-89572216D02*
X108328112Y-89538406D01*
X108292600Y-103266631D02*
X108258790Y-103231119D01*
X108328112Y-25258790D02*
X108365241Y-25226762D01*
X108328112Y-39020825D02*
X108292600Y-38987015D01*
X108328112Y-42538406D02*
X108365241Y-42506378D01*
X108328112Y-86020825D02*
X108292600Y-85987015D01*
X108328112Y-89538406D02*
X108365241Y-89506378D01*
X108328112Y-103300441D02*
X108292600Y-103266631D01*
X108365241Y-25226762D02*
X108403896Y-25196595D01*
X108365241Y-39052853D02*
X108328112Y-39020825D01*
X108365241Y-42506378D02*
X108403896Y-42476211D01*
X108365241Y-86052853D02*
X108328112Y-86020825D01*
X108365241Y-89506378D02*
X108403896Y-89476211D01*
X108365241Y-103332469D02*
X108328112Y-103300441D01*
X108403896Y-25196595D02*
X108443985Y-25168362D01*
X108403896Y-39083020D02*
X108365241Y-39052853D01*
X108403896Y-42476211D02*
X108443985Y-42447978D01*
X108403896Y-86083020D02*
X108365241Y-86052853D01*
X108403896Y-89476211D02*
X108443985Y-89447978D01*
X108403896Y-103362636D02*
X108365241Y-103332469D01*
X108443985Y-25168362D02*
X108485411Y-25142129D01*
X108443985Y-39111253D02*
X108403896Y-39083020D01*
X108443985Y-42447978D02*
X108485411Y-42421745D01*
X108443985Y-86111253D02*
X108403896Y-86083020D01*
X108443985Y-89447978D02*
X108485411Y-89421745D01*
X108443985Y-103390869D02*
X108403896Y-103362636D01*
X108485411Y-25142129D02*
X108528074Y-25117960D01*
X108485411Y-39137486D02*
X108443985Y-39111253D01*
X108485411Y-42421745D02*
X108528074Y-42397576D01*
X108485411Y-86137486D02*
X108443985Y-86111253D01*
X108485411Y-89421745D02*
X108528074Y-89397576D01*
X108485411Y-103417102D02*
X108443985Y-103390869D01*
X108528074Y-25117960D02*
X108571872Y-25095914D01*
X108528074Y-39161655D02*
X108485411Y-39137486D01*
X108528074Y-42397576D02*
X108571872Y-42375530D01*
X108528074Y-86161655D02*
X108485411Y-86137486D01*
X108528074Y-89397576D02*
X108571872Y-89375530D01*
X108528074Y-103441271D02*
X108485411Y-103417102D01*
X108571872Y-25095914D02*
X108616699Y-25076044D01*
X108571872Y-39183701D02*
X108528074Y-39161655D01*
X108571872Y-42375530D02*
X108616699Y-42355660D01*
X108571872Y-86183701D02*
X108528074Y-86161655D01*
X108571872Y-89375530D02*
X108616699Y-89355660D01*
X108571872Y-103463317D02*
X108528074Y-103441271D01*
X108616699Y-25076044D02*
X108662447Y-25058397D01*
X108616699Y-39203571D02*
X108571872Y-39183701D01*
X108616699Y-42355660D02*
X108662447Y-42338013D01*
X108616699Y-86203571D02*
X108571872Y-86183701D01*
X108616699Y-89355660D02*
X108662447Y-89338013D01*
X108616699Y-103483187D02*
X108571872Y-103463317D01*
X108662447Y-25058397D02*
X108709005Y-25043016D01*
X108662447Y-39221218D02*
X108616699Y-39203571D01*
X108662447Y-42338013D02*
X108709005Y-42322632D01*
X108662447Y-86221218D02*
X108616699Y-86203571D01*
X108662447Y-89338013D02*
X108709005Y-89322632D01*
X108662447Y-103500834D02*
X108616699Y-103483187D01*
X108709005Y-25043016D02*
X108756262Y-25029939D01*
X108709005Y-39236599D02*
X108662447Y-39221218D01*
X108709005Y-42322632D02*
X108756262Y-42309555D01*
X108709005Y-86236599D02*
X108662447Y-86221218D01*
X108709005Y-89322632D02*
X108756262Y-89309555D01*
X108709005Y-103516215D02*
X108662447Y-103500834D01*
X108756262Y-25029939D02*
X108804104Y-25019195D01*
X108756262Y-39249676D02*
X108709005Y-39236599D01*
X108756262Y-42309555D02*
X108804104Y-42298811D01*
X108756262Y-86249676D02*
X108709005Y-86236599D01*
X108756262Y-89309555D02*
X108804104Y-89298811D01*
X108756262Y-103529292D02*
X108709005Y-103516215D01*
X108804104Y-25019195D02*
X108852416Y-25010812D01*
X108804104Y-39260420D02*
X108756262Y-39249676D01*
X108804104Y-42298811D02*
X108852416Y-42290428D01*
X108804104Y-86260420D02*
X108756262Y-86249676D01*
X108804104Y-89298811D02*
X108852416Y-89290428D01*
X108804104Y-103540036D02*
X108756262Y-103529292D01*
X108852416Y-25010812D02*
X108901080Y-25004810D01*
X108852416Y-39268803D02*
X108804104Y-39260420D01*
X108852416Y-42290428D02*
X108901080Y-42284426D01*
X108852416Y-86268803D02*
X108804104Y-86260420D01*
X108852416Y-89290428D02*
X108901080Y-89284426D01*
X108852416Y-103548419D02*
X108804104Y-103540036D01*
X108901080Y-25004810D02*
X108949981Y-25001203D01*
X108901080Y-39274805D02*
X108852416Y-39268803D01*
X108901080Y-42284426D02*
X108949981Y-42280819D01*
X108901080Y-86274805D02*
X108852416Y-86268803D01*
X108901080Y-89284426D02*
X108949981Y-89280819D01*
X108901080Y-103554421D02*
X108852416Y-103548419D01*
X108949981Y-25001203D02*
X108999012Y-25000000D01*
X108949981Y-39278412D02*
X108901080Y-39274805D01*
X108949981Y-42280819D02*
X108999012Y-42279616D01*
X108949981Y-86278412D02*
X108901080Y-86274805D01*
X108949981Y-89280819D02*
X108999012Y-89279616D01*
X108949981Y-103558028D02*
X108901080Y-103554421D01*
X108999012Y-25000000D02*
X136500987Y-25000000D01*
X108999012Y-39279616D02*
X108949981Y-39278412D01*
X108999012Y-42279616D02*
X110065525Y-42279616D01*
X108999012Y-86279616D02*
X108949981Y-86278412D01*
X108999012Y-89279616D02*
X111149238Y-89279616D01*
X108999012Y-103559232D02*
X108949981Y-103558028D01*
X110065525Y-42279616D02*
X110115298Y-42280856D01*
X110065525Y-86279616D02*
X108999012Y-86279616D01*
X110115298Y-42280856D02*
X110164935Y-42284573D01*
X110115298Y-86278375D02*
X110065525Y-86279616D01*
X110164935Y-42284573D02*
X110214326Y-42290758D01*
X110164935Y-86274658D02*
X110115298Y-86278375D01*
X110214326Y-42290758D02*
X110263347Y-42299395D01*
X110214326Y-86268473D02*
X110164935Y-86274658D01*
X110263347Y-42299395D02*
X110311877Y-42310464D01*
X110263347Y-86259836D02*
X110214326Y-86268473D01*
X110311877Y-42310464D02*
X110359795Y-42323936D01*
X110311877Y-86248767D02*
X110263347Y-86259836D01*
X110359795Y-42323936D02*
X110406983Y-42339778D01*
X110359795Y-86235295D02*
X110311877Y-86248767D01*
X110406983Y-42339778D02*
X110453323Y-42357951D01*
X110406983Y-86219453D02*
X110359795Y-86235295D01*
X110453323Y-42357951D02*
X110498700Y-42378410D01*
X110453323Y-86201280D02*
X110406983Y-86219453D01*
X110498700Y-42378410D02*
X110543002Y-42401103D01*
X110498700Y-86180821D02*
X110453323Y-86201280D01*
X110543002Y-42401103D02*
X110586119Y-42425975D01*
X110543002Y-86158128D02*
X110498700Y-86180821D01*
X110586119Y-42425975D02*
X110627943Y-42452964D01*
X110586119Y-86133256D02*
X110543002Y-86158128D01*
X110627943Y-42452964D02*
X110668371Y-42482003D01*
X110627943Y-86106267D02*
X110586119Y-86133256D01*
X110668371Y-42482003D02*
X110707303Y-42513019D01*
X110668371Y-86077228D02*
X110627943Y-86106267D01*
X110707303Y-42513019D02*
X110744641Y-42545936D01*
X110707303Y-86046212D02*
X110668371Y-86077228D01*
X110744641Y-42545936D02*
X110780293Y-42580672D01*
X110744641Y-86013295D02*
X110707303Y-86046212D01*
X110780293Y-42580672D02*
X110814171Y-42617141D01*
X110780293Y-85978559D02*
X110744641Y-86013295D01*
X110814171Y-42617141D02*
X110846190Y-42655252D01*
X110814171Y-85942090D02*
X110780293Y-85978559D01*
X110846190Y-42655252D02*
X110876271Y-42694910D01*
X110846190Y-85903979D02*
X110814171Y-85942090D01*
X110876271Y-42694910D02*
X110904339Y-42736018D01*
X110876271Y-85864321D02*
X110846190Y-85903979D01*
X110904339Y-42736018D02*
X110930325Y-42778472D01*
X110904339Y-85823213D02*
X110876271Y-85864321D01*
X110930325Y-42778472D02*
X110954164Y-42822169D01*
X110930325Y-85780759D02*
X110904339Y-85823213D01*
X110954164Y-42822169D02*
X110975797Y-42866998D01*
X110954164Y-85737062D02*
X110930325Y-85780759D01*
X110975797Y-42866998D02*
X110995170Y-42912850D01*
X110975797Y-85692233D02*
X110954164Y-85737062D01*
X110995170Y-42912850D02*
X111012235Y-42959609D01*
X110995170Y-85646381D02*
X110975797Y-85692233D01*
X111000301Y-44767347D02*
X111021380Y-45650565D01*
X111000300Y-83791860D02*
X111021381Y-84650589D01*
X111012235Y-42959609D02*
X111026949Y-43007160D01*
X111012235Y-85599622D02*
X110995170Y-85646381D01*
X111021381Y-43908642D02*
X111000301Y-44767347D01*
X111021380Y-45650565D02*
X111085774Y-46531709D01*
X111021380Y-82908666D02*
X111000300Y-83791860D01*
X111021381Y-84650589D02*
X111061830Y-85207112D01*
X111026949Y-43007160D02*
X111039277Y-43055386D01*
X111026949Y-85552071D02*
X111012235Y-85599622D01*
X111039277Y-43055386D02*
X111049188Y-43104165D01*
X111039277Y-85503845D02*
X111026949Y-85552071D01*
X111049188Y-43104165D02*
X111056656Y-43153378D01*
X111049188Y-85455066D02*
X111039277Y-85503845D01*
X111056656Y-43153378D02*
X111061664Y-43202902D01*
X111056656Y-85405853D02*
X111049188Y-85455066D01*
X111061664Y-43202902D02*
X111064199Y-43252613D01*
X111061664Y-85356329D02*
X111056656Y-85405853D01*
X111061830Y-43352119D02*
X111021381Y-43908642D01*
X111061830Y-85207112D02*
X111064254Y-85256842D01*
X111064199Y-43252613D02*
X111064254Y-43302389D01*
X111064199Y-85306618D02*
X111061664Y-85356329D01*
X111064254Y-43302389D02*
X111061830Y-43352119D01*
X111064254Y-85256842D02*
X111064199Y-85306618D01*
X111085774Y-46531709D02*
X111193324Y-47408608D01*
X111085774Y-82027522D02*
X111021380Y-82908666D01*
X111149238Y-39279616D02*
X108999012Y-39279616D01*
X111149238Y-89279616D02*
X111199289Y-89280870D01*
X111193320Y-81150648D02*
X111085774Y-82027522D01*
X111193324Y-47408608D02*
X111343771Y-48279173D01*
X111199289Y-39278361D02*
X111149238Y-39279616D01*
X111199289Y-89280870D02*
X111249202Y-89284629D01*
X111249202Y-39274602D02*
X111199289Y-39278361D01*
X111249202Y-89284629D02*
X111298865Y-89290883D01*
X111298865Y-39268348D02*
X111249202Y-39274602D01*
X111298865Y-89290883D02*
X111348152Y-89299617D01*
X111343771Y-48279173D02*
X111542704Y-49165062D01*
X111343771Y-80280058D02*
X111193320Y-81150648D01*
X111348152Y-39259614D02*
X111298865Y-39268348D01*
X111348152Y-89299617D02*
X111396939Y-89310808D01*
X111396939Y-39248423D02*
X111348152Y-39259614D01*
X111396939Y-89310808D02*
X111445105Y-89324430D01*
X111445105Y-39234801D02*
X111396939Y-39248423D01*
X111445105Y-89324430D02*
X111492528Y-89340447D01*
X111492528Y-39218784D02*
X111445105Y-39234801D01*
X111492528Y-89340447D02*
X111539089Y-89358819D01*
X111536754Y-79417923D02*
X111343771Y-80280058D01*
X111539089Y-39200412D02*
X111492528Y-39218784D01*
X111539089Y-89358819D02*
X111584671Y-89379500D01*
X111542704Y-49165062D02*
X111778916Y-50016369D01*
X111584671Y-39179731D02*
X111539089Y-39200412D01*
X111584671Y-89379500D02*
X111629160Y-89402438D01*
X111629160Y-39156793D02*
X111584671Y-39179731D01*
X111629160Y-89402438D02*
X111672445Y-89427576D01*
X111672445Y-39131655D02*
X111629160Y-39156793D01*
X111672445Y-89427576D02*
X111714416Y-89454851D01*
X111714416Y-39104380D02*
X111672445Y-39131655D01*
X111714416Y-89454851D02*
X111754968Y-89484194D01*
X111754968Y-39075037D02*
X111714416Y-39104380D01*
X111754968Y-89484194D02*
X111794000Y-89515531D01*
X111771807Y-78566296D02*
X111536754Y-79417923D01*
X111778916Y-50016369D02*
X112056615Y-50855060D01*
X111794000Y-39043700D02*
X111754968Y-39075037D01*
X111794000Y-89515531D02*
X111831412Y-89548783D01*
X111831412Y-39010448D02*
X111794000Y-39043700D01*
X111831412Y-89548783D02*
X111867113Y-89583868D01*
X111867113Y-38975363D02*
X111831412Y-39010448D01*
X111867113Y-89583868D02*
X111901011Y-89620697D01*
X111901011Y-38938534D02*
X111867113Y-38975363D01*
X111901011Y-89620697D02*
X111933022Y-89659178D01*
X111933022Y-38900053D02*
X111901011Y-38938534D01*
X111933022Y-89659178D02*
X111963065Y-89699214D01*
X111963065Y-38860017D02*
X111933022Y-38900053D01*
X111963065Y-89699214D02*
X111991065Y-89740705D01*
X111991065Y-38818526D02*
X111963065Y-38860017D01*
X111991065Y-89740705D02*
X112016952Y-89783545D01*
X112016952Y-38775686D02*
X111991065Y-38818526D01*
X112016952Y-89783545D02*
X112040660Y-89827629D01*
X112040660Y-38731602D02*
X112016952Y-38775686D01*
X112040660Y-89827629D02*
X112062131Y-89872845D01*
X112048357Y-77727252D02*
X111771807Y-78566296D01*
X112056615Y-50855060D02*
X112375132Y-51679113D01*
X112062131Y-38686386D02*
X112040660Y-38731602D01*
X112062131Y-89872845D02*
X112081314Y-89919091D01*
X112081314Y-38640140D02*
X112062131Y-38686386D01*
X112081314Y-89919091D02*
X112375132Y-90679113D01*
X112375132Y-37880118D02*
X112081314Y-38640140D01*
X112375132Y-51679113D02*
X112733710Y-52486569D01*
X112375132Y-90679113D02*
X112723219Y-91464387D01*
X112375142Y-76880095D02*
X112048357Y-77727252D01*
X112723219Y-37094844D02*
X112375132Y-37880118D01*
X112723219Y-91464387D02*
X113131455Y-92275413D01*
X112733700Y-76072684D02*
X112375142Y-76880095D01*
X112733710Y-52486569D02*
X113131467Y-53275435D01*
X113119900Y-36305437D02*
X112723219Y-37094844D01*
X113119911Y-75305415D02*
X112733700Y-76072684D01*
X113131455Y-92275413D02*
X113554849Y-93022808D01*
X113131467Y-53275435D02*
X113554849Y-54022808D01*
X113554849Y-35536423D02*
X113119900Y-36305437D01*
X113554849Y-54022808D02*
X114026981Y-54769511D01*
X113554849Y-74536423D02*
X113119911Y-75305415D01*
X113554849Y-93022808D02*
X114026981Y-93769511D01*
X114026981Y-34789720D02*
X113554849Y-35536423D01*
X114026981Y-54769511D02*
X114535212Y-55492189D01*
X114026981Y-73789720D02*
X113554849Y-74536423D01*
X114026981Y-93769511D02*
X114535212Y-94492189D01*
X114535212Y-34067042D02*
X114026981Y-34789720D01*
X114535212Y-55492189D02*
X115078276Y-56189039D01*
X114535212Y-94492189D02*
X115093812Y-95207969D01*
X114549815Y-73047354D02*
X114026981Y-73789720D01*
X115078276Y-33370192D02*
X114535212Y-34067042D01*
X115078276Y-56189039D02*
X115654880Y-56858402D01*
X115093812Y-72351262D02*
X114549815Y-73047354D01*
X115093812Y-95207969D02*
X115671325Y-95876547D01*
X115654880Y-32700829D02*
X115078276Y-33370192D01*
X115654880Y-56858402D02*
X116263615Y-57498649D01*
X115671325Y-71682684D02*
X115093812Y-72351262D01*
X115671325Y-95876547D02*
X116280948Y-96515983D01*
X116263615Y-57498649D02*
X116921231Y-58124751D01*
X116263632Y-32060564D02*
X115654880Y-32700829D01*
X116280948Y-71043248D02*
X115671325Y-71682684D01*
X116280948Y-96515983D02*
X116903050Y-97108273D01*
X116500987Y-103559232D02*
X108999012Y-103559232D01*
X116550018Y-103558028D02*
X116500987Y-103559232D01*
X116598919Y-103554421D02*
X116550018Y-103558028D01*
X116647583Y-103548419D02*
X116598919Y-103554421D01*
X116695895Y-103540036D02*
X116647583Y-103548419D01*
X116743737Y-103529292D02*
X116695895Y-103540036D01*
X116790994Y-103516215D02*
X116743737Y-103529292D01*
X116837552Y-103500834D02*
X116790994Y-103516215D01*
X116883300Y-103483187D02*
X116837552Y-103500834D01*
X116903050Y-97108273D02*
X117153510Y-97325116D01*
X116903068Y-31450941D02*
X116263632Y-32060564D01*
X116921213Y-70434496D02*
X116280948Y-71043248D01*
X116921231Y-58124751D02*
X117590576Y-58701339D01*
X116928127Y-103463317D02*
X116883300Y-103483187D01*
X116971925Y-103441271D02*
X116928127Y-103463317D01*
X117014588Y-103417102D02*
X116971925Y-103441271D01*
X117056014Y-103390869D02*
X117014588Y-103417102D01*
X117096103Y-103362636D02*
X117056014Y-103390869D01*
X117134758Y-103332469D02*
X117096103Y-103362636D01*
X117153510Y-97325116D02*
X117190894Y-97359049D01*
X117171887Y-103300441D02*
X117134758Y-103332469D01*
X117190894Y-97359049D02*
X117226508Y-97394817D01*
X117207399Y-103266631D02*
X117171887Y-103300441D01*
X117226508Y-97394817D02*
X117260270Y-97432339D01*
X117241209Y-103231119D02*
X117207399Y-103266631D01*
X117260270Y-97432339D02*
X117292094Y-97471518D01*
X117273237Y-103193990D02*
X117241209Y-103231119D01*
X117292094Y-97471518D02*
X117321898Y-97512255D01*
X117303404Y-103155335D02*
X117273237Y-103193990D01*
X117321898Y-97512255D02*
X117349606Y-97554445D01*
X117331637Y-103115246D02*
X117303404Y-103155335D01*
X117349606Y-97554445D02*
X117375148Y-97597981D01*
X117357870Y-103073820D02*
X117331637Y-103115246D01*
X117375148Y-97597981D02*
X117398458Y-97642751D01*
X117382039Y-103031157D02*
X117357870Y-103073820D01*
X117398458Y-97642751D02*
X117419478Y-97688641D01*
X117404085Y-102987359D02*
X117382039Y-103031157D01*
X117419478Y-97688641D02*
X117438152Y-97735535D01*
X117423955Y-102942532D02*
X117404085Y-102987359D01*
X117438152Y-97735535D02*
X117454435Y-97783312D01*
X117441602Y-102896784D02*
X117423955Y-102942532D01*
X117454435Y-97783312D02*
X117468283Y-97831850D01*
X117456983Y-102850226D02*
X117441602Y-102896784D01*
X117468283Y-97831850D02*
X117479662Y-97881026D01*
X117470060Y-102802969D02*
X117456983Y-102850226D01*
X117479662Y-97881026D02*
X117488542Y-97930714D01*
X117480804Y-102755127D02*
X117470060Y-102802969D01*
X117488542Y-97930714D02*
X117494902Y-97980787D01*
X117489187Y-102706815D02*
X117480804Y-102755127D01*
X117494902Y-97980787D02*
X117498724Y-98031117D01*
X117495189Y-102658151D02*
X117489187Y-102706815D01*
X117498724Y-98031117D02*
X117500000Y-98081589D01*
X117498796Y-102609250D02*
X117495189Y-102658151D01*
X117500000Y-98081589D02*
X117500000Y-102560219D01*
X117500000Y-102560219D02*
X117498796Y-102609250D01*
X117571646Y-30873428D02*
X116903068Y-31450941D01*
X117590576Y-58701339D02*
X118267757Y-59229815D01*
X117590576Y-69857892D02*
X116921213Y-70434496D01*
X118267757Y-59229815D02*
X119010104Y-59752634D01*
X118287426Y-30314828D02*
X117571646Y-30873428D01*
X118287426Y-69314828D02*
X117590576Y-69857892D01*
X119010084Y-29806610D02*
X118287426Y-30314828D01*
X119010084Y-68806610D02*
X118287426Y-69314828D01*
X119010104Y-59752634D02*
X119756807Y-60224766D01*
X119756807Y-29334465D02*
X119010084Y-29806610D01*
X119756807Y-60224766D02*
X120504202Y-60648160D01*
X119756828Y-68334453D02*
X119010084Y-68806610D01*
X120500000Y-101230615D02*
X120501233Y-101180972D01*
X120500000Y-102560219D02*
X120500000Y-101230615D01*
X120501203Y-102609250D02*
X120500000Y-102560219D01*
X120501233Y-101180972D02*
X120504931Y-101131464D01*
X120504202Y-60648160D02*
X121293068Y-61045915D01*
X120504810Y-102658151D02*
X120501203Y-102609250D01*
X120504931Y-101131464D02*
X120511084Y-101082200D01*
X120510812Y-102706815D02*
X120504810Y-102658151D01*
X120511084Y-101082200D02*
X120519677Y-101033303D01*
X120519195Y-102755127D02*
X120510812Y-102706815D01*
X120519677Y-101033303D02*
X120530688Y-100984894D01*
X120525799Y-67899527D02*
X119756828Y-68334453D01*
X120525821Y-28899516D02*
X119756807Y-29334465D01*
X120529939Y-102802969D02*
X120519195Y-102755127D01*
X120530688Y-100984894D02*
X120544090Y-100937091D01*
X120543016Y-102850226D02*
X120529939Y-102802969D01*
X120544090Y-100937091D02*
X120559851Y-100890013D01*
X120558397Y-102896784D02*
X120543016Y-102850226D01*
X120559851Y-100890013D02*
X120577932Y-100843776D01*
X120576044Y-102942532D02*
X120558397Y-102896784D01*
X120577932Y-100843776D02*
X120598287Y-100798495D01*
X120595914Y-102987359D02*
X120576044Y-102942532D01*
X120598287Y-100798495D02*
X120620867Y-100754281D01*
X120617960Y-103031157D02*
X120595914Y-102987359D01*
X120620867Y-100754281D02*
X120645615Y-100711243D01*
X120642129Y-103073820D02*
X120617960Y-103031157D01*
X120645615Y-100711243D02*
X120672471Y-100669487D01*
X120668362Y-103115246D02*
X120642129Y-103073820D01*
X120672471Y-100669487D02*
X120701368Y-100629118D01*
X120696595Y-103155335D02*
X120668362Y-103115246D01*
X120701368Y-100629118D02*
X120732235Y-100590234D01*
X120726762Y-103193990D02*
X120696595Y-103155335D01*
X120732235Y-100590234D02*
X120764995Y-100552931D01*
X120758790Y-103231119D02*
X120726762Y-103193990D01*
X120764995Y-100552931D02*
X120799569Y-100517303D01*
X120792600Y-103266631D02*
X120758790Y-103231119D01*
X120799569Y-100517303D02*
X120835870Y-100483435D01*
X120828112Y-103300441D02*
X120792600Y-103266631D01*
X120835870Y-100483435D02*
X120873808Y-100451413D01*
X120865241Y-103332469D02*
X120828112Y-103300441D01*
X120873808Y-100451413D02*
X120913291Y-100421316D01*
X120903896Y-103362636D02*
X120865241Y-103332469D01*
X120913291Y-100421316D02*
X120954220Y-100393217D01*
X120943985Y-103390869D02*
X120903896Y-103362636D01*
X120954220Y-100393217D02*
X120996494Y-100367186D01*
X120985411Y-103417102D02*
X120943985Y-103390869D01*
X120996494Y-100367186D02*
X121040010Y-100343287D01*
X121028074Y-103441271D02*
X120985411Y-103417102D01*
X121040010Y-100343287D02*
X121084659Y-100321580D01*
X121071872Y-103463317D02*
X121028074Y-103441271D01*
X121084659Y-100321580D02*
X121130331Y-100302118D01*
X121116699Y-103483187D02*
X121071872Y-103463317D01*
X121130331Y-100302118D02*
X121176914Y-100284949D01*
X121162447Y-103500834D02*
X121116699Y-103483187D01*
X121176914Y-100284949D02*
X121224292Y-100270115D01*
X121209005Y-103516215D02*
X121162447Y-103500834D01*
X121224292Y-100270115D02*
X121272349Y-100257654D01*
X121256262Y-103529292D02*
X121209005Y-103516215D01*
X121272349Y-100257654D02*
X121320966Y-100247595D01*
X121293068Y-61045915D02*
X122100502Y-61404483D01*
X121304104Y-103540036D02*
X121256262Y-103529292D01*
X121315206Y-67502845D02*
X120525799Y-67899527D01*
X121315228Y-28502835D02*
X120525821Y-28899516D01*
X121320966Y-100247595D02*
X121370022Y-100239964D01*
X121352416Y-103548419D02*
X121304104Y-103540036D01*
X121370022Y-100239964D02*
X121419396Y-100234780D01*
X121401080Y-103554421D02*
X121352416Y-103548419D01*
X121419396Y-100234780D02*
X121468968Y-100232055D01*
X121449981Y-103558028D02*
X121401080Y-103554421D01*
X121468968Y-100232055D02*
X121518613Y-100231796D01*
X121499012Y-103559232D02*
X121449981Y-103558028D01*
X121518613Y-100231796D02*
X121568210Y-100234003D01*
X121568210Y-100234003D02*
X121617636Y-100238673D01*
X121617636Y-100238673D02*
X121666769Y-100245791D01*
X121666769Y-100245791D02*
X121715488Y-100255342D01*
X121715488Y-100255342D02*
X121763672Y-100267302D01*
X121763672Y-100267302D02*
X121811203Y-100281641D01*
X121811203Y-100281641D02*
X121857962Y-100298323D01*
X121857962Y-100298323D02*
X122123125Y-100413854D01*
X122100502Y-28154748D02*
X121315228Y-28502835D01*
X122100502Y-61404483D02*
X122924555Y-61723000D01*
X122123126Y-67145377D02*
X121315206Y-67502845D01*
X122123125Y-100413854D02*
X122488693Y-100554870D01*
X122488693Y-100554870D02*
X122498505Y-100558380D01*
X122498505Y-100558380D02*
X122499736Y-100557579D01*
X122499254Y-28000957D02*
X122100502Y-28154748D01*
X122499736Y-100557579D02*
X122500000Y-95541883D01*
X122500000Y-33017348D02*
X122499254Y-28000957D01*
X122500000Y-95541883D02*
X122507227Y-95235204D01*
X122507227Y-33324027D02*
X122500000Y-33017348D01*
X122507227Y-95235204D02*
X122509634Y-95186206D01*
X122509634Y-33373025D02*
X122507227Y-33324027D01*
X122509634Y-95186206D02*
X122529495Y-94916972D01*
X122529495Y-33642259D02*
X122509634Y-33373025D01*
X122529495Y-94916972D02*
X122534303Y-94868153D01*
X122534303Y-33691078D02*
X122529495Y-33642259D01*
X122534303Y-94868153D02*
X122567349Y-94600219D01*
X122567349Y-33959012D02*
X122534303Y-33691078D01*
X122567349Y-94600219D02*
X122574547Y-94551691D01*
X122574547Y-34007540D02*
X122567349Y-33959012D01*
X122574547Y-94551691D02*
X122620701Y-94285702D01*
X122620701Y-34273529D02*
X122574547Y-34007540D01*
X122620701Y-94285702D02*
X122630271Y-94237588D01*
X122630271Y-34321643D02*
X122620701Y-34273529D01*
X122630271Y-94237588D02*
X122689420Y-93974184D01*
X122689420Y-34585047D02*
X122630271Y-34321643D01*
X122689420Y-93974184D02*
X122701341Y-93926596D01*
X122701341Y-34632635D02*
X122689420Y-34585047D01*
X122701341Y-93926596D02*
X122773343Y-93666412D01*
X122773343Y-34892819D02*
X122701341Y-34632635D01*
X122773343Y-93666412D02*
X122787584Y-93619467D01*
X122787584Y-34939764D02*
X122773343Y-34892819D01*
X122787584Y-93619467D02*
X122872267Y-93363129D01*
X122872267Y-35196102D02*
X122787584Y-34939764D01*
X122872267Y-93363129D02*
X122888794Y-93316938D01*
X122888794Y-35242293D02*
X122872267Y-35196102D01*
X122888794Y-93316938D02*
X122985954Y-93065063D01*
X122924555Y-61723000D02*
X123763222Y-62000692D01*
X122947612Y-66827981D02*
X122123126Y-67145377D01*
X122985954Y-35494168D02*
X122888794Y-35242293D01*
X122985954Y-93065063D02*
X123004726Y-93019743D01*
X123004726Y-35539488D02*
X122985954Y-35494168D01*
X123004726Y-93019743D02*
X123114126Y-92772939D01*
X123114126Y-35786292D02*
X123004726Y-35539488D01*
X123114126Y-92772939D02*
X123135102Y-92728589D01*
X123135102Y-35830642D02*
X123114126Y-35786292D01*
X123135102Y-92728589D02*
X123256479Y-92487454D01*
X123256479Y-36071777D02*
X123135102Y-35830642D01*
X123256479Y-92487454D02*
X123279606Y-92444187D01*
X123279606Y-36115044D02*
X123256479Y-36071777D01*
X123279606Y-92444187D02*
X123412672Y-92209295D01*
X123412672Y-36349936D02*
X123279606Y-36115044D01*
X123412672Y-92209295D02*
X123437890Y-92167220D01*
X123437890Y-36392011D02*
X123412672Y-36349936D01*
X123437890Y-92167220D02*
X123582320Y-91939139D01*
X123582320Y-36620092D02*
X123437890Y-36392011D01*
X123582320Y-91939139D02*
X123609577Y-91898347D01*
X123609577Y-36660884D02*
X123582320Y-36620092D01*
X123609577Y-91898347D02*
X123799688Y-91630284D01*
X123763222Y-62000692D02*
X124614553Y-62236911D01*
X123786680Y-66551423D02*
X122947612Y-66827981D01*
X123799683Y-36928746D02*
X123609577Y-36660884D01*
X123799688Y-91630284D02*
X123800000Y-83791883D01*
X123800000Y-44767348D02*
X123799683Y-36928746D01*
X123800000Y-83791883D02*
X123805661Y-83548993D01*
X123805661Y-45010238D02*
X123800000Y-44767348D01*
X123805661Y-83548993D02*
X123823234Y-83294397D01*
X123823234Y-45264834D02*
X123805661Y-45010238D01*
X123823234Y-83294397D02*
X123828043Y-83245574D01*
X123828043Y-45313657D02*
X123823234Y-45264834D01*
X123828043Y-83245574D02*
X123853279Y-83040968D01*
X123853279Y-83040968D02*
X123895722Y-82789323D01*
X123860477Y-45566787D02*
X123828043Y-45313657D01*
X123895722Y-82789323D02*
X123905293Y-82741205D01*
X123905293Y-45818026D02*
X123860477Y-45566787D01*
X123905293Y-82741205D02*
X123962382Y-82492472D01*
X123962382Y-46066759D02*
X123905293Y-45818026D01*
X123962382Y-82492472D02*
X124017367Y-82293782D01*
X124017367Y-82293782D02*
X124096273Y-82051089D01*
X124031607Y-46312392D02*
X123962382Y-46066759D01*
X124096273Y-82051089D02*
X124112802Y-82004894D01*
X124112802Y-46554337D02*
X124031607Y-46312392D01*
X124112802Y-82004894D02*
X124205769Y-81767233D01*
X124205769Y-46791998D02*
X124112802Y-46554337D01*
X124205769Y-81767233D02*
X124289312Y-81578762D01*
X124289312Y-81578762D02*
X124402977Y-81350269D01*
X124310288Y-47024819D02*
X124205769Y-46791998D01*
X124402977Y-81350269D02*
X124426104Y-81307003D01*
X124426104Y-47252228D02*
X124310288Y-47024819D01*
X124426104Y-81307003D02*
X124552938Y-81085552D01*
X124552938Y-47473679D02*
X124426104Y-47252228D01*
X124552938Y-81085552D02*
X124663232Y-80911379D01*
X124614553Y-62236911D02*
X125476400Y-62431062D01*
X124614553Y-66322320D02*
X123786680Y-66551423D01*
X124663232Y-80911379D02*
X124809192Y-80702041D01*
X124690486Y-47688640D02*
X124552938Y-47473679D01*
X124809192Y-80702041D02*
X124965249Y-80500115D01*
X124838417Y-47896595D02*
X124690486Y-47688640D01*
X124965249Y-80500115D02*
X124996373Y-80462190D01*
X124996373Y-48097041D02*
X124838417Y-47896595D01*
X124996373Y-80462190D02*
X125131030Y-80306087D01*
X125131030Y-80306087D02*
X125306124Y-80120433D01*
X125163971Y-48289490D02*
X124996373Y-48097041D01*
X125306124Y-80120433D02*
X125490125Y-79943587D01*
X125340817Y-48473491D02*
X125163971Y-48289490D01*
X125476400Y-62431062D02*
X126346760Y-62582694D01*
X125490125Y-79943587D02*
X125682574Y-79775989D01*
X125500442Y-66123387D02*
X124614553Y-66322320D01*
X125526471Y-48648585D02*
X125340817Y-48473491D01*
X125682574Y-48783242D02*
X125526471Y-48648585D01*
X125682574Y-79775989D02*
X125720499Y-79744865D01*
X125720499Y-79744865D02*
X125922425Y-79588808D01*
X125883020Y-48941198D02*
X125682574Y-48783242D01*
X125922425Y-79588808D02*
X126090975Y-79470102D01*
X126090975Y-49089129D02*
X125883020Y-48941198D01*
X126090975Y-79470102D02*
X126305936Y-79332554D01*
X126305936Y-49226677D02*
X126090975Y-49089129D01*
X126305936Y-79332554D02*
X126348014Y-79307334D01*
X126346760Y-62582694D02*
X126672623Y-62624748D01*
X126346760Y-65976537D02*
X125500442Y-66123387D01*
X126348014Y-79307334D02*
X126527387Y-79205720D01*
X126527387Y-49353511D02*
X126305936Y-49226677D01*
X126527387Y-79205720D02*
X126754796Y-79089904D01*
X126623275Y-65941825D02*
X126346760Y-65976537D01*
X126672623Y-62624748D02*
X126721531Y-62634540D01*
X126672623Y-65934483D02*
X126623275Y-65941825D01*
X126721531Y-62634540D02*
X126769889Y-62646762D01*
X126721531Y-65924691D02*
X126672623Y-65934483D01*
X126754796Y-49469327D02*
X126527387Y-49353511D01*
X126754796Y-79089904D02*
X126799146Y-79068928D01*
X126769889Y-62646762D02*
X126817577Y-62661383D01*
X126769889Y-65912469D02*
X126721531Y-65924691D01*
X126799146Y-79068928D02*
X127032937Y-78966613D01*
X126817577Y-62661383D02*
X126864476Y-62678365D01*
X126817577Y-65897848D02*
X126769889Y-65912469D01*
X126864476Y-62678365D02*
X126910468Y-62697667D01*
X126864476Y-65880866D02*
X126817577Y-65897848D01*
X126910468Y-62697667D02*
X126955440Y-62719241D01*
X126910468Y-65861564D02*
X126864476Y-65880866D01*
X126955440Y-62719241D02*
X126999279Y-62743032D01*
X126955440Y-65839990D02*
X126910468Y-65861564D01*
X126987617Y-49573846D02*
X126754796Y-49469327D01*
X126999279Y-62743032D02*
X127041875Y-62768982D01*
X126999279Y-65816199D02*
X126955440Y-65839990D01*
X127032937Y-78966613D02*
X127225278Y-78892418D01*
X127041875Y-62768982D02*
X127083124Y-62797025D01*
X127041875Y-65790249D02*
X126999279Y-65816199D01*
X127083124Y-62797025D02*
X127122921Y-62827093D01*
X127083124Y-65762206D02*
X127041875Y-65790249D01*
X127122921Y-62827093D02*
X127161168Y-62859109D01*
X127122921Y-65732138D02*
X127083124Y-65762206D01*
X127161168Y-62859109D02*
X127197769Y-62892995D01*
X127161168Y-65700122D02*
X127122921Y-65732138D01*
X127197769Y-62892995D02*
X127232633Y-62928665D01*
X127197769Y-65666236D02*
X127161168Y-65700122D01*
X127225278Y-49666813D02*
X126987617Y-49573846D01*
X127225278Y-78892418D02*
X127467223Y-78811223D01*
X127232633Y-62928665D02*
X127265674Y-62966031D01*
X127232633Y-65630566D02*
X127197769Y-65666236D01*
X127265674Y-62966031D02*
X127296808Y-63004999D01*
X127265674Y-65593200D02*
X127232633Y-65630566D01*
X127296808Y-63004999D02*
X127325958Y-63045473D01*
X127296808Y-65554232D02*
X127265674Y-65593200D01*
X127325958Y-63045473D02*
X127353052Y-63087351D01*
X127325958Y-65513758D02*
X127296808Y-65554232D01*
X127353052Y-63087351D02*
X127378021Y-63130530D01*
X127353052Y-65471880D02*
X127325958Y-65513758D01*
X127378021Y-63130530D02*
X127400805Y-63174901D01*
X127378021Y-65428701D02*
X127353052Y-65471880D01*
X127400805Y-63174901D02*
X127421345Y-63220354D01*
X127400805Y-65384330D02*
X127378021Y-65428701D01*
X127421345Y-63220354D02*
X127439591Y-63266775D01*
X127421345Y-65338877D02*
X127400805Y-65384330D01*
X127439591Y-63266775D02*
X127455498Y-63314050D01*
X127439591Y-65292456D02*
X127421345Y-65338877D01*
X127455498Y-63314050D02*
X127469025Y-63362059D01*
X127455498Y-65245181D02*
X127439591Y-65292456D01*
X127467223Y-49748008D02*
X127225278Y-49666813D01*
X127467223Y-78811223D02*
X127712856Y-78741998D01*
X127469025Y-63362059D02*
X127480138Y-63410684D01*
X127469025Y-65197172D02*
X127455498Y-65245181D01*
X127480138Y-63410684D02*
X127488811Y-63459802D01*
X127480138Y-65148547D02*
X127469025Y-65197172D01*
X127488811Y-63459802D02*
X127495022Y-63509293D01*
X127488811Y-65099429D02*
X127480138Y-65148547D01*
X127495022Y-63509293D02*
X127498754Y-63559032D01*
X127495022Y-65049938D02*
X127488811Y-65099429D01*
X127498754Y-63559032D02*
X127500000Y-63608907D01*
X127498754Y-65000199D02*
X127495022Y-65049938D01*
X127500000Y-63608907D02*
X127500000Y-64950324D01*
X127500000Y-64950324D02*
X127498754Y-65000199D01*
X127712856Y-49817233D02*
X127467223Y-49748008D01*
X127712856Y-78741998D02*
X127760444Y-78730078D01*
X127760444Y-78730078D02*
X128009707Y-78675338D01*
X127961589Y-49874322D02*
X127712856Y-49817233D01*
X128009707Y-78675338D02*
X128212828Y-78640093D01*
X128212828Y-49919138D02*
X127961589Y-49874322D01*
X128212828Y-78640093D02*
X128465958Y-78607659D01*
X128465958Y-49951572D02*
X128212828Y-49919138D01*
X128465958Y-78607659D02*
X128514781Y-78602850D01*
X128514781Y-49956381D02*
X128465958Y-49951572D01*
X128514781Y-78602850D02*
X128720379Y-78587684D01*
X128720379Y-78587684D02*
X128975469Y-78580218D01*
X128769377Y-49973954D02*
X128514781Y-49956381D01*
X128975469Y-78580218D02*
X129230622Y-78585277D01*
X129024530Y-49979013D02*
X128769377Y-49973954D01*
X129230622Y-78585277D02*
X129485218Y-78602850D01*
X129279620Y-49971547D02*
X129024530Y-49979013D01*
X129485218Y-78602850D02*
X129738647Y-78632895D01*
X129534041Y-49951572D02*
X129279620Y-49971547D01*
X129738647Y-78632895D02*
X129990292Y-78675338D01*
X129787171Y-49919138D02*
X129534041Y-49951572D01*
X129990292Y-78675338D02*
X130038410Y-78684909D01*
X130038410Y-49874322D02*
X129787171Y-49919138D01*
X130038410Y-78684909D02*
X130287143Y-78741998D01*
X130287143Y-49817233D02*
X130038410Y-49874322D01*
X130287143Y-78741998D02*
X130485833Y-78796983D01*
X130485833Y-78796983D02*
X130728526Y-78875889D01*
X130500000Y-63608907D02*
X130501245Y-63559032D01*
X130500000Y-64950324D02*
X130500000Y-63608907D01*
X130501245Y-63559032D02*
X130504977Y-63509293D01*
X130501245Y-65000199D02*
X130500000Y-64950324D01*
X130504977Y-63509293D02*
X130511188Y-63459802D01*
X130504977Y-65049938D02*
X130501245Y-65000199D01*
X130511188Y-63459802D02*
X130519861Y-63410684D01*
X130511188Y-65099429D02*
X130504977Y-65049938D01*
X130519861Y-63410684D02*
X130530974Y-63362059D01*
X130519861Y-65148547D02*
X130511188Y-65099429D01*
X130530974Y-63362059D02*
X130544501Y-63314050D01*
X130530974Y-65197172D02*
X130519861Y-65148547D01*
X130532776Y-49748008D02*
X130287143Y-49817233D01*
X130544501Y-63314050D02*
X130560408Y-63266775D01*
X130544501Y-65245181D02*
X130530974Y-65197172D01*
X130560408Y-63266775D02*
X130578654Y-63220354D01*
X130560408Y-65292456D02*
X130544501Y-65245181D01*
X130578654Y-63220354D02*
X130599194Y-63174901D01*
X130578654Y-65338877D02*
X130560408Y-65292456D01*
X130599194Y-63174901D02*
X130621978Y-63130530D01*
X130599194Y-65384330D02*
X130578654Y-65338877D01*
X130621978Y-63130530D02*
X130646947Y-63087351D01*
X130621978Y-65428701D02*
X130599194Y-65384330D01*
X130646947Y-63087351D02*
X130674041Y-63045473D01*
X130646947Y-65471880D02*
X130621978Y-65428701D01*
X130674041Y-63045473D02*
X130703191Y-63004999D01*
X130674041Y-65513758D02*
X130646947Y-65471880D01*
X130703191Y-63004999D02*
X130734325Y-62966031D01*
X130703191Y-65554232D02*
X130674041Y-65513758D01*
X130728526Y-78875889D02*
X130967062Y-78966613D01*
X130734325Y-62966031D02*
X130767366Y-62928665D01*
X130734325Y-65593200D02*
X130703191Y-65554232D01*
X130767366Y-62928665D02*
X130802230Y-62892995D01*
X130767366Y-65630566D02*
X130734325Y-65593200D01*
X130774721Y-49666813D02*
X130532776Y-49748008D01*
X130802230Y-62892995D02*
X130838831Y-62859109D01*
X130802230Y-65666236D02*
X130767366Y-65630566D01*
X130838831Y-62859109D02*
X130877078Y-62827093D01*
X130838831Y-65700122D02*
X130802230Y-65666236D01*
X130877078Y-62827093D02*
X130916875Y-62797025D01*
X130877078Y-65732138D02*
X130838831Y-65700122D01*
X130916875Y-62797025D02*
X130958124Y-62768982D01*
X130916875Y-65762206D02*
X130877078Y-65732138D01*
X130958124Y-62768982D02*
X131000720Y-62743032D01*
X130958124Y-65790249D02*
X130916875Y-65762206D01*
X130967062Y-78966613D02*
X131200853Y-79068928D01*
X131000720Y-62743032D02*
X131044559Y-62719241D01*
X131000720Y-65816199D02*
X130958124Y-65790249D01*
X131012382Y-49573846D02*
X130774721Y-49666813D01*
X131044559Y-62719241D02*
X131089531Y-62697667D01*
X131044559Y-65839990D02*
X131000720Y-65816199D01*
X131089531Y-62697667D02*
X131135523Y-62678365D01*
X131089531Y-65861564D02*
X131044559Y-65839990D01*
X131135523Y-62678365D02*
X131182422Y-62661383D01*
X131135523Y-65880866D02*
X131089531Y-65861564D01*
X131182422Y-62661383D02*
X131230110Y-62646762D01*
X131182422Y-65897848D02*
X131135523Y-65880866D01*
X131200853Y-49490303D02*
X131012382Y-49573846D01*
X131200853Y-79068928D02*
X131245203Y-79089904D01*
X131230110Y-62646762D02*
X131278468Y-62634540D01*
X131230110Y-65912469D02*
X131182422Y-65897848D01*
X131245203Y-79089904D02*
X131472612Y-79205720D01*
X131278468Y-62634540D02*
X131327376Y-62624748D01*
X131278468Y-65924691D02*
X131230110Y-65912469D01*
X131327376Y-62624748D02*
X131653239Y-62582694D01*
X131327376Y-65934483D02*
X131278468Y-65924691D01*
X131376724Y-65941825D02*
X131327376Y-65934483D01*
X131429346Y-49376638D02*
X131200853Y-49490303D01*
X131472612Y-79205720D02*
X131694063Y-79332554D01*
X131651985Y-49251897D02*
X131429346Y-49376638D01*
X131653239Y-62582694D02*
X132499557Y-62435844D01*
X131653239Y-65976537D02*
X131376724Y-65941825D01*
X131694063Y-79332554D02*
X131909024Y-79470102D01*
X131868236Y-49116383D02*
X131651985Y-49251897D01*
X131909024Y-79470102D02*
X132077574Y-79588808D01*
X132077574Y-48970423D02*
X131868236Y-49116383D01*
X132077574Y-79588808D02*
X132279500Y-79744865D01*
X132279500Y-48814366D02*
X132077574Y-48970423D01*
X132279500Y-79744865D02*
X132473528Y-79910646D01*
X132473528Y-48648585D02*
X132279500Y-48814366D01*
X132473528Y-79910646D02*
X132659182Y-80085740D01*
X132499557Y-62435844D02*
X133361692Y-62242861D01*
X132499557Y-66123387D02*
X131653239Y-65976537D01*
X132659182Y-48473491D02*
X132473528Y-48648585D01*
X132659182Y-80085740D02*
X132693875Y-80120433D01*
X132693875Y-80120433D02*
X132868969Y-80306087D01*
X132836028Y-48289490D02*
X132659182Y-48473491D01*
X132868969Y-80306087D02*
X133003626Y-80462190D01*
X133003626Y-48097041D02*
X132836028Y-48289490D01*
X133003626Y-80462190D02*
X133161582Y-80662636D01*
X133034750Y-48059116D02*
X133003626Y-48097041D01*
X133161582Y-80662636D02*
X133309513Y-80870591D01*
X133190807Y-47857190D02*
X133034750Y-48059116D01*
X133309513Y-80870591D02*
X133447061Y-81085552D01*
X133336767Y-47647852D02*
X133190807Y-47857190D01*
X133361692Y-62242861D02*
X134213319Y-62007808D01*
X133385446Y-66322320D02*
X132499557Y-66123387D01*
X133447061Y-47473679D02*
X133336767Y-47647852D01*
X133447061Y-81085552D02*
X133573895Y-81307003D01*
X133573895Y-47252228D02*
X133447061Y-47473679D01*
X133573895Y-81307003D02*
X133597022Y-81350269D01*
X133597022Y-81350269D02*
X133710687Y-81578762D01*
X133689711Y-47024819D02*
X133573895Y-47252228D01*
X133710687Y-46980469D02*
X133689711Y-47024819D01*
X133710687Y-81578762D02*
X133813002Y-81812553D01*
X133813002Y-46746678D02*
X133710687Y-46980469D01*
X133813002Y-81812553D02*
X133887197Y-82004894D01*
X133887197Y-82004894D02*
X133968392Y-82246839D01*
X133903726Y-46508142D02*
X133813002Y-46746678D01*
X133968392Y-82246839D02*
X134037617Y-82492472D01*
X133982632Y-46265449D02*
X133903726Y-46508142D01*
X134037617Y-82492472D02*
X134049537Y-82540060D01*
X134049537Y-46019171D02*
X133982632Y-46265449D01*
X134049537Y-82540060D02*
X134104277Y-82789323D01*
X134104277Y-45769908D02*
X134049537Y-46019171D01*
X134104277Y-82789323D02*
X134146720Y-83040968D01*
X134146720Y-45518263D02*
X134104277Y-45769908D01*
X134146720Y-83040968D02*
X134171956Y-83245574D01*
X134171956Y-45313657D02*
X134146720Y-45518263D01*
X134171956Y-83245574D02*
X134176765Y-83294397D01*
X134176765Y-83294397D02*
X134194338Y-83548993D01*
X134191931Y-45059236D02*
X134171956Y-45313657D01*
X134194338Y-83548993D02*
X134200000Y-83791883D01*
X134199698Y-44791879D02*
X134191931Y-45059236D01*
X134200000Y-83791883D02*
X134200316Y-91630485D01*
X134200311Y-36928947D02*
X134199698Y-44791879D01*
X134200316Y-91630485D02*
X134390422Y-91898347D01*
X134213319Y-62007808D02*
X135052387Y-61731250D01*
X134213319Y-66551423D02*
X133385446Y-66322320D01*
X134390422Y-36660884D02*
X134200311Y-36928947D01*
X134390422Y-91898347D02*
X134417679Y-91939139D01*
X134417679Y-36620092D02*
X134390422Y-36660884D01*
X134417679Y-91939139D02*
X134562109Y-92167220D01*
X134562109Y-36392011D02*
X134417679Y-36620092D01*
X134562109Y-92167220D02*
X134587327Y-92209295D01*
X134587327Y-36349936D02*
X134562109Y-36392011D01*
X134587327Y-92209295D02*
X134720393Y-92444187D01*
X134720393Y-36115044D02*
X134587327Y-36349936D01*
X134720393Y-92444187D02*
X134743520Y-92487454D01*
X134743520Y-36071777D02*
X134720393Y-36115044D01*
X134743520Y-92487454D02*
X134864897Y-92728589D01*
X134864897Y-35830642D02*
X134743520Y-36071777D01*
X134864897Y-92728589D02*
X134885873Y-92772939D01*
X134885873Y-35786292D02*
X134864897Y-35830642D01*
X134885873Y-92772939D02*
X134995273Y-93019743D01*
X134995273Y-35539488D02*
X134885873Y-35786292D01*
X134995273Y-93019743D02*
X135014045Y-93065063D01*
X135014045Y-35494168D02*
X134995273Y-35539488D01*
X135014045Y-93065063D02*
X135111205Y-93316938D01*
X135052387Y-61731250D02*
X135876873Y-61413854D01*
X135052387Y-66827981D02*
X134213319Y-66551423D01*
X135111205Y-35242293D02*
X135014045Y-35494168D01*
X135111205Y-93316938D02*
X135127732Y-93363129D01*
X135127732Y-35196102D02*
X135111205Y-35242293D01*
X135127732Y-93363129D02*
X135212415Y-93619467D01*
X135212415Y-34939764D02*
X135127732Y-35196102D01*
X135212415Y-93619467D02*
X135226656Y-93666412D01*
X135226656Y-34892819D02*
X135212415Y-34939764D01*
X135226656Y-93666412D02*
X135298658Y-93926596D01*
X135298658Y-34632635D02*
X135226656Y-34892819D01*
X135298658Y-93926596D02*
X135310579Y-93974184D01*
X135310579Y-34585047D02*
X135298658Y-34632635D01*
X135310579Y-93974184D02*
X135369728Y-94237588D01*
X135369728Y-34321643D02*
X135310579Y-34585047D01*
X135369728Y-94237588D02*
X135379298Y-94285702D01*
X135379298Y-34273529D02*
X135369728Y-34321643D01*
X135379298Y-94285702D02*
X135425452Y-94551691D01*
X135425452Y-34007540D02*
X135379298Y-34273529D01*
X135425452Y-94551691D02*
X135432650Y-94600219D01*
X135432650Y-33959012D02*
X135425452Y-34007540D01*
X135432650Y-94600219D02*
X135465696Y-94868153D01*
X135465696Y-33691078D02*
X135432650Y-33959012D01*
X135465696Y-94868153D02*
X135470504Y-94916972D01*
X135470504Y-33642259D02*
X135465696Y-33691078D01*
X135470504Y-94916972D02*
X135490365Y-95186206D01*
X135490365Y-33373025D02*
X135470504Y-33642259D01*
X135490365Y-95186206D02*
X135492772Y-95235204D01*
X135492772Y-33324027D02*
X135490365Y-33373025D01*
X135492772Y-95235204D02*
X135500000Y-95541883D01*
X135500000Y-33017348D02*
X135492772Y-33324027D01*
X135500000Y-95541883D02*
X135500664Y-100558221D01*
X135500263Y-28001652D02*
X135500000Y-33017348D01*
X135500664Y-100558221D02*
X135899497Y-100404483D01*
X135501494Y-28000851D02*
X135500263Y-28001652D01*
X135511306Y-28004361D02*
X135501494Y-28000851D01*
X135876874Y-28145377D02*
X135511306Y-28004361D01*
X135876873Y-61413854D02*
X136684793Y-61056386D01*
X135876873Y-67145377D02*
X135052387Y-66827981D01*
X135899497Y-100404483D02*
X136684771Y-100056396D01*
X136096152Y-28241919D02*
X135876874Y-28145377D01*
X136142037Y-28260908D02*
X136096152Y-28241919D01*
X136188796Y-28277590D02*
X136142037Y-28260908D01*
X136236327Y-28291929D02*
X136188796Y-28277590D01*
X136284511Y-28303889D02*
X136236327Y-28291929D01*
X136333230Y-28313440D02*
X136284511Y-28303889D01*
X136382363Y-28320558D02*
X136333230Y-28313440D01*
X136431789Y-28325228D02*
X136382363Y-28320558D01*
X136481386Y-28327435D02*
X136431789Y-28325228D01*
X136500987Y-25000000D02*
X136550018Y-25001203D01*
X136531031Y-28327176D02*
X136481386Y-28327435D01*
X136550018Y-25001203D02*
X136598919Y-25004810D01*
X136580603Y-28324451D02*
X136531031Y-28327176D01*
X136598919Y-25004810D02*
X136647583Y-25010812D01*
X136629977Y-28319267D02*
X136580603Y-28324451D01*
X136647583Y-25010812D02*
X136695895Y-25019195D01*
X136679033Y-28311636D02*
X136629977Y-28319267D01*
X136684771Y-100056396D02*
X137474178Y-99659715D01*
X136684793Y-61056386D02*
X137474200Y-60659704D01*
X136684793Y-67502845D02*
X135876873Y-67145377D01*
X136695895Y-25019195D02*
X136743737Y-25029939D01*
X136727650Y-28301577D02*
X136679033Y-28311636D01*
X136743737Y-25029939D02*
X136790994Y-25043016D01*
X136775707Y-28289116D02*
X136727650Y-28301577D01*
X136790994Y-25043016D02*
X136837552Y-25058397D01*
X136823085Y-28274282D02*
X136775707Y-28289116D01*
X136837552Y-25058397D02*
X136883300Y-25076044D01*
X136869668Y-28257113D02*
X136823085Y-28274282D01*
X136883300Y-25076044D02*
X136928127Y-25095914D01*
X136915340Y-28237651D02*
X136869668Y-28257113D01*
X136928127Y-25095914D02*
X136971925Y-25117960D01*
X136959989Y-28215944D02*
X136915340Y-28237651D01*
X136971925Y-25117960D02*
X137014588Y-25142129D01*
X137003505Y-28192045D02*
X136959989Y-28215944D01*
X137014588Y-25142129D02*
X137056014Y-25168362D01*
X137045779Y-28166014D02*
X137003505Y-28192045D01*
X137056014Y-25168362D02*
X137096103Y-25196595D01*
X137086708Y-28137915D02*
X137045779Y-28166014D01*
X137096103Y-25196595D02*
X137134758Y-25226762D01*
X137126191Y-28107818D02*
X137086708Y-28137915D01*
X137134758Y-25226762D02*
X137171887Y-25258790D01*
X137164129Y-28075796D02*
X137126191Y-28107818D01*
X137171887Y-25258790D02*
X137207399Y-25292600D01*
X137200430Y-28041928D02*
X137164129Y-28075796D01*
X137207399Y-25292600D02*
X137241209Y-25328112D01*
X137235004Y-28006300D02*
X137200430Y-28041928D01*
X137241209Y-25328112D02*
X137273237Y-25365241D01*
X137267764Y-27968997D02*
X137235004Y-28006300D01*
X137273237Y-25365241D02*
X137303404Y-25403896D01*
X137298631Y-27930113D02*
X137267764Y-27968997D01*
X137303404Y-25403896D02*
X137331637Y-25443985D01*
X137327528Y-27889744D02*
X137298631Y-27930113D01*
X137331637Y-25443985D02*
X137357870Y-25485411D01*
X137354384Y-27847988D02*
X137327528Y-27889744D01*
X137357870Y-25485411D02*
X137382039Y-25528074D01*
X137379132Y-27804950D02*
X137354384Y-27847988D01*
X137382039Y-25528074D02*
X137404085Y-25571872D01*
X137401712Y-27760736D02*
X137379132Y-27804950D01*
X137404085Y-25571872D02*
X137423955Y-25616699D01*
X137422067Y-27715455D02*
X137401712Y-27760736D01*
X137423955Y-25616699D02*
X137441602Y-25662447D01*
X137440148Y-27669218D02*
X137422067Y-27715455D01*
X137441602Y-25662447D02*
X137456983Y-25709005D01*
X137455909Y-27622140D02*
X137440148Y-27669218D01*
X137456983Y-25709005D02*
X137470060Y-25756262D01*
X137469311Y-27574337D02*
X137455909Y-27622140D01*
X137470060Y-25756262D02*
X137480804Y-25804104D01*
X137474178Y-99659715D02*
X138243192Y-99224766D01*
X137474200Y-60659704D02*
X138243171Y-60224778D01*
X137474200Y-67899527D02*
X136684793Y-67502845D01*
X137480322Y-27525928D02*
X137469311Y-27574337D01*
X137480804Y-25804104D02*
X137489187Y-25852416D01*
X137488915Y-27477031D02*
X137480322Y-27525928D01*
X137489187Y-25852416D02*
X137495189Y-25901080D01*
X137495068Y-27427767D02*
X137488915Y-27477031D01*
X137495189Y-25901080D02*
X137498796Y-25949981D01*
X137498766Y-27378259D02*
X137495068Y-27427767D01*
X137498796Y-25949981D02*
X137500000Y-25999012D01*
X137500000Y-25999012D02*
X137500000Y-27328616D01*
X137500000Y-27328616D02*
X137498766Y-27378259D01*
X138243171Y-60224778D02*
X139010298Y-59739002D01*
X138243171Y-68334453D02*
X137474200Y-67899527D01*
X138243192Y-99224766D02*
X138989915Y-98752621D01*
X138989915Y-68806610D02*
X138243171Y-68334453D01*
X138989915Y-98752621D02*
X139712573Y-98244403D01*
X139010298Y-59739002D02*
X139732242Y-59229815D01*
X139712573Y-69314828D02*
X138989915Y-68806610D01*
X139712573Y-98244403D02*
X140428353Y-97685803D01*
X139732242Y-59229815D02*
X140428353Y-58685803D01*
X140409423Y-69857892D02*
X139712573Y-69314828D01*
X140428353Y-58685803D02*
X141078786Y-58124735D01*
X140428353Y-97685803D02*
X141096931Y-97108290D01*
X140500000Y-25999012D02*
X140501203Y-25949981D01*
X140500000Y-30477642D02*
X140500000Y-25999012D01*
X140501203Y-25949981D02*
X140504810Y-25901080D01*
X140501275Y-30528114D02*
X140500000Y-30477642D01*
X140504810Y-25901080D02*
X140510812Y-25852416D01*
X140505097Y-30578444D02*
X140501275Y-30528114D01*
X140510812Y-25852416D02*
X140519195Y-25804104D01*
X140511457Y-30628517D02*
X140505097Y-30578444D01*
X140519195Y-25804104D02*
X140529939Y-25756262D01*
X140520337Y-30678205D02*
X140511457Y-30628517D01*
X140529939Y-25756262D02*
X140543016Y-25709005D01*
X140531716Y-30727381D02*
X140520337Y-30678205D01*
X140543016Y-25709005D02*
X140558397Y-25662447D01*
X140545564Y-30775919D02*
X140531716Y-30727381D01*
X140558397Y-25662447D02*
X140576044Y-25616699D01*
X140561847Y-30823696D02*
X140545564Y-30775919D01*
X140576044Y-25616699D02*
X140595914Y-25571872D01*
X140580521Y-30870590D02*
X140561847Y-30823696D01*
X140595914Y-25571872D02*
X140617960Y-25528074D01*
X140601541Y-30916480D02*
X140580521Y-30870590D01*
X140617960Y-25528074D02*
X140642129Y-25485411D01*
X140624851Y-30961250D02*
X140601541Y-30916480D01*
X140642129Y-25485411D02*
X140668362Y-25443985D01*
X140650393Y-31004786D02*
X140624851Y-30961250D01*
X140668362Y-25443985D02*
X140696595Y-25403896D01*
X140678101Y-31046976D02*
X140650393Y-31004786D01*
X140696595Y-25403896D02*
X140726762Y-25365241D01*
X140707905Y-31087713D02*
X140678101Y-31046976D01*
X140726762Y-25365241D02*
X140758790Y-25328112D01*
X140739729Y-31126892D02*
X140707905Y-31087713D01*
X140758790Y-25328112D02*
X140792600Y-25292600D01*
X140773491Y-31164414D02*
X140739729Y-31126892D01*
X140792600Y-25292600D02*
X140828112Y-25258790D01*
X140809105Y-31200182D02*
X140773491Y-31164414D01*
X140828112Y-25258790D02*
X140865241Y-25226762D01*
X140846489Y-31234115D02*
X140809105Y-31200182D01*
X140865241Y-25226762D02*
X140903896Y-25196595D01*
X140903896Y-25196595D02*
X140943985Y-25168362D01*
X140943985Y-25168362D02*
X140985411Y-25142129D01*
X140985411Y-25142129D02*
X141028074Y-25117960D01*
X141028074Y-25117960D02*
X141071872Y-25095914D01*
X141071872Y-25095914D02*
X141116699Y-25076044D01*
X141078786Y-58124735D02*
X141719033Y-57516000D01*
X141078786Y-70434496D02*
X140409423Y-69857892D01*
X141096931Y-97108290D02*
X141736367Y-96498667D01*
X141096949Y-31450958D02*
X140846489Y-31234115D01*
X141116699Y-25076044D02*
X141162447Y-25058397D01*
X141162447Y-25058397D02*
X141209005Y-25043016D01*
X141209005Y-25043016D02*
X141256262Y-25029939D01*
X141256262Y-25029939D02*
X141304104Y-25019195D01*
X141304104Y-25019195D02*
X141352416Y-25010812D01*
X141352416Y-25010812D02*
X141401080Y-25004810D01*
X141401080Y-25004810D02*
X141449981Y-25001203D01*
X141449981Y-25001203D02*
X141499012Y-25000000D01*
X141499012Y-25000000D02*
X175500987Y-25000000D01*
X141719033Y-57516000D02*
X142345135Y-56858384D01*
X141719051Y-32043248D02*
X141096949Y-31450958D01*
X141719051Y-71043248D02*
X141078786Y-70434496D01*
X141736367Y-96498667D02*
X142345119Y-95858402D01*
X142328674Y-71682684D02*
X141719051Y-71043248D01*
X142345119Y-95858402D02*
X142921738Y-95189019D01*
X142345135Y-32700847D02*
X141719051Y-32043248D01*
X142345135Y-56858384D02*
X142921723Y-56189039D01*
X142906187Y-72351262D02*
X142328674Y-71682684D01*
X142921723Y-56189039D02*
X143464787Y-55492189D01*
X142921738Y-33370212D02*
X142345135Y-32700847D01*
X142921738Y-95189019D02*
X143450199Y-94511858D01*
X143450184Y-73047354D02*
X142906187Y-72351262D01*
X143450199Y-94511858D02*
X143959386Y-93789914D01*
X143464787Y-34067042D02*
X142921738Y-33370212D01*
X143464787Y-55492189D02*
X143973005Y-54769531D01*
X143959386Y-93789914D02*
X144432548Y-93043833D01*
X143959400Y-34769338D02*
X143464787Y-34067042D01*
X143973005Y-54769531D02*
X144445150Y-54022808D01*
X143973018Y-73789720D02*
X143450184Y-73047354D01*
X144432548Y-93043833D02*
X144868544Y-92275413D01*
X144445150Y-35536423D02*
X143959400Y-34769338D01*
X144445150Y-54022808D02*
X144880088Y-53253816D01*
X144445150Y-74536423D02*
X143973018Y-73789720D01*
X144868544Y-92275413D02*
X145266299Y-91486547D01*
X144880088Y-53253816D02*
X145276770Y-52464409D01*
X144880088Y-75305415D02*
X144445150Y-74536423D01*
X144880099Y-36305437D02*
X144445150Y-35536423D01*
X145266299Y-76072684D02*
X144880088Y-75305415D01*
X145266299Y-91486547D02*
X145624867Y-90679113D01*
X145276770Y-52464409D02*
X145634238Y-51656489D01*
X145276780Y-37094844D02*
X144880099Y-36305437D01*
X145624857Y-76880095D02*
X145266299Y-76072684D01*
X145624867Y-37880118D02*
X145276780Y-37094844D01*
X145624867Y-90679113D02*
X145918685Y-89919091D01*
X145634238Y-51656489D02*
X145951642Y-50831979D01*
X145918685Y-38640140D02*
X145624867Y-37880118D01*
X145918685Y-89919091D02*
X145937868Y-89872845D01*
X145937868Y-38686386D02*
X145918685Y-38640140D01*
X145937868Y-89872845D02*
X145959339Y-89827629D01*
X145951642Y-50831979D02*
X146228192Y-49992935D01*
X145951642Y-77727252D02*
X145624857Y-76880095D01*
X145959339Y-38731602D02*
X145937868Y-38686386D01*
X145959339Y-89827629D02*
X145983047Y-89783545D01*
X145983047Y-38775686D02*
X145959339Y-38731602D01*
X145983047Y-89783545D02*
X146008934Y-89740705D01*
X146008934Y-38818526D02*
X145983047Y-38775686D01*
X146008934Y-89740705D02*
X146036934Y-89699214D01*
X146036934Y-38860017D02*
X146008934Y-38818526D01*
X146036934Y-89699214D02*
X146066977Y-89659178D01*
X146066977Y-38900053D02*
X146036934Y-38860017D01*
X146066977Y-89659178D02*
X146098988Y-89620697D01*
X146098988Y-38938534D02*
X146066977Y-38900053D01*
X146098988Y-89620697D02*
X146132886Y-89583868D01*
X146132886Y-38975363D02*
X146098988Y-38938534D01*
X146132886Y-89583868D02*
X146168587Y-89548783D01*
X146168587Y-39010448D02*
X146132886Y-38975363D01*
X146168587Y-89548783D02*
X146205999Y-89515531D01*
X146205999Y-39043700D02*
X146168587Y-39010448D01*
X146205999Y-89515531D02*
X146245031Y-89484194D01*
X146228192Y-49992935D02*
X146463245Y-49141308D01*
X146228192Y-78566296D02*
X145951642Y-77727252D01*
X146245031Y-39075037D02*
X146205999Y-39043700D01*
X146245031Y-89484194D02*
X146285583Y-89454851D01*
X146285583Y-39104380D02*
X146245031Y-39075037D01*
X146285583Y-89454851D02*
X146327554Y-89427576D01*
X146327554Y-39131655D02*
X146285583Y-39104380D01*
X146327554Y-89427576D02*
X146370839Y-89402438D01*
X146370839Y-39156793D02*
X146327554Y-39131655D01*
X146370839Y-89402438D02*
X146415328Y-89379500D01*
X146415328Y-39179731D02*
X146370839Y-39156793D01*
X146415328Y-89379500D02*
X146460910Y-89358819D01*
X146460910Y-39200412D02*
X146415328Y-39179731D01*
X146460910Y-89358819D02*
X146507471Y-89340447D01*
X146463245Y-49141308D02*
X146656228Y-48279173D01*
X146463245Y-79417923D02*
X146228192Y-78566296D01*
X146507471Y-39218784D02*
X146460910Y-39200412D01*
X146507471Y-89340447D02*
X146554894Y-89324430D01*
X146554894Y-39234801D02*
X146507471Y-39218784D01*
X146554894Y-89324430D02*
X146603060Y-89310808D01*
X146603060Y-39248423D02*
X146554894Y-39234801D01*
X146603060Y-89310808D02*
X146651847Y-89299617D01*
X146651847Y-39259614D02*
X146603060Y-39248423D01*
X146651847Y-89299617D02*
X146701134Y-89290883D01*
X146656228Y-48279173D02*
X146806679Y-47408583D01*
X146656228Y-80280058D02*
X146463245Y-79417923D01*
X146701134Y-39268348D02*
X146651847Y-39259614D01*
X146701134Y-89290883D02*
X146750797Y-89284629D01*
X146750797Y-39274602D02*
X146701134Y-39268348D01*
X146750797Y-89284629D02*
X146800710Y-89280870D01*
X146800710Y-39278361D02*
X146750797Y-39274602D01*
X146800710Y-89280870D02*
X146850761Y-89279616D01*
X146806679Y-47408583D02*
X146914225Y-46531709D01*
X146806679Y-81150648D02*
X146656228Y-80280058D01*
X146850761Y-39279616D02*
X146800710Y-39278361D01*
X146850761Y-89279616D02*
X150149238Y-89279616D01*
X146914225Y-46531709D02*
X146978618Y-45650589D01*
X146914225Y-82027522D02*
X146806679Y-81150648D01*
X146935745Y-43302389D02*
X146935800Y-43252613D01*
X146935745Y-85256842D02*
X146938169Y-85207112D01*
X146935800Y-43252613D02*
X146938335Y-43202902D01*
X146935800Y-85306618D02*
X146935745Y-85256842D01*
X146938169Y-43352119D02*
X146935745Y-43302389D01*
X146938169Y-85207112D02*
X146978618Y-84650589D01*
X146938335Y-43202902D02*
X146943343Y-43153378D01*
X146938335Y-85356329D02*
X146935800Y-85306618D01*
X146943343Y-43153378D02*
X146950811Y-43104165D01*
X146943343Y-85405853D02*
X146938335Y-85356329D01*
X146950811Y-43104165D02*
X146960722Y-43055386D01*
X146950811Y-85455066D02*
X146943343Y-85405853D01*
X146960722Y-43055386D02*
X146973050Y-43007160D01*
X146960722Y-85503845D02*
X146950811Y-85455066D01*
X146973050Y-43007160D02*
X146987764Y-42959609D01*
X146973050Y-85552071D02*
X146960722Y-85503845D01*
X146978618Y-43908642D02*
X146938169Y-43352119D01*
X146978618Y-45650589D02*
X146999698Y-44767347D01*
X146978619Y-82908666D02*
X146914225Y-82027522D01*
X146978618Y-84650589D02*
X146999699Y-83791860D01*
X146987764Y-42959609D02*
X147004829Y-42912850D01*
X146987764Y-85599622D02*
X146973050Y-85552071D01*
X146999698Y-44767347D02*
X146978618Y-43908642D01*
X146999699Y-83791860D02*
X146978619Y-82908666D01*
X147004829Y-42912850D02*
X147024202Y-42866998D01*
X147004829Y-85646381D02*
X146987764Y-85599622D01*
X147024202Y-42866998D02*
X147045835Y-42822169D01*
X147024202Y-85692233D02*
X147004829Y-85646381D01*
X147045835Y-42822169D02*
X147069674Y-42778472D01*
X147045835Y-85737062D02*
X147024202Y-85692233D01*
X147069674Y-42778472D02*
X147095660Y-42736018D01*
X147069674Y-85780759D02*
X147045835Y-85737062D01*
X147095660Y-42736018D02*
X147123728Y-42694910D01*
X147095660Y-85823213D02*
X147069674Y-85780759D01*
X147123728Y-42694910D02*
X147153809Y-42655252D01*
X147123728Y-85864321D02*
X147095660Y-85823213D01*
X147153809Y-42655252D02*
X147185828Y-42617141D01*
X147153809Y-85903979D02*
X147123728Y-85864321D01*
X147185828Y-42617141D02*
X147219706Y-42580672D01*
X147185828Y-85942090D02*
X147153809Y-85903979D01*
X147219706Y-42580672D02*
X147255358Y-42545936D01*
X147219706Y-85978559D02*
X147185828Y-85942090D01*
X147255358Y-42545936D02*
X147292696Y-42513019D01*
X147255358Y-86013295D02*
X147219706Y-85978559D01*
X147292696Y-42513019D02*
X147331628Y-42482003D01*
X147292696Y-86046212D02*
X147255358Y-86013295D01*
X147331628Y-42482003D02*
X147372056Y-42452964D01*
X147331628Y-86077228D02*
X147292696Y-86046212D01*
X147372056Y-42452964D02*
X147413880Y-42425975D01*
X147372056Y-86106267D02*
X147331628Y-86077228D01*
X147413880Y-42425975D02*
X147456997Y-42401103D01*
X147413880Y-86133256D02*
X147372056Y-86106267D01*
X147456997Y-42401103D02*
X147501299Y-42378410D01*
X147456997Y-86158128D02*
X147413880Y-86133256D01*
X147501299Y-42378410D02*
X147546676Y-42357951D01*
X147501299Y-86180821D02*
X147456997Y-86158128D01*
X147546676Y-42357951D02*
X147593016Y-42339778D01*
X147546676Y-86201280D02*
X147501299Y-86180821D01*
X147593016Y-42339778D02*
X147640204Y-42323936D01*
X147593016Y-86219453D02*
X147546676Y-86201280D01*
X147640204Y-42323936D02*
X147688122Y-42310464D01*
X147640204Y-86235295D02*
X147593016Y-86219453D01*
X147688122Y-42310464D02*
X147736652Y-42299395D01*
X147688122Y-86248767D02*
X147640204Y-86235295D01*
X147736652Y-42299395D02*
X147785673Y-42290758D01*
X147736652Y-86259836D02*
X147688122Y-86248767D01*
X147785673Y-42290758D02*
X147835064Y-42284573D01*
X147785673Y-86268473D02*
X147736652Y-86259836D01*
X147835064Y-42284573D02*
X147884701Y-42280856D01*
X147835064Y-86274658D02*
X147785673Y-86268473D01*
X147884701Y-42280856D02*
X147934474Y-42279616D01*
X147884701Y-86278375D02*
X147835064Y-86274658D01*
X147934474Y-42279616D02*
X149065525Y-42279616D01*
X147934474Y-86279616D02*
X147884701Y-86278375D01*
X149065525Y-42279616D02*
X149115298Y-42280856D01*
X149065525Y-86279616D02*
X147934474Y-86279616D01*
X149115298Y-42280856D02*
X149164935Y-42284573D01*
X149115298Y-86278375D02*
X149065525Y-86279616D01*
X149164935Y-42284573D02*
X149214326Y-42290758D01*
X149164935Y-86274658D02*
X149115298Y-86278375D01*
X149214326Y-42290758D02*
X149263347Y-42299395D01*
X149214326Y-86268473D02*
X149164935Y-86274658D01*
X149263347Y-42299395D02*
X149311877Y-42310464D01*
X149263347Y-86259836D02*
X149214326Y-86268473D01*
X149311877Y-42310464D02*
X149359795Y-42323936D01*
X149311877Y-86248767D02*
X149263347Y-86259836D01*
X149359795Y-42323936D02*
X149406983Y-42339778D01*
X149359795Y-86235295D02*
X149311877Y-86248767D01*
X149406983Y-42339778D02*
X149453323Y-42357951D01*
X149406983Y-86219453D02*
X149359795Y-86235295D01*
X149453323Y-42357951D02*
X149498700Y-42378410D01*
X149453323Y-86201280D02*
X149406983Y-86219453D01*
X149498700Y-42378410D02*
X149543002Y-42401103D01*
X149498700Y-86180821D02*
X149453323Y-86201280D01*
X149543002Y-42401103D02*
X149586119Y-42425975D01*
X149543002Y-86158128D02*
X149498700Y-86180821D01*
X149586119Y-42425975D02*
X149627943Y-42452964D01*
X149586119Y-86133256D02*
X149543002Y-86158128D01*
X149627943Y-42452964D02*
X149668371Y-42482003D01*
X149627943Y-86106267D02*
X149586119Y-86133256D01*
X149668371Y-42482003D02*
X149707303Y-42513019D01*
X149668371Y-86077228D02*
X149627943Y-86106267D01*
X149707303Y-42513019D02*
X149744641Y-42545936D01*
X149707303Y-86046212D02*
X149668371Y-86077228D01*
X149744641Y-42545936D02*
X149780293Y-42580672D01*
X149744641Y-86013295D02*
X149707303Y-86046212D01*
X149780293Y-42580672D02*
X149814171Y-42617141D01*
X149780293Y-85978559D02*
X149744641Y-86013295D01*
X149814171Y-42617141D02*
X149846190Y-42655252D01*
X149814171Y-85942090D02*
X149780293Y-85978559D01*
X149846190Y-42655252D02*
X149876271Y-42694910D01*
X149846190Y-85903979D02*
X149814171Y-85942090D01*
X149876271Y-42694910D02*
X149904339Y-42736018D01*
X149876271Y-85864321D02*
X149846190Y-85903979D01*
X149904339Y-42736018D02*
X149930325Y-42778472D01*
X149904339Y-85823213D02*
X149876271Y-85864321D01*
X149930325Y-42778472D02*
X149954164Y-42822169D01*
X149930325Y-85780759D02*
X149904339Y-85823213D01*
X149954164Y-42822169D02*
X149975797Y-42866998D01*
X149954164Y-85737062D02*
X149930325Y-85780759D01*
X149975797Y-42866998D02*
X149995170Y-42912850D01*
X149975797Y-85692233D02*
X149954164Y-85737062D01*
X149995170Y-42912850D02*
X150012235Y-42959609D01*
X149995170Y-85646381D02*
X149975797Y-85692233D01*
X150000300Y-44767371D02*
X150021380Y-45650565D01*
X150000301Y-83791884D02*
X150021381Y-84650589D01*
X150012235Y-42959609D02*
X150026949Y-43007160D01*
X150012235Y-85599622D02*
X149995170Y-85646381D01*
X150021381Y-43908642D02*
X150000300Y-44767371D01*
X150021380Y-45650565D02*
X150085774Y-46531709D01*
X150021381Y-82908642D02*
X150000301Y-83791884D01*
X150021381Y-84650589D02*
X150061830Y-85207112D01*
X150026949Y-43007160D02*
X150039277Y-43055386D01*
X150026949Y-85552071D02*
X150012235Y-85599622D01*
X150039277Y-43055386D02*
X150049188Y-43104165D01*
X150039277Y-85503845D02*
X150026949Y-85552071D01*
X150049188Y-43104165D02*
X150056656Y-43153378D01*
X150049188Y-85455066D02*
X150039277Y-85503845D01*
X150056656Y-43153378D02*
X150061664Y-43202902D01*
X150056656Y-85405853D02*
X150049188Y-85455066D01*
X150061664Y-43202902D02*
X150064199Y-43252613D01*
X150061664Y-85356329D02*
X150056656Y-85405853D01*
X150061830Y-43352119D02*
X150021381Y-43908642D01*
X150061830Y-85207112D02*
X150064254Y-85256842D01*
X150064199Y-43252613D02*
X150064254Y-43302389D01*
X150064199Y-85306618D02*
X150061664Y-85356329D01*
X150064254Y-43302389D02*
X150061830Y-43352119D01*
X150064254Y-85256842D02*
X150064199Y-85306618D01*
X150085774Y-46531709D02*
X150193320Y-47408583D01*
X150085774Y-82027522D02*
X150021381Y-82908642D01*
X150149238Y-39279616D02*
X146850761Y-39279616D01*
X150149238Y-89279616D02*
X150199289Y-89280870D01*
X150193320Y-47408583D02*
X150343771Y-48279173D01*
X150193320Y-81150648D02*
X150085774Y-82027522D01*
X150199289Y-39278361D02*
X150149238Y-39279616D01*
X150199289Y-89280870D02*
X150249202Y-89284629D01*
X150249202Y-39274602D02*
X150199289Y-39278361D01*
X150249202Y-89284629D02*
X150298865Y-89290883D01*
X150298865Y-39268348D02*
X150249202Y-39274602D01*
X150298865Y-89290883D02*
X150348152Y-89299617D01*
X150343771Y-48279173D02*
X150536754Y-49141308D01*
X150343771Y-80280058D02*
X150193320Y-81150648D01*
X150348152Y-39259614D02*
X150298865Y-39268348D01*
X150348152Y-89299617D02*
X150396939Y-89310808D01*
X150396939Y-39248423D02*
X150348152Y-39259614D01*
X150396939Y-89310808D02*
X150445105Y-89324430D01*
X150445105Y-39234801D02*
X150396939Y-39248423D01*
X150445105Y-89324430D02*
X150492528Y-89340447D01*
X150492528Y-39218784D02*
X150445105Y-39234801D01*
X150492528Y-89340447D02*
X150539089Y-89358819D01*
X150536754Y-49141308D02*
X150771807Y-49992935D01*
X150536754Y-79417923D02*
X150343771Y-80280058D01*
X150539089Y-39200412D02*
X150492528Y-39218784D01*
X150539089Y-89358819D02*
X150584671Y-89379500D01*
X150584671Y-39179731D02*
X150539089Y-39200412D01*
X150584671Y-89379500D02*
X150629160Y-89402438D01*
X150629160Y-39156793D02*
X150584671Y-39179731D01*
X150629160Y-89402438D02*
X150672445Y-89427576D01*
X150672445Y-39131655D02*
X150629160Y-39156793D01*
X150672445Y-89427576D02*
X150714416Y-89454851D01*
X150714416Y-39104380D02*
X150672445Y-39131655D01*
X150714416Y-89454851D02*
X150754968Y-89484194D01*
X150754968Y-39075037D02*
X150714416Y-39104380D01*
X150754968Y-89484194D02*
X150794000Y-89515531D01*
X150771807Y-49992935D02*
X151048357Y-50831979D01*
X150771807Y-78566296D02*
X150536754Y-79417923D01*
X150794000Y-39043700D02*
X150754968Y-39075037D01*
X150794000Y-89515531D02*
X150831412Y-89548783D01*
X150831412Y-39010448D02*
X150794000Y-39043700D01*
X150831412Y-89548783D02*
X150867113Y-89583868D01*
X150867113Y-38975363D02*
X150831412Y-39010448D01*
X150867113Y-89583868D02*
X150901011Y-89620697D01*
X150901011Y-38938534D02*
X150867113Y-38975363D01*
X150901011Y-89620697D02*
X150933022Y-89659178D01*
X150933022Y-38900053D02*
X150901011Y-38938534D01*
X150933022Y-89659178D02*
X150963065Y-89699214D01*
X150963065Y-38860017D02*
X150933022Y-38900053D01*
X150963065Y-89699214D02*
X150991065Y-89740705D01*
X150991065Y-38818526D02*
X150963065Y-38860017D01*
X150991065Y-89740705D02*
X151016952Y-89783545D01*
X151016952Y-38775686D02*
X150991065Y-38818526D01*
X151016952Y-89783545D02*
X151040660Y-89827629D01*
X151040660Y-38731602D02*
X151016952Y-38775686D01*
X151040660Y-89827629D02*
X151062131Y-89872845D01*
X151048357Y-50831979D02*
X151375142Y-51679136D01*
X151048357Y-77727252D02*
X150771807Y-78566296D01*
X151062131Y-38686386D02*
X151040660Y-38731602D01*
X151062131Y-89872845D02*
X151081314Y-89919091D01*
X151081314Y-38640140D02*
X151062131Y-38686386D01*
X151081314Y-89919091D02*
X151375132Y-90679113D01*
X151365761Y-76902742D02*
X151048357Y-77727252D01*
X151375132Y-37880118D02*
X151081314Y-38640140D01*
X151375132Y-90679113D02*
X151723219Y-91464387D01*
X151375142Y-51679136D02*
X151733700Y-52486547D01*
X151723219Y-37094844D02*
X151375132Y-37880118D01*
X151723219Y-91464387D02*
X152119911Y-92253816D01*
X151723229Y-76094822D02*
X151365761Y-76902742D01*
X151733700Y-52486547D02*
X152119911Y-53253816D01*
X152119900Y-36305437D02*
X151723219Y-37094844D01*
X152119911Y-53253816D02*
X152554849Y-54022808D01*
X152119911Y-75305415D02*
X151723229Y-76094822D01*
X152119911Y-92253816D02*
X152567438Y-93043812D01*
X152554849Y-35536423D02*
X152119900Y-36305437D01*
X152554849Y-54022808D02*
X153026981Y-54769511D01*
X152554849Y-74536423D02*
X152119911Y-75305415D01*
X152567438Y-93043812D02*
X153040599Y-93789893D01*
X153026981Y-34789720D02*
X152554849Y-35536423D01*
X153026981Y-54769511D02*
X153549815Y-55511877D01*
X153026994Y-73789700D02*
X152554849Y-74536423D01*
X153040599Y-93789893D02*
X153535212Y-94492189D01*
X153535212Y-34067042D02*
X153026981Y-34789720D01*
X153535212Y-73067042D02*
X153026994Y-73789700D01*
X153535212Y-94492189D02*
X154078261Y-95189019D01*
X153549815Y-55511877D02*
X154093812Y-56207969D01*
X154078261Y-95189019D02*
X154654864Y-95858384D01*
X154078276Y-33370192D02*
X153535212Y-34067042D01*
X154078276Y-72370192D02*
X153535212Y-73067042D01*
X154093812Y-56207969D02*
X154671325Y-56876547D01*
X154654864Y-71700847D02*
X154078276Y-72370192D01*
X154654864Y-95858384D02*
X155280948Y-96515983D01*
X154654880Y-32700829D02*
X154078276Y-33370192D01*
X154671325Y-56876547D02*
X155280948Y-57515983D01*
X155263615Y-32060582D02*
X154654880Y-32700829D01*
X155280948Y-57515983D02*
X155921213Y-58124735D01*
X155280948Y-96515983D02*
X155903050Y-97108273D01*
X155280966Y-71043231D02*
X154654864Y-71700847D01*
X155500987Y-103559232D02*
X121499012Y-103559232D01*
X155550018Y-103558028D02*
X155500987Y-103559232D01*
X155598919Y-103554421D02*
X155550018Y-103558028D01*
X155647583Y-103548419D02*
X155598919Y-103554421D01*
X155695895Y-103540036D02*
X155647583Y-103548419D01*
X155743737Y-103529292D02*
X155695895Y-103540036D01*
X155790994Y-103516215D02*
X155743737Y-103529292D01*
X155837552Y-103500834D02*
X155790994Y-103516215D01*
X155883300Y-103483187D02*
X155837552Y-103500834D01*
X155903050Y-97108273D02*
X156153510Y-97325116D01*
X155903068Y-31450941D02*
X155263615Y-32060582D01*
X155921213Y-58124735D02*
X156590576Y-58701339D01*
X155921213Y-70434496D02*
X155280966Y-71043231D01*
X155928127Y-103463317D02*
X155883300Y-103483187D01*
X155971925Y-103441271D02*
X155928127Y-103463317D01*
X156014588Y-103417102D02*
X155971925Y-103441271D01*
X156056014Y-103390869D02*
X156014588Y-103417102D01*
X156096103Y-103362636D02*
X156056014Y-103390869D01*
X156134758Y-103332469D02*
X156096103Y-103362636D01*
X156153510Y-97325116D02*
X156190894Y-97359049D01*
X156171887Y-103300441D02*
X156134758Y-103332469D01*
X156190894Y-97359049D02*
X156226508Y-97394817D01*
X156207399Y-103266631D02*
X156171887Y-103300441D01*
X156226508Y-97394817D02*
X156260270Y-97432339D01*
X156241209Y-103231119D02*
X156207399Y-103266631D01*
X156260270Y-97432339D02*
X156292094Y-97471518D01*
X156273237Y-103193990D02*
X156241209Y-103231119D01*
X156292094Y-97471518D02*
X156321898Y-97512255D01*
X156303404Y-103155335D02*
X156273237Y-103193990D01*
X156321898Y-97512255D02*
X156349606Y-97554445D01*
X156331637Y-103115246D02*
X156303404Y-103155335D01*
X156349606Y-97554445D02*
X156375148Y-97597981D01*
X156357870Y-103073820D02*
X156331637Y-103115246D01*
X156375148Y-97597981D02*
X156398458Y-97642751D01*
X156382039Y-103031157D02*
X156357870Y-103073820D01*
X156398458Y-97642751D02*
X156419478Y-97688641D01*
X156404085Y-102987359D02*
X156382039Y-103031157D01*
X156419478Y-97688641D02*
X156438152Y-97735535D01*
X156423955Y-102942532D02*
X156404085Y-102987359D01*
X156438152Y-97735535D02*
X156454435Y-97783312D01*
X156441602Y-102896784D02*
X156423955Y-102942532D01*
X156454435Y-97783312D02*
X156468283Y-97831850D01*
X156456983Y-102850226D02*
X156441602Y-102896784D01*
X156468283Y-97831850D02*
X156479662Y-97881026D01*
X156470060Y-102802969D02*
X156456983Y-102850226D01*
X156479662Y-97881026D02*
X156488542Y-97930714D01*
X156480804Y-102755127D02*
X156470060Y-102802969D01*
X156488542Y-97930714D02*
X156494902Y-97980787D01*
X156489187Y-102706815D02*
X156480804Y-102755127D01*
X156494902Y-97980787D02*
X156498724Y-98031117D01*
X156495189Y-102658151D02*
X156489187Y-102706815D01*
X156498724Y-98031117D02*
X156500000Y-98081589D01*
X156498796Y-102609250D02*
X156495189Y-102658151D01*
X156500000Y-98081589D02*
X156500000Y-102560219D01*
X156500000Y-102560219D02*
X156498796Y-102609250D01*
X156571646Y-30873428D02*
X155903068Y-31450941D01*
X156590576Y-58701339D02*
X157287426Y-59244403D01*
X156590596Y-69857877D02*
X155921213Y-70434496D01*
X157287426Y-30314828D02*
X156571646Y-30873428D01*
X157287426Y-59244403D02*
X158010084Y-59752621D01*
X157287426Y-69314828D02*
X156590596Y-69857877D01*
X157989722Y-68820215D02*
X157287426Y-69314828D01*
X158010084Y-29806610D02*
X157287426Y-30314828D01*
X158010084Y-59752621D02*
X158756828Y-60224778D01*
X158735803Y-68347054D02*
X157989722Y-68820215D01*
X158756807Y-29334465D02*
X158010084Y-29806610D01*
X158756828Y-60224778D02*
X159525799Y-60659704D01*
X159500000Y-101230615D02*
X159501233Y-101180972D01*
X159500000Y-102560219D02*
X159500000Y-101230615D01*
X159501203Y-102609250D02*
X159500000Y-102560219D01*
X159501233Y-101180972D02*
X159504931Y-101131464D01*
X159504180Y-67911083D02*
X158735803Y-68347054D01*
X159504810Y-102658151D02*
X159501203Y-102609250D01*
X159504931Y-101131464D02*
X159511084Y-101082200D01*
X159510812Y-102706815D02*
X159504810Y-102658151D01*
X159511084Y-101082200D02*
X159519677Y-101033303D01*
X159519195Y-102755127D02*
X159510812Y-102706815D01*
X159519677Y-101033303D02*
X159530688Y-100984894D01*
X159525799Y-60659704D02*
X160315206Y-61056386D01*
X159525821Y-28899516D02*
X158756807Y-29334465D01*
X159529939Y-102802969D02*
X159519195Y-102755127D01*
X159530688Y-100984894D02*
X159544090Y-100937091D01*
X159543016Y-102850226D02*
X159529939Y-102802969D01*
X159544090Y-100937091D02*
X159559851Y-100890013D01*
X159558397Y-102896784D02*
X159543016Y-102850226D01*
X159559851Y-100890013D02*
X159577932Y-100843776D01*
X159576044Y-102942532D02*
X159558397Y-102896784D01*
X159577932Y-100843776D02*
X159598287Y-100798495D01*
X159595914Y-102987359D02*
X159576044Y-102942532D01*
X159598287Y-100798495D02*
X159620867Y-100754281D01*
X159617960Y-103031157D02*
X159595914Y-102987359D01*
X159620867Y-100754281D02*
X159645615Y-100711243D01*
X159642129Y-103073820D02*
X159617960Y-103031157D01*
X159645615Y-100711243D02*
X159672471Y-100669487D01*
X159668362Y-103115246D02*
X159642129Y-103073820D01*
X159672471Y-100669487D02*
X159701368Y-100629118D01*
X159696595Y-103155335D02*
X159668362Y-103115246D01*
X159701368Y-100629118D02*
X159732235Y-100590234D01*
X159726762Y-103193990D02*
X159696595Y-103155335D01*
X159732235Y-100590234D02*
X159764995Y-100552931D01*
X159758790Y-103231119D02*
X159726762Y-103193990D01*
X159764995Y-100552931D02*
X159799569Y-100517303D01*
X159792600Y-103266631D02*
X159758790Y-103231119D01*
X159799569Y-100517303D02*
X159835870Y-100483435D01*
X159828112Y-103300441D02*
X159792600Y-103266631D01*
X159835870Y-100483435D02*
X159873808Y-100451413D01*
X159865241Y-103332469D02*
X159828112Y-103300441D01*
X159873808Y-100451413D02*
X159913291Y-100421316D01*
X159903896Y-103362636D02*
X159865241Y-103332469D01*
X159913291Y-100421316D02*
X159954220Y-100393217D01*
X159943985Y-103390869D02*
X159903896Y-103362636D01*
X159954220Y-100393217D02*
X159996494Y-100367186D01*
X159985411Y-103417102D02*
X159943985Y-103390869D01*
X159996494Y-100367186D02*
X160040010Y-100343287D01*
X160028074Y-103441271D02*
X159985411Y-103417102D01*
X160040010Y-100343287D02*
X160084659Y-100321580D01*
X160071872Y-103463317D02*
X160028074Y-103441271D01*
X160084659Y-100321580D02*
X160130331Y-100302118D01*
X160116699Y-103483187D02*
X160071872Y-103463317D01*
X160130331Y-100302118D02*
X160176914Y-100284949D01*
X160162447Y-103500834D02*
X160116699Y-103483187D01*
X160176914Y-100284949D02*
X160224292Y-100270115D01*
X160209005Y-103516215D02*
X160162447Y-103500834D01*
X160224292Y-100270115D02*
X160272349Y-100257654D01*
X160256262Y-103529292D02*
X160209005Y-103516215D01*
X160272349Y-100257654D02*
X160320966Y-100247595D01*
X160293068Y-67513316D02*
X159504180Y-67911083D01*
X160304104Y-103540036D02*
X160256262Y-103529292D01*
X160315206Y-61056386D02*
X161123126Y-61413854D01*
X160315228Y-28502835D02*
X159525821Y-28899516D01*
X160320966Y-100247595D02*
X160370022Y-100239964D01*
X160352416Y-103548419D02*
X160304104Y-103540036D01*
X160370022Y-100239964D02*
X160419396Y-100234780D01*
X160401080Y-103554421D02*
X160352416Y-103548419D01*
X160419396Y-100234780D02*
X160468968Y-100232055D01*
X160449981Y-103558028D02*
X160401080Y-103554421D01*
X160468968Y-100232055D02*
X160518613Y-100231796D01*
X160499012Y-103559232D02*
X160449981Y-103558028D01*
X160518613Y-100231796D02*
X160568210Y-100234003D01*
X160568210Y-100234003D02*
X160617636Y-100238673D01*
X160617636Y-100238673D02*
X160666769Y-100245791D01*
X160666769Y-100245791D02*
X160715488Y-100255342D01*
X160715488Y-100255342D02*
X160763672Y-100267302D01*
X160763672Y-100267302D02*
X160811203Y-100281641D01*
X160811203Y-100281641D02*
X160857962Y-100298323D01*
X160857962Y-100298323D02*
X161123125Y-100413854D01*
X161100502Y-28154748D02*
X160315228Y-28502835D01*
X161100502Y-67154748D02*
X160293068Y-67513316D01*
X161123126Y-61413854D02*
X161947612Y-61731250D01*
X161123125Y-100413854D02*
X161488693Y-100554870D01*
X161488693Y-100554870D02*
X161498505Y-100558380D01*
X161498505Y-100558380D02*
X161499736Y-100557579D01*
X161499168Y-28000913D02*
X161100502Y-28154748D01*
X161499736Y-100557579D02*
X161500000Y-95541883D01*
X161500000Y-33017348D02*
X161499168Y-28000913D01*
X161500000Y-95541883D02*
X161507227Y-95235204D01*
X161507227Y-33324027D02*
X161500000Y-33017348D01*
X161507227Y-95235204D02*
X161509634Y-95186206D01*
X161509634Y-33373025D02*
X161507227Y-33324027D01*
X161509634Y-95186206D02*
X161529495Y-94916972D01*
X161529495Y-33642259D02*
X161509634Y-33373025D01*
X161529495Y-94916972D02*
X161534303Y-94868153D01*
X161534303Y-33691078D02*
X161529495Y-33642259D01*
X161534303Y-94868153D02*
X161567349Y-94600219D01*
X161567349Y-33959012D02*
X161534303Y-33691078D01*
X161567349Y-94600219D02*
X161574547Y-94551691D01*
X161574547Y-34007540D02*
X161567349Y-33959012D01*
X161574547Y-94551691D02*
X161620701Y-94285702D01*
X161620701Y-34273529D02*
X161574547Y-34007540D01*
X161620701Y-94285702D02*
X161630271Y-94237588D01*
X161630271Y-34321643D02*
X161620701Y-34273529D01*
X161630271Y-94237588D02*
X161689420Y-93974184D01*
X161689420Y-34585047D02*
X161630271Y-34321643D01*
X161689420Y-93974184D02*
X161701341Y-93926596D01*
X161701341Y-34632635D02*
X161689420Y-34585047D01*
X161701341Y-93926596D02*
X161773343Y-93666412D01*
X161773343Y-34892819D02*
X161701341Y-34632635D01*
X161773343Y-93666412D02*
X161787584Y-93619467D01*
X161787584Y-34939764D02*
X161773343Y-34892819D01*
X161787584Y-93619467D02*
X161872267Y-93363129D01*
X161872267Y-35196102D02*
X161787584Y-34939764D01*
X161872267Y-93363129D02*
X161888794Y-93316938D01*
X161888794Y-35242293D02*
X161872267Y-35196102D01*
X161888794Y-93316938D02*
X161985954Y-93065063D01*
X161924555Y-66836231D02*
X161100502Y-67154748D01*
X161947612Y-61731250D02*
X162786680Y-62007808D01*
X161985954Y-35494168D02*
X161888794Y-35242293D01*
X161985954Y-93065063D02*
X162004726Y-93019743D01*
X162004726Y-35539488D02*
X161985954Y-35494168D01*
X162004726Y-93019743D02*
X162114126Y-92772939D01*
X162114126Y-35786292D02*
X162004726Y-35539488D01*
X162114126Y-92772939D02*
X162135102Y-92728589D01*
X162135102Y-35830642D02*
X162114126Y-35786292D01*
X162135102Y-92728589D02*
X162256479Y-92487454D01*
X162256479Y-36071777D02*
X162135102Y-35830642D01*
X162256479Y-92487454D02*
X162279606Y-92444187D01*
X162279606Y-36115044D02*
X162256479Y-36071777D01*
X162279606Y-92444187D02*
X162412672Y-92209295D01*
X162412672Y-36349936D02*
X162279606Y-36115044D01*
X162412672Y-92209295D02*
X162437890Y-92167220D01*
X162437890Y-36392011D02*
X162412672Y-36349936D01*
X162437890Y-92167220D02*
X162582320Y-91939139D01*
X162582320Y-36620092D02*
X162437890Y-36392011D01*
X162582320Y-91939139D02*
X162609577Y-91898347D01*
X162609577Y-36660884D02*
X162582320Y-36620092D01*
X162609577Y-91898347D02*
X162799688Y-91630284D01*
X162763222Y-66558539D02*
X161924555Y-66836231D01*
X162786680Y-62007808D02*
X163614553Y-62236911D01*
X162799683Y-36928746D02*
X162609577Y-36660884D01*
X162799688Y-91630284D02*
X162800301Y-83767352D01*
X162800000Y-44767348D02*
X162799683Y-36928746D01*
X162800301Y-83767352D02*
X162808068Y-83499995D01*
X162805661Y-45010238D02*
X162800000Y-44767348D01*
X162808068Y-83499995D02*
X162823234Y-83294397D01*
X162823234Y-45264834D02*
X162805661Y-45010238D01*
X162823234Y-83294397D02*
X162853279Y-83040968D01*
X162828043Y-45313657D02*
X162823234Y-45264834D01*
X162853279Y-83040968D02*
X162895722Y-82789323D01*
X162860477Y-45566787D02*
X162828043Y-45313657D01*
X162895722Y-82789323D02*
X162905293Y-82741205D01*
X162905293Y-45818026D02*
X162860477Y-45566787D01*
X162905293Y-82741205D02*
X162962382Y-82492472D01*
X162962382Y-46066759D02*
X162905293Y-45818026D01*
X162962382Y-82492472D02*
X163017367Y-82293782D01*
X163017367Y-82293782D02*
X163096273Y-82051089D01*
X163031607Y-46312392D02*
X162962382Y-46066759D01*
X163096273Y-82051089D02*
X163186997Y-81812553D01*
X163112802Y-46554337D02*
X163031607Y-46312392D01*
X163186997Y-46746678D02*
X163112802Y-46554337D01*
X163186997Y-81812553D02*
X163289312Y-81578762D01*
X163289312Y-46980469D02*
X163186997Y-46746678D01*
X163289312Y-81578762D02*
X163310288Y-81534412D01*
X163310288Y-81534412D02*
X163426104Y-81307003D01*
X163402977Y-47208962D02*
X163289312Y-46980469D01*
X163426104Y-81307003D02*
X163552938Y-81085552D01*
X163527718Y-47431601D02*
X163402977Y-47208962D01*
X163552938Y-81085552D02*
X163663232Y-80911379D01*
X163614553Y-62236911D02*
X164500442Y-62435844D01*
X163614553Y-66322320D02*
X162763222Y-66558539D01*
X163663232Y-47647852D02*
X163527718Y-47431601D01*
X163663232Y-80911379D02*
X163809192Y-80702041D01*
X163809192Y-47857190D02*
X163663232Y-47647852D01*
X163809192Y-80702041D02*
X163965249Y-80500115D01*
X163965249Y-48059116D02*
X163809192Y-47857190D01*
X163965249Y-80500115D02*
X163996373Y-80462190D01*
X163996373Y-80462190D02*
X164163971Y-80269741D01*
X164131030Y-48253144D02*
X163965249Y-48059116D01*
X164163971Y-80269741D02*
X164340817Y-80085740D01*
X164306124Y-48438798D02*
X164131030Y-48253144D01*
X164340817Y-80085740D02*
X164526471Y-79910646D01*
X164476400Y-66128169D02*
X163614553Y-66322320D01*
X164490125Y-48615644D02*
X164306124Y-48438798D01*
X164500442Y-62435844D02*
X165346760Y-62582694D01*
X164526471Y-79910646D02*
X164682574Y-79775989D01*
X164682574Y-48783242D02*
X164490125Y-48615644D01*
X164682574Y-79775989D02*
X164883020Y-79618033D01*
X164883020Y-48941198D02*
X164682574Y-48783242D01*
X164883020Y-79618033D02*
X165090975Y-79470102D01*
X165090975Y-49089129D02*
X164883020Y-48941198D01*
X165090975Y-79470102D02*
X165305936Y-79332554D01*
X165305936Y-49226677D02*
X165090975Y-49089129D01*
X165305936Y-79332554D02*
X165348014Y-79307334D01*
X165346760Y-62582694D02*
X165623275Y-62617406D01*
X165346760Y-65976537D02*
X164476400Y-66128169D01*
X165348014Y-49251897D02*
X165305936Y-49226677D01*
X165348014Y-79307334D02*
X165570653Y-79182593D01*
X165570653Y-49376638D02*
X165348014Y-49251897D01*
X165570653Y-79182593D02*
X165799146Y-79068928D01*
X165623275Y-62617406D02*
X165672623Y-62624748D01*
X165672623Y-62624748D02*
X165721531Y-62634540D01*
X165672623Y-65934483D02*
X165346760Y-65976537D01*
X165721531Y-62634540D02*
X165769889Y-62646762D01*
X165721531Y-65924691D02*
X165672623Y-65934483D01*
X165769889Y-62646762D02*
X165817577Y-62661383D01*
X165769889Y-65912469D02*
X165721531Y-65924691D01*
X165799146Y-49490303D02*
X165570653Y-49376638D01*
X165799146Y-79068928D02*
X165987617Y-78985385D01*
X165817577Y-62661383D02*
X165864476Y-62678365D01*
X165817577Y-65897848D02*
X165769889Y-65912469D01*
X165864476Y-62678365D02*
X165910468Y-62697667D01*
X165864476Y-65880866D02*
X165817577Y-65897848D01*
X165910468Y-62697667D02*
X165955440Y-62719241D01*
X165910468Y-65861564D02*
X165864476Y-65880866D01*
X165955440Y-62719241D02*
X165999279Y-62743032D01*
X165955440Y-65839990D02*
X165910468Y-65861564D01*
X165987617Y-78985385D02*
X166225278Y-78892418D01*
X165999279Y-62743032D02*
X166041875Y-62768982D01*
X165999279Y-65816199D02*
X165955440Y-65839990D01*
X166032937Y-49592618D02*
X165799146Y-49490303D01*
X166041875Y-62768982D02*
X166083124Y-62797025D01*
X166041875Y-65790249D02*
X165999279Y-65816199D01*
X166083124Y-62797025D02*
X166122921Y-62827093D01*
X166083124Y-65762206D02*
X166041875Y-65790249D01*
X166122921Y-62827093D02*
X166161168Y-62859109D01*
X166122921Y-65732138D02*
X166083124Y-65762206D01*
X166161168Y-62859109D02*
X166197769Y-62892995D01*
X166161168Y-65700122D02*
X166122921Y-65732138D01*
X166197769Y-62892995D02*
X166232633Y-62928665D01*
X166197769Y-65666236D02*
X166161168Y-65700122D01*
X166225278Y-78892418D02*
X166467223Y-78811223D01*
X166232633Y-62928665D02*
X166265674Y-62966031D01*
X166232633Y-65630566D02*
X166197769Y-65666236D01*
X166265674Y-62966031D02*
X166296808Y-63004999D01*
X166265674Y-65593200D02*
X166232633Y-65630566D01*
X166271473Y-49683342D02*
X166032937Y-49592618D01*
X166296808Y-63004999D02*
X166325958Y-63045473D01*
X166296808Y-65554232D02*
X166265674Y-65593200D01*
X166325958Y-63045473D02*
X166353052Y-63087351D01*
X166325958Y-65513758D02*
X166296808Y-65554232D01*
X166353052Y-63087351D02*
X166378021Y-63130530D01*
X166353052Y-65471880D02*
X166325958Y-65513758D01*
X166378021Y-63130530D02*
X166400805Y-63174901D01*
X166378021Y-65428701D02*
X166353052Y-65471880D01*
X166400805Y-63174901D02*
X166421345Y-63220354D01*
X166400805Y-65384330D02*
X166378021Y-65428701D01*
X166421345Y-63220354D02*
X166439591Y-63266775D01*
X166421345Y-65338877D02*
X166400805Y-65384330D01*
X166439591Y-63266775D02*
X166455498Y-63314050D01*
X166439591Y-65292456D02*
X166421345Y-65338877D01*
X166455498Y-63314050D02*
X166469025Y-63362059D01*
X166455498Y-65245181D02*
X166439591Y-65292456D01*
X166467223Y-78811223D02*
X166712856Y-78741998D01*
X166469025Y-63362059D02*
X166480138Y-63410684D01*
X166469025Y-65197172D02*
X166455498Y-65245181D01*
X166480138Y-63410684D02*
X166488811Y-63459802D01*
X166480138Y-65148547D02*
X166469025Y-65197172D01*
X166488811Y-63459802D02*
X166495022Y-63509293D01*
X166488811Y-65099429D02*
X166480138Y-65148547D01*
X166495022Y-63509293D02*
X166498754Y-63559032D01*
X166495022Y-65049938D02*
X166488811Y-65099429D01*
X166498754Y-63559032D02*
X166500000Y-63608907D01*
X166498754Y-65000199D02*
X166495022Y-65049938D01*
X166500000Y-63608907D02*
X166500000Y-64950324D01*
X166500000Y-64950324D02*
X166498754Y-65000199D01*
X166514166Y-49762248D02*
X166271473Y-49683342D01*
X166712856Y-78741998D02*
X166961589Y-78684909D01*
X166760444Y-49829153D02*
X166514166Y-49762248D01*
X166961589Y-78684909D02*
X167212828Y-78640093D01*
X167009707Y-49883893D02*
X166760444Y-49829153D01*
X167212828Y-78640093D02*
X167465958Y-78607659D01*
X167261352Y-49926336D02*
X167009707Y-49883893D01*
X167465958Y-78607659D02*
X167720379Y-78587684D01*
X167514781Y-49956381D02*
X167261352Y-49926336D01*
X167720379Y-78587684D02*
X167975469Y-78580218D01*
X167769377Y-49973954D02*
X167514781Y-49956381D01*
X167975469Y-78580218D02*
X168230622Y-78585277D01*
X168024530Y-49979013D02*
X167769377Y-49973954D01*
X168230622Y-78585277D02*
X168485218Y-78602850D01*
X168279620Y-49971547D02*
X168024530Y-49979013D01*
X168485218Y-78602850D02*
X168738647Y-78632895D01*
X168534041Y-49951572D02*
X168279620Y-49971547D01*
X168738647Y-78632895D02*
X168990292Y-78675338D01*
X168787171Y-49919138D02*
X168534041Y-49951572D01*
X168990292Y-78675338D02*
X169239555Y-78730078D01*
X169038410Y-49874322D02*
X168787171Y-49919138D01*
X169239555Y-78730078D02*
X169485833Y-78796983D01*
X169287143Y-49817233D02*
X169038410Y-49874322D01*
X169485833Y-49762248D02*
X169287143Y-49817233D01*
X169485833Y-78796983D02*
X169728526Y-78875889D01*
X169500000Y-63608907D02*
X169501245Y-63559032D01*
X169500000Y-64950324D02*
X169500000Y-63608907D01*
X169501245Y-63559032D02*
X169504977Y-63509293D01*
X169501245Y-65000199D02*
X169500000Y-64950324D01*
X169504977Y-63509293D02*
X169511188Y-63459802D01*
X169504977Y-65049938D02*
X169501245Y-65000199D01*
X169511188Y-63459802D02*
X169519861Y-63410684D01*
X169511188Y-65099429D02*
X169504977Y-65049938D01*
X169519861Y-63410684D02*
X169530974Y-63362059D01*
X169519861Y-65148547D02*
X169511188Y-65099429D01*
X169530974Y-63362059D02*
X169544501Y-63314050D01*
X169530974Y-65197172D02*
X169519861Y-65148547D01*
X169544501Y-63314050D02*
X169560408Y-63266775D01*
X169544501Y-65245181D02*
X169530974Y-65197172D01*
X169560408Y-63266775D02*
X169578654Y-63220354D01*
X169560408Y-65292456D02*
X169544501Y-65245181D01*
X169578654Y-63220354D02*
X169599194Y-63174901D01*
X169578654Y-65338877D02*
X169560408Y-65292456D01*
X169599194Y-63174901D02*
X169621978Y-63130530D01*
X169599194Y-65384330D02*
X169578654Y-65338877D01*
X169621978Y-63130530D02*
X169646947Y-63087351D01*
X169621978Y-65428701D02*
X169599194Y-65384330D01*
X169646947Y-63087351D02*
X169674041Y-63045473D01*
X169646947Y-65471880D02*
X169621978Y-65428701D01*
X169674041Y-63045473D02*
X169703191Y-63004999D01*
X169674041Y-65513758D02*
X169646947Y-65471880D01*
X169703191Y-63004999D02*
X169734325Y-62966031D01*
X169703191Y-65554232D02*
X169674041Y-65513758D01*
X169728526Y-49683342D02*
X169485833Y-49762248D01*
X169728526Y-78875889D02*
X169967062Y-78966613D01*
X169734325Y-62966031D02*
X169767366Y-62928665D01*
X169734325Y-65593200D02*
X169703191Y-65554232D01*
X169767366Y-62928665D02*
X169802230Y-62892995D01*
X169767366Y-65630566D02*
X169734325Y-65593200D01*
X169802230Y-62892995D02*
X169838831Y-62859109D01*
X169802230Y-65666236D02*
X169767366Y-65630566D01*
X169838831Y-62859109D02*
X169877078Y-62827093D01*
X169838831Y-65700122D02*
X169802230Y-65666236D01*
X169877078Y-62827093D02*
X169916875Y-62797025D01*
X169877078Y-65732138D02*
X169838831Y-65700122D01*
X169916875Y-62797025D02*
X169958124Y-62768982D01*
X169916875Y-65762206D02*
X169877078Y-65732138D01*
X169958124Y-62768982D02*
X170000720Y-62743032D01*
X169958124Y-65790249D02*
X169916875Y-65762206D01*
X169967062Y-49592618D02*
X169728526Y-49683342D01*
X169967062Y-78966613D02*
X170200853Y-79068928D01*
X170000720Y-62743032D02*
X170044559Y-62719241D01*
X170000720Y-65816199D02*
X169958124Y-65790249D01*
X170044559Y-62719241D02*
X170089531Y-62697667D01*
X170044559Y-65839990D02*
X170000720Y-65816199D01*
X170089531Y-62697667D02*
X170135523Y-62678365D01*
X170089531Y-65861564D02*
X170044559Y-65839990D01*
X170135523Y-62678365D02*
X170182422Y-62661383D01*
X170135523Y-65880866D02*
X170089531Y-65861564D01*
X170182422Y-62661383D02*
X170230110Y-62646762D01*
X170182422Y-65897848D02*
X170135523Y-65880866D01*
X170200853Y-49490303D02*
X169967062Y-49592618D01*
X170200853Y-79068928D02*
X170429346Y-79182593D01*
X170230110Y-62646762D02*
X170278468Y-62634540D01*
X170230110Y-65912469D02*
X170182422Y-65897848D01*
X170278468Y-62634540D02*
X170327376Y-62624748D01*
X170278468Y-65924691D02*
X170230110Y-65912469D01*
X170327376Y-62624748D02*
X170653239Y-62582694D01*
X170327376Y-65934483D02*
X170278468Y-65924691D01*
X170376724Y-65941825D02*
X170327376Y-65934483D01*
X170429346Y-49376638D02*
X170200853Y-49490303D01*
X170429346Y-79182593D02*
X170651985Y-79307334D01*
X170651985Y-49251897D02*
X170429346Y-49376638D01*
X170651985Y-79307334D02*
X170868236Y-79442848D01*
X170653239Y-62582694D02*
X171499557Y-62435844D01*
X170653239Y-65976537D02*
X170376724Y-65941825D01*
X170694063Y-49226677D02*
X170651985Y-49251897D01*
X170868236Y-79442848D02*
X171077574Y-79588808D01*
X170909024Y-49089129D02*
X170694063Y-49226677D01*
X171077574Y-79588808D02*
X171279500Y-79744865D01*
X171116979Y-48941198D02*
X170909024Y-49089129D01*
X171279500Y-79744865D02*
X171473528Y-79910646D01*
X171317425Y-48783242D02*
X171116979Y-48941198D01*
X171473528Y-48648585D02*
X171317425Y-48783242D01*
X171473528Y-79910646D02*
X171659182Y-80085740D01*
X171499557Y-62435844D02*
X172361692Y-62242861D01*
X171523599Y-66128169D02*
X170653239Y-65976537D01*
X171659182Y-48473491D02*
X171473528Y-48648585D01*
X171659182Y-80085740D02*
X171836028Y-80269741D01*
X171836028Y-48289490D02*
X171659182Y-48473491D01*
X171836028Y-80269741D02*
X172003626Y-80462190D01*
X172003626Y-48097041D02*
X171836028Y-48289490D01*
X172003626Y-80462190D02*
X172161582Y-80662636D01*
X172161582Y-47896595D02*
X172003626Y-48097041D01*
X172161582Y-80662636D02*
X172309513Y-80870591D01*
X172309513Y-47688640D02*
X172161582Y-47896595D01*
X172309513Y-80870591D02*
X172447061Y-81085552D01*
X172361692Y-62242861D02*
X173213319Y-62007808D01*
X172385446Y-66322320D02*
X171523599Y-66128169D01*
X172447061Y-47473679D02*
X172309513Y-47688640D01*
X172447061Y-81085552D02*
X172573895Y-81307003D01*
X172472281Y-47431601D02*
X172447061Y-47473679D01*
X172573895Y-81307003D02*
X172689711Y-81534412D01*
X172597022Y-47208962D02*
X172472281Y-47431601D01*
X172689711Y-81534412D02*
X172794230Y-81767233D01*
X172710687Y-46980469D02*
X172597022Y-47208962D01*
X172794230Y-46791998D02*
X172710687Y-46980469D01*
X172794230Y-81767233D02*
X172887197Y-82004894D01*
X172887197Y-46554337D02*
X172794230Y-46791998D01*
X172887197Y-82004894D02*
X172903726Y-82051089D01*
X172903726Y-82051089D02*
X172982632Y-82293782D01*
X172968392Y-46312392D02*
X172887197Y-46554337D01*
X172982632Y-82293782D02*
X173037617Y-82492472D01*
X173037617Y-46066759D02*
X172968392Y-46312392D01*
X173037617Y-82492472D02*
X173094706Y-82741205D01*
X173094706Y-45818026D02*
X173037617Y-46066759D01*
X173094706Y-82741205D02*
X173139522Y-82992444D01*
X173104277Y-45769908D02*
X173094706Y-45818026D01*
X173139522Y-82992444D02*
X173171956Y-83245574D01*
X173146720Y-45518263D02*
X173104277Y-45769908D01*
X173171956Y-83245574D02*
X173176765Y-83294397D01*
X173176765Y-45264834D02*
X173146720Y-45518263D01*
X173176765Y-83294397D02*
X173194338Y-83548993D01*
X173191931Y-45059236D02*
X173176765Y-45264834D01*
X173194338Y-83548993D02*
X173200000Y-83791883D01*
X173199698Y-44791879D02*
X173191931Y-45059236D01*
X173200000Y-83791883D02*
X173200316Y-91630485D01*
X173200311Y-36928947D02*
X173199698Y-44791879D01*
X173200316Y-91630485D02*
X173390422Y-91898347D01*
X173213319Y-62007808D02*
X174052387Y-61731250D01*
X173236777Y-66558539D02*
X172385446Y-66322320D01*
X173390422Y-36660884D02*
X173200311Y-36928947D01*
X173390422Y-91898347D02*
X173417679Y-91939139D01*
X173417679Y-36620092D02*
X173390422Y-36660884D01*
X173417679Y-91939139D02*
X173562109Y-92167220D01*
X173562109Y-36392011D02*
X173417679Y-36620092D01*
X173562109Y-92167220D02*
X173587327Y-92209295D01*
X173587327Y-36349936D02*
X173562109Y-36392011D01*
X173587327Y-92209295D02*
X173720393Y-92444187D01*
X173720393Y-36115044D02*
X173587327Y-36349936D01*
X173720393Y-92444187D02*
X173743520Y-92487454D01*
X173743520Y-36071777D02*
X173720393Y-36115044D01*
X173743520Y-92487454D02*
X173864897Y-92728589D01*
X173864897Y-35830642D02*
X173743520Y-36071777D01*
X173864897Y-92728589D02*
X173885873Y-92772939D01*
X173885873Y-35786292D02*
X173864897Y-35830642D01*
X173885873Y-92772939D02*
X173995273Y-93019743D01*
X173995273Y-35539488D02*
X173885873Y-35786292D01*
X173995273Y-93019743D02*
X174014045Y-93065063D01*
X174014045Y-35494168D02*
X173995273Y-35539488D01*
X174014045Y-93065063D02*
X174111205Y-93316938D01*
X174052387Y-61731250D02*
X174876873Y-61413854D01*
X174075444Y-66836231D02*
X173236777Y-66558539D01*
X174111205Y-35242293D02*
X174014045Y-35494168D01*
X174111205Y-93316938D02*
X174127732Y-93363129D01*
X174127732Y-35196102D02*
X174111205Y-35242293D01*
X174127732Y-93363129D02*
X174212415Y-93619467D01*
X174212415Y-34939764D02*
X174127732Y-35196102D01*
X174212415Y-93619467D02*
X174226656Y-93666412D01*
X174226656Y-34892819D02*
X174212415Y-34939764D01*
X174226656Y-93666412D02*
X174298658Y-93926596D01*
X174298658Y-34632635D02*
X174226656Y-34892819D01*
X174298658Y-93926596D02*
X174310579Y-93974184D01*
X174310579Y-34585047D02*
X174298658Y-34632635D01*
X174310579Y-93974184D02*
X174369728Y-94237588D01*
X174369728Y-34321643D02*
X174310579Y-34585047D01*
X174369728Y-94237588D02*
X174379298Y-94285702D01*
X174379298Y-34273529D02*
X174369728Y-34321643D01*
X174379298Y-94285702D02*
X174425452Y-94551691D01*
X174425452Y-34007540D02*
X174379298Y-34273529D01*
X174425452Y-94551691D02*
X174432650Y-94600219D01*
X174432650Y-33959012D02*
X174425452Y-34007540D01*
X174432650Y-94600219D02*
X174465696Y-94868153D01*
X174465696Y-33691078D02*
X174432650Y-33959012D01*
X174465696Y-94868153D02*
X174470504Y-94916972D01*
X174470504Y-33642259D02*
X174465696Y-33691078D01*
X174470504Y-94916972D02*
X174490365Y-95186206D01*
X174490365Y-33373025D02*
X174470504Y-33642259D01*
X174490365Y-95186206D02*
X174492772Y-95235204D01*
X174492772Y-33324027D02*
X174490365Y-33373025D01*
X174492772Y-95235204D02*
X174500000Y-95541883D01*
X174500000Y-33017348D02*
X174492772Y-33324027D01*
X174500000Y-95541883D02*
X174500831Y-100558318D01*
X174500263Y-28001652D02*
X174500000Y-33017348D01*
X174500831Y-100558318D02*
X174899497Y-100404483D01*
X174501494Y-28000851D02*
X174500263Y-28001652D01*
X174511306Y-28004361D02*
X174501494Y-28000851D01*
X174876874Y-28145377D02*
X174511306Y-28004361D01*
X174876873Y-61413854D02*
X175684793Y-61056386D01*
X174899497Y-67154748D02*
X174075444Y-66836231D01*
X174899497Y-100404483D02*
X175684771Y-100056396D01*
X175096152Y-28241919D02*
X174876874Y-28145377D01*
X175142037Y-28260908D02*
X175096152Y-28241919D01*
X175188796Y-28277590D02*
X175142037Y-28260908D01*
X175236327Y-28291929D02*
X175188796Y-28277590D01*
X175284511Y-28303889D02*
X175236327Y-28291929D01*
X175333230Y-28313440D02*
X175284511Y-28303889D01*
X175382363Y-28320558D02*
X175333230Y-28313440D01*
X175431789Y-28325228D02*
X175382363Y-28320558D01*
X175481386Y-28327435D02*
X175431789Y-28325228D01*
X175500987Y-25000000D02*
X175550018Y-25001203D01*
X175531031Y-28327176D02*
X175481386Y-28327435D01*
X175550018Y-25001203D02*
X175598919Y-25004810D01*
X175580603Y-28324451D02*
X175531031Y-28327176D01*
X175598919Y-25004810D02*
X175647583Y-25010812D01*
X175629977Y-28319267D02*
X175580603Y-28324451D01*
X175647583Y-25010812D02*
X175695895Y-25019195D01*
X175679033Y-28311636D02*
X175629977Y-28319267D01*
X175684771Y-100056396D02*
X176474178Y-99659715D01*
X175684793Y-61056386D02*
X176474200Y-60659704D01*
X175695895Y-25019195D02*
X175743737Y-25029939D01*
X175706931Y-67513316D02*
X174899497Y-67154748D01*
X175727650Y-28301577D02*
X175679033Y-28311636D01*
X175743737Y-25029939D02*
X175790994Y-25043016D01*
X175775707Y-28289116D02*
X175727650Y-28301577D01*
X175790994Y-25043016D02*
X175837552Y-25058397D01*
X175823085Y-28274282D02*
X175775707Y-28289116D01*
X175837552Y-25058397D02*
X175883300Y-25076044D01*
X175869668Y-28257113D02*
X175823085Y-28274282D01*
X175883300Y-25076044D02*
X175928127Y-25095914D01*
X175915340Y-28237651D02*
X175869668Y-28257113D01*
X175928127Y-25095914D02*
X175971925Y-25117960D01*
X175959989Y-28215944D02*
X175915340Y-28237651D01*
X175971925Y-25117960D02*
X176014588Y-25142129D01*
X176003505Y-28192045D02*
X175959989Y-28215944D01*
X176014588Y-25142129D02*
X176056014Y-25168362D01*
X176045779Y-28166014D02*
X176003505Y-28192045D01*
X176056014Y-25168362D02*
X176096103Y-25196595D01*
X176086708Y-28137915D02*
X176045779Y-28166014D01*
X176096103Y-25196595D02*
X176134758Y-25226762D01*
X176126191Y-28107818D02*
X176086708Y-28137915D01*
X176134758Y-25226762D02*
X176171887Y-25258790D01*
X176164129Y-28075796D02*
X176126191Y-28107818D01*
X176171887Y-25258790D02*
X176207399Y-25292600D01*
X176200430Y-28041928D02*
X176164129Y-28075796D01*
X176207399Y-25292600D02*
X176241209Y-25328112D01*
X176235004Y-28006300D02*
X176200430Y-28041928D01*
X176241209Y-25328112D02*
X176273237Y-25365241D01*
X176267764Y-27968997D02*
X176235004Y-28006300D01*
X176273237Y-25365241D02*
X176303404Y-25403896D01*
X176298631Y-27930113D02*
X176267764Y-27968997D01*
X176303404Y-25403896D02*
X176331637Y-25443985D01*
X176327528Y-27889744D02*
X176298631Y-27930113D01*
X176331637Y-25443985D02*
X176357870Y-25485411D01*
X176354384Y-27847988D02*
X176327528Y-27889744D01*
X176357870Y-25485411D02*
X176382039Y-25528074D01*
X176379132Y-27804950D02*
X176354384Y-27847988D01*
X176382039Y-25528074D02*
X176404085Y-25571872D01*
X176401712Y-27760736D02*
X176379132Y-27804950D01*
X176404085Y-25571872D02*
X176423955Y-25616699D01*
X176422067Y-27715455D02*
X176401712Y-27760736D01*
X176423955Y-25616699D02*
X176441602Y-25662447D01*
X176440148Y-27669218D02*
X176422067Y-27715455D01*
X176441602Y-25662447D02*
X176456983Y-25709005D01*
X176455909Y-27622140D02*
X176440148Y-27669218D01*
X176456983Y-25709005D02*
X176470060Y-25756262D01*
X176469311Y-27574337D02*
X176455909Y-27622140D01*
X176470060Y-25756262D02*
X176480804Y-25804104D01*
X176474178Y-99659715D02*
X177243192Y-99224766D01*
X176474200Y-60659704D02*
X177243171Y-60224778D01*
X176480322Y-27525928D02*
X176469311Y-27574337D01*
X176480804Y-25804104D02*
X176489187Y-25852416D01*
X176488915Y-27477031D02*
X176480322Y-27525928D01*
X176489187Y-25852416D02*
X176495189Y-25901080D01*
X176495068Y-27427767D02*
X176488915Y-27477031D01*
X176495189Y-25901080D02*
X176498796Y-25949981D01*
X176495797Y-67911071D02*
X175706931Y-67513316D01*
X176498766Y-27378259D02*
X176495068Y-27427767D01*
X176498796Y-25949981D02*
X176500000Y-25999012D01*
X176500000Y-25999012D02*
X176500000Y-27328616D01*
X176500000Y-27328616D02*
X176498766Y-27378259D01*
X177243171Y-60224778D02*
X178010298Y-59739002D01*
X177243192Y-99224766D02*
X177989915Y-98752621D01*
X177264196Y-68347054D02*
X176495797Y-67911071D01*
X177989915Y-98752621D02*
X178712573Y-98244403D01*
X178010277Y-68820215D02*
X177264196Y-68347054D01*
X178010298Y-59739002D02*
X178732242Y-59229815D01*
X178712573Y-98244403D02*
X179428353Y-97685803D01*
X178732242Y-59229815D02*
X179409423Y-58701339D01*
X178732242Y-69329416D02*
X178010277Y-68820215D01*
X179409423Y-58701339D02*
X180096949Y-58108273D01*
X179409423Y-69857892D02*
X178732242Y-69329416D01*
X179428353Y-97685803D02*
X180096931Y-97108290D01*
X179500000Y-25999012D02*
X179501203Y-25949981D01*
X179500000Y-30477642D02*
X179500000Y-25999012D01*
X179501203Y-25949981D02*
X179504810Y-25901080D01*
X179501275Y-30528114D02*
X179500000Y-30477642D01*
X179504810Y-25901080D02*
X179510812Y-25852416D01*
X179505097Y-30578444D02*
X179501275Y-30528114D01*
X179510812Y-25852416D02*
X179519195Y-25804104D01*
X179511457Y-30628517D02*
X179505097Y-30578444D01*
X179519195Y-25804104D02*
X179529939Y-25756262D01*
X179520337Y-30678205D02*
X179511457Y-30628517D01*
X179529939Y-25756262D02*
X179543016Y-25709005D01*
X179531716Y-30727381D02*
X179520337Y-30678205D01*
X179543016Y-25709005D02*
X179558397Y-25662447D01*
X179545564Y-30775919D02*
X179531716Y-30727381D01*
X179558397Y-25662447D02*
X179576044Y-25616699D01*
X179561847Y-30823696D02*
X179545564Y-30775919D01*
X179576044Y-25616699D02*
X179595914Y-25571872D01*
X179580521Y-30870590D02*
X179561847Y-30823696D01*
X179595914Y-25571872D02*
X179617960Y-25528074D01*
X179601541Y-30916480D02*
X179580521Y-30870590D01*
X179617960Y-25528074D02*
X179642129Y-25485411D01*
X179624851Y-30961250D02*
X179601541Y-30916480D01*
X179642129Y-25485411D02*
X179668362Y-25443985D01*
X179650393Y-31004786D02*
X179624851Y-30961250D01*
X179668362Y-25443985D02*
X179696595Y-25403896D01*
X179678101Y-31046976D02*
X179650393Y-31004786D01*
X179696595Y-25403896D02*
X179726762Y-25365241D01*
X179707905Y-31087713D02*
X179678101Y-31046976D01*
X179726762Y-25365241D02*
X179758790Y-25328112D01*
X179739729Y-31126892D02*
X179707905Y-31087713D01*
X179758790Y-25328112D02*
X179792600Y-25292600D01*
X179773491Y-31164414D02*
X179739729Y-31126892D01*
X179792600Y-25292600D02*
X179828112Y-25258790D01*
X179809105Y-31200182D02*
X179773491Y-31164414D01*
X179828112Y-25258790D02*
X179865241Y-25226762D01*
X179846489Y-31234115D02*
X179809105Y-31200182D01*
X179865241Y-25226762D02*
X179903896Y-25196595D01*
X179903896Y-25196595D02*
X179943985Y-25168362D01*
X179943985Y-25168362D02*
X179985411Y-25142129D01*
X179985411Y-25142129D02*
X180028074Y-25117960D01*
X180028074Y-25117960D02*
X180071872Y-25095914D01*
X180071872Y-25095914D02*
X180116699Y-25076044D01*
X180078786Y-70434496D02*
X179409423Y-69857892D01*
X180096931Y-97108290D02*
X180736384Y-96498649D01*
X180096949Y-31450958D02*
X179846489Y-31234115D01*
X180096949Y-58108273D02*
X180736367Y-57498667D01*
X180116699Y-25076044D02*
X180162447Y-25058397D01*
X180162447Y-25058397D02*
X180209005Y-25043016D01*
X180209005Y-25043016D02*
X180256262Y-25029939D01*
X180256262Y-25029939D02*
X180304104Y-25019195D01*
X180304104Y-25019195D02*
X180352416Y-25010812D01*
X180352416Y-25010812D02*
X180401080Y-25004810D01*
X180401080Y-25004810D02*
X180449981Y-25001203D01*
X180449981Y-25001203D02*
X180499012Y-25000000D01*
X180499012Y-25000000D02*
X188000987Y-25000000D01*
X180719051Y-32043248D02*
X180096949Y-31450958D01*
X180719051Y-71043248D02*
X180078786Y-70434496D01*
X180736367Y-57498667D02*
X181328674Y-56876547D01*
X180736384Y-96498649D02*
X181345119Y-95858402D01*
X181328674Y-56876547D02*
X181906187Y-56207969D01*
X181328674Y-71682684D02*
X180719051Y-71043248D01*
X181345119Y-95858402D02*
X181921723Y-95189039D01*
X181345135Y-32700847D02*
X180719051Y-32043248D01*
X181906171Y-72351244D02*
X181328674Y-71682684D01*
X181906187Y-56207969D02*
X182464787Y-55492189D01*
X181921723Y-95189039D02*
X182464787Y-94492189D01*
X181921738Y-33370212D02*
X181345135Y-32700847D01*
X182450199Y-73047373D02*
X181906171Y-72351244D01*
X182464787Y-34067042D02*
X181921738Y-33370212D01*
X182464787Y-55492189D02*
X182973005Y-54769531D01*
X182464787Y-94492189D02*
X182973018Y-93769511D01*
X182959400Y-34769338D02*
X182464787Y-34067042D01*
X182959400Y-73769338D02*
X182450199Y-73047373D01*
X182973005Y-54769531D02*
X183445150Y-54022808D01*
X182973018Y-93769511D02*
X183445150Y-93022808D01*
X183432561Y-74515419D02*
X182959400Y-73769338D01*
X183445150Y-35536423D02*
X182959400Y-34769338D01*
X183445150Y-54022808D02*
X183880088Y-53253816D01*
X183445150Y-93022808D02*
X183880099Y-92253794D01*
X183868544Y-75283818D02*
X183432561Y-74515419D01*
X183880088Y-53253816D02*
X184276770Y-52464409D01*
X183880099Y-36305437D02*
X183445150Y-35536423D01*
X183880099Y-92253794D02*
X184276780Y-91464387D01*
X184266299Y-76072684D02*
X183868544Y-75283818D01*
X184276770Y-52464409D02*
X184634238Y-51656489D01*
X184276780Y-37094844D02*
X183880099Y-36305437D01*
X184276780Y-91464387D02*
X184624867Y-90679113D01*
X184624867Y-37880118D02*
X184276780Y-37094844D01*
X184624867Y-76880118D02*
X184266299Y-76072684D01*
X184624867Y-90679113D02*
X184918685Y-89919091D01*
X184634238Y-51656489D02*
X184951642Y-50831979D01*
X184918685Y-38640140D02*
X184624867Y-37880118D01*
X184918685Y-89919091D02*
X184937868Y-89872845D01*
X184937868Y-38686386D02*
X184918685Y-38640140D01*
X184937868Y-89872845D02*
X184959339Y-89827629D01*
X184943384Y-77704171D02*
X184624867Y-76880118D01*
X184951642Y-50831979D02*
X185228192Y-49992935D01*
X184959339Y-38731602D02*
X184937868Y-38686386D01*
X184959339Y-89827629D02*
X184983047Y-89783545D01*
X184983047Y-38775686D02*
X184959339Y-38731602D01*
X184983047Y-89783545D02*
X185008934Y-89740705D01*
X185008934Y-38818526D02*
X184983047Y-38775686D01*
X185008934Y-89740705D02*
X185036934Y-89699214D01*
X185036934Y-38860017D02*
X185008934Y-38818526D01*
X185036934Y-89699214D02*
X185066977Y-89659178D01*
X185066977Y-38900053D02*
X185036934Y-38860017D01*
X185066977Y-89659178D02*
X185098988Y-89620697D01*
X185098988Y-38938534D02*
X185066977Y-38900053D01*
X185098988Y-89620697D02*
X185132886Y-89583868D01*
X185132886Y-38975363D02*
X185098988Y-38938534D01*
X185132886Y-89583868D02*
X185168587Y-89548783D01*
X185168587Y-39010448D02*
X185132886Y-38975363D01*
X185168587Y-89548783D02*
X185205999Y-89515531D01*
X185205999Y-39043700D02*
X185168587Y-39010448D01*
X185205999Y-89515531D02*
X185245031Y-89484194D01*
X185221083Y-78542862D02*
X184943384Y-77704171D01*
X185228192Y-49992935D02*
X185463245Y-49141308D01*
X185245031Y-39075037D02*
X185205999Y-39043700D01*
X185245031Y-89484194D02*
X185285583Y-89454851D01*
X185285583Y-39104380D02*
X185245031Y-39075037D01*
X185285583Y-89454851D02*
X185327554Y-89427576D01*
X185327554Y-39131655D02*
X185285583Y-39104380D01*
X185327554Y-89427576D02*
X185370839Y-89402438D01*
X185370839Y-39156793D02*
X185327554Y-39131655D01*
X185370839Y-89402438D02*
X185415328Y-89379500D01*
X185415328Y-39179731D02*
X185370839Y-39156793D01*
X185415328Y-89379500D02*
X185460910Y-89358819D01*
X185457295Y-79394169D02*
X185221083Y-78542862D01*
X185460910Y-39200412D02*
X185415328Y-39179731D01*
X185460910Y-89358819D02*
X185507471Y-89340447D01*
X185463245Y-49141308D02*
X185656228Y-48279173D01*
X185507471Y-39218784D02*
X185460910Y-39200412D01*
X185507471Y-89340447D02*
X185554894Y-89324430D01*
X185554894Y-39234801D02*
X185507471Y-39218784D01*
X185554894Y-89324430D02*
X185603060Y-89310808D01*
X185603060Y-39248423D02*
X185554894Y-39234801D01*
X185603060Y-89310808D02*
X185651847Y-89299617D01*
X185651451Y-80256040D02*
X185457295Y-79394169D01*
X185651847Y-39259614D02*
X185603060Y-39248423D01*
X185651847Y-89299617D02*
X185701134Y-89290883D01*
X185656228Y-48279173D02*
X185806675Y-47408608D01*
X185701134Y-39268348D02*
X185651847Y-39259614D01*
X185701134Y-89290883D02*
X185750797Y-89284629D01*
X185750797Y-39274602D02*
X185701134Y-39268348D01*
X185750797Y-89284629D02*
X185800710Y-89280870D01*
X185800710Y-39278361D02*
X185750797Y-39274602D01*
X185800710Y-89280870D02*
X185850761Y-89279616D01*
X185803082Y-81126400D02*
X185651451Y-80256040D01*
X185806675Y-47408608D02*
X185914225Y-46531709D01*
X185850761Y-39279616D02*
X185800710Y-39278361D01*
X185850761Y-89279616D02*
X188000987Y-89279616D01*
X185911822Y-82003127D02*
X185803082Y-81126400D01*
X185914225Y-46531709D02*
X185978619Y-45650565D01*
X185935745Y-43302389D02*
X185935800Y-43252613D01*
X185935745Y-85256842D02*
X185938169Y-85207112D01*
X185935800Y-43252613D02*
X185938335Y-43202902D01*
X185935800Y-85306618D02*
X185935745Y-85256842D01*
X185938169Y-43352119D02*
X185935745Y-43302389D01*
X185938169Y-85207112D02*
X185978618Y-84650589D01*
X185938335Y-43202902D02*
X185943343Y-43153378D01*
X185938335Y-85356329D02*
X185935800Y-85306618D01*
X185943343Y-43153378D02*
X185950811Y-43104165D01*
X185943343Y-85405853D02*
X185938335Y-85356329D01*
X185950811Y-43104165D02*
X185960722Y-43055386D01*
X185950811Y-85455066D02*
X185943343Y-85405853D01*
X185960722Y-43055386D02*
X185973050Y-43007160D01*
X185960722Y-85503845D02*
X185950811Y-85455066D01*
X185973050Y-43007160D02*
X185987764Y-42959609D01*
X185973050Y-85552071D02*
X185960722Y-85503845D01*
X185977416Y-82884183D02*
X185911822Y-82003127D01*
X185978618Y-43908642D02*
X185938169Y-43352119D01*
X185978619Y-45650565D02*
X185999698Y-44767347D01*
X185978618Y-84650589D02*
X185999699Y-83767371D01*
X185987764Y-42959609D02*
X186004829Y-42912850D01*
X185987764Y-85599622D02*
X185973050Y-85552071D01*
X185999698Y-44767347D02*
X185978618Y-43908642D01*
X185999699Y-83767371D02*
X185977416Y-82884183D01*
X186004829Y-42912850D02*
X186024202Y-42866998D01*
X186004829Y-85646381D02*
X185987764Y-85599622D01*
X186024202Y-42866998D02*
X186045835Y-42822169D01*
X186024202Y-85692233D02*
X186004829Y-85646381D01*
X186045835Y-42822169D02*
X186069674Y-42778472D01*
X186045835Y-85737062D02*
X186024202Y-85692233D01*
X186069674Y-42778472D02*
X186095660Y-42736018D01*
X186069674Y-85780759D02*
X186045835Y-85737062D01*
X186095660Y-42736018D02*
X186123728Y-42694910D01*
X186095660Y-85823213D02*
X186069674Y-85780759D01*
X186123728Y-42694910D02*
X186153809Y-42655252D01*
X186123728Y-85864321D02*
X186095660Y-85823213D01*
X186153809Y-42655252D02*
X186185828Y-42617141D01*
X186153809Y-85903979D02*
X186123728Y-85864321D01*
X186185828Y-42617141D02*
X186219706Y-42580672D01*
X186185828Y-85942090D02*
X186153809Y-85903979D01*
X186219706Y-42580672D02*
X186255358Y-42545936D01*
X186219706Y-85978559D02*
X186185828Y-85942090D01*
X186255358Y-42545936D02*
X186292696Y-42513019D01*
X186255358Y-86013295D02*
X186219706Y-85978559D01*
X186292696Y-42513019D02*
X186331628Y-42482003D01*
X186292696Y-86046212D02*
X186255358Y-86013295D01*
X186331628Y-42482003D02*
X186372056Y-42452964D01*
X186331628Y-86077228D02*
X186292696Y-86046212D01*
X186372056Y-42452964D02*
X186413880Y-42425975D01*
X186372056Y-86106267D02*
X186331628Y-86077228D01*
X186413880Y-42425975D02*
X186456997Y-42401103D01*
X186413880Y-86133256D02*
X186372056Y-86106267D01*
X186456997Y-42401103D02*
X186501299Y-42378410D01*
X186456997Y-86158128D02*
X186413880Y-86133256D01*
X186501299Y-42378410D02*
X186546676Y-42357951D01*
X186501299Y-86180821D02*
X186456997Y-86158128D01*
X186546676Y-42357951D02*
X186593016Y-42339778D01*
X186546676Y-86201280D02*
X186501299Y-86180821D01*
X186593016Y-42339778D02*
X186640204Y-42323936D01*
X186593016Y-86219453D02*
X186546676Y-86201280D01*
X186640204Y-42323936D02*
X186688122Y-42310464D01*
X186640204Y-86235295D02*
X186593016Y-86219453D01*
X186688122Y-42310464D02*
X186736652Y-42299395D01*
X186688122Y-86248767D02*
X186640204Y-86235295D01*
X186736652Y-42299395D02*
X186785673Y-42290758D01*
X186736652Y-86259836D02*
X186688122Y-86248767D01*
X186785673Y-42290758D02*
X186835064Y-42284573D01*
X186785673Y-86268473D02*
X186736652Y-86259836D01*
X186835064Y-42284573D02*
X186884701Y-42280856D01*
X186835064Y-86274658D02*
X186785673Y-86268473D01*
X186884701Y-42280856D02*
X186934474Y-42279616D01*
X186884701Y-86278375D02*
X186835064Y-86274658D01*
X186934474Y-42279616D02*
X188000987Y-42279616D01*
X186934474Y-86279616D02*
X186884701Y-86278375D01*
X188000987Y-25000000D02*
X188050018Y-25001203D01*
X188000987Y-39279616D02*
X185850761Y-39279616D01*
X188000987Y-42279616D02*
X188050018Y-42280819D01*
X188000987Y-86279616D02*
X186934474Y-86279616D01*
X188000987Y-89279616D02*
X188050018Y-89280819D01*
X188000987Y-103559232D02*
X160499012Y-103559232D01*
X188050018Y-25001203D02*
X188098919Y-25004810D01*
X188050018Y-39278412D02*
X188000987Y-39279616D01*
X188050018Y-42280819D02*
X188098919Y-42284426D01*
X188050018Y-86278412D02*
X188000987Y-86279616D01*
X188050018Y-89280819D02*
X188098919Y-89284426D01*
X188050018Y-103558028D02*
X188000987Y-103559232D01*
X188098919Y-25004810D02*
X188147583Y-25010812D01*
X188098919Y-39274805D02*
X188050018Y-39278412D01*
X188098919Y-42284426D02*
X188147583Y-42290428D01*
X188098919Y-86274805D02*
X188050018Y-86278412D01*
X188098919Y-89284426D02*
X188147583Y-89290428D01*
X188098919Y-103554421D02*
X188050018Y-103558028D01*
X188147583Y-25010812D02*
X188195895Y-25019195D01*
X188147583Y-39268803D02*
X188098919Y-39274805D01*
X188147583Y-42290428D02*
X188195895Y-42298811D01*
X188147583Y-86268803D02*
X188098919Y-86274805D01*
X188147583Y-89290428D02*
X188195895Y-89298811D01*
X188147583Y-103548419D02*
X188098919Y-103554421D01*
X188195895Y-25019195D02*
X188243737Y-25029939D01*
X188195895Y-39260420D02*
X188147583Y-39268803D01*
X188195895Y-42298811D02*
X188243737Y-42309555D01*
X188195895Y-86260420D02*
X188147583Y-86268803D01*
X188195895Y-89298811D02*
X188243737Y-89309555D01*
X188195895Y-103540036D02*
X188147583Y-103548419D01*
X188243737Y-25029939D02*
X188290994Y-25043016D01*
X188243737Y-39249676D02*
X188195895Y-39260420D01*
X188243737Y-42309555D02*
X188290994Y-42322632D01*
X188243737Y-86249676D02*
X188195895Y-86260420D01*
X188243737Y-89309555D02*
X188290994Y-89322632D01*
X188243737Y-103529292D02*
X188195895Y-103540036D01*
X188290994Y-25043016D02*
X188337552Y-25058397D01*
X188290994Y-39236599D02*
X188243737Y-39249676D01*
X188290994Y-42322632D02*
X188337552Y-42338013D01*
X188290994Y-86236599D02*
X188243737Y-86249676D01*
X188290994Y-89322632D02*
X188337552Y-89338013D01*
X188290994Y-103516215D02*
X188243737Y-103529292D01*
X188337552Y-25058397D02*
X188383300Y-25076044D01*
X188337552Y-39221218D02*
X188290994Y-39236599D01*
X188337552Y-42338013D02*
X188383300Y-42355660D01*
X188337552Y-86221218D02*
X188290994Y-86236599D01*
X188337552Y-89338013D02*
X188383300Y-89355660D01*
X188337552Y-103500834D02*
X188290994Y-103516215D01*
X188383300Y-25076044D02*
X188428127Y-25095914D01*
X188383300Y-39203571D02*
X188337552Y-39221218D01*
X188383300Y-42355660D02*
X188428127Y-42375530D01*
X188383300Y-86203571D02*
X188337552Y-86221218D01*
X188383300Y-89355660D02*
X188428127Y-89375530D01*
X188383300Y-103483187D02*
X188337552Y-103500834D01*
X188428127Y-25095914D02*
X188471925Y-25117960D01*
X188428127Y-39183701D02*
X188383300Y-39203571D01*
X188428127Y-42375530D02*
X188471925Y-42397576D01*
X188428127Y-86183701D02*
X188383300Y-86203571D01*
X188428127Y-89375530D02*
X188471925Y-89397576D01*
X188428127Y-103463317D02*
X188383300Y-103483187D01*
X188471925Y-25117960D02*
X188514588Y-25142129D01*
X188471925Y-39161655D02*
X188428127Y-39183701D01*
X188471925Y-42397576D02*
X188514588Y-42421745D01*
X188471925Y-86161655D02*
X188428127Y-86183701D01*
X188471925Y-89397576D02*
X188514588Y-89421745D01*
X188471925Y-103441271D02*
X188428127Y-103463317D01*
X188514588Y-25142129D02*
X188556014Y-25168362D01*
X188514588Y-39137486D02*
X188471925Y-39161655D01*
X188514588Y-42421745D02*
X188556014Y-42447978D01*
X188514588Y-86137486D02*
X188471925Y-86161655D01*
X188514588Y-89421745D02*
X188556014Y-89447978D01*
X188514588Y-103417102D02*
X188471925Y-103441271D01*
X188556014Y-25168362D02*
X188596103Y-25196595D01*
X188556014Y-39111253D02*
X188514588Y-39137486D01*
X188556014Y-42447978D02*
X188596103Y-42476211D01*
X188556014Y-86111253D02*
X188514588Y-86137486D01*
X188556014Y-89447978D02*
X188596103Y-89476211D01*
X188556014Y-103390869D02*
X188514588Y-103417102D01*
X188596103Y-25196595D02*
X188634758Y-25226762D01*
X188596103Y-39083020D02*
X188556014Y-39111253D01*
X188596103Y-42476211D02*
X188634758Y-42506378D01*
X188596103Y-86083020D02*
X188556014Y-86111253D01*
X188596103Y-89476211D02*
X188634758Y-89506378D01*
X188596103Y-103362636D02*
X188556014Y-103390869D01*
X188634758Y-25226762D02*
X188671887Y-25258790D01*
X188634758Y-39052853D02*
X188596103Y-39083020D01*
X188634758Y-42506378D02*
X188671887Y-42538406D01*
X188634758Y-86052853D02*
X188596103Y-86083020D01*
X188634758Y-89506378D02*
X188671887Y-89538406D01*
X188634758Y-103332469D02*
X188596103Y-103362636D01*
X188671887Y-25258790D02*
X188707399Y-25292600D01*
X188671887Y-39020825D02*
X188634758Y-39052853D01*
X188671887Y-42538406D02*
X188707399Y-42572216D01*
X188671887Y-86020825D02*
X188634758Y-86052853D01*
X188671887Y-89538406D02*
X188707399Y-89572216D01*
X188671887Y-103300441D02*
X188634758Y-103332469D01*
X188707399Y-25292600D02*
X188741209Y-25328112D01*
X188707399Y-38987015D02*
X188671887Y-39020825D01*
X188707399Y-42572216D02*
X188741209Y-42607728D01*
X188707399Y-85987015D02*
X188671887Y-86020825D01*
X188707399Y-89572216D02*
X188741209Y-89607728D01*
X188707399Y-103266631D02*
X188671887Y-103300441D01*
X188741209Y-25328112D02*
X188773237Y-25365241D01*
X188741209Y-38951503D02*
X188707399Y-38987015D01*
X188741209Y-42607728D02*
X188773237Y-42644857D01*
X188741209Y-85951503D02*
X188707399Y-85987015D01*
X188741209Y-89607728D02*
X188773237Y-89644857D01*
X188741209Y-103231119D02*
X188707399Y-103266631D01*
X188773237Y-25365241D02*
X188803404Y-25403896D01*
X188773237Y-38914374D02*
X188741209Y-38951503D01*
X188773237Y-42644857D02*
X188803404Y-42683512D01*
X188773237Y-85914374D02*
X188741209Y-85951503D01*
X188773237Y-89644857D02*
X188803404Y-89683512D01*
X188773237Y-103193990D02*
X188741209Y-103231119D01*
X188803404Y-25403896D02*
X188831637Y-25443985D01*
X188803404Y-38875719D02*
X188773237Y-38914374D01*
X188803404Y-42683512D02*
X188831637Y-42723601D01*
X188803404Y-85875719D02*
X188773237Y-85914374D01*
X188803404Y-89683512D02*
X188831637Y-89723601D01*
X188803404Y-103155335D02*
X188773237Y-103193990D01*
X188831637Y-25443985D02*
X188857870Y-25485411D01*
X188831637Y-38835630D02*
X188803404Y-38875719D01*
X188831637Y-42723601D02*
X188857870Y-42765027D01*
X188831637Y-85835630D02*
X188803404Y-85875719D01*
X188831637Y-89723601D02*
X188857870Y-89765027D01*
X188831637Y-103115246D02*
X188803404Y-103155335D01*
X188857870Y-25485411D02*
X188882039Y-25528074D01*
X188857870Y-38794204D02*
X188831637Y-38835630D01*
X188857870Y-42765027D02*
X188882039Y-42807690D01*
X188857870Y-85794204D02*
X188831637Y-85835630D01*
X188857870Y-89765027D02*
X188882039Y-89807690D01*
X188857870Y-103073820D02*
X188831637Y-103115246D01*
X188882039Y-25528074D02*
X188904085Y-25571872D01*
X188882039Y-38751541D02*
X188857870Y-38794204D01*
X188882039Y-42807690D02*
X188904085Y-42851488D01*
X188882039Y-85751541D02*
X188857870Y-85794204D01*
X188882039Y-89807690D02*
X188904085Y-89851488D01*
X188882039Y-103031157D02*
X188857870Y-103073820D01*
X188904085Y-25571872D02*
X188923955Y-25616699D01*
X188904085Y-38707743D02*
X188882039Y-38751541D01*
X188904085Y-42851488D02*
X188923955Y-42896315D01*
X188904085Y-85707743D02*
X188882039Y-85751541D01*
X188904085Y-89851488D02*
X188923955Y-89896315D01*
X188904085Y-102987359D02*
X188882039Y-103031157D01*
X188923955Y-25616699D02*
X188941602Y-25662447D01*
X188923955Y-38662916D02*
X188904085Y-38707743D01*
X188923955Y-42896315D02*
X188941602Y-42942063D01*
X188923955Y-85662916D02*
X188904085Y-85707743D01*
X188923955Y-89896315D02*
X188941602Y-89942063D01*
X188923955Y-102942532D02*
X188904085Y-102987359D01*
X188941602Y-25662447D02*
X188956983Y-25709005D01*
X188941602Y-38617168D02*
X188923955Y-38662916D01*
X188941602Y-42942063D02*
X188956983Y-42988621D01*
X188941602Y-85617168D02*
X188923955Y-85662916D01*
X188941602Y-89942063D02*
X188956983Y-89988621D01*
X188941602Y-102896784D02*
X188923955Y-102942532D01*
X188956983Y-25709005D02*
X188970060Y-25756262D01*
X188956983Y-38570610D02*
X188941602Y-38617168D01*
X188956983Y-42988621D02*
X188970060Y-43035878D01*
X188956983Y-85570610D02*
X188941602Y-85617168D01*
X188956983Y-89988621D02*
X188970060Y-90035878D01*
X188956983Y-102850226D02*
X188941602Y-102896784D01*
X188970060Y-25756262D02*
X188980804Y-25804104D01*
X188970060Y-38523353D02*
X188956983Y-38570610D01*
X188970060Y-43035878D02*
X188980804Y-43083720D01*
X188970060Y-85523353D02*
X188956983Y-85570610D01*
X188970060Y-90035878D02*
X188980804Y-90083720D01*
X188970060Y-102802969D02*
X188956983Y-102850226D01*
X188980804Y-25804104D02*
X188989187Y-25852416D01*
X188980804Y-38475511D02*
X188970060Y-38523353D01*
X188980804Y-43083720D02*
X188989187Y-43132032D01*
X188980804Y-85475511D02*
X188970060Y-85523353D01*
X188980804Y-90083720D02*
X188989187Y-90132032D01*
X188980804Y-102755127D02*
X188970060Y-102802969D01*
X188989187Y-25852416D02*
X188995189Y-25901080D01*
X188989187Y-38427199D02*
X188980804Y-38475511D01*
X188989187Y-43132032D02*
X188995189Y-43180696D01*
X188989187Y-85427199D02*
X188980804Y-85475511D01*
X188989187Y-90132032D02*
X188995189Y-90180696D01*
X188989187Y-102706815D02*
X188980804Y-102755127D01*
X188995189Y-25901080D02*
X188998796Y-25949981D01*
X188995189Y-38378535D02*
X188989187Y-38427199D01*
X188995189Y-43180696D02*
X188998796Y-43229597D01*
X188995189Y-85378535D02*
X188989187Y-85427199D01*
X188995189Y-90180696D02*
X188998796Y-90229597D01*
X188995189Y-102658151D02*
X188989187Y-102706815D01*
X188998796Y-25949981D02*
X189000000Y-25999012D01*
X188998796Y-38329634D02*
X188995189Y-38378535D01*
X188998796Y-43229597D02*
X189000000Y-43278628D01*
X188998796Y-85329634D02*
X188995189Y-85378535D01*
X188998796Y-90229597D02*
X189000000Y-90278628D01*
X188998796Y-102609250D02*
X188995189Y-102658151D01*
X189000000Y-25999012D02*
X189000000Y-38280603D01*
X189000000Y-38280603D02*
X188998796Y-38329634D01*
X189000000Y-43278628D02*
X189000000Y-85280603D01*
X189000000Y-85280603D02*
X188998796Y-85329634D01*
X189000000Y-90278628D02*
X189000000Y-102560219D01*
X189000000Y-102560219D02*
X188998796Y-102609250D01*
X193999419Y-20000545D02*
X103001245Y-20000270D01*
X193999454Y-108558651D02*
X193999419Y-20000545D01*
M02*
