%TF.GenerationSoftware,KiCad,Pcbnew,10.0.6*%
%TF.CreationDate,2026-09-30T02:44:57+02:00*%
%TF.ProjectId,shotpuck-panel,73686f74-7075-4636-9b2d-70616e656c2e,rev?*%
%TF.SameCoordinates,Original*%
%TF.FileFunction,Legend,Top*%
%TF.FilePolarity,Positive*%
%FSLAX46Y46*%
G04 Gerber Fmt 4.6, Leading zero omitted, Abs format (unit mm)*
G04 Created by KiCad (PCBNEW 10.0.6) date 2026-09-30 02:44:57*
%MOMM*%
%LPD*%
G01*
G04 APERTURE LIST*
%ADD10C,0.300000*%
%ADD11C,0.120000*%
%ADD12C,0.100000*%
G04 APERTURE END LIST*
D10*
X141571428Y-21678328D02*
X141571428Y-22749757D01*
X141571428Y-22749757D02*
X141499999Y-22964042D01*
X141499999Y-22964042D02*
X141357142Y-23106900D01*
X141357142Y-23106900D02*
X141142856Y-23178328D01*
X141142856Y-23178328D02*
X140999999Y-23178328D01*
X142999999Y-23178328D02*
X142285713Y-23178328D01*
X142285713Y-23178328D02*
X142285713Y-21678328D01*
X144357142Y-23035471D02*
X144285714Y-23106900D01*
X144285714Y-23106900D02*
X144071428Y-23178328D01*
X144071428Y-23178328D02*
X143928571Y-23178328D01*
X143928571Y-23178328D02*
X143714285Y-23106900D01*
X143714285Y-23106900D02*
X143571428Y-22964042D01*
X143571428Y-22964042D02*
X143499999Y-22821185D01*
X143499999Y-22821185D02*
X143428571Y-22535471D01*
X143428571Y-22535471D02*
X143428571Y-22321185D01*
X143428571Y-22321185D02*
X143499999Y-22035471D01*
X143499999Y-22035471D02*
X143571428Y-21892614D01*
X143571428Y-21892614D02*
X143714285Y-21749757D01*
X143714285Y-21749757D02*
X143928571Y-21678328D01*
X143928571Y-21678328D02*
X144071428Y-21678328D01*
X144071428Y-21678328D02*
X144285714Y-21749757D01*
X144285714Y-21749757D02*
X144357142Y-21821185D01*
X145428571Y-21678328D02*
X145428571Y-22749757D01*
X145428571Y-22749757D02*
X145357142Y-22964042D01*
X145357142Y-22964042D02*
X145214285Y-23106900D01*
X145214285Y-23106900D02*
X144999999Y-23178328D01*
X144999999Y-23178328D02*
X144857142Y-23178328D01*
X146857142Y-23178328D02*
X146142856Y-23178328D01*
X146142856Y-23178328D02*
X146142856Y-21678328D01*
X148214285Y-23035471D02*
X148142857Y-23106900D01*
X148142857Y-23106900D02*
X147928571Y-23178328D01*
X147928571Y-23178328D02*
X147785714Y-23178328D01*
X147785714Y-23178328D02*
X147571428Y-23106900D01*
X147571428Y-23106900D02*
X147428571Y-22964042D01*
X147428571Y-22964042D02*
X147357142Y-22821185D01*
X147357142Y-22821185D02*
X147285714Y-22535471D01*
X147285714Y-22535471D02*
X147285714Y-22321185D01*
X147285714Y-22321185D02*
X147357142Y-22035471D01*
X147357142Y-22035471D02*
X147428571Y-21892614D01*
X147428571Y-21892614D02*
X147571428Y-21749757D01*
X147571428Y-21749757D02*
X147785714Y-21678328D01*
X147785714Y-21678328D02*
X147928571Y-21678328D01*
X147928571Y-21678328D02*
X148142857Y-21749757D01*
X148142857Y-21749757D02*
X148214285Y-21821185D01*
X149285714Y-21678328D02*
X149285714Y-22749757D01*
X149285714Y-22749757D02*
X149214285Y-22964042D01*
X149214285Y-22964042D02*
X149071428Y-23106900D01*
X149071428Y-23106900D02*
X148857142Y-23178328D01*
X148857142Y-23178328D02*
X148714285Y-23178328D01*
X150714285Y-23178328D02*
X149999999Y-23178328D01*
X149999999Y-23178328D02*
X149999999Y-21678328D01*
X152071428Y-23035471D02*
X152000000Y-23106900D01*
X152000000Y-23106900D02*
X151785714Y-23178328D01*
X151785714Y-23178328D02*
X151642857Y-23178328D01*
X151642857Y-23178328D02*
X151428571Y-23106900D01*
X151428571Y-23106900D02*
X151285714Y-22964042D01*
X151285714Y-22964042D02*
X151214285Y-22821185D01*
X151214285Y-22821185D02*
X151142857Y-22535471D01*
X151142857Y-22535471D02*
X151142857Y-22321185D01*
X151142857Y-22321185D02*
X151214285Y-22035471D01*
X151214285Y-22035471D02*
X151285714Y-21892614D01*
X151285714Y-21892614D02*
X151428571Y-21749757D01*
X151428571Y-21749757D02*
X151642857Y-21678328D01*
X151642857Y-21678328D02*
X151785714Y-21678328D01*
X151785714Y-21678328D02*
X152000000Y-21749757D01*
X152000000Y-21749757D02*
X152071428Y-21821185D01*
X153142857Y-21678328D02*
X153142857Y-22749757D01*
X153142857Y-22749757D02*
X153071428Y-22964042D01*
X153071428Y-22964042D02*
X152928571Y-23106900D01*
X152928571Y-23106900D02*
X152714285Y-23178328D01*
X152714285Y-23178328D02*
X152571428Y-23178328D01*
X154571428Y-23178328D02*
X153857142Y-23178328D01*
X153857142Y-23178328D02*
X153857142Y-21678328D01*
X155928571Y-23035471D02*
X155857143Y-23106900D01*
X155857143Y-23106900D02*
X155642857Y-23178328D01*
X155642857Y-23178328D02*
X155500000Y-23178328D01*
X155500000Y-23178328D02*
X155285714Y-23106900D01*
X155285714Y-23106900D02*
X155142857Y-22964042D01*
X155142857Y-22964042D02*
X155071428Y-22821185D01*
X155071428Y-22821185D02*
X155000000Y-22535471D01*
X155000000Y-22535471D02*
X155000000Y-22321185D01*
X155000000Y-22321185D02*
X155071428Y-22035471D01*
X155071428Y-22035471D02*
X155142857Y-21892614D01*
X155142857Y-21892614D02*
X155285714Y-21749757D01*
X155285714Y-21749757D02*
X155500000Y-21678328D01*
X155500000Y-21678328D02*
X155642857Y-21678328D01*
X155642857Y-21678328D02*
X155857143Y-21749757D01*
X155857143Y-21749757D02*
X155928571Y-21821185D01*
%TO.C,C4_3*%
D11*
X171855490Y-71401309D02*
X172007993Y-71248806D01*
X172364607Y-71910426D02*
X172517110Y-71757923D01*
%TO.C,D4_3*%
D12*
X150872026Y-87417020D02*
G75*
G02*
X150772024Y-87417020I-50001J0D01*
G01*
X150772024Y-87417020D02*
G75*
G02*
X150872026Y-87417020I50001J0D01*
G01*
%TO.C,U1_3*%
D11*
X166868655Y-78304360D02*
X174081144Y-71091871D01*
X174081144Y-71091871D02*
X184687745Y-81698472D01*
X177475256Y-88910961D02*
X166868655Y-78304360D01*
X181399699Y-78410426D02*
X181823962Y-77986162D01*
X184687745Y-81698472D02*
X177475256Y-88910961D01*
%TO.C,R11_1*%
X174653640Y-52052433D02*
X174436359Y-51835151D01*
X175191041Y-51515033D02*
X174973760Y-51297751D01*
%TO.C,U3_3*%
X154690000Y-87719616D02*
X156510000Y-87719616D01*
X154690000Y-87769616D02*
X154690000Y-87719616D01*
X154690000Y-90839616D02*
X154690000Y-90789616D01*
X156510000Y-87719616D02*
X156510000Y-87769616D01*
X156510000Y-88889616D02*
X156510000Y-89669616D01*
X156510000Y-90789616D02*
X156510000Y-90839616D01*
X156510000Y-90839616D02*
X154690000Y-90839616D01*
X154150000Y-87769616D02*
X153910000Y-87439616D01*
X154390000Y-87439616D01*
X154150000Y-87769616D01*
G36*
X154150000Y-87769616D02*
G01*
X153910000Y-87439616D01*
X154390000Y-87439616D01*
X154150000Y-87769616D01*
G37*
%TO.C,C9_3*%
X165421693Y-79648805D02*
X165269190Y-79801309D01*
X165930810Y-80157923D02*
X165778307Y-80310427D01*
%TO.C,C8_2*%
X115292164Y-94319616D02*
X115507836Y-94319616D01*
X115292164Y-95039616D02*
X115507836Y-95039616D01*
%TO.C,C3_0*%
X129732890Y-56853399D02*
X129885393Y-57005902D01*
X130242007Y-56344282D02*
X130394510Y-56496785D01*
%TO.C,R11_3*%
X160808959Y-81044199D02*
X161026240Y-81261481D01*
X161346360Y-80506799D02*
X161563641Y-80724081D01*
%TO.C,BT1_3*%
X159124489Y-97191276D02*
X160324489Y-97191276D01*
X159724489Y-96591276D02*
X159724489Y-97791276D01*
%TO.C,C2_3*%
X154459420Y-91624140D02*
X154740580Y-91624140D01*
X154459420Y-92644140D02*
X154740580Y-92644140D01*
%TO.C,R9_3*%
X164322659Y-78974080D02*
X164539940Y-78756799D01*
X164860060Y-79511481D02*
X165077341Y-79294200D01*
%TO.C,Q2_2*%
X117665000Y-95169616D02*
X119135000Y-95169616D01*
X117665000Y-95194616D02*
X117665000Y-95169616D01*
X117665000Y-97389616D02*
X117665000Y-97364616D01*
X119135000Y-95169616D02*
X119135000Y-95194616D01*
X119135000Y-97364616D02*
X119135000Y-97389616D01*
X119135000Y-97389616D02*
X117665000Y-97389616D01*
X117220000Y-95189616D02*
X117080000Y-94999616D01*
X117360000Y-94999616D01*
X117220000Y-95189616D01*
G36*
X117220000Y-95189616D02*
G01*
X117080000Y-94999616D01*
X117360000Y-94999616D01*
X117220000Y-95189616D01*
G37*
%TO.C,C6_1*%
X167982890Y-57603399D02*
X168135393Y-57755902D01*
X168492007Y-57094282D02*
X168644510Y-57246785D01*
%TO.C,D1_1*%
X176351100Y-45140134D02*
X174470197Y-47021037D01*
X177553183Y-46342215D02*
X175672279Y-48223119D01*
X177553183Y-46342215D02*
X176351100Y-45140134D01*
%TO.C,D4_2*%
D12*
X111872026Y-87417020D02*
G75*
G02*
X111772024Y-87417020I-50001J0D01*
G01*
X111772024Y-87417020D02*
G75*
G02*
X111872026Y-87417020I50001J0D01*
G01*
%TO.C,R3_0*%
D11*
X138920000Y-46578733D02*
X138920000Y-46271451D01*
X139680000Y-46578733D02*
X139680000Y-46271451D01*
%TO.C,R9_0*%
X132139940Y-53047751D02*
X131922659Y-53265032D01*
X132677341Y-53585152D02*
X132460060Y-53802433D01*
%TO.C,C6_3*%
X167507993Y-75464950D02*
X167355490Y-75312447D01*
X168017110Y-74955833D02*
X167864607Y-74803330D01*
%TO.C,Q1_1*%
X179828700Y-45869616D02*
X181298700Y-45869616D01*
X179828700Y-45894616D02*
X179828700Y-45869616D01*
X179828700Y-48089616D02*
X179828700Y-48064616D01*
X181298700Y-45869616D02*
X181298700Y-45894616D01*
X181298700Y-48064616D02*
X181298700Y-48089616D01*
X181298700Y-48089616D02*
X179828700Y-48089616D01*
X181743700Y-48069616D02*
X181883700Y-48259616D01*
X181603700Y-48259616D01*
X181743700Y-48069616D01*
G36*
X181883700Y-48259616D02*
G01*
X181603700Y-48259616D01*
X181743700Y-48069616D01*
X181883700Y-48259616D01*
G37*
%TO.C,D2_0*%
X137150000Y-41869616D02*
X137150000Y-44529616D01*
X138850000Y-41869616D02*
X137150000Y-41869616D01*
X138850000Y-41869616D02*
X138850000Y-44529616D01*
%TO.C,R4_0*%
X129222659Y-51519556D02*
X129439940Y-51302275D01*
X129760060Y-52056957D02*
X129977341Y-51839676D01*
%TO.C,D1_2*%
X119446817Y-86217017D02*
X120648900Y-87419098D01*
X119446817Y-86217017D02*
X121327721Y-84336113D01*
X120648900Y-87419098D02*
X122529803Y-85538195D01*
%TO.C,R8_3*%
X152420000Y-95333257D02*
X152420000Y-95025975D01*
X153180000Y-95333257D02*
X153180000Y-95025975D01*
%TO.C,C7_3*%
X166007993Y-74053330D02*
X165855490Y-74205833D01*
X166517110Y-74562447D02*
X166364607Y-74714950D01*
%TO.C,R3_1*%
X177920000Y-46578733D02*
X177920000Y-46271451D01*
X178680000Y-46578733D02*
X178680000Y-46271451D01*
%TO.C,R2_1*%
X183465422Y-46139411D02*
X183158140Y-46139411D01*
X183465422Y-46899411D02*
X183158140Y-46899411D01*
%TO.C,U1_1*%
X151312255Y-50860760D02*
X158524744Y-43648271D01*
X154600301Y-54148806D02*
X154176038Y-54573070D01*
X158524744Y-43648271D02*
X169131345Y-54254872D01*
X161918856Y-61467361D02*
X151312255Y-50860760D01*
X169131345Y-54254872D02*
X161918856Y-61467361D01*
%TO.C,D3_2*%
X121320187Y-83395215D02*
X122734402Y-84809428D01*
X121320187Y-83395215D02*
X124049619Y-80665783D01*
X122734402Y-84809428D02*
X125463833Y-82079997D01*
%TO.C,D2_2*%
X119150000Y-90689616D02*
X119150000Y-88029616D01*
X119150000Y-90689616D02*
X120850000Y-90689616D01*
X120850000Y-90689616D02*
X120850000Y-88029616D01*
%TO.C,C6_0*%
X128982890Y-57603399D02*
X129135393Y-57755902D01*
X129492007Y-57094282D02*
X129644510Y-57246785D01*
%TO.C,R1_0*%
X143683700Y-43771451D02*
X143683700Y-44078733D01*
X144443700Y-43771451D02*
X144443700Y-44078733D01*
%TO.C,R2_3*%
X152534578Y-85659821D02*
X152841860Y-85659821D01*
X152534578Y-86419821D02*
X152841860Y-86419821D01*
%TO.C,D3_0*%
X135265598Y-47749804D02*
X132536167Y-50479235D01*
X136679813Y-49164017D02*
X133950381Y-51893449D01*
X136679813Y-49164017D02*
X135265598Y-47749804D01*
%TO.C,R10_3*%
X161558959Y-80294199D02*
X161776240Y-80511481D01*
X162096360Y-79756799D02*
X162313641Y-79974081D01*
%TO.C,U2_3*%
X166708431Y-73062129D02*
X167185728Y-72584832D01*
X166832175Y-73185872D02*
X166708431Y-73062129D01*
X168508018Y-71262542D02*
X168985315Y-70785245D01*
X168631761Y-74985459D02*
X168508018Y-74861715D01*
X168985315Y-70785245D02*
X169109058Y-70908989D01*
X169109058Y-74508162D02*
X168631761Y-74985459D01*
X170784901Y-72584832D02*
X170908645Y-72708575D01*
X170908645Y-72708575D02*
X170431348Y-73185872D01*
X170569234Y-72185316D02*
X170632873Y-71782265D01*
X170972285Y-72121677D01*
X170569234Y-72185316D01*
G36*
X170972285Y-72121677D02*
G01*
X170569234Y-72185316D01*
X170632873Y-71782265D01*
X170972285Y-72121677D01*
G37*
%TO.C,C7_1*%
X169482890Y-57996785D02*
X169635393Y-57844282D01*
X169992007Y-58505902D02*
X170144510Y-58353399D01*
%TO.C,R7_2*%
X113220000Y-93233257D02*
X113220000Y-92925975D01*
X113980000Y-93233257D02*
X113980000Y-92925975D01*
%TO.C,R2_0*%
X144465422Y-46139411D02*
X144158140Y-46139411D01*
X144465422Y-46899411D02*
X144158140Y-46899411D01*
%TO.C,D2_3*%
X158150000Y-90689616D02*
X158150000Y-88029616D01*
X158150000Y-90689616D02*
X159850000Y-90689616D01*
X159850000Y-90689616D02*
X159850000Y-88029616D01*
%TO.C,C9_0*%
X131069190Y-52401309D02*
X131221693Y-52248805D01*
X131578307Y-52910427D02*
X131730810Y-52757923D01*
%TO.C,D4_0*%
D12*
X146227976Y-45142212D02*
G75*
G02*
X146127974Y-45142212I-50001J0D01*
G01*
X146127974Y-45142212D02*
G75*
G02*
X146227976Y-45142212I50001J0D01*
G01*
%TO.C,R7_1*%
D11*
X183020000Y-39325975D02*
X183020000Y-39633257D01*
X183780000Y-39325975D02*
X183780000Y-39633257D01*
%TO.C,Q2_0*%
X138865000Y-35169616D02*
X140335000Y-35169616D01*
X138865000Y-35194616D02*
X138865000Y-35169616D01*
X138865000Y-37389616D02*
X138865000Y-37364616D01*
X140335000Y-35169616D02*
X140335000Y-35194616D01*
X140335000Y-37364616D02*
X140335000Y-37389616D01*
X140335000Y-37389616D02*
X138865000Y-37389616D01*
X140780000Y-37369616D02*
X140920000Y-37559616D01*
X140640000Y-37559616D01*
X140780000Y-37369616D01*
G36*
X140920000Y-37559616D02*
G01*
X140640000Y-37559616D01*
X140780000Y-37369616D01*
X140920000Y-37559616D01*
G37*
%TO.C,R2_2*%
X113534578Y-85659821D02*
X113841860Y-85659821D01*
X113534578Y-86419821D02*
X113841860Y-86419821D01*
%TO.C,R8_1*%
X182820000Y-37225975D02*
X182820000Y-37533257D01*
X183580000Y-37225975D02*
X183580000Y-37533257D01*
%TO.C,R3_3*%
X157320000Y-85980499D02*
X157320000Y-86287781D01*
X158080000Y-85980499D02*
X158080000Y-86287781D01*
%TO.C,R4_1*%
X168222659Y-51519556D02*
X168439940Y-51302275D01*
X168760060Y-52056957D02*
X168977341Y-51839676D01*
%TO.C,Q2_1*%
X177865000Y-35169616D02*
X179335000Y-35169616D01*
X177865000Y-35194616D02*
X177865000Y-35169616D01*
X177865000Y-37389616D02*
X177865000Y-37364616D01*
X179335000Y-35169616D02*
X179335000Y-35194616D01*
X179335000Y-37364616D02*
X179335000Y-37389616D01*
X179335000Y-37389616D02*
X177865000Y-37389616D01*
X179780000Y-37369616D02*
X179920000Y-37559616D01*
X179640000Y-37559616D01*
X179780000Y-37369616D01*
G36*
X179920000Y-37559616D02*
G01*
X179640000Y-37559616D01*
X179780000Y-37369616D01*
X179920000Y-37559616D01*
G37*
%TO.C,BT1_2*%
X120124489Y-97191276D02*
X121324489Y-97191276D01*
X120724489Y-96591276D02*
X120724489Y-97791276D01*
%TO.C,R7_0*%
X144020000Y-39325975D02*
X144020000Y-39633257D01*
X144780000Y-39325975D02*
X144780000Y-39633257D01*
%TO.C,R4_2*%
X128239940Y-80502275D02*
X128022659Y-80719556D01*
X128777341Y-81039676D02*
X128560060Y-81256957D01*
%TO.C,D3_3*%
X160320187Y-83395215D02*
X161734402Y-84809428D01*
X160320187Y-83395215D02*
X163049619Y-80665783D01*
X161734402Y-84809428D02*
X164463833Y-82079997D01*
%TO.C,C8_3*%
X154292164Y-94319616D02*
X154507836Y-94319616D01*
X154292164Y-95039616D02*
X154507836Y-95039616D01*
%TO.C,R10_0*%
X134903640Y-52802433D02*
X134686359Y-52585151D01*
X135441041Y-52265033D02*
X135223760Y-52047751D01*
%TO.C,C8_0*%
X142707836Y-37519616D02*
X142492164Y-37519616D01*
X142707836Y-38239616D02*
X142492164Y-38239616D01*
%TO.C,U2_1*%
X165091355Y-59850657D02*
X165568652Y-59373360D01*
X165215099Y-59974400D02*
X165091355Y-59850657D01*
X166890942Y-58051070D02*
X167368239Y-57573773D01*
X167014685Y-61773987D02*
X166890942Y-61650243D01*
X167368239Y-57573773D02*
X167491982Y-57697517D01*
X167491982Y-61296690D02*
X167014685Y-61773987D01*
X169167825Y-59373360D02*
X169291569Y-59497103D01*
X169291569Y-59497103D02*
X168814272Y-59974400D01*
X165430766Y-60373916D02*
X165367127Y-60776967D01*
X165027715Y-60437555D01*
X165430766Y-60373916D01*
G36*
X165367127Y-60776967D02*
G01*
X165027715Y-60437555D01*
X165430766Y-60373916D01*
X165367127Y-60776967D01*
G37*
%TO.C,U1_0*%
X112312255Y-50860760D02*
X119524744Y-43648271D01*
X115600301Y-54148806D02*
X115176038Y-54573070D01*
X119524744Y-43648271D02*
X130131345Y-54254872D01*
X122918856Y-61467361D02*
X112312255Y-50860760D01*
X130131345Y-54254872D02*
X122918856Y-61467361D01*
%TO.C,D1_0*%
X137351100Y-45140134D02*
X135470197Y-47021037D01*
X138553183Y-46342215D02*
X136672279Y-48223119D01*
X138553183Y-46342215D02*
X137351100Y-45140134D01*
%TO.C,Q1_2*%
X115701300Y-84469616D02*
X117171300Y-84469616D01*
X115701300Y-84494616D02*
X115701300Y-84469616D01*
X115701300Y-86689616D02*
X115701300Y-86664616D01*
X117171300Y-84469616D02*
X117171300Y-84494616D01*
X117171300Y-86664616D02*
X117171300Y-86689616D01*
X117171300Y-86689616D02*
X115701300Y-86689616D01*
X115256300Y-84489616D02*
X115116300Y-84299616D01*
X115396300Y-84299616D01*
X115256300Y-84489616D01*
G36*
X115256300Y-84489616D02*
G01*
X115116300Y-84299616D01*
X115396300Y-84299616D01*
X115256300Y-84489616D01*
G37*
%TO.C,D1_3*%
X158446817Y-86217017D02*
X159648900Y-87419098D01*
X158446817Y-86217017D02*
X160327721Y-84336113D01*
X159648900Y-87419098D02*
X161529803Y-85538195D01*
%TO.C,U2_2*%
X127708431Y-73062129D02*
X128185728Y-72584832D01*
X127832175Y-73185872D02*
X127708431Y-73062129D01*
X129508018Y-71262542D02*
X129985315Y-70785245D01*
X129631761Y-74985459D02*
X129508018Y-74861715D01*
X129985315Y-70785245D02*
X130109058Y-70908989D01*
X130109058Y-74508162D02*
X129631761Y-74985459D01*
X131784901Y-72584832D02*
X131908645Y-72708575D01*
X131908645Y-72708575D02*
X131431348Y-73185872D01*
X131569234Y-72185316D02*
X131632873Y-71782265D01*
X131972285Y-72121677D01*
X131569234Y-72185316D01*
G36*
X131972285Y-72121677D02*
G01*
X131569234Y-72185316D01*
X131632873Y-71782265D01*
X131972285Y-72121677D01*
G37*
%TO.C,R1_2*%
X113556300Y-88787781D02*
X113556300Y-88480499D01*
X114316300Y-88787781D02*
X114316300Y-88480499D01*
%TO.C,U4_0*%
X141615000Y-37179616D02*
X143185000Y-37179616D01*
X141820000Y-35379616D02*
X143180000Y-35379616D01*
X141500000Y-35379616D02*
X141220000Y-35379616D01*
X141500000Y-35099616D01*
X141500000Y-35379616D01*
G36*
X141500000Y-35379616D02*
G01*
X141220000Y-35379616D01*
X141500000Y-35099616D01*
X141500000Y-35379616D01*
G37*
%TO.C,R4_3*%
X167239940Y-80502275D02*
X167022659Y-80719556D01*
X167777341Y-81039676D02*
X167560060Y-81256957D01*
%TO.C,U4_2*%
X116180000Y-97179616D02*
X114820000Y-97179616D01*
X116385000Y-95379616D02*
X114815000Y-95379616D01*
X116500000Y-97179616D02*
X116780000Y-97179616D01*
X116500000Y-97459616D01*
X116500000Y-97179616D01*
G36*
X116500000Y-97459616D02*
G01*
X116500000Y-97179616D01*
X116780000Y-97179616D01*
X116500000Y-97459616D01*
G37*
%TO.C,R11_0*%
X135653640Y-52052433D02*
X135436359Y-51835151D01*
X136191041Y-51515033D02*
X135973760Y-51297751D01*
%TO.C,R10_2*%
X122558959Y-80294199D02*
X122776240Y-80511481D01*
X123096360Y-79756799D02*
X123313641Y-79974081D01*
%TO.C,C4_0*%
X124635393Y-60648806D02*
X124482890Y-60801309D01*
X125144510Y-61157923D02*
X124992007Y-61310426D01*
%TO.C,C3_2*%
X127757993Y-76214950D02*
X127605490Y-76062447D01*
X128267110Y-75705833D02*
X128114607Y-75553330D01*
%TO.C,D4_1*%
D12*
X185227976Y-45142212D02*
G75*
G02*
X185127974Y-45142212I-50001J0D01*
G01*
X185127974Y-45142212D02*
G75*
G02*
X185227976Y-45142212I50001J0D01*
G01*
%TO.C,C1_3*%
D11*
X160426300Y-90274720D02*
X160426300Y-89993560D01*
X161446300Y-90274720D02*
X161446300Y-89993560D01*
%TO.C,BT1_1*%
X176275511Y-35967956D02*
X176275511Y-34767956D01*
X176875511Y-35367956D02*
X175675511Y-35367956D01*
%TO.C,R9_1*%
X171139940Y-53047751D02*
X170922659Y-53265032D01*
X171677341Y-53585152D02*
X171460060Y-53802433D01*
%TO.C,R3_2*%
X118320000Y-85980499D02*
X118320000Y-86287781D01*
X119080000Y-85980499D02*
X119080000Y-86287781D01*
%TO.C,C2_2*%
X115459420Y-91624140D02*
X115740580Y-91624140D01*
X115459420Y-92644140D02*
X115740580Y-92644140D01*
%TO.C,U2_0*%
X126091355Y-59850657D02*
X126568652Y-59373360D01*
X126215099Y-59974400D02*
X126091355Y-59850657D01*
X127890942Y-58051070D02*
X128368239Y-57573773D01*
X128014685Y-61773987D02*
X127890942Y-61650243D01*
X128368239Y-57573773D02*
X128491982Y-57697517D01*
X128491982Y-61296690D02*
X128014685Y-61773987D01*
X130167825Y-59373360D02*
X130291569Y-59497103D01*
X130291569Y-59497103D02*
X129814272Y-59974400D01*
X126430766Y-60373916D02*
X126367127Y-60776967D01*
X126027715Y-60437555D01*
X126430766Y-60373916D01*
G36*
X126367127Y-60776967D02*
G01*
X126027715Y-60437555D01*
X126430766Y-60373916D01*
X126367127Y-60776967D01*
G37*
%TO.C,C1_2*%
X121426300Y-90274720D02*
X121426300Y-89993560D01*
X122446300Y-90274720D02*
X122446300Y-89993560D01*
%TO.C,C7_2*%
X127007993Y-74053330D02*
X126855490Y-74205833D01*
X127517110Y-74562447D02*
X127364607Y-74714950D01*
%TO.C,C8_1*%
X181707836Y-37519616D02*
X181492164Y-37519616D01*
X181707836Y-38239616D02*
X181492164Y-38239616D01*
%TO.C,C9_1*%
X170069190Y-52401309D02*
X170221693Y-52248805D01*
X170578307Y-52910427D02*
X170730810Y-52757923D01*
%TO.C,U3_0*%
X140490000Y-41719616D02*
X142310000Y-41719616D01*
X140490000Y-41769616D02*
X140490000Y-41719616D01*
X140490000Y-43669616D02*
X140490000Y-42889616D01*
X140490000Y-44839616D02*
X140490000Y-44789616D01*
X142310000Y-41719616D02*
X142310000Y-41769616D01*
X142310000Y-44789616D02*
X142310000Y-44839616D01*
X142310000Y-44839616D02*
X140490000Y-44839616D01*
X142850000Y-44789616D02*
X143090000Y-45119616D01*
X142610000Y-45119616D01*
X142850000Y-44789616D01*
G36*
X143090000Y-45119616D02*
G01*
X142610000Y-45119616D01*
X142850000Y-44789616D01*
X143090000Y-45119616D01*
G37*
%TO.C,R10_1*%
X173903640Y-52802433D02*
X173686359Y-52585151D01*
X174441041Y-52265033D02*
X174223760Y-52047751D01*
%TO.C,C3_1*%
X168732890Y-56853399D02*
X168885393Y-57005902D01*
X169242007Y-56344282D02*
X169394510Y-56496785D01*
%TO.C,R1_1*%
X182683700Y-43771451D02*
X182683700Y-44078733D01*
X183443700Y-43771451D02*
X183443700Y-44078733D01*
%TO.C,Q1_3*%
X154701300Y-84469616D02*
X156171300Y-84469616D01*
X154701300Y-84494616D02*
X154701300Y-84469616D01*
X154701300Y-86689616D02*
X154701300Y-86664616D01*
X156171300Y-84469616D02*
X156171300Y-84494616D01*
X156171300Y-86664616D02*
X156171300Y-86689616D01*
X156171300Y-86689616D02*
X154701300Y-86689616D01*
X154256300Y-84489616D02*
X154116300Y-84299616D01*
X154396300Y-84299616D01*
X154256300Y-84489616D01*
G36*
X154256300Y-84489616D02*
G01*
X154116300Y-84299616D01*
X154396300Y-84299616D01*
X154256300Y-84489616D01*
G37*
%TO.C,R9_2*%
X125322659Y-78974080D02*
X125539940Y-78756799D01*
X125860060Y-79511481D02*
X126077341Y-79294200D01*
%TO.C,R1_3*%
X152556300Y-88787781D02*
X152556300Y-88480499D01*
X153316300Y-88787781D02*
X153316300Y-88480499D01*
%TO.C,U4_1*%
X180615000Y-37179616D02*
X182185000Y-37179616D01*
X180820000Y-35379616D02*
X182180000Y-35379616D01*
X180500000Y-35379616D02*
X180220000Y-35379616D01*
X180500000Y-35099616D01*
X180500000Y-35379616D01*
G36*
X180500000Y-35379616D02*
G01*
X180220000Y-35379616D01*
X180500000Y-35099616D01*
X180500000Y-35379616D01*
G37*
%TO.C,C1_0*%
X135553700Y-42284512D02*
X135553700Y-42565672D01*
X136573700Y-42284512D02*
X136573700Y-42565672D01*
%TO.C,R8_2*%
X113420000Y-95333257D02*
X113420000Y-95025975D01*
X114180000Y-95333257D02*
X114180000Y-95025975D01*
%TO.C,U4_3*%
X155180000Y-97179616D02*
X153820000Y-97179616D01*
X155385000Y-95379616D02*
X153815000Y-95379616D01*
X155500000Y-97179616D02*
X155780000Y-97179616D01*
X155500000Y-97459616D01*
X155500000Y-97179616D01*
G36*
X155500000Y-97459616D02*
G01*
X155500000Y-97179616D01*
X155780000Y-97179616D01*
X155500000Y-97459616D01*
G37*
%TO.C,BT1_0*%
X137275511Y-35967956D02*
X137275511Y-34767956D01*
X137875511Y-35367956D02*
X136675511Y-35367956D01*
%TO.C,U3_2*%
X115690000Y-87719616D02*
X117510000Y-87719616D01*
X115690000Y-87769616D02*
X115690000Y-87719616D01*
X115690000Y-90839616D02*
X115690000Y-90789616D01*
X117510000Y-87719616D02*
X117510000Y-87769616D01*
X117510000Y-88889616D02*
X117510000Y-89669616D01*
X117510000Y-90789616D02*
X117510000Y-90839616D01*
X117510000Y-90839616D02*
X115690000Y-90839616D01*
X115150000Y-87769616D02*
X114910000Y-87439616D01*
X115390000Y-87439616D01*
X115150000Y-87769616D01*
G36*
X115150000Y-87769616D02*
G01*
X114910000Y-87439616D01*
X115390000Y-87439616D01*
X115150000Y-87769616D01*
G37*
%TO.C,C2_1*%
X181540580Y-39915092D02*
X181259420Y-39915092D01*
X181540580Y-40935092D02*
X181259420Y-40935092D01*
%TO.C,R7_3*%
X152220000Y-93233257D02*
X152220000Y-92925975D01*
X152980000Y-93233257D02*
X152980000Y-92925975D01*
%TO.C,C4_1*%
X163635393Y-60648806D02*
X163482890Y-60801309D01*
X164144510Y-61157923D02*
X163992007Y-61310426D01*
%TO.C,C3_3*%
X166757993Y-76214950D02*
X166605490Y-76062447D01*
X167267110Y-75705833D02*
X167114607Y-75553330D01*
%TO.C,D2_1*%
X176150000Y-41869616D02*
X176150000Y-44529616D01*
X177850000Y-41869616D02*
X176150000Y-41869616D01*
X177850000Y-41869616D02*
X177850000Y-44529616D01*
%TO.C,R8_0*%
X143820000Y-37225975D02*
X143820000Y-37533257D01*
X144580000Y-37225975D02*
X144580000Y-37533257D01*
%TO.C,D3_1*%
X174265598Y-47749804D02*
X171536167Y-50479235D01*
X175679813Y-49164017D02*
X172950381Y-51893449D01*
X175679813Y-49164017D02*
X174265598Y-47749804D01*
%TO.C,Q2_3*%
X156665000Y-95169616D02*
X158135000Y-95169616D01*
X156665000Y-95194616D02*
X156665000Y-95169616D01*
X156665000Y-97389616D02*
X156665000Y-97364616D01*
X158135000Y-95169616D02*
X158135000Y-95194616D01*
X158135000Y-97364616D02*
X158135000Y-97389616D01*
X158135000Y-97389616D02*
X156665000Y-97389616D01*
X156220000Y-95189616D02*
X156080000Y-94999616D01*
X156360000Y-94999616D01*
X156220000Y-95189616D01*
G36*
X156220000Y-95189616D02*
G01*
X156080000Y-94999616D01*
X156360000Y-94999616D01*
X156220000Y-95189616D01*
G37*
%TO.C,C4_2*%
X132855490Y-71401309D02*
X133007993Y-71248806D01*
X133364607Y-71910426D02*
X133517110Y-71757923D01*
%TO.C,C9_2*%
X126421693Y-79648805D02*
X126269190Y-79801309D01*
X126930810Y-80157923D02*
X126778307Y-80310427D01*
%TO.C,C7_0*%
X130482890Y-57996785D02*
X130635393Y-57844282D01*
X130992007Y-58505902D02*
X131144510Y-58353399D01*
%TO.C,R11_2*%
X121808959Y-81044199D02*
X122026240Y-81261481D01*
X122346360Y-80506799D02*
X122563641Y-80724081D01*
%TO.C,Q1_0*%
X140828700Y-45869616D02*
X142298700Y-45869616D01*
X140828700Y-45894616D02*
X140828700Y-45869616D01*
X140828700Y-48089616D02*
X140828700Y-48064616D01*
X142298700Y-45869616D02*
X142298700Y-45894616D01*
X142298700Y-48064616D02*
X142298700Y-48089616D01*
X142298700Y-48089616D02*
X140828700Y-48089616D01*
X142743700Y-48069616D02*
X142883700Y-48259616D01*
X142603700Y-48259616D01*
X142743700Y-48069616D01*
G36*
X142883700Y-48259616D02*
G01*
X142603700Y-48259616D01*
X142743700Y-48069616D01*
X142883700Y-48259616D01*
G37*
%TO.C,U3_1*%
X179490000Y-41719616D02*
X181310000Y-41719616D01*
X179490000Y-41769616D02*
X179490000Y-41719616D01*
X179490000Y-43669616D02*
X179490000Y-42889616D01*
X179490000Y-44839616D02*
X179490000Y-44789616D01*
X181310000Y-41719616D02*
X181310000Y-41769616D01*
X181310000Y-44789616D02*
X181310000Y-44839616D01*
X181310000Y-44839616D02*
X179490000Y-44839616D01*
X181850000Y-44789616D02*
X182090000Y-45119616D01*
X181610000Y-45119616D01*
X181850000Y-44789616D01*
G36*
X182090000Y-45119616D02*
G01*
X181610000Y-45119616D01*
X181850000Y-44789616D01*
X182090000Y-45119616D01*
G37*
%TO.C,C2_0*%
X142540580Y-39915092D02*
X142259420Y-39915092D01*
X142540580Y-40935092D02*
X142259420Y-40935092D01*
%TO.C,C6_2*%
X128507993Y-75464950D02*
X128355490Y-75312447D01*
X129017110Y-74955833D02*
X128864607Y-74803330D01*
%TO.C,C1_1*%
X174553700Y-42284512D02*
X174553700Y-42565672D01*
X175573700Y-42284512D02*
X175573700Y-42565672D01*
%TO.C,U1_2*%
X127868655Y-78304360D02*
X135081144Y-71091871D01*
X135081144Y-71091871D02*
X145687745Y-81698472D01*
X138475256Y-88910961D02*
X127868655Y-78304360D01*
X142399699Y-78410426D02*
X142823962Y-77986162D01*
X145687745Y-81698472D02*
X138475256Y-88910961D01*
%TD*%
M02*
