M48
; DRILL file KiCad 10.0.6 date 2026-09-27T11:20:08
; FORMAT={-:-/ absolute / metric / decimal}
; #@! TF.CreationDate,2026-09-27T11:20:08+02:00
; #@! TF.GenerationSoftware,Kicad,Pcbnew,10.0.6
; #@! TF.FileFunction,MixedPlating,1,2
FMAT,2
METRIC
; #@! TA.AperFunction,Plated,PTH,ViaDrill
T1C0.300
; #@! TA.AperFunction,Plated,PTH,ComponentDrill
T2C0.850
; #@! TA.AperFunction,Plated,PTH,ComponentDrill
T3C1.000
; #@! TA.AperFunction,NonPlated,NPTH,ComponentDrill
T4C0.500
; #@! TA.AperFunction,NonPlated,NPTH,ComponentDrill
T5C0.991
; #@! TA.AperFunction,NonPlated,NPTH,ComponentDrill
T6C1.152
; #@! TA.AperFunction,NonPlated,NPTH,ComponentDrill
T7C1.800
%
G90
G05
T1
X114.597Y-53.999
X114.597Y-92.999
X116.359Y-55.364
X116.359Y-94.364
X116.652Y-51.431
X116.652Y-90.431
X116.867Y-52.993
X116.867Y-91.993
X117.579Y-39.323
X117.579Y-78.323
X117.797Y-34.799
X117.797Y-73.799
X117.814Y-55.394
X117.814Y-94.394
X117.826Y-51.458
X117.826Y-90.458
X117.985Y-53.255
X117.985Y-92.255
X118.756Y-56.559
X118.756Y-95.559
X119.22Y-52.603
X119.22Y-91.603
X119.397Y-33.199
X119.397Y-34.799
X119.397Y-72.199
X119.397Y-73.799
X120.997Y-31.599
X120.997Y-33.199
X120.997Y-34.799
X120.997Y-57.199
X120.997Y-60.399
X120.997Y-70.599
X120.997Y-72.199
X120.997Y-73.799
X120.997Y-96.199
X120.997Y-99.399
X121.207Y-55.999
X121.207Y-94.999
X121.327Y-35.853
X121.327Y-74.853
X121.783Y-55.384
X121.783Y-94.384
X121.967Y-52.419
X121.967Y-91.419
X122.448Y-39.296
X122.448Y-78.296
X122.597Y-57.199
X122.597Y-60.399
X122.597Y-96.199
X122.597Y-99.399
X122.93Y-55.078
X122.93Y-94.078
X123.585Y-54.199
X123.585Y-93.199
X124.197Y-60.399
X124.197Y-61.999
X124.197Y-99.399
X124.197Y-100.999
X124.428Y-35.466
X124.428Y-74.466
X124.687Y-45.998
X124.687Y-84.998
X125.336Y-53.916
X125.336Y-92.916
X125.797Y-60.399
X125.797Y-61.999
X125.797Y-99.399
X125.797Y-100.999
X125.836Y-52.156
X125.836Y-91.156
X125.876Y-50.249
X125.876Y-89.249
X125.987Y-42.167
X125.987Y-81.167
X126.012Y-48.908
X126.012Y-87.908
X126.027Y-56.499
X126.027Y-95.499
X126.814Y-52.432
X126.814Y-91.432
X126.873Y-40.562
X126.873Y-79.562
X127.397Y-57.199
X127.397Y-96.199
X127.489Y-51.477
X127.489Y-90.477
X127.715Y-41.768
X127.715Y-80.768
X127.749Y-40.907
X127.749Y-79.907
X128.0Y-45.246
X128.0Y-84.246
X128.026Y-44.554
X128.026Y-83.554
X128.03Y-47.683
X128.03Y-86.683
X128.17Y-45.938
X128.17Y-84.938
X128.426Y-42.021
X128.426Y-81.021
X128.444Y-49.159
X128.444Y-88.159
X128.627Y-39.878
X128.627Y-78.878
X129.077Y-37.899
X129.077Y-76.899
X129.624Y-51.191
X129.624Y-90.191
X129.765Y-37.776
X129.765Y-76.776
X130.444Y-58.623
X130.444Y-97.623
X130.56Y-59.399
X130.56Y-98.399
X131.397Y-54.524
X131.397Y-93.524
X131.435Y-36.775
X131.435Y-75.775
X131.477Y-39.099
X131.477Y-78.099
X132.197Y-61.999
X132.197Y-100.999
X133.201Y-34.842
X133.201Y-73.842
X133.572Y-36.838
X133.572Y-75.838
X133.797Y-61.999
X133.797Y-100.999
X133.962Y-35.019
X133.962Y-74.019
X134.397Y-54.889
X134.397Y-93.889
X135.431Y-58.293
X135.431Y-97.293
X136.729Y-59.97
X136.729Y-98.97
X136.816Y-57.232
X136.816Y-96.232
X136.997Y-31.599
X136.997Y-70.599
X138.196Y-57.246
X138.196Y-96.246
X140.206Y-57.477
X140.206Y-96.477
X140.215Y-54.185
X140.215Y-93.185
X140.656Y-58.345
X140.656Y-97.345
X141.52Y-53.813
X141.52Y-92.813
X153.597Y-53.999
X153.597Y-92.999
X155.359Y-55.364
X155.359Y-94.364
X155.652Y-51.431
X155.652Y-90.431
X155.867Y-52.993
X155.867Y-91.993
X156.579Y-39.323
X156.579Y-78.323
X156.797Y-34.799
X156.797Y-73.799
X156.814Y-55.394
X156.814Y-94.394
X156.826Y-51.458
X156.826Y-90.458
X156.985Y-53.255
X156.985Y-92.255
X157.756Y-56.559
X157.756Y-95.559
X158.22Y-52.603
X158.22Y-91.603
X158.397Y-33.199
X158.397Y-34.799
X158.397Y-72.199
X158.397Y-73.799
X159.997Y-31.599
X159.997Y-33.199
X159.997Y-34.799
X159.997Y-57.199
X159.997Y-60.399
X159.997Y-70.599
X159.997Y-72.199
X159.997Y-73.799
X159.997Y-96.199
X159.997Y-99.399
X160.207Y-55.999
X160.207Y-94.999
X160.327Y-35.853
X160.327Y-74.853
X160.783Y-55.384
X160.783Y-94.384
X160.967Y-52.419
X160.967Y-91.419
X161.448Y-39.296
X161.448Y-78.296
X161.597Y-57.199
X161.597Y-60.399
X161.597Y-96.199
X161.597Y-99.399
X161.93Y-55.078
X161.93Y-94.078
X162.585Y-54.199
X162.585Y-93.199
X163.197Y-60.399
X163.197Y-61.999
X163.197Y-99.399
X163.197Y-100.999
X163.428Y-35.466
X163.428Y-74.466
X163.687Y-45.998
X163.687Y-84.998
X164.336Y-53.916
X164.336Y-92.916
X164.797Y-60.399
X164.797Y-61.999
X164.797Y-99.399
X164.797Y-100.999
X164.836Y-52.156
X164.836Y-91.156
X164.876Y-50.249
X164.876Y-89.249
X164.987Y-42.167
X164.987Y-81.167
X165.012Y-48.908
X165.012Y-87.908
X165.027Y-56.499
X165.027Y-95.499
X165.814Y-52.432
X165.814Y-91.432
X165.873Y-40.562
X165.873Y-79.562
X166.397Y-57.199
X166.397Y-96.199
X166.489Y-51.477
X166.489Y-90.477
X166.715Y-41.768
X166.715Y-80.768
X166.749Y-40.907
X166.749Y-79.907
X167.0Y-45.246
X167.0Y-84.246
X167.026Y-44.554
X167.026Y-83.554
X167.03Y-47.683
X167.03Y-86.683
X167.17Y-45.938
X167.17Y-84.938
X167.426Y-42.021
X167.426Y-81.021
X167.444Y-49.159
X167.444Y-88.159
X167.627Y-39.878
X167.627Y-78.878
X168.077Y-37.899
X168.077Y-76.899
X168.624Y-51.191
X168.624Y-90.191
X168.765Y-37.776
X168.765Y-76.776
X169.444Y-58.623
X169.444Y-97.623
X169.56Y-59.399
X169.56Y-98.399
X170.397Y-54.524
X170.397Y-93.524
X170.435Y-36.775
X170.435Y-75.775
X170.477Y-39.099
X170.477Y-78.099
X171.197Y-61.999
X171.197Y-100.999
X172.201Y-34.842
X172.201Y-73.842
X172.572Y-36.838
X172.572Y-75.838
X172.797Y-61.999
X172.797Y-100.999
X172.962Y-35.019
X172.962Y-74.019
X173.397Y-54.889
X173.397Y-93.889
X174.431Y-58.293
X174.431Y-97.293
X175.729Y-59.97
X175.729Y-98.97
X175.816Y-57.232
X175.816Y-96.232
X175.997Y-31.599
X175.997Y-70.599
X177.196Y-57.246
X177.196Y-96.246
X179.206Y-57.477
X179.206Y-96.477
X179.215Y-54.185
X179.215Y-93.185
X179.656Y-58.345
X179.656Y-97.345
X180.52Y-53.813
X180.52Y-92.813
T2
X127.747Y-32.499
X127.747Y-71.499
X130.247Y-32.499
X130.247Y-71.499
X166.747Y-32.499
X166.747Y-71.499
X169.247Y-32.499
X169.247Y-71.499
T3
X137.497Y-36.599
X137.497Y-55.399
X137.497Y-75.599
X137.497Y-94.399
X176.497Y-36.599
X176.497Y-55.399
X176.497Y-75.599
X176.497Y-94.399
T4
X121.131Y-30.031
X121.131Y-61.966
X121.131Y-69.031
X121.131Y-100.966
X121.884Y-29.683
X121.884Y-62.314
X121.884Y-68.683
X121.884Y-101.314
X122.653Y-29.37
X122.653Y-62.627
X122.653Y-68.37
X122.653Y-101.627
X123.435Y-29.093
X123.435Y-62.904
X123.435Y-68.093
X123.435Y-101.904
X124.229Y-28.853
X124.229Y-63.144
X124.229Y-67.853
X124.229Y-102.144
X125.034Y-28.65
X125.034Y-63.347
X125.034Y-67.65
X125.034Y-102.347
X132.964Y-28.641
X132.964Y-63.356
X132.964Y-67.641
X132.964Y-102.356
X133.768Y-28.854
X133.768Y-63.143
X133.768Y-67.854
X133.768Y-102.143
X134.563Y-29.096
X134.563Y-62.901
X134.563Y-68.096
X134.563Y-101.901
X135.346Y-29.375
X135.346Y-62.622
X135.346Y-68.375
X135.346Y-101.622
X136.116Y-29.69
X136.116Y-62.307
X136.116Y-68.69
X136.116Y-101.307
X136.879Y-30.02
X136.879Y-61.977
X136.879Y-69.02
X136.879Y-100.977
X160.131Y-30.031
X160.131Y-61.966
X160.131Y-69.031
X160.131Y-100.966
X160.884Y-29.683
X160.884Y-62.314
X160.884Y-68.683
X160.884Y-101.314
X161.653Y-29.37
X161.653Y-62.627
X161.653Y-68.37
X161.653Y-101.627
X162.435Y-29.093
X162.435Y-62.904
X162.435Y-68.093
X162.435Y-101.904
X163.229Y-28.853
X163.229Y-63.144
X163.229Y-67.853
X163.229Y-102.144
X164.034Y-28.65
X164.034Y-63.347
X164.034Y-67.65
X164.034Y-102.347
X171.964Y-28.641
X171.964Y-63.356
X171.964Y-67.641
X171.964Y-102.356
X172.768Y-28.854
X172.768Y-63.143
X172.768Y-67.854
X172.768Y-102.143
X173.563Y-29.096
X173.563Y-62.901
X173.563Y-68.096
X173.563Y-101.901
X174.346Y-29.375
X174.346Y-62.622
X174.346Y-68.375
X174.346Y-101.622
X175.116Y-29.69
X175.116Y-62.307
X175.116Y-68.69
X175.116Y-101.307
X175.879Y-30.02
X175.879Y-61.977
X175.879Y-69.02
X175.879Y-100.977
T5
X118.457Y-37.599
X118.457Y-76.599
X123.537Y-36.583
X123.537Y-38.615
X123.537Y-75.583
X123.537Y-77.615
X157.457Y-37.599
X157.457Y-76.599
X162.537Y-36.583
X162.537Y-38.615
X162.537Y-75.583
X162.537Y-77.615
T6
X113.503Y-22.5
X113.503Y-108.497
X183.497Y-22.5
T7
X115.004Y-37.255
X115.004Y-76.255
X128.997Y-62.499
X128.997Y-101.499
X142.513Y-36.535
X142.513Y-75.535
X154.004Y-37.255
X154.004Y-76.255
X167.997Y-62.499
X167.997Y-101.499
X181.513Y-36.535
X181.513Y-75.535
M30
