%TF.GenerationSoftware,KiCad,Pcbnew,10.0.6*%
%TF.CreationDate,2026-09-27T19:28:39+02:00*%
%TF.ProjectId,shotpuck-panel,73686f74-7075-4636-9b2d-70616e656c2e,rev?*%
%TF.SameCoordinates,Original*%
%TF.FileFunction,Legend,Bot*%
%TF.FilePolarity,Positive*%
%FSLAX46Y46*%
G04 Gerber Fmt 4.6, Leading zero omitted, Abs format (unit mm)*
G04 Created by KiCad (PCBNEW 10.0.6) date 2026-09-27 19:28:39*
%MOMM*%
%LPD*%
G01*
G04 APERTURE LIST*
%ADD10C,0.125000*%
%ADD11C,0.120000*%
G04 APERTURE END LIST*
D10*
X134571429Y-68888116D02*
X134428572Y-68935735D01*
X134428572Y-68935735D02*
X134190477Y-68935735D01*
X134190477Y-68935735D02*
X134095239Y-68888116D01*
X134095239Y-68888116D02*
X134047620Y-68840496D01*
X134047620Y-68840496D02*
X134000001Y-68745258D01*
X134000001Y-68745258D02*
X134000001Y-68650020D01*
X134000001Y-68650020D02*
X134047620Y-68554782D01*
X134047620Y-68554782D02*
X134095239Y-68507163D01*
X134095239Y-68507163D02*
X134190477Y-68459544D01*
X134190477Y-68459544D02*
X134380953Y-68411925D01*
X134380953Y-68411925D02*
X134476191Y-68364306D01*
X134476191Y-68364306D02*
X134523810Y-68316687D01*
X134523810Y-68316687D02*
X134571429Y-68221449D01*
X134571429Y-68221449D02*
X134571429Y-68126211D01*
X134571429Y-68126211D02*
X134523810Y-68030973D01*
X134523810Y-68030973D02*
X134476191Y-67983354D01*
X134476191Y-67983354D02*
X134380953Y-67935735D01*
X134380953Y-67935735D02*
X134142858Y-67935735D01*
X134142858Y-67935735D02*
X134000001Y-67983354D01*
X133571429Y-68935735D02*
X133571429Y-67935735D01*
X133142858Y-68935735D02*
X133142858Y-68411925D01*
X133142858Y-68411925D02*
X133190477Y-68316687D01*
X133190477Y-68316687D02*
X133285715Y-68269068D01*
X133285715Y-68269068D02*
X133428572Y-68269068D01*
X133428572Y-68269068D02*
X133523810Y-68316687D01*
X133523810Y-68316687D02*
X133571429Y-68364306D01*
X132523810Y-68935735D02*
X132619048Y-68888116D01*
X132619048Y-68888116D02*
X132666667Y-68840496D01*
X132666667Y-68840496D02*
X132714286Y-68745258D01*
X132714286Y-68745258D02*
X132714286Y-68459544D01*
X132714286Y-68459544D02*
X132666667Y-68364306D01*
X132666667Y-68364306D02*
X132619048Y-68316687D01*
X132619048Y-68316687D02*
X132523810Y-68269068D01*
X132523810Y-68269068D02*
X132380953Y-68269068D01*
X132380953Y-68269068D02*
X132285715Y-68316687D01*
X132285715Y-68316687D02*
X132238096Y-68364306D01*
X132238096Y-68364306D02*
X132190477Y-68459544D01*
X132190477Y-68459544D02*
X132190477Y-68745258D01*
X132190477Y-68745258D02*
X132238096Y-68840496D01*
X132238096Y-68840496D02*
X132285715Y-68888116D01*
X132285715Y-68888116D02*
X132380953Y-68935735D01*
X132380953Y-68935735D02*
X132523810Y-68935735D01*
X131904762Y-68269068D02*
X131523810Y-68269068D01*
X131761905Y-67935735D02*
X131761905Y-68792877D01*
X131761905Y-68792877D02*
X131714286Y-68888116D01*
X131714286Y-68888116D02*
X131619048Y-68935735D01*
X131619048Y-68935735D02*
X131523810Y-68935735D01*
X131190476Y-68935735D02*
X131190476Y-67935735D01*
X131190476Y-67935735D02*
X130809524Y-67935735D01*
X130809524Y-67935735D02*
X130714286Y-67983354D01*
X130714286Y-67983354D02*
X130666667Y-68030973D01*
X130666667Y-68030973D02*
X130619048Y-68126211D01*
X130619048Y-68126211D02*
X130619048Y-68269068D01*
X130619048Y-68269068D02*
X130666667Y-68364306D01*
X130666667Y-68364306D02*
X130714286Y-68411925D01*
X130714286Y-68411925D02*
X130809524Y-68459544D01*
X130809524Y-68459544D02*
X131190476Y-68459544D01*
X129761905Y-68269068D02*
X129761905Y-68935735D01*
X130190476Y-68269068D02*
X130190476Y-68792877D01*
X130190476Y-68792877D02*
X130142857Y-68888116D01*
X130142857Y-68888116D02*
X130047619Y-68935735D01*
X130047619Y-68935735D02*
X129904762Y-68935735D01*
X129904762Y-68935735D02*
X129809524Y-68888116D01*
X129809524Y-68888116D02*
X129761905Y-68840496D01*
X128857143Y-68888116D02*
X128952381Y-68935735D01*
X128952381Y-68935735D02*
X129142857Y-68935735D01*
X129142857Y-68935735D02*
X129238095Y-68888116D01*
X129238095Y-68888116D02*
X129285714Y-68840496D01*
X129285714Y-68840496D02*
X129333333Y-68745258D01*
X129333333Y-68745258D02*
X129333333Y-68459544D01*
X129333333Y-68459544D02*
X129285714Y-68364306D01*
X129285714Y-68364306D02*
X129238095Y-68316687D01*
X129238095Y-68316687D02*
X129142857Y-68269068D01*
X129142857Y-68269068D02*
X128952381Y-68269068D01*
X128952381Y-68269068D02*
X128857143Y-68316687D01*
X128428571Y-68935735D02*
X128428571Y-67935735D01*
X128333333Y-68554782D02*
X128047619Y-68935735D01*
X128047619Y-68269068D02*
X128428571Y-68650020D01*
X126857142Y-68935735D02*
X126857142Y-68269068D01*
X126857142Y-68459544D02*
X126809523Y-68364306D01*
X126809523Y-68364306D02*
X126761904Y-68316687D01*
X126761904Y-68316687D02*
X126666666Y-68269068D01*
X126666666Y-68269068D02*
X126571428Y-68269068D01*
X125857142Y-68888116D02*
X125952380Y-68935735D01*
X125952380Y-68935735D02*
X126142856Y-68935735D01*
X126142856Y-68935735D02*
X126238094Y-68888116D01*
X126238094Y-68888116D02*
X126285713Y-68792877D01*
X126285713Y-68792877D02*
X126285713Y-68411925D01*
X126285713Y-68411925D02*
X126238094Y-68316687D01*
X126238094Y-68316687D02*
X126142856Y-68269068D01*
X126142856Y-68269068D02*
X125952380Y-68269068D01*
X125952380Y-68269068D02*
X125857142Y-68316687D01*
X125857142Y-68316687D02*
X125809523Y-68411925D01*
X125809523Y-68411925D02*
X125809523Y-68507163D01*
X125809523Y-68507163D02*
X126285713Y-68602401D01*
X125476189Y-68269068D02*
X125238094Y-68935735D01*
X125238094Y-68935735D02*
X124999999Y-68269068D01*
X123904760Y-68650020D02*
X123428570Y-68650020D01*
X123999998Y-68935735D02*
X123666665Y-67935735D01*
X123666665Y-67935735D02*
X123333332Y-68935735D01*
X173571429Y-68888116D02*
X173428572Y-68935735D01*
X173428572Y-68935735D02*
X173190477Y-68935735D01*
X173190477Y-68935735D02*
X173095239Y-68888116D01*
X173095239Y-68888116D02*
X173047620Y-68840496D01*
X173047620Y-68840496D02*
X173000001Y-68745258D01*
X173000001Y-68745258D02*
X173000001Y-68650020D01*
X173000001Y-68650020D02*
X173047620Y-68554782D01*
X173047620Y-68554782D02*
X173095239Y-68507163D01*
X173095239Y-68507163D02*
X173190477Y-68459544D01*
X173190477Y-68459544D02*
X173380953Y-68411925D01*
X173380953Y-68411925D02*
X173476191Y-68364306D01*
X173476191Y-68364306D02*
X173523810Y-68316687D01*
X173523810Y-68316687D02*
X173571429Y-68221449D01*
X173571429Y-68221449D02*
X173571429Y-68126211D01*
X173571429Y-68126211D02*
X173523810Y-68030973D01*
X173523810Y-68030973D02*
X173476191Y-67983354D01*
X173476191Y-67983354D02*
X173380953Y-67935735D01*
X173380953Y-67935735D02*
X173142858Y-67935735D01*
X173142858Y-67935735D02*
X173000001Y-67983354D01*
X172571429Y-68935735D02*
X172571429Y-67935735D01*
X172142858Y-68935735D02*
X172142858Y-68411925D01*
X172142858Y-68411925D02*
X172190477Y-68316687D01*
X172190477Y-68316687D02*
X172285715Y-68269068D01*
X172285715Y-68269068D02*
X172428572Y-68269068D01*
X172428572Y-68269068D02*
X172523810Y-68316687D01*
X172523810Y-68316687D02*
X172571429Y-68364306D01*
X171523810Y-68935735D02*
X171619048Y-68888116D01*
X171619048Y-68888116D02*
X171666667Y-68840496D01*
X171666667Y-68840496D02*
X171714286Y-68745258D01*
X171714286Y-68745258D02*
X171714286Y-68459544D01*
X171714286Y-68459544D02*
X171666667Y-68364306D01*
X171666667Y-68364306D02*
X171619048Y-68316687D01*
X171619048Y-68316687D02*
X171523810Y-68269068D01*
X171523810Y-68269068D02*
X171380953Y-68269068D01*
X171380953Y-68269068D02*
X171285715Y-68316687D01*
X171285715Y-68316687D02*
X171238096Y-68364306D01*
X171238096Y-68364306D02*
X171190477Y-68459544D01*
X171190477Y-68459544D02*
X171190477Y-68745258D01*
X171190477Y-68745258D02*
X171238096Y-68840496D01*
X171238096Y-68840496D02*
X171285715Y-68888116D01*
X171285715Y-68888116D02*
X171380953Y-68935735D01*
X171380953Y-68935735D02*
X171523810Y-68935735D01*
X170904762Y-68269068D02*
X170523810Y-68269068D01*
X170761905Y-67935735D02*
X170761905Y-68792877D01*
X170761905Y-68792877D02*
X170714286Y-68888116D01*
X170714286Y-68888116D02*
X170619048Y-68935735D01*
X170619048Y-68935735D02*
X170523810Y-68935735D01*
X170190476Y-68935735D02*
X170190476Y-67935735D01*
X170190476Y-67935735D02*
X169809524Y-67935735D01*
X169809524Y-67935735D02*
X169714286Y-67983354D01*
X169714286Y-67983354D02*
X169666667Y-68030973D01*
X169666667Y-68030973D02*
X169619048Y-68126211D01*
X169619048Y-68126211D02*
X169619048Y-68269068D01*
X169619048Y-68269068D02*
X169666667Y-68364306D01*
X169666667Y-68364306D02*
X169714286Y-68411925D01*
X169714286Y-68411925D02*
X169809524Y-68459544D01*
X169809524Y-68459544D02*
X170190476Y-68459544D01*
X168761905Y-68269068D02*
X168761905Y-68935735D01*
X169190476Y-68269068D02*
X169190476Y-68792877D01*
X169190476Y-68792877D02*
X169142857Y-68888116D01*
X169142857Y-68888116D02*
X169047619Y-68935735D01*
X169047619Y-68935735D02*
X168904762Y-68935735D01*
X168904762Y-68935735D02*
X168809524Y-68888116D01*
X168809524Y-68888116D02*
X168761905Y-68840496D01*
X167857143Y-68888116D02*
X167952381Y-68935735D01*
X167952381Y-68935735D02*
X168142857Y-68935735D01*
X168142857Y-68935735D02*
X168238095Y-68888116D01*
X168238095Y-68888116D02*
X168285714Y-68840496D01*
X168285714Y-68840496D02*
X168333333Y-68745258D01*
X168333333Y-68745258D02*
X168333333Y-68459544D01*
X168333333Y-68459544D02*
X168285714Y-68364306D01*
X168285714Y-68364306D02*
X168238095Y-68316687D01*
X168238095Y-68316687D02*
X168142857Y-68269068D01*
X168142857Y-68269068D02*
X167952381Y-68269068D01*
X167952381Y-68269068D02*
X167857143Y-68316687D01*
X167428571Y-68935735D02*
X167428571Y-67935735D01*
X167333333Y-68554782D02*
X167047619Y-68935735D01*
X167047619Y-68269068D02*
X167428571Y-68650020D01*
X165857142Y-68935735D02*
X165857142Y-68269068D01*
X165857142Y-68459544D02*
X165809523Y-68364306D01*
X165809523Y-68364306D02*
X165761904Y-68316687D01*
X165761904Y-68316687D02*
X165666666Y-68269068D01*
X165666666Y-68269068D02*
X165571428Y-68269068D01*
X164857142Y-68888116D02*
X164952380Y-68935735D01*
X164952380Y-68935735D02*
X165142856Y-68935735D01*
X165142856Y-68935735D02*
X165238094Y-68888116D01*
X165238094Y-68888116D02*
X165285713Y-68792877D01*
X165285713Y-68792877D02*
X165285713Y-68411925D01*
X165285713Y-68411925D02*
X165238094Y-68316687D01*
X165238094Y-68316687D02*
X165142856Y-68269068D01*
X165142856Y-68269068D02*
X164952380Y-68269068D01*
X164952380Y-68269068D02*
X164857142Y-68316687D01*
X164857142Y-68316687D02*
X164809523Y-68411925D01*
X164809523Y-68411925D02*
X164809523Y-68507163D01*
X164809523Y-68507163D02*
X165285713Y-68602401D01*
X164476189Y-68269068D02*
X164238094Y-68935735D01*
X164238094Y-68935735D02*
X163999999Y-68269068D01*
X162904760Y-68650020D02*
X162428570Y-68650020D01*
X162999998Y-68935735D02*
X162666665Y-67935735D01*
X162666665Y-67935735D02*
X162333332Y-68935735D01*
X123428570Y-59671116D02*
X123571427Y-59623496D01*
X123571427Y-59623496D02*
X123809522Y-59623496D01*
X123809522Y-59623496D02*
X123904760Y-59671116D01*
X123904760Y-59671116D02*
X123952379Y-59718735D01*
X123952379Y-59718735D02*
X123999998Y-59813973D01*
X123999998Y-59813973D02*
X123999998Y-59909211D01*
X123999998Y-59909211D02*
X123952379Y-60004449D01*
X123952379Y-60004449D02*
X123904760Y-60052068D01*
X123904760Y-60052068D02*
X123809522Y-60099687D01*
X123809522Y-60099687D02*
X123619046Y-60147306D01*
X123619046Y-60147306D02*
X123523808Y-60194925D01*
X123523808Y-60194925D02*
X123476189Y-60242544D01*
X123476189Y-60242544D02*
X123428570Y-60337782D01*
X123428570Y-60337782D02*
X123428570Y-60433020D01*
X123428570Y-60433020D02*
X123476189Y-60528258D01*
X123476189Y-60528258D02*
X123523808Y-60575877D01*
X123523808Y-60575877D02*
X123619046Y-60623496D01*
X123619046Y-60623496D02*
X123857141Y-60623496D01*
X123857141Y-60623496D02*
X123999998Y-60575877D01*
X124428570Y-59623496D02*
X124428570Y-60623496D01*
X124857141Y-59623496D02*
X124857141Y-60147306D01*
X124857141Y-60147306D02*
X124809522Y-60242544D01*
X124809522Y-60242544D02*
X124714284Y-60290163D01*
X124714284Y-60290163D02*
X124571427Y-60290163D01*
X124571427Y-60290163D02*
X124476189Y-60242544D01*
X124476189Y-60242544D02*
X124428570Y-60194925D01*
X125476189Y-59623496D02*
X125380951Y-59671116D01*
X125380951Y-59671116D02*
X125333332Y-59718735D01*
X125333332Y-59718735D02*
X125285713Y-59813973D01*
X125285713Y-59813973D02*
X125285713Y-60099687D01*
X125285713Y-60099687D02*
X125333332Y-60194925D01*
X125333332Y-60194925D02*
X125380951Y-60242544D01*
X125380951Y-60242544D02*
X125476189Y-60290163D01*
X125476189Y-60290163D02*
X125619046Y-60290163D01*
X125619046Y-60290163D02*
X125714284Y-60242544D01*
X125714284Y-60242544D02*
X125761903Y-60194925D01*
X125761903Y-60194925D02*
X125809522Y-60099687D01*
X125809522Y-60099687D02*
X125809522Y-59813973D01*
X125809522Y-59813973D02*
X125761903Y-59718735D01*
X125761903Y-59718735D02*
X125714284Y-59671116D01*
X125714284Y-59671116D02*
X125619046Y-59623496D01*
X125619046Y-59623496D02*
X125476189Y-59623496D01*
X126095237Y-60290163D02*
X126476189Y-60290163D01*
X126238094Y-60623496D02*
X126238094Y-59766354D01*
X126238094Y-59766354D02*
X126285713Y-59671116D01*
X126285713Y-59671116D02*
X126380951Y-59623496D01*
X126380951Y-59623496D02*
X126476189Y-59623496D01*
X126809523Y-59623496D02*
X126809523Y-60623496D01*
X126809523Y-60623496D02*
X127190475Y-60623496D01*
X127190475Y-60623496D02*
X127285713Y-60575877D01*
X127285713Y-60575877D02*
X127333332Y-60528258D01*
X127333332Y-60528258D02*
X127380951Y-60433020D01*
X127380951Y-60433020D02*
X127380951Y-60290163D01*
X127380951Y-60290163D02*
X127333332Y-60194925D01*
X127333332Y-60194925D02*
X127285713Y-60147306D01*
X127285713Y-60147306D02*
X127190475Y-60099687D01*
X127190475Y-60099687D02*
X126809523Y-60099687D01*
X128238094Y-60290163D02*
X128238094Y-59623496D01*
X127809523Y-60290163D02*
X127809523Y-59766354D01*
X127809523Y-59766354D02*
X127857142Y-59671116D01*
X127857142Y-59671116D02*
X127952380Y-59623496D01*
X127952380Y-59623496D02*
X128095237Y-59623496D01*
X128095237Y-59623496D02*
X128190475Y-59671116D01*
X128190475Y-59671116D02*
X128238094Y-59718735D01*
X129142856Y-59671116D02*
X129047618Y-59623496D01*
X129047618Y-59623496D02*
X128857142Y-59623496D01*
X128857142Y-59623496D02*
X128761904Y-59671116D01*
X128761904Y-59671116D02*
X128714285Y-59718735D01*
X128714285Y-59718735D02*
X128666666Y-59813973D01*
X128666666Y-59813973D02*
X128666666Y-60099687D01*
X128666666Y-60099687D02*
X128714285Y-60194925D01*
X128714285Y-60194925D02*
X128761904Y-60242544D01*
X128761904Y-60242544D02*
X128857142Y-60290163D01*
X128857142Y-60290163D02*
X129047618Y-60290163D01*
X129047618Y-60290163D02*
X129142856Y-60242544D01*
X129571428Y-59623496D02*
X129571428Y-60623496D01*
X129666666Y-60004449D02*
X129952380Y-59623496D01*
X129952380Y-60290163D02*
X129571428Y-59909211D01*
X131142857Y-59623496D02*
X131142857Y-60290163D01*
X131142857Y-60099687D02*
X131190476Y-60194925D01*
X131190476Y-60194925D02*
X131238095Y-60242544D01*
X131238095Y-60242544D02*
X131333333Y-60290163D01*
X131333333Y-60290163D02*
X131428571Y-60290163D01*
X132142857Y-59671116D02*
X132047619Y-59623496D01*
X132047619Y-59623496D02*
X131857143Y-59623496D01*
X131857143Y-59623496D02*
X131761905Y-59671116D01*
X131761905Y-59671116D02*
X131714286Y-59766354D01*
X131714286Y-59766354D02*
X131714286Y-60147306D01*
X131714286Y-60147306D02*
X131761905Y-60242544D01*
X131761905Y-60242544D02*
X131857143Y-60290163D01*
X131857143Y-60290163D02*
X132047619Y-60290163D01*
X132047619Y-60290163D02*
X132142857Y-60242544D01*
X132142857Y-60242544D02*
X132190476Y-60147306D01*
X132190476Y-60147306D02*
X132190476Y-60052068D01*
X132190476Y-60052068D02*
X131714286Y-59956830D01*
X132523810Y-60290163D02*
X132761905Y-59623496D01*
X132761905Y-59623496D02*
X133000000Y-60290163D01*
X134095239Y-59909211D02*
X134571429Y-59909211D01*
X134000001Y-59623496D02*
X134333334Y-60623496D01*
X134333334Y-60623496D02*
X134666667Y-59623496D01*
X162428570Y-59671116D02*
X162571427Y-59623496D01*
X162571427Y-59623496D02*
X162809522Y-59623496D01*
X162809522Y-59623496D02*
X162904760Y-59671116D01*
X162904760Y-59671116D02*
X162952379Y-59718735D01*
X162952379Y-59718735D02*
X162999998Y-59813973D01*
X162999998Y-59813973D02*
X162999998Y-59909211D01*
X162999998Y-59909211D02*
X162952379Y-60004449D01*
X162952379Y-60004449D02*
X162904760Y-60052068D01*
X162904760Y-60052068D02*
X162809522Y-60099687D01*
X162809522Y-60099687D02*
X162619046Y-60147306D01*
X162619046Y-60147306D02*
X162523808Y-60194925D01*
X162523808Y-60194925D02*
X162476189Y-60242544D01*
X162476189Y-60242544D02*
X162428570Y-60337782D01*
X162428570Y-60337782D02*
X162428570Y-60433020D01*
X162428570Y-60433020D02*
X162476189Y-60528258D01*
X162476189Y-60528258D02*
X162523808Y-60575877D01*
X162523808Y-60575877D02*
X162619046Y-60623496D01*
X162619046Y-60623496D02*
X162857141Y-60623496D01*
X162857141Y-60623496D02*
X162999998Y-60575877D01*
X163428570Y-59623496D02*
X163428570Y-60623496D01*
X163857141Y-59623496D02*
X163857141Y-60147306D01*
X163857141Y-60147306D02*
X163809522Y-60242544D01*
X163809522Y-60242544D02*
X163714284Y-60290163D01*
X163714284Y-60290163D02*
X163571427Y-60290163D01*
X163571427Y-60290163D02*
X163476189Y-60242544D01*
X163476189Y-60242544D02*
X163428570Y-60194925D01*
X164476189Y-59623496D02*
X164380951Y-59671116D01*
X164380951Y-59671116D02*
X164333332Y-59718735D01*
X164333332Y-59718735D02*
X164285713Y-59813973D01*
X164285713Y-59813973D02*
X164285713Y-60099687D01*
X164285713Y-60099687D02*
X164333332Y-60194925D01*
X164333332Y-60194925D02*
X164380951Y-60242544D01*
X164380951Y-60242544D02*
X164476189Y-60290163D01*
X164476189Y-60290163D02*
X164619046Y-60290163D01*
X164619046Y-60290163D02*
X164714284Y-60242544D01*
X164714284Y-60242544D02*
X164761903Y-60194925D01*
X164761903Y-60194925D02*
X164809522Y-60099687D01*
X164809522Y-60099687D02*
X164809522Y-59813973D01*
X164809522Y-59813973D02*
X164761903Y-59718735D01*
X164761903Y-59718735D02*
X164714284Y-59671116D01*
X164714284Y-59671116D02*
X164619046Y-59623496D01*
X164619046Y-59623496D02*
X164476189Y-59623496D01*
X165095237Y-60290163D02*
X165476189Y-60290163D01*
X165238094Y-60623496D02*
X165238094Y-59766354D01*
X165238094Y-59766354D02*
X165285713Y-59671116D01*
X165285713Y-59671116D02*
X165380951Y-59623496D01*
X165380951Y-59623496D02*
X165476189Y-59623496D01*
X165809523Y-59623496D02*
X165809523Y-60623496D01*
X165809523Y-60623496D02*
X166190475Y-60623496D01*
X166190475Y-60623496D02*
X166285713Y-60575877D01*
X166285713Y-60575877D02*
X166333332Y-60528258D01*
X166333332Y-60528258D02*
X166380951Y-60433020D01*
X166380951Y-60433020D02*
X166380951Y-60290163D01*
X166380951Y-60290163D02*
X166333332Y-60194925D01*
X166333332Y-60194925D02*
X166285713Y-60147306D01*
X166285713Y-60147306D02*
X166190475Y-60099687D01*
X166190475Y-60099687D02*
X165809523Y-60099687D01*
X167238094Y-60290163D02*
X167238094Y-59623496D01*
X166809523Y-60290163D02*
X166809523Y-59766354D01*
X166809523Y-59766354D02*
X166857142Y-59671116D01*
X166857142Y-59671116D02*
X166952380Y-59623496D01*
X166952380Y-59623496D02*
X167095237Y-59623496D01*
X167095237Y-59623496D02*
X167190475Y-59671116D01*
X167190475Y-59671116D02*
X167238094Y-59718735D01*
X168142856Y-59671116D02*
X168047618Y-59623496D01*
X168047618Y-59623496D02*
X167857142Y-59623496D01*
X167857142Y-59623496D02*
X167761904Y-59671116D01*
X167761904Y-59671116D02*
X167714285Y-59718735D01*
X167714285Y-59718735D02*
X167666666Y-59813973D01*
X167666666Y-59813973D02*
X167666666Y-60099687D01*
X167666666Y-60099687D02*
X167714285Y-60194925D01*
X167714285Y-60194925D02*
X167761904Y-60242544D01*
X167761904Y-60242544D02*
X167857142Y-60290163D01*
X167857142Y-60290163D02*
X168047618Y-60290163D01*
X168047618Y-60290163D02*
X168142856Y-60242544D01*
X168571428Y-59623496D02*
X168571428Y-60623496D01*
X168666666Y-60004449D02*
X168952380Y-59623496D01*
X168952380Y-60290163D02*
X168571428Y-59909211D01*
X170142857Y-59623496D02*
X170142857Y-60290163D01*
X170142857Y-60099687D02*
X170190476Y-60194925D01*
X170190476Y-60194925D02*
X170238095Y-60242544D01*
X170238095Y-60242544D02*
X170333333Y-60290163D01*
X170333333Y-60290163D02*
X170428571Y-60290163D01*
X171142857Y-59671116D02*
X171047619Y-59623496D01*
X171047619Y-59623496D02*
X170857143Y-59623496D01*
X170857143Y-59623496D02*
X170761905Y-59671116D01*
X170761905Y-59671116D02*
X170714286Y-59766354D01*
X170714286Y-59766354D02*
X170714286Y-60147306D01*
X170714286Y-60147306D02*
X170761905Y-60242544D01*
X170761905Y-60242544D02*
X170857143Y-60290163D01*
X170857143Y-60290163D02*
X171047619Y-60290163D01*
X171047619Y-60290163D02*
X171142857Y-60242544D01*
X171142857Y-60242544D02*
X171190476Y-60147306D01*
X171190476Y-60147306D02*
X171190476Y-60052068D01*
X171190476Y-60052068D02*
X170714286Y-59956830D01*
X171523810Y-60290163D02*
X171761905Y-59623496D01*
X171761905Y-59623496D02*
X172000000Y-60290163D01*
X173095239Y-59909211D02*
X173571429Y-59909211D01*
X173000001Y-59623496D02*
X173333334Y-60623496D01*
X173333334Y-60623496D02*
X173666667Y-59623496D01*
%TO.C,JP1_0*%
D11*
X137800000Y-38779616D02*
X137800000Y-40779616D01*
X137800000Y-40779616D02*
X140600000Y-40779616D01*
X140600000Y-38779616D02*
X137800000Y-38779616D01*
X140600000Y-40779616D02*
X140600000Y-38779616D01*
%TO.C,JP1_3*%
X156400000Y-87779616D02*
X156400000Y-89779616D01*
X156400000Y-89779616D02*
X159200000Y-89779616D01*
X159200000Y-87779616D02*
X156400000Y-87779616D01*
X159200000Y-89779616D02*
X159200000Y-87779616D01*
%TO.C,JP1_2*%
X117400000Y-87779616D02*
X117400000Y-89779616D01*
X117400000Y-89779616D02*
X120200000Y-89779616D01*
X120200000Y-87779616D02*
X117400000Y-87779616D01*
X120200000Y-89779616D02*
X120200000Y-87779616D01*
%TO.C,JP1_1*%
X176800000Y-38779616D02*
X176800000Y-40779616D01*
X176800000Y-40779616D02*
X179600000Y-40779616D01*
X179600000Y-38779616D02*
X176800000Y-38779616D01*
X179600000Y-40779616D02*
X179600000Y-38779616D01*
%TD*%
M02*
